<svg width="66" height="59" viewBox="0 0 66 59" fill="none" xmlns="http://www.w3.org/2000/svg">
<path d="M52.0741 49.5979C56.1018 49.9271 60.1539 49.4082 63.9688 48.0749C64.1144 46.2797 63.7488 44.48 62.9142 42.8839C62.0797 41.2878 60.8103 39.9606 59.2529 39.0559C57.6955 38.1511 55.9138 37.7058 54.1139 37.7714C52.314 37.837 50.5695 38.4108 49.0821 39.4265M52.0709 49.5948L52.0741 49.6933C52.0741 50.4087 52.0359 51.1146 51.9564 51.8109C46.1867 55.1212 39.6486 56.858 32.9967 56.8473C26.0971 56.8473 19.6203 55.0159 14.037 51.8109C13.9553 51.0751 13.916 50.3351 13.9194 49.5948M52.0741 49.5948C52.0617 45.9911 51.0239 42.4654 49.0821 39.4297M49.0821 39.4297C47.3585 36.7264 44.9808 34.5015 42.1692 32.9609C39.3576 31.4203 36.2028 30.6138 32.9967 30.616C29.7912 30.6143 26.6371 31.4211 23.826 32.9617C21.015 34.5023 18.6379 36.7269 16.9145 39.4297M16.9145 39.4297C15.4272 38.4149 13.683 37.8419 11.8836 37.7768C10.0842 37.7117 8.30315 38.1572 6.74633 39.0618C5.18952 39.9664 3.92054 41.2932 3.08611 42.8887C2.25169 44.4843 1.8859 46.2834 2.03105 48.0781C5.84304 49.4189 9.89608 49.9358 13.9226 49.5948M16.9114 39.4297C14.9706 42.4658 13.934 45.9914 13.9226 49.5948M42.5354 11.5387C42.5354 14.0685 41.5304 16.4947 39.7416 18.2835C37.9527 20.0724 35.5265 21.0773 32.9967 21.0773C30.4669 21.0773 28.0407 20.0724 26.2519 18.2835C24.463 16.4947 23.4581 14.0685 23.4581 11.5387C23.4581 9.00885 24.463 6.58266 26.2519 4.79381C28.0407 3.00496 30.4669 2 32.9967 2C35.5265 2 37.9527 3.00496 39.7416 4.79381C41.5304 6.58266 42.5354 9.00885 42.5354 11.5387V11.5387ZM61.6127 21.0773C61.6127 22.0168 61.4277 22.9471 61.0682 23.815C60.7086 24.683 60.1817 25.4717 59.5174 26.136C58.8531 26.8003 58.0644 27.3272 57.1964 27.6868C56.3285 28.0463 55.3982 28.2313 54.4587 28.2313C53.5192 28.2313 52.589 28.0463 51.721 27.6868C50.853 27.3272 50.0644 26.8003 49.4001 26.136C48.7358 25.4717 48.2088 24.683 47.8493 23.815C47.4898 22.9471 47.3047 22.0168 47.3047 21.0773C47.3047 19.18 48.0584 17.3603 49.4001 16.0187C50.7417 14.6771 52.5614 13.9233 54.4587 13.9233C56.3561 13.9233 58.1757 14.6771 59.5174 16.0187C60.859 17.3603 61.6127 19.18 61.6127 21.0773V21.0773ZM18.6887 21.0773C18.6887 22.0168 18.5037 22.9471 18.1442 23.815C17.7846 24.683 17.2577 25.4717 16.5934 26.136C15.9291 26.8003 15.1404 27.3272 14.2725 27.6868C13.4045 28.0463 12.4742 28.2313 11.5347 28.2313C10.5953 28.2313 9.66498 28.0463 8.79702 27.6868C7.92906 27.3272 7.1404 26.8003 6.47609 26.136C5.81178 25.4717 5.28483 24.683 4.9253 23.815C4.56578 22.9471 4.38074 22.0168 4.38074 21.0773C4.38074 19.18 5.13446 17.3603 6.47609 16.0187C7.81773 14.6771 9.63738 13.9233 11.5347 13.9233C13.4321 13.9233 15.2517 14.6771 16.5934 16.0187C17.935 17.3603 18.6887 19.18 18.6887 21.0773V21.0773Z" stroke="#4CD79D" stroke-width="4" stroke-linecap="round" stroke-linejoin="round"/>
</svg>
