<svg width="56" height="62" viewBox="0 0 56 62" fill="none" xmlns="http://www.w3.org/2000/svg">
<path fill-rule="evenodd" clip-rule="evenodd" d="M27.9 34.1C35.3276 34.1 42.0825 36.2514 47.0518 39.2801C49.5318 40.7991 51.6522 42.5816 53.1836 44.5191C54.6902 46.4287 55.8 48.7103 55.8 51.15C55.8 53.7695 54.5259 55.8341 52.6907 57.3066C50.9547 58.7016 48.6638 59.6254 46.2303 60.2702C41.3385 61.5629 34.8099 62 27.9 62C20.9901 62 14.4615 61.566 9.5697 60.2702C7.1362 59.6254 4.8453 58.7016 3.1093 57.3066C1.271 55.831 0 53.7695 0 51.15C0 48.7103 1.1098 46.4287 2.6164 44.5191C4.1478 42.5816 6.2651 40.7991 8.7482 39.2801C13.7175 36.2514 20.4755 34.1 27.9 34.1ZM27.9 40.3C21.6287 40.3 15.9867 42.129 11.9784 44.5749C9.9727 45.7963 8.4599 47.1231 7.4834 48.3631C6.479 49.6341 6.2 50.5951 6.2 51.15C6.2 51.5282 6.3147 51.9281 6.9905 52.4706C7.7624 53.0906 9.1047 53.7323 11.1569 54.2748C15.2427 55.3598 21.1141 55.8 27.9 55.8C34.689 55.8 40.5573 55.3567 44.64 54.2748C46.6953 53.7323 48.0376 53.0906 48.8095 52.4706C49.4853 51.9281 49.6 51.5282 49.6 51.15C49.6 50.592 49.321 49.6341 48.3197 48.3631C47.3401 47.1231 45.8273 45.7963 43.8216 44.5749C39.8133 42.1259 34.1713 40.3 27.9 40.3ZM27.9 0C32.0109 0 35.9533 1.63303 38.8602 4.53984C41.767 7.44666 43.4 11.3891 43.4 15.5C43.4 19.6109 41.767 23.5533 38.8602 26.4602C35.9533 29.367 32.0109 31 27.9 31C23.7891 31 19.8467 29.367 16.9398 26.4602C14.033 23.5533 12.4 19.6109 12.4 15.5C12.4 11.3891 14.033 7.44666 16.9398 4.53984C19.8467 1.63303 23.7891 0 27.9 0ZM27.9 6.2C26.6787 6.2 25.4694 6.44055 24.341 6.90792C23.2127 7.37529 22.1875 8.06032 21.3239 8.92391C20.4603 9.78749 19.7753 10.8127 19.3079 11.941C18.8405 13.0694 18.6 14.2787 18.6 15.5C18.6 16.7213 18.8405 17.9306 19.3079 19.059C19.7753 20.1873 20.4603 21.2125 21.3239 22.0761C22.1875 22.9397 23.2127 23.6247 24.341 24.0921C25.4694 24.5594 26.6787 24.8 27.9 24.8C30.3665 24.8 32.732 23.8202 34.4761 22.0761C36.2202 20.332 37.2 17.9665 37.2 15.5C37.2 13.0335 36.2202 10.668 34.4761 8.92391C32.732 7.17982 30.3665 6.2 27.9 6.2Z" fill="#4CD79D"/>
</svg>
