<svg width="24" height="25" viewBox="0 0 24 25" fill="none" xmlns="http://www.w3.org/2000/svg">
<g opacity="0.6">
<path fill-rule="evenodd" clip-rule="evenodd" d="M7.465 1.98348C8.638 1.92948 9.012 1.91748 12 1.91748C14.988 1.91748 15.362 1.93048 16.534 1.98348C17.706 2.03648 18.506 2.22348 19.206 2.49448C19.939 2.77148 20.604 3.20448 21.154 3.76448C21.714 4.31348 22.146 4.97748 22.422 5.71148C22.694 6.41148 22.88 7.21148 22.934 8.38148C22.988 9.55648 23 9.93048 23 12.9175C23 15.9055 22.987 16.2795 22.934 17.4525C22.881 18.6225 22.694 19.4225 22.422 20.1225C22.146 20.8566 21.7133 21.5217 21.154 22.0715C20.604 22.6315 19.939 23.0635 19.206 23.3395C18.506 23.6115 17.706 23.7975 16.536 23.8515C15.362 23.9055 14.988 23.9175 12 23.9175C9.012 23.9175 8.638 23.9045 7.465 23.8515C6.295 23.7985 5.495 23.6115 4.795 23.3395C4.06092 23.0634 3.39582 22.6307 2.846 22.0715C2.28638 21.5222 1.85331 20.8574 1.577 20.1235C1.306 19.4235 1.12 18.6235 1.066 17.4535C1.012 16.2785 1 15.9045 1 12.9175C1 9.92948 1.013 9.55548 1.066 8.38348C1.119 7.21148 1.306 6.41148 1.577 5.71148C1.85372 4.97756 2.28712 4.31279 2.847 3.76348C3.39604 3.20398 4.06047 2.77092 4.794 2.49448C5.494 2.22348 6.294 2.03748 7.464 1.98348H7.465ZM16.445 3.96348C15.285 3.91048 14.937 3.89948 12 3.89948C9.063 3.89948 8.715 3.91048 7.555 3.96348C6.482 4.01248 5.9 4.19148 5.512 4.34248C4.999 4.54248 4.632 4.77948 4.247 5.16448C3.88205 5.51953 3.60118 5.95176 3.425 6.42948C3.274 6.81748 3.095 7.39948 3.046 8.47248C2.993 9.63248 2.982 9.98048 2.982 12.9175C2.982 15.8545 2.993 16.2025 3.046 17.3625C3.095 18.4355 3.274 19.0175 3.425 19.4055C3.601 19.8825 3.882 20.3155 4.247 20.6705C4.602 21.0355 5.035 21.3165 5.512 21.4925C5.9 21.6435 6.482 21.8225 7.555 21.8715C8.715 21.9245 9.062 21.9355 12 21.9355C14.938 21.9355 15.285 21.9245 16.445 21.8715C17.518 21.8225 18.1 21.6435 18.488 21.4925C19.001 21.2925 19.368 21.0555 19.753 20.6705C20.118 20.3155 20.399 19.8825 20.575 19.4055C20.726 19.0175 20.905 18.4355 20.954 17.3625C21.007 16.2025 21.018 15.8545 21.018 12.9175C21.018 9.98048 21.007 9.63248 20.954 8.47248C20.905 7.39948 20.726 6.81748 20.575 6.42948C20.375 5.91648 20.138 5.54948 19.753 5.16448C19.3979 4.79955 18.9657 4.51869 18.488 4.34248C18.1 4.19148 17.518 4.01248 16.445 3.96348ZM10.595 16.3085C11.3797 16.6351 12.2534 16.6792 13.0669 16.4332C13.8805 16.1872 14.5834 15.6664 15.0556 14.9597C15.5278 14.253 15.7401 13.4044 15.656 12.5586C15.572 11.7128 15.197 10.9225 14.595 10.3225C14.2112 9.93896 13.7472 9.64529 13.2363 9.46263C12.7255 9.27996 12.1804 9.21284 11.6405 9.2661C11.1006 9.31935 10.5792 9.49166 10.1138 9.77061C9.64845 10.0496 9.25074 10.4282 8.9493 10.8793C8.64786 11.3304 8.45019 11.8428 8.37052 12.3794C8.29084 12.9161 8.33115 13.4638 8.48854 13.983C8.64593 14.5022 8.91648 14.9801 9.28072 15.3822C9.64496 15.7843 10.0938 16.1007 10.595 16.3085ZM8.002 8.91948C8.52702 8.39446 9.15032 7.97798 9.8363 7.69384C10.5223 7.4097 11.2575 7.26345 12 7.26345C12.7425 7.26345 13.4777 7.4097 14.1637 7.69384C14.8497 7.97798 15.473 8.39446 15.998 8.91948C16.523 9.44451 16.9395 10.0678 17.2236 10.7538C17.5078 11.4398 17.654 12.175 17.654 12.9175C17.654 13.66 17.5078 14.3952 17.2236 15.0812C16.9395 15.7672 16.523 16.3905 15.998 16.9155C14.9377 17.9758 13.4995 18.5715 12 18.5715C10.5005 18.5715 9.06234 17.9758 8.002 16.9155C6.94166 15.8551 6.34597 14.417 6.34597 12.9175C6.34597 11.4179 6.94166 9.97982 8.002 8.91948ZM18.908 8.10548C19.0381 7.98275 19.1423 7.83516 19.2143 7.67145C19.2863 7.50775 19.3248 7.33125 19.3274 7.15241C19.33 6.97357 19.2967 6.79603 19.2295 6.63029C19.1622 6.46455 19.0624 6.31399 18.936 6.18752C18.8095 6.06105 18.6589 5.96124 18.4932 5.894C18.3275 5.82676 18.1499 5.79346 17.9711 5.79606C17.7922 5.79867 17.6157 5.83713 17.452 5.90918C17.2883 5.98122 17.1407 6.08538 17.018 6.21548C16.7793 6.46851 16.6486 6.8046 16.6537 7.15241C16.6588 7.50022 16.7992 7.83236 17.0452 8.07832C17.2911 8.32429 17.6233 8.46471 17.9711 8.46978C18.3189 8.47485 18.655 8.34417 18.908 8.10548Z" fill="white"/>
</g>
</svg>
