<svg width="66" height="66" viewBox="0 0 66 66" fill="none" xmlns="http://www.w3.org/2000/svg">
<path d="M32.9952 20.6028L4.96681 48.6932C4.06972 49.4827 3.344 50.4478 2.83449 51.5288C2.32497 52.6098 2.04247 53.7837 2.00443 54.9782C1.96639 56.1727 2.17362 57.3622 2.61331 58.4735C3.05301 59.5847 3.71584 60.594 4.56087 61.439C5.40591 62.284 6.4152 62.9469 7.52643 63.3866C8.63766 63.8263 9.82723 64.0335 11.0217 63.9955C12.2161 63.9574 13.3901 63.6749 14.4711 63.1654C15.5521 62.6559 16.5172 61.9302 17.3067 61.0331L45.3971 33.0047" stroke="#4CD79D" stroke-width="4" stroke-linecap="round" stroke-linejoin="round"/>
<path d="M48.4946 33.0048C57.0563 33.0048 63.997 26.0642 63.997 17.5024C63.997 8.94067 57.0563 2 48.4946 2C39.9329 2 32.9922 8.94067 32.9922 17.5024C32.9922 26.0642 39.9329 33.0048 48.4946 33.0048Z" stroke="#4CD79D" stroke-width="4" stroke-linecap="round" stroke-linejoin="round"/>
</svg>
