<svg width="57" height="62" viewBox="0 0 57 62" fill="none" xmlns="http://www.w3.org/2000/svg">
<mask id="path-1-inside-1_1567_332" fill="white">
<path d="M56.8333 44.95C56.8333 46.128 56.1703 47.151 55.1599 47.678L30.2164 61.442C29.7112 61.814 29.0797 62 28.4167 62C27.7536 62 27.1221 61.814 26.617 61.442L1.67344 47.678C1.16724 47.4168 0.74362 47.0245 0.448595 46.5435C0.15357 46.0626 -0.00157608 45.5114 1.20715e-05 44.95V17.05C1.20715e-05 15.872 0.663067 14.849 1.67344 14.322L26.617 0.558C27.1221 0.186 27.7536 0 28.4167 0C29.0797 0 29.7112 0.186 30.2164 0.558L55.1599 14.322C56.1703 14.849 56.8333 15.872 56.8333 17.05V44.95ZM6.31483 21.7V40.3H10.2616V34.1H12.6296C14.3044 34.1 15.9106 33.4468 17.0949 32.2841C18.2791 31.1213 18.9445 29.5443 18.9445 27.9C18.9445 26.2557 18.2791 24.6787 17.0949 23.5159C15.9106 22.3532 14.3044 21.7 12.6296 21.7H6.31483ZM10.2616 31V24.8H11.8403C12.6777 24.8 13.4808 25.1266 14.0729 25.708C14.665 26.2893 14.9977 27.0778 14.9977 27.9C14.9977 28.7222 14.665 29.5107 14.0729 30.092C13.4808 30.6734 12.6777 31 11.8403 31H10.2616ZM21.3125 21.7V40.3H25.2593V34.1H27.6273L29.7112 40.3H33.879L31.3846 32.891C32.9318 31.775 33.9421 29.946 33.9421 27.9C33.9421 26.2557 33.2768 24.6787 32.0926 23.5159C30.9083 22.3532 29.3021 21.7 27.6273 21.7H21.3125ZM25.2593 31V24.8H26.838C27.6754 24.8 28.4785 25.1266 29.0706 25.708C29.6627 26.2893 29.9954 27.0778 29.9954 27.9C29.9954 28.7222 29.6627 29.5107 29.0706 30.092C28.4785 30.6734 27.6754 31 26.838 31H25.2593ZM44.2037 21.7C39.8465 21.7 36.3102 25.854 36.3102 31C36.3102 36.146 39.8465 40.3 44.2037 40.3C48.5609 40.3 52.0972 36.146 52.0972 31C52.0972 25.854 48.5609 21.7 44.2037 21.7ZM44.2037 25.575C46.6033 25.575 48.5609 27.993 48.5609 31C48.5609 34.007 46.6033 36.425 44.2037 36.425C41.8041 36.425 39.8781 34.007 39.8781 31C39.8781 27.993 41.8041 25.575 44.2037 25.575Z"/>
</mask>
<path d="M55.1599 47.678L54.235 45.9047L54.2142 45.9156L54.1936 45.9269L55.1599 47.678ZM30.2164 61.442L29.2501 59.6909L29.1357 59.754L29.0305 59.8315L30.2164 61.442ZM26.617 61.442L27.8028 59.8315L27.6976 59.754L27.5832 59.6909L26.617 61.442ZM1.67344 47.678L2.6397 45.9269L2.61527 45.9134L2.59047 45.9006L1.67344 47.678ZM1.20715e-05 44.95L2.00001 44.9557V44.95H1.20715e-05ZM1.67344 14.322L2.59836 16.0953L2.61916 16.0844L2.6397 16.0731L1.67344 14.322ZM26.617 0.558L27.5832 2.30909L27.6976 2.24596L27.8028 2.16848L26.617 0.558ZM30.2164 0.558L29.0305 2.16848L29.1357 2.24596L29.2501 2.30909L30.2164 0.558ZM55.1599 14.322L54.1936 16.0731L54.2142 16.0844L54.235 16.0953L55.1599 14.322ZM6.31483 21.7V19.7H4.31483V21.7H6.31483ZM6.31483 40.3H4.31483V42.3H6.31483V40.3ZM10.2616 40.3V42.3H12.2616V40.3H10.2616ZM10.2616 34.1V32.1H8.26158V34.1H10.2616ZM10.2616 31H8.26158V33H10.2616V31ZM10.2616 24.8V22.8H8.26158V24.8H10.2616ZM21.3125 40.3H19.3125V42.3H21.3125V40.3ZM25.2593 40.3V42.3H27.2593V40.3H25.2593ZM25.2593 34.1V32.1H23.2593V34.1H25.2593ZM27.6273 34.1L29.5231 33.4628L29.065 32.1H27.6273V34.1ZM29.7112 40.3L27.8154 40.9372L28.2735 42.3H29.7112V40.3ZM33.879 40.3V42.3H36.6626L35.7744 39.6619L33.879 40.3ZM31.3846 32.891L30.2146 31.269L29.0187 32.1316L29.4892 33.5291L31.3846 32.891ZM25.2593 31H23.2593V33H25.2593V31ZM25.2593 24.8V22.8H23.2593V24.8H25.2593ZM54.8333 44.95C54.8333 45.3455 54.6183 45.7048 54.235 45.9047L56.0848 49.4513C57.7222 48.5972 58.8333 46.9105 58.8333 44.95H54.8333ZM54.1936 45.9269L29.2501 59.6909L31.1827 63.1931L56.1262 49.4291L54.1936 45.9269ZM29.0305 59.8315C28.9136 59.9176 28.712 60 28.4167 60V64C29.4475 64 30.5088 63.7104 31.4023 63.0525L29.0305 59.8315ZM28.4167 60C28.1214 60 27.9198 59.9176 27.8028 59.8315L25.4311 63.0525C26.3245 63.7104 27.3859 64 28.4167 64V60ZM27.5832 59.6909L2.6397 45.9269L0.707172 49.4291L25.6507 63.1931L27.5832 59.6909ZM2.59047 45.9006C2.40545 45.8052 2.25561 45.6644 2.1534 45.4977L-1.25621 47.5893C-0.768375 48.3845 -0.0709638 49.0285 0.756405 49.4554L2.59047 45.9006ZM2.1534 45.4977C2.05139 45.3314 1.99947 45.1441 2 44.9557L-1.99998 44.9443C-2.00262 45.8788 -1.74425 46.7937 -1.25621 47.5893L2.1534 45.4977ZM2.00001 44.95V17.05H-1.99999V44.95H2.00001ZM2.00001 17.05C2.00001 16.6545 2.21503 16.2952 2.59836 16.0953L0.748512 12.5487C-0.888892 13.4028 -1.99999 15.0895 -1.99999 17.05H2.00001ZM2.6397 16.0731L27.5832 2.30909L25.6507 -1.19309L0.707172 12.5709L2.6397 16.0731ZM27.8028 2.16848C27.9198 2.08238 28.1214 2 28.4167 2V-2C27.3859 -2 26.3245 -1.71038 25.4311 -1.05248L27.8028 2.16848ZM28.4167 2C28.712 2 28.9136 2.08238 29.0305 2.16848L31.4023 -1.05248C30.5088 -1.71038 29.4475 -2 28.4167 -2V2ZM29.2501 2.30909L54.1936 16.0731L56.1262 12.5709L31.1827 -1.19309L29.2501 2.30909ZM54.235 16.0953C54.6183 16.2952 54.8333 16.6545 54.8333 17.05H58.8333C58.8333 15.0895 57.7222 13.4028 56.0848 12.5487L54.235 16.0953ZM54.8333 17.05V44.95H58.8333V17.05H54.8333ZM4.31483 21.7V40.3H8.31483V21.7H4.31483ZM6.31483 42.3H10.2616V38.3H6.31483V42.3ZM12.2616 40.3V34.1H8.26158V40.3H12.2616ZM10.2616 36.1H12.6296V32.1H10.2616V36.1ZM12.6296 36.1C14.8231 36.1 16.934 35.2448 18.4961 33.7112L15.6937 30.8569C14.8872 31.6488 13.7857 32.1 12.6296 32.1V36.1ZM18.4961 33.7112C20.0593 32.1763 20.9445 30.0867 20.9445 27.9H16.9445C16.9445 29.0019 16.4989 30.0663 15.6937 30.8569L18.4961 33.7112ZM20.9445 27.9C20.9445 25.7133 20.0593 23.6237 18.4961 22.0888L15.6937 24.9431C16.4989 25.7337 16.9445 26.7981 16.9445 27.9H20.9445ZM18.4961 22.0888C16.934 20.5552 14.8231 19.7 12.6296 19.7V23.7C13.7857 23.7 14.8872 24.1512 15.6937 24.9431L18.4961 22.0888ZM12.6296 19.7H6.31483V23.7H12.6296V19.7ZM12.2616 31V24.8H8.26158V31H12.2616ZM10.2616 26.8H11.8403V22.8H10.2616V26.8ZM11.8403 26.8C12.159 26.8 12.4574 26.9246 12.6717 27.1351L15.4741 24.2808C14.5042 23.3286 13.1964 22.8 11.8403 22.8V26.8ZM12.6717 27.1351C12.8848 27.3443 12.9977 27.6202 12.9977 27.9H16.9977C16.9977 26.5354 16.4452 25.2343 15.4741 24.2808L12.6717 27.1351ZM12.9977 27.9C12.9977 28.1798 12.8848 28.4557 12.6717 28.6649L15.4741 31.5192C16.4452 30.5657 16.9977 29.2646 16.9977 27.9H12.9977ZM12.6717 28.6649C12.4574 28.8754 12.159 29 11.8403 29V33C13.1964 33 14.5042 32.4714 15.4741 31.5192L12.6717 28.6649ZM11.8403 29H10.2616V33H11.8403V29ZM19.3125 21.7V40.3H23.3125V21.7H19.3125ZM21.3125 42.3H25.2593V38.3H21.3125V42.3ZM27.2593 40.3V34.1H23.2593V40.3H27.2593ZM25.2593 36.1H27.6273V32.1H25.2593V36.1ZM25.7315 34.7372L27.8154 40.9372L31.607 39.6628L29.5231 33.4628L25.7315 34.7372ZM29.7112 42.3H33.879V38.3H29.7112V42.3ZM35.7744 39.6619L33.2801 32.2529L29.4892 33.5291L31.9835 40.9381L35.7744 39.6619ZM32.5547 34.513C34.6008 33.0371 35.9421 30.6155 35.9421 27.9H31.9421C31.9421 29.2765 31.2627 30.5129 30.2146 31.269L32.5547 34.513ZM35.9421 27.9C35.9421 25.7133 35.057 23.6237 33.4937 22.0888L30.6914 24.9431C31.4966 25.7337 31.9421 26.7981 31.9421 27.9H35.9421ZM33.4937 22.0888C31.9317 20.5552 29.8208 19.7 27.6273 19.7V23.7C28.7834 23.7 29.8849 24.1512 30.6914 24.9431L33.4937 22.0888ZM27.6273 19.7H21.3125V23.7H27.6273V19.7ZM27.2593 31V24.8H23.2593V31H27.2593ZM25.2593 26.8H26.838V22.8H25.2593V26.8ZM26.838 26.8C27.1567 26.8 27.4551 26.9246 27.6694 27.1351L30.4718 24.2808C29.5019 23.3286 28.1941 22.8 26.838 22.8V26.8ZM27.6694 27.1351C27.8825 27.3443 27.9954 27.6202 27.9954 27.9H31.9954C31.9954 26.5354 31.4429 25.2343 30.4718 24.2808L27.6694 27.1351ZM27.9954 27.9C27.9954 28.1798 27.8825 28.4557 27.6694 28.6649L30.4718 31.5192C31.4429 30.5657 31.9954 29.2646 31.9954 27.9H27.9954ZM27.6694 28.6649C27.4551 28.8754 27.1567 29 26.838 29V33C28.1941 33 29.5019 32.4714 30.4718 31.5192L27.6694 28.6649ZM26.838 29H25.2593V33H26.838V29ZM44.2037 19.7C38.4486 19.7 34.3102 25.0676 34.3102 31H38.3102C38.3102 26.6404 41.2444 23.7 44.2037 23.7V19.7ZM34.3102 31C34.3102 36.9324 38.4486 42.3 44.2037 42.3V38.3C41.2444 38.3 38.3102 35.3596 38.3102 31H34.3102ZM44.2037 42.3C49.9588 42.3 54.0972 36.9324 54.0972 31H50.0972C50.0972 35.3596 47.163 38.3 44.2037 38.3V42.3ZM54.0972 31C54.0972 25.0676 49.9588 19.7 44.2037 19.7V23.7C47.163 23.7 50.0972 26.6404 50.0972 31H54.0972ZM44.2037 27.575C45.1158 27.575 46.5609 28.6711 46.5609 31H50.5609C50.5609 27.3149 48.0908 23.575 44.2037 23.575V27.575ZM46.5609 31C46.5609 33.3289 45.1158 34.425 44.2037 34.425V38.425C48.0908 38.425 50.5609 34.6851 50.5609 31H46.5609ZM44.2037 34.425C43.3079 34.425 41.8781 33.3493 41.8781 31H37.8781C37.8781 34.6647 40.3002 38.425 44.2037 38.425V34.425ZM41.8781 31C41.8781 28.6507 43.3079 27.575 44.2037 27.575V23.575C40.3002 23.575 37.8781 27.3353 37.8781 31H41.8781Z" fill="#4CD79D" mask="url(#path-1-inside-1_1567_332)"/>
</svg>
