<svg width="427" height="416" viewBox="0 0 427 416" fill="none" xmlns="http://www.w3.org/2000/svg">
<circle cx="378" cy="13.5" r="13" fill="#0A1C2D"/>
<path d="M53.842 124.222C123.089 45.4287 241.976 32.3047 294.986 57.6238C317.133 68.208 335.87 81.164 351.524 95.4048C353.738 97.4109 355.892 99.4467 357.978 101.502C364.698 108.124 370.785 114.962 376.29 121.93C383.346 130.853 389.434 139.985 394.612 149.107C402.953 163.772 408.962 178.398 412.925 192.066C416.057 202.858 417.914 213.057 418.637 222.218C420.149 241.4 418.834 260.72 416.255 279.784C416.017 281.602 415.761 283.42 415.483 285.239C415.415 285.743 415.346 286.247 415.267 286.751C412.43 305.696 408.418 324.808 399.464 341.332C389.701 359.348 355.556 409.482 318.546 410.796C299.344 411.478 282.386 398.908 264.982 390.033C237.292 375.921 205.994 373.154 175.457 372.334C144.92 371.512 114.007 372.393 84.2506 364.823C54.4943 357.263 25.3111 339.86 10.1018 310.914C4.93327 301.09 1.0099 286.939 1.00001 275.613C0.990131 242.2 6.45518 212.978 15.982 187.589C19.0851 179.298 22.623 171.421 26.5464 163.94C32.5847 152.407 39.542 141.823 47.2207 132.148L53.842 124.222Z" fill="#39D192"/>
<g opacity="0.699997">
<path d="M53.842 124.222C123.089 45.4287 241.976 32.3047 294.986 57.6238C317.133 68.208 335.87 81.164 351.524 95.4048C353.738 97.4109 355.892 99.4467 357.978 101.502C364.698 108.124 370.785 114.962 376.29 121.93C383.346 130.853 389.434 139.985 394.612 149.107C402.953 163.772 408.962 178.398 412.925 192.066C416.057 202.858 417.914 213.057 418.637 222.218C420.149 241.4 418.834 260.72 416.255 279.784C416.017 281.602 415.761 283.42 415.483 285.239C415.415 285.743 415.346 286.247 415.267 286.751C412.43 305.696 408.418 324.808 399.464 341.332C389.701 359.348 355.556 409.482 318.546 410.796C299.344 411.478 282.386 398.908 264.982 390.033C237.292 375.921 205.994 373.154 175.457 372.334C144.92 371.512 114.007 372.393 84.2506 364.823C54.4943 357.263 25.3111 339.86 10.1018 310.914C4.93327 301.09 1.0099 286.939 1.00001 275.613C0.990131 242.2 6.45518 212.978 15.982 187.589C19.0851 179.298 22.623 171.421 26.5464 163.94C32.5847 152.407 39.542 141.823 47.2207 132.148L53.842 124.222Z" fill="white"/>
</g>
<path d="M1 409.631H425.999" stroke="#1A2E35" stroke-width="1.33333" stroke-miterlimit="10" stroke-linecap="round" stroke-linejoin="round"/>
<path d="M328.071 266.266C328.062 266.276 328.062 266.285 328.071 266.293C328.08 266.329 328.09 266.366 328.098 266.402C328.133 266.58 328.17 266.769 328.215 266.966C328.545 268.552 328.932 270.748 329.209 273.518C329.398 275.41 329.54 277.561 329.586 279.962C329.675 284.597 329.415 290.154 328.447 296.51C328.232 297.962 327.972 299.459 327.668 300.999C327.184 303.511 326.583 306.136 325.857 308.862C325.525 310.125 325.158 311.417 324.763 312.725C324.602 313.254 324.45 313.783 324.298 314.311C324.118 314.957 323.938 315.602 323.768 316.247C323.768 316.256 323.76 316.265 323.76 316.275C322.613 320.648 321.724 325.139 321.043 329.594C320.2 335.177 319.682 340.717 319.395 345.97C319.009 352.962 319.027 359.425 319.197 364.767C319.197 364.857 319.197 364.938 319.205 365.028C319.385 370.44 319.717 374.671 319.949 377.092C320.075 378.498 320.165 379.297 320.175 379.35" stroke="#1A2E35" stroke-width="1.33333" stroke-miterlimit="10" stroke-linecap="round" stroke-linejoin="round"/>
<path d="M328.097 266.401C328.088 266.383 328.088 266.383 328.078 266.383C328.07 266.366 328.07 266.366 328.061 266.366C327.353 265.738 326.573 265.2 325.748 264.752C324.843 264.278 323.875 263.9 322.871 263.667" fill="white"/>
<path d="M328.097 266.401C328.088 266.383 328.088 266.383 328.078 266.383C328.07 266.366 328.07 266.366 328.061 266.366C327.353 265.738 326.573 265.2 325.748 264.752C324.843 264.278 323.875 263.9 322.871 263.667" stroke="#1A2E35" stroke-width="1.33333" stroke-miterlimit="10" stroke-linecap="round" stroke-linejoin="round"/>
<path d="M329.207 273.52L331.838 271.136" stroke="#1A2E35" stroke-width="1.33333" stroke-miterlimit="10" stroke-linecap="round" stroke-linejoin="round"/>
<path d="M325.856 308.87V308.861C325.722 308.172 325.515 307.491 325.237 306.836C324.852 305.877 324.323 304.98 323.669 304.173C323.185 303.573 322.628 303.026 322.02 302.543" stroke="#1A2E35" stroke-width="1.33333" stroke-miterlimit="10" stroke-linecap="round" stroke-linejoin="round"/>
<path d="M323.758 316.278C324.482 314.435 326.022 312.918 327.873 312.217" stroke="#1A2E35" stroke-width="1.33333" stroke-miterlimit="10" stroke-linecap="round" stroke-linejoin="round"/>
<path d="M319.184 353.039C320.064 351.978 320.729 347.936 321.087 345.765C321.173 345.244 321.245 344.802 321.305 344.483" fill="white"/>
<path d="M319.184 353.039C320.064 351.978 320.729 347.936 321.087 345.765C321.173 345.244 321.245 344.802 321.305 344.483" stroke="#1A2E35" stroke-width="1.33333" stroke-miterlimit="10" stroke-linecap="round" stroke-linejoin="round"/>
<path d="M312.41 360.339C312.707 360.32 313.002 360.33 313.298 360.365C315.861 360.599 318.255 362.365 319.196 364.766" fill="white"/>
<path d="M312.41 360.339C312.707 360.32 313.002 360.33 313.298 360.365C315.861 360.599 318.255 362.365 319.196 364.766" stroke="#1A2E35" stroke-width="1.33333" stroke-miterlimit="10" stroke-linecap="round" stroke-linejoin="round"/>
<path d="M327.666 301.038C327.666 301.038 328.134 284.997 319.324 279.182" stroke="#1A2E35" stroke-width="1.33333" stroke-miterlimit="10" stroke-linecap="round" stroke-linejoin="round"/>
<path d="M328.457 335.463C329.613 339.202 321.553 346.323 321.553 346.323C321.553 346.323 310.882 344.989 309.725 341.248C308.57 337.507 311.273 331.388 316.445 329.79C321.618 328.193 327.301 331.722 328.457 335.463Z" fill="#39D192"/>
<path d="M337.401 290.07C336.379 294.043 328.745 296.864 328.745 296.864C328.745 296.864 323.423 290.707 324.447 286.735C325.469 282.762 329.688 278.386 333.265 279.306C336.844 280.227 338.424 286.097 337.401 290.07Z" fill="#39D192"/>
<path d="M306.772 349.433C311.565 351.298 314.502 359.776 314.502 359.776C314.502 359.776 306.606 364.033 301.813 362.168C297.02 360.301 291.947 355.043 293.317 351.526C294.687 348.009 301.978 347.566 306.772 349.433Z" fill="#39D192"/>
<path d="M317.277 302.794C318.29 303.546 319.335 304.313 320.552 304.643C321.77 304.973 323.218 304.772 324.046 303.819C325.072 302.639 324.796 300.809 324.15 299.385C322.869 296.562 318.146 291.774 314.518 293.148C309.281 295.131 314.942 301.061 317.277 302.794Z" fill="#39D192"/>
<path d="M327.999 309.985C327.312 310.836 326.582 311.909 326.958 312.937C327.292 313.848 328.412 314.267 329.371 314.122C330.331 313.977 331.165 313.407 331.963 312.854C333.812 311.57 337.602 308.877 335.182 306.357C332.668 303.739 329.448 308.19 327.999 309.985Z" fill="#39D192"/>
<path d="M312.53 274.131C311.738 274.219 310.937 274.748 310.802 275.532C310.645 276.45 311.405 277.252 312.142 277.82C313.978 279.235 319.496 283.053 320.727 279.37C321.891 275.889 314.969 273.862 312.53 274.131Z" fill="#39D192"/>
<path d="M322.7 262.014C321.562 262.122 320.426 261.709 319.285 261.782C318.143 261.854 316.877 262.772 317.13 263.888C317.366 264.917 318.645 265.262 319.701 265.329C321.501 265.442 323.315 265.317 325.082 264.958C325.492 264.874 325.939 264.752 326.175 264.406C326.636 263.726 325.901 262.816 325.116 262.574C324.331 262.334 323.444 262.414 322.732 262.006L322.7 262.014Z" fill="#39D192"/>
<path d="M333.831 269.848C334.974 269.88 336.08 269.394 337.225 269.39C338.368 269.387 339.692 270.22 339.513 271.35C339.347 272.394 338.091 272.822 337.043 272.958C335.254 273.19 333.436 273.184 331.649 272.942C331.234 272.886 330.78 272.794 330.522 272.464C330.018 271.816 330.689 270.859 331.458 270.567C332.225 270.276 333.115 270.296 333.799 269.843L333.831 269.848Z" fill="#39D192"/>
<path d="M332.699 354.071C332.982 353.832 333.301 353.587 333.671 353.59C334.161 353.594 334.55 354.055 334.642 354.538C334.733 355.019 334.597 355.511 334.457 355.981C333.683 358.573 324.983 377.348 322.983 373.977C321.799 371.984 324.707 365.381 325.565 363.514C327.224 359.901 329.659 356.638 332.699 354.071Z" fill="#39D192"/>
<path d="M328.46 267.497C328.46 267.497 327.937 262.945 329.038 262.572" stroke="#1A2E35" stroke-width="1.33333" stroke-miterlimit="10" stroke-linecap="round" stroke-linejoin="round"/>
<path d="M327.5 262.728C328.19 261.179 328.937 259.557 330.31 258.559C331.68 257.561 333.879 257.486 334.878 258.857C335.996 260.391 334.878 262.72 333.166 263.537C331.455 264.355 329.45 264.108 327.571 263.845L327.525 263.008L327.5 262.728Z" fill="#39D192"/>
<path d="M332.186 409.401C322.933 410.979 313.292 410.979 304.04 409.401L293.09 377.095H343.134L332.186 409.401Z" fill="white"/>
<path d="M332.186 409.401C322.933 410.979 313.292 410.979 304.04 409.401L293.09 377.095H343.134L332.186 409.401Z" stroke="#1A2E35" stroke-width="1.33333" stroke-miterlimit="10" stroke-linecap="round" stroke-linejoin="round"/>
<path d="M141.189 176C141.18 176.009 141.18 176.017 141.189 176.026C141.198 176.062 141.206 176.098 141.215 176.134C141.251 176.313 141.287 176.502 141.332 176.699C141.663 178.285 142.049 180.481 142.327 183.25C142.515 185.142 142.658 187.293 142.704 189.696C142.794 194.33 142.533 199.887 141.565 206.242C141.35 207.695 141.09 209.191 140.785 210.733C140.301 213.243 139.7 215.869 138.975 218.594C138.643 219.857 138.275 221.149 137.881 222.458C137.72 222.986 137.567 223.515 137.414 224.044C137.236 224.69 137.056 225.334 136.886 225.981C136.886 225.989 136.877 225.998 136.877 226.007C135.729 230.381 134.842 234.872 134.161 239.327C133.319 244.911 132.798 250.45 132.512 255.703C132.126 262.694 132.144 269.158 132.315 274.499C132.315 274.589 132.315 274.67 132.324 274.76C132.503 280.174 132.834 284.404 133.067 286.825C133.193 288.232 133.283 289.03 133.291 289.083" stroke="#1A2E35" stroke-width="1.33333" stroke-miterlimit="10" stroke-linecap="round" stroke-linejoin="round"/>
<path d="M141.21 176.134C141.201 176.116 141.201 176.116 141.192 176.116C141.184 176.098 141.184 176.098 141.175 176.098C140.467 175.471 139.686 174.933 138.862 174.485C137.957 174.01 136.988 173.633 135.984 173.4" fill="white"/>
<path d="M141.21 176.134C141.201 176.116 141.201 176.116 141.192 176.116C141.184 176.098 141.184 176.098 141.175 176.098C140.467 175.471 139.686 174.933 138.862 174.485C137.957 174.01 136.988 173.633 135.984 173.4" stroke="#1A2E35" stroke-width="1.33333" stroke-miterlimit="10" stroke-linecap="round" stroke-linejoin="round"/>
<path d="M142.324 183.252L144.955 180.869" stroke="#1A2E35" stroke-width="1.33333" stroke-miterlimit="10" stroke-linecap="round" stroke-linejoin="round"/>
<path d="M138.969 218.603V218.594C138.835 217.904 138.628 217.223 138.351 216.568C137.965 215.61 137.436 214.713 136.782 213.906C136.298 213.306 135.742 212.759 135.133 212.275" stroke="#1A2E35" stroke-width="1.33333" stroke-miterlimit="10" stroke-linecap="round" stroke-linejoin="round"/>
<path d="M136.871 226.01C137.596 224.168 139.135 222.65 140.986 221.949" stroke="#1A2E35" stroke-width="1.33333" stroke-miterlimit="10" stroke-linecap="round" stroke-linejoin="round"/>
<path d="M132.297 262.771C133.177 261.71 133.843 257.668 134.2 255.497C134.286 254.976 134.358 254.534 134.42 254.215" fill="white"/>
<path d="M132.297 262.771C133.177 261.71 133.843 257.668 134.2 255.497C134.286 254.976 134.358 254.534 134.42 254.215" stroke="#1A2E35" stroke-width="1.33333" stroke-miterlimit="10" stroke-linecap="round" stroke-linejoin="round"/>
<path d="M125.527 270.072C125.823 270.054 126.119 270.063 126.415 270.098C128.978 270.332 131.372 272.098 132.313 274.499" fill="white"/>
<path d="M125.527 270.072C125.823 270.054 126.119 270.063 126.415 270.098C128.978 270.332 131.372 272.098 132.313 274.499" stroke="#1A2E35" stroke-width="1.33333" stroke-miterlimit="10" stroke-linecap="round" stroke-linejoin="round"/>
<path d="M140.779 210.771C140.779 210.771 141.247 194.73 132.438 188.915" stroke="#1A2E35" stroke-width="1.33333" stroke-miterlimit="10" stroke-linecap="round" stroke-linejoin="round"/>
<path d="M141.57 245.196C142.725 248.935 134.666 256.056 134.666 256.056C134.666 256.056 123.994 254.723 122.839 250.981C121.683 247.24 124.386 241.121 129.559 239.523C134.731 237.926 140.415 241.455 141.57 245.196Z" fill="#39D192"/>
<path d="M150.515 199.803C149.492 203.776 141.859 206.597 141.859 206.597C141.859 206.597 136.537 200.441 137.56 196.468C138.583 192.495 142.802 188.118 146.379 189.039C149.957 189.96 151.538 195.83 150.515 199.803Z" fill="#39D192"/>
<path d="M119.885 259.164C124.679 261.031 127.617 269.508 127.617 269.508C127.617 269.508 119.72 273.766 114.926 271.9C110.133 270.034 105.061 264.776 106.43 261.258C107.8 257.742 115.092 257.298 119.885 259.164Z" fill="#39D192"/>
<path d="M130.398 212.526C131.411 213.278 132.456 214.046 133.674 214.376C134.891 214.706 136.339 214.505 137.167 213.552C138.193 212.371 137.917 210.542 137.272 209.118C135.991 206.295 131.267 201.507 127.639 202.881C122.402 204.864 128.063 210.793 130.398 212.526Z" fill="#39D192"/>
<path d="M141.112 219.718C140.425 220.57 139.695 221.643 140.071 222.671C140.405 223.582 141.524 224 142.485 223.855C143.444 223.71 144.278 223.141 145.076 222.588C146.925 221.303 150.715 218.61 148.296 216.091C145.781 213.472 142.56 217.924 141.112 219.718Z" fill="#39D192"/>
<path d="M125.647 183.864C124.855 183.951 124.054 184.481 123.919 185.266C123.762 186.183 124.522 186.985 125.259 187.552C127.096 188.968 132.613 192.786 133.844 189.102C135.007 185.622 128.086 183.595 125.647 183.864Z" fill="#39D192"/>
<path d="M135.817 171.747C134.678 171.855 133.543 171.442 132.401 171.515C131.261 171.587 129.994 172.505 130.248 173.621C130.482 174.65 131.763 174.995 132.818 175.061C134.618 175.175 136.432 175.05 138.199 174.69C138.609 174.607 139.056 174.485 139.291 174.138C139.752 173.459 139.018 172.548 138.233 172.307C137.447 172.067 136.561 172.147 135.848 171.74L135.817 171.747Z" fill="#39D192"/>
<path d="M146.937 179.581C148.079 179.613 149.185 179.127 150.33 179.124C151.473 179.12 152.797 179.953 152.617 181.083C152.451 182.126 151.196 182.555 150.148 182.691C148.359 182.922 146.541 182.917 144.754 182.675C144.339 182.619 143.886 182.527 143.628 182.197C143.123 181.549 143.795 180.592 144.563 180.3C145.331 180.008 146.22 180.029 146.904 179.576L146.937 179.581Z" fill="#39D192"/>
<path d="M145.817 263.803C146.099 263.565 146.419 263.32 146.788 263.323C147.278 263.327 147.669 263.788 147.759 264.271C147.851 264.752 147.715 265.244 147.575 265.714C146.801 268.306 138.102 287.081 136.099 283.71C134.916 281.717 137.825 275.114 138.683 273.247C140.341 269.634 142.777 266.371 145.817 263.803Z" fill="#39D192"/>
<path d="M141.573 177.23C141.573 177.23 141.05 172.677 142.151 172.305" stroke="#1A2E35" stroke-width="1.33333" stroke-miterlimit="10" stroke-linecap="round" stroke-linejoin="round"/>
<path d="M140.613 172.461C141.303 170.912 142.05 169.29 143.423 168.292C144.795 167.295 146.993 167.22 147.992 168.59C149.109 170.123 147.992 172.453 146.28 173.271C144.568 174.088 142.563 173.842 140.684 173.578C140.67 173.299 140.655 173.02 140.639 172.741L140.613 172.461Z" fill="#39D192"/>
<path d="M15.9844 285.239V187.589" stroke="#1A2E35" stroke-width="1.33333" stroke-miterlimit="10" stroke-linecap="round" stroke-linejoin="round"/>
<path d="M320.863 285.239H308.789" stroke="#1A2E35" stroke-width="1.33333" stroke-miterlimit="10" stroke-linecap="round" stroke-linejoin="round"/>
<path d="M415.483 285.239H390.906" stroke="#1A2E35" stroke-width="1.33333" stroke-miterlimit="10" stroke-linecap="round" stroke-linejoin="round"/>
<path d="M307.684 136.891H351.236V95.4042" stroke="#1A2E35" stroke-width="1.33333" stroke-miterlimit="10" stroke-linecap="round" stroke-linejoin="round"/>
<path d="M53.8477 124.222H100.118V157.971H150.83" stroke="#1A2E35" stroke-width="1.33333" stroke-miterlimit="10" stroke-linecap="round" stroke-linejoin="round"/>
<path d="M26.5508 238.514V163.94" stroke="#1A2E35" stroke-width="1.33333" stroke-miterlimit="10" stroke-linecap="round" stroke-linejoin="round"/>
<path d="M47.2148 131.57V190.022" stroke="#1A2E35" stroke-width="1.33333" stroke-miterlimit="10" stroke-linecap="round" stroke-linejoin="round"/>
<path d="M67.8789 131.57V183.244" stroke="#1A2E35" stroke-width="1.33333" stroke-miterlimit="10" stroke-linecap="round" stroke-linejoin="round"/>
<path d="M88.5508 131.57V221.949" stroke="#1A2E35" stroke-width="1.33333" stroke-miterlimit="10" stroke-linecap="round" stroke-linejoin="round"/>
<path d="M187.543 118.758V59.3335H271.673V118.758" stroke="#1A2E35" stroke-width="1.33333" stroke-miterlimit="10" stroke-linecap="round" stroke-linejoin="round"/>
<path d="M193.715 88.8506V66.3856H209.263" stroke="#1A2E35" stroke-width="1.33333" stroke-miterlimit="10" stroke-linecap="round" stroke-linejoin="round"/>
<path d="M212.691 88.8501V66.3851H228.239" stroke="#1A2E35" stroke-width="1.33333" stroke-miterlimit="10" stroke-linecap="round" stroke-linejoin="round"/>
<path d="M231.66 88.8506V66.3856H247.207" stroke="#1A2E35" stroke-width="1.33333" stroke-miterlimit="10" stroke-linecap="round" stroke-linejoin="round"/>
<path d="M250.633 88.8506V66.3856H266.181" stroke="#1A2E35" stroke-width="1.33333" stroke-miterlimit="10" stroke-linecap="round" stroke-linejoin="round"/>
<path d="M193.715 118.758V96.2923H209.263" stroke="#1A2E35" stroke-width="1.33333" stroke-miterlimit="10" stroke-linecap="round" stroke-linejoin="round"/>
<path d="M212.691 118.758V96.2923H228.239" stroke="#1A2E35" stroke-width="1.33333" stroke-miterlimit="10" stroke-linecap="round" stroke-linejoin="round"/>
<path d="M231.66 118.758V96.2923H247.207" stroke="#1A2E35" stroke-width="1.33333" stroke-miterlimit="10" stroke-linecap="round" stroke-linejoin="round"/>
<path d="M250.633 118.758V96.2923H266.181" stroke="#1A2E35" stroke-width="1.33333" stroke-miterlimit="10" stroke-linecap="round" stroke-linejoin="round"/>
<path d="M357.977 100.547V175.012" stroke="#1A2E35" stroke-width="1.33333" stroke-miterlimit="10" stroke-linecap="round" stroke-linejoin="round"/>
<path d="M388.527 279.784H390.907" stroke="#1A2E35" stroke-width="1.33333" stroke-miterlimit="10" stroke-linecap="round" stroke-linejoin="round"/>
<path d="M376.289 121.93V205.297" stroke="#1A2E35" stroke-width="1.33333" stroke-miterlimit="10" stroke-linecap="round" stroke-linejoin="round"/>
<path d="M394.613 258.494V279.784H409.229" stroke="#1A2E35" stroke-width="1.33333" stroke-miterlimit="10" stroke-linecap="round" stroke-linejoin="round"/>
<path d="M394.613 149.107V205.719" stroke="#1A2E35" stroke-width="1.33333" stroke-miterlimit="10" stroke-linecap="round" stroke-linejoin="round"/>
<path d="M412.926 192.066V279.783H416.256" stroke="#1A2E35" stroke-width="1.33333" stroke-miterlimit="10" stroke-linecap="round" stroke-linejoin="round"/>
<path d="M189.761 409.631H1.00391V287.029H189.761V409.631Z" fill="white" stroke="#1A2E35" stroke-width="1.33333" stroke-miterlimit="10" stroke-linecap="round" stroke-linejoin="round"/>
<path d="M1 287.03L95.3784 348.33L189.757 287.03H1Z" fill="white"/>
<path d="M1 287.03L95.3784 348.33L189.757 287.03H1Z" stroke="#1A2E35" stroke-width="1.33333" stroke-miterlimit="10" stroke-linecap="round" stroke-linejoin="round"/>
<path d="M67.0076 329.902L1 409.631" stroke="#1A2E35" stroke-width="1.33333" stroke-miterlimit="10" stroke-linecap="round" stroke-linejoin="round"/>
<path d="M124.262 329.902L190.268 409.631" stroke="#1A2E35" stroke-width="1.33333" stroke-miterlimit="10" stroke-linecap="round" stroke-linejoin="round"/>
<path d="M290.775 130.582H246.898C244.321 130.582 241.949 131.987 240.71 134.247L240.685 134.29C237.345 140.311 229.756 142.483 223.736 139.142C221.697 138.01 220.016 136.329 218.884 134.29C217.653 132.006 215.267 130.582 212.672 130.582H168.863C163.804 130.518 159.649 134.566 159.582 139.625V387.097C159.649 392.157 163.804 396.205 168.863 396.14H290.775C295.836 396.205 299.991 392.158 300.062 387.097V139.625C299.991 134.565 295.836 130.518 290.775 130.582Z" fill="#39D192"/>
<path d="M300.057 387.097C299.986 392.158 295.831 396.205 290.77 396.141H168.857C163.798 396.205 159.643 392.157 159.577 387.097V139.625C159.643 134.566 163.798 130.518 168.857 130.583H212.7C215.295 130.583 217.682 132.007 218.913 134.291C222.253 140.311 229.842 142.483 235.862 139.142C237.901 138.01 239.582 136.329 240.714 134.291L240.739 134.247C241.977 131.987 244.35 130.583 246.927 130.583H290.804C295.864 130.518 300.02 134.565 300.09 139.625L300.057 387.097ZM304.334 136.887C304.334 129.893 298.665 124.223 291.671 124.223H291.664H167.962C160.969 124.22 155.296 129.886 155.293 136.881V136.887V396.968C155.293 403.961 160.962 409.631 167.955 409.631H167.962H291.664C298.658 409.635 304.33 403.968 304.334 396.975V396.968V136.887Z" fill="#1A2E35"/>
<g opacity="0.199997">
<path d="M262.316 124.224L180.145 409.624L212.773 409.589L291.904 124.224H262.316Z" fill="white"/>
</g>
<g opacity="0.199997">
<path d="M250.031 124.224L163.156 409.631L167.914 409.596L253.158 124.224H250.031Z" fill="white"/>
</g>
<path d="M251.975 336.392C252.185 348.354 242.66 358.05 230.7 358.05C218.738 358.05 208.871 348.354 208.66 336.392C208.449 324.431 217.975 314.735 229.936 314.735C241.897 314.735 251.764 324.431 251.975 336.392Z" fill="white"/>
<path d="M251.975 336.392C252.185 348.354 242.66 358.05 230.7 358.05C218.738 358.05 208.871 348.354 208.66 336.392C208.449 324.431 217.975 314.735 229.936 314.735C241.897 314.735 251.764 324.431 251.975 336.392Z" stroke="#1A2E35" stroke-width="1.33333" stroke-miterlimit="10" stroke-linecap="round" stroke-linejoin="round"/>
<path d="M231.385 342.309C232.359 341.606 233.083 340.611 233.451 339.468L235.517 332.2L235.381 331.907C235.248 331.666 235.09 331.443 234.907 331.24C234.66 330.956 234.393 330.692 234.105 330.449C233.735 330.152 233.315 329.923 232.865 329.772C231.695 329.359 230.413 329.403 229.274 329.897C228.656 330.163 228.087 330.534 227.593 330.992C227.078 331.472 226.62 332.011 226.227 332.596C225.817 333.201 225.472 333.848 225.194 334.525C224.916 335.2 224.701 335.898 224.551 336.612C224.403 337.291 224.326 337.984 224.323 338.678C224.321 339.123 224.348 339.569 224.404 340.011C224.452 340.402 224.538 340.788 224.661 341.163C224.772 341.502 224.927 341.825 225.125 342.121C225.306 342.395 225.536 342.635 225.802 342.831C226.083 343.037 226.401 343.191 226.738 343.283C227.135 343.394 227.546 343.446 227.957 343.441C229.193 343.454 230.399 343.056 231.385 342.309ZM223.223 352.557C221.212 351.815 219.368 350.681 217.8 349.218C216.218 347.697 214.991 345.845 214.209 343.794C213.324 341.496 212.883 339.048 212.916 336.583C212.899 334.479 213.27 332.39 214.011 330.421C214.681 328.615 215.683 326.95 216.968 325.514C219.505 322.731 222.788 320.734 226.425 319.757C228.211 319.278 230.05 319.035 231.899 319.034C233.432 319.028 234.96 319.211 236.449 319.576C237.889 319.932 239.267 320.503 240.536 321.268C241.79 322.023 242.914 322.977 243.865 324.091C244.859 325.287 245.616 326.663 246.099 328.143C246.657 329.827 246.931 331.593 246.913 333.367C246.893 336.782 245.67 340.08 243.46 342.682C242.503 343.773 241.369 344.693 240.102 345.401C239.012 346.033 237.779 346.376 236.519 346.399C235.655 346.408 234.811 346.137 234.115 345.624C233.402 345.1 232.98 344.27 232.975 343.386C231.502 345.463 229.509 346.501 226.994 346.501C224.947 346.501 223.311 345.801 222.087 344.401C220.863 343.001 220.253 341.279 220.258 339.237C220.263 337.681 220.535 336.138 221.059 334.675C221.572 333.194 222.306 331.801 223.239 330.543C224.163 329.301 225.345 328.273 226.703 327.529C228.056 326.764 229.585 326.363 231.139 326.366C232.22 326.355 233.286 326.616 234.239 327.123C235.167 327.616 235.921 328.385 236.395 329.322L236.596 328.667C236.92 327.702 237.964 327.18 238.931 327.503C239.111 327.563 239.283 327.652 239.438 327.766C239.741 328.013 239.908 328.391 239.887 328.782C239.888 328.966 239.857 329.15 239.797 329.322L236.592 339.978C236.23 341.196 236.05 342.032 236.05 342.485C236.05 343.253 236.441 343.636 237.224 343.634C238.247 343.634 239.252 343.164 240.238 342.224C241.301 341.164 242.122 339.885 242.643 338.477C243.257 336.936 243.57 335.292 243.567 333.634C243.583 332.173 243.369 330.718 242.935 329.322C242.574 328.121 241.999 326.992 241.238 325.994C240.515 325.085 239.641 324.305 238.655 323.69C237.671 323.071 236.596 322.606 235.471 322.314C234.317 322.013 233.131 321.861 231.938 321.862C230.422 321.864 228.914 322.077 227.456 322.495C225.961 322.923 224.535 323.566 223.223 324.404C221.901 325.239 220.703 326.257 219.668 327.427C218.598 328.66 217.764 330.079 217.208 331.614C216.589 333.287 216.28 335.058 216.294 336.842C216.26 338.954 216.643 341.053 217.422 343.018C218.087 344.72 219.142 346.243 220.504 347.465C221.816 348.606 223.332 349.491 224.972 350.071C226.701 350.683 228.523 350.988 230.357 350.975C232.317 350.977 234.267 350.682 236.138 350.094C236.326 350.029 236.524 349.999 236.723 350.004C237.106 349.988 237.478 350.141 237.739 350.422C237.987 350.68 238.124 351.023 238.123 351.38C238.174 351.974 237.778 352.515 237.196 352.645C234.862 353.36 232.436 353.732 229.996 353.751C227.684 353.769 225.39 353.365 223.223 352.557Z" fill="#39D192"/>
<path d="M231.385 342.309C232.359 341.606 233.083 340.611 233.451 339.468L235.517 332.2L235.381 331.907C235.248 331.666 235.09 331.443 234.907 331.24C234.66 330.956 234.393 330.692 234.105 330.449C233.735 330.152 233.315 329.923 232.865 329.772C231.695 329.359 230.413 329.403 229.274 329.897C228.656 330.163 228.087 330.534 227.593 330.992C227.078 331.472 226.62 332.011 226.227 332.596C225.817 333.201 225.472 333.848 225.194 334.525C224.916 335.2 224.701 335.898 224.551 336.612C224.403 337.291 224.326 337.984 224.323 338.678C224.321 339.123 224.348 339.569 224.404 340.011C224.452 340.402 224.538 340.788 224.661 341.163C224.772 341.502 224.927 341.825 225.125 342.121C225.306 342.395 225.536 342.635 225.802 342.831C226.083 343.037 226.401 343.191 226.738 343.283C227.135 343.394 227.546 343.446 227.957 343.441C229.193 343.454 230.399 343.056 231.385 342.309ZM223.223 352.557C221.212 351.815 219.368 350.681 217.8 349.218C216.218 347.697 214.991 345.845 214.209 343.794C213.324 341.496 212.883 339.048 212.916 336.583C212.899 334.479 213.27 332.39 214.011 330.421C214.681 328.615 215.683 326.95 216.968 325.514C219.505 322.731 222.788 320.734 226.425 319.757C228.211 319.278 230.05 319.035 231.899 319.034C233.432 319.028 234.96 319.211 236.449 319.576C237.889 319.932 239.267 320.503 240.536 321.268C241.79 322.023 242.914 322.977 243.865 324.091C244.859 325.287 245.616 326.663 246.099 328.143C246.657 329.827 246.931 331.593 246.913 333.367C246.893 336.782 245.67 340.08 243.46 342.682C242.503 343.773 241.369 344.693 240.102 345.401C239.012 346.033 237.779 346.376 236.519 346.399C235.655 346.408 234.811 346.137 234.115 345.624C233.402 345.1 232.98 344.27 232.975 343.386C231.502 345.463 229.509 346.501 226.994 346.501C224.947 346.501 223.311 345.801 222.087 344.401C220.863 343.001 220.253 341.279 220.258 339.237C220.263 337.681 220.535 336.138 221.059 334.675C221.572 333.194 222.306 331.801 223.239 330.543C224.163 329.301 225.345 328.273 226.703 327.529C228.056 326.764 229.585 326.363 231.139 326.366C232.22 326.355 233.286 326.616 234.239 327.123C235.167 327.616 235.921 328.385 236.395 329.322L236.596 328.667C236.92 327.702 237.964 327.18 238.931 327.503C239.111 327.563 239.283 327.652 239.438 327.766C239.741 328.013 239.908 328.391 239.887 328.782C239.888 328.966 239.857 329.15 239.797 329.322L236.592 339.978C236.23 341.196 236.05 342.032 236.05 342.485C236.05 343.253 236.441 343.636 237.224 343.634C238.247 343.634 239.252 343.164 240.238 342.224C241.301 341.164 242.122 339.885 242.643 338.477C243.257 336.936 243.57 335.292 243.567 333.634C243.583 332.173 243.369 330.718 242.935 329.322C242.574 328.121 241.999 326.992 241.238 325.994C240.515 325.085 239.641 324.305 238.655 323.69C237.671 323.071 236.596 322.606 235.471 322.314C234.317 322.013 233.131 321.861 231.938 321.862C230.422 321.864 228.914 322.077 227.456 322.495C225.961 322.923 224.535 323.566 223.223 324.404C221.901 325.239 220.703 326.257 219.668 327.427C218.598 328.66 217.764 330.079 217.208 331.614C216.589 333.287 216.28 335.058 216.294 336.842C216.26 338.954 216.643 341.053 217.422 343.018C218.087 344.72 219.142 346.243 220.504 347.465C221.816 348.606 223.332 349.491 224.972 350.071C226.701 350.683 228.523 350.988 230.357 350.975C232.317 350.977 234.267 350.682 236.138 350.094C236.326 350.029 236.524 349.999 236.723 350.004C237.106 349.988 237.478 350.141 237.739 350.422C237.987 350.68 238.124 351.023 238.123 351.38C238.174 351.974 237.778 352.515 237.196 352.645C234.862 353.36 232.436 353.732 229.996 353.751C227.684 353.769 225.39 353.365 223.223 352.557V352.557Z" stroke="#1A2E35" stroke-width="1.33333" stroke-miterlimit="10" stroke-linecap="round" stroke-linejoin="round"/>
<path d="M251.494 262.141C251.705 274.103 242.179 283.799 230.219 283.799C218.257 283.799 208.391 274.103 208.179 262.141C207.969 250.18 217.495 240.484 229.455 240.484C241.416 240.484 251.284 250.18 251.494 262.141Z" fill="white"/>
<path d="M251.494 262.141C251.705 274.103 242.179 283.799 230.219 283.799C218.257 283.799 208.391 274.103 208.179 262.141C207.969 250.18 217.495 240.484 229.455 240.484C241.416 240.484 251.284 250.18 251.494 262.141Z" stroke="#1A2E35" stroke-width="1.33333" stroke-miterlimit="10" stroke-linecap="round" stroke-linejoin="round"/>
<path d="M243.426 260.167C236.644 255.718 223.33 255.718 216.86 260.167C214.453 260.618 212.675 262.747 212.765 265.296C212.865 268.171 224.809 268.171 224.709 265.296C224.666 264.057 224.17 262.929 223.409 262.031C227.687 261.067 232.663 261.067 237.007 262.031C236.31 262.929 235.894 264.057 235.938 265.296C236.038 268.171 247.982 268.171 247.882 265.296C247.793 262.747 245.866 260.618 243.426 260.167Z" fill="#39D192"/>
<path d="M243.426 260.167C236.644 255.718 223.33 255.718 216.86 260.167C214.453 260.618 212.675 262.747 212.765 265.296C212.865 268.171 224.809 268.171 224.709 265.296C224.666 264.057 224.17 262.929 223.409 262.031C227.687 261.067 232.663 261.067 237.007 262.031C236.31 262.929 235.894 264.057 235.938 265.296C236.038 268.171 247.982 268.171 247.882 265.296C247.793 262.747 245.866 260.618 243.426 260.167Z" stroke="#1A2E35" stroke-width="1.33333" stroke-miterlimit="10" stroke-linecap="round" stroke-linejoin="round"/>
<path d="M251.496 190.02C251.612 195.349 248.71 200.107 244.047 203.28V216.214L234.766 206.933C233.303 207.191 231.784 207.32 230.218 207.32C218.259 207.32 208.39 199.579 208.179 190.02C207.97 180.469 217.493 172.727 229.458 172.727C241.416 172.727 251.286 180.469 251.496 190.02Z" fill="white"/>
<path d="M251.496 190.02C251.612 195.349 248.71 200.107 244.047 203.28V216.214L234.766 206.933C233.303 207.191 231.784 207.32 230.218 207.32C218.259 207.32 208.39 199.579 208.179 190.02C207.97 180.469 217.493 172.727 229.458 172.727C241.416 172.727 251.286 180.469 251.496 190.02Z" stroke="#1A2E35" stroke-width="1.33333" stroke-miterlimit="10" stroke-linecap="round" stroke-linejoin="round"/>
<path d="M220.611 190.022C220.611 191.571 219.355 192.826 217.808 192.826C216.259 192.826 215.004 191.571 215.004 190.022C215.004 188.473 216.259 187.218 217.808 187.218C219.355 187.218 220.611 188.473 220.611 190.022Z" fill="#39D192"/>
<path d="M220.611 190.022C220.611 191.571 219.355 192.826 217.808 192.826C216.259 192.826 215.004 191.571 215.004 190.022C215.004 188.473 216.259 187.218 217.808 187.218C219.355 187.218 220.611 188.473 220.611 190.022Z" stroke="#1A2E35" stroke-width="1.33333" stroke-miterlimit="10" stroke-linecap="round" stroke-linejoin="round"/>
<path d="M232.619 190.022C232.619 191.571 231.363 192.826 229.815 192.826C228.268 192.826 227.012 191.571 227.012 190.022C227.012 188.474 228.268 187.219 229.815 187.219C231.363 187.219 232.619 188.474 232.619 190.022Z" fill="#39D192"/>
<path d="M232.619 190.022C232.619 191.571 231.363 192.826 229.815 192.826C228.268 192.826 227.012 191.571 227.012 190.022C227.012 188.474 228.268 187.219 229.815 187.219C231.363 187.219 232.619 188.474 232.619 190.022Z" stroke="#1A2E35" stroke-width="1.33333" stroke-miterlimit="10" stroke-linecap="round" stroke-linejoin="round"/>
<path d="M244.627 190.022C244.627 191.571 243.371 192.826 241.823 192.826C240.275 192.826 239.02 191.571 239.02 190.022C239.02 188.473 240.275 187.218 241.823 187.218C243.371 187.218 244.627 188.473 244.627 190.022Z" fill="#39D192"/>
<path d="M244.627 190.022C244.627 191.571 243.371 192.826 241.823 192.826C240.275 192.826 239.02 191.571 239.02 190.022C239.02 188.473 240.275 187.218 241.823 187.218C243.371 187.218 244.627 188.473 244.627 190.022Z" stroke="#1A2E35" stroke-width="1.33333" stroke-miterlimit="10" stroke-linecap="round" stroke-linejoin="round"/>
<path d="M108.831 229.464C108.53 230.137 107.935 230.623 107.359 231.083C102.805 234.714 98.134 238.203 93.3597 241.545C91.6095 242.775 89.7941 244.038 88.1042 245.417C77.9489 252.215 84.1393 253.871 77.9489 268.265C77.9489 268.271 77.944 268.271 77.944 268.275C76.4784 271.715 76.7462 288.571 76.7462 288.571H76.2422C75.1215 287.537 73.5907 286.055 72.4147 285.278C72.4147 285.278 72.4097 285.283 72.4097 285.278C72.2061 285.142 72.0154 285.027 71.8405 284.945C71.8405 284.945 71.8346 284.95 71.8346 284.945C71.6161 284.834 71.4136 284.769 71.2495 284.758C70.2484 284.699 66.492 285.152 62.6863 284.9C62.3582 284.884 62.0301 284.857 61.702 284.818C61.1436 284.764 60.5971 284.693 60.0555 284.6C59.5199 284.501 58.9942 284.392 58.4911 284.25C55.6361 283.458 51.6662 281.779 47.8822 280.154L47.8763 280.148C47.2962 279.897 46.723 279.651 46.1537 279.405C45.8691 279.278 45.5845 279.159 45.3058 279.038C45.0439 278.923 44.787 278.815 44.53 278.704C44.3442 278.622 44.1575 278.546 43.9766 278.47C43.7968 278.388 43.6159 278.317 43.441 278.24C43.436 278.24 43.436 278.24 43.4301 278.245C42.5387 277.868 41.6967 277.523 40.9259 277.228C40.5642 277.091 40.2035 276.982 39.8487 276.9C39.7943 277.709 39.7172 278.535 39.6135 279.344C39.1322 283.211 38.0767 286.776 36.1951 287.274C36.1566 287.291 36.1131 287.301 36.0696 287.307C35.9055 287.334 35.7356 287.356 35.5715 287.356C35.5172 287.361 35.4677 287.361 35.4183 287.356C35.0141 287.35 34.604 287.262 34.1939 287.121C34.1879 287.115 34.183 287.115 34.1771 287.115C32.5801 286.536 31.0325 285.027 30.2073 283.408C29.8189 282.642 29.5886 281.855 29.5886 281.132C29.5886 278.261 28.7852 261.292 28.7852 256.348C28.7852 251.404 29.8238 242.764 32.2361 239.559C33.6958 237.618 35.0082 236.622 35.8176 236.136C37.7318 234.517 40.0019 233.347 41.9102 232.729C44.5459 231.876 50.425 229.678 54.5203 228.129V228.174C52.7059 228.879 50.507 229.732 48.3299 230.563C49.9002 233.253 53.3018 237.515 59.344 238.028C65.0591 238.509 68.598 233.341 70.4026 229.573C70.5587 229.628 80.5016 227.746 82.8101 227.848C90.3041 228.18 96.4273 224.111 99.1934 222.502C102.783 220.413 107.452 222.108 108.648 226.084C108.656 226.112 108.665 226.139 108.672 226.166C108.99 227.244 109.301 228.441 108.831 229.464Z" fill="#39D192"/>
<path d="M108.831 229.464C108.53 230.137 107.935 230.623 107.359 231.083C102.805 234.714 98.134 238.203 93.3597 241.545C91.6095 242.775 89.7941 244.038 88.1042 245.417C77.9489 252.215 84.1393 253.871 77.9489 268.265C77.9489 268.271 77.944 268.271 77.944 268.275C76.4784 271.715 76.7462 288.571 76.7462 288.571H76.2422C75.1215 287.537 73.5907 286.055 72.4147 285.278C72.4147 285.278 72.4097 285.283 72.4097 285.278C72.2061 285.142 72.0154 285.027 71.8405 284.945C71.8405 284.945 71.8346 284.95 71.8346 284.945C71.6161 284.834 71.4136 284.769 71.2495 284.758C70.2484 284.699 66.492 285.152 62.6863 284.9C62.3582 284.884 62.0301 284.857 61.702 284.818C61.1436 284.764 60.5971 284.693 60.0555 284.6C59.5199 284.501 58.9942 284.392 58.4911 284.25C55.6361 283.458 51.6662 281.779 47.8822 280.154L47.8763 280.148C47.2962 279.897 46.723 279.651 46.1537 279.405C45.8691 279.278 45.5845 279.159 45.3058 279.038C45.0439 278.923 44.787 278.815 44.53 278.704C44.3442 278.622 44.1575 278.546 43.9766 278.47C43.7968 278.388 43.6159 278.317 43.441 278.24C43.436 278.24 43.436 278.24 43.4301 278.245C42.5387 277.868 41.6967 277.523 40.9259 277.228C40.5642 277.091 40.2035 276.982 39.8487 276.9C39.7943 277.709 39.7172 278.535 39.6135 279.344C39.1322 283.211 38.0767 286.776 36.1951 287.274C36.1566 287.291 36.1131 287.301 36.0696 287.307C35.9055 287.334 35.7356 287.356 35.5715 287.356C35.5172 287.361 35.4677 287.361 35.4183 287.356C35.0141 287.35 34.604 287.262 34.1939 287.121C34.1879 287.115 34.183 287.115 34.1771 287.115C32.5801 286.536 31.0325 285.027 30.2073 283.408C29.8189 282.642 29.5886 281.855 29.5886 281.132C29.5886 278.261 28.7852 261.292 28.7852 256.348C28.7852 251.404 29.8238 242.764 32.2361 239.559C33.6958 237.618 35.0082 236.622 35.8176 236.136C37.7318 234.517 40.0019 233.347 41.9102 232.729C44.5459 231.876 50.425 229.678 54.5203 228.129V228.174C52.7059 228.879 50.507 229.732 48.3299 230.563C49.9002 233.253 53.3018 237.515 59.344 238.028C65.0591 238.509 68.598 233.341 70.4026 229.573C70.5587 229.628 80.5016 227.746 82.8101 227.848C90.3041 228.18 96.4273 224.111 99.1934 222.502C102.783 220.413 107.452 222.108 108.648 226.084C108.656 226.112 108.665 226.139 108.672 226.166C108.99 227.244 109.301 228.441 108.831 229.464Z" stroke="#1A2E35" stroke-width="1.33333" stroke-linecap="round" stroke-linejoin="round"/>
<path d="M70.4067 229.563C70.4067 229.568 70.4018 229.568 70.4018 229.574C70.2536 229.519 70.1063 229.464 69.9531 229.416L70.4067 229.563Z" fill="white"/>
<path d="M70.4067 229.563C70.4067 229.568 70.4018 229.568 70.4018 229.574C70.2536 229.519 70.1063 229.464 69.9531 229.416L70.4067 229.563Z" stroke="#1A2E35" stroke-width="1.33333" stroke-linecap="round" stroke-linejoin="round"/>
<path d="M78.832 292.902C78.832 292.94 78.8212 292.978 78.8152 293.017C78.7174 293.405 78.1867 293.552 77.7716 293.317C77.323 293.06 76.6174 291.409 76.6174 291.409L75.8406 290.594L75.3208 290.052C75.3208 290.058 75.3208 290.058 75.3267 290.064C75.4028 290.255 76.0214 291.774 75.6983 292.47C75.6765 292.519 75.6548 292.562 75.6222 292.601C75.5125 292.749 75.387 292.88 75.2447 292.995C74.8286 293.345 74.293 293.541 73.7405 293.541H73.7139C73.2929 293.526 72.0398 293.69 70.9517 293.76C70.9132 293.76 70.8805 293.76 70.843 293.766H70.8371C70.4595 293.783 70.1038 293.793 69.8142 293.777C68.9396 293.657 68.0917 293.377 67.3258 292.94C67.3258 292.94 63.7878 292.393 62.2126 291.721C62.1088 291.677 62.0109 291.627 61.9121 291.567C61.8192 291.513 61.7253 291.458 61.6433 291.403C61.4694 291.294 61.3053 291.168 61.1571 291.031C60.3586 290.331 59.8556 289.445 59.7301 289.205L59.7083 289.162V289.156C59.7083 289.156 55.699 288.986 50.307 288.571C48.3434 288.417 46.1949 288.237 43.9911 288.013C40.5836 287.668 37.7779 287.69 35.5751 287.384C35.5198 287.373 35.4704 287.367 35.416 287.357C34.9841 287.291 34.574 287.214 34.1906 287.121C34.1856 287.116 34.1797 287.116 34.1748 287.116C32.2328 286.613 30.9036 285.618 30.2039 283.409C30.0784 283.009 29.9747 282.566 29.8867 282.08L31.5984 279.104C31.5984 279.104 32.7744 278.093 34.5958 277.382C36.0277 276.813 37.8659 276.441 39.8454 276.9C40.2011 276.982 40.5619 277.092 40.9226 277.228C41.6934 277.523 42.5364 277.868 43.4278 278.245C43.6077 278.316 43.7885 278.393 43.9743 278.47C44.1552 278.547 44.3409 278.623 44.5267 278.705C44.7837 278.815 45.0406 278.923 45.3035 279.039C49.7714 280.952 54.9716 283.277 58.4888 284.25C59.4949 284.529 60.5889 284.709 61.6987 284.818C62.0268 284.857 62.3549 284.884 62.683 284.9C66.4897 285.152 70.2461 284.699 71.2472 284.759C72.3244 284.824 74.6814 287.132 76.2398 288.571C76.6668 288.965 77.0384 289.293 77.3012 289.49C77.3388 289.516 77.3773 289.549 77.4159 289.587C77.4485 289.609 77.4762 289.631 77.5088 289.665C78.1106 290.216 78.4654 291.065 78.6571 291.765C78.6571 291.765 78.6631 291.765 78.6571 291.77C78.7391 292.082 78.7886 292.365 78.8152 292.579C78.832 292.716 78.837 292.831 78.832 292.902Z" fill="white"/>
<path d="M78.832 292.902C78.832 292.94 78.8212 292.978 78.8152 293.017C78.7174 293.405 78.1867 293.552 77.7716 293.317C77.323 293.06 76.6174 291.409 76.6174 291.409L75.8406 290.594L75.3208 290.052C75.3208 290.058 75.3208 290.058 75.3267 290.064C75.4028 290.255 76.0214 291.774 75.6983 292.47C75.6765 292.519 75.6548 292.562 75.6222 292.601C75.5125 292.749 75.387 292.88 75.2447 292.995C74.8286 293.345 74.293 293.541 73.7405 293.541H73.7139C73.2929 293.526 72.0398 293.69 70.9517 293.76C70.9132 293.76 70.8805 293.76 70.843 293.766H70.8371C70.4595 293.783 70.1038 293.793 69.8142 293.777C68.9396 293.657 68.0917 293.377 67.3258 292.94C67.3258 292.94 63.7878 292.393 62.2125 291.721C62.1088 291.677 62.0109 291.627 61.9121 291.567C61.8192 291.513 61.7253 291.458 61.6433 291.403C61.4694 291.294 61.3053 291.168 61.1571 291.031C60.3586 290.331 59.8556 289.445 59.7301 289.205L59.7083 289.162V289.156C59.7083 289.156 55.699 288.986 50.307 288.571C48.3434 288.417 46.1949 288.237 43.9911 288.013C40.5836 287.668 37.7779 287.69 35.5751 287.384C35.5198 287.373 35.4704 287.367 35.416 287.357C34.9841 287.291 34.574 287.214 34.1906 287.121C34.1856 287.116 34.1797 287.116 34.1748 287.116C32.2328 286.613 30.9036 285.618 30.2039 283.409C30.0784 283.009 29.9747 282.566 29.8867 282.08L31.5984 279.104C31.5984 279.104 32.7744 278.093 34.5958 277.382C36.0277 276.813 37.8659 276.441 39.8454 276.9C40.2011 276.982 40.5619 277.092 40.9226 277.228C41.6934 277.523 42.5364 277.868 43.4278 278.245C43.6077 278.316 43.7885 278.393 43.9743 278.47C44.1552 278.547 44.3409 278.623 44.5267 278.705C44.7837 278.815 45.0406 278.923 45.3035 279.039C49.7714 280.952 54.9716 283.277 58.4888 284.25C59.4948 284.529 60.5888 284.709 61.6987 284.818C62.0268 284.857 62.3549 284.884 62.683 284.9C66.4897 285.152 70.2461 284.699 71.2472 284.759C72.3244 284.824 74.6814 287.132 76.2398 288.571C76.6668 288.965 77.0384 289.293 77.3012 289.49C77.3388 289.516 77.3773 289.549 77.4159 289.587C77.4485 289.609 77.4762 289.631 77.5088 289.665C78.1106 290.216 78.4654 291.065 78.6571 291.765C78.6571 291.765 78.6631 291.765 78.6571 291.77C78.7391 292.082 78.7886 292.365 78.8152 292.579C78.832 292.716 78.837 292.831 78.832 292.902Z" stroke="#1A2E35" stroke-width="1.33333" stroke-linecap="round" stroke-linejoin="round"/>
<path d="M78.8385 292.902C78.8385 292.939 78.8276 292.978 78.8217 293.016C78.707 293.394 78.1823 293.546 77.7781 293.3C77.3353 293.033 76.6238 291.393 76.6238 291.393L75.847 290.593L75.3331 290.064L75.3223 290.058C75.3875 290.216 76.0279 291.758 75.7047 292.47C75.683 292.518 75.6612 292.562 75.6286 292.6C75.5189 292.749 75.3934 292.88 75.2511 292.995C74.8301 293.334 74.2994 293.525 73.747 293.525H73.7361H73.7094C73.2716 293.509 72.0353 293.667 70.9581 293.744C70.9087 293.744 70.8652 293.749 70.8267 293.749C70.4492 293.766 70.0944 293.776 69.8098 293.76C68.9352 293.64 68.0872 293.361 67.3213 292.923C67.3213 292.923 63.7834 292.371 62.2081 291.704C62.1093 291.66 62.0114 291.616 61.9185 291.567C61.8256 291.512 61.7318 291.458 61.6497 291.403C61.4758 291.288 61.3118 291.163 61.1635 291.031C60.365 290.33 59.862 289.445 59.7365 289.205L59.7147 289.161V289.155C59.7039 289.145 59.7039 289.139 59.7039 289.139C59.7039 289.139 55.8101 288.975 50.5378 288.57C48.5089 288.417 46.2774 288.226 43.9866 287.996C40.8638 287.685 38.2775 287.603 36.1992 287.275C35.9798 287.236 35.7614 287.198 35.5539 287.159C35.2959 287.105 35.0499 287.049 34.8097 286.99C34.6842 285.966 34.6951 284.672 35.1813 283.392C35.7673 281.844 37.0461 280.318 39.6166 279.344C39.6275 279.344 39.6383 279.339 39.6502 279.334C40.8855 278.88 42.1544 278.513 43.4342 278.245C43.4392 278.24 43.4392 278.24 43.4451 278.24C43.62 278.316 43.7999 278.387 43.9807 278.469C44.1616 278.546 44.3474 278.623 44.5332 278.705C44.7901 278.814 45.047 278.923 45.3099 279.039C49.7838 280.969 54.9731 283.298 58.4893 284.256C59.5013 284.534 60.5953 284.715 61.7051 284.818C62.0332 284.856 62.3613 284.884 62.6894 284.9C66.4961 285.158 70.2476 284.709 71.2477 284.765C72.3259 284.824 74.6769 287.137 76.2295 288.57C76.6673 288.97 77.0398 289.303 77.3077 289.494C77.3452 289.522 77.3838 289.555 77.4223 289.587C77.4549 289.609 77.4826 289.631 77.5152 289.664C78.122 290.205 78.4777 291.053 78.6635 291.764C78.6635 291.764 78.6695 291.764 78.6635 291.769C78.7515 292.076 78.7999 292.36 78.8217 292.579C78.8385 292.716 78.8434 292.831 78.8385 292.902Z" fill="white"/>
<path d="M78.8385 292.902C78.8385 292.939 78.8276 292.978 78.8217 293.016C78.707 293.394 78.1823 293.546 77.7781 293.3C77.3353 293.033 76.6238 291.393 76.6238 291.393L75.847 290.593L75.3331 290.064L75.3223 290.058C75.3875 290.216 76.0279 291.758 75.7047 292.47C75.683 292.518 75.6612 292.562 75.6286 292.6C75.5189 292.749 75.3934 292.88 75.2511 292.995C74.8301 293.334 74.2994 293.525 73.747 293.525H73.7361H73.7094C73.2716 293.509 72.0353 293.667 70.9581 293.744C70.9087 293.744 70.8652 293.749 70.8267 293.749C70.4492 293.766 70.0944 293.776 69.8098 293.76C68.9352 293.64 68.0872 293.361 67.3213 292.923C67.3213 292.923 63.7834 292.371 62.2081 291.704C62.1093 291.66 62.0114 291.616 61.9185 291.567C61.8256 291.512 61.7318 291.458 61.6497 291.403C61.4758 291.288 61.3118 291.163 61.1635 291.031C60.365 290.33 59.862 289.445 59.7365 289.205L59.7147 289.161V289.155C59.7039 289.145 59.7039 289.139 59.7039 289.139C59.7039 289.139 55.8101 288.975 50.5378 288.57C48.5089 288.417 46.2774 288.226 43.9866 287.996C40.8638 287.685 38.2775 287.603 36.1992 287.275C35.9798 287.236 35.7614 287.198 35.5539 287.159C35.2959 287.105 35.0499 287.049 34.8097 286.99C34.6842 285.966 34.6951 284.672 35.1813 283.392C35.7673 281.844 37.0461 280.318 39.6166 279.344C39.6275 279.344 39.6383 279.339 39.6502 279.334C40.8855 278.88 42.1544 278.513 43.4342 278.245C43.4392 278.24 43.4392 278.24 43.4451 278.24C43.62 278.316 43.7999 278.387 43.9807 278.469C44.1616 278.546 44.3474 278.623 44.5332 278.705C44.7901 278.814 45.047 278.923 45.3099 279.039C49.7838 280.969 54.9731 283.298 58.4893 284.256C59.5013 284.534 60.5953 284.715 61.7051 284.818C62.0332 284.856 62.3613 284.884 62.6894 284.9C66.4961 285.158 70.2476 284.709 71.2477 284.765C72.3259 284.824 74.6769 287.137 76.2295 288.57C76.6673 288.97 77.0398 289.303 77.3077 289.494C77.3452 289.522 77.3838 289.555 77.4223 289.587C77.4549 289.609 77.4826 289.631 77.5152 289.664C78.122 290.205 78.4778 291.053 78.6635 291.764C78.6635 291.764 78.6695 291.764 78.6635 291.769C78.7515 292.076 78.7999 292.36 78.8217 292.579C78.8385 292.716 78.8434 292.831 78.8385 292.902Z" stroke="#1A2E35" stroke-width="1.33333" stroke-linecap="round" stroke-linejoin="round"/>
<path d="M67.0078 290.273C67.0078 290.273 69.2442 291.437 70.1406 291.836C71.0379 292.236 70.951 293.871 70.951 293.871" fill="white"/>
<path d="M67.0078 290.273C67.0078 290.273 69.2442 291.437 70.1406 291.836C71.0379 292.236 70.951 293.871 70.951 293.871" stroke="#1A2E35" stroke-width="1.33333" stroke-linecap="round" stroke-linejoin="round"/>
<path d="M69.4023 288.686C69.4023 288.686 72.8316 291.186 73.4769 291.919C73.8633 292.373 73.9602 293.009 73.7279 293.559" fill="white"/>
<path d="M69.4023 288.686C69.4023 288.686 72.8316 291.186 73.4769 291.919C73.8633 292.373 73.9602 293.009 73.7279 293.559" stroke="#1A2E35" stroke-width="1.33333" stroke-linecap="round" stroke-linejoin="round"/>
<path d="M75.3163 290.042C75.3163 290.042 72.0353 286.631 71.6094 286.487L75.3163 290.042Z" fill="white"/>
<path d="M75.3163 290.042C75.3163 290.042 72.0353 286.631 71.6094 286.487" stroke="#1A2E35" stroke-width="1.33333" stroke-linecap="round" stroke-linejoin="round"/>
<path d="M70.4027 229.576C68.607 233.341 65.0681 238.511 59.354 238.029C53.3019 237.515 49.9063 233.259 48.3359 230.561C50.5111 229.73 52.707 228.878 54.5224 228.17V228.13C54.5224 226.293 54.4611 224.088 54.2655 221.902C54.225 221.43 54.1637 220.948 54.1123 220.466C54.0609 220.086 54.0095 219.707 53.9482 219.338H65.4377C65.4377 219.338 65.3656 219.799 65.2835 220.559C65.2835 220.569 65.2835 220.579 65.2736 220.589C65.2015 221.266 65.1096 222.18 65.0483 223.205C64.9554 224.57 64.8942 226.129 64.9347 227.678C65.4891 227.873 66.0534 228.078 66.6167 228.294C66.9764 228.416 67.3351 228.55 67.7048 228.673C68.1356 228.827 68.5665 228.971 69.0181 229.114L69.9619 229.412C70.1151 229.463 70.2584 229.514 70.4027 229.576Z" fill="white"/>
<path d="M70.4027 229.576C68.607 233.341 65.0681 238.511 59.354 238.029C53.3019 237.515 49.9063 233.259 48.3359 230.561C50.5111 229.73 52.707 228.878 54.5224 228.17V228.13C54.5224 226.293 54.4611 224.088 54.2655 221.902C54.225 221.43 54.1637 220.948 54.1123 220.466C54.0609 220.086 54.0095 219.707 53.9482 219.338H65.4377C65.4377 219.338 65.3656 219.799 65.2835 220.559C65.2835 220.569 65.2835 220.579 65.2736 220.589C65.2015 221.266 65.1096 222.18 65.0483 223.205C64.9554 224.57 64.8942 226.129 64.9347 227.678C65.4891 227.873 66.0534 228.078 66.6167 228.294C66.9764 228.416 67.3351 228.55 67.7048 228.673C68.1356 228.827 68.5665 228.971 69.0181 229.114L69.9619 229.412C70.1151 229.463 70.2584 229.514 70.4027 229.576Z" stroke="#1A2E35" stroke-width="1.33333" stroke-linecap="round" stroke-linejoin="round"/>
<path d="M54.1016 220.468C54.1016 220.468 56.2451 226.039 59.3611 226.993C62.476 227.949 65.2688 220.593 65.2688 220.593C65.2688 220.593 60.8849 225.285 59.2533 224.509C57.6217 223.734 54.1016 220.468 54.1016 220.468Z" fill="#1A2E35"/>
<path d="M52.2655 189.688C49.2612 192.164 47.1908 195.59 45.5117 199.103C44.0946 202.067 42.9008 205.477 43.9898 208.576C44.5442 210.152 45.6353 211.47 46.7065 212.751C48.8441 215.31 51.8336 222.455 53.9712 225.015C54.1056 220.462 50.29 213.099 50.7021 209.269C51.0223 206.298 52.307 203.529 53.572 200.823C55.1591 197.43 56.7719 193.995 59.1675 191.116C60.467 189.554 64.6197 186.774 60.4235 186.442C57.5902 186.218 54.3705 187.952 52.2655 189.688Z" fill="#1A2E35"/>
<path d="M52.2655 189.688C49.2612 192.164 47.1908 195.59 45.5117 199.103C44.0946 202.067 42.9008 205.477 43.9898 208.576C44.5442 210.152 45.6353 211.47 46.7065 212.751C48.8441 215.31 51.8336 222.455 53.9712 225.015C54.1056 220.462 50.29 213.099 50.7021 209.269C51.0223 206.298 52.307 203.529 53.572 200.823C55.1591 197.43 56.7719 193.995 59.1675 191.116C60.467 189.554 64.6197 186.774 60.4235 186.442C57.5902 186.218 54.3705 187.952 52.2655 189.688Z" stroke="#1A2E35" stroke-width="1.33333" stroke-linecap="round" stroke-linejoin="round"/>
<path d="M49.5762 205.195C49.5762 205.195 48.0968 202.344 46.5521 205.052C45.4344 207.012 47.0433 210.139 47.7331 211.293C48.1906 211.982 48.9803 212.376 49.8054 212.326L49.5762 205.195Z" fill="white"/>
<path d="M49.5762 205.195C49.5762 205.195 48.0968 202.344 46.5521 205.052C45.4344 207.012 47.0433 210.139 47.7331 211.293C48.1906 211.982 48.9803 212.376 49.8054 212.326L49.5762 205.195Z" stroke="#1A2E35" stroke-width="1.33333" stroke-linecap="round" stroke-linejoin="round"/>
<path d="M68.9247 215.541C68.652 216.422 67.1202 218.598 65.2771 220.594C64.9875 220.906 64.692 221.218 64.3916 221.512C62.5535 223.334 60.5631 224.773 59.2616 224.51C58.13 224.285 56.6476 223.115 55.188 221.628C54.8263 221.261 54.4656 220.868 54.1098 220.469V220.463C52.2786 218.384 50.6539 216.033 50.0688 214.738C49.8059 214.152 49.6202 213.304 49.4887 212.32C49.1824 210.001 49.1992 206.938 49.2318 204.86C49.2486 203.986 49.2644 203.286 49.2644 202.892C49.2644 201.164 55.7019 195.186 55.7019 195.186C55.8383 195.126 56.0241 195.11 56.2484 195.132C56.9649 195.192 58.1024 195.618 59.4098 196.258C63.3144 198.156 68.7557 201.918 69.154 203.351C69.7282 205.419 69.5048 213.681 68.9247 215.541Z" fill="white"/>
<path d="M68.9247 215.541C68.652 216.422 67.1202 218.598 65.2771 220.594C64.9875 220.906 64.692 221.218 64.3916 221.512C62.5535 223.334 60.5631 224.773 59.2616 224.51C58.13 224.285 56.6476 223.115 55.188 221.628C54.8263 221.261 54.4656 220.868 54.1098 220.469V220.463C52.2786 218.384 50.6539 216.033 50.0688 214.738C49.8059 214.152 49.6202 213.304 49.4887 212.32C49.1824 210.001 49.1992 206.939 49.2318 204.86C49.2486 203.986 49.2644 203.286 49.2644 202.892C49.2644 201.164 55.7019 195.186 55.7019 195.186C55.8383 195.126 56.0241 195.11 56.2484 195.132C56.9649 195.192 58.1024 195.618 59.4098 196.258C63.3144 198.156 68.7557 201.918 69.154 203.351C69.7282 205.419 69.5048 213.681 68.9247 215.541Z" stroke="#1A2E35" stroke-width="1.33333" stroke-linecap="round" stroke-linejoin="round"/>
<path d="M56.1217 207.607C56.1217 208.301 55.8647 208.87 55.5742 208.87C55.2846 208.87 55 208.323 55 207.607C55 206.89 55.2569 206.338 55.5742 206.338C55.8924 206.338 56.1217 206.918 56.1217 207.607Z" fill="#1A2E35"/>
<path d="M63.4843 206.344C63.8016 206.344 64.0585 206.909 64.0585 207.607C64.0585 208.305 63.8016 208.871 63.4843 208.871C63.1671 208.871 62.9102 208.305 62.9102 207.607C62.9102 206.909 63.1671 206.344 63.4843 206.344Z" fill="#1A2E35"/>
<path d="M52.4453 204.501C52.4453 204.501 53.485 202.543 56.935 203.122" stroke="#1A2E35" stroke-width="1.33333" stroke-linecap="round" stroke-linejoin="round"/>
<path d="M66.7386 204.501C66.7386 204.501 65.7049 202.543 62.2539 203.122" stroke="#1A2E35" stroke-width="1.33333" stroke-linecap="round" stroke-linejoin="round"/>
<path d="M60.2734 212.443C61.0463 212.355 61.6777 211.823 61.7825 211.169C61.7825 211.169 59.8594 208.182 60.4424 205.297" stroke="#1A2E35" stroke-width="1.33333" stroke-linecap="round" stroke-linejoin="round"/>
<path d="M48.3266 198.341C47.5311 199.421 46.9312 200.632 46.5547 201.921" stroke="white" stroke-width="1.33333" stroke-linecap="round" stroke-linejoin="round"/>
<path d="M56.598 190.434C56.598 190.434 55.501 192.258 50.6892 195.96C50.3808 196.191 50.0854 196.437 49.8047 196.695" stroke="white" stroke-width="1.33333" stroke-linecap="round" stroke-linejoin="round"/>
<path d="M41.0923 248.333C40.446 257.736 39.7987 267.138 39.1523 276.543C39.1563 276.302 39.1593 276.06 39.1632 275.818" fill="#1A2E35"/>
<path d="M41.0923 248.333C40.446 257.736 39.7987 267.138 39.1523 276.543C39.1563 276.302 39.1593 276.06 39.1632 275.818" stroke="#1A2E35" stroke-width="1.33333" stroke-linecap="round" stroke-linejoin="round"/>
<path d="M103.52 217.316C105.276 216.558 107.394 216.893 108.987 217.952C110.58 219.009 111.673 220.715 112.239 222.542C112.811 224.391 112.862 226.455 112.062 228.217C111.261 229.978 109.516 231.359 107.583 231.427C106.162 231.478 104.792 230.843 103.651 229.994C99.9339 227.225 98.0829 219.663 103.52 217.316Z" fill="white"/>
<path d="M103.52 217.316C105.276 216.558 107.394 216.893 108.987 217.952C110.58 219.009 111.673 220.715 112.239 222.542C112.811 224.391 112.862 226.455 112.062 228.217C111.261 229.978 109.516 231.359 107.583 231.427C106.162 231.478 104.792 230.843 103.651 229.994C99.9339 227.225 98.0829 219.663 103.52 217.316Z" stroke="#1A2E35" stroke-width="1.33333" stroke-linecap="round" stroke-linejoin="round"/>
<path d="M111.709 185.762C111.709 185.874 111.739 186.665 111.77 186.797C112.12 188.315 112.847 192.122 111.001 192.891C111.703 195.397 113.422 211.736 113.196 220.066C113.135 222.548 112.704 225.513 110.467 226.581C106.703 228.365 103.123 224.005 103.594 220.6C104.251 215.942 104.025 211.202 104.6 206.494C105.205 201.611 106.313 196.584 105.092 191.834C104.795 191.516 102.896 187.752 102.281 186.705C102.014 186.254 101.758 185.792 101.624 185.289C101.348 184.223 101.266 180.817 101.266 180.14C101.83 179.073 102.558 180.058 102.948 180.755C103.225 181.258 103.328 182.284 103.266 183.443C103.256 183.669 103.235 183.905 103.358 184.09C103.512 184.315 103.82 184.469 104.097 184.427C105.308 184.254 105.256 183.228 105.245 182.468C105.245 179.853 105.235 177.237 105.235 174.631C105.235 174.2 105.366 173.019 105.786 172.979C106.247 172.937 106.822 173.275 106.883 174.677C106.951 176.248 106.949 181.084 106.949 181.084C107.031 181.155 107.154 181.217 107.256 181.176C107.359 181.125 107.4 181.001 107.43 180.899C108.015 178.467 108.61 176.036 109.195 173.605C109.267 173.318 109.692 172.728 109.991 172.728C110.722 172.727 110.742 173.577 110.783 173.824C111.039 175.127 109.216 180.499 108.908 181.74C108.856 181.955 108.929 182.284 109.134 182.222L112.002 176.444C112.248 175.829 112.898 175.134 113.556 175.041C113.606 175.031 113.658 175.031 113.699 175.052C113.75 175.073 113.791 175.123 113.822 175.174C114.099 175.668 113.822 176.354 113.658 176.898C113.493 177.432 111.36 181.432 110.601 183.043C110.488 183.269 110.313 183.782 110.529 183.987C110.847 184.12 111.144 183.761 111.298 183.443C111.781 182.489 112.242 181.525 112.683 180.551C112.816 180.263 113.029 179.865 113.35 179.935C115.232 180.345 112.498 184.387 111.709 185.762Z" fill="white"/>
<path d="M111.709 185.762C111.709 185.874 111.739 186.665 111.77 186.797C112.12 188.315 112.847 192.122 111.001 192.891C111.703 195.397 113.422 211.736 113.196 220.066C113.135 222.548 112.704 225.513 110.467 226.581C106.703 228.365 103.123 224.005 103.594 220.6C104.251 215.942 104.025 211.202 104.6 206.494C105.205 201.611 106.313 196.584 105.092 191.834C104.795 191.516 102.896 187.752 102.281 186.705C102.014 186.254 101.758 185.792 101.624 185.289C101.348 184.223 101.266 180.817 101.266 180.14C101.83 179.073 102.558 180.058 102.948 180.755C103.225 181.258 103.328 182.284 103.266 183.443C103.256 183.669 103.235 183.905 103.358 184.09C103.512 184.315 103.82 184.469 104.097 184.427C105.308 184.254 105.256 183.228 105.245 182.468C105.245 179.853 105.235 177.237 105.235 174.631C105.235 174.2 105.366 173.019 105.786 172.979C106.247 172.937 106.822 173.275 106.883 174.677C106.951 176.248 106.949 181.084 106.949 181.084C107.031 181.155 107.154 181.217 107.256 181.176C107.359 181.125 107.4 181.001 107.43 180.899C108.015 178.467 108.61 176.036 109.195 173.605C109.267 173.318 109.692 172.728 109.991 172.728C110.722 172.727 110.742 173.577 110.783 173.824C111.039 175.127 109.216 180.499 108.908 181.74C108.856 181.955 108.929 182.284 109.134 182.222L112.002 176.444C112.248 175.829 112.898 175.134 113.556 175.041C113.606 175.031 113.658 175.031 113.699 175.052C113.75 175.073 113.791 175.123 113.822 175.174C114.099 175.668 113.822 176.354 113.658 176.898C113.493 177.432 111.36 181.432 110.601 183.043C110.488 183.269 110.313 183.782 110.529 183.987C110.847 184.12 111.144 183.761 111.298 183.443C111.781 182.489 112.242 181.525 112.683 180.551C112.816 180.263 113.029 179.865 113.35 179.935C115.232 180.345 112.498 184.387 111.709 185.762Z" stroke="#1A2E35" stroke-width="1.33333" stroke-linecap="round" stroke-linejoin="round"/>
<path d="M106.391 184.911C107.35 185.737 108.3 186.61 108.949 187.697C109.599 188.784 109.92 190.129 109.539 191.337C109.489 191.496 109.428 191.651 109.349 191.797" fill="white"/>
<path d="M106.391 184.911C107.35 185.737 108.3 186.61 108.949 187.697C109.599 188.784 109.92 190.129 109.539 191.337C109.489 191.496 109.428 191.651 109.349 191.797" stroke="#1A2E35" stroke-width="1.33333" stroke-linecap="round" stroke-linejoin="round"/>
<path d="M78.5469 246.65C79.6685 249.095 80.3633 251.159 80.6311 253.351C80.9157 255.679 81.0096 257.509 79.4165 264.062" stroke="#1A2E35" stroke-width="1.33333" stroke-linecap="round" stroke-linejoin="round"/>
<path d="M56.2455 193.69C56.1318 194.098 56.0448 194.532 56.1466 194.943C56.2801 195.481 56.7109 195.888 57.128 196.254C60.2805 199.022 63.8274 201.339 67.6282 203.117C68.067 203.323 68.5334 203.54 68.7983 203.947C69.0631 204.353 69.074 204.868 69.076 205.352C69.0888 207.896 69.1017 210.44 69.1135 212.984C69.1175 213.771 69.1195 214.573 68.8843 215.325C68.3259 217.105 67.1064 218.542 66.211 220.179C65.3206 221.808 64.8265 223.459 64.8868 225.314C64.6397 223.423 71.2472 219.764 73.029 212.331C73.279 211.29 78.4219 205.052 75.3386 197.73C72.3787 190.703 67.7072 187.676 66.1359 187.316C63.7117 186.761 61.8538 187.055 59.8595 188.521C58.136 189.787 56.8216 191.626 56.2455 193.69Z" fill="#1A2E35"/>
<path d="M56.2455 193.69C56.1318 194.098 56.0448 194.532 56.1466 194.943C56.2801 195.481 56.7109 195.888 57.128 196.254C60.2805 199.022 63.8274 201.339 67.6282 203.117C68.067 203.323 68.5334 203.54 68.7983 203.947C69.0631 204.353 69.074 204.868 69.076 205.352C69.0888 207.896 69.1017 210.44 69.1135 212.984C69.1175 213.771 69.1195 214.573 68.8843 215.325C68.3259 217.105 67.1064 218.542 66.211 220.179C65.3206 221.808 64.8265 223.459 64.8868 225.314C64.6397 223.423 71.2472 219.764 73.029 212.331C73.279 211.29 78.4219 205.052 75.3386 197.73C72.3787 190.703 67.7072 187.676 66.1359 187.316C63.7117 186.761 61.8538 187.055 59.8595 188.521C58.136 189.787 56.8216 191.626 56.2455 193.69Z" stroke="#1A2E35" stroke-width="1.33333" stroke-linecap="round" stroke-linejoin="round"/>
<path d="M62.7217 215.061C62.1514 215.177 61.5802 215.29 61.0031 215.363C59.0809 215.605 56.9157 215.303 55.625 213.858C55.7238 215.155 56.637 220.048 59.2647 220.177C62.0269 220.312 62.7217 215.061 62.7217 215.061Z" stroke="#1A2E35" stroke-width="1.33333" stroke-linecap="round" stroke-linejoin="round"/>
<path d="M60.1484 190.699C61.277 193.274 63.1132 195.536 65.404 197.167C67.0741 198.358 68.9795 199.222 70.5093 200.588C72.5283 202.39 73.7854 205.262 73.0224 207.858" stroke="white" stroke-width="1.33333" stroke-linecap="round" stroke-linejoin="round"/>
<path d="M80.7979 230.626C80.7979 230.626 77.9438 232.622 77.2866 236.759C76.9575 238.835 77.1976 241.019 78.0337 242.946" stroke="#1A2E35" stroke-width="1.33333" stroke-linecap="round" stroke-linejoin="round"/>
<path d="M43.9944 246.933C43.8353 249.524 42.2205 251.766 40.668 253.846L43.9944 246.933Z" fill="#1A2E35"/>
<path d="M43.9944 246.933C43.8353 249.524 42.2205 251.766 40.668 253.846" stroke="#1A2E35" stroke-width="1.33333" stroke-linecap="round" stroke-linejoin="round"/>
<path d="M40.1367 266.724C41.7219 269.382 44.3546 271.249 47.3875 271.865" stroke="#1A2E35" stroke-width="1.33333" stroke-linecap="round" stroke-linejoin="round"/>
<path d="M77.946 268.266C77.946 268.266 75.2885 272.253 66.2539 273.052" stroke="#1A2E35" stroke-width="1.33333" stroke-linecap="round" stroke-linejoin="round"/>
<path d="M342.548 233.631C342.548 233.631 308.111 244.302 301.629 235.88L302.5 192.878H307.734L313.878 223.165L342.103 218.002C342.103 218.002 345.718 229.209 342.548 233.631Z" fill="white"/>
<path d="M328.032 235.135C326.114 236.063 324.085 236.831 322.414 238.154C324.749 238.885 327.234 237.948 329.565 237.205C332.633 236.226 335.795 235.57 338.965 234.996C339.111 234.114 337.988 232.107 337.528 231.332C336.719 229.968 336.575 229.847 335.176 230.519C332.696 231.71 330.587 233.898 328.032 235.135Z" fill="#39D192"/>
<path d="M342.548 233.631C342.548 233.631 308.111 244.302 301.629 235.88L302.5 192.878H307.734L313.878 223.165L342.103 218.002C342.103 218.002 345.718 229.209 342.548 233.631Z" stroke="#1A2E35" stroke-width="1.33333" stroke-miterlimit="10" stroke-linecap="round" stroke-linejoin="round"/>
<path d="M339.169 234.757L345.23 271.993C345.063 296.133 356.58 292.5 364.573 292.434C373.812 292.359 387.838 283.196 380.961 268.937L383.614 217.32L367.504 216.077C362.192 215.668 340.454 216.351 338.726 219.126C334.237 226.341 339.169 234.757 339.169 234.757Z" fill="white"/>
<path d="M340.13 237.867C343.622 251.319 352.435 263.313 364.231 270.665C362.933 270.563 361.725 269.999 360.492 269.581C359.258 269.163 357.884 268.894 356.675 269.379C355.467 269.865 354.603 271.361 355.201 272.517C355.45 272.998 355.898 273.341 356.341 273.654C358.3 275.033 360.452 276.135 362.717 276.916C360.734 276.711 358.713 276.868 356.785 277.376C356.428 279.089 358.342 280.295 359.851 281.18C362.257 282.593 364.341 284.548 365.904 286.859C360.6 286.872 355.296 287.177 350.026 287.771C349.32 287.85 348.56 287.924 347.943 287.576C347.206 287.16 346.897 286.277 346.663 285.464C345.488 281.358 344.802 277.111 344.623 272.844C344.522 270.441 344.583 268.027 344.307 265.639C344.088 263.756 343.665 261.905 343.265 260.054C341.73 252.936 340.551 245.741 339.734 238.505C339.374 238.49 340.13 237.867 340.13 237.867Z" fill="#39D192"/>
<path d="M380.952 234.856C380.149 234.601 378.511 233.938 377.277 232.881C377.589 234.368 379.797 236.921 381.092 237.716C381.367 237.884 381.752 238.018 381.983 237.794C382.184 237.598 382.376 236.981 382.619 236.839L380.952 234.856Z" fill="#39D192"/>
<path d="M339.181 234.757L345.242 271.993C345.075 296.133 356.592 292.5 364.585 292.434C373.824 292.359 387.849 283.196 380.973 268.937L383.625 217.32L367.516 216.077C362.204 215.668 340.465 216.351 338.738 219.126C334.249 226.341 339.181 234.757 339.181 234.757Z" stroke="#1A2E35" stroke-width="1.33333" stroke-miterlimit="10" stroke-linecap="round" stroke-linejoin="round"/>
<path d="M350.944 215.326C349.216 218.478 348.371 222.108 348.531 225.7C348.545 226.013 348.569 226.337 348.71 226.619C349.151 227.497 350.367 227.493 351.342 227.617C355.146 228.098 357.514 232.113 361.104 233.458C361.385 233.564 361.692 233.652 361.98 233.569C362.25 233.49 362.454 233.274 362.632 233.054C364.194 231.124 364.749 228.309 366.88 227.033C367.806 226.478 368.991 226.25 369.625 225.376C370.359 224.366 370.033 222.965 369.678 221.768C369.093 219.803 368.444 217.735 366.927 216.356C365.427 214.993 363.318 214.533 361.299 214.368C358.32 214.124 355.297 214.408 352.416 215.201C352.441 215.581 350.944 215.326 350.944 215.326Z" fill="#39D192"/>
<path d="M350.944 215.326C349.216 218.478 348.371 222.108 348.531 225.7C348.545 226.013 348.569 226.337 348.71 226.619C349.151 227.497 350.367 227.493 351.342 227.617C355.146 228.098 357.514 232.113 361.104 233.458C361.385 233.564 361.692 233.652 361.98 233.569C362.25 233.49 362.454 233.274 362.632 233.054C364.194 231.124 364.749 228.309 366.88 227.033C367.806 226.478 368.991 226.25 369.625 225.376C370.359 224.366 370.033 222.965 369.678 221.768C369.093 219.803 368.444 217.735 366.927 216.356C365.427 214.993 363.318 214.533 361.299 214.368C358.32 214.124 355.297 214.408 352.416 215.201C352.441 215.581 350.944 215.326 350.944 215.326Z" stroke="#1A2E35" stroke-width="1.33333" stroke-linecap="round" stroke-linejoin="round"/>
<path d="M398.774 240.598C396.361 237.095 394.574 233.162 393.522 229.041C393.001 227 392.65 224.89 391.716 223.002C390.228 219.991 387.234 217.771 383.92 217.221C383.209 217.103 382.459 217.061 381.786 217.316C380.357 217.857 379.727 219.513 379.435 221.012C378.813 224.222 378.998 227.586 379.97 230.709C380.632 232.837 388.588 248.315 393.86 254.317C393.354 251.294 396.831 241.186 398.774 240.598Z" fill="white"/>
<path d="M383.17 237.564C384.797 240.633 386.424 243.702 388.052 246.771C388.747 248.08 389.54 249.484 390.905 250.062C390.049 247.023 389.56 243.882 389.45 240.725C389.396 239.143 389.43 237.522 388.911 236.025C388.71 236.19 388.501 235.481 388.501 235.481C388.29 235.888 387.714 235.899 387.265 235.805C384.076 235.139 381.885 232.292 379.989 229.643C379.471 231.401 379.838 233.398 380.947 234.856C380.947 234.856 383.008 237.259 383.17 237.564Z" fill="#39D192"/>
<path d="M398.77 240.599C396.357 237.095 394.57 233.162 393.518 229.041C392.997 227 392.646 224.89 391.713 223.003C390.224 219.992 387.23 217.772 383.916 217.221C383.205 217.104 382.456 217.061 381.783 217.316C380.354 217.858 379.723 219.513 379.432 221.012C378.809 224.222 378.994 227.586 379.966 230.709C380.628 232.838 388.584 248.316 393.856 254.318C393.35 251.295 396.827 241.187 398.77 240.599Z" stroke="#1A2E35" stroke-width="1.33333" stroke-miterlimit="10" stroke-linecap="round" stroke-linejoin="round"/>
<path d="M391.916 251.669C386.6 241.477 389.171 217.998 389.006 214.222L396.023 213.851C396.727 213.851 399.966 233.87 402.189 242.181C404.212 249.751 402.275 257.407 398.77 257.408C395.865 257.409 393.033 253.81 391.916 251.669Z" fill="white"/>
<path d="M391.916 251.669C386.6 241.477 389.171 217.998 389.006 214.222L396.023 213.851C396.727 213.851 399.966 233.87 402.189 242.181C404.212 249.751 402.275 257.407 398.77 257.408C395.865 257.409 393.033 253.81 391.916 251.669Z" stroke="#1A2E35" stroke-width="1.33333" stroke-miterlimit="10" stroke-linecap="round" stroke-linejoin="round"/>
<path d="M328.555 225.216C333.516 218.002 343.191 217.425 343.191 217.425" stroke="#1A2E35" stroke-width="1.33333" stroke-miterlimit="10" stroke-linecap="round" stroke-linejoin="round"/>
<path d="M309.5 229.256C311.211 227.829 312.506 225.433 312.923 224.32L309.5 229.256Z" fill="white"/>
<path d="M309.5 229.256C311.211 227.829 312.506 225.433 312.923 224.32" stroke="#1A2E35" stroke-width="1.33333" stroke-miterlimit="10" stroke-linecap="round" stroke-linejoin="round"/>
<path d="M346.199 263.351C349.022 267.96 367.257 272.898 374.534 271.842" stroke="#1A2E35" stroke-width="1.33333" stroke-miterlimit="10" stroke-linecap="round" stroke-linejoin="round"/>
<path d="M351.367 276.325C356.615 277.234 362.051 277.027 367.213 275.724" stroke="#1A2E35" stroke-width="1.33333" stroke-miterlimit="10" stroke-linecap="round" stroke-linejoin="round"/>
<path d="M375.574 231.6C376.731 233.169 377.889 234.74 379.046 236.31C379.519 236.953 380.186 237.674 380.966 237.498" stroke="#1A2E35" stroke-width="1.33333" stroke-miterlimit="10" stroke-linecap="round" stroke-linejoin="round"/>
<path d="M401.422 410.407C401.119 411.668 401.021 413.162 401.916 414.1C402.755 414.979 404.121 415.017 405.337 414.996L409.512 414.92C411.124 414.892 412.79 414.851 414.254 414.176C415.719 413.502 416.936 412.013 416.77 410.409C416.706 409.778 416.438 409.189 416.175 408.613C415.802 407.798 415.431 406.984 415.058 406.169C410.413 396.004 403.398 402.188 401.422 410.407Z" fill="white"/>
<path d="M401.422 410.407C401.119 411.668 401.021 413.162 401.916 414.1C402.755 414.979 404.121 415.017 405.337 414.996L409.512 414.92C411.124 414.892 412.79 414.851 414.254 414.176C415.719 413.502 416.936 412.013 416.77 410.409C416.706 409.778 416.438 409.189 416.175 408.613C415.802 407.798 415.431 406.984 415.058 406.169C410.413 396.004 403.398 402.188 401.422 410.407Z" stroke="#1A2E35" stroke-width="1.33333" stroke-miterlimit="10" stroke-linecap="round" stroke-linejoin="round"/>
<path d="M395.534 398.427C395.681 403.09 395.288 407.768 394.364 412.34C394.155 413.38 394.347 414.949 395.403 414.853C395.777 414.819 396.08 414.547 396.347 414.284C399.965 410.729 402.594 406.178 403.866 401.266C404.14 400.207 404.333 399.006 403.756 398.076C403.499 397.66 403.11 397.343 402.729 397.035C399.416 394.354 395.228 391.698 395.534 398.427Z" fill="white"/>
<path d="M395.534 398.427C395.681 403.09 395.288 407.768 394.364 412.34C394.155 413.38 394.347 414.949 395.403 414.853C395.777 414.819 396.08 414.547 396.347 414.284C399.965 410.729 402.594 406.178 403.866 401.266C404.14 400.207 404.333 399.006 403.756 398.076C403.499 397.66 403.11 397.343 402.729 397.035C399.416 394.354 395.228 391.698 395.534 398.427Z" stroke="#1A2E35" stroke-width="1.33333" stroke-miterlimit="10" stroke-linecap="round" stroke-linejoin="round"/>
<path d="M384.063 278.971C384.063 278.971 389.266 288.027 390.382 290.134C391.498 292.243 415.13 323.243 419.615 345.813C420.466 350.098 403.062 398.073 403.062 398.073L399.131 395.834C399.131 395.834 401.876 352.081 401.209 348.45C400.542 344.824 383.172 317.973 383.172 317.973C383.172 317.973 373.471 310.841 369.488 302.566L384.063 278.971Z" fill="#1A2E35"/>
<path d="M384.628 301.656C384.628 301.656 381.627 308.255 381.619 309.204C381.61 310.153 397.93 361.677 402.715 373.602C405.757 381.275 408.434 389.137 410.734 397.157C410.734 397.157 412.592 399.6 411.187 402.083C409.782 404.57 404.206 406.217 403.054 403.984C401.902 401.753 390.61 390.144 385.851 378.604C381.118 367.13 374.42 347.798 370.607 340.586C365.602 331.388 361.17 321.912 357.333 312.216C352.533 299.95 347.637 286.735 347.637 286.735C349.63 286.911 351.629 286.964 353.625 286.896C358.307 286.738 362.968 285.917 367.473 284.445C377.885 280.948 382.392 274.253 382.392 274.253C382.392 274.253 384.973 281.235 385.637 282.588L384.628 301.656Z" fill="#1A2E35"/>
<path d="M417.88 350.223C416.864 351.967 415.485 353.5 413.848 354.68" stroke="white" stroke-width="1.33333" stroke-miterlimit="10" stroke-linecap="round" stroke-linejoin="round"/>
<path d="M419.155 347.35C419.003 347.831 418.824 348.303 418.621 348.765" stroke="white" stroke-width="1.33333" stroke-miterlimit="10" stroke-linecap="round" stroke-linejoin="round"/>
<path d="M375.203 286.244C377.836 290.775 380.296 297.282 379.901 302.508C379.838 303.342 378.881 305.228 378.881 305.228" stroke="white" stroke-width="1.33333" stroke-miterlimit="10" stroke-linecap="round" stroke-linejoin="round"/>
<path d="M359.294 291.286C359.58 293.809 359.968 297.993 359.418 300.472C358.868 302.952 357.531 305.347 355.379 306.694" stroke="white" stroke-width="1.33333" stroke-miterlimit="10" stroke-linecap="round" stroke-linejoin="round"/>
<path d="M381.711 281.751C382.369 282.389 382.643 283.311 383.088 284.115C384.506 286.678 387.262 288.668 389.532 288.999" stroke="white" stroke-width="1.33333" stroke-miterlimit="10" stroke-linecap="round" stroke-linejoin="round"/>
<path d="M373.324 291.853C376.809 299.482 379.479 307.127 384.897 320.092" stroke="white" stroke-width="1.33333" stroke-miterlimit="10" stroke-linecap="round" stroke-linejoin="round"/>
<path d="M371.461 287.948C371.757 288.545 372.046 289.137 372.328 289.726" stroke="white" stroke-width="1.33333" stroke-miterlimit="10" stroke-linecap="round" stroke-linejoin="round"/>
<path d="M400.496 346.309C402.089 349.389 404.129 352.237 406.531 354.737" stroke="white" stroke-width="1.33333" stroke-miterlimit="10" stroke-linecap="round" stroke-linejoin="round"/>
<path d="M402.148 349.161C403.185 353.984 405.111 358.606 407.785 362.755" stroke="white" stroke-width="1.33333" stroke-miterlimit="10" stroke-linecap="round" stroke-linejoin="round"/>
<path d="M377.574 349.405C369.878 332.978 361.668 316.682 351.574 291.854" stroke="white" stroke-width="1.33333" stroke-miterlimit="10" stroke-linecap="round" stroke-linejoin="round"/>
<path d="M379.313 354.183C379.123 353.607 378.924 353.029 378.719 352.451" stroke="white" stroke-width="1.33333" stroke-miterlimit="10" stroke-linecap="round" stroke-linejoin="round"/>
<path d="M405.923 404.681C403.952 402.104 389.541 381.976 385.96 372.819C383.582 366.734 381.782 362.432 379.992 356.365" stroke="white" stroke-width="1.33333" stroke-miterlimit="10" stroke-linecap="round" stroke-linejoin="round"/>
<path d="M400.496 365.9L407.347 386.034" stroke="white" stroke-width="1.33333" stroke-miterlimit="10" stroke-linecap="round" stroke-linejoin="round"/>
<path d="M395.886 213.854L393.804 214.027C392.236 214.157 390.355 214.743 385.92 213.662C384.267 213.259 380.448 212.068 380.004 211.987C379.1 211.809 377.47 211.498 376.559 211.439C373.077 211.224 374.84 209.928 376.292 209.987C378.21 210.076 378.856 210.031 380.322 210.143C380.151 210.046 379.603 209.935 379.597 209.506C379.574 208.468 380.96 208.535 380.96 208.535C380.96 208.535 379.463 207.898 379.671 207.113C379.855 206.423 380.878 206.135 381.515 206.187C381.515 206.187 380.671 205.787 380.715 205.35C380.885 203.668 384.337 203.549 384.337 203.549C383.351 202.964 382.656 202.765 382.019 202.112C381.764 201.851 381.577 201.501 381.495 201.148C381.308 200.323 382.177 199.7 382.919 200.108C383.837 200.612 384.618 201.413 385.493 202.031C386.559 202.786 387.796 203.276 388.923 203.957C389.411 204.253 390.967 206.001 391.523 207.365C391.686 207.661 395.886 213.854 395.886 213.854Z" fill="white"/>
<path d="M395.886 213.854L393.804 214.027C392.236 214.157 390.355 214.743 385.92 213.662C384.267 213.259 380.448 212.068 380.004 211.987C379.1 211.809 377.47 211.498 376.559 211.439C373.077 211.224 374.84 209.928 376.292 209.987C378.21 210.076 378.856 210.031 380.322 210.143C380.151 210.046 379.603 209.935 379.597 209.506C379.574 208.468 380.96 208.535 380.96 208.535C380.96 208.535 379.463 207.898 379.671 207.113C379.855 206.423 380.878 206.135 381.515 206.187C381.515 206.187 380.671 205.787 380.715 205.35C380.885 203.668 384.337 203.549 384.337 203.549C383.351 202.964 382.656 202.765 382.019 202.112C381.764 201.851 381.577 201.501 381.495 201.148C381.308 200.323 382.177 199.7 382.919 200.108C383.837 200.612 384.618 201.413 385.493 202.031C386.559 202.786 387.796 203.276 388.923 203.957C389.411 204.253 390.967 206.001 391.523 207.365C391.686 207.661 395.886 213.854 395.886 213.854Z" stroke="#1A2E35" stroke-width="1.33333" stroke-miterlimit="10" stroke-linecap="round" stroke-linejoin="round"/>
<path d="M302.504 192.878V187.397C302.504 184.667 302.88 181.943 303.698 179.338C304.15 177.893 304.676 176.635 305.171 176.452C306.068 176.122 306.465 179.772 306.465 179.772C306.465 179.772 305.171 174.077 305.171 170.908C305.171 167.74 309.438 180.904 309.438 180.904L307.74 192.878H302.504Z" fill="white"/>
<path d="M302.504 192.878V187.397C302.504 184.667 302.88 181.943 303.698 179.338C304.15 177.893 304.676 176.635 305.171 176.452C306.068 176.122 306.465 179.772 306.465 179.772C306.465 179.772 305.171 174.077 305.171 170.908C305.171 167.74 309.438 180.904 309.438 180.904L307.74 192.878H302.504Z" stroke="#1A2E35" stroke-width="1.33333" stroke-miterlimit="10" stroke-linecap="round" stroke-linejoin="round"/>
<path d="M307.684 184.023C308.197 183.631 308.588 183.08 308.788 182.465L307.684 184.023Z" fill="white"/>
<path d="M307.684 184.023C308.197 183.631 308.588 183.08 308.788 182.465" stroke="#1A2E35" stroke-width="1.33333" stroke-miterlimit="10" stroke-linecap="round" stroke-linejoin="round"/>
<path d="M349.055 204.239C350.914 207.343 351.948 210.87 352.062 214.486C352.236 220.497 359.197 228.913 361.187 229.31C363.178 229.707 365.008 219.83 364.92 216.828C364.832 213.827 363.726 205.561 363.726 205.561C363.726 205.561 354.165 198.363 349.055 204.239" fill="white"/>
<path d="M349.055 204.239C350.914 207.343 351.948 210.87 352.062 214.486C352.236 220.497 359.197 228.913 361.187 229.31C363.178 229.707 365.008 219.83 364.92 216.828C364.832 213.827 363.726 205.561 363.726 205.561C363.726 205.561 354.165 198.363 349.055 204.239V204.239Z" stroke="#1A2E35" stroke-width="1.33333" stroke-miterlimit="10" stroke-linecap="round" stroke-linejoin="round"/>
<path d="M351.852 212.185C351.852 212.185 360.971 224.633 364.549 211.976C368.126 199.318 354.516 215.435 351.852 212.185Z" fill="#1A2E35"/>
<path d="M367.254 203.205C366.772 210.59 363.402 214.739 359.513 215.465C355.964 216.124 350.778 212.488 348.186 207.138L348.178 207.131C347.979 206.998 344.83 204.812 344.075 204.279C343.297 203.724 342.772 202.798 342.815 201.842C342.859 200.931 343.497 200.041 344.372 199.783C344.4 199.768 344.438 199.761 344.466 199.753C344.919 199.642 345.371 199.702 345.801 199.857C345.141 197.331 344.608 194.775 344.208 192.197C344.393 186.24 346.363 181.426 352.691 180.944C359.023 180.463 364.298 184.011 364.543 186.56C364.728 188.537 365.365 193.767 365.943 199.168C366.105 200.656 367.357 201.582 367.254 203.205Z" fill="white"/>
<path d="M367.254 203.205C366.772 210.59 363.402 214.739 359.513 215.465C355.964 216.124 350.778 212.488 348.186 207.138L348.178 207.131C347.979 206.998 344.83 204.812 344.075 204.279C343.297 203.724 342.772 202.798 342.815 201.842C342.859 200.931 343.497 200.041 344.372 199.783C344.4 199.768 344.438 199.761 344.466 199.753C344.919 199.642 345.371 199.702 345.801 199.857C345.141 197.331 344.608 194.775 344.208 192.197C344.393 186.24 346.363 181.426 352.691 180.944C359.023 180.463 364.298 184.011 364.543 186.56C364.728 188.537 365.365 193.767 365.943 199.168C366.105 200.656 367.357 201.582 367.254 203.205Z" stroke="#1A2E35" stroke-width="1.33333" stroke-miterlimit="10" stroke-linecap="round" stroke-linejoin="round"/>
<path d="M364.549 194.705C364.549 194.705 360.473 192.833 361.165 198.901C361.303 200.099 363.533 201.912 363.533 201.912C363.533 201.912 362.964 203.702 361.905 203.702" fill="white"/>
<path d="M364.549 194.705C364.549 194.705 360.473 192.833 361.165 198.901C361.303 200.099 363.533 201.912 363.533 201.912C363.533 201.912 362.964 203.702 361.905 203.702" stroke="#1A2E35" stroke-width="1.33333" stroke-miterlimit="10" stroke-linecap="round" stroke-linejoin="round"/>
<path d="M356.689 196.779C356.689 196.779 354.614 195.519 353.19 196.292C352.446 196.616 351.813 197.152 351.371 197.833" fill="white"/>
<path d="M356.689 196.779C356.689 196.779 354.614 195.519 353.19 196.292C352.446 196.616 351.813 197.152 351.371 197.833" stroke="#1A2E35" stroke-width="1.33333" stroke-miterlimit="10" stroke-linecap="round" stroke-linejoin="round"/>
<path d="M355.504 200.247C355.66 200.98 355.468 201.638 355.074 201.718C354.68 201.798 354.24 201.279 354.084 200.546C353.929 199.812 354.126 199.164 354.522 199.076C354.916 198.989 355.351 199.537 355.504 200.247Z" fill="#1A2E35"/>
<path d="M363.529 198.149C363.687 198.875 363.488 199.531 363.1 199.62C362.712 199.708 362.261 199.172 362.11 198.447C361.96 197.722 362.147 197.057 362.54 196.977C362.934 196.897 363.372 197.423 363.529 198.149Z" fill="#1A2E35"/>
<path d="M343.736 184.613C342.971 185.265 342.572 186.244 342.293 187.21C341.087 191.371 341.645 196.013 343.803 199.77C343.803 199.77 344.901 199.629 345.793 199.857C346.482 200.033 347.373 201.214 347.7 201.846C348.027 202.478 348.107 203.204 348.182 203.911C348.028 202.039 347.873 200.166 347.719 198.293C347.658 197.538 347.597 196.761 347.819 196.037C347.821 196.03 347.823 196.022 347.826 196.015C348.31 194.477 347.776 190.841 347.915 187.585C352.02 192.603 357.972 191.715 359.954 191.551C362.918 191.306 365.453 188.271 365.286 186.109C365.116 183.904 364.548 178.372 354.774 177.799C352.632 177.674 350.364 177.924 348.563 179.093C347.345 179.885 346.563 181.173 346.345 182.595C346.206 183.499 346.556 183.583 345.861 184.026C345.293 184.387 344.415 184.034 343.736 184.613Z" fill="#1A2E35"/>
<path d="M343.736 184.613C342.971 185.265 342.572 186.244 342.293 187.21C341.087 191.371 341.645 196.013 343.803 199.77C343.803 199.77 344.901 199.629 345.793 199.857C346.482 200.033 347.373 201.214 347.7 201.846C348.027 202.478 348.107 203.204 348.182 203.911C348.028 202.039 347.873 200.166 347.719 198.293C347.658 197.538 347.597 196.761 347.819 196.037C347.821 196.03 347.823 196.022 347.826 196.015C348.31 194.477 347.776 190.841 347.915 187.585C352.02 192.603 357.972 191.715 359.954 191.551C362.918 191.306 365.453 188.271 365.286 186.109C365.116 183.904 364.548 178.372 354.774 177.799C352.632 177.674 350.364 177.924 348.563 179.093C347.345 179.885 346.563 181.173 346.345 182.595C346.206 183.499 346.556 183.583 345.861 184.026C345.293 184.387 344.415 184.034 343.736 184.613Z" stroke="#1A2E35" stroke-width="1.33333" stroke-miterlimit="10" stroke-linecap="round" stroke-linejoin="round"/>
<path d="M356.691 207.141C356.691 207.141 358.142 208.736 361.179 207.679L356.691 207.141Z" fill="white"/>
<path d="M356.691 207.141C356.691 207.141 358.142 208.736 361.179 207.679" stroke="#1A2E35" stroke-width="1.33333" stroke-miterlimit="10" stroke-linecap="round" stroke-linejoin="round"/>
</svg>
