<svg width="386" height="399" viewBox="0 0 386 399" fill="none" xmlns="http://www.w3.org/2000/svg">
<path d="M306.922 294.082V314.079H303.601V316.231H306.943V329.616H369.386V317.457H364.757V314.805H369.386V310.824H371.427V309.016H368.983V294.082H306.922Z" fill="#F5F5F5"/>
<path d="M352.785 294.141V329.417H369.37V317.237H364.746V314.805L369.37 314.886V310.91H371.47L371.426 308.855L368.988 308.796V294.082L352.785 294.141Z" fill="#E1E1E1"/>
<path d="M353.97 315.962C353.97 316.086 342.665 316.182 328.734 316.182C314.803 316.182 303.493 316.086 303.493 315.962C303.493 315.838 314.798 315.741 328.734 315.741C342.671 315.741 353.97 315.843 353.97 315.962Z" fill="#E1E1E1"/>
<path d="M353.97 313.933C353.97 314.052 342.665 314.154 328.734 314.154C314.803 314.154 303.493 314.052 303.493 313.933C303.493 313.815 314.798 313.708 328.734 313.708C342.671 313.708 353.97 313.81 353.97 313.933Z" fill="#E1E1E1"/>
<path d="M357.215 308.462C357.215 308.586 345.911 308.688 331.974 308.688C318.038 308.688 306.733 308.586 306.733 308.462C306.733 308.339 318.038 308.242 331.974 308.242C345.911 308.242 357.215 308.344 357.215 308.462Z" fill="#E1E1E1"/>
<path d="M357.528 323.364C357.528 323.483 346.223 323.585 332.287 323.585C318.35 323.585 307.046 323.483 307.046 323.364C307.046 323.246 318.35 323.144 332.287 323.144C346.223 323.144 357.528 323.241 357.528 323.364Z" fill="#E1E1E1"/>
<path d="M311.632 328.647V348.644H308.294V350.796H311.632V364.181H374.075V352.007H369.451V349.37H374.075V345.389H376.131V343.582H373.687V328.647H311.632Z" fill="#F5F5F5"/>
<path d="M357.501 328.706V363.982H374.086V351.802H369.457V349.37L374.086 349.451V345.475H376.18L376.137 343.42L373.698 343.361V328.647L357.501 328.706Z" fill="#E1E1E1"/>
<path d="M358.685 350.527C358.685 350.651 347.381 350.753 333.444 350.753C319.507 350.753 308.203 350.651 308.203 350.527C308.203 350.403 319.507 350.306 333.444 350.306C347.381 350.306 358.685 350.392 358.685 350.527Z" fill="#E1E1E1"/>
<path d="M358.685 348.499C358.685 348.617 347.381 348.719 333.444 348.719C319.507 348.719 308.203 348.617 308.203 348.499C308.203 348.381 319.507 348.278 333.444 348.278C347.381 348.278 358.685 348.375 358.685 348.499Z" fill="#E1E1E1"/>
<path d="M361.926 343.028C361.926 343.151 350.621 343.254 336.685 343.254C322.748 343.254 311.449 343.151 311.449 343.028C311.449 342.904 322.754 342.807 336.685 342.807C350.616 342.807 361.926 342.909 361.926 343.028Z" fill="#E1E1E1"/>
<path d="M362.238 357.924C362.238 358.048 350.933 358.145 336.997 358.145C323.06 358.145 311.756 358.048 311.756 357.924C311.756 357.8 323.06 357.704 336.997 357.704C350.933 357.704 362.238 357.806 362.238 357.924Z" fill="#E1E1E1"/>
<path d="M306.157 362.766V382.768H302.82V384.92H306.157V398.305H368.6V386.12H363.976V383.468H368.6V379.487H370.657V377.679H368.218V362.766H306.157Z" fill="#F5F5F5"/>
<path d="M352.026 362.804V398.079H368.611V385.899H363.982V383.473L368.611 383.554V379.573L370.705 379.578L370.667 377.518L368.223 377.458V362.75L352.026 362.804Z" fill="#E1E1E1"/>
<path d="M353.21 384.63C353.21 384.748 341.906 384.85 327.969 384.85C314.033 384.85 302.729 384.748 302.729 384.63C302.729 384.511 314.033 384.409 327.969 384.409C341.906 384.409 353.21 384.506 353.21 384.63Z" fill="#E1E1E1"/>
<path d="M353.21 382.596C353.21 382.72 341.906 382.817 327.969 382.817C314.033 382.817 302.729 382.72 302.729 382.596C302.729 382.472 314.033 382.375 327.969 382.375C341.906 382.375 353.21 382.472 353.21 382.596Z" fill="#E1E1E1"/>
<path d="M356.451 377.13C356.451 377.254 345.147 377.351 331.216 377.351C317.284 377.351 305.975 377.254 305.975 377.13C305.975 377.007 317.279 376.91 331.216 376.91C345.152 376.91 356.451 377.007 356.451 377.13Z" fill="#E1E1E1"/>
<path d="M356.763 392.027C356.763 392.151 345.459 392.248 331.522 392.248C317.586 392.248 306.287 392.151 306.287 392.027C306.287 391.903 317.591 391.806 331.522 391.806C345.453 391.806 356.763 391.903 356.763 392.027Z" fill="#E1E1E1"/>
<path d="M16.5782 294.082V314.079H13.2354V316.231H16.5782V329.616H79.0212V317.457H74.3918V314.805H79.0212V310.824H81.0775V309.016H78.6336V294.082H16.5782Z" fill="#F5F5F5"/>
<path d="M62.4414 294.141V329.417H79.0265V317.237H74.4024V314.805L79.0265 314.886V310.91H81.1258L81.0828 308.855L78.6443 308.796V294.082L62.4414 294.141Z" fill="#E1E1E1"/>
<path d="M63.6259 315.962C63.6259 316.086 52.3215 316.182 38.3903 316.182C24.4591 316.182 13.1494 316.086 13.1494 315.962C13.1494 315.838 24.4537 315.741 38.3903 315.741C52.3269 315.741 63.6259 315.843 63.6259 315.962Z" fill="#E1E1E1"/>
<path d="M63.6259 313.933C63.6259 314.052 52.3215 314.154 38.3903 314.154C24.4591 314.154 13.1494 314.052 13.1494 313.933C13.1494 313.815 24.4537 313.708 38.3903 313.708C52.3269 313.708 63.6259 313.81 63.6259 313.933Z" fill="#E1E1E1"/>
<path d="M66.8716 308.462C66.8716 308.586 55.5672 308.688 41.6306 308.688C27.694 308.688 16.3896 308.586 16.3896 308.462C16.3896 308.339 27.694 308.242 41.6306 308.242C55.5672 308.242 66.8716 308.344 66.8716 308.462Z" fill="#E1E1E1"/>
<path d="M67.184 323.364C67.184 323.483 55.8797 323.585 41.9431 323.585C28.0065 323.585 16.7021 323.483 16.7021 323.364C16.7021 323.246 28.0065 323.144 41.9431 323.144C55.8797 323.144 67.184 323.241 67.184 323.364Z" fill="#E1E1E1"/>
<path d="M317.532 263.406V283.403H314.189V285.555H317.532V298.961H379.975V286.782H375.345V284.129H379.975V280.148H382.031V278.341H379.587V263.406H317.532Z" fill="#F5F5F5"/>
<path d="M363.395 263.465V298.741H379.98V286.561H375.356V284.129L379.98 284.215V280.234H382.079L382.036 278.179L379.598 278.12V263.406L363.395 263.465Z" fill="#E1E1E1"/>
<path d="M364.579 285.297C364.579 285.42 353.275 285.523 339.343 285.523C325.412 285.523 314.103 285.42 314.103 285.297C314.103 285.173 325.407 285.076 339.343 285.076C353.28 285.076 364.579 285.168 364.579 285.297Z" fill="#E1E1E1"/>
<path d="M364.579 283.258C364.579 283.382 353.275 283.479 339.343 283.479C325.412 283.479 314.103 283.382 314.103 283.258C314.103 283.134 325.407 283.037 339.343 283.037C353.28 283.037 364.579 283.145 364.579 283.258Z" fill="#E1E1E1"/>
<path d="M367.82 277.792C367.82 277.91 356.515 278.012 342.584 278.012C328.653 278.012 317.343 277.91 317.343 277.792C317.343 277.674 328.648 277.566 342.584 277.566C356.521 277.566 367.82 277.668 367.82 277.792Z" fill="#E1E1E1"/>
<path d="M368.132 292.689C368.132 292.812 356.828 292.909 342.897 292.909C328.965 292.909 317.656 292.812 317.656 292.689C317.656 292.565 328.96 292.468 342.897 292.468C356.833 292.468 368.132 292.565 368.132 292.689Z" fill="#E1E1E1"/>
<path d="M19.9156 328.647V348.644H16.5728V350.796H19.9156V364.181H82.3586V352.007H77.7292V349.37H82.3586V345.389H84.4149V343.582H81.971V328.647H19.9156Z" fill="#F5F5F5"/>
<path d="M65.7573 328.706V363.982H82.3424V351.802H77.7184V349.37L82.3424 349.451V345.475H84.4417L84.3987 343.42L81.9602 343.361V328.647L65.7573 328.706Z" fill="#E1E1E1"/>
<path d="M66.9416 350.527C66.9416 350.651 55.6373 350.753 41.706 350.753C27.7748 350.753 16.4651 350.651 16.4651 350.527C16.4651 350.403 27.7694 350.306 41.706 350.306C55.6427 350.306 66.9416 350.392 66.9416 350.527Z" fill="#E1E1E1"/>
<path d="M66.9416 348.499C66.9416 348.617 55.6373 348.719 41.706 348.719C27.7748 348.719 16.4651 348.617 16.4651 348.499C16.4651 348.381 27.7694 348.278 41.706 348.278C55.6427 348.278 66.9416 348.375 66.9416 348.499Z" fill="#E1E1E1"/>
<path d="M70.1877 343.028C70.1877 343.151 58.8834 343.254 44.9468 343.254C31.0101 343.254 19.7058 343.151 19.7058 343.028C19.7058 342.904 31.0101 342.807 44.9468 342.807C58.8834 342.807 70.1877 342.909 70.1877 343.028Z" fill="#E1E1E1"/>
<path d="M70.5161 357.924C70.5161 358.048 59.2118 358.145 45.2751 358.145C31.3385 358.145 20.0342 358.048 20.0342 357.924C20.0342 357.8 31.3385 357.704 45.2751 357.704C59.2118 357.704 70.5161 357.806 70.5161 357.924Z" fill="#E1E1E1"/>
<path d="M27.3444 362.766V382.768H24.0015V384.92H27.3444V398.305H89.7873V386.12H85.1579V383.468H89.7873V379.487H91.8436V377.679H89.3997V362.766H27.3444Z" fill="#F5F5F5"/>
<path d="M73.2075 362.804V398.079H89.7926V385.899H85.1686V383.473L89.7926 383.554V379.573L91.8919 379.578L91.8489 377.518L89.4104 377.458V362.75L73.2075 362.804Z" fill="#E1E1E1"/>
<path d="M74.3918 384.63C74.3918 384.748 63.0875 384.85 49.1562 384.85C35.225 384.85 23.9153 384.748 23.9153 384.63C23.9153 384.511 35.2196 384.409 49.1562 384.409C63.0928 384.409 74.3918 384.506 74.3918 384.63Z" fill="#E1E1E1"/>
<path d="M74.3918 382.596C74.3918 382.72 63.0875 382.817 49.1562 382.817C35.225 382.817 23.9153 382.72 23.9153 382.596C23.9153 382.472 35.2196 382.375 49.1562 382.375C63.0928 382.375 74.3918 382.472 74.3918 382.596Z" fill="#E1E1E1"/>
<path d="M77.6377 377.13C77.6377 377.254 66.3334 377.351 52.3968 377.351C38.4601 377.351 27.1558 377.254 27.1558 377.13C27.1558 377.007 38.4601 376.91 52.3968 376.91C66.3334 376.91 77.6377 377.007 77.6377 377.13Z" fill="#E1E1E1"/>
<path d="M77.9499 392.027C77.9499 392.151 66.6456 392.248 52.7089 392.248C38.7723 392.248 27.468 392.151 27.468 392.027C27.468 391.903 38.7723 391.806 52.7089 391.806C66.6456 391.806 77.9499 391.903 77.9499 392.027Z" fill="#E1E1E1"/>
<path d="M233.664 363.18V382.548H230.435V384.651H233.664V397.622H294.191V385.835H289.707V383.269H294.191V379.411H296.183V377.657H293.82V363.18H233.664Z" fill="#F5F5F5"/>
<path d="M278.117 363.24V397.428H294.191V385.625H289.707V383.269L294.191 383.349V379.492H296.22L296.183 377.501L293.819 377.442V363.186L278.117 363.24Z" fill="#E1E1E1"/>
<path d="M279.264 384.388C279.264 384.511 268.315 384.603 254.804 384.603C241.292 384.603 230.343 384.511 230.343 384.388C230.343 384.264 241.292 384.178 254.804 384.178C268.315 384.178 279.264 384.285 279.264 384.388Z" fill="#E1E1E1"/>
<path d="M279.264 382.424C279.264 382.542 268.315 382.634 254.804 382.634C241.292 382.634 230.343 382.542 230.343 382.424C230.343 382.306 241.292 382.209 254.804 382.209C268.315 382.209 279.264 382.306 279.264 382.424Z" fill="#E1E1E1"/>
<path d="M282.408 377.125C282.408 377.243 271.453 377.34 257.947 377.34C244.441 377.34 233.487 377.243 233.487 377.125C233.487 377.007 244.436 376.91 257.947 376.91C271.459 376.91 282.408 377.007 282.408 377.125Z" fill="#E1E1E1"/>
<path d="M282.709 391.564C282.709 391.683 271.754 391.774 258.249 391.774C244.743 391.774 233.788 391.683 233.788 391.564C233.788 391.446 244.737 391.349 258.249 391.349C271.76 391.349 282.709 391.441 282.709 391.564Z" fill="#E1E1E1"/>
<path d="M121.703 328.647V348.644H118.366V350.796H121.703V364.181H184.146V352.007H179.522V349.37H184.146V345.389H186.202V343.582H183.759V328.647H121.703Z" fill="#F5F5F5"/>
<path d="M167.572 328.706V363.982H184.157V351.802H179.527V349.37L184.157 349.451V345.475H186.251L186.208 343.42L183.769 343.361V328.647L167.572 328.706Z" fill="#E1E1E1"/>
<path d="M168.756 350.527C168.756 350.651 157.452 350.753 143.515 350.753C129.579 350.753 118.274 350.651 118.274 350.527C118.274 350.403 129.579 350.306 143.515 350.306C157.452 350.306 168.756 350.392 168.756 350.527Z" fill="#E1E1E1"/>
<path d="M168.756 348.499C168.756 348.617 157.452 348.719 143.515 348.719C129.579 348.719 118.274 348.617 118.274 348.499C118.274 348.381 129.579 348.278 143.515 348.278C157.452 348.278 168.756 348.375 168.756 348.499Z" fill="#E1E1E1"/>
<path d="M171.997 343.028C171.997 343.151 160.692 343.254 146.756 343.254C132.819 343.254 121.515 343.151 121.515 343.028C121.515 342.904 132.819 342.807 146.756 342.807C160.692 342.807 171.997 342.909 171.997 343.028Z" fill="#E1E1E1"/>
<path d="M172.309 357.924C172.309 358.048 161.004 358.145 147.068 358.145C133.131 358.145 121.827 358.048 121.827 357.924C121.827 357.8 133.131 357.704 147.068 357.704C161.004 357.704 172.309 357.806 172.309 357.924Z" fill="#E1E1E1"/>
<path d="M116.229 362.766V382.768H112.891V384.92H116.229V398.305H178.672V386.12H174.048V383.468H178.672V379.487H180.728V377.679H178.284V362.766H116.229Z" fill="#F5F5F5"/>
<path d="M162.097 362.804V398.079H178.682V385.899H174.053V383.473L178.682 383.554V379.573L180.776 379.578L180.733 377.518L178.295 377.458V362.75L162.097 362.804Z" fill="#E1E1E1"/>
<path d="M163.281 384.63C163.281 384.748 151.977 384.85 138.041 384.85C124.104 384.85 112.8 384.748 112.8 384.63C112.8 384.511 124.104 384.409 138.041 384.409C151.977 384.409 163.281 384.506 163.281 384.63Z" fill="#E1E1E1"/>
<path d="M163.281 382.596C163.281 382.72 151.977 382.817 138.041 382.817C124.104 382.817 112.8 382.72 112.8 382.596C112.8 382.472 124.104 382.375 138.041 382.375C151.977 382.375 163.281 382.472 163.281 382.596Z" fill="#E1E1E1"/>
<path d="M166.522 377.13C166.522 377.254 155.218 377.351 141.281 377.351C127.345 377.351 116.046 377.254 116.046 377.13C116.046 377.007 127.35 376.91 141.281 376.91C155.212 376.91 166.522 377.007 166.522 377.13Z" fill="#E1E1E1"/>
<path d="M166.834 392.027C166.834 392.151 155.53 392.248 141.593 392.248C127.657 392.248 116.352 392.151 116.352 392.027C116.352 391.903 127.657 391.806 141.593 391.806C155.53 391.806 166.834 391.903 166.834 392.027Z" fill="#E1E1E1"/>
<path d="M0.499268 326.038C1.17753 331.461 5.34398 335.937 10.1887 338.482C15.0334 341.026 20.5187 341.973 25.8963 342.958C31.2739 343.942 36.7592 345.05 41.4532 347.853L50.7712 321.955C50.7712 321.955 39.2785 316.64 27.3874 317.113C17.7626 317.495 10.1241 304.74 10.1241 304.74L0.499268 326.038Z" fill="#E1E1E1"/>
<path d="M41.83 391.849C50.5182 382.903 60.2507 378.012 72.6801 376.931C69.741 372.358 64.5302 363.449 61.5911 358.882C45.9804 358.963 33.8417 367.764 25.6326 380.885C31.4032 385.044 36.0648 387.691 41.83 391.849Z" fill="#E1E1E1"/>
<path d="M337.212 110.313C338.849 109.325 340.61 108.559 342.45 108.037L343.527 102.856L352.285 102.7L353.544 107.844C355.402 108.299 357.191 109.001 358.863 109.931L363.288 107.031L369.596 113.143L366.851 117.667C367.841 119.302 368.607 121.063 369.128 122.902L374.317 123.978L374.468 132.736L369.327 133.995C368.868 135.852 368.164 137.639 367.233 139.31L370.135 143.732L364.052 150.032L359.525 147.288C357.888 148.276 356.126 149.041 354.287 149.564L353.211 154.745L344.452 154.901L343.187 149.758C341.331 149.302 339.544 148.6 337.874 147.67L333.444 150.57L327.141 144.485L329.886 139.966C328.897 138.329 328.132 136.566 327.609 134.726L322.425 133.651L322.274 124.892L327.415 123.633C327.873 121.778 328.578 119.992 329.509 118.323L326.608 113.896L332.691 107.596L337.218 110.34L337.212 110.313ZM341.885 121.976C341.027 122.864 340.353 123.911 339.9 125.059C339.448 126.207 339.226 127.432 339.248 128.666C339.269 129.899 339.534 131.116 340.026 132.248C340.518 133.379 341.228 134.402 342.116 135.259C343.91 136.989 346.317 137.936 348.809 137.892C351.302 137.849 353.674 136.819 355.407 135.028C357.137 133.235 358.085 130.829 358.042 128.338C357.998 125.848 356.967 123.476 355.175 121.745C354.288 120.888 353.239 120.214 352.091 119.762C350.943 119.31 349.716 119.088 348.482 119.109C347.248 119.131 346.03 119.395 344.898 119.887C343.766 120.379 342.742 121.089 341.885 121.976Z" fill="#ECECEC"/>
<path d="M34.38 196.083C36.3537 194.893 38.4771 193.97 40.6942 193.34L41.9969 187.094L52.5584 186.911L54.0764 193.108C56.3165 193.657 58.4728 194.504 60.4876 195.626L65.8275 192.129L73.4283 199.462L70.1178 204.917C71.3098 206.891 72.233 209.015 72.8631 211.233L79.1128 212.529L79.3012 223.09L73.1 224.607C72.5455 226.845 71.6965 228.999 70.5753 231.014L74.0743 236.346L66.748 243.942L61.2896 240.639C59.3168 241.83 57.1931 242.751 54.9754 243.377L53.6727 249.629L43.1112 249.811L41.5878 243.614C39.3494 243.065 37.1949 242.218 35.182 241.096L29.842 244.593L22.2412 237.26L25.5518 231.805C24.3554 229.834 23.4319 227.709 22.8065 225.489L16.5514 224.193L16.3684 213.632L22.5697 212.115C23.1218 209.876 23.9708 207.722 25.0943 205.708L21.5953 200.371L28.9323 192.78L34.3907 196.083H34.38ZM40.0106 210.146C38.9732 211.214 38.1573 212.477 37.6097 213.861C37.0621 215.245 36.7936 216.724 36.8196 218.212C36.8456 219.7 37.1656 221.169 37.7613 222.533C38.3569 223.897 39.2165 225.131 40.2905 226.162C41.3592 227.198 42.6224 228.014 44.0075 228.561C45.3925 229.109 46.8722 229.377 48.3613 229.351C49.8505 229.325 51.3198 229.005 52.6849 228.41C54.05 227.814 55.2839 226.955 56.3157 225.882C58.4029 223.721 59.5458 220.82 59.4933 217.816C59.4408 214.813 58.1972 211.953 56.0358 209.866C54.9653 208.833 53.7016 208.02 52.3169 207.475C50.9321 206.93 49.4534 206.662 47.9652 206.688C46.4771 206.714 45.0086 207.033 43.6437 207.626C42.2788 208.22 41.0443 209.076 40.0106 210.146Z" fill="#ECECEC"/>
<path d="M104.131 40.9445L6.86523 58.5225L20.8291 135.698L118.095 118.12L104.131 40.9445Z" fill="white"/>
<path d="M104.129 40.9449L6.86304 58.5229L10.5173 78.7194L107.783 61.1414L104.129 40.9449Z" fill="#ECECEC"/>
<path d="M31.7582 92.7479C31.6473 92.407 31.5627 92.058 31.5053 91.7042C31.3545 90.9671 31.1553 90.0203 30.9185 88.8636C30.4286 86.432 29.745 82.9996 28.9752 78.8948L29.2875 79.11L15.3885 81.6655C15.3293 81.7408 15.8569 80.9876 15.6361 81.3104V81.3642V81.4234V81.5417L15.6792 81.7838L15.7653 82.2572L15.9322 83.1987C16.0452 83.8228 16.1583 84.4414 16.2659 85.0601C16.4866 86.2813 16.702 87.4864 16.9119 88.6538C17.321 90.9833 17.7086 93.1836 18.0692 95.2172L17.757 95.002C21.875 94.2811 25.3255 93.7162 27.7802 93.3289L30.6493 92.877C31.0051 92.8116 31.3647 92.7685 31.7259 92.7479C31.4213 92.853 31.1078 92.9305 30.7893 92.9792L28.0063 93.5548C25.5893 94.039 22.0849 94.733 17.8647 95.5239L17.6009 95.5723L17.5525 95.3087C17.1757 93.2859 16.7665 91.0855 16.3359 88.756L15.6738 85.1677C15.5661 84.5544 15.4531 83.9357 15.3401 83.3063L15.1678 82.3648L15.0817 81.8914L15.0386 81.6547V81.5363V81.4772V81.4287L15.2862 81.0683L29.2013 78.5936L29.4705 78.5505L29.5135 78.8088C30.251 83.0427 30.827 86.5611 31.2199 88.9981L31.656 91.801C31.717 92.1132 31.7511 92.4299 31.7582 92.7479Z" fill="#E1E1E1"/>
<path d="M49.9636 89.4715C49.8593 89.1306 49.7748 88.7839 49.7106 88.4332L49.1292 85.5873C48.634 83.1556 47.9557 79.7287 47.186 75.6185L47.4982 75.8337L33.5939 78.3891L33.8415 78.034V78.0771V78.1416V78.26L33.8845 78.4967L33.9706 78.9701L34.1429 79.9116C34.256 80.541 34.3636 81.1597 34.4767 81.773C34.6974 82.9996 34.9073 84.1993 35.1172 85.3667C35.5263 87.6962 35.9193 89.9019 36.2746 91.9301L35.9624 91.7149C40.0804 90.994 43.5363 90.4345 45.9856 90.0418L48.8547 89.5953C49.2103 89.5274 49.5699 89.4825 49.9313 89.4608C49.6267 89.5659 49.3132 89.6434 48.9947 89.6921L46.2116 90.2677C43.7946 90.7573 40.2903 91.4513 36.07 92.2421L35.8063 92.2906L35.7578 92.0269L34.5413 85.4743C34.326 84.3069 34.1106 83.1072 33.8845 81.8806C33.7697 81.2673 33.6566 80.6486 33.5454 80.0246L33.3731 79.0831L33.287 78.6043L33.2439 78.3676V78.2492V78.1901V78.1363C33.0232 78.459 33.5508 77.7005 33.4969 77.7758L47.412 75.3065L47.6758 75.2581L47.7243 75.5217C48.4617 79.7502 49.0377 83.274 49.4253 85.7057L49.8613 88.5139C49.923 88.8296 49.9572 89.15 49.9636 89.4715Z" fill="#E1E1E1"/>
<path d="M68.1691 86.1683C68.0658 85.8257 67.9831 85.4771 67.9214 85.1246C67.7653 84.3822 67.5716 83.4407 67.3347 82.2841C66.8449 79.8524 66.1612 76.4201 65.3914 72.3153L65.7036 72.5305L51.8047 75.0859C51.7455 75.1612 52.273 74.408 52.0523 74.7254V74.7739V74.833V74.9514L52.0954 75.1881L52.1815 75.6615L52.3484 76.6084C52.4614 77.2324 52.5745 77.8511 52.6821 78.4644L53.3281 82.0581L54.4801 88.6215L54.1732 88.4063C58.2912 87.6908 61.7418 87.1259 64.1964 86.7332L67.0602 86.2867C67.4161 86.2219 67.7756 86.1788 68.1368 86.1575C67.8332 86.26 67.5217 86.3374 67.2055 86.3889L64.4225 86.9591C62.0055 87.4487 58.5012 88.1427 54.2755 88.9335L54.0171 88.9819L53.9687 88.7183C53.5919 86.6901 53.1828 84.4952 52.7521 82.1657L52.09 78.572C51.977 77.9587 51.8693 77.34 51.7509 76.716L51.584 75.7745L51.4979 75.3011L51.4548 75.059V74.9406V74.8815V74.8384C51.2287 75.1558 51.7562 74.3973 51.7024 74.478L65.6175 72.0033L65.8813 71.9548L65.9297 72.2184C66.6672 76.4524 67.2432 79.9708 67.6362 82.4024L68.0722 85.2107C68.1345 85.5262 68.1669 85.8468 68.1691 86.1683Z" fill="#E1E1E1"/>
<path d="M86.3798 82.8758C86.2688 82.5349 86.1842 82.186 86.1268 81.8321C85.9761 81.0933 85.7805 80.1464 85.54 78.9916C85.0502 76.5599 84.3719 73.1276 83.6021 69.0228L83.909 69.238L70.01 71.7934L70.2577 71.4383V71.4921V71.5513V71.6696L70.3007 71.9117L70.3869 72.3852L70.5591 73.3266C70.6668 73.9507 70.7798 74.5694 70.8929 75.1827C71.1082 76.4093 71.3217 77.609 71.5334 78.7818C71.9425 81.1112 72.3301 83.3116 72.6908 85.3451L72.3786 85.1299C76.4966 84.409 79.9525 83.8442 82.4017 83.4568L85.2709 83.0049C85.6267 82.9398 85.9863 82.8967 86.3475 82.8758C86.0429 82.981 85.7294 83.0584 85.4108 83.1071L82.6278 83.6828C80.2108 84.167 76.7065 84.8609 72.4862 85.6518L72.2224 85.7002L72.174 85.4366C71.7972 83.4138 71.3881 81.2134 70.9575 78.884C70.7421 77.7166 70.5214 76.5169 70.3007 75.2956C70.1877 74.6823 70.0746 74.0637 69.9616 73.4342L69.7893 72.4928L69.7032 72.0193L69.6601 71.7826V71.6643V71.6051V71.5567C69.4394 71.8795 69.9616 71.1155 69.9131 71.1962L83.8282 68.7215L84.092 68.6785L84.1351 68.9367C84.8779 73.1706 85.4539 76.689 85.8415 79.1261L86.2775 81.9289C86.3385 82.2411 86.3727 82.5579 86.3798 82.8758Z" fill="#E1E1E1"/>
<path d="M104.585 79.5834C104.481 79.2427 104.399 78.8959 104.337 78.5451C104.18 77.8026 103.984 76.854 103.751 75.6991C103.261 73.2675 102.577 69.8405 101.807 65.7303L102.12 65.9455L88.2154 68.4902C88.1615 68.5709 88.689 67.8123 88.4683 68.1351V68.1782V68.2427V68.3611L88.5114 68.5978L88.5976 69.0712L88.7698 70.0127C88.8828 70.6421 88.9959 71.2608 89.1036 71.8741C89.3225 73.1007 89.536 74.2986 89.7441 75.4678C90.1586 77.7973 90.5462 80.003 90.9015 82.0312L90.5892 81.816C94.7126 81.0951 98.1632 80.5356 100.618 80.1429L103.482 79.6963C103.837 79.6285 104.197 79.5836 104.558 79.5618C104.254 79.667 103.94 79.7444 103.622 79.7932L100.839 80.3688C98.4216 80.8584 94.9172 81.5524 90.6969 82.3432L90.4332 82.3916L90.3847 82.128C90.0079 80.0998 89.6042 77.8995 89.1682 75.5754C88.9564 74.4062 88.7375 73.2083 88.5114 71.9817C88.3966 71.3684 88.2835 70.7497 88.1723 70.1256L88 69.1788L87.9139 68.7054L87.8708 68.4687V68.3503V68.2911V68.2373C87.6447 68.5601 88.1723 67.8016 88.1185 67.8769L102.034 65.4076L102.297 65.3591L102.346 65.6227C103.083 69.8513 103.659 73.3751 104.047 75.8067C104.226 76.9473 104.373 77.8833 104.488 78.615C104.548 78.9345 104.58 79.2584 104.585 79.5834Z" fill="#E1E1E1"/>
<path d="M34.9882 110.625C34.8781 110.284 34.7935 109.935 34.7352 109.581C34.5845 108.839 34.3853 107.898 34.1484 106.741C33.6586 104.309 32.9749 100.877 32.2052 96.772L32.5174 96.9872L18.6184 99.5426C18.5592 99.618 19.0868 98.8648 18.8661 99.1876V99.2414V99.3006V99.4189L18.9091 99.6556L18.9953 100.134L19.1621 101.076C19.2752 101.7 19.3882 102.319 19.4959 102.932L20.1419 106.531C20.551 108.86 20.9386 111.061 21.2939 113.089L20.987 112.874C25.105 112.158 28.5555 111.593 31.0102 111.201L33.8793 110.754C34.2351 110.689 34.5947 110.646 34.9559 110.625C34.651 110.729 34.3376 110.807 34.0192 110.856L31.2363 111.432C28.8193 111.916 25.315 112.61 21.0893 113.401L20.8309 113.449L20.7824 113.186C20.4056 111.158 19.9965 108.963 19.5659 106.633L18.9038 103.045C18.7961 102.432 18.6831 101.808 18.57 101.183L18.3978 100.242L18.3116 99.7686L18.2685 99.5319V99.4082V99.349V99.3059C18.0424 99.6233 18.57 98.8648 18.5162 98.9455L32.4313 96.4708L32.7004 96.4224L32.7435 96.686C33.4809 100.92 34.0569 104.438 34.4499 106.87L34.886 109.678C34.9433 109.991 34.9775 110.307 34.9882 110.625Z" fill="#E1E1E1"/>
<path d="M53.1989 107.333C53.0941 106.99 53.0096 106.641 52.9458 106.289L52.3645 103.448C51.8693 101.017 51.191 97.5898 50.4212 93.4796L50.728 93.6948L36.8291 96.2502L37.0767 95.8951V95.9274V95.9866V96.1049L37.1198 96.347L37.2059 96.8205L37.3781 97.7619C37.4912 98.386 37.5989 99.01 37.712 99.6233C37.9273 100.85 38.1408 102.048 38.3525 103.217C38.7616 105.547 39.1492 107.747 39.5099 109.78L39.1976 109.565C43.3156 108.844 46.7715 108.285 49.2208 107.892L52.09 107.446C52.4456 107.378 52.8052 107.333 53.1666 107.311C52.862 107.416 52.5485 107.494 52.2299 107.542L49.4469 108.118C47.0299 108.608 43.5256 109.302 39.3053 110.087L39.0415 110.141L38.993 109.872C38.6162 107.849 38.2072 105.649 37.7765 103.325C37.5612 102.155 37.3423 100.958 37.1198 99.7309C37.0049 99.1176 36.8919 98.499 36.7806 97.8749L36.6084 96.928L36.5223 96.4546L36.4792 96.2179V96.0996V96.0404V95.992C36.2585 96.3148 36.7807 95.5562 36.7322 95.6315L50.6473 93.1622L50.9111 93.1138L50.9541 93.3774C51.697 97.6059 52.273 101.13 52.6606 103.561L53.0966 106.37C53.1586 106.687 53.1928 107.009 53.1989 107.333Z" fill="#E1E1E1"/>
<path d="M71.4042 104.046C71.3009 103.703 71.2182 103.354 71.1566 103.002C70.9987 102.259 70.8031 101.313 70.5698 100.161C70.08 97.7242 69.3963 94.2973 68.6266 90.1925L68.9388 90.4077L55.0398 92.9577C54.9806 93.0384 55.5082 92.2799 55.2875 92.6027V92.6511V92.7103V92.8286L55.3305 93.0653L55.4113 93.5387L55.5835 94.4802C55.6966 95.1097 55.8096 95.7283 55.9173 96.3416C56.1398 97.5682 56.3533 98.7661 56.5578 99.9354C56.9723 102.265 57.3599 104.471 57.7152 106.499L57.4084 106.284C61.5264 105.568 64.9769 105.003 67.4315 104.61L70.2953 104.164C70.6507 104.096 71.0105 104.053 71.3719 104.035C71.0684 104.137 70.7569 104.215 70.4406 104.266L67.6576 104.836C65.2406 105.326 61.7363 106.02 57.5107 106.811L57.2522 106.859L57.1984 106.596C56.827 104.567 56.4179 102.367 55.9819 100.043C55.7701 98.8737 55.5512 97.6758 55.3252 96.4492C55.2103 95.8359 55.0973 95.2173 54.986 94.5932L54.8191 93.6517L54.733 93.1729L54.6899 92.9362V92.8179V92.7587V92.6995C54.4638 93.0169 54.9914 92.2584 54.9376 92.3337L68.8526 89.8643L69.1164 89.8159L69.1649 90.0795C69.9023 94.3081 70.4783 97.8318 70.8713 100.264L71.3073 103.072C71.3706 103.393 71.4031 103.719 71.4042 104.046Z" fill="#E1E1E1"/>
<path d="M89.6149 100.769C89.5014 100.418 89.415 100.058 89.3565 99.6932C89.2058 98.9508 89.012 98.0093 88.7698 96.8527C88.2799 94.421 87.5963 90.9887 86.8319 86.8839L87.1387 87.0991L73.2398 89.6545C73.186 89.7298 73.7081 88.9766 73.4874 89.2994V89.3532V89.4124V89.5307L73.5305 89.7675L73.6166 90.2463L73.7835 91.1877L74.1226 93.0438C74.3379 94.2704 74.5515 95.4683 74.7632 96.6375C75.1723 98.9723 75.5599 101.173 75.9205 103.201L75.6083 102.986C79.7263 102.27 83.1822 101.705 85.6315 101.313L88.5006 100.866C88.8565 100.801 89.216 100.758 89.5772 100.737C89.2726 100.842 88.9592 100.919 88.6406 100.968L85.8576 101.544C83.4406 102.028 79.9363 102.722 75.716 103.513L75.4522 103.561L75.4038 103.298C75.027 101.27 74.6179 99.0745 74.1872 96.7451C73.9719 95.5776 73.7512 94.378 73.5305 93.1567C73.4174 92.5434 73.3044 91.9194 73.1913 91.2953L73.0191 90.3539L72.933 89.8804L72.8899 89.6437V89.52V89.4608V89.4178L73.1375 89.0573L87.0526 86.5826L87.3218 86.5342L87.3648 86.7978C88.1077 91.0317 88.6837 94.5501 89.0712 96.9818L89.5073 99.79C89.5719 100.113 89.6079 100.44 89.6149 100.769Z" fill="#E1E1E1"/>
<path d="M107.82 97.4605C107.716 97.1179 107.631 96.7694 107.567 96.4169L106.986 93.5763C106.496 91.1446 105.812 87.7123 105.043 83.6075L105.355 83.8227L91.4505 86.3781L91.6981 86.023V86.0661V86.1253V86.2436L91.7412 86.4857L91.8274 86.9591L91.9996 87.9006C92.1126 88.5247 92.2203 89.1487 92.3334 89.762C92.5541 90.9886 92.764 92.1883 92.9739 93.3557C93.3884 95.6852 93.776 97.8855 94.1313 99.9191L93.8191 99.7039C97.9371 98.983 101.393 98.4235 103.842 98.0308L106.711 97.5843C107.067 97.5164 107.427 97.4715 107.788 97.4498C107.483 97.5549 107.17 97.6324 106.851 97.6811L104.068 98.2567C101.651 98.7463 98.147 99.4403 93.9267 100.226L93.663 100.28L93.6145 100.011C93.2377 97.9878 92.8286 95.7874 92.398 93.4633C92.1826 92.2959 91.9673 91.0962 91.7412 89.8696C91.6264 89.2563 91.5133 88.6376 91.4021 88.0136L91.2298 87.0667L91.1437 86.5933L91.1006 86.3566V86.2382V86.1791V86.1306C90.8799 86.4534 91.4075 85.6949 91.3537 85.7702L105.269 83.2955L105.532 83.2524L105.581 83.516C106.318 87.7446 106.894 91.2684 107.282 93.7L107.718 96.5083C107.779 96.8222 107.814 97.1408 107.82 97.4605Z" fill="#E1E1E1"/>
<path d="M35.4926 113.407L21.5815 115.921L24.0971 129.824L38.0082 127.31L35.4926 113.407Z" fill="#E1E1E1"/>
<path d="M56.2186 124.015C56.1077 123.674 56.0231 123.325 55.9656 122.972C55.8149 122.233 55.6193 121.286 55.3789 120.131C54.889 117.699 54.2054 114.272 53.441 110.162L53.7478 110.377L39.8489 112.933C39.7951 113.013 40.3172 112.255 40.0965 112.578V112.621V112.68V112.804L40.1395 113.04L40.2257 113.514L40.3926 114.455C40.5056 115.079 40.6187 115.703 40.7317 116.317C40.947 117.543 41.1605 118.741 41.3723 119.91C41.7814 122.24 42.169 124.44 42.5296 126.474L42.2174 126.259C46.3355 125.538 49.7913 124.978 52.2406 124.585L55.1097 124.139C55.4652 124.07 55.8249 124.026 56.1863 124.004C55.8817 124.11 55.5683 124.187 55.2497 124.236L52.4667 124.811C50.0497 125.301 46.5454 125.995 42.3251 126.78L42.0613 126.834L42.0129 126.565C41.6361 124.542 41.227 122.342 40.7963 120.018C40.581 118.849 40.362 117.651 40.1395 116.424L39.8004 114.568L39.6282 113.621L39.542 113.148L39.499 112.911V112.793V112.734V112.685C39.2783 113.008 39.8004 112.25 39.752 112.325L53.6671 109.856L53.9309 109.807L53.9739 110.071C54.7168 114.299 55.2928 117.823 55.6803 120.255L56.1164 123.063C56.1778 123.377 56.212 123.695 56.2186 124.015Z" fill="#E1E1E1"/>
<path d="M74.4241 120.728C74.3203 120.385 74.2358 120.037 74.1711 119.684C74.0203 118.942 73.8266 117.995 73.5897 116.844C73.0999 114.407 72.4162 110.98 71.6464 106.875L71.9586 107.09L58.0543 109.64L58.3019 109.285V109.334V109.393V109.511L58.345 109.748L58.4311 110.221L58.6034 111.163C58.7164 111.792 58.8241 112.411 58.9371 113.024C59.1578 114.251 59.3678 115.451 59.5777 116.618C59.9922 118.947 60.3798 121.153 60.7351 123.181L60.4228 122.966C64.5947 122.288 68.0398 121.697 70.516 121.304L73.3852 120.857C73.7406 120.789 74.1003 120.746 74.4618 120.728C74.1562 120.83 73.843 120.907 73.5251 120.959L70.7421 121.53C68.3251 122.019 64.8208 122.713 60.6005 123.504L60.3367 123.553L60.2883 123.289L59.0717 116.736C58.8564 115.569 58.6411 114.369 58.415 113.143C58.3002 112.529 58.1871 111.911 58.0759 111.287L57.9036 110.345L57.8175 109.872L57.7744 109.63V109.511V109.452V109.377L58.0274 109.011L71.9425 106.542L72.2063 106.493L72.2547 106.757C72.9922 110.985 73.5682 114.509 73.9558 116.941L74.3918 119.749C74.4312 120.074 74.442 120.401 74.4241 120.728Z" fill="#E1E1E1"/>
<path d="M92.6295 117.447C92.5263 117.104 92.4436 116.755 92.3819 116.403C92.2258 115.661 92.032 114.719 91.7952 113.562C91.3053 111.131 90.6217 107.698 89.8519 103.594L90.1641 103.809L76.2652 106.364C76.2059 106.44 76.7335 105.686 76.5128 106.009V106.063V106.122V106.24L76.5558 106.477L76.642 106.956L76.8088 107.897C76.9219 108.521 77.0349 109.14 77.1426 109.753L77.7886 113.353C78.1977 115.682 78.5853 117.882 78.9405 119.911L78.6337 119.695C82.7517 118.98 86.2022 118.415 88.6569 118.022L91.526 117.576C91.8819 117.511 92.2414 117.468 92.6026 117.447C92.3001 117.552 91.9883 117.63 91.6713 117.678L88.8883 118.254C86.4714 118.738 82.967 119.432 78.7414 120.223L78.483 120.271L78.4345 120.007C78.0577 117.979 77.6486 115.784 77.218 113.455L76.5558 109.866C76.4482 109.253 76.3352 108.629 76.2167 108.005L76.0499 107.064L75.9637 106.59L75.9206 106.353V106.23V106.171V106.127C75.6946 106.445 76.2221 105.686 76.1683 105.767L90.0833 103.292L90.3525 103.244L90.3956 103.508C91.133 107.741 91.709 111.26 92.102 113.691L92.538 116.5C92.5978 116.812 92.6285 117.129 92.6295 117.447Z" fill="#E1E1E1"/>
<path d="M110.84 114.143C110.732 113.802 110.648 113.453 110.587 113.1C110.437 112.361 110.241 111.414 110 110.259C109.511 107.827 108.832 104.401 108.063 100.29L108.369 100.506L94.4705 103.061L94.7181 102.706V102.749V102.808V102.926L94.7612 103.169L94.8473 103.642L95.0196 104.583C95.1326 105.208 95.2403 105.832 95.3533 106.445C95.5686 107.671 95.7822 108.869 95.9939 110.039C96.403 112.368 96.7906 114.568 97.1512 116.602L96.839 116.387C100.957 115.666 104.413 115.106 106.862 114.714L109.731 114.267C110.087 114.199 110.447 114.154 110.808 114.133C110.503 114.238 110.19 114.315 109.871 114.364L107.088 114.94C104.671 115.429 101.167 116.123 96.9467 116.909L96.6829 116.962L96.6345 116.693C96.2577 114.671 95.8485 112.47 95.4179 110.146C95.2026 108.977 94.9837 107.779 94.7612 106.552C94.6463 105.939 94.5333 105.32 94.422 104.696L94.2498 103.75L94.1636 103.276L94.1206 103.039V102.921V102.862V102.813C93.8999 103.136 94.422 102.378 94.3736 102.453L108.289 99.9783L108.552 99.9353L108.596 100.199C109.338 104.427 109.914 107.951 110.302 110.383L110.738 113.191C110.799 113.505 110.834 113.824 110.84 114.143Z" fill="#E1E1E1"/>
<path d="M27.3461 48.2867L24.6074 48.7816C24.1773 48.8593 23.8917 49.2708 23.9694 49.7006L25.9955 60.898C26.0732 61.3279 26.485 61.6133 26.915 61.5356L29.6538 61.0406C30.0839 60.9629 30.3694 60.5514 30.2917 60.1216L28.2656 48.9242C28.1879 48.4944 27.7762 48.2089 27.3461 48.2867Z" fill="#E1E1E1"/>
<path d="M55.2844 43.2195L52.5456 43.7145C52.1155 43.7922 51.8299 44.2037 51.9077 44.6335L53.9337 55.8309C54.0115 56.2607 54.4231 56.5462 54.8532 56.4684L57.592 55.9735C58.0221 55.8957 58.3077 55.4843 58.2299 55.0545L56.2039 43.8571C56.1261 43.4272 55.7144 43.1418 55.2844 43.2195Z" fill="#E1E1E1"/>
<path d="M83.2308 38.1574L80.4921 38.6528C80.062 38.7306 79.7765 39.1421 79.8543 39.5719L81.8823 50.769C81.9602 51.1988 82.3719 51.4842 82.802 51.4064L85.5407 50.9109C85.9707 50.8331 86.2563 50.4216 86.1784 49.9918L84.1504 38.7948C84.0726 38.365 83.6608 38.0796 83.2308 38.1574Z" fill="#E1E1E1"/>
<path d="M118.349 119.502C118.349 119.502 118.242 118.996 118.059 118.044L117.267 113.847C116.584 110.162 115.588 104.782 114.323 97.9339C111.809 84.2208 108.213 64.6275 103.88 40.9939L104.181 41.2038L6.93187 58.8065L7.18486 58.4461L21.3637 136.991L21.0407 136.771L91.3106 124.209L111.228 120.685L116.519 119.765L117.887 119.598C118.193 119.545 118.36 119.528 118.36 119.528L117.924 119.62L116.589 119.878L111.368 120.857L91.5313 124.516L21.1323 137.352L20.8577 137.4L20.8093 137.131C16.5729 113.783 11.712 86.9698 6.5658 58.5859L6.50659 58.2847L6.81346 58.2309L104.084 40.7034L104.338 40.6604L104.386 40.9133C108.617 64.6329 112.132 84.2961 114.614 98.0576C115.825 104.895 116.767 110.264 117.424 113.939C117.736 115.754 117.976 117.142 118.145 118.103C118.285 119.028 118.349 119.502 118.349 119.502Z" fill="#E1E1E1"/>
<path d="M281.433 46.8365C284.033 45.2637 286.829 44.0426 289.75 43.2051L291.467 34.9794L305.377 34.7319L307.38 42.8985C310.329 43.6238 313.167 44.7401 315.82 46.2178L322.85 41.6073L332.857 51.291L328.502 58.4731C330.077 61.0696 331.298 63.865 332.131 66.7849L340.367 68.4956L340.609 82.3971L332.443 84.3984C331.715 87.3449 330.598 90.1816 329.122 92.8339L333.729 99.86L324.056 109.866L316.87 105.509C314.269 107.078 311.47 108.292 308.548 109.119L306.836 117.35L292.926 117.592L290.924 109.431C287.975 108.705 285.136 107.589 282.483 106.111L275.453 110.716L265.44 101.06L269.801 93.8776C268.227 91.2799 267.01 88.4824 266.183 85.5604L257.953 83.8496L257.705 69.9482L265.876 67.9469C266.601 64.9993 267.718 62.1621 269.198 59.5114L264.585 52.4853L274.274 42.4789L281.46 46.8365H281.433ZM288.851 65.3592C287.489 66.7679 286.418 68.431 285.7 70.2534C284.981 72.0759 284.629 74.022 284.664 75.9806C284.698 77.9391 285.119 79.8717 285.901 81.6677C286.683 83.4638 287.812 85.0882 289.223 86.4481C290.632 87.8093 292.296 88.8795 294.12 89.5976C295.943 90.3156 297.891 90.6675 299.85 90.633C301.81 90.5985 303.744 90.1784 305.541 89.3966C307.338 88.6149 308.963 87.4868 310.324 86.0769C311.686 84.6682 312.757 83.0051 313.475 81.1827C314.194 79.3602 314.546 77.4141 314.511 75.4555C314.477 73.497 314.057 71.5644 313.274 69.7684C312.492 67.9723 311.363 66.3479 309.953 64.988C308.543 63.6268 306.879 62.5566 305.055 61.8386C303.232 61.1205 301.285 60.7686 299.325 60.8031C297.365 60.8376 295.432 61.2577 293.634 62.0395C291.837 62.8212 290.212 63.9493 288.851 65.3592Z" fill="#ECECEC"/>
<path d="M352.99 397.816C352.99 397.934 279.506 398.031 188.878 398.031C98.2492 398.031 24.7495 397.934 24.7495 397.816C24.7495 397.697 98.2169 397.595 188.878 397.595C279.538 397.595 352.99 397.692 352.99 397.816Z" fill="#1A2E35"/>
<path d="M208.746 41.9517H192.603V67.1346H208.746V41.9517Z" fill="#1A2E35"/>
<path d="M217.402 49.4833H184.151V22.3422C195.789 19.4747 206.911 19.2972 217.402 22.3422V49.4833Z" fill="#00D18F"/>
<path d="M217.795 22.4551C217.409 22.7016 216.998 22.9054 216.568 23.063C215.427 23.5615 214.256 23.9909 213.064 24.3487C211.301 24.8988 209.502 25.3267 207.681 25.6291C205.442 25.988 203.181 26.1804 200.914 26.2048C198.647 26.1916 196.383 26.0117 194.142 25.6668C192.322 25.3793 190.524 24.9695 188.759 24.4402C187.563 24.0936 186.39 23.675 185.244 23.1867C184.812 23.034 184.399 22.8337 184.011 22.5895C184.049 22.4927 185.847 23.2459 188.856 24.0529C190.628 24.5159 192.425 24.8752 194.239 25.1288C196.457 25.4311 198.692 25.5856 200.93 25.5915C203.17 25.5595 205.405 25.3798 207.621 25.0535C209.436 24.7759 211.234 24.3933 213.004 23.9076C215.965 23.1275 217.752 22.3582 217.795 22.4551Z" fill="#1A2E35"/>
<path d="M195.138 49.4081C194.982 49.4081 194.853 44.1951 194.853 37.7716C194.853 31.3481 194.982 26.1296 195.138 26.1296C195.294 26.1296 195.418 31.3427 195.418 37.7716C195.418 44.2004 195.294 49.4081 195.138 49.4081Z" fill="#1A2E35"/>
<path d="M201.463 49.564C201.307 49.564 201.178 44.3295 201.178 37.8737C201.178 31.4179 201.307 26.1833 201.463 26.1833C201.619 26.1833 201.749 31.4179 201.749 37.8737C201.749 44.3295 201.619 49.564 201.463 49.564Z" fill="#1A2E35"/>
<path d="M207.783 49.4564C207.627 49.4564 207.503 44.2218 207.503 37.7714C207.503 31.321 207.627 26.0811 207.783 26.0811C207.939 26.0811 208.068 31.3102 208.068 37.7714C208.068 44.2325 207.944 49.4564 207.783 49.4564Z" fill="#1A2E35"/>
<path d="M213.058 49.4565C212.902 49.4565 212.773 43.8023 212.773 36.8247C212.773 29.8471 212.902 24.1875 213.058 24.1875C213.214 24.1875 213.344 29.8471 213.344 36.8247C213.344 43.8023 213.214 49.4565 213.058 49.4565Z" fill="#1A2E35"/>
<path d="M189.152 49.2951C188.996 49.2951 188.872 43.6409 188.872 36.6633C188.872 29.6857 188.996 24.0261 189.152 24.0261C189.308 24.0261 189.438 29.6857 189.438 36.6633C189.438 43.6409 189.308 49.2951 189.152 49.2951Z" fill="#1A2E35"/>
<path d="M300.673 82.7872L292.606 74.3511L279.433 86.9325L287.499 95.3687L300.673 82.7872Z" fill="#1A2E35"/>
<path d="M301.065 91.0855L284.448 73.7141L298.648 60.1516C305.964 64.8052 311.61 70.5239 315.26 77.5284L301.065 91.0855Z" fill="#00D18F"/>
<path d="M287.231 76.5984C287.139 76.5016 290.359 73.2412 294.418 69.3191C298.477 65.3969 301.852 62.2872 301.954 62.384C302.057 62.4809 298.832 65.7413 294.768 69.6688C290.703 73.5963 287.322 76.6953 287.231 76.5984Z" fill="#1A2E35"/>
<path d="M290.396 79.9126C291.056 79.1297 291.776 78.3994 292.549 77.7283C293.927 76.4209 295.849 74.6454 297.981 72.6924C300.113 70.7394 301.965 69.0931 303.472 67.7266L305.146 66.2363C305.55 65.8758 305.744 65.6982 305.765 65.6982C305.949 65.8704 302.579 69.1577 298.31 73.0583C296.156 75.0113 294.218 76.7491 292.781 77.9865C292.041 78.6936 291.243 79.3378 290.396 79.9126Z" fill="#1A2E35"/>
<path d="M294.611 84.3184C295.284 83.5321 296.017 82.7983 296.802 82.1233C298.196 80.8106 300.145 79.019 302.314 77.0606L307.897 72.084L309.609 70.5991C309.813 70.4048 310.031 70.2251 310.26 70.061C310.341 70.1202 309.507 71.0079 308.107 72.3261C306.707 73.6442 304.785 75.452 302.616 77.4103C300.446 79.3687 298.465 81.1172 297.012 82.3654C296.267 83.0823 295.464 83.7356 294.611 84.3184Z" fill="#1A2E35"/>
<path d="M298.557 88.3319C298.465 88.2351 301.722 84.9962 305.84 81.101C309.958 77.2058 313.377 74.1068 313.452 74.2144C313.528 74.322 310.287 77.5501 306.174 81.4507C302.061 85.3513 298.648 88.4288 298.557 88.3319Z" fill="#1A2E35"/>
<path d="M97.2741 81.5743L88.52 89.2957L100.577 102.949L109.331 95.2281L97.2741 81.5743Z" fill="#1A2E35"/>
<path d="M105.549 81.4933L87.5156 97.3961L74.5264 82.6823C79.4626 75.5594 85.4108 70.1473 92.5541 66.7795L105.549 81.4933Z" fill="#00D18F"/>
<path d="M90.5363 94.7338C90.4394 94.8253 87.3063 91.5057 83.5379 87.2662C79.7696 83.0266 76.8034 79.5672 76.9056 79.4757C77.0079 79.3842 80.1357 82.7307 83.904 86.9434C87.6723 91.156 90.6386 94.6477 90.5363 94.7338Z" fill="#1A2E35"/>
<path d="M93.9761 91.7051C93.2167 91.0153 92.5145 90.265 91.8766 89.4616C90.6277 88.0359 88.9211 86.0506 87.0585 83.8394C85.1958 81.6281 83.6131 79.7236 82.3104 78.1579L80.8838 76.4309C80.5446 76.0112 80.3455 75.8122 80.3455 75.7907C80.5231 75.6131 83.6831 79.1048 87.4084 83.5273C89.2764 85.7332 90.9345 87.7615 92.1188 89.241C92.8014 90.0127 93.4224 90.8365 93.9761 91.7051Z" fill="#1A2E35"/>
<path d="M98.5453 87.6694C97.7845 86.966 97.0791 86.2052 96.4352 85.3937C95.1809 83.9519 93.4691 81.9345 91.5905 79.6911L86.8373 73.9186L85.4161 72.1486C85.2362 71.9377 85.0707 71.7148 84.9209 71.4815C84.9801 71.4008 85.8306 72.267 87.0741 73.698C88.3176 75.129 90.0724 77.1357 91.9188 79.3791C93.7652 81.6225 95.4662 83.6829 96.6505 85.1731C97.3495 85.9519 97.9832 86.7868 98.5453 87.6694Z" fill="#1A2E35"/>
<path d="M102.718 83.8937C102.616 83.9798 99.4879 80.5957 95.7734 76.3615C92.0589 72.1273 89.0927 68.5711 89.195 68.4796C89.2972 68.3881 92.4249 71.7776 96.1395 76.0118C99.854 80.246 102.815 83.8023 102.718 83.8937Z" fill="#1A2E35"/>
<path d="M291.651 282.562C343.626 230.619 343.626 146.401 291.651 94.4571C239.676 42.5132 155.409 42.5133 103.434 94.4571C51.4593 146.401 51.4593 230.619 103.434 282.562C155.409 334.506 239.676 334.506 291.651 282.562Z" fill="#00D18F"/>
<path d="M284.004 274.92C331.756 227.197 331.756 149.823 284.004 102.1C236.253 54.3765 158.832 54.3765 111.081 102.1C63.3295 149.823 63.3296 227.197 111.081 274.92C158.832 322.643 236.253 322.643 284.004 274.92Z" fill="white"/>
<path d="M197.555 311.12C129.907 311.12 74.8655 256.117 74.8655 188.503C74.8655 120.89 129.896 65.8918 197.555 65.8918C265.214 65.8918 320.234 120.895 320.234 188.509C320.234 256.122 265.198 311.12 197.555 311.12ZM197.555 66.7203C130.364 66.7203 75.6998 121.352 75.6998 188.503C75.6998 255.654 130.354 310.291 197.555 310.291C264.757 310.291 319.41 255.659 319.41 188.509C319.41 121.358 264.735 66.7257 197.555 66.7257V66.7203Z" fill="#1A2E35"/>
<path d="M120.815 139.708C125.907 123.902 136.35 113.213 150.185 103.997C164.019 94.7815 182.876 91.3438 199.434 92.7479V191.252L120.815 139.708Z" fill="#00D18F"/>
<g opacity="0.8">
<path d="M120.815 139.708C125.907 123.902 136.35 113.213 150.185 103.997C164.019 94.7815 182.876 91.3438 199.434 92.7479V191.252L120.815 139.708Z" fill="white"/>
</g>
<path d="M188.84 190.709L133.836 148.009L198.25 177.69L200.144 188.971L188.84 190.709Z" fill="#00D18F"/>
<g opacity="0.4">
<path d="M133.836 148.009L191.273 181.762L198.25 177.69L133.836 148.009Z" fill="black"/>
</g>
<path d="M204.498 199.72C210.345 197.323 213.142 190.642 210.743 184.798C208.345 178.953 201.66 176.159 195.812 178.556C189.965 180.953 187.168 187.634 189.567 193.478C191.965 199.322 198.65 202.117 204.498 199.72Z" fill="#FAFAFA"/>
<path d="M200.177 177.701C199.246 177.802 198.323 177.956 197.41 178.163C194.942 178.824 192.767 180.294 191.236 182.338C190.185 183.733 189.475 185.354 189.163 187.072C188.805 189.04 188.98 191.069 189.669 192.947C190.031 193.961 190.547 194.913 191.198 195.771C191.857 196.684 192.658 197.485 193.572 198.144C195.489 199.539 197.799 200.292 200.171 200.296C202.545 200.293 204.857 199.54 206.776 198.144C207.689 197.49 208.49 196.695 209.15 195.787C209.803 194.931 210.319 193.978 210.679 192.963C211.376 191.087 211.562 189.06 211.217 187.088C210.902 185.37 210.191 183.749 209.139 182.354C207.6 180.306 205.416 178.835 202.938 178.179C202.025 177.973 201.102 177.818 200.171 177.717C201.119 177.651 202.071 177.736 202.992 177.969C205.551 178.566 207.824 180.029 209.425 182.112C210.539 183.545 211.298 185.22 211.643 187.002C212.034 189.054 211.869 191.174 211.163 193.141C210.791 194.204 210.258 195.204 209.581 196.105C208.892 197.061 208.055 197.9 207.099 198.59C205.089 200.068 202.661 200.868 200.166 200.877C197.676 200.864 195.255 200.064 193.249 198.59C192.294 197.9 191.456 197.061 190.767 196.105C190.088 195.205 189.554 194.205 189.185 193.141C188.477 191.174 188.311 189.054 188.706 187.002C189.048 185.221 189.806 183.545 190.918 182.112C192.526 180.025 194.809 178.561 197.378 177.969C198.291 177.733 199.235 177.642 200.177 177.701Z" fill="#1A2E35"/>
<path d="M200.177 180.643C202.435 180.643 204.601 181.54 206.198 183.136C207.795 184.732 208.693 186.897 208.693 189.154C208.693 190.272 208.474 191.38 208.046 192.413C207.618 193.446 206.991 194.385 206.2 195.176C205.409 195.967 204.47 196.594 203.437 197.022C202.403 197.45 201.295 197.67 200.177 197.67C199.056 197.673 197.945 197.455 196.909 197.028C195.873 196.602 194.931 195.975 194.137 195.184C193.344 194.393 192.714 193.453 192.284 192.418C191.855 191.384 191.634 190.274 191.634 189.154C191.634 188.034 191.855 186.925 192.285 185.891C192.714 184.857 193.344 183.917 194.138 183.127C194.931 182.336 195.873 181.71 196.909 181.283C197.946 180.857 199.056 180.64 200.177 180.643Z" fill="#1A2E35"/>
<path d="M199.611 185.803C199.611 185.803 197.264 112.147 200.688 96.616C200.677 96.616 206.378 141.263 199.611 185.803Z" fill="#1A2E35"/>
<path d="M192.947 301.474H192.802L193.13 292.291H193.389L192.947 301.474ZM238.827 294.028L235.398 285.507L235.651 285.404L238.951 293.98L238.827 294.028ZM147.854 289.644L147.719 289.574L151.805 281.348L152.031 281.461L147.854 289.644ZM277.832 268.512L271.276 262.056L271.448 261.884L277.945 268.377L277.832 268.512ZM111.497 260.517L111.357 260.351L118.484 254.54L118.602 254.691L111.497 260.517ZM303.132 229.352L294.519 226.151L294.605 225.914L303.191 229.212L303.132 229.352ZM90.094 219.13L90.0294 218.894L98.9168 216.532L98.9599 216.693L90.094 219.13ZM301.108 183.812V183.667L310.259 183.129V183.392L301.108 183.812ZM301.108 183.645V183.446L310.259 182.908V183.113L301.108 183.645ZM96.5213 173.962L87.4348 172.584L87.4617 172.38L96.5536 173.762L96.5213 173.962ZM289.858 142.339L289.772 142.167L297.938 137.949L298.034 138.143L289.858 142.339ZM111.642 133.952L103.912 128.981L104.009 128.825L111.761 133.769L111.642 133.952ZM262.69 109.264L262.528 109.135L268.272 101.958L268.433 102.087L262.69 109.264ZM141.647 103.534L136.609 95.8466L136.749 95.7605L141.846 103.405L141.647 103.534ZM224.47 89.9772L224.298 89.9288L226.607 81.036L226.833 81.0951L224.47 89.9772ZM181.53 87.9706L180.039 78.9056L180.243 78.8733L181.729 87.9383L181.53 87.9706Z" fill="#1A2E35"/>
<path d="M346.665 297.288C346.665 297.407 335.328 297.504 321.365 297.504C307.401 297.504 296.064 297.407 296.064 297.288C296.064 297.17 307.401 297.073 321.365 297.073C335.328 297.073 346.665 297.17 346.665 297.288Z" fill="#1A2E35"/>
<path d="M362.604 291.623C362.604 291.742 351.267 291.844 337.304 291.844C323.34 291.844 312.003 291.742 312.003 291.623C312.003 291.505 323.34 291.408 337.304 291.408C351.267 291.408 362.604 291.505 362.604 291.623Z" fill="#1A2E35"/>
<path d="M57.7798 259.802C57.7798 259.926 47.2667 260.022 34.2991 260.022C21.3314 260.022 10.8184 259.926 10.8184 259.802C10.8184 259.678 21.3314 259.587 34.2991 259.587C47.2667 259.587 57.7798 259.683 57.7798 259.802Z" fill="#1A2E35"/>
<path d="M72.5561 254.142C72.5561 254.261 62.0431 254.357 49.0754 254.357C36.1077 254.357 25.5947 254.261 25.5947 254.142C25.5947 254.024 36.1023 253.922 49.0754 253.922C62.0485 253.922 72.5561 254.018 72.5561 254.142Z" fill="#1A2E35"/>
<path d="M252.274 147.062C252.881 146.554 253.631 146.246 254.421 146.183C255.211 146.119 256.001 146.302 256.682 146.707C257.803 146.402 258.993 146.479 260.065 146.925C261.138 147.371 262.031 148.161 262.604 149.171C263.399 149.054 264.212 149.141 264.965 149.423C265.718 149.705 266.387 150.174 266.91 150.785C267.419 151.405 267.763 152.143 267.909 152.932C268.055 153.72 267.998 154.533 267.744 155.294C268.535 155.483 269.249 155.908 269.79 156.514C270.332 157.12 270.675 157.877 270.775 158.683C270.843 159.492 270.663 160.302 270.258 161.006C269.853 161.71 269.243 162.273 268.509 162.621C269.2 163.225 269.653 164.055 269.788 164.963C269.923 165.87 269.731 166.797 269.246 167.576C268.713 168.319 267.935 168.849 267.048 169.074C266.161 169.298 265.224 169.202 264.401 168.802L251.321 151.393C251.008 150.662 250.932 149.852 251.103 149.075C251.274 148.299 251.683 147.595 252.274 147.062Z" fill="#1A2E35"/>
<path d="M264.724 169.469C265.878 165.66 265.555 161.556 263.818 157.974C262.081 154.392 259.059 151.595 255.353 150.14L254.594 149.844C246.169 147.089 239.123 152.695 236.598 161.19L227.011 189.063L226.78 192.952L235.333 205.837L242.611 202.501L246.783 194.701C246.783 194.701 255.18 196.578 258.389 188.708C259.939 184.904 262.496 176.818 264.724 169.469Z" fill="#FFC19D"/>
<path d="M246.853 194.712C243.177 193.269 239.991 190.802 237.675 187.605C237.675 187.605 237.341 194.669 245.518 197.058L246.853 194.712Z" fill="#FF9C6A"/>
<path d="M259.546 175.898C259.435 176.197 259.212 176.44 258.924 176.576C258.637 176.711 258.307 176.729 258.006 176.625C257.858 176.579 257.721 176.504 257.602 176.404C257.483 176.305 257.386 176.183 257.315 176.045C257.244 175.907 257.202 175.756 257.19 175.602C257.179 175.447 257.198 175.292 257.247 175.145C257.36 174.85 257.583 174.611 257.87 174.478C258.157 174.346 258.484 174.33 258.782 174.435C258.928 174.48 259.065 174.554 259.183 174.653C259.301 174.751 259.398 174.871 259.469 175.008C259.54 175.144 259.583 175.292 259.597 175.445C259.61 175.598 259.593 175.752 259.546 175.898Z" fill="#1A2E35"/>
<path d="M261.429 173.111C261.23 173.203 260.622 172.234 259.406 171.756C258.189 171.277 257.059 171.541 256.984 171.342C256.946 171.25 257.194 171.04 257.694 170.911C258.363 170.751 259.065 170.804 259.702 171.062C260.336 171.306 260.876 171.747 261.241 172.321C261.499 172.756 261.526 173.068 261.429 173.111Z" fill="#1A2E35"/>
<path d="M248.92 172.321C248.805 172.615 248.58 172.854 248.293 172.986C248.006 173.119 247.679 173.135 247.38 173.031C247.232 172.986 247.094 172.913 246.975 172.814C246.855 172.715 246.757 172.593 246.686 172.456C246.615 172.318 246.572 172.168 246.56 172.013C246.548 171.859 246.567 171.704 246.616 171.557C246.728 171.261 246.952 171.02 247.24 170.886C247.528 170.753 247.856 170.737 248.155 170.841C248.304 170.887 248.442 170.961 248.561 171.06C248.681 171.16 248.779 171.282 248.85 171.42C248.921 171.558 248.964 171.709 248.976 171.863C248.988 172.018 248.969 172.174 248.92 172.321Z" fill="#1A2E35"/>
<path d="M249.861 168.366C249.662 168.457 249.054 167.489 247.837 167.016C246.621 166.543 245.491 166.801 245.415 166.596C245.378 166.505 245.625 166.295 246.126 166.166C246.795 166.009 247.496 166.061 248.133 166.317C248.767 166.565 249.306 167.008 249.673 167.581C249.931 168.016 249.952 168.328 249.861 168.366Z" fill="#1A2E35"/>
<path d="M250.309 178.949C251.028 179.002 251.739 179.143 252.424 179.369C252.747 179.46 253.07 179.514 253.205 179.326C253.357 179.014 253.411 178.663 253.361 178.32C253.361 177.459 253.361 176.55 253.361 175.597C253.409 171.729 253.571 168.603 253.727 168.603C253.883 168.603 253.969 171.745 253.921 175.597C253.921 176.544 253.889 177.454 253.867 178.32C253.914 178.771 253.801 179.224 253.549 179.6C253.461 179.692 253.354 179.763 253.234 179.807C253.115 179.85 252.987 179.866 252.86 179.853C252.676 179.832 252.495 179.787 252.322 179.719C251.068 179.315 250.309 179.025 250.309 178.949Z" fill="#1A2E35"/>
<path d="M250.846 164.789C250.609 165.079 249.597 164.504 248.268 164.181C246.939 163.858 245.765 163.847 245.712 163.482C245.712 163.31 245.992 163.073 246.53 162.911C247.217 162.727 247.941 162.727 248.629 162.911C249.31 163.078 249.934 163.423 250.437 163.912C250.814 164.251 250.948 164.622 250.846 164.789Z" fill="#1A2E35"/>
<path d="M258.625 167.172C258.932 166.962 259.702 167.538 260.714 167.888C261.725 168.237 262.678 168.329 262.78 168.689C262.818 168.861 262.587 169.098 262.118 169.227C261.504 169.385 260.855 169.349 260.262 169.125C259.662 168.913 259.141 168.523 258.771 168.006C258.507 167.608 258.48 167.28 258.625 167.172Z" fill="#1A2E35"/>
<path d="M265.381 165.548C265.381 165.548 265.246 159.77 263.308 157.677C260.967 155.138 258.464 157.822 256.02 155.972C253.576 154.121 251.331 151.668 247.676 152.711C243.671 153.83 244.446 156.036 242.901 159.468C236.533 173.397 232.351 176.399 234.246 169.405C234.455 168.636 232.631 167.253 233.562 164.025C234.752 159.85 236.523 154.906 238.541 152.405C240.248 150.296 242.272 149.177 245.458 148.305C250.481 146.939 255.842 148.972 259.325 150.764C262.808 152.555 268.159 159.474 265.381 165.548Z" fill="#1A2E35"/>
<path d="M234.844 169.389C234.948 169.095 234.992 168.782 234.972 168.471C234.952 168.159 234.869 167.855 234.728 167.576C234.587 167.298 234.391 167.05 234.152 166.85C233.913 166.649 233.635 166.499 233.336 166.408C231.802 165.967 229.832 166.161 228.728 169.244C226.774 174.721 232.68 175.555 232.744 175.398C232.809 175.242 234.042 171.686 234.844 169.389Z" fill="#FFC19D"/>
<path d="M232.286 172.912C232.286 172.885 232.168 172.944 231.979 172.96C231.719 172.978 231.462 172.893 231.263 172.723C230.757 172.304 230.601 171.212 230.924 170.217C231.08 169.744 231.337 169.31 231.678 168.947C231.79 168.794 231.938 168.67 232.108 168.587C232.279 168.503 232.467 168.463 232.657 168.469C232.777 168.482 232.888 168.535 232.974 168.619C233.06 168.702 233.115 168.812 233.131 168.931C233.131 169.109 233.072 169.206 233.099 169.227C233.126 169.249 233.249 169.179 233.287 168.937C233.306 168.79 233.273 168.642 233.196 168.517C233.085 168.349 232.913 168.231 232.717 168.189C232.475 168.152 232.228 168.178 232 168.265C231.772 168.352 231.57 168.496 231.414 168.684C231.013 169.073 230.713 169.555 230.542 170.088C230.182 171.207 230.381 172.438 231.08 172.949C231.212 173.045 231.364 173.11 231.524 173.139C231.684 173.168 231.849 173.16 232.006 173.116C232.232 173.041 232.302 172.928 232.286 172.912Z" fill="#FF9C6A"/>
<path d="M239.069 158.952C239.522 159.75 240.165 160.422 240.942 160.91C241.76 161.324 242.918 161.222 243.391 160.437C243.601 160.087 243.682 159.614 244.043 159.42C244.403 159.226 244.979 159.511 245.415 159.737C246.182 160.109 247.054 160.205 247.884 160.009C248.714 159.813 249.45 159.337 249.969 158.661C250.136 159.42 251.084 159.764 251.843 159.608C252.584 159.376 253.289 159.041 253.937 158.613C254.626 158.258 255.487 158.032 256.16 158.414C256.537 158.629 256.817 159.011 257.237 159.135C257.969 159.35 258.647 158.656 259.029 157.994C259.411 157.333 259.82 156.542 260.574 156.38C261.328 156.219 261.914 156.735 262.528 157.085C263.142 157.435 264.051 157.623 264.471 157.042C264.568 156.882 264.63 156.704 264.654 156.519C264.678 156.334 264.663 156.145 264.611 155.966C264.428 155.141 263.972 154.401 263.316 153.867C262.661 153.332 261.845 153.033 260.999 153.018C261.07 152.016 260.851 151.014 260.367 150.133C259.883 149.253 259.155 148.53 258.27 148.052C257.371 147.603 256.361 147.421 255.362 147.53C254.362 147.639 253.415 148.033 252.634 148.666C252.258 147.925 251.711 147.283 251.04 146.793C250.368 146.303 249.59 145.979 248.769 145.847C247.945 145.728 247.104 145.807 246.316 146.076C245.528 146.346 244.816 146.798 244.237 147.396C243.638 146.973 242.931 146.73 242.198 146.695C241.466 146.66 240.739 146.834 240.102 147.197C239.477 147.582 238.975 148.137 238.656 148.798C238.336 149.459 238.213 150.197 238.299 150.925C237.109 151.103 235.893 151.738 235.435 152.851C234.978 153.965 235.629 155.503 236.824 155.638C236.445 156.001 236.211 156.49 236.168 157.013C236.124 157.537 236.273 158.058 236.587 158.479C236.928 158.879 237.403 159.141 237.924 159.216C238.444 159.29 238.974 159.171 239.413 158.882" fill="#1A2E35"/>
<path d="M236.431 155.493C236.335 155.671 236.279 155.869 236.267 156.071C236.255 156.274 236.287 156.477 236.361 156.666C236.493 157.115 236.789 157.499 237.19 157.742C237.447 157.893 237.734 157.985 238.031 158.012C238.328 158.039 238.627 158 238.907 157.898L238.692 157.774C238.777 158.389 238.959 158.986 239.23 159.544C239.414 159.922 239.668 160.262 239.979 160.545C240.273 160.816 240.636 161.002 241.028 161.083C241.348 161.178 241.685 161.202 242.016 161.153C242.346 161.103 242.661 160.982 242.94 160.797C243.303 160.542 243.613 160.216 243.849 159.84C243.948 159.716 244.019 159.573 244.059 159.42C244.059 159.42 243.935 159.539 243.742 159.765C243.485 160.087 243.18 160.369 242.837 160.598C242.019 161.169 240.194 160.91 239.559 159.393C239.293 158.869 239.111 158.306 239.02 157.725L238.988 157.526L238.805 157.602C238.568 157.692 238.313 157.73 238.06 157.713C237.806 157.696 237.559 157.625 237.335 157.505C236.976 157.308 236.7 156.986 236.56 156.601C236.444 156.244 236.4 155.867 236.431 155.493Z" fill="#375A64"/>
<path d="M251.515 147.165C251.515 147.165 251.638 147.256 251.843 147.455C252.123 147.741 252.311 148.105 252.381 148.499V148.628L252.5 148.553C253.538 147.908 254.724 147.537 255.945 147.477C256.734 147.437 257.523 147.563 258.26 147.848C259.069 148.168 259.774 148.706 260.295 149.403C260.706 149.946 260.997 150.569 261.151 151.232C261.286 151.847 261.27 152.486 261.102 153.094L261.054 153.271H261.237C262.077 153.366 262.848 153.781 263.39 154.428C263.806 154.942 264.054 155.571 264.101 156.23C264.123 156.822 264.022 157.412 263.805 157.963C263.915 157.844 263.997 157.702 264.047 157.548C264.218 157.127 264.3 156.674 264.289 156.219C264.27 155.511 264.025 154.826 263.59 154.266C263.023 153.544 262.192 153.075 261.28 152.964L261.409 153.158C261.599 152.502 261.625 151.809 261.485 151.141C261.324 150.429 261.014 149.76 260.575 149.177C260.014 148.434 259.257 147.862 258.389 147.525C257.609 147.228 256.773 147.105 255.94 147.165C254.674 147.251 253.455 147.675 252.408 148.391L252.548 148.45C252.448 148.028 252.212 147.65 251.875 147.374C251.676 147.197 251.52 147.148 251.515 147.165Z" fill="#375A64"/>
<path d="M250.137 183.565C250.018 183.613 249.539 182.596 248.522 181.736C247.504 180.875 246.427 180.557 246.46 180.434C246.492 180.31 247.693 180.434 248.807 181.407C249.921 182.381 250.244 183.543 250.137 183.565Z" fill="#1A2E35"/>
<path d="M308.111 224.505C309.043 224.247 318.091 225.726 318.091 225.726C318.151 225.973 318.149 226.231 318.086 226.477C318.023 226.724 317.901 226.951 317.73 227.139C317.559 227.327 317.345 227.471 317.106 227.557C316.867 227.644 316.61 227.671 316.358 227.636C314.264 227.571 307.406 227.023 307.406 227.023L302.987 228.965L301.533 228.33L308.111 224.505Z" fill="#FF9C6A"/>
<path d="M289.551 226.221L302.405 227.437L304.413 227.684C304.413 227.684 309.15 225.968 310.017 225.812C310.884 225.656 318.867 229.965 318.867 229.965C318.867 229.965 319.168 231.811 316.945 231.332C315.242 230.895 313.591 230.278 312.019 229.492C312.019 229.492 304.806 232.865 303.364 233.516C301.921 234.167 293.335 234.113 293.335 234.113L290.299 236.098L289.551 226.221Z" fill="#FFC19D"/>
<path d="M294.605 245.933L299.849 242.608L317.882 236.195C317.882 236.195 319.459 234.753 318.646 234.172C317.833 233.591 298.637 236.475 298.637 236.475L294.605 238.745V245.933Z" fill="#FFC19D"/>
<path d="M243.715 233.145C243.715 234.151 228.039 259.99 223.582 266.446C216.983 276.011 210.361 277.206 210.361 277.206L201.571 269.862L237.745 230.676L248.511 222.848L243.715 233.145Z" fill="#375A64"/>
<path d="M235.608 244.862C235.608 244.862 249.684 251.21 254.954 252.114C261.161 253.19 295.187 250.785 295.187 250.785L294.541 237.244L244.818 236.115L238.897 234.544L235.608 244.862Z" fill="#375A64"/>
<g opacity="0.3">
<path d="M240.253 234.189C239.225 234.651 238.638 237.368 237.863 238.18C229.622 246.826 223.587 256.585 215.077 264.407C211.411 267.78 207.255 270.664 202.276 270.411L207.358 274.715C211.589 274.629 214.399 272.638 217.585 269.873C220.772 267.108 222.134 263.1 224.583 259.651C230.192 251.813 235.688 243.044 241.271 235.205C241.039 234.097 241.281 233.704 240.253 234.189Z" fill="black"/>
</g>
<path d="M203.74 270.303C203.74 270.303 211.083 270.841 213.855 269.147C217.171 267.092 246.53 228.626 246.53 228.626L246.788 198.574L230.225 182.774L228.513 185.378L193.286 225.581L170.678 247.019L197.776 261.572L203.74 270.303Z" fill="#E1E1E1"/>
<path d="M239.898 227.733C239.015 228.809 240.436 243.937 220.686 246.024C203.999 247.805 169.278 245.954 158.846 245.33C156.192 245.174 154.001 242.941 154.195 240.295C154.232 239.7 154.395 239.12 154.673 238.593C154.952 238.066 155.339 237.604 155.81 237.239C159.513 234.221 163.389 235.157 165.677 228.965C167.965 222.772 166.926 220.47 170.969 218.017C176.68 214.547 190.654 220.906 190.654 220.906C194.169 215.596 196.037 210.915 200.952 204.573C204.941 199.446 210.356 192.43 214.738 189.945C215.814 189.337 221.601 186.948 222.812 186.76L225.504 186.287L227.302 183.914C229.966 186.604 239.909 195.75 241.664 198.978L243.671 210.663L239.898 227.733Z" fill="#375A64"/>
<g opacity="0.3">
<path d="M286.299 239.606C273.219 238.692 259.616 237.782 243.461 234.398L242.46 236.55C251.784 242.371 258.232 242.581 265.3 243.092C272.368 243.603 278.925 242.511 285.756 242.511C286.274 241.637 286.467 240.608 286.299 239.606Z" fill="black"/>
</g>
<g opacity="0.3">
<path d="M214.043 209L208.736 209.334C210.937 216.521 214.501 218.958 220.578 223.413C226.656 227.867 227.614 229.18 234.483 232.257C235.134 232.548 240.323 235.792 240.485 235.092C228.69 227.862 221.892 220.368 214.043 209Z" fill="black"/>
</g>
<path d="M208.859 204.293C206.932 209.673 210.42 212.11 210.42 212.11C210.42 212.11 238.843 237.906 250.314 239.213C261.785 240.521 291.871 238.923 291.871 238.923V224.935L255.229 221.003C255.229 221.003 240.479 203.637 232.324 194.927" fill="#375A64"/>
<path d="M232.313 194.916C232.313 194.916 232.469 195.061 232.755 195.357L234.004 196.67C235.08 197.837 236.695 199.559 238.692 201.802C242.719 206.284 248.441 212.804 255.347 220.884L255.234 220.825L291.887 224.715H292.076V224.903C292.076 229.39 292.076 234.097 292.076 238.891V239.095H291.866L285.288 239.396C275.991 239.757 266.985 240.004 258.529 239.837L255.379 239.735C254.335 239.671 253.302 239.633 252.279 239.552C251.256 239.484 250.237 239.362 249.227 239.187C248.731 239.068 248.242 238.939 247.763 238.788C247.283 238.638 246.81 238.471 246.352 238.283C242.86 236.779 239.521 234.942 236.383 232.795C231.023 229.192 225.849 225.321 220.88 221.196C216.541 217.64 213.004 214.547 210.345 212.137C209.381 211.336 208.698 210.249 208.397 209.033C208.182 208.152 208.14 207.239 208.273 206.343C208.342 205.794 208.467 205.253 208.644 204.729C208.763 204.379 208.833 204.191 208.833 204.191C208.833 204.191 208.79 204.374 208.693 204.729C208.535 205.255 208.426 205.796 208.37 206.343C208.257 207.22 208.312 208.111 208.531 208.968C208.838 210.142 209.509 211.19 210.447 211.959C213.139 214.343 216.686 217.404 221.036 220.933C225.385 224.462 230.526 228.465 236.561 232.446C239.687 234.599 243.015 236.444 246.498 237.955C246.95 238.143 247.423 238.283 247.886 238.449C248.349 238.616 248.839 238.718 249.318 238.837C250.311 239.005 251.312 239.12 252.317 239.181C253.334 239.262 254.362 239.299 255.401 239.364L258.545 239.455C267.001 239.612 275.98 239.364 285.277 238.998L291.849 238.697L291.645 238.918C291.645 234.108 291.645 229.401 291.645 224.93L291.833 225.14L255.191 221.164H255.153L255.11 221.11C248.236 213.014 242.552 206.456 238.574 201.942L233.955 196.751L232.739 195.4C232.442 195.077 232.313 194.916 232.313 194.916Z" fill="#1A2E35"/>
<path d="M242.568 236.341C242.339 236.78 242.077 237.201 241.782 237.599L239.58 240.978C237.728 243.835 235.236 247.832 232.491 252.243C229.745 256.655 227.253 260.657 225.407 263.541C224.486 264.977 223.727 266.129 223.189 266.914C222.931 267.327 222.639 267.717 222.317 268.081C222.53 267.636 222.774 267.206 223.049 266.796L225.148 263.347C226.968 260.383 229.412 256.402 232.146 252.001C234.881 247.601 237.432 243.614 239.349 240.79C240.307 239.38 241.104 238.256 241.674 237.486C241.945 237.084 242.244 236.701 242.568 236.341Z" fill="#1A2E35"/>
<path d="M327.668 232.946L293.303 238.207C292.987 238.254 292.665 238.173 292.408 237.984C292.151 237.794 291.979 237.511 291.93 237.196L291.876 236.846C291.852 236.69 291.859 236.53 291.896 236.376C291.934 236.222 292.002 236.077 292.096 235.949C292.19 235.822 292.309 235.714 292.445 235.633C292.581 235.551 292.731 235.497 292.888 235.474L329.326 230.094L328.879 231.848C328.807 232.13 328.653 232.383 328.438 232.579C328.223 232.774 327.955 232.901 327.668 232.946Z" fill="#E1E1E1"/>
<path d="M327.668 232.946C327.959 232.871 328.224 232.721 328.438 232.51C328.683 232.241 328.839 231.903 328.885 231.542C328.987 231.106 329.105 230.611 329.24 230.051L329.337 230.164C323.27 231.138 309.57 233.22 293.653 235.576C293.331 235.611 293.013 235.668 292.7 235.749C292.576 235.805 292.464 235.885 292.372 235.985C292.279 236.084 292.208 236.202 292.162 236.33C292.117 236.461 292.099 236.6 292.108 236.738C292.108 236.868 292.156 237.072 292.183 237.212C292.209 237.347 292.263 237.474 292.342 237.587C292.421 237.699 292.523 237.793 292.641 237.863C292.764 237.933 292.899 237.978 293.04 237.995C293.18 238.013 293.323 238.003 293.459 237.965L294.439 237.82L296.371 237.524L303.73 236.41L316.197 234.554L324.605 233.333L326.893 233.026L327.49 232.956C327.558 232.951 327.627 232.951 327.695 232.956C327.695 232.956 327.63 232.956 327.501 233.01L326.909 233.123L324.632 233.516L316.24 234.866L303.789 236.819L296.409 237.954L294.476 238.256L293.502 238.406C293.125 238.494 292.729 238.436 292.393 238.245C292.224 238.144 292.077 238.008 291.963 237.847C291.849 237.686 291.77 237.502 291.731 237.309C291.693 237.115 291.672 236.986 291.65 236.771C291.635 236.572 291.661 236.373 291.726 236.184C291.794 235.996 291.902 235.824 292.041 235.68C292.18 235.535 292.348 235.421 292.533 235.345C292.886 235.249 293.246 235.183 293.61 235.146C309.527 232.79 323.243 230.81 329.331 229.987H329.466L329.434 230.116C329.283 230.654 329.154 231.16 329.035 231.59C328.977 231.97 328.797 232.321 328.524 232.591C328.356 232.752 328.151 232.87 327.926 232.935C327.842 232.958 327.754 232.962 327.668 232.946Z" fill="#1A2E35"/>
<path d="M326.678 230.423L336.975 195.782C337.071 195.472 337.285 195.212 337.572 195.059C337.858 194.906 338.193 194.872 338.504 194.964L338.811 195.056C339.122 195.153 339.382 195.368 339.535 195.655C339.688 195.942 339.722 196.277 339.629 196.589L328.777 232.096L326.678 230.423Z" fill="#E1E1E1"/>
<path d="M326.678 230.423C326.678 230.423 326.737 230.423 326.828 230.52L327.243 230.826L328.826 232.031L328.707 232.069C330.247 226.689 334.515 212.648 339.473 196.336C339.485 196.194 339.468 196.05 339.421 195.915C339.375 195.78 339.301 195.656 339.204 195.551C338.982 195.348 338.705 195.216 338.407 195.169C338.268 195.137 338.124 195.134 337.983 195.16C337.843 195.187 337.709 195.242 337.591 195.322C337.473 195.402 337.372 195.506 337.296 195.627C337.22 195.748 337.169 195.883 337.148 196.024L336.017 199.822C335.269 202.308 334.548 204.707 333.864 206.999C332.486 211.566 331.237 215.687 330.187 219.163C329.138 222.638 328.276 225.403 327.674 227.383C327.372 228.33 327.135 229.083 326.968 229.626C326.888 229.863 326.823 230.057 326.775 230.218C326.726 230.38 326.699 230.417 326.694 230.423C326.698 230.357 326.711 230.292 326.732 230.229C326.775 230.073 326.823 229.885 326.882 229.653C327.038 229.115 327.243 228.368 327.507 227.426C328.077 225.446 328.89 222.643 329.886 219.195L333.466 206.956C334.144 204.653 334.86 202.232 335.619 199.725C335.996 198.472 336.373 197.192 336.755 195.9C336.835 195.517 337.058 195.178 337.379 194.954C337.547 194.842 337.735 194.766 337.934 194.73C338.132 194.695 338.335 194.702 338.531 194.749C338.725 194.803 338.843 194.835 339.069 194.911C339.255 194.992 339.423 195.109 339.565 195.255C339.702 195.405 339.808 195.582 339.873 195.774C339.939 195.967 339.964 196.171 339.947 196.374C339.892 196.651 339.818 196.924 339.726 197.192L339.495 197.95C339.339 198.461 339.182 198.962 339.032 199.467L338.052 202.448C337.455 204.406 336.868 206.321 336.297 208.166C335.156 211.862 334.096 215.311 333.132 218.42L328.826 232.117L328.793 232.225L328.702 232.155L327.146 230.864C326.983 230.725 326.826 230.578 326.678 230.423Z" fill="#1A2E35"/>
<path d="M239.576 201.19C239.517 201.227 238.876 200.275 237.756 198.801C236.299 196.885 234.739 195.049 233.084 193.302C231.151 191.252 229.283 189.504 227.926 188.24C227.165 187.594 226.446 186.9 225.773 186.163C226.016 186.282 226.241 186.436 226.44 186.62C226.855 186.938 227.436 187.411 228.147 188.014C229.991 189.583 231.75 191.25 233.417 193.006C235.092 194.762 236.634 196.64 238.031 198.623C238.569 199.382 238.968 200.017 239.226 200.469C239.376 200.692 239.493 200.934 239.576 201.19Z" fill="#1A2E35"/>
<g opacity="0.3">
<path d="M227.253 244.658C224.825 245.298 205.597 244.001 195.946 240.892C189.028 238.686 182.305 235.781 177.703 232.343C174.141 229.743 171.078 226.523 168.659 222.837C167.545 222.202 166.818 225.527 166.371 226.921C165.925 228.314 165.02 231.913 162.463 233.57C159.336 235.593 154.539 236.26 154.109 240.413C153.84 243.017 156.208 245.169 158.824 245.298C167.05 245.701 189.771 246.788 195.827 246.783C203.261 246.799 219.195 247.224 227.253 244.658Z" fill="black"/>
</g>
<path d="M230.327 243.205C230.161 243.373 229.981 243.526 229.789 243.662C229.212 244.025 228.584 244.301 227.926 244.48C226.214 244.943 223.62 245.126 220.492 244.953C217.365 244.781 213.629 244.329 209.516 243.748C205.043 243.158 200.61 242.295 196.242 241.166C191.861 240.033 187.623 238.409 183.608 236.324C180.335 234.602 177.299 232.465 174.575 229.965C172.739 228.283 171.098 226.401 169.682 224.354C169.187 223.628 168.821 223.047 168.605 222.643C168.479 222.444 168.368 222.235 168.271 222.019C168.424 222.199 168.561 222.392 168.681 222.595C168.928 222.988 169.31 223.547 169.827 224.257C171.287 226.252 172.95 228.089 174.79 229.739C177.519 232.187 180.547 234.28 183.801 235.969C187.8 238.017 192.011 239.619 196.36 240.746C200.712 241.863 205.124 242.727 209.575 243.334C213.683 243.937 217.381 244.442 220.514 244.631C222.974 244.865 225.454 244.753 227.883 244.297C228.532 244.141 229.157 243.897 229.74 243.571C229.926 243.434 230.122 243.311 230.327 243.205Z" fill="#1A2E35"/>
<path d="M234.23 238.493C234.144 238.573 233.568 238.094 232.949 237.417C232.33 236.739 231.872 236.141 231.985 236.061C232.098 235.98 232.647 236.453 233.266 237.137C233.885 237.82 234.316 238.412 234.23 238.493Z" fill="#1A2E35"/>
<path d="M228.685 194.017C228.653 194.098 227.496 193.566 225.504 193.237C222.906 192.811 220.243 193.05 217.763 193.931C215.298 194.849 213.105 196.376 211.39 198.37C210.071 199.898 209.527 201.06 209.452 201.011C209.532 200.724 209.652 200.449 209.807 200.194C210.192 199.479 210.643 198.802 211.153 198.171C212.845 196.065 215.077 194.458 217.612 193.523C220.155 192.611 222.898 192.408 225.547 192.936C226.343 193.093 227.123 193.322 227.878 193.619C228.163 193.716 228.435 193.85 228.685 194.017Z" fill="#1A2E35"/>
<path d="M220.89 232.801C220.89 232.801 220.783 232.865 220.573 232.941C220.267 233.058 219.954 233.157 219.636 233.236C218.458 233.536 217.244 233.668 216.03 233.629C214.228 233.568 212.444 233.25 210.733 232.682C208.645 231.992 206.641 231.072 204.758 229.939C202.75 228.744 200.93 227.475 199.278 226.329C197.625 225.183 196.129 224.177 194.837 223.375C193.545 222.574 192.468 221.987 191.709 221.605C191.304 221.43 190.913 221.223 190.541 220.987C190.541 220.987 190.659 220.987 190.869 221.083C191.079 221.18 191.408 221.277 191.779 221.455C192.888 221.941 193.967 222.494 195.009 223.112C197.7 224.613 201.038 227.173 204.994 229.567C206.855 230.683 208.827 231.603 210.878 232.311C212.55 232.882 214.292 233.224 216.057 233.328C219.087 233.462 220.869 232.688 220.89 232.801Z" fill="#1A2E35"/>
<path d="M228.685 243.243C228.472 243.262 228.258 243.262 228.044 243.243L226.225 243.141C225.434 243.097 224.465 243.033 223.345 242.915C222.225 242.796 220.944 242.71 219.545 242.511C218.145 242.312 216.595 242.14 214.953 241.844C213.311 241.548 211.562 241.241 209.726 240.865C205.747 240.022 201.821 238.944 197.969 237.637C194.128 236.279 190.384 234.661 186.762 232.795C185.12 231.891 183.532 231.068 182.138 230.159C181.427 229.713 180.728 229.314 180.092 228.879L178.262 227.609C177.078 226.829 176.109 225.995 175.199 225.312C174.758 224.962 174.338 224.65 173.972 224.338L172.982 223.467L171.62 222.251C171.459 222.12 171.311 221.974 171.178 221.815C171.361 221.925 171.533 222.053 171.69 222.197L173.1 223.348L174.112 224.187C174.483 224.494 174.914 224.795 175.361 225.134C176.265 225.796 177.256 226.603 178.445 227.367L180.286 228.604C180.927 229.035 181.627 229.427 182.332 229.863C183.737 230.751 185.314 231.563 186.956 232.451C190.562 234.272 194.282 235.857 198.093 237.196C201.927 238.503 205.83 239.596 209.785 240.472C211.615 240.854 213.354 241.225 214.996 241.484C216.638 241.742 218.161 242.022 219.561 242.199C220.96 242.377 222.252 242.533 223.329 242.667C224.405 242.802 225.407 242.898 226.193 242.968L228.007 243.151C228.235 243.158 228.463 243.188 228.685 243.243Z" fill="#1A2E35"/>
<path d="M218.549 375.506L217.182 398.139L251.482 398.397C251.31 395.12 233.611 388.412 233.611 388.412L234.149 376.135L218.549 375.506Z" fill="#00D18F"/>
<path d="M223.011 386.846C222.675 386.943 222.388 387.163 222.206 387.462C222.025 387.761 221.962 388.118 222.032 388.46C222.117 388.794 222.327 389.082 222.618 389.266C222.91 389.45 223.26 389.516 223.598 389.45C223.949 389.344 224.248 389.112 224.438 388.8C224.629 388.487 224.698 388.116 224.632 387.756C224.406 387.11 223.491 386.593 222.882 386.916" fill="#E1E1E1"/>
<path d="M217.176 398.138V395.244L250.147 396.75C250.147 396.75 251.665 397.434 251.477 398.51L217.176 398.138Z" fill="#1A2E35"/>
<path d="M234.16 388.239C234.16 388.406 233.315 388.476 232.486 389.009C231.657 389.541 231.215 390.241 231.059 390.171C230.903 390.101 231.161 389.143 232.179 388.514C233.196 387.884 234.203 388.089 234.16 388.239Z" fill="#E1E1E1"/>
<path d="M237.75 389.751C237.788 389.918 237.061 390.198 236.485 390.897C235.909 391.597 235.742 392.35 235.575 392.344C235.408 392.339 235.311 391.387 236.038 390.526C236.765 389.665 237.75 389.595 237.75 389.751Z" fill="#E1E1E1"/>
<path d="M239.763 394.071C239.607 394.109 239.381 393.27 239.817 392.355C240.253 391.44 241.045 391.085 241.115 391.225C241.185 391.365 240.695 391.849 240.345 392.603C239.995 393.356 239.93 394.055 239.763 394.071Z" fill="#E1E1E1"/>
<path d="M233.891 384.199C233.821 384.35 233.056 384.113 232.109 384.172C231.161 384.232 230.418 384.522 230.332 384.377C230.246 384.232 230.962 383.64 232.076 383.586C233.191 383.532 233.977 384.065 233.891 384.199Z" fill="#E1E1E1"/>
<path d="M233.082 380.121C233.082 380.191 232.42 380.293 231.365 380.121C230.747 380.008 230.144 379.818 229.573 379.556C229.234 379.4 228.907 379.22 228.593 379.018C228.393 378.912 228.211 378.774 228.055 378.609C227.947 378.489 227.882 378.336 227.869 378.175C227.856 378.013 227.897 377.852 227.985 377.717C228.071 377.602 228.182 377.508 228.31 377.442C228.438 377.377 228.579 377.342 228.723 377.34C228.94 377.341 229.156 377.373 229.363 377.437C229.733 377.525 230.094 377.649 230.439 377.808C231.02 378.08 231.552 378.443 232.016 378.884C232.808 379.626 233.093 380.25 233.017 380.282C232.942 380.315 232.555 379.809 231.753 379.207C231.283 378.852 230.769 378.559 230.224 378.335C229.905 378.206 229.575 378.101 229.239 378.023C228.879 377.926 228.572 377.921 228.475 378.082C228.443 378.142 228.437 378.163 228.513 378.271C228.622 378.39 228.749 378.492 228.889 378.572C229.18 378.768 229.482 378.948 229.794 379.11C230.325 379.378 230.88 379.596 231.451 379.761C232.002 379.844 232.547 379.965 233.082 380.121Z" fill="#E1E1E1"/>
<path d="M232.884 380.364C232.825 380.364 232.497 379.788 232.448 378.701C232.42 378.066 232.504 377.43 232.696 376.824C232.808 376.464 232.956 376.116 233.137 375.785C233.229 375.562 233.376 375.366 233.564 375.216C233.752 375.065 233.976 374.965 234.214 374.925C234.367 374.93 234.515 374.978 234.642 375.064C234.768 375.149 234.868 375.269 234.93 375.409C235.018 375.609 235.076 375.821 235.102 376.038C235.162 376.422 235.162 376.812 235.102 377.195C235.003 377.837 234.748 378.445 234.359 378.965C233.681 379.847 232.981 380.041 232.965 379.987C232.949 379.934 233.503 379.584 234.042 378.734C234.337 378.242 234.521 377.691 234.58 377.12C234.628 376.79 234.628 376.454 234.58 376.124C234.531 375.759 234.397 375.468 234.257 375.5C234.117 375.533 233.794 375.769 233.654 376.038C233.482 376.334 233.337 376.643 233.218 376.964C233.024 377.515 232.908 378.091 232.873 378.675C232.803 379.708 232.976 380.337 232.884 380.364Z" fill="#E1E1E1"/>
<path d="M101.974 321.438L79.8503 316.419L74.0312 350.204C77.2987 350.565 86.789 334.199 86.789 334.199L98.82 336.717L101.974 321.438Z" fill="#00D18F"/>
<path d="M90.0513 324.032C90.0089 323.689 89.8414 323.375 89.5811 323.148C89.3208 322.922 88.9859 322.8 88.6408 322.805C88.2973 322.835 87.9784 322.996 87.75 323.254C87.5216 323.512 87.4011 323.848 87.4135 324.193C87.4611 324.555 87.6406 324.887 87.9177 325.125C88.1947 325.363 88.55 325.491 88.9154 325.484C89.5937 325.366 90.2505 324.548 90.0298 323.897" fill="#E1E1E1"/>
<path d="M79.8503 316.419L82.7087 316.882L75.8722 349.161C75.8722 349.161 74.9517 350.543 73.9236 350.188L79.8503 316.419Z" fill="#1A2E35"/>
<path d="M86.8643 334.791C86.7028 334.759 86.7674 333.92 86.3798 333.016C85.9922 332.112 85.3677 331.563 85.4592 331.402C85.5508 331.241 86.4605 331.671 86.9181 332.774C87.3757 333.877 87.0096 334.84 86.8643 334.791Z" fill="#E1E1E1"/>
<path d="M84.7919 338.068C84.625 338.068 84.4635 337.314 83.8659 336.636C83.2684 335.959 82.5524 335.663 82.5901 335.501C82.6277 335.34 83.5752 335.394 84.3073 336.254C85.0395 337.115 84.948 338.089 84.7919 338.068Z" fill="#E1E1E1"/>
<path d="M80.2056 339.348C80.2056 339.192 81.0615 339.106 81.8906 339.687C82.7196 340.268 82.9672 341.096 82.8003 341.145C82.6335 341.193 82.262 340.607 81.5622 340.166C80.8623 339.725 80.2056 339.515 80.2056 339.348Z" fill="#E1E1E1"/>
<path d="M90.9015 335.162C90.7615 335.071 91.1222 334.35 91.2191 333.408C91.316 332.467 91.1491 331.687 91.3052 331.622C91.4614 331.558 91.9297 332.365 91.8005 333.473C91.6713 334.581 91.0199 335.265 90.9015 335.162Z" fill="#E1E1E1"/>
<path d="M95.0519 335.048C94.9819 335.048 94.9927 334.371 95.3533 333.36C95.5649 332.768 95.8487 332.204 96.1982 331.681C96.406 331.372 96.6343 331.078 96.8817 330.799C97.0208 330.627 97.1861 330.479 97.3715 330.358C97.5066 330.269 97.6675 330.229 97.8285 330.242C97.9896 330.256 98.1413 330.323 98.2595 330.433C98.361 330.535 98.4369 330.659 98.4809 330.796C98.5249 330.932 98.5357 331.077 98.5125 331.219C98.4787 331.433 98.4135 331.642 98.3187 331.837C98.1698 332.183 97.9897 332.514 97.7805 332.827C97.4259 333.353 96.9899 333.82 96.4889 334.209C95.6277 334.871 94.9604 335.032 94.9388 334.968C94.9173 334.903 95.477 334.591 96.2198 333.892C96.6456 333.487 97.0182 333.03 97.3284 332.531C97.509 332.238 97.6656 331.93 97.7967 331.611C97.9528 331.267 98.0066 330.966 97.8613 330.848C97.8074 330.805 97.7859 330.794 97.6675 330.848C97.5333 330.936 97.4135 331.045 97.3123 331.17C97.0743 331.426 96.8515 331.696 96.6449 331.977C96.2963 332.458 95.9919 332.969 95.7354 333.505C95.5418 334.034 95.3135 334.55 95.0519 335.048Z" fill="#E1E1E1"/>
<path d="M94.8525 334.791C94.8525 334.732 95.4822 334.506 96.564 334.63C97.1953 334.702 97.8091 334.884 98.3777 335.168C98.7162 335.335 99.0356 335.539 99.3304 335.775C99.539 335.904 99.7103 336.085 99.8274 336.3C99.9445 336.515 100.003 336.757 99.9977 337.002C99.9698 337.152 99.8991 337.29 99.794 337.401C99.689 337.512 99.5541 337.59 99.4057 337.626C99.1926 337.677 98.9735 337.699 98.7545 337.69C98.3664 337.685 97.9814 337.62 97.6135 337.497C96.999 337.295 96.4442 336.944 95.9989 336.475C95.2347 335.662 95.1539 334.942 95.2131 334.936C95.2723 334.931 95.5253 335.528 96.2895 336.179C96.7259 336.553 97.2382 336.828 97.7911 336.986C98.1094 337.077 98.4393 337.123 98.7706 337.12C99.142 337.12 99.4541 337.045 99.4434 336.905C99.4326 336.765 99.2496 336.405 98.9859 336.216C98.7224 335.999 98.4396 335.807 98.1409 335.641C97.6351 335.359 97.0914 335.15 96.5263 335.022C95.5091 334.818 94.8633 334.888 94.8525 334.791Z" fill="#E1E1E1"/>
<path d="M167.324 249.79C166.102 251.748 153.409 258.43 153.716 278.303L145.437 321.75L95.913 317.113L91.3267 336.981L154.168 347.337C154.168 347.337 163.039 349.489 168.234 339.084C173.428 328.68 187.343 290.833 187.65 289.913C187.957 288.993 196.516 266.688 196.516 266.688L167.324 249.79Z" fill="#1A2E35"/>
<path d="M158.151 264.611C158.044 265.203 154.755 277.786 167.733 287.163C180.712 296.54 218.651 320.685 218.651 320.685L219.647 324.677L216.256 383.581L237.75 384C237.75 384 244.011 326.076 244.21 320.088C244.409 314.1 243.736 305.907 236.076 299.29C228.416 292.672 195.886 264.611 195.886 264.611C195.886 264.611 168.837 249.65 169.106 249.817C169.375 249.984 159.75 255.831 158.151 264.611Z" fill="#1A2E35"/>
<path d="M167.324 249.79L170.21 245.938C170.21 245.938 182.768 251.054 190.918 256.95C196.102 260.716 203.692 265.73 203.014 271.056L167.324 249.79Z" fill="#1A2E35"/>
<path d="M218.651 320.685C218.651 320.685 218.57 320.653 218.43 320.572L217.811 320.196C217.241 319.846 216.449 319.351 215.443 318.722L206.792 313.218C199.504 308.538 189.432 302.082 178.429 294.76C175.668 292.931 173.079 290.994 170.5 289.262C168.002 287.594 165.642 285.728 163.443 283.683C161.422 281.824 159.826 279.55 158.765 277.017C157.931 274.781 157.517 272.41 157.543 270.024C157.533 266.571 158.343 263.166 159.906 260.087C160.335 259.258 160.838 258.469 161.408 257.731L161.871 257.193C161.919 257.125 161.975 257.064 162.038 257.01C162.002 257.085 161.957 257.156 161.903 257.22L161.478 257.806C160.941 258.559 160.466 259.354 160.057 260.184C158.568 263.256 157.812 266.632 157.85 270.045C157.842 272.389 158.267 274.715 159.104 276.904C160.158 279.381 161.733 281.601 163.723 283.414C165.905 285.441 168.245 287.292 170.721 288.95C173.305 290.693 175.899 292.613 178.65 294.437C189.642 301.754 199.692 308.247 206.938 312.997L215.513 318.619L217.833 320.163L218.436 320.572C218.511 320.604 218.583 320.642 218.651 320.685Z" fill="#375A64"/>
<path d="M220.638 285.964C220.503 285.892 220.378 285.804 220.266 285.7L219.254 284.883L215.588 281.821L203.606 271.6C199.7 268.088 195.516 264.898 191.096 262.061C189.411 260.985 188.027 260.087 187.08 259.484L186.003 258.785C185.871 258.713 185.748 258.624 185.637 258.521C185.782 258.564 185.92 258.627 186.046 258.71C186.31 258.85 186.698 259.059 187.188 259.339C188.167 259.877 189.572 260.727 191.284 261.803C195.768 264.568 199.993 267.731 203.907 271.256L215.798 281.585L219.373 284.753L220.331 285.636C220.444 285.735 220.547 285.845 220.638 285.964Z" fill="#375A64"/>
<path d="M152.99 334.195C152.887 334.259 151.079 331.596 148.947 328.276C146.815 324.957 145.178 322.165 145.27 322.1C145.362 322.035 147.181 324.699 149.313 328.018C151.445 331.338 153.092 334.13 152.99 334.195Z" fill="#375A64"/>
<path d="M156.537 330.353C156.462 330.445 154.179 328.707 151.439 326.474C148.699 324.241 146.535 322.348 146.594 322.256C146.653 322.165 148.957 323.87 151.698 326.135C154.438 328.4 156.613 330.256 156.537 330.353Z" fill="#375A64"/>
<path d="M229.154 316.865C229.187 316.984 226.672 317.689 223.609 318.668C220.546 319.647 218.086 320.513 218.043 320.4C218.522 320.083 219.042 319.831 219.588 319.652C220.568 319.249 221.941 318.743 223.48 318.254C225.02 317.764 226.43 317.387 227.464 317.145C228.012 316.974 228.58 316.88 229.154 316.865Z" fill="#375A64"/>
<path d="M230.51 323.913C230.51 324.037 228.142 324.101 225.229 324.29C222.317 324.478 219.954 324.709 219.938 324.586C219.921 324.462 222.263 324.048 225.197 323.859C228.131 323.671 230.516 323.8 230.51 323.913Z" fill="#375A64"/>
</svg>
