<svg width="488" height="528" viewBox="0 0 488 528" fill="none" xmlns="http://www.w3.org/2000/svg">
<path d="M84.7683 527.452H29.3411V318.762H84.7683V527.452Z" fill="#F5F5F5"/>
<path d="M385.088 526.299H329.661V388.16H385.088V526.299Z" fill="#F5F5F5"/>
<path d="M469.735 526.299H414.308V279.582H469.735V526.299Z" fill="#F5F5F5"/>
<path d="M291.188 526.299H235.761V288.537H291.188V526.299Z" fill="#F5F5F5"/>
<path d="M179.992 526.299H124.564V221.222H179.992V526.299Z" fill="#F5F5F5"/>
<path d="M414.308 84.9046C414.308 84.9046 414.04 85.1882 413.499 85.726C412.949 86.269 412.141 87.0652 411.083 88.1084C408.943 90.2042 405.793 93.2887 401.722 97.2751C393.549 105.247 381.685 116.819 366.89 131.251C337.254 160.096 295.88 200.362 248.9 246.087L248.693 246.289L248.507 246.066C239.23 234.953 229.536 223.339 219.652 211.498C193.11 179.679 167.936 149.503 145.593 122.718L145.988 122.696C119.715 162.188 97.5074 195.571 81.8609 219.091C74.0292 230.831 67.8403 240.108 63.6038 246.459C61.485 249.62 59.8549 252.052 58.7489 253.702C58.1986 254.515 57.779 255.133 57.4923 255.558C57.2077 255.973 57.0549 256.178 57.0549 256.178C57.0549 256.178 57.1857 255.957 57.4578 255.535C57.7382 255.106 58.1452 254.479 58.6809 253.657C59.7733 251.997 61.3814 249.551 63.473 246.371C67.6823 240.003 73.8315 230.7 81.6139 218.926C97.2196 195.38 119.371 161.96 145.576 122.423L145.759 122.147L145.972 122.401C168.327 149.175 193.515 179.342 220.07 211.148C229.952 222.991 239.645 234.608 248.919 245.721L248.525 245.702C295.557 200.029 336.974 159.808 366.643 130.997C381.486 116.614 393.388 105.082 401.588 97.137C405.688 93.1799 408.859 90.1184 411.014 88.0383C412.088 87.0098 412.906 86.2251 413.464 85.6904C414.017 85.1641 414.308 84.9046 414.308 84.9046Z" fill="#ECECEC"/>
<path d="M156.068 122.56C156.068 128.24 151.463 132.844 145.782 132.844C140.103 132.844 135.498 128.24 135.498 122.56C135.498 116.879 140.103 112.276 145.782 112.276C151.463 112.276 156.068 116.879 156.068 122.56Z" fill="#ECECEC"/>
<path d="M67.3392 256.179C67.3392 261.859 62.7344 266.463 57.055 266.463C51.3746 266.463 46.7698 261.859 46.7698 256.179C46.7698 250.498 51.3746 245.893 57.055 245.893C62.7344 245.893 67.3392 250.498 67.3392 256.179Z" fill="#ECECEC"/>
<path d="M258.997 245.894C258.997 251.574 254.393 256.179 248.712 256.179C243.033 256.179 238.428 251.574 238.428 245.894C238.428 240.213 243.033 235.61 248.712 235.61C254.393 235.61 258.997 240.213 258.997 245.894Z" fill="#ECECEC"/>
<path d="M429.846 80.9829C429.846 86.6633 425.241 91.2671 419.561 91.2671C413.881 91.2671 409.276 86.6633 409.276 80.9829C409.276 75.3025 413.881 70.6977 419.561 70.6977C425.241 70.6977 429.846 75.3025 429.846 80.9829Z" fill="#ECECEC"/>
<path d="M50.1771 119.144C44.6997 124.817 44.8587 133.855 50.5318 139.332C56.2049 144.809 65.2429 144.65 70.7193 138.977C76.1968 133.305 76.0377 124.266 70.3646 118.789C64.6915 113.313 55.6535 113.471 50.1771 119.144ZM43.0831 101.417C45.5995 99.8959 48.2781 98.7439 51.0403 97.9582L52.6799 90.0826L65.9869 89.8493L67.9016 97.6621C70.69 98.3495 73.4083 99.4073 75.976 100.839L82.7017 96.4295L92.2764 105.675L88.1079 112.55C89.6282 115.066 90.7813 117.746 91.566 120.508L99.4405 122.148L99.6749 135.455L91.8621 137.371C91.1747 140.158 90.1169 142.875 88.6855 145.444L93.0926 152.17L83.8495 161.744L76.9742 157.576C74.4578 159.096 71.7782 160.248 69.0159 161.033L67.3764 168.909L54.0694 169.143L52.1536 161.329C49.3652 160.642 46.649 159.584 44.0803 158.152L37.3546 162.562L27.7798 153.316L31.9483 146.442C30.428 143.925 29.275 141.246 28.4902 138.483L20.6147 136.844L20.3813 123.537L28.1941 121.622C28.8816 118.833 29.9404 116.116 31.3707 113.548L26.9626 106.823L36.2068 97.2477L43.0831 101.417Z" fill="#ECECEC"/>
<path d="M271.526 99.4085C264.718 106.46 264.915 117.693 271.966 124.5C279.017 131.307 290.251 131.11 297.058 124.059C303.865 117.008 303.668 105.774 296.617 98.967C289.566 92.1607 278.333 92.3585 271.526 99.4085ZM262.709 77.3753C265.836 75.4857 269.165 74.0533 272.599 73.0771L274.636 63.2878L291.175 62.998L293.556 72.7088C297.021 73.5626 300.399 74.8778 303.591 76.6565L311.95 71.178L323.85 82.6675L318.669 91.2128C320.56 94.3402 321.992 97.6706 322.967 101.105L332.756 103.142L333.045 119.681L323.335 122.062C322.481 125.527 321.166 128.904 319.387 132.096L324.865 140.455L313.377 152.356L304.831 147.175C301.703 149.064 298.374 150.497 294.94 151.472L292.902 161.261L276.364 161.552L273.982 151.84C270.517 150.986 267.14 149.671 263.948 147.892L255.589 153.372L243.688 141.881L248.87 133.336C246.98 130.209 245.547 126.879 244.572 123.445L234.782 121.408L234.492 104.869L244.203 102.488C245.058 99.0224 246.373 95.6449 248.151 92.4537L242.672 84.0947L254.162 72.194L262.709 77.3753Z" fill="#F5F5F5"/>
<path d="M110.424 77.8326C107.557 80.8021 107.64 85.5324 110.61 88.3993C113.579 91.2662 118.31 91.1825 121.176 88.2131C124.043 85.2447 123.96 80.5133 120.991 77.6464C118.022 74.7805 113.291 74.8632 110.424 77.8326ZM106.711 68.554C108.028 67.7588 109.43 67.155 110.876 66.7438L111.734 62.6214L118.7 62.5L119.702 66.589C121.162 66.9489 122.584 67.5024 123.928 68.2516L127.448 65.9445L132.46 70.7826L130.277 74.3808C131.073 75.6982 131.677 77.1013 132.087 78.5473L136.21 79.4052L136.332 86.3695L132.242 87.3729C131.883 88.8314 131.329 90.2544 130.579 91.5979L132.887 95.1187L128.048 100.131L124.45 97.9479C123.133 98.7442 121.731 99.3469 120.285 99.7581L119.427 103.881L112.462 104.003L111.459 99.9129C110 99.553 108.578 98.9995 107.233 98.2503L103.713 100.557L98.7015 95.7193L100.883 92.12C100.088 90.8037 99.4841 89.4017 99.0729 87.9546L94.9515 87.0967L94.8291 80.1324L98.9181 79.129C99.278 77.6704 99.8326 76.2475 100.581 74.904L98.2736 71.3832L103.112 66.3724L106.711 68.554Z" fill="#F5F5F5"/>
<path d="M436.175 154.224C432.298 158.24 432.41 164.638 436.426 168.514C440.441 172.391 446.84 172.278 450.716 168.262C454.593 164.248 454.481 157.849 450.465 153.973C446.449 150.096 440.051 150.208 436.175 154.224ZM431.153 141.676C432.934 140.599 434.83 139.784 436.786 139.228L437.946 133.652L447.366 133.487L448.721 139.018C450.695 139.504 452.618 140.253 454.437 141.266L459.198 138.145L465.974 144.69L463.024 149.556C464.101 151.337 464.917 153.234 465.471 155.19L471.046 156.35L471.211 165.77L465.682 167.125C465.195 169.099 464.446 171.022 463.433 172.84L466.553 177.602L460.009 184.379L455.143 181.428C453.361 182.505 451.465 183.32 449.51 183.875L448.348 189.451L438.929 189.616L437.573 184.085C435.6 183.598 433.677 182.849 431.858 181.837L427.099 184.957L420.321 178.414L423.271 173.546C422.195 171.765 421.379 169.869 420.823 167.913L415.248 166.754L415.083 157.334L420.614 155.978C421.1 154.004 421.849 152.081 422.862 150.263L419.742 145.502L426.286 138.725L431.153 141.676Z" fill="#F5F5F5"/>
<path d="M451.484 128.443L448.885 124.159C426.971 88.0468 387.35 66.2773 345.576 68.9193C340.206 69.2583 334.859 69.9855 329.584 71.1144C291.603 79.2443 258.555 107.966 244.857 144.751C236.801 166.384 234.55 191.291 219.261 208.464C199.365 230.811 165.586 231.513 135.886 230.587C106.188 229.661 72.3855 230.451 52.5851 252.887C40.1853 266.938 36.2438 286.92 37.2441 305.737C39.8913 355.557 74.6068 400.104 118.756 422.246C162.906 444.388 214.887 446.37 263.205 436.63C330.894 422.985 395.265 385.514 433.958 327.637C472.65 269.761 482.442 190.91 451.484 128.443Z" fill="#F5F5F5"/>
<path d="M488 527.727C488 527.878 378.749 527.999 244.012 527.999C109.227 527.999 0 527.878 0 527.727C0 527.577 109.227 527.455 244.012 527.455C378.749 527.455 488 527.577 488 527.727Z" fill="#1A2E35"/>
<path d="M319.438 527.727H405.319C406.96 527.727 408.256 526.336 408.141 524.699L403.854 463.921C403.75 462.441 402.519 461.293 401.037 461.291L322.195 461.179C320.68 461.177 319.433 462.368 319.365 463.88L316.612 524.77C316.539 526.382 317.826 527.727 319.438 527.727Z" fill="#1A2E35"/>
<path d="M331.286 527.727C331.417 527.727 331.525 512.855 331.525 494.512C331.525 476.164 331.417 461.295 331.286 461.295C331.154 461.295 331.046 476.164 331.046 494.512C331.046 512.855 331.154 527.727 331.286 527.727Z" fill="#375A64"/>
<path d="M332.303 462.87C332.296 462.874 332.34 462.957 332.433 463.113C332.541 463.291 332.679 463.517 332.852 463.799C333.249 464.424 333.804 465.297 334.509 466.409C335.97 468.66 338.089 471.92 340.951 475.781C343.842 479.608 347.47 484.099 352.353 488.211C354.784 490.267 357.541 492.189 360.595 493.844C363.658 495.458 367.11 496.746 370.815 497.044C374.527 497.354 378.148 496.518 381.361 495.218C384.58 493.897 387.467 492.123 389.944 490.11C394.908 486.057 398.187 481.156 400.193 476.794C402.212 472.405 402.931 468.512 403.227 465.851C403.286 465.18 403.354 464.587 403.383 464.07C403.39 463.562 403.395 463.125 403.399 462.76C403.399 462.43 403.399 462.164 403.399 461.957C403.397 461.775 403.391 461.682 403.383 461.682C403.375 461.682 403.363 461.776 403.35 461.957C403.338 462.164 403.323 462.427 403.303 462.758C403.285 463.121 403.265 463.555 403.241 464.061C403.197 464.574 403.114 465.165 403.042 465.829C402.691 468.469 401.926 472.32 399.885 476.652C397.859 480.957 394.584 485.783 389.666 489.766C387.213 491.745 384.359 493.487 381.185 494.782C378.018 496.058 374.471 496.87 370.854 496.566C367.236 496.277 363.842 495.018 360.814 493.429C357.793 491.798 355.055 489.902 352.636 487.872C347.778 483.814 344.138 479.367 341.221 475.577C338.334 471.753 336.173 468.524 334.665 466.306C333.927 465.216 333.347 464.359 332.932 463.746C332.744 463.474 332.592 463.256 332.474 463.086C332.368 462.939 332.311 462.866 332.303 462.87Z" fill="#375A64"/>
<path d="M367.843 497.099C367.843 499.275 369.607 501.04 371.784 501.04C373.961 501.04 375.726 499.275 375.726 497.099C375.726 494.922 373.961 493.157 371.784 493.157C369.607 493.157 367.843 494.922 367.843 497.099Z" fill="#375A64"/>
<path d="M344.782 448.917C346.431 447.39 348.75 446.825 350.986 446.603C356.381 446.068 362.316 447.19 367.03 449.866C371.744 452.543 375.212 457.001 377.517 461.907L374.42 465.148C373.155 460.047 370.329 455.606 365.945 452.708C361.56 449.81 356.901 448.482 351.712 449.316C350.519 449.508 348.833 449.953 347.844 450.646C345.819 452.064 345.507 453.711 345.865 455.813C346.394 458.92 347.175 460.272 348.506 461.939C346.226 461.992 345.694 462.005 343.414 462.058C342.838 459.813 342.259 457.533 342.3 455.214C342.341 452.895 343.081 450.493 344.782 448.917Z" fill="#1A2E35"/>
<path d="M258.548 508.664H225.99V495.837H258.548V508.664Z" fill="#FAFAFA"/>
<path d="M326.886 496.321H224.633V493.634H326.886V496.321Z" fill="#375A64"/>
<path d="M326.885 510.779H225.106V508.092H326.885V510.779Z" fill="#375A64"/>
<path d="M258.547 494.274L258.701 510.267H326.885V494.274H258.547Z" fill="#375A64"/>
<path d="M275.119 502.254C275.119 504.453 273.469 506.235 271.434 506.235C269.398 506.235 267.748 504.453 267.748 502.254C267.748 500.056 269.398 498.274 271.434 498.274C273.469 498.274 275.119 500.056 275.119 502.254Z" fill="#1A2E35"/>
<path d="M271.433 498.846C269.716 498.846 268.32 500.375 268.32 502.254C268.32 504.133 269.716 505.662 271.433 505.662C273.15 505.662 274.547 504.133 274.547 502.254C274.547 500.375 273.15 498.846 271.433 498.846ZM271.433 506.807C269.086 506.807 267.177 504.764 267.177 502.254C267.177 499.744 269.086 497.703 271.433 497.703C273.781 497.703 275.691 499.744 275.691 502.254C275.691 504.764 273.781 506.807 271.433 506.807Z" fill="#E1E1E1"/>
<path d="M256.101 505.52C256.101 505.684 249.411 505.818 241.161 505.818C232.908 505.818 226.22 505.684 226.22 505.52C226.22 505.355 232.908 505.221 241.161 505.221C249.411 505.221 256.101 505.355 256.101 505.52Z" fill="#1A2E35"/>
<path d="M256.101 503.285C256.101 503.449 249.411 503.583 241.161 503.583C232.908 503.583 226.22 503.449 226.22 503.285C226.22 503.121 232.908 502.987 241.161 502.987C249.411 502.987 256.101 503.121 256.101 503.285Z" fill="#1A2E35"/>
<path d="M256.101 501.051C256.101 501.215 249.411 501.349 241.161 501.349C232.908 501.349 226.22 501.215 226.22 501.051C226.22 500.886 232.908 500.753 241.161 500.753C249.411 500.753 256.101 500.886 256.101 501.051Z" fill="#1A2E35"/>
<path d="M256.101 498.816C256.101 498.981 249.411 499.114 241.161 499.114C232.908 499.114 226.22 498.981 226.22 498.816C226.22 498.652 232.908 498.518 241.161 498.518C249.411 498.518 256.101 498.652 256.101 498.816Z" fill="#1A2E35"/>
<path d="M319.325 506.235H288.599V497.676H319.325V506.235Z" fill="white"/>
<path d="M293.385 505.365C293.221 505.365 293.087 503.838 293.087 501.955C293.087 500.071 293.221 498.545 293.385 498.545C293.549 498.545 293.683 500.071 293.683 501.955C293.683 503.838 293.549 505.365 293.385 505.365Z" fill="#E1E1E1"/>
<path d="M297.448 505.365C297.284 505.365 297.15 503.838 297.15 501.955C297.15 500.071 297.284 498.545 297.448 498.545C297.612 498.545 297.745 500.071 297.745 501.955C297.745 503.838 297.612 505.365 297.448 505.365Z" fill="#E1E1E1"/>
<path d="M301.509 505.365C301.345 505.365 301.211 503.838 301.211 501.955C301.211 500.071 301.345 498.545 301.509 498.545C301.673 498.545 301.806 500.071 301.806 501.955C301.806 503.838 301.673 505.365 301.509 505.365Z" fill="#E1E1E1"/>
<path d="M305.574 505.365C305.409 505.365 305.275 503.838 305.275 501.955C305.275 500.071 305.409 498.545 305.574 498.545C305.738 498.545 305.872 500.071 305.872 501.955C305.872 503.838 305.738 505.365 305.574 505.365Z" fill="#E1E1E1"/>
<path d="M309.636 505.365C309.472 505.365 309.338 503.838 309.338 501.955C309.338 500.071 309.472 498.545 309.636 498.545C309.801 498.545 309.935 500.071 309.935 501.955C309.935 503.838 309.801 505.365 309.636 505.365Z" fill="#E1E1E1"/>
<path d="M313.698 505.365C313.533 505.365 313.399 503.838 313.399 501.955C313.399 500.071 313.533 498.545 313.698 498.545C313.862 498.545 313.996 500.071 313.996 501.955C313.996 503.838 313.862 505.365 313.698 505.365Z" fill="#E1E1E1"/>
<path d="M262.872 525.337H230.314V512.51H262.872V525.337Z" fill="#FAFAFA"/>
<path d="M331.212 512.994H228.959V510.307H331.212V512.994Z" fill="#39D192"/>
<path d="M331.212 527.452H229.433V524.765H331.212V527.452Z" fill="#39D192"/>
<path d="M262.874 510.946L263.028 526.939H331.212V510.946H262.874Z" fill="#39D192"/>
<path d="M279.445 518.927C279.445 521.125 277.795 522.907 275.76 522.907C273.724 522.907 272.074 521.125 272.074 518.927C272.074 516.729 273.724 514.947 275.76 514.947C277.795 514.947 279.445 516.729 279.445 518.927Z" fill="#1A2E35"/>
<path d="M275.76 515.519C274.043 515.519 272.647 517.048 272.647 518.927C272.647 520.806 274.043 522.335 275.76 522.335C277.477 522.335 278.874 520.806 278.874 518.927C278.874 517.048 277.477 515.519 275.76 515.519ZM275.76 523.478C273.412 523.478 271.503 521.437 271.503 518.927C271.503 516.417 273.412 514.375 275.76 514.375C278.108 514.375 280.018 516.417 280.018 518.927C280.018 521.437 278.108 523.478 275.76 523.478Z" fill="#E1E1E1"/>
<path d="M260.427 522.192C260.427 522.357 253.737 522.491 245.487 522.491C237.234 522.491 230.546 522.357 230.546 522.192C230.546 522.028 237.234 521.894 245.487 521.894C253.737 521.894 260.427 522.028 260.427 522.192Z" fill="#1A2E35"/>
<path d="M260.427 519.958C260.427 520.122 253.737 520.256 245.487 520.256C237.234 520.256 230.546 520.122 230.546 519.958C230.546 519.794 237.234 519.66 245.487 519.66C253.737 519.66 260.427 519.794 260.427 519.958Z" fill="#1A2E35"/>
<path d="M260.427 517.723C260.427 517.888 253.737 518.021 245.487 518.021C237.234 518.021 230.546 517.888 230.546 517.723C230.546 517.559 237.234 517.425 245.487 517.425C253.737 517.425 260.427 517.559 260.427 517.723Z" fill="#1A2E35"/>
<path d="M260.427 515.489C260.427 515.653 253.737 515.787 245.487 515.787C237.234 515.787 230.546 515.653 230.546 515.489C230.546 515.324 237.234 515.191 245.487 515.191C253.737 515.191 260.427 515.324 260.427 515.489Z" fill="#1A2E35"/>
<path d="M323.651 522.907H292.925V514.347H323.651V522.907Z" fill="white"/>
<path d="M297.71 522.037C297.546 522.037 297.412 520.511 297.412 518.627C297.412 516.744 297.546 515.217 297.71 515.217C297.874 515.217 298.008 516.744 298.008 518.627C298.008 520.511 297.874 522.037 297.71 522.037Z" fill="#E1E1E1"/>
<path d="M301.774 522.037C301.61 522.037 301.476 520.511 301.476 518.627C301.476 516.744 301.61 515.217 301.774 515.217C301.938 515.217 302.072 516.744 302.072 518.627C302.072 520.511 301.938 522.037 301.774 522.037Z" fill="#E1E1E1"/>
<path d="M305.835 522.037C305.671 522.037 305.537 520.511 305.537 518.627C305.537 516.744 305.671 515.217 305.835 515.217C306 515.217 306.132 516.744 306.132 518.627C306.132 520.511 306 522.037 305.835 522.037Z" fill="#E1E1E1"/>
<path d="M309.899 522.037C309.734 522.037 309.6 520.511 309.6 518.627C309.6 516.744 309.734 515.217 309.899 515.217C310.063 515.217 310.196 516.744 310.196 518.627C310.196 520.511 310.063 522.037 309.899 522.037Z" fill="#E1E1E1"/>
<path d="M313.962 522.037C313.798 522.037 313.664 520.511 313.664 518.627C313.664 516.744 313.798 515.217 313.962 515.217C314.127 515.217 314.26 516.744 314.26 518.627C314.26 520.511 314.127 522.037 313.962 522.037Z" fill="#E1E1E1"/>
<path d="M318.024 522.037C317.86 522.037 317.726 520.511 317.726 518.627C317.726 516.744 317.86 515.217 318.024 515.217C318.188 515.217 318.322 516.744 318.322 518.627C318.322 520.511 318.188 522.037 318.024 522.037Z" fill="#E1E1E1"/>
<path d="M196.372 204.947L187.945 203.26C182.279 206.438 175.592 207.979 168.549 207.252C151.935 205.541 139.115 191.196 139.237 174.495C139.378 155.197 156.057 140.157 175.396 142.162C191.813 143.865 204.545 157.89 204.682 174.394C204.75 182.585 201.832 190.028 196.991 195.772L197.006 195.761L196.372 204.947Z" fill="white"/>
<path d="M196.371 204.947C196.371 204.947 196.372 204.729 196.392 204.326C196.414 203.9 196.447 203.31 196.488 202.548C196.58 200.976 196.714 198.697 196.886 195.752L197.073 195.86C197.073 195.86 197.064 195.866 197.059 195.871C197.004 195.908 196.929 195.896 196.891 195.841C196.86 195.795 196.865 195.735 196.899 195.694C199.471 192.585 202.419 187.905 203.752 181.601C204.427 178.468 204.648 174.97 204.279 171.282C203.881 167.603 202.796 163.75 200.912 160.054C199.014 156.372 196.298 152.868 192.837 149.948C189.381 147.04 185.188 144.655 180.481 143.431C175.799 142.169 170.673 141.95 165.641 142.92C160.598 143.858 155.717 146.181 151.574 149.541C149.43 151.192 147.65 153.218 145.999 155.283C145.253 156.375 144.488 157.454 143.835 158.588L142.924 160.322L142.474 161.189L142.114 162.092C140.095 166.867 139.329 171.992 139.616 176.88C139.88 181.786 141.431 186.407 143.631 190.394C145.849 194.388 148.797 197.749 152.076 200.332C155.368 202.905 158.969 204.712 162.523 205.81C163.425 206.041 164.311 206.269 165.183 206.493C166.059 206.696 166.942 206.784 167.798 206.931C169.514 207.199 171.195 207.249 172.798 207.225C179.253 207.092 184.391 205.079 187.887 203.158C187.911 203.144 187.941 203.14 187.967 203.146C190.646 203.712 192.73 204.152 194.172 204.458C194.869 204.608 195.411 204.727 195.802 204.811C196.172 204.893 196.371 204.947 196.371 204.947C196.371 204.947 196.198 204.926 195.837 204.862C195.45 204.792 194.914 204.693 194.224 204.567C192.759 204.289 190.642 203.889 187.921 203.374L188.001 203.361C184.506 205.342 179.336 207.425 172.807 207.604C171.186 207.639 169.485 207.599 167.745 207.338C166.879 207.194 165.982 207.109 165.094 206.908C164.21 206.685 163.31 206.459 162.396 206.229C158.785 205.136 155.124 203.318 151.773 200.719C148.436 198.111 145.43 194.707 143.164 190.654C140.917 186.609 139.331 181.911 139.052 176.918C138.75 171.945 139.523 166.729 141.575 161.864L141.941 160.944L142.399 160.062C142.706 159.475 143.016 158.886 143.326 158.295C143.989 157.14 144.766 156.04 145.527 154.93C147.205 152.825 149.019 150.763 151.201 149.082C155.419 145.66 160.392 143.297 165.528 142.346C170.652 141.362 175.866 141.592 180.631 142.884C185.42 144.139 189.679 146.575 193.182 149.54C196.692 152.518 199.439 156.085 201.352 159.831C203.25 163.589 204.334 167.503 204.72 171.236C205.075 174.976 204.83 178.517 204.127 181.683C202.735 188.053 199.712 192.752 197.082 195.85L196.922 195.673C196.928 195.669 196.937 195.662 196.937 195.662C196.992 195.625 197.066 195.637 197.104 195.692C197.121 195.715 197.127 195.743 197.126 195.769C196.889 198.741 196.707 201.042 196.582 202.629C196.518 203.377 196.469 203.957 196.433 204.374C196.399 204.762 196.371 204.947 196.371 204.947Z" fill="#1A2E35"/>
<path d="M157.449 176.824L161.549 172.436L169.98 179.433L185.52 163.427L189.604 167.536L169.652 187.638L157.449 176.824Z" fill="#39D192"/>
<path d="M423.666 149.945H397.029L319.301 196.726C319.591 197.163 328.767 203.798 340.75 212.366L228.191 419.617L133.989 378.013L50.5789 527.928H96.1561L153.629 422.944L240.076 462.99L276.72 467.363L375.917 237.381C388.382 246.217 397.958 252.983 397.958 252.983H424.594C424.594 252.983 416.826 187.787 416.826 187.269C416.826 186.751 423.666 149.945 423.666 149.945Z" fill="#39D192"/>
<g opacity="0.300003">
<path d="M423.665 149.945H397.028L319.3 196.726C319.59 197.163 328.766 203.798 340.749 212.366L228.19 419.617L133.988 378.013L50.5779 527.928H96.1551L153.628 422.944L240.075 462.99L276.719 467.363L375.916 237.381C388.381 246.217 397.957 252.983 397.957 252.983H424.593C424.593 252.983 416.825 187.787 416.825 187.269C416.825 186.751 423.665 149.945 423.665 149.945Z" fill="black"/>
</g>
<path d="M77.5457 527.928L161.29 376.729L255.158 419.617L376.212 196.726L412.254 215.661L276.72 467.363L180.596 422.944L123.123 527.928H77.5457Z" fill="#39D192"/>
<path d="M345.938 196.726C346.795 198.013 424.595 252.983 424.595 252.983L423.666 149.946L345.938 196.726Z" fill="#39D192"/>
<path d="M345.937 196.726C345.937 196.877 339.974 196.998 332.619 196.998C325.262 196.998 319.3 196.877 319.3 196.726C319.3 196.575 325.262 196.454 332.619 196.454C339.974 196.454 345.937 196.575 345.937 196.726Z" fill="#1A2E35"/>
<path d="M366.747 212.801C366.747 212.952 360.784 213.074 353.43 213.073C346.073 213.073 340.11 212.952 340.11 212.801C340.11 212.65 346.073 212.529 353.43 212.529C360.784 212.529 366.747 212.65 366.747 212.801Z" fill="#1A2E35"/>
<path d="M166.696 306.123C166.696 306.123 165.08 306.826 164.827 304.669C164.574 302.51 169.072 298.017 170.511 296.59C171.95 295.163 174.005 295.469 175.829 295.875C177.654 296.282 185.122 297.035 187.599 298.626C190.077 300.217 193.87 308.195 194.661 308.573C195.452 308.951 218.749 310.166 218.749 310.166L217.747 329.26C217.747 329.26 194.881 324.903 190.352 322.071C185.824 319.238 186.418 318.111 185.131 315.469C183.844 312.827 182.462 310.02 182.462 310.02L180.321 309.666L176.889 311.561C176.889 311.561 176.484 316.407 173.088 316.284L171.423 315.407C171.423 315.407 170.313 316.691 169.048 314.707C167.783 312.722 168.023 312.351 168.023 312.351C168.023 312.351 166.691 313.997 165.252 311.955C163.815 309.913 166.696 306.123 166.696 306.123Z" fill="#C17560"/>
<path d="M191.796 314.229C191.799 314.244 191.713 314.27 191.543 314.308C191.375 314.35 191.118 314.381 190.784 314.383C190.119 314.39 189.114 314.227 188.042 313.604C186.975 312.997 185.857 311.908 185.139 310.383C184.399 308.872 184.037 307.009 183.934 305.034L184.303 305.259C182.772 305.969 180.967 306.423 179.079 306.489C177.752 306.54 176.453 306.392 175.239 306.085C174.659 305.915 173.988 305.825 173.483 305.27C173.213 305.006 173.15 304.457 173.423 304.145C173.672 303.837 173.986 303.727 174.247 303.616C176.344 302.766 178.271 302.105 179.906 301.606C181.541 301.106 182.883 300.769 183.814 300.557C184.747 300.347 185.269 300.264 185.277 300.298C185.285 300.336 184.781 300.491 183.868 300.762C182.955 301.037 181.635 301.428 180.024 301.973C178.412 302.516 176.51 303.211 174.438 304.08C174.185 304.183 173.945 304.301 173.832 304.453C173.726 304.603 173.732 304.767 173.879 304.932C174.183 305.288 174.789 305.415 175.369 305.568C176.535 305.855 177.784 305.993 179.059 305.945C180.874 305.881 182.609 305.452 184.086 304.784L184.439 304.624L184.456 305.009C184.54 306.943 184.868 308.74 185.544 310.192C186.2 311.658 187.218 312.702 188.213 313.321C189.208 313.951 190.152 314.159 190.79 314.207C191.435 314.253 191.789 314.187 191.796 314.229Z" fill="#7C4236"/>
<path d="M180.001 301.136C180.045 301.191 179.214 301.64 177.801 301.564C177.108 301.555 176.29 301.438 175.426 301.496C174.545 301.534 173.722 301.909 173.042 302.695C171.626 304.275 169.933 305.32 168.659 305.853C167.373 306.395 166.512 306.506 166.499 306.445C166.474 306.36 167.29 306.118 168.494 305.503C169.7 304.89 171.263 303.861 172.649 302.316C173.016 301.937 173.424 301.55 173.924 301.33C174.412 301.099 174.926 301.014 175.398 300.995C176.347 300.963 177.152 301.124 177.825 301.179C179.174 301.349 179.969 301.057 180.001 301.136Z" fill="#7C4236"/>
<path d="M175.2 306.223C175.328 306.266 174.385 308.413 172.231 310.246C170.091 312.098 167.827 312.703 167.804 312.571C167.739 312.415 169.831 311.609 171.876 309.833C173.941 308.081 175.057 306.136 175.2 306.223Z" fill="#7C4236"/>
<path d="M176.039 309.152C176.175 309.166 175.868 311.046 174.505 312.892C173.157 314.75 171.458 315.612 171.402 315.485C171.309 315.349 172.793 314.33 174.064 312.57C175.357 310.827 175.881 309.105 176.039 309.152Z" fill="#7C4236"/>
<path d="M246.402 268.91L225.554 306.528L193.197 305.971L190.764 325.403L224.155 333.589L237.904 318.494L246.402 268.91Z" fill="#E1E1E1"/>
<path d="M228.156 312.911C227.995 312.925 227.793 311.379 227.071 309.632C226.366 307.877 225.428 306.63 225.554 306.528C225.652 306.428 226.829 307.577 227.575 309.426C228.335 311.269 228.295 312.914 228.156 312.911Z" fill="#1A2E35"/>
<path d="M254.329 202.326C251.692 202.677 248.944 200.784 248.331 198.195C247.718 195.606 249.324 192.682 251.838 191.812C250.163 190.156 249.701 187.402 250.744 185.29C251.786 183.18 254.256 181.873 256.588 182.197C256.642 179.873 257.989 177.622 260.011 176.474C262.033 175.327 264.658 175.326 266.68 176.473C269.207 174.224 273.344 174.065 276.035 176.113C278.285 175.655 280.768 176.812 281.864 178.828C282.962 180.845 282.582 183.558 280.975 185.197" fill="#1A2E35"/>
<path d="M277.302 181.451L276.109 181.474C264.103 181.706 254.289 191.117 253.556 203.103C252.873 214.25 252.263 226.574 252.453 232.544C252.845 244.904 265.248 246.588 265.248 246.588L264.489 261.461L265.956 272.798L294.478 259.95L296.088 206.028C296.946 193.17 290.178 181.953 277.302 181.451Z" fill="#C17560"/>
<path d="M265.145 246.571C265.145 246.571 273.049 246.894 281.253 241.517C281.253 241.517 277.421 251.089 265.062 250.215L265.145 246.571Z" fill="#7C4236"/>
<path d="M257.568 215.704C257.554 216.638 258.331 217.419 259.305 217.453C260.277 217.486 261.08 216.759 261.094 215.826C261.109 214.892 260.332 214.11 259.36 214.076C258.385 214.043 257.583 214.772 257.568 215.704Z" fill="#1A2E35"/>
<path d="M256.331 209.1C256.553 209.326 257.872 208.31 259.772 208.278C261.67 208.219 263.082 209.17 263.284 208.933C263.384 208.828 263.152 208.417 262.537 207.987C261.931 207.558 260.903 207.149 259.72 207.178C258.536 207.207 257.549 207.662 256.986 208.119C256.41 208.579 256.221 208.998 256.331 209.1Z" fill="#1A2E35"/>
<path d="M273.658 215.31C273.644 216.242 274.421 217.024 275.395 217.057C276.367 217.091 277.17 216.364 277.184 215.43C277.199 214.498 276.422 213.715 275.449 213.682C274.475 213.647 273.673 214.376 273.658 215.31Z" fill="#1A2E35"/>
<path d="M275.012 209.092C275.236 209.318 276.556 208.302 278.455 208.271C280.352 208.212 281.765 209.162 281.967 208.926C282.066 208.821 281.837 208.409 281.219 207.979C280.613 207.551 279.586 207.143 278.402 207.17C277.219 207.199 276.231 207.655 275.667 208.112C275.094 208.571 274.904 208.992 275.012 209.092Z" fill="#1A2E35"/>
<path d="M268.389 223.316C268.397 223.207 267.211 223.026 265.293 222.819C264.807 222.778 264.345 222.691 264.258 222.361C264.137 222.014 264.33 221.486 264.554 220.917C264.987 219.735 265.441 218.495 265.917 217.194C267.808 211.897 269.166 207.544 268.952 207.47C268.738 207.396 267.031 211.63 265.142 216.928C264.687 218.234 264.252 219.479 263.839 220.67C263.666 221.226 263.363 221.857 263.625 222.58C263.762 222.94 264.123 223.196 264.435 223.273C264.748 223.362 265.021 223.362 265.262 223.372C267.189 223.439 268.384 223.424 268.389 223.316Z" fill="#1A2E35"/>
<path d="M273.221 201.814C273.481 202.291 275.099 201.738 277.103 201.633C279.104 201.485 280.8 201.83 280.973 201.326C281.048 201.086 280.684 200.66 279.954 200.289C279.23 199.916 278.135 199.639 276.934 199.714C275.733 199.791 274.699 200.202 274.048 200.661C273.392 201.12 273.105 201.586 273.221 201.814Z" fill="#1A2E35"/>
<path d="M256.086 201.267C256.495 201.691 258.054 201.213 259.94 201.155C261.823 201.042 263.427 201.377 263.786 200.919C263.943 200.697 263.683 200.269 262.978 199.875C262.282 199.48 261.126 199.171 259.831 199.228C258.535 199.288 257.42 199.7 256.773 200.155C256.115 200.611 255.905 201.06 256.086 201.267Z" fill="#1A2E35"/>
<path d="M254.634 197.41C254.634 197.41 257.745 189.604 261.444 187.725C265.921 185.45 267.962 190.373 272.247 189.086C276.531 187.798 280.805 185.616 285.27 188.86C290.16 192.411 287.952 195.011 288.356 200.492C289.993 222.708 294.177 228.919 295.129 218.422C295.233 217.271 298.401 216.296 298.778 211.438C299.269 205.139 299.363 197.5 297.873 193.064C296.617 189.327 294.422 186.77 290.522 183.979C284.364 179.574 276.024 179.639 270.373 180.318C264.722 180.997 253.93 187.725 254.634 197.41Z" fill="#1A2E35"/>
<path d="M294.333 218.1C294.374 216.191 295.989 214.651 297.893 214.796C300.204 214.971 302.794 216.23 302.735 220.997C302.629 229.456 294.159 227.604 294.148 227.361C294.14 227.197 294.256 221.639 294.333 218.1Z" fill="#C17560"/>
<path d="M296.029 224.202C296.066 224.176 296.175 224.308 296.422 224.424C296.664 224.539 297.08 224.621 297.524 224.461C298.421 224.145 299.192 222.735 299.251 221.212C299.283 220.443 299.131 219.707 298.865 219.097C298.615 218.475 298.221 218.037 297.772 217.953C297.325 217.843 297.004 218.108 296.897 218.345C296.781 218.58 296.832 218.75 296.787 218.763C296.763 218.784 296.607 218.619 296.679 218.271C296.717 218.103 296.819 217.905 297.019 217.745C297.224 217.583 297.524 217.503 297.837 217.54C298.488 217.594 299.068 218.201 299.359 218.871C299.686 219.544 299.876 220.371 299.84 221.234C299.765 222.938 298.872 224.522 297.645 224.86C297.049 225.008 296.555 224.822 296.301 224.62C296.041 224.407 295.999 224.217 296.029 224.202Z" fill="#7C4236"/>
<path d="M293.851 201.727C292.768 202.497 291.624 203.293 290.303 203.449C288.983 203.606 287.456 202.876 287.207 201.57C287.095 200.983 287.226 200.298 286.83 199.851C286.359 199.317 285.51 199.504 284.804 199.592C282.351 199.9 279.427 197.241 278.755 194.863C278.147 195.814 276.78 196.124 275.819 195.531C274.859 194.937 274.506 194.595 273.747 193.76C272.988 192.924 271.932 192.185 270.818 192.365C270.194 192.466 269.617 192.849 268.988 192.805C267.876 192.729 267.308 191.439 267.119 190.34C266.93 189.242 266.774 187.96 265.823 187.379C264.941 186.841 263.818 187.183 262.799 187.354C261.78 187.524 260.456 187.31 260.175 186.316C260.027 185.794 260.242 185.238 260.523 184.775C261.8 182.678 264.652 181.702 266.945 182.577C267.718 179.769 270.288 177.545 273.179 177.183C276.07 176.821 279.109 178.343 280.549 180.875C282.305 179.22 284.887 178.489 287.249 178.98C289.612 179.471 291.69 181.17 292.64 183.388C294.685 182.808 297.045 183.557 298.38 185.212C299.715 186.867 299.948 189.331 298.948 191.207C300.484 192.046 301.814 193.531 301.878 195.28C301.944 197.029 300.273 198.805 298.576 198.377C299.285 199.726 298.766 201.586 297.461 202.373C296.155 203.158 294.269 202.75 293.408 201.494" fill="#1A2E35"/>
<path d="M266.365 185.077C266.358 185.078 266.36 185.13 266.371 185.232C266.383 185.333 266.393 185.486 266.433 185.682C266.518 186.071 266.687 186.646 267.078 187.299C267.472 187.942 268.078 188.681 268.991 189.261C269.886 189.847 271.106 190.282 272.473 190.181L272.326 189.997C272.077 190.725 272.166 191.591 272.541 192.327C272.896 193.076 273.446 193.736 274.028 194.378C274.325 194.685 274.584 195.049 274.992 195.33C275.389 195.599 275.86 195.749 276.341 195.801C277.297 195.904 278.367 195.588 279.043 194.773L278.725 194.688C278.972 196.364 279.961 198.027 281.499 199.023C282.313 199.588 283.315 199.924 284.292 199.879C285.271 199.85 286.174 199.545 287.016 199.225L286.788 199.13C287.263 200.172 287.978 201.055 288.839 201.701C289.685 202.345 290.801 202.711 291.799 202.446C293.786 201.984 295.077 200.3 295.314 198.732L295.124 198.825C296.125 199.345 297.188 199.377 298.037 199.196C298.898 199.021 299.569 198.632 300.045 198.253C300.523 197.866 300.803 197.474 300.969 197.202C301.123 196.92 301.185 196.764 301.175 196.76C301.132 196.727 300.907 197.408 299.957 198.14C299.483 198.491 298.826 198.846 297.997 198.994C297.179 199.151 296.172 199.096 295.248 198.597L295.088 198.51L295.057 198.69C294.818 200.153 293.574 201.726 291.731 202.133C290.826 202.363 289.845 202.035 289.043 201.425C288.24 200.817 287.557 199.966 287.116 198.987L287.046 198.832L286.888 198.891C286.059 199.204 285.186 199.49 284.282 199.514C283.378 199.551 282.48 199.252 281.703 198.717C280.25 197.774 279.323 196.219 279.08 194.633L279.019 194.233L278.762 194.548C278.192 195.246 277.236 195.546 276.377 195.455C275.945 195.411 275.526 195.279 275.181 195.047C274.844 194.825 274.573 194.466 274.271 194.156C273.692 193.525 273.157 192.891 272.818 192.194C272.462 191.505 272.382 190.744 272.594 190.086L272.659 189.882L272.447 189.9C271.16 190.012 269.985 189.619 269.112 189.07C268.221 188.53 267.616 187.828 267.213 187.216C266.418 185.952 266.425 185.056 266.365 185.077Z" fill="#375A64"/>
<path d="M268.929 229.809C268.971 229.493 271.058 229.886 272.88 228.384C274.707 226.885 274.897 224.614 275.192 224.654C275.328 224.65 275.503 225.227 275.349 226.171C275.205 227.098 274.652 228.386 273.538 229.307C272.421 230.223 271.12 230.46 270.251 230.368C269.362 230.281 268.889 229.949 268.929 229.809Z" fill="#1A2E35"/>
<path d="M208.677 349.494L224.776 331.738L238.239 291.052C240.988 283.993 243.347 275.032 246.677 268.339C248.315 265.047 251.075 262.451 254.436 260.959L260.152 258.42L263.569 252.965C261.6 265.304 278.893 266.823 297.273 251.504C297.273 251.504 303.346 255.612 311.902 262.709C315.649 265.817 319.046 269.212 320.463 274.341C323.034 283.654 311.983 311.212 299.952 337.137C296.353 344.893 279.211 379.643 279.211 379.643L273.042 384.139C273.042 384.139 218.493 367.61 213.585 358.552L208.677 349.494Z" fill="#E1E1E1"/>
<path d="M217.608 338.907C217.596 338.895 217.753 338.712 218.064 338.375C218.419 338.002 218.878 337.519 219.451 336.917C220.718 335.621 222.478 333.819 224.641 331.604L224.596 331.678C225.604 328.577 226.808 324.872 228.15 320.745C229.536 316.615 230.941 312.029 232.362 307.18C235.112 297.673 237.714 289.075 240.117 283.033C241.283 280.001 242.376 277.608 243.145 275.963C243.533 275.192 243.843 274.571 244.083 274.095C244.302 273.67 244.425 273.451 244.443 273.46C244.46 273.468 244.369 273.702 244.181 274.142C243.967 274.629 243.686 275.263 243.338 276.051C242.631 277.72 241.594 280.129 240.477 283.17C238.172 289.23 235.636 297.821 232.884 307.334C231.465 312.18 230.037 316.784 228.625 320.902C227.24 325.014 225.996 328.707 224.956 331.798L224.941 331.842L224.91 331.872C222.695 334.037 220.894 335.798 219.598 337.064C218.997 337.636 218.513 338.096 218.141 338.451C217.804 338.763 217.621 338.92 217.608 338.907Z" fill="#1A2E35"/>
<path d="M267.691 271.149L248.825 348.493L229.229 358.239V339.318L263.14 269.467L267.691 271.149Z" fill="#39D192"/>
<g opacity="0.300003">
<path d="M231.607 341.53C236.956 343.543 241.773 346.727 246.498 349.943C251.222 353.158 255.945 356.455 261.186 358.733C266.428 361.011 272.302 362.226 277.9 361.071C283.498 359.916 288.725 356.094 290.57 350.684L231.607 341.53Z" fill="black"/>
</g>
<path d="M260.151 258.18L264.973 250.796L266.866 260.913L271.672 255.475L295.516 244.321L299.655 253.185L273.31 268.765L266.003 268.22L260.675 261.897L260.151 258.18Z" fill="#E1E1E1"/>
<path d="M260.152 258.18C260.213 258.174 260.318 258.743 260.513 259.706C260.752 260.86 261.022 262.163 261.321 263.605L260.844 263.533C261.253 262.784 261.69 261.987 262.143 261.157C262.863 259.884 263.537 258.688 264.152 257.602L264.409 257.145L264.58 257.631C265.001 258.836 265.227 259.853 265.417 260.56C265.597 261.267 265.707 261.67 265.659 261.69C265.613 261.708 265.411 261.333 265.153 260.643C264.885 259.959 264.589 258.946 264.138 257.802L264.565 257.831C263.971 258.928 263.317 260.135 262.62 261.421C262.156 262.246 261.713 263.038 261.295 263.782L260.953 264.392L260.818 263.711C260.184 260.52 260.022 258.191 260.152 258.18Z" fill="#1A2E35"/>
<path d="M268.176 261.91L265.141 261.54C264.318 262.464 262.307 264.368 261.485 265.292L261.491 265.377C261.85 267.401 262.21 269.426 262.569 271.449C264.266 271.367 265.972 271.504 267.634 271.857C268.647 270.08 269.412 268.738 270.425 266.962L268.176 261.91Z" fill="#39D192"/>
<path d="M273.356 375.996C273.293 376.051 272.402 375.099 270.907 373.624C269.414 372.147 267.291 370.17 264.795 368.167C262.294 366.167 259.901 364.527 258.134 363.392C256.368 362.257 255.244 361.594 255.285 361.521C255.303 361.488 255.604 361.615 256.136 361.874C256.668 362.129 257.421 362.534 258.335 363.063C260.164 364.12 262.613 365.725 265.135 367.741C267.653 369.762 269.753 371.802 271.184 373.356C271.9 374.132 272.46 374.779 272.825 375.242C273.195 375.705 273.384 375.971 273.356 375.996Z" fill="#1A2E35"/>
<path d="M268.413 262.534L271.783 260.874L272.925 266.773L270.118 267.022L268.413 262.534Z" fill="#39D192"/>
<g opacity="0.300003">
<path d="M271.323 258.498V271.857L296.16 255.452L273.046 268.91L271.323 258.498Z" fill="black"/>
</g>
<path d="M299.655 253.185C299.676 253.216 299.162 253.603 298.211 254.275C297.252 254.934 295.847 255.866 294.063 256.938C290.515 259.12 285.422 261.791 279.933 264.943C277.613 266.289 275.425 267.642 273.455 268.977L273.129 269.198L273.058 268.814C272.304 264.734 271.651 261.195 271.16 258.53L271.439 258.617C270.364 259.619 269.489 260.435 268.817 261.061C268.203 261.62 267.862 261.91 267.84 261.888C267.818 261.865 268.117 261.532 268.692 260.933C269.336 260.279 270.176 259.426 271.207 258.379L271.423 258.158L271.486 258.467C272.024 261.122 272.739 264.649 273.562 268.715L273.165 268.552C275.137 267.193 277.332 265.822 279.66 264.472C285.17 261.308 290.28 258.696 293.868 256.606C295.672 255.58 297.102 254.701 298.095 254.097C299.078 253.481 299.634 253.154 299.655 253.185Z" fill="#1A2E35"/>
<path d="M265.176 262.669L263.784 259.258L261.485 263.482L262.469 265.013L265.176 262.669Z" fill="#39D192"/>
<path d="M268.984 262.175C269.102 262.284 267.439 264.206 265.652 266.766C263.854 269.319 262.616 271.537 262.473 271.464C262.346 271.403 263.382 269.043 265.206 266.453C267.019 263.856 268.884 262.076 268.984 262.175Z" fill="#1A2E35"/>
<path d="M267.299 271.958C267.26 272.106 266.121 271.935 264.728 271.703C263.336 271.466 262.202 271.254 262.215 271.102C262.225 270.954 263.399 270.924 264.818 271.165C266.238 271.402 267.337 271.815 267.299 271.958Z" fill="#1A2E35"/>
<path d="M142.094 320.066L126.376 275.64C126.076 274.683 126.662 273.673 127.643 273.46L163.949 263.976C164.856 263.775 165.766 264.294 166.057 265.175L182.577 315.22L233.812 348.873L231.35 351.386L218.243 348.192L142.094 320.066Z" fill="#375A64"/>
<path d="M231.35 351.386C231.345 351.393 231.255 351.344 231.086 351.24C230.891 351.117 230.645 350.962 230.338 350.768C229.655 350.32 228.704 349.699 227.496 348.908C225.005 347.251 221.462 344.89 217.095 341.983C208.315 336.073 196.239 327.945 182.901 318.967C181.972 318.338 181.048 317.714 180.188 317.133L180.111 317.08L180.082 316.993C175.257 302.434 170.934 289.392 167.803 279.945C166.276 275.258 165.04 271.466 164.173 268.805C163.766 267.519 163.446 266.507 163.215 265.779C163.118 265.455 163.041 265.195 162.979 264.989C162.929 264.81 162.907 264.717 162.915 264.714C162.924 264.711 162.962 264.798 163.029 264.971C163.105 265.174 163.199 265.428 163.316 265.744C163.569 266.466 163.921 267.466 164.368 268.74C165.274 271.389 166.564 275.162 168.158 279.825C171.33 289.259 175.71 302.282 180.598 316.821L180.492 316.682C181.353 317.263 182.276 317.887 183.206 318.516C196.51 327.545 208.553 335.72 217.311 341.664C221.636 344.631 225.148 347.04 227.614 348.732C228.798 349.559 229.731 350.21 230.399 350.677C230.694 350.889 230.93 351.059 231.117 351.194C231.276 351.313 231.355 351.378 231.35 351.386Z" fill="#1A2E35"/>
<path d="M148.36 319.118C148.353 318.967 155.493 318.508 164.306 318.091C173.122 317.675 180.273 317.459 180.28 317.61C180.287 317.76 173.148 318.219 164.332 318.635C155.519 319.052 148.367 319.268 148.36 319.118Z" fill="#1A2E35"/>
<path d="M154.149 293.759C154.782 295.775 154.427 297.68 153.355 298.017C152.284 298.353 150.903 296.992 150.27 294.977C149.638 292.962 149.993 291.057 151.064 290.72C152.135 290.384 153.516 291.744 154.149 293.759Z" fill="#E1E1E1"/>
<path d="M198.887 309.602C198.887 309.602 197.531 310.276 197.32 308.113C197.132 306.194 201.738 303.353 203.461 302.288C205.184 301.222 208.82 301.955 210.673 302.196C213.177 302.521 219.014 305.134 220.868 307.36C222.752 309.622 224.044 315.404 224.73 315.951C225.416 316.498 248.614 325.625 248.614 325.625L243.333 344.002C243.333 344.002 222.038 334.602 218.265 330.822C214.492 327.042 215.324 326.077 214.666 323.212C214.008 320.349 213.294 317.304 213.294 317.304L211.289 316.475L207.518 317.548C207.518 317.548 207.058 318.979 206.086 320.098C204.925 321.435 202.823 321.376 201.655 320.046C201.655 320.046 199.742 320.712 198.808 318.551C198.427 317.666 198.702 316.318 198.702 316.318C198.702 316.318 196.986 316.656 196.973 314.52C196.96 312.225 198.887 309.602 198.887 309.602Z" fill="#C17560"/>
<path d="M210.967 312.033C210.964 312.123 210.189 312.095 208.995 312.357C207.811 312.609 206.197 313.229 204.81 314.45C203.422 315.674 202.605 317.197 202.205 318.34C201.795 319.491 201.726 320.265 201.637 320.256C201.578 320.256 201.506 319.459 201.838 318.225C202.157 317.003 202.968 315.348 204.449 314.042C205.93 312.737 207.674 312.141 208.927 311.978C210.193 311.804 210.976 311.975 210.967 312.033Z" fill="#7C4236"/>
<path d="M209.232 308.092C209.222 308.189 208.387 308.049 207.11 308.345C205.84 308.624 204.167 309.444 202.739 310.846C201.311 312.254 200.34 313.833 199.634 314.962C198.935 316.1 198.496 316.808 198.427 316.77C198.364 316.735 198.681 315.967 199.299 314.77C199.925 313.586 200.863 311.932 202.359 310.455C203.86 308.979 205.673 308.162 207.037 307.967C208.41 307.755 209.251 308.043 209.232 308.092Z" fill="#7C4236"/>
<path d="M208.894 303.782C208.884 303.873 208.164 303.774 207.049 303.981C205.935 304.173 204.447 304.749 203.05 305.774C201.651 306.802 200.573 307.985 199.784 308.827C198.998 309.678 198.499 310.2 198.439 310.151C198.383 310.105 198.774 309.499 199.49 308.577C200.21 307.665 201.266 306.41 202.729 305.333C204.194 304.257 205.806 303.7 206.994 303.599C208.19 303.484 208.91 303.726 208.894 303.782Z" fill="#7C4236"/>
<path d="M307.9 262.046C314.422 263.32 318.668 269.052 319.995 276.217C321.878 286.381 298.577 334.419 294.234 344.906C289.66 355.955 279.54 358.37 273.647 358.234C267.754 358.097 226.461 338.729 226.461 338.729L232.515 317.773L269.207 328.667L283.746 287.757" fill="#E1E1E1"/>
<path d="M283.748 287.756C283.748 287.756 283.68 288.008 283.519 288.487C283.349 288.984 283.109 289.69 282.794 290.612C282.138 292.494 281.181 295.238 279.951 298.767C277.453 305.858 273.849 316.091 269.395 328.733L269.332 328.911L269.151 328.857C258.606 325.742 246.144 322.06 232.445 318.013L232.755 317.842C230.825 324.544 228.805 331.552 226.716 338.802L226.574 338.49C236.212 342.965 246.528 347.661 257.281 352.185C261.648 353.997 265.975 355.802 270.348 357.194L271.992 357.666C272.539 357.808 273.083 357.855 273.626 357.959C274.753 357.976 275.882 357.922 276.994 357.77C279.222 357.495 281.383 356.861 283.391 355.957C287.411 354.146 290.738 351.05 292.761 347.312C293.788 345.466 294.54 343.463 295.411 341.547C296.272 339.63 297.125 337.737 297.966 335.865C304.745 320.926 310.755 307.419 315.065 295.789C317.186 289.976 319.024 284.637 319.771 279.783C319.928 278.572 320.026 277.384 319.86 276.275C319.644 275.159 319.395 274.089 319.056 273.096C318.404 271.1 317.533 269.371 316.549 267.955C314.572 265.097 312.184 263.636 310.536 262.919C309.701 262.563 309.037 262.347 308.583 262.24C308.131 262.121 307.902 262.046 307.902 262.046C307.902 262.046 308.139 262.083 308.597 262.186C309.056 262.275 309.73 262.476 310.579 262.819C312.254 263.507 314.694 264.956 316.722 267.833C317.732 269.257 318.628 271.001 319.303 273.014C319.653 274.017 319.912 275.096 320.139 276.225C320.319 277.39 320.224 278.595 320.073 279.824C319.346 284.737 317.528 290.087 315.427 295.922C311.156 307.588 305.179 321.119 298.424 336.072C297.585 337.943 296.737 339.838 295.879 341.754C295.014 343.662 294.272 345.656 293.215 347.567C291.152 351.393 287.732 354.585 283.612 356.444C281.554 357.372 279.343 358.021 277.064 358.305C275.926 358.46 274.772 358.516 273.611 358.499C273.031 358.396 272.426 358.338 271.863 358.192L270.188 357.713C265.769 356.307 261.447 354.503 257.07 352.688C246.305 348.158 235.99 343.456 226.351 338.968L226.146 338.873L226.208 338.655C228.307 331.409 230.336 324.402 232.277 317.704L232.347 317.462L232.587 317.534C246.274 321.618 258.728 325.333 269.264 328.477L269.021 328.6C273.544 315.983 277.206 305.77 279.744 298.694C281.017 295.18 282.007 292.448 282.686 290.574C283.024 289.661 283.282 288.96 283.464 288.468C283.643 287.994 283.748 287.756 283.748 287.756Z" fill="#1A2E35"/>
<path d="M275.064 344.038C274.895 344.068 274.333 340.388 272.698 336.139C271.09 331.878 269.062 328.757 269.208 328.666C269.265 328.63 269.844 329.361 270.631 330.649C271.418 331.934 272.384 333.79 273.207 335.945C274.026 338.1 274.54 340.129 274.808 341.611C275.077 343.095 275.131 344.028 275.064 344.038Z" fill="#1A2E35"/>
<path d="M305.361 262.136C305.394 262.231 304.011 262.675 301.937 263.724C300.896 264.241 299.705 264.947 298.439 265.81C297.188 266.694 295.869 267.749 294.598 268.978C293.338 270.222 292.253 271.516 291.34 272.747C290.447 273.992 289.714 275.167 289.173 276.196C288.077 278.246 287.6 279.616 287.506 279.583C287.471 279.57 287.566 279.221 287.769 278.594C287.96 277.965 288.319 277.08 288.831 276.02C289.335 274.954 290.045 273.739 290.932 272.454C291.839 271.185 292.933 269.856 294.217 268.589C295.512 267.336 296.866 266.273 298.156 265.396C299.46 264.539 300.692 263.857 301.768 263.378C302.841 262.891 303.734 262.552 304.367 262.374C304.998 262.186 305.35 262.1 305.361 262.136Z" fill="#1A2E35"/>
<path d="M76.4241 412.846L56.5945 388.064C56.5945 388.064 133.303 324.868 140.555 320.355C146.047 316.937 157.21 312.398 167.779 315.948C178.346 319.5 196.236 331.86 202.83 335.869C209.425 339.879 266.836 375.438 273.042 384.139C273.042 384.139 260.551 406.736 252.371 410.523C245.963 413.491 227.495 409.062 216.703 402.501C205.912 395.941 156.402 353.54 156.402 353.54L76.4241 412.846Z" fill="#1A2E35"/>
<path d="M83.8132 441.898L110.603 461.142L162.158 377.125L214.212 400.844L179.21 342.363C179.21 342.363 150.98 342.693 146.543 342.195C140.852 341.555 130.46 350.539 124.786 361.508C119.855 371.041 83.8132 441.898 83.8132 441.898Z" fill="#1A2E35"/>
<path d="M197.36 393.919C197.253 394.024 185.496 382.031 171.107 367.136C156.712 352.235 145.136 340.075 145.244 339.97C145.351 339.866 157.105 351.856 171.499 366.757C185.889 381.652 197.468 393.814 197.36 393.919Z" fill="#375A64"/>
<g opacity="0.300003">
<path d="M98.8623 396.207C98.8623 396.207 121.929 353.094 132.794 350.224C132.794 350.224 117.076 371.525 111.815 386.602L98.8623 396.207Z" fill="black"/>
</g>
<path d="M150.156 345.075C150.136 345.149 149.109 344.662 147.127 344.497C145.164 344.304 142.211 344.645 139.027 346.22C135.822 347.759 132.668 350.718 129.892 354.506C127.131 358.315 124.357 362.718 121.707 367.466C116.474 377.022 112.437 386.049 109.219 392.433C107.637 395.64 106.284 398.199 105.338 399.961C104.869 400.797 104.496 401.466 104.212 401.97C103.95 402.427 103.803 402.662 103.788 402.653C103.771 402.644 103.884 402.391 104.116 401.918C104.376 401.402 104.72 400.719 105.151 399.863C106.038 398.073 107.336 395.491 108.873 392.265C112 385.843 115.979 376.791 121.229 367.201C123.895 362.429 126.683 358.031 129.489 354.204C132.312 350.399 135.561 347.401 138.858 345.874C142.13 344.31 145.155 344.025 147.148 344.285C149.159 344.521 150.156 345.075 150.156 345.075Z" fill="#375A64"/>
<path d="M96.959 426.29L82.2845 453.333C82.2845 453.333 49.5695 449.468 46.6628 454.387L99.8238 481.566L121.887 438.951L96.959 426.29Z" fill="#1A2E35"/>
<path d="M99.9009 459.434C102.066 461.389 99.179 464.84 96.9211 462.939C94.5104 460.764 97.9527 457.253 100.064 459.603" fill="#E1E1E1"/>
<path d="M99.8234 481.566L101.879 477.183L50.1405 452.763C50.1405 452.763 47.2474 452.583 46.6636 454.387L99.8234 481.566Z" fill="#375A64"/>
<path d="M81.561 452.622C81.4364 452.886 82.6742 453.667 83.5249 455.155C84.4142 456.621 84.4979 458.082 84.7899 458.102C86.2735 457.2 83.0614 451.757 81.561 452.622Z" fill="white"/>
<path d="M74.8057 452.077C74.6174 452.299 75.5162 453.315 75.8374 454.864C76.2025 456.403 75.8175 457.703 76.0833 457.824C77.7866 457.475 76.4913 451.668 74.8057 452.077Z" fill="white"/>
<path d="M68.2263 457.132C69.6598 457.317 69.8732 451.562 68.4335 451.645C68.5015 451.82 68.3037 456.965 68.2263 457.132Z" fill="white"/>
<path d="M85.2324 446.596C85.4197 446.587 90.5058 449.577 90.5833 449.733C91.4015 448.515 85.8906 445.287 85.2324 446.596Z" fill="white"/>
<path d="M77.0002 378.086L51.8542 395.816C51.8542 395.816 24.2473 377.842 19.4604 380.962L55.0517 428.898L92.7691 399.205L77.0002 378.086Z" fill="#1A2E35"/>
<path d="M64.938 409.097C66.0115 411.809 61.8932 413.622 60.713 410.916C59.5171 407.898 64.1595 406.278 65.0102 409.32" fill="#E1E1E1"/>
<path d="M55.0517 428.899L58.8383 425.882L23.2973 381.049C23.2973 381.049 20.784 379.604 19.4604 380.961L55.0517 428.899Z" fill="#375A64"/>
<path d="M51.5214 394.858C51.2933 395.04 52.056 396.289 52.1586 397.999C52.305 399.707 51.7327 401.054 51.9849 401.201C53.7155 401.051 53.2499 394.748 51.5214 394.858Z" fill="white"/>
<path d="M45.7092 391.374C45.4424 391.489 45.7971 392.798 45.3974 394.329C45.0427 395.87 44.1209 396.865 44.3051 397.091C45.9865 397.533 47.4011 391.755 45.7092 391.374Z" fill="white"/>
<path d="M37.571 392.986C38.7733 393.789 41.5167 388.725 40.19 388.16C40.1732 388.348 37.7144 392.872 37.571 392.986Z" fill="white"/>
<g opacity="0.300003">
<path d="M193.423 389.843C193.423 389.843 164.105 367.525 157.115 358.922C150.218 350.436 146.542 342.195 146.542 342.195L193.423 389.843Z" fill="black"/>
</g>
<path d="M246.454 38.3076C249.928 24.3748 241.45 10.2638 227.517 6.78997C213.584 3.31612 199.473 11.7948 195.999 25.7277C207.294 28.5438 235.16 35.4915 246.454 38.3076Z" fill="#39D192" fill-opacity="0.2"/>
</svg>
