<svg width="315" height="178" viewBox="0 0 315 178" fill="none" xmlns="http://www.w3.org/2000/svg">
<path d="M195.745 44.2305V47.1792H297.655V44.2305H195.745Z" fill="#D7D7D7"/>
<path d="M215.328 42.6058H200.545C200.206 42.6058 199.919 42.3523 199.872 42.0142L198.604 32.1587H217.259L215.992 42.0142C215.959 42.357 215.667 42.6058 215.328 42.6058Z" fill="#D7D7D7"/>
<path d="M217.877 32.309H197.997C197.79 32.309 197.625 32.1446 197.625 31.938V31.1962C197.625 30.9896 197.79 30.8252 197.997 30.8252H217.877C218.084 30.8252 218.249 30.9896 218.249 31.1962V31.938C218.249 32.1399 218.084 32.309 217.877 32.309Z" fill="#B8B9B9"/>
<path d="M211.941 37.3846C211.941 38.5678 210.151 39.5304 207.941 39.5304C205.732 39.5304 203.942 38.5678 203.942 37.3846C203.942 36.2014 205.732 35.2388 207.941 35.2388C210.151 35.2388 211.941 36.1967 211.941 37.3846Z" fill="#B8B9B9"/>
<path d="M240.522 42.6058H225.739C225.4 42.6058 225.108 42.3523 225.065 42.0142L223.798 32.1587H242.453L241.186 42.0142C241.148 42.357 240.861 42.6058 240.522 42.6058Z" fill="#D7D7D7"/>
<path d="M243.07 32.309H223.19C222.983 32.309 222.818 32.1446 222.818 31.938V31.1962C222.818 30.9896 222.983 30.8252 223.19 30.8252H243.07C243.277 30.8252 243.442 30.9896 243.442 31.1962V31.938C243.442 32.1399 243.277 32.309 243.07 32.309Z" fill="#B8B9B9"/>
<path d="M237.13 37.3846C237.13 38.5678 235.34 39.5304 233.13 39.5304C230.921 39.5304 229.131 38.5678 229.131 37.3846C229.131 36.2014 230.921 35.2388 233.13 35.2388C235.34 35.2388 237.13 36.1967 237.13 37.3846Z" fill="#B8B9B9"/>
<path d="M265.715 42.6058H250.933C250.593 42.6058 250.301 42.3523 250.259 42.0142L248.992 32.1587H267.647L266.379 42.0142C266.342 42.357 266.054 42.6058 265.715 42.6058Z" fill="#D7D7D7"/>
<path d="M268.264 32.309H248.384C248.177 32.309 248.012 32.1446 248.012 31.938V31.1962C248.012 30.9896 248.177 30.8252 248.384 30.8252H268.264C268.471 30.8252 268.636 30.9896 268.636 31.1962V31.938C268.636 32.1399 268.471 32.309 268.264 32.309Z" fill="#B8B9B9"/>
<path d="M262.323 37.3846C262.323 38.5678 260.533 39.5304 258.324 39.5304C256.114 39.5304 254.324 38.5678 254.324 37.3846C254.324 36.2014 256.114 35.2388 258.324 35.2388C260.533 35.2388 262.323 36.1967 262.323 37.3846Z" fill="#B8B9B9"/>
<path d="M290.909 42.6058H276.126C275.787 42.6058 275.5 42.3523 275.453 42.0142L274.185 32.1587H292.84L291.573 42.0142C291.535 42.357 291.248 42.6058 290.909 42.6058Z" fill="#D7D7D7"/>
<path d="M293.457 32.309H273.578C273.37 32.309 273.205 32.1446 273.205 31.938V31.1962C273.205 30.9896 273.37 30.8252 273.578 30.8252H293.457C293.665 30.8252 293.829 30.9896 293.829 31.1962V31.938C293.829 32.1399 293.665 32.309 293.457 32.309Z" fill="#B8B9B9"/>
<path d="M287.517 37.3846C287.517 38.5678 285.727 39.5304 283.517 39.5304C281.308 39.5304 279.518 38.5678 279.518 37.3846C279.518 36.2014 281.308 35.2388 283.517 35.2388C285.727 35.2388 287.517 36.1967 287.517 37.3846Z" fill="#B8B9B9"/>
<path d="M227.925 29.196H213.142C212.803 29.196 212.511 28.9424 212.469 28.6043L211.201 18.7488H229.856L228.589 28.6043C228.556 28.9471 228.264 29.196 227.925 29.196Z" fill="#D7D7D7"/>
<path d="M230.473 18.8991H210.594C210.386 18.8991 210.221 18.7347 210.221 18.5282V17.7863C210.221 17.5797 210.386 17.4154 210.594 17.4154H230.473C230.681 17.4154 230.846 17.5797 230.846 17.7863V18.5282C230.846 18.7301 230.681 18.8991 230.473 18.8991Z" fill="#B8B9B9"/>
<path d="M220.533 26.1205C222.742 26.1205 224.533 25.1598 224.533 23.9747C224.533 22.7897 222.742 21.829 220.533 21.829C218.325 21.829 216.534 22.7897 216.534 23.9747C216.534 25.1598 218.325 26.1205 220.533 26.1205Z" fill="#B8B9B9"/>
<path d="M253.118 29.196H238.336C237.997 29.196 237.709 28.9424 237.662 28.6043L236.395 18.7488H255.05L253.783 28.6043C253.745 28.9471 253.458 29.196 253.118 29.196Z" fill="#D7D7D7"/>
<path d="M255.667 18.8991H235.787C235.58 18.8991 235.415 18.7347 235.415 18.5282V17.7863C235.415 17.5797 235.58 17.4154 235.787 17.4154H255.667C255.874 17.4154 256.039 17.5797 256.039 17.7863V18.5282C256.039 18.7301 255.874 18.8991 255.667 18.8991Z" fill="#B8B9B9"/>
<path d="M245.727 26.1205C247.936 26.1205 249.727 25.1598 249.727 23.9747C249.727 22.7897 247.936 21.829 245.727 21.829C243.518 21.829 241.728 22.7897 241.728 23.9747C241.728 25.1598 243.518 26.1205 245.727 26.1205Z" fill="#B8B9B9"/>
<path d="M278.312 29.196H263.529C263.19 29.196 262.898 28.9424 262.856 28.6043L261.588 18.7488H280.243L278.976 28.6043C278.939 28.9471 278.651 29.196 278.312 29.196Z" fill="#D7D7D7"/>
<path d="M280.861 18.8991H260.981C260.773 18.8991 260.609 18.7347 260.609 18.5282V17.7863C260.609 17.5797 260.773 17.4154 260.981 17.4154H280.861C281.068 17.4154 281.233 17.5797 281.233 17.7863V18.5282C281.233 18.7301 281.068 18.8991 280.861 18.8991Z" fill="#B8B9B9"/>
<path d="M270.921 26.1205C273.13 26.1205 274.92 25.1598 274.92 23.9747C274.92 22.7897 273.13 21.829 270.921 21.829C268.712 21.829 266.921 22.7897 266.921 23.9747C266.921 25.1598 268.712 26.1205 270.921 26.1205Z" fill="#B8B9B9"/>
<path d="M88.7099 23.4817H77.9598V42.7138H88.7099V23.4817Z" fill="#D7D7D7"/>
<path d="M87.5981 19.7959H79.0715L77.9598 23.4817H88.7099L87.5981 19.7959Z" fill="#B8B9B9"/>
<path d="M87.5981 17.8145H79.0715V19.7912H87.5981V17.8145Z" fill="#D7D7D7"/>
<path d="M83.3348 35.6614C84.9895 35.6614 86.3309 34.3244 86.3309 32.6752C86.3309 31.0259 84.9895 29.689 83.3348 29.689C81.6801 29.689 80.3387 31.0259 80.3387 32.6752C80.3387 34.3244 81.6801 35.6614 83.3348 35.6614Z" fill="#B8B9B9"/>
<path d="M109.405 23.4817H98.6545V42.7138H109.405V23.4817Z" fill="#D7D7D7"/>
<path d="M108.298 19.7959H99.771L98.6545 23.4817L109.409 23.4818L108.298 19.7959Z" fill="#B8B9B9"/>
<path d="M108.298 17.8145H99.771V19.7912H108.298V17.8145Z" fill="#D7D7D7"/>
<path d="M104.034 35.6614C105.689 35.6614 107.03 34.3244 107.03 32.6752C107.03 31.0259 105.689 29.689 104.034 29.689C102.38 29.689 101.038 31.0259 101.038 32.6752C101.038 34.3244 102.38 35.6614 104.034 35.6614Z" fill="#B8B9B9"/>
<path d="M22.8335 60.0772H12.0833V79.3092H22.8335V60.0772Z" fill="#D7D7D7"/>
<path d="M21.7217 56.3913H13.1951L12.0833 60.0772H22.8335L21.7217 56.3913Z" fill="#B8B9B9"/>
<path d="M21.7217 54.4099H13.1951V56.3866H21.7217V54.4099Z" fill="#D7D7D7"/>
<path d="M17.4584 72.2568C19.1131 72.2568 20.4545 70.9199 20.4545 69.2706C20.4545 67.6214 19.1131 66.2844 17.4584 66.2844C15.8037 66.2844 14.4623 67.6214 14.4623 69.2706C14.4623 70.9199 15.8037 72.2568 17.4584 72.2568Z" fill="#B8B9B9"/>
<path d="M40.2071 60.0772H29.4569V79.3092H40.2071V60.0772Z" fill="#D7D7D7"/>
<path d="M39.0953 56.3913H30.5734L29.4569 60.0772L40.2118 60.0771L39.0953 56.3913Z" fill="#B8B9B9"/>
<path d="M39.1 54.4099H30.5734V56.3866H39.1V54.4099Z" fill="#D7D7D7"/>
<path d="M34.832 72.2568C36.4867 72.2568 37.8281 70.9199 37.8281 69.2706C37.8281 67.6214 36.4867 66.2844 34.832 66.2844C33.1773 66.2844 31.8359 67.6214 31.8359 69.2706C31.8359 70.9199 33.1773 72.2568 34.832 72.2568Z" fill="#B8B9B9"/>
<path d="M57.5854 60.0772H46.8352V79.3092H57.5854V60.0772Z" fill="#D7D7D7"/>
<path d="M56.4736 56.3913H47.947L46.8352 60.0772H57.5854L56.4736 56.3913Z" fill="#B8B9B9"/>
<path d="M56.4736 54.4099H47.947V56.3866H56.4736V54.4099Z" fill="#D7D7D7"/>
<path d="M52.2103 72.2568C53.865 72.2568 55.2064 70.9199 55.2064 69.2706C55.2064 67.6214 53.865 66.2844 52.2103 66.2844C50.5556 66.2844 49.2142 67.6214 49.2142 69.2706C49.2142 70.9199 50.5556 72.2568 52.2103 72.2568Z" fill="#B8B9B9"/>
<path d="M130.104 23.4817H119.354V42.7138H130.104V23.4817Z" fill="#D7D7D7"/>
<path d="M128.992 19.7959H120.466L119.354 23.4817H130.104L128.992 19.7959Z" fill="#B8B9B9"/>
<path d="M128.992 17.8145H120.466V19.7912H128.992V17.8145Z" fill="#D7D7D7"/>
<path d="M124.729 35.6614C126.384 35.6614 127.725 34.3244 127.725 32.6752C127.725 31.0259 126.384 29.689 124.729 29.689C123.074 29.689 121.733 31.0259 121.733 32.6752C121.733 34.3244 123.074 35.6614 124.729 35.6614Z" fill="#B8B9B9"/>
<path d="M150.804 23.4817H140.053V42.7138H150.804V23.4817Z" fill="#D7D7D7"/>
<path d="M149.692 19.7959H141.165L140.053 23.4817H150.804L149.692 19.7959Z" fill="#B8B9B9"/>
<path d="M149.692 17.8145H141.165V19.7912H149.692V17.8145Z" fill="#D7D7D7"/>
<path d="M145.428 35.6614C147.083 35.6614 148.425 34.3244 148.425 32.6752C148.425 31.0259 147.083 29.689 145.428 29.689C143.774 29.689 142.432 31.0259 142.432 32.6752C142.432 34.3244 143.774 35.6614 145.428 35.6614Z" fill="#B8B9B9"/>
<path d="M171.503 23.4817H160.753V42.7138H171.503V23.4817Z" fill="#D7D7D7"/>
<path d="M170.391 19.7959H161.865L160.753 23.4817H171.503L170.391 19.7959Z" fill="#B8B9B9"/>
<path d="M170.391 17.8145H161.865V19.7912H170.391V17.8145Z" fill="#D7D7D7"/>
<path d="M166.128 35.6614C167.783 35.6614 169.124 34.3244 169.124 32.6752C169.124 31.0259 167.783 29.689 166.128 29.689C164.473 29.689 163.132 31.0259 163.132 32.6752C163.132 34.3244 164.473 35.6614 166.128 35.6614Z" fill="#B8B9B9"/>
<path d="M74.6575 8.63509H73.0982V157.087H74.6575V8.63509Z" fill="#D7D7D7"/>
<path d="M178.131 8.63509H176.572V157.087H178.131V8.63509Z" fill="#D7D7D7"/>
<path d="M74.6609 8.63551V11.2743H176.571V8.63551H74.6609Z" fill="#D7D7D7"/>
<path d="M74.6569 154.448V157.087H176.567V154.448H74.6569Z" fill="#D7D7D7"/>
<path d="M9.07781 8.63509H7.51852V157.087H9.07781V8.63509Z" fill="#D7D7D7"/>
<path d="M64.0675 8.63509H62.5082V157.087H64.0675V8.63509Z" fill="#D7D7D7"/>
<path d="M9.07766 8.63663V11.2754H62.5081V8.63663H9.07766Z" fill="#D7D7D7"/>
<path d="M9.07841 154.449V157.088H62.5088V154.449H9.07841Z" fill="#D7D7D7"/>
<path d="M74.6572 44.2298V47.1785H176.567V44.2298H74.6572Z" fill="#D7D7D7"/>
<path d="M74.6606 80.695V83.6437H176.57V80.695H74.6606Z" fill="#D7D7D7"/>
<path d="M88.7099 96.4097H77.9598V115.642H88.7099V96.4097Z" fill="#D7D7D7"/>
<path d="M87.5981 92.7238H79.0715L77.9598 96.4097H88.7099L87.5981 92.7238Z" fill="#B8B9B9"/>
<path d="M87.5981 90.7471H79.0715L79.0715 92.7238H87.5981L87.5981 90.7471Z" fill="#D7D7D7"/>
<path d="M83.3348 108.594C84.9895 108.594 86.3309 107.257 86.3309 105.608C86.3309 103.959 84.9895 102.622 83.3348 102.622C81.6801 102.622 80.3387 103.959 80.3387 105.608C80.3387 107.257 81.6801 108.594 83.3348 108.594Z" fill="#B8B9B9"/>
<path d="M109.405 96.4097H98.6545V115.642H109.405V96.4097Z" fill="#D7D7D7"/>
<path d="M108.298 92.7238H99.771L98.6545 96.4097H109.409L108.298 92.7238Z" fill="#B8B9B9"/>
<path d="M108.298 90.7471H99.771V92.7238H108.298V90.7471Z" fill="#D7D7D7"/>
<path d="M104.034 108.594C105.689 108.594 107.03 107.257 107.03 105.608C107.03 103.959 105.689 102.622 104.034 102.622C102.38 102.622 101.038 103.959 101.038 105.608C101.038 107.257 102.38 108.594 104.034 108.594Z" fill="#B8B9B9"/>
<path d="M130.104 96.4097H119.354V115.642H130.104V96.4097Z" fill="#D7D7D7"/>
<path d="M128.992 92.7238H120.466L119.354 96.4097H130.104L128.992 92.7238Z" fill="#B8B9B9"/>
<path d="M128.992 90.7471H120.466V92.7238H128.992V90.7471Z" fill="#D7D7D7"/>
<path d="M124.729 108.594C126.384 108.594 127.725 107.257 127.725 105.608C127.725 103.959 126.384 102.622 124.729 102.622C123.074 102.622 121.733 103.959 121.733 105.608C121.733 107.257 123.074 108.594 124.729 108.594Z" fill="#B8B9B9"/>
<path d="M150.804 96.4097H140.053V115.642H150.804V96.4097Z" fill="#D7D7D7"/>
<path d="M149.692 92.7238H141.165L140.053 96.4097H150.804L149.692 92.7238Z" fill="#B8B9B9"/>
<path d="M149.692 90.7471H141.165V92.7238H149.692V90.7471Z" fill="#D7D7D7"/>
<path d="M145.428 108.594C147.083 108.594 148.425 107.257 148.425 105.608C148.425 103.959 147.083 102.622 145.428 102.622C143.774 102.622 142.432 103.959 142.432 105.608C142.432 107.257 143.774 108.594 145.428 108.594Z" fill="#B8B9B9"/>
<path d="M171.503 96.4097H160.753V115.642H171.503V96.4097Z" fill="#D7D7D7"/>
<path d="M170.391 92.7238H161.865L160.753 96.4097H171.503L170.391 92.7238Z" fill="#B8B9B9"/>
<path d="M170.391 90.7471H161.865V92.7238H170.391V90.7471Z" fill="#D7D7D7"/>
<path d="M166.128 108.594C167.783 108.594 169.124 107.257 169.124 105.608C169.124 103.959 167.783 102.622 166.128 102.622C164.473 102.622 163.132 103.959 163.132 105.608C163.132 107.257 164.473 108.594 166.128 108.594Z" fill="#B8B9B9"/>
<path d="M74.6593 117.16V120.109H176.569V117.16H74.6593Z" fill="#D7D7D7"/>
<path d="M9.0785 44.2311V47.1798H62.5089V44.2311H9.0785Z" fill="#D7D7D7"/>
<path d="M9.07723 80.6963V83.645H62.5076V80.6963H9.07723Z" fill="#D7D7D7"/>
<path d="M9.07602 117.162V120.11H62.5064V117.162H9.07602Z" fill="#D7D7D7"/>
<path d="M84.9083 55.9969V54.4428H80.4895V55.9969C80.4895 56.18 80.4565 56.3632 80.3953 56.5369L78.9302 60.6782C78.8454 60.9129 78.803 61.1618 78.803 61.4106V78.6284C78.803 78.99 79.0951 79.2811 79.4578 79.2811H85.9352C86.298 79.2811 86.59 78.99 86.59 78.6284V61.4106C86.59 61.1618 86.5476 60.9129 86.4628 60.6782L84.9978 56.5369C84.9365 56.3632 84.9083 56.18 84.9083 55.9969Z" fill="#D7D7D7"/>
<path d="M85.384 55.471H80.009C79.8111 55.471 79.6509 55.3114 79.6509 55.1142V53.0905C79.6509 52.8933 79.8111 52.7337 80.009 52.7337H85.384C85.5819 52.7337 85.7421 52.8933 85.7421 53.0905V55.1142C85.7421 55.3114 85.5819 55.471 85.384 55.471Z" fill="#B8B9B9"/>
<path d="M86.59 64.9791H78.803V73.4636H86.59V64.9791Z" fill="#B8B9B9"/>
<path d="M86.59 64.0917H78.803V64.5941H86.59V64.0917Z" fill="#B8B9B9"/>
<path d="M86.59 73.8908H78.803V74.3932H86.59V73.8908Z" fill="#B8B9B9"/>
<path d="M19.6678 19.6785V18.1244H15.249V19.6785C15.249 19.8616 15.216 20.0448 15.1548 20.2185L13.6897 24.3598C13.6049 24.5945 13.5625 24.8434 13.5625 25.0922V42.31C13.5625 42.6716 13.8546 42.9627 14.2173 42.9627H20.6947C21.0575 42.9627 21.3495 42.6716 21.3495 42.31V25.0922C21.3495 24.8434 21.3071 24.5945 21.2223 24.3598L19.7573 20.2185C19.7007 20.0448 19.6678 19.8616 19.6678 19.6785Z" fill="#D7D7D7"/>
<path d="M20.1436 19.1526H14.7685C14.5706 19.1526 14.4105 18.993 14.4105 18.7958V16.7721C14.4105 16.5749 14.5706 16.4153 14.7685 16.4153H20.1436C20.3414 16.4153 20.5016 16.5749 20.5016 16.7721V18.7958C20.5063 18.993 20.3461 19.1526 20.1436 19.1526Z" fill="#B8B9B9"/>
<path d="M21.3543 28.6607H13.5672V37.1452H21.3543V28.6607Z" fill="#B8B9B9"/>
<path d="M21.3543 27.7733H13.5672V28.2757H21.3543V27.7733Z" fill="#B8B9B9"/>
<path d="M21.3543 37.5724H13.5672V38.0748H21.3543V37.5724Z" fill="#B8B9B9"/>
<path d="M37.0461 19.6785V18.1244H32.6273V19.6785C32.6273 19.8616 32.5943 20.0448 32.5331 20.2185L31.068 24.3598C30.9832 24.5945 30.9408 24.8434 30.9408 25.0922V42.31C30.9408 42.6716 31.2329 42.9627 31.5956 42.9627H38.0731C38.4358 42.9627 38.7279 42.6716 38.7279 42.31V25.0922C38.7279 24.8434 38.6855 24.5945 38.6007 24.3598L37.1356 20.2185C37.0744 20.0448 37.0461 19.8616 37.0461 19.6785Z" fill="#D7D7D7"/>
<path d="M37.5219 19.1526H32.1468C31.9489 19.1526 31.7888 18.993 31.7888 18.7958V16.7721C31.7888 16.5749 31.9489 16.4153 32.1468 16.4153H37.5219C37.7197 16.4153 37.8799 16.5749 37.8799 16.7721V18.7958C37.8799 18.993 37.7197 19.1526 37.5219 19.1526Z" fill="#B8B9B9"/>
<path d="M38.7279 28.6607H30.9408V37.1452H38.7279V28.6607Z" fill="#B8B9B9"/>
<path d="M38.7279 27.7733H30.9408V28.2757H38.7279V27.7733Z" fill="#B8B9B9"/>
<path d="M38.7279 37.5724H30.9408V38.0748H38.7279V37.5724Z" fill="#B8B9B9"/>
<path d="M54.4197 19.6785V18.1244H50.0009V19.6785C50.0009 19.8616 49.9679 20.0448 49.9067 20.2185L48.4416 24.3598C48.3568 24.5945 48.3144 24.8434 48.3144 25.0922V42.31C48.3144 42.6716 48.6065 42.9627 48.9692 42.9627H55.4466C55.8094 42.9627 56.1014 42.6716 56.1014 42.31V25.0922C56.1014 24.8434 56.059 24.5945 55.9742 24.3598L54.5092 20.2185C54.4526 20.0448 54.4197 19.8616 54.4197 19.6785Z" fill="#D7D7D7"/>
<path d="M54.9002 19.1526H49.5204C49.3225 19.1526 49.1624 18.993 49.1624 18.7958V16.7721C49.1624 16.5749 49.3225 16.4153 49.5204 16.4153H54.8955C55.0933 16.4153 55.2535 16.5749 55.2535 16.7721V18.7958C55.2582 18.993 55.098 19.1526 54.9002 19.1526Z" fill="#B8B9B9"/>
<path d="M56.1062 28.6607H48.3191V37.1452H56.1062V28.6607Z" fill="#B8B9B9"/>
<path d="M56.1062 27.7733H48.3191V28.2757H56.1062V27.7733Z" fill="#B8B9B9"/>
<path d="M56.1062 37.5724H48.3191V38.0748H56.1062V37.5724Z" fill="#B8B9B9"/>
<path d="M22.8335 132.864H12.0833V152.096H22.8335V132.864Z" fill="#D7D7D7"/>
<path d="M21.7217 129.174H13.1951L12.0833 132.864H22.8335L21.7217 129.174Z" fill="#B8B9B9"/>
<path d="M21.7217 127.197H13.1951L13.1951 129.174H21.7217L21.7217 127.197Z" fill="#D7D7D7"/>
<path d="M17.4584 145.044C19.1131 145.044 20.4545 143.707 20.4545 142.058C20.4545 140.408 19.1131 139.071 17.4584 139.071C15.8037 139.071 14.4623 140.408 14.4623 142.058C14.4623 143.707 15.8037 145.044 17.4584 145.044Z" fill="#B8B9B9"/>
<path d="M40.2071 132.864H29.4569V152.096H40.2071V132.864Z" fill="#D7D7D7"/>
<path d="M39.0953 129.174H30.5734L29.4569 132.864L40.2118 132.864L39.0953 129.174Z" fill="#B8B9B9"/>
<path d="M39.1 127.197H30.5734L30.5734 129.174L39.1 129.174V127.197Z" fill="#D7D7D7"/>
<path d="M34.832 145.044C36.4867 145.044 37.8281 143.707 37.8281 142.058C37.8281 140.408 36.4867 139.071 34.832 139.071C33.1773 139.071 31.8359 140.408 31.8359 142.058C31.8359 143.707 33.1773 145.044 34.832 145.044Z" fill="#B8B9B9"/>
<path d="M57.5854 132.864H46.8352V152.096H57.5854V132.864Z" fill="#D7D7D7"/>
<path d="M56.4736 129.174H47.947L46.8352 132.864H57.5854L56.4736 129.174Z" fill="#B8B9B9"/>
<path d="M56.4736 127.197H47.947L47.947 129.174H56.4736L56.4736 127.197Z" fill="#D7D7D7"/>
<path d="M52.2103 145.044C53.865 145.044 55.2064 143.707 55.2064 142.058C55.2064 140.408 53.865 139.071 52.2103 139.071C50.5556 139.071 49.2142 140.408 49.2142 142.058C49.2142 143.707 50.5556 145.044 52.2103 145.044Z" fill="#B8B9B9"/>
<path d="M19.6678 92.4656V90.9114H15.249V92.4656C15.249 92.6487 15.216 92.8318 15.1548 93.0055L13.6897 97.1468C13.6049 97.3816 13.5625 97.6304 13.5625 97.8793V115.097C13.5625 115.459 13.8546 115.75 14.2173 115.75H20.6947C21.0575 115.75 21.3495 115.459 21.3495 115.097V97.8746C21.3495 97.6257 21.3071 97.3769 21.2223 97.1421L19.7573 93.0008C19.7007 92.8318 19.6678 92.6487 19.6678 92.4656Z" fill="#D7D7D7"/>
<path d="M20.1436 91.935H14.7685C14.5706 91.935 14.4105 91.7754 14.4105 91.5782V89.5545C14.4105 89.3573 14.5706 89.1976 14.7685 89.1976H20.1436C20.3414 89.1976 20.5016 89.3573 20.5016 89.5545V91.5782C20.5063 91.7754 20.3461 91.935 20.1436 91.935Z" fill="#B8B9B9"/>
<path d="M21.3543 101.448H13.5672V109.932H21.3543V101.448Z" fill="#B8B9B9"/>
<path d="M21.3543 100.556H13.5672V101.058H21.3543V100.556Z" fill="#B8B9B9"/>
<path d="M21.3543 110.36H13.5672V110.862H21.3543V110.36Z" fill="#B8B9B9"/>
<path d="M37.0461 92.4656V90.9114H32.6273V92.4656C32.6273 92.6487 32.5943 92.8318 32.5331 93.0055L31.068 97.1468C30.9832 97.3816 30.9408 97.6304 30.9408 97.8793V115.097C30.9408 115.459 31.2329 115.75 31.5956 115.75H38.0731C38.4358 115.75 38.7279 115.459 38.7279 115.097V97.8746C38.7279 97.6257 38.6855 97.3769 38.6007 97.1421L37.1356 93.0008C37.0744 92.8318 37.0461 92.6487 37.0461 92.4656Z" fill="#D7D7D7"/>
<path d="M37.5219 91.935H32.1468C31.9489 91.935 31.7888 91.7754 31.7888 91.5782V89.5545C31.7888 89.3573 31.9489 89.1976 32.1468 89.1976H37.5219C37.7197 89.1976 37.8799 89.3573 37.8799 89.5545V91.5782C37.8799 91.7754 37.7197 91.935 37.5219 91.935Z" fill="#B8B9B9"/>
<path d="M38.7279 101.448H30.9408V109.932H38.7279V101.448Z" fill="#B8B9B9"/>
<path d="M38.7279 100.556H30.9408V101.058H38.7279V100.556Z" fill="#B8B9B9"/>
<path d="M38.7279 110.36H30.9408V110.862H38.7279V110.36Z" fill="#B8B9B9"/>
<path d="M54.4197 92.4656V90.9114H50.0009V92.4656C50.0009 92.6487 49.9679 92.8318 49.9067 93.0055L48.4416 97.1468C48.3568 97.3816 48.3144 97.6304 48.3144 97.8793V115.097C48.3144 115.459 48.6065 115.75 48.9692 115.75H55.4466C55.8094 115.75 56.1014 115.459 56.1014 115.097V97.8746C56.1014 97.6257 56.059 97.3769 55.9742 97.1421L54.5092 93.0008C54.4526 92.8318 54.4197 92.6487 54.4197 92.4656Z" fill="#D7D7D7"/>
<path d="M54.9002 91.935H49.5204C49.3225 91.935 49.1624 91.7754 49.1624 91.5782V89.5545C49.1624 89.3573 49.3225 89.1976 49.5204 89.1976H54.8955C55.0933 89.1976 55.2535 89.3573 55.2535 89.5545V91.5782C55.2582 91.7754 55.098 91.935 54.9002 91.935Z" fill="#B8B9B9"/>
<path d="M56.1062 101.448H48.3191V109.932H56.1062V101.448Z" fill="#B8B9B9"/>
<path d="M56.1062 100.556H48.3191V101.058H56.1062V100.556Z" fill="#B8B9B9"/>
<path d="M56.1062 110.36H48.3191V110.862H56.1062V110.36Z" fill="#B8B9B9"/>
<path d="M101.98 55.9969V54.4428H97.5616V55.9969C97.5616 56.18 97.5286 56.3632 97.4674 56.5369L96.0023 60.6782C95.9175 60.9129 95.8751 61.1618 95.8751 61.4106V78.6284C95.8751 78.99 96.1672 79.2811 96.5299 79.2811H103.007C103.37 79.2811 103.662 78.99 103.662 78.6284V61.4106C103.662 61.1618 103.62 60.9129 103.535 60.6782L102.07 56.5369C102.013 56.3632 101.98 56.18 101.98 55.9969Z" fill="#D7D7D7"/>
<path d="M102.456 55.471H97.0811C96.8832 55.471 96.7231 55.3114 96.7231 55.1142V53.0905C96.7231 52.8933 96.8832 52.7337 97.0811 52.7337H102.456C102.654 52.7337 102.814 52.8933 102.814 53.0905V55.1142C102.819 55.3114 102.654 55.471 102.456 55.471Z" fill="#B8B9B9"/>
<path d="M103.662 64.9791H95.8751V73.4636H103.662V64.9791Z" fill="#B8B9B9"/>
<path d="M103.662 64.0917H95.8751V64.5941H103.662V64.0917Z" fill="#B8B9B9"/>
<path d="M103.662 73.8908H95.8751V74.3932H103.662V73.8908Z" fill="#B8B9B9"/>
<path d="M119.052 55.9969V54.4428H114.634V55.9969C114.634 56.18 114.601 56.3632 114.539 56.5369L113.074 60.6782C112.99 60.9129 112.947 61.1618 112.947 61.4106V78.6284C112.947 78.99 113.239 79.2811 113.602 79.2811H120.079C120.442 79.2811 120.734 78.99 120.734 78.6284V61.4106C120.734 61.1618 120.692 60.9129 120.607 60.6782L119.142 56.5369C119.085 56.3632 119.052 56.18 119.052 55.9969Z" fill="#D7D7D7"/>
<path d="M119.528 55.471H114.153C113.955 55.471 113.795 55.3114 113.795 55.1142V53.0905C113.795 52.8933 113.955 52.7337 114.153 52.7337H119.528C119.726 52.7337 119.886 52.8933 119.886 53.0905V55.1142C119.891 55.3114 119.731 55.471 119.528 55.471Z" fill="#B8B9B9"/>
<path d="M120.739 64.9791H112.952V73.4636H120.739V64.9791Z" fill="#B8B9B9"/>
<path d="M120.739 64.0917H112.952V64.5941H120.739V64.0917Z" fill="#B8B9B9"/>
<path d="M120.739 73.8908H112.952V74.3932H120.739V73.8908Z" fill="#B8B9B9"/>
<path d="M136.125 55.9969V54.4428H131.706V55.9969C131.706 56.18 131.673 56.3632 131.612 56.5369L130.146 60.6782C130.062 60.9129 130.019 61.1618 130.019 61.4106V78.6284C130.019 78.99 130.311 79.2811 130.674 79.2811H137.152C137.514 79.2811 137.806 78.99 137.806 78.6284V61.4106C137.806 61.1618 137.764 60.9129 137.679 60.6782L136.214 56.5369C136.158 56.3632 136.125 56.18 136.125 55.9969Z" fill="#D7D7D7"/>
<path d="M136.605 55.471H131.23C131.032 55.471 130.872 55.3114 130.872 55.1142V53.0905C130.872 52.8933 131.032 52.7337 131.23 52.7337H136.605C136.803 52.7337 136.963 52.8933 136.963 53.0905V55.1142C136.963 55.3114 136.803 55.471 136.605 55.471Z" fill="#B8B9B9"/>
<path d="M137.811 64.9791H130.024V73.4636H137.811V64.9791Z" fill="#B8B9B9"/>
<path d="M137.811 64.0917H130.024V64.5941H137.811V64.0917Z" fill="#B8B9B9"/>
<path d="M137.811 73.8908H130.024V74.3932H137.811V73.8908Z" fill="#B8B9B9"/>
<path d="M153.197 55.9969V54.4428H148.778V55.9969C148.778 56.18 148.745 56.3632 148.684 56.5369L147.219 60.6782C147.134 60.9129 147.091 61.1618 147.091 61.4106V78.6284C147.091 78.99 147.383 79.2811 147.746 79.2811H154.224C154.586 79.2811 154.878 78.99 154.878 78.6284V61.4106C154.878 61.1618 154.836 60.9129 154.751 60.6782L153.286 56.5369C153.23 56.3632 153.197 56.18 153.197 55.9969Z" fill="#D7D7D7"/>
<path d="M153.677 55.471H148.302C148.104 55.471 147.944 55.3114 147.944 55.1142V53.0905C147.944 52.8933 148.104 52.7337 148.302 52.7337H153.677C153.875 52.7337 154.035 52.8933 154.035 53.0905V55.1142C154.035 55.3114 153.875 55.471 153.677 55.471Z" fill="#B8B9B9"/>
<path d="M154.883 64.9791H147.096V73.4636H154.883V64.9791Z" fill="#B8B9B9"/>
<path d="M154.883 64.0917H147.096V64.5941H154.883V64.0917Z" fill="#B8B9B9"/>
<path d="M154.883 73.8908H147.096V74.3932H154.883V73.8908Z" fill="#B8B9B9"/>
<path d="M170.273 55.9969V54.4428H165.855V55.9969C165.855 56.18 165.822 56.3632 165.76 56.5369L164.295 60.6782C164.211 60.9129 164.168 61.1618 164.168 61.4106V78.6284C164.168 78.99 164.46 79.2811 164.823 79.2811H171.3C171.663 79.2811 171.955 78.99 171.955 78.6284V61.4106C171.955 61.1618 171.913 60.9129 171.828 60.6782L170.363 56.5369C170.302 56.3632 170.273 56.18 170.273 55.9969Z" fill="#D7D7D7"/>
<path d="M170.749 55.471H165.374C165.176 55.471 165.016 55.3114 165.016 55.1142V53.0905C165.016 52.8933 165.176 52.7337 165.374 52.7337H170.749C170.947 52.7337 171.107 52.8933 171.107 53.0905V55.1142C171.107 55.3114 170.947 55.471 170.749 55.471Z" fill="#B8B9B9"/>
<path d="M171.955 64.9791H164.168V73.4636H171.955V64.9791Z" fill="#B8B9B9"/>
<path d="M171.955 64.0917H164.168V64.5941H171.955V64.0917Z" fill="#B8B9B9"/>
<path d="M171.955 73.8908H164.168V74.3932H171.955V73.8908Z" fill="#B8B9B9"/>
<path d="M84.9083 128.854V127.3H80.4895V128.854C80.4895 129.038 80.4565 129.221 80.3953 129.394L78.9302 133.536C78.8454 133.77 78.803 134.019 78.803 134.268V151.486C78.803 151.847 79.0951 152.139 79.4578 152.139H85.9352C86.298 152.139 86.59 151.847 86.59 151.486V134.268C86.59 134.019 86.5476 133.77 86.4628 133.536L84.9978 129.394C84.9365 129.221 84.9083 129.038 84.9083 128.854Z" fill="#D7D7D7"/>
<path d="M85.384 128.329H80.009C79.8111 128.329 79.6509 128.169 79.6509 127.972V125.948C79.6509 125.751 79.8111 125.591 80.009 125.591H85.384C85.5819 125.591 85.7421 125.751 85.7421 125.948V127.972C85.7421 128.169 85.5819 128.329 85.384 128.329Z" fill="#B8B9B9"/>
<path d="M86.59 137.837H78.803V146.321H86.59V137.837Z" fill="#B8B9B9"/>
<path d="M86.59 136.949H78.803V137.452H86.59V136.949Z" fill="#B8B9B9"/>
<path d="M86.59 146.748H78.803V147.251H86.59V146.748Z" fill="#B8B9B9"/>
<path d="M101.98 128.854V127.3H97.5616V128.854C97.5616 129.038 97.5286 129.221 97.4674 129.394L96.0023 133.536C95.9175 133.77 95.8751 134.019 95.8751 134.268V151.486C95.8751 151.847 96.1672 152.139 96.5299 152.139H103.007C103.37 152.139 103.662 151.847 103.662 151.486V134.268C103.662 134.019 103.62 133.77 103.535 133.536L102.07 129.394C102.013 129.221 101.98 129.038 101.98 128.854Z" fill="#D7D7D7"/>
<path d="M102.456 128.329H97.0811C96.8832 128.329 96.7231 128.169 96.7231 127.972V125.948C96.7231 125.751 96.8832 125.591 97.0811 125.591H102.456C102.654 125.591 102.814 125.751 102.814 125.948V127.972C102.819 128.169 102.654 128.329 102.456 128.329Z" fill="#B8B9B9"/>
<path d="M103.662 137.837H95.8751V146.321H103.662V137.837Z" fill="#B8B9B9"/>
<path d="M103.662 136.949H95.8751V137.452H103.662V136.949Z" fill="#B8B9B9"/>
<path d="M103.662 146.748H95.8751V147.251H103.662V146.748Z" fill="#B8B9B9"/>
<path d="M119.052 128.854V127.3H114.634V128.854C114.634 129.038 114.601 129.221 114.539 129.394L113.074 133.536C112.99 133.77 112.947 134.019 112.947 134.268V151.486C112.947 151.847 113.239 152.139 113.602 152.139H120.079C120.442 152.139 120.734 151.847 120.734 151.486V134.268C120.734 134.019 120.692 133.77 120.607 133.536L119.142 129.394C119.085 129.221 119.052 129.038 119.052 128.854Z" fill="#D7D7D7"/>
<path d="M119.528 128.329H114.153C113.955 128.329 113.795 128.169 113.795 127.972V125.948C113.795 125.751 113.955 125.591 114.153 125.591H119.528C119.726 125.591 119.886 125.751 119.886 125.948V127.972C119.891 128.169 119.731 128.329 119.528 128.329Z" fill="#B8B9B9"/>
<path d="M120.739 137.837H112.952V146.321H120.739V137.837Z" fill="#B8B9B9"/>
<path d="M120.739 136.949H112.952V137.452H120.739V136.949Z" fill="#B8B9B9"/>
<path d="M120.739 146.748H112.952V147.251H120.739V146.748Z" fill="#B8B9B9"/>
<path d="M136.125 128.854V127.3H131.706V128.854C131.706 129.038 131.673 129.221 131.612 129.394L130.146 133.536C130.062 133.77 130.019 134.019 130.019 134.268V151.486C130.019 151.847 130.311 152.139 130.674 152.139H137.152C137.514 152.139 137.806 151.847 137.806 151.486V134.268C137.806 134.019 137.764 133.77 137.679 133.536L136.214 129.394C136.158 129.221 136.125 129.038 136.125 128.854Z" fill="#D7D7D7"/>
<path d="M136.605 128.329H131.23C131.032 128.329 130.872 128.169 130.872 127.972V125.948C130.872 125.751 131.032 125.591 131.23 125.591H136.605C136.803 125.591 136.963 125.751 136.963 125.948V127.972C136.963 128.169 136.803 128.329 136.605 128.329Z" fill="#B8B9B9"/>
<path d="M137.811 137.837H130.024V146.321H137.811V137.837Z" fill="#B8B9B9"/>
<path d="M137.811 136.949H130.024V137.452H137.811V136.949Z" fill="#B8B9B9"/>
<path d="M137.811 146.748H130.024V147.251H137.811V146.748Z" fill="#B8B9B9"/>
<path d="M153.197 128.854V127.3H148.778V128.854C148.778 129.038 148.745 129.221 148.684 129.394L147.219 133.536C147.134 133.77 147.091 134.019 147.091 134.268V151.486C147.091 151.847 147.383 152.139 147.746 152.139H154.224C154.586 152.139 154.878 151.847 154.878 151.486V134.268C154.878 134.019 154.836 133.77 154.751 133.536L153.286 129.394C153.23 129.221 153.197 129.038 153.197 128.854Z" fill="#D7D7D7"/>
<path d="M153.677 128.329H148.302C148.104 128.329 147.944 128.169 147.944 127.972V125.948C147.944 125.751 148.104 125.591 148.302 125.591H153.677C153.875 125.591 154.035 125.751 154.035 125.948V127.972C154.035 128.169 153.875 128.329 153.677 128.329Z" fill="#B8B9B9"/>
<path d="M154.883 137.837H147.096V146.321H154.883V137.837Z" fill="#B8B9B9"/>
<path d="M154.883 136.949H147.096V137.452H154.883V136.949Z" fill="#B8B9B9"/>
<path d="M154.883 146.748H147.096V147.251H154.883V146.748Z" fill="#B8B9B9"/>
<path d="M170.273 128.854V127.3H165.855V128.854C165.855 129.038 165.822 129.221 165.76 129.394L164.295 133.536C164.211 133.77 164.168 134.019 164.168 134.268V151.486C164.168 151.847 164.46 152.139 164.823 152.139H171.3C171.663 152.139 171.955 151.847 171.955 151.486V134.268C171.955 134.019 171.913 133.77 171.828 133.536L170.363 129.394C170.302 129.221 170.273 129.038 170.273 128.854Z" fill="#D7D7D7"/>
<path d="M170.749 128.329H165.374C165.176 128.329 165.016 128.169 165.016 127.972V125.948C165.016 125.751 165.176 125.591 165.374 125.591H170.749C170.947 125.591 171.107 125.751 171.107 125.948V127.972C171.107 128.169 170.947 128.329 170.749 128.329Z" fill="#B8B9B9"/>
<path d="M171.955 137.837H164.168V146.321H171.955V137.837Z" fill="#B8B9B9"/>
<path d="M171.955 136.949H164.168V137.452H171.955V136.949Z" fill="#B8B9B9"/>
<path d="M171.955 146.748H164.168V147.251H171.955V146.748Z" fill="#B8B9B9"/>
<path d="M306.045 95.5457L286.075 96.7853H285.199C285.053 96.7853 284.935 96.6679 284.935 96.5223V81.1968C284.935 81.0512 285.053 80.9338 285.199 80.9338H286.075L306.045 82.1734V95.5457Z" fill="#7B7D7C"/>
<path d="M306.836 95.5692L286.471 96.7665C286.259 96.7806 286.075 96.6115 286.075 96.3956V81.3329C286.075 81.1169 286.254 80.9479 286.471 80.962L306.836 82.1593C307.034 82.1687 307.185 82.333 307.185 82.5302V95.1983C307.185 95.3955 307.029 95.5551 306.836 95.5692Z" fill="#909090"/>
<path d="M297.928 89.4418C297.476 89.5873 297.231 90.071 297.377 90.5217L301.094 101.922L302.728 101.391L299.011 89.9911C298.865 89.5404 298.38 89.2962 297.928 89.4418Z" fill="#7B7D7C"/>
<path d="M298.842 85.8217C298.842 86.5072 298.441 87.0613 297.947 87.0613C297.452 87.0613 297.052 86.5072 297.052 85.8217C297.052 85.1362 297.452 84.5821 297.947 84.5821C298.441 84.5868 298.842 85.1409 298.842 85.8217Z" fill="#7B7D7C"/>
<path d="M188.617 176.845C207.425 176.845 222.672 176.042 222.672 175.052C222.672 174.061 207.425 173.258 188.617 173.258C169.81 173.258 154.563 174.061 154.563 175.052C154.563 176.042 169.81 176.845 188.617 176.845Z" fill="#E4E4E4"/>
<path d="M255.186 170.394C288.221 170.394 315 169.591 315 168.6C315 167.61 288.221 166.807 255.186 166.807C222.152 166.807 195.373 167.61 195.373 168.6C195.373 169.591 222.152 170.394 255.186 170.394Z" fill="#E4E4E4"/>
<path d="M110.625 176.54C130.237 176.54 146.135 175.737 146.135 174.747C146.135 173.756 130.237 172.953 110.625 172.953C91.0129 172.953 75.1144 173.756 75.1144 174.747C75.1144 175.737 91.0129 176.54 110.625 176.54Z" fill="#E4E4E4"/>
<path d="M46.6279 177.01C60.3651 177.01 71.5012 176.207 71.5012 175.216C71.5012 174.226 60.3651 173.423 46.6279 173.423C32.8908 173.423 21.7547 174.226 21.7547 175.216C21.7547 176.207 32.8908 177.01 46.6279 177.01Z" fill="#E4E4E4"/>
<path d="M180.477 171.934C180.477 171.934 177.976 171.164 177.585 170.385C177.029 170.695 174.754 170.629 173.736 170.615L173.529 173.793L183.657 173.789C183.374 173.056 183.153 172.267 180.477 171.934Z" fill="#2D2A25"/>
<path d="M173.524 173.798L173.472 174.531L183.709 174.526C183.718 174.235 183.789 174.085 183.657 173.793L173.524 173.798Z" fill="#EDEBEB"/>
<path d="M171.739 172.944C171.739 172.944 169.251 172.131 168.87 171.347C168.059 171.427 166.203 171.512 165.016 171.512L164.757 174.69L174.886 174.859C174.622 174.117 174.414 173.319 171.739 172.944Z" fill="#2D2A25"/>
<path d="M164.757 174.686L164.691 175.418L174.928 175.587C174.947 175.296 175.013 175.15 174.885 174.855L164.757 174.686Z" fill="#EDEBEB"/>
<path d="M190.13 94.5315C192.843 94.3625 204.196 92.9492 204.196 92.9492C205.365 94.1465 205.138 96.1045 205.138 96.1045C202.533 97.2736 194.351 99.7527 189.216 99.5884C186.71 99.5086 186.427 94.7616 190.13 94.5315Z" fill="#F7C17D"/>
<path d="M206.571 83.7041L208.573 98.9357L210.608 99.6917L223.822 94.8602L218.974 78.8115L216.939 78.0603L206.571 83.7041Z" fill="#1A2E35"/>
<path d="M204.535 82.9481L208.573 98.9357L221.787 94.1043L216.939 78.0603L204.535 82.9481Z" fill="#39D192"/>
<path d="M215.695 84.1407L208.662 86.695L207.955 84.1314L214.989 81.5818L215.695 84.1407Z" fill="#FFFAD8"/>
<path d="M203.777 94.7193C203.777 94.7193 203.042 92.5548 206.594 91.1931C206.594 91.1931 207.692 90.625 208.139 91.3152C208.139 91.3152 208.77 92.212 209.204 93.198C209.421 93.8225 208.106 94.0432 207.532 93.2919C207.202 95.8086 208.54 95.9026 207.428 96.4472C206.321 96.9919 204.281 96.8651 203.777 94.7193Z" fill="#F7C17D"/>
<path d="M188.128 99.3161C186.969 98.6634 183.214 96.0481 181.834 94.7287C180.717 93.6676 182.649 89.5122 185.612 91.4138C188.208 93.076 189.159 93.8601 190.563 94.8602C192.593 96.3111 190.422 100.607 188.128 99.3161Z" fill="#F7C17D"/>
<path d="M174.513 83.0092C172.21 84.7793 173.745 88.7703 175.587 90.8973C177.768 93.4093 184.345 97.8464 184.345 97.8464L187.642 91.4326C187.642 91.4326 184.528 88.3243 181.928 85.9578C179.563 83.8027 176.986 81.1076 174.513 83.0092Z" fill="#39D192"/>
<path d="M172.403 107.617C174.796 107.674 177.165 107.707 179.549 107.97C180.11 108.031 180.68 108.087 181.25 108.11L177.952 170.76H173.656L170.33 109.665C171.282 109.726 171.456 107.589 172.403 107.617Z" fill="#1A2E35"/>
<path d="M169.035 109.881C171.428 109.989 173.792 110.064 176.171 110.374C176.732 110.444 177.297 110.514 177.867 110.547L169.388 171.507H165.021L166.924 111.885C167.871 111.965 168.088 109.838 169.035 109.881Z" fill="#1A2E35"/>
<path d="M182.361 116.947C182.31 119.008 181.843 120.192 180.812 120.91C179.592 121.76 175.7 123.638 175.7 123.638L176.27 118.234L182.361 116.947Z" fill="#005458"/>
<path d="M189.842 126.018C189.847 126.014 189.856 126.014 189.861 126.009C189.875 126.018 189.894 126.028 189.908 126.037C189.89 126.033 189.866 126.023 189.842 126.018Z" fill="#F8C9BD"/>
<path d="M172.629 80.1357C171.823 80.192 168.187 82.4786 167.631 87.5449C167.259 90.9349 166.689 101.894 165.322 115.905C166.109 117.196 170.038 118.999 175.017 118.863C179.257 118.745 183.379 117.252 183.379 117.252C183.379 117.252 183.059 94.3625 182.583 91.1087C181.344 82.6383 176.906 80.6005 176.906 80.6005L172.629 80.1357Z" fill="#39D192"/>
<path d="M171.329 81.9387L171.494 71.8531L177.373 71.7451L177.255 82.1218C176.025 83.2721 172.733 82.7181 171.329 81.9387Z" fill="#EB9F59"/>
<path d="M170.749 76.5155C170.749 76.5155 180.096 82.1171 182.531 79.7553C182.899 79.3985 184.1 74.6186 184.175 74.2712C184.872 71.0877 184.967 65.7679 184.425 63.5517C182.969 57.5933 177.49 53.5554 173.156 55.2363C168.827 56.9125 159.373 63.054 170.749 76.5155Z" fill="#F7C17D"/>
<path d="M174.951 54.8935L174.961 54.95C174.965 54.917 174.961 54.9029 174.951 54.8935Z" fill="#8C5930"/>
<path d="M172.591 69.5664C172.097 71.7028 171.795 76.1258 170.184 76.7878C168.191 74.8205 165.426 71.8437 164.244 69.2706C163.089 66.768 162.835 61.8896 165.351 58.4808C167.993 54.8935 170.716 54.5085 172.615 54.4709C174.15 54.4428 177.194 54.6353 178.96 55.5884C179.775 56.0251 180.595 56.6073 181.259 57.2412C181.641 57.6074 182.102 58.6639 182.503 59.2696L182.296 59.0583C181.005 59.9833 177.938 57.8375 177.043 59.1991C176.007 60.7721 177.034 65.6646 176.219 67.3502C175.512 68.7823 173.628 67.7493 172.591 69.5664Z" fill="#1A2E35"/>
<path d="M171.616 69.5946C172.007 71.0502 173.5 72.6372 174.461 72.379C175.422 72.1207 175.884 70.7356 175.488 69.28C175.097 67.8245 174.103 65.9698 172.846 66.383C171.903 66.6976 171.225 68.1391 171.616 69.5946Z" fill="#F7C17D"/>
<path d="M179.13 74.1209C179.092 74.2289 179.083 74.3369 179.083 74.4449C179.078 74.5482 179.092 74.6562 179.111 74.7548C179.153 74.9567 179.243 75.1351 179.38 75.2619C179.511 75.3934 179.695 75.4779 179.902 75.5295C180.105 75.5859 180.322 75.6 180.553 75.6328C180.444 75.6704 180.331 75.6939 180.218 75.722C180.105 75.7267 179.987 75.7502 179.869 75.7314C179.634 75.7267 179.384 75.6281 179.196 75.4544C179.012 75.276 178.908 75.0224 178.913 74.7783C178.913 74.5388 178.96 74.29 179.13 74.1209Z" fill="#964D1E"/>
<path d="M183.732 64.2842C184.373 66.2891 185.164 69.712 182.215 69.4585C179.893 69.2566 179.987 65.5989 179.987 65.5989C179.987 65.5989 182.376 64.3265 183.732 64.2842Z" fill="url(#paint0_linear_1455_285)"/>
<path d="M184.072 68.6509C184.001 68.8622 183.775 68.9749 183.563 68.9044C183.351 68.834 183.238 68.6086 183.308 68.3973C183.379 68.1861 183.605 68.0734 183.817 68.1438C184.029 68.2142 184.142 68.4396 184.072 68.6509Z" fill="#393955"/>
<path d="M183.407 64.2232C180.571 64.7021 179.017 65.9041 180.406 65.721C182.536 65.444 184.703 64.0025 183.407 64.2232Z" fill="#17455C"/>
<path d="M184.326 60.7533C180.788 63.6034 173.943 60.4575 171.724 63.9368C170.608 65.6881 170.886 75.8206 170.886 75.8206C170.886 75.8206 164.625 67.4583 165.289 63.2606C165.779 60.1758 171.484 54.8325 171.484 54.8325C175.823 55.1283 180.666 55.2551 184.505 53.499C184.693 55.4429 183.092 56.6965 183.092 56.6965C183.092 56.6965 185.64 56.2881 186.144 60.5514C185.226 59.7673 184.326 60.7533 184.326 60.7533Z" fill="#1A2E35"/>
<path d="M164.578 61.0397C164.06 59.1005 165.271 55.4335 166.915 54.1423C166.613 55.4382 166.005 56.8609 166.005 56.8609C166.005 56.8609 167.216 53.4521 170.721 52.6351C169.294 54.4897 168.601 54.8794 168.601 54.8794C168.601 54.8794 170.985 53.2032 173.924 52.9825C176.171 52.8135 177.924 51.9308 177.924 51.9308C177.924 51.9308 178.423 52.8135 176.869 53.283C178.88 53.175 180.133 53.1656 181.127 52.5177C181.127 54.3301 176.61 55.6964 176.61 55.6964L164.578 61.0397Z" fill="#1A2E35"/>
<path d="M176.266 105.035C177.208 107.58 181.009 119.999 181.009 119.999C180.195 121.459 179.135 121.262 179.135 121.262C177.264 119.112 172.459 110.566 171.14 105.617C170.5 103.204 174.98 101.57 176.266 105.035Z" fill="#F7C17D"/>
<path d="M171.046 105.392C170.745 104.101 170.132 99.5743 170.165 97.6727C170.193 96.1326 174.565 94.7334 175.173 98.1939C175.705 101.222 175.771 102.453 175.983 104.157C176.289 106.631 171.644 107.941 171.046 105.392Z" fill="#F7C17D"/>
<path d="M173.858 84.3614C170.08 83.9389 169.086 87.6998 168.766 90.4935C168.389 93.7943 169.572 101.621 169.572 101.621L176.539 99.6917C176.539 99.6917 176.723 95.3063 176.708 91.7941C176.69 88.6013 176.807 84.6901 173.858 84.3614Z" fill="#39D192"/>
<path d="M238.83 55.842C239.141 57.166 242.274 58.0582 245.242 57.3586C245.967 55.4429 244.045 55.0203 244.045 55.0203C244.045 55.0203 240.696 54.9639 238.83 55.842Z" fill="#8D0D32"/>
<path d="M262.154 124.76C262.154 124.76 264.057 147.532 264.217 149.828C264.377 152.12 259.944 153.355 259.624 149.969C259.299 146.584 256.76 124.76 256.76 124.76H262.154Z" fill="#E6BEA6"/>
<path d="M251.837 124.676C251.837 124.676 251.667 147.528 251.616 149.824C251.564 152.12 247.041 152.951 247.027 149.551C247.013 146.152 246.462 124.187 246.462 124.187L251.837 124.676Z" fill="#E6BEA6"/>
<path d="M260.392 67.6413C265.371 66.6976 265.908 60.7862 265.908 60.7862C265.908 60.7862 265.791 61.852 266.558 62.1431C267.746 58.7766 266.558 55.2269 266.558 55.2269C266.558 55.2269 266.916 56.4665 267.863 56.7059C267.925 53.6352 264.542 49.6723 262.766 48.7849C264.128 48.8459 264.227 47.9679 264.227 47.9679C264.227 47.9679 262.945 48.0055 262.493 48.4562C262.418 47.2918 262.191 46.3151 261.475 45.6766C261.739 47.2542 261.928 48.0806 261.928 48.0806C261.928 48.0806 260.307 44.5544 252.892 43.8031C253.571 44.8173 255.714 45.3432 255.714 45.3432C255.714 45.3432 249.237 43.4651 245.85 45.8691C246.528 46.2823 248.224 45.8691 248.224 45.8691C248.224 45.8691 243.56 47.1415 242.373 51.7242C243.174 50.6067 244.177 50.4705 244.177 50.4705C244.177 50.4705 243.673 53.0952 243.72 56.612C243.748 58.4995 243.428 60.5796 244.573 62.7958C248.521 64.9744 257.504 67.7916 260.392 67.6413Z" fill="#1A2E35"/>
<path d="M242.444 150.782C242.444 150.782 245.492 149.317 246.029 148.256C246.029 148.256 247.715 148.26 248.191 149.932C248.191 149.932 250.499 150.331 251.667 148.974L251.95 153.322L238.1 153.317C238.477 152.317 238.779 151.232 242.444 150.782Z" fill="#163859"/>
<path d="M251.945 153.322L252.016 154.322L238.02 154.317C238.006 153.918 237.912 153.716 238.091 153.317L251.945 153.322Z" fill="#EDEBEB"/>
<path d="M258.941 152.618L259.624 149.965C259.624 149.965 260.265 148.143 262.243 148.143C264.222 148.143 264.862 149.965 264.862 149.965L265.352 152.927L258.941 152.618Z" fill="#163859"/>
<path d="M258.677 153.355C258.639 153.557 258.63 153.918 258.88 154.289H265.249C265.249 154.289 265.47 153.885 265.456 153.341L258.677 153.355Z" fill="#E7E5E2"/>
<path d="M265.456 153.303C265.423 152.725 264.208 150.969 262.173 150.969C259.568 150.969 258.969 152.439 258.729 153.204C258.729 153.204 258.701 153.27 258.682 153.378L265.461 153.373C265.456 153.35 265.456 153.326 265.456 153.303Z" fill="#163859"/>
<path d="M240.851 94.1512L240.865 94.1606C242.321 94.9541 244.144 94.2122 244.625 92.6252C245.341 90.2494 246.5 85.925 248.459 77.8396C248.78 76.5155 246.947 74.5717 245.6 74.7971C244.554 74.9708 243.037 76.9804 242.265 80.4314C240.913 86.4696 240.135 89.3901 239.612 91.0899C239.24 92.2778 239.758 93.5596 240.851 94.1512Z" fill="#39D192"/>
<path d="M221.579 87.3946C220.868 87.1129 220.317 87.3054 219.817 88.0097C219.28 88.7703 218.522 90.0522 218.329 90.24C218.131 90.4278 219.073 91.5359 220.934 90.2682C221.056 91.9491 222.286 92.3811 223.661 92.2637C225.037 92.1416 225.621 92.2684 225.621 92.2684L226.257 88.5919C226.257 88.5919 224.043 88.3665 221.579 87.3946Z" fill="#E6BEA6"/>
<path d="M241.252 88.8549C237.007 88.7234 229.526 88.1975 226.083 88.4041C225.075 88.8596 224.74 91.9209 225.423 92.7379C228.071 93.9118 237.182 94.818 242.053 94.4705C244.304 94.3109 244.592 88.9582 241.252 88.8549Z" fill="#39D192"/>
<path d="M245.03 103.1L245.59 125.108C245.59 125.108 249.199 126.915 252.605 125.502L253.095 111.205L254.098 111.158L256.02 125.591C256.02 125.591 259.03 126.756 263.473 125.347L261.555 103.1H245.03Z" fill="#00557A"/>
<path d="M252.285 72.2475L252.2 75.2994L257.273 75.4403L257.382 71.468C255.252 72.4306 253.147 72.3508 252.285 72.2475Z" fill="#E6BEA6"/>
<path d="M257.382 71.468L257.466 68.4114L252.393 68.2705L252.285 72.2475C253.147 72.3508 255.252 72.4306 257.382 71.468Z" fill="#CC9D80"/>
<path d="M254.376 75.9896C257.377 75.9896 258.098 74.3275 258.201 73.811C256.067 73.3837 253.957 73.21 251.333 73.5622C251.272 74.1679 251.427 75.9896 254.376 75.9896Z" fill="#E6BEA6"/>
<path d="M264.957 76.046C264.957 76.046 262.064 74.473 258.55 73.7077C258.399 73.6748 258.248 73.642 258.098 73.6138C257.994 74.135 257.434 75.722 254.428 75.722C251.479 75.722 251.385 74.0317 251.446 73.4307C251.229 73.4589 251.003 73.4917 250.777 73.5293C249.175 73.7828 247.192 74.0552 245.6 74.7971C245.6 74.7971 243.452 84.4225 244.399 106.34C244.399 106.34 251.545 108.904 263.016 106.721C263.016 106.721 261.937 91.3716 263.426 85.3709C263.421 85.3662 264.486 79.821 264.957 76.046Z" fill="#39D192"/>
<path d="M262.79 95.9026C262.79 95.9026 260.062 96.0763 258.46 97.2971C258.46 97.2971 257.768 97.8793 258.206 98.2737C258.639 98.6681 258.037 99.241 258.484 99.6729C258.932 100.1 258.531 100.589 259.294 100.941C259.294 100.941 259.266 101.556 259.822 101.729C260.373 101.908 261.617 102.41 261.829 102.176C262.041 101.941 263.129 101.1 263.134 100.95C263.138 100.804 263.077 100.57 262.611 100.537C262.611 100.537 263.063 100.391 263.525 100.063C263.982 99.734 264.472 98.5413 264.472 98.5413C264.472 98.5413 265.758 97.6539 265.334 96.4801C264.905 95.3157 262.79 95.9026 262.79 95.9026Z" fill="#E6BEA6"/>
<path d="M261.932 82.2485C265.687 85.4883 269.357 87.6294 271.038 89.16C269.06 90.5921 265.772 93.4281 262.149 95.5222C262.14 95.5269 262.13 95.5363 262.121 95.541L264.382 99.3114C264.688 99.1329 267.519 98.1188 270.205 96.4472C275.891 92.9163 276.739 91.935 277.158 91.1697C278.251 89.1788 276.494 87.1505 275.443 85.9391C274.496 84.845 273.139 83.4552 271.406 81.7978C268.504 79.0275 265.56 76.4827 265.437 76.3794C264.406 75.4872 262.842 75.5999 261.946 76.6282C261.051 77.6565 260.896 81.3564 261.932 82.2485Z" fill="#39D192"/>
<path d="M244.545 58.2413C244.545 64.58 243.928 66.6882 244.945 68.5288C245.906 70.2613 248.751 72.6513 255.403 70.9938C260.166 69.8059 261.367 66.1576 261.367 66.1576C261.367 66.1576 261.998 66.5332 262.827 66.4206C263.51 66.3313 264.424 65.6552 264.34 64.4532C264.222 62.777 263.445 62.2746 262.799 62.0961C261.645 61.7769 260.872 62.8662 260.872 62.8662C260.872 62.8662 260.872 60.4575 260.599 58.6826C260.326 56.9078 260.029 55.0484 251.62 54.5367C249.543 54.4099 246.73 54.3582 245.619 54.8888C244.582 55.3771 244.545 56.5369 244.545 58.2413Z" fill="#E6BEA6"/>
<path d="M249.736 63.0869C249.425 62.9977 249.114 62.9226 248.803 62.9132C248.497 62.9038 248.167 62.9507 247.965 63.1432C247.734 63.3217 247.819 63.6597 248.017 63.8851C248.21 64.1246 248.478 64.303 248.737 64.4955C248.445 64.3687 248.148 64.2185 247.913 63.9743C247.856 63.9133 247.805 63.8428 247.757 63.7724C247.729 63.6879 247.673 63.6175 247.668 63.5236C247.621 63.3404 247.71 63.1385 247.842 63.0165C248.125 62.7817 248.488 62.7441 248.813 62.777C249.142 62.8193 249.453 62.9319 249.736 63.0869Z" fill="#A36052"/>
<path d="M253.717 66.214C253.853 66.5802 253.665 66.984 253.415 67.2704C253.156 67.5662 252.779 67.7399 252.402 67.8104C252.016 67.862 251.63 67.8338 251.267 67.7446C251.083 67.6977 250.909 67.6319 250.73 67.5756C250.56 67.4911 250.391 67.416 250.226 67.3314C250.41 67.3737 250.584 67.4253 250.763 67.4723C250.942 67.5052 251.121 67.5521 251.3 67.5756C251.658 67.6273 252.016 67.6507 252.365 67.585C252.713 67.538 253.038 67.3878 253.293 67.1483C253.533 66.9136 253.754 66.5849 253.717 66.214Z" fill="#A36052"/>
<path d="M250.617 59.3118C250.419 60.0584 249.717 62.2323 251.837 62.6737C253.957 63.1151 253.768 60.4716 253.768 60.4716C253.768 60.4716 251.583 59.5325 250.617 59.3118Z" fill="url(#paint1_linear_1455_285)"/>
<path d="M251.097 59.232C253.533 59.7062 254.758 60.8472 253.198 60.6406C251.639 60.434 249.491 58.9174 251.097 59.232Z" fill="#3D160C"/>
<path d="M248.017 59.232C248.219 59.8048 248.912 61.8849 247.272 62.3732C245.633 62.8615 245.572 60.1805 245.572 60.1805C245.572 60.1805 247.272 59.4668 248.017 59.232Z" fill="url(#paint2_linear_1455_285)"/>
<path d="M247.607 59.171C245.798 59.4996 244.686 60.6547 246.33 60.2462C247.974 59.8424 248.549 59.0019 247.607 59.171Z" fill="#3D160C"/>
<path d="M244.837 54.8043C244.808 55.8889 246.815 57.9971 250.575 58.246C250.155 58.1333 248.874 57.5793 248.874 57.5793C248.874 57.5793 253.052 59.1334 256.953 58.5794C256.341 58.2178 253.279 57.5511 253.279 57.5511C253.279 57.5511 258.795 58.4103 260.967 57.4384C258.291 54.0014 246.453 53.499 244.837 54.8043Z" fill="#3D160C"/>
<path d="M259.6 57.2459C259.963 57.8563 260.241 61.298 259.822 62.5751C260.213 62.5187 260.519 61.1571 260.519 61.1571C260.519 61.1571 260.632 64.2936 260.156 65.6271C261.994 63.7959 262.691 59.2132 262.691 59.2132C262.691 59.2132 262.804 57.4102 261.551 56.8233C260.298 56.2505 259.6 57.2459 259.6 57.2459Z" fill="#3D160C"/>
<path d="M258.39 56.6496C258.39 56.6496 264.683 58.7953 267.011 57.5229C267.044 57.3069 266.949 56.8327 266.879 56.5979C264.203 56.9078 259.002 54.3442 259.002 54.3442L258.39 56.6496Z" fill="#CC0C4A"/>
<path d="M258.578 56.6449L259.002 54.3442C259.002 54.3442 257 51.7946 251.177 50.6583C247.117 49.8648 244.168 50.4752 244.168 50.4752L243.796 52.8041C248.813 51.4518 256.68 54.7855 258.578 56.6449Z" fill="#CC0C4A"/>
<path d="M238.83 55.842C241.247 55.3396 247.244 56.0157 250.353 58.4479C252.186 59.88 253.085 60.0959 254.861 59.1287C255.789 58.6263 257.269 57.598 258.578 56.6449C255.446 53.0295 246.584 51.4753 243.796 52.7994C242.444 53.5694 238.83 55.842 238.83 55.842Z" fill="#E40052"/>
<path d="M63.342 125.309C63.342 125.309 61.6602 136.466 61.3493 138.198C61.0384 139.926 58.3061 150.984 58.0329 156.937C57.7644 162.896 58.2684 169.849 58.2684 169.849L54.9802 170.047C54.9802 170.047 53.9344 156.106 53.6282 148.288C53.3644 141.522 55.5455 137.405 55.522 136.414C55.5031 135.418 53.1948 126.756 53.1948 126.756L63.342 125.309Z" fill="#E6BEA6"/>
<path d="M60.9819 128.005C60.9819 128.005 55.522 137.888 54.6316 139.405C53.7413 140.921 47.3298 150.345 45.0074 155.839C42.6849 161.332 40.1458 168.976 40.1458 168.976L37.5831 167.366C37.5831 167.366 41.4507 153.641 43.8815 146.204C45.9872 139.766 49.4638 136.658 49.7889 135.719C50.1139 134.78 50.9666 125.854 50.9666 125.854L60.9819 128.005Z" fill="#E6BEA6"/>
<path d="M52.5871 67.9465C52.5871 67.9465 52.4788 71.6512 52.2951 72.8203C52.1161 73.9894 51.9653 78.6895 51.2634 78.7223C53.0724 80.8916 53.3409 78.2293 54.7117 79.2764C56.0826 80.3234 57.835 81.2484 57.835 81.2484C57.835 81.2484 58.08 81.2625 58.2449 79.1825C58.4097 77.1024 58.3579 76.6658 58.3579 76.6658C58.3579 76.6658 56.9352 75.2666 56.4453 74.4355C56.0166 73.7124 55.8423 72.7546 55.8753 71.8437C55.9083 70.9328 55.9648 69.5993 55.9648 69.5993L52.5824 67.8808L52.5871 67.9465Z" fill="#E4AC8D"/>
<path d="M50.7405 71.6606C50.7405 71.6606 57.2462 74.6327 60.3883 73.3556C61.142 73.0504 61.9711 71.3319 62.3527 69.2753C62.8992 66.336 63.0358 61.8943 62.381 58.1896C61.4011 52.6491 56.3982 50.2217 52.4128 51.7242C48.4275 53.2314 40.419 59.2226 50.7405 71.6606Z" fill="#E6BEA6"/>
<path d="M62.4987 67.7024C62.9651 67.7634 63.7754 67.5287 64.3124 67.2047C63.6576 66.275 63.0452 65.3688 62.8002 64.2936C62.3433 65.2561 62.4987 67.7024 62.4987 67.7024Z" fill="#E6BEA6"/>
<path d="M61.1844 61.5468C61.3917 62.1619 62.0795 64.3922 60.3223 64.8805C58.5652 65.3688 58.5558 62.5094 58.5558 62.5094C58.5558 62.5094 60.3836 61.7863 61.1844 61.5468Z" fill="url(#paint3_linear_1455_285)"/>
<path d="M60.7416 61.4811C58.8054 61.791 57.5995 63.0024 59.3613 62.6033C61.1232 62.2042 61.7544 61.3167 60.7416 61.4811Z" fill="#3F1B14"/>
<path d="M52.5589 99.8419C52.5589 99.8419 55.3618 97.6633 53.2702 91.503C52.0548 87.9299 63.4598 85.3615 63.488 89.0661C63.5163 92.7708 65.0002 100.471 65.0002 100.471C67.7231 108.965 69.9655 132.564 69.7488 136.423C66.6726 137.818 63.0782 138.466 57.0106 137.949C51.6214 137.489 42.2939 135.724 38.2709 132.212C43.6789 117.022 49.2048 103.058 52.5589 99.8419Z" fill="#1A2E35"/>
<path d="M53.0441 75.1492C54.137 74.5294 55.9177 74.8111 57.7549 76.0319C61.0714 79.0275 65.2734 82.1405 66.0413 84.9155C66.1732 86.2255 64.9625 88.2539 64.2088 88.9723C63.8272 94.5268 64.5197 98.6822 64.5197 98.6822C64.5197 98.6822 63.2807 100.288 59.3142 100.518C54.8907 100.776 53.322 99.7668 53.0629 99.3161C53.1901 97.1046 53.2278 95.6819 50.8347 87.9487C49.266 82.8918 50.1893 76.7691 53.0441 75.1492Z" fill="#39D192"/>
<path d="M52.1537 83.4505C51.3058 81.3001 52.2056 79.2529 53.892 78.7458C55.5785 78.234 57.0012 79.3233 57.6654 81.995C58.3344 84.6666 59.8842 91.4232 60.1999 92.9633C60.5155 94.5033 58.6735 96.7055 57.3639 94.8884C55.7999 92.7285 52.6861 84.8075 52.1537 83.4505Z" fill="#E6BEA6"/>
<path d="M60.9395 92.7896C62.3621 93.8836 63.8461 94.9119 65.9565 96.5928C67.5959 97.9028 71.1761 100.204 71.1761 100.204C71.1761 100.204 70.625 101.02 70.0738 101.96C69.1175 101.19 60.148 97.8934 57.6937 95.264C56.0826 93.7521 57.3828 90.0616 60.9395 92.7896Z" fill="#E6BEA6"/>
<path d="M75.4913 102.485C74.9071 101.936 74.1063 101.33 71.407 100.222C69.7346 99.5367 69.1269 101.307 70.2528 102.288C71.374 103.265 72.8249 103.11 73.362 103.373C73.8142 103.594 74.6292 104.655 74.6292 104.655L74.7564 105.331C74.7564 105.331 75.5949 105.138 75.7221 104.631C75.9859 103.603 76.0236 102.983 75.4913 102.485Z" fill="#E6BEA6"/>
<path d="M59.2812 69.6791C58.5605 70.3083 57.2556 69.8623 57.0483 68.9326C56.9682 68.6321 56.9871 68.3269 57.0577 68.0452C57.0483 69.2519 58.1177 70.1205 59.2812 69.6791Z" fill="#A36052"/>
<path d="M57.0012 65.4862C57.0059 65.6599 57.5241 65.7867 58.1601 65.7726C58.796 65.7585 59.3095 65.6036 59.3048 65.4298C59.3001 65.2561 58.7819 65.1293 58.1459 65.1434C57.5052 65.1622 56.9965 65.3125 57.0012 65.4862Z" fill="#EF93A0"/>
<path d="M54.7306 169.755C54.7306 169.755 53.4539 172.009 53.8967 174.484L66.2344 174.348C66.2344 174.348 67.1954 172.577 63.5587 172.117C59.6487 171.624 58.5511 169.605 58.5511 169.605C57.3781 169.981 56.1108 170.047 54.7306 169.755Z" fill="#641A24"/>
<path d="M66.2729 174.345L53.8422 174.482L53.8518 175.35L66.2825 175.214L66.2729 174.345Z" fill="#E1E8F0"/>
<path d="M37.5972 167.032C37.5972 167.032 35.6988 167.849 34.8838 169.849L40.7441 174.056L44.5646 173.869C44.5646 173.869 45.1063 172.446 42.9911 172.549C41.055 172.643 40.3531 168.685 40.3531 168.685C39.2225 168.389 38.2944 167.849 37.5972 167.032Z" fill="#641A24"/>
<path d="M40.773 174.725L44.6031 174.538L44.5701 173.868L40.7401 174.055L40.773 174.725Z" fill="#E1E8F0"/>
<path d="M40.7676 174.728L34.6388 170.342L34.8885 169.849L40.7346 174.056L40.7676 174.728Z" fill="#E1E8F0"/>
<path d="M62.8144 64.2842C62.6825 64.6223 61.8534 65.4721 60.7463 66.0684C59.644 66.66 58.0235 66.5286 57.3922 66.4347C56.2239 68.0358 55.5597 71.8531 56.0967 72.8297C57.3027 73.5809 59.1164 74.1162 60.4872 74.1632C60.7369 74.1726 60.9725 74.0787 61.1468 73.9002C62.9746 72.0174 64.694 67.3596 64.5715 66.7492C64.4444 66.1107 62.9934 65.1153 62.8144 64.2842Z" fill="#D4E5EF"/>
<path d="M57.7879 66.9558C59.4697 67.0451 60.8877 66.7774 62.0701 65.721C62.3904 65.4345 62.6919 65.0871 62.9793 64.6739C62.8992 64.5424 62.8427 64.411 62.8144 64.2842C62.6825 64.6223 61.8534 65.4721 60.7463 66.0684C59.644 66.66 58.0235 66.5286 57.3922 66.4347C56.2239 68.0358 55.5597 71.8531 56.0967 72.8297C57.3027 73.5809 59.1164 74.1162 60.4872 74.1632C60.7322 74.1726 60.9678 74.0787 61.1373 73.9049C60.2658 73.7688 57.5006 73.2992 56.6196 72.609C56.1533 71.3882 56.9258 67.9888 57.7879 66.9558Z" fill="#99C1D6"/>
<path d="M184.773 68.5663C184.646 68.9795 183.747 70.0641 182.493 70.867C181.245 71.6699 179.314 71.6653 178.555 71.6136C177.321 73.6185 176.887 78.1965 177.618 79.3046C179.116 80.0793 181.311 80.5488 182.941 80.4784C183.233 80.4643 183.506 80.3328 183.695 80.1075C185.683 77.7081 187.28 72.0409 187.082 71.3272C186.87 70.5712 185.066 69.5289 184.773 68.5663Z" fill="#D4E5EF"/>
<path d="M179.078 72.1911C181.075 72.1442 182.729 71.6934 184.029 70.3318C184.382 69.9608 184.707 69.5242 185.004 69.0124C184.901 68.8621 184.816 68.7119 184.773 68.5663C184.646 68.9795 183.747 70.0641 182.493 70.867C181.245 71.6699 179.314 71.6653 178.555 71.6136C177.321 73.6185 176.887 78.1965 177.618 79.3046C179.116 80.0793 181.311 80.5488 182.941 80.4784C183.233 80.4643 183.502 80.3328 183.685 80.1122C182.644 80.0323 179.323 79.7318 178.216 78.9947C177.552 77.5861 178.15 73.4917 179.078 72.1911Z" fill="#99C1D6"/>
<path d="M205.393 120.647L209.232 166.591C209.303 167.455 210.075 168.122 210.999 168.122H296.736C297.659 168.122 298.432 167.455 298.503 166.591L302.342 120.647H205.393Z" fill="#1A2E35"/>
<path d="M301.221 164.135H206.509L201.407 104.857H306.323L301.221 164.135Z" fill="#D7D7D7"/>
<path d="M306.323 104.857H201.407L201.864 110.186H305.866L306.323 104.857Z" fill="#BABABA"/>
<path d="M310.148 100.87H197.582C197.078 100.87 196.668 101.255 196.668 101.725V104.523C196.668 104.997 197.078 105.378 197.582 105.378H310.143C310.647 105.378 311.057 104.993 311.057 104.523V101.725C311.062 101.255 310.652 100.87 310.148 100.87Z" fill="#1A2E35"/>
<path d="M208.827 172.282L211.394 146.969C211.432 146.617 211.173 146.302 210.82 146.269L203.815 145.565C203.461 145.528 203.146 145.786 203.113 146.138L200.545 171.451C200.508 171.803 200.767 172.117 201.12 172.15L208.125 172.854C208.474 172.887 208.789 172.634 208.827 172.282Z" fill="#3F9095"/>
<path d="M204.389 170.521L202.175 149.716C202.152 149.481 201.94 149.312 201.704 149.335L197.022 149.833C196.786 149.857 196.617 150.068 196.64 150.303L198.854 171.108C198.878 171.342 199.09 171.512 199.325 171.488L204.008 170.99C204.243 170.967 204.413 170.756 204.389 170.521Z" fill="#00AC8F"/>
<path d="M202.284 170.718L194.784 146.401C194.68 146.063 194.322 145.875 193.983 145.978L187.251 148.04C186.912 148.143 186.724 148.5 186.827 148.838L194.327 173.155C194.431 173.493 194.789 173.681 195.128 173.577L201.86 171.516C202.199 171.413 202.387 171.056 202.284 170.718Z" fill="#C9D53D"/>
<path d="M210.603 151.538H188.113C187.699 151.538 187.383 151.913 187.454 152.317L191.204 173.493C191.26 173.812 191.538 174.042 191.863 174.042H209.684C210.042 174.042 210.334 173.761 210.353 173.404L211.272 152.228C211.286 151.852 210.985 151.538 210.603 151.538ZM195.712 171.131C195.665 171.141 195.618 171.141 195.571 171.141C195.156 171.141 194.789 170.84 194.718 170.418L192.433 156.397C192.358 155.928 192.678 155.486 193.145 155.411C193.611 155.336 194.059 155.655 194.134 156.12L196.419 170.14C196.503 170.615 196.183 171.056 195.712 171.131ZM201.285 171.141C201.271 171.141 201.257 171.141 201.238 171.141C200.781 171.141 200.399 170.784 200.376 170.324L199.646 156.303C199.622 155.829 199.985 155.425 200.461 155.402C200.927 155.388 201.341 155.74 201.365 156.214L202.095 170.234C202.123 170.713 201.761 171.117 201.285 171.141ZM207.447 170.291C207.442 170.765 207.056 171.141 206.585 171.141C206.58 171.141 206.58 171.141 206.575 171.141C206.099 171.136 205.718 170.746 205.723 170.272L205.859 156.252C205.864 155.777 206.25 155.402 206.721 155.402C206.726 155.402 206.726 155.402 206.731 155.402C207.206 155.407 207.588 155.796 207.583 156.27L207.447 170.291Z" fill="#FF0051"/>
<path d="M194.176 173.38C194.176 174.601 193.182 175.592 191.957 175.592C190.733 175.592 189.739 174.601 189.739 173.38C189.739 172.16 190.733 171.169 191.957 171.169C193.182 171.169 194.176 172.16 194.176 173.38Z" fill="#2D2A25"/>
<path d="M191.962 174.714C192.701 174.714 193.3 174.117 193.3 173.38C193.3 172.644 192.701 172.047 191.962 172.047C191.223 172.047 190.624 172.644 190.624 173.38C190.624 174.117 191.223 174.714 191.962 174.714Z" fill="#818080"/>
<path d="M209.727 175.592C210.952 175.592 211.946 174.602 211.946 173.38C211.946 172.159 210.952 171.169 209.727 171.169C208.501 171.169 207.508 172.159 207.508 173.38C207.508 174.602 208.501 175.592 209.727 175.592Z" fill="#2D2A25"/>
<path d="M209.727 174.714C210.466 174.714 211.065 174.117 211.065 173.38C211.065 172.644 210.466 172.047 209.727 172.047C208.988 172.047 208.389 172.644 208.389 173.38C208.389 174.117 208.988 174.714 209.727 174.714Z" fill="#818080"/>
<path d="M190.53 169.671C189.786 169.802 189.074 169.309 188.943 168.568L180.925 123.474L182.272 123.234L190.53 169.671Z" fill="#818080"/>
<path d="M181.009 119.999C181.123 120.267 182.182 121.224 183.285 121.642C184.387 122.06 185.263 121.985 185.57 122.779C185.876 123.577 185.113 125.169 183.209 125.662C181.306 126.155 181.038 125.131 181.419 123.727C179.285 123.727 179.21 122.436 179.135 121.262C179.064 120.088 181.009 119.999 181.009 119.999Z" fill="#F7C17D"/>
<path d="M244.526 127.352C244.314 127.347 244.125 127.296 243.96 127.197C243.796 127.098 243.668 126.953 243.584 126.756C243.866 126.643 244.154 126.535 244.436 126.436C244.488 126.544 244.563 126.619 244.658 126.652C244.752 126.685 244.856 126.685 244.969 126.648C245.086 126.61 245.171 126.554 245.223 126.479C245.275 126.403 245.284 126.324 245.256 126.23C245.232 126.155 245.185 126.098 245.11 126.065C245.039 126.033 244.954 126.014 244.865 126.009C244.771 126.004 244.644 126.004 244.479 126.018C244.238 126.033 244.041 126.037 243.88 126.028C243.72 126.018 243.569 125.971 243.423 125.892C243.277 125.812 243.164 125.676 243.089 125.488C242.976 125.206 243.004 124.939 243.183 124.685C243.362 124.436 243.645 124.234 244.036 124.103C244.432 123.967 244.785 123.948 245.077 124.042C245.369 124.131 245.567 124.328 245.666 124.615C245.355 124.704 245.049 124.798 244.738 124.896C244.7 124.798 244.629 124.732 244.535 124.699C244.441 124.666 244.333 124.671 244.21 124.713C244.107 124.751 244.031 124.802 243.984 124.873C243.937 124.943 243.932 125.023 243.965 125.112C244.003 125.211 244.083 125.272 244.205 125.291C244.328 125.309 244.516 125.314 244.761 125.305C245.006 125.3 245.209 125.309 245.364 125.328C245.524 125.347 245.67 125.403 245.807 125.493C245.944 125.582 246.038 125.723 246.09 125.91C246.142 126.089 246.137 126.267 246.085 126.441C246.033 126.615 245.93 126.77 245.779 126.911C245.628 127.051 245.43 127.159 245.195 127.244C244.959 127.319 244.738 127.357 244.526 127.352Z" fill="#7A7A7A"/>
<path d="M248.257 123.056C248.375 123.694 248.492 124.338 248.61 124.976C248.643 125.169 248.723 125.305 248.841 125.394C248.959 125.478 249.114 125.507 249.307 125.474C249.5 125.441 249.642 125.37 249.731 125.248C249.821 125.131 249.854 124.971 249.826 124.779C249.736 124.136 249.651 123.488 249.562 122.844C249.863 122.802 250.169 122.765 250.471 122.736C250.537 123.384 250.607 124.028 250.673 124.676C250.702 124.967 250.664 125.216 250.556 125.432C250.447 125.647 250.297 125.817 250.094 125.948C249.896 126.079 249.665 126.164 249.406 126.202C249.147 126.244 248.907 126.234 248.681 126.173C248.455 126.112 248.262 125.995 248.101 125.821C247.941 125.647 247.823 125.417 247.762 125.136C247.626 124.502 247.489 123.868 247.352 123.234C247.654 123.168 247.955 123.107 248.257 123.056Z" fill="#7A7A7A"/>
<path d="M255.12 124.197C255.017 124.347 254.866 124.464 254.668 124.553C254.47 124.643 254.23 124.68 253.947 124.676C253.773 124.671 253.594 124.671 253.42 124.671C253.42 125.061 253.425 125.45 253.425 125.845C253.151 125.845 252.883 125.849 252.61 125.859C252.572 124.769 252.534 123.685 252.497 122.596C252.991 122.577 253.486 122.572 253.98 122.581C254.282 122.586 254.532 122.638 254.734 122.736C254.937 122.835 255.083 122.966 255.177 123.131C255.271 123.295 255.309 123.478 255.295 123.685C255.285 123.877 255.224 124.046 255.12 124.197ZM254.268 123.943C254.353 123.873 254.395 123.774 254.4 123.643C254.404 123.511 254.367 123.413 254.287 123.337C254.207 123.262 254.079 123.225 253.91 123.225C253.75 123.225 253.585 123.22 253.425 123.22C253.425 123.492 253.425 123.765 253.429 124.037C253.585 124.037 253.745 124.037 253.9 124.042C254.061 124.046 254.183 124.014 254.268 123.943Z" fill="#7A7A7A"/>
<path d="M258.032 123.577C257.999 123.793 257.961 124.014 257.928 124.23C258.314 124.291 258.701 124.361 259.087 124.441C259.045 124.643 259.007 124.84 258.965 125.042C258.588 124.967 258.211 124.896 257.834 124.835C257.796 125.07 257.759 125.305 257.721 125.544C258.135 125.61 258.555 125.685 258.965 125.774C258.922 125.981 258.875 126.192 258.833 126.399C258.164 126.258 257.485 126.145 256.812 126.061C256.948 124.981 257.09 123.901 257.226 122.826C257.989 122.924 258.748 123.051 259.502 123.206C259.459 123.413 259.412 123.624 259.37 123.83C258.927 123.732 258.479 123.647 258.032 123.577Z" fill="#7A7A7A"/>
<path d="M262.196 127.338C262.111 126.873 262.017 126.408 261.914 125.939C261.848 125.915 261.782 125.896 261.716 125.878C261.593 126.267 261.466 126.662 261.344 127.051C261.084 126.967 260.821 126.892 260.557 126.817C260.854 125.77 261.15 124.723 261.447 123.675C261.946 123.816 262.441 123.967 262.931 124.136C263.214 124.234 263.44 124.361 263.609 124.516C263.774 124.676 263.878 124.845 263.92 125.028C263.958 125.211 263.944 125.394 263.873 125.572C263.793 125.774 263.657 125.929 263.468 126.037C263.28 126.15 263.054 126.192 262.785 126.169C262.893 126.666 262.992 127.164 263.077 127.662C262.78 127.549 262.488 127.441 262.196 127.338ZM261.885 125.338C262.06 125.394 262.229 125.45 262.403 125.507C262.559 125.558 262.681 125.563 262.785 125.525C262.884 125.483 262.959 125.403 263.002 125.281C263.044 125.164 263.039 125.061 262.983 124.962C262.926 124.868 262.823 124.793 262.667 124.741C262.488 124.68 262.314 124.624 262.135 124.568C262.045 124.826 261.965 125.084 261.885 125.338Z" fill="#7A7A7A"/>
<path d="M239.532 133.994C240.382 133.994 241.039 134.249 241.503 134.759C241.976 135.269 242.212 135.959 242.212 136.83V140.678H239.602V137.159C239.602 136.877 239.516 136.657 239.343 136.5C239.177 136.336 238.953 136.253 238.67 136.253C238.378 136.253 238.15 136.336 237.985 136.5C237.819 136.657 237.737 136.877 237.737 137.159V140.678H235.127V137.159C235.127 136.877 235.041 136.657 234.868 136.5C234.702 136.336 234.478 136.253 234.195 136.253C233.903 136.253 233.675 136.336 233.51 136.5C233.345 136.657 233.262 136.877 233.262 137.159V140.678H230.641V134.041H233.262V134.935C233.451 134.653 233.707 134.425 234.029 134.253C234.36 134.08 234.746 133.994 235.186 133.994C235.667 133.994 236.092 134.1 236.462 134.312C236.832 134.516 237.127 134.806 237.347 135.182C237.591 134.837 237.902 134.555 238.28 134.335C238.658 134.108 239.075 133.994 239.532 133.994Z" fill="#7A7A7A"/>
<path d="M242.993 137.36C242.993 136.661 243.111 136.057 243.347 135.547C243.591 135.029 243.922 134.637 244.339 134.37C244.756 134.096 245.225 133.958 245.744 133.958C246.177 133.958 246.551 134.049 246.866 134.229C247.181 134.402 247.421 134.641 247.586 134.947V134.041H250.196V140.678H247.586V139.772C247.421 140.078 247.181 140.321 246.866 140.502C246.551 140.674 246.177 140.761 245.744 140.761C245.225 140.761 244.756 140.627 244.339 140.36C243.922 140.086 243.591 139.694 243.347 139.184C243.111 138.666 242.993 138.058 242.993 137.36ZM247.586 137.36C247.586 137.007 247.496 136.732 247.315 136.536C247.134 136.34 246.901 136.242 246.618 136.242C246.335 136.242 246.102 136.34 245.921 136.536C245.74 136.732 245.65 137.007 245.65 137.36C245.65 137.713 245.74 137.987 245.921 138.183C246.102 138.379 246.335 138.478 246.618 138.478C246.901 138.478 247.134 138.379 247.315 138.183C247.496 137.987 247.586 137.713 247.586 137.36Z" fill="#7A7A7A"/>
<path d="M253.994 135.265C254.261 134.88 254.588 134.574 254.974 134.347C255.359 134.111 255.761 133.994 256.178 133.994V136.783H255.434C254.938 136.783 254.572 136.869 254.336 137.042C254.108 137.214 253.994 137.52 253.994 137.96V140.678H251.373V134.041H253.994V135.265Z" fill="#7A7A7A"/>
<path d="M261.147 140.678L259.505 138.03V140.678H256.884V131.97H259.505V136.524L261.17 134.041H264.216L261.725 137.383L264.275 140.678H261.147Z" fill="#7A7A7A"/>
<path d="M271.31 137.301C271.31 137.481 271.298 137.654 271.275 137.819H267.059C267.099 138.391 267.339 138.678 267.78 138.678C268.063 138.678 268.268 138.548 268.394 138.289H271.168C271.074 138.76 270.873 139.184 270.566 139.56C270.267 139.929 269.885 140.223 269.421 140.443C268.964 140.655 268.461 140.761 267.91 140.761C267.248 140.761 266.658 140.623 266.138 140.349C265.627 140.074 265.225 139.682 264.934 139.172C264.651 138.654 264.509 138.05 264.509 137.36C264.509 136.669 264.651 136.069 264.934 135.559C265.225 135.041 265.627 134.645 266.138 134.37C266.658 134.096 267.248 133.958 267.91 133.958C268.571 133.958 269.157 134.096 269.669 134.37C270.188 134.637 270.59 135.022 270.873 135.524C271.164 136.026 271.31 136.618 271.31 137.301ZM268.653 136.677C268.653 136.457 268.583 136.293 268.441 136.183C268.299 136.065 268.122 136.006 267.91 136.006C267.445 136.006 267.174 136.23 267.095 136.677H268.653Z" fill="#7A7A7A"/>
<path d="M276.283 138.454V140.678H275.292C273.465 140.678 272.552 139.772 272.552 137.96V136.218H271.726V134.041H272.552V132.44H275.173V134.041H276.26V136.218H275.173V138.007C275.173 138.164 275.209 138.277 275.28 138.348C275.358 138.419 275.484 138.454 275.658 138.454H276.283Z" fill="#7A7A7A"/>
<path d="M241.289 127.361C241.289 127.483 241.191 127.587 241.063 127.587C240.941 127.587 240.837 127.488 240.837 127.361C240.837 127.239 240.936 127.136 241.063 127.136C241.191 127.136 241.289 127.235 241.289 127.361Z" fill="#7A7A7A"/>
<path d="M265.409 127.587C265.534 127.587 265.635 127.486 265.635 127.361C265.635 127.237 265.534 127.136 265.409 127.136C265.284 127.136 265.183 127.237 265.183 127.361C265.183 127.486 265.284 127.587 265.409 127.587Z" fill="#7A7A7A"/>
<path d="M276.64 142.138H230.393C230.266 142.138 230.162 142.034 230.162 141.907C230.162 141.781 230.266 141.677 230.393 141.677H276.64C276.767 141.677 276.87 141.781 276.87 141.907C276.87 142.034 276.767 142.138 276.64 142.138Z" fill="#7A7A7A"/>
<path d="M108.077 126.087L101.545 125.634L100.192 145.016L106.724 145.469L108.077 126.087Z" fill="#C15205"/>
<path d="M131.522 147.27L119.137 148.162C118.85 148.18 118.596 147.988 118.539 147.706L116.881 139.522L132.511 138.395L132.05 146.73C132.036 147.021 131.809 147.251 131.522 147.27Z" fill="#9EB31E"/>
<path d="M132.973 138.494L116.438 139.687C116.231 139.701 116.052 139.546 116.038 139.344L116 138.841C115.986 138.635 116.141 138.456 116.344 138.442L132.879 137.25C133.086 137.236 133.265 137.391 133.279 137.592L133.317 138.095C133.336 138.297 133.18 138.475 132.973 138.494Z" fill="#4C7122"/>
<path d="M125.147 145.146C126.997 145.012 128.438 144.099 128.366 143.106C128.294 142.113 126.736 141.416 124.885 141.549C123.035 141.683 121.594 142.596 121.666 143.589C121.738 144.582 123.296 145.279 125.147 145.146Z" fill="#669328"/>
<path d="M137.117 134.496L132.415 129.953L118.846 143.903L123.547 148.446L137.117 134.496Z" fill="#C15205"/>
<path d="M93.4291 124.74L87.0114 126.035L91.8056 149.629L98.2234 148.334L93.4291 124.74Z" fill="#608F80"/>
<path d="M119.295 128.699L108.544 128.762L108.658 147.994L119.408 147.931L119.295 128.699Z" fill="#008DBF"/>
<path d="M118.157 125.014L109.635 125.065L108.543 128.76L119.293 128.695L118.157 125.014Z" fill="#175B8C"/>
<path d="M118.149 123.038L109.622 123.088L109.634 125.065L118.161 125.015L118.149 123.038Z" fill="#008DBF"/>
<path d="M116.97 137.902C116.98 139.55 115.647 140.898 113.988 140.907C112.335 140.917 110.983 139.588 110.973 137.935C110.964 136.287 112.297 134.94 113.955 134.93C115.609 134.925 116.961 136.254 116.97 137.902Z" fill="#47BEE9"/>
<path d="M115.642 148.518L100.902 149.584C100.562 149.608 100.256 149.378 100.19 149.044L98.2164 139.306L116.824 137.963L116.278 147.885C116.254 148.218 115.986 148.495 115.642 148.518Z" fill="#9EB31E"/>
<path d="M117.441 138.062L97.6134 139.494C97.4061 139.508 97.2271 139.353 97.213 139.151L97.1612 138.409C97.147 138.203 97.3025 138.024 97.5051 138.01L117.333 136.578C117.54 136.564 117.719 136.719 117.733 136.921L117.785 137.663C117.799 137.869 117.644 138.048 117.441 138.062Z" fill="#4C7122"/>
<path d="M111.883 143.551C111.967 144.734 110.253 145.819 108.048 145.978C105.843 146.138 103.987 145.307 103.902 144.124C103.818 142.94 105.532 141.856 107.737 141.696C109.942 141.541 111.798 142.368 111.883 143.551Z" fill="#669328"/>
<path d="M88.927 129.134L78.8541 132.877L85.5941 150.897L95.667 147.154L88.927 129.134Z" fill="#008DBF"/>
<path d="M86.59 126.07L78.6051 129.038L78.8501 132.878L88.9266 129.136L86.59 126.07Z" fill="#175B8C"/>
<path d="M85.9003 124.212L77.9109 127.18L78.6036 129.033L86.5931 126.064L85.9003 124.212Z" fill="#008DBF"/>
<path d="M89.9206 138.578C90.5 140.123 89.7086 141.846 88.1588 142.424C86.6089 143.001 84.88 142.213 84.3006 140.668C83.7211 139.123 84.5126 137.4 86.0624 136.822C87.617 136.25 89.3412 137.034 89.9206 138.578Z" fill="#47BEE9"/>
<path d="M98.9042 126.685V125.131H94.4854V126.685C94.4854 126.868 94.4524 127.051 94.3912 127.225L92.9261 131.366C92.8413 131.601 92.7989 131.85 92.7989 132.099V149.317C92.7989 149.678 93.091 149.969 93.4537 149.969H99.9312C100.294 149.969 100.586 149.678 100.586 149.317V132.099C100.586 131.85 100.544 131.601 100.459 131.366L98.9937 127.225C98.9325 127.051 98.9042 126.868 98.9042 126.685Z" fill="#EBC444"/>
<path d="M99.38 126.155H94.0049C93.807 126.155 93.6469 125.995 93.6469 125.798V123.774C93.6469 123.577 93.807 123.417 94.0049 123.417H99.38C99.5778 123.417 99.738 123.577 99.738 123.774V125.798C99.738 125.995 99.5778 126.155 99.38 126.155Z" fill="#E0803C"/>
<path d="M100.586 135.667H92.7989V144.152H100.586V135.667Z" fill="#E0803C"/>
<path d="M100.586 134.775H92.7989V135.278H100.586V134.775Z" fill="#E0803C"/>
<path d="M100.586 144.579H92.7989V145.081H100.586V144.579Z" fill="#E0803C"/>
<path d="M86.8179 175.258C89.0485 174.337 90.1078 171.788 89.1838 169.565C88.2598 167.342 85.7025 166.286 83.4718 167.207C81.2411 168.128 80.1819 170.677 81.1059 172.9C82.0299 175.123 84.5872 176.179 86.8179 175.258Z" fill="#001525"/>
<path d="M87.7819 171.23C87.7819 172.681 86.5994 173.859 85.1438 173.859C83.6881 173.859 82.5057 172.681 82.5057 171.23C82.5057 169.779 83.6881 168.6 85.1438 168.6C86.5994 168.6 87.7819 169.774 87.7819 171.23Z" fill="#818080"/>
<path d="M83.5374 163.966C83.3254 167.3 83.1464 170.591 84.5691 170.488C85.9918 170.38 89.5814 164.107 89.5814 164.107L83.5374 163.966Z" fill="#5A5A58"/>
<path d="M129.057 175.251C131.286 174.324 132.339 171.773 131.409 169.552C130.48 167.331 127.92 166.281 125.692 167.207C123.463 168.133 122.41 170.685 123.339 172.906C124.269 175.127 126.829 176.177 129.057 175.251Z" fill="#001525"/>
<path d="M130 171.23C130 172.681 128.818 173.859 127.362 173.859C125.907 173.859 124.724 172.681 124.724 171.23C124.724 169.779 125.907 168.6 127.362 168.6C128.818 168.6 130 169.774 130 171.23Z" fill="#818080"/>
<path d="M125.761 163.966C125.549 167.3 125.37 170.591 126.792 170.488C128.215 170.38 131.805 164.107 131.805 164.107L125.761 163.966Z" fill="#5A5A58"/>
<path d="M74.9118 105.054C74.9118 106.181 73.9932 107.096 72.8626 107.096C71.732 107.096 70.8134 106.181 70.8134 105.054C70.8134 103.927 71.732 103.011 72.8626 103.011C73.9932 103.011 74.9118 103.927 74.9118 105.054Z" fill="#BD314A"/>
<path d="M74.1817 105.054C74.1817 105.782 73.5881 106.373 72.8579 106.373C72.1277 106.373 71.5342 105.782 71.5342 105.054C71.5342 104.326 72.1277 103.734 72.8579 103.734C73.5928 103.739 74.1817 104.326 74.1817 105.054Z" fill="#842332"/>
<path d="M105.033 72.6278H77.2531V73.0974H105.033V72.6278Z" fill="#515453"/>
<path d="M77.6253 74.1256L75.4253 72.8626L77.6253 71.5948V74.1256Z" fill="#515453"/>
<path d="M145.004 72.6278H117.225V73.0974H145.004V72.6278Z" fill="#515453"/>
<path d="M144.637 71.5948L146.832 72.8626L144.637 74.1256V71.5948Z" fill="#515453"/>
<path d="M107.742 71.9327V70.8814H109.461V74.5763H108.279V71.9327H107.742Z" fill="#515453"/>
<path d="M113.789 71.7053C114.154 71.7053 114.436 71.8148 114.636 72.0338C114.839 72.2529 114.94 72.5494 114.94 72.9234V74.5763H113.819V73.065C113.819 72.9437 113.782 72.8493 113.708 72.7819C113.637 72.7112 113.54 72.6758 113.419 72.6758C113.294 72.6758 113.196 72.7112 113.125 72.7819C113.054 72.8493 113.018 72.9437 113.018 73.065V74.5763H111.897V73.065C111.897 72.9437 111.86 72.8493 111.786 72.7819C111.715 72.7112 111.618 72.6758 111.497 72.6758C111.372 72.6758 111.274 72.7112 111.203 72.7819C111.132 72.8493 111.096 72.9437 111.096 73.065V74.5763H109.97V71.7255H111.096V72.1097C111.177 71.9883 111.287 71.8906 111.426 71.8165C111.568 71.7424 111.733 71.7053 111.923 71.7053C112.129 71.7053 112.311 71.7508 112.47 71.8418C112.629 71.9294 112.756 72.0541 112.851 72.2158C112.956 72.0675 113.089 71.9462 113.251 71.8519C113.414 71.7542 113.593 71.7053 113.789 71.7053Z" fill="#515453"/>
<path d="M42.5531 60.5561C41.3235 66.8807 41.9689 76.1352 49.2095 75.2854C47.5136 74.8299 46.8305 73.0973 46.8305 73.0973C46.8305 73.0973 47.9705 75.6234 52.0784 74.8299C50.8818 74.1491 49.9114 71.9845 49.9114 71.9845C49.9114 71.9845 51.1503 74.4637 56.5678 72.3602C53.633 68.5382 51.6403 63.4719 53.9863 57.4337C54.1983 59.0207 54.9426 60.6031 56.304 61.2745C57.1708 61.5938 58.7065 61.3261 60.0162 60.589C58.7772 59.9175 58.7065 58.1944 58.7065 58.1944C58.7065 58.1944 59.5733 60.1852 61.4294 60.5561C63.7095 60.3871 65.2122 59.9927 65.2122 59.9927C65.2122 59.9927 63.9214 58.199 62.5412 55.4992C60.9866 52.452 57.835 49.3624 52.5306 50.4423C47.2262 51.5223 46.8258 54.3676 46.8258 54.3676C46.8258 54.3676 46.3688 51.9777 45.2853 51.1842C45.1157 52.6632 45.9119 54.6541 45.9119 54.6541C45.9119 54.6541 45.3984 53.6868 44.2018 54.0296C44.3149 55.0532 45.6292 55.2222 45.6292 55.2222C45.6292 55.2222 43.2974 56.7435 42.5531 60.5561Z" fill="#1A2E35"/>
<path d="M54.5657 56.2974C53.8308 57.6685 53.8308 63.3076 55.6021 66.4487C53.1572 64.8054 52.7379 59.3494 53.1054 57.49C53.4775 55.6307 54.5657 56.2974 54.5657 56.2974Z" fill="#1A2E35"/>
<path d="M255.53 63.8335C255.526 63.5987 255.304 63.4297 255.073 63.486C253.872 63.7677 252.464 63.7302 250.716 62.824C249.986 62.4437 249.425 61.9882 248.441 62.6127C246.665 63.7396 244.818 63.1714 244.38 62.8991C243.965 67.2986 244.432 69.1345 247.253 70.8154C249.581 72.0362 254.946 72.4306 257.245 70.4116C257.382 70.2896 257.396 70.083 257.297 69.9327C255.789 67.6649 255.559 64.9181 255.53 63.8335Z" fill="#D4E5EF"/>
<path d="M260.839 61.7628C261.037 61.7112 261.226 61.6642 261.381 61.6407C262.126 61.5187 262.776 62.0821 262.776 62.0821C262.498 62.0258 262.253 62.0164 262.031 62.0821C261.843 62.0258 261.65 62.0023 261.452 62.0398C261.287 62.068 261.094 62.115 260.877 62.1713C259.125 62.6268 255.408 63.9884 255.37 64.0025L255.224 63.6269C255.375 63.5658 259.078 62.2136 260.839 61.7628Z" fill="#D4E5EF"/>
<path d="M260.529 68.0499C261.099 67.5897 261.64 66.9887 261.998 66.3877C262.168 66.4206 262.243 66.4253 262.446 66.43C261.928 67.416 261.028 68.2377 260.1 68.8762C258.979 69.6463 257.829 70.1487 257.292 70.3647L257.141 69.9937C257.598 69.8106 259.195 69.1251 260.529 68.0499Z" fill="#D4E5EF"/>
<path d="M257.297 69.9327C255.794 67.6649 255.559 64.9134 255.53 63.8335C255.526 63.5987 255.304 63.4297 255.073 63.486C253.872 63.7677 252.464 63.7302 250.716 62.824C249.986 62.4437 249.425 61.9882 248.441 62.6127C246.665 63.7396 244.818 63.1714 244.38 62.8991C244.361 63.0869 244.347 63.2653 244.333 63.4438C244.728 63.6128 245.557 63.871 246.65 63.7302C248.459 63.4954 248.7 62.7066 249.359 62.7489C249.924 62.7864 250.867 63.6363 252.157 63.9039C253.707 64.2279 254.692 64.0495 254.861 64.0307C255.031 64.0119 255.069 64.0682 255.106 64.3124C255.144 64.5566 255.445 68.6462 256.821 70.1111C255.168 71.1582 253.947 71.7498 250.914 71.7639C253.236 71.9846 255.827 71.6606 257.25 70.4116C257.382 70.2943 257.396 70.0877 257.297 69.9327Z" fill="#99C1D6"/>
<defs>
<linearGradient id="paint0_linear_1455_285" x1="162.997" y1="2.84885" x2="160.452" y2="151.974" gradientUnits="userSpaceOnUse">
<stop stop-color="#D89A68"/>
<stop offset="1" stop-color="#D89A68" stop-opacity="0"/>
</linearGradient>
<linearGradient id="paint1_linear_1455_285" x1="184.257" y1="19.3015" x2="162.197" y2="157.51" gradientUnits="userSpaceOnUse">
<stop stop-color="#C7906A"/>
<stop offset="1" stop-color="#C7906A" stop-opacity="0"/>
</linearGradient>
<linearGradient id="paint2_linear_1455_285" x1="134.952" y1="31.5586" x2="155.267" y2="174.11" gradientUnits="userSpaceOnUse">
<stop stop-color="#C7906A"/>
<stop offset="1" stop-color="#C7906A" stop-opacity="0"/>
</linearGradient>
<linearGradient id="paint3_linear_1455_285" x1="136.231" y1="30.5978" x2="155.216" y2="173.651" gradientUnits="userSpaceOnUse">
<stop stop-color="#C7906A"/>
<stop offset="1" stop-color="#C7906A" stop-opacity="0"/>
</linearGradient>
</defs>
</svg>
