<svg width="112" height="112" viewBox="0 0 112 112" fill="none" xmlns="http://www.w3.org/2000/svg">
<rect width="112" height="112" rx="24" fill="#39D192" fill-opacity="0.2"/>
<path d="M43.069 34.3649C43.4218 34.6334 44.5977 34.9112 46.5062 35.2538C48.9484 35.6983 52.2138 35.902 55.5153 35.902C58.8168 35.902 62.0821 35.6427 64.5243 35.2538C66.4238 34.9112 67.6269 34.6149 67.9615 34.3649C68.0791 34.2723 68.0972 34.1334 67.9706 34.05C67.4188 33.6982 62.9052 32.4388 55.5153 32.4388C48.1253 32.4388 44.1997 33.5315 43.06 34.05C42.9243 34.1056 42.9514 34.2723 43.069 34.3649Z" fill="#FFCB02"/>
<path d="M68.3513 14.4751H43.6577C34.7934 14.4751 27.6115 21.8273 27.6115 30.9018V56.1716C27.6115 65.2461 34.7934 72.5983 43.6577 72.5983H68.3422C77.2066 72.5983 84.3885 65.2461 84.3885 56.1716V30.9018C84.3975 21.8273 77.2156 14.4751 68.3513 14.4751ZM45.711 31.9019C48.3432 31.3833 51.8437 31.1241 55.5161 31.1241C59.1884 31.1241 62.6889 31.3833 65.3211 31.9019C68.505 32.5501 69.907 33.1982 69.9704 34.365C69.9704 35.5965 68.5593 36.3743 65.3211 36.9577C62.6889 37.4114 59.1884 37.6707 55.5161 37.6707C51.8437 37.6707 48.3432 37.4114 45.711 36.9577C42.4638 36.3743 41.0617 35.5965 41.0617 34.365C41.1251 33.189 42.5361 32.5408 45.711 31.9019ZM72.3674 55.6068C72.3674 55.8012 72.2136 55.9586 72.0236 55.9586H64.9141C64.7241 55.9586 64.5703 55.8012 64.5703 55.6068V52.1066C64.5703 51.8751 64.4075 51.6714 64.1814 51.6251L56.3753 50.162C55.7965 50.0509 55.2356 49.8565 54.711 49.5879L39.6416 41.6431C39.6416 40.3745 40.8175 39.4578 42.0115 39.7912L54.6387 43.9673C54.6387 44.7081 55.0909 45.3655 55.7784 45.6063L61.3864 47.2175C61.504 47.2545 61.6216 47.1619 61.6216 47.0323V46.773C61.6216 46.4489 61.4136 46.1711 61.106 46.0878L56.9181 44.9766C56.2397 44.7359 55.7784 44.0784 55.7784 43.3376C55.7784 42.3468 56.6377 41.5783 57.5965 41.7079L62.2367 42.1524C63.8558 42.3098 65.4387 42.745 66.8678 43.5321C71.0287 45.7915 72.3583 49.5787 72.3583 54.5974V55.6068H72.3674Z" fill="#FFCB02"/>
<path d="M32.8814 76.7428V79.0244H36.5343V80.2038H32.8814V83.0712H31.4746V75.5712H36.9928V76.7351H32.8814V76.7428Z" fill="#FFCB02"/>
<path d="M39.0761 82.7707C38.6098 82.524 38.2445 82.1694 37.9802 81.7301C37.716 81.283 37.5839 80.782 37.5839 80.2116C37.5839 79.6489 37.716 79.1401 37.9802 78.7008C38.2445 78.2614 38.6098 77.9145 39.0761 77.6602C39.5424 77.4135 40.0709 77.2825 40.6538 77.2825C41.2445 77.2825 41.773 77.4058 42.2393 77.6602C42.7056 77.9068 43.0709 78.2537 43.3352 78.7008C43.5994 79.1401 43.7316 79.6489 43.7316 80.2116C43.7316 80.7743 43.5994 81.283 43.3352 81.7301C43.0709 82.1772 42.7056 82.524 42.2393 82.7707C41.773 83.0173 41.2445 83.1484 40.6538 83.1484C40.0709 83.1484 39.5502 83.0251 39.0761 82.7707ZM41.8896 81.5065C42.216 81.1751 42.3792 80.7434 42.3792 80.2116C42.3792 79.6797 42.216 79.2403 41.8896 78.9166C41.5632 78.5852 41.1512 78.4233 40.6616 78.4233C40.1642 78.4233 39.7523 78.5852 39.4336 78.9166C39.115 79.2481 38.9517 79.6797 38.9517 80.2116C38.9517 80.7434 39.115 81.1828 39.4336 81.5065C39.7523 81.838 40.1642 81.9999 40.6616 81.9999C41.1512 81.9999 41.5632 81.838 41.8896 81.5065Z" fill="#FFCB02"/>
<path d="M46.0476 82.7707C45.5813 82.524 45.216 82.1694 44.9517 81.7301C44.6875 81.283 44.5554 80.782 44.5554 80.2116C44.5554 79.6489 44.6875 79.1401 44.9517 78.7008C45.216 78.2614 45.5813 77.9145 46.0476 77.6602C46.5139 77.4135 47.0424 77.2825 47.6253 77.2825C48.216 77.2825 48.7445 77.4058 49.2108 77.6602C49.6772 77.9068 50.0424 78.2537 50.3067 78.7008C50.5709 79.1401 50.7031 79.6489 50.7031 80.2116C50.7031 80.7743 50.5709 81.283 50.3067 81.7301C50.0424 82.1772 49.6772 82.524 49.2108 82.7707C48.7445 83.0173 48.216 83.1484 47.6253 83.1484C47.0424 83.1484 46.5139 83.0251 46.0476 82.7707ZM48.8533 81.5065C49.1797 81.1751 49.343 80.7434 49.343 80.2116C49.343 79.6797 49.1797 79.2403 48.8533 78.9166C48.5269 78.5852 48.115 78.4233 47.6253 78.4233C47.1279 78.4233 46.716 78.5852 46.3973 78.9166C46.0787 79.2481 45.9155 79.6797 45.9155 80.2116C45.9155 80.7434 46.0787 81.1828 46.3973 81.5065C46.716 81.838 47.1279 81.9999 47.6253 81.9999C48.1227 81.9999 48.5269 81.838 48.8533 81.5065Z" fill="#FFCB02"/>
<path d="M57.6512 75.1241V83.0713H56.3533V82.3313C56.1279 82.6011 55.8559 82.8092 55.5295 82.9402C55.203 83.079 54.8378 83.1406 54.4414 83.1406C53.8896 83.1406 53.3844 83.0173 52.9491 82.7783C52.5061 82.5394 52.1564 82.1925 51.9077 81.7454C51.659 81.2984 51.5269 80.7896 51.5269 80.2115C51.5269 79.6334 51.6512 79.1247 51.9077 78.6776C52.1564 78.2382 52.5061 77.8914 52.9491 77.6524C53.3922 77.4135 53.8896 77.2901 54.4414 77.2901C54.8222 77.2901 55.172 77.3518 55.4906 77.4828C55.8093 77.6139 56.0813 77.8066 56.2989 78.061V75.1241H57.6512ZM55.4751 81.784C55.7315 81.6375 55.9414 81.4294 56.0891 81.1596C56.2367 80.8898 56.3144 80.5738 56.3144 80.2192C56.3144 79.8647 56.2367 79.5486 56.0891 79.2788C55.9414 79.0091 55.7315 78.8009 55.4751 78.6545C55.2186 78.508 54.9232 78.4387 54.5968 78.4387C54.2704 78.4387 53.9828 78.5157 53.7186 78.6545C53.4621 78.8009 53.2523 79.0091 53.1046 79.2788C52.9569 79.5486 52.8792 79.8647 52.8792 80.2192C52.8792 80.5738 52.9569 80.8898 53.1046 81.1596C53.2523 81.4294 53.4621 81.6375 53.7186 81.784C53.9751 81.9304 54.2704 81.9998 54.5968 81.9998C54.9232 81.9998 55.2186 81.9304 55.4751 81.784Z" fill="#FFCB02"/>
<path d="M64.817 80.6433H60.2936C60.3713 81.0673 60.5812 81.3987 60.9154 81.6454C61.2496 81.892 61.6693 82.0154 62.1667 82.0154C62.804 82.0154 63.3247 81.8073 63.7366 81.391L64.4594 82.2158C64.203 82.5241 63.8688 82.7554 63.4802 82.9095C63.0838 83.0637 62.6408 83.1485 62.1434 83.1485C61.5061 83.1485 60.9542 83.0251 60.4724 82.7708C59.9905 82.5241 59.6174 82.1695 59.3532 81.7302C59.0889 81.2831 58.9568 80.7821 58.9568 80.2117C58.9568 79.6567 59.0812 79.1557 59.3376 78.7086C59.5941 78.2615 59.9516 77.9146 60.4024 77.668C60.8532 77.4213 61.3662 77.2903 61.9335 77.2903C62.4931 77.2903 62.9983 77.4136 63.4413 77.6603C63.8843 77.9069 64.2263 78.2538 64.475 78.7009C64.7237 79.1479 64.848 79.6644 64.848 80.2502C64.8403 80.335 64.8325 80.466 64.817 80.6433ZM60.8299 78.7394C60.5345 78.9938 60.348 79.3329 60.2858 79.7492H63.5579C63.5035 79.3329 63.3247 79.0015 63.0294 78.7394C62.734 78.485 62.3688 78.354 61.9257 78.354C61.4905 78.3617 61.1252 78.485 60.8299 78.7394Z" fill="#FFCB02"/>
<path d="M70.125 77.8914C70.5758 78.2922 70.8011 78.9012 70.8011 79.7183V83.0713H69.5265V82.3776C69.3633 82.6242 69.1224 82.8169 68.8193 82.948C68.5162 83.079 68.1431 83.1484 67.7156 83.1484C67.2882 83.1484 66.9073 83.0713 66.5809 82.9326C66.2545 82.7861 66.0058 82.5857 65.827 82.3236C65.6483 82.0615 65.5628 81.7686 65.5628 81.4372C65.5628 80.9207 65.7571 80.5122 66.1379 80.1962C66.5265 79.8878 67.1327 79.7337 67.9566 79.7337H69.4488V79.6489C69.4488 79.2481 69.3245 78.9397 69.0835 78.7239C68.8426 78.5081 68.4851 78.4002 68.011 78.4002C67.6845 78.4002 67.3659 78.4464 67.055 78.5466C66.7441 78.6468 66.4799 78.7856 66.2623 78.9629L65.7338 77.9916C66.0369 77.7604 66.4022 77.5908 66.8219 77.4675C67.2493 77.3441 67.7001 77.2825 68.1742 77.2825C69.0291 77.2902 69.682 77.4906 70.125 77.8914ZM68.897 81.9459C69.1612 81.7917 69.3478 81.5759 69.4566 81.2907V80.6278H68.0654C67.2882 80.6278 66.8996 80.8822 66.8996 81.3909C66.8996 81.6376 67.0006 81.8303 67.1949 81.969C67.3892 82.1155 67.6612 82.1849 68.0032 82.1849C68.3374 82.1695 68.6327 82.0924 68.897 81.9459Z" fill="#FFCB02"/>
<path d="M72.5347 75.1241H73.8793V83.0713H72.5269V75.1241H72.5347Z" fill="#FFCB02"/>
<path d="M76.0636 82.9635C75.6206 82.8401 75.263 82.686 74.991 82.501L75.5118 81.4835C75.7682 81.6531 76.0791 81.7918 76.4444 81.8998C76.8097 82 77.1672 82.0539 77.5169 82.0539C78.3252 82.0539 78.7294 81.8458 78.7294 81.4218C78.7294 81.2214 78.6284 81.0827 78.4185 81.0056C78.2164 80.9285 77.8822 80.8514 77.4315 80.7821C76.9574 80.7127 76.5688 80.6279 76.2734 80.5354C75.9781 80.4429 75.7138 80.281 75.4962 80.0498C75.2786 79.8186 75.1698 79.4948 75.1698 79.0786C75.1698 78.539 75.3952 78.0996 75.8537 77.7759C76.3123 77.4522 76.9263 77.2903 77.7035 77.2903C78.0999 77.2903 78.4962 77.3365 78.8926 77.4213C79.289 77.5138 79.6154 77.6294 79.8641 77.7836L79.3434 78.8011C78.8537 78.5159 78.3019 78.3694 77.6879 78.3694C77.2916 78.3694 76.9884 78.4311 76.7864 78.5467C76.5843 78.6623 76.4755 78.8165 76.4755 79.0092C76.4755 79.225 76.5843 79.3715 76.8019 79.464C77.0195 79.5565 77.3615 79.6336 77.8201 79.7184C78.2786 79.7877 78.6594 79.8725 78.9548 79.965C79.2501 80.0575 79.5066 80.2117 79.7164 80.4352C79.9263 80.6587 80.0351 80.9671 80.0351 81.3756C80.0351 81.9075 79.8019 82.3391 79.3356 82.6629C78.8693 82.9866 78.232 83.1485 77.4237 83.1485C76.9651 83.1485 76.5143 83.0868 76.0636 82.9635Z" fill="#FFCB02"/>
<rect x="56.0043" y="86.1676" width="24.1341" height="11.3572" rx="5.67861" fill="#FFCB02"/>
<path d="M61.1227 89.6872H63.3487C63.8807 89.6872 64.3497 89.7898 64.7557 89.9952C65.1663 90.1958 65.4837 90.4805 65.7077 90.8492C65.9363 91.2178 66.0507 91.6472 66.0507 92.1372C66.0507 92.6272 65.9363 93.0565 65.7077 93.4252C65.4837 93.7938 65.1663 94.0808 64.7557 94.2862C64.3497 94.4868 63.8807 94.5872 63.3487 94.5872H61.1227V89.6872ZM63.2927 93.6562C63.7827 93.6562 64.1723 93.5208 64.4617 93.2502C64.7557 92.9748 64.9027 92.6038 64.9027 92.1372C64.9027 91.6705 64.7557 91.3018 64.4617 91.0312C64.1723 90.7558 63.7827 90.6182 63.2927 90.6182H62.2567V93.6562H63.2927ZM66.9059 89.6872H68.0399V93.6632H70.4969V94.5872H66.9059V89.6872ZM73.3934 94.6712C72.8941 94.6712 72.4414 94.5638 72.0354 94.3492C71.6341 94.1298 71.3168 93.8288 71.0834 93.4462C70.8548 93.0588 70.7404 92.6225 70.7404 92.1372C70.7404 91.6518 70.8548 91.2178 71.0834 90.8352C71.3168 90.4478 71.6341 90.1468 72.0354 89.9322C72.4414 89.7128 72.8964 89.6032 73.4004 89.6032C73.8251 89.6032 74.2078 89.6778 74.5484 89.8272C74.8938 89.9765 75.1831 90.1912 75.4164 90.4712L74.6884 91.1432C74.3571 90.7605 73.9464 90.5692 73.4564 90.5692C73.1531 90.5692 72.8824 90.6368 72.6444 90.7722C72.4064 90.9028 72.2198 91.0872 72.0844 91.3252C71.9538 91.5632 71.8884 91.8338 71.8884 92.1372C71.8884 92.4405 71.9538 92.7112 72.0844 92.9492C72.2198 93.1872 72.4064 93.3738 72.6444 93.5092C72.8824 93.6398 73.1531 93.7052 73.4564 93.7052C73.9464 93.7052 74.3571 93.5115 74.6884 93.1242L75.4164 93.7962C75.1831 94.0808 74.8938 94.2978 74.5484 94.4472C74.2031 94.5965 73.8181 94.6712 73.3934 94.6712Z" fill="white"/>
</svg>
