<svg width="177" height="50" viewBox="0 0 177 50" fill="none" xmlns="http://www.w3.org/2000/svg">
<g clip-path="url(#clip0_444_3186)">
<path d="M27.3909 13.6725C29.3502 13.8448 31.2577 14.4025 33.007 15.3147C38.051 18.002 39.672 22.5286 39.672 28.5273V29.7217C39.6732 29.7771 39.6633 29.8323 39.6428 29.8838C39.6224 29.9353 39.5918 29.982 39.553 30.0211C39.5142 30.0602 39.468 30.0909 39.4171 30.1113C39.3662 30.1316 39.3118 30.1413 39.2572 30.1397H30.6344C30.5797 30.1413 30.5253 30.1316 30.4744 30.1113C30.4236 30.0909 30.3773 30.0602 30.3385 30.0211C30.2997 29.982 30.2691 29.9353 30.2487 29.8838C30.2282 29.8323 30.2183 29.7771 30.2195 29.7217V25.5414C30.2177 25.4044 30.1695 25.2722 30.0829 25.167C29.9964 25.0618 29.8769 24.99 29.7444 24.9636L20.2714 23.2109C19.5688 23.0805 18.8892 22.8451 18.2547 22.5122L0 13.0559C0.00340118 12.7037 0.0865235 12.357 0.242951 12.0427C0.399379 11.7283 0.624925 11.4546 0.902157 11.2428C1.17939 11.031 1.50089 10.8866 1.84182 10.821C2.18275 10.7554 2.53398 10.7702 2.86839 10.8642L18.1753 15.8462C18.1756 16.2778 18.3093 16.6984 18.5577 17.0487C18.806 17.3991 19.1564 17.6615 19.5595 17.799L26.3627 19.7129C26.3965 19.7224 26.4321 19.724 26.4667 19.7176C26.5012 19.7111 26.5339 19.6968 26.5622 19.6756C26.5905 19.6545 26.6138 19.6271 26.6302 19.5956C26.6466 19.564 26.6557 19.5291 26.6569 19.4935V19.1949C26.6551 19.0068 26.5922 18.8246 26.4778 18.6766C26.3634 18.5286 26.2039 18.4232 26.0244 18.3768L20.9407 17.0421C20.5376 16.9046 20.1872 16.6421 19.9389 16.2918C19.6906 15.9415 19.5568 15.5209 19.5565 15.0893C19.5563 14.8069 19.6158 14.5277 19.7311 14.2707C19.8465 14.0137 20.0149 13.7849 20.225 13.5997C20.435 13.4145 20.6819 13.2773 20.9488 13.1974C21.2156 13.1175 21.4963 13.0967 21.7718 13.1365L27.3909 13.6725Z" fill="#FFCB02"/>
<path d="M31.1489 1.43607C27.9451 0.817991 23.7131 0.5 19.2429 0.5C14.7726 0.5 10.5392 0.813513 7.35745 1.43607C3.50057 2.193 1.80014 2.97082 1.7207 4.36523C1.7207 5.84026 3.42114 6.75395 7.35745 7.45414C10.5406 7.99309 14.7932 8.31109 19.2429 8.31109C23.6925 8.31109 27.9451 7.99309 31.1283 7.45414C35.0646 6.75693 36.765 5.84026 36.765 4.36523C36.7062 2.97082 35.0043 2.193 31.1489 1.43607ZM34.3526 4.36523C33.9364 4.66382 32.4933 5.02362 30.1795 5.42224C26.5634 5.94634 22.9148 6.20579 19.262 6.19858C15.2683 6.19858 11.2923 5.9597 8.34594 5.42224C6.01299 5.02362 4.58909 4.68472 4.15368 4.36523C4.01541 4.2667 3.9757 4.06665 4.15368 3.98752C5.53786 3.36944 10.3038 2.07356 19.262 2.07356C28.2202 2.07356 33.6995 3.56651 34.3718 3.98752C34.4024 4.00909 34.4272 4.03826 34.4436 4.07226C34.4601 4.10625 34.4677 4.14396 34.4658 4.18178C34.4639 4.21961 34.4525 4.25632 34.4327 4.28843C34.4129 4.32053 34.3853 4.34696 34.3526 4.36523Z" fill="#FFCB02"/>
<path d="M57.0769 13.5918V19.4919H66.344V22.5405H57.0769V29.9545H53.4922V10.5835H67.534V13.5918H57.0769Z" fill="#FFCB02"/>
<path d="M72.8377 29.1796C71.6793 28.5632 70.7119 27.633 70.0429 26.4923C69.3822 25.296 69.0352 23.9477 69.0352 22.5763C69.0352 21.2049 69.3822 19.8565 70.0429 18.6603C70.7172 17.5239 71.6833 16.595 72.8377 15.973C74.0761 15.3168 75.4551 14.9814 76.852 14.9966C78.3553 14.9966 79.6998 15.3146 80.8868 15.973C82.0495 16.5834 83.0183 17.515 83.6817 18.6603C84.3651 19.8433 84.7143 21.1946 84.6908 22.5658C84.7123 23.9434 84.3635 25.3009 83.6817 26.4923C83.0183 27.6376 82.0495 28.5692 80.8868 29.1796C79.6395 29.8215 78.2608 30.156 76.8623 30.156C75.4638 30.156 74.085 29.8215 72.8377 29.1796ZM79.9763 25.9115C80.8079 25.0546 81.2237 23.9383 81.2237 22.5628C81.2237 21.1873 80.8079 20.0716 79.9763 19.2157C79.1467 18.3587 78.1185 17.9392 76.852 17.9392C75.5855 17.9392 74.5587 18.3587 73.7277 19.2157C72.8966 20.0726 72.5009 21.1878 72.5009 22.5628C72.5009 23.9378 72.9171 25.0546 73.7277 25.9115C74.5382 26.7685 75.587 27.1865 76.852 27.1865C78.117 27.1865 79.1467 26.7655 79.9763 25.9085V25.9115Z" fill="#FFCB02"/>
<path d="M90.5597 29.1796C89.4014 28.563 88.4341 27.6328 87.7649 26.4923C87.1033 25.2963 86.7559 23.9478 86.7559 22.5763C86.7559 21.2047 87.1033 19.8562 87.7649 18.6603C88.4395 17.5242 89.4055 16.5954 90.5597 15.973C91.7986 15.3167 93.1781 14.9813 94.5755 14.9966C96.0773 14.9966 97.4232 15.3146 98.6088 15.973C99.7713 16.5836 100.74 17.5151 101.404 18.6603C102.087 19.8433 102.436 21.1946 102.413 22.5658C102.434 23.9433 102.085 25.3006 101.404 26.4923C100.74 27.6374 99.7713 28.569 98.6088 29.1796C97.3615 29.8215 95.9827 30.156 94.5843 30.156C93.1858 30.156 91.807 29.8215 90.5597 29.1796ZM97.6998 25.9115C98.5314 25.0546 98.9467 23.9384 98.9457 22.5628C98.9447 21.1873 98.5294 20.0716 97.6998 19.2157C96.8687 18.3587 95.8405 17.9392 94.5755 17.9392C93.3104 17.9392 92.2807 18.3587 91.4496 19.2157C90.6185 20.0726 90.2243 21.1878 90.2243 22.5628C90.2243 23.9379 90.6391 25.0546 91.4496 25.9115C92.2601 26.7685 93.309 27.1865 94.5755 27.1865C95.842 27.1865 96.8657 26.7655 97.6968 25.9085L97.6998 25.9115Z" fill="#FFCB02"/>
<path d="M120.044 9.40674V29.9542H116.743V28.0402C116.186 28.7351 115.465 29.2767 114.647 29.6153C113.768 29.9756 112.827 30.1518 111.879 30.1333C110.555 30.15 109.249 29.8275 108.081 29.1957C106.962 28.5857 106.042 27.6582 105.433 26.5264C104.777 25.3114 104.443 23.9447 104.464 22.5596C104.464 21.0666 104.78 19.7499 105.433 18.5943C106.048 17.4724 106.967 16.5528 108.081 15.9443C109.249 15.3126 110.555 14.9902 111.879 15.0068C112.792 14.9933 113.7 15.1627 114.549 15.5054C115.34 15.834 116.045 16.3451 116.608 16.9984V9.40674H120.044ZM114.527 26.6249C115.186 26.2466 115.728 25.6873 116.089 25.011C116.465 24.2576 116.662 23.4246 116.662 22.5798C116.662 21.7349 116.465 20.902 116.089 20.1485C115.727 19.4725 115.186 18.9133 114.527 18.5346C113.843 18.1517 113.073 17.959 112.292 17.9763C111.513 17.9719 110.746 18.1637 110.058 18.5346C109.398 18.9133 108.857 19.4725 108.496 20.1485C108.118 20.9015 107.921 21.7346 107.921 22.5798C107.921 23.4249 108.118 24.258 108.496 25.011C108.857 25.6873 109.398 26.2466 110.058 26.6249C110.747 26.9916 111.514 27.1832 112.292 27.1832C113.071 27.1832 113.837 26.9916 114.527 26.6249Z" fill="#FFCB02"/>
<path d="M138.297 23.6763H126.788C126.957 24.7178 127.526 25.6489 128.369 26.2665C129.221 26.904 130.281 27.2235 131.535 27.2235C133.137 27.2235 134.477 26.6861 135.506 25.6096L137.345 27.7416C136.681 28.5471 135.822 29.1643 134.853 29.5331C133.768 29.9534 132.614 30.1631 131.452 30.1512C129.85 30.1512 128.427 29.8332 127.2 29.1748C126.019 28.571 125.031 27.639 124.352 26.4875C123.669 25.2968 123.32 23.9388 123.343 22.561C123.321 21.2028 123.656 19.8631 124.312 18.6794C124.944 17.5397 125.885 16.6073 127.022 15.9921C128.218 15.3362 129.559 15.0002 130.918 15.0157C132.257 14.9936 133.579 15.3232 134.755 15.9727C135.865 16.5965 136.778 17.5287 137.385 18.66C138.017 19.8155 138.334 21.1507 138.334 22.6656C138.336 22.879 138.317 23.2179 138.297 23.6763ZM128.132 18.7496C127.37 19.4176 126.878 20.3472 126.748 21.3607H135.074C134.963 20.3504 134.483 19.4188 133.729 18.7496C132.978 18.0912 132.048 17.7523 130.921 17.7523C129.834 17.7776 128.905 18.0956 128.132 18.754V18.7496Z" fill="#FFCB02"/>
<path d="M151.785 16.5627C152.931 17.5988 153.504 19.1728 153.506 21.2849V29.9544H150.261V28.1629C149.818 28.8234 149.192 29.3365 148.462 29.6379C147.571 30.0019 146.615 30.1782 145.654 30.156C144.547 30.156 143.595 29.9768 142.767 29.5991C141.996 29.2675 141.333 28.7215 140.854 28.024C140.403 27.3488 140.168 26.5483 140.182 25.7324C140.182 24.3977 140.676 23.3436 141.653 22.5434C142.63 21.7432 144.185 21.3491 146.281 21.3491H150.077V21.1296C150.077 20.0935 149.761 19.2963 149.148 18.7588C148.534 18.2213 147.625 17.9213 146.419 17.9213C145.594 17.917 144.772 18.0449 143.986 18.3005C143.253 18.5277 142.569 18.8929 141.969 19.3769L140.646 16.8389C141.479 16.2189 142.417 15.7598 143.414 15.4848C144.533 15.1609 145.692 14.9995 146.856 15.0055C148.996 15.007 150.638 15.5251 151.785 16.5627ZM148.662 27.0252C149.32 26.6487 149.824 26.0485 150.088 25.3307V23.6168H146.544C144.567 23.6168 143.578 24.2742 143.577 25.589C143.569 25.8819 143.634 26.1721 143.765 26.4329C143.897 26.6938 144.09 26.917 144.329 27.082C144.823 27.4597 145.516 27.6388 146.388 27.6388C147.185 27.6347 147.968 27.4235 148.662 27.0252Z" fill="#FFCB02"/>
<path d="M157.896 9.40674H161.337V29.9542H157.896V9.40674Z" fill="#FFCB02"/>
<path d="M166.875 29.6754C165.748 29.3559 164.839 28.9578 164.146 28.481L165.47 25.8504C166.202 26.3272 167.003 26.6835 167.844 26.906C168.732 27.1627 169.65 27.2968 170.573 27.3046C172.632 27.3046 173.662 26.7671 173.662 25.6713C173.662 25.1532 173.406 24.7934 172.871 24.5949C172.357 24.3948 171.507 24.1963 170.36 24.0171C169.365 23.8812 168.381 23.6681 167.418 23.3796C166.663 23.1417 165.982 22.709 165.441 22.124C164.887 21.5269 164.61 20.6898 164.61 19.6129C164.61 18.217 165.184 17.0749 166.35 16.2448C167.516 15.4147 169.079 14.9893 171.057 14.9893C172.075 14.9935 173.089 15.1071 174.083 15.3282C175.092 15.567 175.922 15.8656 176.556 16.2642L175.232 18.8948C173.952 18.145 172.497 17.7597 171.02 17.7796C170.011 17.7796 169.24 17.9378 168.726 18.2379C168.211 18.538 167.934 18.9351 167.934 19.4323C167.934 19.9891 168.212 20.3683 168.765 20.6072C169.318 20.8461 170.189 21.0461 171.356 21.2656C172.333 21.4047 173.299 21.6178 174.245 21.9031C174.98 22.1314 175.643 22.5503 176.17 23.1184C176.704 23.6961 176.981 24.4934 176.981 25.5504C176.981 26.9254 176.392 28.0406 175.201 28.8781C174.009 29.7157 172.393 30.1128 170.336 30.1128C169.167 30.1443 168.001 29.9968 166.875 29.6754Z" fill="#FFCB02"/>
<path d="M169.233 33.7344H149.075C144.786 33.7344 141.309 37.2636 141.309 41.6171C141.309 45.9707 144.786 49.4999 149.075 49.4999H169.233C173.523 49.4999 177 45.9707 177 41.6171C177 37.2636 173.523 33.7344 169.233 33.7344Z" fill="#FFCB02"/>
<path d="M155.373 41.5949C155.373 43.8447 153.755 45.375 151.341 45.375H148.211V37.8267H151.415C153.77 37.8267 155.373 39.3554 155.373 41.5949ZM153.389 41.6158C153.389 40.3139 152.55 39.4301 151.372 39.4301H150.153V43.7805H151.468C152.593 43.7805 153.389 42.9146 153.389 41.6158Z" fill="white"/>
<path d="M158.916 37.8267V43.6939H162.069V45.375H156.975V37.8267H158.916Z" fill="white"/>
<path d="M167.117 39.4422C165.971 39.4422 165.102 40.3574 165.102 41.5622C165.102 42.767 165.971 43.7061 167.117 43.7061C167.733 43.7061 168.441 43.3612 168.963 42.8222L170.098 44.0614C169.303 44.9124 168.114 45.4603 167.009 45.4603C164.771 45.4603 163.105 43.8031 163.105 41.5786C163.105 39.4034 164.813 37.7656 167.077 37.7656C168.207 37.776 169.287 38.241 170.079 39.0585L168.954 40.426C168.476 39.8289 167.764 39.4422 167.117 39.4422Z" fill="white"/>
</g>
<defs>
<clipPath id="clip0_444_3186">
<rect width="177" height="49" fill="white" transform="translate(0 0.5)"/>
</clipPath>
</defs>
</svg>
