<svg width="599" height="521" viewBox="0 0 599 521" fill="none" xmlns="http://www.w3.org/2000/svg">
<path d="M315.043 518.269L329.129 504.183C329.91 503.402 331.176 503.402 331.957 504.183L344.629 516.855C345.41 517.636 346.676 517.636 347.457 516.855L360.129 504.183C360.91 503.402 362.176 503.402 362.957 504.183L375.629 516.855C376.41 517.636 377.676 517.636 378.457 516.855L391.129 504.183C391.91 503.402 393.176 503.402 393.957 504.183L406.629 516.855C407.41 517.636 408.676 517.636 409.457 516.855L422.129 504.183C422.91 503.402 424.176 503.402 424.957 504.183L439.043 518.269" stroke="#0A1C2D" stroke-width="4" stroke-linecap="round" stroke-linejoin="round"/>
<g clip-path="url(#clip0_1185_277)">
<path d="M594.376 286.272C582.192 324.088 547.456 357.482 552.289 396.604C553.433 405.934 556.881 414.986 557.542 424.329C558.203 433.672 555.399 444.092 546.856 449.477C540.588 453.407 532.513 453.914 524.88 454.32L494.402 455.863H106.59C78.7099 435.412 51.0227 414.26 30.3236 387.882C7.94932 359.396 -5.64456 323.546 2.26971 289.4C8.59101 262.192 27.6812 238.729 36.4742 212.092C45.6401 184.354 43.2853 154.297 53.1213 126.762C67.4643 86.6104 109.172 55.5229 155.725 50.2841C185.467 46.9468 216.619 53.2537 245.115 44.8963C274.329 36.3203 296.156 13.587 325.048 4.21864C362.675 -8.0021 408.875 7.28016 428.717 38.4849C440.592 57.1551 443.427 79.6126 455.361 98.2416C478.924 135.069 531.024 148.041 564.113 178.361C594.421 206.114 606.428 248.931 594.376 286.272Z" fill="#F5F5F5"/>
<path d="M174.117 128.67H93.2549V454.975H174.117V128.67Z" fill="#E1FFF1"/>
<path d="M303.3 201.376H222.438V454.975H303.3V201.376Z" fill="#E1FFF1"/>
<path d="M554.758 140.459H473.896V454.975H554.758V140.459Z" fill="#E1FFF1"/>
<path d="M446.056 101.198H365.194V454.975H446.056V101.198Z" fill="#E1FFF1"/>
<path d="M126.417 147.527H108.97V156.087H126.417V147.527Z" fill="white"/>
<path d="M157.972 147.527H140.525V156.087H157.972V147.527Z" fill="white"/>
<path d="M126.417 163.906H108.97V172.466H126.417V163.906Z" fill="white"/>
<path d="M157.972 163.906H140.525V172.466H157.972V163.906Z" fill="white"/>
<path d="M126.417 180.284H108.97V188.845H126.417V180.284Z" fill="white"/>
<path d="M157.972 180.284H140.525V188.845H157.972V180.284Z" fill="white"/>
<path d="M126.417 196.66H108.97V205.22H126.417V196.66Z" fill="white"/>
<path d="M157.972 196.66H140.525V205.22H157.972V196.66Z" fill="white"/>
<path d="M126.417 213.039H108.97V221.599H126.417V213.039Z" fill="white"/>
<path d="M157.972 213.039H140.525V221.599H157.972V213.039Z" fill="white"/>
<path d="M126.417 229.418H108.97V237.978H126.417V229.418Z" fill="white"/>
<path d="M157.972 229.418H140.525V237.978H157.972V229.418Z" fill="white"/>
<path d="M126.417 245.797H108.97V254.357H126.417V245.797Z" fill="white"/>
<path d="M157.972 245.797H140.525V254.357H157.972V245.797Z" fill="white"/>
<path d="M126.417 262.175H108.97V270.736H126.417V262.175Z" fill="white"/>
<path d="M157.972 262.175H140.525V270.736H157.972V262.175Z" fill="white"/>
<path d="M126.417 278.554H108.97V287.114H126.417V278.554Z" fill="white"/>
<path d="M157.972 278.554H140.525V287.114H157.972V278.554Z" fill="white"/>
<path d="M126.417 294.933H108.97V303.493H126.417V294.933Z" fill="white"/>
<path d="M157.972 294.933H140.525V303.493H157.972V294.933Z" fill="white"/>
<path d="M126.417 311.312H108.97V319.872H126.417V311.312Z" fill="white"/>
<path d="M157.972 311.312H140.525V319.872H157.972V311.312Z" fill="white"/>
<path d="M126.417 327.691H108.97V336.251H126.417V327.691Z" fill="white"/>
<path d="M157.972 327.691H140.525V336.251H157.972V327.691Z" fill="white"/>
<path d="M126.417 344.07H108.97V352.63H126.417V344.07Z" fill="white"/>
<path d="M157.972 344.07H140.525V352.63H157.972V344.07Z" fill="white"/>
<path d="M126.417 360.448H108.97V369.009H126.417V360.448Z" fill="white"/>
<path d="M157.972 360.448H140.525V369.009H157.972V360.448Z" fill="white"/>
<path d="M253.573 218.376H236.126V226.936H253.573V218.376Z" fill="white"/>
<path d="M285.126 218.376H267.679V226.936H285.126V218.376Z" fill="white"/>
<path d="M253.573 234.752H236.126V243.312H253.573V234.752Z" fill="white"/>
<path d="M285.126 234.752H267.679V243.312H285.126V234.752Z" fill="white"/>
<path d="M253.573 251.13H236.126V259.691H253.573V251.13Z" fill="white"/>
<path d="M285.126 251.13H267.679V259.691H285.126V251.13Z" fill="white"/>
<path d="M253.573 267.509H236.126V276.069H253.573V267.509Z" fill="white"/>
<path d="M285.126 267.509H267.679V276.069H285.126V267.509Z" fill="white"/>
<path d="M253.573 283.888H236.126V292.448H253.573V283.888Z" fill="white"/>
<path d="M285.126 283.888H267.679V292.448H285.126V283.888Z" fill="white"/>
<path d="M253.573 300.267H236.126V308.827H253.573V300.267Z" fill="white"/>
<path d="M285.126 300.267H267.679V308.827H285.126V300.267Z" fill="white"/>
<path d="M253.573 316.646H236.126V325.206H253.573V316.646Z" fill="white"/>
<path d="M285.126 316.646H267.679V325.206H285.126V316.646Z" fill="white"/>
<path d="M253.573 333.025H236.126V341.585H253.573V333.025Z" fill="white"/>
<path d="M285.126 333.025H267.679V341.585H285.126V333.025Z" fill="white"/>
<path d="M253.573 349.403H236.126V357.964H253.573V349.403Z" fill="white"/>
<path d="M285.126 349.403H267.679V357.964H285.126V349.403Z" fill="white"/>
<path d="M253.573 365.782H236.126V374.342H253.573V365.782Z" fill="white"/>
<path d="M285.126 365.782H267.679V374.342H285.126V365.782Z" fill="white"/>
<path d="M253.573 382.161H236.126V390.721H253.573V382.161Z" fill="white"/>
<path d="M285.126 382.161H267.679V390.721H285.126V382.161Z" fill="white"/>
<path d="M507.252 157.9H489.806V166.46H507.252V157.9Z" fill="white"/>
<path d="M538.808 157.9H521.361V166.46H538.808V157.9Z" fill="white"/>
<path d="M507.252 174.279H489.806V182.839H507.252V174.279Z" fill="white"/>
<path d="M538.808 174.279H521.361V182.839H538.808V174.279Z" fill="white"/>
<path d="M507.252 190.657H489.806V199.218H507.252V190.657Z" fill="white"/>
<path d="M538.808 190.657H521.361V199.218H538.808V190.657Z" fill="white"/>
<path d="M507.252 207.036H489.806V215.596H507.252V207.036Z" fill="white"/>
<path d="M538.808 207.036H521.361V215.596H538.808V207.036Z" fill="white"/>
<path d="M507.252 223.415H489.806V231.975H507.252V223.415Z" fill="white"/>
<path d="M538.808 223.415H521.361V231.975H538.808V223.415Z" fill="white"/>
<path d="M507.252 239.794H489.806V248.354H507.252V239.794Z" fill="white"/>
<path d="M538.808 239.794H521.361V248.354H538.808V239.794Z" fill="white"/>
<path d="M507.252 256.173H489.806V264.733H507.252V256.173Z" fill="white"/>
<path d="M538.808 256.173H521.361V264.733H538.808V256.173Z" fill="white"/>
<path d="M507.252 272.552H489.806V281.112H507.252V272.552Z" fill="white"/>
<path d="M538.808 272.552H521.361V281.112H538.808V272.552Z" fill="white"/>
<path d="M507.252 288.93H489.806V297.491H507.252V288.93Z" fill="white"/>
<path d="M538.808 288.93H521.361V297.491H538.808V288.93Z" fill="white"/>
<path d="M507.252 305.309H489.806V313.869H507.252V305.309Z" fill="white"/>
<path d="M538.808 305.309H521.361V313.869H538.808V305.309Z" fill="white"/>
<path d="M507.252 321.688H489.806V330.248H507.252V321.688Z" fill="white"/>
<path d="M538.808 321.688H521.361V330.248H538.808V321.688Z" fill="white"/>
<path d="M398.122 113.745H380.675V122.306H398.122V113.745Z" fill="white"/>
<path d="M429.677 113.745H412.23V122.306H429.677V113.745Z" fill="white"/>
<path d="M398.122 130.124H380.675V138.684H398.122V130.124Z" fill="white"/>
<path d="M429.677 130.124H412.23V138.684H429.677V130.124Z" fill="white"/>
<path d="M398.122 146.503H380.675V155.063H398.122V146.503Z" fill="white"/>
<path d="M429.677 146.503H412.23V155.063H429.677V146.503Z" fill="white"/>
<path d="M398.122 162.882H380.675V171.442H398.122V162.882Z" fill="white"/>
<path d="M429.677 162.882H412.23V171.442H429.677V162.882Z" fill="white"/>
<path d="M398.122 179.261H380.675V187.821H398.122V179.261Z" fill="white"/>
<path d="M429.677 179.261H412.23V187.821H429.677V179.261Z" fill="white"/>
<path d="M398.122 195.636H380.675V204.197H398.122V195.636Z" fill="white"/>
<path d="M429.677 195.636H412.23V204.197H429.677V195.636Z" fill="white"/>
<path d="M398.122 212.015H380.675V220.575H398.122V212.015Z" fill="white"/>
<path d="M429.677 212.015H412.23V220.575H429.677V212.015Z" fill="white"/>
<path d="M398.122 228.394H380.675V236.954H398.122V228.394Z" fill="white"/>
<path d="M429.677 228.394H412.23V236.954H429.677V228.394Z" fill="white"/>
<path d="M398.122 244.773H380.675V253.333H398.122V244.773Z" fill="white"/>
<path d="M429.677 244.773H412.23V253.333H429.677V244.773Z" fill="white"/>
<path d="M398.122 261.152H380.675V269.712H398.122V261.152Z" fill="white"/>
<path d="M429.677 261.152H412.23V269.712H429.677V261.152Z" fill="white"/>
<path d="M398.122 277.53H380.675V286.091H398.122V277.53Z" fill="white"/>
<path d="M429.677 277.53H412.23V286.091H429.677V277.53Z" fill="white"/>
<path d="M479.477 457.07C479.477 457.07 459.327 417.359 476.695 409.002C494.063 400.644 506.57 425.72 506.57 425.72C506.57 425.72 518.381 390.889 537.139 395.764C555.898 400.638 542.004 429.9 542.004 429.9C542.004 429.9 558.676 407.607 571.183 418.754C583.689 429.9 564.928 455.676 564.928 455.676" stroke="#96C1F2" stroke-miterlimit="10"/>
<path d="M36.2588 455.866H591.623" stroke="#96C1F2" stroke-miterlimit="10"/>
<path d="M71.3671 457.07C71.3671 457.07 51.218 417.359 68.5889 409.002C85.9598 400.644 98.4603 425.72 98.4603 425.72C98.4603 425.72 110.272 390.889 129.03 395.764C147.788 400.638 133.894 429.9 133.894 429.9C133.894 429.9 150.567 407.607 163.073 418.754C175.58 429.9 156.818 455.676 156.818 455.676" stroke="#96C1F2" stroke-miterlimit="10"/>
<path d="M260.511 470.578C260.511 473.728 239.887 476.282 214.444 476.282C189.001 476.282 168.381 473.725 168.381 470.578C168.381 467.43 189.004 464.873 214.444 464.873C239.884 464.873 260.511 467.424 260.511 470.578Z" fill="#C5FFE5"/>
<path d="M130.599 470.064C130.599 473.218 109.975 475.769 84.5352 475.769C59.0951 475.769 38.4688 473.214 38.4688 470.064C38.4688 466.914 59.092 464.359 84.5352 464.359C109.978 464.359 130.599 466.895 130.599 470.064Z" fill="#C5FFE5"/>
<path d="M378.703 478C431.688 478 474.641 474.596 474.641 470.397C474.641 466.198 431.688 462.794 378.703 462.794C325.718 462.794 282.765 466.198 282.765 470.397C282.765 474.596 325.718 478 378.703 478Z" fill="#C5FFE5"/>
<path d="M182.945 445.296C179.449 452.817 178.691 461.583 181.365 469.341C202.691 469.912 224.009 469.434 245.32 467.909C247.919 467.722 250.943 467.275 252.198 464.968C253.241 463.066 252.514 460.569 251.051 458.946C249.587 457.324 247.549 456.411 245.567 455.52C235.984 451.232 226.401 446.944 216.947 442.872C205.563 443.857 194.169 444.71 182.945 445.296Z" fill="#0C131C"/>
<path d="M220.62 451.498C221.939 449.283 223.91 447.533 226.262 446.488" stroke="white" stroke-width="0.96" stroke-miterlimit="10"/>
<path d="M225.247 453.21C226.563 450.87 228.705 449.109 231.252 448.275" stroke="white" stroke-width="0.96" stroke-miterlimit="10"/>
<path d="M230.715 454.535C231.141 453.477 231.775 452.517 232.58 451.711C233.385 450.905 234.344 450.27 235.399 449.844" stroke="white" stroke-width="0.96" stroke-miterlimit="10"/>
<path d="M181.264 465.713C204.764 467.418 228.376 466.758 251.746 463.745" stroke="white" stroke-width="0.96" stroke-miterlimit="10"/>
<path d="M182.518 435.557C182.619 438.923 182.72 442.285 183.093 445.629C188.718 447.719 194.72 448.594 200.705 448.196C206.691 447.798 212.525 446.136 217.825 443.319C217.702 440.431 217.582 437.541 217.44 433.792L194.133 434.743C190.128 434.917 186.095 435.085 182.518 435.557Z" fill="#FFA6B0"/>
<path d="M193.447 439.205C193.406 440.409 193.776 441.591 194.495 442.556C195.215 443.52 196.241 444.21 197.405 444.51" stroke="#0C131C" stroke-width="0.48" stroke-miterlimit="10"/>
<path d="M89.0548 256.664C87.7147 248.475 83.4131 240.818 76.8453 235.908C58.9118 247.493 41.5736 259.941 24.8305 273.252C22.7888 274.875 20.5509 276.97 20.8038 279.571C21.0156 281.736 23.0163 283.375 25.1276 283.885C27.2389 284.395 29.4483 284.002 31.5849 283.612C41.9107 281.736 52.2364 279.86 62.3347 277.879C71.1877 270.637 80.1197 263.497 89.0548 256.664Z" fill="#0C131C"/>
<path d="M54.4517 272.84C54.6105 275.415 53.9677 277.975 52.6123 280.167" stroke="white" stroke-width="0.96" stroke-miterlimit="10"/>
<path d="M49.6699 274.041C49.9023 276.715 49.1251 279.378 47.4922 281.505" stroke="white" stroke-width="0.96" stroke-miterlimit="10"/>
<path d="M44.4289 276.041C44.6711 277.156 44.6868 278.308 44.4751 279.43C44.2633 280.551 43.8284 281.618 43.1963 282.566" stroke="white" stroke-width="0.96" stroke-miterlimit="10"/>
<path d="M78.9659 238.853C58.5961 250.728 39.465 264.62 21.8594 280.323" stroke="white" stroke-width="0.96" stroke-miterlimit="10"/>
<path d="M94.8825 264.464C92.9071 261.744 90.9316 259.025 88.7444 256.471C82.9235 257.927 77.4749 260.599 72.7554 264.313C68.0358 268.027 64.1518 272.698 61.3574 278.022C63.0831 280.339 64.8089 282.655 67.0466 285.672L85.7577 271.702C88.9594 269.297 92.196 266.879 94.8825 264.464Z" fill="#FFA6B0"/>
<path d="M83.8075 267.633C83.165 266.615 82.195 265.847 81.0582 265.457C79.9213 265.067 78.6856 265.077 77.5557 265.487" stroke="#0C131C" stroke-width="0.48" stroke-miterlimit="10"/>
<path d="M126.799 249.181C125.471 261.145 123.508 277.071 123.692 288.797C115.834 278 106.975 267.934 96.5702 259.386C84.3181 267.807 72.8385 277.306 62.2676 287.77C72.1815 303.335 83.1162 318.221 94.9993 332.33C101.254 339.753 107.879 347.052 116.071 352.237C124.264 357.422 134.305 360.331 143.768 358.239C154.239 355.926 162.454 348.044 169.088 342.051C170.005 373.775 172.344 405.462 176.519 436.159C193.122 439.405 210.458 438.809 225.392 433.598C229.558 372.206 230.304 310.58 227.111 249.146C192.761 244.516 158.968 241.331 126.799 249.181Z" fill="#0C131C"/>
<path d="M167.717 343.442C174.575 334.692 178.384 323.843 180.154 312.855C181.924 301.867 181.763 290.67 181.377 279.546" stroke="#253B57" stroke-width="0.48" stroke-miterlimit="10"/>
<path d="M165.491 279.679C176.159 280.582 186.901 279.804 197.329 277.375" stroke="#253B57" stroke-width="0.48" stroke-miterlimit="10"/>
<path d="M183.826 260.743C184.174 264.457 184.403 268.182 184.512 271.918C184.529 272.142 184.514 272.367 184.468 272.586C184.212 273.537 182.995 273.746 182.021 273.778" stroke="#253B57" stroke-width="0.48" stroke-miterlimit="10"/>
<path d="M137.548 252.094C137.337 255.796 136.964 259.481 136.429 263.151C136.113 265.414 135.699 267.709 134.665 269.747C132.63 273.746 128.344 276.228 123.941 277.061" stroke="#253B57" stroke-width="0.48" stroke-miterlimit="10"/>
<path d="M215.076 251.539C215.569 255.526 215.338 259.564 215.601 263.583C215.863 267.601 216.675 271.702 218.989 274.992C221.012 277.844 224.046 279.866 227.254 281.261" stroke="#253B57" stroke-width="0.48" stroke-miterlimit="10"/>
<path d="M125.73 312.168C124.551 303.947 123.887 295.66 123.742 287.355" stroke="#253B57" stroke-width="0.48" stroke-miterlimit="10"/>
<path d="M63.959 289.802C74.1155 279.028 85.65 269.65 98.2616 261.912" stroke="#253B57" stroke-width="0.48" stroke-miterlimit="10"/>
<path d="M176.313 433.256C186.3 434.447 196.37 434.775 206.412 434.239C213.05 433.88 219.94 433.066 225.651 429.627" stroke="#253B57" stroke-width="0.48" stroke-miterlimit="10"/>
<path d="M292.458 85.7068C296.387 82.0399 310.79 74.1294 316.356 63.544C316.817 62.663 317.917 62.2763 318.865 61.9594C319.813 61.6425 320.97 61.8136 321.615 62.5742C322.181 63.2398 318.05 74.2562 318.05 74.2562C318.05 74.2562 327.532 69.9175 328.23 69.7083C328.574 69.5889 328.94 69.5447 329.302 69.5786C329.665 69.6125 330.016 69.7236 330.332 69.9047C331.473 70.6432 331.489 72.2817 331.464 74.1896C331.724 74.136 331.994 74.152 332.246 74.236C332.499 74.32 332.725 74.469 332.902 74.6682C333.249 75.0734 333.493 75.5575 333.613 76.0786C334.083 77.6837 333.98 79.4028 333.322 80.9402C334.065 80.8293 334.902 80.7501 335.493 81.2159C335.83 81.5138 336.065 81.9109 336.163 82.3505C336.555 83.7577 336.369 84.3503 335.784 85.4374C337.364 86.0142 337.564 89.2405 336.761 90.7079C335.958 92.1753 334.393 93.0342 332.883 93.7473C327.175 96.4443 309.623 103.154 303.539 104.244C301.513 96.4823 295.334 94.0642 292.458 85.7068Z" fill="#FFA6B0"/>
<path d="M313.116 78.9403C313.116 78.9403 313.252 87.4625 309.551 89.7983" stroke="#0C131C" stroke-width="0.48" stroke-miterlimit="10"/>
<path d="M306.997 91.234C306.997 91.234 311.659 86.9745 316.457 91.7855" stroke="#0C131C" stroke-width="0.48" stroke-miterlimit="10"/>
<path d="M336.761 90.7206C337.564 89.25 337.058 86.4357 335.497 85.8621C336.081 84.775 336.562 83.7703 336.17 82.3759C336.071 81.9363 335.837 81.5391 335.5 81.2412C334.909 80.7754 334.071 80.8546 333.328 80.9655C333.986 79.4282 334.089 77.709 333.619 76.1038C333.5 75.5828 333.256 75.0988 332.908 74.6935C332.731 74.4944 332.505 74.3453 332.253 74.2613C332 74.1773 331.73 74.1614 331.47 74.215C331.495 72.3134 331.47 70.6685 330.338 69.9301C329.785 69.5688 328.885 69.5815 328.237 69.7336C327.801 69.9693 327.379 70.2296 326.972 70.5133C326.972 70.5133 319.557 73.1026 319.845 76.0532C320.133 79.0038 322.892 78.0878 322.892 78.0878C322.892 78.0878 320.679 79.4475 321.669 81.8561C322.658 84.2648 325.424 83.2601 325.424 83.2601C325.424 83.2601 322.848 84.7084 323.486 87.0315C324.125 89.3546 326.963 88.8856 326.963 88.8856C326.963 88.8856 324.302 90.7871 325.029 93.0056C325.563 94.6378 328.227 95.0562 329.624 95.1639C330.715 94.7234 331.795 94.2638 332.857 93.7631C334.384 93.0468 335.964 92.188 336.761 90.7206Z" fill="#FFA6B0"/>
<path d="M327.133 70.6242C327.133 70.6242 319.567 73.0899 319.864 76.0405C320.161 78.9911 322.911 78.0752 322.911 78.0752C322.911 78.0752 320.698 79.4348 321.688 81.8435C322.677 84.2521 325.443 83.2474 325.443 83.2474C325.443 83.2474 322.867 84.6958 323.505 87.0188C324.144 89.3419 326.982 88.8729 326.982 88.8729C326.982 88.8729 324.32 90.7745 325.047 92.993C325.313 93.8075 326.113 94.3209 327.023 94.6441C328.5 95.1235 330.103 95.0251 331.511 94.3685C331.97 94.1677 332.425 93.9618 332.876 93.7505C334.387 93.0374 335.955 92.1658 336.754 90.7111" stroke="#0C131C" stroke-width="0.48" stroke-miterlimit="10"/>
<path d="M331.464 74.2023L322.901 78.0783" stroke="#0C131C" stroke-width="0.48" stroke-miterlimit="10"/>
<path d="M333.332 79.8817C331.786 81.7516 324.969 83.3679 324.969 83.3679" stroke="#0C131C" stroke-width="0.48" stroke-miterlimit="10"/>
<path d="M336.04 84.8511C336.04 84.8511 335.462 86.4357 326.988 88.8729" stroke="#0C131C" stroke-width="0.48" stroke-miterlimit="10"/>
<path d="M174.486 130.53C147.182 142.573 123.543 163.646 110.275 190.429C105.922 199.221 102.635 209.096 104.402 218.75C106.169 228.404 114.412 237.395 124.103 236.834C124.58 241.559 125.051 246.281 126.53 251.542C159.837 253.479 193.28 253.007 226.817 250.649C227.133 227.979 227.449 205.309 227.617 182.931C256.013 161.656 282.41 137.824 306.478 111.73C306.554 98.086 302.208 84.4518 294.319 74.6492C265.534 96.6488 234.394 115.365 201.475 130.451C192.382 130.761 183.286 131.043 174.486 130.53Z" fill="#39D192"/>
<path opacity="0.4" d="M104.058 210.301C103.792 213.123 103.908 215.968 104.403 218.759C106.021 227.592 113.066 235.851 121.679 236.764C121.679 236.698 121.704 236.634 121.713 236.568C123.942 220.911 106.833 211.689 104.058 210.301Z" fill="#D9EBFF"/>
<path d="M183.305 136.057L180.403 138.535L183.785 144.215C184.123 144.877 184.588 145.467 185.154 145.948C185.925 146.522 186.921 146.665 187.869 146.788C188.817 146.912 189.961 147.026 190.777 146.443C191.175 146.119 191.508 145.721 191.756 145.27L193.378 142.735C194.269 141.343 195.189 139.654 194.547 138.13C193.934 136.672 192.18 136.117 190.615 135.892C188.187 135.522 185.714 135.578 183.305 136.057Z" fill="#178452"/>
<path d="M185.148 145.758C183.966 156.008 182.28 166.209 180.091 176.361C182.869 179.596 185.432 183.011 187.765 186.582C189.977 183.019 192.348 179.568 194.759 176.202C194.252 166.122 192.819 156.11 190.477 146.294C188.766 145.704 186.942 145.521 185.148 145.758Z" fill="#178452"/>
<path d="M185.088 145.879C185.088 145.879 188.147 146.804 190.723 146.563" stroke="#C41835" stroke-width="0.48" stroke-miterlimit="10"/>
<path d="M185.704 150.366L186.106 146.151" stroke="#C41835" stroke-width="0.48" stroke-miterlimit="10"/>
<path d="M187.793 152.461L187.97 146.63" stroke="#C41835" stroke-width="0.48" stroke-miterlimit="10"/>
<path d="M189.582 149.305L189.354 146.579" stroke="#C41835" stroke-width="0.48" stroke-miterlimit="10"/>
<path d="M173.017 134.346L171.12 140.434C171.045 140.671 171.035 140.925 171.092 141.168C171.149 141.41 171.27 141.633 171.442 141.812C171.615 141.992 171.833 142.121 172.073 142.186C172.313 142.252 172.566 142.25 172.805 142.183C176.31 141.185 180.631 139.629 183.466 135.807" stroke="#31547D" stroke-width="0.48" stroke-miterlimit="10"/>
<path d="M191.484 135.807C193.488 137.293 197.347 139.927 200.129 141.638C200.292 141.738 200.479 141.793 200.67 141.796C200.861 141.799 201.05 141.751 201.216 141.657C201.382 141.563 201.521 141.425 201.616 141.259C201.712 141.093 201.761 140.904 201.76 140.713L201.741 135.642" stroke="#31547D" stroke-width="0.48" stroke-miterlimit="10"/>
<path d="M205.142 179.204C205.23 181.79 204.968 184.382 205.173 186.962C205.379 189.542 206.122 192.191 207.901 194.064C209.681 195.937 212.68 196.799 214.94 195.548C217.449 194.153 218.164 190.901 218.382 188.03C218.616 184.947 218.578 181.849 218.268 178.773C213.889 178.525 209.496 178.669 205.142 179.204V179.204Z" stroke="#31547D" stroke-width="0.48" stroke-miterlimit="10"/>
<path d="M205.113 181.869C209.471 181.628 213.835 181.522 218.205 181.552" stroke="#31547D" stroke-width="0.48" stroke-miterlimit="10"/>
<path d="M200.11 216.588L212.753 211.518C213.625 211.169 214.548 210.811 215.481 210.941C216.413 211.071 217.32 211.892 217.203 212.817C217.131 213.388 216.713 213.847 216.309 214.253C214.387 216.158 212.197 217.773 209.81 219.045C215.541 217.148 221.529 216.147 227.564 216.078C228.18 216.078 228.875 216.11 229.271 216.579C229.666 217.048 229.549 217.916 229.109 218.423C228.629 218.896 228.044 219.249 227.403 219.453L217.206 223.574C221.062 222.66 224.966 221.97 228.901 221.507C230.114 221.365 231.717 221.485 232.061 222.667C232.419 223.935 230.92 224.87 229.691 225.326L217.801 229.738L225.8 227.972C226.957 227.719 228.452 227.602 229.04 228.632C229.46 229.367 229.119 230.349 228.49 230.917C227.861 231.484 227.017 231.738 226.205 231.972L215.108 235.173L220.993 234.59C222.115 234.479 223.48 234.479 224.09 235.433C224.666 236.33 224.138 237.598 223.256 238.19C222.374 238.783 221.258 238.881 220.199 238.954C211.745 239.559 203.284 240.057 194.965 240.479C197.089 234.485 198.125 229.329 199.39 223.092C199.763 221.108 200.752 218.049 200.11 216.588Z" fill="#FFA6B0"/>
<path d="M160.46 172.976C159.809 177.359 158.017 181.479 156.24 185.536L150.011 199.763" stroke="#31547D" stroke-width="0.48" stroke-miterlimit="10"/>
<path d="M139.688 197.959C160.252 201.8 180.586 206.788 200.594 212.903C199.754 224.068 197.031 235.009 192.541 245.261C167.97 245.308 142.966 242.371 119.214 236.007" stroke="#31547D" stroke-width="0.48" stroke-miterlimit="10"/>
<path d="M197.604 212.025C194.776 223.208 191.807 234.357 188.697 245.47" stroke="#31547D" stroke-width="0.48" stroke-miterlimit="10"/>
<path d="M164.025 176.421C161.867 177.298 159.95 178.681 158.434 180.452" stroke="#31547D" stroke-width="0.48" stroke-miterlimit="10"/>
<path d="M233.876 165.297C231.29 168.412 229.726 172.269 228.818 176.228C227.911 180.186 227.621 184.243 227.333 188.271" stroke="#31547D" stroke-width="0.48" stroke-miterlimit="10"/>
<path d="M229.621 165.848C228.732 170.427 228.203 175.068 228.041 179.73" stroke="#31547D" stroke-width="0.48" stroke-miterlimit="10"/>
<path d="M289.819 78.3921C296.773 89.437 300.272 102.266 303.341 114.959" stroke="#31547D" stroke-width="0.48" stroke-miterlimit="10"/>
<path opacity="0.4" d="M282.309 136.38C259.976 135.198 257.671 152.1 257.637 158.841C266.084 151.594 274.308 144.107 282.309 136.38Z" fill="#D9EBFF"/>
<path d="M207.2 105.385C207.564 104.471 208.133 103.654 208.862 102.995C209.431 102.482 210.174 102.044 210.926 102.184C211.24 102.25 211.533 102.393 211.779 102.6C212.025 102.807 212.216 103.071 212.336 103.369C212.573 103.974 212.625 104.636 212.488 105.271C212.23 106.587 211.518 107.769 210.477 108.611C209.429 109.475 208.131 109.977 206.776 110.044C207.121 108.475 206.64 106.779 207.2 105.385Z" fill="#FFA6B0"/>
<path d="M210.658 104.694C210.316 105.231 209.851 105.678 209.301 105.997C208.75 106.316 208.132 106.497 207.497 106.526" stroke="#0C131C" stroke-width="0.48" stroke-miterlimit="10"/>
<path d="M173.971 131.053C173.794 124.011 173.619 116.969 173.447 109.926C173.285 103.493 173.26 96.5743 176.923 91.2816C180.587 85.9889 187.572 83.4788 193.804 84.8606C200.037 86.2424 205.233 91.2847 207.174 97.3824C208.555 101.724 208.394 106.412 207.737 110.918C206.984 116.081 205.259 121.627 200.736 124.229C200.862 126.825 200.989 129.418 200.932 131.782C198.103 135.027 193.425 135.835 189.13 136.019C186.216 136.143 183.26 136.067 180.447 135.3C177.635 134.533 174.025 133.249 173.971 131.053Z" fill="#FFA6B0"/>
<path d="M200.247 101.021C200.229 102.548 200.419 104.071 200.812 105.546C200.907 105.793 200.929 106.061 200.876 106.32C200.808 106.486 200.693 106.63 200.546 106.732C200.398 106.834 200.224 106.89 200.044 106.893C199.685 106.895 199.329 106.824 198.998 106.684" fill="#FF7D8C"/>
<path d="M200.247 101.021C200.229 102.548 200.419 104.071 200.812 105.546C200.907 105.793 200.929 106.061 200.876 106.32C200.808 106.486 200.693 106.63 200.546 106.732C200.398 106.834 200.224 106.89 200.044 106.893C199.685 106.895 199.329 106.824 198.998 106.684" stroke="#0C131C" stroke-width="0.48" stroke-miterlimit="10"/>
<path d="M194.633 108.348C194.703 108.915 194.958 109.443 195.358 109.849C195.758 110.255 196.281 110.518 196.845 110.595" stroke="#0C131C" stroke-width="0.48" stroke-miterlimit="10"/>
<path d="M194.267 102.802C194.267 102.634 194.333 102.473 194.452 102.354C194.57 102.235 194.731 102.168 194.899 102.168C195.066 102.168 195.227 102.235 195.346 102.354C195.464 102.473 195.531 102.634 195.531 102.802C195.531 102.97 195.464 103.131 195.346 103.25C195.227 103.369 195.066 103.436 194.899 103.436C194.731 103.436 194.57 103.369 194.452 103.25C194.333 103.131 194.267 102.97 194.267 102.802Z" fill="#0C131C"/>
<path d="M192.647 100.843L194.522 99.6452C194.634 99.5895 194.725 99.4981 194.781 99.3853C194.8 99.2878 194.788 99.1865 194.746 99.0964C194.704 99.0063 194.634 98.9321 194.547 98.8846C194.356 98.7712 194.137 98.7112 193.915 98.7112C193.693 98.7112 193.474 98.7712 193.283 98.8846C192.903 99.1276 192.612 99.4881 192.455 99.9115C192.373 100.082 192.335 100.271 192.344 100.46C192.354 100.672 192.47 100.859 192.647 100.843Z" fill="#0C131C"/>
<path d="M203.789 102.802C203.789 102.634 203.856 102.473 203.974 102.354C204.093 102.235 204.254 102.168 204.421 102.168C204.589 102.168 204.75 102.235 204.868 102.354C204.987 102.473 205.053 102.634 205.053 102.802C205.053 102.97 204.987 103.131 204.868 103.25C204.75 103.369 204.589 103.436 204.421 103.436C204.254 103.436 204.093 103.369 203.974 103.25C203.856 103.131 203.789 102.97 203.789 102.802Z" fill="#0C131C"/>
<path d="M204.358 99.9274L206.602 100.726C206.697 100.758 206.811 100.786 206.884 100.726C206.924 100.683 206.947 100.627 206.95 100.568C206.986 100.237 206.908 99.9042 206.731 99.6233C206.554 99.3424 206.287 99.1301 205.973 99.0209C205.808 98.9676 205.634 98.9491 205.461 98.9664C205.288 98.9837 205.121 99.0366 204.969 99.1216C204.818 99.2066 204.685 99.3221 204.58 99.4607C204.475 99.5994 204.4 99.7582 204.358 99.9274Z" fill="#0C131C"/>
<path d="M202.901 109.473C202.901 111.65 204.693 113.466 207.133 114.059C207.38 113.013 207.585 111.961 207.737 110.918C208.049 108.865 208.209 106.79 208.218 104.713C205.224 104.963 202.901 106.982 202.901 109.473Z" fill="#FF7D8C"/>
<path d="M179.472 107.679C179.472 105.268 182.12 103.315 185.388 103.315C188.657 103.315 191.302 105.268 191.302 107.679C191.302 110.091 188.657 112.04 185.388 112.04C182.12 112.04 179.472 110.088 179.472 107.679Z" fill="#FF7D8C"/>
<path d="M190.05 123.133C193.128 125.827 196.826 128.105 200.897 128.372C200.862 127.189 200.809 125.982 200.749 124.768C197.136 125.044 193.454 124.369 190.05 123.133Z" fill="#FF7D8C"/>
<path d="M185.438 119.542C189.13 123.748 195.489 125.665 201.065 124.248" stroke="#0C131C" stroke-width="0.48" stroke-miterlimit="10"/>
<path d="M174.019 106.443C173.441 105.613 172.846 104.764 172.003 104.209C171.159 103.654 169.999 103.461 169.158 104.003C168.441 104.459 168.093 105.321 167.919 106.155C167.787 106.733 167.751 107.33 167.815 107.92C167.986 108.954 168.44 109.919 169.126 110.709C169.683 111.443 170.4 112.039 171.222 112.452C171.629 112.658 172.073 112.78 172.529 112.81C172.984 112.839 173.44 112.777 173.871 112.627C173.978 110.503 174.095 108.383 174.019 106.443Z" fill="#FFA6B0"/>
<path d="M170.147 106.459C170.41 107.102 170.877 107.64 171.475 107.991C172.073 108.342 172.769 108.487 173.457 108.402" stroke="#0C131C" stroke-width="0.48" stroke-miterlimit="10"/>
<path d="M174.304 82.6326C174.985 82.9026 175.587 83.3409 176.054 83.9066C176.52 84.4723 176.837 85.1471 176.974 85.8684" stroke="#0C131C" stroke-width="0.48" stroke-miterlimit="10"/>
<path d="M177.572 79.6376C176.712 81.6551 176.6 83.9147 177.256 86.0078" stroke="#0C131C" stroke-width="0.48" stroke-miterlimit="10"/>
<path d="M189.873 75.7045C191.248 75.1214 192.793 75.1055 194.279 75.2323C198.914 75.6323 203.351 77.3008 207.105 80.0559C209.156 81.5645 210.967 83.3773 212.958 84.9651C214.95 86.5529 217.187 87.9411 219.691 88.4007" stroke="#0C131C" stroke-width="0.48" stroke-miterlimit="10"/>
<path d="M173.121 108.354C174.26 108.157 175.292 107.559 176.032 106.668C176.764 105.785 177.383 104.813 177.875 103.775C178.507 102.545 179.167 101.258 179.231 99.8703" stroke="#0C131C" stroke-width="0.48" stroke-miterlimit="10"/>
<path d="M172.764 109.061C173.545 108.795 174.262 108.371 174.872 107.815C175.483 107.259 175.972 106.583 176.31 105.829C176.923 104.5 177.212 103.044 177.154 101.582C179.216 102.185 181.429 101.996 183.358 101.049C184.269 100.607 185.07 99.9663 185.703 99.1748C186.336 98.3832 186.785 97.4602 187.018 96.4728C190.663 96.9007 194.503 95.7661 196.914 93.3036C199.273 95.514 202.317 96.8454 205.537 97.075C205.464 97.8124 205.556 98.5568 205.807 99.2537C206.058 99.9506 206.461 100.583 206.987 101.103C206.791 103.496 207.212 108.415 207.815 108.393C208.419 108.37 208.713 104.507 209.336 102.482C209.942 102.321 210.573 102.271 211.197 102.336C211.318 100.219 211.158 98.0949 210.723 96.0197C212.214 95.9765 213.682 95.6343 215.039 95.0132C216.396 94.3922 217.615 93.5048 218.625 92.4035C217.838 92.1405 217.086 91.7918 216.646 91.1611C217.936 90.5273 219.014 89.5512 220.243 88.4292C216.618 88.2359 213.29 86.5467 210.461 84.5469C207.632 82.5471 205.088 80.1986 202.155 78.3287C198.504 76.0151 194.054 74.4559 189.582 74.8045C183.561 75.2767 178.172 79.5235 176.914 85.3075C175.536 84.2743 173.399 84.2806 171.835 85.0793C171.096 85.4784 170.443 86.0197 169.914 86.6724C169.385 87.325 168.989 88.0761 168.75 88.8824C168.26 90.4164 168.25 92.0517 168.323 93.6363C168.502 97.0252 168.956 100.394 169.682 103.708C170.485 103.994 171.55 103.769 172.128 104.342C172.318 104.554 172.45 104.812 172.511 105.09C172.833 106.171 172.941 107.315 172.764 109.061Z" fill="#0C131C"/>
<path d="M173.646 131.68C175.619 133.652 178.302 134.783 181.033 135.335C183.764 135.886 186.57 135.933 189.355 135.911C194.071 135.876 200.594 133.202 201.533 131.078" stroke="#0C131C" stroke-width="0.48" stroke-miterlimit="10"/>
<path d="M160.624 51.1268C161.035 49.1586 161.465 47.1494 162.521 45.4221C163.576 43.6948 165.337 42.2908 167.344 42.2528C169.97 42.2053 172.192 44.6044 172.635 47.2032C173.077 49.802 172.088 52.4547 170.672 54.6764C167.948 58.9098 163.744 61.9687 158.886 63.2524C154.827 60.4436 151.542 56.6521 149.335 52.2297C148.639 50.8353 148.045 49.2569 148.44 47.7483C149.158 44.9974 152.9 44.0688 155.472 45.2605C158.045 46.4521 159.67 49.0033 160.624 51.1268Z" fill="#FF475D"/>
<path d="M224.393 30.9131C224.588 28.2997 225.511 25.7937 227.059 23.682C228.607 21.5702 230.716 19.9377 233.145 18.9713C235.386 18.1188 238.047 17.9159 240.099 19.1836C242.415 20.6288 243.345 23.6776 242.965 26.3874C242.586 29.0971 241.123 31.5216 239.533 33.7433C237.054 37.1996 234.191 40.3618 230.999 43.1687C229.387 44.5886 227.551 45.9767 225.408 46.1161C223.647 46.2334 221.95 45.4823 220.386 44.671C217.2 43.0139 214.199 41.0207 211.435 38.7254C208.416 36.2153 205.455 32.3868 206.807 28.7073C208.012 25.4239 212.25 24.1531 215.613 25.0721C218.976 25.9912 221.65 28.5013 224.393 30.9131Z" fill="#FF475D"/>
<path d="M282.704 157.782C283.128 155.938 283.561 154.062 284.509 152.426C285.457 150.791 287.006 149.397 288.874 149.121C292.581 148.566 295.596 152.759 295.331 156.512C295.065 160.264 292.628 163.456 290.274 166.378C288.883 168.102 287.328 169.918 285.176 170.434C282.461 171.084 279.768 169.464 277.438 167.918C275.109 166.371 272.631 164.685 271.266 162.213C269.9 159.741 270.033 156.169 272.321 154.502C274.117 153.19 276.686 153.441 278.643 154.521C280.599 155.602 282.021 157.351 282.704 157.782Z" fill="#FF475D"/>
<path d="M380.05 408.729C446.268 408.729 499.949 354.902 499.949 288.503C499.949 222.103 446.268 168.276 380.05 168.276C313.831 168.276 260.15 222.103 260.15 288.503C260.15 354.902 313.831 408.729 380.05 408.729Z" fill="#39D192"/>
<path d="M480.09 222.204C479.084 222.487 478.129 222.93 477.264 223.517C472.384 226.889 470.437 233.164 469.767 239.068C469.097 244.972 469.347 251.064 467.438 256.686C465.478 262.448 461.432 267.211 458.411 272.498C455.389 277.784 453.442 284.389 456.05 289.888C457.785 293.542 461.451 296.641 461.107 300.663C460.829 303.915 457.993 306.279 456.517 309.188C453.588 314.956 456.382 322.084 460.5 327.07C464.618 332.055 470.026 335.943 473.525 341.391C476.227 345.594 477.672 350.509 480.014 354.905C493.055 335.228 499.995 312.12 499.961 288.493C499.995 264.916 493.082 241.855 480.09 222.204Z" fill="#3083E3"/>
<path d="M477.245 223.517C472.365 226.889 470.418 233.164 469.748 239.068C469.078 244.972 469.328 251.064 467.419 256.686C465.459 262.448 461.414 267.211 458.392 272.498C455.371 277.784 453.424 284.389 456.031 289.888C457.766 293.542 461.433 296.641 461.088 300.663C460.81 303.915 457.975 306.279 456.499 309.188C453.569 314.956 456.363 322.084 460.481 327.07C464.6 332.055 470.008 335.943 473.506 341.391C476.209 345.594 477.653 350.509 479.995 354.905C491.859 337.009 498.694 316.237 499.781 294.775" stroke="#2461A8" stroke-width="0.46" stroke-miterlimit="10"/>
<path d="M283.124 359.276C284.129 356.878 284.896 354.388 285.416 351.841C287.59 341.1 286.522 329.881 288.867 319.175C289.815 314.801 291.355 310.481 291.288 306.003C291.168 298.017 286.01 290.822 285.574 282.845C285.027 272.922 291.841 263.738 291.484 253.805C291.247 247.334 288.008 241.426 285.741 235.36C283.81 230.166 282.569 224.741 282.05 219.222C267.764 239.481 260.111 263.691 260.15 288.503C260.112 313.942 268.159 338.733 283.124 359.276Z" fill="#3083E3"/>
<path d="M260.39 296.188C261.811 318.961 269.7 340.852 283.124 359.276C284.129 356.878 284.896 354.388 285.416 351.841C287.59 341.1 286.522 329.881 288.867 319.175C289.815 314.801 291.355 310.481 291.288 306.003C291.168 298.017 286.01 290.822 285.574 282.845C285.027 272.922 291.841 263.738 291.484 253.805C291.247 247.334 288.007 241.426 285.741 235.36C284.247 231.353 283.167 227.203 282.517 222.975" stroke="#2461A8" stroke-width="0.46" stroke-miterlimit="10"/>
<path d="M431.393 195.408C434.001 191.605 436.365 187.196 437.098 182.731C419.582 173.213 399.968 168.243 380.045 168.273C361.112 168.245 342.444 172.732 325.581 181.365C322.648 187.643 322.357 195.224 325.629 201.366C327.405 204.7 330.082 207.705 330.591 211.467C331.469 217.916 325.594 223.966 326.798 230.362C328.609 239.971 344.415 242.326 344.978 252.091C345.108 254.347 344.346 256.8 345.474 258.746C346.773 261 349.792 261.345 352.172 262.384C358.442 265.129 360.43 273.192 359.868 280.031C359.305 286.87 357.023 293.678 358.076 300.46C359.173 307.61 363.828 313.771 365.266 320.864C366.477 326.838 365.323 333.018 365.557 339.106C366.227 356.633 379.815 372.843 396.917 376.504C400.757 371.458 396.045 364.09 397.53 357.919C399.427 349.996 410.277 347.578 413.684 340.171C416.488 334.077 413.333 326.689 415.309 320.278C417.426 313.404 424.816 309.398 427.635 302.783C430.834 295.282 427.405 286.484 429.292 278.545C430.224 274.621 432.452 270.707 431.435 266.818C430.417 262.93 423.41 261.595 423.021 265.611C418.549 262.67 416.595 256.42 418.596 251.444C419.74 248.592 421.956 246.3 423.217 243.505C427.272 234.507 420.423 224.172 421.561 214.348C422.392 207.22 427.307 201.344 431.393 195.408Z" fill="#3083E3"/>
<path d="M324.27 184.829C322.652 190.302 322.933 196.33 325.623 201.382C327.399 204.716 330.076 207.721 330.585 211.483C331.464 217.932 325.588 223.982 326.792 230.378C328.603 239.987 344.41 242.342 344.972 252.107C345.102 254.363 344.34 256.816 345.469 258.762C346.768 261.015 349.786 261.361 352.166 262.4C358.437 265.145 360.425 273.208 359.862 280.047C359.3 286.886 357.018 293.694 358.07 300.476C359.167 307.626 363.822 313.787 365.261 320.88C366.471 326.854 365.318 333.034 365.551 339.122C366.221 356.648 379.809 372.859 396.911 376.52C400.752 371.474 396.039 364.106 397.524 357.935C399.421 350.012 410.271 347.594 413.679 340.187C416.482 334.093 413.328 326.705 415.303 320.294C417.421 313.419 424.81 309.413 427.63 302.799C430.828 295.297 427.399 286.5 429.286 278.561C430.218 274.637 432.447 270.723 431.429 266.834C430.411 262.945 423.404 261.611 423.015 265.627C418.543 262.686 416.59 256.436 418.59 251.46C419.734 248.608 421.95 246.316 423.211 243.521C427.266 234.523 420.417 224.188 421.555 214.364C422.386 207.204 427.314 201.328 431.388 195.392C433.527 192.271 435.497 188.737 436.549 185.108" stroke="#2461A8" stroke-width="0.46" stroke-miterlimit="10"/>
<path d="M448.923 109.48C451.856 100.799 459.283 94.1117 467.751 90.6604C476.218 87.2091 485.64 86.7146 494.733 87.6464C488.858 96.102 482.407 104.802 473.083 109.115C465.431 112.652 456.281 112.766 448.923 109.48Z" fill="#39D192"/>
<path d="M389.961 127.148C382.789 125.83 376.825 120.404 373.468 113.913C370.112 107.423 369.066 99.9685 368.93 92.6538C375.551 95.8579 381.733 100.317 385.893 106.396C390.052 112.475 391.98 120.309 389.961 127.148Z" fill="#39D192"/>
<path d="M372.688 97.4838C390.899 118.436 398.289 148.36 391.231 174.697C405.912 138.25 437.889 109.236 475.535 98.2413" stroke="#132854" stroke-width="0.46" stroke-miterlimit="10"/>
<path d="M464.995 467.408H294.326L269.271 330.816H490.046L464.995 467.408Z" fill="#4B4EAB"/>
<path d="M301.852 456.29L359.126 456.747" stroke="#181D56" stroke-width="0.46" stroke-miterlimit="10"/>
<path d="M299.579 443.984L330.942 444.441" stroke="#181D56" stroke-width="0.46" stroke-miterlimit="10"/>
<path d="M297.67 432.689L315.948 433.145" stroke="#181D56" stroke-width="0.46" stroke-miterlimit="10"/>
<path d="M476.636 352.11L419.561 351.657" stroke="#181D56" stroke-width="0.46" stroke-miterlimit="10"/>
<path d="M473.412 364.419L442.248 363.963" stroke="#181D56" stroke-width="0.46" stroke-miterlimit="10"/>
<path d="M470.273 375.715L452.2 375.258" stroke="#181D56" stroke-width="0.46" stroke-miterlimit="10"/>
<path d="M246.341 287.378C250.721 305.572 255.105 323.77 260.042 342.808C339.858 341.436 419.699 341.487 499.711 342.444C506.407 324.173 510.865 305.154 512.986 285.806C418.912 285.707 267.953 285.067 246.341 287.378Z" fill="#0C131C"/>
<path d="M260.042 342.808C260.042 342.808 450.822 340.498 499.711 342.444" stroke="#181D56" stroke-width="0.46" stroke-miterlimit="10"/>
<path d="M512.976 285.806C418.912 285.707 267.953 285.067 246.341 287.39" stroke="#181D56" stroke-width="0.46" stroke-miterlimit="10"/>
</g>
<defs>
<clipPath id="clip0_1185_277">
<rect width="599" height="478" fill="white"/>
</clipPath>
</defs>
</svg>
