<svg width="722" height="511" viewBox="0 0 722 511" fill="none" xmlns="http://www.w3.org/2000/svg">
<rect x="277.852" y="0.263916" width="20" height="20" rx="6" transform="rotate(45 277.852 0.263916)" fill="#0A1C2D"/>
<g clip-path="url(#clip0_1185_275)">
<path d="M36.0649 438.887C36.0649 438.887 -41.4948 272.88 111.367 272.88C192.131 272.88 158.859 227.335 213.77 174.624C268.681 121.912 460.716 79.798 501.577 181.586C542.438 283.375 441.439 360.654 539.044 347.398C656.337 331.467 702.671 438.887 702.671 438.887H36.0649Z" fill="#F5F5F5"/>
<path d="M664.219 417.824C656.981 412.508 642.193 416.095 631.276 419.934C629.495 417.422 627.487 415.08 625.279 412.938C648.791 397.713 681.268 365.231 664.054 362.496C649.093 360.108 628.897 389.333 618.107 407.125C606.899 399.547 589.727 393.977 563.509 395.907C495.466 400.923 442.306 356.807 403.121 371.519C371.965 383.219 343.414 389.771 315.874 387.532C317.059 367.316 317.317 327.621 301.519 323.501C285.486 319.32 301.215 364.401 309.956 386.925C307.904 386.664 305.857 386.35 303.816 385.982C298.156 374.762 288.827 360.08 278.574 359.578C268.928 359.107 280.832 372.305 292.548 383.487C258.875 376.383 218.931 403.893 218.267 436.433H638.662C638.662 436.433 637.918 431.684 634.618 425.424C650.877 425.082 672.082 423.599 664.219 417.824Z" fill="#39D192"/>
<path d="M309.989 411.27H199.188V436.416H309.989V411.27Z" fill="#263238"/>
<path d="M275.822 411.27H165.023V436.419H275.822V411.27Z" fill="#263238"/>
<path d="M353.577 436.411H436.081V320.506H353.577V436.411Z" fill="#263238"/>
<path d="M328.138 436.411H410.642V320.506H328.138V436.411Z" fill="#263238"/>
<path d="M155.958 346.179C155.958 346.179 140.528 357.711 137.521 357.011C134.514 356.311 148.798 344.563 148.798 344.563C143.423 341.966 126.711 343.593 126.711 343.593C126.711 343.593 121.147 361.633 118.401 360.21C115.654 358.787 124.141 344.492 124.141 344.492C118.154 344.128 110.812 348.595 110.812 348.595C100.759 356.575 111.473 369.136 111.473 369.136C111.473 369.136 109.41 375.346 103.061 380.994C103.061 380.994 94.0072 387.731 93.3652 399.773L95.0114 399.922C95.0114 399.922 97.6178 388.707 102.359 383.401L103.141 382.599C103.914 381.882 104.455 381.341 104.82 380.944C107.179 378.666 110.439 375.763 112.011 375.484C111.954 375.224 111.931 374.957 111.942 374.69C111.964 374.944 111.986 375.206 112.011 375.484C112.56 381.827 124.802 387.375 132.341 388.517C139.881 389.658 137.554 386.542 134.953 381.923C132.352 377.304 124.135 375.239 122.258 373.113C120.382 370.987 124.261 370.981 128.805 373.066C133.348 375.151 133.968 380.71 141.255 384.218C148.542 387.725 159.506 375.572 159.506 375.572C153.698 375.275 145.406 368.938 145.705 366.996C146.005 365.055 159.783 370.344 162.137 370.598C164.491 370.851 169.852 367.906 170.681 358.371C171.509 348.835 155.958 346.179 155.958 346.179Z" fill="#39D192"/>
<path d="M74.015 353.338C74.015 353.338 91.0584 343.747 83.1046 330.726C83.1046 330.726 76.7421 322.729 69.9352 320.677C69.9352 320.677 73.5705 340.09 69.9352 340.532C66.2999 340.973 67.4358 318.609 67.4358 318.609C67.4358 318.609 49.4842 309.931 42.4413 310.612C42.4413 310.612 53.575 329.567 49.9397 329.112C46.3043 328.657 33.807 309.47 33.807 309.47C33.807 309.47 15.4027 306.045 12.4478 317.007C9.49296 327.968 14.2669 333.45 16.9913 334.137C19.7157 334.823 37.2147 334.592 36.7592 336.875C36.3038 339.158 24.4897 342.815 17.9023 340.758C17.9023 340.758 25.1728 358.801 34.7152 357.888C44.2575 356.975 47.2124 351.035 53.1195 350.578C59.0265 350.12 63.345 351.719 60.3901 353.319C57.4352 354.918 47.4402 353.843 42.669 357.921C37.8979 362 34.0347 364.509 42.8966 366.337C51.7586 368.166 67.6635 367.021 70.8434 360.171L74.015 353.338Z" fill="#39D192"/>
<path d="M78.5558 370.01C73.7846 361.103 74.0096 353.338 74.0096 353.338C68.558 335.982 20.8408 320.454 20.8408 320.454C81.508 345.118 70.8297 360.191 70.8297 360.191C72.4759 361.147 74.915 365.706 76.6188 369.227C76.8602 369.823 77.2443 370.647 77.8123 371.77C78.0455 372.277 78.2293 372.691 78.361 372.98C81.486 380.837 79.8315 394.401 79.8315 394.401L81.7246 394.914C85.9196 381.242 78.5558 370.01 78.5558 370.01Z" fill="#39D192"/>
<path d="M101.127 340.11C101.127 340.11 78.6651 327.466 89.1457 310.306C89.1457 310.306 97.533 299.772 106.518 297.069C106.518 297.069 101.725 322.657 106.518 323.266C111.311 323.876 109.811 294.367 109.811 294.367C109.811 294.367 133.472 282.925 142.759 283.83C142.759 283.83 128.08 308.817 132.882 308.213C137.683 307.609 154.148 282.324 154.148 282.324C154.148 282.324 178.41 277.807 182.303 292.252C186.196 306.696 179.905 313.926 176.311 314.831C172.717 315.735 149.654 315.432 150.246 318.443C150.839 321.455 166.42 326.269 175.106 323.561C175.106 323.561 165.52 347.343 152.941 346.141C140.361 344.938 136.479 337.107 128.681 336.506C120.884 335.904 115.202 338.011 119.095 340.118C122.988 342.225 136.169 340.81 142.457 346.185C148.746 351.559 153.84 354.868 142.158 357.279C130.476 359.689 109.509 358.18 105.319 349.149L101.127 340.11Z" fill="#39D192"/>
<path d="M171.216 296.76C171.216 296.76 108.316 317.23 101.128 340.11C101.128 340.11 101.427 350.346 95.1383 362.085C95.1383 362.085 85.4369 376.891 90.9681 394.901L93.462 394.225C93.462 394.225 91.2808 376.345 95.399 365.99C95.5664 365.607 95.8105 365.061 96.115 364.393C96.8668 362.915 97.3716 361.826 97.6926 361.04C99.9342 356.415 103.166 350.39 105.323 349.127C105.323 349.141 91.2451 329.272 171.216 296.76Z" fill="#39D192"/>
<path d="M100.189 434.177C105.967 434.177 111.689 433.033 117.028 430.81C122.366 428.588 127.217 425.33 131.303 421.223C135.389 417.117 138.63 412.241 140.842 406.875C143.053 401.509 144.191 395.758 144.191 389.951H56.1865C56.1865 395.758 57.3246 401.509 59.5359 406.875C61.7473 412.241 64.9885 417.117 69.0745 421.223C73.1605 425.33 78.0112 428.588 83.3498 430.81C88.6884 433.033 94.4104 434.177 100.189 434.177V434.177Z" fill="#263238"/>
<path d="M139.371 431.135H60.9961C59.556 431.135 58.175 431.71 57.1567 432.734C56.1385 433.757 55.5664 435.145 55.5664 436.593H144.789C144.789 435.147 144.219 433.761 143.203 432.738C142.187 431.715 140.809 431.138 139.371 431.135Z" fill="#263238"/>
<path d="M144.699 389.766H55.5968C55.4178 389.766 55.2462 389.837 55.1196 389.965C54.993 390.092 54.9219 390.264 54.9219 390.444C54.9219 390.624 54.993 390.797 55.1196 390.924C55.2462 391.051 55.4178 391.123 55.5968 391.123H144.699C144.878 391.123 145.05 391.051 145.176 390.924C145.303 390.797 145.374 390.624 145.374 390.444C145.374 390.264 145.303 390.092 145.176 389.965C145.05 389.837 144.878 389.766 144.699 389.766V389.766Z" fill="#263238"/>
<path d="M484.254 156.878C482.978 156.685 479.134 160.256 479.134 160.256C470.928 161.211 458.927 163.4 454.609 164.236C451.547 164.829 443.313 162.008 435.269 158.767C425.702 154.907 416.407 150.464 416.407 150.464C411.098 150.188 405.07 159.928 415.836 166.116C417.482 167.062 423.652 168.673 430.764 170.145C440.572 172.178 452.164 173.94 456.104 173.319C460.686 172.599 473.663 167.832 481.37 164.181H481.389L481.474 164.139C481.938 163.924 483.826 163.077 485.088 163.152C486.531 163.237 489.752 160.579 489.848 159.87C489.944 159.162 485.53 157.066 484.254 156.878Z" fill="#ED975D"/>
<path d="M474.231 279.498L469.715 280.422C469.715 280.422 449.036 257.067 445.845 247.242C444.136 242.003 433.224 239.722 421.811 236.763C411.882 234.182 401.579 231.074 396.657 225.008C386.083 211.972 403.3 195.959 403.3 195.959C403.3 195.959 421.608 206.893 437.4 218.191C448.438 226.086 458.252 234.157 459.728 238.796C463.316 250.085 470.93 271.515 474.231 279.498Z" fill="#263238"/>
<path d="M468.184 287.202H470.728C471.578 287.067 472.207 286.819 473.079 286.703C474.407 286.53 475.016 287.076 475.137 287.202L475.161 287.227H485.958C486.232 286.838 485.958 285.934 485.713 285.269C485.628 285.047 485.492 284.847 485.317 284.685C485.142 284.524 484.932 284.406 484.704 284.34C483.557 284.006 481.302 283.711 479.233 281.831C478.07 280.774 473.617 277.945 473.617 277.945H473.595C473.496 277.945 473.03 278.091 471.005 279.812C469.959 280.697 468.173 278.557 468.173 278.557C467.929 278.782 467.73 279.053 467.589 279.354C467.337 279.871 467.255 280.456 467.356 281.023C467.518 281.999 466.999 283.816 466.582 285.046C466.332 285.791 466.118 286.317 466.118 286.317C466.118 286.317 465.998 286.927 468.184 287.202Z" fill="#233862"/>
<path d="M437.4 218.185L421.811 236.758C411.882 234.177 401.579 231.069 396.657 225.002C386.083 211.967 403.3 195.954 403.3 195.954C403.3 195.954 421.608 206.887 437.4 218.185Z" fill="black"/>
<path d="M423.235 208.487C423.235 208.487 421.978 212.469 419.942 218.461C417.355 226.039 413.503 236.827 409.322 246.831C408.405 249.037 407.47 251.191 406.529 253.273C403.052 260.972 399.494 267.571 396.377 270.922C390.747 276.953 377.062 315.716 377.062 315.716L373.654 314.767C373.654 314.767 368.9 281.676 385.74 262.831C385.929 262.643 386.049 262.396 386.08 262.13C386.305 259.342 387.106 246.856 388.849 234.204C389.279 231.102 389.762 227.989 390.308 225.008C390.344 224.817 390.38 224.627 390.413 224.44C392.975 210.652 395.428 204.521 398.594 201.436L421.876 208.098L423.235 208.487Z" fill="#263238"/>
<path d="M373.249 320.478H375.789C376.643 320.343 377.271 320.095 378.143 319.982C379.469 319.806 380.08 320.354 380.201 320.478L380.226 320.503H391.022C391.296 320.114 391.022 319.213 390.778 318.548C390.693 318.325 390.557 318.125 390.382 317.964C390.206 317.803 389.997 317.685 389.768 317.619C388.621 317.285 386.366 316.987 384.297 315.107C383.134 314.05 378.681 311.224 378.681 311.224H378.659C378.56 311.224 378.094 311.37 376.069 313.088C375.021 313.973 373.238 311.836 373.238 311.836C372.993 312.061 372.795 312.332 372.654 312.633C372.404 313.146 372.322 313.725 372.42 314.288C372.582 315.267 372.064 317.084 371.646 318.311C371.397 319.055 371.183 319.585 371.183 319.585C371.183 319.585 371.062 320.203 373.249 320.478Z" fill="#233862"/>
<path d="M378.243 163.469C378.243 163.469 374.347 173.049 369.855 182.372C366.078 190.209 361.88 197.867 359.218 199.503C355.465 201.808 345.127 208.308 338.419 213.155C338.419 213.155 333.184 213.117 332.383 214.123C331.582 215.13 329.694 219.655 330.243 220.113C330.792 220.571 334.951 220.358 335.961 219.316C336.844 218.409 338.806 217.755 339.294 217.603L339.385 217.576H339.407C347.555 215.055 360.341 209.805 364.209 207.238C367.54 205.032 374.928 195.882 380.819 187.741C385.091 181.843 388.575 176.471 389.157 174.662C392.976 162.796 381.985 159.677 378.243 163.469Z" fill="#FFB27D"/>
<path d="M398.616 125.908C398.186 125.277 397.72 124.672 397.22 124.096C397.805 124.126 398.389 124.038 398.94 123.837C400.312 123.269 400.932 118.904 400.726 117.61C400.52 116.317 398.622 112.572 396.279 112.2C393.935 111.828 391.516 114.442 391.516 114.442C391.949 112.556 395.905 111.466 395.905 111.466C387.743 112.98 388.16 118.451 388.223 118.956C380.752 116.281 376.365 130.425 376.365 130.425L395.719 141.888C395.719 141.888 395.771 138.764 397.617 138.965C400.495 139.279 402.893 132.173 398.616 125.908Z" fill="#263238"/>
<path d="M399.848 155.585C395.409 157.689 389.516 154.659 389.546 154.625C389.927 154.242 389.793 153.098 389.444 151.592C389.096 150.031 388.27 147.894 386.747 145.343C386.432 144.792 386.114 144.26 385.732 143.689L386.24 143.496L394.869 140.021C394.869 140.021 396.265 142.539 397.725 144.836C398.962 146.75 400.263 148.471 400.833 148.407C400.864 148.377 406.576 152.331 399.848 155.585Z" fill="#FFB27D"/>
<path d="M394.868 140.884C394.646 143.978 393.601 149.557 389.444 151.598C389.096 150.037 388.27 147.9 386.747 145.349L394.868 140.884Z" fill="#ED975D"/>
<path d="M386.242 148.881C386.242 148.881 397.478 144.433 394.611 137.443C391.743 130.452 391.266 125.174 383.973 127.72C376.681 130.265 376.387 133.511 376.78 136.072C377.172 138.634 383.246 149.847 386.242 148.881Z" fill="#FFB27D"/>
<path d="M390.432 135.835C395.621 135.099 397.135 132.992 397.135 132.992C393.984 131.914 391.302 129.77 389.549 126.925C389.549 126.925 383.719 124.948 379.398 128.252C379.122 128.611 378.934 129.03 378.849 129.476C377.858 129.151 376.38 129.234 375.51 132.046C374.218 136.274 378.802 140.887 378.802 140.887C379.916 140.57 378.66 136.806 378.484 134.796C378.355 133.315 379.151 131.423 379.581 130.524C380.13 131.241 385.604 138.154 392.282 138.43C389.88 137.531 387.612 136.306 385.541 134.79C387.148 135.568 388.86 136.061 390.432 135.835Z" fill="#263238"/>
<path d="M421.235 169.983C421.139 169.646 421.038 169.296 420.931 168.937C422.356 166.272 423.314 163.38 423.765 160.389C424.528 155.224 423.216 152.036 423.216 152.036C423.216 152.036 415.424 147.883 411.984 147.348C411.969 147.346 411.955 147.346 411.94 147.348C411.895 147.34 411.849 147.336 411.803 147.334C408.329 146.852 400.809 148.396 400.809 148.396C400.809 148.396 402.26 152.276 398.167 154.863C394.073 157.449 389.706 154.201 389.706 154.201C389.574 154.289 389.431 154.388 389.289 154.49C389.289 154.49 378.523 161.63 377.557 163.262C376.591 164.895 372.448 172.972 372.448 172.972C372.448 172.972 373.771 179.766 388.312 180.318C389.508 183.233 390.422 186.076 390.721 188.447C391.876 197.652 390.534 204.916 391.881 210.29C393.228 215.665 417.496 212.598 421.891 211.564C426.286 210.53 425.296 205.815 425.633 201.232C426.067 195.485 422.668 175.062 421.235 169.983Z" fill="#39D192"/>
<path d="M423.767 160.397C423.311 163.4 422.346 166.302 420.914 168.976C420.532 167.286 418.977 161.1 416.472 158.293C416.472 158.293 420.686 158.676 423.767 160.397Z" fill="#0E9B5B"/>
<path d="M324.955 220.736C324.955 220.736 329.477 215.221 330.443 214.578C331.408 213.936 335.686 212.789 335.93 213.018C336.174 213.246 336.185 213.569 335.656 214.049C335.126 214.529 333.107 215.703 333.395 215.836C333.683 215.968 339.776 212.921 340.654 213.947C341.532 214.973 340.158 219.206 337.809 221.235C335.461 223.265 328.454 224.128 328.012 224.412C324.283 226.814 324.955 220.736 324.955 220.736Z" fill="#ED975D"/>
<path d="M245.368 208.021C245.368 208.021 251.862 215.767 260.134 212.527C260.134 212.527 261.915 208.2 261.94 205.012C261.94 204.621 261.94 204.24 261.94 203.879C261.984 200.294 262.104 198.273 262.104 198.273C261.728 198.115 249.459 193.053 249.47 193.474C249.673 203.181 245.368 208.021 245.368 208.021Z" fill="#FFB27D"/>
<path d="M250.693 195.788C251.876 197.994 255.937 202.302 261.942 203.879C261.986 200.294 262.107 198.273 262.107 198.273C261.756 198.179 250.342 195.137 250.693 195.788Z" fill="#ED975D"/>
<path d="M264.672 197.9C264.672 197.9 250.877 201.16 248.99 192.493C247.102 183.826 244.051 178.41 252.778 175.961C261.506 173.512 263.945 176.444 265.276 179.182C266.606 181.92 268.214 196.828 264.672 197.9Z" fill="#FFB27D"/>
<path d="M249.462 194.853C249.273 194.975 246.304 195.893 240.682 184.634C239.799 182.869 239.198 179.044 241.256 175.666C243.314 172.288 250.609 169.632 256.67 168.477C262.73 167.321 264.184 170.749 265.611 174.193C267.109 177.811 271.436 180.787 271.436 180.787C266.209 183.724 259.913 179.527 257.734 180.216C255.556 180.905 254.785 184.352 254.62 185.455C254.456 186.558 254.206 187.485 251.462 186.495C248.719 185.505 250.222 190.4 250.661 191.337C250.661 191.348 251.034 193.83 249.462 194.853Z" fill="#263238"/>
<path d="M213.92 411.27H205.566C203.813 411.27 201.868 409.483 201.382 406.212C200.897 402.942 197.294 401.158 196.515 398.491C195.736 395.824 199.728 392.046 199.728 392.046L200.394 391.172L201.089 390.262L207.706 391.848C207.706 391.848 207.868 393.453 207.981 395.496C208.052 396.971 208.09 398.678 208.008 400.184C207.813 403.752 208.987 407.596 212.101 408.291C215.216 408.986 213.92 411.27 213.92 411.27Z" fill="#2C3A64"/>
<path d="M272.078 411.35H249.934C249.773 411.322 249.615 411.275 249.465 411.209C247.986 410.442 248.447 404.591 248.625 402.773C248.661 402.44 248.683 402.244 248.683 402.244C248.683 402.244 256.472 395.797 257.542 400.733C257.579 400.887 257.617 401.039 257.657 401.188C259.01 405.804 265.051 407.9 268.541 408.487C271.208 408.937 271.902 410.544 272.078 411.35Z" fill="#2C3A64"/>
<path d="M267.614 282.639C267.614 282.639 266.431 297.469 265.043 315.294C263.152 339.511 260.881 369.255 260.653 374.889C260.266 384.675 258.705 400.327 258.705 400.327C258.705 400.327 255.009 404.045 247.61 402.478C247.61 402.478 241.025 380.142 239.132 356.493C239.105 356.107 239.074 355.715 239.047 355.326C237.294 331.261 234.569 280.595 234.569 280.595L267.614 282.639Z" fill="#263238"/>
<path d="M267.614 282.639C267.614 282.639 266.431 297.469 265.043 315.294L239.135 356.493C239.107 356.107 239.077 355.715 239.05 355.326C237.297 331.261 234.572 280.595 234.572 280.595L267.614 282.639Z" fill="black"/>
<path d="M262.214 284.398C262.214 284.398 240.899 338.108 226.882 363.348C212.865 388.588 208.486 395.631 208.486 395.631C208.486 395.631 200.455 392.402 199.726 390.202C199.726 390.202 205.087 341.475 214.473 329.595C219.776 322.883 225.996 302.742 226.298 295.699C226.599 288.656 228.196 274.713 228.196 274.713L262.214 284.398Z" fill="#263238"/>
<path d="M213.411 275.455C213.411 275.455 212.862 282.162 212.453 283.193C212.044 284.224 209.353 287.415 209.043 287.368C208.733 287.321 208.544 287.07 208.7 286.422C208.856 285.774 209.798 283.764 209.493 283.816C209.188 283.868 206.116 289.522 204.886 289.204C203.657 288.887 202.458 284.864 203.188 282.035C203.918 279.205 208.881 274.735 209.07 274.278C210.675 270.387 213.411 275.455 213.411 275.455Z" fill="#ED975D"/>
<path d="M211.123 277.157C213.482 277.918 213.866 277.744 213.866 277.744C213.866 277.744 225.348 256.731 226.512 254.806C227.675 252.881 250.894 231.243 250.894 231.243L244.927 208.878C244.927 208.878 218.519 243.252 215.666 248.182C210.955 256.334 208.192 275.262 208.192 275.262C208.992 276.135 210.001 276.787 211.123 277.157V277.157Z" fill="#39D192"/>
<path d="M272.116 240.023C272.031 244.617 271.768 249.779 271.408 255.021L271.343 255.956C271.115 259.205 270.865 262.459 270.58 265.635C270.467 266.909 270.344 268.167 270.218 269.402L270.198 269.57C270.198 270.031 270.133 270.533 270.08 270.991C268.917 282.884 267.696 292.279 267.471 292.425C267.206 292.61 266.884 292.692 266.563 292.657C263.46 292.265 254.2 292.971 246.622 291.314C240.224 289.96 234.718 287.387 228.882 283.921C228.108 283.463 226.342 282.242 226.487 281.332C226.627 280.331 226.888 278.883 227.22 277.066C228.369 270.74 230.353 259.858 231.03 247.124C231.162 244.75 231.353 242.411 231.604 240.106C232.187 234.442 233.22 228.834 234.693 223.337C237.294 213.93 241.111 206.73 245.904 203.912C246.529 203.559 249.898 205.713 252.99 207.709C255.597 209.385 258.692 210.123 261.77 209.802L264.344 212.665C267.463 216.307 270.783 221.155 271.688 228.049C271.758 228.559 271.816 229.1 271.864 229.674C272.122 233.117 272.206 236.571 272.116 240.023V240.023Z" fill="#39D192"/>
<path d="M272.116 240.023C272.031 244.617 271.768 249.779 271.408 255.021L271.342 255.956C253.619 244.804 250.889 224.401 250.889 224.401C259.608 224.784 266.527 226.8 271.875 229.679C272.129 233.121 272.21 236.573 272.116 240.023V240.023Z" fill="#0E9B5B"/>
<path d="M327.644 221.288C326.73 218.806 325.309 218.966 325.309 218.966C325.309 218.966 298.957 225.567 296.592 225.86C294.227 226.152 268.214 215.657 268.214 215.657C268.214 215.657 257.975 211.038 253.179 215.257C249.012 218.922 248.822 223.563 249.796 227.462C250.373 229.731 251.616 231.774 253.364 233.323C255.112 234.872 257.284 235.855 259.596 236.146C270.212 237.502 291.384 240.061 295.812 239.455C305.689 238.076 328.072 225.085 328.072 225.085C328.224 223.803 328.077 222.503 327.644 221.288V221.288Z" fill="#39D192"/>
<path d="M587.499 269.838C587.499 269.838 591.159 273.249 590.446 275.67C589.732 278.091 586.426 279.71 585.979 282.672C585.532 285.633 583.748 287.249 582.138 287.249H574.475C574.475 287.249 573.29 285.165 576.149 284.536C579.007 283.907 580.083 280.427 579.905 277.198C579.726 273.969 580.179 269.659 580.179 269.659L586.251 268.222L587.499 269.838Z" fill="#2C3A64"/>
<path d="M541.873 286.847C541.5 287.034 540.194 287.164 538.405 287.249H521.073C521.134 286.731 521.537 284.883 524.366 284.426C527.567 283.902 533.115 282.032 534.35 277.915C534.392 277.783 534.428 277.648 534.457 277.512C535.439 273.1 542.583 278.858 542.583 278.858L542.635 279.335C542.806 280.951 543.225 286.166 541.873 286.847Z" fill="#2C3A64"/>
<path d="M525.219 169.213C525.219 169.213 526.303 182.819 527.578 199.174C529.312 221.392 531.397 248.682 531.603 253.852C531.96 262.828 533.389 277.19 533.389 277.19C533.389 277.19 536.78 280.601 543.568 279.161C543.568 279.161 549.604 258.664 551.346 236.97C551.374 236.614 551.401 236.256 551.426 235.897C553.034 213.817 555.541 167.324 555.541 167.324L525.219 169.213Z" fill="#263238"/>
<path d="M525.219 169.213C525.219 169.213 526.303 182.819 527.578 199.174L551.346 236.976C551.374 236.62 551.401 236.261 551.426 235.903C553.034 213.823 555.541 167.33 555.541 167.33L525.219 169.213Z" fill="black"/>
<path d="M530.174 170.829C530.174 170.829 549.73 220.105 562.59 243.263C575.449 266.421 579.466 272.88 579.466 272.88C579.466 272.88 586.833 269.918 587.505 267.899C587.505 267.899 582.585 223.193 573.973 212.298C569.109 206.14 563.394 187.659 563.125 181.198C562.856 174.737 561.383 161.944 561.383 161.944L530.174 170.829Z" fill="#263238"/>
<path d="M469.853 144.105C469.853 144.105 464.549 142.886 463.655 142.947C462.76 143.008 459.638 144.326 459.597 144.577C459.556 144.828 459.704 145.037 460.244 145.076C460.785 145.114 462.56 144.883 462.439 145.098C462.319 145.313 457.21 146.325 457.155 147.359C457.1 148.393 459.899 150.318 462.269 150.448C464.64 150.577 469.293 147.811 469.694 147.776C473.09 147.478 469.853 144.105 469.853 144.105Z" fill="#FFB27D"/>
<path d="M467.58 145.459C466.82 143.024 466.999 142.635 466.999 142.635C466.999 142.635 488.501 130.949 490.47 129.766C492.44 128.583 514.661 104.812 514.661 104.812L537.433 111.108C537.433 111.108 502.21 138.077 497.162 140.981C488.822 145.779 469.504 148.495 469.504 148.495C468.614 147.666 467.952 146.62 467.58 145.459Z" fill="#39D192"/>
<path d="M521.559 93.2578C521.559 93.2578 513.578 107.368 505.781 109.211C505.781 109.211 506.105 104.47 508.003 101.227C507.227 100.306 506.544 99.4569 505.951 98.7013C504.915 97.3938 503.948 96.0324 503.054 94.6228L505.701 87.4724L507.498 82.619C508.287 84.0707 509.228 85.4334 510.305 86.6837C515.416 92.5905 521.559 93.2578 521.559 93.2578Z" fill="#FFB27D"/>
<path d="M510.305 86.6837C510.305 86.6837 511.257 93.7542 505.951 98.7014C504.915 97.3938 503.948 96.0324 503.054 94.6229L505.701 87.4724C508.541 86.601 510.305 86.6837 510.305 86.6837Z" fill="#ED975D"/>
<path d="M500.951 95.6597C500.951 95.6597 512.875 90.9884 509.865 83.5732C506.856 76.158 506.367 70.5573 498.63 73.2239C490.893 75.8905 490.569 79.3265 490.973 82.0482C491.376 84.77 497.782 96.6911 500.951 95.6597Z" fill="#FFB27D"/>
<path d="M562.532 165.67C557.72 172.619 521.765 181.904 522.201 177.094C522.486 173.938 522.486 170.762 522.201 167.605C522.111 166.574 521.984 165.481 521.82 164.327C520.906 158.006 518.736 149.88 513.896 140.471C513.534 139.765 513.155 139.056 512.763 138.336C510.79 134.73 509.123 130.964 507.778 127.077C505.286 119.841 504.282 112.919 505.539 108.392C505.544 108.37 505.55 108.349 505.558 108.328C513.076 104.834 515.984 91.2861 515.984 91.2861C515.984 91.2861 541.629 95.9134 555.994 130.27C555.989 130.27 566.725 159.619 562.532 165.67Z" fill="#39D192"/>
<path d="M522.201 167.605C522.112 166.574 521.985 165.481 521.82 164.327C520.906 158.006 518.736 149.88 513.896 140.471C514.72 135.408 515.875 131.197 517.134 129.302C522.248 121.598 525.228 120.395 525.228 120.395C525.228 120.395 532.902 152.905 522.201 167.605Z" fill="#0E9B5B"/>
<path d="M481.771 159.87C481.771 159.87 474.676 160.245 473.576 160.643C472.476 161.04 469.021 163.811 469.06 164.145C469.098 164.478 469.359 164.696 470.05 164.539C470.742 164.382 472.89 163.466 472.824 163.778C472.758 164.089 466.695 167.195 466.991 168.515C467.287 169.836 471.493 171.243 474.511 170.556C477.529 169.869 482.394 164.721 482.885 164.533C487.03 162.945 481.771 159.87 481.771 159.87Z" fill="#FFB27D"/>
<path d="M480.432 162.576C479.011 160.267 480.034 159.214 480.034 159.214C480.034 159.214 501.95 141.968 503.668 140.225C505.385 138.482 513.342 110.744 513.342 110.744C513.342 110.744 516.086 99.5148 522.495 98.2767C528.067 97.2012 531.919 99.9726 534.44 103.221C535.902 105.12 536.76 107.418 536.903 109.814C537.047 112.21 536.469 114.595 535.244 116.656C529.65 126.131 518.36 144.941 515.068 148.156C507.734 155.307 483.189 165.303 483.189 165.303C482.074 164.619 481.131 163.685 480.432 162.576V162.576Z" fill="#39D192"/>
<path d="M511.578 69.799C511.66 69.6335 511.901 69.457 512.494 69.275C512.104 69.1613 511.692 69.1452 511.295 69.2281C510.96 68.4009 510.145 67.0221 508.62 67C508.889 67.0821 509.137 67.2238 509.344 67.4147C509.552 67.6056 509.714 67.8408 509.819 68.103C507.726 66.7711 503.852 66.385 494.18 69.6225C481.425 73.894 487.799 81.334 489.73 81.9324C491.662 82.5308 495.217 78.7005 498.422 78.1765C501.626 77.6526 503.36 82.1337 504.573 82.506C505.786 82.8782 505.1 81.8579 506.378 80.8376C507.657 79.8173 508.389 82.2164 508.362 83.9041C508.335 85.5917 510.831 87.1911 510.831 87.1911L512.291 84.497C513.753 81.8055 513.355 72.0243 511.959 70.265C511.824 70.1161 511.704 69.9561 511.578 69.799Z" fill="#263238"/>
<path d="M721.051 436.411H0.949296C0.425014 436.411 0 436.838 0 437.365V438.046C0 438.573 0.425014 439 0.949296 439H721.051C721.575 439 722 438.573 722 438.046V437.365C722 436.838 721.575 436.411 721.051 436.411Z" fill="#2E3552"/>
<path d="M602.372 287.249H489.384V436.411H602.372V287.249Z" fill="#263238"/>
<path d="M567.534 287.249H454.543V436.411H567.534V287.249Z" fill="#263238"/>
</g>
<path d="M100.705 501.123L70.0198 481.593L102.276 464.784L100.705 501.123Z" fill="#D7F6E9"/>
<defs>
<clipPath id="clip0_1185_275">
<rect width="722" height="372" fill="white" transform="translate(0 67)"/>
</clipPath>
</defs>
</svg>
