<svg width="565" height="423" viewBox="0 0 565 423" fill="none" xmlns="http://www.w3.org/2000/svg">
<path d="M453.278 211.422C454.155 219.615 457.198 219.861 464.524 235.056C471.807 250.155 510.349 330.069 447.561 383.658C435.8 393.694 422.373 401.194 410.026 406.757H100.179C72.7132 396.666 49.2138 383.943 32.3933 368.906C-66.3287 280.68 84.2205 130.681 233.754 61.808C326.882 18.9059 479.798 -20.2426 536.642 12.1611C571.841 32.2223 570.567 79.9174 548.618 112.032C518.536 156.035 449.019 171.642 453.278 211.422Z" fill="#F5F5F5" fill-opacity="0.5"/>
<path d="M380.071 291.19C377.325 280.401 373.697 269.856 369.222 259.664C363.389 246.509 355.21 232.615 344.634 225.304C338.147 220.819 332.438 218.725 327.555 218.174C314.605 216.673 307.445 225.939 306.911 229.855C306.18 235.264 307.395 271.533 380.071 291.19Z" fill="#B7CAE5"/>
<path d="M409.811 225.377C409.811 225.377 447.699 191.449 450.797 162.803C453.894 134.157 433.915 129.864 428.825 131.785C423.735 133.706 392.44 152.077 409.811 225.377Z" fill="#39D192"/>
<path d="M393.987 249.065C393.987 249.065 394.018 242.859 393.198 234.051C391.782 219.037 387.893 196.481 377.097 184.358C376.997 184.242 376.897 184.127 376.797 184.023C359.788 165.247 345.13 175.838 343.368 180.342C341.606 184.847 335 216.646 393.987 249.065Z" fill="#39D192"/>
<path d="M318.426 354.888C321.253 356.54 341.686 364.22 369.341 328.325C364.21 327.58 359.036 327.166 353.852 327.085C344.203 326.923 332.23 327.924 324.577 332.86C320.549 335.466 318.064 338.192 316.64 340.798C312.908 347.635 316.375 353.699 318.426 354.888Z" fill="#B7CAE5"/>
<path d="M273.335 290.011C275.209 295.124 293.257 326.623 366.679 309.953C366.679 309.953 364.298 307.258 360.269 303.193C349.162 292.056 325.524 270.813 304.549 268.326C301.945 268.006 299.322 267.888 296.7 267.971C275.113 268.78 271.639 285.415 273.335 290.011Z" fill="#B7CAE5"/>
<path d="M403.76 298.269C476.389 318.099 495.795 287.424 497.884 282.397C499.392 278.766 497.93 267.275 486.196 261.954C481.676 259.918 475.631 258.782 467.644 259.379C453.563 260.43 437.935 269.792 425.663 279.07C417.912 284.937 410.592 291.353 403.76 298.269Z" fill="#39D192"/>
<path d="M413.066 254.897C480.344 256.799 490.732 226.055 491.486 221.25C492.24 216.446 484.861 199.718 460.361 207.637C457.619 208.551 454.981 209.755 452.494 211.229C438.124 219.583 425.197 236.538 418.318 246.686C414.99 251.575 413.066 254.897 413.066 254.897Z" fill="#39D192"/>
<path d="M424.739 384.424C427.497 384.424 435.269 379.719 432.987 368.978C432.471 366.658 431.655 364.416 430.56 362.307C425.104 351.454 409.469 342.757 400.601 338.527C396.815 336.713 394.256 335.716 394.256 335.716C399.958 380.686 421.457 384.416 424.739 384.424Z" fill="#39D192"/>
<path d="M405.844 321.233C460.753 372.778 492.24 354.757 496.441 351.292C500.092 348.286 505.267 333.198 489.246 321.695C486.504 319.76 483.566 318.118 480.482 316.794C462.042 308.71 432.887 314.1 417.032 318.076C410.211 319.79 405.844 321.233 405.844 321.233Z" fill="#39D192"/>
<path d="M355.71 405.528C375.424 374.006 408.861 218.921 408.861 218.921C408.861 218.921 418.864 207.306 413.478 217.851C408.726 227.164 379.01 371.8 372.119 405.528H355.71Z" fill="#39D192"/>
<path d="M400.096 263.725L419.552 253.966L417.598 250.07L401.924 257.931L392.502 240.453L388.666 242.52L400.096 263.725Z" fill="#39D192"/>
<path d="M378.657 286.231L375.292 289.004L389.058 305.738L392.423 302.965L378.657 286.231Z" fill="#B7CAE5"/>
<path d="M409.055 294.631L391.251 298.771L392.237 303.019L410.042 298.88L409.055 294.631Z" fill="#B7CAE5"/>
<path d="M415.139 324.452L414.154 320.217C414.311 320.181 414.471 320.165 414.631 320.167C414.435 320.167 414.012 320.097 413.416 320.024C407.148 319.227 388.073 316.806 384.199 326.527L388.25 328.144C389.447 325.137 394.691 322.042 412.873 324.348C414.351 324.521 414.662 324.579 415.139 324.452Z" fill="#B7CAE5"/>
<path d="M383.368 328.948L387.496 327.547C381.19 308.937 360.923 306.277 360.065 306.173L359.541 310.504L359.803 308.34L359.538 310.504C359.734 310.527 377.982 312.971 383.368 328.948Z" fill="#B7CAE5"/>
<path d="M395.68 340.936L398.835 337.926L386.231 324.71L385.612 324.556C373.197 321.545 361.228 329.915 360.724 330.273L363.244 333.83C363.351 333.757 373.712 326.538 383.977 328.659L395.68 340.936Z" fill="#B7CAE5"/>
<path d="M296.688 267.987C301.305 275.251 310.284 283.667 321.799 290.843C336.785 300.183 351.808 304.748 360.273 303.208C349.165 292.071 325.527 270.828 304.552 268.341C301.944 268.021 299.314 267.903 296.688 267.987Z" fill="#92AFCC"/>
<path d="M327.555 218.174C331.018 225.697 337.47 234.559 346.072 242.894C353.886 250.47 362.077 256.26 369.222 259.664C363.389 246.509 355.21 232.615 344.633 225.304C338.147 220.819 332.437 218.71 327.555 218.174Z" fill="#39D192"/>
<path d="M400.601 338.527C403.486 344.278 408.795 351.004 415.755 357.24C421.595 362.468 427.636 366.48 432.987 368.978C432.471 366.658 431.655 364.416 430.56 362.307C425.104 351.454 409.469 342.758 400.601 338.527Z" fill="#92AFCC"/>
<path d="M316.641 340.802C321.67 340.316 326.64 339.346 331.484 337.907C340.836 335.177 348.796 331.189 353.852 327.073C344.203 326.912 332.23 327.913 324.578 332.848C320.549 335.47 318.064 338.195 316.641 340.802Z" fill="#92AFCC"/>
<path d="M262.47 422.122C387.437 422.122 488.742 415.939 488.742 408.312C488.742 400.686 387.437 394.503 262.47 394.503C137.504 394.503 36.1982 400.686 36.1982 408.312C36.1982 415.939 137.504 422.122 262.47 422.122Z" fill="#E4E4E4"/>
<g style="mix-blend-mode:multiply" opacity="0.3">
<path d="M182.258 118.346H211.009V405.54H291.129V118.346H319.888C327.536 118.346 332.315 111.3 328.494 105.668L267.637 16.126L259.685 4.438C255.838 -1.20964 246.296 -1.20964 242.464 4.438L233.616 17.4426L173.651 105.668C169.842 111.3 174.605 118.346 182.258 118.346Z" fill="#7D95B7"/>
</g>
<path d="M193.657 118.346H222.408V405.54H302.532V118.346H331.283C338.936 118.346 343.71 111.3 339.894 105.668L279.033 16.126L271.081 4.438C267.233 -1.20964 257.696 -1.20964 253.86 4.438L245.011 17.4426L185.047 105.668C181.23 111.3 186.001 118.346 193.657 118.346Z" fill="#39D192"/>
<path d="M364.759 193.005H171.255V228.419H364.759V193.005Z" fill="#FFC552"/>
<path d="M202.887 193.005H186.293V228.419H202.887V193.005Z" fill="#FFDA71"/>
<path d="M352.463 193.005H261.394V228.419H352.463V193.005Z" fill="#FCAC2B"/>
<path d="M364.759 225.327H171.255V228.419H364.759V225.327Z" fill="#EF9D26"/>
<path d="M354.436 228.422H160.932V263.837H354.436V228.422Z" fill="#FFC552"/>
<path d="M192.561 228.422H175.968V263.837H192.561V228.422Z" fill="#FFDA71"/>
<path d="M342.141 228.422H251.071V263.837H342.141V228.422Z" fill="#FCAC2B"/>
<path d="M354.436 260.745H160.932V263.837H354.436V260.745Z" fill="#EF9D26"/>
<path d="M364.759 263.837H171.255V299.251H364.759V263.837Z" fill="#FFC552"/>
<path d="M202.887 263.837H186.293V299.251H202.887V263.837Z" fill="#FFDA71"/>
<path d="M352.463 263.837H261.394V299.251H352.463V263.837Z" fill="#FCAC2B"/>
<path d="M364.759 296.16H171.255V299.251H364.759V296.16Z" fill="#EF9D26"/>
<path d="M351.605 299.251H158.1V334.665H351.605V299.251Z" fill="#FFC552"/>
<path d="M189.734 299.251H173.141V334.665H189.734V299.251Z" fill="#FFDA71"/>
<path d="M339.309 299.251H248.239V334.665H339.309V299.251Z" fill="#FCAC2B"/>
<path d="M351.605 331.578H158.1V334.669H351.605V331.578Z" fill="#EF9D26"/>
<path d="M364.759 334.669H171.255V370.083H364.759V334.669Z" fill="#FFC552"/>
<path d="M202.887 334.669H186.293V370.083H202.887V334.669Z" fill="#FFDA71"/>
<path d="M352.463 334.669H261.394V370.083H352.463V334.669Z" fill="#FCAC2B"/>
<path d="M364.759 366.992H171.255V370.083H364.759V366.992Z" fill="#EF9D26"/>
<path d="M347.819 370.083H154.314V405.497H347.819V370.083Z" fill="#FFC552"/>
<path d="M185.947 370.083H169.354V405.497H185.947V370.083Z" fill="#FFDA71"/>
<path d="M335.523 370.083H244.454V405.497H335.523V370.083Z" fill="#FCAC2B"/>
<path d="M347.819 402.41H154.314V405.502H347.819V402.41Z" fill="#EF9D26"/>
<g style="mix-blend-mode:multiply" opacity="0.5">
<path d="M354.617 249.242C353.417 249.186 352.211 249.157 351.001 249.157C307.857 249.157 272.9 284.16 272.9 327.331C272.9 329.202 272.966 331.069 273.104 332.906C275.947 373.479 309.742 405.501 351.016 405.501C394.164 405.501 429.14 370.507 429.14 327.35C429.124 285.372 396.084 251.136 354.617 249.242Z" fill="#CE880B"/>
</g>
<path d="M435.992 326.119C435.992 369.294 401.012 404.269 357.868 404.269C316.59 404.269 282.799 372.247 279.952 331.674C279.814 329.838 279.749 327.97 279.749 326.099C279.749 282.928 314.721 247.926 357.849 247.926C359.06 247.926 360.264 247.954 361.462 248.01C402.947 249.928 435.992 284.156 435.992 326.119Z" fill="#FFC552"/>
<path d="M419.302 326.119C419.303 334.192 417.714 342.186 414.627 349.644C411.54 357.103 407.014 363.88 401.31 369.588C395.605 375.297 388.832 379.825 381.379 382.914C373.925 386.003 365.936 387.593 357.868 387.592C343.105 387.613 328.831 382.293 317.679 372.613C311.001 366.85 305.644 359.713 301.975 351.689C298.306 343.665 296.411 334.943 296.419 326.119C296.42 309.815 302.893 294.179 314.415 282.65C325.937 271.122 341.563 264.645 357.857 264.645C373.801 264.628 389.122 270.837 400.562 281.95C406.495 287.672 411.213 294.533 414.433 302.122C417.653 309.712 419.309 317.874 419.302 326.119Z" fill="#ED9015"/>
<path d="M419.302 326.119C419.302 334.191 417.714 342.185 414.627 349.644C411.539 357.102 407.014 363.879 401.31 369.588C395.605 375.296 388.832 379.824 381.378 382.914C373.925 386.003 365.936 387.592 357.868 387.592C343.105 387.613 328.831 382.293 317.679 372.612C311.785 366.89 307.102 360.04 303.907 352.47C300.712 344.9 299.071 336.765 299.081 328.548C299.082 312.244 305.555 296.607 317.075 285.078C328.596 273.548 344.221 267.07 360.515 267.067C375.235 267.043 389.47 272.331 400.608 281.961C406.531 287.686 411.24 294.547 414.452 302.134C417.664 309.721 419.313 317.879 419.302 326.119Z" fill="#FCAC2B"/>
<path opacity="0.2" d="M362.258 258.748C362.258 299.332 329.383 332.232 288.824 332.232C285.859 332.235 282.896 332.053 279.952 331.689C279.814 329.853 279.749 327.986 279.749 326.115C279.749 282.943 314.721 247.941 357.849 247.941C359.06 247.941 360.264 247.969 361.462 248.026C361.988 251.576 362.255 255.159 362.258 258.748Z" fill="#FFEF7D"/>
<path d="M82.7891 292.063C83.6702 302.381 87.7906 306.862 89.0872 305.153C90.3837 303.443 91.2725 293.218 90.1606 290.177C89.0487 287.136 90.9993 279.644 92.5344 275.602C93.7271 272.472 97.9437 253.104 99.7789 244.576C100.306 242.112 100.637 240.549 100.637 240.549C100.637 240.549 100.11 240.084 99.3018 239.394C96.5818 237.054 90.68 232.126 91.1263 233.824C91.2542 234.587 91.2723 235.365 91.1802 236.134C91.1147 237 90.9916 237.993 90.8454 239.006C90.3761 242.186 89.6527 245.55 89.6527 245.55C88.1138 249.065 84.1165 270.659 84.1165 270.659C84.1165 270.659 81.9081 281.754 82.7891 292.063Z" fill="#FDC8AA"/>
<path d="M90.8452 239.009L99.7787 244.595C100.306 242.132 100.637 240.569 100.637 240.569C100.637 240.569 100.11 240.103 99.3016 239.414L91.1799 236.141C91.1145 237.004 90.9914 237.997 90.8452 239.009Z" fill="#FBB188"/>
<path d="M137.071 297.784C137.071 297.784 141.5 297.33 145.739 291.713C149.979 286.096 154.28 279.925 155.681 271.914C157.081 263.902 157.531 261.873 157.566 261.519C157.601 261.165 158.278 245.627 158.439 241.955C158.459 241.462 158.47 241.185 158.47 241.185H150.475C150.449 241.439 150.241 243.625 149.929 246.651C149.356 252.245 148.425 260.715 147.621 265.157C146.409 271.998 144.093 281.858 144.124 282.481C144.154 283.105 140.711 286.474 138.318 287.19C135.925 287.906 137.071 297.784 137.071 297.784Z" fill="#FDC8AA"/>
<path d="M158.47 241.188H150.476C150.449 241.442 150.241 243.629 149.929 246.655L158.439 241.962L158.47 241.188Z" fill="#FBB188"/>
<path d="M87.0757 383.908V396.435L96.6055 396.708L96.844 389.794L97.0248 384.512L97.0441 383.908H87.0757Z" fill="#FDC8AA"/>
<path d="M97.0248 384.512L96.2054 383.904H87.0757V386.021C88.6531 387.349 91.6925 389.201 96.844 389.794L97.0248 384.512Z" fill="#FBB188"/>
<path d="M102.107 392.947L111.687 394.637L111.975 390.591L112.449 383.904L107.489 382.148L106.758 381.891C106.758 381.952 106.639 382.233 106.462 382.66C106.158 383.411 105.65 384.628 105.085 385.964C103.75 389.128 102.107 392.947 102.107 392.947Z" fill="#FDC8AA"/>
<path d="M105.085 385.975C105.821 387.207 106.821 388.26 108.012 389.059C109.204 389.858 110.557 390.382 111.975 390.595L112.449 383.908L107.49 382.152L106.462 382.676C106.158 383.423 105.651 384.636 105.085 385.975Z" fill="#FBB188"/>
<path d="M83.2973 382.664C83.2666 384.728 85.2825 385.54 91.4498 386.953C97.617 388.366 97.9479 386.703 97.9479 386.703L104.873 330.631L112.114 302.181V339.978L104.873 382.811C109.709 390.641 116.507 386.911 116.507 386.911L127.772 343.643L142.338 276.814C142.338 276.814 131.777 273.35 120.574 270.116L118.2 269.438C117.573 269.261 116.95 269.084 116.323 268.915C105.896 266.02 95.9934 263.737 94.6123 265.065C91.5652 267.971 91.4229 274.797 91.4229 274.797C91.4229 274.797 87.3562 323.605 85.1325 340.744C82.9087 357.883 83.3243 380.601 83.2973 382.664Z" fill="#1A2E35"/>
<path d="M118.577 200.319L120.812 203.153L128.607 213.043L133.816 204.454L139.448 195.168L139.571 194.96C139.032 192.68 139.33 190.282 140.41 188.204C141.949 185.355 129.518 185.251 125.821 185.282C125.182 185.282 124.805 185.282 124.805 185.282C124.805 185.282 124.805 185.648 124.805 186.275C124.766 187.658 124.614 189.036 124.351 190.394C123.697 193.736 122.17 197.886 118.577 200.319Z" fill="#FDC8AA"/>
<path d="M88.2793 236.804C91.1647 238.132 100.756 241.716 100.756 241.716C100.756 241.716 101.068 246.474 98.8901 252.43C98.2956 253.945 97.6029 255.42 96.8164 256.846C95.9623 258.451 95.0082 260.137 94.1233 261.746C91.7649 266.05 89.949 269.831 92.0496 270.077C95.7238 270.512 104.942 268.861 111.051 270.558C117.161 272.256 128.053 273.889 134.52 278.843C138.244 281.696 140.333 281.8 141.445 281.376C141.91 281.217 142.299 280.89 142.538 280.46C142.538 280.46 146.097 249.589 150.179 243.629L158.681 241.735C158.681 241.735 161.99 227.067 160.774 212.658C160.774 212.658 161.436 209.543 156.123 206.571C150.81 203.599 144.581 200.677 142.934 198.81C142.934 198.81 142.596 197.524 143.631 197.143C144.665 196.762 139.56 194.983 139.56 194.983L128.595 213.077L118.561 200.346C118.561 200.346 125.102 196.82 124.194 193.49C124.113 193.178 115.968 194.86 114.26 197.37C114.26 197.37 115.599 198.14 115.611 199.441C115.611 199.441 100.906 203.106 99.1056 206.175C97.3051 209.243 95.1082 209.851 89.0756 227.418C89.0872 227.387 85.3976 235.456 88.2793 236.804Z" fill="#39D192"/>
<path d="M124.349 190.41C125.965 192.693 129.823 195.684 139.449 195.168L139.572 194.96C139.033 192.68 139.331 190.282 140.411 188.204C141.95 185.355 129.519 185.251 125.822 185.282L124.803 186.29C124.763 187.674 124.611 189.051 124.349 190.41Z" fill="#FBB188"/>
<path d="M121.416 179.199C121.416 182.743 122.823 186.142 125.327 188.648C127.832 191.154 131.228 192.562 134.77 192.562C137.141 192.566 139.469 191.936 141.514 190.737C143.529 189.558 145.199 187.871 146.358 185.844C147.518 183.818 148.127 181.523 148.124 179.188C148.129 176.113 147.07 173.131 145.127 170.749C143.875 169.209 142.296 167.968 140.504 167.116C138.713 166.264 136.754 165.823 134.77 165.825C133.015 165.825 131.278 166.171 129.657 166.843C128.036 167.515 126.563 168.501 125.323 169.743C124.083 170.985 123.1 172.459 122.429 174.082C121.759 175.704 121.415 177.443 121.416 179.199Z" fill="#FDC8AA"/>
<path d="M141.515 190.737C143.529 189.558 145.199 187.871 146.359 185.844C147.519 183.818 148.128 181.523 148.125 179.188C148.129 176.113 147.07 173.131 145.128 170.749C143.396 171.865 142.127 172.708 142.127 172.708C142.127 172.708 148.702 182.21 141.515 190.737Z" fill="#FBB188"/>
<path d="M139.341 172.512C139.341 172.512 139.83 174.583 141.192 175.345C141.192 175.345 142.346 174.991 142.527 174.094C142.527 174.094 142.227 176.054 143.15 177.063C143.603 177.589 144.12 178.056 144.689 178.452C144.825 177.669 144.888 176.875 144.878 176.081C144.878 176.081 146.975 184.416 149.152 184.608C151.33 184.801 154.585 173.332 150.957 170.645C147.328 167.958 144.751 159.35 140.569 159.096C136.387 158.841 142.131 163.781 138.43 162.56C134.729 161.34 123.621 162.453 121.844 164.87C120.066 167.288 123.729 167.303 123.729 167.303C123.729 167.303 117.85 170.245 118.397 175.692C118.943 181.139 120.79 183.827 122.206 183.007C122.206 183.007 122.59 181.663 122.59 181.517C122.59 181.37 121.282 179.268 122.229 177.451C123.175 175.634 124.187 177.016 124.187 177.016C124.187 177.016 124.695 173.136 129.377 171.461C129.377 171.461 130.754 173.02 129.762 174.691C129.831 174.695 134.448 176.331 139.341 172.512Z" fill="#1F3A6F"/>
<path d="M120.812 203.152L128.607 213.043L133.816 204.454C131.108 205.328 126.61 205.843 120.812 203.152Z" fill="#ECF3FE"/>
<path d="M99.7485 404.038C99.7485 405.34 99.8717 406.275 100.133 406.475C101.211 407.245 102.826 407.157 103.126 408.35C103.427 409.544 106.878 411.738 114.788 409.932C118.635 409.058 119.628 407.068 119.501 405.101C119.476 404.698 119.409 404.3 119.301 403.911C118.914 402.572 118.259 401.325 117.377 400.246C116.196 398.868 114.018 394.807 113.803 392.932C113.587 391.057 110.644 389.298 108.867 389.186C107.089 389.074 104.635 391.765 104.635 391.765C104.635 391.765 102.676 392.454 101.988 391.765C101.299 391.076 100.649 392.297 100.58 392.774C100.58 392.824 100.549 393.028 100.514 393.351C100.299 395.161 99.7139 400.755 99.7485 404.038Z" fill="#ECF3FE"/>
<path d="M99.7485 404.038C99.7485 405.34 99.8717 406.275 100.133 406.475C101.211 407.245 102.826 407.157 103.126 408.35C103.427 409.544 106.878 411.738 114.788 409.932C118.635 409.058 119.628 407.068 119.501 405.101C108.259 409.863 102.072 397.166 100.499 393.336C100.299 395.161 99.7139 400.754 99.7485 404.038Z" fill="#D7E3F4"/>
<path d="M99.748 404.038C99.748 405.339 99.8712 406.275 100.133 406.475C101.21 407.245 102.826 407.157 103.126 408.35C103.426 409.543 106.877 411.738 114.787 409.932C119.404 408.877 119.912 406.217 119.3 403.911C113.995 410.04 105.942 408.115 104.626 406.606C103.476 405.239 100.737 404.369 99.748 404.038Z" fill="#9FB8D6"/>
<path d="M75.907 407.934C80.8585 409.802 88.2685 410.679 94.2895 407.934C94.2895 407.934 98.2407 407.715 99.0948 405.27C99.0948 405.27 99.1217 404.289 99.141 402.887C99.1871 399.534 99.191 393.79 98.6755 393.494C98.033 393.109 95.7207 394.541 94.8666 393.825L94.8166 393.779C94.7191 393.678 94.6477 393.555 94.6088 393.421C94.6088 393.421 90.7269 386.63 85.3753 391.35C82.3474 394.014 78.1616 398.348 75.9725 401.96C75.9414 402.005 75.9132 402.053 75.8878 402.102C75.3932 402.891 74.9966 403.738 74.7067 404.624C74.2181 406.194 74.4835 407.395 75.907 407.934Z" fill="#ECF3FE"/>
<path d="M75.9064 407.934C80.8579 409.801 88.2678 410.679 94.2889 407.934C94.2889 407.934 98.24 407.715 99.0941 405.27C99.0941 405.27 99.1211 404.289 99.1403 402.887C99.1865 399.534 99.1903 393.79 98.6748 393.494C98.0323 393.109 95.7201 394.541 94.866 393.825C93.7464 397.405 89.7913 403.796 75.8679 402.102C75.3733 402.891 74.9767 403.738 74.6868 404.623C74.2174 406.194 74.4829 407.395 75.9064 407.934Z" fill="#D7E3F4"/>
<path d="M75.9064 407.934C80.8579 409.801 88.2678 410.679 94.2889 407.934C94.2889 407.934 98.2401 407.715 99.0942 405.27C99.0942 405.27 99.1211 404.289 99.1404 402.887C98.3478 403.542 96.555 405.074 94.2927 405.116C94.2927 405.116 92.169 406.799 85.4747 406.775C80.2539 406.775 76.1603 405.759 74.7022 404.623C74.2174 406.194 74.4829 407.395 75.9064 407.934Z" fill="#9FB8D6"/>
<path d="M141.453 281.357C141.917 281.197 142.304 280.87 142.542 280.441C142.542 280.441 146.105 249.57 150.187 243.614C149.91 243.98 140.849 256.276 141.453 281.357Z" fill="#17995E"/>
<path d="M100.671 244.522C101.387 242.944 102.472 239.086 103.618 229.662L100.745 241.689L100.671 244.522Z" fill="#17995E"/>
<path d="M94.1348 261.727C108.562 261.665 126.495 253.427 118.2 254.963C112.094 256.091 102.041 256.622 96.8163 256.826C95.9738 258.432 95.0081 260.118 94.1348 261.727Z" fill="#17995E"/>
</svg>
