<svg width="762" height="403" viewBox="0 0 762 403" fill="none" xmlns="http://www.w3.org/2000/svg">
<g clip-path="url(#clip0_51_72)">
<path d="M717.683 401.489C674.129 401.489 39.675 401.621 39.3089 400.652L39.2475 400.529C39.2175 400.474 39.1967 400.415 39.186 400.353C38.9428 399.873 -58.5694 265.307 93.0241 171.624C103.468 165.172 110.116 159.108 114.244 153.267C133.565 125.936 97.6156 103.592 136.477 69.9678C190.693 23.0622 249.843 74.9515 310.12 53.6876C320.768 49.9324 331.457 43.8933 342.155 34.6211C348.231 29.3912 354.828 24.7984 361.843 20.9152C362.927 20.3121 364.02 19.7174 365.124 19.1423C369.397 16.926 373.781 14.9299 378.258 13.1618C381.293 11.965 384.385 10.8556 387.534 9.83374C392.534 8.21252 397.658 6.81653 402.904 5.64575C410.465 3.95492 418.116 2.69556 425.82 1.87376C429.229 1.5015 432.666 1.20648 436.129 0.988701C467.68 -0.9992 501.081 3.186 531.705 11.7853C566.447 21.5434 597.602 36.9887 618.396 55.5443C626.291 62.5746 662.096 98.9515 633.87 148.948C616.049 180.52 690.71 210.668 717.242 246.718C784.698 338.365 718.295 400.294 717.683 401.489Z" fill="#D4F5E5"/>
<path d="M618.558 282.087C618.162 280.091 619.162 279.624 619.162 279.624C619.162 279.624 639.18 273.312 640.857 272.533C642.533 271.754 655.456 254.385 655.456 254.385C655.456 254.385 660.349 247.223 665.206 248.05C669.426 248.767 671.418 251.732 672.343 254.681C672.877 256.4 672.88 258.24 672.351 259.961C671.822 261.682 670.786 263.203 669.378 264.327C662.928 269.506 650.001 279.733 646.826 281.118C639.758 284.189 619.782 284.748 619.782 284.748C619.174 283.967 618.755 283.056 618.558 282.087Z" fill="#5EBF81"/>
<path d="M617.941 279.434C616.935 278.901 614.663 277.737 614.587 278.069C614.537 278.309 614.699 278.683 615.001 279.057C613.676 278.745 612.354 278.6 609.392 279.568C609.097 279.662 608.824 279.814 608.589 280.015C608.354 280.217 608.162 280.464 608.026 280.741C607.777 281.26 607.746 281.877 608.585 282.26C610.261 283.025 609.733 282.506 612.067 283.634C614.4 284.762 617.077 284.784 618.528 283.6L620.596 282.977L620.414 279.473C620.414 279.473 619.187 279.482 617.941 279.434Z" fill="#ED975D"/>
<path d="M566.447 399.197L486.873 367.595C482.751 365.957 479.449 362.751 477.693 358.681C475.937 354.611 475.87 350.011 477.509 345.892L528.591 217.505C530.23 213.387 533.439 210.088 537.512 208.333C541.585 206.578 546.189 206.511 550.311 208.146L565.248 214.079C564.969 218.195 566.972 222.388 570.837 223.927C574.915 225.546 580.585 225.342 582.885 221.085L629.032 239.411C628.847 240.978 629.106 242.566 629.781 243.993C631.223 246.991 635.155 248.181 638.38 247.254C639.564 249.411 640.256 251.803 640.407 254.258C640.557 256.714 640.162 259.172 639.249 261.457L588.17 389.841C587.359 391.881 586.153 393.741 584.623 395.315C583.092 396.889 581.266 398.146 579.248 399.015C577.231 399.884 575.062 400.347 572.866 400.379C570.669 400.41 568.488 400.008 566.447 399.197Z" fill="#FFA412"/>
<path d="M594.868 336.735L509.119 302.672C505.815 301.358 503.169 298.788 501.761 295.526C500.354 292.264 500.3 288.577 501.612 285.275L534.759 201.965L565.24 214.071C564.96 218.186 566.964 222.38 570.829 223.918C574.906 225.538 580.577 225.334 582.877 221.076L592.286 224.815C591.86 226.347 591.734 227.947 591.917 229.527C592.454 234.517 595.718 239.562 600.731 241.553C606.631 243.895 613.262 239.961 616.04 234.246L629.024 239.403C628.839 240.97 629.098 242.558 629.773 243.984C631.215 246.983 635.147 248.172 638.372 247.245C638.77 247.133 639.157 246.986 639.529 246.807C640.57 246.308 641.466 245.55 642.131 244.607L645.423 245.916L612.282 329.235C610.967 332.536 608.394 335.179 605.129 336.586C601.863 337.992 598.173 338.045 594.868 336.735V336.735Z" fill="#FFB93E"/>
<path d="M583.008 277.731C577.997 275.741 574.73 270.696 574.194 265.706C573.894 263.281 574.357 260.823 575.517 258.673C576.677 256.522 578.477 254.784 580.669 253.701H580.688C582.219 252.924 583.898 252.482 585.613 252.405C587.328 252.327 589.04 252.616 590.634 253.251C596.855 255.722 601.206 263.28 598.739 269.495C596.271 275.71 589.229 280.202 583.008 277.731Z" fill="#FFA412"/>
<path opacity="0.5" d="M581.647 274.987C577.693 273.415 574.993 269.643 574.194 265.717C573.894 263.292 574.357 260.835 575.517 258.684C576.677 256.533 578.477 254.795 580.669 253.712H580.688C583.131 252.792 585.829 252.818 588.253 253.784C593.639 255.923 597.406 262.473 595.265 267.853C593.124 273.233 587.032 277.114 581.647 274.987Z" fill="#FFB93E"/>
<path d="M616.264 252.617C618.98 251.311 622.298 251.88 624.553 253.547C625.666 254.342 626.505 255.463 626.952 256.755C627.399 258.047 627.433 259.447 627.048 260.759C626.789 261.682 626.335 262.54 625.718 263.274C625.1 264.009 624.334 264.604 623.469 265.019C620.095 266.641 615.333 265.578 613.713 262.197C612.092 258.815 612.885 254.239 616.264 252.617Z" fill="#FFA412"/>
<path opacity="0.5" d="M617.91 253.103C620.054 252.07 622.63 252.388 624.547 253.547C625.661 254.342 626.499 255.463 626.946 256.755C627.394 258.047 627.427 259.446 627.043 260.759V260.759C626.496 262.107 625.464 263.202 624.151 263.83C621.23 265.226 617.105 264.304 615.7 261.387C614.294 258.469 614.99 254.505 617.91 253.103Z" fill="#FFB93E"/>
<path d="M590.783 306.662C589.075 303.359 589.665 299.255 591.641 296.418C592.583 295.02 593.938 293.949 595.516 293.353C597.095 292.758 598.819 292.667 600.452 293.093V293.093C601.601 293.38 602.675 293.909 603.603 294.644C604.532 295.38 605.292 296.304 605.834 297.356C607.953 301.452 606.793 307.354 602.69 309.471C598.588 311.587 592.901 310.758 590.783 306.662Z" fill="#FFA412"/>
<path opacity="0.5" d="M591.322 304.61C589.975 302.005 590.28 298.822 591.641 296.418C592.584 295.02 593.938 293.949 595.516 293.353C597.095 292.758 598.82 292.667 600.452 293.093V293.093C602.142 293.717 603.538 294.95 604.365 296.549C606.198 300.098 605.203 305.204 601.643 307.042C598.082 308.879 593.158 308.158 591.322 304.61Z" fill="#FFB93E"/>
<path d="M548.5 293.827C544.996 290.639 543.875 285.479 544.979 281.213C545.483 279.125 546.625 277.246 548.246 275.836C549.867 274.426 551.886 273.554 554.025 273.342H554.042C555.542 273.177 557.06 273.334 558.494 273.801C559.929 274.268 561.247 275.035 562.362 276.051C566.71 280.007 567.951 287.568 563.985 291.915C560.02 296.262 552.849 297.783 548.5 293.827Z" fill="#FFA412"/>
<path opacity="0.5" d="M548.235 291.138C545.468 288.626 544.418 284.686 544.979 281.213C545.483 279.125 546.625 277.246 548.246 275.836C549.867 274.426 551.886 273.554 554.025 273.342H554.042C556.336 273.342 558.547 274.198 560.241 275.743C564.008 279.166 565.075 285.719 561.638 289.48C558.201 293.241 551.988 294.564 548.235 291.138Z" fill="#FFB93E"/>
<path d="M531.995 269.23C529.156 268.749 526.887 266.477 526.051 263.925C525.622 262.692 525.588 261.356 525.953 260.103C526.319 258.849 527.066 257.741 528.091 256.931V256.931C528.803 256.354 529.63 255.935 530.517 255.704C531.404 255.472 532.33 255.433 533.233 255.588C536.757 256.183 539.873 259.645 539.278 263.168C538.683 266.692 535.519 269.824 531.995 269.23Z" fill="#FFA412"/>
<path opacity="0.5" d="M530.978 267.94C528.742 267.563 526.906 265.893 526.051 263.933C525.622 262.7 525.588 261.364 525.953 260.111C526.319 258.858 527.066 257.749 528.091 256.939V256.939C529.263 256.187 530.675 255.899 532.048 256.132C535.1 256.649 537.8 259.65 537.283 262.696C536.766 265.742 534.027 268.456 530.978 267.94Z" fill="#FFB93E"/>
<path d="M579.023 321.192C576.701 322.155 573.971 321.532 572.165 320.044C571.277 319.331 570.632 318.36 570.319 317.266C570.006 316.171 570.041 315.006 570.419 313.932V313.932C570.677 313.176 571.093 312.483 571.64 311.899C572.187 311.316 572.852 310.855 573.591 310.548C576.472 309.353 580.384 310.462 581.583 313.34C582.782 316.219 581.891 319.997 579.023 321.192Z" fill="#FFA412"/>
<path opacity="0.5" d="M577.671 320.714C575.84 321.473 573.711 321.094 572.165 320.044C571.277 319.331 570.632 318.36 570.319 317.266C570.006 316.171 570.041 315.006 570.419 313.932V313.932C570.935 312.831 571.844 311.963 572.967 311.498C575.46 310.462 578.85 311.422 579.887 313.913C580.924 316.403 580.164 319.678 577.671 320.714Z" fill="#FFB93E"/>
<path d="M535.972 226.624C537.339 222.09 541.517 218.856 545.848 218.01C547.951 217.566 550.14 217.786 552.112 218.639C554.084 219.493 555.742 220.937 556.856 222.774V222.774C557.65 224.053 558.162 225.486 558.359 226.979C558.555 228.471 558.432 229.988 557.996 231.429C556.3 237.057 550.001 241.427 544.37 239.732C538.739 238.037 534.276 232.247 535.972 226.624Z" fill="#FFA412"/>
<path opacity="0.5" d="M538.295 225.225C539.373 221.648 542.487 219.004 545.857 218.01C547.96 217.566 550.148 217.786 552.121 218.639C554.093 219.493 555.751 220.937 556.865 222.774V222.774C557.854 224.841 558.034 227.203 557.371 229.396C555.901 234.268 550.443 238.051 545.569 236.586C540.695 235.12 536.816 230.097 538.295 225.225Z" fill="#FFB93E"/>
<path d="M670.798 245.157C670.798 245.157 665.768 251.109 659.379 248.619C659.379 248.619 658.005 245.294 657.982 242.845C657.982 242.544 657.982 242.25 657.982 241.971C657.949 239.213 657.856 237.663 657.856 237.663C658.136 237.54 667.638 233.651 667.638 233.972C667.462 241.438 670.798 245.157 670.798 245.157Z" fill="#FFB27D"/>
<path d="M666.67 235.754C665.756 237.448 662.615 240.762 657.973 241.971C657.94 239.213 657.848 237.663 657.848 237.663C658.116 237.593 666.941 235.254 666.67 235.754Z" fill="#ED975D"/>
<path d="M655.861 237.376C655.861 237.376 666.528 239.889 667.987 233.221C669.445 226.554 671.807 222.397 665.058 220.515C658.309 218.633 656.422 220.886 655.394 222.991C654.366 225.097 653.122 236.555 655.861 237.376Z" fill="#FFB27D"/>
<path d="M667.624 235.036C667.769 235.131 668.624 236.65 672.972 227.997C673.654 226.638 675.56 222.885 673.967 220.289C672.374 217.692 667.4 216.204 662.713 215.316C658.027 214.428 659.268 219.147 655.649 218.946C655.469 218.912 655.283 218.944 655.125 219.034C654.966 219.125 654.845 219.268 654.782 219.44C654 221.252 655.308 223.678 657.278 223.818C658.997 223.941 660.176 223.444 661.227 223.773C662.903 224.304 663.507 226.959 663.636 227.81C663.764 228.662 663.954 229.368 666.075 228.609C668.196 227.849 667.034 231.61 666.696 232.331C666.696 232.342 666.408 234.257 667.624 235.036Z" fill="#233862"/>
<path d="M679.143 401.283H685.738C687.135 401.283 688.658 399.901 689.044 397.374C689.429 394.847 692.272 393.465 692.886 391.382C693.501 389.3 690.349 386.39 690.349 386.39L689.824 385.715L689.265 385.008L684.036 386.237C684.036 386.237 683.907 387.479 683.826 389.062C683.758 390.271 683.752 391.482 683.807 392.692C683.96 395.459 683.03 398.435 680.573 398.974C678.117 399.513 679.143 401.283 679.143 401.283Z" fill="#202F54"/>
<path d="M650.135 401.283H667.257C667.382 401.263 667.504 401.228 667.621 401.179C668.764 400.621 668.406 396.232 668.269 394.883C668.244 394.632 668.224 394.484 668.224 394.484C668.224 394.484 662.202 389.674 661.375 393.367C661.347 393.482 661.319 393.594 661.285 393.705C660.24 397.151 655.567 398.731 652.868 399.152C650.805 399.482 650.272 400.682 650.135 401.283Z" fill="#202F54"/>
<path d="M653.586 302.51C653.586 302.51 654.5 313.907 655.576 327.61C657.034 346.222 658.792 369.085 658.966 373.416C659.267 380.937 660.472 392.96 660.472 392.96C660.472 392.96 663.331 395.816 669.051 394.613C669.051 394.613 674.151 377.439 675.607 359.269L675.675 358.37C677.03 339.873 679.137 300.922 679.137 300.922L653.586 302.51Z" fill="#1E2E34"/>
<path d="M653.586 302.51C653.586 302.51 654.5 313.907 655.576 327.61L675.607 359.277L675.675 358.378C677.03 339.881 679.137 300.93 679.137 300.93L653.586 302.51Z" fill="#2D4147"/>
<path d="M659.284 300.079C659.284 300.079 668.54 338.212 675.608 359.269C682.675 380.326 682.971 390.539 682.971 390.539C682.971 390.539 690.981 388.976 691.85 387.418C691.85 387.418 694.594 351.34 689.147 341.029C686.073 335.202 686.587 321.7 686.587 315.549C686.587 304.155 683.03 292.839 683.03 292.839L659.284 300.079Z" fill="#1E2E34"/>
<path d="M690.967 317.928C691.078 318.626 656.755 325.12 652.152 320.184C652.063 320.089 651.579 305.852 651.185 294.76C651.009 289.6 650.847 285.122 650.758 283.064C650.735 282.548 650.719 282.185 650.705 282L650.654 281.283C650.375 277.254 650.171 273.286 650.095 269.755C650.021 267.104 650.083 264.451 650.28 261.806C650.316 261.362 650.364 260.946 650.417 260.555C651.115 255.25 653.686 251.531 656.095 248.731L658.085 246.531C660.469 246.778 662.866 246.21 664.884 244.92C667.274 243.387 669.596 243.837 670.077 244.107C673.785 246.274 677.021 249.691 679.02 256.934C680.123 260.826 690.858 317.146 690.967 317.928Z" fill="#6ACC96"/>
<path d="M661.422 213.214C661.422 213.214 660.304 207.742 664.175 204.263C668.046 200.784 673.238 201.532 676.15 204.729C677.05 205.717 682.178 204.729 685.093 207.82C688.007 210.91 687.502 215.844 686.49 218.1C685.573 220.169 688.647 224.597 684.492 227.925C679.621 231.834 672.195 228.511 672.195 228.511C672.195 228.511 667.093 213.261 661.422 213.214Z" fill="#6ACC96"/>
<path d="M655.126 219.046C655.126 219.046 671.125 220.456 670.259 232.847L676.737 223.633C676.737 223.633 676.262 211.809 661.283 211.647L655.126 219.046Z" fill="#5EBF81"/>
<path d="M671.877 266.357C671.877 266.357 666.743 290.089 651.182 294.76C651.006 289.6 650.844 285.122 650.755 283.064L671.877 266.357Z" fill="#5EBF81"/>
<path d="M623.843 290.915C622.759 290.566 620.319 289.798 620.311 290.153C620.311 290.396 620.529 290.736 620.892 291.052C619.534 290.977 618.204 291.052 615.457 292.529C615.181 292.672 614.938 292.869 614.741 293.109C614.545 293.349 614.399 293.627 614.314 293.925C614.16 294.483 614.227 295.095 615.116 295.321C616.896 295.784 616.292 295.363 618.782 296.069C621.272 296.776 623.919 296.332 625.143 294.913L627.071 293.944L626.283 290.521C626.283 290.521 625.081 290.748 623.843 290.915Z" fill="#ED975D"/>
<path d="M624.927 292.66C624.189 290.764 625.095 290.128 625.095 290.128C625.095 290.128 643.718 280.431 645.233 279.384C646.747 278.337 656.456 258.977 656.456 258.977C656.456 258.977 660.027 251.076 664.957 251.045C669.238 251.02 671.714 253.594 673.14 256.35C673.963 257.951 674.285 259.763 674.063 261.55C673.84 263.336 673.084 265.014 671.893 266.365C666.441 272.583 655.486 284.898 652.611 286.814C646.183 291.077 626.621 295.064 626.621 295.064C625.878 294.404 625.298 293.581 624.927 292.66V292.66Z" fill="#6ACC96"/>
<path d="M668.428 240.366C668.428 240.366 670.82 242.675 670.088 244.096C670.088 244.096 664.524 248.404 656.747 247.932C657.251 247.135 657.954 246.483 658.787 246.039C660.053 245.45 666.997 242.46 668.428 240.366Z" fill="#5EBF81"/>
<path d="M430.987 251.305H428.327V337.689H430.987V251.305Z" fill="#AFCDFB"/>
<path d="M487.36 251.305H484.7V362.357H487.36V251.305Z" fill="#AFCDFB"/>
<path d="M393.19 119.168C394.065 120.743 397.717 118.518 398.366 118.169C399.243 117.828 400.674 118.068 400.674 118.068C400.674 118.068 401.381 114.344 400.465 114.402C399.263 114.478 395.155 112.707 394.151 113.182C393.148 113.657 392.218 117.479 393.19 119.168Z" fill="#ED985F"/>
<path d="M440.682 60.4274C440.81 59.9807 459.017 65.4195 459.177 66.1594C460.638 72.9858 459.204 74.5102 456.851 73.2315C455.342 72.4107 451.103 78.7234 451.103 78.7234L438.563 62.1724L440.682 60.4274Z" fill="#2C3A64"/>
<path d="M399.514 114.447L398.908 117.56C398.908 117.56 399.103 117.63 399.467 117.725C400.584 118.032 403.242 118.811 406.316 119.54C409.67 120.377 413.532 121.165 416.377 121.324C417.27 121.402 418.17 121.364 419.054 121.209C422.966 120.372 430.333 116.251 435.88 111.474C436.021 111.363 436.156 111.245 436.283 111.119C439.195 108.573 441.559 105.859 442.546 103.377C443.1 102.054 443.44 100.652 443.552 99.2223C443.66 97.781 443.479 96.3326 443.021 94.9617C442.983 94.7742 442.917 94.5934 442.825 94.4257C442.458 93.4042 441.908 92.4581 441.201 91.6337C440.701 91.1786 439.958 91.2484 439.049 91.723V91.7482C438.112 92.2638 437.247 92.9023 436.478 93.6467C436.442 93.6467 436.409 93.6774 436.4 93.6998C436.202 93.8784 435.992 94.0795 435.752 94.2972C435.692 94.3339 435.638 94.3801 435.593 94.4341C435.125 94.9012 434.648 95.3926 434.162 95.9082C428.83 101.397 422.111 110.189 418.397 112.205C417.713 112.576 416.198 112.9 414.314 113.188C411.799 113.565 408.585 113.866 405.81 114.084C402.309 114.333 399.514 114.447 399.514 114.447Z" fill="#ED985F"/>
<path d="M414.289 113.18C414.125 114.941 414.203 118.255 416.36 121.324C417.254 121.402 418.154 121.364 419.038 121.209C422.95 120.372 430.317 116.251 435.864 111.474C436.005 111.364 436.139 111.245 436.266 111.119C439.178 108.573 441.542 105.859 442.529 103.377C443.084 102.054 443.423 100.652 443.535 99.2224C443.643 97.781 443.463 96.3326 443.004 94.9618C442.967 94.7742 442.901 94.5934 442.808 94.4257C442.127 92.6165 444.862 89.858 444.862 89.858C444.362 89.4029 439.941 91.254 439.033 91.7147V91.7398C438.095 92.2555 437.23 92.894 436.462 93.6384C436.426 93.6384 436.392 93.6691 436.384 93.6914C436.185 93.8701 435.976 94.0712 435.735 94.2889C435.675 94.3256 435.621 94.3718 435.576 94.4257C435.108 94.8929 434.631 95.3843 434.145 95.8999C428.813 101.389 422.095 110.181 418.381 112.197C417.688 112.568 416.17 112.892 414.289 113.18Z" fill="#6ACC96"/>
<path d="M441.635 241.379L445.067 242.655C445.067 242.655 459.965 222.014 461.798 203.847C462.125 200.602 462.016 197.461 461.309 194.56C461.309 194.56 461.454 193.723 461.708 192.26C461.826 191.576 461.971 190.749 462.136 189.806C462.619 187.033 463.287 183.239 464.05 178.917C465.803 168.977 468.072 156.268 469.838 146.929L468.913 146.63L458.928 143.417L456.86 136.858L449.415 134.904C449.415 134.904 447.738 138.154 446.265 153.51C445.986 155.525 445.74 157.745 445.553 160.155C444.869 169.122 445.107 178.136 446.263 187.056C446.604 189.722 447.034 192.48 447.571 195.311C447.962 197.386 448.02 200.214 447.85 203.461C447.09 218.309 441.635 241.379 441.635 241.379Z" fill="#1E2E34"/>
<path d="M445.539 160.152L461.708 192.26C461.826 191.576 461.971 190.749 462.136 189.806C462.619 187.033 463.287 183.239 464.05 178.917C465.802 168.977 468.072 156.268 469.838 146.929L468.913 146.63L458.928 143.417L456.86 136.858L449.415 134.904C449.415 134.904 447.738 138.154 446.265 153.51C445.975 155.523 445.726 157.742 445.539 160.152Z" fill="#2D4147"/>
<path d="M452.651 139.016L453.025 135.808C459.296 137.484 476.053 131.16 476.053 131.16C476.053 131.16 482.123 136.504 481.329 149.288C480.941 155.531 480.228 182.055 479.487 189.903C479.208 192.748 478.982 194.773 478.887 195.579C478.871 195.825 478.935 196.068 479.068 196.275C480.148 198.111 481.066 200.038 481.81 202.035C489.101 221.442 480.692 245.344 480.692 245.344L478.507 244.464C478.507 244.464 473.719 217.865 469.843 206.114C469.181 204.123 468.549 202.557 467.968 201.618C466.291 198.893 464.707 194.437 463.284 189.138C460.59 179.118 458.422 166.082 456.98 156.022C456.765 156.048 452.651 139.016 452.651 139.016Z" fill="#1E2E34"/>
<path d="M440.673 100.127C442.952 101.14 445.403 101.708 447.895 101.802C458.676 102.391 461.121 92.9512 461.569 86.6832C460.381 86.2731 459.121 86.1143 457.869 86.2169C457.103 86.2588 456.306 86.337 455.633 86.4179C454.314 85.7283 451.947 82.3863 450.577 76.7939L450.111 77.0089L442.333 80.6636C442.333 80.6636 443.158 83.1932 443.77 85.6111C444.245 87.5068 444.589 89.3356 444.301 89.8465C443.689 90.0978 443.323 90.2541 443.323 90.2541C442.124 93.4523 441.237 96.7584 440.673 100.127V100.127Z" fill="#FFB27D"/>
<path d="M437.968 107.188C438.049 107.403 438.138 107.612 438.247 107.827C440.978 113.704 442.35 167.945 442.35 167.945C441.629 172.322 476.824 172.833 484.783 165.803C484.783 165.803 481.544 123.086 469.111 90.8212L465.54 93.8645C464.947 93.4262 464.193 93.2419 464.249 92.6891C464.274 92.4294 464.307 92.1698 464.346 91.9101C464.651 90.1151 465.176 88.3644 465.909 86.6974C463.016 85.5276 455.65 86.4182 455.65 86.4182L450.13 90.5811L444.317 89.8468C439.703 91.6588 437.155 93.9483 437.155 93.9483C439.924 95.7631 435.825 101.495 437.968 107.188Z" fill="#6ACC96"/>
<path d="M442.347 80.6778C442.347 80.6778 443.186 83.2046 443.784 85.628C448.33 84.3605 449.711 79.5861 450.127 77.0259L442.347 80.6778Z" fill="#ED985F"/>
<path d="M440.556 81.3256C440.556 81.3256 451.734 81.4931 451.718 74.5438C451.701 67.5945 453.151 62.9375 446.022 62.5382C438.893 62.139 437.51 64.7914 436.948 67.1087C436.387 69.4261 437.65 81.105 440.556 81.3256Z" fill="#FFB27D"/>
<path d="M437.272 63.2446C438.996 61.1534 440.301 61.6113 441.034 62.2367C447.129 58.8863 451.069 63.8253 451.069 63.8253C451.568 66.8624 453.109 69.6317 455.426 71.6597C455.426 71.6597 453.394 72.9188 448.702 71.7211C447.268 71.3553 445.986 70.3251 444.896 69.1078C446.139 71.1234 447.651 72.9606 449.39 74.5689C443.781 71.9919 441.517 64.2078 441.285 63.3842C440.603 63.9984 439.262 65.3386 438.854 66.6313C438.295 68.4014 438.057 72.0422 436.993 71.9221C437.001 71.9221 434.69 66.3828 437.272 63.2446Z" fill="#2C3A64"/>
<path d="M467.993 247.134H485.269C485.269 247.134 485.683 244.504 484.78 242.507C483.917 240.592 482.561 239.715 482.886 237.406C481.787 238.523 479.999 239.799 477.5 239.464C477.196 239.958 475.527 242.611 474.505 243.345C473.376 244.155 468.34 243.867 467.993 247.134Z" fill="#2B478B"/>
<path d="M430.9 247.134H448.177C448.177 247.134 448.822 244.381 447.688 242.507C446.684 240.849 447.07 239.905 447.813 238.534C446.897 238.935 445.903 239.126 444.904 239.093C443.99 238.991 443.111 238.682 442.333 238.191C441.59 239.029 438.421 242.641 437.412 243.356C436.291 244.155 431.261 243.867 430.9 247.134Z" fill="#2B478B"/>
<path d="M456.133 105.114C456.073 104.952 455.968 104.811 455.83 104.707C455.693 104.603 455.528 104.541 455.356 104.528C455.185 104.514 455.012 104.55 454.86 104.632C454.708 104.713 454.583 104.836 454.499 104.986C454.415 105.137 454.375 105.308 454.385 105.48C454.396 105.652 454.455 105.817 454.556 105.957C454.658 106.096 454.797 106.204 454.957 106.266C455.118 106.329 455.293 106.345 455.462 106.311C455.709 106.24 455.918 106.074 456.043 105.85C456.169 105.626 456.201 105.361 456.133 105.114V105.114Z" fill="#233862"/>
<path d="M445.553 106.163C445.493 106.001 445.389 105.86 445.251 105.755C445.114 105.651 444.949 105.588 444.777 105.575C444.605 105.561 444.433 105.597 444.281 105.678C444.128 105.759 444.002 105.882 443.918 106.033C443.834 106.183 443.794 106.354 443.804 106.526C443.814 106.699 443.874 106.864 443.975 107.004C444.077 107.143 444.216 107.251 444.377 107.314C444.537 107.376 444.713 107.392 444.882 107.358C445.129 107.288 445.338 107.123 445.464 106.899C445.59 106.675 445.622 106.41 445.553 106.163V106.163Z" fill="#233862"/>
<path d="M457.446 117.482C457.387 117.32 457.282 117.178 457.145 117.074C457.007 116.97 456.843 116.907 456.671 116.893C456.499 116.88 456.326 116.916 456.174 116.997C456.022 117.078 455.896 117.201 455.812 117.351C455.727 117.502 455.688 117.673 455.698 117.845C455.708 118.017 455.767 118.183 455.869 118.323C455.97 118.462 456.11 118.57 456.27 118.632C456.431 118.695 456.606 118.711 456.776 118.677C457.022 118.605 457.23 118.44 457.356 118.216C457.481 117.993 457.514 117.729 457.446 117.482V117.482Z" fill="#233862"/>
<path d="M446.866 118.532C446.807 118.37 446.702 118.228 446.565 118.124C446.428 118.02 446.263 117.957 446.091 117.943C445.919 117.929 445.747 117.965 445.595 118.045C445.442 118.126 445.316 118.249 445.232 118.399C445.147 118.549 445.107 118.721 445.117 118.893C445.127 119.065 445.186 119.231 445.287 119.37C445.388 119.51 445.527 119.618 445.687 119.681C445.848 119.744 446.023 119.76 446.193 119.727C446.44 119.656 446.649 119.491 446.775 119.268C446.901 119.044 446.934 118.779 446.866 118.532V118.532Z" fill="#233862"/>
<path d="M468.971 101.266C468.971 101.266 467.725 136.931 441.285 139.366L440.88 131.744L455.258 120.31L468.971 101.266Z" fill="#5EBF81"/>
<path d="M430.026 133.463L430.931 136.78C430.931 136.78 432.072 136.579 433.882 136.244C434.422 136.144 434.721 136.077 434.721 136.077C436.196 135.775 437.94 135.407 439.818 134.96H439.855C442.47 134.323 445.391 133.586 448.006 132.782C448.61 132.612 449.214 132.411 449.784 132.21C450.186 132.076 450.555 131.931 450.924 131.808L445.424 124.535C445.019 124.836 444.586 125.093 444.147 125.372C441.911 126.813 439.349 128.29 437.035 129.597C435.593 130.434 434.215 131.171 433.075 131.808C431.233 132.827 430.026 133.463 430.026 133.463Z" fill="#FFB27D"/>
<path d="M444.155 125.372C445.161 128.907 446.595 131.235 448.02 132.801C448.624 132.614 449.219 132.422 449.789 132.243C451.941 131.492 453.813 130.688 455.099 129.881C455.226 129.805 455.348 129.719 455.462 129.624C458.5 127.421 462.108 120.938 464.908 113.989C465.299 113.031 465.663 112.071 466.026 111.135C467.249 107.927 468.238 104.634 468.985 101.283C469.353 99.7409 469.587 98.1707 469.687 96.5892C469.721 96.1489 469.73 95.707 469.712 95.2658C469.662 87.7441 465.922 86.7083 465.922 86.7083C465.844 86.6832 465.766 86.6552 465.663 86.6301C465.014 86.5268 464.341 86.9652 463.639 87.8251C462.753 88.8861 461.823 90.6171 460.861 92.7223C459.38 96.0727 457.824 100.4 456.37 104.703C455.566 107.065 454.786 109.427 454.009 111.605C453.568 112.925 453.126 114.17 452.712 115.312C451.905 117.49 451.178 119.255 450.533 120.369C450.113 121.095 448.92 122.105 447.338 123.247C446.388 123.909 445.309 124.632 444.155 125.372Z" fill="#6ACC96"/>
<path d="M448.141 56.2061C448.141 56.2061 448.42 50.7226 452.989 48.2768C457.558 45.831 462.421 47.7994 464.475 51.5909C465.109 52.7635 470.316 53.0232 472.398 56.7254C474.48 60.4276 472.806 65.0735 471.28 67.0167C469.883 68.8008 471.811 73.8264 466.99 76.0572C461.337 78.6705 454.932 73.6812 454.932 73.6812C454.932 73.6812 453.618 57.6077 448.141 56.2061Z" fill="#6ACC96"/>
<path d="M440.682 60.4273C440.682 60.4273 455.84 65.6204 452.031 77.4166L460.509 70.0541C460.509 70.0541 462.882 58.4897 448.414 54.7456L440.682 60.4273Z" fill="#5EBF81"/>
<path d="M456.647 86.3289C456.647 86.3289 454.971 84.771 453.506 84.0674C453.506 84.0674 449.625 88.4843 449.625 89.3247C449.625 90.1651 450.516 91.6867 450.516 91.6867C450.516 91.6867 453.501 91.1311 456.647 86.3289Z" fill="#5EBF81"/>
<path d="M444.116 87.0601C444.116 87.0601 442.403 88.6711 443.135 90.0894C443.135 90.0894 448.886 94.5566 456.647 94.0959C456.143 93.3004 455.441 92.6492 454.61 92.2057C453.338 91.6082 445.544 89.1373 444.116 87.0601Z" fill="#5EBF81"/>
<path d="M424.805 10.0516L383.554 92.22L383.194 92.9487L382.593 94.1493L380.242 98.8119L374.95 109.352L364.889 129.418L362.754 133.673L360.591 137.986L353.643 151.824L347.339 164.388L341.47 176.055L339.067 180.841C338.044 180.927 337.013 181.011 335.993 181.092L338.388 176.323L351.243 150.732L357.816 137.64L359.982 133.318L364.073 125.171L372.555 108.277L378.58 96.2712L381.332 90.7849L382.554 88.3587L422.463 8.85938L424.805 10.0516Z" fill="#FFD6A1"/>
<path d="M428.243 13.7954C427.125 15.4706 408.493 51.948 387.277 93.6995C385.849 96.5194 384.407 99.3589 382.95 102.218C377.557 112.827 372.051 123.663 366.708 134.228L364.528 138.522L364.037 139.497C360.633 146.197 357.302 152.781 354.11 159.091C351.181 164.865 348.37 170.421 345.726 175.659C344.894 177.293 344.081 178.895 343.289 180.466L340.185 180.746C340.785 179.559 341.601 177.954 342.608 175.952C344.108 172.992 346.028 169.201 348.278 164.759C348.705 163.921 349.138 163.061 349.588 162.173L361.605 138.461L361.765 138.148C362.482 136.73 363.208 135.295 363.944 133.843C366.362 129.069 368.877 124.113 371.448 119.045C374.617 112.797 377.875 106.386 381.12 99.9759C381.43 99.3673 381.738 98.7642 382.045 98.1556C382.986 96.2942 383.908 94.4794 384.812 92.7112C425.373 12.888 425.94 12.3491 426.284 12.0225L428.097 13.9434C428.187 13.8736 428.234 13.801 428.243 13.7954Z" fill="#FFD6A1"/>
<path d="M387.944 58.3867L386.69 59.9921L331.457 130.532L328.067 134.857L293.791 178.63L290.158 183.256L286.766 183.309L290.373 178.697L324.873 134.647L328.268 130.306L385.868 56.7617L387.469 58.0097L387.944 58.3867Z" fill="#FFD6A1"/>
<path d="M374.72 66.0813L312.909 129.435L308.639 133.81L264.8 178.744L260.421 183.234L256.805 183.158L261.161 178.691L305.084 133.67L309.368 129.275L372.826 64.2358L374.72 66.0813Z" fill="#FFD6A1"/>
<path d="M445.153 112.021L443.901 113.623L388.654 184.166L385.267 188.491L350.989 232.269L347.356 236.898C346.238 236.915 345.095 236.935 343.963 236.949L347.571 232.339L382.076 188.281L385.471 183.94L443.071 110.393L444.675 111.655L445.153 112.021Z" fill="#FFD6A1"/>
<path d="M426.407 130.699L365.822 195.225L361.63 199.678L318.666 245.447L314.376 250.015C313.166 250.015 311.962 250.015 310.76 250.015L315.03 245.464L358.081 199.603L362.273 195.135L424.473 128.893L426.407 130.699Z" fill="#FFD6A1"/>
<path d="M399.425 27.4691L346.072 163.903L348.534 164.864L401.887 28.4303L399.425 27.4691Z" fill="#FFD6A1"/>
<path d="M357.539 181.095L352.702 185.135C378.798 130.428 433.382 15.6272 434.461 12.2852L437.009 12.9887C436.146 16.2219 365.325 164.77 357.539 181.095Z" fill="#FFD6A1"/>
<path d="M364.708 189.895L358.216 197.922L439.623 16.1519L442.034 17.2296L364.708 189.895Z" fill="#FFD6A1"/>
<path d="M350.217 177.504L347.733 176.602C366.706 124.498 402.756 24.9913 403.441 21.3198L406.042 21.7973C405.168 26.5548 352.47 171.342 350.217 177.504Z" fill="#FFD6A1"/>
<path d="M350.31 186.503L346.557 188.259L422.986 26.4404L425.379 27.5684L350.31 186.503Z" fill="#FFD6A1"/>
<path d="M429.618 133.016C428.379 132.488 427.083 132.103 425.756 131.872C424.358 131.62 422.511 131.389 422.637 131.872C422.763 132.355 425.736 133.251 425.823 133.463C425.909 133.675 429.618 133.016 429.618 133.016Z" fill="#FFB27D"/>
<path d="M419.524 136.35C420.102 136.791 424.705 138.584 426.457 138.025C427.435 137.718 430.842 136.875 432.217 136.54L434.732 136.051L433.251 131.749C433.19 131.761 433.13 131.778 433.072 131.799C432.513 131.995 431.423 132.528 429.998 132.74C428.251 133.003 426.085 131.903 424.937 132.525C422.536 133.84 419.222 132.508 418.459 133.209C417.894 133.751 418.104 135.253 419.524 136.35Z" fill="#FFB27D"/>
<path d="M392.695 114.919C393.056 114.081 393.813 112.663 395.663 112.861C397.874 113.101 401.867 115.391 394.093 119.593C391.793 120.843 391.966 116.664 392.695 114.919Z" fill="#FFB27D"/>
<path d="M153.08 241.86H114.162C112.132 241.854 110.187 241.045 108.752 239.611C107.316 238.176 106.508 236.232 106.502 234.204V234.204C106.508 232.176 107.316 230.233 108.752 228.798C110.187 227.364 112.132 226.556 114.162 226.551H153.08C155.11 226.556 157.056 227.364 158.492 228.798C159.928 230.232 160.737 232.176 160.743 234.204C160.737 236.233 159.928 238.177 158.492 239.611C157.056 241.045 155.111 241.854 153.08 241.86V241.86Z" fill="#6385DB"/>
<path d="M425.158 241.86H386.24C384.209 241.854 382.264 241.045 380.828 239.611C379.392 238.177 378.583 236.233 378.577 234.204V234.204C378.583 232.176 379.392 230.232 380.828 228.798C382.264 227.364 384.21 226.556 386.24 226.551H425.158C427.187 226.557 429.132 227.365 430.568 228.799C432.003 230.233 432.812 232.176 432.818 234.204V234.204C432.812 236.232 432.003 238.176 430.568 239.61C429.133 241.044 427.188 241.853 425.158 241.86V241.86Z" fill="#739AF0"/>
<path d="M399.467 177.825V368.323C399.466 372.547 398.633 376.73 397.014 380.632C395.396 384.534 393.024 388.079 390.033 391.066C387.043 394.052 383.493 396.42 379.586 398.035C375.679 399.65 371.492 400.48 367.265 400.479H177.091C172.864 400.479 168.678 399.647 164.773 398.031C160.867 396.416 157.318 394.047 154.329 391.061C151.34 388.074 148.969 384.529 147.351 380.627C145.733 376.726 144.9 372.544 144.9 368.32V177.825H399.467Z" fill="#6385DB"/>
<path d="M399.467 177.965V368.463C399.467 386.223 385.114 400.621 367.407 400.621H221.453C203.747 400.621 189.391 386.223 189.391 368.463V177.965H399.467Z" fill="#739AF0"/>
<path d="M400.495 185.939H143.875C142.639 185.936 141.454 185.444 140.579 184.571C139.705 183.698 139.212 182.514 139.208 181.279C139.212 180.043 139.705 178.86 140.579 177.986C141.453 177.112 142.638 176.62 143.875 176.616H400.495C401.732 176.621 402.916 177.113 403.79 177.987C404.663 178.86 405.156 180.044 405.16 181.279V181.279C405.156 182.514 404.663 183.697 403.789 184.57C402.916 185.443 401.731 185.935 400.495 185.939Z" fill="#4C79C9"/>
<path d="M386.212 263.777V213.563C386.212 213.563 387.757 196.833 375.623 195.513C363.489 194.192 359.085 201.236 361.287 213.563C363.489 225.89 359.526 294.14 365.255 299.422C370.984 304.705 382.442 304.705 384.647 299.422C386.852 294.14 386.212 263.777 386.212 263.777Z" fill="#88B3FF"/>
<path d="M337.815 274.063C337.815 273.717 337.172 239.277 336.233 213.566C335.213 185.587 329.048 168.657 319.32 167.121C315.128 166.459 311.428 167.942 308.323 171.532C305.858 174.38 305.204 176.586 305.193 176.617H300.848C302.706 171.421 309.296 161.702 319.912 163.374C335.92 165.887 339.385 195.82 340.034 213.426C340.973 239.174 341.61 273.647 341.615 273.993L337.815 274.063Z" fill="#FFD6A1"/>
<path d="M289.879 397.703C289.907 399.099 290.083 400.448 290.595 400.973H311.093C310.83 400.233 310.093 399.116 307.988 398.775C305.596 398.39 302.256 395.688 300.079 393.39C299.305 392.572 298.336 393.158 298.084 392.033C297.12 387.742 290.108 393.348 290.108 393.348C289.939 394.793 289.863 396.248 289.879 397.703V397.703Z" fill="#182D4F"/>
<path d="M258.568 397.703C258.596 399.099 258.775 400.448 259.287 400.973H279.793C279.534 400.233 278.796 399.116 276.691 398.775C274.299 398.39 270.571 397.24 268.394 394.939C267.602 394.136 267.046 393.131 266.787 392.033C265.823 387.742 258.809 393.348 258.809 393.348C258.638 394.793 258.557 396.248 258.568 397.703V397.703Z" fill="#1A2F51"/>
<path d="M298.081 395.171C295.79 395.903 292.772 395.822 289.977 394.772C288.18 394.093 277.401 367.807 276.756 355.103C276.657 353.832 276.484 352.568 276.239 351.317C275.643 348.039 274.604 343.533 273.405 338.563C270.188 325.24 265.837 308.574 265.932 303.25C266.078 294.983 290.592 301.516 290.592 301.516C290.592 301.516 292.269 308.298 292.615 318.118C293.28 337.606 295.111 370.526 300.088 393.39C300.3 394.359 299.032 394.869 298.081 395.171Z" fill="#1E2E34"/>
<path d="M286.151 306.874L269.682 395.693C269.682 395.693 262.604 397.782 257.685 395.693C257.685 395.693 254.821 347.484 255.139 335.417C255.458 323.35 252.414 303.133 255.832 300.902C259.25 298.671 286.151 306.874 286.151 306.874Z" fill="#1E2E34"/>
<path d="M277.183 243.716C277.183 243.716 288.451 245.637 291.022 249.599C294.7 255.264 303.628 274.141 303.779 283.62C303.986 296.385 290.086 300.679 288.373 295.625C286.975 291.437 283.502 265.245 280.989 257.118L277.183 243.716Z" fill="#6ACC96"/>
<path d="M296.002 333.256C296.002 333.256 290.787 337.48 280.271 338.432C279.086 338.736 258.895 338.736 250.347 335.802C250.17 335.741 250.794 317.654 251.517 299.017C251.517 298.987 251.517 298.959 251.517 298.928C251.593 297.035 251.666 295.128 251.738 293.241C251.772 292.428 251.802 291.619 251.836 290.812C252.057 285.247 252.278 279.867 252.476 275.143C252.87 265.874 253.186 259.156 253.278 258.623C253.591 256.808 253.882 255.272 254.203 253.924C255.134 250.015 256.291 247.871 258.817 246.031C259.063 245.844 261.081 244.825 262.861 243.94L265.655 242.569C265.655 242.569 285.089 243.127 286.953 247.991C288.817 252.855 296.002 333.256 296.002 333.256Z" fill="#6ACC96"/>
<path d="M275.492 244.981C274.475 245.182 273.164 246.12 271.926 246.031C269.498 245.855 266.969 244.222 264.825 242.812C266.287 239.324 266.885 236.572 267.097 234.787C267.097 234.693 267.12 234.603 267.128 234.508C267.21 233.899 267.223 233.283 267.167 232.671H274.947C274.947 232.671 277.077 233.643 277.077 234.313C277.077 234.674 277.077 235.017 277.077 235.343C277.077 236.239 277.127 237.018 277.175 237.688C277.226 238.767 277.359 239.841 277.574 240.899C277.574 240.899 278.533 244.386 275.492 244.981Z" fill="#FFB27D"/>
<path d="M277.183 237.694C271.287 238.833 267.866 235.614 267.097 234.788C266.988 234.67 266.933 234.6 266.933 234.6L267.128 234.514C269.325 233.626 274.305 234.332 277.085 235.352C277.099 236.245 277.136 237.016 277.183 237.694Z" fill="#E2915A"/>
<path d="M265.172 231.398C266.226 237.063 273.556 236.876 276.702 236.521C277.594 236.421 278.153 236.306 278.153 236.306C279.156 236.027 279.715 234.461 279.975 232.398C280.492 228.305 279.841 222.296 279.137 220.761C278.097 218.449 276.135 215.947 268.766 217.751C261.396 219.554 263.822 224.139 265.172 231.398Z" fill="#FFB27D"/>
<path d="M279.422 217.597C278.416 216.201 276.281 214.504 274.341 213.454C270.177 211.204 264.84 213.527 264.823 213.535C258.803 216.179 262.464 229.352 264.303 228.74C265.737 228.263 264.789 227.565 265.421 227.004C266.178 226.328 267.237 227.149 267.578 227.783C267.644 227.891 267.73 227.984 267.833 228.058C267.936 228.131 268.053 228.182 268.177 228.208C268.301 228.235 268.429 228.235 268.552 228.21C268.676 228.185 268.794 228.134 268.897 228.062C270.77 226.878 269.554 224.513 271.343 223.067C273.131 221.621 276.764 222.835 279.447 221.671C282.96 220.384 280.182 218.647 279.422 217.597Z" fill="#233862"/>
<path d="M274.947 232.677C275.298 232.952 275.705 233.149 276.139 233.254C276.573 233.358 277.024 233.368 277.462 233.283C278.387 233.121 278.904 231.92 278.904 231.92C278.904 231.92 277.135 231.602 274.947 232.677Z" fill="#CFE5FF"/>
<path d="M266.938 258.078C266.937 257.878 266.996 257.683 267.107 257.516C267.218 257.35 267.376 257.22 267.561 257.143C267.745 257.066 267.949 257.045 268.145 257.084C268.342 257.123 268.522 257.219 268.664 257.36C268.806 257.501 268.902 257.681 268.942 257.877C268.981 258.074 268.961 258.277 268.885 258.462C268.808 258.647 268.678 258.805 268.512 258.916C268.346 259.027 268.15 259.086 267.95 259.086C267.817 259.087 267.685 259.061 267.563 259.01C267.44 258.96 267.328 258.886 267.234 258.792C267.14 258.699 267.066 258.587 267.015 258.465C266.964 258.342 266.938 258.211 266.938 258.078V258.078Z" fill="#233862"/>
<path d="M278.91 257.07C278.91 256.871 278.969 256.676 279.08 256.51C279.191 256.345 279.349 256.216 279.533 256.139C279.717 256.063 279.92 256.043 280.116 256.082C280.312 256.121 280.491 256.217 280.632 256.358C280.773 256.499 280.87 256.678 280.908 256.874C280.947 257.069 280.927 257.272 280.851 257.456C280.775 257.64 280.645 257.798 280.479 257.908C280.314 258.019 280.119 258.078 279.919 258.078C279.651 258.078 279.395 257.972 279.206 257.783C279.016 257.594 278.91 257.338 278.91 257.07Z" fill="#233862"/>
<path d="M268.218 270.087C268.217 269.887 268.276 269.691 268.387 269.524C268.498 269.358 268.656 269.228 268.84 269.151C269.025 269.074 269.229 269.054 269.425 269.092C269.621 269.131 269.802 269.227 269.944 269.368C270.086 269.51 270.182 269.69 270.221 269.886C270.261 270.082 270.241 270.285 270.164 270.47C270.088 270.655 269.958 270.813 269.792 270.924C269.625 271.035 269.43 271.095 269.229 271.095C268.962 271.095 268.705 270.989 268.515 270.8C268.325 270.611 268.219 270.354 268.218 270.087Z" fill="#233862"/>
<path d="M280.196 269.076C280.196 268.877 280.256 268.682 280.367 268.517C280.478 268.352 280.636 268.223 280.821 268.147C281.005 268.071 281.208 268.052 281.403 268.091C281.599 268.13 281.778 268.226 281.919 268.367C282.06 268.508 282.156 268.688 282.194 268.883C282.233 269.079 282.213 269.281 282.136 269.465C282.06 269.649 281.931 269.807 281.765 269.917C281.599 270.028 281.404 270.087 281.205 270.087C281.072 270.087 280.941 270.061 280.818 270.01C280.695 269.959 280.584 269.885 280.49 269.791C280.397 269.697 280.322 269.585 280.272 269.463C280.221 269.34 280.195 269.209 280.196 269.076V269.076Z" fill="#233862"/>
<path d="M268.953 281.816C268.953 281.616 269.012 281.421 269.124 281.254C269.235 281.088 269.393 280.959 269.578 280.882C269.763 280.806 269.966 280.786 270.162 280.825C270.358 280.864 270.539 280.96 270.68 281.101C270.822 281.243 270.918 281.423 270.957 281.619C270.996 281.815 270.976 282.018 270.899 282.203C270.823 282.387 270.693 282.545 270.527 282.656C270.36 282.767 270.165 282.827 269.965 282.827C269.696 282.827 269.439 282.72 269.249 282.531C269.06 282.341 268.953 282.084 268.953 281.816V281.816Z" fill="#233862"/>
<path d="M280.928 280.808C280.927 280.608 280.986 280.412 281.097 280.246C281.208 280.079 281.365 279.949 281.55 279.872C281.735 279.795 281.939 279.775 282.135 279.814C282.331 279.852 282.512 279.948 282.654 280.089C282.795 280.231 282.892 280.411 282.931 280.607C282.971 280.803 282.951 281.006 282.874 281.191C282.798 281.376 282.668 281.534 282.502 281.645C282.335 281.757 282.14 281.816 281.939 281.816C281.672 281.816 281.415 281.71 281.225 281.521C281.035 281.332 280.928 281.075 280.928 280.808V280.808Z" fill="#233862"/>
<path d="M272.019 298.211C272.019 298.211 267.441 301.516 251.509 298.928C251.585 297.035 251.657 295.128 251.73 293.241C251.764 292.428 251.794 291.619 251.828 290.812C252.049 285.247 252.269 279.867 252.468 275.143C255 271.042 257.115 268.068 257.115 268.068C257.115 268.068 256.914 279.331 261.659 282.827C274.221 292.071 272.019 298.211 272.019 298.211Z" fill="#5EBF81"/>
<path d="M273.765 212.471C273.765 212.471 274.788 207.113 271.057 203.749C267.327 200.385 262.291 201.105 259.477 204.198C258.605 205.153 253.644 204.198 250.813 207.189C247.982 210.179 248.485 214.95 249.452 217.131C250.341 219.133 247.368 223.416 251.386 226.624C256.098 230.399 263.288 227.182 263.288 227.182C263.288 227.182 268.282 212.519 273.765 212.471Z" fill="#6ACC96"/>
<path d="M279.81 218.047C279.81 218.047 264.336 219.409 265.172 231.398L258.906 222.497C258.906 222.497 259.367 211.05 273.857 210.905L279.81 218.047Z" fill="#5EBF81"/>
<path d="M289.871 300.293C289.871 300.293 290.15 266.292 291.044 266.292C291.939 266.292 294.429 274.063 294.429 280.174C294.429 287.863 291.419 300.587 289.871 300.293Z" fill="#5EBF81"/>
<path d="M543.791 400.747H314.245C310.826 400.745 307.474 399.795 304.563 398.002C301.652 396.21 299.296 393.646 297.757 390.595L284.253 363.831H571.377L559.081 390.891C557.748 393.827 555.598 396.317 552.887 398.065C550.175 399.812 547.018 400.743 543.791 400.747Z" fill="#E86234"/>
<path d="M427.813 377.109C542.49 377.109 635.455 369.827 635.455 360.843C635.455 351.86 542.49 344.577 427.813 344.577C313.135 344.577 220.17 351.86 220.17 360.843C220.17 369.827 313.135 377.109 427.813 377.109Z" fill="#F77D48"/>
<path d="M571.844 360.215C571.786 360.236 571.727 360.253 571.668 360.268C566.967 361.6 561.328 362.851 554.9 364.009C553.48 364.266 552.02 364.517 550.518 364.76C545.373 365.598 539.778 366.397 533.79 367.123C532.314 367.309 530.814 367.485 529.29 367.65C523.865 368.259 518.157 368.817 512.165 369.325C509.95 369.512 507.698 369.691 505.41 369.864C496.968 370.495 488.062 371.023 478.783 371.433C477.786 371.475 476.782 371.52 475.776 371.559C473.356 371.66 470.905 371.749 468.438 371.838L467.745 371.861C463.014 372.017 458.204 372.142 453.313 372.235C450.265 372.291 447.191 372.336 444.091 372.371L442.266 372.388C438.991 372.416 435.69 372.43 432.362 372.43H429.146H427.684C398.525 372.31 371.378 371.056 348.373 368.976L347.387 368.884C343.863 368.56 340.44 368.217 337.116 367.854L336.965 367.837L336.11 367.745C333.45 367.449 330.861 367.141 328.344 366.821C327.919 366.771 327.506 366.715 327.078 366.659C296.131 362.65 276.739 356.887 276.739 350.505C276.739 350.505 276.336 347.894 278.826 345.052C286.495 336.268 308.952 318.807 351.939 316.934C384.465 315.51 408.253 322.434 422.659 328.618C433.444 333.256 438.974 337.48 438.974 337.48C439.008 337.458 439.189 337.321 439.533 337.089C441.21 335.919 446.718 332.326 455.493 328.819C470.24 322.931 494.24 317.285 524.948 323.794C543.311 327.68 555.258 333.085 562.781 338.546C576.687 348.642 575.463 358.97 571.844 360.215Z" fill="#FFE6C2"/>
<path d="M498.362 327.393C498.362 327.393 522.846 324.743 540.994 333.337C559.142 341.931 564.234 349.304 563.289 354.648C562.345 359.992 535.872 358.428 535.872 358.428C535.872 358.428 519.056 355.131 517.855 354.648C516.653 354.165 498.362 327.393 498.362 327.393Z" fill="#FFE6C2"/>
<path d="M483.716 366.243C483.224 368.89 480.672 370.546 478.758 371.433C477.76 371.475 476.757 371.52 475.751 371.559C477.341 371.11 482.254 368.594 482.76 365.858C482.961 364.783 482.536 363.554 481.494 362.203C476.464 355.681 461.264 362.29 461.11 362.357L460.831 360.961C463.577 359.811 466.433 358.94 469.354 358.361C475.544 357.194 479.848 358.121 482.156 361.111C483.5 362.862 484.023 364.587 483.716 366.243Z" fill="#EA9678"/>
<path d="M543.501 357.415C543.177 360.271 541.008 362.954 537.054 365.378C535.997 366.02 534.904 366.603 533.781 367.123C532.306 367.309 530.806 367.485 529.282 367.65C533.292 365.975 542.045 361.402 542.523 357.175C542.741 355.248 541.701 353.207 539.449 351.108C533.91 345.973 520.261 342.453 504.667 342.148C486.298 341.783 468.262 345.705 453.853 353.193L453.52 351.822C468.052 344.284 486.217 340.322 504.681 340.694C520.442 341.009 534.304 344.602 539.977 349.879C542.601 352.325 543.789 354.857 543.501 357.415Z" fill="#EA9678"/>
<path d="M303.721 282.455C303.721 282.455 305.509 297.2 293.439 304.191L289.871 300.282L295.622 285.658L303.721 282.455Z" fill="#6ACC96"/>
<path d="M225.435 272.829L227.889 269.757C228.828 268.588 230.77 268.297 232.195 269.11L322.475 320.801C322.703 320.935 322.97 320.989 323.233 320.952C323.495 320.916 323.738 320.792 323.92 320.6L324.479 319.91C326.198 317.771 328.995 316.334 332.145 315.971C335.281 315.604 338.449 316.318 341.124 317.995L375.218 340.007C375.314 340.058 375.398 340.129 375.464 340.215C375.53 340.302 375.577 340.402 375.601 340.508C375.624 340.614 375.625 340.724 375.601 340.83C375.578 340.937 375.532 341.037 375.467 341.124L374.866 341.872C374.681 342.067 374.435 342.193 374.168 342.228C373.901 342.263 373.631 342.205 373.401 342.065L338.201 321.055C336.654 320.073 334.813 319.659 332.994 319.882C332.315 319.957 331.648 320.124 331.013 320.376C330.32 320.656 330.272 321.446 330.929 321.817L371.373 344.711C371.845 344.991 371.979 345.493 371.677 345.87L371.018 346.691C370.84 346.88 370.604 347.005 370.347 347.045C370.09 347.085 369.828 347.038 369.601 346.911L327.799 324.64C327.573 324.514 327.311 324.467 327.055 324.506C326.798 324.546 326.563 324.669 326.385 324.857L325.681 325.734C325.376 326.114 325.513 326.63 325.991 326.898L367.181 349.921C367.656 350.2 367.795 350.706 367.491 351.083L366.87 351.856C366.694 352.041 366.462 352.163 366.209 352.203C365.957 352.244 365.698 352.2 365.473 352.079L324.06 330.36C323.392 330.011 322.534 330.36 322.489 330.989C322.449 331.578 322.526 332.169 322.716 332.728C323.207 334.227 324.392 335.47 326.092 336.226L363.204 354.81C363.713 355.067 363.875 355.606 363.559 355.997L363.182 356.466C363.013 356.646 362.792 356.767 362.55 356.813C362.307 356.858 362.057 356.826 361.835 356.72L323.878 339.641C321.016 338.351 318.893 336.154 318.054 333.605C317.639 332.355 317.549 331.02 317.794 329.726C318.038 328.432 318.609 327.221 319.452 326.209V326.209C319.762 325.821 319.611 325.29 319.116 325.031L226.386 276.347C224.927 275.582 224.499 273.996 225.435 272.829Z" fill="#1E2E34"/>
<path d="M263.395 294.344C263.395 294.344 265.725 293.956 266.826 294.581C267.927 295.206 270.686 295.586 270.563 296.223C270.44 296.859 267 297.13 266.091 296.817C265.183 296.505 263.395 294.344 263.395 294.344Z" fill="#FFB27D"/>
<path d="M262.908 294.659C262.66 294.822 262.452 295.04 262.3 295.296C262.149 295.551 262.058 295.838 262.034 296.134C262.01 296.43 262.054 296.728 262.162 297.004C262.27 297.281 262.441 297.529 262.659 297.73C264.171 299.101 266.128 300.855 266.608 301.201C267.419 301.787 271.736 302.27 272.86 300.751C272.86 300.751 269.227 299.191 268.721 296.77C268.162 294.193 263.394 294.346 263.394 294.346L262.908 294.659Z" fill="#FFB27D"/>
<path d="M262.746 299.291C262.746 299.291 241.644 294.341 239.612 280.808C237.821 268.875 248.276 250.956 251.037 247.949C254.248 244.439 260.105 243.203 263.333 242.784L263.724 242.734C264.862 242.6 265.591 242.572 265.633 242.569L264.957 244.766C264.792 245.302 264.599 245.922 264.398 246.614C262.411 253.117 256.198 268.928 254.197 277.631C252.923 283.17 264.968 294.21 265.275 294.232C265.292 294.232 262.746 299.291 262.746 299.291Z" fill="#6ACC96"/>
<path d="M263.437 242.789C263.437 242.789 264.75 240.659 266.083 239.495C266.083 239.495 271.454 243.007 271.7 243.892C271.946 244.777 271.454 246.634 271.454 246.634C271.454 246.634 268.151 246.922 263.437 242.789Z" fill="#5EBF81"/>
<path d="M288.197 300.751C288.197 300.751 288.652 306.226 289.932 306.774C291.212 307.321 293.618 305.489 293.875 304.353C294.133 303.217 290.938 299.833 289.658 299.743C288.378 299.654 288.197 300.751 288.197 300.751Z" fill="#FFB27D"/>
<path d="M277.53 240.746C277.53 240.746 279.536 242.331 279.061 244.007C279.061 244.007 274.053 249.808 265.647 250.987C266.013 250.027 266.623 249.18 267.416 248.527C268.64 247.608 276.454 243.278 277.53 240.746Z" fill="#5EBF81"/>
<path d="M453.288 372.229C450.24 372.285 447.166 372.331 444.066 372.366L442.241 372.383C438.966 372.411 435.664 372.425 432.337 372.425H429.12H427.659C398.5 372.305 371.353 371.051 348.348 368.971L347.361 368.879C343.838 368.555 340.415 368.211 337.091 367.848V367.874L336.948 367.832L336.135 367.603C333.139 366.729 330.786 365.81 329.149 364.853C328.78 364.641 328.425 364.406 328.087 364.149C327.028 363.345 326.477 362.519 326.477 361.673C326.477 361.673 326.198 359.967 327.93 358.113C330.675 355.153 336.146 350.689 344.899 346.892C353.115 343.324 364.227 340.342 378.68 339.747C381.919 339.613 385.035 339.591 388.025 339.663H388.045C405.875 340.104 419.211 343.913 427.773 347.375C435.243 350.396 439.086 353.163 439.086 353.163C439.086 353.163 459.903 365.743 453.288 372.229Z" fill="#FFE6C2"/>
<path d="M429.115 372.427H427.653C423.545 367.784 419.058 363.488 414.239 359.584C404.26 351.552 388.769 342.391 371.672 344.396C362.268 345.496 349.418 348.966 341.605 359.271C339.629 361.864 338.102 364.769 337.089 367.865V367.89L336.946 367.848L336.091 367.756L336.133 367.62C337.181 364.315 338.787 361.215 340.884 358.453C345.305 352.59 354.219 345.166 371.596 343.136C388.973 341.107 404.654 350.396 414.765 358.523C419.946 362.729 424.748 367.382 429.115 372.427Z" fill="#EA9678"/>
<path d="M444.06 372.366L442.236 372.383C437.028 367.08 431.395 362.212 425.392 357.828C412.817 348.695 393.288 338.284 371.736 340.554C359.884 341.805 343.686 345.755 333.841 357.471C331.948 359.706 330.365 362.185 329.132 364.841C328.811 365.539 328.537 366.198 328.294 366.796C327.869 366.746 327.455 366.69 327.028 366.634C327.307 365.872 327.64 365.031 328.056 364.121C329.334 361.389 330.964 358.836 332.905 356.527C335.498 353.422 339.316 349.935 344.869 346.864C351.243 343.329 359.906 340.344 371.619 339.108C377.076 338.549 382.585 338.726 387.995 339.635H388.015C403.22 342.148 416.564 349.726 426.021 356.6C432.481 361.322 438.517 366.597 444.06 372.366V372.366Z" fill="#EA9678"/>
<path d="M397.446 364.213C395.822 366.98 390.46 368.477 385.256 369.055C384.384 369.152 383.518 369.219 382.671 369.27C376.744 369.593 368.681 368.887 363.824 365.919L364.179 364.783C368.108 367.176 375.154 368.412 382.57 368.002C389.733 367.608 395.269 365.799 396.678 363.395C397.485 362.016 397.435 360.162 396.538 358.308C393.788 352.646 384.429 348.469 369.71 351.915C363.427 353.383 355.024 356.558 350.65 363.328C349.528 365.039 348.742 366.947 348.334 368.951L347.347 368.859C347.754 366.623 348.601 364.489 349.84 362.583C353.473 356.879 360.079 352.875 369.486 350.672C385.695 346.881 394.612 352.068 397.329 357.68C398.452 359.989 398.5 362.429 397.446 364.213Z" fill="#EA9678"/>
<path d="M529.567 358.278C528.857 363.806 518.316 367.578 512.156 369.323C509.941 369.509 507.69 369.689 505.402 369.862C510.963 368.644 527.904 363.409 528.597 358.01C528.773 356.639 527.921 355.159 526.062 353.604C514.325 343.787 456.717 356.002 456.136 356.117L455.993 354.676C456.138 354.645 470.752 351.529 486.644 349.684C508.057 347.196 521.485 348.084 526.554 352.331C528.812 354.235 529.827 356.234 529.567 358.278Z" fill="#EA9678"/>
<path d="M469.041 371.81L468.412 371.833L467.719 371.855C465.227 368.303 449.736 346.545 438.711 338.108L438.938 337.463L439.164 336.824L439.486 337.072C451.572 346.518 468.874 371.565 469.041 371.81Z" fill="#EA9678"/>
<path d="M562.764 353.216C562.116 358.3 557.37 362.265 554.891 364.01C553.472 364.266 552.011 364.517 550.51 364.761C552.438 363.644 561.112 358.292 561.789 352.948C562.035 350.993 561.448 349.039 560.036 347.126C553.76 338.675 523.307 318.804 485.828 333.03C459.894 342.871 450.65 349.223 450.558 349.285L450.133 347.972C450.225 347.908 459.525 341.509 485.58 331.622C505.676 323.992 523.122 326.513 534.223 329.972C547.29 334.046 556.94 340.984 560.707 346.057C562.387 348.316 563.077 350.722 562.764 353.216Z" fill="#EA9678"/>
<path d="M362.536 315.923C362.536 315.923 356.03 319.307 362.36 326.865C368.69 334.423 387.098 327.088 395.015 331.248C402.932 335.408 396.513 341.559 405.593 346.937C414.672 352.314 423.419 334.25 432.329 339.398C441.238 344.547 471.626 351.772 472.135 341.414C472.644 331.056 487.114 327.091 492.586 323.986C498.058 320.882 478.275 315.937 468.413 314.664C461.58 313.782 428.71 296.237 408.946 301.36C389.183 306.483 371.714 310.758 362.536 315.923Z" fill="#C65447"/>
<path d="M421.581 303.306C422.139 298.872 421.022 285.747 420.147 284.946C419.272 284.145 411.38 291.968 410.265 296.066C409.15 300.165 410.698 305.766 413.722 308.574C416.746 311.383 421.016 307.801 421.581 303.306Z" fill="#8FC482"/>
<path d="M451.008 331.868C450.474 330.938 447.347 328.931 447.056 329.076C446.765 329.221 446.777 332.706 447.308 333.624C447.594 334.082 448.039 334.417 448.558 334.566C449.077 334.715 449.633 334.667 450.119 334.431C450.356 334.333 450.569 334.185 450.744 333.999C450.92 333.812 451.054 333.59 451.138 333.348C451.222 333.106 451.254 332.849 451.231 332.594C451.209 332.339 451.133 332.092 451.008 331.868V331.868Z" fill="#FFE6C2"/>
<path d="M385.399 318.885C386.237 318.165 387.503 314.879 387.279 314.661C387.056 314.443 383.367 315.409 382.529 316.127C382.332 316.288 382.172 316.489 382.059 316.717C381.947 316.945 381.884 317.194 381.876 317.448C381.868 317.702 381.915 317.955 382.013 318.189C382.111 318.423 382.258 318.634 382.445 318.807C382.843 319.177 383.363 319.389 383.907 319.403C384.451 319.418 384.981 319.233 385.399 318.885V318.885Z" fill="#FFE6C2"/>
<path d="M415.581 328.783C414.44 328.655 410.847 329.855 410.805 330.151C410.763 330.447 413.921 332.415 415.064 332.547C416.207 332.678 417.249 331.941 417.391 330.902C417.534 329.864 416.729 328.914 415.581 328.783Z" fill="#FFE6C2"/>
<path d="M408.183 295.561C403.801 293.017 389.339 293.026 389.051 294.009C388.763 294.991 400.009 309.968 404.391 312.511C408.773 315.055 413.3 312.117 414.312 308.672C415.323 305.227 412.565 298.104 408.183 295.561Z" fill="#A8D29F"/>
<path d="M451.678 318.843C452.796 318.564 455.608 316.211 455.521 315.923C455.434 315.635 451.69 314.909 450.58 315.183C449.471 315.457 448.814 316.504 449.118 317.512C449.423 318.52 450.566 319.12 451.678 318.843Z" fill="#FFE6C2"/>
<path d="M435.732 322.171C434.816 321.535 431.046 320.935 430.844 321.172C430.643 321.409 432.292 324.553 433.206 325.187C433.654 325.491 434.198 325.622 434.735 325.556C435.273 325.489 435.768 325.23 436.129 324.827C436.294 324.633 436.415 324.406 436.485 324.162C436.554 323.917 436.571 323.661 436.533 323.409C436.496 323.158 436.405 322.917 436.267 322.704C436.129 322.49 435.946 322.309 435.732 322.171Z" fill="#FFE6C2"/>
<path d="M538.761 400.481H577.296L570.924 387.521H532.39L538.761 400.481Z" fill="#FFE6C2"/>
<path d="M571.452 393.998C573.079 397.301 575.429 400.023 576.933 400.42C577.051 400.454 577.173 400.472 577.296 400.473C578.76 400.473 578.526 397.572 576.765 393.993C575.004 390.413 572.389 387.515 570.924 387.515C570.817 387.513 570.71 387.531 570.608 387.568C569.502 387.979 569.832 390.704 571.452 393.998Z" fill="#FFE6C2"/>
<path d="M538.758 400.479C538.085 400.479 537.168 399.864 536.201 398.854C536.009 398.653 535.81 398.432 535.617 398.198C535.078 397.553 534.582 396.873 534.133 396.162C533.997 395.95 533.854 395.729 533.731 395.506C533.452 395.023 533.172 394.521 532.918 394.001C532.904 393.976 532.893 393.948 532.881 393.926C532.772 393.702 532.669 393.485 532.574 393.267C532.376 392.82 532.2 392.382 532.051 391.966C531.973 391.742 531.9 391.522 531.833 391.31C531.661 390.763 531.539 390.203 531.467 389.635C531.438 389.417 531.424 389.198 531.425 388.978C531.425 388.065 531.752 387.521 532.387 387.521C533.021 387.521 533.876 388.079 534.782 388.978C534.98 389.179 535.187 389.397 535.388 389.635C535.845 390.168 536.272 390.728 536.665 391.31C536.813 391.522 536.945 391.742 537.096 391.966C537.356 392.382 537.61 392.82 537.853 393.267C537.968 393.485 538.082 393.702 538.191 393.926C538.191 393.948 538.216 393.976 538.23 394.001C538.485 394.518 538.705 395.023 538.895 395.506C538.985 395.729 539.066 395.95 539.141 396.162C539.377 396.823 539.55 397.504 539.658 398.198C539.692 398.415 539.711 398.634 539.717 398.854C539.748 399.864 539.432 400.479 538.758 400.479Z" fill="#FFE6C2"/>
<path d="M572.612 393.267V393.926H532.881C532.772 393.702 532.669 393.485 532.574 393.267H572.612Z" fill="#F2B499"/>
<path d="M531.836 391.312H536.668H571.79V391.969H537.095H532.051L531.836 391.312Z" fill="#F2B499"/>
<path d="M571.145 388.978V389.634H531.462C531.432 389.417 531.418 389.198 531.42 388.978H571.145Z" fill="#F2B499"/>
<path d="M573.828 395.506V396.159H534.145C534.008 395.947 533.865 395.727 533.742 395.503L573.828 395.506Z" fill="#F2B499"/>
<path d="M575.407 398.198V398.854H536.201C536.008 398.653 535.81 398.432 535.617 398.198H575.407Z" fill="#F2B499"/>
<path d="M571.453 393.998C573.079 397.301 575.429 400.023 576.933 400.42C578.037 400.015 577.707 397.29 576.094 393.998C574.482 390.706 572.123 387.976 570.617 387.577C569.502 387.979 569.832 390.704 571.453 393.998Z" fill="#EA9678"/>
<path d="M174.224 400.439C174.088 400.44 173.953 400.418 173.825 400.375C173.515 400.269 173.26 400.045 173.116 399.751C172.972 399.457 172.95 399.118 173.056 398.809L226.109 243.197C226.215 242.887 226.439 242.632 226.733 242.487C227.027 242.343 227.366 242.321 227.677 242.426C227.987 242.532 228.242 242.756 228.387 243.05C228.532 243.344 228.554 243.683 228.448 243.993L175.392 399.605C175.31 399.849 175.153 400.06 174.943 400.21C174.733 400.36 174.482 400.44 174.224 400.439V400.439Z" fill="#163560"/>
<path d="M100.88 400.439C100.683 400.44 100.49 400.393 100.315 400.304C100.14 400.214 99.9896 400.084 99.8753 399.925C99.761 399.765 99.6865 399.581 99.658 399.387C99.6296 399.193 99.6479 398.995 99.7116 398.809L152.764 243.197C152.817 243.044 152.899 242.902 153.006 242.78C153.113 242.658 153.243 242.559 153.389 242.487C153.534 242.416 153.692 242.374 153.854 242.363C154.016 242.353 154.179 242.374 154.332 242.426C154.486 242.479 154.628 242.561 154.749 242.668C154.871 242.775 154.971 242.905 155.043 243.05C155.114 243.195 155.156 243.354 155.167 243.515C155.177 243.677 155.156 243.839 155.104 243.993L102.056 399.605C101.972 399.849 101.813 400.061 101.602 400.211C101.391 400.361 101.139 400.441 100.88 400.439V400.439Z" fill="#163560"/>
<path d="M204.965 309.027H132.864C132.537 309.027 132.222 308.897 131.991 308.665C131.759 308.434 131.629 308.12 131.629 307.793C131.629 307.465 131.759 307.151 131.991 306.92C132.222 306.689 132.537 306.559 132.864 306.559H204.965C205.293 306.559 205.607 306.689 205.838 306.92C206.07 307.151 206.2 307.465 206.2 307.793C206.2 308.12 206.07 308.434 205.838 308.665C205.607 308.897 205.293 309.027 204.965 309.027Z" fill="#163560"/>
<path d="M191.467 347.741H118.849C118.521 347.741 118.207 347.611 117.976 347.379C117.744 347.148 117.614 346.834 117.614 346.507C117.614 346.179 117.744 345.865 117.976 345.634C118.207 345.402 118.521 345.272 118.849 345.272H191.467C191.794 345.272 192.109 345.402 192.34 345.634C192.572 345.865 192.702 346.179 192.702 346.507C192.702 346.834 192.572 347.148 192.34 347.379C192.109 347.611 191.794 347.741 191.467 347.741V347.741Z" fill="#163560"/>
<path d="M268.824 119.107C262.908 117.01 255.357 116.823 253.504 120.252C251.881 123.253 232.081 168.531 228.551 176.616H225.36L252.032 115.103C252.032 115.103 257.375 107.844 270.16 112.624C282.946 117.404 274.741 121.204 268.824 119.107Z" fill="#163560"/>
<path d="M184.751 146.292C181.89 151.745 164.272 168.547 165.225 170.541C166.095 172.35 165.055 189.943 164.619 196.699C164.513 198.316 164.443 199.304 164.443 199.304C163.867 200.681 162.294 201.278 161.126 201.538C160.673 201.64 160.212 201.706 159.748 201.733C159.748 201.733 159.505 200.834 159.114 199.31C158.384 196.473 157.157 191.456 156.02 186.023C154.262 177.546 152.784 168.051 153.966 164.212C168.599 116.572 183.611 132.078 183.611 132.078C183.611 132.078 187.61 140.84 184.751 146.292Z" fill="#6ACC96"/>
<path d="M164.619 196.699C164.513 198.316 164.443 199.304 164.443 199.304C163.867 200.681 162.294 201.278 161.126 201.538C160.404 200.841 159.732 200.095 159.114 199.304C158.384 196.468 157.157 191.45 156.02 186.017C157.568 176.245 163.68 161.693 163.68 161.693L164.619 196.699Z" fill="#5EBF81"/>
<path d="M157.289 297.823C157.289 297.823 156.272 306.436 157.929 306.559C158.15 306.575 167.766 306.559 167.766 306.559H178.553C178.553 306.559 178.274 303.943 175.219 303.412C172.165 302.882 167.048 300.735 165.198 296.711C163.258 292.456 157.289 297.823 157.289 297.823Z" fill="#C65447"/>
<path d="M156.688 298.417C156.688 298.417 159.866 299.478 162.347 299.478C164.133 299.455 165.908 299.201 167.629 298.724C167.629 298.724 168.227 292.945 171.522 280.208C173.246 273.532 175.714 264.947 179.221 254.281C188.916 224.8 191.867 207.557 192.135 205.924C192.135 205.837 192.155 205.793 192.155 205.793H192.124L162.311 192.701C162.311 192.701 165.994 233.33 161.294 248.926C160.581 251.382 160.012 253.876 159.589 256.398C156.618 273.337 156.688 298.417 156.688 298.417Z" fill="#1E2E34"/>
<path d="M159.589 256.398L171.522 280.208C173.246 273.532 175.714 264.947 179.221 254.281C188.915 224.8 191.867 207.557 192.135 205.924C192.135 205.874 192.135 205.829 192.135 205.779L162.311 192.701C162.311 192.701 165.994 233.33 161.294 248.926C160.581 251.382 160.012 253.876 159.589 256.398Z" fill="#2D4147"/>
<path d="M180.585 297.823C180.585 297.823 180.982 306.436 182.639 306.559C182.86 306.575 191.185 306.525 191.185 306.525L201.804 306.559C201.804 306.559 201.584 303.945 198.529 303.415C195.475 302.884 190.358 300.737 188.505 296.714C186.535 292.456 180.585 297.823 180.585 297.823Z" fill="#C65447"/>
<path d="M197.478 193.659C197.478 193.659 197.867 219.987 193.306 252.313C188.745 284.639 190.293 298.361 190.293 298.361C190.293 298.361 187.161 299.375 185.895 299.478C182.675 299.741 179.372 298.724 179.372 298.724C179.372 298.724 172.847 266.387 174.716 250.205C176.586 234.023 165.773 194.686 165.773 194.686L197.478 193.659Z" fill="#1E2E34"/>
<path d="M175.764 131.009L180.993 135.596L189.528 135.219C189.505 134.533 189.349 131.671 189.206 129.077C189.206 128.923 189.187 128.773 189.178 128.622C189.053 126.416 188.944 124.521 188.944 124.521L181.652 119.997L178.933 118.322C178.933 118.367 178.821 120.735 178.802 121.078C178.503 127.201 175.764 131.009 175.764 131.009Z" fill="#FFB27D"/>
<path d="M199.216 194.798C199.096 208.694 198.168 241.204 197.486 241.865C190.243 248.845 158.362 239.95 156.685 232.252C155.008 224.555 163.113 133.558 175.482 129.926C178.047 129.172 189.538 136.459 189.538 136.459C189.538 136.459 193.929 139.232 195.343 146.401C195.865 149.059 197.579 168.011 198.571 180.679C198.833 184.054 199.048 186.983 199.177 189.035C199.227 189.884 199.239 191.953 199.216 194.798Z" fill="#6ACC96"/>
<path d="M179.383 121.259C180.682 124.389 186.691 127.787 189.217 129.077C189.217 128.923 189.197 128.773 189.189 128.622C189.063 126.416 188.954 124.52 188.954 124.52L181.663 119.997C179.947 119.735 178.846 119.969 179.383 121.259Z" fill="#FCA56B"/>
<path d="M191.651 124.833C191.651 124.833 178.455 126.059 177.818 117.837C177.181 109.614 175.049 104.237 183.446 103.106C191.844 101.975 193.725 104.988 194.608 107.679C195.491 110.371 195.066 124.303 191.651 124.833Z" fill="#FFB27D"/>
<path d="M193.133 107.526L189.019 113.888C187.239 113.101 186.384 113.45 186.079 116.223C185.774 118.995 181.222 121.96 179.092 119.084C179.092 119.084 170.901 104.644 173.076 102.179C176.513 98.27 184.813 99.3114 190.665 99.8363C196.766 100.375 197.593 107.015 193.133 107.526Z" fill="#163560"/>
<path d="M199.216 194.798C177.103 172.568 175.862 150.338 175.862 150.338C187.658 156.988 194.672 157.1 198.308 169.181C198.571 172.557 199.049 186.983 199.177 189.035C199.228 189.884 199.239 191.953 199.216 194.798Z" fill="#5EBF81"/>
<path d="M234.624 151.667C234.624 151.667 235.742 150.299 236.172 149.74C236.731 148.936 239.21 148.065 242.32 147.663C242.32 147.663 244.679 147.959 243.248 150.089C242.295 151.513 242.41 150.673 241.012 152.661C239.615 154.649 237.452 155.83 235.703 155.453L233.718 155.816L232.237 152.697L234.624 151.667Z" fill="#FFB27D"/>
<path d="M174.308 137.9C174.308 137.9 158.314 152.633 206.166 173.637C213.469 176.843 236.172 156.486 236.172 156.486C236.172 156.486 235.873 152.725 234.029 151.061C234.029 151.061 211.281 159.423 208.802 159.691C206.605 159.931 193.733 139.74 189.539 135.228C185.344 130.716 174.308 137.9 174.308 137.9Z" fill="#6ACC96"/>
<path d="M194.661 100.713C194.661 100.713 192.28 121.544 178.732 122.024L172.55 113.461C172.55 113.461 186.342 108.517 185.009 97.1895L194.661 100.713Z" fill="#5EBF81"/>
<path d="M175.91 90.676C175.91 90.676 181.745 89.0482 185.839 92.3512C189.933 95.6541 190.031 100.964 187.286 104.382C186.448 105.437 188.259 110.401 185.61 113.808C182.96 117.214 177.966 117.493 175.549 116.851C173.333 116.265 169.401 120.042 165.399 116.421C160.718 112.183 162.848 104.228 162.848 104.228C162.848 104.228 164.971 91.5527 175.91 90.676Z" fill="#6ACC96"/>
<path d="M188.441 130.92C188.278 130.85 178.995 125.911 177.913 126.268C176.832 126.626 175.482 129.929 175.482 129.929L190.411 136.225C190.411 136.225 190.523 131.791 188.441 130.92Z" fill="#6ACC96"/>
<path d="M76.9664 400.54H131.271L122.289 382.278H67.9873L76.9664 400.54Z" fill="#FFE6C2"/>
<path d="M123.035 391.413C125.327 396.067 128.625 399.906 130.76 400.47C130.925 400.518 131.096 400.544 131.268 400.546C133.333 400.546 133.001 396.458 130.522 391.413C128.043 386.368 124.354 382.286 122.289 382.286C122.138 382.284 121.987 382.309 121.845 382.361C120.288 382.925 120.752 386.762 123.035 391.413Z" fill="#FFE6C2"/>
<path d="M76.9633 400.537C76.0132 400.537 74.7276 399.672 73.3583 398.248C73.0788 397.969 72.7994 397.653 72.5367 397.321C71.778 396.413 71.0797 395.456 70.4463 394.456C70.2535 394.155 70.0634 393.845 69.8874 393.529C69.485 392.848 69.0993 392.133 68.7388 391.407L68.6885 391.301C68.5348 390.989 68.3923 390.681 68.2581 390.377C67.9787 389.743 67.7272 389.129 67.5204 388.54C67.4086 388.225 67.3052 387.917 67.2157 387.619C66.9711 386.849 66.7971 386.058 66.6959 385.257C66.6557 384.949 66.6361 384.64 66.6373 384.33C66.654 383.045 67.0984 382.278 67.9926 382.278C68.8869 382.278 70.0914 383.045 71.3657 384.33C71.6452 384.609 71.9246 384.924 72.2209 385.257C72.8685 386.007 73.4704 386.796 74.0234 387.619C74.2302 387.917 74.4286 388.225 74.6298 388.54C74.9959 389.129 75.3536 389.743 75.6946 390.377C75.8567 390.681 76.016 390.989 76.1725 391.301C76.192 391.335 76.2088 391.374 76.2256 391.407C76.5833 392.136 76.8991 392.848 77.1673 393.529C77.2903 393.845 77.4049 394.155 77.5111 394.456C77.8432 395.386 78.0874 396.345 78.2405 397.321C78.2877 397.628 78.3148 397.937 78.3215 398.248C78.3578 399.672 77.9135 400.537 76.9633 400.537Z" fill="#FFE6C2"/>
<path d="M124.67 390.377V391.301H68.6804C68.5267 390.989 68.3841 390.682 68.25 390.377H124.67Z" fill="#F2B499"/>
<path d="M67.2075 387.619H74.018H123.51V388.543H74.6216H67.5121L67.2075 387.619Z" fill="#F2B499"/>
<path d="M122.602 384.33V385.27H66.6876C66.6474 384.963 66.6278 384.654 66.629 384.344L122.602 384.33Z" fill="#F2B499"/>
<path d="M126.37 393.529V394.456H70.4466C70.2538 394.155 70.0638 393.845 69.8877 393.529H126.37Z" fill="#F2B499"/>
<path d="M128.605 397.321V398.248H73.3582C73.0788 397.969 72.7993 397.653 72.5366 397.321H128.605Z" fill="#F2B499"/>
<path d="M123.035 391.413C125.327 396.067 128.625 399.906 130.76 400.47C132.313 399.898 131.85 396.059 129.566 391.413C127.283 386.767 123.977 382.925 121.845 382.361C120.288 382.925 120.752 386.762 123.035 391.413Z" fill="#EA9678"/>
<path d="M199.848 399.303C184.075 403.455 171.215 396.025 167.087 380.373L182.091 376.423C184.637 386.08 191.19 385.55 195.894 384.313C205.789 381.708 204.87 373.89 204.015 370.652L219.019 366.701C222.294 379.111 217.689 394.607 199.848 399.303Z" fill="#FFE6C2"/>
<path d="M191.607 398.069C183.628 398.069 178.036 393.895 174.593 390.078C171.915 387.102 169.781 383.679 168.289 379.966L169.214 379.62C170.673 383.22 172.742 386.542 175.331 389.439C180.92 395.626 187.739 398.08 195.586 396.735C203.934 395.302 210.02 390.933 213.673 383.749C216.708 377.783 217.306 371.093 216.873 366.821L217.851 366.715C218.309 371.132 217.68 378.045 214.548 384.207C210.8 391.583 204.297 396.257 195.748 397.723C194.38 397.956 192.995 398.071 191.607 398.069Z" fill="#F2B499"/>
<path d="M192.141 394.484C187.348 394.484 182.723 392.396 178.542 388.294C175.825 385.589 173.56 382.465 171.835 379.042L172.724 378.609C174.412 381.928 176.614 384.96 179.249 387.593C184.819 393.046 190.922 394.735 197.389 392.619C204.532 390.274 209.319 385.407 211.619 378.157C212.664 374.825 213.11 371.335 212.935 367.848L213.916 367.756C214.114 371.366 213.657 374.983 212.566 378.43C210.92 383.651 207.002 390.517 197.691 393.571C195.901 394.169 194.027 394.477 192.141 394.484V394.484Z" fill="#F2B499"/>
<path d="M192.549 389.16C182.208 389.16 177.092 378.615 177.036 378.492L177.922 378.059C179.107 380.334 180.683 382.384 182.577 384.115C186.663 387.803 191.366 388.984 196.55 387.622C209.311 384.271 207.81 370.286 207.793 370.146L208.771 370.026C208.788 370.177 210.381 385.025 196.796 388.59C195.411 388.963 193.983 389.154 192.549 389.16V389.16Z" fill="#F2B499"/>
<path d="M182.186 376.398C182.332 376.939 179.065 378.271 174.895 379.368C170.726 380.466 167.23 380.915 167.087 380.374C166.944 379.832 170.206 378.5 174.378 377.403C178.55 376.306 182.044 375.853 182.186 376.398Z" fill="#EA9678"/>
<path d="M219.019 366.701C219.164 367.243 215.9 368.574 211.728 369.672C207.555 370.769 204.062 371.218 203.92 370.677C203.777 370.135 207.038 368.803 211.211 367.706C215.383 366.609 218.871 366.159 219.019 366.701Z" fill="#EA9678"/>
<path d="M597.613 398.499C582.32 392.817 576.094 379.343 581.739 364.157L596.285 369.563C592.8 378.924 598.459 382.258 603.02 383.953C612.611 387.518 616.364 380.602 617.535 377.459L632.067 382.864C627.602 394.906 614.903 404.923 597.613 398.499Z" fill="#FFE6C2"/>
<path d="M591.585 392.748C585.062 388.157 582.899 381.526 582.281 376.425C581.814 372.448 582.048 368.42 582.975 364.523L583.93 364.772C583.047 368.555 582.824 372.463 583.271 376.322C584.277 384.595 588.432 390.525 595.623 393.937C603.272 397.567 610.767 397.502 617.896 393.73C623.815 390.598 628.169 385.48 630.271 381.725L631.131 382.202C628.96 386.075 624.46 391.365 618.346 394.601C611.03 398.474 603.02 398.552 595.187 394.83C593.929 394.24 592.724 393.543 591.585 392.748V392.748Z" fill="#F2B499"/>
<path d="M594.083 390.131C590.171 387.373 587.586 383.006 586.538 377.249C585.875 373.473 585.823 369.614 586.384 365.822L587.36 365.981C586.828 369.665 586.881 373.411 587.516 377.079C588.927 384.743 592.94 389.643 599.449 391.622C606.642 393.817 613.361 392.594 619.419 387.993C622.194 385.87 624.57 383.273 626.439 380.323L627.295 380.812C625.37 383.876 622.909 386.569 620.029 388.761C615.672 392.08 608.512 395.439 599.139 392.58C597.335 392.036 595.628 391.21 594.083 390.131Z" fill="#F2B499"/>
<path d="M597.49 386.005C589.042 380.061 590.937 368.491 590.959 368.359L591.934 368.516C591.591 371.057 591.698 373.639 592.25 376.143C593.463 381.512 596.626 385.181 601.657 387.055C614.017 391.656 620.853 379.363 620.92 379.237L621.789 379.703C621.716 379.834 614.459 392.887 601.299 387.987C599.949 387.494 598.668 386.827 597.49 386.005Z" fill="#F2B499"/>
<path d="M596.378 369.61C596.182 370.135 592.745 369.331 588.704 367.843C584.663 366.355 581.544 364.696 581.74 364.172C581.935 363.647 585.373 364.451 589.414 365.939C593.455 367.427 596.573 369.077 596.378 369.61Z" fill="#EA9678"/>
<path d="M632.079 382.878C631.883 383.403 628.446 382.599 624.405 381.11C620.363 379.622 617.245 377.964 617.44 377.439C617.636 376.914 621.073 377.701 625.114 379.204C629.155 380.706 632.274 382.35 632.079 382.878Z" fill="#EA9678"/>
<path d="M761.137 400.481H0.863534C0.386617 400.481 0 400.868 0 401.344V401.637C0 402.114 0.386617 402.5 0.863534 402.5H761.137C761.613 402.5 762 402.114 762 401.637V401.344C762 400.868 761.613 400.481 761.137 400.481Z" fill="#2F3550"/>
<path d="M491.719 252.386H423.81C423.464 252.386 423.121 252.317 422.801 252.185C422.481 252.052 422.19 251.858 421.945 251.614C421.7 251.369 421.506 251.078 421.373 250.759C421.241 250.439 421.172 250.096 421.172 249.75V249.75C421.172 249.404 421.241 249.061 421.373 248.741C421.506 248.421 421.7 248.131 421.945 247.886C422.19 247.641 422.481 247.447 422.801 247.315C423.121 247.182 423.464 247.114 423.81 247.114H491.719C492.419 247.114 493.09 247.392 493.585 247.886C494.08 248.38 494.358 249.051 494.358 249.75V249.75C494.358 250.096 494.29 250.439 494.157 250.759C494.025 251.079 493.831 251.37 493.586 251.614C493.341 251.859 493.05 252.053 492.729 252.186C492.409 252.318 492.066 252.386 491.719 252.386Z" fill="#AFCDFB"/>
</g>
<defs>
<clipPath id="clip0_51_72">
<rect width="762" height="402" fill="white" transform="translate(0 0.5)"/>
</clipPath>
</defs>
</svg>
