<svg width="527" height="465" viewBox="0 0 527 465" fill="none" xmlns="http://www.w3.org/2000/svg">
<path d="M502.764 164.959C503.558 159.185 495.398 154.436 489.264 153.942C486.339 153.706 483.301 154.161 480.532 153.188C474.527 151.099 472.13 143.354 466.273 140.891C461.894 139.046 456.86 140.687 452.606 142.82C448.353 144.953 444.165 147.628 439.424 147.943C435.298 148.205 430.817 146.678 427.207 148.691C424.519 150.19 423.109 153.28 420.64 155.109C418.214 156.895 415.051 157.273 412.041 157.437C409.031 157.601 405.912 157.631 403.178 158.884C400.444 160.136 398.169 163.036 398.738 165.984L502.764 164.959Z" fill="#ECECEC"/>
<path d="M251.059 111.953C251.856 106.179 243.695 101.43 237.561 100.936C234.637 100.702 231.598 101.154 228.829 100.184C222.825 98.0946 220.428 90.3492 214.57 87.884C210.192 86.0417 205.157 87.683 200.904 89.816C196.65 91.949 192.463 94.6241 187.719 94.9366C183.595 95.201 179.114 93.6734 175.504 95.684C172.814 97.1832 171.406 100.274 168.926 102.105C166.501 103.89 163.337 104.269 160.327 104.432C157.318 104.596 154.198 104.625 151.462 105.877C148.726 107.129 146.455 110.03 147.025 112.978L251.059 111.953Z" fill="#ECECEC"/>
<path d="M138.938 292.782C139.735 287.008 131.572 282.259 125.441 281.765C122.516 281.529 119.478 281.983 116.706 281.011C110.704 278.921 108.305 271.176 102.449 268.713C98.071 266.868 93.0363 268.51 88.783 270.643C84.5296 272.776 80.342 275.462 75.5984 275.763C71.472 276.028 66.9932 274.5 63.3835 276.513C60.6932 278.012 59.2834 281.102 56.8054 282.932C54.38 284.717 51.2168 285.095 48.2069 285.259C45.1969 285.423 42.0775 285.454 39.3412 286.706C36.6049 287.958 34.3349 290.858 34.904 293.807L138.938 292.782Z" fill="#ECECEC"/>
<path d="M347.359 214.736C347.847 211.206 342.858 208.304 339.113 208.002C337.325 207.858 335.468 208.131 333.776 207.543C330.107 206.267 328.643 201.536 325.062 200.028C322.387 198.902 319.307 199.905 316.713 201.208C314.119 202.51 311.553 204.152 308.655 204.337C306.135 204.497 303.401 203.564 301.192 204.794C299.548 205.71 298.686 207.6 297.171 208.728C295.689 209.821 293.756 210.039 291.917 210.151C290.079 210.262 288.174 210.269 286.502 211.025C284.829 211.781 283.437 213.558 283.789 215.363L347.359 214.736Z" fill="#ECECEC"/>
<path d="M417.464 232.253L525.02 331.786L526.916 228.542L417.464 232.253Z" fill="#E1E1E1"/>
<path d="M103.068 73.8684C110.578 70.7903 114.167 62.2168 111.084 54.719C108.001 47.2212 99.4133 43.6383 91.9033 46.7165C84.3932 49.7946 80.8046 58.3681 83.8877 65.8659C86.9709 73.3637 95.5583 76.9466 103.068 73.8684Z" fill="#39D192"/>
<path d="M95.372 93.0614C95.2868 93.0614 95.2168 90.3514 95.2168 87.0076C95.2168 83.6639 95.2868 80.9539 95.372 80.9539C95.4572 80.9539 95.5271 83.6639 95.5271 87.0076C95.5271 90.3514 95.4572 93.0614 95.372 93.0614Z" fill="#39D192"/>
<path d="M86.9001 77.5423C86.9745 77.5838 85.5867 80.1124 83.8136 83.1896C82.0405 86.2668 80.53 88.7254 80.4578 88.6817C80.3855 88.638 81.7712 86.1116 83.5443 83.0344C85.3175 79.9573 86.8257 77.4986 86.9001 77.5423Z" fill="#39D192"/>
<path d="M78.2076 72.1376C78.2601 72.2054 76.7234 73.5123 74.7752 75.0596C72.8269 76.6069 71.2026 77.8068 71.1479 77.739C71.0932 77.6713 72.6321 76.3643 74.5825 74.817C76.5329 73.2697 78.155 72.0699 78.2076 72.1376Z" fill="#39D192"/>
<path d="M110.037 87.0973C109.993 87.0973 109.86 86.5312 109.649 85.6089C109.439 84.6867 109.137 83.4104 108.774 82.016C108.41 80.6217 108.016 79.3694 107.736 78.4646C107.456 77.5598 107.281 76.996 107.322 76.9807C107.364 76.9654 107.607 77.503 107.942 78.3925C108.277 79.282 108.693 80.5321 109.072 81.9352C109.45 83.3382 109.728 84.6277 109.875 85.5652C110.022 86.5028 110.076 87.0907 110.037 87.0973Z" fill="#39D192"/>
<path d="M124.946 76.5348C124.889 76.6004 122.943 74.994 120.601 72.9484C118.259 70.9028 116.402 69.1938 116.459 69.1282C116.516 69.0627 118.46 70.6712 120.805 72.7168C123.149 74.7624 125.001 76.4714 124.946 76.5348Z" fill="#39D192"/>
<path d="M130.655 62.0188C130.655 62.0647 129.972 61.9467 128.884 61.7653C127.796 61.5839 126.288 61.3522 124.618 61.1599C122.947 60.9676 121.426 60.8561 120.323 60.7862C119.219 60.7163 118.539 60.6769 118.539 60.6332C118.539 60.5895 119.224 60.5524 120.331 60.5677C121.439 60.583 122.971 60.6616 124.653 60.8518C126.334 61.0419 127.842 61.3151 128.923 61.5511C130.005 61.7872 130.666 61.9817 130.655 62.0188Z" fill="#39D192"/>
<path d="M130.675 47.7454C130.694 47.8285 127.511 48.6742 123.567 49.6337C119.622 50.5931 116.407 51.3034 116.387 51.2203C116.367 51.1373 119.548 50.2937 123.495 49.3343C127.441 48.3748 130.655 47.6624 130.675 47.7454Z" fill="#39D192"/>
<path d="M114.064 31.1161C114.136 31.162 112.613 33.5879 110.664 36.5318C108.716 39.4756 107.077 41.8228 107.004 41.7769C106.932 41.731 108.456 39.3051 110.406 36.3613C112.357 33.4175 113.992 31.0681 114.064 31.1161Z" fill="#39D192"/>
<path d="M97.5802 27.6412C97.6239 27.6412 97.6174 28.4148 97.5999 29.6562C97.5824 30.8975 97.5584 32.6153 97.5606 34.5101C97.5628 36.405 97.5912 38.1227 97.6108 39.3641C97.6305 40.6055 97.6392 41.3769 97.5955 41.3791C97.5518 41.3813 97.471 40.6164 97.3924 39.3728C97.3137 38.1293 97.2547 36.4115 97.2525 34.5101C97.2503 32.6088 97.3093 30.891 97.3814 29.6496C97.4535 28.4083 97.5365 27.639 97.5802 27.6412Z" fill="#39D192"/>
<path d="M85.097 43.1647C85.0248 43.2084 83.475 40.8109 81.6383 37.8103C79.8017 34.8096 78.3723 32.3466 78.4445 32.2941C78.5168 32.2417 80.0666 34.6479 81.9032 37.6485C83.7398 40.6492 85.1692 43.1101 85.097 43.1647Z" fill="#39D192"/>
<path d="M77.6388 49.4917C77.6388 49.531 77.0324 49.4436 76.0758 49.2425C75.1192 49.0414 73.8102 48.7224 72.3807 48.3028C70.9513 47.8831 69.6729 47.4286 68.7622 47.0898C67.8516 46.7511 67.2999 46.4888 67.3153 46.4516C67.3306 46.4145 67.9063 46.5871 68.8344 46.8887C69.7626 47.1903 71.0432 47.5903 72.4683 48.0099C73.8933 48.4295 75.187 48.7814 76.1283 49.0349C77.0696 49.2884 77.6498 49.4479 77.6388 49.4917Z" fill="#39D192"/>
<path d="M74.3814 60.7665C74.3814 60.8518 72.2887 61.1228 69.6903 61.3719C67.0919 61.6211 64.9795 61.7544 64.9707 61.6691C64.962 61.5839 67.0612 61.3129 69.6618 61.0638C72.2624 60.8146 74.3727 60.6813 74.3814 60.7665Z" fill="#39D192"/>
<path d="M512.275 383.293C512.875 378.946 506.73 375.369 502.114 374.989C499.911 374.812 497.624 375.148 495.546 374.422C491.026 372.849 489.22 367.02 484.82 365.163C481.523 363.775 477.728 365.01 474.532 366.616C471.336 368.222 468.183 370.244 464.607 370.471C461.5 370.67 458.127 369.52 455.413 371.035C453.388 372.165 452.328 374.495 450.461 375.869C448.635 377.213 446.254 377.497 443.988 377.618C441.722 377.738 439.376 377.764 437.311 378.71C435.247 379.657 433.542 381.831 433.971 384.056L512.275 383.293Z" fill="white"/>
<path d="M512.275 383.293C512.151 383.311 512.025 383.319 511.899 383.317L510.75 383.35L506.288 383.438L489.696 383.691L433.949 384.36H433.704L433.656 384.115C433.4 382.819 433.875 381.444 434.681 380.4C435.521 379.347 436.652 378.564 437.933 378.144C440.869 377.148 443.896 377.57 446.674 377.052C448.062 376.809 449.408 376.337 450.468 375.478C451.527 374.619 452.34 373.456 453.3 372.418C453.778 371.879 454.324 371.402 454.923 371C455.536 370.613 456.211 370.334 456.919 370.176C458.324 369.877 459.725 369.977 461.065 370.078C462.405 370.178 463.725 370.316 465.005 370.174C466.274 370.024 467.515 369.699 468.694 369.208C471.054 368.264 473.186 366.933 475.423 365.914C477.66 364.896 480.02 364.19 482.388 364.365C483.548 364.449 484.675 364.787 485.69 365.355C486.641 365.919 487.506 366.617 488.257 367.427C489.744 368.976 490.91 370.655 492.272 372.016C493.634 373.378 495.216 374.359 496.926 374.597C498.636 374.836 500.288 374.722 501.843 374.836C504.516 375.064 507.076 376.02 509.244 377.6C511.015 378.911 511.958 380.441 512.216 381.571C512.36 382.143 512.381 382.739 512.278 383.32C512.225 383.293 512.381 382.71 512.1 381.606C511.82 380.502 510.864 379.049 509.106 377.79C506.959 376.275 504.442 375.368 501.821 375.168C500.288 375.069 498.636 375.235 496.865 374.971C495.076 374.742 493.345 373.712 491.976 372.313C490.569 370.934 489.387 369.254 487.927 367.757C487.202 366.987 486.37 366.324 485.458 365.79C484.501 365.263 483.441 364.952 482.351 364.876C480.123 364.721 477.822 365.414 475.642 366.406C473.462 367.398 471.314 368.758 468.897 369.732C467.673 370.246 466.383 370.586 465.064 370.744C463.716 370.897 462.363 370.76 461.028 370.659C459.693 370.559 458.344 370.475 457.053 370.755C455.761 371.035 454.645 371.798 453.738 372.829C452.832 373.861 452.002 375.03 450.844 375.961C449.686 376.892 448.218 377.406 446.786 377.659C443.885 378.186 440.876 377.784 438.137 378.73C436.961 379.115 435.924 379.835 435.153 380.802C434.413 381.746 434.024 382.939 434.241 384.036L433.947 383.796L489.496 383.359L506.153 383.282H510.68H511.864C512.001 383.277 512.139 383.28 512.275 383.293V383.293Z" fill="#1A2E35"/>
<path d="M160.268 206.291C160.925 201.444 154.087 197.458 148.938 197.044C146.484 196.846 143.934 197.221 141.609 196.411C136.574 194.662 134.556 188.158 129.639 186.089C125.964 184.541 121.733 185.918 118.169 187.71C114.605 189.502 111.085 191.753 107.103 192.007C103.64 192.225 99.8793 190.947 96.8519 192.636C94.5928 193.895 93.4107 196.492 91.3289 198.024C89.2931 199.523 86.6378 199.84 84.1051 199.977C81.5723 200.115 78.9652 200.139 76.6623 201.19C74.3594 202.242 72.4594 204.672 72.9409 207.15L160.268 206.291Z" fill="white"/>
<path d="M160.268 206.291C160.128 206.309 159.986 206.318 159.844 206.317L158.563 206.35L153.583 206.444L135.083 206.715L72.9496 207.458H72.7023L72.6542 207.216C72.3718 205.782 72.8862 204.259 73.7903 203.107C74.7187 201.93 75.9731 201.05 77.3978 200.578C80.6595 199.47 84.0328 199.938 87.1368 199.361C88.6889 199.092 90.2015 198.563 91.3814 197.602C92.5613 196.64 93.4719 195.34 94.5424 194.177C95.0727 193.576 95.6781 193.046 96.344 192.599C97.0243 192.17 97.7738 191.862 98.5592 191.688C100.12 191.353 101.679 191.469 103.172 191.576C104.664 191.683 106.138 191.841 107.563 191.681C108.98 191.515 110.367 191.152 111.683 190.602C114.309 189.55 116.693 188.064 119.187 186.93C121.68 185.796 124.311 185.011 126.936 185.204C128.224 185.295 129.477 185.668 130.605 186.296C131.663 186.923 132.625 187.7 133.461 188.602C135.116 190.326 136.419 192.197 137.94 193.705C139.429 195.235 141.224 196.328 143.139 196.588C145.039 196.889 146.893 196.725 148.625 196.85C151.602 197.103 154.452 198.166 156.867 199.923C158.837 201.38 159.894 203.087 160.185 204.344C160.307 204.82 160.35 205.312 160.31 205.802C160.281 206.134 160.26 206.285 160.26 206.285C160.26 206.285 160.26 206.101 160.26 205.78C160.267 205.305 160.204 204.831 160.074 204.375C159.752 203.157 158.699 201.516 156.737 200.111C154.343 198.419 151.534 197.407 148.61 197.182C146.909 197.073 145.057 197.256 143.087 196.964C141.097 196.708 139.173 195.563 137.649 194.007C136.084 192.477 134.768 190.602 133.137 188.923C132.326 188.06 131.395 187.318 130.373 186.718C129.304 186.127 128.118 185.779 126.899 185.697C124.405 185.52 121.838 186.296 119.403 187.406C116.969 188.517 114.587 190.029 111.886 191.122C110.524 191.695 109.089 192.074 107.622 192.25C106.122 192.42 104.616 192.265 103.128 192.156C101.639 192.046 100.131 191.937 98.6862 192.26C97.2415 192.584 95.9849 193.43 94.9648 194.581C93.9448 195.733 93.0297 197.036 91.7426 198.078C90.4554 199.121 88.8377 199.682 87.2331 199.962C84.0065 200.55 80.6661 200.1 77.5861 201.158C76.2686 201.588 75.1065 202.395 74.2434 203.479C73.4159 204.538 72.9781 205.883 73.2211 207.113L72.9256 206.873L134.882 206.366L153.447 206.272H158.482H159.795C159.953 206.268 160.111 206.274 160.268 206.291V206.291Z" fill="#1A2E35"/>
<path d="M472.52 80.0446C473.045 76.2353 467.66 73.1014 463.613 72.7757C461.684 72.6206 459.672 72.9156 457.851 72.2796C453.891 70.9006 452.308 65.7931 448.438 64.1649C445.549 62.9476 442.221 64.0316 439.419 65.4391C436.617 66.8465 433.85 68.6168 430.722 68.8178C427.999 68.9905 425.044 67.983 422.662 69.3117C420.887 70.2996 419.959 72.343 418.321 73.5472C416.721 74.7252 414.635 74.9743 412.649 75.077C410.664 75.1798 408.608 75.206 406.8 76.0321C404.992 76.8582 403.497 78.7683 403.871 80.7178L472.52 80.0446Z" fill="white"/>
<path d="M472.52 80.0447C472.412 80.0629 472.302 80.0717 472.192 80.0709L471.187 80.1015L467.28 80.1824L452.745 80.4162L403.881 81.0172H403.636L403.587 80.7724C403.369 79.6251 403.771 78.4077 404.491 77.4942C405.232 76.561 406.231 75.865 407.364 75.4923C409.947 74.6181 412.602 74.9853 415.025 74.5329C416.238 74.3143 417.411 73.91 418.333 73.1626C419.254 72.4151 419.966 71.3967 420.811 70.4788C421.656 69.5609 422.75 68.7523 424.002 68.5119C425.255 68.2715 426.469 68.337 427.645 68.4245C428.821 68.5119 429.974 68.6321 431.086 68.5097C432.194 68.3783 433.278 68.0944 434.308 67.6661C436.373 66.8422 438.249 65.6751 440.206 64.7813C442.163 63.8874 444.247 63.2689 446.335 63.4241C447.356 63.4995 448.347 63.7979 449.24 64.2983C450.075 64.7942 450.834 65.4073 451.495 66.1188C452.808 67.4803 453.819 68.9599 455.012 70.1335C456.205 71.3071 457.582 72.1813 459.073 72.3911C460.564 72.6009 462.017 72.5026 463.381 72.6097C465.727 72.8105 467.973 73.6512 469.874 75.0399C471.426 76.1917 472.253 77.5401 472.479 78.5367C472.602 79.0376 472.618 79.5591 472.525 80.0665C472.477 80.0425 472.608 79.5333 472.363 78.5695C472.118 77.6057 471.268 76.3337 469.736 75.2344C467.857 73.9105 465.653 73.1204 463.359 72.9484C462.026 72.8632 460.57 73.0096 459.014 72.7801C457.458 72.5506 455.916 71.6721 454.715 70.446C453.48 69.2353 452.442 67.7666 451.164 66.4532C450.532 65.7764 449.805 65.1948 449.006 64.7266C448.172 64.2675 447.248 63.9959 446.298 63.9311C444.352 63.7956 442.34 64.401 440.431 65.273C438.522 66.145 436.642 67.3339 434.521 68.1906C433.445 68.642 432.312 68.9414 431.154 69.0801C429.968 69.2156 428.781 69.0932 427.61 69.0058C426.439 68.9184 425.261 68.8463 424.136 69.091C423.011 69.3358 422.043 69.9936 421.251 70.8962C420.458 71.7988 419.732 72.8238 418.712 73.6456C417.691 74.4673 416.406 74.9197 415.139 75.1404C412.589 75.6038 409.96 75.2519 407.565 76.078C406.54 76.4128 405.637 77.0405 404.967 77.8832C404.325 78.705 403.988 79.7387 404.174 80.6872L403.881 80.4468L452.548 80.0884L467.148 80.0337H471.117L472.157 80.0447C472.278 80.0365 472.399 80.0365 472.52 80.0447V80.0447Z" fill="#1A2E35"/>
<path d="M272.827 281.05L272.004 299.845C272.004 299.845 290.874 306.998 291.049 310.488L254.47 310.202L254.549 280.849L272.827 281.05Z" fill="#375A64"/>
<path d="M260.704 298.186C260.351 298.29 260.05 298.521 259.857 298.834C259.664 299.146 259.594 299.519 259.66 299.88C259.75 300.236 259.974 300.544 260.286 300.739C260.597 300.935 260.972 301.004 261.332 300.931C262.044 300.754 262.668 299.823 262.427 299.13C262.186 298.438 261.216 297.891 260.566 298.23" fill="#E1E1E1"/>
<g opacity="0.6">
<path d="M254.492 310.213L254.614 307.256L289.639 308.635C289.639 308.635 291.263 309.354 291.068 310.499L254.492 310.213Z" fill="white"/>
</g>
<path d="M272.599 299.686C272.599 299.865 271.697 299.939 270.813 300.505C269.929 301.071 269.456 301.816 269.281 301.746C269.116 301.709 269.392 300.654 270.474 299.978C271.555 299.303 272.639 299.513 272.599 299.686Z" fill="#1A2E35"/>
<path d="M276.423 301.29C276.463 301.462 275.685 301.76 275.073 302.509C274.46 303.259 274.28 304.057 274.101 304.039C273.934 304.067 273.818 303.021 274.597 302.103C275.377 301.185 276.419 301.119 276.423 301.29Z" fill="#1A2E35"/>
<path d="M278.571 305.89C278.407 305.927 278.166 305.036 278.632 304.061C279.099 303.086 279.946 302.706 280.012 302.857C280.077 303.007 279.574 303.512 279.195 304.327C278.816 305.143 278.744 305.875 278.571 305.89Z" fill="#1A2E35"/>
<path d="M272.31 295.369C272.234 295.531 271.415 295.277 270.406 295.339C269.396 295.4 268.606 295.712 268.514 295.557C268.422 295.402 269.184 294.775 270.375 294.72C271.566 294.666 272.398 295.229 272.31 295.369Z" fill="#1A2E35"/>
<path d="M329.665 281.05L328.84 299.845C328.84 299.845 347.71 306.998 347.898 310.488L311.317 310.202L311.396 280.849L329.665 281.05Z" fill="#375A64"/>
<path d="M317.536 298.186C317.183 298.29 316.881 298.521 316.688 298.833C316.495 299.146 316.424 299.519 316.489 299.88C316.58 300.236 316.804 300.544 317.115 300.739C317.427 300.935 317.801 301.004 318.162 300.931C318.873 300.754 319.499 299.823 319.256 299.13C319.013 298.438 318.044 297.891 317.396 298.23" fill="#E1E1E1"/>
<g opacity="0.6">
<path d="M311.317 310.213L311.442 307.256L346.466 308.635C346.466 308.635 348.088 309.354 347.896 310.499L311.317 310.213Z" fill="white"/>
</g>
<path d="M329.436 299.686C329.436 299.865 328.534 299.939 327.652 300.505C326.769 301.071 326.294 301.816 326.119 301.746C325.955 301.709 326.229 300.654 327.31 299.978C328.391 299.303 329.475 299.513 329.436 299.686Z" fill="#1A2E35"/>
<path d="M333.26 301.29C333.299 301.462 332.525 301.76 331.912 302.509C331.299 303.259 331.117 304.057 330.94 304.039C330.771 304.067 330.655 303.021 331.434 302.103C332.214 301.185 333.258 301.119 333.26 301.29Z" fill="#1A2E35"/>
<path d="M335.403 305.89C335.241 305.927 334.998 305.036 335.464 304.061C335.931 303.086 336.778 302.706 336.843 302.857C336.909 303.007 336.406 303.512 336.027 304.327C335.648 305.143 335.58 305.875 335.403 305.89Z" fill="#1A2E35"/>
<path d="M329.138 295.369C329.061 295.531 328.245 295.277 327.233 295.339C326.222 295.4 325.434 295.712 325.342 295.557C325.25 295.402 326.012 294.775 327.203 294.72C328.393 294.666 329.236 295.229 329.138 295.369Z" fill="#1A2E35"/>
<path d="M254.654 34.108C253.366 30.5916 252.095 27.0489 251.431 23.3642C250.768 19.6795 250.742 15.8134 251.922 12.2598C252.099 11.7221 253.657 8.09425 254.224 8.12922C254.632 8.15544 253.712 11.5189 253.929 11.862C256 15.1402 256.676 19.1353 256.503 23.008C256.33 26.8807 255.654 30.373 254.654 34.1124" fill="#1A2E35"/>
<path d="M255.859 54.0374L254.491 20.0707C253.848 10.7037 258.048 2.29835 267.446 1.91589L268.466 1.93338C272.65 2.00579 276.652 3.64812 279.678 6.53354C282.704 9.41896 284.53 13.3359 284.794 17.5049C285.311 25.6655 285.781 34.7265 285.65 39.104C285.383 48.1104 276.334 49.354 276.334 49.354C276.334 49.354 276.719 55.882 276.789 58.533C276.789 58.533 275.832 59.228 267.429 59.5252C259.025 59.8224 255.859 54.0374 255.859 54.0374Z" fill="#FFC19D"/>
<path d="M276.332 49.354C276.332 49.354 270.64 49.5878 264.645 45.6824C264.645 45.6824 267.394 52.2825 276.413 51.6291L276.332 49.354Z" fill="#FF9C6A"/>
<path d="M281.694 25.683C281.692 26.0185 281.559 26.3399 281.322 26.5784C281.086 26.8169 280.765 26.9536 280.429 26.9593C280.265 26.9705 280.099 26.9486 279.943 26.8948C279.787 26.841 279.644 26.7564 279.521 26.6461C279.399 26.5358 279.3 26.402 279.23 26.2527C279.16 26.1034 279.122 25.9416 279.116 25.777C279.118 25.4418 279.251 25.1207 279.487 24.8823C279.723 24.6439 280.043 24.5069 280.379 24.5006C280.544 24.4891 280.709 24.5108 280.865 24.5645C281.021 24.6181 281.165 24.7026 281.288 24.813C281.411 24.9233 281.51 25.0572 281.58 25.2067C281.65 25.3562 281.689 25.5182 281.694 25.683V25.683Z" fill="#1A2E35"/>
<path d="M282.511 22.4703C282.349 22.6343 281.386 21.8956 279.998 21.8759C278.61 21.8562 277.59 22.5315 277.437 22.3589C277.365 22.2824 277.533 21.9808 277.98 21.6683C278.587 21.2621 279.305 21.0543 280.035 21.0738C280.757 21.0834 281.456 21.3222 282.032 21.7557C282.457 22.0901 282.597 22.396 282.511 22.4703Z" fill="#1A2E35"/>
<path d="M269.843 25.895C269.681 26.0611 268.716 25.3224 267.33 25.3027C265.945 25.283 264.922 25.9584 264.769 25.7835C264.697 25.707 264.863 25.4076 265.312 25.0929C265.919 24.6881 266.638 24.4812 267.368 24.5006C268.089 24.5106 268.788 24.7494 269.364 25.1825C269.784 25.5169 269.922 25.8207 269.843 25.895Z" fill="#1A2E35"/>
<path d="M274.066 33.3759C274.066 33.2972 274.924 33.1574 276.322 33.0088C276.677 32.9804 277.014 32.9148 277.078 32.6744C277.141 32.434 277.025 32.0362 276.859 31.6232C276.541 30.7621 276.208 29.8558 275.861 28.9044C274.473 25.0471 273.474 21.8781 273.632 21.8235C273.79 21.7688 275.04 24.8504 276.425 28.7077C276.758 29.6606 277.082 30.5654 277.382 31.433C277.509 31.8373 277.73 32.3072 277.542 32.8252C277.488 32.9486 277.407 33.0581 277.304 33.1456C277.202 33.2331 277.081 33.2961 276.951 33.33C276.753 33.3795 276.55 33.4045 276.347 33.4043C274.941 33.4633 274.068 33.4546 274.066 33.3759Z" fill="#1A2E35"/>
<path d="M269.907 22.2081C269.738 22.5709 268.374 22.2693 266.737 22.3196C265.097 22.3349 263.749 22.6911 263.563 22.3349C263.482 22.1666 263.742 21.8344 264.303 21.5175C265.046 21.1278 265.871 20.921 266.711 20.9143C267.549 20.8875 268.381 21.0613 269.138 21.4213C269.71 21.7142 269.983 22.0355 269.907 22.2081Z" fill="#1A2E35"/>
<path d="M283.061 17.2908C282.842 17.658 281.697 17.5749 280.388 17.8415C279.074 18.0601 278.022 18.5715 277.698 18.3049C277.553 18.1737 277.66 17.8284 278.078 17.4307C278.664 16.9258 279.376 16.5896 280.138 16.4581C280.892 16.3006 281.675 16.355 282.4 16.6155C282.929 16.8297 283.15 17.1138 283.061 17.2908Z" fill="#1A2E35"/>
<path d="M255.107 26.6883C254.956 26.6184 248.94 24.7498 249.03 30.9107C249.12 37.0715 255.297 35.7187 255.306 35.5352C255.315 35.3516 255.107 26.6883 255.107 26.6883Z" fill="#FFC19D"/>
<path d="M253.283 33.2513C253.255 33.2338 253.176 33.33 252.997 33.4152C252.743 33.5279 252.455 33.538 252.193 33.4436C251.537 33.2142 250.974 32.187 250.928 31.079C250.905 30.5502 251.001 30.023 251.208 29.536C251.39 29.0836 251.677 28.7645 252.005 28.7011C252.128 28.667 252.259 28.6766 252.376 28.7285C252.492 28.7803 252.587 28.8711 252.644 28.9853C252.73 29.1579 252.69 29.2803 252.725 29.2912C252.76 29.3022 252.854 29.1863 252.802 28.9328C252.765 28.7808 252.677 28.6459 252.552 28.5504C252.468 28.4875 252.372 28.442 252.27 28.4165C252.167 28.391 252.061 28.386 251.957 28.4017C251.482 28.4411 251.059 28.8847 250.847 29.3721C250.592 29.9078 250.472 30.4974 250.497 31.0899C250.554 32.329 251.208 33.4939 252.104 33.7278C252.27 33.7732 252.444 33.7808 252.614 33.7502C252.784 33.7196 252.944 33.6514 253.084 33.5507C253.275 33.4021 253.305 33.2622 253.283 33.2513Z" fill="#FF9C6A"/>
<path d="M280.572 7.53917C281.557 6.96658 278.483 3.80637 276.005 2.75297C272.255 1.15757 266.568 0.254963 263.171 1.30399C259.079 2.56502 255.706 4.69149 253.727 8.48112C251.748 12.2707 251.072 16.6461 251.293 20.9165C251.359 22.2169 251.527 23.574 252.25 24.658C253.143 25.9999 254.817 26.8195 254.789 28.7012C254.774 29.0421 254.827 29.3825 254.944 29.7029C255.062 30.0232 255.242 30.3171 255.474 30.5676C256.63 31.739 257.985 30.5807 258.594 29.4355C259.894 26.9921 259.977 24.1073 260.032 21.3492C260.071 19.3823 260.104 17.3738 259.504 15.4987C259.18 14.4803 258.672 13.5208 258.41 12.4849C258.147 11.449 258.145 10.2645 258.775 9.39902C258.921 9.211 259.084 9.03753 259.263 8.88106C260.106 8.11251 261.137 7.58122 262.253 7.34159C263.368 7.10197 264.527 7.16261 265.612 7.51732C269.114 8.66469 275.092 10.3584 276.614 9.1455C278.803 7.39711 279.311 6.28252 279.311 6.28252L280.572 7.53917Z" fill="#1A2E35"/>
<path d="M274.961 37.1218C274.986 37.2202 274.646 37.4191 274.029 37.4977C273.216 37.5764 272.396 37.4304 271.66 37.0759C270.919 36.7307 270.288 36.1877 269.837 35.5068C269.506 34.9779 269.447 34.5911 269.541 34.5452C269.747 34.4381 270.496 35.651 272.008 36.3438C273.501 37.0781 274.916 36.8924 274.961 37.1218Z" fill="#1A2E35"/>
<path d="M360.879 22.1294C360.879 22.1294 360.641 20.6891 359.929 20.6891C359.455 20.6929 358.991 20.8299 358.59 21.0846C358.19 21.3393 357.87 21.7014 357.666 22.1294C357.191 23.1784 360.879 22.1294 360.879 22.1294Z" fill="#FFC19D"/>
<path d="M342.71 45.0485L343.423 33.684L345.68 21.9917C345.68 21.9917 347.462 20.0881 348.412 20.5318C349.362 20.9754 349.008 22.5359 349.008 22.5359C349.008 22.5359 351.501 19.8455 352.453 20.464C353.405 21.0825 353.046 22.5359 353.046 22.5359C353.046 22.5359 355.303 19.5505 356.374 20.3722C357.444 21.194 356.374 22.5359 356.374 22.5359C356.374 22.5359 357.788 35.6487 357.076 40.3191C356.365 44.9895 352.37 46.7379 352.37 46.7379L350.474 54.1073L341.167 49.0479L342.71 45.0485Z" fill="#FFC19D"/>
<path d="M348.406 30.1916L297.848 29.63V25.5912L348.406 24.1772V30.1916Z" fill="#39D192"/>
<path d="M401.792 34.1933L330.353 31.1795C329.46 28.7558 329.427 26.1332 330.3 23.2986L401.289 20.1734C404.559 23.5631 404.594 30.7052 401.792 34.1933Z" fill="#39D192"/>
<path d="M401.096 20.8181C401.096 20.8181 398.942 22.8309 399.025 27.2106C399.108 31.5904 401.271 33.4327 401.271 33.4327C401.271 33.4327 403.614 30.9609 403.274 26.5703C402.939 22.2846 401.096 20.8181 401.096 20.8181Z" fill="#E1E1E1"/>
<path d="M398.239 34.1933C398.189 34.237 397.558 33.6491 396.851 32.4624C395.916 30.898 395.428 29.1071 395.442 27.285C395.475 25.1782 396.013 23.2812 396.696 22.0748C397.379 20.8684 398.042 20.2936 398.086 20.3395C398.13 20.3854 397.618 21.0498 397.075 22.2606C396.532 23.4713 396.072 25.2656 396.039 27.2872C396.033 29.0155 396.437 30.7207 397.217 32.2635C397.81 33.459 398.312 34.1343 398.239 34.1933Z" fill="#1A2E35"/>
<path d="M401.422 20.3329C401.501 20.3941 400.984 21.0629 400.406 22.2758C399.662 23.846 399.287 25.5654 399.312 27.3024C399.354 29.0408 399.791 30.7468 400.59 32.2919C401.157 33.531 401.884 33.9507 401.86 34.0119C401.836 34.073 401.619 34.0119 401.291 33.7714C400.856 33.4201 400.493 32.9882 400.222 32.4995C399.271 30.9336 398.751 29.1444 398.716 27.3133C398.677 25.4792 399.131 23.6681 400.03 22.0682C400.719 20.8705 401.376 20.2892 401.422 20.3329Z" fill="#1A2E35"/>
<path d="M402.354 23.9936C402.273 23.761 402.143 23.548 401.974 23.3686C401.889 23.2787 401.783 23.2109 401.666 23.1709C401.549 23.1309 401.424 23.12 401.302 23.1391C401.183 23.1697 401.075 23.2312 400.988 23.3172C400.901 23.4032 400.839 23.5107 400.807 23.6287C400.746 23.8677 400.774 24.1204 400.883 24.3411C401.142 24.8569 401.564 25.3355 401.54 25.8513C401.516 26.3671 401.396 26.8763 401.439 27.3811C401.446 27.5712 401.504 27.756 401.606 27.9166C401.658 27.9956 401.73 28.0593 401.815 28.1011C401.9 28.143 401.995 28.1615 402.09 28.1548C402.394 28.1111 402.545 27.7658 402.617 27.4664C402.888 26.3092 402.796 25.0971 402.354 23.9936V23.9936Z" fill="white"/>
<path d="M330.342 31.433C330.211 31.5095 329.315 29.7305 329.366 27.3396C329.416 24.9487 330.353 23.1981 330.48 23.2768C330.649 23.3423 329.985 25.0929 329.961 27.3483C329.937 29.6037 330.513 31.3762 330.342 31.433Z" fill="#1A2E35"/>
<path d="M297.743 30.5872C297.539 30.5867 297.343 30.5054 297.198 30.3613C297.054 30.2171 296.973 30.0218 296.972 29.818V25.5453C296.972 25.3411 297.053 25.1452 297.198 25.0006C297.342 24.856 297.538 24.7744 297.743 24.7739V24.7739C297.844 24.7739 297.945 24.7938 298.038 24.8326C298.132 24.8714 298.217 24.9282 298.289 24.9998C298.361 25.0715 298.418 25.1565 298.457 25.2501C298.495 25.3437 298.515 25.444 298.515 25.5453V29.818C298.515 30.0222 298.433 30.2179 298.288 30.3621C298.143 30.5063 297.947 30.5872 297.743 30.5872V30.5872Z" fill="#39D192"/>
<path d="M297.742 30.5872C297.742 30.5391 297.946 30.5348 298.156 30.325C298.276 30.2036 298.343 30.0406 298.344 29.8704C298.331 29.6038 298.318 29.3371 298.305 29.0661C298.283 28.3755 298.261 27.6696 298.239 26.9397C298.239 26.5288 298.239 26.1114 298.222 25.683C298.238 25.6106 298.239 25.5353 298.222 25.4628C298.206 25.3903 298.174 25.3223 298.128 25.2638C298.082 25.2054 298.023 25.1579 297.957 25.1249C297.89 25.092 297.817 25.0743 297.742 25.0733C297.668 25.0747 297.595 25.0926 297.528 25.1257C297.462 25.1588 297.404 25.2063 297.358 25.2646C297.312 25.323 297.28 25.3908 297.263 25.4632C297.247 25.5355 297.247 25.6106 297.263 25.683C297.263 26.1201 297.252 26.5266 297.245 26.9397C297.224 27.6696 297.202 28.3755 297.182 29.0683C297.169 29.3371 297.153 29.6038 297.14 29.8704C297.143 30.0402 297.211 30.2026 297.329 30.325C297.547 30.5435 297.749 30.5435 297.742 30.5872C297.736 30.6309 297.523 30.7162 297.182 30.5042C297.081 30.4351 296.995 30.3455 296.93 30.2412C296.866 30.1369 296.824 30.0203 296.808 29.8988C296.792 29.6234 296.777 29.3481 296.759 29.0683C296.74 28.3755 296.718 27.6696 296.696 26.9397C296.696 26.5266 296.696 26.1114 296.678 25.683C296.652 25.3927 296.737 25.1032 296.915 24.8722C297.015 24.7496 297.141 24.6506 297.284 24.5823C297.427 24.5139 297.584 24.4778 297.742 24.4766C297.901 24.4775 298.058 24.5134 298.201 24.5818C298.345 24.6502 298.471 24.7493 298.572 24.8722C298.749 25.1036 298.833 25.393 298.806 25.683C298.806 26.1201 298.806 26.5288 298.789 26.9397C298.767 27.6696 298.747 28.3755 298.725 29.0661C298.71 29.3481 298.695 29.6234 298.677 29.8988C298.661 30.0203 298.619 30.1369 298.554 30.2412C298.49 30.3455 298.404 30.4351 298.303 30.5042C297.961 30.7162 297.731 30.6135 297.742 30.5872Z" fill="#1A2E35"/>
<path d="M306.521 39.045C306.521 39.045 305.448 25.7901 305.765 24.6208C306.131 23.2921 309.749 19.3757 311.019 19.2249C312.289 19.0741 312.442 20.5034 312.442 20.5034C312.442 20.5034 314.241 19.2686 315.999 19.214C317.866 19.1571 318.107 20.7984 318.107 20.7984C318.107 20.7984 319.151 20.0335 320.94 20.3613C321.693 20.4947 322.558 21.8322 322.558 21.8322C322.558 21.8322 324.434 21.0235 325.327 21.8606C326.45 22.9118 326.434 24.7913 326.434 24.7913C324.683 24.6602 323.116 25.8447 323.116 25.8447C323.116 25.8447 322.678 31.5882 321.973 34.4293C321.268 37.2704 318.449 39.6154 317.503 41.0863L316.754 50.8881L304.671 44.4978L306.521 39.045Z" fill="#FFC19D"/>
<path d="M309.242 25.6262C309.089 25.6481 309.038 23.8778 310.242 22.1884C311.446 20.4991 313.103 19.9221 313.134 20.0751C313.217 20.2324 311.803 20.9711 310.726 22.5316C309.649 24.092 309.419 25.6502 309.242 25.6262Z" fill="#FF9C6A"/>
<path d="M315.152 25.4077C315.014 25.4601 314.666 23.8778 315.651 22.2627C316.058 21.5774 316.683 21.0475 317.426 20.7569C318 20.5559 318.379 20.6018 318.387 20.6695C318.431 20.8356 316.997 21.1307 316.159 22.5775C315.294 23.963 315.347 25.4077 315.152 25.4077Z" fill="#FF9C6A"/>
<path d="M319.478 24.9553C319.323 24.9269 319.583 23.668 320.713 22.6518C321.842 21.6355 323.121 21.4847 323.121 21.6421C323.167 21.8104 322.094 22.1775 321.109 23.0911C320.124 24.0046 319.642 25.0143 319.478 24.9553Z" fill="#FF9C6A"/>
<path d="M350.371 42.3101C352.392 39.9367 350.851 33.5682 350.851 33.5682C350.851 33.5682 353.696 32.6197 354.417 29.772C355.137 26.9243 353.703 26.4501 353.703 26.4501C353.228 26.6883 348.832 29.536 346.573 30.7205C344.314 31.905 343.605 43.9864 343.605 43.9864" fill="#FFC19D"/>
<path d="M343.614 43.9952C343.573 43.9952 343.566 43.4291 343.614 42.4107C343.662 41.3923 343.77 39.9236 343.993 38.114C344.253 36.311 344.481 34.1386 345.409 31.8308C345.537 31.5312 345.7 31.2474 345.893 30.985C346.107 30.704 346.387 30.479 346.707 30.3294C347.255 30.0299 347.802 29.7087 348.367 29.3743L351.817 27.2588C352.41 26.8938 352.955 26.5375 353.568 26.1857L353.684 26.1201L353.796 26.1704C354.025 26.2771 354.228 26.4316 354.392 26.6235C354.557 26.8154 354.678 27.0402 354.748 27.2828C354.88 27.7065 354.929 28.1518 354.892 28.5941C354.848 29.4164 354.634 30.2208 354.264 30.9566C353.537 32.2784 352.35 33.2889 350.928 33.7977L351.092 33.5027C351.655 36.1886 351.716 38.4856 351.416 40.0591C351.312 40.6735 351.101 41.265 350.794 41.8075C350.682 41.9958 350.538 42.1635 350.37 42.3036C350.442 42.1027 350.54 41.9117 350.661 41.7354C350.901 41.1903 351.06 40.613 351.134 40.022C351.353 38.4921 351.21 36.2345 350.608 33.6294L350.56 33.4109L350.779 33.3278C352.059 32.8389 353.121 31.9086 353.774 30.7053C354.099 30.0364 354.285 29.3085 354.321 28.5657C354.387 27.8445 354.154 26.9834 353.616 26.7364L353.835 26.7211C353.301 27.0271 352.703 27.4117 352.125 27.768C350.945 28.5023 349.792 29.2126 348.66 29.8791C348.093 30.2135 347.533 30.5348 346.972 30.8342C346.719 30.9378 346.497 31.1067 346.331 31.3237C346.157 31.5495 346.01 31.7944 345.893 32.0537C344.993 34.2086 344.702 36.3963 344.396 38.173C344.089 39.9498 343.958 41.4229 343.829 42.4304C343.7 43.4379 343.656 43.9974 343.614 43.9952Z" fill="#FF9C6A"/>
<path d="M255.895 148.293C255.895 148.293 257.3 205.848 255.895 212.865C254.489 219.883 252.145 248.897 252.145 270.42C252.145 291.942 253.049 296.851 253.049 296.851H273.974C273.974 296.851 275.419 255.926 281.881 232.255C287.881 210.267 294.796 176.835 294.796 162.319V142.678H257.775L255.895 148.293Z" fill="#1A2E35"/>
<path d="M306.512 142.678C306.512 142.678 328.468 203.507 329.876 221.288C331.283 239.069 331.351 296.851 331.351 296.851H309.679L306.783 227.06L290.105 181.842V142.678H306.512Z" fill="#1A2E35"/>
<path d="M294.794 175.432C294.835 175.432 294.737 176.031 294.527 177.089C294.308 178.256 294.006 179.762 293.651 181.571C292.905 185.466 291.9 190.645 290.805 196.369C289.685 202.148 288.634 207.373 287.793 211.141C287.375 213.025 287.01 214.544 286.738 215.588C286.467 216.633 286.283 217.203 286.244 217.195C286.204 217.186 286.3 216.594 286.511 215.538C286.729 214.369 287.029 212.863 287.386 211.056C288.133 207.159 289.137 201.981 290.232 196.255C291.353 190.477 292.403 185.254 293.242 181.486C293.662 179.602 294.028 178.083 294.299 177.036C294.571 175.99 294.754 175.421 294.794 175.432Z" fill="#375A64"/>
<path d="M314.826 169.538H319.469C319.469 169.538 320.533 153.492 317.849 142.678C315.165 131.865 301.475 84.7632 301.475 84.7632L286.307 59.7372L278.179 56.0919L304.886 145.502L314.826 169.538Z" fill="#39D192"/>
<path opacity="0.3" d="M297.935 91.8463C297.935 91.8463 311.98 133.388 314.305 144.28C316.63 155.173 317.836 169.529 317.836 169.529H314.826L303.8 140.53C303.8 140.53 292.307 94.4164 292.854 94.5301C293.402 94.6437 297.935 91.8463 297.935 91.8463Z" fill="black"/>
<path d="M252.686 55.1302L253.946 47.1707L276.343 57.2086V52.3284L286.233 68.8113L308.005 130.612C308.712 132.516 309.552 138.86 308.285 140.447L306.505 142.676L282.912 145.723L260.531 65.0632L252.686 55.1302Z" fill="#E1E1E1"/>
<path opacity="0.3" d="M256.39 175.432C256.39 175.432 286.356 178.789 292.496 176.35C298.636 173.911 298.927 167.656 298.927 167.656C298.927 167.656 301.933 146.413 301.723 141.73C301.486 136.417 299.779 128.836 299.779 128.836L256.339 171.671L256.39 175.432Z" fill="black"/>
<path d="M278.958 64.3551C278.958 64.3551 289.201 99.1588 289.113 99.4189C289.025 99.679 300.472 135.066 300.472 135.066L302.722 124.427L286.806 71.3726L280.403 63.5421L278.958 64.3551Z" fill="#39D192"/>
<path d="M246.031 58.3757C235.523 64.7638 234.978 74.6859 239.654 86.046C240.429 87.9299 241.917 91.1754 242.953 93.3718C247.473 102.962 256.853 118.616 256.853 122.281C256.853 130.894 249.124 170.886 249.124 170.886C249.124 170.886 291.015 175.965 294.794 172.016C298.572 168.067 301.485 143.428 300.266 132.402C298.924 120.236 292.648 99.6616 290.105 92.043C288.572 87.4535 283.52 76.0496 277.491 68.5687C272.979 62.978 267.617 58.1285 261.599 54.197L252.685 48.3552L250.846 54.5314C250.846 54.5314 248.392 56.9398 246.031 58.3757Z" fill="#39D192"/>
<path d="M286.806 61.1512C287.668 61.1053 325.959 73.6456 323.746 72.7211L324.768 71.6568L338.559 50.8947L351.128 58.3254C351.128 58.3254 338.651 82.1165 336.598 85.8428C334.754 89.1822 331.189 91.8594 326.438 91.8506C323.632 91.8506 299.651 87.8447 299.651 87.8447L286.806 61.1512Z" fill="#39D192"/>
<path d="M302.208 46.8625L305.172 41.6261L318.508 49.1988L316.43 54.9663L302.208 46.8625Z" fill="#E1E1E1"/>
<path opacity="0.3" d="M243.546 86.4504C243.546 86.4504 269.311 100.781 277.477 102.669C285.642 104.557 294.792 107.169 294.792 107.169L291.119 95.4851L268.753 81.9067L243.546 86.4504Z" fill="black"/>
<path d="M243.546 86.4503C243.229 86.2099 282.165 100.035 290.096 97.5416C298.027 95.048 300.604 87.1955 303.449 82.3656C308.64 73.521 317.84 55.9432 317.84 55.9432L301.324 46.5325L284.906 73.9406C284.906 73.9406 255.919 62.0101 253.248 61.2298C250.577 60.4496 242.323 59.3853 238.284 69.0145C233.816 79.6884 243.546 86.4503 243.546 86.4503Z" fill="#39D192"/>
<path d="M243.546 86.4504C243.444 86.3953 243.347 86.3317 243.255 86.2602C243.067 86.1247 242.793 85.9149 242.454 85.6177C241.448 84.7436 240.545 83.7573 239.764 82.6782C238.488 80.9466 237.612 78.9546 237.198 76.8452C237.036 76.231 237.045 75.571 236.979 74.8957C236.914 74.2204 237.038 73.521 237.069 72.7998C237.229 72.0961 237.316 71.3487 237.548 70.6144C237.824 69.9019 237.986 69.1217 238.376 68.407C239.05 66.8426 239.987 65.4049 241.147 64.1563C242.43 62.782 244.035 61.7491 245.819 61.1512C247.75 60.5229 249.805 60.3648 251.81 60.6901C252.863 60.8557 253.893 61.1493 254.875 61.5643L257.907 62.7291C266.083 65.944 275.189 69.6593 285.011 73.6784L284.665 73.792C289.74 65.308 295.28 56.0372 301.057 46.3752L301.206 46.126L301.46 46.2703L307.405 49.6665L317.983 55.6963L318.23 55.8361L318.099 56.0896C314.854 62.2614 311.658 68.2366 308.517 73.9516C306.943 76.808 305.385 79.6011 303.806 82.3001C302.228 84.9992 301.009 87.7988 299.352 90.3055C297.741 92.8276 295.667 95.0327 293.181 96.462C291.918 97.133 290.659 97.7471 289.24 97.9919C287.888 98.1364 286.524 98.1276 285.173 97.9657C279.92 97.3843 275.158 96.1473 270.848 95.0371C262.243 92.7336 255.442 90.4935 250.759 88.9484C246.077 87.4032 243.535 86.4635 243.535 86.4635C243.702 86.4768 243.865 86.5159 244.019 86.5793L245.422 87.0164L250.818 88.7429C255.518 90.2225 262.337 92.4036 270.942 94.6437C275.246 95.7365 280.003 96.9363 285.21 97.4848C286.519 97.6354 287.841 97.639 289.151 97.4958C290.429 97.2772 291.71 96.6653 292.907 96.0184C295.315 94.6284 297.307 92.4932 298.885 90.0083C300.507 87.5409 301.731 84.7391 303.307 82.0138C304.883 79.2885 306.427 76.5261 307.994 73.6697C311.124 67.9524 314.312 61.9751 317.551 55.8055L317.667 56.2011L307.088 50.1757L301.151 46.7904L301.554 46.6855L285.136 74.0827L285.013 74.2903L284.795 74.1985C274.981 70.1598 265.886 66.4182 257.729 63.1706L254.708 61.997C253.759 61.5881 252.763 61.2982 251.742 61.1337C249.806 60.8101 247.82 60.9524 245.95 61.549C244.226 62.117 242.67 63.1055 241.425 64.4251C240.285 65.6368 239.36 67.0337 238.689 68.5556C238.306 69.255 238.139 70.0177 237.861 70.7127C237.627 71.4252 237.537 72.1529 237.376 72.8392C237.34 73.5451 237.235 74.227 237.268 74.8892C237.301 75.5514 237.305 76.2004 237.459 76.7993C237.843 78.8784 238.678 80.8484 239.906 82.5711C240.665 83.6534 241.537 84.6513 242.509 85.5477C242.835 85.8559 243.098 86.0766 243.275 86.2231L243.546 86.4504Z" fill="#1A2E35"/>
<path d="M262.271 145.03L265.879 137.739L291.121 138.181L288.315 145.725L262.271 145.03Z" fill="#375A64"/>
<path d="M262.271 145.03C262.454 145.015 262.638 145.011 262.821 145.017H264.323L269.819 145.085C274.478 145.148 280.927 145.242 288.323 145.426L288.043 145.613C288.895 143.319 289.794 140.897 290.714 138.401L290.841 138.063L291.114 138.463C280.955 138.283 271.879 138.084 265.877 137.914L266.052 137.807L263.324 143.052C263.016 143.633 262.766 144.108 262.563 144.488C262.475 144.666 262.378 144.84 262.271 145.008C262.324 144.846 262.39 144.689 262.468 144.538L263.125 143.113C263.762 141.765 264.631 139.918 265.708 137.63L265.759 137.523H265.886C271.89 137.564 280.968 137.685 291.127 137.862H291.548L291.401 138.255C291.362 138.366 291.318 138.474 291.276 138.594L288.59 145.806L288.516 146H288.31C280.764 145.782 274.193 145.535 269.563 145.345L264.158 145.126L262.736 145.058C262.58 145.064 262.425 145.054 262.271 145.03Z" fill="#1A2E35"/>
<path d="M279.123 70.7258C279.04 70.8679 272.643 67.3602 264.837 62.8909C257.031 58.4216 250.77 54.6931 250.847 54.5401C250.924 54.3872 257.324 57.9036 265.133 62.3751C272.941 66.8466 279.204 70.5838 279.123 70.7258Z" fill="#1A2E35"/>
<path d="M287.85 125.752C287.839 125.916 281.758 125.662 274.278 125.184C266.798 124.705 260.723 124.183 260.734 124.019C260.745 123.855 266.824 124.108 274.306 124.589C281.789 125.07 287.861 125.588 287.85 125.752Z" fill="#1A2E35"/>
<path d="M339.356 51.4433L341.891 47.1685L351.976 53.0475L350.015 57.6851L339.356 51.4433Z" fill="#E1E1E1"/>
<path d="M326.375 81.5111C326.27 81.6204 324.76 80.0512 323.912 77.562C323.065 75.0727 323.269 72.9156 323.416 72.9375C323.597 72.9375 323.648 75.0049 324.477 77.3696C325.307 79.7343 326.511 81.404 326.375 81.5111Z" fill="#1A2E35"/>
<path d="M301.713 85.5892C301.871 85.5433 302.935 88.7407 304.086 92.7292C305.238 96.7177 306.057 99.9894 305.888 100.035C305.719 100.081 304.667 96.8838 303.515 92.8953C302.364 88.9068 301.556 85.6351 301.713 85.5892Z" fill="#1A2E35"/>
<path d="M286.254 82.6082C286.149 82.7175 284.722 81.0303 284.3 78.4274C283.877 75.8245 284.643 73.768 284.775 73.8379C284.954 73.8773 284.457 75.8857 284.886 78.3291C285.28 80.7768 286.41 82.5143 286.254 82.6082Z" fill="#1A2E35"/>
<path opacity="0.3" d="M264.294 145.074L263.847 147.281L289.987 148.018L291.12 138.181L288.314 145.725L264.294 145.074Z" fill="black"/>
<path d="M275.791 62.0232L276.064 62.3205L278.958 64.3551L280.403 63.5421L279.459 60.3513L276.412 58.0697L275.791 62.0232Z" fill="#FF735D"/>
<path d="M279.692 58.0697C279.77 58.0697 280.007 59.0947 280.348 60.8256L280.44 61.313L280.024 61.0201C279.015 60.312 277.71 59.3723 276.25 58.2992L276.706 58.1156C276.568 59.0116 276.423 59.9645 276.268 60.9567C276.174 61.5468 276.08 62.1238 275.992 62.6833L275.929 63.0745L275.574 62.9018C273.385 61.8265 271.456 60.8562 270.101 60.1394C268.746 59.4225 267.932 58.957 267.965 58.8914C267.998 58.8259 268.862 59.169 270.27 59.7919C271.677 60.4147 273.632 61.3217 275.839 62.3729L275.418 62.5915C275.506 62.0342 275.596 61.455 275.686 60.8627C275.845 59.8771 275.999 58.9264 276.143 58.0216L276.22 57.5496L276.598 57.838C278.041 58.9308 279.311 59.9208 280.274 60.6901L279.95 60.8846C279.711 59.1428 279.615 58.0828 279.692 58.0697Z" fill="#1A2E35"/>
<path d="M323.597 464.014L516.143 270.101L489.929 236.547L265.771 464.01H276.279C292.414 464.01 308.224 464.01 323.597 464.014Z" fill="#E1E1E1"/>
<path d="M209.787 387.026L181.373 414.126L191.237 423.895C200.691 414.397 210.159 404.882 219.357 395.657L221.967 345.86H112.451L151.456 384.482L184.729 352.596L209.787 387.026Z" fill="#E1E1E1"/>
<path d="M181.377 414.124L209.791 387.024L184.733 352.603L151.46 384.489L68.3745 464.108C85.9241 464.086 106.35 464.069 129.011 464.053L181.377 414.124Z" fill="#E1E1E1"/>
<path d="M286.102 464.6C401.207 464.576 488.838 464.453 488.838 464.307C488.838 464.161 401.469 464.038 286.62 464.014C273.006 464.014 259.006 464.014 244.72 464.014H215.763C186.637 464.014 159.083 464.027 134.029 464.043L114.305 464.058C94.2356 464.073 76.1477 464.091 60.6089 464.112C23.2234 464.165 0.580078 464.235 0.580078 464.309C0.580078 464.383 23.0664 464.451 60.2483 464.504C75.7561 464.525 93.8034 464.545 113.839 464.56L133.563 464.574C158.593 464.589 186.131 464.6 215.243 464.604H244.721L286.102 464.6Z" fill="#1A2E35"/>
<path d="M203.217 310.456L351.851 457.674V310.456H203.217Z" fill="#39D192"/>
<path d="M151.283 464.034C179.576 464.018 210.691 464.01 243.581 464.005L344.352 362.807L301.291 313.769C299.901 314.877 262.641 352.196 219.358 395.648C210.164 404.882 200.692 414.388 191.237 423.886C177.604 437.589 163.999 451.26 151.283 464.034Z" fill="#39D192"/>
</svg>
