<svg width="552" height="394" viewBox="0 0 552 394" fill="none" xmlns="http://www.w3.org/2000/svg">
<path fill-rule="evenodd" clip-rule="evenodd" d="M276 369.874C340.198 369.874 399.281 370.83 446.166 372.437C560.904 306.989 521.175 179.424 479.978 107.267C422.643 6.84007 287.162 -29.255 231.119 50.8709C155.055 159.629 81.6751 121.677 42.0561 204.273C2.43703 286.87 62.6084 366.055 105.837 372.437C152.719 370.83 211.799 369.874 276 369.874ZM175.476 91.3833C146.106 113.687 97.5294 130.973 81.4007 107.261C69.3498 89.5407 84.1927 56.3003 113.27 31.0969C142.348 5.89349 181.251 -9.32917 202.459 9.21544C227.635 31.2219 198.077 74.2049 175.467 91.3833H175.476Z" fill="#FAFAFA"/>
<path fill-rule="evenodd" clip-rule="evenodd" d="M276 369.871C428.427 369.871 552 375.271 552 381.935C552 388.6 428.433 393.997 276 393.997C123.567 393.997 0.0117188 388.609 0.0117188 381.935C0.0117188 375.262 123.57 369.871 276 369.871Z" fill="#E4E4E4"/>
<path fill-rule="evenodd" clip-rule="evenodd" d="M365.007 36.8984C433.939 52.2223 477.803 115.482 482.104 146.029C483.864 158.558 480.613 129.232 445.432 102.525C414.005 78.658 389.539 74.2466 352.151 71.3533C325.731 69.3143 298.062 66.0757 300.027 50.347C301.579 37.9283 320.502 27.004 365.007 36.8984ZM184.759 11.314C196.625 12.0224 203.849 21.7472 204.347 32.9633C204.556 37.7259 200.804 25.2596 187.643 23.5243C179.482 22.4467 178.256 24.8459 175.333 21.4852C172.409 18.1246 175.19 10.7395 184.759 11.314Z" fill="white"/>
<path fill-rule="evenodd" clip-rule="evenodd" d="M98.2095 342.078C95.0625 338.146 90.6359 334.898 89.3353 330.034C87.8021 324.295 91.1788 318.256 90.3406 312.377C89.2906 304.974 82.1465 300.172 78.2658 293.782C74.4715 287.531 76.2493 285.408 75.9033 278.094C75.3842 267.081 66.3252 253.171 54.2623 256.901C42.0085 260.693 44.01 272.055 46.1666 280.607C47.7028 286.694 46.6976 287.569 45.2091 293.668C43.4045 301.036 37.5907 308.159 40.0218 315.344C41.5132 319.789 45.8892 322.786 47.4791 327.206C49.2688 332.21 47.1003 337.625 46.2681 342.891C44.5081 353.943 47.0317 363.132 55.0766 372.261C55.9284 373.073 56.8247 373.837 57.7612 374.55C69.0337 373.916 81.714 373.33 95.6174 372.803L95.7218 372.696C103.087 364.674 105.285 350.907 98.2095 342.078Z" fill="#E1E1E1"/>
<path fill-rule="evenodd" clip-rule="evenodd" d="M59.8254 266.864C59.7332 266.625 59.5499 266.432 59.3157 266.328C59.0814 266.223 58.8153 266.216 58.5756 266.307C58.3356 266.398 58.1417 266.581 58.0366 266.815C57.9314 267.049 57.9236 267.314 58.0147 267.554C58.9851 270.114 59.8038 272.729 60.4667 275.386C60.1893 275.139 59.9029 274.895 59.6076 274.656C58.2299 273.563 56.7281 272.635 55.1333 271.891C54.9005 271.783 54.6345 271.771 54.3931 271.858C54.1517 271.945 53.9545 272.124 53.8446 272.355C53.7907 272.47 53.76 272.594 53.7542 272.721C53.7485 272.848 53.7677 272.974 53.8109 273.093C53.8541 273.212 53.9204 273.322 54.0061 273.415C54.0917 273.509 54.195 273.585 54.31 273.638C55.768 274.317 57.1416 275.163 58.4025 276.16C59.511 277.046 60.5014 278.071 61.3496 279.208C62.5875 285.099 63.3989 291.442 64.1237 298.124C63.0687 296.464 61.871 294.898 60.5442 293.445C58.4661 291.143 55.9767 289.248 53.2033 287.855C53.0898 287.798 52.9661 287.765 52.8395 287.756C52.7129 287.747 52.5858 287.763 52.4655 287.804C52.3452 287.844 52.2341 287.908 52.1385 287.991C52.043 288.075 51.9649 288.176 51.9087 288.29C51.795 288.519 51.777 288.783 51.8586 289.025C51.9403 289.268 52.1149 289.468 52.3442 289.581C54.9043 290.873 57.2022 292.627 59.1214 294.755C61.323 297.204 63.1805 299.941 64.6427 302.89L64.8277 304.706C65.2423 308.689 65.6659 312.773 66.1641 316.949C66.1611 316.989 66.1611 317.028 66.1641 317.068C66.6891 321.429 67.2975 325.882 68.0671 330.409C66.1031 327.346 63.8421 324.482 61.3168 321.86C57.9694 318.372 54.0312 315.501 49.6835 313.38C49.5688 313.324 49.4442 313.292 49.3169 313.285C49.1896 313.277 49.0622 313.295 48.9418 313.337C48.8215 313.379 48.7107 313.445 48.6158 313.53C48.5209 313.615 48.4437 313.717 48.3889 313.832C48.3336 313.947 48.3016 314.071 48.2945 314.197C48.2874 314.324 48.3054 314.451 48.3475 314.571C48.3896 314.69 48.455 314.801 48.5399 314.895C48.6248 314.99 48.7276 315.066 48.8423 315.121C52.9827 317.142 56.7308 319.88 59.9119 323.209C63.2786 326.662 66.3271 330.881 69.0575 335.866C70.2666 342.05 71.8444 348.157 73.7824 354.154V354.175C74.7698 357.205 75.8705 360.25 77.1293 363.31C74.2456 360.834 71.1197 358.653 67.7987 356.8C63.1651 354.233 58.1926 352.329 53.0273 351.145C52.7769 351.087 52.5137 351.13 52.2956 351.266C52.0774 351.402 51.9222 351.618 51.864 351.868C51.8059 352.118 51.8496 352.381 51.9855 352.598C52.1215 352.816 52.3385 352.971 52.5888 353.029C57.5782 354.167 62.3822 356.001 66.8591 358.476C71.3058 360.965 75.3896 364.049 78.9966 367.644C79.8556 369.547 80.7734 371.453 81.7498 373.36L83.8796 373.267C80.6025 366.965 77.8509 360.404 75.6527 353.651C75.2979 348.878 75.8681 344.082 77.3321 339.524C78.8355 334.749 81.2894 329.967 84.6939 325.176C84.8416 324.967 84.9004 324.708 84.8574 324.456C84.8143 324.204 84.673 323.979 84.4643 323.831C84.3608 323.757 84.2437 323.705 84.1198 323.676C83.9959 323.648 83.8676 323.644 83.7423 323.665C83.6169 323.687 83.4971 323.733 83.3896 323.8C83.2821 323.868 83.1891 323.956 83.116 324.06C79.5961 329.009 77.0547 333.97 75.4916 338.943C74.6144 341.695 74.0374 344.534 73.7705 347.409C70.8651 336.946 69.2543 326.715 68.0791 316.952C69.0261 313.342 70.3053 309.828 71.9002 306.453C73.2922 303.605 74.8065 301.409 76.4432 299.863C76.6291 299.687 76.7373 299.444 76.744 299.189C76.7507 298.933 76.6554 298.685 76.479 298.5C76.3022 298.315 76.0592 298.207 75.8033 298.201C75.5473 298.194 75.2991 298.289 75.1128 298.464C73.3012 300.17 71.6486 302.552 70.1552 305.608C69.1417 307.719 68.2678 309.895 67.5391 312.121C67.2409 309.543 66.9903 306.998 66.7338 304.497L66.531 302.551C66.531 302.515 66.531 302.479 66.531 302.444C65.1439 289.189 63.7539 277.109 59.8254 266.864Z" fill="white"/>
<path fill-rule="evenodd" clip-rule="evenodd" d="M65.8031 347.26C62.4413 345.453 58.3935 344.501 56.046 341.497C53.2719 337.952 53.8327 332.746 51.503 328.897C48.5738 324.054 42.1724 322.825 37.5727 319.515C33.0656 316.273 33.6801 314.279 31.2699 309.29C27.6337 301.768 17.1994 294.758 9.90025 300.923C2.49368 307.174 7.26043 314.511 11.3023 319.83C14.1808 323.617 13.7393 324.521 14.5119 329.213C15.4396 334.868 13.5066 341.557 17.3337 345.846C19.6992 348.496 23.6336 349.293 26.0438 351.904C28.7762 354.863 28.8806 359.283 29.856 363.188C31.1536 368.368 33.4176 372.532 36.9941 375.899C46.6498 375.169 57.9998 374.488 70.8084 373.866C71.7949 372.465 72.5866 370.937 73.1619 369.323C75.9092 361.557 73.3498 351.32 65.8031 347.26Z" fill="#E1E1E1"/>
<path fill-rule="evenodd" clip-rule="evenodd" d="M16.7313 306.209C16.5957 306.07 16.4104 305.99 16.2159 305.987C16.0215 305.983 15.8336 306.057 15.6933 306.191C15.5541 306.326 15.474 306.51 15.4706 306.704C15.4673 306.898 15.5409 307.085 15.6753 307.224C17.1121 308.721 18.4588 310.301 19.7082 311.957C19.4398 311.862 19.1683 311.778 18.8939 311.701C17.6086 311.348 16.2859 311.148 14.9535 311.106C14.8577 311.102 14.7619 311.117 14.6719 311.15C14.5819 311.183 14.4993 311.233 14.4289 311.298C14.3585 311.363 14.3017 311.442 14.2617 311.529C14.2217 311.616 14.1993 311.71 14.1958 311.805C14.1886 311.998 14.2581 312.187 14.3895 312.329C14.5208 312.471 14.7032 312.556 14.8968 312.564C16.1144 312.604 17.323 312.788 18.4972 313.112C19.5331 313.399 20.5276 313.819 21.4562 314.359C24.0662 318.101 26.5272 322.277 29.006 326.718C27.7789 325.876 26.4815 325.14 25.1282 324.519C22.9973 323.531 20.7014 322.947 18.357 322.795C18.163 322.784 17.9726 322.851 17.8274 322.98C17.6821 323.108 17.5937 323.289 17.5814 323.483C17.5708 323.676 17.6375 323.865 17.7667 324.009C17.8959 324.153 18.0771 324.24 18.2705 324.251C20.4396 324.394 22.5634 324.937 24.5346 325.852C26.7969 326.907 28.9044 328.265 30.7987 329.888L31.4669 331.097C32.9374 333.749 34.4498 336.473 36.0337 339.229C36.0463 339.257 36.0613 339.284 36.0784 339.31C37.7399 342.191 39.4819 345.114 41.3642 348.04C39.0856 346.488 36.6599 345.163 34.1217 344.084C30.7586 342.639 27.165 341.802 23.5085 341.611C23.4122 341.606 23.3161 341.621 23.2256 341.654C23.135 341.686 23.0518 341.737 22.9809 341.802C22.9099 341.867 22.8525 341.945 22.812 342.032C22.7715 342.12 22.7487 342.214 22.7448 342.31C22.74 342.406 22.7543 342.502 22.7869 342.592C22.8194 342.683 22.8696 342.766 22.9345 342.836C22.9995 342.907 23.0778 342.965 23.165 343.005C23.2523 343.045 23.3467 343.068 23.4429 343.072C26.9264 343.257 30.3497 344.055 33.5549 345.43C37.1919 347.003 40.5985 349.061 43.6819 351.547C46.3613 355.495 49.2728 359.282 52.4009 362.888V362.903C53.9908 364.718 55.6643 366.513 57.4421 368.261C54.6997 367.383 51.8754 366.785 49.0124 366.475C45.0235 366.06 40.996 366.206 37.0479 366.909C36.9529 366.926 36.862 366.961 36.7806 367.012C36.6992 367.064 36.6288 367.131 36.5734 367.21C36.5179 367.289 36.4787 367.378 36.4577 367.472C36.4368 367.566 36.4346 367.663 36.4513 367.758C36.4848 367.948 36.5928 368.118 36.7516 368.23C36.9104 368.342 37.1071 368.386 37.2985 368.353C41.112 367.668 45.0035 367.525 48.8573 367.927C52.6936 368.345 56.4544 369.287 60.0342 370.725C61.305 371.902 62.6284 373.056 64.0045 374.187L66.185 374.074C61.6178 370.425 57.3888 366.373 53.5494 361.968C51.8854 358.748 50.8586 355.238 50.5247 351.63C50.1549 347.86 50.4442 343.802 51.3927 339.458C51.4134 339.365 51.4153 339.268 51.3984 339.174C51.3816 339.079 51.3462 338.989 51.2944 338.908C51.2426 338.828 51.1753 338.758 51.0965 338.703C51.0176 338.648 50.9288 338.61 50.8349 338.589C50.7411 338.569 50.6441 338.567 50.5496 338.584C50.455 338.6 50.3647 338.636 50.2838 338.687C50.2029 338.739 50.133 338.806 50.0781 338.885C50.0232 338.964 49.9844 339.052 49.9639 339.146C48.9835 343.637 48.6852 347.844 49.069 351.767C49.2759 353.943 49.717 356.091 50.3846 358.173C45.2539 351.743 41.0957 345.093 37.376 338.64C36.9625 335.847 36.8067 333.022 36.9107 330.201C37.036 327.802 37.4337 325.824 38.1038 324.269C38.1425 324.18 38.1633 324.085 38.1652 323.989C38.167 323.893 38.1499 323.798 38.1147 323.708C38.0795 323.618 38.027 323.537 37.9602 323.467C37.8933 323.398 37.8134 323.343 37.725 323.304C37.6369 323.266 37.542 323.245 37.4459 323.243C37.3497 323.241 37.2541 323.258 37.1646 323.294C37.0751 323.329 36.9935 323.381 36.9243 323.448C36.8551 323.514 36.7998 323.594 36.7615 323.682C36.0098 325.405 35.5664 327.553 35.4312 330.127C35.3509 331.898 35.3868 333.673 35.5386 335.44C34.5751 333.725 33.6384 332.032 32.7137 330.38L31.9978 329.082L31.9591 329.01C27.0671 320.188 22.5152 312.192 16.7313 306.209Z" fill="white"/>
<path fill-rule="evenodd" clip-rule="evenodd" d="M441.605 338.351C445.042 334.059 449.871 330.514 451.291 325.206C452.967 318.955 449.28 312.356 450.193 305.935C451.339 297.86 459.142 292.624 463.369 285.646C467.512 278.8 465.57 276.508 465.946 268.53C466.516 256.508 476.386 241.327 489.568 245.399C502.934 249.536 500.753 261.937 498.4 271.269C496.721 277.913 497.803 278.868 499.444 285.524C501.413 293.561 507.757 301.336 505.112 309.177C503.474 314.026 498.704 317.3 496.983 322.122C495.029 327.582 497.395 333.508 498.305 339.235C500.223 351.3 497.472 361.331 488.688 371.288C487.639 372.286 486.529 373.217 485.362 374.074C473.215 373.455 459.664 372.883 444.925 372.395C444.722 372.19 444.523 371.976 444.329 371.761C436.284 363.01 433.889 347.987 441.605 338.351Z" fill="#E1E1E1"/>
<path fill-rule="evenodd" clip-rule="evenodd" d="M483.494 256.258C483.597 255.999 483.798 255.791 484.053 255.68C484.308 255.568 484.597 255.562 484.857 255.662C485.117 255.765 485.326 255.965 485.438 256.221C485.55 256.477 485.556 256.766 485.454 257.026C484.392 259.819 483.495 262.673 482.769 265.572C483.068 265.298 483.384 265.033 483.709 264.774C485.213 263.581 486.852 262.569 488.592 261.759C488.845 261.639 489.135 261.626 489.399 261.72C489.662 261.814 489.877 262.009 489.997 262.262C490.056 262.387 490.09 262.523 490.097 262.661C490.104 262.799 490.083 262.938 490.036 263.068C489.989 263.198 489.916 263.318 489.822 263.42C489.729 263.522 489.616 263.605 489.49 263.664C487.895 264.403 486.393 265.327 485.016 266.417C483.803 267.381 482.722 268.498 481.797 269.739C480.449 276.172 479.563 283.092 478.772 290.385C479.927 288.572 481.237 286.863 482.689 285.277C484.958 282.767 487.675 280.698 490.701 279.178C490.825 279.116 490.959 279.08 491.097 279.07C491.235 279.06 491.374 279.078 491.505 279.122C491.636 279.166 491.757 279.235 491.861 279.326C491.966 279.417 492.051 279.527 492.112 279.651C492.174 279.775 492.211 279.909 492.22 280.047C492.23 280.185 492.212 280.323 492.168 280.454C492.124 280.584 492.054 280.705 491.963 280.809C491.872 280.913 491.762 280.998 491.638 281.059C488.844 282.473 486.337 284.391 484.243 286.715C481.84 289.387 479.814 292.375 478.22 295.594L478.015 297.574C477.564 301.923 477.102 306.382 476.559 310.933C476.556 310.977 476.55 311.021 476.541 311.064C475.971 315.827 475.306 320.682 474.453 325.623C476.597 322.281 479.065 319.158 481.821 316.297C485.467 312.489 489.76 309.356 494.501 307.043C494.626 306.982 494.762 306.947 494.9 306.939C495.039 306.931 495.178 306.951 495.309 306.996C495.44 307.042 495.56 307.113 495.664 307.205C495.768 307.297 495.852 307.409 495.912 307.534C496.033 307.786 496.05 308.075 495.957 308.339C495.865 308.603 495.672 308.82 495.42 308.942C490.902 311.147 486.81 314.135 483.336 317.764C479.667 321.535 476.341 326.14 473.358 331.579C472.037 338.328 470.316 344.992 468.204 351.538V351.564C467.124 354.872 465.916 358.197 464.553 361.53C467.7 358.83 471.112 356.451 474.736 354.431C479.789 351.633 485.211 349.561 490.844 348.275C490.979 348.243 491.119 348.239 491.256 348.261C491.394 348.283 491.525 348.332 491.643 348.405C491.761 348.478 491.863 348.574 491.944 348.686C492.025 348.799 492.083 348.926 492.115 349.061C492.177 349.334 492.129 349.62 491.98 349.857C491.831 350.094 491.595 350.263 491.321 350.326C485.877 351.571 480.635 353.575 475.751 356.28C470.898 358.995 466.442 362.362 462.506 366.287C461.512 368.504 460.437 370.724 459.282 372.949L456.949 372.857C460.627 365.848 463.707 358.542 466.155 351.017C466.541 345.807 465.92 340.572 464.323 335.598C462.68 330.389 460.002 325.169 456.287 319.94C456.126 319.713 456.061 319.43 456.108 319.155C456.155 318.88 456.31 318.635 456.538 318.473C456.766 318.311 457.048 318.247 457.324 318.293C457.6 318.339 457.846 318.493 458.008 318.72C461.85 324.126 464.624 329.539 466.331 334.961C467.286 337.961 467.916 341.054 468.21 344.188C471.378 332.767 473.138 321.607 474.42 310.954C473.179 306.439 471.794 302.618 470.265 299.491C468.736 296.363 467.084 293.966 465.31 292.299C465.209 292.204 465.128 292.091 465.071 291.965C465.014 291.839 464.982 291.703 464.978 291.564C464.974 291.426 464.997 291.288 465.047 291.159C465.096 291.03 465.17 290.911 465.266 290.811C465.458 290.608 465.723 290.49 466.003 290.482C466.282 290.474 466.554 290.578 466.757 290.769C468.734 292.633 470.538 295.232 472.171 298.568C473.278 300.872 474.232 303.247 475.026 305.676C475.339 302.863 475.622 300.089 475.921 297.359L476.141 295.234C476.138 295.195 476.138 295.157 476.141 295.118C477.689 280.625 479.205 267.459 483.494 256.258Z" fill="white"/>
<path fill-rule="evenodd" clip-rule="evenodd" d="M476.98 344.004C480.646 342.033 485.063 340.991 487.629 337.717C490.653 333.847 490.045 328.168 492.583 323.968C495.784 318.678 502.767 317.336 507.796 313.728C512.712 310.189 512.041 308.013 514.657 302.569C518.624 294.362 530.016 286.712 537.98 293.439C546.061 300.286 540.859 308.266 536.447 314.07C533.309 318.202 533.789 319.193 532.948 324.31C531.928 330.493 534.043 337.78 529.867 342.468C527.284 345.364 523.006 346.233 520.363 349.082C517.38 352.309 517.267 357.119 516.187 361.393C514.752 367.129 512.232 371.722 508.229 375.422C497.684 374.708 485.454 374.044 471.78 373.443C470.575 371.805 469.615 370 468.932 368.085C465.943 359.61 468.732 348.439 476.98 344.004Z" fill="#E1E1E1"/>
<path fill-rule="evenodd" clip-rule="evenodd" d="M530.52 299.208C530.593 299.132 530.68 299.071 530.776 299.029C530.872 298.987 530.976 298.965 531.081 298.963C531.186 298.961 531.291 298.98 531.388 299.018C531.486 299.057 531.575 299.114 531.651 299.187C531.726 299.26 531.787 299.347 531.829 299.443C531.871 299.539 531.893 299.642 531.895 299.747C531.897 299.852 531.878 299.956 531.84 300.053C531.802 300.151 531.744 300.24 531.672 300.315C530.105 301.949 528.636 303.674 527.272 305.48C527.57 305.379 527.868 305.289 528.167 305.2C529.568 304.816 531.01 304.596 532.462 304.545C532.567 304.541 532.672 304.558 532.77 304.594C532.869 304.631 532.959 304.686 533.036 304.758C533.113 304.829 533.175 304.915 533.219 305.01C533.263 305.105 533.287 305.208 533.291 305.313C533.299 305.524 533.223 305.73 533.079 305.885C532.936 306.04 532.736 306.132 532.525 306.141C531.195 306.184 529.876 306.384 528.593 306.736C527.463 307.05 526.378 307.508 525.366 308.099C522.517 312.18 519.847 316.732 517.127 321.587C518.472 320.666 519.894 319.862 521.378 319.184C523.703 318.108 526.208 317.471 528.766 317.306C528.977 317.294 529.185 317.366 529.343 317.506C529.501 317.646 529.597 317.843 529.61 318.053C529.623 318.264 529.55 318.472 529.409 318.63C529.268 318.788 529.07 318.883 528.859 318.896C526.495 319.054 524.18 319.645 522.031 320.64C519.564 321.793 517.266 323.275 515.2 325.045L514.472 326.361C512.87 329.257 511.221 332.228 509.491 335.237C509.476 335.269 509.459 335.298 509.44 335.327C507.629 338.47 505.726 341.661 503.674 344.852C506.16 343.159 508.807 341.713 511.576 340.536C515.245 338.959 519.166 338.046 523.155 337.839C523.26 337.834 523.365 337.849 523.464 337.885C523.563 337.92 523.654 337.975 523.732 338.045C523.81 338.116 523.873 338.201 523.918 338.296C523.963 338.391 523.989 338.493 523.994 338.598C524.002 338.81 523.927 339.016 523.784 339.172C523.641 339.328 523.442 339.422 523.23 339.432C519.428 339.634 515.691 340.506 512.193 342.006C508.229 343.724 504.517 345.969 501.156 348.68C498.231 352.989 495.053 357.121 491.638 361.054C489.906 363.039 488.072 364.993 486.137 366.918C489.131 365.966 492.213 365.318 495.337 364.983C499.688 364.526 504.083 364.686 508.39 365.46C508.599 365.496 508.785 365.613 508.907 365.786C509.03 365.959 509.079 366.174 509.043 366.382C509.006 366.591 508.888 366.776 508.714 366.898C508.54 367.02 508.325 367.068 508.115 367.031C503.944 366.287 499.688 366.135 495.474 366.582C491.287 367.039 487.183 368.068 483.277 369.639C481.765 371.028 480.189 372.394 478.549 373.738L476.139 373.628C481.284 369.557 486.042 365.021 490.352 360.078C492.169 356.564 493.289 352.733 493.651 348.796C494.049 344.68 493.734 340.253 492.706 335.514C492.659 335.31 492.696 335.095 492.808 334.917C492.92 334.739 493.097 334.612 493.302 334.565C493.507 334.52 493.722 334.557 493.9 334.669C494.078 334.78 494.205 334.956 494.254 335.16C495.324 340.058 495.649 344.649 495.229 348.933C495.003 351.307 494.523 353.65 493.798 355.922C499.393 348.906 503.939 341.634 507.987 334.606C508.442 331.553 508.614 328.464 508.5 325.379C508.363 322.765 507.924 320.608 507.182 318.908C507.14 318.812 507.117 318.708 507.115 318.604C507.113 318.499 507.131 318.395 507.17 318.297C507.208 318.199 507.265 318.11 507.338 318.035C507.41 317.959 507.497 317.899 507.593 317.857C507.787 317.773 508.007 317.769 508.203 317.846C508.4 317.923 508.558 318.074 508.643 318.268C509.465 320.149 509.949 322.493 510.096 325.301C510.183 327.234 510.143 329.17 509.977 331.097C511.03 329.228 512.065 327.382 513.061 325.563L513.843 324.149C513.856 324.122 513.871 324.095 513.887 324.069C519.242 314.463 524.211 305.736 530.52 299.208Z" fill="white"/>
<path fill-rule="evenodd" clip-rule="evenodd" d="M255.961 80.9858C254.973 94.5177 252.978 96.3841 240.047 97.4259C252.975 98.4677 254.961 100.334 255.961 113.863C256.948 100.334 258.944 98.4677 271.875 97.4259C258.95 96.3841 256.96 94.5177 255.961 80.9858ZM308.505 116.67C307.977 123.894 306.909 124.889 300.009 125.445C306.909 126.002 307.977 126.999 308.505 134.223C309.033 126.999 310.098 126.002 317 125.445C310.098 124.889 309.033 123.894 308.505 116.67ZM285.492 61.0779C284.958 68.3915 283.878 69.4125 276.889 69.9662C283.878 70.5288 284.958 71.5408 285.492 78.8545C286.026 71.5408 287.108 70.5198 294.097 69.9662C287.108 69.4006 286.026 68.3915 285.492 61.0779Z" fill="white"/>
<path fill-rule="evenodd" clip-rule="evenodd" d="M236.906 302.804C237.708 313.764 239.328 315.276 249.801 316.121C239.328 316.967 237.708 318.479 236.906 329.439C236.106 318.479 234.487 316.967 224.014 316.121C234.487 315.276 236.106 313.764 236.906 302.804ZM194.34 331.71C194.769 337.562 195.631 338.372 201.224 338.821C195.631 339.271 194.769 340.081 194.34 345.933C193.913 340.081 193.045 339.271 187.455 338.821C193.045 338.372 193.913 337.562 194.34 331.71ZM212.98 286.676C213.412 292.603 214.289 293.418 219.954 293.877C214.286 294.332 213.412 295.151 212.98 301.077C212.55 295.151 211.673 294.332 206.009 293.877C211.673 293.418 212.55 292.603 212.992 286.676H212.98Z" fill="white"/>
<path fill-rule="evenodd" clip-rule="evenodd" d="M404.197 275.794C403.585 284.188 402.344 285.343 394.326 285.989C402.344 286.638 403.573 287.795 404.197 296.187C404.808 287.795 406.052 286.638 414.067 285.989C406.052 285.343 404.82 284.203 404.197 275.794ZM436.788 297.928C436.46 302.408 435.801 303.027 431.517 303.369C435.801 303.718 436.46 304.334 436.788 308.814C437.116 304.334 437.778 303.718 442.059 303.369C437.778 303.027 437.116 302.408 436.788 297.928ZM422.515 263.446C422.184 267.983 421.515 268.608 417.178 268.959C421.515 269.307 422.184 269.935 422.515 274.472C422.846 269.935 423.517 269.307 427.854 268.959C423.517 268.599 422.846 267.974 422.515 263.437V263.446Z" fill="white"/>
<path fill-rule="evenodd" clip-rule="evenodd" d="M149.817 157.736C149.328 158.394 151.117 159.796 150.357 160.046C150.151 165.466 137.145 172.593 134.786 170.19C131.505 166.851 135.803 148.91 129.658 146.972C117.175 143.079 108.131 163.046 102.729 160.811C91.7336 156.298 82.1464 132.804 98.4928 119.935C106.454 110.199 98.5346 78.5211 116.28 72.6571C140.048 62.4114 159.896 144.552 149.817 157.736Z" fill="#1A2E35"/>
<path fill-rule="evenodd" clip-rule="evenodd" d="M104.978 209.462C103.188 211.018 101.249 211.652 98.979 211.179C101.109 212.789 104.068 211.554 104.978 209.462Z" fill="#F48A67"/>
<path fill-rule="evenodd" clip-rule="evenodd" d="M96.9568 363.578C97.2968 361.176 96.5392 357.048 94.6599 350.585C98.3886 350.585 101.521 348.948 105.339 349.005C106.38 355.083 107.994 365.058 107.994 365.058L108.167 372.946L81.6187 373.142C81.6187 373.142 81.8424 373.258 89.6725 368.323C90.2423 367.957 96.6316 365.897 96.9568 363.578Z" fill="#FFB17D"/>
<path fill-rule="evenodd" clip-rule="evenodd" d="M108.292 374.967H80.8966C79.8824 374.878 79.6319 374.053 79.9839 373.547C80.7088 372.496 86.0541 369.975 89.6485 368.317C95.9455 368.978 107.03 366.388 108.023 364.936C109.738 369.755 108.85 374.845 108.292 374.967Z" fill="#1A2E35"/>
<path fill-rule="evenodd" clip-rule="evenodd" d="M130.019 363.578C130.36 361.176 130.932 358.17 130.091 350.165C133.823 350.165 137.375 349.475 141.184 349.528C141.184 355.779 141.056 365.058 141.056 365.058L141.223 372.946L114.675 373.142C114.675 373.142 114.899 373.258 122.729 368.323C123.308 367.957 129.7 365.897 130.019 363.578Z" fill="#FFB17D"/>
<path fill-rule="evenodd" clip-rule="evenodd" d="M141.351 374.967H113.959C112.945 374.878 112.703 374.053 113.064 373.547C113.783 372.496 119.131 369.975 122.726 368.317C129.026 368.978 140.098 366.388 141.095 364.936C142.807 369.755 141.915 374.845 141.351 374.967Z" fill="#1A2E35"/>
<path fill-rule="evenodd" clip-rule="evenodd" d="M110.732 134.834L100.745 124.326C100.745 124.326 89.1475 131.86 76.6908 137.465C72.3388 133.36 68.3148 115.405 68.2849 109.347C67.9866 108.404 67.0709 95.7441 65.5466 95.4494C64.0224 95.1547 65.4452 100.212 63.8225 99.5393C62.1998 98.8666 60.5115 86.2961 59.5361 87.1296C57.7135 88.6864 63.5958 96.3751 62.6323 96.9526C61.6688 97.5301 59.2318 88.1655 57.3795 88.5614C55.5271 88.9573 55.1989 100.697 56.231 103.585C57.6479 106.508 60.2341 107.654 61.0932 113.199C61.9523 118.745 64.2938 148.368 70.3402 150.75C75.6319 152.828 110.732 134.834 110.732 134.834Z" fill="#FFB17D"/>
<path fill-rule="evenodd" clip-rule="evenodd" d="M104.28 191.536L112.375 196.043L128.835 221.154L99.4025 290.287C99.4025 290.287 102.722 300.687 103.799 305.879C104.927 311.311 107.701 357.97 107.701 357.97L95.1399 358.185C95.1399 358.185 83.2083 308.525 81.1948 292.4C78.7607 272.817 93.6753 226.211 93.6753 226.211C96.4554 216.704 102.457 197.138 102.457 197.138C102.457 197.138 103.931 192.367 104.28 191.536Z" fill="#1A2E35"/>
<path fill-rule="evenodd" clip-rule="evenodd" d="M132.453 182.103C132.453 182.103 131.615 188.009 134.965 194.748C137.005 198.853 140.531 202.079 143.06 207.104C147.833 216.629 150.434 230.152 148.641 238.847C148.641 238.847 138.762 276.499 139.153 290.257C139.296 295.332 141.038 304.477 142.156 310.656C143.144 316.115 143.478 357.33 143.478 357.33L129.458 356.908L118.72 290.43L114.177 231.34L104.271 191.536L132.453 182.103Z" fill="#1A2E35"/>
<path fill-rule="evenodd" clip-rule="evenodd" d="M99.8204 141.442C95.3461 143.505 87.2594 146.594 87.2594 146.594L82.6567 132.068C108.683 117.292 106.633 119.679 126.162 119.965C141.769 120.191 148.314 117.212 161.749 153.414C161.749 153.414 151.52 157.998 147.854 159.471C146.279 155.006 143.437 146.076 141.775 151.161C139.279 158.807 137.413 166.643 136.197 174.593C135.416 179.326 133.718 185.389 134.607 190.209C134.607 190.209 123.982 192.393 115.865 192.751H115.794C111.874 192.649 107.859 192.304 104.28 191.536C104.28 191.536 102.687 157.962 101.84 156.557C100.897 155.009 96.921 150.009 100.301 142.496C100.906 141.171 100.745 141.019 99.8204 141.442Z" fill="#39D192"/>
<path fill-rule="evenodd" clip-rule="evenodd" d="M124.244 105.639C124.244 105.639 125.438 115.229 126.139 118.551C126.869 122.034 127.973 133.009 120.736 134.789C113.5 136.569 115.74 122.853 115.615 119.31C115.49 115.768 113.449 103.421 113.449 103.421L124.244 105.639Z" fill="#FFB17D"/>
<path fill-rule="evenodd" clip-rule="evenodd" d="M125.265 113.056L125.044 113.193C121.047 115.476 117.563 115.119 114.953 113.339C114.484 110.273 114.076 107.782 114.076 107.782L124.874 109.996C124.874 109.996 125.032 111.276 125.265 113.056Z" fill="#F27960"/>
<path fill-rule="evenodd" clip-rule="evenodd" d="M120.868 85.2186C123.76 85.844 126.331 87.483 128.116 89.8384C131.012 93.7408 133.569 105.615 125.199 111.723C116.829 117.831 109.553 110.345 108.969 102.644C108.384 94.9433 109.38 84.5518 120.868 85.2186Z" fill="#FFB17D"/>
<path fill-rule="evenodd" clip-rule="evenodd" d="M133.348 103.707C138.926 97.4557 139.207 100.73 140.066 91.9072C140.266 67.6027 110.278 67.3854 111.749 80.4053C109.246 83.2034 111.334 84.531 113.506 86.311C131.618 101.176 131.982 83.2778 133.348 103.707Z" fill="#1A2E35"/>
<path fill-rule="evenodd" clip-rule="evenodd" d="M111.94 78.7384C113.658 78.8952 114.624 78.3852 114.839 77.2084C113.62 75.0255 111.911 73.7049 109.711 73.2465C110.672 74.0363 111.415 75.8669 111.94 78.7384Z" fill="#1A2E35"/>
<path fill-rule="evenodd" clip-rule="evenodd" d="M111.534 78.8307C110.407 79.051 109.995 78.6402 110.299 77.5983C111.862 75.602 113.412 74.3459 114.95 73.8299C114.059 74.58 112.92 76.2469 111.534 78.8307Z" fill="#1A2E35"/>
<path fill-rule="evenodd" clip-rule="evenodd" d="M108.292 101.299C107.441 97.1312 108.292 92.8895 109.142 88.7102C110.404 82.4592 114.845 85.2305 112.841 88.2846C108.933 94.2468 110.004 92.2852 108.292 101.299Z" fill="#1A2E35"/>
<path fill-rule="evenodd" clip-rule="evenodd" d="M114.639 82.7688C116.203 81.5245 116.6 80.3239 115.833 79.167C113.06 78.3216 110.569 78.5846 108.357 79.9558C109.799 79.8487 111.893 80.7863 114.639 82.7688Z" fill="#1A2E35"/>
<path fill-rule="evenodd" clip-rule="evenodd" d="M114.717 84.8733C112.951 85.0638 112.101 85.8526 112.175 87.2397C113.931 89.4544 115.972 90.5895 118.296 90.645C117.137 89.9505 115.944 88.0266 114.717 84.8733Z" fill="#1A2E35"/>
<path fill-rule="evenodd" clip-rule="evenodd" d="M107.79 94.3212C107.71 95.9822 108.42 97.3783 109.386 97.4229C110.353 97.4676 111.206 96.1668 111.286 94.4968C111.367 92.8269 110.657 91.4368 109.693 91.3922C108.73 91.3475 107.874 92.6573 107.79 94.3212Z" fill="#FFB17D"/>
<path fill-rule="evenodd" clip-rule="evenodd" d="M129.676 97.1312C129.572 98.8338 130.416 100.278 131.564 100.355C132.713 100.432 133.721 99.1166 133.825 97.408C133.93 95.6994 133.095 94.2617 131.943 94.1843C130.792 94.1069 129.787 95.4226 129.676 97.1312Z" fill="#FFB17D"/>
<path fill-rule="evenodd" clip-rule="evenodd" d="M114.595 119.656C114.595 127.949 115.12 131.806 116.898 134C117.244 134.433 117.664 134.802 118.138 135.09C118.097 135.229 118.077 135.373 118.079 135.518C118.081 135.771 118.139 136.019 118.247 136.248C118.355 136.476 118.511 136.678 118.705 136.84C118.592 137.018 118.531 137.224 118.529 137.435C118.534 137.667 118.605 137.893 118.734 138.086C118.863 138.279 119.045 138.431 119.257 138.525C119.18 138.631 119.139 138.759 119.138 138.891C119.149 139.084 119.237 139.264 119.381 139.394C119.525 139.523 119.714 139.59 119.907 139.581C120.101 139.591 120.291 139.524 120.435 139.395C120.579 139.265 120.666 139.084 120.677 138.891C120.676 138.759 120.634 138.63 120.558 138.522C120.77 138.428 120.951 138.277 121.081 138.084C121.21 137.892 121.282 137.667 121.288 137.435C121.288 137.308 121.266 137.183 121.223 137.063C121.509 136.914 121.749 136.691 121.918 136.417C122.087 136.143 122.179 135.828 122.183 135.506C122.184 135.31 122.148 135.116 122.079 134.932C122.521 134.665 122.928 134.344 123.29 133.976C125.626 131.64 127.836 126.832 127.535 119.968H126.386C126.917 126.466 124.769 131.137 122.604 133.304C122.277 133.633 121.909 133.92 121.509 134.155C121.119 133.842 120.632 133.673 120.131 133.679C119.578 133.674 119.044 133.882 118.64 134.259C118.259 134.032 117.924 133.736 117.652 133.387C116.018 131.378 115.621 127.109 115.624 119.671L114.595 119.656Z" fill="#0EAD65"/>
<path fill-rule="evenodd" clip-rule="evenodd" d="M83.9688 131.327C85.2514 135.399 86.2656 138.596 87.0561 141.061C87.8466 143.525 88.3984 145.207 88.6907 146.041L89.3858 145.773C89.0875 144.942 88.5535 143.305 87.76 140.835C86.9666 138.364 85.9226 135.03 84.6369 130.946L83.9688 131.327Z" fill="#0EAD65"/>
<path fill-rule="evenodd" clip-rule="evenodd" d="M161.089 151.667C157.48 152.957 154.485 154.064 152.105 154.989C149.751 155.902 148.087 156.608 147.034 157.138L147.278 157.837C148.313 157.319 150.043 156.581 152.376 155.673C154.709 154.765 157.674 153.673 161.343 152.363L161.089 151.667Z" fill="#0EAD65"/>
<path fill-rule="evenodd" clip-rule="evenodd" d="M160.645 150.497C157.038 151.783 154.043 152.889 151.66 153.816C149.31 154.733 147.672 155.42 146.613 155.953L146.867 156.653C147.905 156.138 149.593 155.411 151.938 154.503C154.282 153.596 157.253 152.503 160.922 151.193L160.645 150.497Z" fill="#0EAD65"/>
<path fill-rule="evenodd" clip-rule="evenodd" d="M85.168 130.645C86.4536 134.721 87.4529 137.87 88.2464 140.334C89.0398 142.799 89.6602 144.713 89.9526 145.55L90.6536 145.273C90.3553 144.442 89.7378 142.594 88.9473 140.108C88.1568 137.623 87.1188 134.354 85.8332 130.285L85.168 130.645Z" fill="#0EAD65"/>
<path fill-rule="evenodd" clip-rule="evenodd" d="M166.968 312.017C168.209 334.818 156.667 355.621 132.343 374.425C182.058 376.051 205.002 368.41 201.173 351.505C199.837 340.087 190.42 325.041 172.922 306.37C168.255 309.539 166.27 311.421 166.968 312.017Z" fill="#A3CFFB"/>
<path fill-rule="evenodd" clip-rule="evenodd" d="M166.458 309.055C172.623 341.532 161.215 364.069 132.235 376.667C197.834 383.146 211.499 359.317 173.232 305.179L166.458 309.055Z" fill="#4F8DCB"/>
<path fill-rule="evenodd" clip-rule="evenodd" d="M180.353 373.107C199.771 364.611 199.003 344.332 178.047 312.27C188.873 339.325 189.641 359.604 180.353 373.107Z" fill="#619FDF"/>
<path fill-rule="evenodd" clip-rule="evenodd" d="M170.897 314.591C188.749 354.768 175.859 375.46 132.227 376.667C161.23 368.699 174.121 348.007 170.897 314.591Z" fill="#619FDF"/>
<path fill-rule="evenodd" clip-rule="evenodd" d="M59.5361 87.1296L172.153 307.644C172.69 308.695 172.046 309.695 171.21 310.534C170.375 311.368 168.851 310.644 168.314 309.591L55.7001 89.0674C55.2735 88.2637 57.4958 83.1319 59.5361 87.1296Z" fill="#619FDF"/>
<path fill-rule="evenodd" clip-rule="evenodd" d="M165.862 307.608L172.407 304.164C172.762 303.979 173.177 303.941 173.56 304.059C173.943 304.178 174.264 304.442 174.453 304.795L175.53 306.834C175.715 307.189 175.752 307.602 175.633 307.985C175.515 308.367 175.251 308.687 174.897 308.876L168.335 312.32C167.98 312.505 167.566 312.542 167.184 312.423C166.801 312.304 166.482 312.039 166.295 311.686L165.215 309.647C165.123 309.471 165.067 309.278 165.05 309.08C165.033 308.882 165.055 308.683 165.115 308.494C165.175 308.304 165.272 308.129 165.4 307.977C165.528 307.825 165.685 307.7 165.862 307.608Z" fill="#619FDF"/>
<path fill-rule="evenodd" clip-rule="evenodd" d="M119.355 199.722C119.17 199.749 118.341 199.642 117.664 199.653C117.075 199.669 116.489 199.721 115.907 199.811C115.578 199.552 115.217 199.337 114.833 199.171C114.535 199.04 114.063 198.987 113.738 198.835C113.413 198.683 113.115 198.391 112.799 198.24C111.969 197.879 111.209 197.799 110.955 198.24C110.746 198.603 115.358 201.413 115.358 201.413C119.632 201.436 124.095 203.612 133.998 197.171C139.642 194.709 167.085 181.177 167.639 178.236C167.953 176.575 163.738 163.773 160.299 154.051C157.647 155.242 152 157.739 148.844 159.058C151.744 165.187 155.159 173.304 154.81 174.298C154.723 174.56 154.375 175.025 135.824 187.146C135.355 187.443 134.875 187.762 134.395 188.083L130.219 190.804L124.933 190.25C124.933 190.25 116.554 190.828 116.298 191.78C116.187 192.218 116.894 192.432 117.741 192.563H117.768C117.888 192.563 118.016 192.596 118.147 192.605C119.075 192.718 120.044 192.736 120.28 192.819C120.724 192.97 121.148 193.176 121.542 193.432C116.312 195.564 116.718 194.804 114.979 194.694C114.541 194.662 114.084 194.793 113.667 194.76C112.969 194.694 112.402 194.281 111.877 194.248C111.309 194.209 110.746 194.377 110.293 194.721C110.105 194.906 110.451 195.177 111.119 195.477C115.155 197.224 118.499 196.552 119.57 196.814C120.289 196.986 118.973 197.257 116.921 197.04C116.414 196.986 115.728 197.171 115.066 197.013C114.609 196.909 114.201 196.62 113.759 196.513C113.318 196.406 112.93 196.415 112.584 196.352C112.133 196.272 111.504 195.924 111.146 195.888C109.804 195.73 109.156 195.968 109.001 196.09C108.703 196.367 114.776 198.698 114.776 198.698C114.776 198.698 118.973 199.293 119.91 199.293C119.889 199.293 120.453 199.558 119.355 199.722Z" fill="#FFB17D"/>
<path fill-rule="evenodd" clip-rule="evenodd" d="M298.601 80.2029H488.234C489.13 80.2061 489.988 80.5628 490.621 81.1952C491.255 81.8277 491.611 82.6844 491.614 83.5785V135.768C491.611 136.662 491.255 137.519 490.621 138.152C489.988 138.784 489.13 139.141 488.234 139.144H298.601C297.705 139.141 296.846 138.785 296.212 138.153C295.578 137.52 295.221 136.663 295.219 135.768V83.5785C295.221 82.6839 295.578 81.8267 296.212 81.1942C296.846 80.5617 297.705 80.2053 298.601 80.2029Z" fill="#39D192"/>
<path fill-rule="evenodd" clip-rule="evenodd" d="M392.763 134.459H295.222V135.768C295.224 136.435 295.424 137.086 295.795 137.639C296.167 138.193 296.693 138.625 297.31 138.882L365.228 139.144H488.249C489.145 139.141 490.003 138.784 490.636 138.152C491.27 137.519 491.626 136.662 491.629 135.768V134.459H392.763Z" fill="#0EAD65"/>
<path fill-rule="evenodd" clip-rule="evenodd" d="M309.173 114.179V80.2029H304.973V114.179C304.98 116.742 306.004 119.199 307.82 121.012C309.637 122.826 312.098 123.848 314.668 123.856H472.165C474.735 123.848 477.196 122.826 479.013 121.012C480.829 119.199 481.853 116.742 481.86 114.179V80.2029H477.657V114.179C477.653 115.631 477.073 117.022 476.044 118.049C475.015 119.076 473.621 119.655 472.165 119.659H314.668C313.212 119.655 311.817 119.076 310.788 118.049C309.758 117.023 309.178 115.631 309.173 114.179Z" fill="#0EAD65"/>
<path fill-rule="evenodd" clip-rule="evenodd" d="M368.542 93.9551H416.982C417.636 93.9567 418.264 94.2168 418.727 94.6785C419.191 95.1403 419.452 95.7663 419.454 96.4198C419.452 97.0733 419.191 97.6992 418.727 98.161C418.264 98.6228 417.636 98.8829 416.982 98.8845H368.542C367.888 98.8821 367.261 98.6216 366.799 98.1598C366.337 97.698 366.077 97.0725 366.075 96.4198C366.077 95.7671 366.337 95.1416 366.799 94.6798C367.261 94.218 367.888 93.9575 368.542 93.9551Z" fill="#0EAD65"/>
<path fill-rule="evenodd" clip-rule="evenodd" d="M296.588 143.073L392.76 143.445L488.932 143.073L474.25 370.963H392.76H311.273L296.588 143.073Z" fill="#39D192"/>
<path fill-rule="evenodd" clip-rule="evenodd" d="M319.482 139.144H298.601C298.153 139.145 297.708 139.056 297.295 138.882H296.591L296.859 143.073L319.732 143.165L392.763 143.463L488.667 143.088L488.923 139.09C488.697 139.138 488.466 139.162 488.234 139.162H420.304L392.754 139.269L365.204 139.162L319.482 139.144Z" fill="#079953"/>
<path fill-rule="evenodd" clip-rule="evenodd" d="M369.5 221.618L381.753 228.218L389.924 214.093L395.239 223.285L389.852 226.452L405.536 225.69L412.51 213.138L407.236 216.236L403.454 209.688C402.261 207.604 400.826 207.149 398.622 207.202H380.885C378.174 207.202 377.568 207.693 376.411 209.685L369.5 221.618Z" fill="white"/>
<path fill-rule="evenodd" clip-rule="evenodd" d="M412.549 225.387L400.695 232.68L408.865 246.801H398.231L398.177 240.55L390.997 254.487L398.401 266.792L398.35 260.684H405.918C408.337 260.684 409.434 259.684 410.493 257.752L419.359 242.425C420.728 240.088 420.593 239.312 419.448 237.308L412.549 225.387Z" fill="white"/>
<path fill-rule="evenodd" clip-rule="evenodd" d="M387.743 260.693L387.34 246.801H371L376.316 237.612L381.759 240.69L373.258 227.512L358.875 227.762L364.205 230.772L360.42 237.32C359.197 239.404 359.525 240.856 360.676 242.741L369.541 258.065C370.887 260.419 371.629 260.69 373.938 260.702L387.743 260.693Z" fill="white"/>
<path fill-rule="evenodd" clip-rule="evenodd" d="M310.467 366.769H475.056C475.711 366.771 476.34 367.031 476.803 367.494C477.267 367.956 477.529 368.583 477.531 369.237C477.529 369.891 477.267 370.517 476.803 370.979C476.339 371.441 475.711 371.701 475.056 371.702H310.467C309.813 371.699 309.186 371.439 308.724 370.977C308.261 370.515 308 369.89 307.998 369.237C307.999 368.584 308.26 367.957 308.723 367.495C309.185 367.032 309.813 366.772 310.467 366.769Z" fill="#4F8DCB"/>
<path fill-rule="evenodd" clip-rule="evenodd" d="M331.067 235.376C334.032 237.356 335.998 240.648 335.649 244.33C332.386 278.797 329.475 302.14 327.664 325.093C325.728 349.636 335.22 373.991 306.685 374.053C281.984 374.11 241.574 374.134 237.684 374.134C231.701 374.134 227.328 369.204 226.764 363.236L215.503 244.33C215.157 240.645 217.117 237.353 220.082 235.376H331.067Z" fill="#1A2E35"/>
<path fill-rule="evenodd" clip-rule="evenodd" d="M290.196 199.912L311.016 190.476L323.998 184.592L318.656 172.861C317.829 171.057 316.321 169.654 314.461 168.957C312.601 168.26 310.54 168.325 308.728 169.14L301.379 172.471L282.524 181.017L277.274 173.917C276.633 173.053 275.881 172.277 275.036 171.61C274.872 171.479 274.702 171.357 274.532 171.235C273.887 170.789 273.193 170.42 272.462 170.134C271.482 169.75 270.433 169.569 269.381 169.602C268.328 169.635 267.293 169.88 266.338 170.324L235.465 184.315C234.503 184.738 233.636 185.352 232.918 186.12C232.2 186.887 231.646 187.792 231.289 188.78C230.606 190.744 230.502 192.863 230.991 194.885L232.891 203.517L206.686 215.397C204.879 216.222 203.473 217.727 202.775 219.583C202.077 221.439 202.143 223.496 202.96 225.303L208.3 237.037L289.951 200.037L290.196 199.924V199.912ZM275.931 184.011L239.474 200.538L237.893 193.394C237.711 192.71 237.72 191.989 237.92 191.31C237.959 191.195 238.021 191.09 238.102 191C238.183 190.91 238.281 190.837 238.391 190.786L269.265 176.796C269.376 176.748 269.496 176.723 269.618 176.723C269.74 176.723 269.86 176.748 269.972 176.796C270.617 177.098 271.167 177.572 271.561 178.165L275.931 184.011Z" fill="#1A2E35"/>
<path fill-rule="evenodd" clip-rule="evenodd" d="M259.039 276.728L271.293 283.327L279.463 269.203L284.782 278.392L279.391 281.562L295.076 280.8L302.053 268.248L296.776 271.346L292.994 264.798C291.8 262.714 290.369 262.259 288.161 262.309H270.428C267.716 262.309 267.108 262.8 265.939 264.792L259.039 276.728Z" fill="white"/>
<path fill-rule="evenodd" clip-rule="evenodd" d="M302.074 280.5L290.219 287.792L298.39 301.914H287.756L287.705 295.663L280.522 309.599L287.926 321.905L287.875 315.797H295.445C297.862 315.797 298.959 314.794 300.021 312.865L308.884 297.538C310.256 295.198 310.121 294.424 308.973 292.421L302.074 280.5Z" fill="white"/>
<path fill-rule="evenodd" clip-rule="evenodd" d="M277.285 315.806L276.883 301.914H260.539L265.855 292.725L271.302 295.8L262.806 282.64L248.426 282.887L253.753 285.896L249.968 292.445C248.745 294.529 249.073 295.984 250.224 297.866L259.09 313.192C260.438 315.544 261.178 315.815 263.489 315.83L277.285 315.806Z" fill="white"/>
<path fill-rule="evenodd" clip-rule="evenodd" d="M180.738 209.729C179.345 228.813 176.523 231.459 158.292 232.918C176.523 234.388 179.345 237.02 180.738 256.106C182.131 237.02 184.953 234.376 203.184 232.918C184.953 231.441 182.131 228.813 180.738 209.729Z" fill="white"/>
<path fill-rule="evenodd" clip-rule="evenodd" d="M58.0026 229.861C57.2121 240.66 55.6163 242.148 45.2954 242.985C55.6193 243.815 57.227 245.304 58.0026 256.106C58.7901 245.304 60.3889 243.815 70.7038 242.985C60.3859 242.157 58.7901 240.669 58.0026 229.861Z" fill="white"/>
<path fill-rule="evenodd" clip-rule="evenodd" d="M55.0406 184.595C54.2531 195.394 52.6543 196.885 42.3394 197.716C52.6573 198.546 54.2531 200.037 55.0406 210.837C55.8311 200.037 57.427 198.546 67.7449 197.716C57.43 196.885 55.8311 195.394 55.0406 184.595Z" fill="white"/>
<path fill-rule="evenodd" clip-rule="evenodd" d="M193.442 120.162C192.654 130.961 191.056 132.452 180.738 133.283C191.059 134.113 192.669 135.605 193.442 146.404C194.229 135.605 195.828 134.113 206.146 133.283C195.825 132.452 194.229 130.961 193.442 120.162Z" fill="white"/>
<path d="M503.313 234.263C510.329 234.263 516.017 228.387 516.017 221.139C516.017 213.891 510.329 208.015 503.313 208.015C496.296 208.015 490.608 213.891 490.608 221.139C490.608 228.387 496.296 234.263 503.313 234.263Z" fill="white"/>
</svg>
