<svg width="511" height="451" viewBox="0 0 511 451" fill="none" xmlns="http://www.w3.org/2000/svg">
<path d="M266.368 0.0639928C329.016 -1.47238 386.217 24.3386 418.696 66.9906C484 152.746 496.1 238.435 452.279 283.474C443.143 292.865 417.045 315.424 378.435 323.5C316.16 336.526 289.074 297.704 237.596 307.697C169.471 320.933 162.232 399.525 116.443 401.881C72.7512 404.127 24.9181 335.345 17.859 270.415C5.63792 158.01 111.047 15.1606 249.462 1.12527C255.19 0.546964 260.826 0.193205 266.368 0.0639928Z" fill="#F5F5F5"/>
<path d="M414.528 248.748C414.528 248.748 435.108 229.997 432.339 220.639C429.57 211.282 434.307 200.917 427.921 189.631C421.535 178.344 418.63 180.256 403.611 177.538C388.593 174.82 386.285 166.639 372.984 176.874C359.943 186.908 362.764 193.183 379.242 194.649C389.106 195.53 401.246 192.682 402.38 210.615C403.777 232.58 414.528 248.748 414.528 248.748Z" fill="#39D192"/>
<path d="M423.097 289.277C418.117 285.623 424.387 271.328 433.965 264.475C440.58 259.748 446.176 265.052 455.699 259.008C462.43 254.74 462.624 250.201 467.613 249.712C473.52 249.133 475.041 255.29 483.976 258.221C492.575 261.032 495.29 256.678 500.476 259.557C509.987 264.839 514.558 287.098 507.676 292.929C503.464 296.498 495.708 283.328 485.273 286.292C480.076 287.769 479.764 291.516 474.663 292.201C467.519 293.146 464.752 286.242 457.608 284.165C443.819 280.094 428.666 293.359 423.097 289.277Z" fill="#39D192"/>
<path d="M375.547 384.842C383.816 358.489 393.476 332.369 406.815 308.134C410.259 302.145 413.971 296.248 418.604 291.095C429.981 278.168 445.269 268.141 462.385 265.095C465.787 264.511 469.248 264.133 472.702 264.301C469.25 264.152 465.789 264.537 462.394 265.151C442.009 268.933 423.973 282.432 412.445 299.424C406.694 308.052 401.995 317.331 397.634 326.724C388.999 345.577 381.782 365.067 375.547 384.839V384.842Z" fill="#23635A"/>
<path d="M389.016 333.888C394.601 314.892 403.647 284.874 409.402 265.671C413.617 251.459 418.023 237.277 421.415 222.837C422.745 216.456 425.129 207.053 422.516 200.957C421.908 199.6 421.05 198.37 419.986 197.331C421.056 198.364 421.924 199.59 422.542 200.943C425.207 207.088 422.88 216.46 421.55 222.863C414.869 250.939 397.325 305.555 389.016 333.886V333.888Z" fill="#23635A"/>
<path d="M393.479 343.428C393.479 343.428 394.405 320.187 401.972 317.192C409.539 314.197 413.895 305.728 424.592 304.1C435.29 302.471 435.535 305.367 445.061 313.824C454.586 322.281 461.145 319.579 461.291 333.593C461.433 347.331 455.857 348.72 446.407 338.649C440.738 332.626 436.348 323.186 423.999 331.69C408.868 342.095 393.479 343.428 393.479 343.428Z" fill="#39D192"/>
<path d="M378.527 385.565C384.178 364.013 392.605 338.715 408.587 322.654C410.986 320.299 413.641 318.221 416.504 316.459C413.666 318.25 411.037 320.353 408.667 322.73C392.869 338.732 384.398 364.202 378.527 385.558V385.565Z" fill="#23635A"/>
<path d="M270.795 62.9227H235.788V93.4492H270.795V62.9227Z" fill="#376572"/>
<path d="M276.628 80.2743H229.953V48.8C244.855 44.4934 261.726 44.4934 276.628 48.8V80.2743Z" fill="#375A64"/>
<path d="M232.896 50.7122C239.407 52.7591 246.311 53.3264 253.105 53.298C256.515 53.2377 259.918 52.9851 263.299 52.5417L264.568 52.388L265.829 52.1777C266.67 52.0264 268.797 51.7049 269.609 51.5111L273.363 50.7122L269.626 51.5962C268.22 51.9389 266.018 52.2793 264.594 52.5417L260.781 53.0451C251.484 53.967 241.82 53.6904 232.904 50.7028L232.896 50.7122Z" fill="#78C9E5"/>
<path d="M232.911 56.3589C232.835 59.8571 232.797 63.3624 232.911 66.8606C233 69.9097 233.189 72.9895 233.752 75.9937L234.056 77.27C232.998 73.9184 232.828 70.3564 232.674 66.87C232.573 63.3654 232.652 59.8578 232.911 56.3612V56.3589Z" fill="#78C9E5"/>
<path d="M239.202 57.5431C239.251 60.4787 239.289 64.556 239.367 67.4444C239.445 70.3327 239.474 73.2235 239.861 76.0811C239.912 76.4881 240.019 76.8859 240.18 77.263C239.993 76.891 239.865 76.4923 239.8 76.0811C239.277 73.2448 239.237 70.3233 239.131 67.4396C239.07 64.1305 239.07 60.8333 239.202 57.5312V57.5431Z" fill="#78C9E5"/>
<path d="M246.299 58.6776C246.249 64.1565 246.098 69.7206 247.138 75.1238L247.414 76.1875C246.441 73.4031 246.259 70.4107 246.11 67.4893C246.004 64.5509 246.067 61.6088 246.299 58.6776V58.6776Z" fill="#78C9E5"/>
<path d="M272.813 56.3589C273.071 59.8555 273.15 63.363 273.049 66.8677C272.895 70.3564 272.725 73.9184 271.667 77.2677L271.974 75.9914C272.534 72.9872 272.725 69.9073 272.813 66.8582C272.933 63.36 272.895 59.8548 272.813 56.3566V56.3589Z" fill="#78C9E5"/>
<path d="M266.521 57.5431C266.651 60.8522 266.651 64.1471 266.59 67.4515C266.486 70.3351 266.446 73.2471 265.921 76.093C265.857 76.5044 265.729 76.9033 265.541 77.2748C265.704 76.8985 265.812 76.5003 265.86 76.093C266.25 73.2353 266.271 70.3375 266.356 67.4562C266.441 64.5749 266.472 60.4693 266.521 57.5549V57.5431Z" fill="#78C9E5"/>
<path d="M259.425 58.6776C259.656 61.6088 259.718 64.5509 259.611 67.4893C259.462 70.4107 259.281 73.3984 258.31 76.1875L258.584 75.1238C259.623 69.7229 259.474 64.1542 259.425 58.6776Z" fill="#78C9E5"/>
<path d="M252.963 58.6777C253.086 61.5968 253.103 64.5182 253.096 67.4397C253.025 70.3564 253.096 73.3015 252.637 76.1852L252.701 75.6415C252.963 70.0964 252.81 64.2299 252.963 58.6753V58.6777Z" fill="#78C9E5"/>
<path d="M259.987 408.254C335.546 408.254 396.798 407.013 396.798 405.483C396.798 403.953 335.546 402.713 259.987 402.713C184.428 402.713 123.176 403.953 123.176 405.483C123.176 407.013 184.428 408.254 259.987 408.254Z" fill="#E4E4E4"/>
<path d="M255.999 387.158C333.632 387.158 396.567 324.193 396.567 246.521C396.567 168.85 333.632 105.884 255.999 105.884C178.366 105.884 115.432 168.85 115.432 246.521C115.432 324.193 178.366 387.158 255.999 387.158Z" fill="#F1F8FA"/>
<path d="M287.03 239.896C316.327 239.896 340.077 216.134 340.077 186.823C340.077 157.511 316.327 133.749 287.03 133.749C257.733 133.749 233.983 157.511 233.983 186.823C233.983 216.134 257.733 239.896 287.03 239.896Z" fill="white"/>
<path d="M131.438 331.707C131.438 331.707 106.582 403.363 114.132 405.415C121.683 407.466 175.616 362.099 175.616 362.099L131.438 331.707Z" fill="#3D64A1"/>
<path d="M255.996 88.989C169.036 88.989 98.542 159.518 98.542 246.521C98.542 333.525 169.036 404.053 255.996 404.053C342.957 404.053 413.451 333.525 413.451 246.521C413.451 159.518 342.957 88.989 255.996 88.989ZM255.996 387.156C178.363 387.156 115.429 324.193 115.429 246.519C115.429 168.845 178.361 105.882 255.996 105.882C333.632 105.882 396.564 168.847 396.564 246.519C396.564 324.19 333.63 387.156 255.996 387.156Z" fill="#375A64"/>
<g style="mix-blend-mode:multiply" opacity="0.23">
<path d="M250.521 253.149H259.852L255.186 170.298L250.521 253.149Z" fill="#78C9E5"/>
</g>
<path d="M249.141 251.248H258.47L253.804 168.398L249.141 251.248Z" fill="#39D192"/>
<g style="mix-blend-mode:multiply" opacity="0.23">
<path d="M250.804 250.752L257.866 256.855L326.018 170.809L250.804 250.752Z" fill="#78C9E5"/>
</g>
<path d="M249.424 248.852L256.483 254.957L324.636 168.909L249.424 248.852Z" fill="#39D192"/>
<g style="mix-blend-mode:multiply" opacity="0.23">
<path d="M253.804 260.417C260.246 260.417 265.468 255.192 265.468 248.748C265.468 242.303 260.246 237.078 253.804 237.078C247.363 237.078 242.141 242.303 242.141 248.748C242.141 255.192 247.363 260.417 253.804 260.417Z" fill="#78C9E5"/>
</g>
<g style="mix-blend-mode:multiply" opacity="0.23">
<path d="M253.804 264.849C260.246 264.849 265.468 259.624 265.468 253.18C265.468 246.735 260.246 241.51 253.804 241.51C247.363 241.51 242.141 246.735 242.141 253.18C242.141 259.624 247.363 264.849 253.804 264.849Z" fill="#78C9E5"/>
</g>
<path d="M253.804 262.918C260.246 262.918 265.468 257.693 265.468 251.248C265.468 244.804 260.246 239.579 253.804 239.579C247.363 239.579 242.141 244.804 242.141 251.248C242.141 257.693 247.363 262.918 253.804 262.918Z" fill="#39D192"/>
<g style="mix-blend-mode:multiply" opacity="0.23">
<path d="M248.605 254.794C249.512 257.791 252.786 259.266 255.312 258.545C258.796 257.555 260.415 252.515 258.272 249.662C256.899 247.828 254.107 247.062 251.761 248.081C250.51 248.626 249.5 249.608 248.919 250.843C248.339 252.078 248.227 253.482 248.605 254.794V254.794Z" fill="#78C9E5"/>
</g>
<path d="M255.997 113.202C256.248 115.433 256.367 117.677 256.351 119.922C256.368 122.168 256.25 124.413 255.997 126.644C255.745 124.412 255.627 122.168 255.642 119.922C255.628 117.677 255.746 115.433 255.997 113.202V113.202Z" fill="#78C9E5"/>
<path d="M189.37 131.062C190.702 132.87 191.926 134.755 193.037 136.706C194.172 138.644 195.192 140.647 196.089 142.705C194.755 140.898 193.531 139.012 192.422 137.058C191.287 135.121 190.268 133.118 189.37 131.06V131.062Z" fill="#78C9E5"/>
<path d="M140.597 179.862C142.654 180.758 144.655 181.777 146.59 182.913C148.547 184.021 150.434 185.246 152.244 186.582C150.186 185.685 148.183 184.665 146.248 183.528C144.298 182.418 142.415 181.193 140.609 179.862H140.597Z" fill="#78C9E5"/>
<path d="M122.744 246.521C124.973 246.269 127.216 246.151 129.46 246.167C131.705 246.15 133.949 246.268 136.179 246.521C133.948 246.773 131.705 246.891 129.46 246.876C127.216 246.89 124.974 246.772 122.744 246.521V246.521Z" fill="#78C9E5"/>
<path d="M140.597 313.181C142.402 311.848 144.285 310.623 146.236 309.512C148.172 308.377 150.175 307.357 152.232 306.458C150.427 307.794 148.543 309.019 146.59 310.127C144.655 311.263 142.653 312.282 140.597 313.181V313.181Z" fill="#78C9E5"/>
<path d="M189.37 361.978C190.268 359.921 191.287 357.918 192.422 355.982C193.531 354.028 194.755 352.144 196.089 350.337C195.192 352.396 194.173 354.399 193.037 356.336C191.927 358.288 190.703 360.172 189.37 361.978V361.978Z" fill="#78C9E5"/>
<path d="M255.997 379.84C255.746 377.609 255.628 375.365 255.642 373.12C255.627 370.874 255.745 368.63 255.997 366.398C256.25 368.63 256.368 370.874 256.351 373.12C256.367 375.365 256.248 377.609 255.997 379.84V379.84Z" fill="#78C9E5"/>
<path d="M322.623 361.978C321.291 360.172 320.067 358.288 318.959 356.336C317.822 354.4 316.803 352.396 315.907 350.337C317.24 352.143 318.464 354.028 319.571 355.982C320.706 357.918 321.725 359.921 322.623 361.978V361.978Z" fill="#78C9E5"/>
<path d="M371.399 313.181C369.342 312.282 367.34 311.263 365.403 310.127C363.451 309.018 361.567 307.793 359.762 306.458C361.82 307.355 363.822 308.375 365.758 309.512C367.709 310.622 369.593 311.847 371.399 313.181Z" fill="#78C9E5"/>
<path d="M389.25 246.521C387.02 246.772 384.777 246.89 382.533 246.876C380.289 246.892 378.045 246.774 375.814 246.521C378.045 246.268 380.289 246.15 382.533 246.167C384.777 246.151 387.02 246.269 389.25 246.521V246.521Z" fill="#78C9E5"/>
<path d="M371.399 179.862C369.593 181.194 367.709 182.418 365.758 183.528C363.822 184.666 361.82 185.686 359.762 186.582C361.567 185.247 363.451 184.022 365.403 182.913C367.34 181.777 369.342 180.758 371.399 179.859V179.862Z" fill="#78C9E5"/>
<path d="M322.623 131.062C321.726 133.12 320.707 135.122 319.571 137.058C318.464 139.012 317.24 140.896 315.907 142.703C316.802 140.643 317.822 138.64 318.959 136.704C320.068 134.752 321.292 132.867 322.623 131.06V131.062Z" fill="#78C9E5"/>
<g style="mix-blend-mode:multiply" opacity="0.23">
<path d="M255.997 113.186C332.361 113.186 394.502 174.113 396.512 250.041C396.543 248.875 396.564 247.708 396.564 246.535C396.564 168.864 333.63 105.899 255.997 105.899C178.363 105.899 115.429 168.864 115.429 246.535C115.429 247.708 115.447 248.876 115.481 250.041C117.492 174.111 179.632 113.186 255.997 113.186Z" fill="#78C9E5"/>
</g>
<path d="M248.605 252.917C249.512 255.914 252.786 257.389 255.312 256.668C258.796 255.678 260.415 250.639 258.272 247.786C256.899 245.952 254.107 245.186 251.761 246.204C250.51 246.749 249.5 247.731 248.919 248.966C248.339 250.201 248.227 251.606 248.605 252.917V252.917Z" fill="#375A64"/>
<path d="M287.03 96.269C320.289 102.826 352.346 121.948 373.065 148.896C377.905 155.172 382.175 161.87 385.822 168.909C382.113 161.908 377.807 155.239 372.954 148.978C352.076 122.073 320.27 103.124 287.028 96.269H287.03Z" fill="#78C9E5"/>
<path d="M253.594 393.665C219.697 393.247 184.707 380.254 159.449 357.501C153.552 352.205 148.14 346.393 143.276 340.133C148.193 346.341 153.635 352.114 159.542 357.388C184.945 380.062 219.648 392.937 253.594 393.644V393.665Z" fill="#78C9E5"/>
<path d="M302.994 196.232C303.402 196.629 303.542 196.573 303.806 196.965C304.654 198.225 307.428 199.22 309.004 199.816C311.732 201.997 316.091 206.37 317.053 202.092C317.91 198.31 318.619 196.419 317.943 194.183C317.901 193.958 316.29 192.935 316.15 192.684C314.839 190.264 313.566 187.754 312.04 185.612C309.795 182.459 306.842 184.232 307.315 185.17C307.463 185.461 312.715 187.735 311.714 187.104C310.513 185.291 310.596 185.603 309.273 184.62C306.582 182.622 303.641 184.776 305.921 186.232C306.27 186.454 307.664 186.426 308.302 186.61C308.4 186.629 308.488 186.681 308.553 186.756C308.602 186.834 307.452 186.047 306.823 185.641C303.988 183.873 302.098 186.61 302.894 187.685C303.19 188.082 305.307 187.449 305.649 187.794C305.951 188.092 303.409 186.229 302.599 186.82C300.537 188.324 301.182 192.219 301.768 193.186L303.863 191.214C303.766 191.061 304.683 192.538 305.025 193.29C305.387 194.334 305.337 194.214 304.881 193.836" fill="#FDBEA3"/>
<path d="M302.993 186.695C303.458 186.673 303.923 186.744 304.361 186.903C304.798 187.062 305.2 187.306 305.543 187.622C306.19 188.293 306.594 189.13 307.09 189.907C306.818 189.538 306.554 189.16 306.294 188.784C305.585 187.548 304.439 186.752 302.986 186.695H302.993Z" fill="#E18A71"/>
<path d="M305.224 185.069C306.107 185.305 307.014 185.513 307.822 185.953C308.531 186.541 309.023 187.35 309.476 188.137C308.945 187.414 308.446 186.612 307.747 186.05C307.435 185.835 306.861 185.674 306.502 185.53L305.212 185.057L305.224 185.069Z" fill="#E18A71"/>
<path d="M307.832 183.915C308.612 184.265 309.353 184.705 310.145 185.019C310.263 185.082 310.364 185.172 310.44 185.281C310.784 185.763 311.077 186.278 311.314 186.82C310.953 186.277 310.627 185.525 310.112 185.125C309.317 184.791 308.554 184.386 307.832 183.915V183.915Z" fill="#E18A71"/>
<path opacity="0.11" d="M431.186 443.54C431.186 445.072 412.168 446.313 388.711 446.313C365.254 446.313 346.236 445.072 346.236 443.54C346.236 442.009 365.252 440.77 388.711 440.77C412.171 440.77 431.186 442.011 431.186 443.54Z" fill="#204B85"/>
<path d="M412.457 319.912C412.239 321.865 411.608 324.682 411.155 326.928C410.564 329.84 409.083 329.764 409.189 328.563C409.229 328.126 410.092 321.288 410.196 320.87C410.285 320.501 409.848 320.548 409.688 322.018C409.688 322.018 409.277 323.765 408.979 325.327C408.27 329.109 406.905 328.27 406.898 327.263C406.898 326.892 407.394 320.858 407.401 320.491C407.401 320.331 407.247 317.733 407.165 317.003C406.891 315.776 406.673 315.613 406.501 316.253C406.137 319.26 405.487 321.17 404.611 320.612C403.902 320.153 404.422 316.984 404.511 314.79C404.566 313.441 405.608 310.522 406.527 309.333C407.578 306.406 409.435 301.925 412.168 304.716C414.585 307.191 416.208 310.68 416.733 312.684C416.823 313.015 416.879 313.354 416.9 313.696C417.037 316.142 416.926 317.613 416.768 319.948C416.532 323.387 415.351 324.257 415.275 323.323C415.251 323.032 415.582 317.624 415.117 318.57C415.053 320.506 414.361 322.824 414.101 325.067C413.756 328.029 412.338 327.793 412.345 326.597C412.345 326.155 412.87 320.744 412.882 320.309C412.882 320.229 412.908 319.683 412.667 319.65C412.553 319.626 412.475 319.768 412.457 319.912Z" fill="#FDBEA3"/>
<path d="M316.517 194.174L344.845 217.855L341.386 215.976L368.174 222.388L365.21 243.675L337.859 230.73L335.648 230.2L334.4 228.851L309.323 201.744L316.517 194.174Z" fill="#39D192"/>
<path d="M397.486 294.787C397.486 294.787 406.935 333.929 409.175 367.171C409.175 367.171 400.592 374.373 392.536 375.519C392.536 375.519 378.598 344.527 367.896 314.821L397.486 294.787Z" fill="#1A2E35"/>
<path d="M388.711 303.223C388.711 303.223 379.899 342.034 365.634 375.047C365.634 375.047 355.844 376.628 348.117 374.054C348.117 374.054 351.034 326.233 356.031 292.745L388.711 303.223Z" fill="#1A2E35"/>
<path d="M371.056 219.469C373.246 218.032 372.382 213.019 372.19 210.327L385.184 200.354C385.236 200.695 385.243 211.111 385.297 211.464C386.039 216.267 394.381 221.53 395.22 222.003C400.302 224.839 392.931 250.705 367.17 236.516C367.059 236.459 366.95 236.395 366.846 236.329C361.682 233.403 366.641 222.365 371.056 219.469Z" fill="#FDBEA3"/>
<path d="M353.642 245.124C353.758 242.912 354.609 229.425 362.601 223.851C365.559 221.79 371.056 219.469 371.056 219.472C371.578 221.034 372.039 223.851 376.757 223.927C386.736 224.088 389.368 217.545 389.368 217.545C395.9 222.681 397.92 222.008 399.864 223.691C406.035 229.073 410.34 231.604 402.38 252.054L397.353 275.953L399.867 297.335C377.44 307.985 363.128 307.546 355.275 297.571C355.275 297.583 352.386 269.021 353.642 245.124Z" fill="#39D192"/>
<path d="M382.543 224.991L375.023 233.223L370.312 225.118L382.543 224.991Z" fill="white"/>
<path d="M378.723 225.459C378.723 225.459 376.027 229.798 372.054 224.922L375.744 223.854L378.723 225.459Z" fill="#103262"/>
<path d="M415.724 309.841C415.757 309.675 415.799 309.467 415.844 309.24C415.792 309.491 415.754 309.685 415.724 309.841Z" fill="#FFC94E"/>
<path d="M415.66 310.184C415.66 310.162 415.674 310.11 415.689 310.035C415.66 310.115 415.66 310.162 415.66 310.184Z" fill="#FFC94E"/>
<path d="M415.844 309.233C415.866 309.122 415.891 308.997 415.917 308.865C415.896 308.99 415.868 309.115 415.844 309.233Z" fill="#FFC94E"/>
<path d="M415.684 310.035C415.684 309.983 415.707 309.914 415.724 309.834C415.71 309.912 415.695 309.978 415.684 310.035Z" fill="#FFC94E"/>
<path d="M415.917 308.865C415.934 308.787 415.948 308.709 415.965 308.628L415.917 308.865Z" fill="#FFC94E"/>
<path d="M421.382 268.175C418.58 261.121 414.261 245.302 408.736 233.193C403.633 222.02 388.907 214.666 394.202 238.986C395.855 246.578 401.825 262.355 407.018 271.98L406.108 307.595C408.577 307.796 416.21 307.395 416.21 307.395C417.467 301.117 421.382 268.175 421.382 268.175Z" fill="#39D192"/>
<path d="M416.18 307.557C416.168 307.619 416.152 307.702 416.133 307.794C416.147 307.713 416.164 307.638 416.18 307.557Z" fill="#FFC94E"/>
<path d="M415.965 308.628C416.005 308.427 416.05 308.21 416.1 307.959C416.059 308.156 416.012 308.39 415.965 308.628Z" fill="#FFC94E"/>
<path d="M416.21 307.406C416.199 307.461 416.189 307.506 416.18 307.558C416.199 307.461 416.21 307.406 416.21 307.406Z" fill="#FFC94E"/>
<path d="M405.645 307.643C405.645 307.643 413.458 307.066 416.607 306.38C416.607 306.38 417.29 309.564 416.059 310.708C414.828 311.852 407.216 312.323 406.279 311.318C405.43 310.408 405.645 307.643 405.645 307.643Z" fill="#F2F2F2"/>
<path d="M406.919 309.796C406.978 309.821 407.041 309.834 407.105 309.834C407.169 309.835 407.233 309.822 407.292 309.798C407.351 309.774 407.405 309.738 407.451 309.693C407.496 309.648 407.532 309.595 407.557 309.536C407.583 309.477 407.596 309.413 407.597 309.349C407.598 309.285 407.586 309.221 407.561 309.161C407.537 309.101 407.501 309.047 407.456 309.002C407.411 308.956 407.357 308.92 407.297 308.895C407.238 308.87 407.175 308.857 407.111 308.856C407.047 308.856 406.983 308.868 406.924 308.892C406.865 308.916 406.811 308.952 406.765 308.997C406.72 309.042 406.684 309.096 406.659 309.155C406.634 309.214 406.621 309.278 406.62 309.342C406.62 309.406 406.632 309.47 406.656 309.53C406.68 309.589 406.716 309.643 406.761 309.689C406.806 309.735 406.86 309.771 406.919 309.796V309.796Z" fill="#FFC94E"/>
<path d="M319.743 195.254C319.743 195.254 313.414 202.059 311.238 205.195C311.238 205.195 308.077 202.978 308.226 200.99C308.375 199.002 314.605 192.448 316.245 192.569C317.709 192.675 319.743 195.254 319.743 195.254Z" fill="#F2F2F2"/>
<path d="M310.653 201.002C310.581 201.028 310.515 201.068 310.459 201.119C310.403 201.17 310.357 201.232 310.325 201.301C310.293 201.37 310.274 201.445 310.271 201.521C310.268 201.597 310.279 201.673 310.305 201.744C310.359 201.889 310.467 202.006 310.606 202.071C310.745 202.136 310.905 202.144 311.049 202.092C311.193 202.039 311.311 201.931 311.375 201.792C311.44 201.653 311.447 201.494 311.394 201.35C311.369 201.278 311.329 201.212 311.278 201.155C311.227 201.099 311.165 201.053 311.096 201.021C311.027 200.989 310.952 200.97 310.876 200.967C310.8 200.964 310.724 200.976 310.653 201.002Z" fill="#FFC94E"/>
<path d="M378.909 342.695C377.078 339.214 375.002 335.264 373.421 331.943C370.707 330.501 367.987 329.045 365.318 327.537C368.084 328.906 370.825 330.327 373.558 331.761C375.384 335.385 377.182 339.022 378.909 342.695V342.695Z" fill="#040710"/>
<path d="M422.539 416.356L392.328 375.108L404.141 359.844C404.141 359.844 414.715 368.568 418.495 377.299C426.107 394.79 430.629 404.292 433.286 409.445C430.203 412.158 426.336 415.023 422.539 416.356Z" fill="#1A2E35"/>
<path d="M427.763 423.49L422.54 416.356C426.336 415.018 430.203 412.158 433.294 409.44C436.308 415.281 436.922 415.526 436.922 415.526C436.922 415.526 434.957 421.076 427.763 423.49Z" fill="#FDBEA3"/>
<path d="M342.945 426.858L348.566 371.504L366.105 369.296C366.105 369.296 367.007 392.089 364.023 401.132C359.691 414.267 357.201 422.783 355.776 428.314C351.873 428.24 346.952 427.912 342.945 426.858Z" fill="#1A2E35"/>
<path d="M354.073 436.107C352.315 437.34 350.252 438.065 348.11 438.204C345.968 438.342 343.829 437.888 341.927 436.891L342.945 426.858C346.962 427.912 351.866 428.24 355.771 428.302C354.018 435.778 354.073 436.107 354.073 436.107Z" fill="#FDBEA3"/>
<path d="M371.846 182.455C371.846 182.455 366.884 185.433 367.019 190.928C367.055 192.32 365.342 199.362 365.342 199.362C364.479 208.081 369.83 213.886 371.895 213.962C376.875 214.142 380.934 211.66 383.398 209.31C387.922 204.992 390.639 190.302 387.098 185.475C382.349 178.989 374.26 179.55 371.846 182.455Z" fill="#FDBEA3"/>
<path d="M365.294 202.531C365.294 202.531 366.638 203.333 369.45 202.442C371.233 201.877 373.896 199.998 374.465 201.186C377.064 206.587 376.96 213.165 372.313 213.969C367.666 214.773 364.647 204.491 365.294 202.531Z" fill="#1A2E35"/>
<path d="M384.78 199.397C384.629 198.284 384.005 192.018 384.385 190.744C384.074 190.587 383.73 190.506 383.381 190.508C382.322 190.433 381.329 189.969 380.591 189.205C379.854 188.44 379.426 187.43 379.389 186.369C376.53 186.39 373.676 186.14 370.865 185.62C365.327 184.53 366.78 178.233 366.889 178.207C368.356 177.834 380.218 175.966 386.97 180.375C393.606 184.7 390.405 195.289 389.805 197.062C389.779 197.138 389.731 197.204 389.666 197.251C389.601 197.298 389.523 197.324 389.443 197.324L385.184 199.742C385.086 199.745 384.99 199.711 384.916 199.647C384.841 199.584 384.793 199.495 384.78 199.397V199.397Z" fill="#1A2E35"/>
<path d="M389.593 183.098C389.593 183.098 394.842 186.031 390.703 196.19C390.703 196.19 387.292 192.84 389.593 183.098Z" fill="#1A2E35"/>
<path d="M367.836 191.855C367.836 191.855 365.755 196.05 362.771 198.785C361.769 199.704 364.793 202.709 366.114 202.841C369.048 203.136 367.836 191.855 367.836 191.855Z" fill="#FDBEA3"/>
<path d="M390.214 200.893C388.855 203.257 386.391 204.306 384.709 203.21C383.027 202.113 382.767 199.293 384.126 196.918C385.484 194.542 387.948 193.505 389.63 194.601C391.312 195.698 391.563 198.513 390.214 200.893Z" fill="#FDBEA3"/>
<path d="M383.589 206.706C382.122 211.05 377.811 213.56 373.348 213.574C377.813 213.376 381.945 210.988 383.589 206.706Z" fill="#E18A71"/>
<path d="M372.313 203.333C371.406 204.793 369.604 205.76 367.884 205.339C369.611 205.576 371.276 204.68 372.313 203.333Z" fill="#FDBEA3"/>
<path d="M369.573 195.379C369.544 195.852 369.776 196.242 370.088 196.261C370.4 196.28 370.676 195.913 370.702 195.445C370.728 194.977 370.499 194.582 370.187 194.564C369.875 194.545 369.592 194.909 369.573 195.379Z" fill="#103262"/>
<path d="M388.754 195.977C387.681 195.755 386.469 196.246 386.096 197.322C386.042 197.466 386.004 197.617 385.957 197.764L385.924 197.698C386.531 197.934 387.561 198.601 386.85 199.284C386.529 199.579 386.24 199.92 385.832 200.099L385.869 200.061C385.834 200.666 385.973 201.347 386.455 201.754C386.211 201.543 386.024 201.274 385.912 200.972C385.799 200.67 385.764 200.345 385.81 200.026C386.167 199.799 386.492 199.524 386.777 199.21C386.882 199.129 386.952 199.01 386.973 198.878C386.994 198.746 386.963 198.611 386.888 198.501C386.619 198.179 386.27 197.935 385.876 197.792C385.865 197.787 385.856 197.778 385.851 197.767C385.846 197.756 385.845 197.743 385.848 197.731C385.926 197.42 386.052 197.123 386.221 196.852C386.732 196.003 387.84 195.741 388.754 195.97V195.977Z" fill="#E18A71"/>
<path d="M372.722 193.268C372.977 192.942 372.843 191.902 371.47 191.266C371.229 191.148 370.967 191.079 370.699 191.064C370.432 191.049 370.163 191.088 369.911 191.179C369.805 191.251 369.727 191.356 369.687 191.477C369.647 191.598 369.649 191.73 369.691 191.85C369.857 192.278 370.494 192.122 371.31 192.68C371.891 193.077 371.662 193.176 372.24 193.358C372.321 193.392 372.409 193.402 372.495 193.386C372.581 193.37 372.66 193.329 372.722 193.268V193.268Z" fill="#103262"/>
<path d="M386.195 213.823C386.195 213.823 381.582 221.677 375.734 223.859C375.734 223.859 379.481 225.749 382.193 227.588C382.193 227.588 390.181 220.001 390.698 218.559C390.451 217.434 389.9 216.398 389.106 215.563C388.313 214.728 387.306 214.126 386.195 213.823Z" fill="white"/>
<path d="M372.223 217.68L371.406 220.547L375.743 223.856C375.743 223.856 372.254 225.402 370.655 226.381C370.655 226.381 368.793 224.305 368.765 220.831C369.045 220.066 369.506 219.38 370.108 218.832C370.711 218.283 371.436 217.888 372.223 217.68V217.68Z" fill="white"/>
<path d="M386.812 182.18C386.812 182.18 384.048 177.81 370.213 175.34C370.213 175.35 367.917 181.892 386.812 182.18Z" fill="#1A2E35"/>
<path d="M388.657 181.821C388.657 181.821 386.058 178.259 377.749 175.888C377.749 175.888 377.131 180.474 388.657 181.821Z" fill="#1A2E35"/>
<path d="M387.466 182.752C387.466 182.752 387.466 180.833 390.145 178.76C390.145 178.76 391.582 181.119 387.466 182.752Z" fill="#1A2E35"/>
<path d="M387.419 182.476C387.419 182.476 388.789 181.131 392.144 181.627C392.151 181.627 391.452 184.301 387.419 182.476Z" fill="#1A2E35"/>
<path d="M368 195.381C368 197.135 369.07 198.553 370.39 198.553C371.711 198.553 372.781 197.135 372.781 195.381C372.781 193.628 371.711 192.209 370.39 192.209C369.07 192.209 368 193.63 368 195.381Z" stroke="#F2F2F2" stroke-width="0.37" stroke-miterlimit="10"/>
<path d="M368.073 194.564C367.948 194.274 367.725 194.037 367.443 193.896C367.162 193.754 366.839 193.717 366.532 193.791" stroke="#F2F2F2" stroke-width="0.37" stroke-miterlimit="10"/>
<path d="M374.671 201.787C374.671 201.787 376.996 204.484 376.84 206.916C376.84 206.916 374.357 204.328 374.671 201.787Z" fill="#1A2E35"/>
<path d="M366.532 203.025C366.532 203.025 369.644 199.619 371.994 200.988C371.994 200.988 368.958 204.753 366.532 203.025Z" fill="#1A2E35"/>
<path d="M375.262 203.477C375.262 203.477 377.388 206.743 376.32 209.027C376.308 209.029 373.922 205.822 375.262 203.477Z" fill="#1A2E35"/>
<path d="M375.42 226.383L378.725 229.172L375.023 233.223L372.254 228.461L375.42 226.383Z" fill="#103262"/>
<path d="M339.366 437.116C341.492 436.123 340.715 432.861 343.321 434.7C344.996 435.882 345.877 438.009 347.618 438.246C349.93 438.186 352.172 437.446 354.066 436.118L354.491 436.092C354.491 436.092 356.36 439.387 355.823 445.845C355.808 446.021 355.73 446.185 355.603 446.309C355.476 446.432 355.31 446.506 355.133 446.516L348.381 446.904C341.981 444.727 343.463 448.769 325.38 446.554C325.223 446.537 325.075 446.469 324.959 446.361C324.844 446.252 324.766 446.11 324.738 445.954C324.468 444.096 324.683 438.064 339.366 437.116Z" fill="#1A2E35"/>
<path d="M424.697 424.338C424.697 424.338 424.697 424.338 424.697 424.326C425.781 422.232 423.161 420.136 426.35 419.996C428.396 419.906 430.392 421.046 431.912 420.166C433.704 418.706 435.027 416.749 435.715 414.541L436.034 414.26C436.034 414.26 439.528 415.723 443.051 421.161C443.144 421.309 443.182 421.486 443.158 421.659C443.133 421.832 443.047 421.991 442.916 422.107L437.811 426.543C431.415 428.739 435.058 431.034 419.398 440.34C419.263 440.423 419.104 440.46 418.947 440.445C418.789 440.43 418.64 440.364 418.523 440.257C417.17 438.979 413.659 434.072 424.697 424.338Z" fill="#1A2E35"/>
<path d="M372.667 195.412L384.61 196.192" stroke="#F2F2F2" stroke-width="0.37" stroke-miterlimit="10"/>
<path d="M400.644 258.172C399.274 254.229 397.889 249.852 396.741 245.836C398.111 249.781 399.496 254.158 400.644 258.172V258.172Z" fill="#C48D37"/>
<path d="M356.638 231.604C355.573 233.812 354.985 236.206 354.481 238.594C354.512 238.289 354.55 237.984 354.59 237.681C354.93 235.568 355.507 233.427 356.638 231.604Z" fill="#C48D37"/>
<path d="M385.824 240.737C383.188 248.537 376.53 266.643 370.034 271.212C369.401 271.662 368.658 271.932 367.884 271.992C368.653 271.918 369.389 271.636 370.01 271.176C376.311 266.605 383.004 248.469 385.839 240.737H385.824Z" fill="#C48D37"/>
<path d="M359.762 254.955C360.853 264.435 363.268 283.474 368.564 290.991C369.046 291.668 369.636 292.261 370.31 292.747C369.626 292.272 369.025 291.688 368.531 291.017C363.06 283.493 360.662 264.501 359.762 254.955V254.955Z" fill="#C48D37"/>
<path d="M394.249 275.414C393.826 275.438 385.378 276.568 386.958 277.331C387.122 277.409 387.292 277.471 387.466 277.518C387.202 277.457 386.892 277.428 386.703 277.206C386.311 276.201 393.41 275.315 394.249 275.414Z" fill="#C48D37"/>
<path d="M393.37 276.466C392.624 277.043 391.875 277.617 391.18 278.253C390.653 278.749 389.366 279.908 390.635 280.317L390.46 280.274C388.626 279.551 392.612 276.837 393.37 276.466V276.466Z" fill="#C48D37"/>
<g style="mix-blend-mode:multiply" opacity="0.23">
<path d="M117.603 180.422C115.881 180.528 114.34 180.59 112.944 180.635C104.219 199.574 99.361 220.065 98.6533 240.907C99.6904 242.2 100.364 242.98 100.364 242.98C100.364 242.98 111.68 229.647 115.228 210.147C118.125 194.223 128.695 198.048 137.601 198.296C152.485 198.712 155.676 193.401 145.067 183.055C134.242 172.494 131.315 179.569 117.603 180.422Z" fill="#3D64A1"/>
</g>
<path d="M100.364 236.74C100.364 236.74 83.9255 217.805 87.3865 209.726C90.8475 201.647 87.696 191.878 94.5944 182.452C101.493 173.026 103.888 175.045 117.6 174.191C131.312 173.338 134.242 166.266 145.066 176.817C155.676 187.163 152.494 192.472 137.601 192.058C128.685 191.81 118.125 187.986 115.228 203.909C111.68 223.409 100.364 236.74 100.364 236.74Z" fill="#39D192"/>
<path d="M79.1109 225.459C83.9492 222.712 79.8433 209.268 71.9857 202.13C66.552 197.201 61.0025 201.361 53.1118 194.954C47.5387 190.43 47.8435 186.35 43.4256 185.386C38.214 184.249 36.1964 189.598 27.8994 191.269C19.9119 192.881 17.9416 188.699 12.9993 190.73C3.93685 194.455 -2.48911 213.893 3.05562 219.824C6.44578 223.459 14.7688 212.497 23.7911 216.243C28.2798 218.11 28.1711 221.493 32.6622 222.625C38.9535 224.22 42.1523 218.337 48.7625 217.221C61.5435 215.059 73.7008 228.517 79.1109 225.459Z" fill="#39D192"/>
<path d="M111.609 315.932C108.103 297.592 103.695 279.399 97.9492 261.63C95.0339 252.768 91.8068 243.975 87.5543 235.655C79.0234 219.247 64.3241 205.299 46.4827 199.756C43.5083 198.858 40.4559 198.14 37.354 197.91C40.4607 198.121 43.5177 198.82 46.4991 199.702C61.4938 204.21 74.1165 214.787 82.938 227.546C86.5408 232.639 89.2458 238.307 91.6957 244.027C101.079 267.113 106.986 291.489 111.597 315.932H111.609Z" fill="#23635A"/>
<path d="M114.243 315.577C109.729 289.053 99.8534 238.917 96.801 212.856C96.2742 207.018 95.2087 198.305 98.2185 193.145C98.9103 191.997 99.8128 190.99 100.879 190.177C98.7217 191.808 97.3846 194.268 96.8341 196.885C95.8371 202.146 96.4136 207.554 96.931 212.842C96.983 213.343 97.094 214.333 97.1672 214.832C98.0461 222.086 99.2415 229.423 100.451 236.622C104.595 260.817 110.137 291.4 114.248 315.568L114.243 315.577Z" fill="#23635A"/>
<path d="M99.9197 277.003C99.9197 277.003 101.531 256.118 95.0766 252.631C88.6223 249.145 85.6266 241.125 76.2169 238.544C66.8071 235.963 66.2945 238.527 56.8894 245.089C47.4844 251.65 41.8972 248.547 40.2954 261.065C38.7267 273.339 43.5604 275.159 53.0835 267.153C58.7818 262.362 63.7029 254.39 73.8568 263.284C86.2929 274.192 99.9197 277.003 99.9197 277.003Z" fill="#39D192"/>
<path d="M108.866 316.265C105.847 296.557 100.945 272.881 88.4995 256.9C86.6311 254.524 84.5026 252.365 82.1538 250.464C84.53 252.338 86.6887 254.473 88.5892 256.829C101.205 272.871 106.088 296.382 108.866 316.265Z" fill="#23635A"/>
<path opacity="0.11" d="M114.994 450.003C167.447 450.003 209.968 443.517 209.968 435.516C209.968 427.515 167.447 421.029 114.994 421.029C62.5418 421.029 20.0205 427.515 20.0205 435.516C20.0205 443.517 62.5418 450.003 114.994 450.003Z" fill="#204B85"/>
<path d="M32.9078 285.992L20.0205 432.341H51.2454L32.9078 285.992Z" fill="#A6BBC4"/>
<path d="M34.8545 313.781C34.8545 313.781 39.4708 437.955 47.1394 442.394C54.808 446.833 189.33 451.872 219.532 425.014C219.532 425.014 208.076 407.58 205.305 392.396C202.534 377.212 196.124 302.544 196.124 302.544L34.8545 313.781Z" fill="white"/>
<path d="M89.43 351.037L64.7185 354.388L62.8828 328.204L88.5866 326.401L89.43 351.037Z" stroke="#CDCDCD" stroke-width="0.5" stroke-miterlimit="10"/>
<path d="M122.483 350.337L96.7797 352.141L94.8188 324.165L120.648 324.153L122.483 350.337Z" stroke="#CDCDCD" stroke-width="0.5" stroke-miterlimit="10"/>
<path d="M153.541 346.347L128.841 349.89L127.005 323.706L152.709 321.902L153.541 346.347Z" stroke="#CDCDCD" stroke-width="0.5" stroke-miterlimit="10"/>
<path d="M92.9597 388.798L67.1614 389.273L65.3281 363.089L91.0319 361.288L92.9597 388.798Z" stroke="#CDCDCD" stroke-width="0.5" stroke-miterlimit="10"/>
<path d="M124.929 385.222L99.3571 388.926L97.3892 360.841L122.998 357.705L124.929 385.222Z" stroke="#CDCDCD" stroke-width="0.5" stroke-miterlimit="10"/>
<path d="M157.122 384.875L131.286 384.775L129.451 358.591L155.154 356.79L157.122 384.875Z" stroke="#CDCDCD" stroke-width="0.5" stroke-miterlimit="10"/>
<path d="M95.3104 422.357L69.6066 424.161L67.7119 397.097L93.4771 396.173L95.3104 422.357Z" stroke="#CDCDCD" stroke-width="0.5" stroke-miterlimit="10"/>
<path d="M184.026 319.701L158.321 321.504L160.156 347.688L185.86 345.885L184.026 319.701Z" stroke="#CDCDCD" stroke-width="0.5" stroke-miterlimit="10"/>
<path d="M186.473 354.588L160.768 356.39L162.603 382.574L188.307 380.772L186.473 354.588Z" stroke="#CDCDCD" stroke-width="0.5" stroke-miterlimit="10"/>
<path d="M190.754 415.661L165.051 417.465L164.155 389.564L188.919 389.479L190.754 415.661Z" stroke="#CDCDCD" stroke-width="0.5" stroke-miterlimit="10"/>
<path d="M127.372 420.107L100.238 419.389L99.8345 395.726L125.538 393.923L127.372 420.107Z" stroke="#CDCDCD" stroke-width="0.5" stroke-miterlimit="10"/>
<path d="M159.435 417.859L133.731 419.663L131.896 393.478L157.538 390.796L159.435 417.859Z" stroke="#CDCDCD" stroke-width="0.5" stroke-miterlimit="10"/>
<path d="M194.187 274.764L32.9077 285.992L34.8544 313.781L196.134 302.554L194.187 274.764ZM63.0482 302.464C61.8287 302.549 60.6253 302.146 59.7025 301.344C58.7798 300.542 58.2131 299.406 58.1272 298.186C58.0847 297.582 58.1617 296.975 58.3536 296.4C58.5456 295.826 58.8487 295.295 59.2458 294.838C59.6429 294.381 60.1261 294.006 60.6679 293.736C61.2096 293.465 61.7993 293.305 62.4032 293.262C63.6231 293.177 64.8271 293.579 65.7504 294.381C66.6737 295.184 67.2407 296.32 67.3266 297.54C67.3691 298.145 67.292 298.752 67.0999 299.326C66.9078 299.901 66.6045 300.432 66.2071 300.889C65.8098 301.346 65.3263 301.721 64.7843 301.991C64.2422 302.261 63.6523 302.422 63.0482 302.464V302.464ZM90.512 300.538C89.9081 300.58 89.3017 300.503 88.7275 300.311C88.1534 300.119 87.6227 299.816 87.1657 299.418C86.7087 299.021 86.3344 298.538 86.0642 297.996C85.794 297.454 85.6332 296.864 85.591 296.259C85.5485 295.655 85.6255 295.049 85.8174 294.474C86.0093 293.9 86.3125 293.369 86.7096 292.911C87.1067 292.454 87.5899 292.08 88.1317 291.809C88.6734 291.539 89.2631 291.378 89.867 291.336C90.4709 291.293 91.0773 291.37 91.6515 291.562C92.2256 291.755 92.7564 292.058 93.2133 292.455C93.6703 292.852 94.0446 293.336 94.3148 293.878C94.585 294.42 94.7458 295.01 94.7881 295.614C94.8305 296.218 94.7536 296.825 94.5616 297.399C94.3697 297.974 94.0665 298.505 93.6694 298.962C93.2723 299.419 92.7891 299.794 92.2474 300.064C91.7056 300.334 91.1159 300.495 90.512 300.538V300.538ZM117.973 298.611C116.754 298.696 115.551 298.294 114.628 297.491C113.705 296.689 113.138 295.553 113.052 294.333C113.01 293.729 113.087 293.122 113.279 292.548C113.471 291.973 113.774 291.442 114.171 290.985C114.568 290.528 115.051 290.153 115.593 289.883C116.135 289.613 116.725 289.452 117.328 289.41C118.548 289.324 119.752 289.726 120.676 290.529C121.599 291.331 122.166 292.467 122.252 293.688C122.337 294.908 121.934 296.113 121.132 297.036C120.329 297.959 119.193 298.526 117.973 298.611V298.611ZM145.437 296.685C144.833 296.727 144.227 296.65 143.653 296.458C143.079 296.266 142.548 295.963 142.091 295.566C141.634 295.168 141.26 294.685 140.989 294.143C140.719 293.601 140.558 293.011 140.516 292.407C140.474 291.802 140.551 291.196 140.743 290.621C140.935 290.047 141.238 289.516 141.635 289.059C142.032 288.601 142.515 288.227 143.057 287.957C143.599 287.686 144.188 287.525 144.792 287.483C145.396 287.441 146.003 287.518 146.577 287.71C147.151 287.902 147.682 288.205 148.139 288.602C148.596 289 148.97 289.483 149.24 290.025C149.51 290.567 149.671 291.157 149.713 291.761C149.756 292.366 149.679 292.972 149.487 293.547C149.295 294.121 148.992 294.652 148.595 295.109C148.198 295.567 147.714 295.941 147.173 296.211C146.631 296.482 146.041 296.643 145.437 296.685V296.685ZM172.899 294.758C172.295 294.801 171.688 294.724 171.114 294.532C170.54 294.34 170.009 294.037 169.552 293.639C169.095 293.242 168.721 292.759 168.451 292.217C168.181 291.674 168.02 291.084 167.978 290.48C167.935 289.876 168.012 289.269 168.204 288.695C168.396 288.121 168.699 287.59 169.096 287.132C169.493 286.675 169.977 286.301 170.518 286.03C171.06 285.76 171.65 285.599 172.254 285.557C172.858 285.514 173.464 285.591 174.038 285.783C174.612 285.975 175.143 286.279 175.6 286.676C176.057 287.073 176.431 287.557 176.701 288.099C176.972 288.641 177.133 289.231 177.175 289.835C177.217 290.439 177.14 291.046 176.948 291.62C176.756 292.195 176.453 292.726 176.056 293.183C175.659 293.64 175.176 294.015 174.634 294.285C174.092 294.555 173.503 294.716 172.899 294.758V294.758Z" fill="#39D192"/>
<path d="M113.858 332.222C110.676 336.38 107.239 340.336 103.567 344.069C106.749 339.91 110.186 335.953 113.858 332.222V332.222Z" fill="#4C4C4C"/>
<path d="M114.633 343.291C110.478 340.108 106.523 336.67 102.792 332.997C106.948 336.181 110.903 339.618 114.633 343.291V343.291Z" fill="#4C4C4C"/>
<path d="M150.871 399.305C147.69 403.463 144.254 407.419 140.583 411.151C143.764 406.994 147.2 403.037 150.871 399.305V399.305Z" fill="#4C4C4C"/>
<path d="M151.646 410.376C147.491 407.192 143.536 403.754 139.805 400.082C143.962 403.264 147.917 406.702 151.646 410.376V410.376Z" fill="#4C4C4C"/>
<path d="M84.2397 369.357C81.0588 373.515 77.6226 377.471 73.9512 381.202C77.1322 377.044 80.5684 373.089 84.2397 369.357V369.357Z" fill="#78C9E5"/>
<path d="M85.017 380.426C80.8609 377.244 76.9064 373.806 73.1763 370.133C77.3319 373.316 81.2864 376.754 85.017 380.426Z" fill="#78C9E5"/>
<path d="M194.06 432.341C200.299 428.212 206.094 422.178 207.249 414.498C207.152 415.451 206.978 416.394 206.73 417.318C204.856 423.809 199.739 428.945 194.06 432.341V432.341Z" fill="#CDCDCD"/>
<path d="M39.4282 317.716C40.7583 347.378 42.4097 377.098 46.5984 406.512C47.7513 413.839 48.975 421.197 51.2761 428.257C51.6621 429.432 52.1132 430.585 52.6274 431.71C53.1183 432.849 53.7638 433.914 54.5457 434.875C53.7556 433.919 53.1013 432.858 52.6014 431.722C49.1333 423.78 47.8764 415.023 46.4424 406.53C42.1474 377.124 40.5362 347.39 39.4282 317.712V317.716Z" fill="#CDCDCD"/>
<path d="M34.8544 313.781L41.1102 313.344L39.4305 288.006L32.9077 285.992L34.8544 313.781Z" fill="#178452"/>
<path d="M46.9858 285.004C49.8586 279.99 55.5262 274.015 61.8293 276.615C63.7571 277.428 65.3848 278.811 66.7196 280.397C71.2816 285.833 68.9049 292.723 63.9343 296.909C62.3679 298.228 60.5654 299.325 58.5856 299.878C60.5153 299.194 62.2842 298.12 63.7831 296.725C69.6893 291.352 70.8587 283.898 64.2367 278.558C57.5225 273.008 50.7138 279.088 46.9906 284.997L46.9858 285.004Z" fill="#4C4C4C"/>
<path d="M74.5986 282.517C77.469 277.504 83.1366 271.526 89.4397 274.129C91.3699 274.942 92.9834 276.324 94.3301 277.91C98.8944 283.347 96.5177 290.237 91.547 294.423C89.9784 295.742 88.1782 296.838 86.1961 297.392C88.1256 296.707 89.8945 295.634 91.3935 294.238C97.2879 288.866 98.4668 281.411 91.8447 276.071C85.1306 270.522 78.3219 276.601 74.5986 282.51V282.517Z" fill="#4C4C4C"/>
<path d="M102.41 281.241C105.698 275.447 112.096 269.801 118.498 275.003C124.811 279.967 123.696 287.294 117.974 292.184C116.533 293.392 114.876 294.399 113.057 294.903C114.823 294.268 116.441 293.281 117.813 292C123.211 287.069 124.293 280.243 118.224 275.343C112.082 270.254 105.826 275.83 102.41 281.253V281.241Z" fill="#4C4C4C"/>
<path d="M129.663 278.83C132.935 273.065 139.312 267.444 145.674 272.623C151.958 277.565 150.85 284.85 145.152 289.719C143.733 290.961 142.065 291.883 140.259 292.425C142.014 291.794 143.621 290.811 144.984 289.537C150.356 284.628 151.431 277.837 145.393 272.963C139.269 267.9 133.058 273.436 129.656 278.83H129.663Z" fill="#4C4C4C"/>
<path d="M158.528 276.617C161.729 270.968 167.978 265.454 174.219 270.529C180.378 275.374 179.292 282.517 173.707 287.289C172.314 288.504 170.678 289.407 168.909 289.939C170.631 289.318 172.209 288.353 173.546 287.103C177.732 283.356 179.781 277.475 175.852 272.769C169.629 265.267 162.804 269.917 158.528 276.613V276.617Z" fill="#4C4C4C"/>
<path d="M104.335 371.863C103.863 377.259 107.423 383.537 113.208 383.965C117.402 384.173 121.241 381.197 123.02 377.536C124.246 375.068 124.378 372.061 123.103 369.591C120.653 364.571 113.998 361.418 109.492 365.836C106.466 368.762 105.788 373.584 107.409 377.398C105.724 373.579 106.343 368.698 109.398 365.739C113.969 361.217 120.775 364.382 123.299 369.494C124.624 372.016 124.48 375.115 123.216 377.628C121.392 381.348 117.468 384.355 113.199 384.121C107.34 383.679 103.777 377.304 104.335 371.863V371.863Z" fill="#FFC94E"/>
<path d="M177.43 323.869C172.103 322.909 165.526 325.866 164.564 331.591C163.969 335.749 166.575 339.864 170.057 341.96C172.398 343.409 175.377 343.821 177.955 342.778C183.178 340.802 186.932 334.463 182.951 329.565C180.32 326.28 175.583 325.157 171.635 326.419C175.592 325.096 180.393 326.164 183.058 329.48C187.133 334.444 183.355 340.939 178.033 342.979C175.399 344.069 172.327 343.646 169.946 342.145C166.402 339.984 163.785 335.798 164.411 331.565C165.391 325.772 172.067 322.82 177.43 323.869V323.869Z" fill="#FFC94E"/>
<path d="M110.253 373.848C111.411 374.86 112.547 375.893 113.672 376.935L113.518 376.952C114.463 375.607 115.408 374.281 116.412 372.988C117.269 371.838 118.211 370.753 119.228 369.743C119.377 369.604 119.535 369.475 119.701 369.357C119.104 369.914 118.557 370.521 118.066 371.173C117.052 372.454 116.081 373.773 115.122 375.087C114.612 375.776 114.109 376.469 113.613 377.167C112.477 376.078 111.356 374.975 110.249 373.858L110.253 373.848Z" fill="#FFC94E"/>
<g style="mix-blend-mode:multiply" opacity="0.23">
<path d="M322.304 122.491C325.177 124.032 327.988 125.669 330.736 127.401C334.693 125.94 341.199 122.789 347.956 118.643C335.147 109.397 321.016 102.139 306.041 97.1128C311.924 106.664 318.116 116.495 322.304 122.491Z" fill="#3D64A1"/>
</g>
</svg>
