<svg width="112" height="112" viewBox="0 0 112 112" fill="none" xmlns="http://www.w3.org/2000/svg">
<rect width="112" height="112" rx="24" fill="#39D192" fill-opacity="0.2"/>
<path d="M29.2059 84.3125V87.0507H33.4622V88.4661H29.2059V91.9074H27.5667V82.9064H33.9965V84.3032H29.2059V84.3125Z" fill="#4CD79D"/>
<path d="M36.4236 91.5467C35.8802 91.2507 35.4546 90.8251 35.1467 90.2978C34.8388 89.7613 34.6848 89.16 34.6848 88.4754C34.6848 87.8001 34.8388 87.1895 35.1467 86.6622C35.4546 86.1349 35.8802 85.7187 36.4236 85.4134C36.9669 85.1173 37.5828 84.9601 38.262 84.9601C38.9502 84.9601 39.566 85.1081 40.1094 85.4134C40.6528 85.7094 41.0784 86.1257 41.3863 86.6622C41.6942 87.1895 41.8482 87.8001 41.8482 88.4754C41.8482 89.1507 41.6942 89.7613 41.3863 90.2978C41.0784 90.8344 40.6528 91.2507 40.1094 91.5467C39.566 91.8427 38.9502 92 38.262 92C37.5828 92 36.976 91.852 36.4236 91.5467ZM39.7019 90.0296C40.0822 89.6318 40.2724 89.1137 40.2724 88.4754C40.2724 87.8371 40.0822 87.3098 39.7019 86.9213C39.3215 86.5235 38.8416 86.3292 38.271 86.3292C37.6914 86.3292 37.2115 86.5235 36.8402 86.9213C36.4689 87.319 36.2787 87.8371 36.2787 88.4754C36.2787 89.1137 36.4689 89.641 36.8402 90.0296C37.2115 90.4273 37.6914 90.6216 38.271 90.6216C38.8416 90.6216 39.3215 90.4273 39.7019 90.0296Z" fill="#4CD79D"/>
<path d="M44.5467 91.5467C44.0034 91.2507 43.5777 90.8251 43.2698 90.2978C42.9619 89.7613 42.808 89.16 42.808 88.4754C42.808 87.8001 42.9619 87.1895 43.2698 86.6622C43.5777 86.1349 44.0034 85.7187 44.5467 85.4134C45.0901 85.1173 45.7059 84.9601 46.3851 84.9601C47.0734 84.9601 47.6892 85.1081 48.2326 85.4134C48.776 85.7094 49.2016 86.1257 49.5095 86.6622C49.8174 87.1895 49.9714 87.8001 49.9714 88.4754C49.9714 89.1507 49.8174 89.7613 49.5095 90.2978C49.2016 90.8344 48.776 91.2507 48.2326 91.5467C47.6892 91.8427 47.0734 92 46.3851 92C45.7059 92 45.0901 91.852 44.5467 91.5467ZM47.816 90.0296C48.1964 89.6318 48.3865 89.1137 48.3865 88.4754C48.3865 87.8371 48.1964 87.3098 47.816 86.9213C47.4356 86.5235 46.9557 86.3292 46.3851 86.3292C45.8055 86.3292 45.3256 86.5235 44.9543 86.9213C44.583 87.319 44.3928 87.8371 44.3928 88.4754C44.3928 89.1137 44.583 89.641 44.9543 90.0296C45.3256 90.4273 45.8055 90.6216 46.3851 90.6216C46.9647 90.6216 47.4356 90.4273 47.816 90.0296Z" fill="#4CD79D"/>
<path d="M58.0673 82.3699V91.9075H56.555V91.0194C56.2923 91.3432 55.9754 91.5929 55.595 91.7502C55.2147 91.9167 54.789 91.9907 54.3272 91.9907C53.6842 91.9907 53.0955 91.8427 52.5884 91.5559C52.0722 91.2692 51.6647 90.8529 51.3749 90.3163C51.0851 89.7798 50.9311 89.1692 50.9311 88.4754C50.9311 87.7816 51.076 87.1711 51.3749 86.6345C51.6647 86.1072 52.0722 85.6909 52.5884 85.4041C53.1046 85.1174 53.6842 84.9694 54.3272 84.9694C54.7709 84.9694 55.1784 85.0434 55.5497 85.2006C55.921 85.3579 56.238 85.5892 56.4916 85.8944V82.3699H58.0673ZM55.5316 90.3626C55.8305 90.1868 56.075 89.9371 56.2471 89.6133C56.4191 89.2895 56.5097 88.9102 56.5097 88.4847C56.5097 88.0591 56.4191 87.6798 56.2471 87.3561C56.075 87.0323 55.8305 86.7825 55.5316 86.6068C55.2328 86.431 54.8886 86.3477 54.5083 86.3477C54.1279 86.3477 53.7929 86.4402 53.485 86.6068C53.1861 86.7825 52.9416 87.0323 52.7695 87.3561C52.5975 87.6798 52.5069 88.0591 52.5069 88.4847C52.5069 88.9102 52.5975 89.2895 52.7695 89.6133C52.9416 89.9371 53.1861 90.1868 53.485 90.3626C53.7838 90.5384 54.1279 90.6216 54.5083 90.6216C54.8886 90.6216 55.2328 90.5384 55.5316 90.3626Z" fill="#4CD79D"/>
<path d="M66.4175 88.9936H61.1469C61.2374 89.5024 61.4819 89.9002 61.8714 90.1962C62.2608 90.4922 62.7498 90.6402 63.3294 90.6402C64.072 90.6402 64.6788 90.3905 65.1587 89.8909L66.0009 90.8808C65.7021 91.2508 65.3127 91.5283 64.8599 91.7133C64.398 91.8983 63.8818 92.0001 63.3022 92.0001C62.5596 92.0001 61.9166 91.8521 61.3552 91.5468C60.7937 91.2508 60.359 90.8253 60.0511 90.298C59.7432 89.7614 59.5892 89.1601 59.5892 88.4755C59.5892 87.8095 59.7341 87.2082 60.033 86.6716C60.3318 86.1351 60.7484 85.7188 61.2737 85.4228C61.7989 85.1267 62.3966 84.9695 63.0577 84.9695C63.7097 84.9695 64.2984 85.1175 64.8146 85.4135C65.3308 85.7095 65.7293 86.1258 66.0191 86.6624C66.3089 87.1989 66.4538 87.8187 66.4538 88.5218C66.4447 88.6236 66.4356 88.7808 66.4175 88.9936ZM61.7717 86.7086C61.4276 87.0139 61.2103 87.4209 61.1378 87.9205H64.9504C64.887 87.4209 64.6788 87.0232 64.3346 86.7086C63.9905 86.4034 63.5649 86.2461 63.0487 86.2461C62.5415 86.2553 62.1159 86.4034 61.7717 86.7086Z" fill="#4CD79D"/>
<path d="M72.6027 85.6909C73.1279 86.1719 73.3905 86.9028 73.3905 87.8834V91.9075H71.9053V91.0749C71.7152 91.3709 71.4344 91.6022 71.0812 91.7595C70.728 91.9167 70.2933 92 69.7953 92C69.2972 92 68.8534 91.9075 68.4731 91.741C68.0927 91.5652 67.8029 91.3247 67.5946 91.0101C67.3863 90.6956 67.2867 90.3441 67.2867 89.9463C67.2867 89.3265 67.5131 88.8362 67.9569 88.4569C68.4097 88.0869 69.116 87.9019 70.076 87.9019H71.8148V87.8001C71.8148 87.319 71.6699 86.949 71.3891 86.69C71.1084 86.431 70.6918 86.3015 70.1394 86.3015C69.759 86.3015 69.3877 86.357 69.0255 86.4772C68.6632 86.5975 68.3553 86.764 68.1018 86.9768L67.4859 85.8112C67.8391 85.5336 68.2648 85.3301 68.7538 85.1821C69.2519 85.0341 69.7771 84.9601 70.3296 84.9601C71.3257 84.9693 72.0865 85.2099 72.6027 85.6909ZM71.1718 90.5568C71.4797 90.3718 71.697 90.1128 71.8238 89.7705V88.975H70.2028C69.2972 88.975 68.8444 89.2802 68.8444 89.8908C68.8444 90.1868 68.9621 90.4181 69.1885 90.5846C69.4149 90.7604 69.7319 90.8436 70.1303 90.8436C70.5197 90.8251 70.8639 90.7326 71.1718 90.5568Z" fill="#4CD79D"/>
<path d="M75.41 82.3699H76.9767V91.9075H75.4009V82.3699H75.41Z" fill="#4CD79D"/>
<path d="M79.5221 91.7781C79.0059 91.6301 78.5893 91.4451 78.2724 91.223L78.8791 90.0019C79.178 90.2054 79.5402 90.372 79.9658 90.5015C80.3915 90.6217 80.8081 90.6865 81.2156 90.6865C82.1574 90.6865 82.6283 90.4367 82.6283 89.9279C82.6283 89.6874 82.5106 89.5209 82.2661 89.4284C82.0306 89.3359 81.6412 89.2434 81.116 89.1601C80.5636 89.0768 80.1107 88.9751 79.7666 88.8641C79.4225 88.7531 79.1146 88.5588 78.861 88.2813C78.6074 88.0038 78.4806 87.6152 78.4806 87.1157C78.4806 86.4681 78.7433 85.9408 79.2776 85.5523C79.8119 85.1637 80.5273 84.9695 81.4329 84.9695C81.8948 84.9695 82.3567 85.025 82.8185 85.1267C83.2804 85.2378 83.6607 85.3765 83.9505 85.5615L83.3438 86.7826C82.7732 86.4404 82.1303 86.2646 81.4148 86.2646C80.953 86.2646 80.5998 86.3386 80.3643 86.4774C80.1289 86.6161 80.0021 86.8011 80.0021 87.0324C80.0021 87.2914 80.1289 87.4672 80.3824 87.5782C80.636 87.6892 81.0345 87.7817 81.5688 87.8835C82.1031 87.9668 82.5468 88.0685 82.891 88.1795C83.2351 88.2905 83.534 88.4755 83.7785 88.7438C84.023 89.0121 84.1498 89.3821 84.1498 89.8724C84.1498 90.5107 83.8781 91.0288 83.3347 91.4173C82.7914 91.8058 82.0487 92.0001 81.1069 92.0001C80.5726 92.0001 80.0473 91.9261 79.5221 91.7781Z" fill="#4CD79D"/>
<path d="M68.3708 20H43.6383C34.76 20 27.5667 27.3452 27.5667 36.411V61.6565C27.5667 70.7223 34.76 78.0675 43.6383 78.0675H68.3617C77.24 78.0675 84.4333 70.7223 84.4333 61.6565V36.411C84.4423 27.3452 77.2491 20 68.3708 20ZM45.6948 37.4101C48.3311 36.892 51.8371 36.633 55.5153 36.633C59.1935 36.633 62.6995 36.892 65.3358 37.4101C68.5248 38.0576 69.929 38.7052 69.9924 39.8708C69.9924 41.1011 68.5791 41.8782 65.3358 42.461C62.6995 42.9143 59.1935 43.1733 55.5153 43.1733C51.8371 43.1733 48.3311 42.9143 45.6948 42.461C42.4424 41.8782 41.0382 41.1011 41.0382 39.8708C41.1016 38.6959 42.5149 38.0484 45.6948 37.4101ZM72.3932 61.0922C72.3932 61.2864 72.2392 61.4437 72.0489 61.4437H64.9281C64.7379 61.4437 64.5839 61.2864 64.5839 61.0922V57.5954C64.5839 57.3641 64.4208 57.1606 64.1943 57.1143L56.376 55.6527C55.7962 55.5417 55.2345 55.3474 54.709 55.0791L39.6159 47.1419C39.6159 45.8746 40.7936 44.9587 41.9894 45.2918L54.6365 49.4639C54.6365 50.204 55.0895 50.8608 55.778 51.1013L61.3949 52.7109C61.5127 52.7479 61.6305 52.6554 61.6305 52.5259V52.2669C61.6305 51.9431 61.4221 51.6656 61.1141 51.5823L56.9195 50.4722C56.2401 50.2317 55.778 49.5749 55.778 48.8348C55.778 47.845 56.6387 47.0772 57.599 47.2067L62.2465 47.6507C63.8682 47.808 65.4536 48.2428 66.885 49.0291C71.0524 51.2863 72.3841 55.0699 72.3841 60.0838V61.0922H72.3932Z" fill="#4CD79D"/>
</svg>
