<svg width="171" height="20" viewBox="0 0 171 20" fill="none" xmlns="http://www.w3.org/2000/svg">
<g clip-path="url(#clip0_1_7148)">
<path d="M28.3757 17.1876V20.0001H21.8236V15.4688L15.3219 14.6876C14.8179 14.6355 14.3643 14.4793 13.9107 14.2709L0 7.65638L0.453608 7.03138C0.55441 6.87513 0.705612 6.71888 0.907216 6.6668C1.46163 6.40638 2.11684 6.3543 2.72165 6.56263L6.60252 7.76055L10.937 8.95846L12.449 9.32305C12.3482 10.1043 12.8018 10.7813 13.5578 10.9376L19.0011 12.1355L19.1523 11.3022L17.8923 11.0418L14.3139 10.2084C13.6586 10.0522 13.205 9.37513 13.3058 8.69804L13.3562 8.33346C13.4066 7.96888 13.7091 7.70846 14.0619 7.76055L15.4731 7.81263C17.8419 7.9168 20.1604 8.33346 22.4284 9.01055C22.9324 9.11471 23.4364 9.37513 23.9404 9.68763C26.0069 10.9897 27.4685 13.073 28.1237 15.4168C28.2749 16.0418 28.3757 16.6147 28.3757 17.1876Z" fill="#39D192"/>
<path d="M22.2772 0.625C20.11 0.208334 17.2372 0 14.2131 0C11.189 0 8.31619 0.208333 6.14895 0.572917C3.5281 1.04167 2.31848 1.61458 2.31848 2.55208C2.31848 3.48958 3.4777 4.16667 6.14895 4.63541C8.31619 5.05208 11.189 5.26042 14.2131 5.26042C17.2372 5.26042 20.11 5.05208 22.2772 4.6875C24.9485 4.21875 26.1077 3.59375 26.1077 2.60417C26.0573 1.66667 24.8981 1.14583 22.2772 0.625ZM21.5716 3.54167C19.5556 3.85417 16.8843 4.0625 14.1627 4.0625C11.441 4.0625 8.8202 3.85417 6.75376 3.54167C4.68732 3.22917 3.88091 2.8125 3.62891 2.65625C3.93131 2.44792 4.68732 1.875 6.75376 1.5625C9.22341 1.19792 11.6931 0.989583 14.1627 0.989583C16.6323 0.989583 19.102 1.19792 21.5716 1.51042C23.8397 1.82292 24.4445 2.5 24.6965 2.70833C24.4445 2.8125 23.6381 3.17708 21.5716 3.54167Z" fill="#39D192"/>
<path d="M48.3757 18.9154V2.94775H58.2607V5.41256H51.2107V9.48484H57.4657V11.9496H51.2107V18.9154H48.3757Z" fill="#39D192"/>
<path d="M71.1009 12.8832C71.1159 13.7711 70.9809 14.6438 70.6959 15.4858C70.4559 16.2206 70.0509 16.9096 69.5409 17.4913C69.0309 18.0425 68.4309 18.4864 67.7409 18.7773C67.0059 19.0835 66.2259 19.2519 65.4309 19.2366C64.6359 19.2519 63.8559 19.0988 63.1209 18.7773C62.4459 18.4864 61.8309 18.0425 61.3359 17.4913C60.8259 16.9096 60.4209 16.2206 60.1659 15.4858C59.8809 14.6438 59.7309 13.7711 59.7459 12.8832C59.7309 11.9953 59.8809 11.1226 60.1659 10.2806C60.4209 9.54576 60.8259 8.87215 61.3359 8.2904C61.8459 7.73926 62.4459 7.29529 63.1359 7.01972C63.8559 6.71354 64.6359 6.56044 65.4159 6.57575C66.1959 6.56044 66.9759 6.71354 67.7109 7.01972C68.4009 7.3106 69.0159 7.73926 69.5109 8.2904C70.0209 8.87215 70.4109 9.54576 70.6809 10.2806C70.9659 11.1226 71.1159 11.9953 71.1009 12.8832ZM68.2959 12.8832C68.2959 11.6891 68.0409 10.7399 67.5459 10.0357C67.0509 9.33143 66.3459 8.97932 65.4309 8.99463C64.5309 8.99463 63.8259 9.34674 63.3159 10.0357C62.8059 10.7246 62.5509 11.6891 62.5509 12.8832C62.5509 14.0926 62.8059 15.0571 63.3009 15.7614C63.8109 16.4656 64.5159 16.8177 65.4159 16.8177C66.3159 16.8177 67.0209 16.4656 67.5309 15.7614C68.0409 15.0571 68.2959 14.0926 68.2959 12.8832Z" fill="#39D192"/>
<path d="M84.6009 12.8834C84.6159 13.7713 84.4809 14.6439 84.1959 15.486C83.9559 16.2208 83.5509 16.9097 83.0409 17.4915C82.5309 18.0426 81.9309 18.4866 81.2409 18.7775C80.5059 19.0837 79.7259 19.2521 78.9309 19.2368C78.1359 19.2521 77.3559 19.099 76.6209 18.7775C75.9459 18.4866 75.3309 18.0426 74.8359 17.4915C74.3259 16.9097 73.9209 16.2208 73.6659 15.486C73.3809 14.6439 73.2309 13.7713 73.2459 12.8834C73.2309 11.9954 73.3809 11.1228 73.6659 10.2808C73.9209 9.54594 74.3259 8.87233 74.8359 8.29057C75.3459 7.73944 75.9609 7.29546 76.6359 7.0199C77.3559 6.71371 78.1359 6.56062 78.9159 6.56062C79.6959 6.54531 80.4759 6.6984 81.2109 7.00459C81.9009 7.29546 82.5159 7.72413 83.0109 8.29057C83.5209 8.87233 83.9109 9.54594 84.1809 10.2808C84.4809 11.1228 84.6159 11.9954 84.6009 12.8834ZM81.7959 12.8834C81.7959 11.6892 81.5409 10.7401 81.0459 10.0358C80.5359 9.33161 79.8309 8.97949 78.9309 8.97949C78.0309 8.97949 77.3259 9.33161 76.8159 10.0205C76.3059 10.7094 76.0509 11.6739 76.0659 12.8681C76.0659 14.0775 76.3209 15.042 76.8159 15.7462C77.3109 16.4505 78.0159 16.8026 78.9309 16.8026C79.8309 16.8026 80.5359 16.4505 81.0459 15.7462C81.5559 15.0573 81.7959 14.0928 81.7959 12.8834Z" fill="#39D192"/>
<path d="M97.4104 18.5475C96.7354 18.7465 96.0604 18.8996 95.3704 19.0068C94.5154 19.1446 93.6454 19.2211 92.7754 19.2211C91.9204 19.2364 91.0654 19.0834 90.2704 18.7772C89.5654 18.5016 88.9204 18.0729 88.3804 17.5218C87.8404 16.9554 87.4354 16.2817 87.1804 15.5316C86.8954 14.6896 86.7604 13.8169 86.7754 12.929C86.7604 12.0564 86.8804 11.1837 87.1204 10.3417C87.3304 9.62223 87.6754 8.93331 88.1404 8.35155C88.5904 7.80041 89.1454 7.37175 89.7904 7.08088C90.4954 6.77469 91.2454 6.6216 92.0104 6.6216C92.5204 6.60629 93.0304 6.68283 93.5254 6.83593C93.9154 6.9584 94.2904 7.11149 94.6504 7.29521V1.49297L97.3804 1.03369L97.4104 18.5475ZM89.5654 12.8525C89.5654 14.0772 89.8504 15.0417 90.4204 15.7459C90.9904 16.4501 91.7854 16.8023 92.7904 16.787C93.1654 16.787 93.5404 16.7716 93.9154 16.7257C94.1704 16.6951 94.4104 16.6492 94.6654 16.6032V9.69877C94.3654 9.49975 94.0504 9.34666 93.7054 9.22418C93.3004 9.07109 92.8654 9.00985 92.4304 9.00985C91.4404 9.00985 90.7054 9.36197 90.2554 10.0508C89.8054 10.7398 89.5654 11.6736 89.5654 12.8525Z" fill="#39D192"/>
<path d="M100.231 12.9444C100.216 11.9952 100.365 11.046 100.695 10.1581C100.965 9.42322 101.385 8.7343 101.925 8.16785C102.42 7.64734 103.02 7.23398 103.695 6.97373C104.34 6.71347 105.03 6.57568 105.72 6.57568C107.34 6.57568 108.616 7.0962 109.531 8.12193C110.446 9.14765 110.896 10.6939 110.896 12.73C110.896 12.8831 110.896 13.0515 110.881 13.2506C110.866 13.4496 110.866 13.618 110.851 13.7711H103.05C103.125 14.7356 103.456 15.4857 104.056 16.0215C104.656 16.5574 105.511 16.8176 106.636 16.8176C107.251 16.8176 107.851 16.7564 108.451 16.6339C108.901 16.5421 109.336 16.4196 109.756 16.2359L110.115 18.517C109.92 18.6088 109.711 18.7007 109.501 18.7619C109.201 18.8538 108.901 18.9303 108.601 18.9916C108.256 19.0681 107.896 19.114 107.506 19.16C107.101 19.2059 106.711 19.2365 106.306 19.2212C105.376 19.2365 104.46 19.0834 103.59 18.7466C102.87 18.471 102.211 18.0118 101.686 17.43C101.176 16.8636 100.8 16.1746 100.575 15.4551C100.335 14.6437 100.216 13.8017 100.231 12.9444ZM108.151 11.7043C108.151 11.3369 108.106 10.9695 108.001 10.602C107.911 10.2805 107.746 9.97436 107.536 9.69879C107.326 9.43853 107.071 9.23951 106.786 9.10172C106.456 8.94863 106.096 8.87208 105.736 8.88739C105.361 8.87208 104.97 8.96394 104.625 9.13234C104.325 9.28544 104.041 9.49977 103.831 9.76003C103.606 10.0203 103.44 10.3265 103.32 10.6633C103.2 11.0001 103.11 11.3522 103.065 11.7043H108.151Z" fill="#39D192"/>
<path d="M117.721 6.56085C118.501 6.54554 119.266 6.66801 120.001 6.91296C120.571 7.11199 121.066 7.43348 121.486 7.87745C121.861 8.30611 122.131 8.82663 122.281 9.39308C122.446 10.0361 122.521 10.6791 122.521 11.3374V18.6399C122.101 18.7318 121.471 18.8389 120.616 18.9767C119.656 19.1145 118.696 19.1758 117.736 19.1758C117.076 19.1758 116.431 19.1145 115.786 18.9614C115.246 18.8389 114.736 18.6246 114.286 18.2878C113.866 17.9816 113.536 17.5683 113.311 17.0937C113.056 16.5272 112.936 15.8995 112.966 15.2719C112.951 14.6595 113.086 14.0624 113.356 13.5266C113.611 13.052 113.986 12.654 114.436 12.3631C114.916 12.0569 115.456 11.8273 116.011 11.7201C116.626 11.5823 117.241 11.5211 117.871 11.5211C118.186 11.5211 118.501 11.5364 118.816 11.5823C119.176 11.6282 119.521 11.6895 119.881 11.7813V11.3221C119.881 11.0159 119.851 10.7097 119.761 10.4035C119.611 9.80643 119.191 9.31653 118.621 9.11751C118.246 8.97973 117.856 8.91849 117.451 8.9338C116.866 8.9338 116.281 8.97973 115.711 9.07158C115.276 9.14813 114.841 9.25529 114.421 9.39308L114.076 7.11199C114.571 6.95889 115.081 6.83642 115.591 6.74456C116.296 6.62209 117.001 6.56085 117.721 6.56085ZM117.946 16.9559C118.591 16.9712 119.236 16.9253 119.866 16.8181V13.7256C119.656 13.6644 119.431 13.6185 119.206 13.5878C118.891 13.5419 118.576 13.5113 118.261 13.5266C117.961 13.5266 117.646 13.5572 117.346 13.5878C117.061 13.6338 116.776 13.7103 116.506 13.8481C116.266 13.9706 116.056 14.139 115.906 14.3686C115.741 14.6136 115.666 14.9198 115.681 15.2106C115.681 15.8689 115.891 16.3282 116.296 16.5885C116.701 16.8334 117.241 16.9712 117.946 16.9559Z" fill="#39D192"/>
<path d="M129.96 19.1446C129.27 19.1446 128.595 19.0527 127.935 18.869C127.455 18.7312 127.02 18.4863 126.66 18.1495C126.345 17.828 126.105 17.4146 126 16.9707C125.865 16.4501 125.805 15.9143 125.805 15.3632V1.49297L128.535 1.03369V14.8427C128.535 15.1335 128.55 15.4091 128.61 15.7C128.655 15.9143 128.76 16.1133 128.895 16.2817C129.045 16.4501 129.24 16.5726 129.45 16.6492C129.735 16.741 130.035 16.8176 130.335 16.8482L129.96 19.1446Z" fill="#39D192"/>
<path d="M135.511 16.91C136.231 16.91 136.756 16.8182 137.086 16.6498C137.416 16.4813 137.581 16.1752 137.581 15.7312C137.581 15.3331 137.386 14.9504 137.056 14.7361C136.696 14.4758 136.111 14.1849 135.301 13.8788C134.836 13.7104 134.386 13.5113 133.936 13.297C133.546 13.1133 133.186 12.8683 132.856 12.5622C132.556 12.2866 132.316 11.9345 132.151 11.5517C131.971 11.0925 131.881 10.6026 131.896 10.1127C131.896 9.01039 132.301 8.13776 133.096 7.49476C133.891 6.85177 134.986 6.54558 136.351 6.53027C137.011 6.53027 137.686 6.60682 138.331 6.7293C138.811 6.82115 139.291 6.94363 139.756 7.11203L139.261 9.3625C138.886 9.1941 138.496 9.07162 138.106 8.97977C137.566 8.85729 137.026 8.79606 136.486 8.81137C136.021 8.79606 135.556 8.88791 135.136 9.10224C134.806 9.27065 134.596 9.62276 134.611 9.99019C134.611 10.1739 134.641 10.3576 134.716 10.526C134.791 10.6944 134.911 10.8475 135.061 10.9547C135.271 11.1078 135.481 11.2456 135.721 11.3527C136.051 11.5058 136.381 11.6436 136.711 11.7508C137.281 11.9651 137.821 12.1947 138.361 12.4703C138.766 12.6846 139.156 12.9449 139.486 13.2817C139.771 13.5726 139.996 13.9247 140.131 14.3074C140.281 14.7514 140.341 15.2107 140.326 15.6853C140.326 16.8335 139.906 17.7061 139.066 18.3032C138.226 18.9002 137.041 19.1911 135.481 19.1911C134.641 19.2217 133.786 19.1299 132.961 18.9308C132.511 18.8084 132.061 18.6706 131.626 18.5022L132.106 16.1752C132.586 16.3742 133.066 16.5273 133.561 16.6651C134.206 16.8488 134.866 16.9253 135.511 16.91Z" fill="#39D192"/>
</g>
<rect x="146.808" y="7.19824" width="24.0784" height="11.331" rx="5.66552" fill="#EE3218"/>
<path d="M154.258 10.4147C154.63 10.4147 154.952 10.4767 155.224 10.6007C155.5 10.7247 155.712 10.9007 155.86 11.1287C156.008 11.3567 156.082 11.6267 156.082 11.9387C156.082 12.2467 156.008 12.5167 155.86 12.7487C155.712 12.9767 155.5 13.1527 155.224 13.2767C154.952 13.3967 154.63 13.4567 154.258 13.4567H153.412V14.6147H152.44V10.4147H154.258ZM154.204 12.6647C154.496 12.6647 154.718 12.6027 154.87 12.4787C155.022 12.3507 155.098 12.1707 155.098 11.9387C155.098 11.7027 155.022 11.5227 154.87 11.3987C154.718 11.2707 154.496 11.2067 154.204 11.2067H153.412V12.6647H154.204ZM159.452 14.6147L158.642 13.4447H158.594H157.748V14.6147H156.776V10.4147H158.594C158.966 10.4147 159.288 10.4767 159.56 10.6007C159.836 10.7247 160.048 10.9007 160.196 11.1287C160.344 11.3567 160.418 11.6267 160.418 11.9387C160.418 12.2507 160.342 12.5207 160.19 12.7487C160.042 12.9727 159.83 13.1447 159.554 13.2647L160.496 14.6147H159.452ZM159.434 11.9387C159.434 11.7027 159.358 11.5227 159.206 11.3987C159.054 11.2707 158.832 11.2067 158.54 11.2067H157.748V12.6707H158.54C158.832 12.6707 159.054 12.6067 159.206 12.4787C159.358 12.3507 159.434 12.1707 159.434 11.9387ZM163.222 14.6867C162.786 14.6867 162.392 14.5927 162.04 14.4047C161.692 14.2167 161.418 13.9587 161.218 13.6307C161.022 13.2987 160.924 12.9267 160.924 12.5147C160.924 12.1027 161.022 11.7327 161.218 11.4047C161.418 11.0727 161.692 10.8127 162.04 10.6247C162.392 10.4367 162.786 10.3427 163.222 10.3427C163.658 10.3427 164.05 10.4367 164.398 10.6247C164.746 10.8127 165.02 11.0727 165.22 11.4047C165.42 11.7327 165.52 12.1027 165.52 12.5147C165.52 12.9267 165.42 13.2987 165.22 13.6307C165.02 13.9587 164.746 14.2167 164.398 14.4047C164.05 14.5927 163.658 14.6867 163.222 14.6867ZM163.222 13.8587C163.47 13.8587 163.694 13.8027 163.894 13.6907C164.094 13.5747 164.25 13.4147 164.362 13.2107C164.478 13.0067 164.536 12.7747 164.536 12.5147C164.536 12.2547 164.478 12.0227 164.362 11.8187C164.25 11.6147 164.094 11.4567 163.894 11.3447C163.694 11.2287 163.47 11.1707 163.222 11.1707C162.974 11.1707 162.75 11.2287 162.55 11.3447C162.35 11.4567 162.192 11.6147 162.076 11.8187C161.964 12.0227 161.908 12.2547 161.908 12.5147C161.908 12.7747 161.964 13.0067 162.076 13.2107C162.192 13.4147 162.35 13.5747 162.55 13.6907C162.75 13.8027 162.974 13.8587 163.222 13.8587Z" fill="white"/>
<defs>
<clipPath id="clip0_1_7148">
<rect width="141" height="20" fill="white"/>
</clipPath>
</defs>
</svg>
