<svg width="454" height="438" viewBox="0 0 454 438" fill="none" xmlns="http://www.w3.org/2000/svg">
<g clip-path="url(#clip0_67_448)">
<path d="M157.256 266.136C157.256 266.136 147.31 259.163 142.744 260.427C138.178 261.691 132.323 268.146 132.323 268.146C132.323 268.146 143.909 264.789 147.403 265.494C150.666 265.958 153.96 266.173 157.256 266.136Z" fill="#E0E0E0"/>
<path d="M160.606 268.654C159.153 271.949 156.658 274.694 155.256 277.978C153.661 281.816 153.635 286.13 155.184 289.987C157.758 287.097 159.509 283.565 160.255 279.761C160.984 276.242 161.374 272.662 161.42 269.068L160.606 268.654Z" fill="#E0E0E0"/>
<path d="M159.081 267.814C159.535 266.468 148.279 267.058 144.651 271.42C141.023 275.782 137.436 280.527 140.528 291.541C140.528 291.541 147.321 279.605 147.321 279.781C147.321 279.957 158.174 270.446 159.081 267.814Z" fill="#E0E0E0"/>
<path d="M159.163 267.659C158.133 268.063 168.347 271.192 173.068 271.576C175.655 271.872 178.273 271.457 180.644 270.374C180.644 270.374 173.789 261.95 159.163 267.659Z" fill="#E0E0E0"/>
<path d="M210.833 310.977C210.833 310.977 215.76 308.905 217.151 310.356C218.543 311.806 224.222 319.328 229.613 319.794C229.613 319.794 224.686 309.268 220.223 307.569C217.285 306.45 210.833 310.977 210.833 310.977Z" fill="#E0E0E0"/>
<path d="M212.101 310.408C212.101 310.408 211.905 306.688 210.039 304.73C208.174 302.772 201.484 301.446 201.484 301.446C202.835 303.587 204.488 305.52 206.391 307.185C208.16 308.483 210.077 309.565 212.101 310.408Z" fill="#E0E0E0"/>
<path d="M212.101 310.19C212.101 310.19 208.669 310.19 206.247 314.448C204.633 317.373 203.439 320.512 202.701 323.773C202.907 323.41 209.174 320.665 210.823 317.163C211.814 314.98 212.254 312.585 212.101 310.19Z" fill="#E0E0E0"/>
<path d="M212.874 310.19C212.874 310.19 213.492 318.396 214.874 319.794C216.255 321.193 218.265 326.291 218.265 326.291C218.265 326.291 221.357 318.862 219.646 315.308C217.935 311.754 212.874 310.19 212.874 310.19Z" fill="#E0E0E0"/>
<path d="M182.963 326.042C182.571 326.633 174.717 332.787 173.491 335.771C172.264 338.755 173.295 343.313 173.491 344.702C173.687 346.09 180.592 342.909 181.736 337.553C182.503 333.763 182.913 329.909 182.963 326.042Z" fill="#E0E0E0"/>
<path d="M184.509 321.431C184.509 322.416 184.622 332.144 187.168 335.543C189.308 338.139 191.727 340.488 194.383 342.547C194.383 342.547 196.053 330.248 192.528 326.446C190.314 324.126 187.557 322.402 184.509 321.431Z" fill="#E0E0E0"/>
<path d="M183.344 323.099C182.767 322.965 175.624 322.281 172.223 326.373C170.073 329.032 168.291 331.97 166.925 335.108C166.925 335.108 177.727 329.72 179.706 327.337C181.685 324.954 183.344 323.099 183.344 323.099Z" fill="#E0E0E0"/>
<path d="M188.261 318.644C189.157 318.027 190.213 317.684 191.299 317.656C192.386 317.629 193.457 317.918 194.383 318.489C197.589 320.499 202.928 328.311 202.928 328.311C202.928 328.311 196.393 327.907 192.992 324.591C191.091 322.893 189.491 320.882 188.261 318.644Z" fill="#E0E0E0"/>
<path d="M183.612 319.857C183.612 319.857 179.489 316.313 176.304 315.526C173.119 314.738 163.863 317.059 163.863 317.059C167.024 319.206 170.824 320.194 174.624 319.857C181.045 319.297 183.612 319.857 183.612 319.857Z" fill="#E0E0E0"/>
<path d="M169.862 355.881C169.862 355.881 166.894 361.641 169.862 364.822C172.831 368.003 174.418 374.354 174.418 374.354C174.418 374.354 179.572 369.381 176.974 363.828C175.458 360.517 172.978 357.746 169.862 355.881Z" fill="#E0E0E0"/>
<path d="M165.162 356.026C164.368 356.43 159.235 363.372 158.843 368.334C158.452 373.297 158.05 381.803 158.843 381.244C159.637 380.684 165.357 375.286 166.934 370.127C168.511 364.967 165.162 356.026 165.162 356.026Z" fill="#E0E0E0"/>
<path d="M163.172 355.487C162.389 355.684 154.927 354.296 150.732 359.631C147.81 363.708 145.359 368.105 143.424 372.738C143.424 372.738 154.288 367.153 156.823 364.087C159.359 361.02 163.172 355.487 163.172 355.487Z" fill="#E0E0E0"/>
<path d="M205.567 345.955C205.567 345.955 203.309 352.711 205.567 358.668C206.857 362.123 208.473 365.446 210.39 368.593C210.39 368.593 213.73 356.679 211.565 353.498C209.401 350.317 205.567 345.955 205.567 345.955Z" fill="#E0E0E0"/>
<path d="M206.803 345.24C207.596 345.986 216.863 359.352 223.16 360.543C229.458 361.735 224.139 360.036 224.139 360.036C224.139 360.036 222.16 351.032 219.336 347.302C216.512 343.572 206.803 345.24 206.803 345.24Z" fill="#E0E0E0"/>
<path d="M205.36 345.002C205.36 345.002 212.194 340.236 214.864 339.024C217.533 337.812 226.377 339.407 226.377 339.407C226.377 339.407 215.668 345.023 213.091 344.484C210.514 343.945 205.391 346.183 205.391 346.183" fill="#E0E0E0"/>
<path d="M229.149 280.009C229.149 280.009 223.233 286.319 223.996 291.251C224.563 294.537 225.411 297.767 226.531 300.907L229.129 292.235L229.149 280.009Z" fill="#E0E0E0"/>
<path d="M229.953 278.745C229.953 278.745 228.582 288.412 231.324 292.349C234.066 296.286 237.797 303.746 238.189 303.196C238.58 302.647 244.27 297.477 240.157 290.183C237.578 285.704 234.103 281.809 229.953 278.745Z" fill="#E0E0E0"/>
<path d="M227.964 280.455C227.964 280.455 218.502 277.699 217.141 282.237C215.781 286.775 214.637 290.712 214.637 290.712C216.64 288.608 218.882 286.748 221.316 285.169C223.623 283.732 225.843 282.158 227.964 280.455Z" fill="#E0E0E0"/>
<path d="M185.529 283.014L186.302 282.34C188.539 280.424 195.063 275.15 198.362 275.958C201.624 276.886 204.814 278.053 207.906 279.45C207.906 279.45 193.61 286.909 185.529 283.014Z" fill="#E0E0E0"/>
<path d="M187.446 283.076C187.446 282.361 183.148 281.211 179.344 285.148C175.541 289.085 174.964 291.52 174.964 291.52C174.964 291.52 187.178 289.883 187.446 283.076Z" fill="#E0E0E0"/>
<path d="M186.807 283.874C186.807 283.874 182.458 288.899 185.777 293.83C189.095 298.762 191.961 303.497 191.961 303.497C192.985 300.308 192.985 296.875 191.961 293.685C190.769 290.162 189.03 286.85 186.807 283.874Z" fill="#E0E0E0"/>
<path d="M203.031 296.389C202.835 295.188 204.412 285.345 191.456 286.319H190.271C190.271 286.319 196.455 296.369 197.888 299.529C198.738 301.681 200.118 303.58 201.897 305.051C203.422 306.429 203.227 297.591 203.031 296.389Z" fill="#E0E0E0"/>
<path d="M205.536 345.52C205.617 343.982 205.384 342.443 204.852 340.998C204.321 339.553 203.501 338.233 202.444 337.118C202.248 336.9 201.959 336.682 201.701 336.807C201.62 336.859 201.549 336.927 201.495 337.007C201.44 337.087 201.401 337.178 201.382 337.273C200.913 339.101 201.172 341.042 202.103 342.681C203.045 344.296 204.227 345.757 205.608 347.012" fill="#E0E0E0"/>
<path d="M169.028 354.627C166.678 350.335 162.987 346.941 158.525 344.971C158.258 344.822 157.952 344.76 157.649 344.795C157.426 344.865 157.231 345.002 157.089 345.187C156.947 345.372 156.865 345.597 156.855 345.831C156.84 346.81 157.211 347.756 157.886 348.462C160.741 352.212 164.916 354.722 169.553 355.477" fill="#E0E0E0"/>
<path d="M220.934 340.091C220.934 340.091 220.274 340.091 219.078 340.278C217.404 340.5 215.763 340.928 214.193 341.552C211.864 342.484 209.67 343.725 207.668 345.24C205.241 347.133 202.941 349.185 200.783 351.384C196.073 355.995 191.919 360.263 189.043 363.475C187.611 365.081 186.467 366.397 185.683 367.319L184.766 368.355C184.56 368.593 184.446 368.718 184.426 368.707C184.499 368.559 184.589 368.42 184.694 368.293C184.89 368.044 185.168 367.661 185.539 367.195C186.281 366.242 187.384 364.884 188.796 363.247C191.62 359.973 195.743 355.643 200.453 351.042C202.62 348.82 204.946 346.76 207.411 344.878C209.456 343.356 211.7 342.126 214.08 341.22C215.684 340.62 217.362 340.24 219.068 340.091C219.528 340.065 219.989 340.065 220.449 340.091C220.61 340.073 220.773 340.073 220.934 340.091Z" fill="#E0E0E0"/>
<path d="M184.179 365.858C184.107 365.91 183.334 364.563 181.654 362.75C179.469 360.395 176.787 358.562 173.805 357.385C170.822 356.209 167.616 355.72 164.42 355.953C161.967 356.119 160.493 356.575 160.473 356.492C160.799 356.328 161.145 356.21 161.503 356.14C162.453 355.887 163.422 355.713 164.4 355.622C167.656 355.291 170.943 355.745 173.99 356.945C177.037 358.145 179.756 360.056 181.922 362.522C182.58 363.26 183.173 364.054 183.695 364.895C183.895 365.195 184.058 365.518 184.179 365.858Z" fill="#E0E0E0"/>
<path d="M186.724 282.941C186.734 283.038 186.734 283.135 186.724 283.231C186.724 283.439 186.724 283.718 186.652 284.06C186.58 284.817 186.477 285.884 186.343 287.241C186.065 289.997 185.663 293.996 185.22 298.938C184.354 308.812 183.323 322.499 183.344 337.636C183.364 352.773 184.447 366.459 185.209 376.343C185.611 381.265 185.931 385.264 186.158 388.061C186.261 389.419 186.343 390.486 186.405 391.242C186.405 391.584 186.405 391.864 186.456 392.071C186.47 392.167 186.47 392.265 186.456 392.361C186.431 392.27 186.413 392.176 186.405 392.081C186.405 391.864 186.405 391.594 186.312 391.252C186.23 390.496 186.116 389.429 185.982 388.072C185.704 385.316 185.312 381.316 184.88 376.374C184.034 366.49 182.921 352.804 182.818 337.636C182.715 322.467 183.849 308.781 184.88 298.907C185.364 293.965 185.817 289.976 186.147 287.22C186.319 285.839 186.453 284.782 186.549 284.05L186.673 283.221C186.675 283.126 186.692 283.031 186.724 282.941Z" fill="#E0E0E0"/>
<path d="M216.265 309.589C215.814 309.71 215.351 309.783 214.884 309.807C213.998 309.9 212.709 310.076 211.132 310.325C202.893 311.656 194.957 314.464 187.704 318.613C186.313 319.401 185.21 320.074 184.447 320.561C184.07 320.834 183.666 321.067 183.241 321.255C183.588 320.941 183.96 320.657 184.354 320.406C185.076 319.877 186.168 319.162 187.539 318.334C194.754 314.011 202.76 311.192 211.081 310.045C212.679 309.838 213.967 309.713 214.864 309.672C215.328 309.603 215.797 309.576 216.265 309.589Z" fill="#E0E0E0"/>
<path d="M184.282 305.196C184.23 305.023 184.189 304.846 184.159 304.668C184.086 304.264 184.004 303.756 183.891 303.134C183.778 302.325 183.62 301.522 183.416 300.731C183.179 299.809 183.004 298.731 182.602 297.622C182.417 297.053 182.231 296.452 182.035 295.83C181.839 295.208 181.561 294.587 181.314 293.924C180.829 292.597 180.149 291.251 179.469 289.779C177.869 286.734 175.981 283.851 173.831 281.17C169.832 276.353 165.179 272.126 160.009 268.612C159.05 267.897 158.112 267.359 157.319 266.82C156.525 266.281 155.814 265.877 155.257 265.535L153.928 264.706C153.77 264.622 153.621 264.521 153.484 264.406C153.658 264.456 153.824 264.529 153.979 264.623L155.34 265.359C155.937 265.67 156.659 266.064 157.463 266.582C158.267 267.1 159.225 267.618 160.215 268.312C165.466 271.775 170.177 276.004 174.191 280.859C176.363 283.566 178.258 286.485 179.85 289.572C180.531 290.92 181.14 292.303 181.674 293.716C181.912 294.39 182.2 295.011 182.375 295.654C182.551 296.296 182.746 296.887 182.922 297.467C183.226 298.514 183.477 299.575 183.674 300.648C183.863 301.446 183.997 302.256 184.076 303.072C184.148 303.704 184.21 304.212 184.251 304.616C184.292 304.806 184.303 305.002 184.282 305.196Z" fill="#E0E0E0"/>
<path d="M230.633 279.553C230.478 279.649 230.312 279.726 230.138 279.781L228.685 280.33C227.417 280.786 225.593 281.48 223.367 282.402C217.555 284.743 211.886 287.428 206.391 290.442C200.91 293.488 195.617 296.861 190.538 300.544C188.58 301.953 187.023 303.124 185.962 303.953L184.725 304.896C184.584 305.011 184.432 305.111 184.271 305.196C184.271 305.196 184.395 305.051 184.663 304.813L185.848 303.777C186.879 302.906 188.405 301.704 190.342 300.233C200.424 292.675 211.495 286.553 223.243 282.04C225.49 281.18 227.366 280.527 228.613 280.123L230.097 279.657C230.272 279.604 230.451 279.569 230.633 279.553Z" fill="#E0E0E0"/>
<path d="M203.278 436.778H166.069L162.184 391.087H207.628L203.278 436.778Z" fill="#E0E0E0"/>
<path d="M210.647 391.087H159.297V398.111H210.647V391.087Z" fill="#E0E0E0"/>
<path d="M210.328 398.132C210.328 398.256 198.836 398.37 184.684 398.37C170.532 398.37 159.029 398.256 159.029 398.132C159.029 398.008 170.511 397.894 184.684 397.894C198.856 397.894 210.328 397.997 210.328 398.132Z" fill="#EBEBEB"/>
<path d="M366.822 437.461L398.423 437.711L398.736 397.616L367.135 397.367L366.822 437.461Z" fill="#EBEBEB"/>
<path d="M386.364 398.816L385.797 437.637L380.809 437.596L381.87 398.774L386.364 398.816Z" fill="#FAFAFA"/>
<path d="M348.97 398.515L367.111 398.66L398.702 398.909L367.07 403.095L366.802 437.482L348.682 437.347L348.97 398.515Z" fill="#E0E0E0"/>
<path d="M358.844 398.598L358.123 437.42L352.742 437.378L353.618 398.557L358.844 398.598Z" fill="#FAFAFA"/>
<path d="M373.192 386.787C373.192 387.025 372.677 387.284 371.708 387.523C369.34 388.044 366.911 388.222 364.493 388.051C363.957 388.051 363.39 387.947 362.813 387.854C362.189 387.77 361.572 387.639 360.968 387.46C360.573 387.342 360.192 387.179 359.834 386.973C359.348 386.695 358.935 386.304 358.628 385.834C358.303 385.311 358.125 384.71 358.113 384.093C358.107 383.639 358.159 383.187 358.267 382.746C358.546 381.369 358.95 380.02 359.473 378.716C359.783 377.986 360.17 377.291 360.628 376.644C360.868 376.316 361.13 376.005 361.411 375.711C361.72 375.389 362.066 375.104 362.442 374.862C362.88 374.581 363.365 374.385 363.874 374.282C364.414 374.157 364.974 374.157 365.513 374.282C366.317 374.51 367.058 374.921 367.678 375.483C369.36 376.914 370.759 378.65 371.801 380.602C372.504 381.889 372.976 383.293 373.192 384.746C373.316 385.782 373.192 386.372 372.965 386.435C372.45 386.549 371.708 384.508 369.698 381.938C368.529 380.455 367.163 379.14 365.637 378.032C365.373 377.803 365.058 377.64 364.72 377.556C364.662 377.54 364.602 377.54 364.544 377.556C364.449 377.592 364.359 377.641 364.276 377.701C364.132 377.805 363.997 377.923 363.874 378.053C363.716 378.231 363.568 378.417 363.431 378.612C363.128 379.05 362.872 379.519 362.668 380.011C362.224 381.12 361.859 382.259 361.576 383.42C361.53 383.582 361.499 383.749 361.483 383.917H361.39C361.277 383.917 361.246 383.979 361.318 383.917L361.442 383.824C361.468 383.856 361.5 383.884 361.535 383.907C361.676 384.003 361.828 384.083 361.988 384.145C362.448 384.31 362.916 384.452 363.39 384.57C363.885 384.704 364.421 384.808 364.843 384.901C365.792 385.098 366.699 385.233 367.533 385.347C369.214 385.575 370.626 385.72 371.584 385.906C372.543 386.093 373.192 386.538 373.192 386.787Z" fill="#E0E0E0"/>
<path d="M372.542 387.077C372.46 386.569 374.82 385.823 378.51 384.735C380.617 384.124 382.683 383.377 384.694 382.497C385.174 382.304 385.628 382.05 386.045 381.741C386.189 381.627 386.251 381.513 386.23 381.524C386.209 381.534 386.23 381.669 386.23 381.596C386.174 381.406 386.098 381.222 386.003 381.047C385.859 380.726 385.704 380.415 385.55 380.094C385.266 379.501 384.946 378.927 384.591 378.374C384.275 377.876 383.897 377.42 383.468 377.017C383.264 376.835 383.051 376.666 382.829 376.509C382.649 376.384 382.455 376.279 382.252 376.198C381.961 376.064 381.635 376.031 381.324 376.105C380.909 376.242 380.526 376.465 380.2 376.758C378.565 378.135 377.113 379.72 375.882 381.472C373.769 384.507 373.212 386.87 372.686 386.797C372.449 386.797 372.274 386.113 372.357 384.953C372.522 383.304 372.987 381.699 373.727 380.218C374.807 378.002 376.273 375.998 378.056 374.302C378.694 373.674 379.456 373.187 380.293 372.872C381.301 372.546 382.389 372.564 383.385 372.924C383.847 373.09 384.289 373.305 384.705 373.567C385.823 374.311 386.774 375.281 387.498 376.416C387.944 377.099 388.337 377.816 388.673 378.56L389.137 379.596C389.355 380.061 389.511 380.552 389.601 381.057C389.713 381.768 389.59 382.496 389.25 383.129C388.96 383.645 388.559 384.087 388.075 384.425C387.409 384.87 386.684 385.219 385.921 385.461C383.681 386.273 381.358 386.832 378.994 387.129C375.057 387.678 372.625 387.533 372.542 387.077Z" fill="#EBEBEB"/>
<path d="M343.236 398.45L389.689 398.817L389.793 385.545L343.34 385.178L343.236 398.45Z" fill="#E0E0E0"/>
<path d="M360.318 398.589L402.308 398.92L402.411 385.649L360.421 385.317L360.318 398.589Z" fill="#EBEBEB"/>
<path d="M389.508 385.564L389.22 398.899L384.313 398.795L384.654 385.533L389.508 385.564Z" fill="#FAFAFA"/>
<path d="M354.721 385.357L354.247 398.567L348.856 398.526L349.155 385.254L354.721 385.357Z" fill="#FAFAFA"/>
<path d="M401.797 437.574L419.7 437.716L419.878 414.995L401.975 414.854L401.797 437.574Z" fill="#EBEBEB"/>
<path d="M412.864 415.683L412.544 437.679L409.71 437.658L410.318 415.662L412.864 415.683Z" fill="#FAFAFA"/>
<path d="M391.673 415.517L401.949 415.59L419.863 415.735L401.928 418.107L401.784 437.596L391.508 437.513L391.673 415.517Z" fill="#E0E0E0"/>
<path d="M397.269 415.559L396.867 437.555L393.816 437.534L394.311 415.528L397.269 415.559Z" fill="#FAFAFA"/>
<path d="M405.402 408.866C405.402 409.197 404.227 409.601 402.176 409.777C400.916 409.879 399.649 409.774 398.424 409.467C397.831 409.308 397.316 408.94 396.97 408.43C396.758 408.1 396.644 407.715 396.641 407.322C396.634 407.043 396.665 406.764 396.733 406.493C396.892 405.7 397.123 404.923 397.424 404.172C397.608 403.749 397.836 403.346 398.104 402.97C398.406 402.556 398.784 402.205 399.217 401.934C399.498 401.752 399.813 401.629 400.142 401.572C400.472 401.515 400.809 401.526 401.135 401.603C401.623 401.747 402.074 401.998 402.454 402.338C403.429 403.171 404.231 404.188 404.814 405.333C405.783 407.301 405.639 408.689 405.33 408.741C405.02 408.793 404.484 407.705 403.33 406.296C402.658 405.489 401.886 404.771 401.031 404.162C400.906 404.056 400.758 403.981 400.599 403.944C400.571 403.956 400.547 403.974 400.526 403.996C400.365 404.124 400.225 404.278 400.114 404.452C399.952 404.686 399.814 404.936 399.702 405.198C399.461 405.813 399.262 406.442 399.104 407.084L399.053 407.312H398.888H398.754C398.681 407.312 398.671 407.312 398.754 407.312C398.819 407.268 398.878 407.216 398.929 407.156H398.98C399.043 407.204 399.113 407.243 399.186 407.27C400.194 407.603 401.229 407.845 402.279 407.995C404.144 408.285 405.402 408.503 405.402 408.866Z" fill="#E0E0E0"/>
<path d="M405.031 409.031C404.969 408.648 406.299 408.13 408.36 407.457C409.536 407.078 410.689 406.632 411.813 406.12C412.058 406.023 412.287 405.89 412.493 405.726C412.555 405.726 412.555 405.643 412.493 405.726C412.449 405.809 412.428 405.902 412.432 405.996C412.308 405.747 412.184 405.498 412.071 405.239C411.913 404.919 411.738 404.608 411.545 404.307C411.383 404.052 411.189 403.819 410.968 403.613C410.803 403.447 410.611 403.31 410.401 403.209C410.311 403.156 410.205 403.137 410.102 403.157C409.906 403.208 409.725 403.308 409.577 403.447C408.663 404.195 407.843 405.051 407.134 405.996C405.907 407.633 405.495 408.928 405.072 408.876C404.65 408.824 404.444 407.28 405.443 405.022C406.044 403.722 406.879 402.545 407.907 401.551C408.298 401.158 408.769 400.854 409.288 400.66C409.937 400.442 410.639 400.442 411.288 400.66C411.572 400.767 411.844 400.903 412.102 401.064C412.333 401.21 412.55 401.376 412.751 401.561C413.147 401.918 413.493 402.325 413.782 402.774C414.045 403.176 414.276 403.599 414.472 404.038L414.74 404.618C414.871 404.913 414.968 405.222 415.029 405.54C415.104 406.027 415.017 406.526 414.782 406.959C414.596 407.295 414.335 407.583 414.019 407.798C413.62 408.078 413.182 408.298 412.72 408.451C411.427 408.905 410.084 409.2 408.721 409.332C406.484 409.56 405.093 409.384 405.031 409.031Z" fill="#E0E0E0"/>
<path d="M388.437 415.473L414.761 415.681L414.82 408.159L388.496 407.951L388.437 415.473Z" fill="#E0E0E0"/>
<path d="M398.126 415.541L421.914 415.729L421.973 408.207L398.185 408.019L398.126 415.541Z" fill="#EBEBEB"/>
<path d="M414.648 408.171L414.483 415.724L411.71 415.673L411.895 408.151L414.648 408.171Z" fill="#FAFAFA"/>
<path d="M394.929 408.058L394.661 415.538L391.61 415.517L391.775 407.995L394.929 408.058Z" fill="#FAFAFA"/>
<path d="M150.608 0H14.1621V227.024H150.608V0Z" fill="#E0E0E0"/>
<path d="M146.073 0H9.62695V227.024H146.073V0Z" fill="#EBEBEB"/>
<path d="M140.25 4.60022H15.4297V222.414H140.25V4.60022Z" fill="#FAFAFA"/>
<path d="M115.956 32.9056H39.1982V194.119H115.956V32.9056Z" fill="#EBEBEB"/>
<path d="M39.1978 137.073C39.0226 122.018 52.4941 107.317 67.3261 105.213C74.3968 104.177 81.921 105.617 88.5279 102.892C100.33 98.0333 104.081 82.2746 115.955 77.6019L116.491 194.119H39.1875L39.1978 137.073Z" fill="#E0E0E0"/>
<path d="M454.01 437.731C454.01 437.886 352.371 438.01 227.015 438.01C101.66 438.01 0 437.886 0 437.731C0 437.575 101.618 437.461 227.015 437.461C352.413 437.461 454.01 437.586 454.01 437.731Z" fill="#263238"/>
<path d="M412.122 363.227L199.506 363.133C196.349 363.128 193.324 361.864 191.094 359.618C188.864 357.372 187.611 354.329 187.611 351.156L187.776 34.0454C187.775 32.4721 188.082 30.9141 188.68 29.4604C189.279 28.0066 190.156 26.6857 191.263 25.5733C192.37 24.4609 193.684 23.5787 195.13 22.9773C196.576 22.3759 198.126 22.067 199.691 22.0684L412.297 22.1823C415.455 22.1823 418.483 23.4431 420.715 25.6873C422.948 27.9315 424.202 30.9752 424.202 34.149L424.027 351.26C424.027 354.434 422.773 357.477 420.54 359.722C418.308 361.966 415.28 363.227 412.122 363.227Z" fill="#263238"/>
<path d="M416.224 45.6908H194.713V330.507H416.224V45.6908Z" fill="white"/>
<path d="M314.895 346.038C314.892 347.841 314.359 349.604 313.36 351.102C312.362 352.6 310.944 353.767 309.286 354.455C307.628 355.143 305.804 355.322 304.045 354.968C302.286 354.614 300.67 353.744 299.403 352.467C298.136 351.191 297.274 349.565 296.926 347.796C296.578 346.027 296.76 344.194 297.448 342.529C298.137 340.864 299.301 339.441 300.794 338.441C302.286 337.441 304.041 336.908 305.835 336.91C307.026 336.91 308.206 337.147 309.306 337.605C310.407 338.064 311.407 338.737 312.248 339.585C313.09 340.433 313.757 341.439 314.211 342.547C314.665 343.654 314.897 344.84 314.895 346.038Z" fill="#455A64"/>
<path d="M340.322 31.9421H271.635C270.941 31.9421 270.378 32.5081 270.378 33.2061V34.4494C270.378 35.1475 270.941 35.7134 271.635 35.7134H340.322C341.017 35.7134 341.58 35.1475 341.58 34.4494V33.2061C341.58 32.5081 341.017 31.9421 340.322 31.9421Z" fill="#455A64"/>
<path d="M406.793 291.106C406.443 291.106 406.096 291.036 405.773 290.901C405.45 290.766 405.156 290.568 404.909 290.319C404.662 290.07 404.466 289.774 404.333 289.448C404.2 289.123 404.132 288.774 404.134 288.422L404.237 86.222C404.237 85.8701 404.306 85.5217 404.44 85.1967C404.575 84.8717 404.771 84.5766 405.019 84.3282C405.267 84.0799 405.562 83.8832 405.886 83.7495C406.209 83.6157 406.556 83.5476 406.906 83.549C407.611 83.5517 408.286 83.8342 408.784 84.3349C409.282 84.8356 409.563 85.5139 409.566 86.222L409.442 288.422C409.443 288.773 409.376 289.121 409.244 289.446C409.111 289.771 408.916 290.066 408.67 290.315C408.424 290.564 408.132 290.763 407.81 290.898C407.488 291.034 407.142 291.104 406.793 291.106Z" fill="#E0E0E0"/>
<path d="M351.866 68.9922C351.866 69.1476 331.313 69.2512 305.968 69.2408C280.623 69.2305 260.07 69.0958 260.07 68.9507C260.07 68.8057 280.623 68.6917 305.968 68.7021C331.313 68.7124 351.866 68.8886 351.866 68.9922Z" fill="#263238"/>
<path d="M216.234 74.131H216.533H217.358L220.378 74.0481L220.285 74.1517C220.285 73.4679 220.285 72.7323 220.285 71.9345C220.285 71.5305 220.285 71.1471 220.285 70.6602C220.334 70.4118 220.46 70.1856 220.645 70.0142C220.831 69.8428 221.066 69.7352 221.316 69.707C221.811 69.707 222.233 69.707 222.769 69.707C223.055 69.747 223.317 69.8897 223.506 70.1087C223.696 70.3277 223.8 70.6082 223.8 70.8985C223.8 71.9345 223.8 72.9706 223.8 74.1207L223.645 73.9652H227.469L227.304 74.131C227.304 72.5873 227.304 71.0228 227.304 69.3444C227.304 68.9403 227.304 68.5259 227.304 68.1218C227.288 67.9422 227.231 67.7686 227.138 67.6143C227.045 67.46 226.919 67.3288 226.768 67.2308L225.099 65.573L223.491 63.9775C223.233 63.7081 222.965 63.4491 222.707 63.2004C222.45 62.9518 222.233 62.672 221.924 62.6099C221.778 62.573 221.626 62.5688 221.478 62.5974C221.33 62.6261 221.19 62.6869 221.068 62.7756C220.842 62.9621 220.584 63.2419 220.357 63.4698L218.914 64.7442C218.048 65.6456 217.141 66.4744 216.492 67.2411C216.307 67.6931 216.243 68.1862 216.307 68.6709C216.307 69.1475 216.307 69.593 216.307 70.0282C216.307 70.8467 216.307 71.5719 216.307 72.2039C216.307 72.8359 216.307 73.24 216.307 73.6026C216.321 73.7715 216.321 73.9414 216.307 74.1103C216.293 73.9552 216.293 73.7992 216.307 73.644C216.307 73.2711 216.307 72.8152 216.307 72.2764V70.0696C216.307 69.6344 216.307 69.1786 216.307 68.6916V67.9353C216.306 67.6514 216.381 67.3726 216.523 67.1272C217.234 66.2465 218.079 65.4798 218.945 64.5473L220.306 63.1486C220.54 62.8906 220.788 62.6451 221.048 62.413C221.206 62.2925 221.389 62.2095 221.584 62.17C221.778 62.1306 221.979 62.1357 222.171 62.1851C222.538 62.3171 222.859 62.5506 223.099 62.8585L223.882 63.6252L225.501 65.2208L227.17 66.8785C227.352 67.0061 227.504 67.1726 227.614 67.366C227.725 67.5595 227.791 67.7751 227.809 67.9975C227.809 68.4119 227.809 68.816 227.809 69.2304C227.809 70.8674 227.809 72.4733 227.809 74.017V74.1828H227.644H223.82H223.666V74.0688C223.666 72.9499 223.666 71.8827 223.666 70.8467C223.673 70.6284 223.601 70.415 223.462 70.2469C223.323 70.0788 223.128 69.9678 222.913 69.9349C222.481 69.9349 221.955 69.9349 221.532 69.9349C221.336 69.9533 221.151 70.0347 221.004 70.1672C220.857 70.2997 220.757 70.4762 220.718 70.6705C220.718 71.0539 220.718 71.5097 220.718 71.8931V74.2035H220.625H217.533H216.739L216.234 74.131Z" fill="#263238"/>
<path d="M391.539 63.8325C391.509 63.801 391.469 63.7824 391.425 63.7807H382.407H378.985L378.923 63.2627L378.779 62.2266C378.774 62.1908 378.757 62.1578 378.731 62.1332C378.704 62.1086 378.67 62.094 378.634 62.0919H376.13C375.934 62.0919 375.8 62.0919 375.8 62.2577C375.8 62.4235 375.934 62.4235 376.13 62.4235H378.418L379.696 72.349C379.697 72.3681 379.702 72.3867 379.711 72.4038C379.719 72.4209 379.731 72.4362 379.745 72.4487C379.76 72.4612 379.776 72.4707 379.794 72.4768C379.813 72.4828 379.832 72.4851 379.851 72.4837H387.21H389.972C390.209 72.4837 390.323 72.4837 390.323 72.3283C390.323 72.1729 390.209 72.1626 389.972 72.1522L380.098 72.0175L379.871 70.2665L390.24 70.4012C390.276 70.402 390.312 70.3899 390.34 70.3672C390.368 70.3445 390.388 70.3125 390.395 70.2769L391.158 66.1326L391.57 63.8947C391.565 63.8718 391.554 63.8504 391.539 63.8325ZM379.036 64.0605L391.075 64.2262L390.044 70.0282H382.654H379.861L379.036 64.0605Z" fill="#263238"/>
<path d="M382.643 74.8356C382.582 74.564 382.433 74.3201 382.221 74.1414C382.06 74.0109 381.868 73.9243 381.664 73.8898C381.46 73.8554 381.251 73.8742 381.056 73.9445C380.816 74.0308 380.608 74.1896 380.461 74.3992C380.314 74.6088 380.235 74.8589 380.235 75.1153C380.235 75.3717 380.314 75.6218 380.461 75.8314C380.608 76.041 380.816 76.1998 381.056 76.2861C381.188 76.3344 381.328 76.359 381.468 76.3586C381.741 76.3594 382.006 76.2682 382.221 76.0996C382.443 75.9327 382.598 75.6893 382.654 75.4158C382.669 75.3197 382.669 75.2217 382.654 75.1257C382.661 75.0289 382.657 74.9316 382.643 74.8356ZM381.18 75.8716C381.024 75.8132 380.89 75.7085 380.796 75.5715C380.701 75.4345 380.65 75.2717 380.65 75.1049C380.65 74.9382 380.701 74.7754 380.796 74.6384C380.89 74.5013 381.024 74.3966 381.18 74.3382C381.272 74.3235 381.366 74.3235 381.458 74.3382C381.636 74.3404 381.809 74.3983 381.953 74.504C382.104 74.6182 382.216 74.7778 382.272 74.9599C382.279 75.0184 382.279 75.0775 382.272 75.136V75.1049C382.283 75.1631 382.283 75.2229 382.272 75.2811C382.216 75.4632 382.104 75.6228 381.953 75.7369C381.842 75.8311 381.708 75.894 381.565 75.9195C381.422 75.945 381.275 75.932 381.138 75.882L381.18 75.8716Z" fill="#263238"/>
<path d="M389.198 74.8874C389.149 74.6166 389.002 74.3734 388.786 74.2036C388.627 74.0696 388.436 73.9799 388.231 73.9435C388.027 73.9072 387.817 73.9254 387.621 73.9964C387.381 74.0827 387.173 74.2415 387.027 74.4511C386.88 74.6607 386.801 74.9108 386.801 75.1671C386.801 75.4235 386.88 75.6736 387.027 75.8832C387.173 76.0928 387.381 76.2516 387.621 76.3379C387.753 76.3863 387.893 76.4108 388.034 76.4104C388.306 76.4113 388.571 76.3201 388.786 76.1514C389.009 75.9845 389.163 75.7412 389.219 75.4676C389.235 75.3715 389.235 75.2736 389.219 75.1775C389.228 75.0803 389.221 74.9823 389.198 74.8874ZM387.745 75.9235C387.591 75.861 387.46 75.7535 387.368 75.6149C387.276 75.4762 387.228 75.313 387.23 75.1464C387.231 74.9803 387.283 74.8185 387.379 74.6832C387.475 74.5478 387.61 74.4455 387.766 74.3901C387.858 74.3754 387.952 74.3754 388.044 74.3901C388.222 74.3922 388.395 74.4502 388.539 74.5559C388.64 74.6288 388.724 74.7232 388.784 74.8325C388.845 74.9417 388.881 75.0631 388.889 75.1879C388.9 75.2461 388.9 75.3058 388.889 75.364C388.836 75.5474 388.724 75.7078 388.57 75.8199C388.46 75.9016 388.332 75.9548 388.197 75.9747C388.063 75.9946 387.925 75.9806 387.797 75.9338L387.745 75.9235Z" fill="#263238"/>
<path d="M251.248 299.985C251.248 301.446 250.217 302.337 248.445 302.337H246.589V304.512H245.857V297.612H248.424C250.197 297.612 251.258 298.503 251.248 299.985ZM250.527 299.985C250.527 298.876 249.805 298.244 248.465 298.244H246.589V301.694H248.414C249.805 301.694 250.527 301.062 250.527 299.985Z" fill="#263238"/>
<path d="M257.421 299.332V304.512H256.762V303.569C256.575 303.895 256.304 304.163 255.977 304.346C255.65 304.528 255.28 304.618 254.906 304.606C254.61 304.634 254.311 304.595 254.032 304.492C253.753 304.39 253.5 304.226 253.291 304.012C253.083 303.799 252.924 303.541 252.828 303.259C252.731 302.976 252.698 302.675 252.731 302.378V299.373H253.432V302.305C253.397 302.523 253.411 302.745 253.475 302.956C253.538 303.167 253.648 303.36 253.798 303.521C253.947 303.682 254.131 303.807 254.336 303.885C254.541 303.964 254.76 303.994 254.978 303.973C255.223 303.986 255.466 303.944 255.693 303.852C255.919 303.76 256.123 303.619 256.29 303.44C256.457 303.26 256.583 303.046 256.659 302.813C256.735 302.579 256.759 302.332 256.731 302.088V299.373L257.421 299.332Z" fill="#263238"/>
<path d="M261.968 299.301V299.933H261.803C261.556 299.92 261.309 299.961 261.081 300.056C260.852 300.15 260.647 300.294 260.48 300.477C260.314 300.66 260.19 300.878 260.117 301.116C260.045 301.353 260.025 301.604 260.061 301.85V304.481H259.37V299.301H260.04V300.337C260.224 299.992 260.505 299.71 260.848 299.525C261.191 299.341 261.58 299.263 261.968 299.301Z" fill="#263238"/>
<path d="M262.647 301.922C262.637 301.571 262.699 301.221 262.83 300.895C262.96 300.568 263.157 300.273 263.406 300.027C263.656 299.781 263.954 299.589 264.281 299.464C264.608 299.339 264.957 299.284 265.306 299.301C265.711 299.27 266.116 299.351 266.479 299.533C266.842 299.715 267.149 299.993 267.368 300.337L266.842 300.689C266.677 300.446 266.453 300.248 266.192 300.114C265.931 299.98 265.641 299.914 265.348 299.923C264.841 299.959 264.367 300.187 264.02 300.561C263.674 300.935 263.482 301.427 263.482 301.938C263.482 302.448 263.674 302.94 264.02 303.314C264.367 303.688 264.841 303.916 265.348 303.953C265.64 303.966 265.932 303.903 266.193 303.771C266.455 303.638 266.678 303.441 266.842 303.196L267.368 303.559C267.146 303.9 266.839 304.175 266.476 304.357C266.114 304.539 265.711 304.621 265.306 304.595C264.953 304.611 264.6 304.553 264.27 304.425C263.94 304.296 263.64 304.1 263.39 303.848C263.14 303.597 262.945 303.296 262.817 302.964C262.689 302.632 262.631 302.277 262.647 301.922Z" fill="#263238"/>
<path d="M273.388 301.518V304.523H272.697V301.591C272.729 301.374 272.712 301.154 272.647 300.945C272.582 300.737 272.471 300.546 272.322 300.386C272.174 300.227 271.991 300.103 271.788 300.025C271.586 299.946 271.368 299.915 271.151 299.933C270.905 299.915 270.658 299.951 270.428 300.04C270.198 300.128 269.989 300.265 269.817 300.443C269.645 300.621 269.514 300.834 269.433 301.068C269.352 301.302 269.323 301.551 269.347 301.798V304.523H268.646V297.208H269.265V300.244C269.478 299.933 269.767 299.682 270.105 299.517C270.443 299.352 270.817 299.277 271.192 299.301C271.49 299.266 271.792 299.299 272.075 299.398C272.358 299.497 272.615 299.66 272.826 299.873C273.037 300.087 273.198 300.346 273.295 300.631C273.393 300.916 273.424 301.219 273.388 301.518Z" fill="#263238"/>
<path d="M279.139 301.311V304.523H278.479V303.715C278.287 304.004 278.021 304.236 277.71 304.388C277.398 304.539 277.051 304.603 276.707 304.575C275.542 304.575 274.82 303.963 274.82 303.062C274.82 302.16 275.336 301.601 276.81 301.601H278.448V301.28C278.448 300.399 277.954 299.912 276.985 299.912C276.36 299.906 275.754 300.123 275.274 300.523L274.965 300.005C275.55 299.538 276.279 299.289 277.026 299.301C277.304 299.257 277.588 299.277 277.856 299.361C278.125 299.444 278.371 299.589 278.575 299.783C278.779 299.977 278.936 300.216 279.034 300.481C279.132 300.746 279.168 301.03 279.139 301.311ZM278.438 302.969V302.119H276.82C275.789 302.119 275.501 302.513 275.501 303.052C275.501 303.59 275.975 304.025 276.799 304.025C277.149 304.047 277.496 303.956 277.79 303.766C278.085 303.576 278.312 303.297 278.438 302.969Z" fill="#263238"/>
<path d="M280.313 303.932L280.623 303.383C281.157 303.767 281.8 303.971 282.457 303.963C283.437 303.963 283.839 303.632 283.839 303.124C283.839 301.767 280.499 302.834 280.499 300.782C280.499 299.933 281.221 299.311 282.56 299.311C283.197 299.301 283.824 299.466 284.375 299.788L284.076 300.358C283.629 300.055 283.099 299.899 282.56 299.912C281.622 299.912 281.21 300.275 281.21 300.762C281.21 302.16 284.55 301.114 284.55 303.103C284.55 303.994 283.766 304.574 282.426 304.574C281.67 304.606 280.925 304.38 280.313 303.932Z" fill="#263238"/>
<path d="M290.301 302.161H285.993C286.008 302.416 286.074 302.665 286.187 302.894C286.299 303.124 286.456 303.328 286.648 303.496C286.84 303.664 287.063 303.791 287.304 303.872C287.546 303.952 287.801 303.983 288.054 303.963C288.35 303.97 288.645 303.912 288.917 303.794C289.189 303.676 289.433 303.501 289.631 303.279L290.023 303.735C289.653 304.125 289.177 304.397 288.655 304.516C288.132 304.635 287.586 304.597 287.085 304.405C286.585 304.214 286.151 303.878 285.839 303.44C285.528 303.002 285.351 302.481 285.333 301.943C285.333 301.275 285.597 300.635 286.067 300.163C286.536 299.691 287.173 299.425 287.838 299.425C288.502 299.425 289.139 299.691 289.609 300.163C290.078 300.635 290.342 301.275 290.342 301.943C290.311 302.005 290.301 302.078 290.301 302.161ZM285.993 301.632H289.652C289.617 301.168 289.409 300.735 289.07 300.418C288.731 300.102 288.285 299.926 287.822 299.926C287.359 299.926 286.914 300.102 286.574 300.418C286.235 300.735 286.027 301.168 285.993 301.632Z" fill="#263238"/>
<path d="M301.866 299.353L299.918 304.533H299.258L297.64 300.285L296.011 304.533H295.352L293.414 299.353H294.084L295.692 303.756L297.351 299.353H297.949L299.598 303.756L301.237 299.353H301.866Z" fill="#263238"/>
<path d="M306.649 301.332V304.543H305.989V303.735C305.795 304.022 305.529 304.252 305.217 304.401C304.906 304.55 304.56 304.614 304.216 304.585C303.041 304.585 302.33 303.974 302.33 303.083C302.33 302.192 302.845 301.611 304.319 301.611H305.958V301.301C305.958 300.41 305.463 299.933 304.495 299.933C303.87 299.922 303.262 300.139 302.784 300.544L302.474 300.016C303.061 299.552 303.79 299.307 304.536 299.322C304.814 299.275 305.099 299.294 305.368 299.377C305.638 299.459 305.885 299.604 306.089 299.799C306.294 299.993 306.451 300.233 306.548 300.499C306.645 300.765 306.68 301.05 306.649 301.332ZM305.958 302.979V302.14H304.309C303.278 302.14 302.99 302.533 302.99 303.062C302.99 303.59 303.464 304.036 304.288 304.036C304.643 304.064 304.997 303.977 305.298 303.786C305.599 303.596 305.83 303.313 305.958 302.979Z" fill="#263238"/>
<path d="M307.823 303.953L308.143 303.404C308.677 303.788 309.32 303.991 309.977 303.984C310.957 303.984 311.359 303.642 311.359 303.134C311.359 301.787 308.019 302.844 308.019 300.803C308.019 299.954 308.741 299.322 310.081 299.322C310.718 299.312 311.346 299.48 311.895 299.809L311.596 300.368C311.146 300.064 310.612 299.908 310.07 299.922C309.143 299.922 308.73 300.285 308.73 300.782C308.73 302.181 312.07 301.124 312.07 303.114C312.07 304.015 311.286 304.595 309.947 304.595C309.188 304.62 308.442 304.394 307.823 303.953Z" fill="#263238"/>
<path d="M315.193 303.953L315.503 303.404C316.039 303.784 316.681 303.987 317.337 303.984C318.316 303.984 318.718 303.652 318.718 303.134C318.718 301.787 315.379 302.855 315.379 300.803C315.379 299.954 316.1 299.322 317.44 299.322C318.078 299.315 318.705 299.483 319.254 299.809L318.955 300.368C318.506 300.07 317.978 299.915 317.44 299.923C316.502 299.923 316.09 300.296 316.09 300.782C316.09 302.181 319.44 301.124 319.43 303.124C319.43 304.015 318.646 304.595 317.306 304.595C316.551 304.621 315.808 304.395 315.193 303.953Z" fill="#263238"/>
<path d="M325.346 299.373V304.554H324.676V303.6C324.489 303.926 324.218 304.194 323.891 304.377C323.564 304.559 323.194 304.649 322.82 304.637C322.524 304.665 322.226 304.626 321.946 304.523C321.667 304.421 321.414 304.257 321.205 304.043C320.997 303.83 320.839 303.572 320.742 303.29C320.645 303.007 320.612 302.706 320.646 302.409V299.404H321.346V302.347C321.315 302.563 321.332 302.784 321.397 302.992C321.462 303.201 321.573 303.392 321.721 303.551C321.87 303.71 322.052 303.834 322.255 303.912C322.458 303.991 322.676 304.022 322.893 304.005C323.136 304.018 323.38 303.978 323.606 303.887C323.833 303.796 324.037 303.657 324.204 303.478C324.371 303.299 324.497 303.086 324.573 302.853C324.649 302.62 324.674 302.373 324.645 302.129V299.415L325.346 299.373Z" fill="#263238"/>
<path d="M326.779 302.005C326.767 301.653 326.828 301.303 326.957 300.977C327.087 300.65 327.282 300.354 327.531 300.107C327.78 299.859 328.077 299.667 328.403 299.54C328.73 299.414 329.079 299.357 329.428 299.373C329.833 299.343 330.238 299.423 330.601 299.605C330.964 299.788 331.271 300.066 331.489 300.409L330.974 300.762C330.806 300.519 330.58 300.322 330.318 300.188C330.055 300.054 329.764 299.988 329.469 299.995C329.014 300.099 328.607 300.356 328.316 300.723C328.024 301.09 327.866 301.546 327.866 302.015C327.866 302.485 328.024 302.94 328.316 303.307C328.607 303.675 329.014 303.931 329.469 304.036C329.763 304.045 330.054 303.98 330.317 303.848C330.579 303.716 330.805 303.521 330.974 303.279L331.489 303.632C331.268 303.972 330.96 304.247 330.598 304.43C330.236 304.612 329.832 304.694 329.428 304.668C329.076 304.684 328.724 304.626 328.395 304.498C328.067 304.37 327.768 304.174 327.519 303.924C327.27 303.673 327.075 303.373 326.948 303.043C326.82 302.712 326.763 302.359 326.779 302.005Z" fill="#263238"/>
<path d="M332.2 302.005C332.19 301.653 332.252 301.303 332.382 300.976C332.513 300.649 332.709 300.353 332.959 300.106C333.208 299.859 333.506 299.667 333.833 299.541C334.16 299.415 334.509 299.358 334.859 299.373C335.264 299.345 335.668 299.426 336.031 299.609C336.393 299.791 336.701 300.067 336.921 300.409L336.395 300.772C336.232 300.526 336.009 300.325 335.748 300.189C335.486 300.053 335.195 299.986 334.9 299.995C334.445 300.099 334.038 300.356 333.747 300.723C333.456 301.09 333.297 301.546 333.297 302.015C333.297 302.485 333.456 302.941 333.747 303.308C334.038 303.675 334.445 303.931 334.9 304.036C335.193 304.046 335.483 303.982 335.744 303.85C336.005 303.718 336.229 303.521 336.395 303.279L336.921 303.632C336.7 303.973 336.392 304.249 336.03 304.431C335.668 304.613 335.263 304.695 334.859 304.668C334.507 304.682 334.156 304.623 333.827 304.495C333.499 304.366 333.2 304.171 332.95 303.921C332.701 303.671 332.505 303.372 332.376 303.042C332.247 302.712 332.187 302.359 332.2 302.005Z" fill="#263238"/>
<path d="M342.642 302.181H338.323C338.336 302.437 338.4 302.688 338.512 302.919C338.623 303.149 338.78 303.355 338.972 303.523C339.165 303.691 339.389 303.819 339.632 303.898C339.874 303.977 340.13 304.006 340.384 303.984C340.68 303.992 340.974 303.936 341.246 303.82C341.518 303.703 341.762 303.53 341.961 303.31L342.353 303.766C341.981 304.152 341.504 304.419 340.982 304.535C340.46 304.651 339.916 304.611 339.417 304.419C338.918 304.227 338.485 303.892 338.174 303.456C337.862 303.019 337.684 302.5 337.663 301.963C337.646 301.622 337.699 301.28 337.819 300.96C337.939 300.64 338.123 300.348 338.36 300.102C338.597 299.856 338.881 299.662 339.196 299.531C339.51 299.4 339.848 299.336 340.189 299.342C340.529 299.34 340.866 299.408 341.178 299.544C341.49 299.679 341.771 299.878 342.003 300.129C342.235 300.379 342.412 300.675 342.524 300.998C342.635 301.321 342.679 301.664 342.652 302.005C342.652 302.005 342.642 302.109 342.642 302.181ZM338.333 301.663H341.982C341.982 301.177 341.79 300.71 341.448 300.366C341.106 300.022 340.641 299.829 340.158 299.829C339.674 299.829 339.21 300.022 338.868 300.366C338.525 300.71 338.333 301.177 338.333 301.663Z" fill="#263238"/>
<path d="M343.353 303.974L343.672 303.414C344.203 303.8 344.841 304.007 345.496 304.005C346.527 304.005 346.878 303.663 346.878 303.155C346.878 301.808 343.538 302.865 343.538 300.814C343.538 299.974 344.27 299.342 345.599 299.342C346.241 299.331 346.873 299.5 347.424 299.829L347.125 300.389C346.659 300.068 346.102 299.908 345.538 299.933C344.61 299.933 344.198 300.296 344.198 300.782C344.198 302.192 347.537 301.135 347.537 303.124C347.537 304.015 346.754 304.606 345.414 304.595C344.679 304.613 343.957 304.395 343.353 303.974Z" fill="#263238"/>
<path d="M348.146 303.974L348.465 303.424C348.997 303.807 349.636 304.01 350.289 304.005C351.269 304.005 351.671 303.663 351.671 303.155C351.671 301.808 348.331 302.865 348.331 300.824C348.331 299.974 349.063 299.342 350.392 299.342C351.034 299.331 351.666 299.5 352.217 299.829L351.918 300.389C351.465 300.09 350.934 299.935 350.392 299.943C349.465 299.943 349.053 300.306 349.053 300.803C349.053 302.202 352.392 301.145 352.392 303.134C352.392 304.036 351.609 304.616 350.269 304.616C349.51 304.641 348.764 304.415 348.146 303.974Z" fill="#263238"/>
<path d="M354.454 298.772V299.384H356.041V299.933H354.474V304.523H353.784V299.933H352.866V299.342H353.784V298.7C353.768 298.492 353.797 298.283 353.87 298.087C353.943 297.892 354.058 297.715 354.206 297.568C354.354 297.422 354.533 297.311 354.729 297.241C354.925 297.172 355.133 297.146 355.34 297.167C355.711 297.154 356.076 297.271 356.371 297.498L356.134 298.016C355.918 297.842 355.648 297.75 355.371 297.757C354.814 297.799 354.454 298.13 354.454 298.772Z" fill="#263238"/>
<path d="M361.627 299.394V304.574H360.998V303.621C360.811 303.947 360.54 304.215 360.213 304.398C359.886 304.58 359.516 304.67 359.143 304.657C358.846 304.685 358.548 304.647 358.268 304.544C357.989 304.441 357.736 304.277 357.528 304.064C357.319 303.851 357.161 303.593 357.064 303.31C356.967 303.028 356.934 302.727 356.968 302.43V299.425H357.669V302.368C357.637 302.584 357.654 302.804 357.719 303.013C357.784 303.221 357.895 303.412 358.043 303.572C358.192 303.731 358.375 303.855 358.577 303.933C358.78 304.012 358.998 304.043 359.215 304.025C359.458 304.039 359.702 303.999 359.929 303.908C360.155 303.817 360.359 303.677 360.526 303.499C360.693 303.32 360.819 303.106 360.895 302.873C360.972 302.64 360.996 302.394 360.967 302.15V299.435L361.627 299.394Z" fill="#263238"/>
<path d="M363.575 297.26H364.276V304.574H363.586L363.575 297.26Z" fill="#263238"/>
<path d="M262.255 280.579H258.565V278.818H268.027V280.579H264.327V290.028H262.266L262.255 280.579Z" fill="#00D18F"/>
<path d="M277.778 285.127V290.028H275.789V285.428C275.789 283.905 275.036 283.169 273.727 283.169C273.394 283.149 273.061 283.204 272.752 283.329C272.443 283.453 272.165 283.646 271.938 283.891C271.712 284.137 271.542 284.43 271.441 284.749C271.341 285.069 271.312 285.407 271.356 285.739V290.069H269.367V278.175H271.356V282.496C271.729 282.128 272.173 281.842 272.661 281.654C273.149 281.467 273.669 281.383 274.191 281.408C276.263 281.377 277.778 282.548 277.778 285.127Z" fill="#00D18F"/>
<path d="M287.436 285.013V290.028H285.55V288.992C285.24 289.398 284.833 289.717 284.365 289.921C283.898 290.124 283.387 290.203 282.881 290.152C280.933 290.152 279.706 289.116 279.706 287.583C279.706 286.049 280.665 285.044 283.241 285.044H285.447V284.91C285.447 283.739 284.746 283.055 283.324 283.055C282.395 283.042 281.488 283.341 280.747 283.905L279.964 282.444C281.021 281.72 282.282 281.357 283.561 281.408C286.014 281.377 287.436 282.548 287.436 285.013ZM285.447 287.355V286.319H283.386C282.035 286.319 281.664 286.826 281.664 287.459C281.664 288.091 282.273 288.64 283.293 288.64C283.74 288.675 284.187 288.57 284.573 288.34C284.958 288.11 285.264 287.766 285.447 287.355Z" fill="#00D18F"/>
<path d="M298.362 285.127V290.028H296.373V285.428C296.373 283.905 295.62 283.169 294.311 283.169C293.978 283.148 293.644 283.201 293.333 283.325C293.023 283.449 292.743 283.641 292.515 283.887C292.288 284.133 292.117 284.427 292.016 284.747C291.915 285.067 291.886 285.406 291.93 285.739V290.069H289.982V281.512H291.879V282.62C292.249 282.213 292.705 281.894 293.213 281.686C293.721 281.478 294.269 281.386 294.816 281.418C296.857 281.377 298.362 282.548 298.362 285.127Z" fill="#00D18F"/>
<path d="M304.371 286.36L302.887 287.769V290.028H300.897V278.175H302.887V285.345L307.01 281.501H309.463L305.907 285.096L309.793 290.059H307.37L304.371 286.36Z" fill="#00D18F"/>
<path d="M323.398 281.47L319.409 290.712C318.636 292.66 317.554 293.25 316.131 293.25C315.303 293.266 314.496 292.988 313.854 292.463L314.647 290.991C315.045 291.365 315.567 291.575 316.111 291.582C316.812 291.582 317.234 291.24 317.616 290.401L317.76 290.059L314.039 281.47H316.1L318.78 287.8L321.47 281.47H323.398Z" fill="#00D18F"/>
<path d="M323.696 285.749C323.663 284.841 323.902 283.943 324.38 283.172C324.858 282.4 325.555 281.79 326.381 281.42C327.207 281.05 328.124 280.936 329.015 281.094C329.905 281.251 330.729 281.673 331.379 282.304C332.03 282.936 332.477 283.748 332.665 284.637C332.853 285.527 332.771 286.452 332.432 287.295C332.093 288.137 331.51 288.858 330.76 289.366C330.01 289.873 329.126 290.143 328.221 290.142C327.632 290.175 327.041 290.085 326.488 289.878C325.934 289.671 325.429 289.351 325.004 288.939C324.58 288.526 324.244 288.03 324.019 287.481C323.794 286.932 323.684 286.343 323.696 285.749ZM330.757 285.749C330.731 285.254 330.561 284.778 330.268 284.378C329.976 283.979 329.574 283.675 329.111 283.503C328.649 283.331 328.146 283.299 327.666 283.411C327.185 283.523 326.748 283.773 326.407 284.132C326.067 284.491 325.839 284.942 325.751 285.43C325.662 285.917 325.718 286.42 325.911 286.877C326.104 287.333 326.425 287.722 326.836 287.997C327.247 288.272 327.728 288.419 328.221 288.422C328.567 288.432 328.912 288.368 329.232 288.236C329.552 288.103 329.841 287.904 330.08 287.652C330.319 287.4 330.503 287.101 330.62 286.773C330.736 286.445 330.783 286.096 330.757 285.749Z" fill="#00D18F"/>
<path d="M342.92 281.47V290.028H341.023V288.94C340.684 289.332 340.262 289.644 339.787 289.852C339.313 290.06 338.799 290.159 338.282 290.142C336.097 290.142 334.612 288.94 334.612 286.36V281.47H336.602V286.091C336.602 287.645 337.344 288.381 338.601 288.381C338.931 288.395 339.26 288.335 339.565 288.207C339.869 288.079 340.142 287.885 340.364 287.638C340.585 287.392 340.75 287.1 340.846 286.782C340.942 286.464 340.968 286.129 340.92 285.801V281.47H342.92Z" fill="#00D18F"/>
<path d="M345.167 288.888C345.168 288.721 345.203 288.557 345.269 288.403C345.335 288.25 345.431 288.112 345.551 287.997C345.671 287.882 345.813 287.792 345.969 287.734C346.124 287.675 346.29 287.648 346.455 287.655C346.618 287.655 346.779 287.687 346.929 287.75C347.079 287.812 347.215 287.904 347.33 288.019C347.445 288.135 347.536 288.272 347.598 288.423C347.66 288.574 347.692 288.735 347.692 288.899C347.692 289.062 347.66 289.224 347.598 289.374C347.536 289.525 347.445 289.662 347.33 289.778C347.215 289.893 347.079 289.985 346.929 290.047C346.779 290.11 346.618 290.142 346.455 290.142C346.288 290.149 346.121 290.122 345.964 290.062C345.807 290.002 345.664 289.91 345.544 289.793C345.423 289.676 345.328 289.535 345.263 289.38C345.198 289.224 345.166 289.057 345.167 288.888ZM345.27 278.818H347.6L347.208 286.308H345.621L345.27 278.818Z" fill="#00D18F"/>
<path d="M331.489 110.953L328.479 153.846C328.247 157.221 326.749 160.381 324.289 162.689C321.829 164.996 318.589 166.28 315.224 166.279C313.405 166.281 311.605 165.906 309.935 165.179C308.266 164.452 306.763 163.389 305.519 162.054C304.276 160.72 303.318 159.142 302.705 157.42C302.093 155.698 301.839 153.868 301.959 152.044C302.227 147.962 302.464 144.625 302.464 144.625C302.464 144.625 292.157 143.009 292.012 132.638C291.94 126.65 292.971 113.056 293.857 102.592C294.147 99.1987 295.692 96.0382 298.189 93.7358C300.686 91.4335 303.951 90.157 307.339 90.1591H313.585C316.131 90.3103 318.62 90.9723 320.907 92.106C323.194 93.2398 325.231 94.8223 326.9 96.7603C328.569 98.6983 329.834 100.953 330.623 103.39C331.411 105.828 331.705 108.399 331.489 110.953Z" fill="#FFBE9D"/>
<path d="M302.464 144.574C307.217 144.553 311.865 143.169 315.863 140.585C315.863 140.585 312.554 148.127 302.247 147.195L302.464 144.574Z" fill="#EB996E"/>
<path d="M295.785 112.497C295.97 112.683 297.094 111.854 298.671 111.865C300.248 111.875 301.423 112.663 301.598 112.466C301.773 112.269 301.495 112.031 300.99 111.658C300.301 111.183 299.485 110.93 298.65 110.932C297.825 110.931 297.021 111.193 296.352 111.678C295.867 112.062 295.702 112.404 295.785 112.497Z" fill="#263238"/>
<path d="M309.927 116.921C309.924 117.307 310.071 117.679 310.337 117.957C310.602 118.236 310.965 118.399 311.349 118.413C311.536 118.425 311.724 118.401 311.901 118.341C312.078 118.28 312.242 118.185 312.383 118.061C312.524 117.937 312.639 117.786 312.721 117.617C312.804 117.448 312.853 117.264 312.864 117.076C312.87 116.69 312.724 116.316 312.458 116.037C312.191 115.758 311.827 115.595 311.442 115.584C311.254 115.569 311.066 115.591 310.887 115.651C310.709 115.71 310.544 115.805 310.402 115.93C310.261 116.054 310.146 116.206 310.064 116.377C309.983 116.547 309.936 116.732 309.927 116.921Z" fill="#263238"/>
<path d="M295.765 116.921C295.762 117.307 295.909 117.679 296.174 117.957C296.44 118.236 296.803 118.399 297.187 118.413C297.375 118.427 297.563 118.403 297.742 118.344C297.921 118.284 298.086 118.189 298.228 118.065C298.369 117.941 298.485 117.789 298.569 117.619C298.652 117.45 298.701 117.265 298.713 117.076C298.715 116.69 298.568 116.319 298.303 116.04C298.037 115.761 297.674 115.598 297.29 115.584C297.102 115.569 296.913 115.591 296.734 115.651C296.555 115.71 296.389 115.804 296.247 115.929C296.105 116.054 295.989 116.206 295.906 116.376C295.823 116.546 295.775 116.732 295.765 116.921Z" fill="#263238"/>
<path d="M311.101 112.704C311.287 112.901 312.41 112.072 313.987 112.072C315.564 112.072 316.739 112.88 316.915 112.683C317.09 112.486 316.812 112.248 316.296 111.875C315.613 111.396 314.799 111.143 313.967 111.15C313.142 111.149 312.337 111.41 311.668 111.896C311.184 112.269 311.019 112.621 311.101 112.704Z" fill="#263238"/>
<path d="M305.463 125.106C304.627 124.843 303.761 124.686 302.886 124.64C302.484 124.64 302.103 124.515 302.031 124.236C301.997 123.817 302.09 123.398 302.299 123.034L303.505 119.925C305.164 115.512 306.37 111.886 306.185 111.813C305.999 111.74 304.515 115.273 302.855 119.687C302.453 120.775 302.072 121.811 301.711 122.795C301.455 123.285 301.378 123.85 301.495 124.391C301.554 124.535 301.645 124.665 301.761 124.769C301.877 124.873 302.015 124.949 302.165 124.992C302.39 125.05 302.622 125.081 302.855 125.085C303.72 125.203 304.596 125.21 305.463 125.106Z" fill="#263238"/>
<path d="M310.133 126.214C309.875 126.214 309.875 127.924 308.401 129.157C306.927 130.39 305.093 130.193 305.082 130.431C305.072 130.67 305.484 130.773 306.257 130.794C307.267 130.807 308.249 130.463 309.03 129.82C309.777 129.202 310.26 128.319 310.38 127.354C310.494 126.629 310.246 126.204 310.133 126.214Z" fill="#263238"/>
<path d="M311.205 106.933C311.359 107.358 312.947 107.161 314.802 107.379C316.657 107.596 318.172 108.114 318.42 107.731C318.523 107.544 318.265 107.13 317.657 106.695C316.851 106.171 315.932 105.848 314.977 105.752C314.026 105.634 313.061 105.748 312.163 106.084C311.524 106.384 311.133 106.726 311.205 106.933Z" fill="#263238"/>
<path d="M295.548 107.679C295.826 108.042 296.919 107.679 298.228 107.679C299.537 107.679 300.66 107.928 300.907 107.544C301.021 107.358 300.846 106.995 300.361 106.653C299.709 106.244 298.95 106.038 298.181 106.062C297.413 106.086 296.668 106.338 296.042 106.788C295.579 107.13 295.424 107.503 295.548 107.679Z" fill="#263238"/>
<path d="M328.015 118.744C328.19 118.661 335.107 116.672 334.88 123.728C334.653 130.783 327.613 129.126 327.613 128.908C327.613 128.691 328.015 118.744 328.015 118.744Z" fill="#FFBE9D"/>
<path d="M329.85 126.308C329.85 126.308 329.974 126.391 330.17 126.494C330.457 126.631 330.786 126.65 331.087 126.546C331.554 126.273 331.939 125.879 332.201 125.405C332.464 124.931 332.596 124.395 332.582 123.852C332.62 123.245 332.525 122.636 332.303 122.07C332.25 121.837 332.14 121.62 331.984 121.44C331.827 121.259 331.629 121.12 331.407 121.034C331.265 120.993 331.114 121.003 330.979 121.062C330.843 121.12 330.732 121.224 330.664 121.355C330.572 121.552 330.613 121.687 330.572 121.697C330.53 121.707 330.427 121.583 330.489 121.283C330.536 121.11 330.637 120.957 330.778 120.848C330.983 120.715 331.227 120.66 331.468 120.692C331.755 120.761 332.019 120.902 332.237 121.101C332.455 121.301 332.62 121.552 332.716 121.832C332.993 122.456 333.116 123.139 333.076 123.821C332.984 125.251 332.221 126.567 331.19 126.826C330.999 126.877 330.798 126.883 330.604 126.846C330.409 126.808 330.226 126.727 330.067 126.608C329.86 126.473 329.83 126.318 329.85 126.308Z" fill="#EB996E"/>
<path d="M331.932 118.496C331.262 118.451 330.592 118.59 329.995 118.898C329.398 119.207 328.895 119.673 328.541 120.247C328.077 121.283 327.984 122.412 327.51 123.417C327.331 123.945 326.98 124.397 326.515 124.701C326.05 125.005 325.497 125.144 324.944 125.095C324.579 124.979 324.251 124.769 323.992 124.485C323.733 124.202 323.553 123.855 323.47 123.479C323.325 122.723 323.325 121.946 323.47 121.189C323.893 117.874 324.583 114.59 324.717 111.253C324.991 107.908 324.274 104.555 322.656 101.618C320.914 98.7792 317.708 96.6863 314.41 96.9557C312.214 97.1318 310.205 98.2819 308.03 98.5823C306.733 98.7555 305.413 98.629 304.172 98.2125C302.93 97.7959 301.8 97.1004 300.866 96.1786C300.629 95.9507 299.526 95.2151 299.526 95.2151C299.561 94.4268 299.818 93.6648 300.268 93.0186C304.597 89.009 312.379 87.8382 318.09 89.3302C320.993 90.0451 323.706 91.388 326.039 93.265C328.373 95.1421 330.272 97.5083 331.602 100.199C334.055 105.576 333.334 113.056 331.973 118.496" fill="#263238"/>
<path d="M292.723 100.717C293.263 101.761 294.064 102.647 295.047 103.286C296.03 103.925 297.162 104.297 298.331 104.364C300.67 104.458 303.006 104.107 305.216 103.328C308.692 102.457 312.244 101.93 315.822 101.753C316.172 101.753 316.585 101.753 316.77 101.463C316.956 101.173 316.626 100.592 316.265 100.313C313.173 97.8882 305.752 96.3962 301.835 96.2408C299.88 96.1084 297.925 96.4817 296.155 97.3251C294.385 98.1685 292.859 99.4539 291.724 101.059" fill="#263238"/>
<path d="M293.733 101.007C295.849 99.0315 298.549 97.8054 301.423 97.5153C310.349 96.7486 324.985 99.5045 332.664 114.952C333.521 112.291 334.06 109.536 334.272 106.747C334.272 104.675 333.014 92.0759 320.161 88.0973C320.161 88.0973 300.784 80.6687 293.733 101.007Z" fill="#00D18F"/>
<g opacity="0.4">
<path d="M293.733 101.007C295.987 98.6194 299.079 97.2105 302.35 97.0801C310.328 96.7175 325.428 100.396 332.664 114.952C333.521 112.291 334.06 109.536 334.272 106.747C334.272 104.675 333.014 92.0759 320.161 88.0973C320.161 88.0973 300.784 80.6687 293.733 101.007Z" fill="black"/>
</g>
<path d="M331.468 112.735C327.613 106.187 321.831 101.742 315.647 97.8364C309.462 93.9304 299.155 90.0555 292.043 88.1698C289.946 87.4734 287.725 87.2367 285.529 87.4757C284.433 87.6159 283.398 88.0633 282.543 88.7669C281.689 89.4705 281.048 90.4018 280.695 91.4542C280.015 94.148 284.766 98.2923 286.993 99.9189C289.175 101.385 291.436 102.731 293.764 103.949C293.764 103.949 293.703 98.945 301.649 97.9296C312.441 96.562 331.788 113.015 331.468 112.735Z" fill="#00D18F"/>
<path d="M317.049 93.2673C312.495 90.6944 307.324 89.4325 302.104 89.6203C302.843 89.3875 303.617 89.279 304.392 89.2991C308.153 89.1788 311.876 90.0884 315.163 91.9308C315.859 92.2704 316.497 92.7218 317.049 93.2673Z" fill="white"/>
<path d="M370.326 262.303C370.326 262.448 343.94 262.572 311.39 262.572C278.839 262.572 252.453 262.448 252.453 262.303C252.453 262.158 278.839 262.033 311.39 262.033C343.94 262.033 370.326 262.158 370.326 262.303Z" fill="#263238"/>
<path d="M261.019 177.531L245.846 184.421L222.305 165.129L215.09 176.526C215.09 176.526 228.489 192.119 233.468 197.424C238.446 202.728 241.713 205.547 245.661 205.039C249.609 204.531 271.934 193.943 271.934 193.943C271.934 193.943 266.657 178.194 261.019 177.531Z" fill="#FFBE9D"/>
<path d="M196.465 155.401C196.465 155.401 199.423 157.639 201.361 157.473C203.299 157.307 210.637 157.297 211.163 157.338C211.689 157.38 218.852 161.286 218.852 161.286L224.088 166.342L215.842 177.821C215.842 177.821 214.492 176.257 213.565 176.371C212.637 176.485 201.351 175.521 199.65 174.941C197.949 174.361 195.774 174.019 195.207 172.972C194.641 171.926 194.517 171.17 196.073 169.864C196.073 169.864 194.012 168.238 195.496 166.228C195.496 166.228 193.146 164.497 193.991 162.902C193.991 162.902 192.662 162.353 192.445 161.503C192.346 160.616 192.377 159.719 192.538 158.84L195.908 157.804C195.908 157.804 194.919 156.582 196.465 155.401Z" fill="#FFBE9D"/>
<path d="M195.146 157.991C195.146 157.991 195.301 157.929 195.579 157.846C195.986 157.71 196.408 157.623 196.836 157.587C197.509 157.618 198.153 157.869 198.671 158.302C199.009 158.573 199.257 158.941 199.383 159.358C199.508 159.774 199.504 160.219 199.372 160.633C199.297 160.853 199.177 161.055 199.019 161.224C198.861 161.394 198.668 161.528 198.455 161.617C198.1 161.765 197.73 161.873 197.352 161.938L195.538 162.311C194.986 162.477 194.412 162.55 193.837 162.529C194.344 162.254 194.89 162.058 195.455 161.949L197.238 161.451C197.919 161.286 198.661 161.13 198.867 160.415C198.961 160.099 198.961 159.762 198.868 159.446C198.775 159.129 198.591 158.847 198.341 158.633C197.915 158.255 197.389 158.01 196.826 157.929C196.422 157.924 196.019 157.952 195.62 158.012C195.311 158.084 195.146 158.043 195.146 157.991Z" fill="#EB996E"/>
<path d="M199.371 160.985C199.371 160.985 199.639 160.861 200.155 160.757C200.888 160.608 201.633 160.524 202.381 160.508C203.526 160.456 204.66 160.748 205.638 161.348C206.247 161.737 206.686 162.344 206.865 163.047C206.953 163.438 206.919 163.846 206.768 164.217C206.617 164.588 206.355 164.903 206.019 165.119C205.347 165.415 204.62 165.563 203.886 165.554L201.948 165.71L198.681 165.938C197.675 166.052 196.661 166.076 195.65 166.01C196.634 165.765 197.638 165.612 198.65 165.554L201.907 165.212L203.845 165.026C204.498 165.024 205.145 164.897 205.751 164.653C205.995 164.5 206.187 164.277 206.301 164.012C206.415 163.748 206.446 163.454 206.39 163.171C206.237 162.593 205.868 162.095 205.36 161.783C204.465 161.215 203.429 160.913 202.371 160.913C200.536 160.861 199.382 161.099 199.371 160.985Z" fill="#EB996E"/>
<path d="M206.391 165.129C206.391 165.129 206.597 165.129 206.814 165.451C206.958 165.664 207.051 165.908 207.085 166.163C207.119 166.418 207.093 166.678 207.01 166.922C206.874 167.274 206.66 167.592 206.385 167.85C206.111 168.108 205.781 168.301 205.422 168.414C204.592 168.655 203.73 168.771 202.866 168.756C199.31 168.921 196.496 169.616 196.455 169.46C198.489 168.659 200.651 168.237 202.835 168.217C203.651 168.232 204.465 168.141 205.257 167.948C205.559 167.863 205.839 167.716 206.08 167.516C206.321 167.316 206.519 167.068 206.659 166.787C206.741 166.594 206.783 166.386 206.783 166.176C206.783 165.966 206.741 165.758 206.659 165.565C206.453 165.243 206.309 165.171 206.391 165.129Z" fill="#EB996E"/>
<path d="M218.027 167.129C217.583 167.433 217.075 167.632 216.543 167.709C215.278 167.994 213.974 168.054 212.688 167.885C211.405 167.71 210.162 167.306 209.019 166.694C208.153 166.217 207.7 165.793 207.741 165.741C210.906 167.41 214.557 167.902 218.048 167.129H218.027Z" fill="#EB996E"/>
<path d="M206.278 161.835C206.35 161.7 207.081 161.959 207.989 161.835C208.896 161.71 209.555 161.327 209.648 161.451C209.741 161.576 209.133 162.259 208.05 162.373C206.968 162.487 206.195 161.949 206.278 161.835Z" fill="#EB996E"/>
<path d="M205.474 173.159C205.527 172.601 205.693 172.06 205.96 171.569C206.228 171.077 206.592 170.646 207.03 170.299C207.791 169.472 208.847 168.98 209.968 168.932C209.074 169.461 208.217 170.049 207.401 170.693C206.702 171.468 206.058 172.292 205.474 173.159Z" fill="#EB996E"/>
<path d="M181.015 202.956H225.789L234.097 268.768H172.274L181.015 202.956Z" fill="#00D18F"/>
<path d="M225.789 202.956H230.963L246.238 268.768H234.097L225.789 202.956Z" fill="#00D18F"/>
<path opacity="0.3" d="M225.789 202.956H230.963L246.238 268.768H234.097L225.789 202.956Z" fill="black"/>
<path d="M200.784 168.735C200.784 168.735 200.918 168.662 201.144 168.735C201.474 168.829 201.755 169.048 201.928 169.346C202.066 169.566 202.151 169.816 202.176 170.075C202.201 170.334 202.165 170.595 202.072 170.838C201.846 171.42 201.413 171.897 200.856 172.175C200.144 172.496 199.368 172.649 198.588 172.62L198.784 172.485C198.196 173.615 197.496 174.122 197.444 174.05C197.392 173.977 197.908 173.376 198.372 172.289L198.423 172.175H198.567C199.279 172.153 199.979 171.991 200.629 171.698C201.087 171.49 201.453 171.122 201.66 170.662C201.742 170.485 201.784 170.292 201.784 170.097C201.784 169.902 201.742 169.709 201.66 169.533C201.299 168.87 200.763 168.818 200.784 168.735Z" fill="#EB996E"/>
<path d="M192.394 205.826C192.384 205.379 192.419 204.931 192.497 204.49C192.59 203.64 192.765 202.418 193.013 200.884C193.497 197.849 194.322 193.632 195.28 189.094C196.239 184.556 197.125 180.36 197.713 177.345C197.981 175.915 198.218 174.723 198.393 173.77C198.45 173.325 198.554 172.888 198.702 172.465C198.712 172.913 198.678 173.36 198.599 173.801C198.506 174.661 198.331 175.874 198.084 177.407C197.599 180.443 196.775 184.659 195.806 189.208C194.837 193.756 193.971 197.942 193.384 200.957C193.116 202.376 192.879 203.578 192.703 204.521C192.65 204.967 192.546 205.404 192.394 205.826Z" fill="#00D18F"/>
<path d="M216.028 206.489C215.824 205.999 215.658 205.493 215.533 204.977C215.234 203.941 214.843 202.49 214.379 200.832C213.42 197.299 212.142 192.409 210.751 187.001C209.359 181.593 208.143 176.64 207.277 173.117C206.886 171.408 206.546 170.009 206.247 168.901C206.103 168.389 206.006 167.865 205.958 167.336C206.162 167.826 206.328 168.332 206.453 168.849C206.752 169.885 207.143 171.335 207.607 172.993C208.566 176.526 209.844 181.416 211.235 186.835C212.627 192.254 213.843 197.144 214.698 200.698L215.729 204.925C215.876 205.436 215.976 205.96 216.028 206.489Z" fill="#00D18F"/>
<path d="M246.249 268.768C245.475 268.348 244.753 267.841 244.095 267.255C242.806 266.271 241.002 264.872 239.127 263.308L238.158 262.51L238.549 262.448C237.343 264.271 236.261 265.877 235.457 267.006C235.074 267.645 234.617 268.236 234.097 268.768C234.372 268.081 234.718 267.425 235.127 266.81C235.839 265.628 236.869 263.991 238.065 262.158L238.22 261.909L238.457 262.095L239.425 262.883C241.343 264.458 243.064 265.898 244.29 266.965C245.001 267.499 245.657 268.103 246.249 268.768Z" fill="#263238"/>
<path d="M228.51 202.956C228.654 202.956 230.973 216.197 233.664 232.588C236.354 248.979 238.456 262.282 238.302 262.303C238.147 262.323 235.838 249.062 233.148 232.671C230.458 216.28 228.366 202.977 228.51 202.956Z" fill="#263238"/>
<path d="M228.407 221.637C228.085 222.003 227.741 222.349 227.377 222.673C226.329 223.578 225.185 224.363 223.965 225.014C222.031 226.056 219.943 226.776 217.781 227.149C214.909 227.669 211.955 227.495 209.164 226.641C207.528 226.124 206.042 225.214 204.835 223.989C203.501 222.655 202.667 220.897 202.474 219.016C202.396 217.999 202.557 216.978 202.946 216.037C203.335 215.095 203.94 214.259 204.711 213.597C205.524 212.893 206.538 212.469 207.607 212.385C208.703 212.308 209.798 212.538 210.772 213.048C211.754 213.544 212.616 214.252 213.297 215.12C213.986 216.046 214.481 217.104 214.75 218.228C215.276 220.487 215.276 222.838 214.75 225.097C213.764 229.881 211.305 234.231 207.721 237.53C205.906 239.204 203.813 240.544 201.536 241.488C199.337 242.436 196.946 242.848 194.559 242.69C192.236 242.506 190.017 241.642 188.178 240.203C186.388 238.832 185.174 236.836 184.777 234.608C184.383 232.486 184.81 230.291 185.973 228.475C186.505 227.602 187.257 226.887 188.153 226.401C189.049 225.915 190.057 225.676 191.075 225.709C191.565 225.756 192.041 225.902 192.475 226.136C192.908 226.371 193.291 226.691 193.6 227.076C194.17 227.772 194.563 228.597 194.744 229.48C195.036 231.19 194.832 232.949 194.157 234.546C192.991 237.26 190.975 239.516 188.415 240.97C186.488 242.047 184.399 242.803 182.231 243.208C180.869 243.47 179.492 243.643 178.108 243.726C177.644 243.726 177.284 243.778 177.078 243.778H176.717H177.078L178.108 243.674C179.476 243.545 180.835 243.337 182.18 243.052C184.298 242.617 186.334 241.844 188.209 240.763C190.691 239.322 192.638 237.107 193.755 234.453C194.39 232.925 194.576 231.246 194.291 229.615C194.139 228.772 193.785 227.979 193.26 227.304C192.985 226.965 192.645 226.684 192.261 226.478C191.877 226.271 191.457 226.144 191.023 226.102C190.088 226.081 189.164 226.31 188.346 226.765C187.527 227.22 186.844 227.885 186.364 228.692C185.272 230.406 184.874 232.475 185.251 234.474C185.632 236.578 186.788 238.461 188.488 239.747C190.249 241.115 192.37 241.936 194.589 242.11C199.135 242.462 203.763 240.317 207.298 237.074C210.792 233.866 213.196 229.637 214.173 224.983C214.682 222.803 214.682 220.533 214.173 218.352C213.922 217.312 213.467 216.333 212.833 215.472C212.2 214.644 211.394 213.965 210.473 213.483C209.581 213.018 208.579 212.806 207.576 212.872C206.611 212.932 205.688 213.294 204.938 213.908C204.226 214.521 203.668 215.295 203.31 216.167C202.951 217.038 202.803 217.982 202.876 218.922C203.051 220.707 203.834 222.376 205.092 223.647C206.237 224.831 207.653 225.717 209.215 226.227C211.948 227.084 214.845 227.28 217.667 226.796C219.803 226.447 221.872 225.765 223.8 224.776C225.021 224.151 226.174 223.401 227.243 222.538C227.614 222.258 227.871 222.01 228.067 221.854C228.168 221.764 228.283 221.69 228.407 221.637Z" fill="white"/>
<path d="M291.765 157.369H283.694C281.097 158.291 260.143 176.205 260.143 176.205L271.986 194.916L287.343 185.892L291.765 157.369Z" fill="#455A64"/>
<path d="M283.694 157.369L301.525 150.562C301.525 150.562 304.133 156.064 312.07 154.883C320.006 153.701 329.375 148.086 329.375 148.086C329.375 148.086 343.043 155.929 347.083 159.203C351.124 162.477 343.826 231.024 343.826 231.024L342.002 251.569C342.002 251.569 343.434 252.605 343.434 256.148C343.434 259.692 343.568 262.033 343.568 262.033H272.923C272.923 262.033 271.202 253.797 272.501 250.523C273.457 248.245 274.613 246.057 275.953 243.985L277.056 212.322L277.448 184.058L283.694 157.369Z" fill="#455A64"/>
<path d="M347.084 159.203C347.084 159.203 352.784 160.819 354.474 169.315C356.165 177.811 355.845 210.261 355.845 210.261L324.017 203.329C324.017 203.329 328.325 189.715 328.325 188.824C328.325 187.933 337.086 165.958 337.395 165.492C337.705 165.026 347.084 159.203 347.084 159.203Z" fill="#455A64"/>
<path d="M276.912 170.714C277.056 170.714 277.262 176.381 277.366 183.385C277.469 190.389 277.427 196.056 277.283 196.056C277.139 196.056 276.933 190.389 276.83 183.395C276.727 176.402 276.757 170.714 276.912 170.714Z" fill="#263238"/>
<path d="M332.324 173.76C332.332 174.137 332.29 174.513 332.201 174.879C332.098 175.604 331.912 176.64 331.665 177.915C331.16 180.463 330.387 183.976 329.376 187.809C328.366 191.643 327.315 195.062 326.521 197.558C326.109 198.791 325.769 199.786 325.491 200.47C325.387 200.834 325.235 201.183 325.037 201.506C325.082 201.131 325.168 200.763 325.295 200.408C325.522 199.589 325.8 198.605 326.14 197.445C326.861 194.958 327.841 191.508 328.84 187.674C329.84 183.841 330.675 180.36 331.273 177.832L331.984 174.837C332.044 174.463 332.159 174.1 332.324 173.76Z" fill="#263238"/>
<path d="M329.335 173.066C329.486 175.243 329.461 177.43 329.263 179.603C329.231 181.781 329.028 183.954 328.654 186.099C328.491 183.926 328.515 181.742 328.727 179.572C328.753 177.39 328.957 175.214 329.335 173.066Z" fill="#263238"/>
<path d="M321.398 183.789C316.849 184.148 312.279 184.148 307.73 183.789C309.998 183.517 312.283 183.426 314.564 183.52C316.846 183.426 319.131 183.517 321.398 183.789Z" fill="white"/>
<path d="M284.921 230.371L320.141 226.113L325.697 203.692L345.394 207.981C345.394 207.981 337.601 239.064 329.572 242.11C321.543 245.156 281.809 240.037 281.809 240.037L284.921 230.371Z" fill="#FFBE9D"/>
<path d="M283.489 230.112C281.582 229.302 279.618 228.634 277.614 228.112C275.985 227.874 274.058 228.237 273.573 229.024L264.111 234.567C264.111 234.567 257.092 233.894 256.422 235.479C256.422 235.479 251.939 234.194 251.217 235.106C251.217 235.106 248.97 235.841 249.341 236.877C249.712 237.914 257.814 240.773 257.814 240.773L268.914 241.913C268.914 241.913 273.151 239.602 274.903 239.416C276.595 239.409 278.284 239.544 279.953 239.82C279.809 239.82 286.447 240.576 286.447 240.576C286.447 240.576 287.797 239.115 288.344 235.095C288.89 231.075 288.344 230.236 288.344 230.236L283.489 230.112Z" fill="#FFBE9D"/>
<path d="M278.779 235.22C278.779 235.22 278.48 235.22 278.088 234.95C277.696 234.681 277.356 234.008 276.738 233.583C276.357 233.387 275.946 233.261 275.521 233.21C274.96 233.146 274.431 232.911 274.006 232.536C273.542 232.093 273.25 231.498 273.182 230.858C273.135 230.512 273.164 230.161 273.268 229.828C273.371 229.495 273.546 229.188 273.78 228.931C274.242 228.486 274.808 228.164 275.425 227.994C276.042 227.824 276.692 227.811 277.315 227.957C278.299 228.187 279.212 228.657 279.974 229.324C280.48 229.757 280.952 230.228 281.386 230.734C281.685 231.086 281.829 231.293 281.809 231.324C281.788 231.355 281.036 230.62 279.747 229.625C279.004 229.047 278.141 228.643 277.222 228.444C276.676 228.323 276.109 228.338 275.57 228.488C275.031 228.638 274.537 228.918 274.13 229.304C273.8 229.721 273.635 230.246 273.667 230.778C273.7 231.31 273.927 231.811 274.305 232.184C274.975 232.889 276.14 232.692 276.913 233.22C277.686 233.748 277.851 234.453 278.191 234.753C278.531 235.054 278.799 235.178 278.779 235.22Z" fill="#EB996E"/>
<path d="M272.903 233.376C272.903 233.458 272.367 233.427 271.614 233.769C270.644 234.34 269.627 234.825 268.574 235.22C267.437 235.353 266.285 235.261 265.183 234.95C264.726 234.911 264.272 234.846 263.822 234.753C264.258 234.544 264.75 234.482 265.224 234.577C266.289 234.761 267.375 234.799 268.45 234.691C269.625 234.391 270.625 233.655 271.542 233.417C272.46 233.179 272.923 233.313 272.903 233.376Z" fill="#EB996E"/>
<path d="M273.14 237.831C272.95 238.006 272.73 238.146 272.491 238.245C271.872 238.569 271.218 238.823 270.543 239.001C268.304 239.546 265.985 239.679 263.699 239.395C262.38 239.229 261.122 239.022 259.978 238.856C258.938 238.768 257.916 238.538 256.938 238.173C256.546 237.99 256.226 237.679 256.031 237.292C255.891 236.999 255.845 236.67 255.897 236.349C256.01 235.8 256.35 235.676 256.35 235.707C256.35 235.738 256.134 235.914 256.103 236.37C256.097 236.692 256.194 237.007 256.38 237.27C256.565 237.533 256.829 237.729 257.133 237.831C258.093 238.116 259.082 238.294 260.081 238.359L263.782 238.856C266.013 239.132 268.273 239.055 270.481 238.628C272.141 238.255 273.099 237.768 273.14 237.831Z" fill="#EB996E"/>
<path d="M325.954 235.168C325.285 233.646 324.521 232.169 323.666 230.744C322.666 229.417 321.585 228.154 320.43 226.962C321.949 227.764 323.221 228.968 324.109 230.443C325.147 231.817 325.786 233.452 325.954 235.168Z" fill="#EB996E"/>
<path d="M63.3375 357.518L61.9873 426.676L78.654 428.479L90.1053 358.057L81.1071 346.681L63.3375 357.518Z" fill="#FFBE9D"/>
<path d="M80.6953 425.059V426.189C80.6953 426.189 99.6604 434.104 99.8151 437.731L61.998 437.099V424.438C64.903 425.833 68.064 426.609 71.2819 426.716C74.4998 426.823 77.7049 426.259 80.6953 425.059Z" fill="#00D18F"/>
<path d="M61.9873 437.099L62.1625 434.063L98.351 435.783C98.351 435.783 100.021 436.549 99.8043 437.731L61.9873 437.099Z" fill="#263238"/>
<path d="M56.4522 146.2C56.1739 143.009 54.2774 139.787 51.2986 138.823L47.8045 140.833C45.9896 141.745 44.5639 143.285 43.7909 145.17C43.018 147.056 42.9498 149.159 43.5992 151.091C41.3749 152.492 39.792 154.72 39.1954 157.29C38.5988 159.859 39.0369 162.562 40.4143 164.808C38.1467 165.844 37.1778 168.642 37.219 171.149C37.2603 173.656 38.0642 176.091 38.2498 178.588C38.425 180.515 38.2497 182.473 38.6002 184.38C38.7161 185.345 39.0662 186.266 39.6198 187.063C40.1734 187.859 40.9135 188.507 41.7748 188.949C42.7415 189.258 43.7775 189.273 44.753 188.993C45.7284 188.713 46.5999 188.15 47.2582 187.374C48.5347 185.78 49.3322 183.854 49.5567 181.821C50.4947 176.029 49.2681 169.989 50.7214 164.301C51.6855 161.254 52.9026 158.294 54.3599 155.452C55.6483 152.531 56.7202 149.381 56.4522 146.2Z" fill="#263238"/>
<path d="M54.7727 145.786C52.7863 145.771 50.8402 145.221 49.1371 144.194C47.4339 143.166 46.036 141.698 45.0887 139.943C44.1415 138.188 43.6797 136.21 43.7514 134.214C43.823 132.219 44.4256 130.279 45.4962 128.597C45.7788 128.062 46.2225 127.631 46.764 127.365C47.9287 126.898 49.1553 127.851 50.052 128.742L56.5764 135.125" fill="#263238"/>
<path d="M54.9581 137.601C50.0622 135.27 46.2073 129.747 44.7849 124.495C43.3625 119.242 45.0014 108.601 46.4031 103.348C48.1244 96.9454 50.7734 105.182 52.9379 105.856C53.5694 106.098 54.1334 106.491 54.582 106.999C55.0306 107.508 55.3505 108.118 55.5147 108.777C55.8359 110.102 55.9369 111.471 55.8136 112.828C55.525 121.117 55.2398 129.374 54.9581 137.601Z" fill="#263238"/>
<path d="M67.4809 85.4035C75.6648 80.9795 82.2408 83.5904 85.436 86.0977C88.6313 88.605 90.5896 92.4385 91.7337 96.3445C92.8778 100.25 93.4138 104.312 94.362 108.28C94.95 110.56 95.3737 112.88 95.6298 115.222C96.0936 118.61 95.939 124.671 94.2177 127.655C92.7485 130.502 90.6292 132.959 88.0334 134.824C87.0027 135.477 85.8792 136.161 84.7558 135.798C83.9683 135.447 83.3168 134.847 82.9005 134.089C74.0032 121.316 67.026 107.296 62.1934 92.4799" fill="#263238"/>
<path d="M58.3597 94.9146L72.5423 89.1644L76.2632 89.5789C84.612 89.5789 90.415 98.7999 90.5077 105.607C90.6005 113.16 90.4253 122.391 89.2606 127.965C86.9105 139.176 78.2216 140.181 78.2216 140.181C78.2216 140.181 78.3247 143.237 78.4071 146.998C78.4465 148.6 78.1623 150.193 77.5718 151.682C76.9813 153.17 76.0966 154.523 74.9713 155.658C73.846 156.793 72.5035 157.686 71.0248 158.285C69.5462 158.884 67.9621 159.175 66.3683 159.141C63.2859 159.081 60.3492 157.81 58.1876 155.601C56.0259 153.391 54.8112 150.418 54.8037 147.319L54.6182 98.7585C54.6502 97.7634 55.0523 96.8165 55.745 96.1049C56.4377 95.3933 57.3707 94.9685 58.3597 94.9146Z" fill="#FFBE9D"/>
<path d="M86.8899 113.087C86.8738 113.465 86.7119 113.821 86.4386 114.08C86.1653 114.34 85.8021 114.481 85.4263 114.476C85.2423 114.481 85.0591 114.45 84.8875 114.383C84.7158 114.317 84.5591 114.216 84.4266 114.088C84.2941 113.959 84.1884 113.806 84.1158 113.636C84.0433 113.466 84.0052 113.283 84.0039 113.098C84.0199 112.719 84.1815 112.362 84.4545 112.101C84.7276 111.84 85.0908 111.696 85.4675 111.699C85.652 111.695 85.8354 111.728 86.0071 111.796C86.1789 111.863 86.3355 111.965 86.4678 112.094C86.6002 112.223 86.7057 112.378 86.7781 112.548C86.8506 112.719 86.8886 112.902 86.8899 113.087Z" fill="#263238"/>
<path d="M87.5392 109.461C87.3536 109.637 86.3023 108.777 84.7562 108.705C83.2102 108.632 82.0248 109.347 81.8599 109.15C81.695 108.954 81.9836 108.726 82.499 108.394C83.1912 107.957 84.0017 107.747 84.8181 107.793C85.6272 107.835 86.4026 108.132 87.0341 108.643C87.4876 109.036 87.6319 109.378 87.5392 109.461Z" fill="#263238"/>
<path d="M78.0667 121.666C78.8991 121.454 79.7538 121.343 80.6126 121.335C81.0042 121.335 81.3856 121.262 81.4681 120.993C81.5177 120.58 81.446 120.163 81.2619 119.791C80.9424 118.817 80.6022 117.781 80.2312 116.683C78.8191 112.279 77.8193 108.674 77.9945 108.622C78.1698 108.57 79.4582 112.082 80.8702 116.486C81.2104 117.522 81.5299 118.558 81.8391 119.594C82.0667 120.083 82.1142 120.637 81.9731 121.158C81.9078 121.296 81.8129 121.418 81.6953 121.515C81.5777 121.611 81.4402 121.681 81.2928 121.718C81.0691 121.764 80.8406 121.781 80.6126 121.77C79.7631 121.848 78.907 121.813 78.0667 121.666Z" fill="#263238"/>
<path d="M78.2208 140.181C72.9241 139.992 67.7831 138.331 63.3682 135.384C63.3682 135.384 66.986 143.413 78.293 142.926L78.2208 140.181Z" fill="#EB996E"/>
<path d="M77.0769 125.044C76.8133 124.62 76.4426 124.274 76.0026 124.041C75.5626 123.808 75.0691 123.696 74.5723 123.717C74.2232 123.709 73.8771 123.784 73.562 123.935C73.2469 124.086 72.9715 124.31 72.7582 124.588C72.5413 124.895 72.4155 125.257 72.3954 125.633C72.3754 126.009 72.4618 126.383 72.6449 126.712C72.8778 127.042 73.2022 127.297 73.5777 127.445C73.9533 127.592 74.3636 127.625 74.7578 127.541C75.5213 127.332 76.2267 126.949 76.8193 126.422C77.0037 126.295 77.1613 126.133 77.2831 125.945C77.3322 125.629 77.2584 125.306 77.0769 125.044Z" fill="#EB996E"/>
<path d="M73.4278 122.516C73.6752 122.516 73.603 124.204 74.9842 125.479C76.3654 126.753 78.1588 126.66 78.1691 126.898C78.1794 127.137 77.7465 127.209 76.9941 127.188C76.0046 127.153 75.0592 126.768 74.3245 126.101C73.6231 125.461 73.1947 124.574 73.1289 123.624C73.1289 122.909 73.3351 122.505 73.4278 122.516Z" fill="#263238"/>
<path d="M87.3219 105.151C87.0333 105.493 85.982 105.079 84.6936 104.996C83.4052 104.913 82.3126 105.11 82.0755 104.726C81.9725 104.54 82.1683 104.198 82.6527 103.887C83.3113 103.516 84.0649 103.35 84.8175 103.411C85.5701 103.472 86.2876 103.757 86.8787 104.229C87.3219 104.561 87.4456 104.934 87.3219 105.151Z" fill="#263238"/>
<path d="M69.7487 112.994C69.7375 113.373 69.8751 113.74 70.1317 114.018C70.3882 114.295 70.7431 114.46 71.1195 114.476C71.3027 114.493 71.4873 114.473 71.6627 114.417C71.838 114.361 72.0006 114.271 72.1407 114.151C72.2809 114.032 72.3959 113.885 72.4789 113.72C72.562 113.555 72.6114 113.375 72.6244 113.191C72.6329 112.813 72.4944 112.447 72.2384 112.17C71.9824 111.894 71.629 111.728 71.2535 111.709C71.0701 111.691 70.8849 111.71 70.709 111.765C70.533 111.82 70.3699 111.91 70.2294 112.03C70.0889 112.15 69.974 112.297 69.8914 112.463C69.8088 112.629 69.7602 112.809 69.7487 112.994Z" fill="#263238"/>
<path d="M66.8421 109.295C67.0173 109.492 68.1202 108.695 69.6766 108.715C71.2329 108.736 72.3564 109.534 72.5213 109.347C72.6862 109.161 72.4286 108.922 71.9441 108.549C71.2778 108.067 70.4768 107.81 69.6559 107.814C68.8496 107.801 68.0597 108.044 67.3987 108.508C66.9142 108.85 66.7493 109.192 66.8421 109.295Z" fill="#263238"/>
<path d="M67.5123 104.333C67.7802 104.685 68.8625 104.333 70.1509 104.333C71.4393 104.333 72.5215 104.602 72.7792 104.229C72.8926 104.053 72.7174 103.701 72.2535 103.359C71.6236 102.935 70.8773 102.721 70.12 102.747C69.3628 102.754 68.6257 102.992 68.007 103.431C67.5535 103.794 67.3989 104.115 67.5123 104.333Z" fill="#263238"/>
<path d="M70.9137 87.9626C67.3165 86.5018 61.8228 86.9991 58.7409 89.351C55.6952 91.8206 53.6622 95.3324 53.0308 99.2144C52.3196 103.048 53.2678 108.715 54.2676 112.476C60.0809 104.944 66.0693 96.2616 71.6764 88.5739L70.9137 87.9626Z" fill="#263238"/>
<path d="M73.6553 84.5435C93.3626 81.7462 91.5382 111.699 91.5382 111.699C89.5695 100.665 74.2943 89.123 74.2943 89.123L71.2021 88.5946L73.6553 84.5435Z" fill="#263238"/>
<path d="M55.8445 117.853C55.8445 117.014 55.0199 114.983 54.1953 114.807C51.9999 114.351 48.011 114.331 47.7018 119.988C47.2586 127.686 55.0405 126.536 55.0715 126.318C55.1024 126.1 55.7105 120.765 55.8445 117.853Z" fill="#FFBE9D"/>
<path d="M53.9171 123.241C53.9171 123.241 53.7728 123.334 53.5461 123.427C53.2158 123.563 52.8456 123.563 52.5153 123.427C52.0317 123.08 51.6501 122.608 51.4107 122.061C51.1713 121.514 51.0829 120.912 51.1548 120.319C51.1734 119.659 51.3389 119.011 51.6392 118.423C51.7223 118.191 51.859 117.981 52.0381 117.812C52.2173 117.642 52.4338 117.518 52.6699 117.449C52.8253 117.416 52.9873 117.44 53.127 117.516C53.2667 117.592 53.375 117.715 53.4327 117.864C53.5254 118.081 53.4327 118.237 53.5048 118.247C53.577 118.257 53.68 118.133 53.6388 117.812C53.6021 117.617 53.5046 117.439 53.3605 117.304C53.159 117.135 52.9009 117.05 52.639 117.066C52.32 117.11 52.0178 117.237 51.7615 117.433C51.5051 117.629 51.3033 117.888 51.1754 118.185C50.8154 118.818 50.6138 119.529 50.5879 120.257C50.5879 121.811 51.2579 123.303 52.3504 123.686C52.5513 123.761 52.7666 123.788 52.9795 123.764C53.1924 123.741 53.3969 123.668 53.577 123.552C53.845 123.427 53.9377 123.262 53.9171 123.241Z" fill="#EB996E"/>
<path d="M46.836 99.4319C48.9631 94.1703 52.643 89.6903 57.3803 86.595C59.8062 84.7738 62.6359 83.572 65.626 83.093C67.1211 82.8612 68.6497 82.9922 70.0842 83.4752C71.5187 83.9583 72.8173 84.7793 73.8717 85.8697L74.418 86.4292C71.0373 93.9822 68.646 100.375 64.2861 107.399C62.6782 109.979 61.9876 118.796 61.6062 121.79C60.2869 132.099 54.6695 136.513 54.6695 136.513C42.507 136.523 44.8777 104.716 46.836 99.4319Z" fill="#263238"/>
<path d="M52.8143 135.301C52.2785 135.266 51.7589 135.103 51.2991 134.824C50.133 134.252 49.0841 133.465 48.207 132.503C47.314 131.558 46.6137 130.445 46.1455 129.229C45.911 128.746 45.7944 128.213 45.8054 127.675C46.5212 129.278 47.443 130.779 48.5471 132.141C49.8205 133.384 51.256 134.447 52.8143 135.301Z" fill="#455A64"/>
<path d="M51.3196 145.33C50.1754 145.254 49.0782 144.844 48.1626 144.15C47.2471 143.457 46.5531 142.509 46.166 141.424C46.903 142.23 47.6805 142.998 48.4954 143.724C49.4048 144.314 50.3478 144.851 51.3196 145.33Z" fill="#455A64"/>
<path d="M46.1964 154.789C46.083 154.883 45.3821 154.106 44.6297 153.059C43.8773 152.013 43.3825 151.091 43.5062 150.987C43.6299 150.883 44.3205 151.671 45.0729 152.717C45.8253 153.764 46.3201 154.706 46.1964 154.789Z" fill="#455A64"/>
<path d="M42.2495 166.456C42.1361 166.549 41.6001 166.114 41.0435 165.471C40.487 164.829 40.1262 164.238 40.2396 164.135C40.353 164.031 40.8889 164.477 41.4455 165.119C42.0021 165.761 42.3629 166.352 42.2495 166.456Z" fill="#455A64"/>
<path d="M44.5684 116.869C45.0316 116.551 45.5173 116.267 46.0217 116.019C46.4958 115.76 47.0524 115.45 47.7224 114.983C48.3923 114.517 49.1447 114.165 49.9281 113.605C51.8129 112.365 53.6169 111.005 55.329 109.534C59.53 105.925 63.1343 101.669 66.0073 96.9246C67.1798 94.9899 68.2298 92.9829 69.151 90.9154C69.5736 90.0451 69.8622 89.2266 70.1817 88.5117C70.5012 87.7968 70.697 87.1751 70.8723 86.6571C71.0316 86.1163 71.235 85.5896 71.4804 85.0823C71.3862 85.6414 71.2484 86.1923 71.0681 86.7296C70.8977 87.3682 70.6947 87.9976 70.46 88.6153C70.2023 89.3405 69.9343 90.1798 69.5323 91.0708C68.6445 93.1783 67.6113 95.2209 66.4402 97.1836C64.9983 99.5779 63.3753 101.857 61.5855 104.001C59.7651 106.124 57.7836 108.102 55.6589 109.917C53.9154 111.38 52.0728 112.72 50.1445 113.927C49.3406 114.465 48.5572 114.869 47.8873 115.253C47.2173 115.636 46.6195 115.926 46.1247 116.154C45.6262 116.435 45.1057 116.674 44.5684 116.869Z" fill="#455A64"/>
<path d="M63.5436 107.638C63.5436 107.638 63.3683 107.928 62.987 108.373C62.6056 108.819 61.9563 109.409 61.2348 110.176C57.2009 114.008 52.3709 116.892 47.0933 118.62C46.3012 118.885 45.4962 119.11 44.6814 119.294C44.3868 119.382 44.0818 119.431 43.7744 119.439C44.8183 118.992 45.8848 118.601 46.9696 118.268C49.5257 117.309 51.9948 116.13 54.3496 114.745C56.6967 113.343 58.9178 111.738 60.9874 109.948C62.5644 108.508 63.4817 107.576 63.5436 107.638Z" fill="#455A64"/>
<path d="M92.1461 117.48C92.2167 116.911 92.3235 116.347 92.4656 115.792C92.7601 114.268 92.929 112.722 92.9707 111.171C93.1722 106.033 91.902 100.945 89.3112 96.5111C86.7203 92.0775 82.9177 88.4848 78.3551 86.1599C76.9848 85.4413 75.5575 84.8383 74.088 84.3571C73.538 84.207 72.9976 84.0237 72.4697 83.808C72.4697 83.808 72.6243 83.808 72.9129 83.8701C73.2015 83.9323 73.6138 83.9945 74.1498 84.1499C75.6568 84.5624 77.1205 85.121 78.52 85.818C83.2109 88.0967 87.124 91.7228 89.7641 96.2376C92.4043 100.752 93.6529 105.953 93.3521 111.181C93.2755 112.75 93.0477 114.308 92.6718 115.833C92.5481 116.372 92.3935 116.786 92.311 117.066C92.2757 117.211 92.2201 117.351 92.1461 117.48Z" fill="#455A64"/>
<path d="M183.488 187.519C183.231 187.857 183.065 188.255 183.005 188.676C182.945 189.097 182.995 189.526 183.148 189.923C183.498 190.58 184.027 191.123 184.674 191.487C185.714 190.421 186.571 189.189 187.209 187.84" fill="#EB996E"/>
<path d="M179.015 186.203C178.682 186.467 178.422 186.812 178.26 187.206C178.097 187.599 178.038 188.028 178.087 188.451C178.26 189.177 178.64 189.835 179.18 190.347C180.449 189.575 181.584 188.598 182.54 187.457" fill="#EB996E"/>
<path d="M77.3652 152.044C77.3652 152.044 111.266 178.857 117.378 179.738C123.49 180.619 152.082 177.127 163.822 176.765L165.481 186.659C165.481 186.659 133.086 197.714 121.305 198.149C109.524 198.584 102.752 195.393 102.752 195.393L80.7254 172.713L77.3652 152.044Z" fill="#FFBE9D"/>
<path d="M163.101 176.868C163.101 176.868 178.242 174.692 180.623 175.884C183.004 177.075 189.734 182.805 189.734 182.805C189.734 182.805 191.992 189.177 190.569 189.477C189.147 189.778 187.683 187.405 187.683 187.405L185.715 183.893L177.252 181.821L163.224 183.074L163.101 176.868Z" fill="#FFBE9D"/>
<path d="M165.481 186.659C165.698 186.928 171.109 189.55 173.861 189.477C176.613 189.405 179.757 187.239 182.107 187.571C184.457 187.902 189.384 188.286 189.982 187.426C190.319 187.076 190.508 186.608 190.508 186.12C190.508 185.633 190.319 185.165 189.982 184.815C189.178 184.048 185.209 183.292 182.344 182.515C180.81 182.162 179.364 181.495 178.097 180.557L161.431 182.401L160.482 187.581L165.481 186.659Z" fill="#FFBE9D"/>
<path d="M172.687 180.38C172.974 180.32 173.269 180.299 173.563 180.318C174.357 180.341 175.147 180.438 175.923 180.608C178.448 181.251 180.933 182.043 183.365 182.981C184.706 183.432 186.086 183.758 187.488 183.955C188.159 184.008 188.799 184.257 189.333 184.67C189.551 184.883 189.72 185.142 189.827 185.429C189.934 185.715 189.976 186.022 189.951 186.327C189.927 186.576 189.854 186.816 189.735 187.035C189.616 187.254 189.455 187.447 189.26 187.602C188.961 187.827 188.603 187.961 188.23 187.985C187.632 187.985 187.354 187.799 187.364 187.778C187.645 187.804 187.928 187.804 188.209 187.778C188.565 187.717 188.89 187.537 189.133 187.269C189.376 187 189.522 186.658 189.549 186.296C189.563 186.055 189.522 185.814 189.429 185.592C189.336 185.369 189.194 185.171 189.013 185.012C188.536 184.675 187.976 184.478 187.395 184.442C185.96 184.272 184.548 183.953 183.179 183.489C180.273 182.515 177.747 181.416 175.82 180.981C173.892 180.546 172.687 180.484 172.687 180.38Z" fill="#EB996E"/>
<path d="M183.601 183.54C182.682 183.373 181.83 182.941 181.148 182.297C179.942 181.344 179.262 180.225 179.376 180.225C179.489 180.225 180.334 181.002 181.437 181.903C182.54 182.805 183.715 183.395 183.601 183.54Z" fill="#EB996E"/>
<path d="M48.1554 355.249L17.4297 368.997L21.13 385.492C21.13 385.492 59.7612 373.908 72.3978 371.339C85.0344 368.77 105.515 365.496 111.297 353.166L48.1554 355.249Z" fill="#FFBE9D"/>
<path d="M24.0775 385.792L23.0468 386.082C23.0468 386.082 20.5731 406.327 17.1717 407.446L7.75098 371.08L19.7485 367.713C19.1904 370.863 19.2869 374.096 20.0319 377.208C20.7769 380.319 22.1543 383.242 24.0775 385.792Z" fill="#00D18F"/>
<path d="M7.70996 371.08L10.6372 370.438L18.5943 405.53C18.5943 405.53 18.316 407.332 17.1307 407.446L7.70996 371.08Z" fill="#263238"/>
<path d="M111.183 353.643C111.109 353.944 111.002 354.236 110.864 354.513C110.467 355.308 109.972 356.05 109.39 356.72C107.16 359.095 104.606 361.14 101.804 362.791C99.8727 363.942 97.8362 364.903 95.7224 365.661C93.2934 366.493 90.8191 367.185 88.3116 367.733C83.0755 369.06 77.3241 370.572 71.2944 372.178L40.3729 380.374L31.014 382.819L28.4578 383.44C28.1611 383.525 27.8576 383.584 27.5508 383.616C27.8355 383.499 28.1283 383.402 28.4269 383.326L30.9625 382.622L40.3008 380.052C48.196 377.897 59.0907 374.872 71.1604 371.702C77.1901 370.096 82.9415 368.593 88.1982 367.288C90.691 366.735 93.1513 366.043 95.5678 365.216C100.717 363.417 105.388 360.457 109.225 356.565C110.021 355.696 110.682 354.711 111.183 353.643Z" fill="#EB996E"/>
<path d="M62.379 221.191L63.0799 227.273C63.0799 227.273 52.4326 247.487 52.4326 258.355C52.4326 269.224 47.5264 355.549 47.5264 355.549C47.5264 355.549 105.247 358.854 111.338 353.187L117.44 347.53L138.054 341.873L105.844 223.761V217.43L62.379 221.191Z" fill="#263238"/>
<path d="M101.865 250.45C101.898 250.529 101.919 250.613 101.927 250.699L102.041 251.403C102.133 252.066 102.257 252.978 102.422 254.128C102.762 256.542 103.236 259.961 103.824 264.157C105.019 272.622 106.813 284.288 109.132 297.125C111.451 309.962 113.842 321.525 115.677 329.875C116.594 334.02 117.336 337.377 117.872 339.759L118.46 342.453C118.511 342.733 118.563 342.961 118.594 343.147C118.607 343.23 118.607 343.314 118.594 343.396C118.558 343.324 118.53 343.247 118.511 343.168L118.326 342.474C118.151 341.821 117.924 340.93 117.635 339.811C117.048 337.49 116.234 334.134 115.275 329.958C113.347 321.67 110.894 310.066 108.565 297.218C106.236 284.371 104.525 272.684 103.411 264.209C102.855 259.971 102.443 256.532 102.185 254.149C102.061 252.999 101.968 252.077 101.896 251.414C101.896 251.123 101.896 250.895 101.834 250.699C101.832 250.615 101.842 250.531 101.865 250.45Z" fill="#455A64"/>
<path d="M60.4102 261.267C60.5138 261.486 60.5966 261.715 60.6575 261.95C60.8018 262.462 60.9977 263.125 61.245 263.94C61.7604 265.732 62.4819 268.208 63.3683 271.254C65.1927 277.419 67.8313 285.894 71.0472 295.157C74.263 304.419 77.4788 312.708 79.8804 318.665C81.076 321.597 82.0552 323.991 82.7561 325.721L83.5291 327.637C83.6223 327.86 83.7015 328.089 83.7662 328.321C83.6273 328.122 83.513 327.906 83.4261 327.679L82.5603 325.804C81.8182 324.167 80.7771 321.784 79.53 318.81C77.0356 312.884 73.7786 304.616 70.5421 295.343C67.3056 286.07 64.7392 277.554 63.0076 271.358C62.1418 268.25 61.4718 265.742 61.0389 263.991C60.8328 263.163 60.6781 262.5 60.5545 261.981C60.4866 261.748 60.4383 261.509 60.4102 261.267Z" fill="#455A64"/>
<path d="M107.844 226.569C107.274 226.689 106.695 226.759 106.112 226.776C104.999 226.89 103.381 227.004 101.371 227.128C97.372 227.366 91.8267 227.584 85.7146 227.615C79.6024 227.646 74.0468 227.46 70.0374 227.252C68.0378 227.149 66.4195 227.045 65.2961 226.952C64.7139 226.935 64.1343 226.866 63.5645 226.745C64.1445 226.707 64.7263 226.707 65.3064 226.745L70.058 226.879C74.0572 226.993 79.5921 227.107 85.7043 227.087C91.8164 227.066 97.3514 226.9 101.361 226.755L106.102 226.579C106.682 226.528 107.264 226.525 107.844 226.569Z" fill="#455A64"/>
<path d="M78.293 147.692C78.0147 147.04 98.763 163.668 101.371 171.771C103.978 179.873 104.463 203.246 104.463 203.246L105.916 218.249L64.4504 221.191L63.3372 218.249L60.2451 209.888L56.0088 197.258C56.0088 197.258 45.7944 181.313 43.7639 174.464C41.249 165.937 45.4234 157.203 45.4234 157.203L54.7926 146.594L78.293 147.692Z" fill="#00D18F"/>
<path d="M54.8032 147.319C54.8032 147.319 52.5047 143.04 53.9168 141.165C55.0505 139.683 74.9949 141.548 79.0663 142.408C81.4575 142.926 79.0663 148.283 79.0663 148.283L54.8032 147.319Z" fill="#00D18F"/>
<g opacity="0.3">
<path d="M66.7491 167.523C68.491 172.05 66.0276 186.089 65.6566 189.425C65.1826 192.757 64.4169 196.04 63.3684 199.237C62.9148 200.739 62.4819 202.459 63.3684 203.775C64.7289 205.847 68.2334 205.288 69.934 207.153C66.7475 208.639 63.1692 209.053 59.7299 208.334C59.12 208.261 58.551 207.988 58.1117 207.557C57.8438 207.164 57.674 206.713 57.617 206.241C56.4991 201.339 56.3346 196.265 57.1325 191.301C58.0293 186.379 62.7087 174.568 66.646 171.46" fill="black"/>
</g>
<path d="M67.4812 173.729C67.1275 175.445 66.4487 177.077 65.4816 178.536C64.6655 180.085 63.5473 181.452 62.1936 182.556C62.0802 182.452 63.5747 180.691 65.028 178.256C66.4814 175.822 67.3265 173.667 67.4812 173.729Z" fill="#263238"/>
<path d="M79.0665 147.765C78.7668 147.905 78.4467 147.996 78.1183 148.034C77.4999 148.169 76.6031 148.324 75.4796 148.48C69.639 149.257 63.7068 148.969 57.9678 147.63C56.8649 147.371 55.9888 147.122 55.391 146.926C55.0685 146.853 54.7591 146.731 54.4736 146.563C54.4736 146.48 55.8445 146.832 58.0502 147.257C60.9155 147.806 63.8154 148.152 66.7289 148.293C69.6468 148.429 72.5707 148.364 75.4796 148.096C77.6751 147.899 79.0459 147.682 79.0665 147.765Z" fill="#263238"/>
<path d="M93.6612 188.037C93.5685 188.037 93.9292 186.887 94.2075 185.032C94.9367 180.171 94.0605 175.203 91.7132 170.89C90.8164 169.243 90.0949 168.321 90.1671 168.258C90.2392 168.196 90.4042 168.455 90.7443 168.859C91.2266 169.437 91.6609 170.054 92.043 170.703C94.6287 175.024 95.5354 180.153 94.5889 185.105C94.4465 185.845 94.2466 186.572 93.991 187.281C93.9236 187.549 93.8122 187.805 93.6612 188.037Z" fill="#263238"/>
<g opacity="0.3">
<path d="M66.2134 148.48C62.7468 148.24 59.3021 147.749 55.9062 147.008C60.7487 149.657 66.2743 150.773 71.7587 150.21C73.7583 149.951 75.8815 149.391 77.1803 147.868C74.1396 149.06 69.4705 148.77 66.2134 148.48Z" fill="black"/>
</g>
<g opacity="0.3">
<path d="M89.5898 192.803C91.4416 190.836 92.8357 188.48 93.6717 185.905C94.5076 183.33 94.7646 180.601 94.4239 177.915C94.9179 179.675 95.1779 181.494 95.1969 183.323C95.4171 185.428 94.9034 187.545 93.7436 189.311C92.4759 191.062 91.744 192.119 89.6208 192.803" fill="black"/>
</g>
<path d="M60.709 158.416C59.6603 157.517 58.4428 156.838 57.1286 156.42C55.8144 156.003 54.4302 155.854 53.0579 155.984C51.6856 156.113 50.353 156.518 49.1391 157.174C47.9251 157.83 46.8545 158.725 45.9904 159.804C45.8461 159.99 45.7018 160.198 45.5678 160.395C43.4136 163.637 37.4767 214.146 39.8473 220.197C42.218 226.247 45.6503 225.823 45.6503 225.823C45.6503 225.823 61.1935 225.646 72.3768 223.046C83.56 220.445 96.0214 216.197 96.0214 216.197L93.96 203.961C93.96 203.961 66.5841 207.608 59.0599 206.748L61.9356 182.152C61.9356 182.152 68.4806 174.143 66.6047 166.797C65.6977 163.306 63.1209 160.446 60.709 158.416Z" fill="#FFBE9D"/>
<path d="M102.587 196.45L108.771 192.306L113.193 188.555C113.333 189.235 113.331 189.937 113.187 190.617C113.043 191.296 112.761 191.938 112.358 192.502C110.987 194.575 108.678 197.683 108.678 197.683L102.587 196.45Z" fill="#FFBE9D"/>
<path d="M111.75 193.943C111.699 193.943 112.101 193.466 112.534 192.575C113.107 191.338 113.245 189.943 112.925 188.617L113.296 188.721L108.895 192.502L108.565 192.72L104.69 195.321C103.647 196.047 102.566 196.718 101.453 197.331C100.466 197.948 99.4318 198.489 98.3613 198.947C99.2811 198.221 100.256 197.57 101.278 196.999C102.216 196.45 103.268 195.714 104.443 194.927L108.287 192.306L108.617 192.078L113.059 188.358L113.358 188.12L113.43 188.472C113.751 189.904 113.538 191.404 112.833 192.689C112.636 193.036 112.401 193.359 112.132 193.653C111.884 193.86 111.771 193.963 111.75 193.943Z" fill="#EB996E"/>
<path d="M100.361 206.873C100.567 206.458 116.729 188.358 120.718 183.893C120.971 183.608 121.31 183.416 121.683 183.346C122.057 183.277 122.442 183.334 122.779 183.509C123.017 183.628 123.224 183.8 123.384 184.012C123.544 184.225 123.654 184.471 123.704 184.733C123.753 184.995 123.743 185.265 123.672 185.521C123.601 185.778 123.472 186.015 123.295 186.213L102.598 209.349L100.361 206.873Z" fill="#263238"/>
<path d="M117.564 198.967C118.234 198.066 117.244 196.294 116.327 195.807C115.41 195.321 111.751 197.351 111.751 197.351L110.431 197.476C110.431 197.476 103.33 196.025 103.092 196.149C101.245 196.95 99.5113 197.995 97.9389 199.258C97.223 199.914 96.6051 200.672 96.1042 201.506C95.5683 202.345 94.2386 203.713 91.1465 204.459L94.1562 216.757C94.1562 216.757 100.763 215.192 101.258 215.182C101.753 215.172 107.288 214.737 108.019 214.612C110.241 214.052 112.338 213.079 114.204 211.742C116.574 209.971 115.471 208.468 115.471 208.468C117.914 206.8 116.007 205.142 116.007 205.142L116.698 203.961C117.729 202.086 115.667 201.05 115.667 201.05C116.353 200.407 116.987 199.711 117.564 198.967Z" fill="#FFBE9D"/>
<path d="M112.657 202.78C112.657 202.646 113.389 202.293 114.265 201.744C115.141 201.195 115.811 200.708 115.914 200.77C116.017 200.832 115.471 201.589 114.523 202.169C113.575 202.749 112.698 202.915 112.657 202.78Z" fill="#EB996E"/>
<path d="M114.729 206.127C114.646 206.013 114.894 205.661 115.296 205.339C115.698 205.018 116.089 204.832 116.172 204.935C116.254 205.039 116.007 205.391 115.605 205.723C115.203 206.054 114.821 206.23 114.729 206.127Z" fill="#EB996E"/>
<path d="M114.008 208.852C114.008 208.707 114.399 208.562 114.884 208.375C115.368 208.189 115.77 208.033 115.853 208.137C115.935 208.24 115.616 208.624 115.059 208.841C114.503 209.059 114.008 208.986 114.008 208.852Z" fill="#EB996E"/>
<path d="M111.75 197.362C110.537 197.711 109.281 197.888 108.019 197.89C106.772 198.053 105.514 198.122 104.257 198.097C104.257 197.931 105.885 197.496 107.978 197.351C109.229 197.171 110.5 197.174 111.75 197.362Z" fill="#EB996E"/>
<path d="M59.4104 206.521C58.6449 207.81 57.724 209.001 56.6686 210.064C55.7516 211.254 54.6923 212.325 53.5146 213.255C54.2961 211.973 55.2193 210.785 56.2667 209.712C57.1883 208.529 58.2433 207.458 59.4104 206.521Z" fill="#EB996E"/>
<path d="M66.3571 173.117C66.3571 173.117 66.4293 172.568 66.5221 171.584C66.669 170.201 66.6029 168.803 66.3262 167.44C65.7838 165.217 64.7509 163.146 63.3038 161.379C61.8568 159.613 60.0328 158.196 57.9671 157.234C55.7083 156.164 53.1287 155.997 50.7521 156.768C48.7835 157.331 47.1003 158.623 46.0417 160.384C45.3543 161.595 44.8572 162.906 44.5678 164.269C44.4773 164.777 44.3569 165.279 44.207 165.772C44.207 165.772 44.207 165.637 44.207 165.368C44.207 165.098 44.2689 164.725 44.3616 164.228C44.5455 162.824 44.9637 161.462 45.5985 160.198C46.0812 159.321 46.7247 158.544 47.495 157.908C48.3861 157.192 49.3988 156.644 50.4841 156.292C52.9898 155.448 55.7228 155.612 58.1114 156.748C60.2596 157.719 62.1536 159.18 63.6437 161.014C65.1338 162.848 66.1792 165.005 66.6973 167.315C66.9467 168.72 66.9467 170.158 66.6973 171.563C66.6402 171.948 66.5575 172.329 66.4499 172.703C66.4439 172.846 66.4125 172.986 66.3571 173.117Z" fill="#263238"/>
</g>
<defs>
<clipPath id="clip0_67_448">
<rect width="454" height="438" fill="white"/>
</clipPath>
</defs>
</svg>
