<svg width="586" height="407" viewBox="0 0 586 407" fill="none" xmlns="http://www.w3.org/2000/svg">
<g style="mix-blend-mode:multiply">
<path d="M57.5453 404.439C34.7851 374.593 15.5695 340.493 6.24155 302.458C-3.0864 264.423 -1.6219 222.05 14.8793 187.358C22.2017 171.932 33.5352 157.416 48.6838 153.957C65.3528 150.137 81.7887 160.495 95.9486 171.149C127.85 195.155 159.491 223.711 197.446 229.339C236.325 235.095 274.626 215.469 307.796 191.77C340.966 168.07 372.056 139.536 408.808 124.057C431.195 114.641 459.049 111.552 476.501 129.993C483.842 137.759 488.31 148.37 491.79 159.046C501.118 187.612 505.716 220.463 525.921 240.512C539.987 254.467 559.772 259.969 572.449 275.542C586.674 293.031 588.642 319.979 582.709 342.779C576.777 365.579 564.287 385.374 551.927 404.629" fill="#F5F5F5"/>
<path d="M109.871 91.5024C110.314 91.5056 110.756 91.5409 111.193 91.6081C111.733 87.6507 113.689 84.0231 116.698 81.3969C119.708 78.7708 123.567 77.3242 127.561 77.3251C130.472 77.323 133.331 78.0912 135.849 79.5518C138.367 81.0123 140.453 83.1131 141.897 85.641C142.743 85.4449 143.609 85.3456 144.478 85.3448C147.236 85.3481 149.901 86.3374 151.993 88.1342C154.084 89.9309 155.464 92.4165 155.884 95.1419C156.372 95.0007 156.878 94.9294 157.386 94.9303C158.837 94.9303 160.228 95.5066 161.254 96.5324C162.28 97.5582 162.856 98.9494 162.856 100.4H101.005C101.005 98.0458 101.938 95.7874 103.6 94.1197C105.262 92.4519 107.517 91.5108 109.871 91.5024Z" fill="#39D192" fill-opacity="0.1"/>
<path d="M501.143 60.0377C500.608 60.0428 500.074 60.0852 499.545 60.1647C498.893 55.3921 496.533 51.0175 492.904 47.8507C489.274 44.684 484.62 42.9395 479.803 42.9404C476.294 42.9391 472.847 43.8651 469.811 45.6246C466.775 47.384 464.258 49.9145 462.515 52.9597C461.495 52.724 460.451 52.6069 459.405 52.6106C456.08 52.6124 452.865 53.8038 450.343 55.9694C447.82 58.135 446.156 61.1318 445.65 64.4179C445.062 64.2514 444.453 64.166 443.841 64.164C442.09 64.164 440.411 64.8595 439.173 66.0976C437.935 67.3357 437.239 69.015 437.239 70.7659H511.881C511.879 67.9197 510.746 65.191 508.732 63.1793C506.719 61.1677 503.989 60.0377 501.143 60.0377V60.0377Z" fill="#39D192" fill-opacity="0.1"/>
<path d="M98.3707 197.07C98.3707 196.509 98.1478 195.971 97.751 195.574C97.3542 195.177 96.8159 194.954 96.2547 194.954C95.6935 194.954 95.1553 195.177 94.7585 195.574C94.3616 195.971 94.1387 196.509 94.1387 197.07C94.1387 197.632 94.3616 198.17 94.7585 198.567C95.1553 198.964 95.6935 199.186 96.2547 199.186C96.8159 199.186 97.3542 198.964 97.751 198.567C98.1478 198.17 98.3707 197.632 98.3707 197.07Z" fill="#39D192"/>
<path d="M431.906 104.897C433.852 104.897 435.429 103.32 435.429 101.374C435.429 99.4282 433.852 97.8508 431.906 97.8508C429.96 97.8508 428.383 99.4282 428.383 101.374C428.383 103.32 429.96 104.897 431.906 104.897Z" fill="#39D192"/>
<path d="M297.508 54.2293C297.508 53.6681 297.285 53.1299 296.889 52.7331C296.492 52.3362 295.954 52.1133 295.392 52.1133C294.831 52.1133 294.293 52.3362 293.896 52.7331C293.499 53.1299 293.276 53.6681 293.276 54.2293C293.276 54.7905 293.499 55.3287 293.896 55.7256C294.293 56.1224 294.831 56.3453 295.392 56.3453C295.954 56.3453 296.492 56.1224 296.889 55.7256C297.285 55.3287 297.508 54.7905 297.508 54.2293Z" fill="#39D192"/>
<path d="M519.16 108.41C519.16 107.848 518.937 107.31 518.54 106.913C518.143 106.517 517.605 106.294 517.044 106.294C516.483 106.294 515.944 106.517 515.547 106.913C515.151 107.31 514.928 107.848 514.928 108.41C514.928 108.971 515.151 109.509 515.547 109.906C515.944 110.303 516.483 110.526 517.044 110.526C517.605 110.526 518.143 110.303 518.54 109.906C518.937 109.509 519.16 108.971 519.16 108.41Z" fill="#39D192"/>
<path d="M189.147 171.033C193.424 171.033 196.892 167.566 196.892 163.288C196.892 159.011 193.424 155.544 189.147 155.544C184.87 155.544 181.402 159.011 181.402 163.288C181.402 167.566 184.87 171.033 189.147 171.033Z" fill="#ECFBF5"/>
<path d="M46.932 367.922C47.2742 363.645 44.0842 359.9 39.807 359.558C35.5298 359.216 31.785 362.406 31.4428 366.683C31.1006 370.96 34.2906 374.705 38.5678 375.047C42.8451 375.389 46.5898 372.199 46.932 367.922Z" fill="#E1F2FA"/>
<path d="M271.471 102.072C271.471 100.389 270.803 98.774 269.612 97.5835C268.422 96.393 266.807 95.7242 265.123 95.7242C263.44 95.7242 261.825 96.393 260.635 97.5835C259.444 98.774 258.775 100.389 258.775 102.072C258.775 103.756 259.444 105.37 260.635 106.561C261.825 107.751 263.44 108.42 265.123 108.42C266.807 108.42 268.422 107.751 269.612 106.561C270.803 105.37 271.471 103.756 271.471 102.072V102.072Z" fill="#ECFBF5"/>
<path d="M438.941 394.092C438.941 393.722 438.868 393.356 438.727 393.015C438.585 392.673 438.378 392.363 438.117 392.102C437.855 391.84 437.545 391.633 437.204 391.492C436.862 391.35 436.496 391.277 436.127 391.277C435.38 391.277 434.665 391.574 434.137 392.102C433.609 392.63 433.312 393.345 433.312 394.092C433.312 394.838 433.609 395.554 434.137 396.082C434.665 396.61 435.38 396.906 436.127 396.906C436.496 396.906 436.862 396.833 437.204 396.692C437.545 396.55 437.855 396.343 438.117 396.082C438.378 395.82 438.585 395.51 438.727 395.169C438.868 394.827 438.941 394.461 438.941 394.092V394.092Z" fill="#E1F2FA"/>
<path d="M177.181 126.004C179.513 126.004 181.403 124.114 181.403 121.783C181.403 119.451 179.513 117.561 177.181 117.561C174.85 117.561 172.96 119.451 172.96 121.783C172.96 124.114 174.85 126.004 177.181 126.004Z" stroke="#71B0CD" stroke-width="0.5" stroke-miterlimit="10"/>
<path d="M87.8225 313.176C87.8225 311.682 87.2297 310.249 86.1745 309.192C85.1192 308.135 83.6877 307.539 82.1939 307.537C81.4534 307.537 80.7201 307.682 80.0359 307.966C79.3518 308.249 78.73 308.665 78.2064 309.188C77.6828 309.712 77.2674 310.334 76.984 311.018C76.7006 311.702 76.5547 312.435 76.5547 313.176C76.5575 314.669 77.1529 316.101 78.2101 317.156C79.2674 318.212 80.7002 318.804 82.1939 318.804C83.6859 318.801 85.1159 318.208 86.1709 317.153C87.2258 316.098 87.8197 314.668 87.8225 313.176V313.176Z" stroke="#71B0CD" stroke-width="0.5" stroke-miterlimit="10"/>
<path d="M379.842 86.5937C379.842 85.2861 379.323 84.032 378.398 83.1074C377.473 82.1828 376.219 81.6633 374.912 81.6633C373.604 81.6633 372.35 82.1828 371.425 83.1074C370.501 84.032 369.981 85.2861 369.981 86.5937C369.984 87.8994 370.505 89.1507 371.429 90.0731C372.354 90.9954 373.606 91.5133 374.912 91.5133C376.217 91.5133 377.47 90.9954 378.394 90.0731C379.319 89.1507 379.839 87.8994 379.842 86.5937Z" stroke="#71B0CD" stroke-width="0.5" stroke-miterlimit="10"/>
<path d="M529.719 204.804C529.719 202.938 528.978 201.149 527.658 199.829C526.339 198.51 524.549 197.769 522.683 197.769C520.817 197.769 519.028 198.51 517.708 199.829C516.389 201.149 515.647 202.938 515.647 204.804C515.646 205.729 515.827 206.644 516.18 207.498C516.533 208.353 517.051 209.129 517.705 209.782C518.359 210.436 519.135 210.954 519.989 211.307C520.843 211.66 521.759 211.842 522.683 211.84C524.549 211.84 526.339 211.099 527.658 209.779C528.978 208.46 529.719 206.67 529.719 204.804V204.804Z" stroke="#71B0CD" stroke-width="0.5" stroke-miterlimit="10"/>
</g>
<path d="M2.19336 406.005H574.501" stroke="#2E4166" stroke-width="0.5" stroke-linecap="round" stroke-linejoin="round"/>
<path d="M148.774 150.01C137.443 148.572 134.206 155.956 134.206 155.956C126.916 153.28 131.815 169.848 131.815 169.848V169.933L135.116 171.964L135.221 171.774L135.338 171.583L135.073 171.424L140.638 166.219C142.047 165.479 143.24 164.385 144.098 163.045C145.093 161.426 146.955 162.389 148.33 161.934C148.933 161.733 149.113 162.717 149.547 162.188C150.425 161.723 150.351 161.976 150.774 161.024C152.784 160.389 153.609 150.656 148.774 150.01ZM132.904 169.986C133.463 170.215 133.958 170.578 134.343 171.044L133.624 170.599L132.904 169.986Z" fill="#020F2B"/>
<path d="M204.16 198.097C204.16 198.097 191.919 229.974 186.756 231.741C181.593 233.508 135.972 205.661 144.298 195.907C144.298 195.907 145.357 191.981 149.007 192.817C152.657 193.653 162.983 194.933 183.455 212.443C183.455 212.443 195.548 192.807 196.331 190.976" fill="#F27294"/>
<path d="M181.35 207.629C181.35 207.629 145.378 177.614 137.305 195.991C132.819 206.296 179.467 236.132 187.232 237.253L205.219 202.604L195.252 192.796L181.35 207.629Z" fill="#39D192"/>
<g style="mix-blend-mode:soft-light" opacity="0.21">
<path d="M151.271 190.606C145.177 189.231 139.856 190.225 137.316 196.034C133.455 204.91 167.544 228.282 182.017 235.307C171.451 220.636 161.203 205.735 151.271 190.606Z" fill="black"/>
</g>
<path d="M191.073 197.25L202.341 208.508" stroke="white" stroke-width="0.33" stroke-miterlimit="10"/>
<path d="M155.683 391.151L159.248 405.243H182.99V403.54L169.49 396.42L167.829 391.405L155.683 391.151Z" fill="#F27294"/>
<path d="M169.489 396.42C168.706 395.965 155.735 391.13 155.735 391.13L167.892 391.383L169.489 396.42Z" fill="#BD4064"/>
<path d="M169.712 396.419L165.692 400.324C165.183 400.819 164.506 401.102 163.797 401.116C163.087 401.129 162.399 400.873 161.872 400.398L157.302 396.261L159.418 405.243H183.159V403.519L169.712 396.419Z" fill="#323A8A" stroke="#323A8A" stroke-width="1.29" stroke-miterlimit="10"/>
<path d="M117.362 390.114L114.336 405.095H90.6055V403.392L104.095 396.261L104.349 391.246L117.362 390.114Z" fill="#F27294"/>
<path d="M104.095 396.261L104.349 391.246L117.521 390.569L104.095 396.261Z" fill="#BD4064"/>
<path d="M103.84 396.261L107.861 400.165C108.369 400.66 109.046 400.943 109.756 400.957C110.465 400.971 111.153 400.714 111.68 400.239L115.753 396.113L114.071 405.116H90.3613V403.413L103.84 396.261Z" fill="#323A8A" stroke="#323A8A" stroke-width="1.29" stroke-miterlimit="10"/>
<path d="M154.635 271.511L172.357 391.563L154.794 392.378L137.432 308.626C137.203 307.928 136.758 307.319 136.163 306.888C135.567 306.457 134.851 306.225 134.115 306.225C133.38 306.225 132.664 306.457 132.068 306.888C131.472 307.319 131.028 307.928 130.799 308.626L117.976 390.558L103.238 391.51C103.238 391.51 103.037 320.846 107.565 269.702L154.635 271.511Z" fill="#040C2B"/>
<path d="M119.626 384.538H103.237" stroke="white" stroke-width="0.56" stroke-miterlimit="10"/>
<path d="M171.457 384.993H154.508" stroke="white" stroke-width="0.56" stroke-miterlimit="10"/>
<path d="M128.619 187.601C128.619 187.601 110.845 193.008 108.898 207.608C106.951 222.209 104.095 281.922 104.095 281.922L159.947 282.388L163.237 223.52C162.389 214.824 159.875 206.372 155.831 198.626C154.149 195.632 152.16 192.278 150.943 192.013L133.031 184.607L128.619 187.601Z" fill="#39D192"/>
<g style="mix-blend-mode:multiply" opacity="0.21">
<path d="M139.273 242.893C133.581 232.492 127.932 222.124 121.774 211.978C118.886 207.217 116.04 202.456 113.416 197.568C110.986 200.417 109.419 203.9 108.898 207.608C106.951 222.198 104.095 281.922 104.095 281.922L159.587 282.388L160.116 276.738C153.504 265.767 145.431 254.139 139.273 242.893Z" fill="black"/>
</g>
<path d="M133.676 174.842L131.931 185.644L136.808 190.384C139.009 193.621 144.024 192.14 144.531 190.87L144.172 181.835L135.602 173.149C135.005 173.499 134.454 173.921 133.962 174.408C133.888 174.565 133.792 174.711 133.676 174.842V174.842Z" fill="#F27294"/>
<path d="M135.602 173.149L144.171 181.835L144.51 187.21C144.51 187.21 136.437 184.491 136.533 177.688" fill="#993C5C"/>
<path d="M128.619 187.601L132.322 182.819L142.172 191.876L139.009 199.885L128.619 187.601Z" fill="#0C824C"/>
<path d="M144.373 186.078L142.003 191.706L144.288 199.006L147.716 190.119L144.373 186.078Z" fill="#0C824C"/>
<path d="M134.893 170.06C134.867 170.124 134.826 170.182 134.772 170.226C134.718 170.271 134.653 170.301 134.584 170.313C134.516 170.326 134.445 170.321 134.379 170.299C134.312 170.277 134.253 170.238 134.205 170.186C133.518 169.425 132.089 168.345 131.423 171.192C130.481 175.053 134.597 174.619 134.893 175.159C135.486 176.217 137.401 179.962 140.469 181.507C141.723 182.103 143.093 182.418 144.482 182.429C145.871 182.44 147.246 182.147 148.51 181.571C150.435 180.513 151.059 177.169 150.71 160.812C150.71 160.812 148.594 159.458 148.594 159.469C147.187 159.86 142.13 166.367 137.824 161.733C137.009 163.754 135.634 168.409 134.893 170.06Z" fill="#F27294"/>
<path d="M132.047 170.938L134.099 172.683C134.099 172.683 133.528 168.716 132.047 170.938Z" fill="#BD4064"/>
<path d="M147.43 169.7C147.43 170.176 147.198 170.546 146.965 170.525C146.732 170.504 146.574 170.123 146.595 169.658C146.616 169.192 146.827 168.811 147.06 168.822C147.293 168.832 147.494 169.181 147.43 169.7Z" fill="#04092B"/>
<path d="M150.244 169.562C150.244 170.028 150.011 170.398 149.778 170.388C149.546 170.377 149.387 169.985 149.408 169.509C149.429 169.033 149.651 168.673 149.874 168.684C150.096 168.695 150.265 169.086 150.244 169.562Z" fill="#04092B"/>
<path d="M144.321 165.775C143.675 166.166 144.754 164.283 145.601 164.114C145.788 164.064 145.984 164.053 146.176 164.079C146.368 164.106 146.553 164.17 146.72 164.268C146.887 164.367 147.033 164.497 147.15 164.652C147.267 164.807 147.351 164.984 147.399 165.172C146.334 164.996 145.241 165.21 144.321 165.775V165.775Z" fill="#04092B"/>
<path d="M150.667 165.933C150.17 165.83 149.658 165.812 149.154 165.88C149.247 165.536 149.458 165.235 149.75 165.03C150.042 164.825 150.396 164.729 150.752 164.759" fill="#04092B"/>
<path d="M148.552 169.277L149.61 172.958C149.615 172.971 149.617 172.984 149.616 172.998C149.615 173.011 149.61 173.024 149.603 173.036C149.596 173.047 149.586 173.057 149.574 173.063C149.563 173.07 149.55 173.074 149.536 173.075H148.034C148.007 173.072 147.983 173.06 147.966 173.04C147.948 173.021 147.938 172.995 147.938 172.969L148.383 169.266C148.383 169.255 148.386 169.244 148.391 169.234C148.396 169.224 148.403 169.215 148.411 169.208C148.42 169.2 148.429 169.195 148.44 169.191C148.451 169.187 148.462 169.186 148.473 169.187C148.484 169.187 148.495 169.19 148.505 169.195C148.515 169.2 148.524 169.207 148.531 169.215C148.538 169.224 148.544 169.233 148.548 169.244C148.551 169.254 148.553 169.265 148.552 169.277V169.277Z" fill="#BD4064"/>
<path d="M145.875 173.583C146.139 173.636 149.832 173.763 149.832 173.763C149.832 173.763 149.123 176.217 147.716 176.133C146.309 176.048 145.43 173.498 145.875 173.583Z" fill="white"/>
<path d="M196.331 190.976C196.331 190.976 194.914 179.285 197.654 180.481C197.993 180.629 199.294 186.067 199.294 186.067C199.294 186.067 204.584 176.545 206.012 176.947C207.663 177.37 202.531 184.215 202.531 184.215C202.531 184.215 207.165 177.561 208.276 178.09C209.387 178.619 204.404 186.025 204.404 186.025C204.404 186.025 209.694 177.561 209.948 179.296C210.202 181.031 206.192 187.58 206.192 187.58C206.192 187.58 209.588 182.205 211.133 182.004C213.016 181.772 203.526 198.626 203.526 198.626" fill="#F27294"/>
<path d="M173.827 195.198C170.135 192.194 167.648 187.961 166.823 183.274C166.105 178.589 166.604 173.798 168.273 169.361C170.281 170.612 171.906 172.391 172.97 174.503C176.356 180.587 176.493 188.67 173.901 195.134" fill="#39D192"/>
<path d="M169.5 177.106C172.314 183.401 173.182 190.754 173.859 197.557C174.568 204.688 174.917 212.105 173.933 219.225C173.933 219.341 174.092 219.394 174.102 219.278C174.786 213.75 174.9 208.166 174.441 202.614C174.128 196.564 173.325 190.549 172.039 184.628C171.493 182.017 170.692 179.466 169.648 177.011C169.648 176.905 169.447 177.011 169.5 177.106V177.106Z" fill="black"/>
<path d="M176.906 203.926C177.125 201.259 177.997 198.686 179.445 196.436C179.921 195.699 180.51 195.042 181.191 194.489C182.787 193.441 184.629 192.829 186.534 192.711C186.622 194.108 186.381 195.506 185.83 196.793C185.278 198.079 184.433 199.218 183.36 200.117C182.372 200.922 181.309 201.63 180.186 202.233L177.012 204.053" fill="#39D192"/>
<path d="M183.467 195.97C179.646 199.343 176.597 203.5 174.527 208.158C174.527 208.264 174.633 208.359 174.686 208.253C176.744 203.606 179.783 199.459 183.594 196.097C183.69 196.023 183.594 195.896 183.467 195.97V195.97Z" fill="black"/>
<path d="M158.974 241.887L167.501 214.104C167.694 213.479 168.021 212.903 168.46 212.417C168.898 211.93 169.438 211.546 170.04 211.29L186.503 204.424C188.545 203.556 190.068 205.672 189.328 207.756L181.721 230.577C181.482 231.319 181.095 232.004 180.582 232.59C180.069 233.176 179.441 233.65 178.737 233.984L161.058 242.596C160.497 242.85 158.783 242.48 158.974 241.887Z" fill="white"/>
<path d="M160.529 242.914L169.384 214.062C169.54 213.591 169.794 213.159 170.13 212.794C170.465 212.429 170.875 212.14 171.331 211.946L187.836 205.196C189.074 204.699 190.026 206.085 189.645 207.365L181.699 231.054C181.547 231.732 181.238 232.366 180.797 232.904C180.356 233.443 179.796 233.87 179.16 234.153C173.817 236.767 160.38 243.379 160.529 242.914Z" fill="#040C2B"/>
<path d="M152.085 250.552C161.062 244.486 169.581 237.767 177.573 230.45C178.504 229.625 181.053 226.832 180.852 226.367C180.376 225.309 175.171 230.789 175.308 230.419C175.446 230.048 181.995 224.388 181.656 223.51C181.117 222.187 173.912 228.652 173.785 228.8C171.87 230.366 180.916 222.896 180.768 221.902C180.62 220.907 176.25 224.018 176.091 224.134C176.091 224.134 172.515 227.022 172.251 226.811C171.986 226.599 178.112 218.347 177.033 218.188C175.954 218.029 171.849 222.843 170.611 224.018C169.373 225.192 166.612 226.134 165.585 226.885C164.168 227.943 164.157 224.229 164.75 222.907C163.268 224.657 162.055 226.618 161.152 228.726C160.816 229.764 160.554 230.825 160.369 231.9L147.515 240.364L152.085 250.552Z" fill="#F27294"/>
<path d="M126.335 202.498C126.335 202.498 120.114 192.722 114.4 196.214C104.72 202.128 103.122 225.33 122.939 254.509C127.446 261.133 140.025 262.244 145.654 256.552L166.306 243.792L157.503 229.974L144.067 238.978L126.335 202.498Z" fill="#28BC79"/>
<path d="M152.698 233.392L160.781 247.146" stroke="white" stroke-width="0.33" stroke-miterlimit="10"/>
<path d="M345.404 119.646C345.126 117.496 344.14 115.501 342.601 113.975C341.933 113.488 341.137 113.208 340.312 113.169C339.486 113.129 338.667 113.332 337.956 113.753C336.546 114.615 335.418 115.868 334.708 117.36C334.35 116.515 333.731 115.807 332.941 115.34C331.779 114.739 330.431 114.606 329.174 114.969C325.672 115.551 325.323 118.27 325.144 119.741" fill="#55A695"/>
<path d="M329.597 85.3769C316.99 75.8647 308.226 62.1355 304.903 46.6963C301.729 31.3658 303.316 15.2736 308.077 0.355713C314.997 3.95293 320.234 10.1634 324.265 16.8394C336.22 36.6029 337.648 63.3916 329.851 85.1442" fill="#39D192"/>
<path d="M313.653 25.6103C324.135 48.4529 329.683 73.2486 329.936 98.3798C329.968 105.452 329.558 112.519 328.709 119.54C328.709 119.921 329.269 119.921 329.312 119.54C332.257 94.4201 329.697 68.9602 321.811 44.9295C319.624 38.2649 317.078 31.7239 314.182 25.3352C314.024 24.9861 313.495 25.3352 313.653 25.6421V25.6103Z" fill="black"/>
<path d="M336.877 92.4655C337.819 82.8059 340.961 72.7972 346.663 64.9574C348.546 62.2439 350.837 59.8384 353.456 57.8265C359.434 53.4781 367.104 52.3883 374.436 51.4785C375.568 61.794 370.119 72.1201 362.026 78.6162C358.155 81.527 354.026 84.0768 349.689 86.2339L337.321 92.857" fill="#39D192"/>
<path d="M362.512 63.3174C348.623 74.6703 337.489 89.0239 329.946 105.299C329.798 105.616 330.274 105.892 330.422 105.574C337.943 89.3418 349.049 75.0274 362.903 63.7089C363.178 63.4867 362.787 63.0953 362.512 63.3174V63.3174Z" fill="black"/>
<path d="M320.859 105.638C318.395 98.5978 314.109 92.3368 308.438 87.493C306.55 85.8085 304.407 84.4337 302.09 83.4197C296.874 81.3037 290.98 81.8433 285.373 82.4675C286.431 90.3284 292.292 97.015 299.466 100.369C302.863 101.829 306.387 102.976 309.993 103.797L320.372 106.484" fill="#39D192"/>
<path d="M297.191 88.7942C308.93 96.0001 319.682 104.703 329.175 114.684C329.418 114.937 329.809 114.546 329.555 114.292C320.033 104.283 309.246 95.5581 297.466 88.3392C297.403 88.3056 297.33 88.2978 297.261 88.3174C297.193 88.337 297.134 88.3825 297.098 88.4443C297.063 88.5061 297.052 88.5793 297.07 88.6486C297.087 88.7178 297.131 88.7776 297.191 88.8154V88.7942Z" fill="black"/>
<path d="M314.119 119.773C314.368 117.719 315.273 115.8 316.701 114.303C317.303 113.847 318.028 113.582 318.783 113.542C319.537 113.503 320.286 113.69 320.933 114.081C322.243 114.931 323.282 116.139 323.927 117.561C324.244 116.753 324.816 116.069 325.556 115.615C326.08 115.328 326.656 115.149 327.251 115.089C327.845 115.029 328.445 115.089 329.016 115.266C332.19 115.816 332.55 118.44 332.719 119.857" fill="#7CBFB1"/>
<path d="M269.164 125.856C272.931 126.629 276.571 129.03 277.957 132.67C278.496 134.13 278.464 136.119 277.142 136.902C276.568 137.179 275.938 137.317 275.301 137.304C268.732 137.73 262.363 139.733 256.733 143.144C258.405 146.942 263.917 145.704 267.556 143.874C271.196 142.044 276.729 140.816 278.38 144.625L282.866 141.451C285.644 148.681 287.403 156.262 288.092 163.976C288.388 167.256 287.605 171.668 284.41 171.975L282.157 168.949L256.246 183.676C253.517 185.231 250.671 186.903 249.052 189.643C248.089 191.294 247.645 193.209 246.724 194.933C244.703 198.636 240.715 200.625 237.202 202.921C233.69 205.217 230.24 208.634 230.389 212.877C230.452 214.824 231.298 216.665 231.447 218.611C231.595 220.558 230.822 222.843 228.971 223.309C225.585 224.06 224.739 218.791 223.025 215.691C220.147 210.401 211.842 211.269 208.044 215.85C204.245 220.431 203.812 226.948 203.949 232.947C206.791 235.216 210.259 236.563 213.887 236.807C217.516 237.05 221.132 236.18 224.252 234.312C225.712 233.402 227.68 232.291 228.918 233.497C227.741 237.753 225.69 241.716 222.898 245.136C224.866 247.907 228.929 247.738 232.134 246.828C235.34 245.918 238.81 244.554 241.9 245.844C243.402 246.469 244.735 247.717 246.354 247.706C247.613 247.706 248.734 246.955 249.951 246.648C252.702 245.961 255.442 247.59 257.833 249.145L277.523 262.053C279.787 263.534 282.347 265.555 282.178 268.316C282.104 269.702 281.353 271.279 282.178 272.358C282.876 273.247 284.178 273.162 285.278 273.056C292.342 272.464 299.366 274.59 304.914 279.002C306.261 279.917 307.266 281.253 307.771 282.8C308.237 284.758 307.305 286.736 306.396 288.503C304.103 293.024 301.804 297.535 299.497 302.035C297.879 305.209 296.673 310.002 299.773 311.684C289.595 328.429 279.558 345.269 269.662 362.204C267.641 365.663 265.546 369.546 266.287 373.503C267.345 379.29 273.873 382.295 276.348 387.617C276.041 388.121 275.623 388.55 275.126 388.871C274.63 389.191 274.068 389.396 273.481 389.468C291.542 397.54 311.105 401.704 330.888 401.688C410.334 401.688 474.777 335.669 474.777 254.234C474.779 244.62 473.868 235.026 472.058 225.584C460.855 220.588 449.37 216.25 437.662 212.591C439.694 215.839 441.778 219.151 444.751 221.521C447.724 223.891 451.808 225.16 455.331 223.796C457.616 223.997 458.706 227.097 457.859 229.276C457.013 231.456 454.971 232.863 453.035 234.132L443.883 240.152C443.079 240.792 442.111 241.192 441.09 241.306C439.281 241.306 437.98 239.602 436.985 238.057C433.691 232.958 430.404 227.855 427.124 222.748C425.474 220.198 423.675 217.458 420.924 216.294C418.174 215.131 414.259 216.21 413.593 219.193C413.116 221.309 414.365 223.425 415.571 225.15C421.122 233.288 427.152 241.089 433.631 248.511C434.155 249.298 434.969 249.845 435.895 250.034C437.493 250.129 438.392 248.204 439.715 247.294C442.402 245.453 446.158 248.563 446.317 251.864C446.475 255.165 444.402 258.086 442.434 260.709L426.183 282.314C425.052 283.581 424.317 285.152 424.067 286.831C423.961 288.947 425.315 290.725 426.183 292.619C428.299 297.39 427.241 303.199 424.702 307.685C422.162 312.171 418.258 315.8 414.428 319.323C418.66 319.778 420.681 325.565 419.084 329.628C417.486 333.69 413.677 336.325 410.069 338.705L392.083 350.576C391.418 351.14 390.564 351.435 389.692 351.401C389.048 351.236 388.476 350.864 388.063 350.343C381.715 343.657 383.45 332.876 382.773 323.555C382.221 318.394 381.216 313.293 379.768 308.309C377.314 298.759 374.845 289.212 372.362 279.669C371.781 277.969 371.614 276.156 371.875 274.379C372.404 272.146 374.245 270.432 374.753 268.2C375.716 263.883 371.029 260.096 366.712 260.149C362.396 260.201 358.534 262.688 354.672 264.677C350.319 266.924 345.697 268.605 340.918 269.681C339.643 270.072 338.279 270.072 337.004 269.681C335.804 269.068 334.808 268.12 334.137 266.952C329.903 260.914 326.354 254.424 323.556 247.601C322.498 245.093 321.578 242.438 321.821 239.74C322.065 237.042 323.567 234.45 324.995 232.037C334.285 216.855 344.706 200.699 361.105 194.478C362.584 193.8 364.212 193.512 365.834 193.642C367.422 194.012 368.914 194.712 370.214 195.695C380.404 202.233 391.439 207.348 403.013 210.899L411.36 204.434C412.82 201.757 410.302 198.7 407.943 196.764L397.902 188.3C395.681 186.437 393.342 184.522 390.496 183.972C387.65 183.422 384.307 184.755 383.524 187.58C385.655 189.091 387.534 190.93 389.089 193.029C385.132 196.943 378.626 194.457 373.78 191.78C372.373 191.008 370.839 190.066 370.437 188.479C370.034 186.892 371.05 185.104 371.495 183.422C371.939 181.74 371.41 179.307 369.696 179.296C362.711 187.779 353.618 194.277 343.33 198.139C340.273 197.345 338.781 193.505 339.395 190.331C340.008 187.157 342.124 184.544 344.156 182.079C345.422 183.336 347.103 184.087 348.885 184.19C350.666 184.293 352.423 183.742 353.826 182.639L348.726 175.117C349.911 173.54 351.086 171.943 352.26 170.377C352.451 168.388 349.573 167.721 347.774 168.504C345.976 169.287 344.166 170.747 342.294 170.197C339.913 169.499 339.49 165.965 340.696 163.849C341.902 161.733 344.092 160.22 345.743 158.337C347.002 156.898 347.996 155.163 349.594 154.105C351.191 153.047 353.741 153.216 354.492 154.994C354.751 155.88 354.809 156.812 354.662 157.723C354.572 159.71 354.978 161.687 355.845 163.477C356.711 165.267 358.01 166.813 359.624 167.975C368.853 162.849 378.913 159.389 389.343 157.755L386.783 154.465C380.718 156.713 374.85 159.463 369.241 162.685C366.905 158.755 365.01 154.579 363.591 150.233C369.565 145.536 375.187 140.408 380.414 134.891L386.074 131.717C393.553 130.628 401.171 130.987 408.514 132.775C407.9 134.373 406.756 135.712 405.273 136.567C403.79 137.422 402.058 137.742 400.368 137.473C400.643 139.97 403.192 141.705 405.658 141.705C408.123 141.705 410.419 140.647 412.503 139.282C414.094 138.273 415.623 137.171 417.084 135.981C399.448 122.395 378.855 113.162 356.979 109.034C357.063 110.758 355.36 112.282 353.699 112.959C351.837 113.721 349.657 114.155 348.515 115.837C347.961 116.914 347.552 118.059 347.298 119.244C346.582 121.299 345.156 123.031 343.276 124.129C341.397 125.226 339.188 125.618 337.046 125.232L342.516 129.369C335.258 132.807 327.545 136.341 319.6 135.41C318.47 135.167 317.301 135.167 316.172 135.41C315.079 135.868 314.122 136.596 313.389 137.526C311.918 139.113 310.448 140.7 308.988 142.276C307.528 143.853 305.814 145.567 303.698 145.81C299.656 146.276 296.948 141.197 297.413 137.06C297.879 132.924 300.227 129.252 301.127 125.2C301.433 124.118 301.433 122.971 301.127 121.889C299.825 118.09 294.186 118.99 290.959 116.694L294.133 112.25L285.754 114.081C276.788 117.131 268.15 121.072 259.97 125.846C263.014 125.338 266.122 125.342 269.164 125.856V125.856ZM440.9 319.936C440.455 319.238 439.577 318.878 439.323 318.043C439.266 317.661 439.285 317.272 439.379 316.898C439.474 316.523 439.642 316.172 439.873 315.863L449.268 299.57C449.85 298.512 451.384 297.549 451.861 298.596L454.273 296.1C452.054 306.932 448.828 317.534 444.634 327.766L438.509 324.898C440.159 323.724 442.01 321.64 440.9 319.936ZM337.84 133.167L338.443 134.352C340.877 133.991 343.363 134.238 345.679 135.071C346.22 135.365 346.853 135.437 347.446 135.272C347.844 135.049 348.167 134.714 348.377 134.31C349.107 133.178 349.837 132.056 350.557 130.924L353.392 132.617C352.503 135.372 351.392 138.051 350.07 140.626C349.74 141.481 349.128 142.198 348.335 142.657C347.599 142.874 346.817 142.874 346.081 142.657C342.28 141.952 338.481 141.247 334.687 140.541C335.055 137.841 336.144 135.29 337.84 133.156V133.167Z" fill="#71B0CD"/>
<path d="M321.006 108.695C325.386 108.452 329.756 107.785 334.146 107.637C337.32 107.521 340.494 107.637 343.668 107.817L351.963 108.209C345.036 107.167 338.041 106.643 331.036 106.643C323.319 106.644 315.616 107.278 308.003 108.537C312.331 108.826 316.672 108.879 321.006 108.695Z" fill="#71B0CD"/>
<path d="M263.06 384.094L246.576 369.282C244.957 368.064 243.685 366.445 242.884 364.584C242.238 362.637 242.64 360.521 243.011 358.511C245.259 346.478 246.575 334.289 246.946 322.052C247.052 318.582 247.052 314.996 245.73 311.79C244.592 309.403 243.089 307.208 241.275 305.283L222.231 282.843C220.918 281.562 220.006 279.926 219.608 278.135C219.532 276.685 219.789 275.238 220.359 273.903L227.183 253.801C220.613 252.415 213.905 250.965 208.139 247.453C204.425 245.199 200.997 242.078 196.723 241.464C193.782 241.041 190.534 241.803 187.73 241.242C187.37 245.474 187.187 249.755 187.18 254.086C187.169 310.34 217.883 359.22 263.06 384.094Z" fill="#71B0CD"/>
<path d="M196.712 241.485C200.944 242.099 204.415 245.22 208.128 247.474C213.905 250.965 220.613 252.415 227.172 253.822L220.348 273.924C219.779 275.259 219.522 276.706 219.597 278.156C219.995 279.947 220.907 281.583 222.221 282.864L241.265 305.304C243.078 307.229 244.581 309.424 245.719 311.811C247.042 314.985 247.042 318.603 246.936 322.074C246.568 334.334 245.252 346.548 243 358.606C242.63 360.617 242.228 362.733 242.873 364.679C243.674 366.54 244.947 368.159 246.566 369.377L263.049 384.189C266.477 386.079 270.004 387.843 273.629 389.479C274.216 389.406 274.778 389.202 275.275 388.881C275.771 388.561 276.189 388.132 276.497 387.627C274.021 382.337 267.525 379.301 266.435 373.514C265.694 369.557 267.789 365.674 269.81 362.214C279.685 345.286 289.721 328.446 299.921 311.695C296.821 310.012 298.027 305.23 299.646 302.046C301.945 297.538 304.244 293.028 306.544 288.514C307.454 286.747 308.385 284.768 307.919 282.811C307.414 281.263 306.41 279.927 305.063 279.013C299.514 274.601 292.49 272.474 285.426 273.067C284.368 273.173 283.024 273.257 282.326 272.369C281.48 271.311 282.231 269.713 282.326 268.327C282.495 265.566 279.935 263.545 277.671 262.064L257.981 249.156C255.59 247.601 252.85 245.982 250.099 246.659C248.883 246.976 247.761 247.717 246.502 247.717C244.883 247.717 243.55 246.479 242.048 245.855C238.959 244.564 235.499 245.929 232.283 246.839C229.066 247.749 225.014 247.897 223.046 245.146C225.839 241.726 227.889 237.763 229.066 233.508C227.828 232.302 225.892 233.413 224.4 234.323C221.28 236.191 217.664 237.061 214.035 236.817C210.407 236.573 206.939 235.227 204.097 232.958C203.97 226.959 204.394 220.431 208.192 215.861C211.99 211.29 220.295 210.465 223.173 215.702C224.877 218.802 225.734 224.071 229.119 223.319C230.971 222.896 231.785 220.558 231.595 218.622C231.404 216.686 230.537 214.834 230.537 212.888C230.389 208.656 233.859 205.228 237.35 202.932C240.842 200.636 244.82 198.7 246.872 194.944C247.793 193.262 248.237 191.347 249.2 189.654C250.819 186.914 253.665 185.242 256.394 183.687L282.305 168.959L284.559 171.985C287.733 171.678 288.537 167.266 288.24 163.987C287.551 156.272 285.792 148.691 283.014 141.462L278.528 144.636C276.877 140.827 271.355 142.054 267.704 143.885C264.054 145.715 258.553 146.953 256.881 143.154C262.511 139.744 268.88 137.74 275.449 137.314C276.086 137.327 276.717 137.19 277.29 136.912C278.613 136.151 278.644 134.162 278.105 132.68C276.75 128.998 273.079 126.639 269.313 125.867C266.262 125.354 263.148 125.354 260.097 125.867C239.657 137.882 222.408 154.64 209.807 174.724C197.206 194.809 189.623 217.631 187.698 241.263C190.523 241.824 193.771 241.062 196.712 241.485Z" fill="#4892B5"/>
<path d="M196.628 241.803C202.077 242.702 206.15 247.093 211.07 249.41C216.138 251.78 221.65 252.965 227.099 254.129L226.866 253.716C224.983 259.274 223.096 264.825 221.206 270.369C220.412 272.697 219.09 275.342 219.259 277.86C219.418 279.976 220.846 281.668 222.168 283.234L233.563 296.66L239.34 303.463C241.216 305.487 242.925 307.66 244.45 309.959C247.349 314.795 246.714 320.762 246.45 326.157C246.175 332.019 245.681 337.866 244.968 343.699C244.595 346.76 244.164 349.807 243.678 352.84C243.255 355.443 242.62 358.035 242.334 360.659C242.138 361.744 242.165 362.858 242.412 363.933C242.659 365.008 243.122 366.021 243.773 366.912C245.367 368.779 247.139 370.487 249.063 372.011L256.469 378.698L260.204 382.041C261.245 383.111 262.41 384.052 263.674 384.845C266.411 386.326 269.193 387.716 272.022 389.013C273.08 389.5 273.503 389.828 274.603 389.394C275.471 389.049 276.21 388.442 276.719 387.659C276.75 387.608 276.766 387.55 276.766 387.49C276.766 387.43 276.75 387.372 276.719 387.321C274.825 383.427 271.143 380.973 268.636 377.534C267.116 375.576 266.391 373.116 266.605 370.647C266.933 367.61 268.52 364.849 270.032 362.246C276.317 351.454 282.665 340.701 289.077 329.987C292.723 323.893 296.398 317.803 300.101 311.716C300.143 311.64 300.153 311.551 300.129 311.467C300.105 311.384 300.05 311.314 299.974 311.271C295.806 308.774 299.752 302.215 301.254 299.284L305.296 291.349C306.354 289.233 307.899 286.948 308.216 284.525C308.777 280.177 303.793 277.299 300.514 275.617C296.361 273.475 291.738 272.405 287.066 272.506C285.895 272.664 284.711 272.696 283.533 272.601C281.544 272.178 282.327 270.03 282.475 268.655C282.552 267.809 282.437 266.957 282.139 266.161C281.84 265.366 281.365 264.649 280.75 264.063C279.095 262.519 277.262 261.176 275.291 260.064L268.075 255.335L260.849 250.605C258.807 249.094 256.625 247.783 254.332 246.691C253.364 246.267 252.32 246.044 251.264 246.035C250.098 246.138 248.96 246.442 247.899 246.934C245.191 247.886 243.572 245.76 241.138 245.125C235.965 243.76 231.119 248.183 225.935 246.691C225.358 246.536 224.811 246.286 224.316 245.95C224.049 245.78 223.807 245.573 223.597 245.337C223.322 244.723 223.502 244.966 223.734 244.511C224.337 243.326 225.353 242.268 226.03 241.094C227.402 238.705 228.468 236.152 229.204 233.497C229.22 233.44 229.221 233.38 229.206 233.322C229.191 233.265 229.161 233.212 229.12 233.17C227.501 231.858 225.586 233.011 224.052 233.931C221.736 235.334 219.123 236.171 216.424 236.375C213.908 236.548 211.384 236.188 209.018 235.317C207.809 234.875 206.656 234.297 205.579 233.593C204.891 233.148 204.394 232.799 204.288 231.985C204.236 231.28 204.236 230.573 204.288 229.869C204.394 224.684 205.219 218.421 209.409 214.834C212.509 212.168 217.873 211.131 221.269 213.924C222.951 215.332 223.565 217.543 224.443 219.479C225.025 220.854 225.734 222.568 227.152 223.288C227.793 223.589 228.52 223.654 229.205 223.472C229.89 223.29 230.489 222.873 230.897 222.293C232.188 220.579 231.955 218.357 231.447 216.411C230.717 213.448 230.389 210.909 232.05 208.19C233.618 205.919 235.67 204.026 238.06 202.646C240.199 201.397 242.236 199.982 244.154 198.414C245.895 196.843 247.222 194.866 248.016 192.659C248.554 191.011 249.389 189.476 250.481 188.13C251.543 187.002 252.758 186.026 254.088 185.231C256.977 183.412 260.013 181.803 262.986 180.121L282.305 169.139L281.85 169.023L284.104 172.049C284.145 172.106 284.202 172.151 284.267 172.177C284.333 172.203 284.405 172.21 284.474 172.197C289.373 171.52 288.516 164.304 288.093 160.94C287.239 154.207 285.584 147.6 283.162 141.261C283.149 141.212 283.124 141.167 283.09 141.13C283.056 141.092 283.013 141.063 282.966 141.045C282.919 141.026 282.868 141.019 282.818 141.023C282.768 141.028 282.719 141.044 282.676 141.07L278.19 144.244L278.645 144.361C276.899 140.7 272.17 141.546 269.123 142.731C265.79 144.022 259.336 147.662 257.03 142.89L256.913 143.334C260.241 141.336 263.83 139.808 267.578 138.796C269.507 138.301 271.47 137.947 273.45 137.738C274.741 137.589 276.486 137.812 277.587 136.955C279.502 135.463 278.454 132.405 277.396 130.744C275.884 128.521 273.678 126.862 271.122 126.025C269.513 125.477 267.829 125.177 266.129 125.137C265.272 125.137 264.414 125.137 263.558 125.137C262.348 125.098 261.14 125.216 259.96 125.486C258.795 126.01 257.689 126.655 256.659 127.411C255.305 128.247 253.951 129.115 252.618 130.004C247.692 133.295 242.971 136.885 238.483 140.753C219.962 156.704 205.668 176.984 196.872 199.789C191.751 213.094 188.545 227.058 187.35 241.263C187.349 241.336 187.373 241.406 187.417 241.463C187.461 241.521 187.523 241.562 187.593 241.581C190.598 242.099 193.645 241.443 196.671 241.813C197.094 241.866 197.094 241.2 196.671 241.157C194.836 241.015 192.993 241.015 191.158 241.157C190.302 241.274 189.433 241.274 188.577 241.157C187.826 240.956 188.058 240.734 188.111 240.099C188.164 239.465 188.207 239.147 188.249 238.661C188.577 235.487 189.011 232.249 189.55 229.054C190.578 222.916 191.992 216.848 193.782 210.888C197.268 199.242 202.175 188.07 208.393 177.624C220.617 157.07 237.69 139.822 258.119 127.39C258.972 126.78 259.941 126.351 260.965 126.131C261.99 125.992 263.021 125.911 264.055 125.888C266.25 125.757 268.452 126.008 270.561 126.629C273.852 127.687 277.883 130.575 277.968 134.415C277.968 137.346 275.1 136.965 272.984 137.23C271.1 137.45 269.233 137.803 267.398 138.288C263.594 139.313 259.952 140.862 256.575 142.89C256.502 142.938 256.45 143.011 256.429 143.095C256.407 143.179 256.418 143.268 256.458 143.345C258.268 147.101 263.177 146.106 266.298 144.847C269.419 143.588 275.82 140.15 278.105 144.847C278.151 144.922 278.224 144.976 278.309 144.997C278.394 145.019 278.484 145.007 278.56 144.964L283.035 141.79L282.549 141.589C284.908 147.725 286.538 154.116 287.405 160.633C287.744 163.257 288.167 166.018 287.405 168.6C287.279 169.186 287.033 169.74 286.684 170.228C286.334 170.716 285.888 171.127 285.374 171.435C284.622 171.795 284.464 171.53 284.009 170.917L282.454 168.801C282.406 168.728 282.333 168.676 282.248 168.654C282.164 168.633 282.075 168.644 281.999 168.684L263.145 179.412C260.193 181.084 257.21 182.692 254.311 184.448C251.939 185.704 249.954 187.58 248.566 189.876C247.878 191.188 247.508 192.616 246.852 193.96C246.229 195.295 245.364 196.504 244.302 197.525C242.186 199.641 239.53 200.985 237.076 202.614C232.918 205.376 229.236 209.396 230.357 214.718C230.823 216.203 231.118 217.736 231.236 219.288C231.236 220.886 230.41 222.97 228.527 223.023C226.199 223.097 225.237 219.712 224.549 218.029C223.985 216.215 222.939 214.588 221.523 213.321C219.912 212.173 217.954 211.612 215.979 211.734C213.81 211.857 211.718 212.579 209.935 213.822C208.153 215.064 206.751 216.777 205.886 218.77C204.814 221.168 204.153 223.729 203.928 226.345C203.78 227.763 203.717 229.181 203.696 230.577C203.696 231.551 203.378 232.778 204.193 233.434C206.485 235.177 209.158 236.351 211.993 236.859C214.828 237.367 217.742 237.194 220.497 236.354C221.903 235.919 223.25 235.312 224.507 234.545C225.226 234.041 226.018 233.648 226.855 233.381C227.232 233.23 227.645 233.197 228.04 233.286C228.908 233.656 228.432 234.28 228.231 234.883C227.016 238.498 225.163 241.867 222.761 244.829C222.713 244.883 222.682 244.95 222.672 245.022C222.663 245.093 222.675 245.166 222.708 245.231C224.824 247.992 228.516 247.992 231.616 247.252C233.912 246.712 236.134 245.76 238.504 245.601C239.836 245.482 241.176 245.73 242.376 246.32C243.229 246.823 244.108 247.279 245.011 247.685C247.042 248.426 248.566 247.156 250.523 246.818C253.168 246.373 255.644 247.982 257.76 249.346C262.214 252.245 266.657 255.176 271.101 258.096C273.323 259.546 275.566 260.974 277.756 262.455C279.449 263.587 281.47 265.1 281.882 267.227C282.21 268.888 280.824 270.993 282.041 272.517C283.258 274.04 285.215 273.321 286.707 273.257C291.408 273.083 296.076 274.122 300.26 276.273C302.31 277.275 304.2 278.576 305.867 280.134C308.258 282.472 307.803 285.107 306.438 287.889C305.074 290.672 303.762 293.18 302.418 295.761C301.191 298.173 299.815 300.554 298.768 303.051C297.604 305.812 296.652 310.055 299.72 311.927L299.604 311.472C290.505 326.454 281.519 341.498 272.646 356.607C269.334 362.267 263.494 369.557 267.102 376.36C268.435 378.878 270.614 380.824 272.561 382.856C273.671 383.965 274.66 385.189 275.513 386.506C275.64 386.718 276.031 387.183 276.031 387.426C276.031 387.881 275.354 388.379 274.973 388.58C273.81 389.289 273.069 388.855 271.916 388.326C270.068 387.458 268.23 386.559 266.404 385.628C265.536 385.173 264.647 384.739 263.801 384.242C262.747 383.536 261.766 382.728 260.87 381.83L251.063 373.038C249.423 371.567 247.762 370.118 246.143 368.626C244.617 367.432 243.507 365.789 242.969 363.928C242.524 361.696 243.159 359.379 243.561 357.178C243.963 354.977 244.291 352.946 244.619 350.83C245.908 342.35 246.737 333.807 247.106 325.237C247.275 321.301 247.613 317.164 246.534 313.334C245.561 309.885 243.223 307.187 240.948 304.521L223.777 284.292C222.433 282.716 220.793 281.118 220.105 279.14C219.354 276.971 220.433 274.664 221.163 272.622C222.574 268.454 223.985 264.289 225.395 260.127C226.101 258.096 226.806 256.058 227.511 254.012C227.534 253.927 227.523 253.836 227.479 253.758C227.436 253.681 227.364 253.624 227.279 253.6C221.597 252.393 215.81 251.166 210.573 248.542C205.949 246.236 202.109 242.194 196.819 241.284C196.385 241.094 196.163 241.729 196.628 241.803Z" fill="#4892B5"/>
<path d="M290.927 116.715C294.101 119.011 299.793 118.112 301.095 121.91C301.401 122.992 301.401 124.139 301.095 125.221C300.195 129.274 297.857 132.945 297.381 137.082C296.905 141.218 299.624 146.297 303.666 145.831C305.782 145.588 307.474 143.895 308.956 142.297C310.437 140.7 311.886 139.123 313.357 137.547C314.09 136.617 315.047 135.889 316.139 135.431C317.269 135.188 318.438 135.188 319.567 135.431C327.513 136.362 335.226 132.828 342.484 129.39L337.014 125.253C339.156 125.639 341.365 125.248 343.244 124.15C345.124 123.052 346.55 121.32 347.266 119.265C347.52 118.081 347.929 116.935 348.483 115.858C349.625 114.176 351.805 113.742 353.667 112.98C355.328 112.303 357.031 110.78 356.947 109.055C355.286 108.748 353.624 108.473 351.953 108.23L343.658 107.838C340.484 107.69 337.31 107.542 334.136 107.658C329.745 107.807 325.376 108.473 320.996 108.716C316.648 108.901 312.293 108.849 307.951 108.558C300.405 109.804 292.974 111.665 285.732 114.123L294.112 112.293L290.927 116.715Z" fill="#4892B5"/>
<path d="M290.768 117.001C292.578 118.217 294.747 118.535 296.799 119.117C297.807 119.349 298.759 119.777 299.603 120.376C301.095 121.571 301.137 123.391 300.767 125.137C299.709 130.501 295.593 135.622 297.593 141.282C297.87 142.24 298.338 143.132 298.969 143.905C299.6 144.677 300.381 145.315 301.264 145.778C302.191 146.143 303.2 146.246 304.181 146.076C305.163 145.906 306.078 145.47 306.829 144.816C309.262 142.975 311.23 140.383 313.293 138.161C314.457 136.902 315.61 135.621 317.451 135.569C319.112 135.516 320.784 135.918 322.466 135.907C329.629 135.833 336.337 132.67 342.695 129.665C342.939 129.549 342.865 129.231 342.695 129.094L337.215 124.957L336.961 125.56C339.132 125.959 341.374 125.592 343.304 124.521C345.233 123.45 346.731 121.741 347.541 119.688C348.07 118.281 348.165 116.641 349.265 115.456C350.392 114.534 351.706 113.869 353.117 113.509C355.137 112.758 357.349 111.393 357.349 108.992C357.345 108.92 357.32 108.851 357.277 108.795C357.233 108.738 357.173 108.696 357.105 108.674C354.917 108.223 352.701 107.919 350.472 107.764L343.214 107.415C338.457 107.151 333.687 107.225 328.941 107.637C324.178 108.173 319.388 108.434 314.595 108.42C312.315 108.216 310.026 108.149 307.739 108.219C305.413 108.537 303.107 108.982 300.83 109.552C295.727 110.682 290.69 112.095 285.743 113.784C285.659 113.808 285.588 113.864 285.545 113.941C285.502 114.017 285.492 114.107 285.515 114.192C285.539 114.276 285.596 114.347 285.672 114.39C285.748 114.432 285.839 114.443 285.923 114.419L294.302 112.589L293.932 112.102L290.758 116.546C290.515 116.895 291.086 117.223 291.329 116.884L294.503 112.441C294.683 112.187 294.387 111.901 294.133 111.954L285.743 113.784L285.923 114.419C292.201 112.293 298.621 110.614 305.136 109.394C306.944 109.045 308.788 108.917 310.627 109.013C312.457 109.087 314.277 109.15 316.108 109.15C319.532 109.142 322.954 108.958 326.36 108.6C329.756 108.262 333.152 107.934 336.569 107.934C339.987 107.934 343.563 108.156 347.054 108.314C348.821 108.399 350.63 108.388 352.344 108.611C353.18 108.716 354.016 108.875 354.841 109.013C355.836 109.182 356.957 109.129 356.227 110.452C354.799 113.044 351.413 112.927 349.255 114.567C348.307 115.342 347.644 116.41 347.372 117.604C347.031 119.137 346.367 120.579 345.425 121.836C344.429 123.04 343.132 123.958 341.665 124.497C340.199 125.036 338.616 125.176 337.077 124.904C336.999 124.877 336.913 124.881 336.837 124.915C336.762 124.949 336.701 125.011 336.669 125.087C336.637 125.164 336.635 125.249 336.664 125.327C336.692 125.405 336.749 125.469 336.823 125.507L342.293 129.644V129.072C336.39 131.876 330.211 134.796 323.577 135.177C322.087 135.256 320.593 135.203 319.112 135.018C317.938 134.775 316.719 134.859 315.589 135.262C314.494 135.866 313.533 136.687 312.764 137.674L309.379 141.324C307.517 143.324 305.147 146.254 301.973 145.366C299.56 144.667 298.185 142.022 297.741 139.737C297.169 136.732 298.323 133.738 299.402 130.987C300.375 128.491 301.856 125.539 301.518 122.788C300.957 117.784 294.196 118.556 290.938 116.44C290.747 116.197 290.419 116.8 290.768 117.001Z" fill="#4892B5"/>
<path d="M348.334 142.647C349.127 142.187 349.74 141.47 350.07 140.615C351.392 138.04 352.503 135.361 353.392 132.606L350.556 130.913C349.837 132.046 349.107 133.167 348.377 134.299C348.167 134.704 347.843 135.039 347.446 135.262C346.853 135.427 346.219 135.355 345.679 135.061C343.363 134.228 340.877 133.981 338.442 134.341L337.839 133.156C336.132 135.294 335.036 137.853 334.665 140.562C338.46 141.268 342.258 141.973 346.06 142.678C346.805 142.89 347.595 142.878 348.334 142.647V142.647Z" fill="#4892B5"/>
<path d="M348.515 142.932C350.081 142.139 350.758 140.086 351.436 138.595C352.313 136.672 353.079 134.701 353.731 132.691C353.748 132.62 353.742 132.546 353.713 132.48C353.685 132.413 353.635 132.357 353.573 132.321L350.748 130.628C350.673 130.585 350.585 130.573 350.502 130.595C350.419 130.617 350.347 130.67 350.303 130.744C349.637 131.802 348.97 132.797 348.314 133.823C347.838 134.553 347.33 135.188 346.378 134.944C345.796 134.796 345.246 134.553 344.664 134.394C342.616 133.849 340.478 133.723 338.38 134.024L338.75 134.183L338.147 132.998C338.122 132.953 338.088 132.915 338.046 132.886C338.004 132.857 337.956 132.839 337.906 132.831C337.856 132.824 337.805 132.829 337.757 132.845C337.708 132.861 337.665 132.888 337.629 132.924C335.896 135.129 334.779 137.754 334.391 140.531C334.38 140.572 334.377 140.616 334.383 140.659C334.388 140.701 334.402 140.743 334.424 140.78C334.446 140.817 334.474 140.85 334.509 140.876C334.543 140.902 334.582 140.922 334.624 140.933L341.966 142.276L345.468 142.901C346.437 143.18 347.462 143.202 348.441 142.964C348.843 142.827 348.674 142.192 348.262 142.329C347.079 142.547 345.861 142.467 344.717 142.097L341.416 141.504L334.793 140.298L335.026 140.7C335.388 138.036 336.446 135.514 338.094 133.389L337.576 133.326L338.179 134.511C338.216 134.572 338.272 134.62 338.339 134.649C338.405 134.677 338.478 134.684 338.549 134.669C340.032 134.443 341.541 134.443 343.024 134.669C344.231 134.87 345.363 135.442 346.548 135.622C346.937 135.687 347.337 135.631 347.693 135.46C348.049 135.29 348.344 135.014 348.537 134.669C349.362 133.495 350.092 132.247 350.864 131.04L350.42 131.167L353.245 132.86L353.097 132.479C352.487 134.328 351.781 136.143 350.981 137.917C350.335 139.346 349.648 141.578 348.156 142.329C347.785 142.551 348.124 143.123 348.515 142.932Z" fill="#4892B5"/>
<path d="M438.509 324.888L444.635 327.755C448.828 317.523 452.055 306.922 454.273 296.089L451.861 298.586C451.364 297.528 449.851 298.586 449.269 299.559L439.874 315.853C439.642 316.161 439.474 316.513 439.38 316.887C439.285 317.261 439.266 317.65 439.323 318.032C439.577 318.826 440.455 319.228 440.9 319.926C442.011 321.64 440.159 323.724 438.509 324.888Z" fill="#4892B5"/>
<path d="M438.35 325.226L444.465 328.094C444.509 328.118 444.559 328.132 444.609 328.134C444.659 328.137 444.71 328.128 444.756 328.109C444.803 328.09 444.845 328.06 444.879 328.023C444.913 327.985 444.937 327.941 444.952 327.893C449.133 317.656 452.359 307.056 454.59 296.226C454.61 296.156 454.605 296.082 454.578 296.015C454.55 295.947 454.501 295.891 454.438 295.855C454.375 295.818 454.302 295.804 454.23 295.814C454.158 295.824 454.091 295.857 454.04 295.909L451.628 298.406L452.146 298.48C451.088 296.861 449.332 298.871 448.729 299.898C446.92 302.977 445.163 306.087 443.375 309.176L440.762 313.705C440.127 314.816 439.08 316.085 438.953 317.408C438.826 318.73 439.757 319.079 440.413 319.915C441.82 321.682 439.715 323.639 438.35 324.655C438.011 324.909 438.35 325.48 438.678 325.226C439.99 324.264 441.704 322.751 441.566 320.931C441.436 320.153 441.021 319.452 440.402 318.963C440.149 318.754 439.928 318.508 439.746 318.233C439.323 317.397 439.905 316.53 440.297 315.852C440.688 315.175 441.08 314.488 441.471 313.81L445.904 306.119L448.253 302.046C448.538 301.538 450.633 297.411 451.575 298.808C451.6 298.852 451.636 298.889 451.678 298.917C451.72 298.945 451.768 298.962 451.818 298.968C451.869 298.974 451.919 298.969 451.967 298.952C452.015 298.935 452.058 298.908 452.093 298.871L454.506 296.375L453.955 296.057C451.723 306.883 448.496 317.48 444.317 327.713L444.793 327.522L438.678 324.655C438.297 324.422 437.958 324.994 438.35 325.226Z" fill="#4892B5"/>
<path d="M405.647 141.673C403.193 141.61 400.643 139.885 400.357 137.441C402.048 137.71 403.78 137.391 405.263 136.535C406.746 135.68 407.89 134.342 408.504 132.744C401.161 130.956 393.542 130.597 386.064 131.686L380.403 134.86C375.177 140.377 369.555 145.504 363.581 150.201C364.999 154.547 366.894 158.724 369.231 162.654C374.84 159.431 380.707 156.682 386.772 154.433L389.333 157.723C378.903 159.357 368.842 162.817 359.613 167.944C358 166.782 356.701 165.236 355.834 163.446C354.968 161.656 354.561 159.678 354.651 157.692C354.798 156.78 354.74 155.848 354.482 154.962C353.731 153.184 351.181 153.047 349.584 154.073C347.986 155.099 346.991 156.845 345.732 158.305C344.082 160.188 341.892 161.617 340.686 163.817C339.48 166.018 339.903 169.509 342.283 170.165C344.156 170.716 345.965 169.256 347.764 168.473C349.562 167.69 352.44 168.356 352.25 170.345C351.075 171.922 349.901 173.519 348.716 175.085L353.816 182.608C352.413 183.71 350.655 184.262 348.874 184.158C347.093 184.055 345.411 183.304 344.145 182.047C342.114 184.512 339.998 187.125 339.384 190.299C338.771 193.473 340.262 197.314 343.32 198.107C353.609 194.232 362.698 187.719 369.675 179.222C371.389 179.222 371.981 181.676 371.474 183.348C370.966 185.02 369.918 186.713 370.416 188.405C370.913 190.098 372.352 190.934 373.759 191.706C378.605 194.383 385.111 196.869 389.068 192.955C387.513 190.856 385.634 189.017 383.503 187.506C384.286 184.681 387.672 183.338 390.475 183.898C393.279 184.459 395.628 186.363 397.881 188.226L407.922 196.69C410.239 198.626 412.799 201.683 411.339 204.36L415.137 201.779L411.339 204.36L402.992 210.824C391.418 207.274 380.383 202.158 370.193 195.621C368.893 194.638 367.401 193.938 365.813 193.568C364.191 193.438 362.563 193.726 361.084 194.404C344.685 200.625 334.264 216.781 324.974 231.963C323.514 234.354 322.012 236.862 321.8 239.666C321.589 242.469 322.499 245.019 323.536 247.527C326.333 254.35 329.882 260.84 334.116 266.877C334.787 268.046 335.783 268.994 336.983 269.607C338.258 269.998 339.622 269.998 340.897 269.607C345.676 268.531 350.298 266.85 354.651 264.603C358.513 262.614 362.375 260.127 366.692 260.075C371.008 260.022 375.695 263.809 374.732 268.126C374.224 270.358 372.384 272.072 371.855 274.305C371.593 276.082 371.76 277.895 372.341 279.595C374.803 289.138 377.272 298.685 379.747 308.235C381.195 313.219 382.2 318.32 382.752 323.481C383.471 332.802 381.694 343.583 388.042 350.269C388.455 350.79 389.027 351.162 389.671 351.327C390.543 351.361 391.397 351.066 392.062 350.502L410.048 338.631C413.656 336.251 417.455 333.627 419.063 329.554C420.671 325.48 418.671 319.704 414.407 319.249C418.237 315.757 422.12 312.192 424.681 307.611C427.241 303.029 428.299 297.316 426.162 292.545C425.315 290.651 423.961 288.842 424.046 286.757C424.296 285.078 425.032 283.507 426.162 282.24L442.413 260.635C444.381 258.011 446.444 255.091 446.296 251.79C446.148 248.489 442.381 245.379 439.694 247.22C438.371 248.13 437.472 250.055 435.874 249.96C434.948 249.771 434.134 249.224 433.61 248.436C427.132 241.015 421.101 233.214 415.55 225.076C414.344 223.309 413.096 221.235 413.572 219.119C414.238 216.136 418.153 215.025 420.904 216.22C423.654 217.416 425.453 220.124 427.104 222.674C430.383 227.788 433.67 232.891 436.964 237.983C437.959 239.528 439.26 241.253 441.069 241.231C442.09 241.118 443.058 240.718 443.862 240.078L453.014 234.058C454.95 232.789 456.992 231.392 457.838 229.202C458.685 227.012 457.595 223.912 455.31 223.722C451.787 225.086 447.703 223.817 444.73 221.447C441.757 219.077 439.673 215.765 437.641 212.517C449.349 216.176 460.834 220.514 472.037 225.51C465.267 189.948 445.693 158.102 417.021 136.002C415.56 137.192 414.03 138.294 412.44 139.303C410.429 140.573 408.112 141.747 405.647 141.673Z" fill="#4892B5"/>
<path d="M405.647 141.345C404.48 141.345 403.348 140.941 402.444 140.203C401.54 139.464 400.919 138.437 400.685 137.293L400.283 137.706C402.056 137.982 403.871 137.643 405.426 136.747C406.98 135.85 408.182 134.449 408.831 132.775C408.843 132.734 408.845 132.69 408.84 132.648C408.834 132.605 408.82 132.564 408.798 132.526C408.777 132.489 408.748 132.456 408.714 132.43C408.679 132.404 408.64 132.384 408.599 132.373C404.496 131.384 400.301 130.824 396.082 130.702C393.908 130.647 391.732 130.714 389.565 130.903C388.264 130.881 386.968 131.067 385.725 131.453C384.042 132.183 382.455 133.262 380.847 134.151C380.027 134.694 379.292 135.358 378.668 136.119C377.201 137.621 375.702 139.099 374.171 140.552C370.715 143.818 367.111 146.928 363.358 149.883C363.317 149.924 363.287 149.974 363.272 150.03C363.257 150.086 363.258 150.145 363.274 150.201C364.711 154.572 366.616 158.775 368.955 162.738C368.977 162.776 369.006 162.809 369.041 162.836C369.076 162.862 369.116 162.881 369.158 162.892C369.201 162.903 369.245 162.905 369.288 162.899C369.331 162.892 369.373 162.877 369.41 162.855C372.648 161.003 375.97 159.289 379.366 157.755C381.154 156.94 382.953 156.179 384.783 155.47C385.767 155.078 386.391 154.56 387.185 155.406C387.978 156.253 388.475 157.067 389.11 157.871L389.258 157.321C382.164 158.437 375.227 160.394 368.595 163.151C367.093 163.771 365.608 164.438 364.141 165.15C363.422 165.489 362.702 165.849 362.025 166.208C361.348 166.568 360.089 167.573 359.264 167.139C357.995 166.226 356.991 164.992 356.354 163.563C355.541 162.027 355.082 160.328 355.011 158.591C355.011 157.321 355.349 155.914 354.81 154.697C354.591 154.25 354.264 153.865 353.857 153.578C353.45 153.291 352.977 153.112 352.482 153.057C349.964 152.677 348.25 154.539 346.832 156.348C345.901 157.552 344.879 158.684 343.775 159.733C342.697 160.656 341.724 161.696 340.876 162.833C340.222 163.721 339.835 164.777 339.76 165.877C339.685 166.977 339.925 168.076 340.453 169.044C342.071 171.573 344.928 170.229 347.002 169.16C348.187 168.547 350.948 167.69 351.794 169.404C352.239 170.324 351.064 171.371 350.535 172.08L348.483 174.842C348.45 174.892 348.432 174.951 348.432 175.011C348.432 175.071 348.45 175.13 348.483 175.18L351.308 179.359L352.725 181.475C353.011 181.899 353.434 182.205 353.117 182.703C352.979 182.914 352.45 183.084 352.228 183.179C350.934 183.751 349.498 183.922 348.106 183.669C346.714 183.417 345.43 182.752 344.42 181.761C344.39 181.73 344.353 181.706 344.313 181.689C344.273 181.673 344.231 181.664 344.187 181.664C344.144 181.664 344.101 181.673 344.061 181.689C344.021 181.706 343.985 181.73 343.955 181.761C340.781 185.644 336.887 191.082 340.23 196.097C340.8 196.981 341.612 197.682 342.569 198.118C343.722 198.615 344.759 197.874 345.848 197.42C348.648 196.243 351.357 194.86 353.953 193.283C359.284 190.053 364.107 186.053 368.268 181.412C368.733 180.894 369.537 179.444 370.384 179.709C371.23 179.973 371.325 181.137 371.378 181.74C371.516 183.327 370.585 184.702 370.193 186.194C369.505 188.86 371.103 190.553 373.282 191.802C377.864 194.425 384.793 197.441 389.322 193.188C389.365 193.129 389.388 193.059 389.388 192.987C389.388 192.914 389.365 192.844 389.322 192.785C388.25 191.343 387.03 190.017 385.682 188.829C385.397 188.575 383.947 187.718 383.894 187.263C383.82 186.586 385.026 185.549 385.513 185.147C388.602 182.957 392.337 184.427 395.035 186.406C398.431 188.85 401.552 191.759 404.758 194.447C407.244 196.563 412.82 200.139 410.937 204.074C410.799 204.349 411.085 204.73 411.381 204.529L415.19 201.948C415.539 201.715 415.19 201.144 414.851 201.376C412.016 203.302 409.318 205.302 406.61 207.407L403.15 210.084C402.579 210.528 402.758 210.433 402.092 210.084C400.695 209.428 399.045 209.1 397.585 208.581C391.32 206.359 385.233 203.664 379.377 200.52C376.555 199.017 373.804 197.413 371.124 195.706C368.818 194.246 366.628 192.701 363.718 193.145C361.041 193.715 358.475 194.719 356.122 196.118C353.785 197.361 351.558 198.802 349.467 200.424C345.238 203.755 341.417 207.573 338.083 211.798C334.725 216.032 331.603 220.447 328.73 225.023C327.175 227.477 325.641 229.932 324.149 232.429C322.752 234.756 321.43 237.243 321.313 240.015C321.208 242.967 322.371 245.792 323.503 248.479C324.752 251.431 326.148 254.33 327.735 257.144C329.295 260.052 331.005 262.877 332.856 265.608C334.189 267.586 335.596 269.988 338.231 270.157C339.559 270.162 340.88 269.959 342.145 269.554C343.806 269.142 345.446 268.666 347.055 268.105C349.965 267.081 352.795 265.84 355.519 264.391C360.576 261.714 367.252 257.863 372.351 262.614C374.785 264.878 374.817 267.671 373.219 270.443C372.581 271.424 372.043 272.466 371.611 273.553C371.206 274.897 371.158 276.323 371.473 277.69C372.097 281.086 373.166 284.451 374.034 287.794L376.732 298.279C378.467 304.987 380.477 311.705 381.662 318.529C382.667 324.327 382.35 330.167 382.72 335.997C383.016 340.906 383.926 346.016 387.206 349.867C387.766 350.696 388.596 351.305 389.555 351.592C390.856 351.793 392.03 350.809 393.035 350.142L401.827 344.355C404.79 342.408 407.742 340.472 410.693 338.515C412.984 337.11 415.079 335.41 416.925 333.458C419.761 330.284 420.998 325.724 418.703 321.82C418.27 321.035 417.664 320.361 416.931 319.847C416.197 319.334 415.355 318.995 414.471 318.857L414.619 319.407C420.036 314.456 425.791 309.028 427.315 301.506C428 298.301 427.629 294.96 426.257 291.984C425.368 290.111 423.982 288.175 424.5 285.996C424.945 284.07 426.447 282.462 427.6 280.928C432.89 273.924 438.18 266.994 443.396 259.916C445.216 257.419 447.226 254.256 446.57 250.997C446.137 248.733 444.074 246.426 441.651 246.331C441.104 246.327 440.564 246.439 440.064 246.66C439.564 246.881 439.117 247.205 438.752 247.611C438.265 248.077 437.852 248.616 437.334 249.04C436.096 250.045 434.953 249.368 434.022 248.341C431.176 245.167 428.521 241.877 425.897 238.555C423.273 235.233 420.607 231.572 418.025 227.975C416.079 225.224 411.286 219.733 415.539 216.919C418.83 214.728 422.469 216.919 424.627 219.627C427.152 223.029 429.497 226.56 431.652 230.207L435.176 235.666C436.033 237.181 437.021 238.618 438.127 239.962C438.532 240.47 439.056 240.872 439.651 241.132C440.247 241.392 440.897 241.502 441.545 241.454C443.195 241.221 444.719 239.888 446.031 238.999L451.702 235.275C453.181 234.373 454.595 233.369 455.934 232.27C457.912 230.525 459.224 227.911 457.986 225.34C457.788 224.859 457.48 224.43 457.087 224.088C456.694 223.746 456.227 223.501 455.722 223.372C455.081 223.378 454.447 223.5 453.85 223.732C452.755 223.933 451.633 223.933 450.538 223.732C446.475 223.002 443.386 220.103 441.016 216.908C439.958 215.427 438.9 213.85 437.958 212.284L437.588 212.771C449.288 216.447 460.768 220.789 471.973 225.774C472.03 225.803 472.094 225.816 472.158 225.811C472.222 225.805 472.282 225.781 472.333 225.743C472.384 225.704 472.423 225.651 472.446 225.591C472.468 225.532 472.473 225.466 472.46 225.404C469.765 211.373 465.08 197.8 458.547 185.094C452.157 172.709 444.054 161.287 434.477 151.164C429.161 145.555 423.413 140.372 417.285 135.664C417.228 135.622 417.16 135.599 417.089 135.599C417.019 135.599 416.95 135.622 416.893 135.664C413.719 138.182 409.9 141.292 405.7 141.292C405.622 141.306 405.551 141.347 405.5 141.408C405.449 141.469 405.421 141.546 405.421 141.626C405.421 141.705 405.449 141.782 405.5 141.843C405.551 141.904 405.622 141.945 405.7 141.959C409.678 141.959 413.233 139.335 416.28 137.008C416.862 136.563 417.052 136.32 417.719 136.754C418.108 137.022 418.483 137.311 418.84 137.621L421.041 139.409C422.501 140.615 423.933 141.846 425.336 143.102C431.049 148.2 436.355 153.736 441.206 159.659C451.061 171.746 458.942 185.315 464.557 199.864C467.783 208.182 470.262 216.772 471.963 225.531L472.449 225.15C461.216 220.158 449.707 215.809 437.979 212.126C437.917 212.112 437.853 212.115 437.792 212.136C437.732 212.157 437.679 212.195 437.64 212.244C437.6 212.294 437.575 212.354 437.568 212.417C437.56 212.48 437.571 212.544 437.598 212.602C440.995 218.029 445.481 224.748 452.728 224.536C454.294 224.536 455.902 223.478 457.108 224.832C457.683 225.574 458.006 226.48 458.031 227.418C458.055 228.356 457.78 229.277 457.246 230.048C456.132 231.544 454.715 232.788 453.088 233.698L447.427 237.423L444.814 239.147C443.984 239.8 443.06 240.325 442.074 240.702C439.746 241.358 438.276 238.957 437.218 237.306C434.855 233.667 432.503 230.024 430.161 226.377C427.347 221.997 423.252 213.353 416.608 215.712C415.462 216.072 414.502 216.865 413.932 217.922C413.363 218.98 413.23 220.218 413.561 221.373C414.121 223.05 414.974 224.615 416.079 225.996C417.306 227.781 418.562 229.544 419.845 231.286C422.215 234.545 424.684 237.751 427.251 240.903C428.5 242.462 429.769 244.007 431.06 245.538C432.213 246.892 433.388 248.775 434.922 249.77C437.726 251.547 438.879 247.421 441.27 246.976C442.973 246.648 444.624 247.939 445.502 249.293C445.981 250.15 446.256 251.106 446.303 252.086C446.351 253.066 446.171 254.044 445.777 254.943C444.423 258.657 441.376 261.852 439.037 264.962C436.435 268.426 433.829 271.889 431.219 275.352L426.849 281.171C425.717 282.673 424.363 284.25 424.067 286.176C423.955 287.785 424.355 289.388 425.209 290.757C426.309 292.693 426.993 294.837 427.22 297.052C427.854 306.32 420.713 313.186 414.449 318.91C414.291 319.069 414.354 319.429 414.597 319.46C419.887 320.19 420.459 327.173 418.258 330.918C416.626 333.331 414.489 335.36 411.995 336.864C409.456 338.642 406.832 340.292 404.24 341.996L395.892 347.508C394.57 348.376 393.258 349.264 391.935 350.111C390.877 350.809 389.734 351.253 388.581 350.216C388.04 349.705 387.554 349.137 387.132 348.524C384.074 344.292 383.556 339.002 383.386 333.934C383.196 328.432 383.291 323.005 382.328 317.577C381.122 311.081 379.239 304.701 377.599 298.321C375.959 291.942 374.203 285.403 372.595 278.918C372.052 277.29 371.964 275.545 372.341 273.871C372.882 272.529 373.552 271.243 374.341 270.03C374.828 269.205 375.118 268.277 375.186 267.32C375.253 266.364 375.098 265.404 374.732 264.518C372.891 260.339 367.929 259.006 363.813 260C361.194 260.753 358.684 261.841 356.344 263.238C353.483 264.802 350.508 266.149 347.446 267.269C346.035 267.756 344.625 268.189 343.214 268.57C341.635 269.138 339.972 269.439 338.294 269.459C336.485 269.321 335.416 267.988 334.443 266.624C333.47 265.259 332.634 263.979 331.777 262.624C328.396 257.387 325.56 251.818 323.313 246.003C322.16 242.924 321.631 239.824 322.837 236.671C324.006 234.012 325.423 231.469 327.069 229.075C329.873 224.557 332.75 220.093 335.903 215.818C342.05 207.534 349.467 199.789 359.021 195.505C360.307 194.891 361.645 194.391 363.02 194.013C363.943 193.778 364.905 193.731 365.846 193.877C366.788 194.022 367.691 194.356 368.5 194.859C371.156 196.372 373.685 198.118 376.351 199.631C381.565 202.585 386.973 205.183 392.538 207.407C395.359 208.529 398.181 209.551 401.002 210.475C401.637 210.676 402.515 211.195 403.118 210.951C403.382 210.793 403.627 210.605 403.848 210.391L410.715 205.101C412.143 203.99 413.688 202.985 415.19 202.001C415.539 201.768 415.19 201.197 414.851 201.429L411.053 204.011L411.508 204.466C412.947 201.451 410.503 198.552 408.334 196.647C404.896 193.642 401.33 190.765 397.818 187.845C395.342 185.729 392.464 183.412 389.057 183.433C387.769 183.376 386.497 183.732 385.424 184.447C384.351 185.162 383.534 186.2 383.09 187.411C383.075 187.481 383.082 187.555 383.111 187.621C383.139 187.688 383.187 187.743 383.249 187.781C384.594 188.747 385.841 189.842 386.973 191.05C387.269 191.378 388.549 192.479 388.465 192.976C388.38 193.473 386.634 194.129 386.18 194.277C383.503 195.166 380.53 194.373 378.001 193.399C376.683 192.88 375.4 192.276 374.161 191.59C372.785 190.849 371.061 189.961 370.637 188.31C369.939 185.581 372.753 183.232 371.621 180.417C371.511 180.098 371.334 179.805 371.103 179.559C370.871 179.313 370.59 179.119 370.278 178.989C369.22 178.598 368.627 179.91 367.992 180.629C365.981 182.897 363.81 185.019 361.496 186.977C356.801 190.954 351.542 194.213 345.891 196.647C345.086 197.102 344.215 197.427 343.309 197.61C342.912 197.565 342.529 197.442 342.18 197.248C341.831 197.053 341.525 196.792 341.278 196.478C340.179 195.239 339.56 193.648 339.532 191.992C339.395 188.204 342.061 184.977 344.325 182.227H343.859C345.194 183.532 346.956 184.31 348.82 184.415C350.684 184.52 352.523 183.945 353.995 182.798C354.038 182.74 354.061 182.669 354.061 182.597C354.061 182.525 354.038 182.454 353.995 182.396L351.731 179.053C350.818 177.945 350.011 176.755 349.319 175.498C348.917 174.514 350.377 173.223 350.959 172.44C351.541 171.657 352.503 170.874 352.482 169.964C352.482 168.621 351.001 167.944 349.848 167.848C348.049 167.647 346.674 168.621 345.171 169.351C343.87 169.954 342.283 170.313 341.172 169.16C340.822 168.737 340.562 168.246 340.407 167.719C340.252 167.191 340.207 166.638 340.273 166.092C340.41 163.659 342.272 161.966 343.933 160.411C345.595 158.855 346.864 156.94 348.462 155.3C349.204 154.462 350.22 153.915 351.329 153.756C351.694 153.682 352.072 153.692 352.433 153.785C352.794 153.878 353.129 154.052 353.413 154.293C353.697 154.535 353.923 154.837 354.073 155.179C354.224 155.52 354.294 155.891 354.281 156.263C354.222 157.419 354.222 158.577 354.281 159.733C354.419 160.824 354.7 161.891 355.117 162.907C356.012 165.027 357.477 166.858 359.349 168.197C359.4 168.226 359.459 168.241 359.518 168.241C359.577 168.241 359.635 168.226 359.687 168.197C368.897 163.11 378.921 159.662 389.311 158.009C389.586 158.009 389.597 157.628 389.459 157.459L386.899 154.168C386.859 154.127 386.808 154.097 386.752 154.082C386.696 154.067 386.637 154.068 386.582 154.084C380.49 156.351 374.595 159.115 368.955 162.347L369.41 162.463C368.21 160.428 367.119 158.33 366.141 156.179C365.644 155.057 365.168 153.914 364.734 152.761C364.543 152.243 364.353 151.703 364.173 151.206C363.877 150.36 363.993 150.148 364.66 149.651C368.384 146.681 371.964 143.539 375.399 140.224C376.277 139.388 377.144 138.531 377.991 137.674C378.759 136.761 379.59 135.902 380.477 135.103C381.197 134.64 381.946 134.223 382.72 133.855C383.704 133.315 384.667 132.733 385.661 132.225C387.206 131.453 389.491 131.58 391.205 131.485C396.95 131.182 402.709 131.713 408.302 133.061L408.08 132.659C407.482 134.167 406.391 135.428 404.985 136.237C403.578 137.045 401.94 137.354 400.336 137.113C400.279 137.101 400.221 137.103 400.165 137.119C400.11 137.136 400.06 137.166 400.02 137.207C399.979 137.249 399.95 137.3 399.935 137.356C399.92 137.411 399.92 137.47 399.934 137.526C400.357 140.256 402.907 141.896 405.53 142.065C406.091 142.033 406.091 141.377 405.647 141.345Z" fill="#4892B5"/>
<g style="mix-blend-mode:multiply" opacity="0.28">
<path d="M462.97 195.335C464.895 203.006 466.408 210.75 467.625 218.4C469.931 232.799 469.529 277.648 453.956 301.982C438.985 325.311 416.142 341.562 391.237 353.01C380.255 358.056 368.331 362.193 350.652 361.474C339.014 361.04 327.217 360.077 316.151 356.438C293.224 348.894 272.095 334.547 255.791 316.434C241.625 300.691 231.955 282.176 228.759 260.932C225.585 240.205 227.098 218.918 231.383 198.509C235.837 177.243 243.571 156.306 255.072 137.96C258.505 132.449 262.338 127.198 266.541 122.248C219.47 146.487 187.19 196.425 187.19 254.097C187.19 335.563 251.591 401.551 331.079 401.551C410.567 401.551 474.967 335.531 474.967 254.097C474.965 233.902 470.884 213.915 462.97 195.335V195.335Z" fill="#3497B5"/>
</g>
<path d="M511.543 337.87H433.462V343.509H511.543V337.87Z" fill="#2E4166"/>
<path d="M467.085 406.058L434.552 343.72H511.321L543.431 406.058" stroke="#2E4166" stroke-width="0.62" stroke-miterlimit="10"/>
<path d="M446.264 365.409H522.599" stroke="#2E4166" stroke-width="0.62" stroke-miterlimit="10"/>
<path d="M459.711 391.436H536.046" stroke="#2E4166" stroke-width="0.62" stroke-miterlimit="10"/>
<path d="M412.207 406.058L434.552 343.72" stroke="#2E4166" stroke-width="0.62" stroke-miterlimit="10"/>
<path d="M491.715 405.709L511.108 343.72" stroke="#2E4166" stroke-width="0.62" stroke-miterlimit="10"/>
<path d="M451.257 140.774L453.785 112.62C453.256 110.938 455.246 104.897 456.6 103.765C460.303 100.644 464.376 100.295 469.222 100.422C469.222 100.422 477.971 100.866 480.489 108.325C483.008 115.784 482.605 123.137 486.266 125.116C490.932 127.665 498.052 138.298 498.052 143.588" fill="#020F2B"/>
<path d="M470.535 115.583C470.544 115.637 470.564 115.69 470.593 115.736C470.623 115.783 470.661 115.824 470.707 115.855C470.752 115.887 470.803 115.909 470.857 115.92C470.912 115.932 470.967 115.932 471.022 115.921C471.974 115.752 473.889 115.244 474.608 117.709C474.767 118.297 474.713 118.922 474.455 119.474C474.198 120.026 473.754 120.469 473.201 120.725C472.386 121.09 471.484 121.218 470.599 121.095C469.89 122.153 469.139 130.871 469.689 131.675C473.064 136.637 474.069 136.764 474.069 136.764C474.069 136.764 454.316 160.178 457.49 140.763C457.49 140.763 457.977 125.57 457.871 125.57C456.453 125.57 451.861 124.936 452.962 114.726C454.02 105.278 460.685 104.728 462.42 104.717C463.838 104.717 468.821 104.104 470.535 115.583Z" fill="#F38697"/>
<path d="M456.484 105.162C456.484 105.162 461.108 116.366 470.831 117.403C470.831 117.36 474.206 93.111 456.484 105.162Z" fill="#020F2B"/>
<path d="M470.684 118.461C472.556 114.8 473.688 117.911 473.688 117.911L470.684 118.461Z" fill="#D65A6F"/>
<path d="M461.52 116.662C460.92 116.758 460.383 117.089 460.026 117.58C459.669 118.072 459.521 118.686 459.616 119.286C459.662 119.583 459.767 119.867 459.923 120.124C460.08 120.38 460.285 120.603 460.528 120.78C460.77 120.957 461.046 121.084 461.338 121.154C461.629 121.225 461.932 121.237 462.229 121.19C462.829 121.094 463.367 120.764 463.724 120.272C464.081 119.78 464.228 119.167 464.134 118.567C464.087 118.27 463.983 117.985 463.826 117.729C463.67 117.473 463.464 117.25 463.222 117.073C462.979 116.896 462.704 116.769 462.412 116.698C462.12 116.628 461.817 116.615 461.52 116.662V116.662Z" fill="#F3687E"/>
<path d="M453.173 120.608C453.666 120.424 454.08 120.075 454.344 119.619C454.609 119.164 454.707 118.631 454.622 118.112C454.495 117.265 453.564 116.683 452.845 116.408C452.647 117.815 452.759 119.249 453.173 120.608V120.608Z" fill="#F3687E"/>
<path d="M454.939 119.138L458.833 119.339C458.833 119.339 457.775 121.159 456.643 120.905C455.511 120.651 454.939 119.138 454.939 119.138Z" fill="white"/>
<path d="M457.066 115.266V118.249L455.744 118.154C455.689 118.148 455.636 118.128 455.591 118.096C455.546 118.064 455.51 118.022 455.486 117.972C455.461 117.922 455.45 117.868 455.453 117.812C455.455 117.757 455.472 117.704 455.5 117.657L457.066 115.266Z" fill="#DE647E"/>
<path d="M460.663 113.329C461.086 113.636 460.43 112.271 459.848 112.144C459.591 112.065 459.314 112.086 459.072 112.204C458.83 112.322 458.642 112.528 458.547 112.779C459.295 112.712 460.043 112.906 460.663 113.329V113.329Z" fill="black"/>
<path d="M453.617 113.192C453.194 113.499 453.839 112.134 454.421 111.996C454.676 111.916 454.953 111.936 455.194 112.052C455.436 112.168 455.625 112.371 455.722 112.621C454.975 112.556 454.229 112.759 453.617 113.192Z" fill="black"/>
<path d="M459.373 115.742C459.373 116.197 459.161 116.556 458.939 116.546C458.717 116.535 458.558 116.165 458.579 115.71C458.6 115.255 458.791 114.906 459.013 114.916C459.235 114.927 459.383 115.287 459.373 115.742Z" fill="black"/>
<path d="M455.807 115.371C455.807 115.795 455.606 116.144 455.394 116.133C455.183 116.122 455.035 115.763 455.056 115.34C455.077 114.916 455.257 114.567 455.458 114.578C455.659 114.588 455.828 114.938 455.807 115.371Z" fill="black"/>
<path d="M460.663 318.074L458.822 333.944C458.822 333.944 454.505 338.695 452.241 335.933C451.109 334.547 447.501 332.971 446.951 332.156C448.189 331.469 451.183 329.48 451.183 329.48L450.495 317.746L460.663 318.074Z" fill="#F38697"/>
<path d="M454.78 318.476L454.96 321.809C454.96 321.809 458.864 334.632 459.192 333.13L460.441 319.259L454.78 318.476Z" fill="#B85369"/>
<path d="M451.299 329.215L440.455 336.293C439.989 336.632 440.158 338.028 440.825 338.039L457.531 337.975L458.473 335.214L459.88 338.018C460.292 337.991 460.702 337.938 461.107 337.859C461.17 337.563 460.747 331.204 459.615 329.395C459.488 329.194 456.282 330.897 454.325 331.447C453.341 331.056 451.617 328.982 451.299 329.215Z" fill="#D3296E"/>
<path d="M502.984 318.307L506.783 332.505C506.783 332.505 502.254 338.705 499.99 335.944C498.858 334.558 495.25 332.981 494.7 332.167C495.938 331.479 498.932 329.49 498.932 329.49L494.7 318.095L502.984 318.307Z" fill="#F38697"/>
<path d="M499.809 318.095L500.01 319.333C500.01 319.333 506.601 334.632 506.94 333.087L504.538 318.053L499.809 318.095Z" fill="#B85369"/>
<path d="M498.803 329.215L487.948 336.293C487.493 336.632 487.652 338.028 488.318 338.039L505.024 337.975L505.966 335.214L507.373 338.018C507.789 337.99 508.202 337.937 508.611 337.859C508.611 337.563 507.553 330.971 506.431 329.12C506.315 328.919 503.786 330.855 501.861 331.405C500.866 331.056 499.11 328.982 498.803 329.215Z" fill="#D3296E"/>
<path d="M479.072 175.424C483.069 182.279 486.008 189.698 487.79 197.43C490.551 208.232 511.15 299.591 512.452 319.249C509.045 320.063 492.72 319.947 490.562 319.82C486.446 300.395 469.402 236.534 466.492 224.176C466.048 222.283 463.106 222.695 463.318 224.631C464.979 238.745 469.55 301.633 471.2 323.026C469.412 323.936 451.32 323.735 449.268 323.481C447.025 299.284 434.519 204.508 452.442 174.81C460.726 173.689 470.745 175.17 479.072 175.424Z" fill="#040C2B"/>
<path d="M453.49 175.604C448.757 190.514 446.321 206.057 446.264 221.701C446.264 247.262 454.643 312.001 454.643 312.001" stroke="white" stroke-width="0.3" stroke-miterlimit="10"/>
<path d="M504.243 312.001L475.021 177.212" stroke="white" stroke-width="0.3" stroke-miterlimit="10"/>
<path d="M469.9 177.921C469.9 177.921 469.487 201.842 479.993 200.001" stroke="white" stroke-width="0.3" stroke-miterlimit="10"/>
<g style="mix-blend-mode:multiply" opacity="0.21">
<path d="M451.257 177.603L489.609 204.455C489.609 204.455 486.435 189.58 480.458 178.301L451.257 177.603Z" fill="black"/>
</g>
<path d="M448.105 200.562C458.611 202.403 457.12 176.778 457.12 176.778" stroke="white" stroke-width="0.3" stroke-miterlimit="10"/>
<path d="M468.355 135.452C468.355 135.452 470.471 134.828 470.143 135.283C469.582 135.853 468.949 136.347 468.26 136.753L468.355 135.452Z" fill="#E20000"/>
<path d="M470.397 312.139L447.682 312.15" stroke="white" stroke-width="0.3" stroke-miterlimit="10"/>
<path d="M511.257 311.885L489.335 311.927" stroke="white" stroke-width="0.3" stroke-miterlimit="10"/>
<path d="M459.15 139.018C458.176 138.161 427.727 140.245 427.727 140.245L408.556 118.302C408.556 116.696 408.418 115.092 408.144 113.509C407.977 112.216 408.096 110.901 408.493 109.658C408.511 109.596 408.513 109.529 408.498 109.465C408.483 109.402 408.451 109.344 408.406 109.296C408.361 109.249 408.304 109.214 408.241 109.196C408.178 109.178 408.112 109.177 408.048 109.193C407.728 109.273 407.438 109.443 407.211 109.683C406.984 109.923 406.831 110.223 406.768 110.547C406.546 111.499 405.869 112.864 405.71 113.626C405.705 113.666 405.69 113.705 405.665 113.737C405.641 113.77 405.608 113.796 405.571 113.812C405.533 113.828 405.492 113.834 405.452 113.829C405.411 113.824 405.373 113.809 405.34 113.784C404.589 113.361 404.282 112.843 403.372 111.838C402.606 110.921 401.952 109.916 401.425 108.843C400.632 107.204 399.553 104.929 398.981 105.669C398.579 106.156 399.933 109.499 400.187 109.986C400.642 110.953 400.996 111.963 401.245 113.001C401.245 113.319 399.288 110.885 398.484 109.341C397.68 107.796 396.96 106.294 396.431 106.283C395.902 106.273 396.431 107.743 396.431 107.743C396.431 107.743 395.532 106.791 395.215 107.087C394.897 107.383 395.733 109.658 396.273 111.224C395.003 110.018 394.887 110.78 394.887 110.78C394.887 110.78 396.601 114.536 397.532 115.318C398.253 116.062 398.856 116.911 399.32 117.837C400.725 119.865 402.451 121.652 404.43 123.127C406.313 126.554 421.221 154.496 424.32 154.2C451.744 151.523 466.609 145.599 459.15 139.018Z" fill="#F38697"/>
<path d="M459.15 139.018C457.944 137.23 427.727 140.245 427.727 140.245L410.799 120.905C409.529 122.111 408.323 123.391 407.011 124.534C406.62 124.872 405.223 125.93 404.821 126.258C409.053 134.003 421.654 153.883 424.352 154.105C468.862 157.914 464.704 147.281 459.15 139.018Z" fill="#39D192"/>
<path d="M396.326 111.065C397.278 112.494 398.442 113.086 399.426 114.239L399.003 114.176C399.726 113.729 400.492 113.353 401.288 113.054C400.645 113.733 399.936 114.346 399.172 114.885C398.167 113.71 396.633 112.684 396.369 111.012L396.326 111.065Z" fill="#C45366"/>
<path d="M405.647 118.154C405.262 117.574 405.073 116.887 405.107 116.192C405.142 115.497 405.397 114.831 405.837 114.292C405.837 115.668 405.731 116.779 405.647 118.154Z" fill="#C45366"/>
<path d="M396.527 107.912C397.469 109.944 399.077 111.372 399.892 113.467C398.347 111.965 396.57 110.219 396.527 107.912Z" fill="#C45366"/>
<path d="M457.49 135.008C457.723 135.59 447.799 154.592 448.084 160.273C448.37 165.954 450.983 177.719 450.983 177.719C450.983 177.719 476.788 178.777 480.607 178.651C482.459 161.722 484.374 143.271 479.845 140.562C479.845 140.562 471.72 133.156 469.646 132.998L462.526 138.108C459.775 140.573 457.627 138.859 457.458 135.167L457.49 135.008Z" fill="#39D192"/>
<g style="mix-blend-mode:multiply" opacity="0.21">
<path d="M479.951 140.615C478.544 144.191 477.306 147.873 475.613 151.333C473.255 156.07 470.49 160.594 467.35 164.854C464.07 169.361 460.536 173.667 456.981 177.952C464.853 178.259 478.015 178.735 480.691 178.651C482.543 161.807 484.458 143.334 479.951 140.615Z" fill="black"/>
</g>
<path d="M460.336 139.251C460.336 139.251 457.691 147.397 463.415 144.974C469.138 142.552 473.772 135.146 473.772 135.146L469.54 130.395C469.54 130.395 464.081 138.806 460.336 139.251Z" fill="#0C824C"/>
<path d="M460.335 139.251C460.335 139.251 457.034 145.599 455.489 144.541C453.945 143.483 454.78 136.214 454.78 136.214L457.679 132.955C457.679 132.955 458.356 139.018 460.335 139.251Z" fill="#0C824C"/>
<path d="M479.58 108.24C480.178 111.604 481.191 114.881 482.595 117.995C483.222 119.455 484.029 120.83 484.997 122.09C485.887 123.098 486.916 123.975 488.054 124.692C491.387 127.062 494.582 129.718 496.518 133.41C498.086 136.534 499.238 139.849 499.946 143.271C500.01 143.557 500.465 143.44 500.401 143.144C499.702 139.933 498.637 136.812 497.227 133.844C495.514 130.536 493.032 127.688 489.99 125.539C488.639 124.651 487.342 123.683 486.108 122.64C484.931 121.399 483.972 119.968 483.272 118.408C481.724 115.136 480.627 111.67 480.014 108.103C480.014 107.807 479.506 107.934 479.559 108.23L479.58 108.24Z" fill="black"/>
<path d="M457.627 125.846L461.436 125.75L457.944 131.813L457.627 125.846Z" fill="#D65A6F"/>
<path d="M494.689 167.097C502.486 164.346 510.908 164.59 516.187 163.267C518.203 161.809 520.325 160.504 522.536 159.363C522.536 159.363 525.71 157.247 525.466 158.686C525.466 158.982 522.028 162.421 522.292 162.4C522.557 162.378 531.507 161.405 531.603 162.241C531.698 163.077 526.069 163.108 526.122 163.521C526.175 163.934 531.825 163.204 532.132 163.891C532.439 164.579 526.641 165.172 526.842 165.436C527.043 165.701 532.301 164.854 532.47 165.436C532.639 166.018 526.99 166.716 526.916 167.002C526.842 167.288 532.058 166.452 532.555 167.002C533.052 167.552 527.931 168.134 526.482 168.748C523.474 170.023 520.367 171.053 517.193 171.826C515.077 173.17 493.081 182.248 483.548 180.29C483.548 180.29 481.94 177.942 481.21 171.826L494.689 167.097Z" fill="#F38697"/>
<path d="M513.352 162.939C507.692 163.997 500.857 163.733 494.657 165.785C492.986 159.881 485.908 137.06 477.507 139.145C467.858 141.525 483.104 181.232 483.104 181.232C491.293 182.872 509.226 175.466 515.32 172.768C514.622 169.763 514.315 165.849 513.352 162.939Z" fill="#39D192"/>
<path d="M389.459 116.429C384.593 114.313 377.451 111.266 373.748 109.658L369.368 105.109L364.713 115.869L371.463 115.731V115.646C375.695 117.477 383.101 120.672 386.91 122.301L389.459 116.429Z" fill="#040C2B"/>
<path d="M406.578 116.736L388.497 126.681L379.821 103.606L391.544 97.1737L406.578 116.736Z" fill="#040C2B"/>
<path d="M402.05 114.821L400.992 112.959L402.695 112.017C403.131 111.778 403.516 111.456 403.828 111.068C404.14 110.68 404.372 110.235 404.511 109.758C404.651 109.28 404.695 108.78 404.641 108.285C404.587 107.791 404.436 107.312 404.197 106.875L400.96 100.982C400.723 100.545 400.4 100.159 400.011 99.8485C399.622 99.5378 399.175 99.3082 398.696 99.1732C398.217 99.0323 397.716 98.9877 397.22 99.0422C396.724 99.0966 396.244 99.2491 395.807 99.4906L393.48 100.771L392.422 98.9087L394.749 97.6391C395.426 97.2617 396.172 97.0232 396.942 96.9378C397.713 96.8524 398.492 96.9218 399.235 97.1418C399.983 97.3529 400.681 97.7116 401.288 98.1968C401.895 98.682 402.399 99.2838 402.769 99.9667L406.007 105.849C406.757 107.224 406.933 108.84 406.497 110.344C406.061 111.848 405.048 113.119 403.679 113.879L402.05 114.821Z" fill="#040C2B"/>
</svg>
