<svg width="510" height="484" viewBox="0 0 510 484" fill="none" xmlns="http://www.w3.org/2000/svg">
<g clip-path="url(#clip0_67_66)">
<path d="M347.972 23.134C347.972 23.134 265.8 -6.04462 185.165 40.4151C104.53 86.8749 63.8278 179.101 28.878 253.002C-6.07174 326.903 14.0444 402.04 75.6094 436.304C137.174 470.567 179.039 420.035 265.405 417.594C351.771 415.153 374.993 427.498 446.664 378.735C518.335 329.973 531.28 214.89 474.752 129.721C418.224 44.5515 347.972 23.134 347.972 23.134Z" fill="#D4F5E5"/>
<path d="M130.152 10.6606V162.044H393.743V10.6606H130.152ZM384.459 153.515H139.437V19.1893H384.459V153.515Z" fill="#B2B2B2" stroke="#B2B2B2" stroke-linecap="round" stroke-linejoin="round"/>
<path d="M139.244 78.8901C139.244 78.8901 220.061 37.2064 226.026 47.7925C231.992 58.3787 190.916 85.5104 208.141 95.4356C225.365 105.361 317.44 21.3218 333.981 41.1722C350.522 61.0226 304.175 113.964 318.742 119.923C333.309 125.883 364.449 96.7575 371.033 104.039C377.618 111.32 360.436 140.435 367.725 144.401C375.014 148.366 383.615 141.096 383.615 141.096" stroke="#B2B2B2" stroke-linecap="round" stroke-linejoin="round"/>
<path d="M278.528 45.965C280.814 36.3649 274.877 26.7313 265.267 24.4478C255.657 22.1643 246.014 28.0955 243.728 37.6956C241.442 47.2957 247.379 56.9293 256.989 59.2128C266.599 61.4963 276.242 55.5651 278.528 45.965Z" stroke="#B2B2B2" stroke-linecap="round" stroke-linejoin="round"/>
<path d="M176.074 36.5774C177.372 31.0637 173.949 25.5431 168.43 24.2468C162.911 22.9506 157.384 26.3695 156.087 31.8832C154.789 37.3969 158.212 42.9175 163.731 44.2138C169.25 45.5101 174.777 42.0912 176.074 36.5774Z" stroke="#B2B2B2" stroke-linecap="round" stroke-linejoin="round"/>
<path d="M198.867 108.005C198.876 108.922 198.612 109.821 198.108 110.588C197.605 111.355 196.886 111.956 196.041 112.315C195.196 112.674 194.263 112.774 193.361 112.604C192.459 112.433 191.628 111.999 190.973 111.356C190.318 110.714 189.868 109.892 189.681 108.994C189.493 108.096 189.577 107.163 189.92 106.312C190.264 105.461 190.852 104.732 191.611 104.215C192.369 103.699 193.264 103.418 194.182 103.41C194.792 103.404 195.397 103.519 195.962 103.746C196.527 103.974 197.042 104.311 197.477 104.738C197.912 105.165 198.259 105.673 198.498 106.233C198.736 106.794 198.862 107.396 198.867 108.005V108.005Z" stroke="#B2B2B2" stroke-linecap="round" stroke-linejoin="round"/>
<path d="M363.862 52.0885C363.862 52.9319 363.611 53.7564 363.142 54.4577C362.673 55.1589 362.006 55.7055 361.226 56.0283C360.446 56.351 359.588 56.4355 358.76 56.2709C357.932 56.1064 357.171 55.7002 356.574 55.1039C355.977 54.5075 355.571 53.7477 355.406 52.9205C355.242 52.0933 355.326 51.2359 355.649 50.4567C355.972 49.6775 356.519 49.0115 357.221 48.5429C357.923 48.0743 358.749 47.8242 359.593 47.8242C360.725 47.8242 361.811 48.2735 362.611 49.0732C363.412 49.8729 363.862 50.9576 363.862 52.0885Z" stroke="#B2B2B2" stroke-linecap="round" stroke-linejoin="round"/>
<path d="M298.165 145.811C304.078 142.92 306.525 135.788 303.631 129.881C300.737 123.974 293.597 121.529 287.684 124.42C281.771 127.311 279.324 134.444 282.218 140.351C285.112 146.258 292.252 148.703 298.165 145.811Z" stroke="#B2B2B2" stroke-linecap="round" stroke-linejoin="round"/>
<path d="M13.6279 242H489.585" stroke="#B2B2B2" stroke-linecap="round" stroke-linejoin="round"/>
<path d="M32.293 256.253H489.585" stroke="#B2B2B2" stroke-linecap="round" stroke-linejoin="round"/>
<path d="M13.6279 256.253H23.0297" stroke="#B2B2B2" stroke-linecap="round" stroke-linejoin="round"/>
<path d="M481.997 280.944H333.533C333.458 283.349 332.43 285.627 330.675 287.276C328.92 288.925 326.582 289.811 324.174 289.739V447.06C326.58 446.988 328.917 447.873 330.671 449.52C332.426 451.166 333.455 453.441 333.533 455.845C333.532 456.35 333.482 456.853 333.384 457.348H480.077" stroke="#B2B2B2" stroke-linecap="round" stroke-linejoin="round"/>
<path d="M15.4736 280.944H66.7938C66.8119 282.117 67.0611 283.275 67.5273 284.352C67.9935 285.429 68.6675 286.404 69.5109 287.221C70.3542 288.037 71.3503 288.68 72.4424 289.112C73.5344 289.544 74.701 289.757 75.8754 289.739V447.06C73.5053 447.023 71.2175 447.928 69.5146 449.575C67.8117 451.222 66.8331 453.477 66.7938 455.845C66.7967 456.349 66.8431 456.852 66.9325 457.348H23.7975" stroke="#B2B2B2" stroke-linecap="round" stroke-linejoin="round"/>
<path d="M297.932 280.944H98.4566C98.3786 283.352 97.3468 285.631 95.588 287.28C93.8292 288.929 91.4871 289.814 89.0762 289.739V447.06C91.4854 446.986 93.8259 447.868 95.5844 449.515C97.3429 451.162 98.3758 453.438 98.4566 455.845C98.4555 456.35 98.4055 456.853 98.3072 457.348H298.081C297.988 456.852 297.938 456.349 297.932 455.845C298.01 453.441 299.039 451.166 300.793 449.52C302.548 447.873 304.885 446.988 307.291 447.06V289.739C304.883 289.811 302.545 288.925 300.79 287.276C299.035 285.627 298.007 283.349 297.932 280.944V280.944Z" stroke="#B2B2B2" stroke-linecap="round" stroke-linejoin="round"/>
<path d="M429.418 226.009C429.418 226.009 429.973 295.901 429.973 314.355C429.973 332.809 429.418 443.35 429.418 443.35" stroke="#263238" stroke-width="3" stroke-linecap="round" stroke-linejoin="round"/>
<path d="M471.39 243.898L454.038 229.356L502.733 234.943L459.641 220.966L503.853 213.141H454.038L492.659 184.059L449.001 205.871L474.197 162.812L440.613 201.393L452.363 144.923L430.539 197.48L428.298 138.771L423.816 198.6L399.997 145.744L416.538 203.632L380.916 164.805L412.066 212.576L367.971 181.148L409.26 220.966L362.518 195.444L405.343 224.324L366.605 219.282L404.223 229.911L374.096 234.943L405.343 233.823L386.87 246.126L430.539 234.388L471.39 243.898Z" fill="#39D192"/>
<path d="M471.39 396.336L454.038 381.806L502.733 387.392L459.641 373.416L503.853 365.591H454.038L492.659 336.508L449.001 358.32L474.197 315.261L440.613 353.842L452.363 297.372L430.539 349.93L428.298 291.221L423.816 351.049L399.997 298.193L416.538 356.081L380.916 317.265L412.066 365.026L367.971 333.598L409.26 373.416L362.518 347.894L405.343 376.774L366.605 371.731L404.223 382.36L374.096 387.392L405.343 386.273L386.87 398.575L430.539 386.838L471.39 396.336Z" fill="#39D192"/>
<path d="M412.621 296.455C412.621 296.455 410.945 310.986 412.066 316.583C413.253 323.038 413.814 329.593 413.741 336.156C413.741 343.416 414.307 374.311 414.307 379.343C414.307 384.375 413.741 427.135 413.741 431.048V444.47" stroke="#263238" stroke-width="3" stroke-linecap="round" stroke-linejoin="round"/>
<path d="M414.307 373.757C414.307 373.757 416.548 331.114 418.778 325.527C421.008 319.941 422.705 321.615 423.26 314.866C423.815 308.118 423.815 305.368 424.936 303.14C425.828 301.145 426.577 299.089 427.177 296.988L428.297 292.521" stroke="#263238" stroke-width="3" stroke-linecap="round" stroke-linejoin="round"/>
<path d="M454.038 310.986L436.686 296.455L485.38 302.042L442.288 288.065L486.501 280.24H436.686L475.306 251.158L431.649 272.97L456.844 229.911L423.261 268.492L435.01 212.022L413.186 264.58L410.945 205.871L406.463 265.699L389.111 211.457L399.185 270.731L368.408 226.553L394.714 279.675L354.332 253.322L391.918 288.065L350.245 271.029L387.991 291.423L348.879 288.044L386.87 297.01L360.468 303.022L387.991 300.922L369.518 313.225L413.186 301.487L454.038 310.986Z" fill="#39D192"/>
<path d="M397.297 428.617L385.312 448.574C384.403 450.089 383.807 451.77 383.561 453.519C383.316 455.269 383.425 457.049 383.882 458.755L389.218 478.574C389.595 479.981 390.428 481.224 391.586 482.109C392.744 482.994 394.163 483.472 395.621 483.467H450.196C451.654 483.472 453.073 482.994 454.232 482.109C455.39 481.224 456.222 479.981 456.599 478.574L461.935 458.755C462.396 457.049 462.506 455.268 462.26 453.519C462.015 451.769 461.418 450.087 460.505 448.574L448.531 428.617C448.126 427.95 447.556 427.399 446.876 427.016C446.195 426.633 445.428 426.432 444.647 426.432H401.213C400.426 426.423 399.651 426.621 398.964 427.004C398.277 427.387 397.702 427.943 397.297 428.617Z" fill="#263238" stroke="#263238" stroke-linejoin="round"/>
<path d="M361.002 145.52C361.002 145.52 361.258 133.729 362.069 131.885C362.88 130.04 364.95 127.173 366.53 126.65C368.946 125.928 371.312 125.052 373.616 124.028C375.908 122.133 378.099 120.118 380.179 117.994C380.179 117.994 384.373 116.927 384.64 118.26C384.907 119.593 378.6 125.339 378.6 125.339L381.225 126.405L395.098 126.671L403.23 118.537C403.23 118.537 406.111 116.704 405.855 118.537C405.599 120.371 397.713 130.595 396.934 130.595C396.154 130.595 373.306 138.985 373.306 138.985L370.681 149.208L361.002 145.52Z" fill="white" stroke="#263238" stroke-linecap="round" stroke-linejoin="round"/>
<path d="M385.931 133.729C385.931 133.729 391.438 132.151 392.227 130.84C393.017 129.529 398.79 118.047 399.313 117.205C399.836 116.363 396.432 116.949 395.119 117.205C393.807 117.461 390.125 128.74 390.125 128.74L384.352 130.574L385.931 133.729Z" fill="white" stroke="#263238" stroke-linecap="round" stroke-linejoin="round"/>
<path d="M387.916 131.725C387.916 131.725 393.636 131.373 394.682 130.264C395.728 129.155 403.87 119.134 404.553 118.484C405.236 117.834 401.789 117.599 400.455 117.578C399.121 117.556 393.092 127.759 393.092 127.759L387.052 128.313L387.916 131.725Z" fill="white" stroke="#263238" stroke-linecap="round" stroke-linejoin="round"/>
<path d="M365.719 138.441C365.719 138.441 365.463 133.196 368.867 130.574C372.272 127.951 383.039 127.695 383.039 127.695C383.039 127.695 388.29 117.471 389.602 117.471C390.915 117.471 394.063 116.16 393.807 117.471C393.551 118.783 390.392 124.028 389.08 126.65C387.767 129.273 387.244 132.674 385.931 133.729C384.619 134.785 377.01 136.608 377.01 136.608" fill="white"/>
<path d="M365.719 138.441C365.719 138.441 365.463 133.196 368.867 130.574C372.272 127.951 383.039 127.695 383.039 127.695C383.039 127.695 388.29 117.471 389.602 117.471C390.915 117.471 394.063 116.16 393.807 117.471C393.551 118.783 390.392 124.028 389.08 126.65C387.767 129.273 387.244 132.674 385.931 133.729C384.619 134.785 377.01 136.608 377.01 136.608" stroke="#263238" stroke-linecap="round" stroke-linejoin="round"/>
<path d="M356.797 154.176L359.678 144.475L372.804 146.575L369.656 158.633L356.797 154.176Z" fill="#39D192" stroke="#263238" stroke-linecap="round" stroke-linejoin="round"/>
<path d="M304.101 143.686C304.101 143.686 315.647 146.831 317.75 150.765C319.852 154.699 337.428 183.014 338.485 184.879C339.541 186.745 340.32 188.291 340.32 188.291C340.32 188.291 353.18 157.087 353.703 155.242C354.226 153.398 358.686 152.886 359.999 152.886C361.312 152.886 373.381 153.675 373.872 156.82C374.363 159.965 358.644 219.719 357.075 221.051C355.506 222.384 351.301 222.885 348.676 222.117C346.051 221.35 311.667 203.994 311.667 203.994L304.101 143.686Z" fill="#39D192" stroke="#263238" stroke-linecap="round" stroke-linejoin="round"/>
<path d="M340.267 188.259C338.506 192.542 337.117 196.968 336.115 201.489" stroke="#263238" stroke-linecap="round" stroke-linejoin="round"/>
<path d="M331.623 200.348C331.367 201.041 331.122 201.777 330.908 202.544" stroke="#263238" stroke-linecap="round" stroke-linejoin="round"/>
<path d="M336.35 192.193C334.925 193.846 333.726 195.681 332.786 197.651" stroke="#263238" stroke-linecap="round" stroke-linejoin="round"/>
<path d="M239.91 246.264L230.53 356.167L224.756 451.655C224.756 451.655 221.555 455.621 221.875 457.423C222.195 459.224 224.009 464.267 224.009 464.267C224.009 464.267 218.599 479.768 220.05 480.844C221.434 481.78 222.878 482.624 224.372 483.371H239.163C239.163 483.371 242.044 480.482 241.692 478.318C241.34 476.154 239.163 463.19 239.163 463.19C240.51 460.863 241.714 458.456 242.77 455.984C243.133 454.544 240.967 446.975 240.967 446.975L275.596 314.376C275.596 314.376 290.376 397.243 293.983 416.347C297.591 435.451 304.655 482.859 304.655 482.859H312.232L313.299 479.661C313.299 479.661 313.662 478.947 317.269 481.1C319.318 482.38 321.707 483.008 324.12 482.902H342.881C342.881 482.902 344.322 481.1 343.244 480.77C342.166 480.439 327.375 470.429 324.846 468.265C322.317 466.101 317.995 460.344 317.995 460.344C317.995 460.344 320.513 453.851 320.513 452.775C320.513 451.698 317.312 445.568 317.312 445.568L314.953 349.024L316.021 248.812L239.91 246.264Z" fill="#263238" stroke="#263238" stroke-linecap="round" stroke-linejoin="round"/>
<path d="M251.991 139.656L229.207 150.573L240.242 221.425L239.174 249.548C239.174 249.548 258.085 259.889 279.471 259.217C292.413 258.784 305.164 255.961 317.078 250.891L318.198 189.485C318.198 189.485 315.947 159.571 313.247 154.624C310.547 149.677 309.191 147.428 305.371 144.507C301.55 141.586 289.833 138.206 289.833 138.206C289.833 138.206 268.618 136.458 267.935 136.458C267.252 136.458 251.991 139.656 251.991 139.656Z" fill="#263238" stroke="#263238" stroke-linecap="round" stroke-linejoin="round"/>
<path d="M276.834 165.53L290.227 189.72L293.375 161.159L283.92 147.439L276.941 163.185L276.834 165.53Z" fill="#39D192" stroke="#263238" stroke-linecap="round" stroke-linejoin="round"/>
<path d="M284.881 152.247L292.938 163.089L295.03 139.667L290.131 133.729L284.881 152.247Z" fill="#39D192" stroke="#263238" stroke-linecap="round" stroke-linejoin="round"/>
<path d="M255.491 115.542L257.241 134.774L284.881 152.247L296.78 119.742L255.491 115.542Z" fill="white" stroke="#263238" stroke-linecap="round" stroke-linejoin="round"/>
<path d="M256.537 126.949C260.618 128.707 265.04 129.534 269.482 129.369C279.086 128.953 290.228 124.678 295.873 122.226L296.791 119.742L255.491 115.542L256.537 126.949Z" fill="#263238" stroke="#263238" stroke-linecap="round" stroke-linejoin="round"/>
<path d="M284.88 152.247L276.834 165.53L251.99 139.667L255.843 133.377L284.88 152.247Z" fill="#39D192" stroke="#263238" stroke-linecap="round" stroke-linejoin="round"/>
<path d="M316.383 229.42C316.383 229.42 326.617 220.764 327.93 220.764C329.242 220.764 335.805 225.742 335.805 225.742C335.805 225.742 342.358 224.964 342.624 226.531C342.891 228.098 341.557 232.565 341.557 232.565L339.978 234.132C339.978 234.132 335.517 240.955 335.517 242C335.517 243.045 329.744 242.789 327.119 243.311C324.493 243.834 317.151 242 317.151 242L316.383 229.42Z" fill="white" stroke="#263238" stroke-linecap="round" stroke-linejoin="round"/>
<path d="M306.406 228.631L318.476 228.898L318.743 241.478L308.765 241.744L306.406 228.631Z" fill="white" stroke="#263238" stroke-linecap="round" stroke-linejoin="round"/>
<path d="M250.742 175.381C250.728 172.265 250.006 169.194 248.63 166.398C247.255 163.602 245.262 161.154 242.802 159.24C238.597 155.967 233.368 152.033 231.575 151.287C228.427 149.976 226.858 150.498 222.398 153.654C217.937 156.809 216.357 163.344 216.624 174.101C216.891 184.858 224.489 241.477 225.279 243.833C226.069 246.19 228.48 246.723 230.529 246.978C232.578 247.234 304.975 244.772 306.373 244.622C311.368 244.1 312.179 237.309 311.89 234.132C311.367 228.365 306.373 226.531 298.764 225.742C291.155 224.953 253.943 220.508 252.577 220.241C251.683 220.046 250.805 219.783 249.952 219.452C249.952 219.452 250.742 188.781 250.742 180.391C250.742 178.515 250.742 176.862 250.742 175.381Z" fill="#39D192" stroke="#263238" stroke-linecap="round" stroke-linejoin="round"/>
<path d="M235.621 228.759C234.783 229.67 234.066 230.684 233.486 231.776" stroke="#263238" stroke-linecap="round" stroke-linejoin="round"/>
<path d="M249.984 219.452C246.033 221.136 242.297 223.283 238.854 225.849" stroke="#263238" stroke-linecap="round" stroke-linejoin="round"/>
<path d="M232.92 225.22C232.92 225.22 238.96 217.096 248.405 219.196" stroke="#263238" stroke-linecap="round" stroke-linejoin="round"/>
<path d="M366.924 89.4014H364.491V112.29H366.924V89.4014Z" fill="white" stroke="#263238" stroke-linecap="round" stroke-linejoin="round"/>
<path d="M374.907 112.29H356.509V113.335H374.907V112.29Z" fill="white" stroke="#263238" stroke-linecap="round" stroke-linejoin="round"/>
<path d="M365.708 91.4907C363.226 91.4738 360.851 90.4746 359.105 88.7122C357.359 86.9497 356.383 84.5677 356.392 82.0879L358.206 65.1372H373.21L375.078 82.0879C375.082 83.3203 374.843 84.5414 374.374 85.6813C373.905 86.8212 373.216 87.8575 372.345 88.731C371.475 89.6044 370.441 90.2977 369.302 90.7713C368.163 91.2448 366.942 91.4893 365.708 91.4907Z" fill="white" stroke="#263238" stroke-linecap="round" stroke-linejoin="round"/>
<path d="M396.464 52.8348L395.599 33.0483H388.225L387.339 52.8348C387.268 54.7366 386.909 56.6166 386.272 58.4104L382.003 70.1372C381.171 72.4083 380.744 74.808 380.744 77.2267V115.488H403.155V77.2053C403.154 74.7867 402.728 72.387 401.895 70.1159L397.627 58.389C396.96 56.6072 396.567 54.7344 396.464 52.8348Z" fill="#263238" stroke="#263238" stroke-linecap="round" stroke-linejoin="round"/>
<path d="M401.981 81.4805H381.705V108.815H401.981V81.4805Z" fill="white" stroke="#263238" stroke-linecap="round" stroke-linejoin="round"/>
<path d="M396.368 50.4681C396.363 50.4114 396.363 50.3543 396.368 50.2975L395.674 34.6368C395.658 34.2079 395.475 33.8023 395.164 33.5058C394.853 33.2093 394.439 33.0453 394.01 33.0484H389.816C389.387 33.0506 388.976 33.2164 388.667 33.5117C388.357 33.8071 388.173 34.2097 388.151 34.6368L387.468 50.2975C387.468 50.2975 387.468 50.4148 387.468 50.4681H396.368Z" fill="#8C8C8C" stroke="#263238" stroke-linecap="round" stroke-linejoin="round"/>
<path d="M436.312 117.471H336.852L331.602 113.271H442.608L436.312 117.471Z" fill="#8C8C8C" stroke="#263238" stroke-linecap="round" stroke-linejoin="round"/>
<path d="M264.786 221.083L265.149 283.417H317.451L318.475 228.898L264.786 221.083Z" fill="white" stroke="#263238" stroke-linecap="round" stroke-linejoin="round"/>
<path d="M280.623 73.5597C282.447 74.0772 284.139 74.9759 285.589 76.1963C287.039 77.4167 288.212 78.9308 289.032 80.6384C292.234 86.6831 300.856 111.875 301.123 115.286C301.39 118.697 297.708 119.753 293.504 122.375C289.299 124.998 275.639 127.098 268.02 124.508C260.4 121.917 258.821 117.685 258.821 117.685C258.821 117.685 255.929 121.096 250.411 117.418C244.894 113.74 243.848 108.762 245.951 106.917C248.053 105.073 251.468 106.661 251.468 106.661C251.468 106.661 245.684 92.4826 246.207 87.472C246.73 82.4614 246.996 77.5042 255.406 74.0927C263.815 70.6813 280.623 73.5597 280.623 73.5597Z" fill="white" stroke="#263238" stroke-linecap="round" stroke-linejoin="round"/>
<path d="M280.857 84.8813C280.857 84.8813 281.925 88.2928 283.216 88.8258C284.507 89.3589 291.369 87.248 291.892 90.1371C292.415 93.0262 289.758 97.7489 289.758 97.7489" stroke="#263238" stroke-linecap="round" stroke-linejoin="round"/>
<path d="M291.892 102.472C291.892 102.472 285.318 108.239 278.755 102.994" stroke="#263238" stroke-linecap="round" stroke-linejoin="round"/>
<path d="M267.977 93.2817L275.34 90.6592" stroke="#263238" stroke-linecap="round" stroke-linejoin="round"/>
<path d="M272.971 82.7809C272.971 82.7809 267.198 79.5827 264.306 85.4141" stroke="#263238" stroke-linecap="round" stroke-linejoin="round"/>
<path d="M280.623 82.2586C280.623 82.2586 283.248 77.5359 287.987 81.4697" stroke="#263238" stroke-linecap="round" stroke-linejoin="round"/>
<path d="M272.79 92.4182C272.918 92.7913 272.427 93.2817 271.723 93.4843C271.018 93.6868 270.314 93.6122 270.197 93.2391C270.079 92.8659 270.549 92.3755 271.264 92.173C271.979 91.9704 272.662 92.0451 272.79 92.4182Z" fill="#263238" stroke="#263238" stroke-linecap="round" stroke-linejoin="round"/>
<path d="M249.333 102.471C249.333 102.471 250.902 107.983 251.958 108.239C253.015 108.495 257.475 109.305 257.209 106.672C256.942 104.038 252.225 94.8595 252.748 91.7465C253.271 88.6336 259.311 84.1347 257.998 82.3011C256.686 80.4674 254.583 80.7233 255.373 79.412C256.163 78.1007 268.766 73.9004 273.515 73.9004C278.264 73.9004 280.345 73.6445 282.447 72.0667C284.55 70.4889 287.698 64.1884 277.976 63.9325C268.254 63.6767 252.236 70.2331 246.718 77.5784C241.201 84.9236 243.826 90.7018 245.395 93.5695C246.964 96.4373 249.333 102.471 249.333 102.471Z" fill="#263238" stroke="#263238" stroke-linecap="round" stroke-linejoin="round"/>
<path d="M285.724 157.545L275.17 155.296L277.347 166.372L286.119 159.667L295.916 164.112L294.101 152.801L285.724 157.545Z" fill="#263238" stroke="#263238" stroke-linecap="round" stroke-linejoin="round"/>
<path d="M169.242 212.992L172.689 230.476C172.689 230.476 174.546 233.119 180.64 235.806C186.733 238.492 189.657 236.328 189.657 232.096C189.657 227.864 187.523 205.082 187.523 205.082L169.242 212.992Z" fill="white" stroke="#263238" stroke-linecap="round" stroke-linejoin="round"/>
<path d="M170.331 219.335L188.227 214.453L187.523 205.05L169.242 212.992L170.331 219.335Z" fill="#263238" stroke="#263238" stroke-linecap="round" stroke-linejoin="round"/>
<path d="M74.6594 197.641L66.1221 221.745L72.5251 226.51C72.5251 226.51 77.8609 227.043 81.2759 224.655C84.6908 222.267 93.2068 202.683 93.2068 202.683L74.6594 197.641Z" fill="white" stroke="#263238" stroke-linecap="round" stroke-linejoin="round"/>
<path d="M72.7168 202.854L90.6132 208.184L93.1531 202.673L74.3496 196.809L72.7168 202.854Z" fill="#263238" stroke="#263238" stroke-linecap="round" stroke-linejoin="round"/>
<path d="M140.258 336.934C140.258 336.934 142.734 368 142.734 374.716C142.734 381.433 139.906 396.251 141.666 404.375C143.427 412.498 149.446 437.562 149.446 445.685C149.446 453.809 144.857 468.286 147.312 471.111C149.766 473.936 154.387 474.64 155.796 477.508C157.204 480.375 157.93 481.036 160.395 482.102C162.86 483.169 172.764 483.862 174.887 483.169C177.011 482.476 175.955 480.695 172.412 475.706C168.869 470.717 160.747 461.229 159.339 456.996C157.93 452.764 166.756 418.863 167.108 404.758C167.46 390.654 166.756 372.627 166.756 372.627C166.756 372.627 171.355 340.847 171.355 334.493L140.258 336.934Z" fill="white" stroke="#263238" stroke-linecap="round" stroke-linejoin="round"/>
<path d="M141.154 348.608C151.11 348.037 160.975 346.389 170.576 343.693C171.046 339.568 171.366 336.146 171.366 334.482L140.258 336.956C140.258 336.956 140.663 342.052 141.154 348.608Z" fill="#263238" stroke="#263238" stroke-linecap="round" stroke-linejoin="round"/>
<path d="M166.063 365.537C166.063 365.537 165.71 374.716 162.53 379.652" stroke="#263238" stroke-linecap="round" stroke-linejoin="round"/>
<path d="M174.898 483.115C177.033 482.412 175.966 480.642 172.423 475.653C171.814 474.8 171.057 473.808 170.235 472.732C166.041 475.386 159.947 473.734 157.578 471.068C155.444 468.638 149.969 462.721 147.504 460.056C146.64 465.162 146.064 469.651 147.323 471.068C149.799 473.894 154.398 474.597 155.807 477.465C157.215 480.333 157.941 480.994 160.406 482.06C162.871 483.126 172.775 483.819 174.898 483.115Z" fill="#263238" stroke="#263238" stroke-linecap="round" stroke-linejoin="round"/>
<path d="M106.674 337.638C106.674 337.638 112.01 370.825 112.682 371.891C113.354 372.957 112.682 402.253 116.214 412.146C119.747 422.04 128.935 453.105 129.287 457.988C129.639 462.87 117.986 472.87 113.077 476.047C108.168 479.224 106.674 481.378 109.875 482.444C113.077 483.51 124.368 482.444 128.956 482.092C133.545 481.74 139.713 483.435 140.77 482.028C141.826 480.621 140.268 460.546 140.268 454.544C140.268 448.542 141.677 405.814 139.564 391.699C137.451 377.584 135.295 365.207 135.295 365.207L136.01 336.263L104.902 335.197L106.674 337.638Z" fill="white" stroke="#263238" stroke-linecap="round" stroke-linejoin="round"/>
<path d="M106.675 337.638C106.675 337.638 107.198 340.921 107.934 345.442C116.981 347.842 126.321 348.962 135.68 348.768L135.99 336.231L104.882 335.165L106.675 337.638Z" fill="#263238" stroke="#263238" stroke-linecap="round" stroke-linejoin="round"/>
<path d="M113.75 364.823C113.75 364.823 114.454 375.42 118.702 380.366" stroke="#263238" stroke-linecap="round" stroke-linejoin="round"/>
<path d="M140.76 481.996C141.165 481.452 141.154 478.339 140.994 474.352C135.488 475.141 125.766 474.64 125.766 474.64C123.29 469.693 119.363 471.815 119.363 471.815H118.637C116.846 473.348 114.965 474.772 113.003 476.079C108.051 479.277 106.599 481.41 109.801 482.476C113.003 483.542 124.09 483.467 128.679 483.115C133.268 482.763 139.756 483.403 140.76 481.996Z" fill="#263238" stroke="#263238" stroke-linecap="round" stroke-linejoin="round"/>
<path d="M89.7166 309.387L88.6494 337.99C88.6494 337.99 112.693 344.695 133.193 345.058C153.693 345.42 180.554 336.934 180.554 336.934L179.135 305.506L90.4209 304.099L89.7166 309.387Z" fill="#39D192" stroke="#263238" stroke-linecap="round" stroke-linejoin="round"/>
<path d="M107.475 226.766C107.475 226.766 87.5933 277.255 82.6416 315.389C82.6416 315.389 111.626 323.512 140.269 322.105C168.912 320.698 185.869 312.926 185.869 312.926C185.869 312.926 177.033 254.292 162.391 229.943L107.475 226.766Z" fill="#263238" stroke="#263238" stroke-linecap="round" stroke-linejoin="round"/>
<path d="M145.562 73.1651C145.562 73.1651 144.143 63.9862 134.954 65.7559C125.766 67.5255 126.118 70.7025 124.709 73.8794C123.301 77.0563 103.142 80.9368 98.5531 92.9409C93.9643 104.945 105.266 108.836 105.266 115.19C105.266 121.544 91.1256 126.49 94.3058 133.9C97.486 141.309 109.15 142.727 108.094 145.2C107.037 147.673 98.5531 151.597 104.892 157.204C111.231 162.812 139.885 168.505 155.049 165.679C170.214 162.854 174.141 150.85 171.313 146.97C168.485 143.089 166.361 141.32 168.485 137.375C170.608 133.431 181.558 129.614 178.025 119.017C174.493 108.42 164.995 106.715 165.369 100.713C165.742 94.7106 176.318 90.83 167.503 82.3547C158.688 73.8794 145.562 73.1651 145.562 73.1651Z" fill="#263238" stroke="#263238" stroke-linecap="round" stroke-linejoin="round"/>
<path d="M120.196 147.321L91.5742 155.53L107.475 226.766C107.475 226.766 114.945 231.531 131.07 232.597C141.569 233.127 152.09 232.234 162.349 229.942L177.994 158.174L150.685 149.443L120.196 147.321Z" fill="white"/>
<path d="M114.646 148.91L113.579 149.209L124.838 231.958L125.905 232.107L114.646 148.91Z" fill="#39D192"/>
<path d="M120.91 147.375L120.195 147.321L119.854 147.417L128.914 232.405L129.981 232.49L120.91 147.375Z" fill="#39D192"/>
<path d="M128.402 147.887L127.335 147.812L133.93 232.736H134.997L128.402 147.887Z" fill="#39D192"/>
<path d="M108.137 150.775L107.069 151.074L121.241 231.339L122.308 231.542L108.137 150.775Z" fill="#39D192"/>
<path d="M101.338 152.726L116.63 230.273L117.772 230.561L102.405 152.449L101.338 152.726Z" fill="#39D192"/>
<path d="M143.204 148.921L142.137 148.846L143.535 232.576L144.602 232.512L143.204 148.921Z" fill="#39D192"/>
<path d="M111.284 228.568C111.647 228.717 112.042 228.866 112.458 229.015L96.5789 154.091L95.5117 154.39L111.284 228.568Z" fill="#39D192"/>
<path d="M168.804 155.232L158.549 230.732L159.616 230.529L169.797 155.562L168.804 155.232Z" fill="#39D192"/>
<path d="M174.568 157.087L173.501 156.756L160.438 230.316L161.506 230.071L174.568 157.087Z" fill="#39D192"/>
<path d="M163.629 153.58L162.562 153.249L154.024 231.478L155.092 231.318L163.629 153.58Z" fill="#39D192"/>
<path d="M150.802 149.475H150.685L149.746 149.4L145.818 232.405L146.886 232.32L150.802 149.475Z" fill="#39D192"/>
<path d="M138.123 232.779H139.19L136.277 148.462L135.21 148.388L138.123 232.779Z" fill="#39D192"/>
<path d="M156.98 151.458L155.913 151.117L150.268 231.979L151.335 231.851L156.98 151.458Z" fill="#39D192"/>
<path d="M161.402 172.262L150.938 171.705C149.26 171.615 147.828 172.901 147.739 174.577L147.689 175.503C147.6 177.179 148.887 178.61 150.564 178.699L161.029 179.256C162.707 179.345 164.139 178.059 164.228 176.384L164.278 175.457C164.367 173.782 163.08 172.351 161.402 172.262Z" fill="#39D192" stroke="#263238" stroke-linecap="round" stroke-linejoin="round"/>
<path d="M120.196 147.321L91.5742 155.53L107.475 226.766C107.475 226.766 114.945 231.531 131.07 232.597C141.569 233.127 152.09 232.234 162.349 229.942L177.994 158.174L150.685 149.443L120.196 147.321Z" stroke="#263238" stroke-linecap="round" stroke-linejoin="round"/>
<path d="M123.173 127.471L123.77 142.514L134.421 150.744L145.028 142.439L149.276 128.473L135.221 132.684L123.173 127.471Z" fill="white" stroke="#263238" stroke-linecap="round" stroke-linejoin="round"/>
<path d="M149.286 128.473L135.221 132.738L123.173 127.524L123.482 135.19C126.012 138.601 128.594 141.33 130.323 142.076C134.592 143.878 136.95 143.079 138.359 141.671C139.426 140.605 144.815 137.3 148.828 130.019L149.286 128.473Z" fill="#263238" stroke="#263238" stroke-linecap="round" stroke-linejoin="round"/>
<path d="M129.597 154.56L132.606 158.974L130.6 197.289L136.427 197.491L134.42 159.176L139.233 153.153L133.929 148.132L129.597 154.56Z" fill="#39D192" stroke="#263238" stroke-linecap="round" stroke-linejoin="round"/>
<path d="M122.629 138.302L133.674 148.131L126.844 159.571L117.41 147.332L122.629 138.302Z" fill="white"/>
<path d="M117.858 146.554L127.591 158.324L128.167 157.354L118.424 145.584L117.858 146.554Z" fill="#39D192"/>
<path d="M120.003 142.833L119.427 143.836L128.754 156.383L129.341 155.392L120.003 142.833Z" fill="#39D192"/>
<path d="M122.906 138.558L122.629 138.302L122.095 139.23L131.988 150.232L130.494 152.044L121.38 140.466L120.804 141.458L130.398 153.632L132.82 149.571L122.906 138.558Z" fill="#39D192"/>
<path d="M122.629 138.302L133.674 148.131L126.844 159.571L117.41 147.332L122.629 138.302Z" stroke="#263238" stroke-linecap="round" stroke-linejoin="round"/>
<path d="M146.277 138.302L133.93 148.131L141.571 159.571L152.114 147.332L146.277 138.302Z" fill="white"/>
<path d="M151.612 146.554L140.727 158.324L140.087 157.354L150.972 145.584L151.612 146.554Z" fill="#39D192"/>
<path d="M149.201 142.833L149.852 143.836L139.436 156.383L138.774 155.392L149.201 142.833Z" fill="#39D192"/>
<path d="M145.968 138.558L146.277 138.302L146.875 139.23L135.819 150.232L137.495 152.044L147.675 140.466L148.316 141.458L137.601 153.632L134.891 149.571L145.968 138.558Z" fill="#39D192"/>
<path d="M146.277 138.302L133.93 148.131L141.571 159.571L152.114 147.332L146.277 138.302Z" stroke="#263238" stroke-linecap="round" stroke-linejoin="round"/>
<path d="M116.93 105.328C116.93 105.328 113.536 102.386 112.127 105.798C110.719 109.209 116.151 118.036 117.751 117.642C119.352 117.247 118.36 105.798 118.36 105.798L116.93 105.328Z" fill="white" stroke="#263238" stroke-linecap="round" stroke-linejoin="round"/>
<path d="M157.236 105.723C157.236 105.723 160.982 103.239 161.942 106.789C162.903 110.339 156.382 118.409 154.846 117.802C153.309 117.194 155.763 105.989 155.763 105.989L157.236 105.723Z" fill="white" stroke="#263238" stroke-linecap="round" stroke-linejoin="round"/>
<path d="M129 78.1114C129 78.1114 119.566 81.1284 118.157 89.5505C116.877 97.1943 116.343 111.224 117.752 117.642C119.16 124.059 128.423 137.705 132.617 139.507C136.811 141.309 139.244 140.509 140.653 139.102C142.062 137.695 150.887 132.481 154.302 119.443C157.717 106.405 157.322 96.7785 155.113 86.9386C153.747 80.8726 139.245 73.4953 129 78.1114Z" fill="white" stroke="#263238" stroke-linecap="round" stroke-linejoin="round"/>
<path d="M155.113 86.9386C153.747 80.8726 139.244 73.4953 128.999 78.1114C128.999 78.1114 119.566 81.1284 118.157 89.5505C117.375 94.7742 116.965 100.047 116.93 105.328C117.399 103.708 118.072 101.064 118.755 97.5781C119.96 91.3521 122.575 86.3416 126.993 85.9365C131.411 85.5314 133.215 87.5462 140.45 87.1411C147.685 86.736 150.055 86.139 153.096 89.5505C156.137 92.9619 155.711 104.198 156.511 107.407C157.179 100.554 156.706 93.6377 155.113 86.9386Z" fill="#263238" stroke="#263238" stroke-linecap="round" stroke-linejoin="round"/>
<path d="M139.447 111.416L139.042 116.032C139.042 116.032 141.251 117.439 140.653 119.049C140.055 120.659 137.633 121.448 136.63 120.446" stroke="#263238" stroke-linecap="round" stroke-linejoin="round"/>
<path d="M130.205 125.467C130.205 125.467 135.029 128.068 138.241 127.674C140.508 127.24 142.64 126.275 144.462 124.859" stroke="#263238" stroke-linecap="round" stroke-linejoin="round"/>
<path d="M130.409 109.518C130.409 110.787 129.822 111.821 129.096 111.821C128.37 111.821 127.794 110.755 127.794 109.518C127.794 108.282 128.381 107.205 129.096 107.205C129.811 107.205 130.409 108.239 130.409 109.518Z" fill="#263238"/>
<path d="M147.077 110.211C147.077 111.491 146.491 112.525 145.776 112.525C145.061 112.525 144.463 111.459 144.463 110.211C144.463 108.964 145.05 107.909 145.776 107.909C146.501 107.909 147.077 108.943 147.077 110.211Z" fill="#263238"/>
<path d="M124.987 103.793C124.987 103.793 128.189 99.529 133.823 102.194" stroke="#263238" stroke-linecap="round" stroke-linejoin="round"/>
<path d="M142.051 102.994C142.051 102.994 147.472 99.3801 152.722 104.796" stroke="#263238" stroke-linecap="round" stroke-linejoin="round"/>
<path d="M91.5629 155.53L70.625 198.962L96.5999 205.583L99.7801 193.397L91.5629 155.53Z" fill="white"/>
<path d="M92.1389 158.174L73.8477 199.783L74.8828 200.05L92.5231 159.944L92.1389 158.174Z" fill="#39D192"/>
<path d="M93.6551 165.168L93.2603 163.323C88.1806 175.914 81.5214 192.107 77.8184 200.796L78.8855 201.052C83.0368 191.382 90.1975 173.771 93.6551 165.168Z" fill="#39D192"/>
<path d="M95.0843 171.756L94.6895 169.933L81.6807 201.777L82.7158 202.043L95.0843 171.756Z" fill="#39D192"/>
<path d="M98.692 197.577L99.7805 193.398L99.7165 193.099L93.9004 204.89L94.9462 205.156L98.692 197.577Z" fill="#39D192"/>
<path d="M98.4355 187.204L98.0406 185.37L90.4424 204.016L91.4775 204.272L98.4355 187.204Z" fill="#39D192"/>
<path d="M96.6427 178.941L96.2479 177.097L85.875 202.843L86.9102 203.11L96.6427 178.941Z" fill="#39D192"/>
<path d="M91.5629 155.53L70.625 198.962L96.5999 205.583L99.7801 193.397L91.5629 155.53Z" stroke="#263238" stroke-linecap="round" stroke-linejoin="round"/>
<path d="M177.982 158.174L195.217 207.694L168.442 217.502L166.585 210.615L177.982 158.174Z" fill="white"/>
<path d="M171.921 186.063L171.505 187.971L180.832 212.96L181.824 212.598L171.921 186.063Z" fill="#39D192"/>
<path d="M170.416 192.971L170.011 194.879L177.3 214.261L178.292 213.888L170.416 192.971Z" fill="#39D192"/>
<path d="M169.189 198.632L168.762 200.593L174.055 215.444L175.047 215.081L169.189 198.632Z" fill="#39D192"/>
<path d="M172.187 216.126L167.844 204.815L167.438 206.702L171.195 216.489L172.187 216.126Z" fill="#39D192"/>
<path d="M176.019 167.204L175.592 169.187L189.742 209.709L190.735 209.336L176.019 167.204Z" fill="#39D192"/>
<path d="M177.459 160.583L177.021 162.62L192.346 208.749L193.338 208.386L177.459 160.583Z" fill="#39D192"/>
<path d="M174.877 172.481L174.45 174.464L187.021 210.7L188.025 210.327L174.877 172.481Z" fill="#39D192"/>
<path d="M173.18 180.274L172.774 182.15L184.343 211.681L185.335 211.318L173.18 180.274Z" fill="#39D192"/>
<path d="M177.982 158.174L195.217 207.694L168.442 217.502L166.585 210.615L177.982 158.174Z" stroke="#263238" stroke-linecap="round" stroke-linejoin="round"/>
<path d="M100.847 179.89L96.8665 183.366L91.8295 194.229L94.7536 202.438C94.7536 202.438 67.9783 217.8 66.3882 219.388C64.7981 220.977 64.2539 231.83 67.7115 237.128C71.1691 242.426 85.736 226.531 85.736 226.531L109.598 194.495C109.598 194.495 115.425 187.609 113.867 185.754C112.308 183.899 110.953 182.555 110.153 182.555C109.352 182.555 107.506 182.822 107.506 182.822L100.847 179.89Z" fill="white" stroke="#263238" stroke-linecap="round" stroke-linejoin="round"/>
<path d="M101.392 172.343L107.475 184.922L109.865 185.722L103.11 171.554C103.053 171.429 102.969 171.319 102.865 171.23C102.761 171.141 102.639 171.075 102.507 171.038C102.376 171 102.237 170.992 102.102 171.013C101.966 171.034 101.837 171.084 101.723 171.159C101.538 171.287 101.403 171.475 101.343 171.691C101.283 171.907 101.3 172.138 101.392 172.343Z" fill="white" stroke="#263238" stroke-linecap="round" stroke-linejoin="round"/>
<path d="M93.1533 189.165L97.9236 202.672L112.512 205.316L117.015 202.672L111.978 187.31L93.1533 189.165Z" fill="white" stroke="#263238" stroke-linecap="round" stroke-linejoin="round"/>
<path d="M108.275 191.809L89.1836 190.221C89.1836 190.221 86.537 188.366 89.984 186.244C91.8641 184.986 94.1617 184.512 96.387 184.922L109.908 185.722L108.275 191.809Z" fill="white" stroke="#263238" stroke-linecap="round" stroke-linejoin="round"/>
<path d="M117.015 199.751L112.746 186.244C112.746 186.244 108.477 184.922 107.175 187.31C106.94 187.672 106.781 188.079 106.707 188.505C106.633 188.93 106.647 189.367 106.746 189.787C106.846 190.208 107.03 190.604 107.287 190.951C107.544 191.298 107.869 191.59 108.242 191.809C109.032 192.342 111.679 190.487 111.679 190.487L114.603 201.34L117.015 199.751Z" fill="white" stroke="#263238" stroke-linecap="round" stroke-linejoin="round"/>
<path d="M188.59 225.444C189.206 228.044 189.475 230.715 189.391 233.386C189.391 238.716 188.067 242.661 184.62 242.661C181.173 242.661 166.596 238.397 159.969 234.974C153.342 231.552 126.566 218.29 126.566 218.29C126.566 218.29 117.015 217.224 114.369 216.702C110.879 215.851 107.562 214.409 104.561 212.437C101.904 210.583 100.581 205.284 100.581 205.284C100.581 205.284 95.8105 202.374 95.8105 201.02C95.8105 199.666 108.798 202.342 111.188 202.342C113.579 202.342 117.015 199.687 117.015 199.687L115.692 194.655C115.692 194.655 120.462 196.51 121.785 198.099C123.109 199.687 127.89 208.696 128.679 209.751C129.469 210.806 150.684 219.612 161.559 220.678C172.433 221.744 183.03 223.322 183.03 223.322" fill="white"/>
<path d="M188.59 225.444C189.206 228.044 189.475 230.715 189.391 233.386C189.391 238.716 188.067 242.661 184.62 242.661C181.173 242.661 166.596 238.397 159.969 234.974C153.342 231.552 126.566 218.29 126.566 218.29C126.566 218.29 117.015 217.224 114.369 216.702C110.879 215.851 107.562 214.409 104.561 212.437C101.904 210.583 100.581 205.284 100.581 205.284C100.581 205.284 95.8105 202.374 95.8105 201.02C95.8105 199.666 108.798 202.342 111.188 202.342C113.579 202.342 117.015 199.687 117.015 199.687L115.692 194.655C115.692 194.655 120.462 196.51 121.785 198.099C123.109 199.687 127.89 208.696 128.679 209.751C129.469 210.806 150.684 219.612 161.559 220.678C172.433 221.744 183.03 223.322 183.03 223.322" stroke="#263238" stroke-linecap="round" stroke-linejoin="round"/>
<path d="M9.13458 483.467H0.533203" stroke="#263238" stroke-linecap="round" stroke-linejoin="round"/>
<path d="M505.444 483.467H18.9746" stroke="#263238" stroke-linecap="round" stroke-linejoin="round"/>
</g>
<defs>
<clipPath id="clip0_67_66">
<rect width="510" height="484" fill="white"/>
</clipPath>
</defs>
</svg>
