<svg width="606" height="396" viewBox="0 0 606 396" fill="none" xmlns="http://www.w3.org/2000/svg">
<g clip-path="url(#clip0_67_370)">
<path d="M601.569 263.507C600.568 266.757 599.411 269.965 598.098 273.129C596.205 277.678 594.017 282.101 591.549 286.369C591.298 286.822 591.038 287.248 590.781 287.684C590.688 287.841 590.596 287.997 590.501 288.153C589.184 290.349 587.794 292.505 586.33 294.623C586.12 294.924 585.908 295.229 585.694 295.528C582.981 299.378 580.048 303.071 576.91 306.588C575.999 307.622 575.062 308.641 574.099 309.644C567.624 316.453 560.829 323.025 553.714 329.36C550.561 332.17 547.351 334.929 544.083 337.636C541.154 340.066 538.178 342.453 535.156 344.799C532.626 346.76 530.062 348.697 527.465 350.609C527.31 350.725 527.158 350.836 527.01 350.953C518.074 357.504 508.795 363.692 499.173 369.515C495.55 371.71 491.882 373.846 488.168 375.926C487.314 376.404 486.453 376.883 485.585 377.357C473.954 383.736 461.166 389.757 447.562 391.923C444.54 392.41 441.488 392.689 438.427 392.756C437.676 392.774 436.922 392.779 436.17 392.774C434.947 392.774 433.726 392.736 432.502 392.679L432.19 392.666C430.596 392.586 428.978 392.469 427.375 392.322C424.889 392.095 422.404 391.776 419.923 391.416C419.261 391.316 418.6 391.212 417.935 391.108C416.137 390.817 414.341 390.502 412.548 390.164C410.443 389.769 408.338 389.35 406.233 388.908C399.855 387.584 393.477 386.13 387.167 384.926C385.818 384.665 384.471 384.419 383.126 384.188C381.592 383.923 380.062 383.679 378.538 383.457L376.959 383.231C370.15 382.296 363.326 381.691 356.499 381.359C355.679 381.316 354.861 381.282 354.041 381.248C351.702 381.156 349.364 381.093 347.027 381.06C345.783 381.042 344.539 381.033 343.296 381.033C342.359 381.033 341.422 381.037 340.485 381.044L339.316 381.06C336.769 381.087 334.22 381.149 331.669 381.246C328.436 381.359 325.206 381.518 321.979 381.723C319.989 381.848 318.001 381.988 316.013 382.142C313.695 382.323 311.379 382.521 309.065 382.735C307.016 382.925 304.966 383.128 302.914 383.344C301.107 383.537 299.3 383.736 297.493 383.942C294.759 384.254 292.034 384.584 289.317 384.933C283.431 385.68 277.552 386.499 271.691 387.355C269.273 387.705 266.859 388.062 264.449 388.426L259.957 389.105L252.298 390.271L252.146 390.296L249.412 390.712L248.046 390.918L241.417 391.923C238.882 392.303 236.351 392.681 233.822 393.055C233.674 393.08 233.524 393.1 233.366 393.121C232.644 393.228 231.919 393.332 231.193 393.433L229.672 393.641C228.546 393.792 227.419 393.943 226.289 394.094C225.328 394.216 224.365 394.333 223.403 394.445C219.168 394.941 214.915 395.35 210.658 395.62C205.191 395.98 199.723 396.12 194.27 395.959C188.998 395.823 183.739 395.36 178.525 394.572C176.232 394.22 173.954 393.795 171.691 393.297C169.565 392.828 167.456 392.357 165.365 391.885C162.386 391.21 159.438 390.526 156.522 389.832C155.19 389.515 153.867 389.195 152.552 388.872C142.219 386.33 132.412 383.584 123.444 380.381C120.764 379.423 118.161 378.422 115.635 377.379C106.735 373.689 98.8673 369.404 92.4002 364.214C87.8238 360.547 83.9445 356.431 80.892 351.764C79.53 349.686 78.3415 347.501 77.3384 345.231C75.4275 340.882 74.1607 336.282 73.5775 331.572C72.7028 324.813 70.188 314.16 66.5956 304.257C65.3815 300.911 64.0421 297.649 62.6047 294.654C61.9213 293.217 61.2015 291.843 60.4702 290.55C60.0146 289.729 59.5317 288.936 59.0488 288.185L58.7435 287.716C58.4451 287.263 58.1399 286.824 57.8324 286.401C57.0726 285.336 56.2351 284.329 55.3266 283.386C49.0099 276.867 43.0257 270.279 37.5017 263.538C32.2573 257.194 27.3894 250.552 22.9228 243.645C21.7474 241.81 20.6084 239.958 19.5059 238.088C6.00907 215.144 -1.60155 189.689 0.284593 159.075C0.393934 157.228 0.541241 155.363 0.726514 153.48C4.58991 113.78 38.7113 69.5278 90.7943 74.3924C118.305 76.9548 139.697 71.9703 160.208 56.1542C183.707 38.045 201.84 15.4448 232.685 5.54812C240.706 2.97435 249.034 1.42375 257.515 0.642796C271.93 -0.692755 286.764 0.190068 301.213 2.03041C302.384 2.17755 303.548 2.33148 304.716 2.48314C320.222 4.62002 335.576 7.9838 351.088 10.2746C354.311 10.7545 357.547 11.1793 360.797 11.549C362.23 11.7098 363.66 11.8569 365.098 12.0018C374.187 12.8416 382.779 12.6265 391.215 12.3843C406.572 11.9316 421.409 11.3929 437.796 16.9116C438.124 17.0225 438.452 17.138 438.78 17.2512C447.032 20.1313 454.931 23.9281 462.325 28.5694C474.332 36.1549 484.48 45.8523 491.483 57.1774C505.791 80.3232 500.711 98.3191 513.294 121.048C513.891 122.121 514.522 123.21 515.203 124.306C526.235 142.157 550.343 149.104 569.026 161.475C571.15 162.881 573.2 164.357 575.156 165.923C577.49 167.784 579.681 169.816 581.71 172.001C582.364 172.712 583.002 173.438 583.617 174.19C606.629 202.307 610.494 234.5 601.569 263.507Z" fill="#F5F5F5"/>
<path d="M283.173 369.708C390.185 369.708 476.935 365.376 476.935 360.033C476.935 354.69 390.185 350.358 283.173 350.358C176.161 350.358 89.4111 354.69 89.4111 360.033C89.4111 365.376 176.161 369.708 283.173 369.708Z" fill="#E6E7E8"/>
<path d="M149.526 294.521L267.49 188.147L309.595 207.676L428.304 87.8634L397.36 74.7977L481.542 37.8799L495.335 120.967L462.897 102.991L331.546 260.808L277.882 236.882L212.997 316.754L149.526 294.521Z" fill="#00D18F"/>
<path d="M201.297 340.153C227.972 313.645 227.972 270.667 201.296 244.159C174.621 217.651 131.372 217.651 104.696 244.159C78.0211 270.667 78.0211 313.645 104.696 340.153C131.372 366.661 174.621 366.661 201.297 340.153Z" fill="#FEC037"/>
<path d="M152.996 363.247C113.547 363.247 81.4551 331.357 81.4551 292.155C81.4551 252.953 113.547 221.061 152.996 221.061C192.446 221.061 224.549 252.953 224.549 292.155C224.549 331.357 192.446 363.247 152.996 363.247ZM152.996 227.492C117.116 227.492 87.9267 256.5 87.9267 292.155C87.9267 327.81 117.116 356.816 152.996 356.816C188.876 356.816 218.068 327.81 218.068 292.155C218.068 256.5 188.876 227.492 152.996 227.492Z" fill="#FFA10E"/>
<path d="M147.629 337.849V326.603C140.28 326.377 132.929 324.285 128.722 321.503L131.879 310.606C136.435 313.273 142.963 315.708 150.077 315.708C157.428 315.708 162.444 312.114 162.444 306.55C162.444 301.343 158.362 297.97 149.729 294.842C137.478 290.435 129.546 284.882 129.546 274.089C129.546 264.129 136.546 256.469 148.328 254.382V243.023H157.895V253.804C165.244 254.031 170.26 255.774 173.994 257.628L170.843 268.294C168.044 267.017 162.911 264.353 154.977 264.353C146.811 264.353 143.895 268.525 143.895 272.468C143.895 277.222 148.096 279.886 158.018 283.827C171.085 288.696 176.925 294.955 176.925 305.275C176.925 315.127 170.044 323.821 157.21 325.908V337.849H147.629Z" fill="white"/>
<path d="M197.778 216.798L234.139 257.809L232.886 308.598V313.882H226.752L219.87 265.333L179.143 223.58C179.143 223.58 191.182 209.847 197.778 216.798Z" fill="#1A2E35"/>
<path d="M196.514 170.724L207.405 143.708C207.405 143.708 203.077 133.822 197.919 139.719C192.762 145.616 184.479 154.573 184.479 154.573L196.514 170.724Z" fill="#00D18F"/>
<path d="M230.699 320.792L233.857 322.522L237.879 321.922C237.879 321.922 238.476 324.285 236.513 324.58C234.549 324.874 229.061 324.847 229.061 324.847L227.893 324.919C227.717 324.932 227.54 324.901 227.379 324.828C227.218 324.755 227.078 324.644 226.972 324.503C226.866 324.363 226.797 324.198 226.772 324.025C226.746 323.851 226.765 323.673 226.827 323.509L227.027 322.963L227.433 321.266L230.699 320.792Z" fill="#18407C"/>
<path d="M195.175 217.201L230.97 261.485V280.203L217.726 283.442C217.726 283.442 214.362 273.141 215.965 267.941L185.539 242.455C185.539 242.455 155.103 228.246 165.265 211.06L195.175 217.201Z" fill="#1A2E35"/>
<path d="M230.97 269.65L230.234 320.718L224.508 321.574C224.508 321.574 212.915 282.576 215.965 267.946L230.97 269.65Z" fill="#1A2E35"/>
<path d="M177.083 129.243L183.266 133.657L187.316 135.649L186.518 137.184C186.518 137.184 189.311 143.23 183.101 143.748L182.418 146.709L180.812 153.391L175.411 151.515L172.247 152.031L174.195 145.693C174.195 145.693 174.361 132.853 177.083 129.243Z" fill="#F2B694"/>
<path d="M179.334 130.35C179.334 130.35 175.862 131.635 175.555 133.048C175.247 134.46 180.206 138.752 180.206 138.752L179.637 139.848L175.691 137.908C175.691 137.908 173.641 139.649 175.222 140.975L177.029 141.863L174.193 145.693L166.336 137.437L167.088 133.27C167.088 133.27 178.459 121.947 179.334 130.35Z" fill="#1A2E35"/>
<path d="M183.108 143.753L179.901 143.499L174.967 136.079C174.967 136.079 172.748 138.245 176.333 142.798L175.037 144.55L174.183 145.702L173.345 150.302L182.855 148.061L183.108 143.753Z" fill="#E0A990"/>
<path d="M182.969 133.415C182.969 133.415 181.944 132.846 181.71 134.302L181.026 135.37C181.026 135.37 183.651 134.042 182.969 133.415Z" fill="#5B628C"/>
<path d="M184.063 147.171L189.573 149.011L201.89 171.845L195.878 218.313L164.085 211.393C164.085 211.393 172.24 202.112 162.648 181.624L155.834 168.2C154.923 166.407 154.698 164.346 155.201 162.4C155.703 160.454 156.9 158.755 158.568 157.62L170.764 149.326L180.286 149.233L184.063 147.171Z" fill="#00D18F"/>
<path d="M170.769 149.328L188.288 166.079L193.954 205.944L195.942 176.404L195.211 161.108C194.898 160.001 194.235 159.025 193.318 158.324L181.202 149.022L170.769 149.328Z" fill="#EDF6FB"/>
<path d="M171.8 147.175L183.06 150.858L177.778 155.888L170.769 149.328L171.8 147.175Z" fill="#EDF6FB"/>
<path d="M179.143 156.174L182.113 150.519L182.719 150.281L184.086 150.858H183.061L179.143 156.174Z" fill="#E6E7E8"/>
<path d="M183.16 147.175L180.29 149.235L183.06 150.858L186.687 151.562L184.065 147.175H183.16Z" fill="#EDF6FB"/>
<path d="M183.026 150.797L181.327 153.942L183.026 154.929H184.724V153.942L183.026 150.797Z" fill="#1A2E35"/>
<path d="M193.956 205.937L183.061 168.295L188.291 166.072L193.956 205.937Z" fill="#00A06B"/>
<path d="M184.497 167.684L177.907 157.848L179.142 156.173L188.29 166.072L185.092 167.43L184.497 167.684Z" fill="#00A06B"/>
<path d="M169.837 208.029L183.026 211.395L179.142 215.309L169.297 211.669L169.837 208.029Z" fill="#00A06B"/>
<path d="M193.956 205.937L199.403 164.155L195.211 161.101L193.956 205.937Z" fill="#00A06B"/>
<path d="M165.119 209.795C165.119 209.795 156.463 219.601 154.274 221.946C152.085 224.291 174.935 231.467 193.954 215.309V208.029L180.3 213.235C180.3 213.235 169.295 212.765 165.119 209.795Z" fill="#00D18F"/>
<g style="mix-blend-mode:multiply">
<path d="M164.249 225.493C164.249 225.493 186.659 226.974 193.407 213.722C193.407 213.722 190.111 230.473 166.374 227.379L164.249 225.493Z" fill="#E6E6E6"/>
</g>
<g style="mix-blend-mode:multiply">
<path d="M160.62 177.633C160.62 177.633 178.454 190.167 180.29 190.656C182.126 191.145 198.812 195.636 198.812 195.636L178.413 194.169L164.249 185.354C164.249 185.354 161.736 179.484 160.62 177.633Z" fill="#E6E7E8"/>
</g>
<path d="M184.723 154.928L192.095 161.928L193.407 202.082L191.708 194.241L189.065 163.648L183.026 154.928H184.723Z" fill="#1A2E35"/>
<path d="M207.405 138.411L179.78 124.602L178.231 127.251L204.451 147.171C204.451 147.171 209.182 145.693 207.405 138.411Z" fill="#00D18F"/>
<g style="mix-blend-mode:multiply">
<path d="M196.512 141.317L201.89 140.364H197.357L178.231 127.246L196.512 141.317Z" fill="#E6E7E8"/>
</g>
<path d="M179.493 125.094L177.272 123.64L173.354 125.764V127.887H174.326L175.137 126.407L176.914 126.278L178.729 126.398L179.493 125.094Z" fill="#F2B694"/>
<path d="M233.357 313.628L236.515 315.358L240.537 314.758C240.537 314.758 241.134 317.123 239.171 317.418C237.207 317.712 231.722 317.682 231.722 317.682L230.553 317.755C230.379 317.768 230.203 317.738 230.043 317.668C229.883 317.597 229.743 317.487 229.636 317.349C229.529 317.212 229.459 317.049 229.431 316.877C229.403 316.705 229.418 316.529 229.476 316.365L229.676 315.817L230.082 314.119L233.357 313.628Z" fill="#18407C"/>
<g style="mix-blend-mode:multiply">
<path d="M164.249 225.493C164.249 225.493 173.851 237.404 182.058 243.014C190.265 248.623 210.095 267.937 210.095 267.937L218.068 312.847L219.81 317.569C219.81 317.569 225.312 303.895 224.902 294.749C224.492 285.604 219.87 265.322 219.87 265.322L207.008 245.578L184.479 225.568L164.249 225.493Z" fill="#E6E7E8"/>
</g>
<path d="M250.904 183.917C252.339 183.186 254.424 180.938 251.749 179.616C251.749 179.616 252.339 177.094 251.141 176.748C249.943 176.401 251.273 174.649 249.506 174.538C247.738 174.428 249.084 171.994 247.084 172.485C245.084 172.977 246.264 170.48 243.959 171.032C241.654 171.584 240.947 168.723 239.824 170.654C238.701 172.585 237.196 170.301 237.12 172.137C237.045 173.973 235.952 172.433 235.904 174.364C235.856 176.295 238.269 178.439 238.615 179.147C238.961 179.856 240.893 182.253 240.893 182.253C241.498 183.353 242.199 184.397 242.988 185.375L250.904 183.917Z" fill="#86C33A"/>
<path d="M249.016 184.521C250.319 183.858 252.205 181.818 249.783 180.614C249.783 180.614 250.319 178.325 249.23 178.009C248.141 177.692 249.351 176.103 247.745 176.003C246.139 175.903 247.362 173.694 245.546 174.14C243.731 174.586 244.799 172.315 242.708 172.818C240.617 173.321 239.975 170.722 238.952 172.474C237.929 174.226 236.564 172.155 236.496 173.832C236.428 175.509 235.437 174.101 235.391 175.856C235.346 177.61 237.539 179.561 237.854 180.2C238.168 180.838 239.934 183.02 239.934 183.02C240.484 184.019 241.12 184.968 241.836 185.857L249.016 184.521Z" fill="#99CC58"/>
<path d="M248.337 186.196C249.64 185.533 251.526 183.493 249.105 182.289C249.105 182.289 249.64 179.998 248.551 179.684C247.462 179.369 248.672 177.778 247.066 177.678C245.46 177.578 246.683 175.369 244.868 175.815C243.052 176.261 244.123 173.991 242.029 174.493C239.936 174.996 239.296 172.397 238.275 174.149C237.255 175.901 235.886 173.83 235.82 175.507C235.754 177.185 234.758 175.777 234.713 177.531C234.667 179.285 236.861 181.236 237.175 181.875C237.489 182.513 239.255 184.695 239.255 184.695C239.805 185.693 240.441 186.642 241.157 187.529L248.337 186.196Z" fill="#A2D167"/>
<path d="M239.052 178.482C240.223 177.379 241.588 174.634 238.649 174.115C238.649 174.115 238.503 171.53 237.253 171.532C236.002 171.535 236.797 169.481 235.062 169.869C233.326 170.256 233.938 167.544 232.157 168.574C230.376 169.604 230.79 166.876 228.74 168.049C226.69 169.221 225.198 166.672 224.665 168.839C224.132 171.005 222.041 169.232 222.487 171.014C222.934 172.795 221.451 171.625 221.95 173.493C222.449 175.36 225.367 176.75 225.902 177.327C226.437 177.904 228.977 179.67 228.977 179.67C229.868 180.557 230.835 181.364 231.868 182.083L239.052 178.482Z" fill="#86C33A"/>
<path d="M237.408 179.582C238.472 178.584 239.711 176.096 237.041 175.618C237.041 175.618 236.909 173.271 235.775 173.271C234.64 173.271 235.353 171.408 233.784 171.761C232.214 172.114 232.763 169.649 231.146 170.584C229.529 171.519 229.916 169.042 228.05 170.108C226.185 171.175 224.834 168.857 224.349 170.824C223.863 172.791 221.966 171.184 222.371 172.802C222.777 174.421 221.428 173.357 221.882 175.052C222.335 176.748 224.989 178.011 225.472 178.536C225.954 179.061 228.264 180.664 228.264 180.664C229.073 181.469 229.952 182.201 230.891 182.853L237.408 179.582Z" fill="#99CC58"/>
<path d="M237.232 181.386C238.294 180.385 239.535 177.9 236.865 177.42C236.865 177.42 236.733 175.072 235.599 175.075C234.464 175.077 235.175 173.212 233.606 173.563C232.036 173.914 232.587 171.453 230.97 172.388C229.353 173.323 229.74 170.846 227.872 171.91C226.004 172.974 224.656 170.661 224.17 172.628C223.685 174.595 221.788 172.988 222.195 174.604C222.603 176.22 221.252 175.159 221.706 176.854C222.159 178.549 224.813 179.815 225.293 180.338C225.774 180.861 228.086 182.466 228.086 182.466C228.896 183.27 229.775 184.003 230.713 184.657L237.232 181.386Z" fill="#A2D167"/>
<path d="M196.074 188.098L197.277 182.916L201.701 181.105L201.509 178.581L203.915 177.223L209.248 175.369L211.027 174.763L212.393 174.661L214.567 173.244L216.617 173.09L218.439 172.954L219.617 173.45L222.259 172.209L225.599 171.304C226.332 171.247 228.476 171.091 229.243 171.03C230.155 171.464 234.054 172.632 235.093 172.954C235.863 172.798 239.863 172.988 240.717 173.004L242.089 175.534C242.863 176.008 244.551 177.44 245.246 178.054L247.658 179.779L249.481 182.602L251.182 183.96C248.54 185.843 238.64 185.562 234.469 186.16C221.006 187.156 208.977 188.745 196.074 188.098Z" fill="#FFF0D3"/>
<path d="M211.523 178.409C211.453 178.907 210.79 179.654 211.361 180.025C212.106 180.268 212.122 179.081 212.334 178.62C212.391 178.167 211.699 177.993 211.523 178.409Z" fill="#C69C6D"/>
<path d="M217.776 177.223C218.273 177.144 219.057 176.725 218.394 176.252C218.187 176.219 217.975 176.236 217.777 176.302C217.579 176.369 217.399 176.482 217.255 176.632C217.221 176.708 217.209 176.791 217.222 176.873C217.234 176.955 217.27 177.032 217.325 177.094C217.38 177.156 217.452 177.201 217.532 177.224C217.612 177.247 217.697 177.247 217.776 177.223Z" fill="#C69C6D"/>
<path d="M222.671 179.242C222.599 179.717 222.961 180.385 223.46 179.921C223.544 179.758 223.581 179.575 223.567 179.392C223.553 179.209 223.488 179.033 223.38 178.884C223.315 178.831 223.236 178.798 223.152 178.788C223.068 178.779 222.984 178.794 222.909 178.832C222.833 178.869 222.771 178.928 222.729 179.001C222.687 179.073 222.667 179.156 222.671 179.24V179.242Z" fill="#C69C6D"/>
<path d="M231.801 179.858C232.125 179.804 232.633 179.921 232.756 179.523C232.954 178.808 231.799 178.864 231.443 179.154C231.39 179.218 231.356 179.297 231.346 179.38C231.337 179.463 231.352 179.548 231.39 179.622C231.428 179.697 231.487 179.759 231.56 179.801C231.633 179.843 231.717 179.863 231.801 179.858Z" fill="#C69C6D"/>
<path d="M230.428 175.299C230.952 175.405 231.417 174.79 230.884 174.466C230.162 174.133 229.483 175.159 230.428 175.299Z" fill="#C69C6D"/>
<path d="M239.866 179.833C240.39 179.939 240.854 179.326 240.321 179.002C239.599 178.667 238.921 179.695 239.866 179.833Z" fill="#C69C6D"/>
<path d="M236.661 176.598C237.016 176.476 237.663 176.386 237.492 175.865C237.264 175.335 236.392 175.691 236.125 176.008C236.089 176.084 236.077 176.17 236.09 176.254C236.103 176.337 236.14 176.416 236.197 176.479C236.254 176.541 236.328 176.586 236.411 176.608C236.493 176.629 236.58 176.626 236.661 176.598Z" fill="#C69C6D"/>
<path d="M223.865 183.371C224.386 183.478 224.853 182.862 224.32 182.538C223.591 182.203 222.912 183.231 223.865 183.371Z" fill="#C69C6D"/>
<path d="M215.289 182.728C215.731 182.536 216.763 182.117 216.036 181.596C215.614 181.49 215.047 181.852 214.758 182.14C214.722 182.216 214.71 182.301 214.723 182.384C214.735 182.467 214.772 182.545 214.828 182.608C214.885 182.67 214.958 182.715 215.04 182.737C215.122 182.758 215.208 182.755 215.289 182.728Z" fill="#C69C6D"/>
<path d="M204.009 184.446C204.398 184.166 204.583 183.448 203.92 183.432C203.093 183.584 203.038 185.048 204.009 184.446Z" fill="#C69C6D"/>
<path d="M205.145 180.261C205.466 180.206 205.974 180.324 206.1 179.926C206.296 179.21 205.143 179.267 204.785 179.557C204.731 179.621 204.698 179.7 204.688 179.784C204.679 179.867 204.694 179.951 204.732 180.026C204.771 180.101 204.83 180.163 204.904 180.205C204.977 180.247 205.061 180.266 205.145 180.261Z" fill="#C69C6D"/>
<path d="M225.405 174.677C225.963 174.303 225.387 173.472 224.888 173.963C224.332 174.337 224.908 175.17 225.405 174.677Z" fill="#C69C6D"/>
<path d="M242.531 182.11C243.168 182.205 243.269 181.227 242.613 181.248C241.975 181.153 241.875 182.133 242.531 182.11Z" fill="#C69C6D"/>
<path d="M234.838 183.127C235.359 183.233 235.826 182.619 235.293 182.296C234.571 181.961 233.888 182.988 234.838 183.127Z" fill="#C69C6D"/>
<path d="M229.48 182.228C229.553 181.753 229.191 181.096 228.692 181.549C228.609 181.712 228.572 181.896 228.586 182.078C228.6 182.261 228.664 182.437 228.772 182.586C228.837 182.639 228.916 182.673 229 182.682C229.083 182.691 229.168 182.676 229.243 182.639C229.319 182.601 229.381 182.542 229.423 182.47C229.465 182.397 229.485 182.314 229.48 182.23V182.228Z" fill="#C69C6D"/>
<path d="M210.321 184.68C210.429 184.664 210.527 184.608 210.595 184.523C210.663 184.439 210.696 184.331 210.688 184.223C210.679 184.115 210.63 184.014 210.55 183.941C210.469 183.868 210.364 183.827 210.255 183.828C210.147 183.844 210.049 183.9 209.981 183.985C209.913 184.069 209.88 184.177 209.888 184.285C209.896 184.393 209.946 184.494 210.026 184.567C210.106 184.64 210.212 184.68 210.321 184.68Z" fill="#C69C6D"/>
<path d="M198.808 185.427C199.366 185.053 198.788 184.222 198.291 184.713C197.735 185.087 198.311 185.918 198.808 185.427Z" fill="#C69C6D"/>
<path d="M245.446 181.891C245.97 181.997 246.437 181.384 245.902 181.06C245.182 180.725 244.501 181.753 245.446 181.891Z" fill="#C69C6D"/>
<path d="M240.407 175.421C240.515 175.406 240.613 175.35 240.681 175.265C240.749 175.181 240.782 175.074 240.774 174.966C240.766 174.858 240.717 174.757 240.637 174.684C240.558 174.61 240.453 174.57 240.344 174.57C240.236 174.586 240.138 174.641 240.07 174.726C240.002 174.81 239.969 174.917 239.977 175.025C239.985 175.133 240.034 175.234 240.114 175.307C240.194 175.381 240.299 175.422 240.407 175.421Z" fill="#C69C6D"/>
<path d="M227.897 172.865C228.448 172.825 228.382 171.974 227.831 172.014C227.723 172.03 227.625 172.086 227.557 172.171C227.489 172.255 227.456 172.362 227.464 172.471C227.473 172.579 227.522 172.68 227.602 172.753C227.683 172.826 227.788 172.866 227.897 172.865Z" fill="#C69C6D"/>
<path d="M210.924 177.203C211.032 177.187 211.13 177.131 211.198 177.046C211.267 176.962 211.3 176.855 211.291 176.747C211.283 176.638 211.234 176.538 211.153 176.464C211.073 176.391 210.967 176.351 210.858 176.352C210.75 176.367 210.653 176.423 210.584 176.508C210.516 176.592 210.483 176.7 210.492 176.808C210.5 176.916 210.549 177.017 210.63 177.09C210.71 177.163 210.815 177.204 210.924 177.203Z" fill="#C69C6D"/>
<path d="M213.027 181.716C212.437 192.439 195.644 191.572 194.505 181.119C194.997 170.74 212.006 171.528 213.027 181.716Z" fill="white"/>
<path d="M211.549 183.018C212.034 189.657 200.047 190.558 199.523 183.923C199.036 177.277 211.025 176.383 211.549 183.018Z" fill="#EAAC3B"/>
<path d="M210.246 183.561C210.596 188.272 201.259 188.974 200.892 184.265C200.526 179.557 209.879 178.862 210.246 183.561Z" fill="#FFBC40"/>
<path d="M256.191 182.416C250.497 190.827 242.874 194.757 236.499 196.564C220.735 197.553 203.168 202.293 190.329 187.373L256.191 182.416Z" fill="#1A2E35"/>
<g style="mix-blend-mode:multiply">
<path d="M256.191 182.416C248.125 193.571 239.475 197.007 228.416 197.17C232.723 193.909 235.658 189.176 236.655 183.887L256.191 182.416Z" fill="#E6E6E6"/>
</g>
<g style="mix-blend-mode:multiply">
<path d="M252.601 182.984L245.132 182.538L237.526 182.42L230.89 182.853L226.068 183.858L220.093 185.135L213.493 184.784L207.965 185.596L196.336 186.921L252.601 182.984Z" fill="#E6E7E8"/>
</g>
<path d="M211.897 195.762L214.733 196.172L218.123 195.251L219.872 196.912L218.446 199.246L216.355 199.927L214.724 198.71L211.435 198.105L211.897 195.762Z" fill="#FF9683"/>
<path d="M216.348 199.927C216.348 199.927 216.575 194.651 218.222 195.78L221.466 197.591C221.466 197.591 220.801 200.24 216.348 199.927Z" fill="#FF9683"/>
<path d="M167.571 161.541C162.915 155.848 153.507 158.39 152.65 165.676C152.575 166.303 152.422 166.982 152.545 167.682C154.14 176.345 180.291 190.656 180.291 190.656L212.865 199.312L214.298 195.636L185.539 183.518L167.571 161.541Z" fill="#00D18F"/>
<path d="M318.701 37.7484C318.701 37.7484 303.27 25.561 291.727 37.7484C280.185 49.9359 265.009 39.8989 262.857 49.2206C260.704 58.5423 270.602 59.2576 282.249 58.54C293.896 57.8225 303.27 67.1419 311.206 64.2761C319.143 61.4103 321.685 54.2391 333.758 54.2391C345.831 54.2391 352.073 33.1261 318.701 37.7484Z" fill="white"/>
<path d="M485.104 135.683C485.104 135.683 477.077 129.345 471.07 135.683C465.063 142.021 457.174 136.801 456.035 141.65C454.896 146.499 460.067 146.872 466.127 146.501C472.186 146.13 477.061 150.976 481.193 149.484C485.325 147.993 486.66 144.262 492.931 144.262C499.202 144.262 502.469 133.277 485.104 135.683Z" fill="white"/>
<path d="M356.061 107.263C356.061 107.263 346.817 99.9626 339.903 107.263C332.99 114.563 323.896 108.551 322.607 114.135C321.318 119.72 327.249 120.148 334.225 119.717C341.2 119.287 346.817 124.872 351.571 123.154C356.325 121.436 357.856 117.141 365.086 117.141C372.316 117.141 376.052 104.494 356.061 107.263Z" fill="white"/>
<path d="M118.072 82.5573C120.555 82.5573 122.467 82.9398 123.808 83.7049C125.048 84.3694 126.059 85.3871 126.713 86.6273C127.318 87.8585 127.635 89.2095 127.642 90.5796C127.668 92.0374 127.631 93.4318 127.53 94.7628C127.342 96.3669 126.968 97.9438 126.414 99.4622C125.811 101.175 124.944 102.785 123.845 104.234C122.705 105.735 121.275 106.993 119.637 107.935C117.949 108.922 115.938 109.415 113.605 109.415C111.422 109.415 109.696 108.984 108.43 108.121C107.211 107.31 106.223 106.201 105.562 104.899C104.912 103.603 104.509 102.199 104.371 100.757C104.223 99.4037 104.198 98.0401 104.295 96.6824C104.453 95.1767 104.842 93.7039 105.45 92.3158C106.142 90.6505 107.07 89.0923 108.207 87.6889C109.388 86.2271 110.825 84.99 112.45 84.0377C114.152 83.0405 116.097 82.5283 118.072 82.5573ZM114.945 152.121C114.589 152.964 114.338 153.846 114.2 154.749C114.1 155.515 113.948 156.02 113.744 156.266C113.644 156.757 113.434 157.018 113.111 157.043C112.788 157.067 112.478 156.907 112.182 156.563C110.989 155.526 110.158 154.453 109.687 153.344C109.213 152.229 108.948 151.038 108.904 149.828C108.88 148.27 109.12 146.719 109.612 145.24C110.141 143.544 110.788 141.887 111.548 140.28C112.318 138.653 113.125 137.137 113.968 135.73C114.81 134.324 115.506 133.177 116.054 132.29C116.7 131.203 117.754 129.451 119.218 127.033C120.682 124.616 122.333 121.865 124.17 118.782C126.006 115.699 127.956 112.468 130.018 109.087C132.08 105.707 134.029 102.501 135.863 99.469C137.699 96.4327 139.313 93.7555 140.704 91.4375C142.095 89.1196 143.088 87.4671 143.683 86.4802C144.824 84.8036 145.941 83.0402 147.034 81.19C148.134 79.3211 149.105 77.3796 149.939 75.3792C150.336 74.5441 150.624 73.6616 150.795 72.7534C150.86 72.2381 150.972 71.7297 151.13 71.2345C151.278 70.7433 151.513 70.483 151.836 70.4581C152.16 70.4332 152.494 70.5939 152.843 70.9402C155.075 72.9141 156.138 75.1831 156.032 77.747C156.132 79.0795 155.922 80.5849 155.401 82.263C154.872 83.958 154.225 85.6144 153.465 87.2204C152.692 88.8487 151.885 90.3902 151.043 91.845C150.202 93.2998 149.507 94.4716 148.959 95.3604C148.312 96.447 147.257 98.1825 145.793 100.567C144.329 102.951 142.666 105.677 140.804 108.743C138.942 111.804 136.994 115.01 134.959 118.364C132.924 121.717 130.981 124.906 129.132 127.93C127.271 130.937 125.621 133.614 124.18 135.959C122.738 138.304 121.722 139.967 121.129 140.948C120.879 141.342 120.633 141.786 120.384 142.279C120.136 142.773 119.788 143.411 119.341 144.203C118.895 144.995 118.323 146.014 117.628 147.275C116.933 148.536 116.036 150.15 114.945 152.121ZM118.298 85.5181C117.303 85.5181 116.409 86.1104 115.617 87.2951C114.771 88.5778 114.083 89.9563 113.567 91.4013C113.016 92.8866 112.567 94.4075 112.225 95.9535C111.98 96.9781 111.793 98.0158 111.667 99.0615C111.617 99.6048 111.579 100.295 111.555 101.133C111.53 101.976 111.593 102.819 111.742 103.65C111.862 104.414 112.14 105.145 112.56 105.796C112.956 106.386 113.577 106.682 114.423 106.683C115.365 106.683 116.233 106.252 117.029 105.388C117.901 104.405 118.617 103.294 119.15 102.095C119.799 100.679 120.309 99.2047 120.674 97.692C121.058 96.1725 121.334 94.6278 121.498 93.0696C121.696 90.8482 121.535 89.0373 121.015 87.6369C120.496 86.2364 119.59 85.5302 118.298 85.5181ZM149.203 119.19C151.684 119.19 153.595 119.572 154.936 120.338C156.178 121 157.19 122.018 157.841 123.26C158.449 124.493 158.767 125.846 158.772 127.219C158.795 128.674 158.758 130.067 158.661 131.4C158.471 133.004 158.096 134.581 157.542 136.099C156.937 137.819 156.057 139.431 154.936 140.873C153.777 142.368 152.335 143.625 150.693 144.572C149.002 145.562 146.992 146.056 144.661 146.053C142.474 146.053 140.748 145.621 139.483 144.758C138.265 143.948 137.279 142.839 136.619 141.539C135.969 140.242 135.565 138.837 135.428 137.394C135.28 136.041 135.254 134.677 135.353 133.32C135.452 132.038 135.837 130.583 136.508 128.953C137.204 127.283 138.145 125.724 139.301 124.328C140.5 122.867 141.95 121.627 143.583 120.666C145.284 119.67 147.229 119.159 149.203 119.19ZM149.431 122.151C148.437 122.151 147.544 122.742 146.749 123.925C145.903 125.209 145.215 126.588 144.699 128.034C144.148 129.518 143.7 131.039 143.358 132.584C143.114 133.609 142.928 134.646 142.799 135.692C142.749 136.235 142.712 136.926 142.688 137.765C142.664 138.608 142.726 139.45 142.875 140.28C142.994 141.045 143.273 141.776 143.695 142.426C144.091 143.019 144.711 143.316 145.556 143.316C146.499 143.316 147.368 142.884 148.162 142.021C149.035 141.037 149.752 139.927 150.287 138.727C150.935 137.311 151.446 135.837 151.813 134.325C152.195 132.803 152.469 131.257 152.633 129.698C152.829 127.479 152.668 125.668 152.148 124.265C151.629 122.861 150.721 122.157 149.426 122.151H149.431Z" fill="white"/>
</g>
<defs>
<clipPath id="clip0_67_370">
<rect width="606" height="396" fill="white"/>
</clipPath>
</defs>
</svg>
