<svg width="111" height="123" viewBox="0 0 111 123" fill="none" xmlns="http://www.w3.org/2000/svg">
<path d="M80.0747 92.4866C79.9481 92.3562 79.8449 92.1918 79.6916 92.1029C73.1036 88.2532 66.8661 84.0176 60.8233 79.6391C50.9643 72.5001 42.0863 64.3365 34.8752 55.1176C27.7111 45.9657 22.3764 35.892 19.3303 25.396C18.0062 20.8436 17.2161 16.2464 16.944 11.6699C16.8962 10.8681 16.8407 10.0657 16.7263 9.27503C16.6345 8.64323 16.1369 8.16874 15.6302 8.15024C14.9912 8.12952 14.5784 8.4921 14.4187 9.07042C14.1891 9.91172 13.9738 10.7671 13.8677 11.6394C13.4879 14.7685 13.7358 17.9611 14.2479 21.1632C15.4534 28.7382 18.1921 36.1819 21.9143 43.3462C26.4503 52.0823 32.5882 60.1951 39.7767 67.5708C45.4213 73.367 51.7672 78.6166 58.6159 83.3067C64.076 87.0453 70.0506 90.0414 76.0798 92.9251C76.8454 93.2897 77.683 93.5628 78.5082 93.7537C79.5646 93.9963 79.8676 93.7003 80.0747 92.4866Z" fill="#28B3DD"/>
<path d="M103.93 100.296C102.692 100.909 101.509 100.8 100.4 100.819C94.437 100.923 88.4166 100.698 82.3773 100.271C79.1187 100.039 75.8536 99.7764 72.5827 99.4901C71.6467 99.4069 70.7054 99.5368 69.8041 99.6663C69.562 99.6998 69.3724 100.099 69.3418 100.369C69.3229 100.547 69.6019 100.914 69.8117 100.988C70.6525 101.285 71.5153 101.579 72.3762 101.714C80.2566 102.962 88.1397 103.753 95.972 104.05C98.4844 104.146 100.98 104.061 103.463 103.954C104.509 103.909 105.584 103.853 106.553 103.608C108.844 103.027 109.644 101.346 108.537 99.5053C107.936 98.5035 107.132 97.5283 106.228 96.6964C102.597 93.365 98.711 90.362 94.7203 87.4877C93.7102 86.7601 92.7154 86.0195 91.7187 85.2853C91.043 84.788 90.2968 84.7106 89.7492 85.054C89.2302 85.378 89.0163 86.1113 89.345 86.7567C89.5724 87.2006 89.9029 87.612 90.2195 88.021C91.7696 90.0129 93.5893 91.8295 95.6513 93.4749C97.6348 95.0583 99.6564 96.6192 101.7 98.1731C102.486 98.7672 103.342 99.3287 103.93 100.296Z" fill="#28B3DD"/>
</svg>
