<svg width="112" height="112" viewBox="0 0 112 112" fill="none" xmlns="http://www.w3.org/2000/svg">
<rect width="112" height="112" rx="24" fill="#F2FCFF"/>
<path fill-rule="evenodd" clip-rule="evenodd" d="M63.9345 57.1514C63.4594 55.808 62.5795 54.6449 61.416 53.8222C60.2525 52.9996 58.8626 52.5578 57.4377 52.5578V50.8354H53.993V52.5578C52.1658 52.5578 50.4134 53.2837 49.1214 54.5757C47.8294 55.8677 47.1035 57.6201 47.1035 59.4473C47.1035 61.2745 47.8294 63.0268 49.1214 64.3189C50.4134 65.6109 52.1658 66.3367 53.993 66.3367V73.2262C52.4945 73.2262 51.2182 72.2703 50.7429 70.9303C50.6723 70.7111 50.5586 70.5082 50.4083 70.3337C50.258 70.1592 50.0742 70.0166 49.8678 69.9144C49.6615 69.8122 49.4367 69.7524 49.2068 69.7385C48.977 69.7247 48.7466 69.7571 48.5295 69.8338C48.3123 69.9105 48.1128 70.03 47.9426 70.1852C47.7725 70.3404 47.6352 70.5281 47.5388 70.7373C47.4425 70.9465 47.3891 71.1728 47.3818 71.403C47.3745 71.6332 47.4134 71.8625 47.4962 72.0774C47.9713 73.4208 48.8512 74.5839 50.0147 75.4065C51.1781 76.2292 52.568 76.6709 53.993 76.6709V78.3933H57.4377V76.6709C59.2649 76.6709 61.0173 75.9451 62.3093 74.6531C63.6013 73.361 64.3272 71.6087 64.3272 69.7815C64.3272 67.9543 63.6013 66.2019 62.3093 64.9099C61.0173 63.6179 59.2649 62.892 57.4377 62.892V56.0025C58.1501 56.0024 58.845 56.2231 59.4268 56.6342C60.0085 57.0454 60.4485 57.6269 60.6861 58.2985C60.8382 58.7292 61.1552 59.0819 61.5674 59.2789C61.7714 59.3765 61.9927 59.4329 62.2186 59.445C62.4445 59.457 62.6705 59.4244 62.8838 59.3491C63.0971 59.2738 63.2935 59.1572 63.4617 59.006C63.63 58.8548 63.7668 58.6719 63.8643 58.4678C63.9619 58.2638 64.0183 58.0425 64.0303 57.8166C64.0424 57.5907 64.0098 57.3647 63.9345 57.1514ZM53.993 56.0025C53.0794 56.0025 52.2032 56.3655 51.5572 57.0115C50.9112 57.6575 50.5482 58.5337 50.5482 59.4473C50.5482 60.3609 50.9112 61.2371 51.5572 61.8831C52.2032 62.5291 53.0794 62.892 53.993 62.892V56.0025ZM57.4377 73.2262C58.3513 73.2262 59.2275 72.8633 59.8735 72.2173C60.5195 71.5713 60.8824 70.6951 60.8824 69.7815C60.8824 68.8679 60.5195 67.9917 59.8735 67.3457C59.2275 66.6997 58.3513 66.3367 57.4377 66.3367V73.2262Z" fill="#28B3DD"/>
<path fill-rule="evenodd" clip-rule="evenodd" d="M37.0325 29.5143C41.2592 27.4458 48.1935 25 55.7822 25C63.2125 25 69.9642 27.3441 74.1685 29.3851L74.4061 29.5005C75.6738 30.1275 76.6969 30.72 77.4168 31.2005L71.0544 40.5013C85.7221 55.4962 97.0518 87 55.7822 87C14.5126 87 25.5375 56.068 40.3326 40.5013L34.0115 31.2005C34.4989 30.8819 35.1173 30.5116 35.8544 30.1189C36.2196 29.9225 36.6123 29.721 37.0325 29.516V29.5143ZM66.9655 40.3773L72.0586 32.9315C67.3221 33.2725 61.6865 34.3852 56.261 35.956C52.3857 37.0755 48.0798 36.905 44.0925 36.1695C43.0877 35.9833 42.0899 35.7615 41.1008 35.5047L44.4077 40.3738C51.4952 42.8971 59.8763 42.8971 66.9655 40.3773ZM42.4184 43.3087C50.7116 46.5123 60.6789 46.5123 68.9721 43.3053C72.4338 46.9545 75.3296 51.1014 77.5632 55.6082C79.8919 60.3584 81.1595 65.107 80.9529 69.1993C80.7531 73.1487 79.1995 76.5228 75.6514 79.0306C71.9535 81.6434 65.734 83.5553 55.7805 83.5553C45.8166 83.5553 39.5679 81.6762 35.8355 79.0926C32.2616 76.6158 30.6925 73.2882 30.4703 69.3923C30.2378 65.3447 31.4779 60.6202 33.7979 55.8372C36.0112 51.2764 39.0994 46.8861 42.4184 43.3087ZM40.4376 31.7448C41.8155 32.1547 43.2554 32.5112 44.716 32.7816C48.4191 33.4637 52.1325 33.5636 55.3017 32.6456C58.9948 31.5697 62.751 30.7235 66.5487 30.112C63.3796 29.1578 59.673 28.4447 55.7805 28.4447C49.8469 28.4447 44.313 30.0999 40.4376 31.7448Z" fill="#28B3DD"/>
</svg>
