<svg width="112" height="112" viewBox="0 0 112 112" fill="none" xmlns="http://www.w3.org/2000/svg">
<rect width="112" height="112" rx="24" fill="#F2FCFF"/>
<path d="M55 28V31H56H57V28V25H56H55V28Z" fill="#28B3DD"/>
<path d="M43.0621 26.925C42.4621 27.1125 42.1871 27.2625 42.1996 27.3875C42.2246 27.6625 43.8871 32.6625 43.9996 32.7875C44.0496 32.85 44.4996 32.775 44.9871 32.625C45.8121 32.3875 45.8746 32.3375 45.7996 32.0875C45.3746 30.6625 44.0871 26.8 44.0121 26.7375C43.9746 26.6875 43.5496 26.775 43.0621 26.925Z" fill="#28B3DD"/>
<path d="M67.9623 26.7126C67.8373 26.9251 66.0998 32.2626 66.1373 32.3001C66.3248 32.4626 67.9123 32.8751 67.9998 32.8001C68.1748 32.5876 69.8748 27.3251 69.7748 27.2376C69.7248 27.1876 69.3748 27.0501 68.9998 26.9376C68.6248 26.8126 68.2498 26.6876 68.1748 26.6626C68.0873 26.6376 67.9998 26.6501 67.9623 26.7126Z" fill="#28B3DD"/>
<path d="M30.2879 32.0249L29.5254 32.5249L29.9754 33.2374C30.6504 34.2999 32.6379 37.2999 32.7629 37.4249C32.8129 37.4874 33.2129 37.3124 33.6754 37.0124L34.4879 36.4749L33.5754 35.0874C31.9379 32.5499 31.2129 31.4999 31.1379 31.5124C31.1004 31.5124 30.7129 31.7499 30.2879 32.0249Z" fill="#28B3DD"/>
<path d="M79.1379 33.9626L77.5254 36.4251L78.3379 36.9751C78.7879 37.2751 79.2004 37.4751 79.2504 37.4126C79.3004 37.3626 80.0504 36.2376 80.9129 34.9126L82.4879 32.5126L81.7004 32.0126C81.2754 31.7251 80.8879 31.5001 80.8379 31.5001C80.8004 31.5001 80.0254 32.6126 79.1379 33.9626Z" fill="#28B3DD"/>
<path d="M42.3125 41.3125C42 41.6125 42 41.6125 42 44.3125V47H34.3125H26.6125L26.3125 47.3125L26 47.6125V56V64.3875L26.3125 64.6875L26.6125 65H34.3125H42V65.6875C42 66.2625 42.05 66.4375 42.3125 66.6875L42.6125 67H56H69.3875L69.6875 66.6875C69.95 66.4375 70 66.2625 70 65.6875V65H77.6875H85.3875L85.6875 64.6875L86 64.3875V56V47.6125L85.6875 47.3125L85.3875 47H77.6875H70V44.3125C70 41.6125 70 41.6125 69.6875 41.3125L69.3875 41H56H42.6125L42.3125 41.3125ZM52 47.1875V51.3875L52.3125 51.6875L52.6125 52H56H59.3875L59.6875 51.6875L60 51.3875V47.1875V43H64H68V54V65H56H44V54V43H48H52V47.1875ZM58 46.5V50H56H54V46.5V43H56H58V46.5ZM32 51.1875C32 54.175 31.8125 54 35 54C38.1875 54 38 54.175 38 51.1875V49H40H42V56V63H35H28V56V49H30H32V51.1875ZM36 50.5V52H35H34V50.5V49H35H36V50.5ZM74 51.1875C74 54.175 73.8125 54 77 54C80.1875 54 80 54.175 80 51.1875V49H82H84V56V63H77H70V56V49H72H74V51.1875ZM78 50.5V52H77H76V50.5V49H77H78V50.5Z" fill="#28B3DD"/>
<path d="M35.7502 70.0874C35.3502 70.2374 35.0752 70.6124 34.4127 71.9374C34.0252 72.6874 33.7002 73.3249 33.6877 73.3499C33.6627 73.3749 32.9002 73.4999 31.9752 73.6374C30.5127 73.8499 30.2752 73.9124 30.0252 74.1999C29.5127 74.7749 29.6377 75.0499 31.0252 76.4499L32.3002 77.7499L32.0252 79.3374C31.8752 80.2249 31.7502 81.0374 31.7502 81.1624C31.7502 81.4999 32.3127 81.9999 32.6877 81.9999C32.8752 81.9999 33.6877 81.6499 34.5127 81.2249L36.0002 80.4374L37.5377 81.2249C38.3752 81.6624 39.1877 82.0124 39.3502 81.9999C39.6877 81.9999 40.2502 81.4749 40.2502 81.1624C40.2502 81.0374 40.1252 80.2249 39.9752 79.3374L39.7002 77.7499L40.9752 76.4499C42.3627 75.0499 42.4877 74.7749 41.9752 74.1874C41.7252 73.9124 41.4877 73.8374 40.0002 73.6124C39.0752 73.4749 38.3127 73.3499 38.3002 73.3374C38.2877 73.3249 37.9377 72.6249 37.5127 71.7874C36.8502 70.4999 36.6877 70.2499 36.3502 70.1374C36.1377 70.0624 35.9627 69.9999 35.9502 70.0124C35.9377 70.0124 35.8502 70.0499 35.7502 70.0874ZM36.4502 74.1374C36.6502 74.5624 36.9252 74.9874 37.0627 75.0749C37.2002 75.1624 37.6877 75.2999 38.1627 75.3749L39.0002 75.5249L38.3002 76.2874C37.5252 77.1124 37.5627 76.9624 37.8252 78.5999L37.9127 79.1249L36.9502 78.6749L36.0002 78.2249L35.0502 78.6749L34.0877 79.1249L34.1752 78.5999C34.4377 76.9624 34.4752 77.1124 33.7002 76.2874L33.0002 75.5249L33.8377 75.3749C34.3127 75.2999 34.8002 75.1624 34.9377 75.0749C35.0752 74.9874 35.3502 74.5624 35.5502 74.1374C35.7502 73.7249 35.9627 73.3749 36.0002 73.3749C36.0377 73.3749 36.2502 73.7249 36.4502 74.1374Z" fill="#28B3DD"/>
<path d="M75.7506 70.0875C75.3506 70.2375 75.0756 70.6125 74.4131 71.9375C74.0256 72.6875 73.7006 73.325 73.6881 73.35C73.6631 73.375 72.9006 73.5 71.9756 73.6375C70.5131 73.85 70.2756 73.9125 70.0381 74.2C69.5131 74.775 69.6381 75.05 71.0256 76.45L72.3006 77.75L72.0256 79.3375C71.8756 80.225 71.7506 81.0375 71.7506 81.1625C71.7506 81.5 72.3131 82 72.6881 82C72.8756 82 73.7006 81.65 74.5131 81.225L76.0006 80.4375L77.5006 81.225C78.3131 81.65 79.1381 82 79.3131 82C79.6881 82 80.2506 81.5 80.2506 81.1625C80.2506 81.0375 80.1256 80.225 79.9756 79.3375L79.7006 77.75L80.9756 76.45C82.3631 75.05 82.4881 74.775 81.9756 74.1875C81.7256 73.9125 81.4881 73.8375 80.0006 73.6125C79.0756 73.475 78.3131 73.35 78.3006 73.3375C78.2881 73.325 77.9381 72.625 77.5131 71.7875C76.8506 70.5 76.6881 70.25 76.3506 70.1375C76.1381 70.0625 75.9631 70 75.9506 70.0125C75.9381 70.0125 75.8506 70.05 75.7506 70.0875ZM76.4506 74.1375C76.6506 74.5625 76.9256 74.9875 77.0631 75.075C77.2006 75.1625 77.6881 75.3 78.1631 75.375L79.0006 75.525L78.3006 76.2875C77.5256 77.1125 77.5631 76.9625 77.8256 78.6L77.9131 79.125L76.9506 78.675L76.0006 78.225L75.0506 78.675L74.0881 79.125L74.1756 78.6C74.4381 76.9625 74.4756 77.1125 73.7006 76.2875L73.0006 75.525L73.8381 75.375C74.3131 75.3 74.8006 75.1625 74.9381 75.075C75.0756 74.9875 75.3506 74.5625 75.5506 74.1375C75.7506 73.725 75.9631 73.375 76.0006 73.375C76.0381 73.375 76.2506 73.725 76.4506 74.1375Z" fill="#28B3DD"/>
<path d="M55.6875 71.125C55.275 71.2875 55.1125 71.5375 54.0625 73.6625L53.0625 75.6875L51.25 75.95C50.25 76.1 49.1625 76.2625 48.825 76.3125C48.1125 76.4125 47.625 76.825 47.625 77.325C47.625 77.6 48 78.0375 49.4375 79.5L51.25 81.325L50.875 83.4375C50.4 86.1125 50.4 86.4 50.825 86.7375C51.0125 86.8875 51.275 87 51.4125 87C51.55 87 52.65 86.4875 53.8375 85.875L56.0125 84.7375L58.175 85.875C59.3625 86.4875 60.45 87 60.5875 87C60.725 87 60.9875 86.8875 61.175 86.7375C61.6 86.4 61.6 86.1125 61.125 83.4375L60.75 81.325L62.5625 79.5C64 78.0375 64.375 77.6 64.375 77.325C64.375 76.85 63.8875 76.4125 63.2375 76.3125C62.9375 76.275 61.85 76.1125 60.825 75.9625L58.9625 75.6875L57.8625 73.4875C56.875 71.525 56.7125 71.2625 56.3625 71.1375C56.1375 71.0625 55.9625 71 55.95 71.0125C55.9375 71.0125 55.825 71.0625 55.6875 71.125ZM56.775 75.8125C57.175 76.6 57.625 77.325 57.775 77.425C57.9375 77.5125 58.7375 77.6875 59.5625 77.8125C60.3875 77.925 61.075 78.0375 61.1 78.0625C61.125 78.0875 60.65 78.575 60.05 79.15C59.45 79.7125 58.9 80.35 58.8125 80.5375C58.7 80.825 58.7125 81.1875 58.9375 82.5125C59.0875 83.4 59.1875 84.125 59.1625 84.125C59.1375 84.125 58.4875 83.7875 57.7125 83.375C56.925 82.9625 56.1625 82.625 56 82.625C55.8375 82.625 55.075 82.9625 54.3 83.375C53.525 83.7875 52.875 84.125 52.8375 84.125C52.8125 84.125 52.9125 83.4 53.0625 82.5125C53.2875 81.175 53.3 80.825 53.1875 80.5375C53.1 80.35 52.55 79.7125 51.95 79.1375C51.35 78.5625 50.8875 78.075 50.9 78.05C50.925 78.0375 51.6125 77.925 52.4375 77.8125C53.2625 77.6875 54.0625 77.5125 54.225 77.425C54.375 77.325 54.825 76.6 55.225 75.8125C55.6125 75.025 55.9625 74.375 56 74.375C56.0375 74.375 56.3875 75.025 56.775 75.8125Z" fill="#28B3DD"/>
</svg>
