<svg width="250" height="250" viewBox="0 0 250 250" fill="none" xmlns="http://www.w3.org/2000/svg">
<mask id="mask0_1627_771" style="mask-type:alpha" maskUnits="userSpaceOnUse" x="0" y="0" width="250" height="250">
<rect width="250" height="250" fill="#D9D9D9"/>
</mask>
<g mask="url(#mask0_1627_771)">
<path d="M195.211 51.6296C172.496 29.8295 140.134 35.8129 122.343 52.2977C109.35 64.3369 88.8854 81.8485 73.0414 81.0855C57.3543 80.3297 39.3947 69.4302 19.8844 77.8077C0.626297 86.0771 -4.63701 113.414 4.0677 134.317C12.8096 155.31 44.6853 172.346 83.2817 188.245C99.5274 194.938 114.529 197.141 128.05 196.995C128.05 196.995 162.963 196.634 176.086 188.236C186.363 181.659 190.738 177.34 201.845 160.572C210.251 147.883 215.859 130.036 216.492 112.755C217.265 91.6362 212.184 67.9188 195.211 51.6296Z" fill="#28B3DD"/>
<g opacity="0.800003">
<path d="M195.211 51.6298C172.496 29.8298 140.134 35.8132 122.343 52.298C109.35 64.3371 88.8854 81.8488 73.0414 81.0857C57.3543 80.33 39.3947 69.4305 19.8844 77.8079C0.626297 86.0774 -4.63701 113.414 4.0677 134.317C12.8096 155.31 44.6853 172.346 83.2817 188.246C99.5274 194.938 114.529 197.141 128.05 196.996C128.05 196.996 162.963 196.635 176.086 188.236C186.363 181.659 190.738 177.34 201.845 160.572C210.251 147.883 215.859 130.037 216.492 112.755C217.265 91.6365 212.184 67.9191 195.211 51.6298Z" fill="white"/>
</g>
<path d="M228.648 67.7563C205.933 45.9563 173.571 51.9396 155.781 68.4244C142.788 80.4636 122.323 97.9752 106.479 97.2122C90.7918 96.4565 72.8322 85.557 53.3219 93.9344C34.0638 102.204 28.8005 129.541 37.5052 150.444C46.2471 171.437 78.1228 188.473 116.719 204.372C132.965 211.065 147.967 213.267 161.487 213.122C161.487 213.122 196.401 212.761 209.523 204.363C219.8 197.786 224.176 193.467 235.283 176.699C243.689 164.009 249.297 146.163 249.929 128.882C250.702 107.763 245.621 84.0455 228.648 67.7563Z" fill="#28B3DD"/>
<g opacity="0.800003">
<path d="M228.65 67.7561C205.935 45.956 173.573 51.9394 155.783 68.4242C142.79 80.4633 122.325 97.975 106.481 97.2119C90.7937 96.4562 72.8342 85.5567 53.3238 93.9342C34.0658 102.204 28.8024 129.541 37.5071 150.443C46.2491 171.436 78.1247 188.472 116.721 204.372C132.967 211.064 147.969 213.267 161.489 213.122C161.489 213.122 196.403 212.761 209.525 204.362C219.802 197.785 224.177 193.467 235.285 176.699C243.691 164.009 249.299 146.163 249.931 128.881C250.704 107.763 245.623 84.0453 228.65 67.7561Z" fill="white"/>
</g>
<path d="M215.22 188.995C215.22 192.218 171.276 194.831 117.069 194.831C62.8616 194.831 18.918 192.218 18.918 188.995C18.918 185.772 62.8616 183.159 117.069 183.159C171.276 183.159 215.22 185.772 215.22 188.995Z" fill="#28B3DD"/>
<g opacity="0.600006">
<path d="M215.22 188.994C215.22 192.218 171.276 194.83 117.069 194.83C62.8616 194.83 18.918 192.218 18.918 188.994C18.918 185.772 62.8616 183.159 117.069 183.159C171.276 183.159 215.22 185.772 215.22 188.994Z" fill="white"/>
</g>
<path d="M205.835 178.532H31.4258V70.8087C31.4258 67.7806 33.8807 65.3257 36.9094 65.3257H200.352C203.38 65.3257 205.835 67.7806 205.835 70.8087V178.532Z" fill="#28B3DD"/>
<path d="M205.835 178.532H31.4258V70.8087C31.4258 67.7806 33.8807 65.3257 36.9094 65.3257H200.352C203.38 65.3257 205.835 67.7806 205.835 70.8087V178.532Z" stroke="#1A2E35" stroke-width="1.228" stroke-miterlimit="10"/>
<path d="M198.758 164.735H38.5V74.1701H198.758V164.735Z" fill="white"/>
<g opacity="0.399994">
<path d="M198.766 164.734V87.4288L66.2031 164.734H198.766Z" fill="#28B3DD"/>
</g>
<path d="M198.762 164.735H38.5039V74.1701H198.762V164.735Z" stroke="#1A2E35" stroke-width="0.92" stroke-miterlimit="10"/>
<path d="M178.965 178.988H59.1016V173.082H178.965V178.988Z" fill="#28B3DD" stroke="#1A2E35" stroke-width="0.922667" stroke-miterlimit="10"/>
<path d="M178.965 178.988H59.1016V175.926H178.965V178.988Z" fill="#28B3DD" stroke="#1A2E35" stroke-width="0.922667" stroke-miterlimit="10"/>
<path d="M17.3242 182.488C17.3242 182.488 19.2925 184.894 25.1987 186.862H212.867C212.867 186.862 217.242 185.769 219.211 182.706L17.3242 182.488Z" fill="#28B3DD"/>
<path d="M17.3242 182.488C17.3242 182.488 19.2925 184.894 25.1987 186.862H212.867C212.867 186.862 217.242 185.769 219.211 182.706L17.3242 182.488Z" stroke="#1A2E35" stroke-width="1.228" stroke-miterlimit="10"/>
<path d="M218.22 182.778H18.3393C17.5579 182.778 16.9238 182.144 16.9238 181.362V179.594C16.9238 178.812 17.5579 178.178 18.3393 178.178H218.22C219.001 178.178 219.635 178.812 219.635 179.594V181.362C219.635 182.144 219.001 182.778 218.22 182.778Z" fill="#28B3DD"/>
<path d="M218.22 182.778H18.3393C17.5579 182.778 16.9238 182.144 16.9238 181.362V179.594C16.9238 178.812 17.5579 178.178 18.3393 178.178H218.22C219.001 178.178 219.635 178.812 219.635 179.594V181.362C219.635 182.144 219.001 182.778 218.22 182.778Z" stroke="#1A2E35" stroke-width="1.228" stroke-miterlimit="10"/>
<path d="M120.125 68.7489C120.125 67.9035 119.439 67.2181 118.594 67.2181C117.748 67.2181 117.062 67.9035 117.062 68.7489C117.062 69.5943 117.748 70.2798 118.594 70.2798C119.439 70.2798 120.125 69.5943 120.125 68.7489Z" fill="#1A2E35"/>
<path d="M98.3611 67.2178H60.0835C59.6608 67.2178 59.3184 66.8753 59.3184 66.4526C59.3184 66.0294 59.6608 65.6869 60.0835 65.6869H98.3611C98.7838 65.6869 99.1267 66.0294 99.1267 66.4526C99.1267 66.8753 98.7838 67.2178 98.3611 67.2178Z" fill="#28B3DD"/>
<path d="M98.3611 67.2178H60.0835C59.6608 67.2178 59.3184 66.8753 59.3184 66.4526C59.3184 66.0294 59.6608 65.6869 60.0835 65.6869H98.3611C98.7838 65.6869 99.1267 66.0294 99.1267 66.4526C99.1267 66.8753 98.7838 67.2178 98.3611 67.2178Z" stroke="#1A2E35" stroke-width="0.922667" stroke-miterlimit="10"/>
<path d="M176.447 67.2178H138.17C137.747 67.2178 137.404 66.8753 137.404 66.4526C137.404 66.0294 137.747 65.6869 138.17 65.6869H176.447C176.87 65.6869 177.213 66.0294 177.213 66.4526C177.213 66.8753 176.87 67.2178 176.447 67.2178Z" fill="#28B3DD"/>
<path d="M176.447 67.2178H138.17C137.747 67.2178 137.404 66.8753 137.404 66.4526C137.404 66.0294 137.747 65.6869 138.17 65.6869H176.447C176.87 65.6869 177.213 66.0294 177.213 66.4526C177.213 66.8753 176.87 67.2178 176.447 67.2178Z" stroke="#1A2E35" stroke-width="0.922667" stroke-miterlimit="10"/>
<path d="M204.336 97.1831C204.095 97.1831 203.898 96.987 203.898 96.7457V84.0594C203.898 83.8182 204.095 83.6221 204.336 83.6221C204.578 83.6221 204.774 83.8182 204.774 84.0594V96.7457C204.774 96.987 204.578 97.1831 204.336 97.1831Z" fill="#28B3DD"/>
<path d="M204.336 97.1831C204.095 97.1831 203.898 96.987 203.898 96.7457V84.0594C203.898 83.8182 204.095 83.6221 204.336 83.6221C204.578 83.6221 204.774 83.8182 204.774 84.0594V96.7457C204.774 96.987 204.578 97.1831 204.336 97.1831Z" stroke="#1A2E35" stroke-width="0.922667" stroke-miterlimit="10"/>
<path d="M33.0702 97.1831C32.829 97.1831 32.6328 96.987 32.6328 96.7457V84.0594C32.6328 83.8182 32.829 83.6221 33.0702 83.6221C33.312 83.6221 33.5076 83.8182 33.5076 84.0594V96.7457C33.5076 96.987 33.312 97.1831 33.0702 97.1831Z" fill="#28B3DD"/>
<path d="M33.0702 97.1831C32.829 97.1831 32.6328 96.987 32.6328 96.7457V84.0594C32.6328 83.8182 32.829 83.6221 33.0702 83.6221C33.312 83.6221 33.5076 83.8182 33.5076 84.0594V96.7457C33.5076 96.987 33.312 97.1831 33.0702 97.1831Z" stroke="#1A2E35" stroke-width="0.922667" stroke-miterlimit="10"/>
<g opacity="0.399994">
<path d="M34.6662 139.243C34.3751 138.657 33.987 137.245 34.2644 136.356C34.6887 134.999 36.9769 133.482 36.9769 133.482C36.9769 133.482 35.9516 133.733 34.8581 133.897C33.783 134.058 32.3555 134.294 32.3555 134.294L32.7173 136.833C33.2255 137.976 33.8208 138.91 34.6662 139.243Z" fill="#28B3DD"/>
</g>
<g opacity="0.399994">
<path d="M105.69 158.396L71.5059 178.331H105.69V158.396Z" fill="#28B3DD"/>
</g>
<g opacity="0.399994">
<path d="M206.49 141.554L133.264 184.256H206.49V141.554Z" fill="#28B3DD"/>
</g>
<path d="M201.82 187.077H169.622C167.4 187.077 165.598 185.275 165.598 183.052V115.078C165.598 112.856 167.4 111.053 169.622 111.053H201.82C204.043 111.053 205.845 112.856 205.845 115.078V183.052C205.845 185.275 204.043 187.077 201.82 187.077Z" fill="#1A2E35"/>
<path d="M204.056 178.729H167.387V119.402H204.056V178.729Z" fill="white"/>
<path d="M204.054 178.729H167.385V119.402H204.054V178.729Z" stroke="#1A2E35" stroke-width="0.704" stroke-miterlimit="10"/>
<path d="M189.707 115.249H181.735C181.435 115.249 181.191 115.006 181.191 114.705C181.191 114.405 181.435 114.162 181.735 114.162H189.707C190.008 114.162 190.251 114.405 190.251 114.705C190.251 115.006 190.008 115.249 189.707 115.249Z" fill="#28B3DD"/>
<g opacity="0.399994">
<path d="M189.709 115.249H181.737C181.437 115.249 181.193 115.006 181.193 114.705C181.193 114.405 181.437 114.162 181.737 114.162H189.709C190.01 114.162 190.253 114.405 190.253 114.705C190.253 115.006 190.01 115.249 189.709 115.249Z" fill="white"/>
</g>
<path d="M187.894 182.079C187.894 180.878 186.92 179.904 185.719 179.904C184.518 179.904 183.545 180.878 183.545 182.079C183.545 183.28 184.518 184.253 185.719 184.253C186.92 184.253 187.894 183.28 187.894 182.079Z" fill="#28B3DD"/>
<path d="M187.894 182.079C187.894 180.878 186.92 179.904 185.719 179.904C184.518 179.904 183.545 180.878 183.545 182.079C183.545 183.28 184.518 184.253 185.719 184.253C186.92 184.253 187.894 183.28 187.894 182.079Z" stroke="#1A2E35" stroke-width="0.938667" stroke-miterlimit="10"/>
<path d="M186.821 183.181H184.617V180.977H186.821V183.181Z" fill="#28B3DD" stroke="#1A2E35" stroke-width="0.704" stroke-miterlimit="10" stroke-linecap="round" stroke-linejoin="round"/>
<g opacity="0.600006">
<path d="M186.825 183.181H184.621V180.977H186.825V183.181Z" fill="white" stroke="#1A2E35" stroke-width="0.704" stroke-miterlimit="10" stroke-linecap="round" stroke-linejoin="round"/>
</g>
<path d="M186.821 183.181H184.617V180.977H186.821V183.181Z" stroke="#1A2E35" stroke-width="0.704" stroke-miterlimit="10" stroke-linecap="round" stroke-linejoin="round"/>
</g>
</svg>
