<svg width="156" height="55" viewBox="0 0 156 55" fill="none" xmlns="http://www.w3.org/2000/svg">
<path d="M24.0969 12.3417C25.8194 12.4971 27.507 12.9635 29.0381 13.7582C33.4747 16.0902 34.9014 20.0114 34.9014 25.2109V26.2474C34.9014 26.4547 34.7448 26.6102 34.536 26.6102H26.9503C26.7415 26.6102 26.5849 26.4547 26.5849 26.2474V22.6198C26.5849 22.378 26.4109 22.1707 26.1674 22.1189L17.8335 20.5987C17.2071 20.4778 16.6156 20.2878 16.0588 19.9941L0 11.8062C0 10.5106 1.25269 9.56052 2.52278 9.906L15.9892 14.2246C15.9892 14.9846 16.4764 15.6756 17.2071 15.9174L23.1922 17.5757C23.314 17.6103 23.4532 17.5239 23.4532 17.3857V17.1266C23.4532 16.7984 23.227 16.5047 22.8964 16.4184L18.425 15.261C17.6943 15.0192 17.2071 14.3282 17.2071 13.5681C17.2071 12.5317 18.1118 11.7371 19.1558 11.8753L24.0969 12.3417Z" fill="#28B3DD"/>
<path d="M27.4026 1.73571C24.5841 1.20022 20.8608 0.923828 16.9287 0.923828C12.9967 0.923828 9.2734 1.20022 6.47225 1.73571C3.07954 2.39213 1.58327 3.06583 1.51367 4.27502C1.51367 5.55331 3.00994 6.34792 6.47225 6.95252C9.2734 7.41892 13.0141 7.69531 16.9287 7.69531C20.8434 7.69531 24.5841 7.41892 27.3852 6.95252C30.8475 6.34792 32.3438 5.55331 32.3438 4.27502C32.2916 3.06583 30.7954 2.39213 27.4026 1.73571ZM30.2212 4.27502C29.8558 4.53413 28.5857 4.84507 26.5501 5.19055C23.9403 5.58786 20.4606 5.86425 16.9461 5.86425C13.4316 5.86425 9.93455 5.65696 7.34217 5.19055C5.28915 4.84507 4.03645 4.55141 3.65369 4.27502C3.5319 4.18865 3.4971 4.01591 3.65369 3.94681C4.87158 3.41131 9.06462 2.28849 16.9461 2.28849C24.8277 2.28849 29.6471 3.58405 30.2386 3.94681C30.3604 4.03318 30.343 4.18865 30.2212 4.27502Z" fill="#28B3DD"/>
<path d="M50.2116 12.2725V17.3856H58.3715V20.0286H50.2116V26.4546H47.0625V9.66406H59.4154V12.2725H50.2116Z" fill="#28B3DD"/>
<path d="M64.0788 25.7812C63.0349 25.2284 62.2172 24.4338 61.6256 23.4491C61.0341 22.4472 60.7383 21.3244 60.7383 20.0461C60.7383 18.7851 61.0341 17.6623 61.6256 16.6604C62.2172 15.6758 63.0349 14.8984 64.0788 14.3284C65.1227 13.7756 66.3058 13.4819 67.6107 13.4819C68.933 13.4819 70.1161 13.7583 71.16 14.3284C72.2039 14.8811 73.0216 15.6585 73.6132 16.6604C74.2047 17.645 74.5005 18.7851 74.5005 20.0461C74.5005 21.3071 74.2047 22.4472 73.6132 23.4491C73.0216 24.451 72.2039 25.2284 71.16 25.7812C70.1161 26.3339 68.933 26.6276 67.6107 26.6276C66.3058 26.6276 65.1227 26.3339 64.0788 25.7812ZM70.3596 22.9482C71.0904 22.2054 71.4558 21.238 71.4558 20.0461C71.4558 18.8542 71.0904 17.8869 70.3596 17.1441C69.6289 16.4013 68.7242 16.0385 67.6107 16.0385C66.4972 16.0385 65.5925 16.4013 64.8617 17.1441C64.1484 17.8869 63.783 18.8542 63.783 20.0461C63.783 21.238 64.1484 22.2054 64.8617 22.9482C65.5751 23.691 66.4972 24.0537 67.6107 24.0537C68.7068 24.0537 69.6289 23.691 70.3596 22.9482Z" fill="#28B3DD"/>
<path d="M79.6667 25.7812C78.6228 25.2284 77.805 24.4338 77.2135 23.4491C76.6219 22.4472 76.3262 21.3244 76.3262 20.0461C76.3262 18.7851 76.6219 17.6623 77.2135 16.6604C77.805 15.6758 78.6228 14.8984 79.6667 14.3284C80.7106 13.7756 81.8937 13.4819 83.1986 13.4819C84.5209 13.4819 85.704 13.7583 86.7479 14.3284C87.7918 14.8811 88.6095 15.6585 89.2011 16.6604C89.7926 17.645 90.0884 18.7851 90.0884 20.0461C90.0884 21.3071 89.7926 22.4472 89.2011 23.4491C88.6095 24.451 87.7918 25.2284 86.7479 25.7812C85.704 26.3339 84.5209 26.6276 83.1986 26.6276C81.8763 26.6276 80.7106 26.3339 79.6667 25.7812ZM85.9475 22.9482C86.6783 22.2054 87.0436 21.238 87.0436 20.0461C87.0436 18.8542 86.6783 17.8869 85.9475 17.1441C85.2168 16.4013 84.3121 16.0385 83.1986 16.0385C82.0851 16.0385 81.1804 16.4013 80.4496 17.1441C79.7363 17.8869 79.3709 18.8542 79.3709 20.0461C79.3709 21.238 79.7363 22.2054 80.4496 22.9482C81.163 23.691 82.0851 24.0537 83.1986 24.0537C84.3121 24.0537 85.2168 23.691 85.9475 22.9482Z" fill="#28B3DD"/>
<path d="M105.608 8.64502V26.4547H102.703V24.7964C102.198 25.401 101.589 25.8674 100.859 26.1611C100.128 26.472 99.3102 26.6102 98.4229 26.6102C97.1876 26.6102 96.0741 26.3338 95.0824 25.7983C94.0906 25.2628 93.3077 24.4855 92.751 23.4836C92.1942 22.4816 91.8984 21.3415 91.8984 20.046C91.8984 18.7504 92.1768 17.6103 92.751 16.6084C93.3077 15.6238 94.0906 14.8465 95.0824 14.311C96.0741 13.7755 97.1876 13.4991 98.4229 13.4991C99.2754 13.4991 100.058 13.6373 100.772 13.9309C101.485 14.2246 102.077 14.6564 102.581 15.2265V8.64502H105.608ZM100.754 23.5699C101.328 23.2417 101.798 22.7753 102.129 22.1707C102.459 21.5661 102.633 20.8579 102.633 20.0633C102.633 19.2686 102.459 18.5604 102.129 17.9558C101.798 17.3512 101.328 16.8848 100.754 16.5566C100.18 16.2284 99.519 16.0729 98.7882 16.0729C98.0575 16.0729 97.4138 16.2457 96.8222 16.5566C96.2481 16.8848 95.7783 17.3512 95.4477 17.9558C95.1172 18.5604 94.9432 19.2686 94.9432 20.0633C94.9432 20.8579 95.1172 21.5661 95.4477 22.1707C95.7783 22.7753 96.2481 23.2417 96.8222 23.5699C97.3964 23.8981 98.0575 24.0536 98.7882 24.0536C99.519 24.0536 100.18 23.8981 100.754 23.5699Z" fill="#28B3DD"/>
<path d="M121.667 21.0138H111.541C111.715 21.9639 112.185 22.7067 112.933 23.2594C113.681 23.8122 114.621 24.0886 115.717 24.0886C117.126 24.0886 118.309 23.6222 119.214 22.6894L120.832 24.5377C120.258 25.2287 119.527 25.7469 118.64 26.0924C117.752 26.4379 116.761 26.6279 115.647 26.6279C114.238 26.6279 112.985 26.3515 111.906 25.7815C110.828 25.2287 109.993 24.4341 109.401 23.4494C108.809 22.4475 108.514 21.3247 108.514 20.0464C108.514 18.8027 108.792 17.6799 109.366 16.678C109.94 15.6761 110.723 14.8987 111.75 14.3459C112.759 13.7932 113.907 13.4995 115.177 13.4995C116.43 13.4995 117.561 13.7759 118.553 14.3287C119.544 14.8814 120.31 15.6588 120.867 16.6607C121.423 17.6626 121.702 18.82 121.702 20.1328C121.702 20.3228 121.684 20.6165 121.667 21.0138ZM112.724 16.7471C112.063 17.3171 111.645 18.0772 111.506 19.01H118.831C118.709 18.0772 118.309 17.3344 117.648 16.7471C116.987 16.177 116.169 15.8833 115.177 15.8833C114.22 15.9006 113.403 16.177 112.724 16.7471Z" fill="#28B3DD"/>
<path d="M133.533 14.8469C134.542 15.7452 135.047 17.1098 135.047 18.9409V26.4552H132.194V24.9005C131.828 25.4532 131.289 25.8851 130.61 26.1788C129.932 26.4724 129.097 26.6279 128.14 26.6279C127.165 26.6279 126.33 26.4724 125.6 26.1442C124.869 25.816 124.312 25.3669 123.912 24.7796C123.512 24.1922 123.32 23.5358 123.32 22.793C123.32 21.6357 123.755 20.7201 124.608 20.0292C125.478 19.3382 126.835 18.9927 128.679 18.9927H132.02V18.8027C132.02 17.9044 131.741 17.2135 131.202 16.7471C130.662 16.2634 129.862 16.0215 128.801 16.0215C128.07 16.0215 127.357 16.1252 126.661 16.3498C125.965 16.5743 125.373 16.8853 124.886 17.2826L123.72 15.0887C124.399 14.5705 125.217 14.1905 126.156 13.9141C127.113 13.6377 128.122 13.4995 129.184 13.4995C131.08 13.4995 132.524 13.9486 133.533 14.8469ZM130.784 23.9158C131.376 23.5704 131.793 23.0867 132.037 22.4475V20.962H128.923C127.183 20.962 126.313 21.532 126.313 22.6721C126.313 23.2076 126.522 23.6395 126.974 23.9677C127.409 24.2959 128.018 24.4513 128.783 24.4513C129.514 24.4341 130.193 24.2613 130.784 23.9158Z" fill="#28B3DD"/>
<path d="M138.91 8.64502H141.938V26.4547H138.91V8.64502Z" fill="#28B3DD"/>
<path d="M146.809 26.213C145.817 25.9366 145.017 25.5911 144.408 25.1766L145.574 22.8964C146.148 23.2764 146.844 23.5873 147.662 23.8119C148.479 24.0365 149.28 24.1574 150.063 24.1574C151.872 24.1574 152.777 23.691 152.777 22.7409C152.777 22.2918 152.551 21.9808 152.081 21.8081C151.629 21.6354 150.88 21.4626 149.871 21.3071C148.81 21.1517 147.94 20.9617 147.279 20.7544C146.618 20.5471 146.026 20.1843 145.539 19.6661C145.052 19.1479 144.808 18.4224 144.808 17.4895C144.808 16.2804 145.313 15.2957 146.339 14.5702C147.366 13.8447 148.74 13.4819 150.48 13.4819C151.368 13.4819 152.255 13.5856 153.142 13.7756C154.03 13.9829 154.76 14.242 155.317 14.5875L154.151 16.8677C153.055 16.2285 151.82 15.9003 150.445 15.9003C149.558 15.9003 148.88 16.0385 148.427 16.2976C147.975 16.5567 147.731 16.9022 147.731 17.3341C147.731 17.8178 147.975 18.146 148.462 18.3533C148.949 18.5605 149.715 18.7333 150.741 18.9233C151.768 19.0788 152.62 19.2688 153.281 19.4761C153.943 19.6834 154.517 20.0289 154.987 20.5298C155.456 21.0308 155.7 21.7217 155.7 22.6373C155.7 23.8292 155.178 24.7965 154.134 25.522C153.09 26.2476 151.663 26.593 149.854 26.593C148.845 26.6276 147.818 26.4894 146.809 26.213Z" fill="#28B3DD"/>
<path d="M123.477 35.5068C123.477 33.6066 122.694 31.9656 121.128 30.5836C119.301 29.2017 117.387 28.5107 115.386 28.5107H114.76C113.299 28.5107 111.611 28.8735 109.714 29.6163C108.636 30.0654 107.54 30.7046 106.409 31.5165C105.939 31.7756 105.052 32.5875 103.764 33.9521C102.738 35.265 102.059 36.336 101.729 37.1997V37.286C101.729 37.3897 101.763 37.4933 101.816 37.597C102.337 38.2361 102.877 38.5643 103.434 38.5643H103.59C103.747 38.5643 103.886 38.4952 104.008 38.3743C104.338 37.6661 104.756 36.9578 105.26 36.1978C105.887 35.2822 106.826 34.2976 108.096 33.2611C110.932 31.2055 113.629 30.1691 116.221 30.1691H116.465C117.265 30.1691 117.961 30.3073 118.588 30.5664C120.467 31.361 121.389 32.8293 121.389 34.9886V35.1268C121.389 36.1114 121.215 37.2169 120.849 38.4607C120.258 40.5163 118.814 43.0211 116.552 45.9577C112.898 50.3626 109.819 52.5564 107.331 52.5564C107.157 52.5564 106.913 52.5391 106.583 52.5046C106.27 52.5046 106.061 51.9691 105.991 50.8808C105.991 49.9135 106.339 48.7388 107.052 47.3914C107.644 46.3032 108.288 45.3358 109.018 44.4721C108.514 46.7696 108.27 47.996 108.27 48.1342V48.186C108.41 48.5834 108.705 48.7734 109.175 48.7734H109.349C109.627 48.7734 109.854 48.6524 110.028 48.4279C110.758 45.8195 111.472 43.3493 112.185 41.0518C112.185 40.9654 112.603 40.5509 113.438 39.7908C114.882 38.5643 116.204 37.5797 117.405 36.8196C118.257 36.405 118.692 36.1632 118.709 36.0941V35.9386C118.535 35.4722 118.24 35.2304 117.857 35.2304C116.97 35.3513 115.352 36.3705 113.02 38.3052C113.838 35.6277 114.238 34.263 114.238 34.194L114.203 34.0039C113.82 33.4512 113.246 33.1575 112.516 33.1575H112.342C112.168 33.1575 112.011 33.2439 111.837 33.3993C111.385 34.9022 110.776 37.1306 110.01 40.0844C109.836 41.1036 109.68 41.6046 109.54 41.6046C105.869 45.664 104.025 48.7906 104.025 50.9845V51.1054C104.025 51.52 104.112 51.9 104.303 52.2455C105.086 53.4719 106.217 54.0765 107.679 54.0765H107.922C109.506 54.0765 111.35 53.3165 113.49 51.7791C114.221 51.3299 115.404 50.2762 117.039 48.6179C118.675 46.8387 119.927 45.2667 120.78 43.8848C122.572 40.8618 123.459 38.2361 123.459 36.0077V35.5068H123.477Z" fill="black"/>
<path d="M147.121 46.7178C146.965 46.5796 146.878 46.2686 146.878 45.7677V45.6813C146.878 43.4875 147.504 40.2399 148.74 35.9387C150.149 35.7659 151.262 35.6795 152.115 35.6795H152.393C152.759 35.6795 153.124 35.7141 153.454 35.7832C153.75 35.8868 153.924 35.9559 153.959 35.9559H154.011C154.255 35.9559 154.498 35.8868 154.777 35.7486C155.073 35.5932 155.212 35.4377 155.212 35.3168V35.265C155.212 35.2477 155.212 35.2131 155.194 35.1786C154.533 34.6949 153.211 34.4531 151.227 34.4531C150.358 34.4703 149.662 34.5049 149.174 34.5394H149.157C149.435 33.693 149.592 33.2612 149.592 33.2439L149.557 33.1057C149.296 32.8293 148.983 32.6738 148.583 32.6738H148.444C148.218 32.6738 148.044 32.7257 147.922 32.8466C147.887 32.8466 147.678 33.4512 147.295 34.6776C147.295 34.7467 147.174 34.764 146.93 34.764C144.807 35.0749 143.433 35.3513 142.789 35.5932C142.424 35.6795 142.25 35.7659 142.25 35.8696V35.8868C142.25 35.9559 142.267 36.0423 142.319 36.1632C142.702 36.716 143.05 37.0096 143.346 37.0096C144.233 36.7333 145.399 36.4742 146.826 36.2496H146.843C146.199 38.4952 145.764 40.3954 145.503 41.9501C145.312 42.2956 144.999 42.9002 144.546 43.7466C144.094 44.5757 143.677 45.1631 143.294 45.5086H143.155C143.085 45.2494 143.05 44.9903 143.05 44.7485V44.593C143.05 43.2975 143.45 41.6219 144.268 39.5317V39.5144C144.268 39.2207 143.938 39.0307 143.276 38.9271H143.033C142.65 38.9271 142.372 39.1344 142.163 39.549C142.163 39.5662 142.163 39.5835 142.145 39.5835C141.693 39.238 141.258 39.0653 140.806 39.0653C139.866 39.0653 139.066 39.5835 138.422 40.6027C138.266 40.8791 138.144 41.1382 138.022 41.3973C138.005 41.4146 137.987 41.4146 137.97 41.4318C137.465 42.0883 136.648 43.2456 135.534 44.8867C135.308 45.1976 135.151 45.3704 135.029 45.4395C135.029 45.4395 135.012 45.4222 135.012 45.4049C135.099 44.6967 135.238 43.9021 135.447 43.0729C135.952 41.0864 136.213 39.9463 136.213 39.6699C136.213 39.5317 136.178 39.428 136.126 39.3589C135.899 39.1344 135.621 39.0307 135.29 39.0307H135.151C134.612 39.0307 134.003 39.3935 133.324 40.119C132.768 40.81 132.281 41.4837 131.88 42.1574H131.863C131.933 41.8292 132.089 41.2073 132.35 40.309V40.2572L132.315 40.1708C132.072 39.8772 131.724 39.7217 131.254 39.7217C130.958 39.7217 130.749 39.7908 130.628 39.9463C130.506 40.2917 130.349 40.9654 130.141 41.9673C130.123 42.0019 130.088 42.0364 130.071 42.071C129.793 42.3474 129.601 42.5201 129.497 42.5719C129.236 42.762 128.801 42.9865 128.192 43.2284H128.174C128.366 42.5547 128.453 41.9846 128.453 41.4837V41.4318C128.453 40.9827 128.383 40.6027 128.227 40.2745C127.861 39.5662 127.235 39.2207 126.33 39.2207H126.191C126 39.2207 125.773 39.2553 125.53 39.3244C124.921 39.5662 124.451 39.9808 124.103 40.5681C123.86 41.0691 123.755 41.4837 123.755 41.8464C123.338 42.4165 123.129 43.0556 123.129 43.7639V43.9366C123.129 44.4721 123.285 45.0076 123.581 45.5431C123.947 46.0441 124.382 46.3032 124.886 46.3032H125.025C125.686 46.3032 126.365 45.9577 127.044 45.284C127.409 44.8694 127.687 44.4894 127.861 44.1266C127.861 44.0402 127.948 43.9884 128.105 43.9539C128.714 43.7466 129.253 43.4875 129.74 43.1593C129.793 43.1247 129.845 43.0902 129.897 43.0556C129.688 44.023 129.549 44.8521 129.462 45.5258V45.664C129.462 45.6986 129.462 45.7677 129.479 45.8713C129.653 46.2341 130.001 46.4241 130.506 46.4241C130.61 46.4241 130.715 46.4068 130.819 46.355C130.889 46.3032 131.063 45.975 131.376 45.3531C132.176 43.9539 133.116 42.4856 134.194 40.9309H134.212V40.9482C133.742 42.5892 133.516 43.7811 133.516 44.5067V44.783C133.516 45.1458 133.585 45.4913 133.725 45.8022C133.986 46.2513 134.316 46.4759 134.682 46.4759H134.786C135.064 46.4759 135.412 46.2341 135.812 45.7677C136.195 45.2494 136.7 44.5412 137.309 43.6257C137.291 43.7984 137.274 43.9712 137.274 44.1439V44.3857C137.274 44.6448 137.326 44.9212 137.448 45.1976C137.778 45.854 138.37 46.1822 139.223 46.1822C139.692 46.1822 140.336 45.5949 141.154 44.4376H141.171V44.6276C141.171 44.8349 141.206 45.0594 141.258 45.3013C141.519 46.165 141.937 46.5796 142.511 46.5796H142.65C143.363 46.5796 144.216 45.7158 145.225 44.0057C145.208 44.2821 145.19 44.5412 145.19 44.7658C145.19 45.4395 145.277 46.0268 145.434 46.5277C145.695 47.1842 146.13 47.5124 146.739 47.5124H146.878C147.243 47.5124 147.435 47.3914 147.487 47.1669C147.504 46.9769 147.382 46.8387 147.121 46.7178ZM125.373 45.3185C125.304 45.3185 125.252 45.3013 125.182 45.2494C124.973 44.9385 124.869 44.5412 124.869 44.023C124.869 43.9021 124.886 43.8157 124.886 43.7811H124.904L125.095 43.8848C125.408 44.0575 125.791 44.1612 126.278 44.2303C125.895 44.9385 125.599 45.3185 125.373 45.3185ZM127.044 41.3109C127.044 41.9155 126.887 42.641 126.574 43.5047C125.913 43.5047 125.46 43.1938 125.234 42.5719C125.286 42.4683 125.373 42.3474 125.513 42.1919C125.721 42.071 125.826 41.9501 125.826 41.8464V41.8292C125.826 41.6564 125.652 41.5009 125.286 41.3627C125.286 41.3282 125.304 41.2591 125.321 41.1727C125.408 40.9654 125.547 40.7409 125.721 40.5163C126.087 40.119 126.382 39.9117 126.609 39.9117C126.643 39.929 126.678 39.9463 126.713 39.9635C126.922 40.2917 127.026 40.6718 127.026 41.1209V41.3109H127.044ZM140.336 43.9539C140.058 44.4894 139.744 44.8521 139.379 45.0594C139.223 45.0594 139.136 44.904 139.136 44.593V44.4203C139.136 44.2648 139.17 44.023 139.275 43.6948C140.058 41.3455 140.701 40.1708 141.206 40.1708C141.467 40.1708 141.676 40.5854 141.797 41.4318C141.206 42.5547 140.719 43.4011 140.336 43.9539Z" fill="black"/>
<path d="M155.49 41.2939H155.438C155.229 41.2939 155.003 41.4148 154.777 41.6393C154.533 42.0194 154.202 42.4858 153.767 43.0386C152.41 44.6969 151.419 45.526 150.792 45.526C150.723 45.526 150.653 45.5088 150.549 45.4742C150.236 45.3015 150.079 44.8869 150.079 44.2305V43.8677C150.253 43.8677 150.427 43.8332 150.618 43.7986C150.931 43.7295 151.227 43.6259 151.506 43.5222C151.854 43.3668 152.167 43.1595 152.497 42.8658C153.176 42.2094 153.524 41.4493 153.524 40.5683C153.524 40.171 153.437 39.8428 153.245 39.5837C152.88 39.2037 152.445 39.0137 151.958 39.0137H151.819C150.984 39.0137 150.183 39.4973 149.435 40.482C148.652 41.5357 148.27 42.6585 148.27 43.7986V44.0059C148.27 44.4896 148.374 44.9387 148.565 45.3533C149.07 46.1652 149.644 46.5625 150.305 46.5625H150.41C151.123 46.5625 151.975 46.0788 152.95 45.1287C153.402 44.6623 153.75 44.2823 153.976 43.9886C154.55 43.2458 155.02 42.5722 155.386 41.9503C155.559 41.6912 155.646 41.5012 155.646 41.4321V41.4148C155.681 41.363 155.629 41.3111 155.49 41.2939ZM150.392 42.7276C151.071 41.1557 151.54 40.3611 151.801 40.3611H151.819C151.958 40.3611 152.045 40.6029 152.08 41.1038C152.08 41.363 152.028 41.6393 151.941 41.9157C151.68 42.624 151.175 42.9867 150.375 42.9867H150.34H150.288L150.392 42.7276Z" fill="black"/>
</svg>
