<svg width="250" height="251" viewBox="0 0 250 251" fill="none" xmlns="http://www.w3.org/2000/svg">
<path d="M228.608 63.9639C205.936 42.205 173.635 48.1771 155.878 64.6308C142.91 76.6472 122.483 94.1258 106.669 93.3642C91.0117 92.6099 73.086 81.731 53.6125 90.0926C34.3907 98.3464 29.1374 125.632 37.8256 146.495C46.5511 167.449 78.3666 184.452 116.89 200.322C133.105 207.002 148.079 209.2 161.574 209.055C161.574 209.055 196.422 208.695 209.519 200.313C219.777 193.748 224.144 189.437 235.23 172.701C243.62 160.035 249.218 142.223 249.849 124.974C250.621 103.895 245.549 80.2224 228.608 63.9639Z" fill="#28B3DD"/>
<g opacity="0.800003">
<path d="M228.61 63.9639C205.938 42.205 173.637 48.1771 155.88 64.6308C142.911 76.6472 122.485 94.1258 106.671 93.3642C91.0136 92.6099 73.088 81.731 53.6144 90.0926C34.3927 98.3464 29.1393 125.632 37.8276 146.495C46.5531 167.449 78.3686 184.452 116.892 200.322C133.107 207.002 148.081 209.2 161.576 209.055C161.576 209.055 196.424 208.695 209.521 200.313C219.779 193.748 224.146 189.437 235.232 172.701C243.622 160.035 249.22 142.223 249.851 124.974C250.623 103.895 245.551 80.2224 228.61 63.9639Z" fill="white"/>
</g>
<path d="M145.678 225.76C172.564 209.492 175.155 176.746 163.858 155.335C155.608 139.699 144.011 115.445 148.84 100.366C153.621 85.4377 168.769 70.9385 165.732 49.9643C162.734 29.2613 137.738 17.1249 115.337 20.1173C92.8394 23.1224 68.1805 49.4529 42.8811 82.5564C32.2321 96.4901 26.2331 110.384 22.8804 123.457C22.8804 123.457 14.2089 157.211 18.9161 172.031C22.6021 183.639 25.6356 188.973 38.9324 204.013C48.9947 215.395 64.7517 225.412 81.2494 230.486C101.41 236.687 125.589 237.915 145.678 225.76Z" fill="#28B3DD"/>
<g opacity="0.800003">
<path d="M145.686 225.76C172.571 209.492 175.163 176.746 163.866 155.335C155.615 139.698 144.019 115.444 148.848 100.366C153.629 85.4374 168.776 70.9382 165.74 49.9641C162.742 29.2611 137.746 17.1247 115.345 20.1171C92.8473 23.1221 68.1883 49.4526 42.8889 82.5562C32.2399 96.4899 26.2409 110.384 22.8882 123.457C22.8882 123.457 14.2168 157.211 18.9239 172.031C22.61 183.638 25.6434 188.972 38.9402 204.013C49.0025 215.395 64.7595 225.412 81.2572 230.486C101.418 236.687 125.597 237.915 145.686 225.76Z" fill="white"/>
</g>
<path d="M172.737 170.4C172.76 166.721 170.206 162.229 167.031 160.369C165.364 159.393 163.864 159.345 162.806 160.043L158.9 162.24L167.087 176.355L170.959 174.161L170.953 174.151C172.039 173.572 172.725 172.278 172.737 170.4Z" fill="#37474F"/>
<path d="M162.975 162.669C166.151 164.53 168.706 169.021 168.682 172.701C168.659 176.381 166.065 177.856 162.89 175.995C159.715 174.136 157.161 169.644 157.184 165.964C157.207 162.284 159.8 160.81 162.975 162.669Z" fill="#455A64"/>
<path d="M160.988 168.194C160.998 166.755 161.877 166.1 162.952 166.729C164.027 167.36 164.89 169.036 164.881 170.474C164.871 171.913 163.993 172.569 162.918 171.939C161.843 171.309 160.979 169.632 160.988 168.194Z" fill="#263238"/>
<g opacity="0.149994">
<path d="M168.68 172.7C168.687 171.461 168.398 170.131 167.896 168.84L157.981 163.083C157.482 163.777 157.189 164.747 157.182 165.963C157.182 166.009 157.186 166.056 157.187 166.101L168.676 172.771C168.676 172.747 168.68 172.725 168.68 172.7Z" fill="black"/>
</g>
<path d="M131.687 201.769C129.507 201.893 127.301 201.538 125.586 200.675L71.534 169.54C68.2666 167.899 64.6023 163.625 64.3742 159.583L62.7109 121.078L65.7211 120.909L67.3844 159.413C67.5396 162.163 70.4168 165.604 72.8852 166.845L126.936 197.98C129.436 199.237 133.675 198.991 136.01 197.456L172.055 176.691C172.917 176.123 173.412 175.447 173.379 174.879C173.347 174.317 172.805 173.731 171.894 173.272L114.03 139.68C110.769 138.039 107.115 133.767 106.887 129.719L106.079 108.366L109.09 108.195L109.896 129.549C110.052 132.305 112.919 135.747 115.378 136.984L173.243 170.577C175.176 171.549 176.291 173.014 176.389 174.705C176.486 176.385 175.51 178.026 173.71 179.21L137.665 199.976C136.051 201.037 133.882 201.645 131.687 201.769Z" fill="#455A64"/>
<path d="M121.968 200.904C121.991 197.224 119.436 192.733 116.261 190.873C114.594 189.896 113.095 189.848 112.037 190.546L108.131 192.744L116.318 206.859L120.189 204.664L120.184 204.655C121.27 204.075 121.956 202.782 121.968 200.904Z" fill="#37474F"/>
<path d="M112.206 193.175C115.381 195.035 117.936 199.526 117.912 203.206C117.889 206.886 115.296 208.361 112.121 206.5C108.945 204.641 106.39 200.149 106.414 196.469C106.437 192.79 109.031 191.315 112.206 193.175Z" fill="#455A64"/>
<path d="M110.219 198.698C110.228 197.259 111.107 196.603 112.182 197.233C113.256 197.863 114.121 199.54 114.111 200.978C114.102 202.417 113.223 203.073 112.149 202.443C111.074 201.812 110.209 200.136 110.219 198.698Z" fill="#263238"/>
<path d="M82.0488 177.886C82.0797 174.206 79.5325 169.71 76.3603 167.845C74.6953 166.865 73.1966 166.814 72.137 167.51L68.2266 169.701L76.3877 183.831L80.263 181.644L80.2578 181.634C81.3449 181.057 82.0334 179.764 82.0488 177.886Z" fill="#37474F"/>
<path d="M72.3044 170.139C75.4758 172.005 78.0221 176.501 77.9921 180.181C77.9629 183.861 75.3669 185.331 72.1947 183.465C69.0225 181.599 66.4761 177.103 66.5061 173.423C66.537 169.743 69.1322 168.273 72.3044 170.139Z" fill="#455A64"/>
<path d="M70.3048 175.658C70.3168 174.219 71.1965 173.566 72.2707 174.197C73.3441 174.829 74.2049 176.508 74.1929 177.945C74.1809 179.384 73.3013 180.038 72.2279 179.407C71.1536 178.774 70.2928 177.097 70.3048 175.658Z" fill="#263238"/>
<path d="M56.2973 74.4159C55.1467 70.683 56.8794 65.8766 60.1468 63.7358L96.0794 43.4268C99.3468 41.286 102.919 42.7727 104.07 46.5056L106.561 54.5921L104.096 56.0299L101.428 47.8602C100.791 45.884 98.8546 45.2058 97.1245 46.3538L62.135 66.1381C60.0465 67.5236 58.9131 70.6272 59.6187 73.033L61.7286 80.7903L58.7896 82.5016L56.2973 74.4159Z" fill="#455A64"/>
<path d="M111.849 113.381L63.582 141.248L134.127 181.977L182.393 154.101L111.849 113.381Z" fill="#28B3DD"/>
<g opacity="0.5">
<path d="M111.845 113.381L63.5781 141.248L134.123 181.977L182.389 154.101L111.845 113.381Z" fill="black" fill-opacity="0.5"/>
</g>
<path d="M58.791 82.5019L106.563 54.5925L111.853 113.38L63.5845 141.248L58.791 82.5019Z" fill="#28B3DD"/>
<path d="M175.277 131.837C173.331 132.588 171.068 131.415 170.222 129.218L158.564 98.9622C157.719 96.7665 158.61 94.3779 160.556 93.6277C162.502 92.8784 164.765 94.0513 165.612 96.2478L177.268 126.503C178.115 128.7 177.224 131.087 175.277 131.837ZM153.25 121.474C151.304 122.223 149.041 121.05 148.195 118.855L136.537 88.5985C135.691 86.4028 136.583 84.0142 138.529 83.2649C140.474 82.5147 142.737 83.6876 143.584 85.8841L155.241 116.139C156.087 118.336 155.197 120.724 153.25 121.474ZM131.223 111.11C129.278 111.859 127.014 110.687 126.168 108.491L114.511 78.2348C113.665 76.0383 114.555 73.6506 116.502 72.9004C118.448 72.151 120.711 73.323 121.557 75.5196L133.214 105.776C134.061 107.972 133.169 110.36 131.223 111.11ZM106.561 54.5924L111.85 113.38L182.394 154.1L193.532 104.796L106.561 54.5924Z" fill="#28B3DD"/>
<g opacity="0.229996">
<path d="M175.283 131.837C173.337 132.587 171.074 131.415 170.228 129.218L158.57 98.962C157.725 96.7663 158.616 94.3777 160.562 93.6275C162.508 92.8782 164.77 94.051 165.618 96.2476L177.274 126.503C178.121 128.699 177.23 131.087 175.283 131.837ZM153.256 121.473C151.31 122.223 149.047 121.05 148.2 118.854L136.543 88.5983C135.697 86.4026 136.588 84.014 138.535 83.2647C140.48 82.5145 142.743 83.6873 143.59 85.8839L155.247 116.139C156.093 118.336 155.202 120.723 153.256 121.473ZM131.229 111.11C129.284 111.859 127.02 110.687 126.174 108.491L114.517 78.2346C113.67 76.038 114.561 73.6503 116.507 72.9001C118.454 72.1508 120.717 73.3228 121.563 75.5193L133.22 105.775C134.067 107.972 133.175 110.36 131.229 111.11ZM106.566 54.5922L111.856 113.38L182.4 154.1L193.538 104.796L106.566 54.5922Z" fill="black" fill-opacity="0.75"/>
</g>
<path d="M130.691 161.057C128.745 161.807 126.482 160.634 125.635 158.437L113.978 128.182C113.132 125.986 114.023 123.597 115.97 122.848C117.915 122.097 120.178 123.27 121.025 125.467L132.682 155.722C133.528 157.919 132.637 160.306 130.691 161.057ZM108.664 150.693C106.719 151.443 104.455 150.269 103.608 148.074L91.9517 117.818C91.1055 115.622 91.9972 113.233 93.9425 112.484C95.8887 111.734 98.1513 112.907 98.9983 115.103L110.655 145.358C111.502 147.555 110.61 149.943 108.664 150.693ZM86.637 140.329C84.6917 141.079 82.4283 139.906 81.5821 137.71L69.9246 107.454C69.0784 105.258 69.9701 102.87 71.9154 102.12C73.8616 101.37 76.125 102.543 76.9712 104.74L88.6278 134.995C89.4749 137.191 88.5832 139.58 86.637 140.329ZM58.791 82.5015L63.5853 141.248L134.13 181.977L145.268 132.673L58.791 82.5015Z" fill="#28B3DD"/>
<g opacity="0.149994">
<path d="M130.693 161.056C128.747 161.806 126.484 160.634 125.637 158.437L113.98 128.182C113.134 125.985 114.025 123.597 115.972 122.847C117.917 122.097 120.18 123.27 121.027 125.467L132.684 155.722C133.53 157.918 132.639 160.306 130.693 161.056ZM108.666 150.693C106.721 151.443 104.456 150.269 103.61 148.073L91.9537 117.818C91.1075 115.622 91.9991 113.233 93.9445 112.484C95.8907 111.734 98.1532 112.906 99.0003 115.103L110.657 145.358C111.504 147.555 110.612 149.943 108.666 150.693ZM86.639 140.329C84.6936 141.079 82.4302 139.906 81.584 137.71L69.9266 107.454C69.0804 105.258 69.972 102.869 71.9173 102.12C73.8635 101.37 76.1269 102.543 76.9732 104.739L88.6297 134.994C89.4768 137.191 88.5852 139.58 86.639 140.329ZM58.793 82.5012L63.5873 141.248L134.132 181.977L145.27 132.673L58.793 82.5012Z" fill="black" fill-opacity="0.5"/>
</g>
<path d="M145.263 132.673L193.53 104.807L182.392 154.11L134.125 181.977L145.263 132.673Z" fill="#28B3DD"/>
</svg>
