<svg width="179" height="269" viewBox="0 0 179 269" fill="none" xmlns="http://www.w3.org/2000/svg">
<path d="M169.688 174.601C170.107 169.316 171.462 164.216 173.098 159.183C173.896 156.728 175.076 154.217 173.929 151.483C173.391 150.196 172.349 149.306 171.592 148.193C168.496 143.631 166.875 138.509 165.62 133.198C163.056 122.36 162.718 111.315 162.536 100.281C162.473 96.5163 162.737 92.7443 162.848 88.976C162.848 88.3751 162.848 87.7743 162.848 86.5874C158.357 92.1101 154.568 97.3768 152.59 103.771C152.141 101.546 153.154 99.5985 153.819 97.6216C155.047 93.9794 157.27 90.8713 159.415 87.7298C160.695 85.853 161.946 83.9503 163.126 81.9994C163.869 80.7755 163.568 79.3512 163.572 78.0049C163.612 58.4104 162.744 38.8271 162.922 19.2327C162.944 16.6389 162.996 14.0426 163.078 11.4438C163.115 10.2978 162.744 9.80077 161.486 9.80448C153.626 9.82673 145.84 8.59536 137.979 8.49151C131.11 8.40249 124.282 8.59907 117.468 9.63016C111.422 10.5426 105.518 11.8296 99.8509 14.2181C94.8408 16.3323 90.3021 19.1548 85.9637 22.4075C80.4601 26.5319 74.2105 29.3396 67.946 32.0805C61.9673 34.7027 55.8773 37.0505 49.7204 39.2314C42.2338 41.8821 34.6877 44.3547 27.0823 46.6493C20.9985 48.4815 14.8862 50.1938 8.74545 51.7862C7.49108 52.1052 6.23673 52.4205 4.96751 52.6764C4.15105 52.8433 3.95805 53.1919 4.29205 53.9597C7.21645 60.7545 7.36861 68.0129 7.6321 75.2083C7.86962 81.3837 8.28524 87.5443 8.81223 93.6975C8.99036 95.7708 10.2077 97.3397 11.629 98.7565C14.2491 101.363 16.8729 103.966 19.5004 106.568C22.0797 109.127 23.0743 112.012 22.4026 115.766C21.5008 120.795 21.1333 125.921 20.5878 131.01C20.3725 133.031 19.8789 135.008 19.8455 137.066C19.8195 138.661 20.3392 139.292 21.935 139.318C26.567 139.446 31.1882 139.831 35.7775 140.471C37.4217 140.716 39.051 141.051 40.6578 141.476C41.8305 141.769 42.2276 141.454 42.1237 140.234C41.9641 138.379 41.5225 136.569 41.6784 134.7C41.7674 133.665 41.7043 132.601 42.4911 131.336C43.6044 137.897 44.6361 144.24 50.4738 148.879C49.7984 145.66 49.8021 142.793 49.9134 139.937C50.0359 136.829 50.9488 133.977 53.3314 131.822C54.7045 130.576 56.3263 129.838 58.3303 130.338C57.5146 130.72 56.7239 131.152 55.9626 131.633C53.773 133.187 52.9936 135.468 52.8489 138.038C52.6188 142.341 53.3054 146.521 54.6637 150.86C56.0183 149.25 56.6937 147.362 57.6883 145.686C59.0688 143.361 60.3752 140.998 61.8596 138.732C62.7671 137.335 64.1677 136.331 65.7824 135.92C72.4402 133.921 79.0721 131.84 85.7633 129.953C88.4317 129.211 88.9697 126.941 89.9903 124.997C94.3621 116.641 99.0196 108.493 105.603 101.605C107.711 99.4019 110.268 97.8219 112.654 96.0045C113.159 95.6336 113.768 95.2404 114.51 95.5075C113.861 97.0282 112.25 97.425 111.073 98.2781C107.459 100.908 104.961 104.498 102.419 108.018C97.4275 114.931 93.7608 122.613 90.2649 130.331C88.7805 133.639 88.3389 137.437 86.7097 140.779C85.9155 142.411 85.1028 144.036 84.1972 145.864C87.2515 145.712 89.8085 144.659 92.4323 143.876C93.1745 143.661 94.1877 142.682 94.6813 143.765C95.1749 144.848 94.0318 145.271 93.1634 145.682C88.8127 147.763 84.0114 148.725 79.1946 148.483C74.7412 148.279 70.7368 149.966 66.7176 151.509C63.0381 152.903 59.4443 154.513 55.9552 156.331C54.0551 157.328 51.8729 156.223 49.8095 155.96C44.8588 155.337 39.9712 154.191 34.924 154.395C33.2243 154.461 32.2446 155.437 32.3262 156.887C32.6194 162.847 32.6974 168.871 35.4956 174.39C35.6218 174.738 35.8292 175.05 36.1005 175.302C38.3457 176.786 38.2492 179.137 38.3457 181.411C38.396 183.319 38.712 185.212 39.2847 187.034C39.704 188.302 40.4796 188.551 41.7154 188.209C47.1768 186.682 52.7872 185.748 58.4491 185.424C74.2513 184.567 87.4556 189.719 97.8395 201.78C98.359 202.385 98.8972 202.975 99.4167 203.579C101.899 206.454 102.794 206.643 106.431 205.271C109.873 203.957 113.23 202.43 116.481 200.697C116.822 200.516 117.152 200.1 117.798 200.449C116.288 201.899 114.484 202.782 112.803 203.835C110.315 205.44 107.632 206.721 104.82 207.648C102.504 208.39 100.445 208.219 98.6336 206.164C94.6293 201.636 90.2093 197.567 84.9023 194.555C77.2239 190.208 68.9443 188.684 60.197 188.858C52.2143 189.018 44.5656 190.713 36.9985 193.068C35.6699 193.48 35.0724 194.203 35.0613 195.568C35.039 197.519 34.0779 199.329 34.4304 201.391C35.1912 205.842 35.6292 206.279 39.8488 206.661C43.0404 206.947 46.2765 206.851 49.4681 207.251C52.9566 207.689 56.4042 208.327 59.5402 210.066C60.0041 210.322 60.5051 210.526 60.7909 211.179C59.5402 211.29 58.6681 210.459 57.6438 210.155C53.1384 208.816 48.8409 210.189 44.5062 210.997C41.8453 211.494 41.8825 211.568 43.456 213.753C44.2799 214.895 45.0778 216.067 45.7904 217.28C47.0967 219.506 46.9964 220.225 44.9887 221.857C41.9826 224.305 38.921 226.679 35.8481 229.049C34.167 230.347 33.0907 231.816 33.0239 234.104C32.9436 236.455 32.3722 238.763 31.3464 240.88C30.9753 241.659 31.1906 242.431 31.3799 243.228C31.9736 245.739 32.7382 248.228 32.7976 250.839C32.7976 251.714 33.2317 252.085 34.0296 252.419C40.8767 255.278 47.8983 257.571 55.213 258.869C57.459 259.299 59.7398 259.524 62.0267 259.54C78.1183 259.414 94.158 260.49 110.22 261.165C117.382 261.469 124.578 261.142 131.745 261.517C136.295 261.717 140.855 261.508 145.368 260.894C148.842 260.449 152.193 259.317 155.697 258.917C158.495 258.594 161.263 258.502 163.965 259.288C165.264 259.659 165.472 259.228 165.843 258.194C167.45 253.687 165.631 250.142 162.77 246.907C160.729 244.597 158.925 242.186 157.882 239.23C155.737 233.143 156.535 227.417 159.541 221.798C162.737 215.822 167.194 210.693 170.615 204.888C172.352 201.944 173.915 198.832 173.555 195.164C173.377 193.342 172.46 191.792 171.951 190.097C168.118 185.19 169.706 174.616 169.706 174.616L169.688 174.601Z" fill="#39D192"/>
<path d="M59.2905 42.8923C79.8318 35.2815 100.206 27.2924 119.445 16.7627L119.048 15.8762C98.0424 22.2584 77.9555 31.3397 59.2905 42.8923Z" fill="white"/>
<path d="M97.5676 20.1487C86.8275 24.3176 76.2209 28.8166 66.1043 34.3615C61.573 36.8465 57.0157 39.3278 53.3454 43.0812C52.8889 43.5486 52.1058 44.1457 52.5066 44.7095C52.9074 45.2732 53.7387 44.7095 54.3399 44.4424C54.5709 44.358 54.7847 44.2323 54.9708 44.0715C58.8898 40.2995 63.7477 37.9814 68.4461 35.4371C76.5216 31.0642 84.8643 27.2329 93.3109 23.6722C99.6681 20.9981 106.111 18.5539 112.676 16.3953C117.248 14.8931 122.239 14.411 126.407 10.9839C125.973 10.9973 125.54 11.0419 125.112 11.1174C115.772 13.6224 106.577 16.6374 97.5676 20.1487Z" fill="white"/>
<path d="M169.78 2.86134C168.755 2.2895 167.592 2.00863 166.418 2.04908C160.728 2.04908 155.037 2.04908 149.347 2.04908C141.861 1.96006 134.409 2.52753 126.946 3.04679C119.364 3.57717 111.838 4.49699 104.338 5.61339C97.2866 6.66673 90.2836 8.05389 83.3251 9.69325C77.0421 11.1768 70.8111 12.8273 64.6654 14.7857C57.2983 17.122 50.074 19.8862 43.0293 23.0641C32.7939 27.6891 23.0483 33.0783 14.3753 40.2811C11.4064 42.7438 8.58965 45.4105 6.70808 48.871C5.75431 50.6254 6.11804 51.1669 8.13321 51.0741C8.63257 51.0593 9.1295 50.9985 9.61767 50.8924C12.8427 50.1061 16.0825 49.3643 19.2667 48.4742C25.066 46.8669 30.8393 45.1719 36.5867 43.3892C42.918 41.4259 49.2072 39.3414 55.4543 37.1359C61.6965 34.9327 67.8719 32.5479 73.9285 29.87C80.1113 27.1328 86.2198 24.2546 91.679 20.1822C100.623 13.5061 110.799 9.73405 121.669 7.74975C129.169 6.37744 136.777 6.46274 144.385 6.44791C151.755 6.44791 159.033 7.78684 166.396 7.68299C167.201 7.68299 168.01 7.68299 168.804 7.60881C169.429 7.55825 170.018 7.30213 170.481 6.88059C170.944 6.45906 171.253 5.89596 171.361 5.27959C171.621 4.12239 170.742 3.4251 169.78 2.86134ZM95.8429 12.0225C92.9445 13.239 90.2539 14.6855 87.9492 16.9294C84.5646 20.2267 80.256 22.1665 76.1144 24.3177C66.2909 29.4101 56.074 33.5901 45.6828 37.3881C38.1417 40.1438 30.5263 42.7253 22.744 44.7726C20.959 45.2437 19.1776 45.5812 17.0919 45.9484C18.3983 42.5287 20.9627 40.652 23.5383 38.8271C29.9734 34.2688 37.0431 30.8529 44.1686 27.5408C50.8487 24.4376 57.6402 21.6015 64.543 19.0324C71.8354 16.2989 79.2058 13.7694 86.7135 11.6479C92.1094 10.172 97.5947 9.04464 103.135 8.27272C106.334 7.79797 109.444 6.75204 112.695 6.65561C107.025 8.38028 101.295 9.74147 95.8429 12.0225Z" fill="white"/>
<path d="M21.6501 254.933C20.8671 256.024 21.9025 256.754 22.7264 257.281C26.9534 259.989 31.5033 262.103 36.4094 263.045C44.0025 264.488 51.7514 264.781 59.4484 265.192C77.0393 266.134 94.6413 266.987 112.266 266.932C122.839 266.876 133.419 267.217 143.97 266.375C147.763 266.075 151.623 266.09 155.304 264.832C156.191 264.528 156.993 264.202 157.015 263.189C157.037 262.177 156.325 261.595 155.367 261.227C152.28 260.037 149.151 260.408 146.048 260.975C141.384 261.828 136.771 263.137 132.035 263.379C121.469 263.916 110.881 263.831 100.323 263.319C86.2504 262.637 72.1999 261.524 58.09 261.758C49.3614 261.902 40.9334 260.204 32.7391 257.307C30.0226 256.343 27.3505 255.245 24.6599 254.206C23.4798 253.735 22.3107 254.013 21.6501 254.933Z" fill="#999999"/>
<path d="M88.9355 95.4998V95.5258H88.9801L88.9355 95.4998Z" fill="black"/>
<path d="M60.6189 104.413C61.491 104.687 61.7693 104.19 62.133 103.901C72.9176 95.3293 83.7506 86.8173 95.1847 79.1175C106.251 71.6662 117.563 64.634 130.311 60.2871C131.176 59.9903 132.322 60.0942 132.909 58.8035C130.611 59.2671 128.455 59.6825 126.299 60.1461C120.658 61.3627 115.537 63.9775 110.341 66.3178C102.065 70.0268 94.5463 75.0747 87.2799 80.4749C84.1699 82.7893 81.4348 85.7787 78.0391 87.4886C71.808 90.6264 64.9683 92.1878 58.0656 93.2263C53.6752 93.8828 49.2738 94.5542 44.813 94.6469C54.3024 95.3887 63.5878 94.0905 72.8695 91.9727C68.687 96.0044 64.4377 99.9099 60.6189 104.413Z" fill="black"/>
<path d="M94.6863 238.24C101.296 235.766 107.954 233.381 115.012 232.097C113.787 231.585 112.453 231.383 111.13 231.508C105.901 231.816 100.732 232.78 95.7439 234.378C94.1259 234.894 92.5153 235.328 90.6968 234.749C85.13 232.928 79.7822 230.625 74.3231 228.574C70.727 227.228 67.1086 225.929 63.4679 224.594C63.4078 224.773 63.4137 224.967 63.4845 225.142C63.5553 225.317 63.6863 225.461 63.8539 225.547C71.755 230.462 79.9677 234.764 88.7781 237.787C90.6188 238.425 92.493 239.059 94.6863 238.24Z" fill="black"/>
<path d="M72.4148 256.588C79.5774 255.735 86.5581 253.954 93.5351 252.163C98.2409 250.954 102.754 249.173 107.367 247.69C109.794 246.911 112.158 245.924 114.548 245.034C114.503 244.882 114.455 244.734 114.41 244.582C113.553 244.617 112.698 244.698 111.85 244.823C106.78 245.812 101.717 246.833 96.6599 247.886C91.1711 248.999 85.8047 250.62 80.3938 252.048C76.8385 252.986 73.3872 254.273 69.6835 254.759C67.8501 254.997 65.9723 255.29 64.1167 255.553C66.7651 256.536 69.6059 256.89 72.4148 256.588Z" fill="black"/>
<path d="M108.269 205.407C95.8179 213.938 83.5302 222.769 69.6318 228.937C85.6641 226.289 97.7625 217.146 108.269 205.407Z" fill="black"/>
<path d="M73.0791 189.841C79.2174 188.383 104.854 167.639 105.556 161.679C94.8785 171.27 83.025 179.456 73.0791 189.841Z" fill="black"/>
<path d="M95.3931 240.587C88.2231 240.628 81.0494 240.609 73.8683 240.639C72.9146 240.639 71.9608 240.802 71.0107 240.891C72.536 241.31 74.0241 241.303 75.4863 241.488C83.6064 242.531 91.7598 242.601 99.9207 242.319C102.4 242.23 104.912 241.896 107.688 240.439C96.0833 237.231 84.8756 234.727 73.59 232.528C75.8761 233.707 78.3477 234.326 80.7933 235.009C85.7143 236.386 90.6403 237.746 95.5712 239.089C96.3135 239.293 97.5789 239.222 97.4787 240.09C97.3785 240.958 96.1353 240.583 95.3931 240.587Z" fill="black"/>
<path d="M92.0517 126.518C88.3406 128.087 84.5923 129.581 80.9368 131.276C78.7621 132.285 76.5872 133.372 74.457 135.108C75.6483 135.345 76.4425 135.03 77.2627 134.878C81.4526 134.11 85.4087 132.563 89.3166 130.976C91.7251 129.997 94.4936 129.759 96.4494 127.727C99.2431 124.787 101.56 121.428 103.315 117.772C103.471 117.449 103.605 117.097 102.866 116.526C101.237 118.273 99.6077 120.094 97.8931 121.83C96.1785 123.565 94.4454 125.509 92.0517 126.518Z" fill="black"/>
<path d="M84.4619 169.783C82.2991 169.334 80.0671 169.334 77.9043 169.783C78.2754 170.255 78.8008 170.582 79.3888 170.706C83.4135 171.585 87.4799 172.261 91.5726 172.731C92.3742 172.828 92.8084 172.394 93.2426 171.83C94.5563 170.131 95.9814 168.514 97.2098 166.756C98.4382 164.998 99.8076 163.47 100.361 161.326C98.672 162.661 96.7867 163.922 95.677 165.651C92.9196 170.009 89.1194 170.706 84.4619 169.783Z" fill="black"/>
<path d="M81.3516 87.0063C84.1646 87.3512 95.4986 83.7869 96.8643 82.2291C92.5333 81.0942 84.4393 84.0205 81.3516 87.0063Z" fill="black"/>
<path d="M87.5646 141.78C87.5201 141.869 87.6722 142.192 87.765 142.207C88.7928 142.385 89.4087 141.521 90.2399 141.194C90.4208 141.149 90.5798 141.041 90.6891 140.889C90.7983 140.738 90.8508 140.553 90.8373 140.367C90.5664 140.093 90.2547 140.223 89.9839 140.323C89.0971 140.657 88.0915 140.831 87.5646 141.78Z" fill="black"/>
<path d="M90.9911 94.1091C89.5325 94.3206 87.9032 94.0275 86.8677 95.5075C88.4747 95.7597 89.5362 94.3206 90.9911 94.1091Z" fill="black"/>
<path d="M88.9946 95.5071H88.9355L88.9688 95.5477L88.9946 95.5071Z" fill="black"/>
<path d="M88.969 95.5407L88.9355 95.4998L88.969 95.5407Z" fill="black"/>
<path d="M110.987 11.6473C103.48 13.7688 96.1092 16.2983 88.8168 19.0318C81.9239 21.6133 75.1324 24.4494 68.4424 27.5402C61.3169 30.8523 54.2472 34.2683 47.8121 38.8266C45.2365 40.6514 42.6721 42.5355 41.3657 45.9478C43.4514 45.5769 45.2328 45.2431 47.0178 44.772C54.8113 42.7247 62.4155 40.1432 69.9566 37.3875C80.3293 33.5932 90.5573 29.4095 100.388 24.3171C104.53 22.1659 108.838 20.2372 112.223 16.9289C114.528 14.6849 117.218 13.2199 120.117 12.0219C125.568 9.74089 131.299 8.3797 136.977 6.65503C133.729 6.75146 130.616 7.79739 127.417 8.27214C121.873 9.04375 116.386 10.1711 110.987 11.6473ZM49.2112 42.8916C67.8738 31.3396 87.9583 22.2583 108.961 15.8755L109.358 16.762C90.1267 27.2917 69.7636 35.2771 49.2112 42.8916ZM103.454 16.3911C96.8885 18.5497 90.446 20.9939 84.0887 23.668C75.6273 27.2286 67.2846 31.06 59.2239 35.4329C54.5256 37.9772 49.6676 40.2953 45.7486 44.0673C45.5625 44.2281 45.3488 44.3537 45.1178 44.4382C44.5165 44.6941 43.726 45.321 43.2844 44.7053C42.8427 44.0896 43.6555 43.5444 44.1231 43.077C47.7934 39.3236 52.3508 36.8423 56.8821 34.3573C66.9988 28.8124 77.6053 24.3134 88.3454 20.1445C97.3596 16.6314 106.56 13.6152 115.905 11.1095C116.333 11.034 116.765 10.9894 117.2 10.976C113.017 14.4068 108.026 14.8778 103.454 16.3911Z" fill="white"/>
<path d="M155.367 261.227C152.28 260.037 149.151 260.408 146.048 260.975C141.384 261.828 136.771 263.137 132.035 263.378C121.469 263.916 110.881 263.831 100.323 263.319C86.2504 262.637 72.1999 261.524 58.09 261.758C49.3614 261.902 40.9334 260.204 32.7391 257.307C30.0226 256.343 27.3505 255.245 24.6599 254.206C23.4798 253.754 22.3107 254.028 21.6501 254.948C20.8671 256.038 21.9025 256.769 22.7264 257.296C26.9534 260.003 31.5033 262.117 36.4094 263.059C44.0025 264.502 51.7514 264.795 59.4484 265.207C77.0393 266.149 94.6414 267.002 112.266 266.946C122.839 266.891 133.419 267.232 143.97 266.39C147.763 266.09 151.623 266.105 155.304 264.847C156.191 264.543 156.993 264.217 157.015 263.204C157.037 262.192 156.332 261.594 155.367 261.227Z" fill="white"/>
<path d="M176.142 162.636C177.01 160.084 177.875 157.503 178.205 154.788C178.469 152.603 178.053 150.645 176.68 148.883C175.746 147.75 174.895 146.552 174.134 145.296C170.906 139.588 169.466 133.342 168.438 126.922C166.823 116.815 166.478 106.656 166.582 96.453C166.656 90.2145 167.751 84.0168 167.844 77.8229C168.189 55.1426 168.215 32.4548 167.473 9.77824C167.378 8.86504 167.604 7.94732 168.111 7.18197C169.336 5.43505 168.913 3.2616 167.276 1.8967C166.096 0.910115 164.701 0.531801 163.194 0.413114C155.912 -0.0511045 148.61 -0.124151 141.32 0.194287C131.3 0.565183 121.309 1.05476 111.367 2.21567C102.932 3.19855 94.5075 4.4225 86.1982 6.26957C80.7391 7.4824 75.2317 8.54316 69.869 10.0601C61.3571 12.4075 52.9849 15.2345 44.7927 18.5277C33.0468 23.3308 21.7834 29.0018 11.6296 36.6756C7.5696 39.743 3.67289 43.0402 0.971156 47.4798C-0.672892 50.18 -0.268349 51.76 2.48163 53.1471C3.19046 53.518 3.56162 54.1115 3.91789 54.768C5.98872 58.5696 6.21875 62.8016 6.6344 66.9445C7.50281 75.553 7.37664 84.2245 8.21165 92.8405C8.40599 95.5515 9.57527 98.1006 11.5035 100.017C14.3685 102.881 17.215 105.762 20.0985 108.611C21.9541 110.465 22.5293 112.672 22.0395 115.206C21.9096 115.869 21.7686 116.537 21.7018 117.208C21.1265 122.794 20.5031 128.376 19.5976 133.917C18.9927 137.608 19.3378 140.797 22.8448 143.149C26.556 145.641 30.0333 148.486 33.648 151.123C34.6389 151.865 35.0879 152.395 33.7445 153.178C33.1587 153.529 32.6728 154.024 32.333 154.616C31.9932 155.209 31.8109 155.878 31.8036 156.56C31.6602 161.254 32.1066 165.946 33.1322 170.528C33.6762 173.242 34.8171 175.801 36.4722 178.02C38.2388 180.372 36.5539 183.458 37.5856 186.08C37.8491 186.766 37.9307 187.523 38.183 188.213C38.6098 189.37 38.4355 190.067 37.1217 190.52C36.1011 190.857 34.9692 190.965 34.5239 192.459C33.3623 196.239 33.6072 200.048 34.0896 203.816C34.3234 205.634 35.2698 207.455 37.4038 208.093C38.0866 208.297 38.4874 208.905 38.8882 209.421C40.8106 211.813 42.7329 214.209 44.5811 216.657C46.548 219.253 46.5109 219.286 43.8389 221.3C43.349 221.671 42.874 222.064 42.3878 222.439C40.3912 223.967 38.3612 225.458 36.4054 227.038C34.2306 228.8 32.6423 230.688 32.5161 233.9C32.3417 238.202 29.5472 242.33 31.6514 246.833C31.8733 247.406 32.0204 248.006 32.0893 248.617C32.4196 250.445 32.4604 252.085 30.6049 253.353C29.0128 254.433 29.0165 255.949 30.2337 257.463C30.773 258.132 31.4278 258.7 32.1673 259.139C37.927 262.626 44.0987 265.074 50.8233 265.615C61.4744 266.49 72.1365 267.31 82.8098 267.8C95.1643 268.363 107.534 268.541 119.896 268.894C130.536 269.202 141.164 268.786 151.812 268.337C156.365 268.141 160.93 267.822 165.409 266.817C167.948 266.249 169.492 264.432 168.857 262.281C168.718 261.818 168.674 261.333 168.727 260.853C168.78 260.373 168.929 259.909 169.165 259.488C170.084 257.522 170.374 255.32 169.996 253.183C169.429 249.741 167.428 247.141 165.213 244.63C161.283 240.179 159.612 235.105 160.663 229.13C161.279 225.64 162.978 222.699 164.719 219.757C167.81 214.528 171.815 209.899 174.862 204.636C177.289 200.437 178.651 196.146 176.513 191.321C175.898 189.847 175.415 188.322 175.07 186.763C174.943 186.243 174.825 185.709 174.676 185.179C174.468 184.2 174.227 182.872 174.045 181.288C174.031 181.008 174.002 180.73 173.956 180.454C173.652 177.397 173.688 174.315 174.064 171.266C174.487 168.331 175.182 165.442 176.142 162.636ZM3.7249 51.0775C1.70974 51.1703 1.34601 50.6288 2.29978 48.8744C4.18134 45.414 6.99067 42.7472 9.96702 40.2845C18.64 33.1002 28.3856 27.6925 38.621 23.0675C45.6657 19.8896 52.89 17.1254 60.2571 14.7891C66.4028 12.8307 72.6264 11.1691 78.9354 9.68552C85.8938 8.04245 92.8932 6.6553 99.9481 5.60566C107.448 4.49297 114.975 3.56944 122.556 3.03906C130.02 2.51981 137.472 1.95233 144.957 2.04135C150.647 2.04135 156.338 2.04135 162.028 2.04135C163.202 2.0009 164.365 2.28177 165.391 2.85361C166.352 3.41737 167.246 4.10353 166.979 5.27556C166.871 5.89194 166.561 6.45504 166.099 6.87657C165.636 7.29811 165.046 7.55423 164.422 7.60479C163.628 7.69381 162.819 7.66784 162.014 7.67897C154.651 7.78282 147.373 6.42905 140.003 6.44389C132.395 6.44389 124.787 6.37342 117.287 7.74573C106.417 9.73003 96.2406 13.5057 87.2967 20.1782C81.8375 24.258 75.7289 27.1288 69.5461 29.866C63.4895 32.5439 57.2993 34.9287 51.0719 37.1318C44.8446 39.335 38.5357 41.4231 32.2044 43.3852C26.4546 45.1704 20.6812 46.8654 14.8843 48.4701C11.6853 49.3603 8.44544 50.1021 5.23528 50.8884C4.73884 50.9986 4.2332 51.0619 3.7249 51.0775ZM165.35 264.832C161.669 266.09 157.809 266.075 154.016 266.375C143.465 267.217 132.885 266.876 122.311 266.932C104.687 266.987 87.0852 266.134 69.4942 265.192C61.7972 264.781 54.0483 264.488 46.4552 263.045C41.5491 262.11 36.9992 259.989 32.7722 257.281C31.9483 256.754 30.9166 256.024 31.6959 254.933C32.3565 254.013 33.5256 253.739 34.7057 254.191C37.3963 255.23 40.0684 256.328 42.7849 257.292C50.9792 260.204 59.4072 261.902 68.1359 261.743C82.2383 261.509 96.2962 262.622 110.369 263.304C120.927 263.816 131.523 263.902 142.081 263.364C146.816 263.123 151.429 261.813 156.094 260.96C159.197 260.393 162.325 260.022 165.413 261.213C166.371 261.583 167.083 262.129 167.061 263.175C167.039 264.22 166.237 264.528 165.35 264.832ZM173.667 190.082C174.175 191.777 175.092 193.327 175.27 195.148C175.641 198.817 174.067 201.928 172.331 204.873C168.909 210.678 164.452 215.807 161.257 221.783C158.251 227.402 157.453 233.128 159.598 239.215C160.641 242.182 162.444 244.582 164.485 246.892C167.347 250.126 169.165 253.672 167.558 258.179C167.187 259.213 166.979 259.662 165.68 259.273C162.99 258.479 160.21 258.572 157.412 258.902C153.908 259.302 150.557 260.434 147.084 260.879C142.57 261.493 138.011 261.702 133.46 261.502C126.301 261.131 119.105 261.454 111.935 261.149C95.8731 260.474 79.8335 259.399 63.7419 259.525C61.455 259.509 59.1742 259.284 56.9282 258.854C49.6134 257.555 42.592 255.263 35.7449 252.404C34.947 252.07 34.5313 251.699 34.5127 250.824C34.4534 248.227 33.6888 245.724 33.095 243.213C32.9058 242.415 32.6868 241.644 33.0616 240.865C34.0874 238.748 34.6588 236.44 34.7391 234.089C34.8059 231.8 35.8821 230.332 37.5633 229.034C40.6362 226.671 43.6978 224.29 46.7039 221.842C48.7116 220.21 48.8119 219.487 47.5055 217.265C46.793 216.052 45.9951 214.88 45.1712 213.738C43.5977 211.553 43.5606 211.479 46.2215 210.982C50.5561 210.173 54.8536 208.801 59.359 210.14C60.3833 210.444 61.2554 211.275 62.5061 211.164C62.2203 210.53 61.7193 210.326 61.2554 210.051C58.1195 208.312 54.6718 207.674 51.1833 207.236C47.9917 206.835 44.7556 206.932 41.564 206.646C37.3444 206.275 36.9064 205.812 36.1456 201.376C35.7931 199.314 36.7542 197.504 36.7765 195.553C36.7765 194.188 37.3852 193.465 38.7138 193.053C46.2809 190.716 53.9295 189.003 61.9122 188.843C70.6595 188.669 78.9391 190.193 86.6175 194.54C91.9356 197.552 96.3556 201.621 100.349 206.149C102.16 208.197 104.22 208.375 106.535 207.633C109.348 206.706 112.03 205.425 114.518 203.82C116.199 202.767 118.003 201.884 119.513 200.434C118.868 200.085 118.537 200.501 118.196 200.682C114.941 202.425 111.579 203.963 108.131 205.285C104.494 206.657 103.6 206.468 101.117 203.594C100.597 202.989 100.059 202.4 99.5398 201.795C89.1485 189.733 75.9516 184.582 60.1494 185.438C54.4875 185.763 48.8772 186.697 43.4158 188.224C42.18 188.565 41.4044 188.317 40.985 187.048C40.4124 185.227 40.0963 183.334 40.0461 181.425C39.9496 179.152 40.046 176.819 37.8008 175.317C37.5295 175.065 37.3222 174.752 37.1959 174.404C34.4088 168.885 34.3197 162.862 34.0266 156.902C33.956 155.451 34.9358 154.476 36.6244 154.409C41.6716 154.205 46.5592 155.351 51.5099 155.974C53.5548 156.234 55.7554 157.339 57.6555 156.345C61.1447 154.527 64.7384 152.917 68.4179 151.524C72.4371 149.988 76.4564 148.293 80.8949 148.497C85.7118 148.74 90.513 147.777 94.8637 145.697C95.7321 145.285 96.8603 144.822 96.3816 143.779C95.9029 142.737 94.86 143.676 94.1326 143.891C91.5088 144.673 88.937 145.727 85.8976 145.879C86.8031 144.05 87.6158 142.426 88.41 140.794C90.0392 137.456 90.4697 133.654 91.9654 130.345C95.4613 122.627 99.1279 114.946 104.119 108.032C106.662 104.513 109.159 100.922 112.774 98.2926C113.95 97.4396 115.561 97.0427 116.21 95.522C115.468 95.255 114.874 95.637 114.355 96.019C111.968 97.8364 109.411 99.4165 107.304 101.62C100.72 108.507 96.0625 116.656 91.6907 125.012C90.6702 126.955 90.132 129.218 87.4637 129.967C80.7836 131.84 74.1405 133.936 67.4827 135.935C65.868 136.346 64.4676 137.35 63.5601 138.746C62.0756 141.012 60.7693 143.375 59.3887 145.701C58.3941 147.377 57.7186 149.265 56.3641 150.875C55.0058 146.535 54.3192 142.344 54.5493 138.053C54.6904 135.482 55.4734 133.201 57.663 131.647C58.4242 131.167 59.2151 130.734 60.0307 130.353C58.0267 129.845 56.4049 130.583 55.0318 131.836C52.6492 133.991 51.7362 136.844 51.6137 139.952C51.5024 142.808 51.4987 145.675 52.1741 148.894C46.3365 144.254 45.3085 137.912 44.1914 131.351C43.4046 132.615 43.4677 133.68 43.3787 134.715C43.2228 136.569 43.6644 138.424 43.824 140.248C43.9279 141.469 43.5308 141.784 42.3581 141.491C40.7513 141.066 39.1221 140.73 37.478 140.486C32.8886 139.846 28.2673 139.461 23.6353 139.332C22.0395 139.299 21.52 138.676 21.5459 137.081C21.5793 135.022 22.0729 133.046 22.2882 131.024C22.8337 125.936 23.2011 120.81 24.1029 115.78C24.7746 112.027 23.78 109.141 21.2007 106.582C18.6215 104.023 15.9494 101.39 13.3294 98.7711C11.908 97.3543 10.6907 95.7854 10.5126 93.7121C9.98557 87.5589 9.56994 81.3983 9.33243 75.2229C9.0578 68.0275 8.90564 60.7579 5.99238 53.9742C5.65837 53.2065 5.85138 52.8616 6.66783 52.6909C7.93705 52.435 9.1914 52.1198 10.4458 51.8008C16.5964 50.2183 22.7088 48.506 28.7827 46.6639C36.3906 44.3717 43.9367 41.8991 51.4208 39.246C57.5777 37.0651 63.6676 34.7173 69.6463 32.0951C75.9108 29.3541 82.1604 26.5316 87.6641 22.4221C92.0024 19.1693 96.5412 16.3468 101.551 14.2327C107.218 11.8441 113.123 10.5571 119.168 9.64472C125.982 8.61363 132.81 8.41706 139.68 8.50607C147.54 8.60992 155.326 9.8413 163.186 9.81904C164.444 9.81904 164.816 10.3123 164.778 11.4584C164.697 14.0547 164.645 16.651 164.623 19.2472C164.444 38.8417 165.313 58.425 165.272 78.0194C165.272 79.3658 165.558 80.79 164.827 82.014C163.661 83.9649 162.411 85.8676 161.115 87.7443C158.97 90.8858 156.747 93.9939 155.519 97.6362C154.855 99.613 153.842 101.553 154.291 103.786C156.269 97.3914 160.058 92.1246 164.548 86.602C164.548 87.7889 164.548 88.3897 164.548 88.9906C164.437 92.7589 164.177 96.5309 164.237 100.295C164.418 111.344 164.756 122.375 167.321 133.213C168.575 138.524 170.197 143.646 173.292 148.208C174.034 149.321 175.092 150.211 175.63 151.498C176.777 154.231 175.596 156.742 174.799 159.198C173.162 164.245 171.807 169.33 171.388 174.616C171.388 174.616 169.833 185.175 173.667 190.082Z" fill="black"/>
</svg>
