<svg width="114" height="181" viewBox="0 0 114 181" fill="none" xmlns="http://www.w3.org/2000/svg">
<path d="M74.8847 59.5935L67.0479 56.1891C63.1488 54.4969 65.3042 49.2735 65.3042 49.2735L74.514 28.0788C74.5698 27.9921 74.627 27.9101 74.682 27.8265C74.7942 27.6633 74.9064 27.5039 75.0171 27.3522C75.1278 27.2006 75.24 27.0427 75.3506 26.9035C75.5604 26.6303 75.7724 26.3704 75.9884 26.1189C76.6361 25.3599 77.3343 24.6628 78.1701 23.8627C78.5424 23.5053 78.9394 23.1292 79.3759 22.7168C79.985 22.1427 80.6629 21.4982 81.4314 20.7423C82.2518 19.9407 83.1751 18.7399 84.1116 17.3711C85.5225 15.3084 86.9612 12.8634 88.1051 10.8184C88.1825 10.6761 88.2599 10.536 88.3373 10.3983C88.4526 10.1909 88.5632 9.9921 88.6693 9.79325C88.7753 9.5944 88.8806 9.40638 88.9789 9.22688C88.9912 9.20289 89.0028 9.18045 89.0168 9.15724C89.0686 9.05743 89.1205 8.96149 89.1716 8.86787C89.2358 8.75103 89.2946 8.63575 89.3527 8.52975C89.3821 8.47559 89.4099 8.42143 89.4386 8.36959C89.5237 8.20788 89.6026 8.0601 89.6785 7.91696L89.9881 7.32351L90.4006 6.53198L95.2384 8.63266L94.7199 10.1027C94.6673 10.2575 94.6139 10.4161 94.5512 10.5871C94.5334 10.6436 94.514 10.7008 94.4931 10.7596C94.4529 10.8762 94.4119 10.9972 94.3701 11.1225C94.3391 11.213 94.3082 11.3067 94.2757 11.4026C94.2633 11.4382 94.2524 11.4738 94.2401 11.5094C94.1766 11.7059 94.1093 11.9109 94.0381 12.1229C93.9669 12.3349 93.8964 12.5539 93.8221 12.7783C93.7734 12.9284 93.7254 13.0816 93.6743 13.2363C92.9654 15.4531 92.1651 18.1526 91.6211 20.5798C91.2542 22.2162 91.0019 23.7289 90.9756 24.8856C90.9485 25.9642 90.9416 26.8973 90.9361 27.7352C90.9315 28.3364 90.9292 28.8827 90.9214 29.3987C90.9067 30.5547 90.8727 31.5404 90.762 32.5331C90.7254 32.8612 90.6792 33.1949 90.6235 33.5343C90.5948 33.713 90.56 33.8964 90.5236 34.0844C90.4872 34.2725 90.4462 34.4605 90.4052 34.6531C90.3828 34.7491 90.3603 34.8481 90.3356 34.9471L81.1257 56.1434C81.1257 56.1434 78.783 61.2864 74.8847 59.5935Z" fill="#55291C"/>
<path d="M74.7387 30.8303L67.3384 47.8647C67.3384 47.8647 64.8378 53.769 68.7314 56.1204L68.7547 56.074C68.8533 56.1538 68.9621 56.2201 69.0782 56.2712L73.5538 58.2141C73.6311 58.2461 73.7108 58.2719 73.7922 58.2915L73.7837 58.3116C78.1611 59.5495 80.77 53.6947 80.77 53.6947L88.1704 36.6596C89.8815 32.7205 89.9295 30.7622 89.712 26.1833C89.6014 23.852 90.7917 19.2399 91.9874 15.2737C92.0323 15.1275 92.0741 14.9828 92.1174 14.8381C93.2249 11.2062 94.2945 8.22119 94.2945 8.22119L91.3443 6.94067C91.3443 6.94067 89.7747 9.98684 87.7633 13.44C85.6814 17.02 83.1197 21.038 81.3396 22.5491C77.8484 25.5187 76.4499 26.8905 74.7387 30.8303Z" fill="#7F4433"/>
<path opacity="0.5" d="M73.5547 58.2139C73.6323 58.2452 73.7119 58.2711 73.7931 58.2913L73.7845 58.3106L73.8263 58.3215C75.6613 58.8244 77.1852 58.0801 78.3322 57.0502C79.9048 55.639 80.7708 53.6938 80.7708 53.6938L88.1712 36.6579C89.8824 32.7196 89.9304 30.7613 89.7129 26.1831C89.6022 23.8503 90.7925 19.2389 91.9882 15.2736L90.9287 14.8093C90.9287 14.8093 87.6983 23.3977 88.5295 28.3403C88.5295 28.3403 89.1007 30.1044 87.8384 33.8337L79.5651 52.8798C79.0358 54.0446 78.3157 55.1129 77.4344 56.0405C77.3462 56.1318 77.2554 56.2221 77.162 56.3113C76.6491 56.8087 76.0696 57.2324 75.44 57.5702C74.8515 57.8874 74.2144 58.105 73.5547 58.2139Z" fill="#FFF6E9"/>
<path d="M87.7637 13.4429C89.7759 9.98977 91.3447 6.9436 91.3447 6.9436L94.2949 8.22567C94.2949 8.22567 93.2253 11.2107 92.1178 14.8426C92.0745 14.9873 92.0327 15.132 91.9878 15.2782L87.7637 13.4429Z" fill="#7F4433"/>
<path d="M74.7387 30.8303L67.3384 47.8647C67.3384 47.8647 64.8378 53.769 68.7314 56.1204L68.7407 56.1003L68.7547 56.074C68.8168 56.1244 68.8831 56.1694 68.9528 56.2086L68.9644 56.2133C69.001 56.2351 69.039 56.2544 69.0782 56.2713L70.2058 56.7603C69.87 56.2896 69.6024 55.7738 69.411 55.2283C68.2733 52.0227 69.9527 48.6292 69.9527 48.6292L78.3112 29.3935C79.4024 26.8804 81.3891 25.6951 81.3891 25.6951C82.0748 25.391 82.8078 24.7867 83.5337 24.0324C86.0296 21.4396 88.4335 17.0758 88.4335 17.0758L89.8266 14.3399L87.7609 13.4431C85.6791 17.0232 83.1173 21.0411 81.3373 22.5522C77.8484 25.5187 76.4499 26.8905 74.7387 30.8303Z" fill="#7F4433"/>
<g style="mix-blend-mode:screen" opacity="0.5">
<path d="M74.7387 30.8302L67.3384 47.8646C67.3384 47.8646 64.8378 53.7689 68.7314 56.1203L68.7407 56.1002C68.8111 56.1458 68.8848 56.1859 68.9613 56.2201C68.9574 56.2201 68.9567 56.2124 68.9528 56.2085C66.6705 52.8041 68.7531 48.1958 68.7531 48.1958L77.0273 29.1497C78.8924 25.6811 80.5719 24.8942 80.5719 24.8942C82.4293 23.6624 84.2666 21.3559 85.7325 19.1686C86.8645 17.4741 87.8966 15.715 88.8235 13.9003L87.7633 13.436C85.6814 17.0161 83.1197 21.034 81.3396 22.5451C77.8484 25.5186 76.4499 26.8904 74.7387 30.8302Z" fill="#9F876D"/>
</g>
<g style="mix-blend-mode:screen" opacity="0.5">
<path d="M87.7637 13.4429L88.824 13.9033L91.3137 9.1495L92.2602 7.3413L91.3447 6.9436L90.9128 7.72739L90.4175 8.62724L87.7637 13.4429Z" fill="#9F876D"/>
</g>
<path opacity="0.5" d="M93.4219 7.84497L92.7331 9.76613L90.9268 14.8163L91.9871 15.2805L93.733 9.94177L94.0148 9.07674L94.2934 8.22564L93.4219 7.84497Z" fill="#FFF6E9"/>
<g style="mix-blend-mode:screen" opacity="0.5">
<path d="M81.5049 26.0332C81.6526 25.9284 81.8158 25.8475 81.9886 25.7933C83.3554 25.3035 84.9605 25.2617 86.0688 26.3279C86.5432 26.7844 86.8814 27.3686 87.1151 27.9837C87.2382 28.3087 87.3334 28.6716 87.2173 28.9989C87.1881 29.0983 87.1248 29.1843 87.0385 29.2418C86.9023 29.3192 86.7289 29.282 86.5827 29.2171C86.0254 28.9656 85.6748 28.4147 85.2174 28.01C84.7241 27.5811 84.1141 27.309 83.4653 27.2286C82.9235 27.1597 82.3732 27.2162 81.84 27.1079C81.6078 27.0599 81.3501 26.9578 81.2541 26.7365C81.1651 26.5307 81.2541 26.2815 81.4089 26.1175C81.4388 26.0871 81.4709 26.0589 81.5049 26.0332Z" fill="#6D9D6D"/>
</g>
<path d="M89.7512 5.45213L89.7133 5.53942C89.5718 5.86512 89.7211 6.24384 90.0469 6.38533L95.7009 8.84074C96.0267 8.98222 96.4055 8.83288 96.547 8.50718L96.5849 8.4199C96.7265 8.0942 96.5771 7.71547 96.2513 7.57399L90.5973 5.11857C90.2716 4.97709 89.8927 5.12643 89.7512 5.45213Z" fill="#55291C"/>
<g style="mix-blend-mode:multiply" opacity="0.4">
<path d="M89.7327 5.44036L89.6947 5.52779C89.6775 5.56712 89.6643 5.60808 89.6553 5.65004C89.7408 5.52942 89.8652 5.4418 90.0076 5.40181C90.15 5.36182 90.3018 5.37187 90.4377 5.4303L96.0929 7.88611C96.2283 7.94543 96.3393 8.04937 96.4073 8.1806C96.4753 8.31183 96.4963 8.46241 96.4667 8.60723C96.4905 8.57168 96.5112 8.53414 96.5286 8.49504L96.5665 8.4076C96.634 8.25118 96.6368 8.07443 96.5743 7.91596C96.5117 7.75749 96.389 7.6302 96.2329 7.56192L90.5786 5.10688C90.4221 5.03943 90.2453 5.03664 90.0868 5.09913C89.9283 5.16162 89.801 5.2843 89.7327 5.44036Z" fill="#2F1A0F"/>
</g>
<path d="M94.2944 8.2251L94.0166 9.07465L94.9414 9.47622L95.2402 8.63517L94.2944 8.2251Z" fill="#55291C"/>
<path d="M91.3452 6.94377L90.401 6.53369L89.9893 7.32521L90.9141 7.72678L91.3452 6.94377Z" fill="#55291C"/>
<g style="mix-blend-mode:multiply" opacity="0.4">
<path d="M94.0168 9.07445L90.9141 7.72662L91.3451 6.9436L94.2946 8.2249L94.0168 9.07445Z" fill="#2F1A0F"/>
</g>
<path d="M74.8847 59.5935L67.0479 56.1891C63.1488 54.4969 65.3042 49.2735 65.3042 49.2735L74.514 28.0787C74.5698 27.9921 74.627 27.9101 74.682 27.8265C74.7942 27.6632 74.9064 27.5039 75.0171 27.3522C75.1278 27.2006 75.24 27.0427 75.3506 26.9035C75.5604 26.6303 75.7724 26.3703 75.9884 26.1189C76.6361 25.3599 77.3343 24.6627 78.1701 23.8627C78.5424 23.5052 78.9394 23.1292 79.3759 22.7168C79.985 22.1427 80.6629 21.4982 81.4314 20.7423C82.2518 19.9407 83.1751 18.7398 84.1116 17.3711C85.5225 15.3084 86.9612 12.8634 88.1051 10.8184C88.1825 10.676 88.2599 10.536 88.3373 10.3983C88.4526 10.1909 88.5632 9.99207 88.6693 9.79323C88.7753 9.59438 88.8806 9.40636 88.9789 9.22686C88.9912 9.20287 89.0028 9.18043 89.0168 9.15722C89.0686 9.05741 89.1205 8.96147 89.1716 8.86784C89.2358 8.75101 89.2946 8.63573 89.3527 8.52973C89.3821 8.47556 89.4099 8.4214 89.4386 8.36956C89.5237 8.20785 89.6026 8.06007 89.6785 7.91693L89.9881 7.32349L90.9121 7.72505L90.4161 8.62567L89.913 9.54099L87.7638 13.4421C86.9248 14.8867 86.0077 16.4009 85.0953 17.7936C83.7455 19.8556 82.4051 21.6506 81.3425 22.5528C77.8481 25.5185 76.4496 26.8903 74.7385 30.8317L67.3381 47.8661C67.3381 47.8661 66.4566 49.9474 66.5549 52.1293C66.6222 53.6242 67.1485 55.1662 68.7327 56.1225L68.7405 56.1032C68.8118 56.1478 68.886 56.1876 68.9626 56.2223L73.5543 58.2162C75.6772 59.1377 77.3977 58.8484 78.6623 58.2348C79.6424 57.7487 80.4897 57.0318 81.1312 56.1457C81.1312 56.1457 78.783 61.2864 74.8847 59.5935Z" fill="#55291C"/>
<g style="mix-blend-mode:multiply" opacity="0.4">
<path d="M66.4434 52.3862C66.5641 53.7565 67.1399 55.1871 68.7326 56.1202L68.7404 56.1024C68.8117 56.1465 68.8859 56.1858 68.9625 56.22L73.555 58.2139C73.6324 58.248 73.7098 58.2805 73.7872 58.3099C73.8 58.3159 73.8132 58.3211 73.8267 58.3254C75.6516 58.853 77.1236 58.2286 78.2133 57.3288C77.9424 56.9781 77.6329 56.6589 77.2908 56.3771C76.2739 55.5098 74.7368 54.5774 72.9235 53.7913C70.2356 52.6245 67.7196 52.1131 66.4434 52.3862ZM67.0772 53.0485C67.3543 52.4094 69.9408 52.917 72.8538 54.1813C74.6943 54.9805 76.2251 55.8912 77.0331 56.6146C77.5044 57.0356 77.7296 57.393 77.6267 57.6282C77.4719 57.981 76.6152 57.9849 75.3823 57.7056C74.387 57.4781 73.1503 57.0642 71.847 56.4986C68.9354 55.2304 66.7994 53.6869 67.0772 53.0485Z" fill="#2E3419"/>
</g>
<g style="mix-blend-mode:multiply" opacity="0.4">
<path d="M65.3049 49.2759C65.3049 49.2759 63.148 54.4978 67.0478 56.1915L74.8839 59.5959C78.7838 61.2888 81.1288 56.1489 81.1288 56.1489C81.1288 56.1489 79.7992 57.2932 78.1313 56.1156C76.4635 54.938 72.8113 52.4574 67.6198 51.7998C67.6198 51.7975 65.0681 50.9874 65.3049 49.2759Z" fill="#2E3419"/>
</g>
<path d="M42.8915 24.0757L42.8443 26.2228C43.2197 26.8905 46.9763 33.6653 47.4028 38.1629H47.368C47.5054 38.7817 47.568 39.4148 47.5545 40.0485C47.4492 44.7605 43.2328 48.4883 38.1357 48.3754C33.0742 48.2632 29.0474 44.4046 29.0961 39.7375C29.0961 39.7027 29.0961 39.6702 29.0961 39.6377C29.11 39.0039 29.2004 38.3742 29.3655 37.7622H29.3616C30.0225 33.0509 34.4812 25.9829 34.4812 25.9829L34.5276 23.8938C34.5439 23.1673 35.2002 22.5886 35.9842 22.6056L38.6372 22.6644L39.237 22.6776L40.4699 22.7054L41.493 22.7278C42.2762 22.741 42.9047 23.3499 42.8915 24.0757Z" fill="#F8A721"/>
<path d="M41.8968 17.6451C41.888 18.0349 41.7502 18.4107 41.505 18.7138C41.2598 19.0169 40.921 19.2302 40.5416 19.3203L40.5238 20.1141L40.5177 20.436L40.4666 22.7015L38.6339 22.6605L37.1031 22.6264L37.1805 19.2452C36.9207 19.1709 36.6816 19.038 36.4814 18.8566C36.2813 18.6753 36.1255 18.4503 36.0261 18.1992C35.9267 17.9481 35.8863 17.6775 35.9081 17.4084C35.9299 17.1392 36.0133 16.8786 36.1518 16.6468C36.2904 16.4149 36.4803 16.218 36.7071 16.0712C36.9338 15.9244 37.1913 15.8317 37.4596 15.8001C37.7278 15.7686 37.9998 15.7991 38.2544 15.8894C38.509 15.9796 38.7395 16.1271 38.928 16.3205C39.1813 16.0829 39.4992 15.9253 39.8417 15.8675C40.1843 15.8098 40.5363 15.8545 40.8535 15.9959C41.1708 16.1374 41.4392 16.3694 41.6251 16.6628C41.8109 16.9562 41.906 17.2979 41.8984 17.6451H41.8968Z" fill="#E7E2E1"/>
<path d="M42.8915 24.0756L42.8443 26.2227C43.2197 26.8904 46.9763 33.6652 47.4028 38.1629H47.368C47.5054 38.7817 47.568 39.4148 47.5545 40.0485C47.4492 44.7605 43.2328 48.4883 38.1357 48.3753C33.0742 48.2631 29.0474 44.4046 29.0961 39.7374C29.1023 39.7045 29.1023 39.6706 29.0961 39.6376C29.4831 41.459 30.603 43.2571 32.0603 44.4177C33.5345 45.5844 35.3657 46.2077 37.2457 46.1826C38.4066 46.1648 39.5829 45.8832 40.5504 45.2425C40.862 45.0352 41.1499 44.7941 41.4087 44.5237C43.2847 42.5646 43.5184 39.5804 43.1763 37.0186C42.8258 34.4055 41.7919 31.9311 40.1789 29.8453C39.4165 28.8642 38.487 27.8801 38.3934 26.6413C38.3121 25.5689 38.7456 23.9077 38.6357 22.6589L39.2354 22.6721L40.4683 22.6999L41.4915 22.7224C42.2762 22.7409 42.9047 23.3499 42.8915 24.0756Z" fill="#F2971F"/>
<path d="M33.4491 28.861C33.3515 28.991 33.261 29.1264 33.172 29.2625C31.6742 31.5512 30.5994 34.0901 29.9989 36.7584C29.889 37.2482 29.471 38.6479 30.1908 38.8978C30.4354 38.9829 30.7117 38.825 30.8463 38.603C30.981 38.3809 31.0011 38.1124 31.0197 37.8532C31.0545 37.2474 31.0576 36.6385 31.1211 36.035C31.3834 33.5204 32.6805 31.2162 34.2803 29.2579C34.4052 29.1254 34.502 28.9691 34.5651 28.7983C34.6146 28.6234 34.5751 28.4114 34.4242 28.3093C34.1975 28.1592 33.8987 28.3402 33.713 28.5414C33.619 28.6429 33.5309 28.7496 33.4491 28.861Z" fill="#F7C048"/>
<path d="M35.3011 27.7195C35.4865 27.4559 35.4822 27.1337 35.2917 26.9997C35.1011 26.8658 34.7964 26.9709 34.611 27.2344C34.4257 27.498 34.4299 27.8203 34.6204 27.9542C34.811 28.0881 35.1157 27.9831 35.3011 27.7195Z" fill="#F7C048"/>
<path d="M38.6338 22.6604L38.7816 19.3179L40.5415 19.321L40.4665 22.7022L38.6338 22.6604Z" fill="#CEB9B2"/>
<path d="M38.927 16.3206C38.927 16.3206 38.6585 16.5527 38.4867 17.1105C38.4867 17.1105 37.8149 15.6521 36.1865 16.5883C36.3308 16.3668 36.5231 16.1805 36.7492 16.0434C36.9752 15.9062 37.2292 15.8217 37.4924 15.796C37.7556 15.7702 38.0212 15.804 38.2695 15.8949C38.5178 15.9857 38.7425 16.1312 38.927 16.3206Z" fill="#CEB9B2"/>
<path d="M41.8973 17.6452C41.8885 18.0349 41.7508 18.4107 41.5055 18.7138C41.2603 19.0169 40.9215 19.2302 40.5422 19.3203L40.5244 20.1141L38.7822 19.318C38.7822 19.318 41.0622 19.2499 41.0266 17.4301C41.0266 17.4301 40.8455 15.8006 38.9301 16.3206C39.1834 16.0829 39.5012 15.9253 39.8438 15.8676C40.1863 15.8098 40.5383 15.8545 40.8556 15.996C41.1728 16.1374 41.4412 16.3694 41.6271 16.6628C41.813 16.9562 41.9081 17.298 41.9004 17.6452H41.8973Z" fill="#CEB9B2"/>
<path d="M48.0596 50.4381L46.2409 50.4667L40.9642 50.5441L39.0596 50.5742C39.0807 50.5299 39.0996 50.4844 39.1161 50.4381C39.1339 50.3947 39.1509 50.3514 39.1656 50.3089C39.1803 50.2663 39.1942 50.2245 39.2089 50.182C39.2236 50.1394 39.2298 50.1046 39.2368 50.0698C39.2492 50.0195 39.2585 49.9692 39.2654 49.922C39.2726 49.8796 39.2762 49.8366 39.2763 49.7936C39.2804 49.7646 39.2804 49.7351 39.2763 49.7061C39.2759 49.6575 39.2728 49.6089 39.267 49.5607C39.2623 49.5189 39.2545 49.4775 39.2438 49.4369C39.2333 49.395 39.2194 49.3541 39.202 49.3146C39.1873 49.2771 39.1694 49.2408 39.1486 49.2063C39.1308 49.1777 39.1145 49.1514 39.0952 49.1289C39.0813 49.1081 39.0655 49.0887 39.048 49.0709C39.03 49.049 39.0106 49.0283 38.9899 49.009C38.844 48.8732 38.6687 48.7731 38.4776 48.7165C38.4417 48.7026 38.4047 48.692 38.3669 48.6848C38.3237 48.673 38.2798 48.6642 38.2353 48.6585C38.1486 48.6453 38.0674 48.6283 37.9861 48.6113C37.8408 48.5786 37.698 48.5354 37.5589 48.4821C37.5187 48.4643 37.4761 48.4473 37.4366 48.4295C37.3912 48.4104 37.347 48.3884 37.3043 48.3637C37.2203 48.3236 37.1402 48.2756 37.0651 48.2206C37.0613 48.2206 37.0605 48.2159 37.0566 48.2136C37.007 48.1812 36.9592 48.146 36.9134 48.1084C36.8686 48.0712 36.8229 48.031 36.7803 47.9892C36.7765 47.9892 36.7734 47.9892 36.7757 47.9846C36.7505 47.9628 36.7272 47.939 36.706 47.9134C36.6839 47.8924 36.663 47.8702 36.6433 47.8469C36.6386 47.8426 36.6348 47.8373 36.6325 47.8314C36.6064 47.8026 36.5824 47.7721 36.5605 47.7401C36.4893 47.6527 36.4271 47.5583 36.3748 47.4584C36.3492 47.4105 36.3245 47.3648 36.302 47.3161C36.2796 47.2673 36.2618 47.2232 36.2432 47.176C36.219 47.1222 36.1991 47.0666 36.1836 47.0097C36.1666 46.9594 36.1496 46.906 36.1364 46.8549C36.0685 46.5933 36.0321 46.3244 36.0281 46.0541C36.0281 46.0085 36.0281 45.9698 36.0281 45.9334C36.0335 45.7942 36.0435 45.7106 36.0435 45.7106C35.9919 45.5754 35.9419 45.4465 35.8934 45.3237C35.8516 45.2278 35.816 45.1342 35.775 45.0444C35.734 44.9547 35.6922 44.8502 35.6488 44.7581C35.6016 44.6521 35.5529 44.5523 35.5049 44.4548C35.467 44.3775 35.4275 44.2954 35.3857 44.2227C35.3377 44.1252 35.2851 44.0355 35.2371 43.9504C35.1233 43.7484 35.0088 43.5681 34.8966 43.4087C34.8563 43.3546 34.8192 43.2997 34.7813 43.254C34.7107 43.1574 34.635 43.0647 34.5545 42.9762C34.4865 42.8941 34.4131 42.8165 34.3347 42.7441C34.2236 42.6401 34.1054 42.5439 33.981 42.4563C33.9539 42.4385 33.9268 42.4207 33.9036 42.406C33.8703 42.3832 33.8351 42.3633 33.7984 42.3464C33.5982 42.2328 33.376 42.1634 33.1467 42.1429C33.1046 42.1376 33.0622 42.1352 33.0198 42.136C32.9788 42.136 32.937 42.136 32.8967 42.1406C32.8565 42.1452 32.8193 42.1499 32.7791 42.1561C32.6616 42.1746 32.5466 42.2062 32.4362 42.2505C32.4239 42.2526 32.4119 42.2565 32.4006 42.2621C32.2655 42.3199 32.1359 42.3901 32.0137 42.4718C31.9843 42.4934 31.9541 42.5128 31.9278 42.5337C31.8504 42.5948 31.7768 42.6559 31.7203 42.7078C31.6743 42.7499 31.6304 42.7943 31.5888 42.8408L31.5501 42.8857L31.5454 42.8927C31.4783 43.0951 31.4008 43.294 31.3133 43.4884C31.1923 43.761 31.0434 44.0203 30.869 44.2622C30.7703 44.3988 30.6595 44.5262 30.5378 44.6428C30.5133 44.667 30.4874 44.6897 30.4604 44.7109C30.4364 44.7338 30.4105 44.7545 30.383 44.7728C30.3242 44.8193 30.2653 44.8634 30.2088 44.9028C30.1584 44.9396 30.1051 44.9722 30.0494 45.0003C30.0162 45.0204 29.9821 45.0367 29.948 45.0537C29.866 45.0942 29.7809 45.1281 29.6934 45.1551C29.668 45.1633 29.6422 45.17 29.616 45.1752C29.247 45.2809 28.8543 45.2703 28.4915 45.145C27.0148 42.9012 28.9767 41.4806 28.9767 41.4806C28.926 41.0968 28.8518 40.7165 28.7546 40.3417C28.7299 40.2488 28.7028 40.1583 28.6772 40.0717C28.6517 39.985 28.6231 39.9038 28.5952 39.8225C28.5751 39.7583 28.5519 39.6949 28.5271 39.6345C28.5093 39.5935 28.4954 39.5517 28.476 39.5138C28.4185 39.3743 28.3537 39.2379 28.2818 39.1053C28.257 39.0596 28.2307 39.0178 28.2044 38.9753C28.1935 38.9598 28.1858 38.9436 28.1765 38.9312C28.1529 38.8909 28.127 38.8519 28.0991 38.8144C27.9212 38.5383 27.686 38.3038 27.4095 38.1265C27.3716 38.1025 27.3321 38.0809 27.2965 38.06C27.1476 37.9784 26.9875 37.9192 26.8214 37.8843C26.7914 37.8759 26.7609 37.87 26.73 37.8665C26.6897 37.8582 26.6488 37.8528 26.6077 37.8503C26.5667 37.8452 26.5253 37.8426 26.4839 37.8426C26.4514 37.8426 26.4197 37.8426 26.3879 37.8426C26.3818 37.8426 26.3748 37.8426 26.3686 37.8426C26.335 37.8415 26.3013 37.8434 26.268 37.848C26.2332 37.848 26.2022 37.8542 26.1712 37.858H26.1627C26.1328 37.8613 26.1031 37.8663 26.0737 37.8727C25.986 37.8869 25.9 37.9097 25.8168 37.9408C25.7595 37.9811 25.7061 38.0182 25.6558 38.0592C25.6055 38.1002 25.5552 38.1366 25.5057 38.1814C25.4561 38.2263 25.4283 38.2511 25.3849 38.2843C25.3571 38.3122 25.3261 38.3401 25.3013 38.3671C25.2626 38.4027 25.2239 38.4445 25.1907 38.4801L25.0862 38.5946C25.0227 38.672 24.9608 38.7494 24.9043 38.8267C24.5552 39.3187 24.3541 39.9002 24.3246 40.5026C24.3173 40.5942 24.315 40.6862 24.3177 40.7781C24.3177 40.8794 24.3239 40.9839 24.3316 41.0876C24.3378 41.1464 24.3424 41.2028 24.3486 41.2609C24.3653 41.4127 24.3898 41.5635 24.4222 41.7127C24.4345 41.77 24.4454 41.8249 24.4601 41.8814C25.0367 44.3047 27.1688 46.6174 27.1688 46.6174C26.744 47.0313 26.3245 47.2611 25.9205 47.3548C25.7933 47.3835 25.6638 47.4003 25.5335 47.4051C25.5294 47.4055 25.5253 47.4055 25.5211 47.4051C25.4607 47.4079 25.4002 47.4061 25.34 47.3996C25.2982 47.3996 25.2549 47.3919 25.2123 47.3873C25.1698 47.3826 25.1458 47.378 25.1117 47.371C24.9935 47.3494 24.8773 47.318 24.7642 47.2774C24.7224 47.2635 24.6791 47.2464 24.6365 47.2286C24.6365 47.2286 24.6296 47.2286 24.6249 47.2225C24.5824 47.2054 24.539 47.1853 24.4941 47.1629C24.4406 47.141 24.3889 47.1152 24.3393 47.0855C24.2875 47.0584 24.238 47.0282 24.1884 46.9973C24.0847 46.9315 23.9864 46.8642 23.8905 46.7899C23.8309 46.7443 23.7728 46.694 23.7155 46.6476C23.6707 46.6097 23.6281 46.5702 23.5902 46.5354C23.5523 46.5006 23.5058 46.458 23.4671 46.4193C23.4377 46.3938 23.4114 46.3667 23.3851 46.342C23.341 46.2948 23.2961 46.2483 23.2527 46.2042C23.2094 46.1601 23.1676 46.1098 23.1258 46.0626C22.8289 45.7241 22.5602 45.3619 22.3225 44.9794C22.2892 44.9268 22.2575 44.8773 22.2327 44.8316C22.2079 44.786 22.187 44.7543 22.1692 44.7233C22.1414 44.6784 22.1212 44.6382 22.1034 44.6096C22.0856 44.5809 22.0787 44.5639 22.0725 44.5508C22.0687 44.5425 22.0643 44.5344 22.0593 44.5268C21.0656 39.7746 23.5298 39.0921 23.5298 39.0921C24.5359 37.1214 23.803 36.8483 23.803 36.8483C21.8798 35.0556 20.4472 34.9016 19.5007 35.1817C19.4652 35.1894 19.4305 35.2003 19.397 35.2142C19.3359 35.2351 19.2778 35.2575 19.2198 35.2823C19.1983 35.2899 19.1773 35.2989 19.1571 35.3094C19.1339 35.3202 19.1137 35.3279 19.0944 35.3388C19.0528 35.3576 19.0125 35.379 18.9737 35.403C18.8963 35.4448 18.8266 35.4881 18.7585 35.5337L18.6641 35.6011C18.5829 35.6603 18.5054 35.7244 18.4319 35.7929C18.4019 35.8166 18.3737 35.8424 18.3476 35.8703C18.3174 35.9013 18.2903 35.9314 18.2655 35.9585C18.2407 35.9856 18.226 36.0034 18.2082 36.0227C18.1603 36.0823 18.1347 36.1179 18.1347 36.1179L16.1132 43.1116C15.6736 43.189 15.2077 43.148 14.7766 42.8571C14.6907 42.6033 12.7752 36.5628 17.1147 35.1562C17.2653 35.0394 17.4227 34.9317 17.586 34.8335C18.7059 34.1534 21.7173 32.7932 25.4584 34.9302C25.4584 34.9302 26.6905 34.6772 28.2756 35.3372C29.3591 35.7883 30.6128 36.6727 31.7467 38.3548C32.059 38.8173 32.34 39.3001 32.5879 39.8001C32.5879 39.8001 34.611 36.5961 39.5255 41.3305L41.7699 43.7221L42.7884 44.8053L47.3159 49.6388L47.5682 49.905L48.0596 50.4381Z" fill="#9FBE3B"/>
<path d="M18.3099 41.7909C19.9708 41.2578 21.1998 42.6691 22.0666 44.5175C21.0721 39.7637 23.5371 39.0813 23.5371 39.0813C24.5432 37.1099 23.8103 36.8375 23.8103 36.8375C20.035 33.3186 18.1436 36.1087 18.1436 36.1087C19.1822 39.5038 18.3099 41.7909 18.3099 41.7909Z" fill="#5C8D3E"/>
<path d="M23.8275 50.8133L39.06 50.5758C39.8618 48.8434 38.2381 48.6585 38.2381 48.6585C35.7082 48.2716 36.0464 45.7067 36.0464 45.7067C33.8793 39.9308 31.5459 42.888 31.5459 42.888C30.5027 45.9721 28.4974 45.1403 28.4974 45.1403L27.1724 46.6166C24.4853 49.2233 22.0645 44.5175 22.0645 44.5175C23.3221 47.2008 23.8275 50.8133 23.8275 50.8133Z" fill="#96B13C"/>
<path d="M16.1133 43.1124C17.2742 42.8996 18.3082 41.7909 18.3082 41.7909C18.3082 41.7909 19.1804 39.5037 18.1387 36.1094L16.1133 43.1124Z" fill="#346330"/>
<path d="M27.1725 46.6165L28.4967 45.1403C27.0201 42.8918 28.982 41.4759 28.982 41.4759C28.3512 36.8923 25.822 37.9369 25.822 37.9369C21.7867 40.7687 27.1725 46.6165 27.1725 46.6165Z" fill="#4F823C"/>
<path d="M25.4593 34.9303C21.7181 32.7933 18.7067 34.1566 17.5868 34.8336C17.4235 34.9318 17.2661 35.0395 17.1155 35.1562C12.776 36.5629 14.6915 42.6034 14.7774 42.8571C14.3564 42.5825 13.9664 42.0718 13.646 41.2323C13.646 41.2323 11.2978 34.1024 16.3462 33.7032C16.7755 33.6726 17.2067 33.6832 17.634 33.7349C17.634 33.7349 19.4799 29.6225 25.4593 34.9303Z" fill="#B3CB35"/>
<path d="M63.0137 49.388C63.4378 49.2394 63.9045 49.3106 64.3472 49.388C68.2613 50.1006 71.9924 51.5917 75.3193 53.7727C77.3803 55.126 77.1721 56.6881 76.0019 58.0932C74.3464 60.0809 70.7647 61.753 68.9529 62.0717C67.5513 62.3185 66.0669 62.3038 64.752 61.7576C62.8357 60.9637 61.4883 59.0898 61.0309 57.0665L61.0077 56.9636C60.5851 54.9705 60.9396 52.8628 61.7042 50.9765C61.9697 50.3165 62.3466 49.6201 63.0137 49.388Z" fill="#394C53"/>
<path d="M69.5148 52.9713C69.5148 52.9713 80.5518 40.2095 73.5756 24.885L72.7591 25.4978C72.7591 25.4978 79.4823 37.8952 68.4111 52.5922L69.5148 52.9713Z" fill="#394C53"/>
<path d="M66.4735 44.4904L78.5036 49.6202C78.5882 49.657 78.6549 49.7256 78.6892 49.8112C78.7235 49.8968 78.7227 49.9925 78.687 50.0775L78.632 50.2067C78.5956 50.2914 78.5271 50.3582 78.4415 50.3925C78.356 50.4269 78.2603 50.426 78.1754 50.3901L66.1446 45.2634C66.0599 45.2269 65.9931 45.1585 65.9587 45.0729C65.9244 44.9874 65.9253 44.8918 65.9612 44.8069L66.0161 44.6777C66.052 44.5923 66.1203 44.5246 66.2061 44.4895C66.2918 44.4544 66.388 44.4547 66.4735 44.4904Z" fill="#394C53"/>
<path d="M69.2446 41.3712L78.9305 45.4994C79.0913 45.568 79.2773 45.4932 79.3458 45.3324L79.4256 45.1452C79.4942 44.9845 79.4194 44.7986 79.2586 44.73L69.5727 40.6018C69.4119 40.5332 69.226 40.608 69.1574 40.7688L69.0776 40.9559C69.009 41.1167 69.0838 41.3026 69.2446 41.3712Z" fill="#394C53"/>
<path d="M70.467 37.7525L79.0889 39.4843C79.2469 39.516 79.4007 39.4137 79.4325 39.2558L79.4823 39.0077C79.5141 38.8498 79.4117 38.696 79.2537 38.6643L70.6318 36.9325C70.4738 36.9008 70.32 37.0031 70.2883 37.161L70.2384 37.4091C70.2067 37.567 70.309 37.7208 70.467 37.7525Z" fill="#394C53"/>
<path d="M72.2433 34.0391L79.077 34.5348C79.2211 34.5452 79.3464 34.4369 79.3568 34.2929L79.3795 33.9803C79.39 33.8363 79.2816 33.711 79.1375 33.7006L72.3039 33.2049C72.1598 33.1944 72.0345 33.3027 72.024 33.4468L72.0013 33.7593C71.9909 33.9034 72.0992 34.0286 72.2433 34.0391Z" fill="#394C53"/>
<path d="M71.0365 54.4475C73.1586 55.1632 74.876 56.484 76.0044 58.0933C74.3489 60.081 70.7672 61.7531 68.9554 62.0718C68.5714 62.1402 68.1838 62.1862 67.7945 62.2096C67.4805 62.2274 67.1658 62.2274 66.8518 62.2096C66.1324 62.1776 65.4237 62.0235 64.756 61.7538C62.8398 60.96 61.4923 59.086 61.0349 57.0627L61.0117 56.9598C63.1153 54.2626 67.1513 53.1376 71.0365 54.4475Z" fill="#485F67"/>
<path d="M64.7752 54.762L64.3156 57.9946C64.2885 58.185 64.421 58.3613 64.6114 58.3884L64.662 58.3955C64.8524 58.4226 65.0287 58.2902 65.0558 58.0998L65.5154 54.8672C65.5425 54.6768 65.4101 54.5005 65.2196 54.4735L65.169 54.4663C64.9786 54.4392 64.8023 54.5716 64.7752 54.762Z" fill="#1E3136"/>
<path d="M66.5754 56.3059L63.3419 55.8464C63.1514 55.8193 62.9751 55.9517 62.9481 56.1421L62.9409 56.1926C62.9138 56.383 63.0462 56.5593 63.2367 56.5863L66.4702 57.0458C66.6606 57.0729 66.8369 56.9405 66.864 56.7501L66.8712 56.6996C66.8982 56.5092 66.7658 56.3329 66.5754 56.3059Z" fill="#1E3136"/>
<path d="M68.0858 59.3777C68.2021 59.4092 68.3011 59.4855 68.3612 59.59C68.4213 59.6944 68.4374 59.8184 68.4062 59.9348L67.7932 62.2095C67.4793 62.2273 67.1646 62.2273 66.8506 62.2095L67.5286 59.6949C67.5609 59.5793 67.6376 59.4812 67.7419 59.4218C67.8463 59.3624 67.9698 59.3465 68.0858 59.3777Z" fill="#1E3136"/>
<path d="M73.4855 26.099C73.4855 26.099 80.5578 19.4008 77.0085 16.5489C73.4592 13.6969 71.7241 20.296 71.7241 20.296C71.7241 20.296 69.1701 16.9334 67.0897 18.6093C65.0094 20.2852 66.9419 25.0676 73.4855 26.099Z" fill="#394C53"/>
<path d="M72.0305 30.3699L77.789 29.5987C77.9212 29.581 78.014 29.4595 77.9963 29.3274L77.9493 28.9769C77.9316 28.8448 77.8101 28.752 77.6779 28.7697L71.9194 29.5409C71.7873 29.5586 71.6944 29.6801 71.7122 29.8122L71.7591 30.1627C71.7768 30.2948 71.8983 30.3876 72.0305 30.3699Z" fill="#394C53"/>
<path d="M39.9254 30.6506C39.5696 31.0039 39.2986 31.4333 39.1329 31.9064C39.1329 31.9064 37.4233 35.7333 37.9078 39.2862C37.9081 39.2903 37.9081 39.2945 37.9078 39.2986C37.9178 39.3659 37.9279 39.4363 37.9379 39.5036C38.1391 40.5706 39.064 41.3606 40.033 41.8511C41.7828 42.7378 43.7834 42.9475 45.7299 43.1425C48.077 43.3777 50.4246 43.6132 52.7727 43.8489C52.8501 43.8535 52.9329 43.8644 53.0126 43.8713C53.7417 43.9441 54.4676 44.016 55.1959 44.0919C55.4884 44.1197 55.781 44.1483 56.0728 44.1801C59.3914 44.5112 62.711 44.8434 66.0317 45.1766C68.8674 45.459 72.0111 46.1167 75.055 46.2096C75.3267 46.215 75.5968 46.2212 75.8638 46.2204C76.5509 46.2178 77.2372 46.1752 77.9194 46.0927C79.8217 45.8606 81.6296 45.2617 83.2301 44.0524C83.2804 44.0168 83.3268 43.9812 83.374 43.9425C83.5412 43.8087 83.7138 43.6601 83.7773 43.4582C83.8423 43.2408 83.7703 43.0063 83.6882 42.792C83.1929 41.5277 82.3192 40.4608 81.2566 39.605C80.6042 39.0879 79.8969 38.6439 79.1476 38.2812C77.1818 37.3233 75.0202 36.866 72.888 36.3863C72.5173 36.3035 72.1443 36.2176 71.7743 36.1317L71.1002 35.977C63.5551 34.2268 56.0712 32.1927 48.4781 30.7002C48.215 30.6483 47.9542 30.6004 47.6934 30.5524C47.0487 30.4255 46.4024 30.3079 45.7531 30.1926C45.483 30.1431 45.2114 30.0936 44.9451 30.0502L44.4893 29.9729C42.9128 29.7082 41.0793 29.5489 39.9254 30.6506Z" fill="#F16224"/>
<path d="M39.8501 31.0274C39.5067 31.3454 39.2438 31.7406 39.0832 32.1802C39.0832 32.1802 37.4401 35.7023 37.9556 38.9937C37.9552 38.9976 37.9552 39.0014 37.9556 39.0053C37.9664 39.068 37.9764 39.133 37.9873 39.1956C38.1962 40.1852 39.1157 40.9241 40.0769 41.3899C41.8097 42.2279 43.7833 42.4437 45.7026 42.6449C48.0172 42.8879 50.3315 43.1308 52.6456 43.3738C52.723 43.3784 52.8004 43.3892 52.8824 43.397C53.6014 43.4744 54.3173 43.5463 55.0355 43.6237C55.3242 43.6531 55.6121 43.6825 55.9 43.715C59.1727 44.0559 62.4464 44.3987 65.7212 44.7433C68.5182 45.0342 71.6217 45.6764 74.6215 45.794C74.8885 45.8025 75.1531 45.811 75.4178 45.8133C76.0937 45.8182 76.7693 45.7861 77.4417 45.7174C79.313 45.5201 81.0877 44.9885 82.6518 43.886C82.7006 43.8543 82.7462 43.8218 82.7927 43.7862C82.9552 43.6639 83.1239 43.5285 83.1843 43.342C83.2462 43.1424 83.1726 42.9242 83.0898 42.7231C82.5883 41.5478 81.7161 40.552 80.6597 39.7489C80.0087 39.2612 79.3083 38.8431 78.5701 38.5016C76.6236 37.5948 74.4899 37.1491 72.384 36.6818C72.0179 36.6044 71.6496 36.5178 71.2843 36.435L70.6179 36.2857C63.1665 34.5834 55.7731 32.6244 48.2775 31.162C48.0175 31.1117 47.7598 31.0645 47.5036 31.0173C46.8674 30.8928 46.2297 30.7775 45.5881 30.6637C45.3219 30.615 45.0556 30.5662 44.791 30.5237L44.3413 30.4463C42.7834 30.1871 40.9754 30.02 39.8501 31.0274Z" fill="#F27325"/>
<path d="M39.6574 32.0341C39.3458 32.2568 39.1012 32.5605 38.95 32.9123C38.95 32.9123 37.4703 35.6204 38.0817 38.2147C38.082 38.2178 38.082 38.2209 38.0817 38.224C38.0948 38.2727 38.1064 38.3245 38.1196 38.3741C38.3556 39.1563 39.2743 39.7668 40.2239 40.1629C41.9366 40.8786 43.8614 41.1138 45.7351 41.3351C47.9929 41.6028 50.2507 41.8705 52.5086 42.1383C52.5859 42.1452 52.6633 42.156 52.7407 42.1646C53.4419 42.2476 54.1421 42.3309 54.8412 42.4145C55.1229 42.447 55.4041 42.4805 55.6848 42.5151C58.878 42.8916 62.0721 43.2697 65.2669 43.6493C67.9958 43.9712 71.035 44.5778 73.955 44.7712C74.2151 44.7867 74.472 44.8022 74.729 44.813C75.3953 44.8378 76.0501 44.8386 76.6932 44.8053C78.5058 44.7132 80.2131 44.3558 81.6967 43.5441C81.7431 43.5209 81.7865 43.4969 81.8306 43.4667C81.9854 43.377 82.144 43.2756 82.1959 43.1325C82.2501 42.9777 82.1711 42.8044 82.0837 42.6458C81.5566 41.7081 80.6759 40.898 79.6218 40.2333C78.9621 39.8242 78.2678 39.4737 77.5469 39.1857C75.6236 38.412 73.534 37.9888 71.4715 37.5524C71.1131 37.475 70.7525 37.3976 70.3942 37.3203L69.7417 37.181C62.4404 35.5995 55.1871 33.8145 47.851 32.4179C47.5972 32.3699 47.3449 32.3243 47.0933 32.2786C46.4703 32.1595 45.8465 32.0465 45.2196 31.9374C44.9588 31.8902 44.698 31.843 44.4395 31.8012L43.9999 31.7239C42.4807 31.474 40.7169 31.2828 39.6574 32.0341Z" fill="#F4812E"/>
<path d="M39.4906 32.8225C39.2139 32.9637 38.987 33.1862 38.8405 33.4601C38.8405 33.4601 37.514 35.4493 38.1997 37.4347C38.1997 37.4347 38.1997 37.4393 38.1997 37.4417L38.2415 37.557C38.4985 38.1566 39.4071 38.6518 40.3373 38.9868C42.016 39.5911 43.8819 39.8379 45.6976 40.0778C47.8858 40.363 50.0737 40.649 52.2613 40.9358C52.3387 40.9436 52.4107 40.9544 52.485 40.9645C53.1645 41.0527 53.8417 41.1409 54.5212 41.2306C54.7936 41.2662 55.063 41.301 55.3377 41.3382C58.4335 41.7415 61.5292 42.1457 64.6249 42.5506C67.2695 42.8949 70.2228 43.4667 73.0469 43.7205C73.2984 43.7421 73.5468 43.763 73.796 43.7808C74.4392 43.8242 75.0715 43.8489 75.6906 43.8481C77.4351 43.8481 79.0689 43.6392 80.4704 43.0806C80.5138 43.0644 80.5548 43.0481 80.5958 43.0303C80.7421 42.9676 80.8915 42.8972 80.9364 42.7905C80.9812 42.6837 80.9 42.5421 80.8102 42.4191C80.2684 41.6902 79.3869 41.0457 78.346 40.5041C77.6866 40.1676 77.0047 39.8773 76.3051 39.6352C74.4221 38.9775 72.3906 38.5821 70.3845 38.1759C70.0363 38.1055 69.688 38.0336 69.3366 37.9616L68.702 37.8324C61.6012 36.3623 54.539 34.7483 47.4095 33.4222C47.1626 33.3757 46.9181 33.3324 46.6735 33.2883C46.0683 33.1764 45.4615 33.0673 44.8532 32.961C44.6002 32.9161 44.3463 32.8705 44.0956 32.8295L43.6683 32.7521C42.1948 32.5037 40.4844 32.2933 39.4906 32.8225Z" fill="#F79731"/>
<path d="M39.4209 33.1398C39.1599 33.2529 38.9415 33.4458 38.7971 33.6907C38.7971 33.6907 37.5341 35.4231 38.2376 37.1857C38.2376 37.1857 38.2376 37.1857 38.2376 37.1919C38.2523 37.2251 38.2662 37.2599 38.2801 37.294C38.5417 37.8271 39.441 38.2789 40.3535 38.5908C42.0035 39.1517 43.8316 39.4032 45.6093 39.643C47.7526 39.9324 49.8956 40.2218 52.0384 40.5112C52.1111 40.5189 52.1839 40.5305 52.2574 40.5398L54.251 40.809L55.0513 40.9174L64.1458 42.1445C66.7354 42.4927 69.6322 43.0467 72.3959 43.319C72.642 43.3422 72.8851 43.3647 73.1288 43.3848C73.758 43.4335 74.3764 43.4622 74.9809 43.4761C76.6835 43.5032 78.2794 43.3484 79.6392 42.8795C79.6817 42.8664 79.7212 42.8525 79.7614 42.837C79.9023 42.7851 80.0478 42.7256 80.0896 42.6319C80.1314 42.5383 80.0501 42.4122 79.9596 42.3016C79.4178 41.6501 78.5464 41.0636 77.5194 40.5715C76.8662 40.2623 76.1941 39.9948 75.5071 39.7707C73.6559 39.1587 71.6646 38.7757 69.6972 38.3834C69.3552 38.3161 69.0107 38.2465 68.6694 38.1768L68.0503 38.0522C61.0849 36.6386 54.1566 35.0927 47.168 33.7967L46.4467 33.6668C45.8531 33.5569 45.2595 33.4517 44.662 33.3472C44.4143 33.3031 44.1659 33.259 43.9198 33.218L43.5011 33.146C42.0569 32.9077 40.3837 32.6919 39.4209 33.1398Z" fill="#F4812E"/>
<path d="M40.68 34.2725C40.4084 34.346 40.2435 34.4574 40.1383 34.5866C40.1383 34.5866 39.0749 35.611 39.8047 36.753C39.8202 36.7747 39.8341 36.7971 39.8488 36.8196C40.1143 37.1677 40.9532 37.4966 41.803 37.738C43.3346 38.1736 45.0125 38.4227 46.6439 38.6665C48.6103 38.9558 50.5771 39.2455 52.5444 39.5354C52.6117 39.5439 52.6783 39.5547 52.7456 39.564L54.5752 39.834C54.8206 39.8696 55.0651 39.9052 55.3105 39.9423L63.6573 41.1695C66.0341 41.5184 68.7003 42.0121 71.2318 42.3216C71.457 42.3486 71.6799 42.3749 71.9028 42.3989C72.4786 42.4616 73.0436 42.5127 73.5946 42.549C75.1495 42.6527 76.5929 42.6349 77.8087 42.409C77.8466 42.4028 77.8861 42.3966 77.9178 42.3889C78.044 42.3626 78.1732 42.3332 78.2065 42.2767C78.2398 42.2202 78.1593 42.1358 78.0719 42.0623C77.544 41.626 76.7213 41.2159 75.7617 40.853C75.1758 40.6333 74.5419 40.4306 73.8911 40.2495C72.1737 39.7721 70.3395 39.4317 68.5277 39.0889L67.5812 38.9079L67.0077 38.798C60.5926 37.56 54.2014 36.2447 47.77 35.0787L47.106 34.9603C46.5606 34.8623 46.0134 34.7656 45.4645 34.6702C45.2323 34.6299 45.0078 34.5928 44.7819 34.5518L44.3949 34.4852C43.0691 34.257 41.5344 34.038 40.68 34.2725Z" fill="#F27325"/>
<path d="M39.4029 35.0107C39.1506 35.0107 39.0043 35.0293 38.9184 35.0641C38.9184 35.0641 38.0091 35.3133 38.8318 35.7968L38.8813 35.8247C39.173 35.9794 40.0128 36.1829 40.8525 36.3601C42.3686 36.6789 44.0032 36.9474 45.5936 37.2073L51.3439 38.1482L51.5405 38.1807L53.3206 38.4724L54.0365 38.5892L62.1713 39.9208C64.4877 40.2992 67.0966 40.7603 69.5577 41.1418L70.2093 41.2416C70.7681 41.3256 71.3143 41.403 71.8478 41.4737C73.3492 41.6764 74.7314 41.8257 75.8722 41.876L75.9752 41.8807C76.0634 41.8901 76.1525 41.8869 76.2398 41.8714C76.2661 41.8536 76.1795 41.8165 76.085 41.7809C75.5325 41.5696 74.6997 41.336 73.74 41.1046C73.1549 40.9638 72.5257 40.8238 71.8826 40.6899C70.1799 40.3363 68.3898 40.0183 66.6152 39.7019L65.6865 39.5363L65.1254 39.4357C58.841 38.3084 52.5722 37.1547 46.2816 36.053L45.6315 35.9392C45.0975 35.8453 44.5627 35.7525 44.0272 35.6607C43.8035 35.622 43.5806 35.5833 43.3593 35.5454L42.9831 35.4804C41.6922 35.2614 40.197 35.0193 39.4029 35.0107Z" fill="#F16224"/>
<path d="M40.3549 38.5929C40.3549 38.5929 39.6383 37.3689 40.1429 37.064C40.6475 36.7592 41.3371 36.9557 41.9121 36.0675C41.9121 36.0675 41.5313 34.9541 40.8348 34.6237C40.1382 34.2933 40.5554 33.973 40.9524 33.7726C41.3494 33.5722 41.5878 32.824 41.5878 32.824C41.5878 32.824 38.5602 31.8181 38.1221 35.1955C37.6841 38.5728 38.9944 38.203 40.3549 38.5929Z" fill="#F79731"/>
<path d="M41.7139 37.2151C41.7139 37.2151 41.9847 38.0143 41.9066 38.4677C41.9066 38.4677 42.4313 37.79 42.5071 37.3513L41.7139 37.2151Z" fill="#F27325"/>
<path d="M43.2217 37.4727C43.2217 37.4727 43.4539 38.3238 43.2991 38.9319C43.2991 38.9319 43.7882 37.9918 43.806 37.5732L43.2217 37.4727Z" fill="#F27325"/>
<path d="M45.2012 35.0741C45.2012 35.0741 46.044 34.4552 46.1399 33.8958L45.9078 35.256L45.2012 35.0741Z" fill="#F27325"/>
<path d="M46.4336 35.3471C46.7848 35.0693 47.0149 34.6665 47.076 34.2229L47.0063 35.5514L46.4336 35.3471Z" fill="#F27325"/>
<path d="M47.3086 37.8774C47.3086 37.8774 48.0314 38.8307 48.2048 39.674L48.4795 38.0794L47.3086 37.8774Z" fill="#F27325"/>
<path d="M49.3232 38.5413C49.3232 38.5413 49.7419 39.2237 49.7938 39.7212L49.9602 38.7563L49.3232 38.5413Z" fill="#F27325"/>
<path d="M52.3662 36.5077C52.3662 36.5077 53.4637 35.7789 53.6324 35.3108L53.2802 36.5L52.3662 36.5077Z" fill="#F27325"/>
<path d="M53.8809 36.7701L54.4033 35.2783L54.3096 36.678L53.8809 36.7701Z" fill="#F27325"/>
<path d="M54.96 39.1958C54.96 39.1958 55.4669 40.3224 55.5079 40.7363L55.6139 39.3088L54.96 39.1958Z" fill="#F27325"/>
<path d="M56.0225 39.3792C56.0225 39.3792 56.1533 40.4105 56.1076 40.8399L56.3498 39.4356L56.0225 39.3792Z" fill="#F27325"/>
<path d="M58.6738 37.636C58.6738 37.636 59.6916 36.7895 59.7032 36.4421L59.3936 37.8023L58.6738 37.636Z" fill="#F27325"/>
<path d="M59.8047 37.8975C59.8047 37.8975 60.3255 37.1037 60.4749 36.6208L60.3604 37.8286L59.8047 37.8975Z" fill="#F27325"/>
<path d="M42.5449 42.3579C42.8402 42.0022 43.0556 41.5871 43.1764 41.1409C43.1764 41.1409 43.4698 41.9146 43.2059 42.4717L42.5449 42.3579Z" fill="#F16224"/>
<path d="M42.1357 42.1924C42.3882 41.8184 42.5743 41.4039 42.686 40.9668C42.686 40.9668 42.8687 41.7258 42.6357 42.286L42.1357 42.1924Z" fill="#F16224"/>
<path d="M45.793 42.7255C46.0106 42.3303 46.1586 41.9005 46.2302 41.4551C46.2302 41.4551 46.481 42.194 46.2999 42.7704L45.793 42.7255Z" fill="#F16224"/>
<path d="M51.3105 43.4528C51.3105 43.4528 51.73 42.8756 51.8283 42.1838C51.8283 42.1838 52.1905 42.9274 51.9784 43.5061L51.3105 43.4528Z" fill="#F16224"/>
<path d="M56.3574 43.9333C56.4949 43.5368 56.563 43.1196 56.5587 42.7C56.5587 42.7 56.9046 43.3383 56.8288 43.8977L56.3574 43.9333Z" fill="#F16224"/>
<path d="M67.9482 45.2509C67.9482 45.2509 68.3685 44.6466 68.3855 44.2876C68.3855 44.2876 68.3662 45.1774 68.343 45.319L67.9482 45.2509Z" fill="#F16224"/>
<path d="M68.5029 45.2649C68.5029 45.2649 68.6283 44.8007 68.6515 44.7295L68.8272 45.2641L68.5029 45.2649Z" fill="#F16224"/>
<path d="M71.5186 45.7091C71.5186 45.7091 71.774 45.0793 71.8281 44.7148C71.8281 44.7148 71.8498 45.4824 71.8034 45.7083L71.5186 45.7091Z" fill="#F16224"/>
<path d="M80.3359 45.2216C80.3359 45.2216 80.9094 44.56 81.0596 44.1035C81.0596 44.1035 81.1137 44.7271 80.7724 45.0707L80.3359 45.2216Z" fill="#F16224"/>
<path d="M66.0938 40.7603C66.0938 40.7603 66.2485 41.876 66.1379 42.252C66.1379 42.252 66.6107 41.5162 66.6432 40.7185L66.0938 40.7603Z" fill="#F27325"/>
<path d="M73.1807 40.5437C73.1807 40.5437 73.7131 39.9881 73.7681 39.4102C73.846 39.7871 73.8354 40.1769 73.7371 40.5491L73.1807 40.5437Z" fill="#F27325"/>
<path d="M75.584 42.0725C75.584 42.0725 75.8781 42.635 75.8804 43.1472C75.8804 43.1472 76.1165 42.8269 76.0522 42.153L75.584 42.0725Z" fill="#F27325"/>
<path d="M76.375 42.3742C76.375 42.3742 76.5515 42.751 76.5577 42.9777C76.5577 42.9777 76.7821 42.5498 76.6807 42.2612L76.375 42.3742Z" fill="#F27325"/>
<path d="M77.0254 41.6579C77.0254 41.6579 77.376 41.6579 77.5153 40.9143C77.5153 40.9143 77.6112 41.2354 77.4379 41.8652L77.0254 41.6579Z" fill="#F27325"/>
<path d="M42.4844 29.9529C42.5939 30.3994 42.6113 30.8635 42.5354 31.317C42.5354 31.317 43.1747 31.0361 43.3489 30.1022L42.4844 29.9529Z" fill="#F16224"/>
<path d="M49.1025 30.9734C49.1025 30.9734 49.351 31.8895 49.1745 32.4767C49.1745 32.4767 49.6389 31.8639 49.7526 31.2202L49.1025 30.9734Z" fill="#F16224"/>
<path d="M50.0012 31.2634C50.0012 31.2634 49.9362 31.6433 49.8604 32.082C49.8604 32.082 50.3882 31.5559 50.4385 31.2634H50.0012Z" fill="#F16224"/>
<path d="M55.0566 32.3452C55.0566 32.3452 55.6719 33.1445 55.4072 33.8068C55.4072 33.8068 55.836 33.5035 55.8321 32.4791L55.0566 32.3452Z" fill="#F16224"/>
<path d="M64.8931 34.7036C64.8931 34.7036 65.1253 35.0905 64.8691 35.9795C64.8691 35.9795 65.5239 35.7605 65.6431 34.8963L64.8931 34.7036Z" fill="#F16224"/>
<path d="M77.6104 37.9185C77.6104 37.9185 78.2248 38.4601 78.1792 39.2516C78.1792 39.2516 78.5538 38.6535 78.2984 38.0368L77.6104 37.9185Z" fill="#F16224"/>
<path d="M80.7573 39.4998C80.7573 39.4998 80.8525 39.9957 80.666 40.7331C80.666 40.7331 81.1745 40.4901 81.1931 39.7706L80.7573 39.4998Z" fill="#F16224"/>
<path d="M81.4006 40.1228C81.4956 40.4017 81.4798 40.7064 81.3564 40.9739C81.3564 40.9739 81.7705 40.8911 81.8301 40.5282L81.4006 40.1228Z" fill="#F16224"/>
<path d="M44.8984 36.4854C44.8984 36.4854 45.1593 37.6459 45.0408 38.1419C45.0408 38.1419 45.5338 37.4455 45.6344 36.832C45.7351 36.2184 45.694 36.719 45.694 36.719L44.8984 36.4854Z" fill="#F16224"/>
<path d="M46.1219 36.7926C46.1219 36.7926 46.0298 37.6004 46.002 37.8557C46.002 37.8557 46.5383 37.2607 46.5932 36.8738C46.6482 36.487 46.1219 36.7926 46.1219 36.7926Z" fill="#F16224"/>
<path d="M46.3184 36.6332C46.3184 36.6332 46.9522 35.6274 47.0072 35.1206C47.0072 35.1206 47.2393 35.94 47.1287 36.5528C47.018 37.1656 47.1465 36.6797 47.1465 36.6797L46.3184 36.6332Z" fill="#F16224"/>
<path d="M47.3389 36.7129C47.3389 36.7129 47.5231 35.9206 47.5819 35.6707C47.5819 35.6707 47.8915 36.4111 47.8141 36.7941C47.7367 37.1771 47.3389 36.7129 47.3389 36.7129Z" fill="#F16224"/>
<path d="M47.7354 37.071C47.7354 37.071 47.9969 38.2316 47.8777 38.7268C47.8777 38.7268 48.3708 38.0305 48.4714 37.4177C48.572 36.8049 48.531 37.3039 48.531 37.3039L47.7354 37.071Z" fill="#F16224"/>
<path d="M48.9588 37.3782C48.9588 37.3782 48.8667 38.186 48.8389 38.4405C48.8389 38.4405 49.3752 37.8455 49.4309 37.4594C49.4866 37.0733 48.9588 37.3782 48.9588 37.3782Z" fill="#F16224"/>
<path d="M49.1602 37.2182C49.1602 37.2182 49.7932 36.2124 49.8489 35.7056C49.8489 35.7056 50.0811 36.5249 49.9697 37.1385C49.8582 37.7521 49.9875 37.2646 49.9875 37.2646L49.1602 37.2182Z" fill="#F16224"/>
<path d="M50.1758 37.2978C50.1758 37.2978 50.36 36.5055 50.4188 36.2563C50.4188 36.2563 50.7284 36.996 50.651 37.379C50.5736 37.762 50.1758 37.2978 50.1758 37.2978Z" fill="#F16224"/>
<path d="M50.8105 37.5693C50.8105 37.5693 51.0714 38.7299 50.9529 39.2259C50.9529 39.2259 51.4459 38.5295 51.5466 37.916C51.6472 37.3024 51.6062 37.803 51.6062 37.803L50.8105 37.5693Z" fill="#F16224"/>
<path d="M52.034 37.8766C52.034 37.8766 51.9419 38.6844 51.9141 38.9397C51.9141 38.9397 52.4504 38.3447 52.5053 37.9578C52.5603 37.571 52.034 37.8766 52.034 37.8766Z" fill="#F16224"/>
<path d="M52.2305 37.7172C52.2305 37.7172 52.8643 36.7114 52.9201 36.2046C52.9201 36.2046 53.1522 37.0232 53.0408 37.6368C52.9293 38.2503 53.0586 37.7637 53.0586 37.7637L52.2305 37.7172Z" fill="#F16224"/>
<path d="M53.251 37.7968C53.251 37.7968 53.4352 37.0046 53.494 36.7546C53.494 36.7546 53.8036 37.4951 53.7262 37.8781C53.6488 38.2611 53.251 37.7968 53.251 37.7968Z" fill="#F16224"/>
<path d="M42.2666 35.9832C42.2666 35.9832 42.5282 37.1437 42.409 37.6397C42.409 37.6397 42.902 36.9433 43.0026 36.3298C43.1032 35.7162 43.0622 36.2168 43.0622 36.2168L42.2666 35.9832Z" fill="#F16224"/>
<path d="M43.4901 36.2904C43.4901 36.2904 43.398 37.0982 43.3701 37.3535C43.3701 37.3535 43.9065 36.7585 43.9622 36.3716C44.0179 35.9848 43.4901 36.2904 43.4901 36.2904Z" fill="#F16224"/>
<path d="M43.6875 36.1311C43.6875 36.1311 44.3206 35.1252 44.3763 34.6184C44.3763 34.6184 44.6085 35.4378 44.497 36.0506C44.3856 36.6634 44.5148 36.1775 44.5148 36.1775L43.6875 36.1311Z" fill="#F16224"/>
<path d="M44.707 36.2107C44.707 36.2107 44.8912 35.4184 44.9501 35.1685C44.9501 35.1685 45.2596 35.9089 45.1822 36.2919C45.1048 36.6749 44.707 36.2107 44.707 36.2107Z" fill="#F16224"/>
<path d="M55.9707 38.3347C55.9707 38.3347 56.2617 39.322 56.1564 39.7413C56.1564 39.7413 56.6286 39.1665 56.7129 38.6473C56.7973 38.1281 56.7694 38.5537 56.7694 38.5537L55.9707 38.3347Z" fill="#F16224"/>
<path d="M57.1949 38.6271C57.1949 38.6271 57.1252 39.3088 57.1035 39.5247C57.1035 39.5247 57.6221 39.0341 57.6669 38.7084C57.7118 38.3826 57.1949 38.6271 57.1949 38.6271Z" fill="#F16224"/>
<path d="M57.3877 38.4972C57.3877 38.4972 57.9921 37.6639 58.0339 37.2329C58.0339 37.2329 58.2862 37.9293 58.1887 38.45C58.0912 38.9707 58.2104 38.5583 58.2104 38.5583L57.3877 38.4972Z" fill="#F16224"/>
<path d="M58.4053 38.5907C58.4053 38.5907 58.5678 37.9245 58.6197 37.7148C58.6197 37.7148 58.9439 38.3501 58.8774 38.6719C58.8108 38.9938 58.4053 38.5907 58.4053 38.5907Z" fill="#F16224"/>
<path d="M58.8096 38.9048C58.8096 38.9048 59.0998 39.8921 58.9946 40.3122C58.9946 40.3122 59.4674 39.7365 59.551 39.2181C59.6346 38.6998 59.6075 39.1237 59.6075 39.1237L58.8096 38.9048Z" fill="#F16224"/>
<path d="M60.0357 39.1973C60.0357 39.1973 59.9652 39.8797 59.9443 40.0948C59.9443 40.0948 60.4621 39.605 60.5078 39.2785C60.5534 38.952 60.0357 39.1973 60.0357 39.1973Z" fill="#F16224"/>
<path d="M60.2275 39.0672C60.2275 39.0672 60.832 38.2339 60.8738 37.8037C60.8738 37.8037 61.1261 38.5001 61.0286 39.0208C60.9311 39.5415 61.0502 39.1283 61.0502 39.1283L60.2275 39.0672Z" fill="#F16224"/>
<path d="M61.2451 39.1618C61.2451 39.1618 61.4069 38.4956 61.4587 38.2852C61.4587 38.2852 61.7838 38.9204 61.7164 39.243C61.6491 39.5657 61.2451 39.1618 61.2451 39.1618Z" fill="#F16224"/>
<path d="M61.8828 39.407C61.8828 39.407 62.1738 40.3943 62.0686 40.8136C62.0686 40.8136 62.5407 40.2387 62.625 39.7196C62.7094 39.2004 62.6815 39.6259 62.6815 39.6259L61.8828 39.407Z" fill="#F16224"/>
<path d="M63.1099 39.7011C63.1099 39.7011 63.0395 40.3828 63.0186 40.5986C63.0186 40.5986 63.5363 40.1081 63.5812 39.7824C63.6261 39.4566 63.1099 39.7011 63.1099 39.7011Z" fill="#F16224"/>
<path d="M63.3018 39.5709C63.3018 39.5709 63.9062 38.7376 63.9472 38.3066C63.9472 38.3066 64.2003 39.003 64.1059 39.5237C64.0115 40.0444 64.1268 39.632 64.1268 39.632L63.3018 39.5709Z" fill="#F16224"/>
<path d="M64.3184 39.6647C64.3184 39.6647 64.4809 38.9985 64.5327 38.7888C64.5327 38.7888 64.857 39.424 64.7904 39.7459C64.7239 40.0678 64.3184 39.6647 64.3184 39.6647Z" fill="#F16224"/>
<path d="M53.3398 37.8401C53.3398 37.8401 53.6301 38.8274 53.5248 39.2467C53.5248 39.2467 53.9977 38.6711 54.0821 38.1527C54.1664 37.6343 54.1378 38.0583 54.1378 38.0583L53.3398 37.8401Z" fill="#F16224"/>
<path d="M54.563 38.132C54.563 38.132 54.4926 38.8144 54.4717 39.0295C54.4717 39.0295 54.9902 38.5398 55.0351 38.214C55.08 37.8883 54.563 38.132 54.563 38.132Z" fill="#F16224"/>
<path d="M54.7549 38.0018C54.7549 38.0018 55.3593 37.1692 55.4011 36.7383C55.4011 36.7383 55.6534 37.4346 55.5559 37.9554C55.4584 38.4761 55.5776 38.0629 55.5776 38.0629L54.7549 38.0018Z" fill="#F16224"/>
<path d="M55.7725 38.0964C55.7725 38.0964 55.9342 37.4302 55.9868 37.2197C55.9868 37.2197 56.3111 37.855 56.2438 38.1776C56.1765 38.5002 55.7725 38.0964 55.7725 38.0964Z" fill="#F16224"/>
<path d="M67.3086 40.3486C67.3086 40.3486 67.6576 40.9986 67.5795 41.2609C67.5795 41.2609 68.0106 40.922 68.0624 40.5954C68.1143 40.2689 68.1119 40.5382 68.1119 40.5382L67.3086 40.3486Z" fill="#F16224"/>
<path d="M68.5407 40.6126C68.5407 40.6126 68.5136 41.0443 68.5059 41.1812C68.5059 41.1812 68.988 40.8996 69.012 40.6938C69.036 40.488 68.5407 40.6126 68.5407 40.6126Z" fill="#F16224"/>
<path d="M68.7227 40.5406C68.7227 40.5406 69.2691 40.0446 69.283 39.7715C69.283 39.7715 69.5763 40.2357 69.5152 40.5607C69.454 40.8857 69.543 40.6311 69.543 40.6311L68.7227 40.5406Z" fill="#F16224"/>
<path d="M69.7344 40.6643C69.7344 40.6643 69.8536 40.2472 69.8892 40.1165C69.8892 40.1165 70.2498 40.5428 70.2034 40.7455C70.1569 40.9482 69.7344 40.6643 69.7344 40.6643Z" fill="#F16224"/>
<path d="M70.1543 40.8901C70.1543 40.8901 70.3307 41.5091 70.265 41.7745C70.265 41.7745 70.5575 41.4116 70.6101 41.0851C70.6628 40.7586 70.645 41.0255 70.645 41.0255L70.1543 40.8901Z" fill="#F16224"/>
<path d="M70.9077 41.0714C70.9077 41.0714 70.8628 41.5008 70.8496 41.6362C70.8496 41.6362 71.17 41.3267 71.1979 41.1217C71.2257 40.9166 70.9077 41.0714 70.9077 41.0714Z" fill="#F16224"/>
<path d="M72.1016 40.9544C72.1016 40.9544 72.5056 40.4344 72.5303 40.1628C72.5303 40.1628 72.7083 40.607 72.6487 40.9319C72.5891 41.2569 72.6642 41 72.6642 41L72.1016 40.9544Z" fill="#F16224"/>
<path d="M72.7959 41.0241C72.7959 41.0241 72.9004 40.6047 72.9337 40.4724C72.9337 40.4724 73.1604 40.8763 73.1179 41.079C73.0753 41.2817 72.7959 41.0241 72.7959 41.0241Z" fill="#F16224"/>
<path d="M73.2295 41.4033C73.2295 41.4033 73.4176 42.0223 73.351 42.29C73.351 42.29 73.6536 41.9287 73.7062 41.6022C73.7589 41.2757 73.7418 41.5426 73.7418 41.5426L73.2295 41.4033Z" fill="#F16224"/>
<path d="M74.0143 41.5897C74.0143 41.5897 73.9702 42.0191 73.957 42.1553C73.957 42.1553 74.2891 41.8458 74.3169 41.6423C74.3448 41.4388 74.0143 41.5897 74.0143 41.5897Z" fill="#F16224"/>
<path d="M75.0449 41.6647C75.0449 41.6647 75.4683 41.1478 75.4915 40.8762C75.4915 40.8762 75.685 41.3227 75.6246 41.6499C75.5642 41.9772 75.6424 41.718 75.6424 41.718L75.0449 41.6647Z" fill="#F16224"/>
<path d="M75.7832 41.7405C75.7832 41.7405 75.89 41.322 75.9241 41.1904C75.9241 41.1904 76.1686 41.5966 76.1253 41.7994C76.0819 42.0021 75.7832 41.7405 75.7832 41.7405Z" fill="#F16224"/>
<path d="M64.6738 39.8713C64.6738 39.8713 65.0229 40.5213 64.9447 40.7836C64.9447 40.7836 65.3766 40.4447 65.4276 40.1182C65.4787 39.7916 65.4772 40.0609 65.4772 40.0609L64.6738 39.8713Z" fill="#F16224"/>
<path d="M65.905 40.1319C65.905 40.1319 65.8779 40.5644 65.8701 40.7006C65.8701 40.7006 66.3523 40.4197 66.377 40.2132C66.4018 40.0066 65.905 40.1319 65.905 40.1319Z" fill="#F16224"/>
<path d="M66.0869 40.0608C66.0869 40.0608 66.6333 39.5649 66.648 39.2917C66.648 39.2917 66.9406 39.756 66.8802 40.0809C66.8198 40.4059 66.9081 40.1514 66.9081 40.1514L66.0869 40.0608Z" fill="#F16224"/>
<path d="M67.0996 40.1808C67.0996 40.1808 67.2188 39.7645 67.2544 39.6338C67.2544 39.6338 67.6143 40.0601 67.5686 40.2628C67.523 40.4655 67.0996 40.1808 67.0996 40.1808Z" fill="#F16224"/>
<path d="M103.3 13.5166C110.045 26.6537 102.96 43.7237 87.477 51.6436C71.9937 59.5635 53.9749 55.3343 47.2324 42.1964L50.0495 40.7557C56.1164 52.5728 72.3249 56.378 86.2526 49.2536C100.18 42.1291 106.552 26.7752 100.485 14.9581L103.3 13.5166Z" fill="#3C7C3C"/>
<path d="M100.483 14.9573C106.549 26.7744 100.178 42.1291 86.25 49.2528C72.3222 56.3765 56.1137 52.5721 50.0469 40.7549L53.7355 38.8678C58.9154 48.9564 72.7525 52.2046 84.6425 46.123C96.5324 40.0415 101.973 26.9346 96.7933 16.8436L100.483 14.9573Z" fill="#5EA544"/>
<path d="M96.7941 16.8442C101.973 26.9329 96.5333 40.0414 84.6434 46.1237C72.7534 52.2059 58.9163 48.9571 53.7363 38.8684C53.7363 38.8684 57.0403 41.4898 60.0586 42.6759C63.077 43.862 65.7184 45.0977 69.9766 44.7882C74.2347 44.4787 74.0745 43.1239 79.5207 40.6967C84.9669 38.2695 88.2236 38.6169 91.7117 34.4612C95.1998 30.3056 97.9179 26.1862 96.7941 16.8442Z" fill="#E93E46"/>
<path d="M76.6856 45.7384C76.5976 46.0679 76.5514 46.4071 76.5479 46.7481C76.5479 47.0058 76.5726 47.2836 76.7274 47.4948C76.8068 47.595 76.9073 47.6763 77.0219 47.733C77.1364 47.7898 77.2621 47.8204 77.3899 47.8228C77.6355 47.8224 77.8785 47.7713 78.1034 47.6727C78.1962 47.6458 78.2789 47.592 78.3411 47.518C78.4184 47.4073 78.403 47.2518 78.3774 47.1126C78.2473 46.4202 77.9357 45.7749 77.4742 45.2425C77.225 44.9562 76.982 44.9252 76.8358 45.2873C76.7766 45.4345 76.7264 45.5851 76.6856 45.7384Z" fill="#394C53"/>
<path d="M82.2075 41.6841C82.2999 42.0211 82.4319 42.346 82.6006 42.652C82.7283 42.8841 82.8901 43.1162 83.1238 43.2145C83.2391 43.2597 83.3635 43.2769 83.4868 43.2646C83.61 43.2524 83.7286 43.2111 83.8327 43.1441C84.0372 43.0071 84.2113 42.8296 84.3443 42.6226C84.4078 42.547 84.4486 42.455 84.4619 42.3572C84.4697 42.2172 84.3799 42.088 84.2886 41.9789C83.8448 41.4457 83.2635 41.0443 82.6076 40.8183C82.2586 40.7007 82.0434 40.8059 82.1053 41.2051C82.1302 41.3666 82.1643 41.5265 82.2075 41.6841Z" fill="#394C53"/>
<path d="M89.084 38.9885C89.1758 39.3257 89.3077 39.6507 89.4771 39.9564C89.6041 40.1886 89.7666 40.4207 90.0003 40.5189C90.1155 40.5641 90.2398 40.5813 90.3629 40.5691C90.486 40.5568 90.6045 40.5155 90.7085 40.4485C90.9131 40.3118 91.0873 40.1342 91.22 39.927C91.2836 39.8514 91.3246 39.7595 91.3385 39.6617C91.3462 39.5216 91.2556 39.3924 91.1643 39.2833C90.7209 38.7498 90.1395 38.3483 89.4833 38.1227C89.1351 38.0051 88.9199 38.1103 88.9811 38.5096C89.0062 38.6711 89.0405 38.831 89.084 38.9885Z" fill="#394C53"/>
<path d="M26.6277 25.2028C26.5371 25.643 26.2407 26.0082 25.9412 26.3464C23.3171 29.3358 20.1188 31.7676 16.5363 33.4972C14.3159 34.568 13.0823 33.5861 12.4794 31.8599C11.628 29.4181 12.0344 25.4875 12.693 23.7698C13.2022 22.4414 13.9792 21.1771 15.1231 20.3306C16.7902 19.0927 19.0911 18.9054 21.0623 19.553L21.1621 19.5871C23.0884 20.2494 24.7114 21.6351 25.9404 23.2623C26.3676 23.8271 26.7708 24.5088 26.6277 25.2028Z" fill="#394C53"/>
<path d="M20.2148 28.9299C20.2148 28.9299 25.4838 44.9576 42.2201 46.8618L42.1148 45.8467C42.1148 45.8467 28.0215 45.2331 21.1111 28.1809L20.2148 28.9299Z" fill="#394C53"/>
<path d="M28.5623 30.0205L17.9753 37.6962C17.8196 37.8091 17.7849 38.0268 17.8978 38.1825L17.9801 38.2959C18.093 38.4515 18.3108 38.4862 18.4665 38.3733L29.0534 30.6976C29.2091 30.5847 29.2438 30.367 29.1309 30.2113L29.0487 30.0979C28.9357 29.9423 28.718 29.9076 28.5623 30.0205Z" fill="#394C53"/>
<path d="M30.2986 34.6653L21.7748 40.8452C21.6333 40.9478 21.6018 41.1457 21.7044 41.2872L21.8239 41.4519C21.9265 41.5934 22.1245 41.6249 22.266 41.5223L30.7898 35.3424C30.9313 35.2398 30.9628 35.0419 30.8602 34.9004L30.7407 34.7357C30.6381 34.5942 30.4402 34.5627 30.2986 34.6653Z" fill="#394C53"/>
<path d="M32.7736 37.5764L26.8527 44.077C26.7442 44.1962 26.7528 44.3807 26.872 44.4891L27.0591 44.6595C27.1783 44.7679 27.3628 44.7593 27.4713 44.6402L33.3922 38.1395C33.5007 38.0204 33.492 37.8359 33.3729 37.7274L33.1858 37.5571C33.0666 37.4486 32.8821 37.4573 32.7736 37.5764Z" fill="#394C53"/>
<path d="M35.0443 41.0095L31.1036 46.613C31.0205 46.7311 31.0489 46.8942 31.1671 46.9773L31.4235 47.1575C31.5417 47.2406 31.7049 47.2122 31.788 47.094L35.7287 41.4905C35.8118 41.3724 35.7833 41.2093 35.6651 41.1262L35.4087 40.946C35.2905 40.8629 35.1274 40.8913 35.0443 41.0095Z" fill="#394C53"/>
<path d="M18.1624 29.4769C16.4597 30.9276 14.4405 31.7207 12.4794 31.8599C11.628 29.4181 12.0344 25.4875 12.693 23.7698C12.8322 23.4052 12.9924 23.049 13.1728 22.7029C13.3181 22.424 13.4791 22.1535 13.655 21.8928C14.0525 21.2921 14.5498 20.7638 15.1254 20.3306C16.7925 19.0927 19.0934 18.9054 21.0646 19.553L21.1645 19.5871C22.3981 22.7818 21.2852 26.8199 18.1624 29.4769Z" fill="#485F67"/>
<path d="M21.1164 23.9468L18.58 21.8898C18.4307 21.7686 18.2113 21.7915 18.0902 21.9408L18.058 21.9805C17.9368 22.1298 17.9597 22.3491 18.109 22.4702L20.6454 24.5272C20.7948 24.6484 21.0141 24.6255 21.1353 24.4762L21.1675 24.4365C21.2886 24.2872 21.2658 24.0679 21.1164 23.9468Z" fill="#1E3136"/>
<path d="M18.8636 24.7004L20.9212 22.1647C21.0424 22.0153 21.0195 21.7961 20.8702 21.6749L20.8305 21.6428C20.6811 21.5216 20.4618 21.5445 20.3406 21.6938L18.283 24.2295C18.1619 24.3788 18.1847 24.5981 18.3341 24.7192L18.3738 24.7514C18.5231 24.8726 18.7425 24.8497 18.8636 24.7004Z" fill="#1E3136"/>
<path d="M15.4521 24.4105C15.3652 24.4938 15.2488 24.5393 15.1285 24.5371C15.0082 24.5349 14.8936 24.4853 14.8097 24.3989L13.1729 22.7029C13.3182 22.424 13.4791 22.1535 13.655 21.8928L15.4629 23.7676C15.5465 23.8544 15.5923 23.9708 15.5903 24.0913C15.5882 24.2118 15.5386 24.3266 15.4521 24.4105Z" fill="#1E3136"/>
<path d="M41.2178 46.1593C41.2178 46.1593 43.326 55.6684 47.5981 54.0923C51.8702 52.5162 47.102 47.634 47.102 47.634C47.102 47.634 51.3006 47.1744 50.933 44.5298C50.5653 41.8852 45.4698 41.0805 41.2178 46.1593Z" fill="#394C53"/>
<path d="M38.3008 42.7163L35.9999 48.0498C35.9471 48.1722 36.0036 48.3143 36.126 48.3671L36.4508 48.5071C36.5732 48.5599 36.7153 48.5035 36.7681 48.381L39.069 43.0476C39.1218 42.9252 39.0654 42.7831 38.9429 42.7303L38.6182 42.5903C38.4957 42.5375 38.3536 42.5939 38.3008 42.7163Z" fill="#394C53"/>
<path d="M72.0414 41.8946L71.577 43.032C71.5483 43.0615 71.5176 43.0889 71.4849 43.114C71.4517 43.1422 71.4165 43.168 71.3797 43.1914C71.3797 43.1914 71.3797 43.1914 71.372 43.1976C71.3379 43.22 71.3015 43.244 71.2636 43.2664C71.2257 43.2889 71.1785 43.3167 71.1344 43.3384C71.0902 43.36 71.0438 43.3848 70.9958 43.4072C70.9478 43.4297 70.9068 43.4475 70.8627 43.4676C70.8062 43.4916 70.7497 43.514 70.6917 43.5357C70.6336 43.5573 70.5849 43.5759 70.5284 43.5945C70.4719 43.613 70.3937 43.6401 70.3248 43.6602L70.1886 43.7028C69.9247 43.7802 69.6469 43.8459 69.3791 43.9024C69.2963 43.9202 69.2119 43.9365 69.1291 43.9527C68.9643 43.9829 68.8033 44.0107 68.65 44.037L68.5355 44.0548C68.3846 44.0773 68.2414 44.0974 68.1106 44.1152H68.1067L67.8552 44.1477C67.8312 44.1477 67.8088 44.1539 67.7871 44.1554L67.5836 44.1779C67.5534 44.1779 67.5247 44.1841 67.4992 44.1856C67.4951 44.1867 67.4909 44.1867 67.4868 44.1856C67.4644 44.1856 67.4466 44.1895 67.4288 44.1918H67.4001C67.3796 44.1952 67.359 44.1973 67.3382 44.198C67.3307 44.1985 67.3232 44.1985 67.3158 44.198L66.7678 44.1477L62.9415 43.7949C61.5825 43.3585 61.6831 41.8288 61.6831 41.8288C61.5825 40.1986 62.7155 39.5332 62.7155 39.5332C62.7505 39.898 62.8263 40.2577 62.9415 40.6056C63.0259 42.4788 64.5358 42.1167 64.5358 42.1167C65.7741 41.7484 66.1781 39.8024 66.1781 39.8024C66.8831 38.9978 68.0239 39.1324 68.0239 39.1324C69.3504 38.7014 69.359 41.8226 69.359 41.8954C69.869 42.806 71.9524 41.931 72.0414 41.8946Z" fill="#9DBE3B"/>
<path d="M57.4147 44.574H60.9059L60.7039 42.3619C60.0662 43.4691 57.6507 42.2187 57.6507 42.2187C56.4426 41.9394 57.4147 44.574 57.4147 44.574Z" fill="#9EBD3B"/>
<path d="M73.0861 43.887C73.001 44.2839 72.8826 44.5733 72.7231 44.5733H72.2789C72.2786 44.5691 72.2786 44.565 72.2789 44.5609C72.2779 44.5558 72.2779 44.5505 72.2789 44.5454C72.2789 44.5268 72.2828 44.499 72.2867 44.468C72.2905 44.4371 72.2952 44.3953 72.299 44.3512C72.2981 44.335 72.2981 44.3187 72.299 44.3025C72.3029 44.2684 72.3052 44.232 72.3091 44.1941C72.313 44.1562 72.3153 44.1168 72.3192 44.0696C72.323 44.0224 72.3269 43.9829 72.3292 43.9365C72.3354 43.8591 72.3416 43.7817 72.3455 43.6989C72.3493 43.6324 72.3517 43.5643 72.3555 43.4954C72.3919 42.7086 72.3656 41.7933 72.0351 41.8954C71.9461 41.9318 69.8627 42.8068 69.3457 41.9078C69.9068 42.6219 71.8223 41.0443 72.2867 40.7472C72.3232 40.7192 72.3659 40.7004 72.4112 40.6922C72.4281 40.6908 72.4451 40.6921 72.4616 40.6961C72.4968 40.7037 72.5303 40.7176 72.5606 40.7371C72.9066 40.9282 73.1341 41.2919 73.2308 41.6749C73.2889 41.883 73.2548 43.0985 73.0861 43.887Z" fill="#B2CE35"/>
<path d="M69.352 41.9047C69.352 41.8319 69.3435 38.7107 68.017 39.1417C68.017 39.1417 66.8762 39.0071 66.1712 39.8117C66.1712 39.8117 65.7687 41.7577 64.5289 42.126C64.5289 42.126 63.0189 42.4881 62.9346 40.6149C63.2743 41.5952 63.8161 41.8064 63.8161 41.8064C65.09 42.1383 65.0319 40.3495 65.3678 39.64C65.5675 39.2137 65.9537 38.8956 66.3739 38.6922C66.7942 38.4887 67.2663 38.3889 67.7268 38.3053C68.1439 38.2279 68.6044 38.166 68.9651 38.3935C69.9959 39.0473 69.6639 40.9491 69.352 41.9047Z" fill="#8FB53E"/>
<path d="M58.0524 41.2871C57.4627 40.6967 57.0463 40.6263 56.7685 40.7354C56.4117 40.87 56.2755 41.2886 56.2755 41.2886C55.6331 41.9285 55.9659 43.1525 56.2654 43.9108C56.2732 43.9293 56.2809 43.9471 56.2871 43.9657C56.3693 44.1724 56.4628 44.3744 56.5672 44.5708C56.3962 44.4732 56.2428 44.3473 56.1137 44.1986C56.0394 44.1152 55.9697 44.0279 55.9048 43.9371C55.9009 43.9309 55.8947 43.9255 55.8908 43.9193C55.6648 43.6051 55.4783 43.2531 55.3088 42.9691C54.9466 42.3571 54.7593 41.9331 55.0852 41.3443C55.1397 41.245 55.2018 41.1501 55.2709 41.0604C55.5219 40.7512 55.8114 40.4753 56.1323 40.2394C56.2464 40.146 56.3683 40.0627 56.4968 39.9903C56.572 39.9473 56.6524 39.914 56.736 39.8913C57.547 39.6769 57.7367 40.6727 58.0524 41.2871Z" fill="#E6E531"/>
<path d="M62.7089 39.5425C60.9234 38.7355 60.7044 42.362 60.7044 42.362C60.0659 43.4684 57.6504 42.2188 57.6504 42.2188C56.7991 42.0215 57.0313 43.2734 57.2418 44.0278C57.2758 44.1469 57.3083 44.2537 57.3347 44.3373C57.3424 44.362 57.3501 44.3837 57.3563 44.4038C57.3927 44.5083 57.4151 44.5709 57.4151 44.5709H56.5692C56.4648 44.3746 56.3713 44.1726 56.2891 43.9659C56.2829 43.9473 56.2751 43.9295 56.2674 43.911C55.9671 43.1527 55.6351 41.9287 56.2775 41.2888C56.2775 41.2888 56.4137 40.8702 56.7705 40.7356C57.0499 40.6265 57.467 40.6969 58.0544 41.2873C58.1062 41.3968 58.174 41.498 58.2556 41.5875C58.4954 41.8384 58.8 42.0181 59.1356 42.1066C59.8399 42.2815 60.1541 41.4969 60.3453 40.8106C60.4227 40.5367 60.4799 40.2791 60.5341 40.1042C60.637 39.7762 60.798 39.4496 61.0758 39.2485C61.3537 39.0473 62.6508 38.9846 62.7089 39.5425Z" fill="#B3CB35"/>
<path d="M60.7031 42.3619L60.9051 44.574H72.2781C72.2781 44.574 72.6124 41.7236 72.0459 41.893L71.5815 43.0296C70.6753 43.9357 67.3203 44.2049 67.3203 44.2049L62.9414 43.8026C61.5831 43.3662 61.6837 41.8365 61.6837 41.8365C61.5831 40.2063 62.7161 39.5401 62.7161 39.5401C60.9237 38.7354 60.7031 42.3619 60.7031 42.3619Z" fill="#7CA540"/>
<path d="M69.5216 29.2999L69.4767 29.4546C69.4481 29.4361 69.4187 29.4183 69.3901 29.4013C68.5821 28.9113 67.7133 28.5294 66.8059 28.2654L58.0875 25.7044C57.1822 25.4355 56.2455 25.2864 55.3014 25.261H55.1992L55.2441 25.1063C55.5892 23.9461 56.3793 22.9696 57.4419 22.3897C58.5046 21.8099 59.7536 21.6739 60.9163 22.0114C61.6168 22.7164 62.4789 23.2399 63.4277 23.5364L63.4935 23.5565C64.4482 23.8426 65.462 23.8693 66.4305 23.6339C67.5911 23.9785 68.568 24.7682 69.1481 25.8305C69.7281 26.8929 69.8641 28.1415 69.5263 29.3038L69.5216 29.2999Z" fill="#E33931"/>
<path d="M66.7891 42.0957C65.896 44.8641 63.027 46.475 60.3414 45.6858L54.0966 43.852C51.411 43.0628 49.8693 40.1567 50.6139 37.345C51.5506 37.9398 52.5668 38.399 53.6322 38.7091L63.5076 41.6098C64.5729 41.926 65.6778 42.0896 66.7891 42.0957Z" fill="#E33931"/>
<path d="M68.8756 25.394C67.2743 26.4834 64.6112 26.7674 61.8746 25.9635C59.6782 25.3182 57.9012 24.1065 56.8936 22.737C57.4611 22.3124 58.1197 22.0256 58.8173 21.8995C59.5149 21.7734 60.2323 21.8114 60.9126 22.0105C60.9126 22.0105 63.0912 24.4222 66.4261 23.6299C67.4198 23.9217 68.284 24.5441 68.8756 25.394Z" fill="#E74242"/>
<path d="M66.788 42.0957C65.6784 42.0894 64.5753 41.9255 63.5119 41.609L53.6365 38.7106C52.5709 38.4017 51.5546 37.9429 50.6182 37.3481C55.9018 37.9516 57.6346 34.8915 57.6346 34.8915C57.6346 34.8915 58.1872 33.8323 58.5541 31.7625C58.9209 29.6928 55.244 25.2741 55.244 25.2741L55.2997 25.2625C56.2438 25.2878 57.1805 25.4369 58.0859 25.7058L66.8058 28.2653C67.7134 28.5288 68.5825 28.9105 69.3907 29.4004L69.4309 29.4406C69.4309 29.4406 63.9476 31.1675 63.1358 33.1073C62.3239 35.047 62.2163 36.2362 62.2163 36.2362C62.2163 36.2362 62.0174 39.7466 66.788 42.0957Z" fill="#F9B87A"/>
<path d="M66.7881 42.0957C65.6785 42.0894 64.5755 41.9256 63.512 41.6091L60.1276 40.6148C59.6911 38.4948 59.7832 36.0429 60.5092 33.5739C61.2351 31.1049 62.485 28.9911 63.9996 27.4429L66.8059 28.2653C67.7135 28.5289 68.5826 28.9105 69.3908 29.4004L69.4311 29.4406C69.4311 29.4406 63.9478 31.1676 63.1359 33.1073C62.324 35.0471 62.2165 36.2363 62.2165 36.2363C62.2165 36.2363 62.0176 39.7467 66.7881 42.0957Z" fill="#F49D56"/>
<path d="M52.7588 45.442C52.7584 45.4475 52.7584 45.4529 52.7588 45.4583C52.7803 45.7487 52.7865 46.04 52.7773 46.3311L48.7475 46.2382L45.2524 46.1608L39.9958 46.0378L39.1344 46.0185C39.1336 46.0131 39.1336 46.0076 39.1344 46.0022C39.1321 45.9863 39.1305 45.9703 39.1298 45.9543C39.129 45.9421 39.129 45.93 39.1298 45.9179C39.1259 45.8715 39.1213 45.8088 39.1182 45.7314C39.1182 45.7059 39.1182 45.6788 39.1135 45.6486C39.1128 45.6404 39.1128 45.6321 39.1135 45.6239C39.1135 45.5945 39.1135 45.5596 39.1089 45.5248C39.1042 45.3948 39.1004 45.2424 39.0996 45.073C39.0996 45.0142 39.0996 44.9546 39.0996 44.8912C39.0996 44.8277 39.0996 44.7364 39.1043 44.659C39.1097 44.4207 39.1236 44.1607 39.1484 43.8907C39.1484 43.8458 39.1553 43.8002 39.1615 43.7538C39.162 43.7463 39.162 43.7388 39.1615 43.7313C39.17 43.6478 39.1793 43.5627 39.1894 43.4775C39.208 43.3375 39.2281 43.1944 39.2521 43.0535C39.2683 42.9592 39.2869 42.864 39.3047 42.7688C39.3209 42.686 39.3395 42.6056 39.3581 42.5243C39.372 42.4632 39.3883 42.4005 39.4038 42.3409C39.4525 42.1506 39.5106 41.9649 39.5748 41.7823C39.5941 41.7297 39.6135 41.6771 39.6352 41.6276C39.6568 41.578 39.6831 41.5045 39.7126 41.445C39.742 41.3854 39.7613 41.3405 39.7853 41.2902C39.8186 41.2229 39.8519 41.1564 39.8882 41.0929C39.9091 41.0504 39.9324 41.0094 39.9564 40.9707C39.9865 40.9181 40.0167 40.8701 40.0492 40.8213C40.14 40.6831 40.2414 40.5522 40.3526 40.4298C40.3766 40.4028 40.4014 40.378 40.4253 40.3525C40.4579 40.3169 40.4923 40.2831 40.5283 40.2511C40.5917 40.1922 40.6583 40.1369 40.728 40.0855C40.7578 40.0623 40.7888 40.0406 40.8208 40.0205C40.8513 39.9975 40.8831 39.9763 40.916 39.9571C40.9493 39.937 40.9826 39.9169 41.0166 39.8983C41.03 39.89 41.044 39.8827 41.0584 39.8766C41.0781 39.8645 41.0988 39.8541 41.1204 39.8457C41.1521 39.8294 41.1838 39.8139 41.2163 39.8C41.3877 39.7264 41.5664 39.6714 41.7496 39.636C42.6009 39.9455 42.806 41.3127 43.1318 42.0694C43.4174 42.7363 43.7966 43.9147 44.4877 44.2822C45.3391 44.738 45.3275 41.9835 45.411 41.7684C45.4647 41.6432 45.5392 41.5281 45.6316 41.4279C45.7055 41.3356 45.7917 41.2539 45.8878 41.185C45.9836 41.1104 46.1015 41.0698 46.2229 41.0697L46.4938 41.9788L47.0239 43.7584C47.4279 44.9035 49.0656 45.507 49.0656 45.507C49.1089 45.507 49.1499 45.507 49.1886 45.507C50.002 45.4985 50.1042 45.0149 50.1042 45.0149C49.6096 43.0559 51.2403 43.0319 51.2403 43.0319C51.3356 43.0227 51.4317 43.0266 51.5259 43.0435C52.4291 43.1982 52.6883 44.5205 52.7588 45.442Z" fill="#B2CD35"/>
<path d="M39.1343 46.0178C39.1343 46.0178 38.5755 40.2403 41.7471 39.633C41.3967 39.515 41.0185 39.5074 40.6636 39.6113C39.8293 39.8326 38.9803 40.4338 38.7288 41.2764C38.5361 41.9185 38.55 42.6211 38.6057 43.2834C38.6848 44.211 38.862 45.1275 39.1343 46.0178Z" fill="#A4C139"/>
<path d="M53.1261 45.3648C53.1219 45.3833 53.1162 45.4014 53.1091 45.419C53.0851 45.5048 53.0572 45.5892 53.027 45.6743C52.9497 45.8987 52.8668 46.1169 52.7786 46.3265C52.7877 46.0355 52.7815 45.7442 52.76 45.4538C52.7597 45.4484 52.7597 45.4429 52.76 45.4375C52.6896 44.5176 52.4303 43.1937 51.5217 43.039C51.4275 43.0221 51.3314 43.0182 51.2362 43.0274C51.2362 43.0274 49.6055 43.0514 50.1 45.0104C50.1 45.0104 49.9979 45.494 49.1845 45.5025C49.1458 45.5025 49.1071 45.5025 49.0614 45.5025C49.0614 45.5025 47.4238 44.899 47.0198 43.7539L46.4896 41.9743L46.2188 41.0652C46.848 41.0745 47.3185 42.4649 47.5964 42.9113C47.8058 43.2738 48.0514 43.6141 48.3293 43.9272C48.3517 43.952 48.9902 44.4356 48.9832 44.3017C48.9469 43.7199 48.967 43.0637 49.1048 42.4912C49.3238 41.5991 50.0265 41.2137 50.8662 40.9793C51.2532 40.8718 51.668 40.8424 52.0496 40.9677C52.2926 41.0451 52.5023 41.2323 52.6795 41.4644C52.8395 41.6761 52.9723 41.9069 53.075 42.1515C53.1354 42.2861 53.1849 42.4169 53.2298 42.5384C53.5355 43.4444 53.407 44.4448 53.1261 45.3648Z" fill="#E6E531"/>
<path d="M39.9971 46.038C39.9971 46.038 40.0652 41.3499 41.3646 41.4815C41.3646 41.4815 42.5464 45.3346 44.3961 45.1025C44.3961 45.1025 45.7729 45.3795 46.0941 44.2932L48.7495 46.2407L39.9971 46.038Z" fill="#5A8B3E"/>
<path d="M70.5368 43.6841C70.5368 43.6896 70.5367 43.6934 70.5321 43.6996C70.4378 43.9751 70.358 44.2553 70.293 44.5391C70.293 44.5391 70.293 44.5391 70.293 44.5437L74.2153 45.4722L77.6206 46.2777L82.7371 47.4855L83.576 47.6843C83.5779 47.6793 83.5795 47.6741 83.5806 47.6688C83.5869 47.654 83.5924 47.6387 83.5969 47.6232C83.6019 47.612 83.6058 47.6003 83.6085 47.5884C83.624 47.5443 83.6449 47.4855 83.6673 47.4112C83.6758 47.3872 83.6836 47.3617 83.6921 47.3338C83.695 47.3261 83.6971 47.318 83.6983 47.3098C83.7091 47.282 83.7176 47.2479 83.7284 47.2154C83.7656 47.0909 83.8058 46.9439 83.8515 46.7806C83.8662 46.7233 83.8817 46.6661 83.8964 46.6042C83.9111 46.5423 83.9328 46.4572 83.9506 46.379C84.0055 46.1469 84.0574 45.8924 84.1054 45.6254C84.1147 45.5805 84.1224 45.5357 84.1278 45.4892C84.1278 45.4831 84.1278 45.4745 84.1317 45.4668C84.1448 45.384 84.1572 45.2989 84.1696 45.2138C84.1866 45.0738 84.2029 44.9306 84.2153 44.7882C84.2238 44.6923 84.23 44.5956 84.2362 44.4989C84.2416 44.4153 84.2439 44.3325 84.2462 44.249C84.2462 44.1863 84.2462 44.1221 84.2462 44.0602C84.2462 43.8636 84.2385 43.6733 84.2222 43.4768C84.2168 43.4211 84.2114 43.3654 84.2037 43.3089C84.1959 43.2524 84.1882 43.1781 84.1781 43.1131C84.168 43.0481 84.1564 42.9994 84.1464 42.9444C84.1309 42.8671 84.1162 42.7974 84.0968 42.727C84.0876 42.6806 84.0752 42.635 84.062 42.5916C84.0458 42.5336 84.0287 42.4794 84.0094 42.4245C83.9564 42.2676 83.8915 42.115 83.8151 41.968C83.7981 41.9363 83.7811 41.9061 83.7641 41.8767C83.7404 41.8339 83.7146 41.7923 83.6867 41.7521C83.6393 41.679 83.5876 41.6087 83.5319 41.5417C83.5087 41.5107 83.4839 41.4821 83.4591 41.455C83.435 41.4249 83.4091 41.3963 83.3817 41.3691C83.3546 41.3413 83.3276 41.3134 83.2997 41.2918C83.2888 41.2804 83.2772 41.2698 83.2649 41.26C83.2487 41.2436 83.2314 41.2283 83.213 41.2144C83.1859 41.1912 83.1588 41.168 83.131 41.1463C82.9841 41.0313 82.825 40.9327 82.6566 40.8523C81.7534 40.9413 81.2109 42.2086 80.7047 42.8586C80.2597 43.4319 79.5956 44.4757 78.8333 44.6575C77.8984 44.8834 78.6011 42.2202 78.5756 41.992C78.5554 41.8567 78.5122 41.7259 78.4479 41.6051C78.3997 41.4973 78.337 41.3965 78.2614 41.3057C78.1879 41.209 78.0841 41.1398 77.9665 41.1092L77.4751 41.92L76.5123 43.507C75.832 44.5128 74.0953 44.6838 74.0953 44.6838C74.0527 44.6753 74.0125 44.666 73.9753 44.6559C73.1906 44.4416 73.2138 43.9487 73.2138 43.9487C74.1874 42.1777 72.6155 41.7428 72.6155 41.7428C72.5256 41.7101 72.4316 41.6895 72.3361 41.6817C71.4221 41.5966 70.837 42.8114 70.5368 43.6841Z" fill="#B2CD35"/>
<path d="M83.5738 47.6858C83.5738 47.6858 85.5736 42.2364 82.6582 40.8484C83.0275 40.8227 83.3957 40.911 83.7131 41.1014C84.4646 41.5254 85.134 42.3215 85.1673 43.2013C85.1913 43.8713 85.0001 44.5476 84.7803 45.1743C84.4681 46.0517 84.0636 46.8936 83.5738 47.6858Z" fill="#A4C139"/>
<path d="M70.1986 43.521C70.1986 43.5396 70.1986 43.5589 70.1986 43.5783C70.1986 43.6672 70.2063 43.7562 70.2141 43.846C70.2326 44.0819 70.2566 44.3141 70.2915 44.5423C70.3565 44.2585 70.4363 43.9783 70.5306 43.7028C70.5306 43.6966 70.5306 43.6928 70.5352 43.6873C70.8355 42.8153 71.4206 41.5983 72.3362 41.6756C72.4316 41.6834 72.5256 41.704 72.6156 41.7368C72.6156 41.7368 74.1874 42.1716 73.2138 43.9427C73.2138 43.9427 73.1906 44.4355 73.9754 44.6499C74.0125 44.6599 74.0528 44.6692 74.0953 44.6777C74.0953 44.6777 75.832 44.5075 76.5123 43.5009L77.4751 41.914L77.9665 41.1031C77.3559 40.953 76.5487 42.1793 76.1672 42.5407C75.8732 42.839 75.5496 43.1065 75.2013 43.3392C75.1726 43.3577 74.4335 43.6641 74.4738 43.5365C74.6557 42.9825 74.8027 42.3395 74.8135 41.7569C74.8275 40.8393 74.2447 40.2868 73.4909 39.8497C73.1449 39.6477 72.7502 39.5139 72.3493 39.5402C72.0939 39.5564 71.8447 39.6818 71.6141 39.862C71.4057 40.0263 71.2188 40.2161 71.0576 40.4269C70.9655 40.5421 70.8851 40.6551 70.8131 40.7642C70.2884 41.5565 70.1607 42.5569 70.1986 43.521Z" fill="#E6E531"/>
<path d="M82.7333 47.4848C82.7333 47.4848 83.8524 42.9314 82.5615 42.7302C82.5615 42.7302 80.444 46.1602 78.7135 45.4684C78.7135 45.4684 77.3112 45.3911 77.2748 44.2568L74.2139 45.4708L82.7333 47.4848Z" fill="#5A8B3E"/>
<path d="M58.2086 45.5627L58.5027 46.0416C59.2294 47.2223 56.1344 50.4449 51.5891 53.2373C47.0438 56.0297 42.7663 57.338 42.0434 56.1573L41.7493 55.6784C41.0226 54.4977 44.1183 51.2743 48.6636 48.4827C53.209 45.6911 57.4818 44.3812 58.2086 45.5627Z" fill="#A9BBBA"/>
<path d="M58.2086 45.5627C58.9353 46.7442 55.8404 49.966 51.2951 52.7584C46.7498 55.5507 42.4722 56.8591 41.7494 55.6784C41.0265 54.4977 44.1184 51.2743 48.6637 48.4827C53.209 45.6911 57.4819 44.3812 58.2086 45.5627Z" fill="#C9DBD9"/>
<path d="M57.4241 45.0296C57.4646 45.0953 57.4976 45.1654 57.5224 45.2385C57.5677 45.2791 57.6068 45.326 57.6385 45.3778C58.1532 46.2142 56.6146 48.1477 53.9786 50.1943C52.0266 51.6974 49.9212 52.99 47.6973 54.0505C46.8131 54.4744 45.9005 54.8363 44.9661 55.1337C43.3176 55.6413 42.1289 55.6753 41.786 55.1206C41.7547 55.0689 41.7305 55.0132 41.714 54.955C41.6606 54.8991 41.6128 54.8379 41.5716 54.7724L32.1436 39.4448C32.8324 40.5637 36.9419 39.2901 41.3178 36.5983C42.3608 35.9596 43.3684 35.2648 44.3361 34.517C46.9721 32.4697 48.5099 30.5354 47.9953 29.699L57.4241 45.0296Z" fill="#B3C8C8"/>
<path d="M48.0328 29.0197L48.3277 29.4979C49.0544 30.6794 45.9586 33.9019 41.4133 36.6936C40.3506 37.35 39.2531 37.9484 38.1256 38.4863C37.2427 38.9117 36.3326 39.2784 35.4014 39.5842C33.5741 40.1699 32.2445 40.2272 31.8676 39.6144L31.5735 39.1354C30.8468 37.9539 33.9425 34.7314 38.4879 31.9398C43.0332 29.1481 47.303 27.8382 48.0328 29.0197Z" fill="#A9BBBA"/>
<path d="M48.0328 29.0197C48.7595 30.2004 45.6646 33.423 41.1192 36.2154C36.5739 39.0078 32.3003 40.3161 31.5735 39.1354C30.8468 37.9547 33.9425 34.7314 38.4879 31.9398C43.0332 29.1481 47.303 27.8382 48.0328 29.0197Z" fill="#C9DBD9"/>
<path d="M47.4147 29.3647C47.4125 29.3592 47.4096 29.354 47.4062 29.3492C46.8559 28.454 42.9762 29.8405 38.7382 32.4441C34.5001 35.0477 31.5135 37.8842 32.0645 38.7794C32.0675 38.7845 32.0709 38.7894 32.0746 38.7941C32.0758 38.7973 32.0774 38.8005 32.0792 38.8034C32.0879 38.8175 32.0989 38.8301 32.1117 38.8405C32.8083 39.6019 36.6005 38.2215 40.7303 35.6829C44.86 33.1443 47.804 30.3821 47.4379 29.4157C47.4342 29.3996 47.428 29.3842 47.4194 29.3701C47.4175 29.3669 47.4151 29.3641 47.4124 29.3616L47.4147 29.3647Z" fill="#7E9897"/>
<path d="M57.4241 45.0297C57.4647 45.0955 57.4976 45.1655 57.5224 45.2386C57.5677 45.2792 57.6068 45.3261 57.6385 45.3779C58.1532 46.2143 56.6146 48.1479 53.9786 50.1944L44.3369 34.5194C46.9729 32.4721 48.5107 30.5378 47.9961 29.7014L57.4241 45.0297Z" fill="#A9BBBA"/>
<path d="M56.6425 43.0172C57.3692 44.1979 54.2735 47.4205 49.7282 50.2128C45.1829 53.0052 40.9054 54.3136 40.1825 53.1329C40.0618 52.9364 40.0471 52.6841 40.1268 52.3847L40.1485 52.4087C40.1645 52.4672 40.1888 52.5232 40.2204 52.575C40.9092 53.6946 45.0188 52.4203 49.3931 49.7285C50.4365 49.0902 51.4442 48.3951 52.4114 47.6464C55.0475 45.5999 56.586 43.6663 56.0714 42.8299C56.0397 42.7781 56.0005 42.7312 55.9553 42.6907C55.9467 42.6643 55.9366 42.6385 55.9251 42.6133C56.2672 42.6729 56.5125 42.8052 56.6425 43.0172Z" fill="#C9DBD9"/>
<path d="M55.7964 41.6424C56.5231 42.8239 53.4281 46.0465 48.8828 48.8381C44.3375 51.6297 40.06 52.9388 39.3371 51.7589C39.2164 51.5624 39.2009 51.3094 39.2814 51.0107L39.3031 51.0347C39.3187 51.093 39.3427 51.1488 39.3743 51.2003C40.0631 52.3199 44.1727 51.0455 48.5477 48.3537C49.5909 47.7153 50.5985 47.0205 51.5661 46.2724C54.2021 44.2251 55.7399 42.2916 55.226 41.4552C55.1936 41.4038 55.1545 41.357 55.1099 41.3159C55.1006 41.2904 55.0905 41.2648 55.0797 41.2385C55.421 41.2981 55.6664 41.4304 55.7964 41.6424Z" fill="#C9DBD9"/>
<path d="M54.9521 40.2674C55.6788 41.4489 52.5839 44.6714 48.0386 47.463C43.4932 50.2547 39.2157 51.5638 38.4921 50.3839C38.3713 50.1873 38.3566 49.9351 38.4364 49.6357L38.458 49.6597C38.4741 49.7182 38.4983 49.7742 38.53 49.826C39.2188 50.9456 43.3284 49.6713 47.7034 46.9795C48.7466 46.3407 49.7542 45.6456 50.7218 44.8974C53.3578 42.8508 54.8964 40.9165 54.3817 40.0801C54.3498 40.0287 54.3107 39.9821 54.2656 39.9416C54.2571 39.9153 54.2471 39.8898 54.2362 39.8643C54.5783 39.9238 54.8213 40.0561 54.9521 40.2674Z" fill="#C9DBD9"/>
<path d="M54.1059 38.8931C54.8327 40.0746 51.7377 43.2964 47.1924 46.0888C42.6471 48.8812 38.3696 50.1896 37.6467 49.0096C37.526 48.8123 37.5105 48.5601 37.591 48.2614L37.6127 48.2854C37.6286 48.3438 37.6528 48.3995 37.6846 48.451C38.3727 49.5706 42.483 48.2963 46.8573 45.6045C47.9004 44.9659 48.908 44.2711 49.8756 43.5231C52.5117 41.4758 54.0495 39.5423 53.5356 38.7059C53.5036 38.6542 53.4645 38.6074 53.4195 38.5666C53.4102 38.5411 53.4009 38.5156 53.3893 38.4893C53.7314 38.5488 53.9759 38.6811 54.1059 38.8931Z" fill="#C9DBD9"/>
<path d="M53.2626 37.5183C53.9893 38.6998 50.8943 41.9224 46.349 44.714C41.8037 47.5056 37.5262 48.8148 36.8033 47.6348C36.6818 47.4383 36.6671 47.1861 36.7468 46.8867C36.7546 46.8952 36.7615 46.9021 36.7685 46.9106C36.7849 46.9691 36.8091 47.025 36.8405 47.077C37.5293 48.1966 41.6389 46.9222 46.0139 44.2304C47.0571 43.5917 48.0647 42.8966 49.0323 42.1483C51.6683 40.1018 53.2069 38.1675 52.6922 37.3311C52.6605 37.2795 52.6214 37.2328 52.5761 37.1926C52.5676 37.1663 52.5575 37.1408 52.5467 37.1152C52.8857 37.1748 53.1302 37.3063 53.2626 37.5183Z" fill="#C9DBD9"/>
<path d="M52.4146 36.1441C53.1413 37.3256 50.0463 40.5474 45.501 43.3398C40.9557 46.1322 36.682 47.4405 35.9553 46.2598C35.8346 46.0633 35.8191 45.8111 35.8996 45.5124L35.9212 45.5364C35.9373 45.5947 35.9616 45.6504 35.9932 45.702C36.6813 46.8216 40.7916 45.5472 45.1659 42.8554C46.2092 42.2169 47.2168 41.5219 48.1842 40.7733C50.8202 38.7268 52.3588 36.7933 51.8442 35.9569C51.8122 35.9052 51.7731 35.8583 51.7281 35.8176C51.7188 35.7921 51.7095 35.7665 51.6979 35.7402C52.04 35.7998 52.2845 35.9321 52.4146 36.1441Z" fill="#C9DBD9"/>
<path d="M51.5692 34.7693C52.296 35.9508 49.201 39.1734 44.6557 41.965C40.1104 44.7566 35.8328 46.0658 35.11 44.8858C34.9885 44.6893 34.9738 44.4371 35.0535 44.1376L35.0759 44.1616C35.0917 44.2201 35.1157 44.2761 35.1471 44.328C35.8359 45.4475 39.9455 44.1732 44.3206 41.4806C45.3639 40.8424 46.3715 40.1476 47.3389 39.3993C49.9749 37.3528 51.5135 35.4185 50.9988 34.5821C50.9672 34.5307 50.9283 34.4841 50.8835 34.4436C50.8742 34.4173 50.8642 34.3917 50.8533 34.3662C51.1939 34.4258 51.4392 34.5573 51.5692 34.7693Z" fill="#C9DBD9"/>
<path d="M50.7238 33.3951C51.4505 34.5758 48.3556 37.7984 43.8102 40.5908C39.2649 43.3832 34.9913 44.6915 34.2645 43.5108C34.1438 43.3143 34.1291 43.0621 34.2088 42.7626C34.2166 42.7711 34.2227 42.7789 34.2305 42.7866C34.2466 42.8452 34.2708 42.9012 34.3025 42.953C34.9913 44.0725 39.1008 42.7982 43.4751 40.1064C44.5186 39.4681 45.5262 38.773 46.4935 38.0243C49.1295 35.9778 50.6681 34.0443 50.1534 33.2079C50.1214 33.1562 50.0824 33.1093 50.0373 33.0686C50.0287 33.0422 50.0186 33.0164 50.0071 32.9912C50.3492 33.0508 50.5938 33.1831 50.7238 33.3951Z" fill="#C9DBD9"/>
<path d="M49.8786 32.0201C50.6053 33.2016 47.5103 36.4242 42.965 39.2158C38.4197 42.0074 34.1461 43.3165 33.4193 42.1366C33.2986 41.9401 33.2831 41.6871 33.3628 41.3884L33.3853 41.4124C33.4011 41.4709 33.4251 41.5269 33.4565 41.5787C34.1453 42.6975 38.2549 41.424 42.6299 38.7314C43.6731 38.093 44.6807 37.3982 45.6483 36.6501C48.2835 34.6028 49.8221 32.6692 49.3074 31.8328C49.2755 31.7814 49.2367 31.7345 49.1921 31.6936C49.1828 31.6683 49.1728 31.6425 49.1619 31.6162C49.5032 31.6758 49.7486 31.8081 49.8786 32.0201Z" fill="#C9DBD9"/>
<path opacity="0.33" d="M38.1256 38.4885L47.6976 54.0505C46.8134 54.4744 45.9008 54.8363 44.9664 55.1337L35.4014 39.5818C36.3325 39.2776 37.2425 38.9123 38.1256 38.4885Z" fill="white"/>
<path d="M37.6462 30.3892L39.3179 33.3518C39.3179 33.3518 39.7668 34.3329 38.8334 35.2327C38.8032 35.2606 38.7715 35.29 38.7382 35.3186C35.6657 38.121 32.7124 39.7072 31.9361 38.9071C31.0979 38.0437 33.111 34.729 36.4304 31.5088C36.8374 31.1157 37.2414 30.7412 37.6462 30.3892Z" fill="#A9BBBA"/>
<path d="M39.3185 33.3526C39.3185 33.3526 36.3938 28.14 36.1826 27.7965C35.9713 27.4529 30.0507 27.2193 29.091 28.8658C28.1313 30.5123 34.8166 33.0199 39.3185 33.3526Z" fill="#E0EBEA"/>
<path d="M47.5486 42.7123C47.5488 43.6987 47.2088 44.6551 46.586 45.4202C45.9631 46.1853 45.0955 46.7124 44.1293 46.9126C43.1632 47.1128 42.1575 46.9739 41.2818 46.5193C40.406 46.0647 39.7139 45.3222 39.3218 44.417C38.9298 43.5117 38.8619 42.499 39.1296 41.5495C39.3973 40.6001 39.9843 39.7719 40.7915 39.2046C41.5987 38.6372 42.5769 38.3654 43.5611 38.435C44.5454 38.5045 45.4756 38.9112 46.195 39.5864C46.6222 39.9873 46.9628 40.4716 47.1956 41.0092C47.4284 41.5468 47.5485 42.1264 47.5486 42.7123Z" fill="#C42727"/>
<path d="M46.506 41.1904C46.5061 42.0268 46.2615 42.845 45.8024 43.5442C45.3432 44.2433 44.6895 44.793 43.9218 45.1255C43.1541 45.4579 42.306 45.5587 41.4817 45.4153C40.6575 45.272 39.8932 44.8908 39.2829 44.3186C38.9168 43.4125 38.8712 42.4086 39.1538 41.4731C39.4363 40.5376 40.0301 39.7266 40.8366 39.1745C41.6431 38.6224 42.6141 38.3623 43.5887 38.4372C44.5633 38.5121 45.4831 38.9176 46.1957 39.5865C46.4018 40.0961 46.5072 40.6408 46.506 41.1904Z" fill="#D73D3E"/>
<path d="M42.3443 41.8685C42.7702 41.2653 42.6771 40.4668 42.1362 40.0851C41.5953 39.7033 40.8115 39.8829 40.3855 40.4861C39.9596 41.0894 40.0527 41.8878 40.5936 42.2696C41.1345 42.6513 41.9183 42.4718 42.3443 41.8685Z" fill="#E95F5E"/>
<path d="M104.331 52.6709L104.32 52.8674L103.533 65.2858L98.7443 140.989L96.5061 176.331C96.5032 177.308 96.1137 178.245 95.4226 178.936C94.7314 179.627 93.7949 180.016 92.8175 180.019H24.3019C23.3244 180.016 22.3878 179.627 21.6966 178.936C21.0053 178.245 20.6156 177.308 20.6125 176.331L18.3751 140.989L13.5868 65.2858L12.7997 52.8697L12.7881 52.6732L104.331 52.6709Z" fill="#39D192"/>
<path d="M104.331 52.6709L104.32 52.8674L103.533 65.2858L98.7443 140.989L96.5061 176.331C96.5032 177.308 96.1137 178.245 95.4226 178.936C94.7315 179.627 93.7949 180.016 92.8175 180.019H36.6818C35.7045 180.016 34.7682 179.626 34.0772 178.935C33.3863 178.244 32.9969 177.308 32.994 176.331L30.7558 140.989L25.9667 65.2858L25.1796 52.8697L25.168 52.6732L104.331 52.6709Z" fill="#15BA6F"/>
<path d="M104.332 52.6709L104.319 52.8674L103.532 65.2858H13.5866L12.7995 52.8674L12.7871 52.6709H104.332Z" fill="#3C9846"/>
<path d="M108.223 45.7252V59.6159C108.222 60.005 108.066 60.3778 107.79 60.6525C107.515 60.9271 107.141 61.0814 106.752 61.0814H10.6297C10.2412 61.0804 9.86884 60.9257 9.59404 60.6511C9.31924 60.3765 9.16431 60.0044 9.16309 59.6159V45.7252C9.16431 45.3368 9.31924 44.9646 9.59404 44.6901C9.86884 44.4155 10.2412 44.2608 10.6297 44.2598H106.752C107.141 44.2598 107.515 44.414 107.79 44.6887C108.066 44.9634 108.222 45.3361 108.223 45.7252Z" fill="#39D192"/>
<path d="M74.324 96.3092L70.6919 107.72L59.418 103.387L62.3087 102.02L62.2003 101.564C61.924 100.365 61.2259 99.1186 60.3359 97.927C57.7223 94.4205 53.42 91.3341 53.1383 91.1337C53.1324 91.1303 53.1269 91.1262 53.1221 91.1213H65.8548C68.3368 92.1674 71.4318 97.6911 71.4318 97.6911L74.324 96.3092Z" fill="white"/>
<path d="M60.3358 97.9201C60.1477 98.0447 59.9628 98.1731 59.7832 98.3131C57.2811 95.1308 53.6691 92.3291 52.4502 91.4269C52.6749 91.3166 52.905 91.2177 53.1398 91.1306C53.4168 91.324 57.7222 94.4135 60.3358 97.9201Z" fill="#EBEFF6"/>
<path d="M59.7837 98.3131C57.1523 100.273 55.2175 103.363 54.1023 105.488C54.0964 105.493 54.0923 105.5 54.0906 105.507C54.0016 105.676 53.9219 105.836 53.8414 105.992L44.877 99.9248C46.1841 97.3715 48.7946 93.1632 52.4507 91.4231C53.6696 92.3299 57.2816 95.1308 59.7837 98.3131Z" fill="white"/>
<path d="M65.203 133.127L57.1719 124.242L66.5976 116.69L66.3229 119.875L66.7725 120.012C67.9474 120.376 69.376 120.398 70.8558 120.234C75.203 119.744 80.037 117.583 80.3512 117.441L80.3698 117.433L73.9562 128.43C71.8023 130.047 65.4708 129.938 65.4708 129.938L65.203 133.127Z" fill="white"/>
<path d="M70.8563 120.235C70.8447 120.009 70.8261 119.786 70.7959 119.559C74.8057 119.001 79.046 117.293 80.443 116.696C80.4251 116.946 80.3946 117.195 80.3517 117.441C80.0405 117.583 75.2035 119.744 70.8563 120.235Z" fill="#EBEFF6"/>
<path d="M70.7953 119.559C70.4261 116.3 68.7312 113.071 67.4573 111.039C67.4559 111.031 67.4518 111.024 67.4457 111.019C67.3451 110.858 67.2468 110.709 67.1523 110.56L76.9109 105.874C78.4588 108.289 80.7805 112.663 80.4423 116.696C79.0454 117.293 74.805 119.001 70.7953 119.559Z" fill="white"/>
<path d="M36.916 106.789L48.3904 103.352L51.1672 115.105L48.4074 113.489L48.0916 113.837C47.2573 114.741 46.6211 116.02 46.1367 117.428C44.7142 121.565 44.5888 126.856 44.5842 127.201C44.585 127.208 44.585 127.215 44.5842 127.221L37.402 116.709C36.8665 114.071 39.6836 108.4 39.6836 108.4L36.916 106.789Z" fill="white"/>
<path d="M46.1365 117.428C46.3454 117.514 46.556 117.594 46.7727 117.66C45.556 121.52 45.279 126.082 45.2186 127.6C45.0003 127.477 44.7884 127.343 44.584 127.198C44.594 126.856 44.714 121.565 46.1365 117.428Z" fill="#EBEFF6"/>
<path d="M46.7724 117.663C49.8751 118.729 53.5196 118.585 55.9048 118.306C55.9124 118.308 55.9205 118.308 55.9281 118.306C56.1169 118.284 56.2941 118.26 56.4698 118.237L56.5139 129.06C53.6674 129.422 48.7197 129.641 45.2207 127.603C45.2787 126.085 45.5558 121.523 46.7724 117.663Z" fill="white"/>
<path d="M108.155 45.6478V59.6082C108.155 60.4175 107.581 61.0783 106.881 61.0783H23.4374C22.7362 61.0783 22.165 60.4144 22.165 59.6082V45.6478C22.165 44.8385 22.7362 44.1777 23.4374 44.1777H106.881C107.581 44.1747 108.155 44.8385 108.155 45.6478Z" fill="#15BA6F"/>
<path d="M108.223 45.6008V59.4907C108.221 59.8798 108.066 60.2526 107.79 60.5272C107.515 60.8019 107.141 60.9562 106.752 60.9562H104.068L103.801 65.1606L99.0121 140.863L96.7785 176.202C96.7757 177.179 96.3862 178.116 95.6951 178.807C95.004 179.498 94.0674 179.887 93.09 179.891H80.707C81.6848 179.888 82.6219 179.499 83.3134 178.808C84.0048 178.116 84.3945 177.18 84.3971 176.202L86.6361 140.86L91.4252 65.1575L91.6969 60.8687H93.9529C94.6549 60.8687 95.226 60.2072 95.226 59.3987V45.5195C95.226 44.8851 94.8716 44.3411 94.3793 44.1384H106.756C107.144 44.1394 107.516 44.2937 107.791 44.5676C108.065 44.8415 108.221 45.2129 108.223 45.6008Z" fill="#098C4D"/>
<path d="M42.3075 61.0823H36.6338V77.9851H42.3075V61.0823Z" fill="#098C4D"/>
<path d="M39.4703 61.1094H36.6338V78.0122H39.4703V61.1094Z" fill="#39D192"/>
<path d="M80.5175 61.0684H74.8438V77.9712H80.5175V61.0684Z" fill="#098C4D"/>
<path d="M77.6802 61.0955H74.8438V77.9983H77.6802V61.0955Z" fill="#39D192"/>
<path d="M106.44 3.97017H105.178C104.869 3.97017 104.702 3.71794 104.803 3.40999L104.853 3.25525C104.956 2.94576 105.291 2.69507 105.599 2.69507H106.86C107.17 2.69507 107.337 2.9473 107.236 3.25525L107.185 3.40999C107.083 3.71484 106.748 3.97017 106.44 3.97017Z" fill="#646464"/>
<path d="M106.841 1.22816C106.928 1.96165 106.682 2.6789 106.294 2.83055C105.905 2.9822 105.52 2.51023 105.434 1.77674C105.348 1.04324 105.594 0.325993 105.982 0.174342C106.371 0.0226918 106.755 0.494666 106.841 1.22816Z" fill="#CECECE"/>
<path d="M106.586 1.22816C106.015 1.96165 105.786 2.6789 106.075 2.83055C106.364 2.9822 107.06 2.51023 107.631 1.77674C108.201 1.04324 108.429 0.325993 108.141 0.174342C107.852 0.0226918 107.155 0.494666 106.586 1.22816Z" fill="#B0B0B0"/>
<path d="M111.493 36.6137H110.231C109.922 36.6137 109.754 36.3615 109.856 36.0535L109.907 35.8988C110.008 35.5893 110.343 35.3386 110.652 35.3386H111.913C112.222 35.3386 112.39 35.5909 112.288 35.8988L112.238 36.0535C112.136 36.3615 111.801 36.6137 111.493 36.6137Z" fill="#646464"/>
<path d="M111.211 35.4872C111.609 35.4829 111.925 34.8722 111.917 34.1231C111.908 33.3741 111.579 32.7704 111.181 32.7747C110.784 32.779 110.468 33.3897 110.476 34.1387C110.484 34.8878 110.813 35.4915 111.211 35.4872Z" fill="#CECECE"/>
<path d="M111.639 33.875C111.069 34.6084 110.84 35.3257 111.129 35.4773C111.418 35.629 112.113 35.157 112.684 34.4235C113.254 33.69 113.483 32.9728 113.195 32.8211C112.906 32.6695 112.209 33.1399 111.639 33.875Z" fill="#B0B0B0"/>
<path d="M2.1097 38.0863H3.37122C3.68079 38.0863 3.84795 37.8349 3.74656 37.5269L3.69549 37.3722C3.5941 37.0627 3.25898 36.812 2.95018 36.812H1.68944C1.37987 36.812 1.21193 37.0642 1.31409 37.3722L1.36439 37.5269C1.46655 37.8349 1.80167 38.0863 2.1097 38.0863Z" fill="#646464"/>
<path d="M1.70855 35.348C1.62264 36.0815 1.86797 36.7988 2.25648 36.9504C2.645 37.1021 3.03043 36.6301 3.11633 35.8966C3.20224 35.1631 2.9569 34.4459 2.56838 34.2942C2.17987 34.1426 1.79601 34.6145 1.70855 35.348Z" fill="#CECECE"/>
<path d="M1.96428 35.348C2.53467 36.0815 2.76298 36.7988 2.47431 36.9504C2.18563 37.1021 1.48985 36.6301 0.919465 35.8966C0.349076 35.1631 0.120777 34.4459 0.40868 34.2942C0.696584 34.1426 1.39389 34.6145 1.96428 35.348Z" fill="#B0B0B0"/>
<path d="M65.5114 13.023H66.7722C66.8436 13.0243 66.9144 13.0103 66.9799 12.9818C67.0454 12.9533 67.104 12.9111 67.1516 12.8579C67.1993 12.8047 67.235 12.7419 67.2562 12.6737C67.2773 12.6056 67.2836 12.5336 67.2745 12.4628L67.259 12.3081C67.2401 12.156 67.1672 12.0158 67.0535 11.9129C66.9399 11.8101 66.7931 11.7515 66.6398 11.7479H65.3783C65.307 11.7466 65.2362 11.7608 65.1707 11.7893C65.1053 11.8178 65.0468 11.8601 64.9991 11.9132C64.9515 11.9664 64.9159 12.0291 64.8946 12.0972C64.8734 12.1654 64.867 12.2373 64.876 12.3081L64.8923 12.4628C64.911 12.6149 64.9839 12.7553 65.0976 12.8581C65.2112 12.961 65.3582 13.0195 65.5114 13.023Z" fill="#646464"/>
<path d="M65.7291 10.2816C65.4768 11.0151 65.5596 11.7324 65.914 11.884C66.2685 12.0357 66.7599 11.5637 67.0122 10.8302C67.2645 10.0967 67.181 9.37946 66.8265 9.22781C66.472 9.07616 65.9806 9.54813 65.7291 10.2816Z" fill="#CECECE"/>
<path d="M65.9848 10.2816C66.3896 11.0151 66.4561 11.7324 66.1326 11.884C65.8091 12.0357 65.2202 11.5637 64.8169 10.8302C64.4137 10.0967 64.3464 9.37946 64.6691 9.22781C64.9918 9.07616 65.5808 9.54813 65.9848 10.2816Z" fill="#B0B0B0"/>
<path d="M37.7719 6.5319H39.035C39.3446 6.5319 39.5125 6.27967 39.4103 5.97172L39.36 5.81698C39.2586 5.50749 38.9228 5.25757 38.6147 5.25757H37.3532C37.0437 5.25757 36.8765 5.50903 36.9779 5.81698L37.0289 5.97172C37.128 6.27967 37.4631 6.5319 37.7719 6.5319Z" fill="#646464"/>
<path d="M38.8053 4.07827C38.8134 3.32922 38.4974 2.71851 38.0995 2.7142C37.7015 2.7099 37.3724 3.31363 37.3643 4.06268C37.3562 4.81172 37.6722 5.42244 38.0701 5.42674C38.468 5.43104 38.7972 4.82731 38.8053 4.07827Z" fill="#CECECE"/>
<path d="M38.1688 5.36829C38.4167 5.16579 38.14 4.4171 37.5507 3.69604C36.9614 2.97498 36.2828 2.55461 36.0348 2.75711C35.7869 2.95962 36.0636 3.70831 36.6529 4.42937C37.2422 5.15043 37.9209 5.5708 38.1688 5.36829Z" fill="#B0B0B0"/>
</svg>
