<svg width="605" height="338" viewBox="0 0 605 338" fill="none" xmlns="http://www.w3.org/2000/svg">
<g clip-path="url(#clip0_209_564)">
<path d="M551.774 337.808H107.625L107.475 337.652C94.647 324.323 84.3044 311.443 75.8841 298.275C66.1654 283.183 58.5735 266.809 53.3248 249.622C44.4513 220.679 39.9954 186.619 40.7848 153.746C41.6759 116.313 49.3272 83.1587 62.9138 57.8657C77.5289 30.6505 98.5733 12.8858 125.464 5.06061C139.661 0.931727 154.623 0.70903 171.206 4.38228C184.281 7.27736 198.501 12.704 214.683 20.9695C232.587 30.1129 250.054 40.9355 266.948 51.41C281.599 60.492 296.739 69.8812 312.113 78.1287C330.654 88.0836 347.556 95.2177 363.778 99.9353C382.826 105.475 401.123 107.615 418.162 106.255C432.907 105.091 448.518 101.579 463.614 98.1819C486.833 92.9548 510.841 87.5512 532.385 90.5231C544.013 92.1281 554.004 95.9753 562.939 102.283C572.941 109.355 581.343 119.313 588.625 132.721C596.951 148.036 602.166 165.427 604.124 184.415C605.96 202.203 604.911 220.902 601.005 239.99C597.213 258.456 591.001 276.335 582.529 293.158C574.038 310.053 563.741 325.017 551.924 337.647L551.774 337.808ZM108.055 336.784H551.333C563.018 324.259 573.208 309.428 581.633 292.697C590.063 275.955 596.245 258.162 600.019 239.785C603.905 220.797 604.949 202.205 603.123 184.52C601.178 165.667 595.994 148.407 587.744 133.212C580.531 119.945 572.212 110.1 562.351 103.12C553.564 96.9097 543.718 93.1187 532.255 91.5393C510.895 88.5905 486.976 93.9736 463.844 99.1802C448.714 102.585 433.068 106.107 418.249 107.277C401.087 108.633 382.668 106.493 363.505 100.918C347.21 96.1801 330.25 89.0231 311.642 79.0323C296.25 70.7695 281.087 61.3701 266.424 52.2829C249.548 41.8238 232.099 31.0063 214.227 21.8807C198.122 13.6563 183.98 8.25774 170.992 5.38058C154.579 1.74573 139.781 1.96331 125.751 6.04355C99.1335 13.7894 78.2954 31.3851 63.8151 58.3521C34.0526 113.766 38.0247 196.19 54.3076 249.31C59.5252 266.413 67.0752 282.707 76.7422 297.727C85.1014 310.782 95.3447 323.558 108.055 336.784Z" fill="#39D192"/>
<path d="M560.026 260.611C592.534 162.316 590.423 9.75521 457.689 0.389076C414.274 -2.68263 370.1 13.2595 329.822 27.7989C296.467 39.8297 253.706 57.5253 243.304 95.489C239.231 110.392 238.044 137.571 216.727 136.012C160.092 131.868 94.2831 94.6238 56.5713 158.889C24.1735 214.118 46.4985 293.133 91.0774 337.291H509.115C530.974 316.245 549.516 292.388 560.026 260.611Z" fill="#F5F5F5"/>
<path d="M357.719 244.054H248.741V337.229H357.719V244.054Z" fill="#263238"/>
<path opacity="0.6" d="M357.719 305.389L248.741 295.572V244.054H357.719V305.389Z" fill="black"/>
<path d="M470.383 27.7477H136.074C131.29 27.7477 127.412 31.6465 127.412 36.456V268.562C127.412 273.371 131.29 277.27 136.074 277.27H470.383C475.167 277.27 479.045 273.371 479.045 268.562V36.456C479.045 31.6465 475.167 27.7477 470.383 27.7477Z" fill="#263238"/>
<path d="M462.41 39.5021H144.054V259.815H462.41V39.5021Z" fill="white"/>
<path d="M283.087 100.434V259.815H144.064V94.291H276.976C278.597 94.291 280.151 94.9383 281.297 96.0904C282.443 97.2425 283.087 98.8051 283.087 100.434Z" fill="#BBFFE0"/>
<path d="M462.411 94.291V259.815H316.401V100.434C316.401 98.8051 317.045 97.2425 318.191 96.0904C319.337 94.9383 320.892 94.291 322.512 94.291H462.411Z" fill="#BBFFE0"/>
<path d="M95.0576 234.929C95.0576 237.102 95.916 239.185 97.4441 240.721C98.9721 242.257 101.045 243.12 103.205 243.12H261.36C263.521 243.12 265.594 242.257 267.122 240.721C268.65 239.185 269.508 237.102 269.508 234.929V72.4513H95.0576V234.929Z" fill="white"/>
<path d="M261.36 243.632H103.205C100.909 243.632 98.707 242.715 97.0835 241.083C95.46 239.451 94.5479 237.237 94.5479 234.929V71.9393H270.017V234.929C270.017 237.237 269.105 239.451 267.481 241.083C265.858 242.715 263.656 243.632 261.36 243.632ZM95.5663 72.9632V234.929C95.5663 236.966 96.3711 238.919 97.8036 240.359C99.2362 241.799 101.179 242.608 103.205 242.608H261.36C263.385 242.608 265.328 241.799 266.761 240.359C268.193 238.919 268.998 236.966 268.998 234.929V72.9632H95.5663Z" fill="#3A6BEA"/>
<path d="M261.36 54.5049H103.205C101.045 54.5049 98.9721 55.3679 97.4441 56.904C95.916 58.4402 95.0576 60.5236 95.0576 62.6961V72.4513H269.508V62.6961C269.508 60.5236 268.65 58.4402 267.122 56.904C265.594 55.3679 263.521 54.5049 261.36 54.5049Z" fill="#263238"/>
<path d="M270.017 72.9632H94.5479V62.6961C94.5479 60.3879 95.46 58.1742 97.0835 56.542C98.707 54.9099 100.909 53.9929 103.205 53.9929H261.36C263.656 53.9929 265.858 54.9099 267.481 56.542C269.105 58.1742 270.017 60.3879 270.017 62.6961V72.9632ZM95.5663 71.9393H268.998V62.6961C268.998 60.6594 268.193 58.7062 266.761 57.266C265.328 55.8259 263.385 55.0168 261.36 55.0168H103.205C101.179 55.0168 99.2362 55.8259 97.8036 57.266C96.3711 58.7062 95.5663 60.6594 95.5663 62.6961V71.9393Z" fill="#3A6BEA"/>
<path d="M108.129 66.9887C110.098 66.9887 111.694 65.3843 111.694 63.4051C111.694 61.4259 110.098 59.8214 108.129 59.8214C106.16 59.8214 104.564 61.4259 104.564 63.4051C104.564 65.3843 106.16 66.9887 108.129 66.9887Z" fill="white"/>
<path d="M254.08 135.421H110.475V86.7859H254.08V135.421ZM111.493 134.397H253.062V87.8098H111.493V134.397Z" fill="#DADADA"/>
<path d="M253.571 122.494H110.991V123.518H253.571V122.494Z" fill="#DADADA"/>
<path d="M253.571 110.592H110.991V111.615H253.571V110.592Z" fill="#DADADA"/>
<path d="M253.571 98.6887H110.991V99.7126H253.571V98.6887Z" fill="#DADADA"/>
<path d="M239.821 87.2979H238.803V134.909H239.821V87.2979Z" fill="#DADADA"/>
<path d="M225.565 87.2979H224.547V134.909H225.565V87.2979Z" fill="#DADADA"/>
<path d="M211.307 87.2979H210.288V134.909H211.307V87.2979Z" fill="#DADADA"/>
<path d="M197.048 87.2979H196.029V134.909H197.048V87.2979Z" fill="#DADADA"/>
<path d="M182.789 87.2979H181.771V134.909H182.789V87.2979Z" fill="#DADADA"/>
<path d="M168.533 87.2979H167.515V134.909H168.533V87.2979Z" fill="#DADADA"/>
<path d="M154.274 87.2979H153.256V134.909H154.274V87.2979Z" fill="#DADADA"/>
<path d="M140.016 87.2979H138.997V134.909H140.016V87.2979Z" fill="#DADADA"/>
<path d="M125.757 87.2979H124.738V134.909H125.757V87.2979Z" fill="#DADADA"/>
<path d="M252.94 135.403C251.957 133.402 250.844 131.134 249.087 129.593C247.03 127.785 244.471 127.45 242.572 128.738C242.122 129.072 241.7 129.444 241.311 129.849C240.102 131.026 238.597 132.49 236.672 131.707C235.274 131.139 234.467 130.064 233.688 129.022C233.24 128.362 232.714 127.76 232.12 127.23C230.676 126.05 228.883 126.142 226.48 127.522L226.314 127.616C224.868 128.448 223.068 129.488 221.387 127.517C220.588 126.58 220.384 125.415 220.186 124.289C220.018 123.337 219.86 122.438 219.358 121.729C217.894 119.645 215.865 118.913 213.795 119.738C212.746 120.152 211.528 121.575 210.23 123.081C208.356 125.272 206.278 127.688 204.04 127.688C203.459 127.684 202.89 127.525 202.39 127.227C200.608 126.203 200.745 124 200.862 122.049C200.972 120.239 201.074 118.529 199.885 117.779C198.357 116.819 196.394 118.534 195.439 119.922C194.008 121.998 191.62 123.989 189.539 123.761C188.653 123.662 187.426 123.106 186.606 121.038C185.949 119.387 186.054 117.605 186.153 115.88C186.222 114.697 186.288 113.576 186.117 112.532C185.863 110.94 184.59 108.807 182.553 109.048C181.114 109.22 180.401 110.538 179.645 111.93C179.264 112.717 178.783 113.451 178.214 114.114C177.333 115.038 176.477 115.394 175.668 115.184C174.726 114.928 174.01 113.922 173.6 112.266C173.58 112.186 173.557 112.081 173.529 111.958C173.02 109.655 172.62 109.332 172.475 109.296C172.454 109.296 172.34 109.319 172.139 109.552C171.63 110.141 171.63 111.024 171.63 111.958C171.63 112.752 171.63 113.574 171.319 114.306C171.09 114.807 170.738 115.242 170.296 115.569C169.855 115.897 169.337 116.106 168.793 116.177C168.053 116.299 167.295 116.24 166.583 116.006C165.871 115.771 165.225 115.367 164.701 114.828C163.314 113.292 162.787 110.968 163.13 107.886C163.408 105.408 163.357 98.7425 161.585 97.7211C161.142 97.4652 160.538 97.6187 159.802 98.1793C158.718 98.9959 158.058 101.179 157.885 102.984C157.515 106.84 156.336 110.573 154.427 113.937C153.837 114.974 152.981 116.192 151.611 116.423C151.243 116.48 150.867 116.46 150.507 116.364C150.146 116.268 149.81 116.098 149.518 115.865C148.589 115.113 147.992 114.023 147.858 112.831C147.784 111.866 147.824 110.895 147.978 109.939C148.084 109.229 148.136 108.512 148.133 107.794C148.092 106.304 147.262 104.689 145.951 104.566C145.271 104.499 143.955 105.685 142.896 106.637C141.353 108.024 140.021 109.222 138.898 108.807C138.279 108.577 137.905 107.912 137.755 106.775C137.729 106.583 137.717 106.368 137.704 106.143C137.643 105.155 137.554 104.392 136.973 104.266C136.815 104.214 136.647 104.202 136.483 104.23C136.32 104.258 136.165 104.326 136.034 104.428C135.081 105.216 135.137 108.086 135.17 109.803C135.209 110.45 135.191 111.099 135.117 111.743C134.994 112.328 134.747 112.879 134.393 113.359C134.038 113.84 133.586 114.237 133.065 114.526C132.735 114.707 132.368 114.809 131.993 114.823C131.617 114.838 131.243 114.765 130.901 114.61C129.416 113.917 129.146 112.099 129.077 110.592L128.619 100.386C128.563 99.1725 128.364 97.5061 127.262 97.03C127.068 96.9498 126.859 96.9103 126.649 96.9138C126.439 96.9174 126.232 96.9638 126.04 97.0505C125.232 97.432 124.596 98.1043 124.258 98.9344C124.023 99.5371 123.834 100.157 123.692 100.788C123.461 101.707 123.221 102.654 122.717 103.509C122.417 104.003 122.012 104.424 121.532 104.742C121.051 105.061 120.506 105.269 119.937 105.352C119.576 105.402 119.208 105.366 118.863 105.247C118.519 105.128 118.207 104.929 117.953 104.666C117.082 103.737 117.227 102.469 117.355 101.351C117.437 100.81 117.461 100.261 117.426 99.7152C117.375 99.2804 117.218 98.8649 116.97 98.5055C116.721 98.1461 116.388 97.8539 116 97.6546C115.315 97.3101 114.562 97.1226 113.796 97.1053C113.03 97.088 112.27 97.2415 111.57 97.5547L111.132 96.6281C111.978 96.25 112.897 96.0669 113.822 96.0921C114.747 96.1173 115.655 96.3503 116.479 96.774C117.014 97.0447 117.474 97.4449 117.817 97.9387C118.16 98.4324 118.376 99.0042 118.445 99.6025C118.492 100.227 118.468 100.855 118.373 101.474C118.259 102.498 118.157 103.386 118.704 103.967C118.848 104.116 119.026 104.228 119.223 104.293C119.419 104.357 119.628 104.373 119.832 104.338C120.245 104.274 120.64 104.12 120.988 103.888C121.336 103.655 121.63 103.35 121.849 102.992C122.279 102.265 122.49 101.428 122.712 100.542C122.867 99.8601 123.073 99.191 123.328 98.5402C123.769 97.4574 124.607 96.586 125.668 96.1059C125.985 95.9697 126.326 95.8994 126.67 95.8994C127.014 95.8994 127.355 95.9697 127.672 96.1059C129.299 96.8073 129.576 98.8679 129.643 100.355L130.104 110.561C130.16 111.779 130.358 113.236 131.336 113.697C131.538 113.787 131.759 113.828 131.98 113.816C132.202 113.805 132.417 113.741 132.609 113.63C132.995 113.413 133.331 113.116 133.594 112.758C133.858 112.401 134.042 111.991 134.137 111.557C134.189 110.985 134.2 110.41 134.17 109.836C134.129 107.694 134.073 104.758 135.402 103.657C135.652 103.457 135.946 103.319 136.259 103.254C136.572 103.189 136.896 103.199 137.205 103.283C138.587 103.583 138.677 105.096 138.733 106.099C138.745 106.307 138.758 106.501 138.778 106.66C138.868 107.333 139.048 107.784 139.265 107.865C139.81 108.068 141.208 106.811 142.229 105.892C143.619 104.64 144.933 103.458 146.048 103.562C147.993 103.749 149.103 105.866 149.154 107.784C149.158 108.554 149.104 109.325 148.991 110.087C148.849 110.963 148.808 111.852 148.872 112.737C148.978 113.651 149.435 114.488 150.145 115.069C150.326 115.218 150.536 115.328 150.762 115.391C150.988 115.455 151.224 115.469 151.456 115.435C152.406 115.276 153.078 114.293 153.557 113.451C155.398 110.212 156.537 106.618 156.897 102.905C157.078 101.026 157.793 98.4507 159.219 97.3781C160.319 96.5513 161.3 96.3721 162.127 96.8508C165.048 98.5326 164.19 107.924 164.179 108.019C163.869 110.794 164.309 112.857 165.488 114.162C165.896 114.576 166.397 114.885 166.949 115.063C167.501 115.242 168.087 115.284 168.658 115.186C169.15 115.102 170.031 114.828 170.418 113.906C170.647 113.369 170.647 112.685 170.647 111.964C170.647 110.94 170.647 109.765 171.411 108.892C171.948 108.267 172.444 108.231 172.763 108.313C173.766 108.569 174.219 110.215 174.563 111.743C174.588 111.859 174.611 111.956 174.629 112.028C174.929 113.246 175.431 114.06 175.971 114.203C176.511 114.347 177.101 113.853 177.516 113.415C178.022 112.817 178.449 112.158 178.789 111.452C179.597 109.962 180.511 108.275 182.471 108.042C184.918 107.753 186.774 110.018 187.159 112.378C187.345 113.535 187.276 114.764 187.207 115.962C187.113 117.575 187.016 119.241 187.587 120.677C188.096 121.957 188.804 122.663 189.69 122.766C191.355 122.955 193.42 121.138 194.637 119.369C196.048 117.321 198.472 115.688 200.46 116.942C202.164 118.017 202.031 120.209 201.914 122.141C201.805 123.956 201.7 125.669 202.933 126.37C205.079 127.596 207.325 124.972 209.497 122.436C210.869 120.831 212.168 119.313 213.451 118.806C215.956 117.815 218.487 118.696 220.219 121.161C220.85 122.062 221.036 123.116 221.217 124.138C221.398 125.159 221.571 126.15 222.189 126.877C223.269 128.141 224.226 127.678 225.836 126.754L226.001 126.659C228.782 125.062 231.002 124.998 232.789 126.462C233.448 127.04 234.033 127.698 234.531 128.42C235.259 129.393 235.947 130.312 237.077 130.773C238.297 131.269 239.274 130.445 240.626 129.127C241.058 128.679 241.526 128.27 242.027 127.903C244.318 126.349 247.374 126.715 249.78 128.835C251.692 130.514 252.853 132.879 253.877 134.978L252.94 135.403Z" fill="#39D192"/>
<path d="M148.555 104.394C148.758 103.138 147.91 101.954 146.66 101.751C145.411 101.547 144.234 102.4 144.031 103.655C143.828 104.911 144.677 106.095 145.926 106.299C147.175 106.502 148.352 105.65 148.555 104.394Z" fill="#102048"/>
<path d="M210.655 124.583C211.92 124.583 212.946 123.552 212.946 122.279C212.946 121.007 211.92 119.976 210.655 119.976C209.389 119.976 208.363 121.007 208.363 122.279C208.363 123.552 209.389 124.583 210.655 124.583Z" fill="#102048"/>
<path d="M121.643 150.859H111.119V228.343H121.643V150.859Z" fill="#1AB56E"/>
<path d="M143.608 161.531H133.085V228.425H143.608V161.531Z" fill="#39D192"/>
<path d="M165.574 174.995H155.051V228.527H165.574V174.995Z" fill="#1AB56E"/>
<path d="M187.543 183.26H177.02V228.568H187.543V183.26Z" fill="#39D192"/>
<path d="M209.509 170.354H198.985V228.455H209.509V170.354Z" fill="#1AB56E"/>
<path d="M231.475 191.546H220.951V228.53H231.475V191.546Z" fill="#39D192"/>
<path d="M253.443 212.534H242.92V228.878H253.443V212.534Z" fill="#1AB56E"/>
<path d="M329.646 72.4513V234.929C329.646 237.102 330.505 239.185 332.033 240.721C333.561 242.257 335.633 243.12 337.794 243.12H495.949C498.11 243.12 500.182 242.257 501.71 240.721C503.238 239.185 504.097 237.102 504.097 234.929V72.4513H329.646Z" fill="white"/>
<path d="M495.948 243.632H337.794C335.498 243.632 333.296 242.715 331.672 241.083C330.049 239.451 329.137 237.237 329.137 234.929V71.9393H504.606V234.929C504.606 237.237 503.693 239.451 502.07 241.083C500.446 242.715 498.244 243.632 495.948 243.632ZM330.155 72.9632V234.929C330.155 236.966 330.96 238.919 332.393 240.359C333.825 241.799 335.768 242.608 337.794 242.608H495.948C497.974 242.608 499.917 241.799 501.35 240.359C502.782 238.919 503.587 236.966 503.587 234.929V72.9632H330.155Z" fill="#3A6BEA"/>
<path d="M504.097 62.6961C504.097 60.5236 503.238 58.4402 501.71 56.904C500.182 55.3679 498.11 54.5049 495.949 54.5049H337.794C335.633 54.5049 333.561 55.3679 332.033 56.904C330.505 58.4402 329.646 60.5236 329.646 62.6961V72.4513H504.097V62.6961Z" fill="#263238"/>
<path d="M504.606 72.9632H329.137V62.6961C329.137 60.3879 330.049 58.1742 331.672 56.542C333.296 54.9099 335.498 53.9929 337.794 53.9929H495.948C498.244 53.9929 500.446 54.9099 502.07 56.542C503.693 58.1742 504.606 60.3879 504.606 62.6961V72.9632ZM330.155 71.9393H503.587V62.6961C503.587 60.6594 502.782 58.7062 501.35 57.266C499.917 55.8259 497.974 55.0168 495.948 55.0168H337.794C335.768 55.0168 333.825 55.8259 332.393 57.266C330.96 58.7062 330.155 60.6594 330.155 62.6961V71.9393Z" fill="#3A6BEA"/>
<path d="M343.567 66.9887C345.535 66.9887 347.131 65.3843 347.131 63.4051C347.131 61.4259 345.535 59.8214 343.567 59.8214C341.598 59.8214 340.002 61.4259 340.002 63.4051C340.002 65.3843 341.598 66.9887 343.567 66.9887Z" fill="white"/>
<path d="M488.032 150.859H477.509V228.343H488.032V150.859Z" fill="#1AB56E"/>
<path d="M466.066 153.908H455.543V228.366H466.066V153.908Z" fill="#39D192"/>
<path d="M444.098 166.474H433.574V228.445H444.098V166.474Z" fill="#1AB56E"/>
<path d="M422.132 175.22H411.608V228.473H422.132V175.22Z" fill="#39D192"/>
<path d="M400.166 191.331H389.643V228.658H400.166V191.331Z" fill="#1AB56E"/>
<path d="M378.197 204.665H367.674V228.737H378.197V204.665Z" fill="#39D192"/>
<path d="M356.231 212.534H345.708V228.878H356.231V212.534Z" fill="#1AB56E"/>
<path d="M374.368 162.88H354.731C353.921 162.88 353.144 163.203 352.571 163.779C351.998 164.355 351.676 165.137 351.676 165.951V178.015C351.676 178.83 351.998 179.611 352.571 180.188C353.144 180.764 353.921 181.087 354.731 181.087H367.08L370.788 186.952L374.505 181.064C375.289 181.029 376.029 180.693 376.573 180.124C377.116 179.556 377.422 178.799 377.425 178.01V165.946C377.424 165.132 377.101 164.352 376.528 163.777C375.954 163.202 375.177 162.879 374.368 162.88Z" fill="#1AB56E"/>
<path d="M364.544 166.965L366.098 170.131L369.573 170.638L367.06 173.101L367.653 176.579L364.544 174.939L361.438 176.579L362.031 173.101L359.516 170.638L362.991 170.131L364.544 166.965Z" fill="white"/>
<path d="M488.661 135.421H345.056V86.7859H488.661V135.421ZM346.074 134.397H487.643V87.8098H346.074V134.397Z" fill="#DADADA"/>
<path d="M488.16 122.494H345.58V123.518H488.16V122.494Z" fill="#DADADA"/>
<path d="M488.16 110.592H345.58V111.615H488.16V110.592Z" fill="#DADADA"/>
<path d="M488.16 98.6887H345.58V99.7126H488.16V98.6887Z" fill="#DADADA"/>
<path d="M474.413 87.2979H473.395V134.909H474.413V87.2979Z" fill="#DADADA"/>
<path d="M460.154 87.2979H459.136V134.909H460.154V87.2979Z" fill="#DADADA"/>
<path d="M445.895 87.2979H444.877V134.909H445.895V87.2979Z" fill="#DADADA"/>
<path d="M431.637 87.2979H430.618V134.909H431.637V87.2979Z" fill="#DADADA"/>
<path d="M417.381 87.2979H416.362V134.909H417.381V87.2979Z" fill="#DADADA"/>
<path d="M403.122 87.2979H402.104V134.909H403.122V87.2979Z" fill="#DADADA"/>
<path d="M388.863 87.2979H387.845V134.909H388.863V87.2979Z" fill="#DADADA"/>
<path d="M374.604 87.2979H373.586V134.909H374.604V87.2979Z" fill="#DADADA"/>
<path d="M360.349 87.2979H359.33V134.909H360.349V87.2979Z" fill="#DADADA"/>
<path d="M357.247 127.465C356.966 127.465 356.686 127.435 356.412 127.376C354.143 126.918 353.73 124.867 353.399 123.221C353.056 121.514 352.778 120.465 351.474 120.352C349.97 120.224 347.401 122.144 346.145 123.485L345.404 122.781C346.367 121.757 349.351 119.141 351.561 119.331C353.692 119.515 354.066 121.378 354.397 123.019C354.777 124.903 355.116 126.07 356.613 126.372C359.098 126.884 360.114 124.325 361.018 121.455L364.165 111.426C364.654 109.872 365.206 108.098 366.456 106.795C367.706 105.493 369.866 104.702 371.569 105.736C372.842 106.504 373.489 107.993 373.489 110.154C373.489 110.545 373.489 110.955 373.466 111.39C373.42 112.987 373.367 114.797 373.945 116.059C374.072 116.344 374.256 116.599 374.486 116.809C374.716 117.019 374.987 117.178 375.281 117.278C375.483 117.339 375.696 117.354 375.905 117.322C376.113 117.289 376.312 117.21 376.486 117.091C377.67 116.323 377.812 114.871 377.963 113.338C378.054 112.378 378.154 111.385 378.525 110.54C379.218 108.966 380.863 108.295 382.523 108.907C385.925 110.159 385.767 114.283 385.662 117.017V117.321C385.591 119.272 385.81 122.011 387.251 123.977C387.821 124.76 388.59 125.208 389.306 125.172C389.945 125.141 390.508 124.744 390.935 124.02C391.669 122.781 391.758 121.071 391.844 119.412C391.87 118.901 391.895 118.435 391.939 117.976L392.616 110.727C392.899 107.725 393.935 105.93 395.613 105.536C395.942 105.442 396.289 105.423 396.627 105.479C396.965 105.535 397.286 105.666 397.568 105.861C398.431 106.473 398.956 107.73 399.17 109.701C399.216 110.289 399.216 110.879 399.17 111.467C399.065 113.538 399.109 114.923 400.608 115.307C401.53 115.55 402.595 114.884 403.091 114.101C403.74 113.077 403.911 111.797 404.076 110.538C404.122 110.182 404.171 109.829 404.227 109.481C404.624 107.054 405.123 104.195 405.808 101.397V101.361C406.19 99.7971 406.714 97.6571 408.354 96.7049C409.586 95.9882 410.564 96.1929 411.155 96.4796C412.616 97.1887 413.52 99.2263 413.767 100.928C413.899 102.08 413.937 103.24 413.882 104.397C413.851 105.933 413.818 107.535 414.238 108.889C414.658 110.243 415.995 111.915 417.676 111.449C419.458 110.963 419.84 109.401 420.27 107.609C420.354 107.261 420.441 106.898 420.538 106.547C421.329 103.731 422.412 99.8688 424.841 97.3781C425.575 96.6295 426.533 96.1427 427.568 95.9916C428.603 95.8405 429.659 96.0334 430.575 96.5411C433.404 98.1102 433.376 101.535 433.355 104.561C433.355 106.13 433.332 107.615 433.689 108.738C434.157 110.21 434.962 111.129 436.072 111.467C436.483 111.607 436.92 111.657 437.352 111.613C437.785 111.569 438.202 111.432 438.577 111.211C439.942 110.394 440.765 108.508 441.08 107.013L441.213 106.368C441.857 103.268 442.74 99.0215 444.726 96.6716C446.066 95.0923 447.863 94.4677 449.658 94.9591C451.591 95.489 453.083 97.2245 453.462 99.3824C453.506 99.6384 453.547 99.9072 453.587 100.168C453.675 100.969 453.857 101.756 454.13 102.513C454.545 103.537 455.247 104.156 456.113 104.274C457.068 104.407 458.079 103.905 458.82 102.943C459.363 102.174 459.816 101.344 460.169 100.47C460.424 99.9353 460.663 99.3824 460.958 98.8525C463.632 94.0325 469.264 92.1434 473.641 91.9822C478.734 91.7953 483.658 93.4054 488.007 94.826L487.691 95.8013C483.424 94.4062 478.586 92.8269 473.687 93.0061C469.585 93.1571 464.322 94.9028 461.855 99.3491C461.582 99.8432 461.346 100.373 461.091 100.885C460.705 101.831 460.211 102.729 459.619 103.56C458.652 104.817 457.287 105.459 455.973 105.28C454.748 105.114 453.732 104.241 453.172 102.892C452.87 102.06 452.667 101.194 452.569 100.314C452.528 100.058 452.49 99.8022 452.447 99.5462C452.136 97.7749 450.919 96.3568 449.391 95.9318C447.991 95.5479 446.575 96.0547 445.503 97.3192C443.68 99.4694 442.832 103.568 442.211 106.563L442.076 107.21C441.612 109.422 440.497 111.239 439.094 112.074C438.6 112.367 438.048 112.55 437.477 112.61C436.906 112.67 436.328 112.606 435.784 112.422C434.351 111.987 433.291 110.812 432.729 109.022C432.321 107.743 432.334 106.181 432.347 104.528C432.367 101.655 432.39 98.6861 430.093 97.4114C429.372 97.0116 428.541 96.8594 427.726 96.9782C426.911 97.097 426.157 97.4801 425.579 98.0693C423.333 100.373 422.289 104.087 421.528 106.801C421.436 107.131 421.352 107.484 421.273 107.824C420.83 109.675 420.329 111.774 417.963 112.419C415.847 112.995 413.923 111.219 413.286 109.166C412.817 107.653 412.851 105.971 412.884 104.348C412.94 103.247 412.906 102.142 412.782 101.046C412.573 99.6153 411.802 97.8926 410.745 97.373C410.185 97.0991 409.576 97.1631 408.889 97.5624C407.631 98.2945 407.185 100.122 406.826 101.579V101.615C406.149 104.376 405.655 107.21 405.26 109.619C405.204 109.957 405.159 110.3 405.113 110.643C404.934 112.002 404.749 113.407 403.977 114.621C403.277 115.724 401.815 116.645 400.377 116.267C397.966 115.632 398.085 113.172 398.182 111.375C398.221 110.841 398.221 110.306 398.182 109.772C397.96 107.725 397.418 106.957 397.006 106.655C396.84 106.545 396.652 106.473 396.456 106.445C396.26 106.416 396.06 106.432 395.87 106.491C394.258 106.87 393.79 109.342 393.655 110.784L392.977 118.033C392.937 118.468 392.914 118.934 392.886 119.425C392.799 121.12 392.7 123.04 391.837 124.496C391.233 125.52 390.363 126.099 389.382 126.147C388.308 126.201 387.238 125.61 386.454 124.535C384.84 122.32 384.593 119.338 384.672 117.224V116.919C384.769 114.339 384.903 110.804 382.199 109.808C381.046 109.386 379.954 109.808 379.483 110.894C379.175 111.59 379.091 112.46 379.001 113.379C378.841 115.007 378.66 116.85 377.066 117.892C376.771 118.091 376.435 118.223 376.082 118.276C375.73 118.33 375.371 118.304 375.029 118.202C374.594 118.063 374.192 117.833 373.851 117.528C373.51 117.222 373.237 116.847 373.051 116.428C372.374 114.948 372.43 113.011 372.478 111.308C372.478 110.883 372.504 110.479 372.501 110.105C372.501 108.313 372.02 107.133 371.073 106.56C369.827 105.792 368.162 106.452 367.228 107.448C366.151 108.592 365.634 110.233 365.191 111.682L362.049 121.691C361.305 123.938 360.198 127.465 357.247 127.465Z" fill="#39D192"/>
<path d="M389.059 127.486C390.325 127.486 391.351 126.455 391.351 125.182C391.351 123.91 390.325 122.878 389.059 122.878C387.794 122.878 386.768 123.91 386.768 125.182C386.768 126.455 387.794 127.486 389.059 127.486Z" fill="#102048"/>
<path d="M473.848 94.7211C475.114 94.7211 476.14 93.6896 476.14 92.4173C476.14 91.145 475.114 90.1135 473.848 90.1135C472.583 90.1135 471.557 91.145 471.557 92.4173C471.557 93.6896 472.583 94.7211 473.848 94.7211Z" fill="#102048"/>
<path d="M561.009 275.522C560.646 276.363 560.151 277.141 559.543 277.825C556.192 281.409 551.303 277.447 547.942 267.003L541.322 253.354L543.868 241.661C543.868 241.661 545.936 237.463 549.368 235.907C550.947 235.19 552.811 235.037 554.899 236.112C561.519 239.521 564.411 268.19 561.009 275.522Z" fill="#102048"/>
<path d="M561.009 275.522C560.645 276.363 560.15 277.141 559.542 277.825C559.654 246.228 553.849 237.351 549.357 235.907C550.936 235.19 552.8 235.037 554.888 236.112C561.518 239.521 564.411 268.19 561.009 275.522Z" fill="#263238"/>
<path d="M520.298 302.01C519.759 302.746 519.107 303.392 518.366 303.922C514.317 306.671 510.409 301.736 509.411 290.803L505.933 276.028L510.972 265.183C510.972 265.183 513.905 261.543 517.592 260.782C519.287 260.432 521.139 260.693 522.939 262.203C528.655 267.01 525.218 295.608 520.298 302.01Z" fill="#102048"/>
<path d="M520.298 302.01C519.759 302.746 519.107 303.392 518.365 303.922C525.375 273.12 521.65 263.178 517.602 260.782C519.297 260.432 521.148 260.693 522.949 262.203C528.655 267.01 525.217 295.608 520.298 302.01Z" fill="#263238"/>
<path d="M515.35 277.999C512.652 280.884 509.688 283.507 506.5 285.832C503.607 287.942 500.246 289.948 496.784 291.095C490.51 293.184 483.9 292.457 479.194 284.399C470.425 269.399 472.32 235.18 473.949 217.937C474.55 211.64 475.12 207.606 475.12 207.606L504.402 199.671L504.748 202.159L505.716 209.04L511.103 247.631L515.35 277.999Z" fill="#263238"/>
<path opacity="0.6" d="M515.351 277.999C515.351 277.999 506.46 287.88 496.784 291.095C486.253 269.593 494.472 228.596 494.472 228.596L511.104 247.631L515.351 277.999Z" fill="#102048"/>
<path d="M547.942 266.992C547.942 266.992 531.005 296.686 511.45 289.344C509.627 288.658 507.988 287.46 506.501 285.832C494.279 272.47 492.751 230.511 492.649 213.678C492.619 209.265 492.69 206.582 492.69 206.582C492.69 206.582 498.567 204.412 504.749 202.159C511.257 199.794 518.091 197.326 518.753 197.193C520.148 196.917 521.35 198.381 522.379 200.992C527.216 213.227 528.265 250.61 528.265 250.61L543.879 241.651C551.507 250.354 547.942 266.992 547.942 266.992Z" fill="#263238"/>
<path d="M494.477 250.339C493.316 242.007 492.677 230.92 492.577 229.126L485.013 223.766L485.601 222.929L493.568 228.576V228.832C493.568 228.955 494.217 241.203 495.472 250.206L494.477 250.339Z" fill="#EDEDED"/>
<path d="M521.953 275.109C520.334 275.108 518.738 274.729 517.291 274.001C515.715 273.214 514.365 272.037 513.366 270.581C512.368 269.125 511.754 267.437 511.582 265.677L504.659 196.395L505.678 196.292L512.601 265.574C512.756 267.162 513.31 268.685 514.211 269.999C515.112 271.312 516.33 272.374 517.752 273.085C519.271 273.85 520.969 274.187 522.664 274.058C524.359 273.93 525.988 273.341 527.376 272.355L549.019 257.017L549.607 257.854L527.965 273.192C526.206 274.441 524.106 275.111 521.953 275.109Z" fill="#EDEDED"/>
<path opacity="0.6" d="M522.368 200.992C517.002 204.045 511.439 206.733 505.716 209.04C501.815 210.637 497.425 212.234 492.649 213.678C486.522 215.535 480.274 216.958 473.949 217.937C474.55 211.64 475.12 207.606 475.12 207.606L504.402 199.671L504.748 202.159C511.256 199.794 518.09 197.326 518.752 197.193C520.137 196.917 521.339 198.381 522.368 200.992Z" fill="#102048"/>
<path d="M458.061 110.848L452.378 120.493L445.076 119.295C444.739 117.646 444.383 115.916 444.057 114.175C442.55 106.373 441.317 98.4378 442.713 97.5368C443.701 96.8917 444.24 98.2331 444.495 99.4515C444.24 97.3627 444.088 93.9941 445.412 93.3593C446.807 92.6937 447.551 96.2057 447.866 98.2945C447.663 96.2467 447.52 92.7245 448.885 91.8234C450.433 90.7995 451.013 95.9702 451.197 98.1819C451.115 96.4105 451.115 92.8269 452.449 92.4992C454.038 92.1204 454.354 100.117 454.395 101.827C454.395 100.905 454.517 98.3354 455.841 98.4788C457.47 98.6426 458.061 110.848 458.061 110.848Z" fill="#F9B384"/>
<path d="M458.062 110.848L452.379 120.493L445.076 119.295C444.74 117.646 444.384 115.916 444.058 114.175L458.062 110.848Z" fill="#E28B6D"/>
<path d="M502.62 155.643L482.974 178.384L480.723 180.985C474.235 179.224 468.735 174.35 464.152 168.073C450.729 149.715 445.076 119.295 445.076 119.295L458.062 110.848C472.83 168.698 502.62 155.643 502.62 155.643Z" fill="#39D192"/>
<path d="M483.442 175.691L482.974 178.384L480.723 180.985C474.235 179.224 468.736 174.35 464.152 168.073C467.9 170.91 477.413 177.442 483.442 175.691Z" fill="#178452"/>
<path d="M523.254 200.92C513.13 207.709 500.532 209.664 488.677 210.34C485.224 210.535 481.771 210.596 478.319 210.453C476.648 210.381 474.693 210.453 473.084 209.91C470.028 208.886 472.065 206.326 474.611 204.023C477.158 201.719 478.176 166.65 478.176 166.65L502.62 155.643L521.461 161.275L521.848 175.609L522.062 183.268L522.317 192.647C522.342 193.44 522.533 194.219 522.877 194.934C523.221 195.648 523.71 196.282 524.313 196.794C526.136 198.371 524.833 199.866 523.254 200.92Z" fill="#39D192"/>
<path d="M522.063 183.268C518.325 182.162 515.86 179.193 515.86 179.193L521.849 175.609L522.063 183.268Z" fill="#178452"/>
<path d="M560.525 121.36L563.217 132.237L570.555 133.197C571.347 131.712 572.182 130.158 573.002 128.589C576.671 121.55 580.116 114.303 579.036 113.039C578.272 112.135 577.384 113.269 576.773 114.357C577.603 112.424 578.718 109.237 577.631 108.255C576.485 107.215 574.771 110.366 573.873 112.276C574.649 110.382 575.792 107.039 574.733 105.779C573.539 104.361 571.51 109.138 570.705 111.203C571.288 109.532 572.309 106.084 571.125 105.4C569.712 104.579 567.128 112.148 566.601 113.773C566.855 112.893 567.479 110.394 566.17 110.149C564.571 109.824 560.525 121.36 560.525 121.36Z" fill="#F9B384"/>
<path d="M560.525 121.36L563.217 132.237L570.555 133.197C571.347 131.712 572.182 130.158 573.002 128.589L560.525 121.36Z" fill="#E28B6D"/>
<path d="M504.402 154.875C504.402 154.875 538.521 161.787 560.526 121.343L570.555 133.179C570.555 133.179 542.226 179.907 515.86 179.188L504.402 154.875Z" fill="#39D192"/>
<path d="M500.417 169.159C495.834 169.159 492.868 166.02 492.824 165.972L493.573 165.278C493.81 165.534 499.485 171.506 507.406 165.473L508.02 166.289C505.211 168.434 502.622 169.159 500.417 169.159Z" fill="#178452"/>
<path d="M477.864 168.304L476.337 193.048L477.353 193.111L478.88 168.368L477.864 168.304Z" fill="#178452"/>
<path d="M564.727 141.07C560.475 136.793 556.324 128.489 556.144 128.139L557.055 127.68C557.098 127.765 561.312 136.189 565.458 140.346L564.727 141.07Z" fill="#178452"/>
<path d="M459.864 120.937L446.57 129.018L447.1 129.899L460.394 121.818L459.864 120.937Z" fill="#178452"/>
<path d="M498.885 176.037C499.823 176.037 500.583 175.272 500.583 174.329C500.583 173.386 499.823 172.622 498.885 172.622C497.947 172.622 497.187 173.386 497.187 174.329C497.187 175.272 497.947 176.037 498.885 176.037Z" fill="#178452"/>
<path d="M509.51 143.792L507.654 158.216C507.553 159.002 507.299 159.76 506.906 160.447C506.514 161.135 505.991 161.738 505.367 162.222C504.742 162.706 504.029 163.061 503.268 163.268C502.508 163.475 501.713 163.529 500.932 163.427C500.15 163.326 499.396 163.07 498.712 162.675C498.028 162.281 497.429 161.754 496.948 161.126C496.467 160.499 496.113 159.782 495.908 159.017C495.702 158.251 495.649 157.453 495.75 156.667L497.606 142.243L509.51 143.792Z" fill="#F9B384"/>
<path d="M502.801 148.56C502.801 148.56 501.161 154.763 495.753 156.631L497.026 146.674L502.801 148.56Z" fill="#102048"/>
<path d="M494.105 132.068C494.105 132.068 492.147 140.615 491.794 146.697C491.59 150.201 496.224 155.656 504.491 148.089L509.584 143.226L509.978 134.82L502.34 131.41L494.105 132.068Z" fill="#F9B384"/>
<path d="M507.842 142.742C507.842 142.742 508.606 138.096 506.505 136.443C506.505 136.443 494.355 140.126 488.794 129.306C488.794 129.306 492.399 130.637 496.433 127.883C500.13 125.369 506.482 123.838 509.973 130.076C509.973 130.076 518.699 129.657 512.211 142.709L507.842 142.742Z" fill="#263238"/>
<path d="M512.698 145.595C514.086 143.6 513.852 141.027 512.175 139.849C510.498 138.67 508.014 139.331 506.626 141.326C505.238 143.321 505.472 145.894 507.149 147.073C508.826 148.252 511.31 147.59 512.698 145.595Z" fill="#F9B384"/>
<path d="M494.897 140.198C494.897 140.288 494.88 140.377 494.846 140.46C494.812 140.543 494.762 140.618 494.699 140.682C494.636 140.745 494.561 140.796 494.478 140.83C494.395 140.864 494.307 140.882 494.217 140.881C494.128 140.881 494.04 140.864 493.958 140.829C493.875 140.795 493.8 140.744 493.738 140.681C493.675 140.617 493.625 140.542 493.591 140.459C493.557 140.376 493.54 140.287 493.54 140.198C493.54 140.108 493.558 140.02 493.592 139.937C493.626 139.855 493.676 139.78 493.738 139.716C493.801 139.653 493.876 139.603 493.958 139.569C494.04 139.534 494.128 139.517 494.217 139.517C494.306 139.517 494.395 139.534 494.477 139.568C494.56 139.602 494.635 139.652 494.698 139.715C494.761 139.779 494.811 139.854 494.845 139.937C494.88 140.019 494.897 140.108 494.897 140.198Z" fill="#102048"/>
<path d="M500.033 140.582C500.033 140.671 500.015 140.76 499.981 140.843C499.947 140.926 499.897 141.001 499.833 141.065C499.77 141.128 499.695 141.179 499.613 141.213C499.53 141.247 499.442 141.265 499.353 141.265C499.172 141.265 498.999 141.193 498.872 141.065C498.744 140.937 498.673 140.763 498.673 140.582C498.674 140.401 498.745 140.228 498.873 140.1C499 139.972 499.173 139.901 499.353 139.901C499.533 139.901 499.705 139.972 499.833 140.1C499.96 140.228 500.032 140.401 500.033 140.582Z" fill="#102048"/>
<path d="M495.027 145.617C494.961 145.616 494.898 145.591 494.851 145.545C494.253 144.972 494.001 144.398 494.105 143.843C494.25 143.075 495.05 142.604 495.36 142.45L495.755 140.82C495.771 140.754 495.813 140.697 495.871 140.662C495.928 140.627 495.998 140.617 496.063 140.633C496.128 140.649 496.185 140.691 496.22 140.749C496.255 140.807 496.265 140.877 496.249 140.943L495.796 142.816L495.676 142.867C495.676 142.867 494.731 143.267 494.607 143.94C494.535 144.314 494.736 144.728 495.202 145.176C495.25 145.224 495.276 145.289 495.276 145.357C495.276 145.424 495.25 145.489 495.202 145.537C495.156 145.586 495.093 145.614 495.027 145.617Z" fill="#102048"/>
<path d="M495.959 138.278C495.923 138.278 495.887 138.271 495.855 138.256C495.822 138.242 495.792 138.22 495.768 138.193C494.727 137.031 493.207 137.815 493.191 137.822C493.132 137.854 493.062 137.86 492.997 137.84C492.933 137.82 492.879 137.775 492.848 137.715C492.816 137.655 492.81 137.584 492.83 137.52C492.85 137.455 492.895 137.401 492.954 137.369C492.972 137.369 494.841 136.399 496.147 137.85C496.193 137.901 496.216 137.967 496.213 138.035C496.209 138.102 496.179 138.166 496.13 138.211C496.083 138.254 496.022 138.278 495.959 138.278Z" fill="#102048"/>
<path d="M501.518 139.302C501.482 139.302 501.447 139.294 501.415 139.28C501.382 139.265 501.353 139.244 501.329 139.217C500.041 137.769 498.355 138.639 498.274 138.675C498.214 138.706 498.145 138.713 498.08 138.694C498.016 138.674 497.962 138.629 497.93 138.57C497.899 138.51 497.892 138.44 497.911 138.375C497.931 138.311 497.975 138.256 498.035 138.224C498.057 138.224 500.14 137.126 501.699 138.877C501.743 138.927 501.766 138.994 501.763 139.062C501.759 139.129 501.728 139.193 501.678 139.238C501.634 139.277 501.577 139.3 501.518 139.302Z" fill="#102048"/>
<path d="M495.674 147.281C495.457 147.282 495.24 147.267 495.025 147.234C494.958 147.223 494.899 147.186 494.86 147.131C494.821 147.075 494.805 147.007 494.816 146.94C494.827 146.873 494.864 146.814 494.919 146.774C494.974 146.735 495.042 146.719 495.109 146.73C495.129 146.73 497.24 147.066 498.569 145.573C498.614 145.523 498.677 145.492 498.744 145.488C498.812 145.484 498.878 145.508 498.928 145.553C498.953 145.575 498.974 145.602 498.989 145.633C499.003 145.663 499.012 145.696 499.014 145.73C499.016 145.764 499.011 145.798 499 145.83C498.988 145.862 498.971 145.891 498.948 145.916C497.907 147.086 496.491 147.281 495.674 147.281Z" fill="#102048"/>
<path opacity="0.4" d="M503.353 146.129C504.719 146.129 505.826 145.016 505.826 143.643C505.826 142.27 504.719 141.158 503.353 141.158C501.988 141.158 500.881 142.27 500.881 143.643C500.881 145.016 501.988 146.129 503.353 146.129Z" fill="#EB5D60"/>
<path d="M508.435 144.252C508.414 144.255 508.392 144.255 508.371 144.252C508.339 144.244 508.308 144.229 508.281 144.209C508.255 144.189 508.232 144.163 508.215 144.134C508.198 144.105 508.187 144.073 508.182 144.04C508.178 144.007 508.179 143.973 508.188 143.94C508.386 143.232 508.85 142.629 509.481 142.258C510.143 141.902 510.951 141.892 511.872 142.228C511.935 142.251 511.986 142.298 512.015 142.359C512.044 142.419 512.047 142.489 512.025 142.553C512.002 142.616 511.956 142.668 511.895 142.698C511.835 142.727 511.765 142.731 511.702 142.709C510.917 142.425 510.25 142.425 509.721 142.709C509.216 143.013 508.844 143.498 508.679 144.065C508.664 144.119 508.632 144.166 508.588 144.2C508.544 144.234 508.49 144.252 508.435 144.252Z" fill="#102048"/>
<path d="M113.772 209.142L109.825 220.021L122.811 223.221L125.994 209.654L113.772 209.142Z" fill="#E28B6D"/>
<path d="M133.55 203.754C132.42 210.483 126.867 214.873 118.989 213.151C112.766 211.791 108.483 207.115 110.986 198.97C113.117 192.038 118.854 187.625 125.204 188.098C133.077 188.682 134.808 196.287 133.55 203.754Z" fill="#263238"/>
<path d="M40.7395 318.17L20.0312 337.283H48.0853L53.4705 319.365L40.7395 318.17Z" fill="#263238"/>
<path d="M71.294 316.977L53.4706 319.365L48.0879 337.283H74.0108C74.0108 337.283 71.7192 316.549 71.294 316.977Z" fill="#E28B6D"/>
<path d="M124.255 310.846L105.698 337.148L105.586 337.311H57.208V337.291L58.4404 326.12L59.2756 318.595L59.7542 314.274L87.08 310.342L85.0431 296.355C83.1045 292.103 82.2303 287.438 82.4969 282.768C82.7058 278.38 83.7427 274.071 85.5523 270.072L110.841 269.222L112.023 272.888L115.18 282.697L124.255 310.846Z" fill="#263238"/>
<path d="M67.0491 318.17L46.3408 337.283H74.3974L79.7801 319.365L67.0491 318.17Z" fill="#263238"/>
<path d="M97.606 316.977L79.7826 319.365L74.3975 337.283H100.32C100.32 337.283 98.0287 316.549 97.606 316.977Z" fill="#E28B6D"/>
<path d="M144.96 326.553C143.427 329.56 141.013 332.022 138.045 333.607C129.612 338.215 117.074 336.659 105.708 337.14C103.926 337.212 102.225 337.263 100.595 337.304C96.4193 337.386 92.7936 337.365 90.1863 337.304C89.7992 337.304 89.4428 337.304 89.0965 337.283C87.0595 337.232 85.8984 337.181 85.8984 337.181L86.4994 318.464L86.6623 313.242L116.962 310.682L106.4 283.774L102.194 273.054L112.033 272.88L129.143 272.593L131.985 272.542C131.985 272.542 132.514 273.76 133.37 275.849C133.482 276.126 133.594 276.402 133.716 276.709C137.281 285.453 144.665 305.696 145.795 318.177C146.121 321.761 145.928 324.71 144.96 326.553Z" fill="#263238"/>
<path d="M133.706 276.709C127.828 279.536 121.595 281.547 115.18 282.689C112.271 283.205 109.337 283.567 106.39 283.774C98.4091 284.336 90.3908 283.992 82.4863 282.75C82.6953 278.362 83.7321 274.053 85.5418 270.054L110.831 269.204L112.012 272.87L129.122 272.583L133.349 275.839L133.706 276.709Z" fill="#178452"/>
<path d="M144.96 326.553C143.427 329.56 141.013 332.022 138.044 333.607C137.457 332.211 137.156 330.71 137.158 329.194C137.158 326.65 138.008 324.179 139.573 322.179C141.137 320.18 143.325 318.766 145.785 318.167C146.121 321.761 145.927 324.71 144.96 326.553Z" fill="#178452"/>
<path d="M86.3974 337.196L85.3789 337.163L86.1581 312.779L86.5985 312.733C86.9015 312.699 117.071 309.49 128.191 310.173L128.13 311.197C117.828 310.572 90.9246 313.316 87.1486 313.711L86.3974 337.196Z" fill="#EDEDED"/>
<path d="M110.88 311.199L104.321 293.793C103.623 293.358 100.756 291.512 98.7598 289.36L99.5058 288.661C101.64 290.965 104.962 292.989 104.998 293.012L105.148 293.104L111.832 310.849L110.88 311.199Z" fill="#EDEDED"/>
<path d="M69.2667 329.99L65.4482 337.54L66.3561 338.004L70.1746 330.454L69.2667 329.99Z" fill="white"/>
<path d="M40.7482 329.478L36.9297 337.028L37.8376 337.492L41.6561 329.942L40.7482 329.478Z" fill="white"/>
<path d="M94.0418 226.036C86.9124 239.122 82.482 253.239 79.7983 268.016C79.5853 269.176 79.7879 270.374 80.37 271.398C80.9522 272.422 81.8764 273.205 82.9785 273.609C99.4346 279.556 116.53 280.183 134.157 276.446C135.284 276.205 136.292 275.577 137.008 274.669C137.723 273.761 138.101 272.63 138.076 271.472C137.895 263.135 137.719 243.798 139.542 231.491L94.0418 226.036Z" fill="#39D192"/>
<path d="M105.667 190.456C105.667 190.456 113.901 183.033 113.329 182.137C112.677 181.113 111.393 181.394 110.765 181.607C110.543 181.699 110.4 181.753 110.4 181.753C110.519 181.698 110.641 181.649 110.765 181.607C111.819 181.179 114.757 179.864 113.985 178.809C113.331 177.91 111.228 178.233 111.228 178.233C111.228 178.233 114.833 175.394 112.883 175.225C110.933 175.056 108.618 176.121 108.618 176.121C108.618 176.121 110.93 173.945 109.828 173.689C109.252 173.554 102.385 176.272 94.1455 181.238C96.4651 184.822 100.137 190.233 102.423 193.589L105.667 190.456Z" fill="#E28B6D"/>
<path d="M162.022 213.535L155.214 193.551L142.081 199.804C143.888 207.483 145.984 215.419 145.984 215.419C118.867 225.146 89.9675 206.587 89.9675 206.587L102.424 193.594C100.132 190.238 96.4655 184.822 94.1459 181.243C88.2896 184.768 81.7484 189.435 76.2639 195.012C73.4307 197.898 71.5732 201.608 70.9551 205.615C70.1946 210.562 71.3819 215.612 74.2651 219.693L90.3062 240.033L137.836 243.832L155.362 232.635C157.236 231.441 158.847 229.873 160.095 228.028C161.514 225.929 162.427 223.526 162.761 221.01C163.096 218.494 162.843 215.935 162.022 213.535Z" fill="#39D192"/>
<path d="M74.0434 197.749C74.997 199.371 75.5748 201.188 75.734 203.065C76.0472 206.994 74.5653 211.256 71.7441 214.738C71.8358 215.012 71.9555 215.273 72.0599 215.541C75.1764 211.848 76.834 207.25 76.4953 202.999C76.3151 200.891 75.6377 198.857 74.5195 197.065C74.354 197.293 74.1987 197.518 74.0434 197.749Z" fill="white"/>
<path d="M162.572 215.621C160.174 216.909 158.163 218.82 156.749 221.155C154.679 224.641 154.182 228.89 155.102 232.797L155.356 232.63C155.499 232.538 155.626 232.433 155.766 232.338C154.979 228.701 155.481 224.78 157.401 221.549C158.694 219.408 160.516 217.64 162.689 216.417C162.656 216.151 162.623 215.884 162.572 215.621Z" fill="white"/>
<path d="M137.979 265.9C131.292 267.922 124.367 269.168 117.316 268.766C112.176 268.472 107.05 267.292 102.093 266.15C99.3198 265.513 96.4527 264.853 93.6061 264.359C88.7912 263.511 84.4933 263.278 80.6562 263.649C80.6001 263.905 80.5466 264.161 80.4932 264.433C84.3125 264.036 88.641 264.264 93.4788 265.116C96.3076 265.613 99.1644 266.271 101.927 266.908C106.915 268.057 112.074 269.245 117.278 269.542C118.19 269.593 119.098 269.619 120.003 269.619C126.141 269.619 132.161 268.464 137.991 266.716C137.984 266.44 137.981 266.173 137.979 265.9Z" fill="white"/>
<path d="M101.84 216.007C102.201 214.962 102.474 213.889 102.655 212.797L101.927 212.511C101.759 213.621 101.486 214.713 101.112 215.772C100.779 216.743 100.515 217.737 100.323 218.746C99.3957 224.337 103.444 230.521 109.344 232.536C111.018 233.097 112.773 233.378 114.538 233.368C118.395 233.368 122.495 232.124 126.192 229.74C131.198 226.513 134.946 221.774 137.963 217.497C137.612 217.556 137.26 217.605 136.909 217.656C134.009 221.71 130.444 226.085 125.779 229.093C120.544 232.469 114.492 233.488 109.591 231.809C104.027 229.909 100.208 224.106 101.076 218.874C101.262 217.901 101.518 216.943 101.84 216.007Z" fill="white"/>
<path d="M155.064 193.113C153.487 188.428 151.339 183.957 148.67 179.802C147.552 178.074 146.518 176.69 145.984 176.51C144.848 176.129 145.538 179.91 145.969 181.886C146.149 182.562 146.238 183.043 146.238 183.043C146.238 183.043 146.119 182.572 145.969 181.886C145.576 180.414 144.746 178.018 143.438 177.667C141.813 177.232 143.221 182.513 143.692 184.113C143.784 184.387 143.83 184.579 143.83 184.579C143.83 184.579 143.774 184.397 143.692 184.113C143.458 183.409 142.893 182.096 141.793 181.635C140.265 180.995 142.429 188.546 142.429 188.546C142.429 188.546 141.24 185.132 139.712 185.516C138.977 185.702 140.41 192.657 142.091 199.814L155.224 193.561L155.064 193.113Z" fill="#E28B6D"/>
<path d="M593.435 336.771H0V337.795H593.435V336.771Z" fill="#102048"/>
</g>
<defs>
<clipPath id="clip0_209_564">
<rect width="605" height="338" fill="white"/>
</clipPath>
</defs>
</svg>
