<svg width="722" height="372" viewBox="0 0 722 372" fill="none" xmlns="http://www.w3.org/2000/svg">
<g clip-path="url(#clip0_209_755)">
<path d="M36.0649 371.887C36.0649 371.887 -41.4948 205.88 111.367 205.88C192.131 205.88 158.859 160.335 213.77 107.624C268.681 54.9121 460.716 12.798 501.577 114.586C542.438 216.375 441.439 293.654 539.044 280.398C656.337 264.467 702.671 371.887 702.671 371.887H36.0649Z" fill="#F5F5F5"/>
<path d="M664.219 350.824C656.981 345.508 642.193 349.095 631.276 352.934C629.495 350.422 627.487 348.08 625.279 345.938C648.791 330.713 681.268 298.231 664.054 295.496C649.093 293.108 628.897 322.333 618.107 340.125C606.899 332.547 589.727 326.977 563.509 328.907C495.466 333.923 442.306 289.807 403.121 304.519C371.965 316.219 343.414 322.771 315.874 320.532C317.059 300.316 317.317 260.621 301.519 256.501C285.486 252.32 301.215 297.401 309.956 319.925C307.904 319.664 305.857 319.35 303.816 318.982C298.156 307.762 288.827 293.08 278.574 292.578C268.928 292.107 280.832 305.305 292.548 316.487C258.875 309.383 218.931 336.893 218.267 369.433H638.662C638.662 369.433 637.918 364.684 634.618 358.424C650.877 358.082 672.082 356.599 664.219 350.824Z" fill="#39D192"/>
<path d="M309.989 344.27H199.188V369.416H309.989V344.27Z" fill="#263238"/>
<path d="M275.822 344.27H165.023V369.419H275.822V344.27Z" fill="#263238"/>
<path d="M353.577 369.411H436.081V253.506H353.577V369.411Z" fill="#263238"/>
<path d="M328.138 369.411H410.642V253.506H328.138V369.411Z" fill="#263238"/>
<path d="M155.958 279.179C155.958 279.179 140.528 290.711 137.521 290.011C134.514 289.311 148.798 277.563 148.798 277.563C143.423 274.966 126.711 276.593 126.711 276.593C126.711 276.593 121.147 294.633 118.401 293.21C115.654 291.787 124.141 277.492 124.141 277.492C118.154 277.128 110.812 281.595 110.812 281.595C100.759 289.575 111.473 302.136 111.473 302.136C111.473 302.136 109.41 308.346 103.061 313.994C103.061 313.994 94.0072 320.731 93.3652 332.773L95.0114 332.922C95.0114 332.922 97.6178 321.707 102.359 316.401L103.141 315.599C103.914 314.882 104.455 314.341 104.82 313.944C107.179 311.666 110.439 308.763 112.011 308.484C111.954 308.224 111.931 307.957 111.942 307.69C111.964 307.944 111.986 308.206 112.011 308.484C112.56 314.827 124.802 320.375 132.341 321.517C139.881 322.658 137.554 319.542 134.953 314.923C132.352 310.304 124.135 308.239 122.258 306.113C120.382 303.987 124.261 303.981 128.805 306.066C133.348 308.151 133.968 313.71 141.255 317.218C148.542 320.725 159.506 308.572 159.506 308.572C153.698 308.275 145.406 301.938 145.705 299.996C146.005 298.055 159.783 303.344 162.137 303.598C164.491 303.851 169.852 300.906 170.681 291.371C171.509 281.835 155.958 279.179 155.958 279.179Z" fill="#39D192"/>
<path d="M74.015 286.338C74.015 286.338 91.0584 276.747 83.1046 263.726C83.1046 263.726 76.7421 255.729 69.9352 253.677C69.9352 253.677 73.5705 273.09 69.9352 273.532C66.2999 273.973 67.4358 251.609 67.4358 251.609C67.4358 251.609 49.4842 242.931 42.4413 243.612C42.4413 243.612 53.575 262.567 49.9397 262.112C46.3043 261.657 33.807 242.47 33.807 242.47C33.807 242.47 15.4027 239.045 12.4478 250.007C9.49296 260.968 14.2669 266.45 16.9913 267.137C19.7157 267.823 37.2147 267.592 36.7592 269.875C36.3038 272.158 24.4897 275.815 17.9023 273.758C17.9023 273.758 25.1728 291.801 34.7152 290.888C44.2575 289.975 47.2124 284.035 53.1195 283.578C59.0265 283.12 63.345 284.719 60.3901 286.319C57.4352 287.918 47.4402 286.843 42.669 290.921C37.8979 295 34.0347 297.509 42.8966 299.337C51.7586 301.166 67.6635 300.021 70.8434 293.171L74.015 286.338Z" fill="#39D192"/>
<path d="M78.5558 303.01C73.7846 294.103 74.0096 286.338 74.0096 286.338C68.558 268.982 20.8408 253.454 20.8408 253.454C81.508 278.118 70.8297 293.191 70.8297 293.191C72.4759 294.147 74.915 298.706 76.6188 302.227C76.8602 302.823 77.2443 303.647 77.8123 304.77C78.0455 305.277 78.2293 305.691 78.361 305.98C81.486 313.837 79.8315 327.401 79.8315 327.401L81.7246 327.914C85.9196 314.242 78.5558 303.01 78.5558 303.01Z" fill="#39D192"/>
<path d="M101.127 273.11C101.127 273.11 78.6651 260.466 89.1457 243.306C89.1457 243.306 97.533 232.772 106.518 230.069C106.518 230.069 101.725 255.657 106.518 256.266C111.311 256.876 109.811 227.367 109.811 227.367C109.811 227.367 133.472 215.925 142.759 216.83C142.759 216.83 128.08 241.817 132.882 241.213C137.683 240.609 154.148 215.324 154.148 215.324C154.148 215.324 178.41 210.807 182.303 225.252C186.196 239.696 179.905 246.926 176.311 247.831C172.717 248.735 149.654 248.432 150.246 251.443C150.839 254.455 166.42 259.269 175.106 256.561C175.106 256.561 165.52 280.343 152.941 279.141C140.361 277.938 136.479 270.107 128.681 269.506C120.884 268.904 115.202 271.011 119.095 273.118C122.988 275.225 136.169 273.81 142.457 279.185C148.746 284.559 153.84 287.868 142.158 290.279C130.476 292.689 109.509 291.18 105.319 282.149L101.127 273.11Z" fill="#39D192"/>
<path d="M171.216 229.76C171.216 229.76 108.316 250.23 101.128 273.11C101.128 273.11 101.427 283.346 95.1383 295.085C95.1383 295.085 85.4369 309.891 90.9681 327.901L93.462 327.225C93.462 327.225 91.2808 309.345 95.399 298.99C95.5664 298.607 95.8105 298.061 96.115 297.393C96.8668 295.915 97.3716 294.826 97.6926 294.04C99.9342 289.415 103.166 283.39 105.323 282.127C105.323 282.141 91.2451 262.272 171.216 229.76Z" fill="#39D192"/>
<path d="M100.189 367.177C105.967 367.177 111.689 366.033 117.028 363.81C122.366 361.588 127.217 358.33 131.303 354.223C135.389 350.117 138.63 345.241 140.842 339.875C143.053 334.509 144.191 328.758 144.191 322.951H56.1865C56.1865 328.758 57.3246 334.509 59.5359 339.875C61.7473 345.241 64.9885 350.117 69.0745 354.223C73.1605 358.33 78.0112 361.588 83.3498 363.81C88.6884 366.033 94.4104 367.177 100.189 367.177Z" fill="#263238"/>
<path d="M139.371 364.135H60.9961C59.556 364.135 58.175 364.71 57.1567 365.734C56.1385 366.757 55.5664 368.145 55.5664 369.593H144.789C144.789 368.147 144.219 366.761 143.203 365.738C142.187 364.715 140.809 364.138 139.371 364.135Z" fill="#263238"/>
<path d="M144.699 322.766H55.5968C55.4178 322.766 55.2462 322.837 55.1196 322.965C54.993 323.092 54.9219 323.264 54.9219 323.444C54.9219 323.624 54.993 323.797 55.1196 323.924C55.2462 324.051 55.4178 324.123 55.5968 324.123H144.699C144.878 324.123 145.05 324.051 145.176 323.924C145.303 323.797 145.374 323.624 145.374 323.444C145.374 323.264 145.303 323.092 145.176 322.965C145.05 322.837 144.878 322.766 144.699 322.766Z" fill="#263238"/>
<path d="M484.254 89.8784C482.978 89.6854 479.134 93.2565 479.134 93.2565C470.928 94.2106 458.927 96.4001 454.609 97.2357C451.547 97.8286 443.313 95.0075 435.269 91.7674C425.702 87.9067 416.407 83.4642 416.407 83.4642C411.098 83.1885 405.07 92.9283 415.836 99.1164C417.482 100.062 423.652 101.673 430.764 103.145C440.572 105.178 452.164 106.94 456.104 106.319C460.686 105.599 473.663 100.832 481.37 97.1805H481.389L481.474 97.1392C481.938 96.9241 483.826 96.0775 485.088 96.1519C486.531 96.2374 489.752 93.5791 489.848 92.8704C489.944 92.1617 485.53 90.0659 484.254 89.8784Z" fill="#ED975D"/>
<path d="M474.231 212.498L469.715 213.422C469.715 213.422 449.036 190.067 445.845 180.242C444.136 175.003 433.224 172.722 421.811 169.763C411.882 167.182 401.579 164.074 396.657 158.008C386.083 144.972 403.3 128.959 403.3 128.959C403.3 128.959 421.608 139.893 437.4 151.191C448.438 159.086 458.252 167.157 459.728 171.796C463.316 183.085 470.93 204.515 474.231 212.498Z" fill="#263238"/>
<path d="M468.184 220.202H470.728C471.578 220.067 472.207 219.819 473.079 219.703C474.407 219.53 475.016 220.076 475.137 220.202L475.161 220.227H485.958C486.232 219.838 485.958 218.934 485.713 218.269C485.628 218.047 485.492 217.847 485.317 217.685C485.142 217.524 484.932 217.406 484.704 217.34C483.557 217.006 481.302 216.711 479.233 214.831C478.07 213.774 473.617 210.945 473.617 210.945H473.595C473.496 210.945 473.03 211.091 471.005 212.812C469.959 213.697 468.173 211.557 468.173 211.557C467.929 211.782 467.73 212.053 467.589 212.354C467.337 212.871 467.255 213.456 467.356 214.023C467.518 214.999 466.999 216.816 466.582 218.046C466.332 218.791 466.118 219.317 466.118 219.317C466.118 219.317 465.998 219.927 468.184 220.202Z" fill="#233862"/>
<path d="M437.4 151.185L421.811 169.758C411.882 167.177 401.579 164.069 396.657 158.002C386.083 144.967 403.3 128.954 403.3 128.954C403.3 128.954 421.608 139.887 437.4 151.185Z" fill="black"/>
<path d="M423.235 141.487C423.235 141.487 421.978 145.469 419.942 151.461C417.355 159.039 413.503 169.827 409.322 179.831C408.405 182.037 407.47 184.191 406.529 186.273C403.052 193.972 399.494 200.571 396.377 203.922C390.747 209.953 377.062 248.716 377.062 248.716L373.654 247.767C373.654 247.767 368.9 214.676 385.74 195.831C385.929 195.643 386.049 195.396 386.08 195.13C386.305 192.342 387.106 179.856 388.849 167.204C389.279 164.102 389.762 160.989 390.308 158.008C390.344 157.817 390.38 157.627 390.413 157.44C392.975 143.652 395.428 137.521 398.594 134.436L421.876 141.098L423.235 141.487Z" fill="#263238"/>
<path d="M373.249 253.478H375.789C376.643 253.343 377.271 253.095 378.143 252.982C379.469 252.806 380.08 253.354 380.201 253.478L380.226 253.503H391.022C391.296 253.114 391.022 252.213 390.778 251.548C390.693 251.325 390.557 251.125 390.382 250.964C390.206 250.803 389.997 250.685 389.768 250.619C388.621 250.285 386.366 249.987 384.297 248.107C383.134 247.05 378.681 244.224 378.681 244.224H378.659C378.56 244.224 378.094 244.37 376.069 246.088C375.021 246.973 373.238 244.836 373.238 244.836C372.993 245.061 372.795 245.332 372.654 245.633C372.404 246.146 372.322 246.725 372.42 247.288C372.582 248.267 372.064 250.084 371.646 251.311C371.397 252.055 371.183 252.585 371.183 252.585C371.183 252.585 371.062 253.203 373.249 253.478Z" fill="#233862"/>
<path d="M378.243 96.469C378.243 96.469 374.347 106.049 369.855 115.372C366.078 123.209 361.88 130.867 359.218 132.503C355.465 134.808 345.127 141.308 338.419 146.155C338.419 146.155 333.184 146.117 332.383 147.123C331.582 148.13 329.694 152.655 330.243 153.113C330.792 153.571 334.951 153.358 335.961 152.316C336.844 151.409 338.806 150.755 339.294 150.603L339.385 150.576H339.407C347.555 148.055 360.341 142.805 364.209 140.238C367.54 138.032 374.928 128.882 380.819 120.741C385.091 114.843 388.575 109.471 389.157 107.662C392.976 95.7962 381.985 92.6773 378.243 96.469Z" fill="#FFB27D"/>
<path d="M398.616 58.9078C398.186 58.2769 397.72 57.6719 397.22 57.0961C397.805 57.1259 398.389 57.0378 398.94 56.8369C400.312 56.2688 400.932 51.9035 400.726 50.6102C400.52 49.3169 398.622 45.5721 396.279 45.1998C393.935 44.8275 391.516 47.4418 391.516 47.4418C391.949 45.5556 395.905 44.4663 395.905 44.4663C387.743 45.9802 388.16 51.4513 388.223 51.9559C380.752 49.2811 376.365 63.4248 376.365 63.4248L395.719 74.8881C395.719 74.8881 395.771 71.7638 397.617 71.9651C400.495 72.2794 402.893 65.1731 398.616 58.9078Z" fill="#263238"/>
<path d="M399.848 88.5851C395.409 90.6892 389.516 87.6586 389.546 87.6255C389.927 87.2422 389.793 86.0978 389.444 84.5921C389.096 83.0313 388.27 80.8942 386.747 78.3434C386.432 77.7919 386.114 77.2597 385.732 76.6888L386.24 76.4958L394.869 73.0212C394.869 73.0212 396.265 75.5389 397.725 77.836C398.962 79.7498 400.263 81.4705 400.833 81.4071C400.864 81.3768 406.576 85.3312 399.848 88.5851Z" fill="#FFB27D"/>
<path d="M394.868 73.8843C394.646 76.9783 393.601 82.5569 389.444 84.5975C389.096 83.0367 388.27 80.8996 386.747 78.3488L394.868 73.8843Z" fill="#ED975D"/>
<path d="M386.242 81.8814C386.242 81.8814 397.478 77.4334 394.611 70.4429C391.743 63.4524 391.266 58.1743 383.973 60.7196C376.681 63.2648 376.387 66.5105 376.78 69.0723C377.172 71.6342 383.246 82.8466 386.242 81.8814Z" fill="#FFB27D"/>
<path d="M390.432 68.8352C395.621 68.0989 397.135 65.9921 397.135 65.9921C393.984 64.9143 391.302 62.7699 389.549 59.9254C389.549 59.9254 383.719 57.9482 379.398 61.2518C379.122 61.611 378.934 62.0305 378.849 62.4762C377.858 62.1508 376.38 62.2335 375.51 65.0463C374.218 69.2737 378.802 73.8871 378.802 73.8871C379.916 73.57 378.66 69.8059 378.484 67.7956C378.355 66.3148 379.151 64.4231 379.581 63.5241C380.13 64.2411 385.604 71.1544 392.282 71.4301C389.88 70.5308 387.612 69.3062 385.541 67.7901C387.148 68.5677 388.86 69.0613 390.432 68.8352Z" fill="#263238"/>
<path d="M421.235 102.983C421.139 102.646 421.038 102.296 420.931 101.937C422.356 99.272 423.314 96.3805 423.765 93.3888C424.528 88.2239 423.216 85.0361 423.216 85.0361C423.216 85.0361 415.424 80.8831 411.984 80.3482C411.969 80.3459 411.955 80.3459 411.94 80.3482C411.895 80.3404 411.849 80.3358 411.803 80.3344C408.329 79.8518 400.809 81.396 400.809 81.396C400.809 81.396 402.26 85.276 398.167 87.8626C394.073 90.4492 389.706 87.2008 389.706 87.2008C389.574 87.289 389.431 87.3883 389.289 87.4904C389.289 87.4904 378.523 94.6298 377.557 96.2623C376.591 97.8948 372.448 105.972 372.448 105.972C372.448 105.972 373.771 112.766 388.312 113.318C389.508 116.233 390.422 119.076 390.721 121.447C391.876 130.652 390.534 137.916 391.881 143.29C393.228 148.665 417.496 145.598 421.891 144.564C426.286 143.53 425.296 138.815 425.633 134.232C426.067 128.485 422.668 108.062 421.235 102.983Z" fill="#39D192"/>
<path d="M423.767 93.3971C423.311 96.3999 422.346 99.3016 420.914 101.976C420.532 100.286 418.977 94.1003 416.472 91.2931C416.472 91.2931 420.686 91.6764 423.767 93.3971Z" fill="#0E9B5B"/>
<path d="M324.955 153.736C324.955 153.736 329.477 148.221 330.443 147.578C331.408 146.936 335.686 145.789 335.93 146.018C336.174 146.246 336.185 146.569 335.656 147.049C335.126 147.529 333.107 148.703 333.395 148.836C333.683 148.968 339.776 145.921 340.654 146.947C341.532 147.973 340.158 152.206 337.809 154.235C335.461 156.265 328.454 157.128 328.012 157.412C324.283 159.814 324.955 153.736 324.955 153.736Z" fill="#ED975D"/>
<path d="M245.368 141.021C245.368 141.021 251.862 148.767 260.134 145.527C260.134 145.527 261.915 141.2 261.94 138.012C261.94 137.621 261.94 137.24 261.94 136.879C261.984 133.294 262.104 131.273 262.104 131.273C261.728 131.115 249.459 126.053 249.47 126.474C249.673 136.181 245.368 141.021 245.368 141.021Z" fill="#FFB27D"/>
<path d="M250.693 128.788C251.876 130.994 255.937 135.302 261.942 136.879C261.986 133.294 262.107 131.273 262.107 131.273C261.756 131.179 250.342 128.137 250.693 128.788Z" fill="#ED975D"/>
<path d="M264.672 130.9C264.672 130.9 250.877 134.16 248.99 125.493C247.102 116.826 244.051 111.41 252.778 108.961C261.506 106.512 263.945 109.444 265.276 112.182C266.606 114.92 268.214 129.828 264.672 130.9Z" fill="#FFB27D"/>
<path d="M249.462 127.853C249.273 127.975 246.304 128.893 240.682 117.634C239.799 115.869 239.198 112.044 241.256 108.666C243.314 105.288 250.609 102.632 256.67 101.477C262.73 100.321 264.184 103.749 265.611 107.193C267.109 110.811 271.436 113.787 271.436 113.787C266.209 116.724 259.913 112.527 257.734 113.216C255.556 113.905 254.785 117.352 254.62 118.455C254.456 119.558 254.206 120.485 251.462 119.495C248.719 118.505 250.222 123.4 250.661 124.337C250.661 124.348 251.034 126.83 249.462 127.853Z" fill="#263238"/>
<path d="M213.92 344.27H205.566C203.813 344.27 201.868 342.483 201.382 339.212C200.897 335.942 197.294 334.158 196.515 331.491C195.736 328.824 199.728 325.046 199.728 325.046L200.394 324.172L201.089 323.262L207.706 324.848C207.706 324.848 207.868 326.453 207.981 328.496C208.052 329.971 208.09 331.678 208.008 333.184C207.813 336.752 208.987 340.596 212.101 341.291C215.216 341.986 213.92 344.27 213.92 344.27Z" fill="#2C3A64"/>
<path d="M272.078 344.35H249.934C249.773 344.322 249.615 344.275 249.465 344.209C247.986 343.442 248.447 337.591 248.625 335.773C248.661 335.44 248.683 335.244 248.683 335.244C248.683 335.244 256.472 328.797 257.542 333.733C257.579 333.887 257.617 334.039 257.657 334.188C259.01 338.804 265.051 340.9 268.541 341.487C271.208 341.937 271.902 343.544 272.078 344.35Z" fill="#2C3A64"/>
<path d="M267.614 215.639C267.614 215.639 266.431 230.469 265.043 248.294C263.152 272.511 260.881 302.255 260.653 307.889C260.266 317.675 258.705 333.327 258.705 333.327C258.705 333.327 255.009 337.045 247.61 335.478C247.61 335.478 241.025 313.142 239.132 289.493C239.105 289.107 239.074 288.715 239.047 288.326C237.294 264.261 234.569 213.595 234.569 213.595L267.614 215.639Z" fill="#263238"/>
<path d="M267.614 215.639C267.614 215.639 266.431 230.469 265.043 248.294L239.135 289.493C239.107 289.107 239.077 288.715 239.05 288.326C237.297 264.261 234.572 213.595 234.572 213.595L267.614 215.639Z" fill="black"/>
<path d="M262.214 217.398C262.214 217.398 240.899 271.108 226.882 296.348C212.865 321.588 208.486 328.631 208.486 328.631C208.486 328.631 200.455 325.402 199.726 323.202C199.726 323.202 205.087 274.475 214.473 262.595C219.776 255.883 225.996 235.742 226.298 228.699C226.599 221.656 228.196 207.713 228.196 207.713L262.214 217.398Z" fill="#263238"/>
<path d="M213.411 208.455C213.411 208.455 212.862 215.162 212.453 216.193C212.044 217.224 209.353 220.415 209.043 220.368C208.733 220.321 208.544 220.07 208.7 219.422C208.856 218.774 209.798 216.764 209.493 216.816C209.188 216.868 206.116 222.522 204.886 222.204C203.657 221.887 202.458 217.864 203.188 215.035C203.918 212.205 208.881 207.735 209.07 207.278C210.675 203.387 213.411 208.455 213.411 208.455Z" fill="#ED975D"/>
<path d="M211.123 210.157C213.482 210.918 213.866 210.744 213.866 210.744C213.866 210.744 225.348 189.731 226.512 187.806C227.675 185.881 250.894 164.243 250.894 164.243L244.927 141.878C244.927 141.878 218.519 176.252 215.666 181.182C210.955 189.334 208.192 208.262 208.192 208.262C208.992 209.135 210.001 209.787 211.123 210.157Z" fill="#39D192"/>
<path d="M272.116 173.023C272.031 177.617 271.768 182.779 271.408 188.021L271.343 188.956C271.115 192.205 270.865 195.459 270.58 198.635C270.467 199.909 270.344 201.167 270.218 202.402L270.198 202.57C270.198 203.031 270.133 203.533 270.08 203.991C268.917 215.884 267.696 225.279 267.471 225.425C267.206 225.61 266.884 225.692 266.563 225.657C263.46 225.265 254.2 225.971 246.622 224.314C240.224 222.96 234.718 220.387 228.882 216.921C228.108 216.463 226.342 215.242 226.487 214.332C226.627 213.331 226.888 211.883 227.22 210.066C228.369 203.74 230.353 192.858 231.03 180.124C231.162 177.75 231.353 175.411 231.604 173.106C232.187 167.442 233.22 161.834 234.693 156.337C237.294 146.93 241.111 139.73 245.904 136.912C246.529 136.559 249.898 138.713 252.99 140.709C255.597 142.385 258.692 143.123 261.77 142.802L264.344 145.665C267.463 149.307 270.783 154.155 271.688 161.049C271.758 161.559 271.816 162.1 271.864 162.674C272.122 166.117 272.206 169.571 272.116 173.023Z" fill="#39D192"/>
<path d="M272.116 173.023C272.031 177.617 271.768 182.779 271.408 188.021L271.342 188.956C253.619 177.804 250.889 157.401 250.889 157.401C259.608 157.784 266.527 159.8 271.875 162.679C272.129 166.121 272.21 169.573 272.116 173.023Z" fill="#0E9B5B"/>
<path d="M327.644 154.288C326.73 151.806 325.309 151.966 325.309 151.966C325.309 151.966 298.957 158.567 296.592 158.86C294.227 159.152 268.214 148.657 268.214 148.657C268.214 148.657 257.975 144.038 253.179 148.257C249.012 151.922 248.822 156.563 249.796 160.462C250.373 162.731 251.616 164.774 253.364 166.323C255.112 167.872 257.284 168.855 259.596 169.146C270.212 170.502 291.384 173.061 295.812 172.455C305.689 171.076 328.072 158.085 328.072 158.085C328.224 156.803 328.077 155.503 327.644 154.288Z" fill="#39D192"/>
<path d="M587.499 202.838C587.499 202.838 591.159 206.249 590.446 208.67C589.732 211.091 586.426 212.71 585.979 215.672C585.532 218.633 583.748 220.249 582.138 220.249H574.475C574.475 220.249 573.29 218.165 576.149 217.536C579.007 216.907 580.083 213.427 579.905 210.198C579.726 206.969 580.179 202.659 580.179 202.659L586.251 201.222L587.499 202.838Z" fill="#2C3A64"/>
<path d="M541.873 219.847C541.5 220.034 540.194 220.164 538.405 220.249H521.073C521.134 219.731 521.537 217.883 524.366 217.426C527.567 216.902 533.115 215.032 534.35 210.915C534.392 210.783 534.428 210.648 534.457 210.512C535.439 206.1 542.583 211.858 542.583 211.858L542.635 212.335C542.806 213.951 543.225 219.166 541.873 219.847Z" fill="#2C3A64"/>
<path d="M525.219 102.213C525.219 102.213 526.303 115.819 527.578 132.174C529.312 154.392 531.397 181.682 531.603 186.852C531.96 195.828 533.389 210.19 533.389 210.19C533.389 210.19 536.78 213.601 543.568 212.161C543.568 212.161 549.604 191.664 551.346 169.97C551.374 169.614 551.401 169.256 551.426 168.897C553.034 146.817 555.541 100.324 555.541 100.324L525.219 102.213Z" fill="#263238"/>
<path d="M525.219 102.213C525.219 102.213 526.303 115.819 527.578 132.174L551.346 169.976C551.374 169.62 551.401 169.261 551.426 168.903C553.034 146.823 555.541 100.33 555.541 100.33L525.219 102.213Z" fill="black"/>
<path d="M530.174 103.829C530.174 103.829 549.73 153.105 562.59 176.263C575.449 199.421 579.466 205.88 579.466 205.88C579.466 205.88 586.833 202.918 587.505 200.899C587.505 200.899 582.585 156.193 573.973 145.298C569.109 139.14 563.394 120.659 563.125 114.198C562.856 107.737 561.383 94.9441 561.383 94.9441L530.174 103.829Z" fill="#263238"/>
<path d="M469.853 77.1052C469.853 77.1052 464.549 75.8863 463.655 75.947C462.76 76.0077 459.638 77.3258 459.597 77.5768C459.556 77.8277 459.704 78.0373 460.244 78.0759C460.785 78.1145 462.56 77.8829 462.439 78.098C462.319 78.313 457.21 79.3251 457.155 80.3592C457.1 81.3933 459.899 83.3181 462.269 83.4477C464.64 83.5773 469.293 80.8114 469.694 80.7756C473.09 80.4778 469.853 77.1052 469.853 77.1052Z" fill="#FFB27D"/>
<path d="M467.58 78.4591C466.82 76.0242 466.999 75.6353 466.999 75.6353C466.999 75.6353 488.501 63.9486 490.47 62.7656C492.44 61.5826 514.661 37.8121 514.661 37.8121L537.433 44.1077C537.433 44.1077 502.21 71.077 497.162 73.9808C488.822 78.779 469.504 81.4952 469.504 81.4952C468.614 80.6656 467.952 79.6201 467.58 78.4591Z" fill="#39D192"/>
<path d="M521.559 26.2578C521.559 26.2578 513.578 40.3685 505.781 42.2105C505.781 42.2105 506.105 37.4702 508.003 34.2273C507.227 33.3063 506.544 32.4569 505.951 31.7013C504.915 30.3938 503.948 29.0324 503.054 27.6228L505.701 20.4724L507.498 15.619C508.287 17.0707 509.228 18.4334 510.305 19.6837C515.416 25.5905 521.559 26.2578 521.559 26.2578Z" fill="#FFB27D"/>
<path d="M510.305 19.6837C510.305 19.6837 511.257 26.7542 505.951 31.7014C504.915 30.3938 503.948 29.0324 503.054 27.6229L505.701 20.4724C508.541 19.601 510.305 19.6837 510.305 19.6837Z" fill="#ED975D"/>
<path d="M500.951 28.6597C500.951 28.6597 512.875 23.9884 509.865 16.5732C506.856 9.15799 506.367 3.55731 498.63 6.22391C490.893 8.89051 490.569 12.3265 490.973 15.0482C491.376 17.77 497.782 29.6911 500.951 28.6597Z" fill="#FFB27D"/>
<path d="M562.532 98.6696C557.72 105.619 521.765 114.904 522.201 110.094C522.486 106.938 522.486 103.762 522.201 100.605C522.111 99.5741 521.984 98.4811 521.82 97.3266C520.906 91.0062 518.736 82.8796 513.896 73.4706C513.534 72.7647 513.155 72.056 512.763 71.3363C510.79 67.7302 509.123 63.9638 507.778 60.077C505.286 52.8411 504.282 45.9195 505.539 41.3915C505.544 41.37 505.55 41.3488 505.558 41.3281C513.076 37.8342 515.984 24.2861 515.984 24.2861C515.984 24.2861 541.629 28.9134 555.994 63.2703C555.989 63.2703 566.725 92.6194 562.532 98.6696Z" fill="#39D192"/>
<path d="M522.201 100.605C522.112 99.5741 521.985 98.4812 521.82 97.3267C520.906 91.0063 518.736 82.8796 513.896 73.4707C514.72 68.4077 515.875 64.1969 517.134 62.3024C522.248 54.5977 525.228 53.3954 525.228 53.3954C525.228 53.3954 532.902 85.9047 522.201 100.605Z" fill="#0E9B5B"/>
<path d="M481.771 92.8704C481.771 92.8704 474.676 93.2454 473.576 93.6425C472.476 94.0396 469.021 96.811 469.06 97.1446C469.098 97.4783 469.359 97.6962 470.05 97.539C470.742 97.3818 472.89 96.4663 472.824 96.7779C472.758 97.0895 466.695 100.195 466.991 101.515C467.287 102.836 471.493 104.243 474.511 103.556C477.529 102.869 482.394 97.721 482.885 97.5335C487.03 95.9451 481.771 92.8704 481.771 92.8704Z" fill="#FFB27D"/>
<path d="M480.432 95.5756C479.011 93.2675 480.034 92.2141 480.034 92.2141C480.034 92.2141 501.95 74.9681 503.668 73.2253C505.385 71.4825 513.342 43.7438 513.342 43.7438C513.342 43.7438 516.086 32.5148 522.495 31.2767C528.067 30.2012 531.919 32.9726 534.44 36.2211C535.902 38.1201 536.76 40.4175 536.903 42.814C537.047 45.2104 536.469 47.5947 535.244 49.6561C529.65 59.1312 518.36 77.9408 515.068 81.1561C507.734 88.3066 483.189 98.3029 483.189 98.3029C482.074 97.6187 481.131 96.6855 480.432 95.5756Z" fill="#39D192"/>
<path d="M511.578 2.79896C511.66 2.6335 511.901 2.45702 512.494 2.27502C512.104 2.16133 511.692 2.14524 511.295 2.22814C510.96 1.40086 510.145 0.0220608 508.62 0C508.889 0.0821254 509.137 0.223839 509.344 0.414725C509.552 0.605612 509.714 0.840817 509.819 1.10304C507.726 -0.228881 503.852 -0.61495 494.18 2.62247C481.425 6.89399 487.799 14.334 489.73 14.9324C491.662 15.5308 495.217 11.7005 498.422 11.1765C501.626 10.6526 503.36 15.1337 504.573 15.506C505.786 15.8782 505.1 14.8579 506.378 13.8376C507.657 12.8173 508.389 15.2164 508.362 16.9041C508.335 18.5917 510.831 20.1911 510.831 20.1911L512.291 17.497C513.753 14.8055 513.355 5.02434 511.959 3.265C511.824 3.11609 511.704 2.95614 511.578 2.79896Z" fill="#263238"/>
<path d="M721.051 369.411H0.949296C0.425014 369.411 0 369.838 0 370.365V371.046C0 371.573 0.425014 372 0.949296 372H721.051C721.575 372 722 371.573 722 371.046V370.365C722 369.838 721.575 369.411 721.051 369.411Z" fill="#2E3552"/>
<path d="M602.372 220.249H489.384V369.411H602.372V220.249Z" fill="#263238"/>
<path d="M567.534 220.249H454.543V369.411H567.534V220.249Z" fill="#263238"/>
</g>
<defs>
<clipPath id="clip0_209_755">
<rect width="722" height="372" fill="white"/>
</clipPath>
</defs>
</svg>
