<svg width="61" height="83" viewBox="0 0 61 83" fill="none" xmlns="http://www.w3.org/2000/svg">
<path d="M2.77916 2.96595L17.0863 5.59692C18.1727 5.79669 18.8914 6.8393 18.6916 7.92565L16.4224 20.2658C16.2226 21.3522 16.9413 22.3948 18.0277 22.5945L30.3678 24.8638C31.4542 25.0636 32.1729 26.1062 31.9731 27.1925L29.7039 39.5327C29.5041 40.619 30.2228 41.6616 31.3092 41.8614L43.6493 44.1307C44.7357 44.3304 45.4544 45.373 45.2546 46.4594L42.9854 58.7996C42.7856 59.8859 43.5043 60.9285 44.5907 61.1283L56.9309 63.3975C58.0172 63.5973 58.7359 64.6399 58.5362 65.7263L55.9052 80.0335" stroke="#39D192" stroke-width="4" stroke-linecap="round" stroke-linejoin="round"/>
</svg>
