<svg width="124" height="124" viewBox="0 0 124 124" fill="none" xmlns="http://www.w3.org/2000/svg">
<path d="M62 124C96.2417 124 124 96.2417 124 62C124 27.7583 96.2417 0 62 0C27.7583 0 0 27.7583 0 62C0 96.2417 27.7583 124 62 124Z" fill="#EBFCF5"/>
<path d="M63.317 51.8882H60.6828C60.2953 51.8882 60.0629 52.1979 60.0629 52.5081V58.3192H57.8934C57.2735 58.3192 56.886 59.0164 57.2735 59.559L61.38 65.5251C61.6897 65.9899 62.3874 65.9899 62.6198 65.5251L66.7263 59.559C67.1138 59.0163 66.7263 58.3192 66.1064 58.3192H63.9369V52.5081C64.0142 52.1206 63.7045 51.8882 63.317 51.8882H63.317Z" fill="#39D192"/>
<path d="M76.9537 68.392H47.0461C45.729 68.392 44.6444 69.4767 44.6444 70.7937C44.6444 72.1108 45.7291 73.1955 47.0461 73.1955H48.6735L50.6879 96.4397C50.843 97.8341 51.9277 98.8415 53.3221 98.8415H70.6778C72.0722 98.8415 73.2346 97.7568 73.312 96.4397L75.3264 73.1955H76.9537C78.2708 73.1955 79.3555 72.1108 79.3555 70.7937C79.3555 69.4766 78.2708 68.392 76.9532 68.392H76.9537ZM59.3656 92.3335C59.3656 93.1858 58.6684 93.883 57.8161 93.883C56.9638 93.883 56.2666 93.1858 56.2666 92.3335L56.2661 76.2175C56.2661 75.3652 56.9633 74.668 57.8156 74.668C58.6679 74.668 59.365 75.3653 59.365 76.2175L59.3656 92.3335ZM67.7335 92.3335C67.7335 93.1858 67.0363 93.883 66.184 93.883C65.3317 93.883 64.6346 93.1858 64.6346 92.3335L64.634 76.2175C64.634 75.3652 65.3312 74.668 66.1835 74.668C67.0358 74.668 67.733 75.3653 67.733 76.2175L67.7335 92.3335Z" fill="#39D192"/>
<path d="M66.7261 30.8913V28.7992C66.7261 26.7848 65.0987 25.1576 63.0845 25.1576H60.915C58.9007 25.1576 57.2734 26.785 57.2734 28.7992V30.8913C51.9271 32.751 47.9759 37.632 47.6657 43.5208H76.4111C75.9463 37.7092 72.0723 32.7504 66.726 30.8913H66.7261ZM63.9368 30.2714C63.2396 30.1936 62.6197 30.1163 61.9998 30.1163C61.3798 30.1163 60.6827 30.1936 60.0627 30.2714V28.7991C60.0627 28.3343 60.4503 27.9468 60.9151 27.9468H63.0845C63.5493 27.9468 63.9368 28.3343 63.9368 28.7991L63.9368 30.2714Z" fill="#39D192"/>
<path d="M46.3489 49.1764H77.5737C78.2709 49.1764 78.8135 48.6338 78.8135 47.9366V47.2394C78.8135 46.5422 78.2709 45.9996 77.5737 45.9996H46.3489C45.6517 45.9996 45.1091 46.5422 45.1091 47.2394V47.9366C45.1096 48.6338 45.6517 49.1764 46.3489 49.1764Z" fill="#39D192"/>
</svg>
