<svg width="634" height="426" viewBox="0 0 634 426" fill="none" xmlns="http://www.w3.org/2000/svg">
<path d="M466.894 309.126C466.894 309.126 436.841 278.409 406.038 281.406" stroke="#3B1D05" stroke-width="2" stroke-miterlimit="10" stroke-linecap="round"/>
<path d="M424.069 285.152C424.069 285.152 454.121 281.406 469.148 287.4" stroke="#3B1D05" stroke-width="2" stroke-miterlimit="10" stroke-linecap="round"/>
<path d="M190.382 301.634C190.382 301.634 220.434 270.918 251.238 273.914" stroke="#3B1D05" stroke-width="2" stroke-miterlimit="10" stroke-linecap="round"/>
<path d="M233.206 277.66C233.206 277.66 203.154 273.914 188.128 279.908" stroke="#3B1D05" stroke-width="2" stroke-miterlimit="10" stroke-linecap="round"/>
<path d="M252.034 200.239C252.034 200.239 268.398 195.743 264.972 185.255C261.546 174.766 251.238 180.25 251.238 180.25C251.238 180.25 260.479 174.257 252.56 165.776C244.641 157.295 237.774 168.413 237.774 168.413C237.774 168.413 239.623 156.291 230.907 154.928C222.192 153.564 221.14 162.824 221.892 164.397C221.892 164.397 214.228 157.025 207.361 162.554C200.494 168.083 206.039 176.04 206.039 176.04" stroke="#3B1D05" stroke-width="2" stroke-linecap="round" stroke-linejoin="round"/>
<g style="mix-blend-mode:screen">
<path d="M342.913 48.4081C354.528 36.1663 344.956 15.9532 328.127 17.3916H327.526C307.496 19.3995 290.456 32.3755 291.959 36.8706C293.461 41.3657 316.001 43.3736 313.506 51.8544C311.012 60.3352 299.472 63.8414 280.945 56.859C262.417 49.8765 251.388 66.8382 257.909 78.3308C264.431 89.8234 280.945 86.3171 292.966 77.8363C304.987 69.3555 314.498 76.3379 329.028 62.3431C333.792 57.818 338.6 52.9033 342.913 48.4081Z" fill="#FFE2B0"/>
</g>
<path d="M26.2507 421.505C26.2507 421.505 30.7586 390.293 325.272 388.54C576.209 387.042 613.775 424.501 613.775 424.501" fill="#D1AF77"/>
<path d="M26.2507 421.505C26.2507 421.505 30.7586 390.293 325.272 388.54C576.209 387.042 613.775 424.501 613.775 424.501" stroke="#3B1D05" stroke-width="2" stroke-miterlimit="10" stroke-linecap="round"/>
<path d="M115.401 322.312C115.401 322.312 100.375 336.127 82.103 322.806C78.2413 319.989 75.4164 315.554 73.2075 310.13" stroke="#3B1D05" stroke-width="2" stroke-miterlimit="10" stroke-linecap="round"/>
<path d="M73.2827 300.945C72.735 300.907 72.2249 300.653 71.8643 300.24C71.5038 299.827 71.3222 299.289 71.3593 298.742L71.765 293.019C71.8148 292.481 72.0738 291.983 72.4866 291.633C72.8994 291.283 73.4333 291.108 73.9739 291.146V291.146C74.5216 291.184 75.0317 291.437 75.3922 291.85C75.7528 292.263 75.9344 292.802 75.8972 293.348L75.4915 299.072C75.4418 299.61 75.1828 300.107 74.7699 300.458C74.3571 300.808 73.8233 300.983 73.2827 300.945V300.945Z" fill="#8FB31F"/>
<path d="M71.1189 301.484C70.6924 301.83 70.1458 301.992 69.5992 301.936C69.0526 301.88 68.5508 301.61 68.2038 301.185L64.5675 296.69C64.3964 296.48 64.2685 296.239 64.191 295.98C64.1135 295.722 64.088 295.45 64.1159 295.181C64.1438 294.913 64.2246 294.652 64.3537 294.415C64.4827 294.177 64.6575 293.968 64.868 293.798V293.798C65.2946 293.452 65.8412 293.29 66.3877 293.346C66.9343 293.402 67.4362 293.673 67.7831 294.097L71.4194 298.593C71.7611 299.017 71.9212 299.559 71.8649 300.1C71.8086 300.641 71.5406 301.139 71.1189 301.484V301.484Z" fill="#8FB31F"/>
<path d="M73.2827 300.945C72.735 300.907 72.2249 300.653 71.8643 300.24C71.5038 299.827 71.3222 299.289 71.3593 298.742L71.765 293.019C71.8148 292.481 72.0738 291.983 72.4866 291.633C72.8994 291.283 73.4333 291.108 73.9739 291.146V291.146C74.5216 291.184 75.0317 291.437 75.3922 291.85C75.7528 292.263 75.9344 292.802 75.8972 293.348L75.4915 299.072C75.4418 299.61 75.1828 300.107 74.7699 300.458C74.3571 300.808 73.8233 300.983 73.2827 300.945V300.945Z" stroke="#3B1D05" stroke-width="2" stroke-linecap="round" stroke-linejoin="round"/>
<path d="M71.1189 301.484C70.6924 301.83 70.1458 301.992 69.5992 301.936C69.0526 301.88 68.5508 301.61 68.2038 301.185L64.5675 296.69C64.3964 296.48 64.2685 296.239 64.191 295.98C64.1135 295.722 64.088 295.45 64.1159 295.181C64.1438 294.913 64.2246 294.652 64.3537 294.415C64.4827 294.177 64.6575 293.968 64.868 293.798V293.798C65.2946 293.452 65.8412 293.29 66.3877 293.346C66.9343 293.402 67.4362 293.673 67.7831 294.097L71.4194 298.593C71.7611 299.017 71.9212 299.559 71.8649 300.1C71.8086 300.641 71.5406 301.139 71.1189 301.484V301.484Z" stroke="#3B1D05" stroke-width="2" stroke-linecap="round" stroke-linejoin="round"/>
<path d="M79.0828 309.441C79.739 308.194 80.0097 306.781 79.8606 305.381C79.7115 303.981 79.1494 302.657 78.2453 301.575C77.3412 300.494 76.1358 299.704 74.7815 299.306C73.4272 298.908 71.985 298.919 70.6372 299.339C69.2893 299.758 68.0965 300.567 67.2096 301.662C66.3227 302.757 65.7815 304.091 65.6545 305.493C65.5276 306.895 65.8205 308.303 66.4963 309.539C67.1721 310.776 68.2003 311.784 69.451 312.438C71.1269 313.313 73.0829 313.489 74.8889 312.927C76.695 312.365 78.2035 311.111 79.0828 309.441V309.441Z" fill="#8FB31F"/>
<path d="M79.0828 309.441C79.739 308.194 80.0097 306.781 79.8606 305.381C79.7115 303.981 79.1494 302.657 78.2453 301.575C77.3412 300.494 76.1358 299.704 74.7815 299.306C73.4272 298.908 71.985 298.919 70.6372 299.339C69.2893 299.758 68.0965 300.567 67.2096 301.662C66.3227 302.757 65.7815 304.091 65.6545 305.493C65.5276 306.895 65.8205 308.303 66.4963 309.539C67.1721 310.776 68.2003 311.784 69.451 312.438C71.1269 313.313 73.0829 313.489 74.8889 312.927C76.695 312.365 78.2035 311.111 79.0828 309.441V309.441Z" stroke="#3B1D05" stroke-width="2" stroke-linecap="round" stroke-linejoin="round"/>
<path d="M139.398 354.542L140.991 390.908L147.377 390.623L145.694 352.444L139.398 354.542Z" fill="#5E2E08"/>
<g style="mix-blend-mode:multiply" opacity="0.33">
<path d="M142.734 353.433L144.372 390.758L147.377 390.623L145.694 352.444L142.734 353.433Z" fill="#5E2E08"/>
</g>
<path d="M139.398 354.542L140.991 390.908L147.377 390.623L145.694 352.444L139.398 354.542Z" stroke="#3B1D05" stroke-width="2" stroke-miterlimit="10" stroke-linecap="round"/>
<path d="M145.979 400.393L131.404 401.022C130.726 401.054 130.048 400.952 129.409 400.723C128.771 400.493 128.184 400.139 127.682 399.683C127.181 399.226 126.775 398.675 126.488 398.061C126.201 397.448 126.039 396.784 126.01 396.107V396.107C125.979 395.43 126.083 394.754 126.315 394.117C126.548 393.48 126.903 392.895 127.363 392.395C127.822 391.896 128.375 391.491 128.991 391.205C129.608 390.919 130.274 390.757 130.953 390.728L145.529 390.084C146.208 390.054 146.886 390.157 147.525 390.389C148.163 390.62 148.75 390.975 149.251 391.433C149.752 391.891 150.158 392.443 150.445 393.057C150.731 393.672 150.894 394.336 150.923 395.013V395.013C150.98 396.38 150.492 397.713 149.565 398.721C148.639 399.729 147.349 400.33 145.979 400.393Z" fill="#8FB31F"/>
<path d="M145.979 400.393L131.404 401.022C130.726 401.054 130.048 400.952 129.409 400.723C128.771 400.493 128.184 400.139 127.682 399.683C127.181 399.226 126.775 398.675 126.488 398.061C126.201 397.448 126.039 396.784 126.01 396.107V396.107C125.979 395.43 126.083 394.754 126.315 394.117C126.548 393.48 126.903 392.895 127.363 392.395C127.822 391.896 128.375 391.491 128.991 391.205C129.608 390.919 130.274 390.757 130.953 390.728L145.529 390.084C146.208 390.054 146.886 390.157 147.525 390.389C148.163 390.62 148.75 390.975 149.251 391.433C149.752 391.891 150.158 392.443 150.445 393.057C150.731 393.672 150.894 394.336 150.923 395.013V395.013C150.98 396.38 150.492 397.713 149.565 398.721C148.639 399.729 147.349 400.33 145.979 400.393Z" stroke="#3B1D05" stroke-width="2" stroke-miterlimit="10" stroke-linecap="round"/>
<g style="mix-blend-mode:multiply" opacity="0.35">
<path d="M145.529 390.039H144.958C145.299 390.7 145.499 391.424 145.544 392.166C145.574 392.844 145.47 393.52 145.238 394.157C145.006 394.794 144.65 395.379 144.191 395.878C143.731 396.378 143.178 396.782 142.562 397.069C141.946 397.355 141.279 397.517 140.6 397.546L126.596 398.16C127.046 399.034 127.738 399.762 128.59 400.256C129.443 400.75 130.419 400.99 131.404 400.947L145.979 400.318C146.658 400.288 147.325 400.126 147.94 399.839C148.556 399.553 149.109 399.149 149.568 398.649C150.027 398.15 150.383 397.565 150.616 396.928C150.848 396.291 150.953 395.615 150.923 394.938C150.893 394.262 150.73 393.597 150.443 392.983C150.156 392.369 149.751 391.817 149.25 391.36C148.749 390.902 148.162 390.547 147.524 390.315C146.885 390.083 146.207 389.979 145.529 390.009V390.039Z" fill="#8FB31F"/>
</g>
<path d="M176.903 352.909L178.496 389.26L172.125 389.529L170.442 351.365L176.903 352.909Z" fill="#5E2E08"/>
<g style="mix-blend-mode:multiply" opacity="0.33">
<path d="M173.477 352.085L175.115 389.409L172.125 389.529L170.442 351.365L173.477 352.085Z" fill="#5E2E08"/>
</g>
<path d="M176.903 352.909L178.496 389.26L172.125 389.529L170.442 351.365L176.903 352.909Z" stroke="#3B1D05" stroke-width="2" stroke-miterlimit="10" stroke-linecap="round"/>
<path d="M174.379 399.149L188.954 398.505C189.633 398.476 190.3 398.314 190.916 398.028C191.532 397.741 192.086 397.337 192.545 396.837C193.004 396.338 193.36 395.753 193.592 395.116C193.824 394.479 193.928 393.802 193.898 393.125V393.125C193.836 391.761 193.232 390.476 192.221 389.555C191.209 388.633 189.872 388.15 188.504 388.211L173.913 388.84C172.546 388.906 171.26 389.509 170.337 390.517C169.413 391.524 168.927 392.855 168.985 394.219V394.219C169.013 394.896 169.176 395.561 169.463 396.175C169.75 396.79 170.155 397.342 170.656 397.8C171.158 398.257 171.744 398.612 172.383 398.844C173.022 399.075 173.7 399.179 174.379 399.149Z" fill="#8FB31F"/>
<path d="M174.379 399.149L188.954 398.505C189.633 398.476 190.3 398.314 190.916 398.028C191.532 397.741 192.086 397.337 192.545 396.837C193.004 396.338 193.36 395.753 193.592 395.116C193.824 394.479 193.928 393.802 193.898 393.125V393.125C193.836 391.761 193.232 390.476 192.221 389.555C191.209 388.633 189.872 388.15 188.504 388.211L173.913 388.84C172.546 388.906 171.26 389.509 170.337 390.517C169.413 391.524 168.927 392.855 168.985 394.219V394.219C169.013 394.896 169.176 395.561 169.463 396.175C169.75 396.79 170.155 397.342 170.656 397.8C171.158 398.257 171.744 398.612 172.383 398.844C173.022 399.075 173.7 399.179 174.379 399.149Z" stroke="#3B1D05" stroke-width="2" stroke-miterlimit="10" stroke-linecap="round"/>
<g style="mix-blend-mode:multiply" opacity="0.35">
<path d="M173.913 388.84H174.499C174.2 389.524 174.066 390.268 174.108 391.013C174.137 391.69 174.3 392.355 174.587 392.969C174.874 393.583 175.279 394.135 175.78 394.593C176.281 395.051 176.868 395.406 177.507 395.637C178.146 395.869 178.824 395.973 179.503 395.942L193.507 395.328C193.134 396.23 192.513 397.008 191.716 397.573C190.918 398.138 189.976 398.466 188.999 398.52L174.424 399.164C173.053 399.226 171.714 398.742 170.701 397.818C169.688 396.895 169.084 395.609 169.022 394.242C168.96 392.875 169.446 391.539 170.371 390.529C171.297 389.519 172.587 388.917 173.958 388.855L173.913 388.84Z" fill="#8FB31F"/>
</g>
<path d="M62.0581 262.677C62.0581 262.677 106.851 294.862 130.983 355.726C130.983 355.726 164.597 361.989 187.226 347.35C187.226 347.35 179.473 285.317 222.598 227.869L207.406 214.384L190.141 216.497C190.141 216.497 194.724 237.699 180.93 256.069C173.938 244.29 168.043 231.896 163.32 219.044L125.454 219.793L111.359 241.804C111.359 241.804 116.303 250.24 114.004 270.828C114.004 270.828 98.722 255.559 93.0722 241.25L62.0581 262.677Z" fill="#8FB31F"/>
<path d="M62.0581 262.677C62.0581 262.677 106.851 294.862 130.983 355.726C130.983 355.726 164.597 361.989 187.226 347.35C187.226 347.35 179.473 285.317 222.598 227.869L207.406 214.384L190.141 216.497C190.141 216.497 194.724 237.699 180.93 256.069C173.938 244.29 168.043 231.896 163.32 219.044L125.454 219.793L111.359 241.804C111.359 241.804 116.303 250.24 114.004 270.828C114.004 270.828 98.722 255.559 93.0722 241.25L62.0581 262.677Z" stroke="#3B1D05" stroke-width="2" stroke-linecap="round" stroke-linejoin="round"/>
<g style="mix-blend-mode:multiply" opacity="0.13">
<path d="M222.598 227.809L207.406 214.324L190.141 216.436C190.141 216.436 194.724 237.638 180.93 256.009C174.341 244.893 168.711 233.238 164.101 221.171C157.74 244.955 156.268 269.777 159.773 294.142C161.359 305.354 158.997 316.767 153.089 326.436C147.182 336.105 138.095 343.433 127.377 347.17C128.624 349.957 129.826 352.774 130.983 355.681C130.983 355.681 164.597 361.944 187.226 347.305C187.226 347.29 179.473 285.257 222.598 227.809Z" fill="#A3A3A3"/>
</g>
<g style="mix-blend-mode:multiply" opacity="0.18">
<path d="M222.598 227.809L207.406 214.324L203.875 214.758L212.891 222.7C194.101 247.835 182.191 277.413 178.331 308.527C176.825 320.43 170.986 331.366 161.925 339.258C152.864 347.15 141.211 351.448 129.18 351.336C129.781 352.834 130.382 354.198 130.968 355.666C130.968 355.666 164.582 361.929 187.211 347.29C187.226 347.29 179.473 285.257 222.598 227.809Z" fill="#A3A3A3"/>
</g>
<path d="M76.4682 258.855C76.4682 258.855 81.517 271.292 68.6246 278.709C55.7321 286.126 50.0372 276.881 50.0372 276.881C50.0372 276.881 34.6053 280.462 37.5654 263.725C37.5654 263.725 23.2154 267.786 16.7992 254.091C10.383 240.395 19.4889 236.589 19.4889 236.589C19.4889 236.589 8.54986 240.231 4.9586 230.596C1.36734 220.961 10.6986 217.725 10.6986 217.725C10.6986 217.725 -1.68298 212.481 2.29896 200.973C6.2809 189.465 13.8391 193.076 13.8391 193.076C12.8983 190.579 12.7216 187.859 13.3314 185.261C13.9413 182.663 15.3102 180.304 17.265 178.482C17.265 178.482 9.24106 178.482 9.48148 171.919C9.7219 165.356 14.9811 165.102 14.9811 165.102C14.9811 165.102 8.86541 164.308 10.7737 153.684C12.6821 143.061 20.8713 142.956 20.8713 142.956C19.43 141.061 18.5599 138.797 18.363 136.427C18.1661 134.057 18.6504 131.68 19.7594 129.575C23.6662 122.278 32.7871 125.305 32.7871 125.305C32.7871 125.305 28.8052 118.892 32.0358 114.531C35.2664 110.171 41.5624 114.651 41.5624 114.651C41.5624 114.651 36.1379 105.391 43.9966 97.9293C51.8553 90.4674 59.8192 97.2401 59.8192 97.2401C59.8192 97.2401 55.672 86.8863 66.025 81.9416C76.3781 76.997 82.3886 87.5605 82.3886 87.5605C82.3886 87.5605 80.36 77.3715 90.3524 76.3976C100.345 75.4236 100.014 85.7325 100.014 85.7325C100.014 85.7325 102.013 76.952 110.262 78.2406C118.512 79.5292 117.249 86.9012 117.249 86.9012C117.249 86.9012 120.856 72.7715 132.065 75.4386C143.275 78.1057 137.73 89.9579 137.73 89.9579C137.73 89.9579 142.734 83.6647 147.106 86.6465C151.479 89.6283 146.926 94.8127 146.926 94.8127C146.926 94.8127 152.2 88.5345 157.294 89.883C162.388 91.2315 162.403 92.0407 162.403 92.0407C162.403 92.0407 159.398 84.2641 166.911 81.552C174.424 78.8399 178.03 87.6654 178.03 87.6654C178.03 87.6654 178.466 79.739 187.046 81.9866C195.626 84.2341 193.056 91.741 193.056 91.741C193.056 91.741 198.481 83.0804 206.58 88.2498C214.679 93.4192 208.488 101.615 208.488 101.615C208.488 101.615 216.001 97.1202 219.893 102.424C223.785 107.729 216.602 111.789 216.602 111.789C216.602 111.789 223.89 109.107 222.868 116C221.847 122.892 213.853 122.188 213.853 122.188C213.853 122.188 231.043 122.188 232.079 139.839C232.079 139.839 241.095 133.845 249.645 148.56C258.195 163.274 249.81 170.436 249.81 170.436C249.81 170.436 260.329 173.433 258.541 188.491C256.752 203.55 246.94 201.393 246.94 201.393C246.94 201.393 259.066 206.397 255.295 222.894C251.523 239.391 236.212 233.758 236.212 233.758C236.212 233.758 234.183 241.489 224.191 242.178C214.198 242.868 215.806 228.693 215.806 228.693C215.806 228.693 203.394 237.803 193.177 221.92C193.177 221.92 194.063 230.042 184.161 233.383C174.259 236.724 169.135 227.195 169.135 227.195C169.135 227.195 163.861 233.488 153.282 233.188C142.704 232.888 142.028 223.928 142.028 223.928C142.29 226.179 141.841 228.455 140.745 230.44C139.649 232.424 137.959 234.019 135.912 235.001C128.669 238.477 123.891 236.32 123.891 236.32C123.891 236.32 126.355 244.381 115.431 248.307C104.507 252.233 102.929 246.479 102.929 246.479C102.929 246.479 106.491 255.544 93.7634 260.324C81.0362 265.104 76.4682 258.855 76.4682 258.855Z" fill="#50891E"/>
<g style="mix-blend-mode:multiply" opacity="0.21">
<path d="M132.065 75.3789C131.627 76.0047 131.123 76.5823 130.563 77.102C130.563 77.102 136.017 73.7756 136.287 79.4995C136.513 84.4141 131.78 85.6129 130.397 85.8526C133.226 85.4968 136.1 85.8151 138.782 86.7816C139.623 83.0806 139.638 77.177 132.11 75.3789H132.065Z" fill="#50891E"/>
<path d="M10.0675 227.959C8.32741 228.766 6.46279 229.272 4.55289 229.457C4.65267 229.869 4.77813 230.275 4.92854 230.671C5.64847 232.728 7.03496 234.486 8.86899 235.669C10.703 236.852 12.8801 237.392 15.0562 237.204C12.4867 236.44 10.1877 234.012 10.0675 227.959Z" fill="#50891E"/>
<path d="M258.646 188.417C260.359 173.328 249.916 170.361 249.916 170.361C249.916 170.361 258.315 163.139 249.75 148.485C241.185 133.831 232.185 139.809 232.185 139.809C231.238 123.911 217.158 122.338 214.424 122.173C216.122 122.173 222.072 121.873 222.944 115.97C223.965 109.077 216.678 111.759 216.678 111.759C216.678 111.759 223.905 107.759 219.968 102.394C216.031 97.0303 208.563 101.585 208.563 101.585C208.563 101.585 214.814 93.4042 206.655 88.2198C198.496 83.0354 193.056 91.711 193.056 91.711C193.056 91.711 195.641 84.2191 187.046 81.9566C178.451 79.694 178.03 87.6354 178.03 87.6354C178.03 87.6354 174.469 78.825 166.911 81.5221C159.608 84.1442 162.163 91.4863 162.403 92.0107C162.313 91.8159 161.682 91.0667 157.309 89.898C152.215 88.5495 146.941 94.8277 146.941 94.8277C146.941 94.8277 151.449 89.6283 147.121 86.6615C144.717 85.0283 142.148 86.182 140.299 87.5605C142.138 88.578 143.734 89.981 144.977 91.6727C146.219 93.3645 147.079 95.3048 147.497 97.3599C147.497 97.3599 153.808 91.1566 163.049 101.63C172.29 112.104 166.64 119.251 166.64 119.251C166.64 119.251 175.536 120 176.543 132.452C177.549 144.904 169.24 144.694 169.24 144.694C169.24 144.694 179.758 146.821 179.383 160.726C179.007 174.631 165.709 172.489 165.709 172.489C165.709 172.489 165.288 179.052 157.309 181.194C149.33 183.337 148.414 171.65 148.414 171.65C148.414 171.65 139.834 180.955 129.075 169.747C129.075 169.747 131.073 176.16 123.62 180.415C116.167 184.671 110.473 177.793 110.473 177.793C109.139 179.79 107.39 181.476 105.344 182.738C103.298 184 101.004 184.807 98.6169 185.105C90.668 186.394 88.4141 180.415 88.0985 179.516C88.6235 181.271 88.5983 183.145 88.0263 184.885C87.4543 186.626 86.3628 188.151 84.8979 189.256C79.5937 193.196 75.3413 192.252 75.3413 192.252C75.3413 192.252 78.602 198.366 70.4127 203.235C62.8996 207.731 60.4353 204.404 60.0747 203.82C60.5405 204.629 63.726 210.877 54.8155 216.346C45.3039 222.22 40.6909 217.98 40.6909 217.98C42.3562 220.734 42.9531 224.001 42.3691 227.164C41.785 230.328 40.0603 233.169 37.5204 235.151C28.2943 243.167 22.2387 236.649 22.2387 236.649C20.8625 237.22 19.3993 237.555 17.9112 237.638C15.6422 239.496 12.1712 244.246 16.8143 254.121C23.2154 267.786 37.5204 263.725 37.5204 263.725C34.5151 280.462 49.9921 276.881 49.9921 276.881C49.9921 276.881 55.687 286.126 68.5795 278.709C81.472 271.292 76.4232 258.855 76.4232 258.855C76.4232 258.855 80.931 264.984 93.6732 260.219C105.559 255.724 103.245 247.573 102.884 246.494C103.17 247.273 105.319 251.783 115.341 248.202C126.265 244.291 123.801 236.215 123.801 236.215C123.801 236.215 128.654 238.373 135.822 234.896C137.854 233.936 139.537 232.368 140.635 230.41C141.734 228.453 142.194 226.203 141.952 223.973C142.103 225.112 143.38 232.784 153.192 233.083C163.71 233.413 169.045 227.09 169.045 227.09C169.045 227.09 174.229 236.604 184.071 233.278C193.913 229.952 193.087 221.815 193.087 221.815C203.304 237.698 215.716 228.588 215.716 228.588C215.716 228.588 214.093 242.763 224.101 242.074C234.108 241.384 236.121 233.653 236.121 233.653C236.121 233.653 251.433 239.302 255.205 222.789C258.976 206.277 246.85 201.288 246.85 201.288C246.85 201.288 256.903 203.52 258.646 188.417Z" fill="#50891E"/>
</g>
<path d="M76.4682 258.855C76.4682 258.855 81.517 271.292 68.6246 278.709C55.7321 286.126 50.0372 276.881 50.0372 276.881C50.0372 276.881 34.6053 280.462 37.5654 263.725C37.5654 263.725 23.2154 267.786 16.7992 254.091C10.383 240.395 19.4889 236.589 19.4889 236.589C19.4889 236.589 8.54986 240.231 4.9586 230.596C1.36734 220.961 10.6986 217.725 10.6986 217.725C10.6986 217.725 -1.68298 212.481 2.29896 200.973C6.2809 189.465 13.8391 193.076 13.8391 193.076C12.8983 190.579 12.7216 187.859 13.3314 185.261C13.9413 182.663 15.3102 180.304 17.265 178.482C17.265 178.482 9.24106 178.482 9.48148 171.919C9.7219 165.356 14.9811 165.102 14.9811 165.102C14.9811 165.102 8.86541 164.308 10.7737 153.684C12.6821 143.061 20.8713 142.956 20.8713 142.956C19.43 141.061 18.5599 138.797 18.363 136.427C18.1661 134.057 18.6504 131.68 19.7594 129.575C23.6662 122.278 32.7871 125.305 32.7871 125.305C32.7871 125.305 28.8052 118.892 32.0358 114.531C35.2664 110.171 41.5624 114.651 41.5624 114.651C41.5624 114.651 36.1379 105.391 43.9966 97.9293C51.8553 90.4674 59.8192 97.2401 59.8192 97.2401C59.8192 97.2401 55.672 86.8863 66.025 81.9416C76.3781 76.997 82.3886 87.5605 82.3886 87.5605C82.3886 87.5605 80.36 77.3715 90.3524 76.3976C100.345 75.4236 100.014 85.7325 100.014 85.7325C100.014 85.7325 102.013 76.952 110.262 78.2406C118.512 79.5292 117.249 86.9012 117.249 86.9012C117.249 86.9012 120.856 72.7715 132.065 75.4386C143.275 78.1057 137.73 89.9579 137.73 89.9579C137.73 89.9579 142.734 83.6647 147.106 86.6465C151.479 89.6283 146.926 94.8127 146.926 94.8127C146.926 94.8127 152.2 88.5345 157.294 89.883C162.388 91.2315 162.403 92.0407 162.403 92.0407C162.403 92.0407 159.398 84.2641 166.911 81.552C174.424 78.8399 178.03 87.6654 178.03 87.6654C178.03 87.6654 178.466 79.739 187.046 81.9866C195.626 84.2341 193.056 91.741 193.056 91.741C193.056 91.741 198.481 83.0804 206.58 88.2498C214.679 93.4192 208.488 101.615 208.488 101.615C208.488 101.615 216.001 97.1202 219.893 102.424C223.785 107.729 216.602 111.789 216.602 111.789C216.602 111.789 223.89 109.107 222.868 116C221.847 122.892 213.853 122.188 213.853 122.188C213.853 122.188 231.043 122.188 232.079 139.839C232.079 139.839 241.095 133.845 249.645 148.56C258.195 163.274 249.81 170.436 249.81 170.436C249.81 170.436 260.329 173.433 258.541 188.491C256.752 203.55 246.94 201.393 246.94 201.393C246.94 201.393 259.066 206.397 255.295 222.894C251.523 239.391 236.212 233.758 236.212 233.758C236.212 233.758 234.183 241.489 224.191 242.178C214.198 242.868 215.806 228.693 215.806 228.693C215.806 228.693 203.394 237.803 193.177 221.92C193.177 221.92 194.063 230.042 184.161 233.383C174.259 236.724 169.135 227.195 169.135 227.195C169.135 227.195 163.861 233.488 153.282 233.188C142.704 232.888 142.028 223.928 142.028 223.928C142.29 226.179 141.841 228.455 140.745 230.44C139.649 232.424 137.959 234.019 135.912 235.001C128.669 238.477 123.891 236.32 123.891 236.32C123.891 236.32 126.355 244.381 115.431 248.307C104.507 252.233 102.929 246.479 102.929 246.479C102.929 246.479 106.491 255.544 93.7634 260.324C81.0362 265.104 76.4682 258.855 76.4682 258.855Z" stroke="#3B1D05" stroke-width="2" stroke-linecap="round" stroke-linejoin="round"/>
<g style="mix-blend-mode:multiply" opacity="0.28">
<path d="M258.646 188.417C260.359 173.328 249.916 170.361 249.916 170.361C249.916 170.361 258.315 163.139 249.75 148.485C241.185 133.831 232.185 139.809 232.185 139.809C231.238 123.911 217.158 122.338 214.424 122.173C216.122 122.173 222.072 121.873 222.944 115.97C223.965 109.077 216.678 111.759 216.678 111.759C216.678 111.759 223.905 107.759 219.968 102.394C216.031 97.0303 208.563 101.585 208.563 101.585C208.563 101.585 214.814 93.4042 206.655 88.2198C198.496 83.0354 193.056 91.711 193.056 91.711C193.056 91.711 195.641 84.2191 187.046 81.9566C178.451 79.694 178.03 87.6354 178.03 87.6354C178.03 87.6354 174.469 78.825 166.911 81.5221C166.22 81.7784 165.56 82.1101 164.942 82.511C165.388 82.7171 165.82 82.9524 166.235 83.2152C173.237 87.7104 167.873 94.6928 167.873 94.6928C167.873 94.6928 174.289 90.797 177.67 95.3971C181.051 99.9971 174.845 103.443 174.845 103.443C174.845 103.443 181.096 101.136 180.224 107.054C179.473 112.134 174.364 112.419 172.906 112.389C175.25 112.524 187.362 113.887 188.158 127.537C188.158 127.537 195.881 122.458 203.259 135.029C210.637 147.601 203.394 153.819 203.394 153.819C203.394 153.819 212.41 156.381 210.908 169.342C209.405 182.303 200.96 180.43 200.96 180.43C200.96 180.43 211.358 184.731 208.128 198.905C204.897 213.08 191.734 208.225 191.734 208.225C191.734 208.225 189.976 214.878 181.381 215.477C172.786 216.077 174.169 203.895 174.169 203.895C174.169 203.895 163.5 211.731 154.725 198.066C154.725 198.066 155.491 205.064 146.986 207.925C138.481 210.787 134.034 202.606 134.034 202.606C132.265 204.388 130.132 205.767 127.78 206.652C125.428 207.536 122.912 207.904 120.405 207.731C111.99 207.461 110.878 200.883 110.758 199.909C110.965 201.825 110.568 203.758 109.623 205.439C108.678 207.12 107.231 208.466 105.484 209.289C99.263 212.286 95.1007 210.428 95.1007 210.428C95.1007 210.428 97.2194 217.35 87.828 220.707C79.203 223.778 77.3097 219.897 77.1144 219.208C77.4299 220.122 79.4284 227.165 69.2106 231C58.2565 235.106 54.3948 229.832 54.3948 229.832C55.5651 233.004 55.5243 236.495 54.2802 239.64C53.036 242.784 50.6754 245.362 47.648 246.883C36.5737 253.266 31.6902 245.385 31.6902 245.385C31.6902 245.385 18.4221 248.382 20.9765 234.072C20.9765 234.072 10.0224 237.159 4.14719 227.689C4.26799 228.714 4.51528 229.721 4.88347 230.686C8.47473 240.29 19.4138 236.679 19.4138 236.679C19.4138 236.679 10.3981 240.5 16.7542 254.18C23.1102 267.861 37.5204 263.725 37.5204 263.725C34.5151 280.462 49.9921 276.881 49.9921 276.881C49.9921 276.881 55.687 286.126 68.5795 278.709C81.472 271.292 76.4232 258.855 76.4232 258.855C76.4232 258.855 80.931 264.984 93.6732 260.219C105.559 255.724 103.245 247.573 102.884 246.494C103.17 247.273 105.319 251.783 115.341 248.202C126.265 244.291 123.801 236.215 123.801 236.215C123.801 236.215 128.654 238.373 135.822 234.896C137.854 233.936 139.537 232.368 140.635 230.41C141.734 228.453 142.194 226.203 141.952 223.973C142.103 225.112 143.38 232.784 153.192 233.083C163.71 233.413 169.045 227.09 169.045 227.09C169.045 227.09 174.229 236.604 184.071 233.278C193.913 229.952 193.086 221.815 193.086 221.815C203.304 237.698 215.716 228.588 215.716 228.588C215.716 228.588 214.093 242.763 224.101 242.074C234.108 241.384 236.122 233.653 236.122 233.653C236.122 233.653 251.433 239.302 255.205 222.789C258.976 206.277 246.85 201.288 246.85 201.288C246.85 201.288 256.903 203.52 258.646 188.417Z" fill="#50891E"/>
<path d="M3.6363 211.986C4.16438 211.453 4.77909 211.012 5.45447 210.683C4.68958 210.914 3.90488 211.075 3.11038 211.162C3.27567 211.447 3.45599 211.732 3.6363 211.986Z" fill="#50891E"/>
</g>
<g style="mix-blend-mode:screen" opacity="0.3">
<path d="M69.5261 92.9546C60.871 101.331 64.0716 105.691 57.1145 106.994C50.1574 108.298 48.0988 107.893 47.5578 117.918C47.0169 127.942 40.0447 118.247 39.8795 125.754C39.7142 133.261 29.9622 128.182 28.9554 139.24C27.9487 150.298 31.4798 151.137 24.7631 157.924C18.0464 164.712 18.6324 166.69 22.6144 177.523C26.5963 188.357 17.6106 189.241 20.6009 200.104C23.5911 210.967 17.3251 216.751 20.6009 223.104C23.8766 229.457 41.322 215.912 48.3392 192.897C50.9688 184.281 46.9267 183.457 58.2565 178.962C69.5862 174.467 66.4908 175.156 66.9416 162.644C67.3924 150.133 94.6349 158.539 99.9992 150.882C128.85 110.246 106.536 115.85 108.579 105.256C110.623 94.6627 112.832 88.0699 105.349 88.894C97.8655 89.7181 92.3509 100.971 88.8198 100.132C85.2886 99.2927 78.1812 84.5786 69.5261 92.9546Z" fill="#50891E"/>
</g>
<path d="M76.4682 258.856C76.4682 258.856 64.4473 263.351 54.1243 249.566C43.8013 235.78 60.4053 224.243 60.4053 224.243C60.4053 224.243 46.1003 217.231 53.5233 205.843C60.9462 194.455 70.4127 199.295 70.4127 199.295C70.4127 199.295 58.2715 187.712 70.8334 178.992C83.3953 170.271 91.4494 184.671 91.4494 184.671" stroke="#3B1D05" stroke-width="2" stroke-linecap="round" stroke-linejoin="round"/>
<path d="M96.6484 218.714C96.6484 218.714 89.526 213.23 94.4696 205.363C99.4132 197.497 108.955 204.195 108.955 204.195C108.955 204.195 103.425 192.582 112.711 187.713C121.998 182.843 128.369 194.935 128.369 194.935C128.369 194.935 133.027 186.829 140.6 190.709C148.173 194.59 146.13 202.067 143.019 203.52" stroke="#3B1D05" stroke-width="2" stroke-linecap="round" stroke-linejoin="round"/>
<path d="M15.8225 179.861C15.8225 179.861 23.3356 170.181 33.6586 178.018" stroke="#3B1D05" stroke-width="2" stroke-linecap="round" stroke-linejoin="round"/>
<path d="M42.6593 199.205C42.6593 199.205 28.5647 191.114 32.6218 181.224C36.6789 171.335 50.2325 173.073 50.2325 173.073C50.2325 173.073 33.7037 169.312 36.7089 158.644C39.7142 147.975 50.2325 153.04 50.2325 153.04C50.2325 153.04 40.7359 147.391 48.2791 138.64C55.8222 129.89 63.155 140.618 63.155 140.618C63.155 140.618 60.7809 128.631 69.4209 126.908C78.061 125.185 79.5336 134.4 78.8123 135.973C78.8123 135.973 86.1451 128.272 93.2374 133.501C100.33 138.73 95.1458 146.852 95.1458 146.852" stroke="#3B1D05" stroke-width="2" stroke-linecap="round" stroke-linejoin="round"/>
<path d="M109.917 166.211C109.917 166.211 101.908 158.119 109.255 151.227C116.603 144.334 124.357 151.886 124.357 151.886C124.357 151.886 116.678 139.57 126.791 135.179C136.904 130.789 140.315 140.379 140.315 140.379C140.315 140.379 139.939 125.904 153.643 125.035C167.347 124.166 167.166 137.367 167.166 137.367C167.166 137.367 170.517 129.306 178.827 132.108C187.136 134.91 185.979 144.454 181.622 147.541" stroke="#3B1D05" stroke-width="2" stroke-linecap="round" stroke-linejoin="round"/>
<path d="M141.502 121.079C141.502 121.079 136.002 116.314 142.523 108.373C149.045 100.432 156.453 112.508 156.453 112.508C156.453 112.508 154.033 99.4426 163.169 96.9403C172.305 94.438 176.002 100.327 175.746 106.665C175.746 106.665 177.429 96.5657 185.769 100.162C194.108 103.758 188.173 112.703 188.173 112.703" stroke="#3B1D05" stroke-width="2" stroke-linecap="round" stroke-linejoin="round"/>
<path d="M168.338 190.529C168.338 190.529 164.341 177.793 175.851 174.392C187.361 170.99 190.487 182.453 189.826 185.645C189.826 185.645 190.817 171.889 201.486 174.317C212.155 176.744 210.141 190.544 200.479 193.346" stroke="#3B1D05" stroke-width="2" stroke-linecap="round" stroke-linejoin="round"/>
<path d="M114.004 270.828L132.591 295.686" stroke="#3B1D05" stroke-width="2" stroke-linecap="round" stroke-linejoin="round"/>
<path d="M180.93 256.053C176.164 265.917 172.602 276.315 170.322 287.025" stroke="#3B1D05" stroke-width="2" stroke-linecap="round" stroke-linejoin="round"/>
<g style="mix-blend-mode:screen" opacity="0.32">
<path d="M90.112 269.794C89.3413 269.261 88.4619 268.906 87.5369 268.753C86.6119 268.6 85.6644 268.654 84.7627 268.91C83.9111 269.126 83.1605 269.629 82.6376 270.333C82.1147 271.037 81.8516 271.9 81.8927 272.776C81.7574 278.02 100.675 289.258 111.66 308.212C122.644 327.167 126.325 333.82 126.686 324.799C127.046 315.779 121.261 290.681 90.112 269.794Z" fill="#8FB31F"/>
</g>
<path d="M125.228 310.789C129.886 307.463 136.889 307.298 141.216 311.314C141.512 311.569 141.697 311.93 141.731 312.319C141.764 312.708 141.644 313.094 141.396 313.397C141.201 313.628 140.94 313.794 140.647 313.874C140.355 313.954 140.045 313.945 139.759 313.846C138.567 313.55 137.349 313.374 136.122 313.322C132.211 313.074 128.343 314.256 125.243 316.648C126.279 314.747 127.845 313.186 129.751 312.153C133.107 310.429 136.991 310.028 140.63 311.029L139.127 313.561C135.341 310.085 130.112 310.04 125.183 310.834L125.228 310.789Z" fill="#3B1D05"/>
<path d="M181.486 306.384C176.452 306.384 171.329 307.238 168.128 311.254L166.31 308.976C169.752 307.434 173.646 307.226 177.234 308.392C179.281 309.137 181.07 310.452 182.388 312.183C180.123 310.987 177.615 310.319 175.054 310.231C172.492 310.143 169.944 310.636 167.602 311.673C167.421 311.767 167.222 311.822 167.018 311.836C166.815 311.85 166.61 311.822 166.418 311.755C166.225 311.688 166.048 311.582 165.898 311.444C165.748 311.307 165.627 311.14 165.543 310.954C165.446 310.706 165.417 310.436 165.459 310.172C165.502 309.909 165.614 309.662 165.784 309.456C166.724 308.286 167.882 307.309 169.195 306.579C171.087 305.59 173.188 305.062 175.324 305.038C177.461 305.015 179.572 305.497 181.486 306.444V306.384Z" fill="#3B1D05"/>
<path opacity="0.42" d="M138.316 317.847C138.406 318.97 135.987 320.064 132.907 320.304C129.826 320.544 127.257 319.839 127.167 318.806C127.076 317.772 129.511 316.588 132.591 316.348C135.671 316.109 138.196 316.738 138.316 317.847Z" fill="#FF8296"/>
<path opacity="0.42" d="M180.179 314.58C180.254 315.704 177.835 316.798 174.755 317.038C171.674 317.277 169.105 316.573 169.015 315.449C168.924 314.326 171.359 313.247 174.439 313.007C177.519 312.767 180.089 313.472 180.179 314.58Z" fill="#FF8296"/>
<path d="M144.597 316.618C144.025 317.676 143.779 318.878 143.888 320.074C143.998 321.271 144.459 322.409 145.213 323.346C147.873 326.552 153.207 323.795 153.327 320.978C153.327 320.978 156.332 325.339 160.915 323.316C165.498 321.293 161.997 315.434 161.096 315.165" stroke="#3B1D05" stroke-width="2" stroke-linecap="round" stroke-linejoin="round"/>
<path d="M315.835 351.755V388.151H322.221V349.942L315.835 351.755Z" fill="#5E2E08"/>
<g style="mix-blend-mode:multiply" opacity="0.33">
<path d="M319.216 350.796V388.151H322.222V349.942L319.216 350.796Z" fill="#5E2E08"/>
</g>
<path d="M315.835 351.755V388.151H322.221V349.942L315.835 351.755Z" stroke="#3B1D05" stroke-width="2" stroke-miterlimit="10" stroke-linecap="round"/>
<path d="M320.403 397.845H305.813C304.442 397.845 303.127 397.302 302.158 396.336C301.189 395.369 300.644 394.058 300.644 392.691V392.691C300.644 391.324 301.189 390.013 302.158 389.046C303.127 388.079 304.442 387.536 305.813 387.536H320.403C321.774 387.536 323.089 388.079 324.058 389.046C325.028 390.013 325.572 391.324 325.572 392.691V392.691C325.572 394.058 325.028 395.369 324.058 396.336C323.089 397.302 321.774 397.845 320.403 397.845Z" fill="#06CDAE"/>
<path d="M320.403 397.845H305.813C304.442 397.845 303.127 397.302 302.158 396.336C301.189 395.369 300.644 394.058 300.644 392.691V392.691C300.644 391.324 301.189 390.013 302.158 389.046C303.127 388.079 304.442 387.536 305.813 387.536H320.403C321.774 387.536 323.089 388.079 324.058 389.046C325.028 390.013 325.572 391.324 325.572 392.691V392.691C325.572 394.058 325.028 395.369 324.058 396.336C323.089 397.302 321.774 397.845 320.403 397.845Z" stroke="#3B1D05" stroke-width="2" stroke-miterlimit="10" stroke-linecap="round"/>
<g style="mix-blend-mode:multiply" opacity="0.35">
<path d="M320.403 387.536H319.832C320.199 388.321 320.362 389.185 320.304 390.049C320.247 390.913 319.972 391.748 319.504 392.477C319.036 393.207 318.391 393.807 317.629 394.221C316.867 394.636 316.012 394.851 315.144 394.848H301.125C301.538 395.742 302.199 396.499 303.03 397.03C303.86 397.561 304.826 397.844 305.813 397.845H320.403C321.774 397.845 323.089 397.302 324.058 396.336C325.028 395.369 325.572 394.058 325.572 392.691C325.572 391.324 325.028 390.013 324.058 389.046C323.089 388.079 321.774 387.536 320.403 387.536Z" fill="#A3A3A3"/>
</g>
<path d="M353.371 351.755V388.151H346.985V349.942L353.371 351.755Z" fill="#5E2E08"/>
<g style="mix-blend-mode:multiply" opacity="0.33">
<path d="M349.99 350.796V388.151H346.985V349.942L349.99 350.796Z" fill="#5E2E08"/>
</g>
<path d="M353.371 351.755V388.151H346.985V349.942L353.371 351.755Z" stroke="#3B1D05" stroke-width="2" stroke-miterlimit="10" stroke-linecap="round"/>
<path d="M348.818 397.845H363.423C364.794 397.845 366.109 397.302 367.078 396.336C368.048 395.369 368.592 394.058 368.592 392.691C368.592 391.324 368.048 390.013 367.078 389.046C366.109 388.079 364.794 387.536 363.423 387.536H348.818C347.447 387.536 346.132 388.079 345.163 389.046C344.193 390.013 343.649 391.324 343.649 392.691C343.649 394.058 344.193 395.369 345.163 396.336C346.132 397.302 347.447 397.845 348.818 397.845Z" fill="#06CDAE"/>
<path d="M348.818 397.845H363.423C364.794 397.845 366.109 397.302 367.078 396.336C368.048 395.369 368.592 394.058 368.592 392.691C368.592 391.324 368.048 390.013 367.078 389.046C366.109 388.079 364.794 387.536 363.423 387.536H348.818C347.447 387.536 346.132 388.079 345.163 389.046C344.193 390.013 343.649 391.324 343.649 392.691C343.649 394.058 344.193 395.369 345.163 396.336C346.132 397.302 347.447 397.845 348.818 397.845Z" stroke="#3B1D05" stroke-width="2" stroke-miterlimit="10" stroke-linecap="round"/>
<g style="mix-blend-mode:multiply" opacity="0.35">
<path d="M348.818 387.536H349.404C349.078 388.209 348.908 388.947 348.908 389.694C348.908 391.061 349.453 392.372 350.422 393.339C351.391 394.305 352.706 394.848 354.077 394.848H368.097C367.686 395.741 367.028 396.497 366.2 397.029C365.371 397.56 364.408 397.843 363.423 397.845H348.818C347.447 397.845 346.132 397.302 345.163 396.336C344.193 395.369 343.649 394.058 343.649 392.691C343.649 391.324 344.193 390.013 345.163 389.046C346.132 388.079 347.447 387.536 348.818 387.536V387.536Z" fill="#A3A3A3"/>
</g>
<path d="M332.259 356.909C395.072 356.909 445.992 306.133 445.992 243.497C445.992 180.861 395.072 130.084 332.259 130.084C269.446 130.084 218.526 180.861 218.526 243.497C218.526 306.133 269.446 356.909 332.259 356.909Z" fill="#06CDAE"/>
<g style="mix-blend-mode:multiply" opacity="0.18">
<path d="M390.125 145.803C401.999 167.604 406.377 192.687 402.589 217.207C398.801 241.727 387.055 264.332 369.152 281.559C351.248 298.787 328.175 309.685 303.466 312.586C278.757 315.487 253.776 310.229 232.35 297.619C240.715 312.977 252.525 326.2 266.86 336.256C281.195 346.312 297.667 352.929 314.989 355.59C332.311 358.251 350.016 356.884 366.721 351.597C383.427 346.309 398.681 337.244 411.293 325.108C423.905 312.972 433.534 298.094 439.429 281.635C445.324 265.176 447.325 247.581 445.276 230.224C443.227 212.866 437.183 196.216 427.616 181.572C418.05 166.928 405.219 154.686 390.125 145.803V145.803Z" fill="#A3A3A3"/>
</g>
<path d="M219.187 231.36C223.545 240.35 232.906 240.485 241.636 237.354C253.807 233.113 266.58 239.781 262.928 253.132C259.277 266.482 248.142 264.639 256.046 270.093C263.95 275.547 242.733 283.938 250.036 291.82C257.339 299.701 265.768 282.155 268.819 301.559C271.869 320.963 283.845 324.035 282.342 312.422C280.839 300.81 278.796 294.547 286.099 285.452C293.401 276.356 302.252 282.455 301.876 271.217C301.44 258.286 280.569 271.921 274.483 262.826C268.398 253.731 277.489 246.449 287.872 240.995C298.255 235.541 296.377 228.873 291.508 225.831C286.64 222.789 289.69 208.854 299.427 206.427C309.164 204 315.234 199.759 307.932 196.118C300.629 192.477 297.594 191.878 298.811 185.809C299.053 184.346 298.964 182.846 298.548 181.422C298.133 179.997 297.402 178.684 296.41 177.578C295.418 176.473 294.19 175.603 292.816 175.033C291.443 174.464 289.958 174.209 288.473 174.287C282.462 174.886 281.17 171.29 279.352 165.192C277.534 159.093 268.398 162.764 262.327 164.577C259.006 165.566 255.716 163.693 253.311 161.76C234.073 180.23 221.989 204.877 219.187 231.36V231.36Z" fill="#8FB31F" stroke="#3B1D05" stroke-width="2" stroke-miterlimit="10"/>
<path d="M412.905 163.529C407.54 163.169 398.765 163.439 394.302 168.293C387.616 175.576 390.651 178.602 379.697 171.934C368.743 165.267 367.541 167.694 369.359 160.412C371.177 153.13 362.071 155.557 355.985 167.08C349.9 178.602 343.814 172.534 341.38 181.03C338.946 189.525 323.754 191.953 331.658 201.048C339.562 210.143 343.213 184.671 351.117 191.338C359.021 198.006 354.122 205.903 366.323 211.956C378.525 218.01 361.455 233.188 354.768 224.692C348.082 216.197 332.875 231.975 343.814 239.856C354.753 247.738 346.819 256.233 353.551 264.729C360.283 273.225 363.288 257.447 371.192 258.046C379.096 258.646 390.035 261.043 386.398 270.183C382.762 279.323 382.747 284.133 390.035 292.659C397.322 301.185 393.04 309.021 400.388 310.849C407.736 312.677 401.59 299.327 411.327 292.045C421.064 284.763 420.448 273.24 420.448 259.904C420.448 246.569 430.185 258.691 430.185 238.073C430.185 220.991 438.524 234.687 445.211 230.236C442.259 205.014 430.879 181.517 412.905 163.529V163.529Z" fill="#8FB31F" stroke="#3B1D05" stroke-width="2" stroke-miterlimit="10"/>
<path d="M389.434 119.176V89.2088C389.434 89.2088 403.123 86.4818 407.675 67.0777C412.228 47.6737 400.388 36.4508 388.517 32.1954C376.646 27.94 362.672 33.4091 359.021 48.5727C359.021 48.5727 363.889 20.3732 330.741 9.15034C297.594 -2.07253 269.014 25.4677 265.918 43.3584C265.918 43.3584 243.124 41.2456 233.387 62.163C223.65 83.0804 245.858 101.585 267.451 96.1313L266.534 121.604C266.534 121.604 356.586 157.385 389.434 119.176Z" fill="#FFF5E3"/>
<path d="M389.434 119.176V89.2088C389.434 89.2088 403.123 86.4818 407.675 67.0777C412.228 47.6737 400.388 36.4508 388.517 32.1954C376.646 27.94 362.672 33.4091 359.021 48.5727C359.021 48.5727 363.889 20.3732 330.741 9.15034C297.594 -2.07253 269.014 25.4677 265.918 43.3584C265.918 43.3584 243.124 41.2456 233.387 62.163C223.65 83.0804 245.858 101.585 267.451 96.1313L266.534 121.604C266.534 121.604 356.586 157.385 389.434 119.176Z" stroke="#3B1D05" stroke-width="2" stroke-miterlimit="10" stroke-linecap="round"/>
<g style="mix-blend-mode:multiply" opacity="0.64">
<g style="mix-blend-mode:multiply" opacity="0.44">
<path d="M388.517 32.1356C383.802 30.4302 378.657 30.3092 373.866 31.791C374.242 31.9109 374.618 32.0008 374.993 32.1356C386.864 36.391 398.72 47.6139 394.152 67.0179C389.584 86.4219 375.91 89.149 375.91 89.149L374.407 122.952C364.28 134.73 350.275 135.689 333.611 136.618C355.099 137.726 376.646 134.085 389.464 119.177V89.2089C389.464 89.2089 403.153 86.4819 407.705 67.0779C412.258 47.6738 400.388 36.421 388.517 32.1356Z" fill="#FFE2B0"/>
</g>
<path d="M253.973 96.1313L252.936 96.3411L253.957 96.5509L253.973 96.1313Z" fill="#FFE2B0"/>
</g>
<path d="M267.496 96.1312C267.496 96.1312 316.151 85.208 335.61 75.4985" stroke="#3B1D05" stroke-width="2" stroke-miterlimit="10" stroke-linecap="round"/>
<path d="M389.434 89.149C389.434 89.149 368.142 90.6473 351.718 84.6538" stroke="#3B1D05" stroke-width="2" stroke-miterlimit="10" stroke-linecap="round"/>
<path d="M265.918 43.3584C273.031 44.1518 279.788 46.8782 285.453 51.2399" stroke="#3B1D05" stroke-width="2" stroke-miterlimit="10" stroke-linecap="round"/>
<path d="M292.034 95.6069V111.969" stroke="#3B1D05" stroke-width="2" stroke-miterlimit="10" stroke-linecap="round"/>
<path d="M315.986 95.6069V111.969" stroke="#3B1D05" stroke-width="2" stroke-miterlimit="10" stroke-linecap="round"/>
<path d="M339.937 95.6069V111.969" stroke="#3B1D05" stroke-width="2" stroke-miterlimit="10" stroke-linecap="round"/>
<path d="M363.889 95.6069V111.969" stroke="#3B1D05" stroke-width="2" stroke-miterlimit="10" stroke-linecap="round"/>
<g style="mix-blend-mode:multiply" opacity="0.35">
<path d="M413.265 163.918C424.942 188.121 427.627 215.671 420.84 241.663C414.053 267.655 398.236 290.402 376.205 305.853C354.174 321.304 327.358 328.457 300.533 326.038C273.708 323.619 248.614 311.786 229.72 292.644C236.872 307.489 247.181 320.603 259.929 331.074C272.678 341.545 287.561 349.122 303.543 353.277C319.524 357.432 336.222 358.067 352.475 355.136C368.728 352.205 384.145 345.78 397.656 336.307C411.166 326.834 422.446 314.54 430.71 300.28C438.974 286.02 444.024 270.137 445.51 253.734C446.995 237.331 444.88 220.802 439.312 205.297C433.743 189.792 424.855 175.682 413.265 163.948V163.918Z" fill="#A3A3A3"/>
</g>
<path d="M332.259 356.909C395.072 356.909 445.992 306.133 445.992 243.497C445.992 180.861 395.072 130.084 332.259 130.084C269.446 130.084 218.526 180.861 218.526 243.497C218.526 306.133 269.446 356.909 332.259 356.909Z" stroke="#3B1D05" stroke-width="2" stroke-miterlimit="10" stroke-linecap="round"/>
<path d="M266.58 151.317V121.589C266.58 121.589 277.834 111.595 308.848 120.69C339.862 129.785 375.745 126.444 389.434 119.191V145.803C389.434 145.803 364.235 172.774 266.58 151.317Z" fill="#FFF5E3"/>
<g style="mix-blend-mode:multiply" opacity="0.39">
<path d="M388.517 32.1357C385.299 30.9428 381.85 30.5021 378.435 30.8476C375.02 31.1931 371.73 32.3156 368.818 34.1285C369.939 39.044 369.867 44.1553 368.607 49.0374C364.1 68.5164 350.336 84.7438 350.336 84.7438V101.226C350.327 110.802 346.829 120.049 340.494 127.246C334.158 134.443 325.417 139.099 315.895 140.349C303.664 141.967 287.511 142.342 266.549 139.974V151.347C364.235 172.774 389.434 145.803 389.434 145.803V89.1491C389.434 89.1491 403.123 86.422 407.675 67.018C412.228 47.6139 400.388 36.421 388.517 32.1357Z" fill="#FFE2B0"/>
</g>
<path d="M266.58 151.317V121.589C266.58 121.589 277.834 111.595 308.848 120.69C339.862 129.785 375.745 126.444 389.434 119.191V145.803C389.434 145.803 364.235 172.774 266.58 151.317Z" stroke="#3B1D05" stroke-width="2" stroke-miterlimit="10" stroke-linecap="round"/>
<g style="mix-blend-mode:multiply" opacity="0.43">
<path d="M374.107 124.016C371.45 130.46 367.132 136.09 361.591 140.335C356.049 144.579 349.481 147.287 342.552 148.185C325.572 150.432 301.065 150.283 266.535 143.69V151.272C364.235 172.773 389.434 145.802 389.434 145.802V119.176C384.581 121.506 379.42 123.136 374.107 124.016Z" fill="#FFE2B0"/>
</g>
<g style="mix-blend-mode:screen" opacity="0.28">
<path d="M278.916 155.003C278.894 154.339 278.677 153.696 278.291 153.154C277.905 152.612 277.368 152.195 276.747 151.956C276.125 151.716 275.447 151.664 274.796 151.806C274.145 151.949 273.55 152.278 273.086 152.755C261.065 165.072 230.201 199.55 226.4 231.78C223.109 259.739 238.781 282.275 248.593 293.378C249.07 293.925 249.709 294.305 250.418 294.462C251.127 294.62 251.868 294.546 252.532 294.253C253.196 293.96 253.748 293.462 254.108 292.832C254.467 292.203 254.615 291.475 254.529 290.756C252.395 273.165 250.426 235.795 264.867 204.539C276.993 178.287 279.096 162.929 278.916 155.003Z" fill="white"/>
</g>
<path d="M301.741 298.308C307.421 295.101 315.355 295.536 319.908 300.51C320.178 300.79 320.33 301.163 320.33 301.552C320.33 301.94 320.178 302.314 319.908 302.593C319.713 302.783 319.471 302.917 319.206 302.98C318.941 303.044 318.665 303.034 318.405 302.953C315.605 302.001 312.635 301.649 309.69 301.919C306.649 302.231 303.738 303.308 301.23 305.05C302.15 303.691 303.323 302.521 304.686 301.604C306.855 300.251 309.306 299.413 311.852 299.153C314.397 298.893 316.968 299.219 319.367 300.106L317.729 302.518C313.657 298.158 307.541 297.633 301.756 298.293L301.741 298.308Z" fill="#3B1D05"/>
<path d="M366.879 298.308C361.094 297.649 354.979 298.173 350.906 302.533L349.269 300.136C353.322 298.697 357.764 298.787 361.755 300.391C364.038 301.388 365.991 303.009 367.39 305.066C364.916 303.404 362.085 302.345 359.126 301.973C356.167 301.601 353.161 301.926 350.351 302.923C350.162 303.005 349.958 303.047 349.753 303.047C349.547 303.047 349.344 303.005 349.155 302.924C348.966 302.842 348.796 302.723 348.655 302.573C348.515 302.424 348.406 302.247 348.337 302.054C348.255 301.795 348.246 301.519 348.309 301.255C348.373 300.991 348.507 300.749 348.698 300.555C349.874 299.307 351.276 298.29 352.83 297.559C355.073 296.602 357.508 296.174 359.944 296.306C362.38 296.439 364.753 297.129 366.879 298.323V298.308Z" fill="#3B1D05"/>
<path opacity="0.58" d="M316.166 307.628C316.166 308.916 313.281 309.965 309.705 309.965C306.129 309.965 303.243 308.916 303.243 307.628C303.243 306.339 306.144 305.29 309.705 305.29C313.266 305.29 316.166 306.324 316.166 307.628Z" fill="#FF8296"/>
<path d="M346.068 307.628L345.692 307.463C345.918 309.036 343.123 310.879 341.034 311.673C336.527 313.381 333.942 309.156 333.942 309.156C333.717 311.808 328.548 314.191 326.173 311.044C325.437 310.07 323.829 309.081 323.754 308.197C323.891 309.56 324.297 310.882 324.948 312.089C325.599 313.295 326.482 314.361 327.548 315.225C328.613 316.09 329.839 316.736 331.156 317.127C332.472 317.518 333.853 317.645 335.219 317.502C343.769 317.008 346.068 307.628 346.068 307.628Z" fill="#3B1D05"/>
<path opacity="0.58" d="M364.626 307.628C364.626 308.916 361.741 309.965 358.164 309.965C354.588 309.965 351.703 308.916 351.703 307.628C351.703 306.339 354.603 305.29 358.164 305.29C361.725 305.29 364.626 306.324 364.626 307.628Z" fill="#FF8296"/>
<path d="M334.288 314.026C332.267 313.996 330.296 314.652 328.698 315.884C330.596 317.211 332.915 317.803 335.219 317.547C336.918 317.495 338.559 316.925 339.922 315.914C338.316 314.661 336.327 313.995 334.288 314.026V314.026Z" fill="#F49D93"/>
<path d="M323.995 302.803C323.264 304.009 322.908 305.405 322.973 306.813C323.037 308.221 323.518 309.579 324.355 310.714C327.361 314.625 333.717 311.673 334.002 308.377C334.002 308.377 337.248 313.621 342.792 311.508C348.337 309.396 344.475 302.308 343.408 301.949" stroke="#3B1D05" stroke-width="2" stroke-linecap="round" stroke-linejoin="round"/>
<g style="mix-blend-mode:multiply" opacity="0.39">
<path d="M332.259 404.273C370.018 404.273 400.628 400.751 400.628 396.407C400.628 392.062 370.018 388.54 332.259 388.54C294.5 388.54 263.89 392.062 263.89 396.407C263.89 400.751 294.5 404.273 332.259 404.273Z" fill="#D1AF77"/>
</g>
<g style="mix-blend-mode:multiply" opacity="0.39">
<path d="M569.215 410.453C569.552 406.819 544.201 401.511 512.593 398.599C480.985 395.686 455.089 396.27 454.752 399.904C454.415 403.538 479.766 408.845 511.374 411.758C542.982 414.671 568.878 414.086 569.215 410.453Z" fill="#D1AF77"/>
</g>
<g style="mix-blend-mode:multiply" opacity="0.39">
<path d="M103.004 404.378C103.245 408.019 129.12 409.308 160.795 407.255C192.47 405.202 217.895 400.587 217.714 396.946C217.534 393.305 191.599 392.002 159.924 394.054C128.248 396.107 102.764 400.722 103.004 404.378Z" fill="#D1AF77"/>
</g>
<path d="M576.96 320.109C576.96 320.109 588.981 336.592 609.522 327.107C613.85 325.099 617.501 321.308 620.732 316.423" stroke="#3B1D05" stroke-width="2" stroke-miterlimit="10" stroke-linecap="round"/>
<path d="M622.385 307.403C622.929 307.471 623.477 307.321 623.911 306.987C624.344 306.653 624.628 306.162 624.699 305.62L625.435 299.926C625.503 299.384 625.354 298.837 625.018 298.404C624.683 297.972 624.19 297.689 623.647 297.618V297.618C623.377 297.583 623.104 297.601 622.841 297.671C622.578 297.742 622.332 297.863 622.117 298.029C621.902 298.195 621.722 298.401 621.587 298.637C621.453 298.873 621.366 299.132 621.333 299.402L620.597 305.095C620.533 305.637 620.684 306.182 621.018 306.613C621.353 307.045 621.843 307.328 622.385 307.403V307.403Z" fill="#FFB843"/>
<path d="M624.413 308.347C624.585 308.556 624.796 308.729 625.035 308.856C625.273 308.983 625.535 309.062 625.804 309.089C626.073 309.115 626.345 309.089 626.604 309.01C626.863 308.932 627.104 308.803 627.313 308.632L631.821 304.975C632.239 304.623 632.502 304.121 632.553 303.577C632.603 303.033 632.438 302.492 632.092 302.069V302.069C631.92 301.859 631.709 301.686 631.47 301.559C631.23 301.432 630.968 301.353 630.698 301.328C630.428 301.303 630.156 301.332 629.897 301.413C629.639 301.493 629.399 301.625 629.192 301.799L624.684 305.455C624.475 305.627 624.303 305.838 624.177 306.077C624.051 306.315 623.973 306.576 623.947 306.845C623.922 307.114 623.951 307.384 624.03 307.642C624.11 307.9 624.24 308.139 624.413 308.347V308.347Z" fill="#FFB843"/>
<path d="M622.385 307.403C622.929 307.471 623.477 307.321 623.911 306.987C624.344 306.653 624.628 306.162 624.699 305.62L625.435 299.926C625.503 299.384 625.354 298.837 625.018 298.404C624.683 297.972 624.19 297.689 623.647 297.618V297.618C623.377 297.583 623.104 297.601 622.841 297.671C622.578 297.742 622.332 297.863 622.117 298.029C621.902 298.195 621.722 298.401 621.587 298.637C621.453 298.873 621.366 299.132 621.333 299.402L620.597 305.095C620.533 305.637 620.684 306.182 621.018 306.613C621.353 307.045 621.843 307.328 622.385 307.403V307.403Z" stroke="#3B1D05" stroke-width="2" stroke-linecap="round" stroke-linejoin="round"/>
<path d="M624.413 308.347C624.585 308.556 624.796 308.729 625.035 308.856C625.273 308.983 625.535 309.062 625.804 309.089C626.073 309.115 626.345 309.089 626.604 309.01C626.863 308.932 627.104 308.803 627.313 308.632L631.821 304.975C632.239 304.623 632.502 304.121 632.553 303.577C632.603 303.033 632.438 302.492 632.092 302.069V302.069C631.92 301.859 631.709 301.686 631.47 301.559C631.23 301.432 630.968 301.353 630.698 301.328C630.428 301.303 630.156 301.332 629.897 301.413C629.639 301.493 629.399 301.625 629.192 301.799L624.684 305.455C624.475 305.627 624.303 305.838 624.177 306.077C624.051 306.315 623.973 306.576 623.947 306.845C623.922 307.114 623.951 307.384 624.03 307.642C624.11 307.9 624.24 308.139 624.413 308.347V308.347Z" stroke="#3B1D05" stroke-width="2" stroke-linecap="round" stroke-linejoin="round"/>
<path d="M615.022 314.61C614.627 313.259 614.642 311.821 615.066 310.478C615.491 309.136 616.305 307.949 617.405 307.067C618.506 306.186 619.844 305.65 621.25 305.527C622.657 305.404 624.068 305.7 625.306 306.377C626.543 307.054 627.552 308.081 628.204 309.33C628.856 310.578 629.122 311.992 628.969 313.391C628.815 314.79 628.249 316.113 627.342 317.191C626.435 318.27 625.227 319.056 623.872 319.45C622.055 319.974 620.104 319.759 618.445 318.852C616.786 317.945 615.555 316.42 615.022 314.61V314.61Z" fill="#FFB843"/>
<path d="M615.022 314.61C614.627 313.259 614.642 311.821 615.066 310.478C615.491 309.136 616.305 307.949 617.405 307.067C618.506 306.186 619.844 305.65 621.25 305.527C622.657 305.404 624.068 305.7 625.306 306.377C626.543 307.054 627.552 308.081 628.204 309.33C628.856 310.578 629.122 311.992 628.969 313.391C628.815 314.79 628.249 316.113 627.342 317.191C626.435 318.27 625.227 319.056 623.872 319.45C622.055 319.974 620.104 319.759 618.445 318.852C616.786 317.945 615.555 316.42 615.022 314.61V314.61Z" stroke="#3B1D05" stroke-width="2" stroke-linecap="round" stroke-linejoin="round"/>
<path d="M545 95.7418C545 95.7418 557.967 68.9807 576.149 57.9976C576.149 57.9976 565.631 86.9613 572.678 99.0382L546.638 126.009L545 95.7418Z" fill="#50891E"/>
<g style="mix-blend-mode:multiply" opacity="0.33">
<path d="M570.634 101.166L572.678 99.0384C571.732 97.3208 571.082 95.4568 570.755 93.5244C570.506 96.0641 570.466 98.6199 570.634 101.166Z" fill="#8FB31F"/>
<path d="M572.272 71.6179C573.305 67.0084 574.6 62.461 576.149 57.9976C557.967 68.9807 545 95.7418 545 95.7418L545.556 105.976C547.299 102.529 557.727 82.6909 572.272 71.6179Z" fill="#8FB31F"/>
</g>
<path d="M545 95.7418C545 95.7418 557.967 68.9807 576.149 57.9976C576.149 57.9976 565.631 86.9613 572.678 99.0382L546.638 126.009L545 95.7418Z" stroke="#3B1D05" stroke-width="2" stroke-linecap="round" stroke-linejoin="round"/>
<path d="M517.201 114.711C517.201 114.711 517.667 84.4741 509.313 73.1763C509.313 73.1763 535.158 99.0983 533.85 119.626C532.543 140.154 527.84 140.379 527.84 140.379L517.201 114.711Z" fill="#50891E"/>
<g style="mix-blend-mode:multiply" opacity="0.33">
<path d="M509.343 73.1763C510.401 74.6682 511.284 76.2772 511.972 77.9711C519.065 87.3659 527.164 100.836 526.412 112.569C525.826 121.559 524.609 126.713 523.407 129.59L527.915 140.394C527.915 140.394 532.558 140.184 533.925 119.641C535.293 99.0983 509.343 73.1763 509.343 73.1763Z" fill="#8FB31F"/>
</g>
<path d="M517.201 114.711C517.201 114.711 517.667 84.4741 509.313 73.1763C509.313 73.1763 535.158 99.0983 533.85 119.626C532.543 140.154 527.84 140.379 527.84 140.379L517.201 114.711Z" stroke="#3B1D05" stroke-width="2" stroke-linecap="round" stroke-linejoin="round"/>
<path d="M528.426 127.822C528.426 127.822 540.252 79.1545 527.63 49.6064C527.63 49.6064 559.861 83.7845 552.859 118.802C545.856 153.819 538.343 151.766 538.343 151.766L528.426 127.822Z" fill="#8FB31F"/>
<g style="mix-blend-mode:multiply" opacity="0.33">
<path d="M527.63 49.5918C528.407 51.4219 529.084 53.2927 529.658 55.1957C537.892 68.4414 546.518 87.9953 542.551 107.834C538.974 125.68 535.278 133.906 532.513 137.682L538.343 151.796C538.343 151.796 545.856 153.804 552.859 118.832C559.861 83.8598 527.63 49.5918 527.63 49.5918Z" fill="#8FB31F"/>
</g>
<path d="M528.426 127.822C528.426 127.822 540.252 79.1545 527.63 49.6064C527.63 49.6064 559.861 83.7845 552.859 118.802C545.856 153.819 538.343 151.766 538.343 151.766L528.426 127.822Z" stroke="#3B1D05" stroke-width="2" stroke-linecap="round" stroke-linejoin="round"/>
<path d="M539.049 145.503C539.049 145.503 558.448 87.066 600.431 61.998C600.431 61.998 582.655 92.7448 579.395 120.345L542.28 159.513L539.049 145.503Z" fill="#8FB31F"/>
<g style="mix-blend-mode:multiply" opacity="0.33">
<path d="M591.867 79.1395C596.374 68.9205 600.431 61.998 600.431 61.998C558.448 87.0809 539.049 145.503 539.049 145.503L539.846 149.069C546.908 132.317 563.948 98.6035 591.867 79.1395Z" fill="#8FB31F"/>
<path d="M578.704 121.019L579.335 120.345C579.485 119.176 579.65 118.007 579.846 116.824C579.44 118.217 579.064 119.611 578.704 121.019Z" fill="#8FB31F"/>
</g>
<path d="M539.049 145.503C539.049 145.503 558.448 87.066 600.431 61.998C600.431 61.998 582.655 92.7448 579.395 120.345L542.28 159.513L539.049 145.503Z" stroke="#3B1D05" stroke-width="2" stroke-linecap="round" stroke-linejoin="round"/>
<path d="M584.744 141.607C584.744 141.607 597.787 113.138 615.563 101.735C615.563 101.735 556.179 110.096 538.508 167.349L537.006 181.15L557.862 176.654L584.744 141.607Z" fill="#50891E"/>
<g style="mix-blend-mode:multiply" opacity="0.33">
<path d="M599.86 116.914C604.224 111.03 609.529 105.902 615.563 101.735C615.563 101.735 556.179 110.096 538.509 167.349L538.088 171.47C552.318 136.603 582.716 122.353 599.86 116.914Z" fill="#8FB31F"/>
</g>
<path d="M584.744 141.607C584.744 141.607 597.787 113.138 615.563 101.735C615.563 101.735 556.179 110.096 538.508 167.349L537.006 181.15L557.862 176.654L584.744 141.607Z" stroke="#3B1D05" stroke-width="2" stroke-linecap="round" stroke-linejoin="round"/>
<path d="M508.636 137.037C508.636 137.037 496.616 95.322 488.922 86.5864C488.922 86.5864 546.983 127.777 546.337 171.47L543.001 180.565L508.636 137.037Z" fill="#8FB31F"/>
<g style="mix-blend-mode:multiply" opacity="0.33">
<path d="M488.922 86.5864C489.798 87.6546 490.577 88.7978 491.251 90.0027C508.411 105.481 533.88 133.456 533.445 162.404L531.942 166.555L543.016 180.565L546.352 171.47C546.983 127.822 488.922 86.5864 488.922 86.5864Z" fill="#8FB31F"/>
</g>
<path d="M508.636 137.037C508.636 137.037 496.616 95.322 488.922 86.5864C488.922 86.5864 546.983 127.777 546.337 171.47L543.001 180.565L508.636 137.037Z" stroke="#3B1D05" stroke-width="2" stroke-linecap="round" stroke-linejoin="round"/>
<path d="M494.241 356.28L492.649 392.631L499.035 392.916L500.703 354.737L494.241 356.28Z" fill="#5E2E08"/>
<g style="mix-blend-mode:multiply" opacity="0.33">
<path d="M497.652 355.471L496.029 392.781L499.035 392.916L500.703 354.737L497.652 355.471Z" fill="#5E2E08"/>
</g>
<path d="M494.241 356.28L492.649 392.631L499.035 392.916L500.703 354.737L494.241 356.28Z" stroke="#3B1D05" stroke-width="2" stroke-miterlimit="10" stroke-linecap="round"/>
<path d="M496.796 402.52L482.205 401.891C480.837 401.829 479.549 401.227 478.625 400.219C477.7 399.21 477.216 397.877 477.277 396.512V396.512C477.306 395.837 477.468 395.174 477.754 394.561C478.04 393.949 478.445 393.399 478.944 392.942C479.444 392.486 480.029 392.132 480.666 391.901C481.303 391.67 481.979 391.567 482.656 391.597L497.247 392.226C498.615 392.285 499.905 392.883 500.832 393.888C501.759 394.894 502.247 396.226 502.19 397.591C502.128 398.957 501.525 400.243 500.514 401.166C499.503 402.09 498.166 402.577 496.796 402.52Z" fill="#FFB843"/>
<path d="M496.796 402.52L482.205 401.891C480.837 401.829 479.549 401.227 478.625 400.219C477.7 399.21 477.216 397.877 477.277 396.512V396.512C477.306 395.837 477.468 395.174 477.754 394.561C478.04 393.949 478.445 393.399 478.944 392.942C479.444 392.486 480.029 392.132 480.666 391.901C481.303 391.67 481.979 391.567 482.656 391.597L497.247 392.226C498.615 392.285 499.905 392.883 500.832 393.888C501.759 394.894 502.247 396.226 502.19 397.591C502.128 398.957 501.525 400.243 500.514 401.166C499.503 402.09 498.166 402.577 496.796 402.52Z" stroke="#3B1D05" stroke-width="2" stroke-miterlimit="10" stroke-linecap="round"/>
<g style="mix-blend-mode:multiply" opacity="0.35">
<path d="M497.322 392.226H496.736C497.03 392.912 497.168 393.654 497.141 394.399C497.079 395.765 496.476 397.051 495.465 397.975C494.454 398.899 493.117 399.386 491.747 399.329L477.743 398.729C478.111 399.634 478.731 400.416 479.529 400.981C480.328 401.547 481.272 401.873 482.25 401.921L496.841 402.55C497.531 402.602 498.226 402.515 498.882 402.294C499.538 402.074 500.143 401.724 500.661 401.265C501.179 400.807 501.599 400.249 501.897 399.626C502.195 399.002 502.364 398.325 502.394 397.635C502.424 396.945 502.315 396.256 502.073 395.609C501.831 394.962 501.461 394.37 500.985 393.868C500.509 393.367 499.937 392.965 499.302 392.688C498.668 392.412 497.984 392.265 497.292 392.256L497.322 392.226Z" fill="#FFB843"/>
</g>
<path d="M531.747 357.913L530.154 394.264L523.783 393.979L525.436 355.816L531.747 357.913Z" fill="#5E2E08"/>
<g style="mix-blend-mode:multiply" opacity="0.33">
<path d="M528.411 356.805L526.773 394.114L523.783 393.979L525.436 355.816L528.411 356.805Z" fill="#5E2E08"/>
</g>
<path d="M531.747 357.913L530.154 394.264L523.783 393.979L525.436 355.816L531.747 357.913Z" stroke="#3B1D05" stroke-width="2" stroke-miterlimit="10" stroke-linecap="round"/>
<path d="M525.18 403.749L539.771 404.378C540.448 404.409 541.124 404.305 541.761 404.075C542.398 403.844 542.983 403.49 543.483 403.033C543.982 402.577 544.387 402.027 544.673 401.414C544.959 400.802 545.121 400.139 545.15 399.464V399.464C545.211 398.099 544.727 396.765 543.802 395.757C542.878 394.748 541.59 394.147 540.222 394.085L525.631 393.455C524.261 393.398 522.924 393.885 521.913 394.809C520.902 395.733 520.299 397.019 520.237 398.385C520.18 399.75 520.668 401.081 521.595 402.087C522.522 403.093 523.812 403.691 525.18 403.749Z" fill="#FFB843"/>
<path d="M525.18 403.749L539.771 404.378C540.448 404.409 541.124 404.305 541.761 404.075C542.398 403.844 542.983 403.49 543.483 403.033C543.982 402.577 544.387 402.027 544.673 401.414C544.959 400.802 545.121 400.139 545.15 399.464V399.464C545.211 398.099 544.727 396.765 543.802 395.757C542.878 394.748 541.59 394.147 540.222 394.085L525.631 393.455C524.261 393.398 522.924 393.885 521.913 394.809C520.902 395.733 520.299 397.019 520.237 398.385C520.18 399.75 520.668 401.081 521.595 402.087C522.522 403.093 523.812 403.691 525.18 403.749Z" stroke="#3B1D05" stroke-width="2" stroke-miterlimit="10" stroke-linecap="round"/>
<g style="mix-blend-mode:multiply" opacity="0.35">
<path d="M525.631 393.455H526.217C525.86 394.115 525.66 394.848 525.631 395.598C525.574 396.964 526.062 398.297 526.989 399.305C527.915 400.314 529.205 400.915 530.575 400.977L544.579 401.576C544.127 402.449 543.435 403.176 542.583 403.669C541.731 404.163 540.755 404.404 539.771 404.363L525.18 403.734C524.488 403.726 523.804 403.579 523.169 403.302C522.535 403.025 521.963 402.624 521.487 402.122C521.011 401.62 520.641 401.028 520.399 400.381C520.157 399.734 520.048 399.045 520.078 398.355C520.108 397.665 520.277 396.988 520.575 396.364C520.873 395.741 521.293 395.183 521.811 394.725C522.329 394.266 522.934 393.916 523.59 393.696C524.246 393.475 524.94 393.388 525.631 393.44V393.455Z" fill="#FFB843"/>
</g>
<path d="M515.984 181.285C515.984 181.285 517.036 147.496 472.739 128.766C472.739 128.766 533.385 120.465 548.801 192.582C548.801 192.582 530.59 203.985 515.984 181.285Z" fill="#50891E"/>
<g style="mix-blend-mode:multiply" opacity="0.33">
<path d="M472.739 128.766L473.28 129.006C491.657 130.504 526.593 140.574 537.757 192.867C536.227 193.736 534.59 194.406 532.889 194.86C538.293 196.094 543.964 195.282 548.801 192.582C533.385 120.465 472.739 128.766 472.739 128.766Z" fill="#8FB31F"/>
</g>
<path d="M515.984 181.285C515.984 181.285 517.036 147.496 472.739 128.766C472.739 128.766 533.385 120.465 548.801 192.582C548.801 192.582 530.59 203.985 515.984 181.285Z" stroke="#3B1D05" stroke-width="2" stroke-linecap="round" stroke-linejoin="round"/>
<path d="M565.27 181.959C565.27 181.959 584.023 148.29 612.362 136.498C612.362 136.498 546.322 133.216 535.729 193.286C535.699 193.286 557.952 195.084 565.27 181.959Z" fill="#8FB31F"/>
<g style="mix-blend-mode:multiply" opacity="0.33">
<path d="M595.758 146.387C600.826 142.367 606.41 139.041 612.362 136.498C612.362 136.498 546.322 133.216 535.729 193.286H536.195C546.518 158.824 577.141 149.084 595.758 146.387Z" fill="#8FB31F"/>
</g>
<path d="M565.27 181.959C565.27 181.959 584.023 148.29 612.362 136.498C612.362 136.498 546.322 133.216 535.729 193.286C535.699 193.286 557.952 195.084 565.27 181.959Z" stroke="#3B1D05" stroke-width="2" stroke-linecap="round" stroke-linejoin="round"/>
<path d="M514.046 177.598C514.046 177.598 503.978 178.078 498.674 184.671C498.674 184.671 495.398 181.119 492.002 185.749C488.607 190.379 476.661 202.381 473.175 209.064C473.175 209.064 471.582 203.76 467.164 211.536C462.746 219.313 458.254 231.21 458.359 234.836C458.359 234.836 455.564 230.836 453.34 240.081C451.116 249.326 449.629 267.456 453.04 278.304C453.04 278.304 450.124 277.046 449.448 282.245C448.772 287.444 450.2 306.863 454.783 317.082C454.783 317.082 451.387 316.483 451.868 321.053C452.348 325.623 461.559 339.678 474.692 347.305C474.692 347.305 472.529 349.717 474.272 351.62C476.015 353.523 511.837 360.76 517.592 358.048C517.592 358.048 514.947 361.12 521.289 362.303C527.63 363.487 584.684 353.448 576.435 343.754C576.435 343.754 602.144 319.6 595.202 316.558C595.202 316.558 609.913 288.089 600.747 283.339C600.747 283.339 609.477 245.475 599.996 253.716C599.996 253.716 599.455 213.394 591.356 221.471C591.356 221.471 586.187 182.768 575.323 191.188C575.323 191.188 571.942 174.422 562.611 178.797C553.279 183.172 542.896 186.139 540.176 190.784C539.284 189.479 537.963 188.524 536.441 188.084C534.92 187.644 533.292 187.745 531.837 188.372C531.837 188.372 520.868 178.123 514.046 177.598Z" fill="#FFB843"/>
<g style="mix-blend-mode:multiply" opacity="0.15">
<path d="M595.202 316.618C595.202 316.618 609.913 288.149 600.747 283.399C600.747 283.399 609.477 245.535 599.996 253.776C599.996 253.776 599.455 213.454 591.356 221.531C591.356 221.531 586.187 182.827 575.323 191.248C575.323 191.248 571.942 174.481 562.611 178.857C561.604 179.321 560.597 179.786 559.605 180.22C561.237 185.995 562.482 191.872 563.332 197.811C571.446 189.75 571.972 230.056 571.972 230.056C581.468 221.815 572.738 259.694 572.738 259.694C581.889 264.414 567.178 292.913 567.178 292.913C574.121 295.91 548.426 320.094 548.426 320.094C556.675 329.789 499.621 339.843 493.28 338.659C486.939 337.475 489.583 334.389 489.583 334.389C485.706 336.202 468.547 333.595 457.036 331.092C461.778 337.644 467.792 343.178 474.722 347.365C474.722 347.365 472.559 349.777 474.302 351.68C476.045 353.583 511.867 360.82 517.622 358.108C517.622 358.108 514.977 361.18 521.319 362.363C527.66 363.547 584.714 353.508 576.465 343.813C576.435 343.754 602.144 319.615 595.202 316.618Z" fill="#FFB843"/>
</g>
<path d="M517.592 358.048C521.634 353.958 525.932 350.137 530.349 346.466C534.756 342.763 539.361 339.302 544.143 336.097C546.342 334.532 548.763 333.305 551.326 332.456C551.86 332.354 552.411 332.379 552.934 332.531C561.303 335.183 568.891 339.393 576.435 343.754C570.98 341.911 565.631 339.873 560.281 337.895C557.691 336.887 555.048 336.022 552.363 335.303C551.897 335.048 550.484 335.797 549.357 336.412C538.433 343.034 528.411 351.141 517.607 358.048H517.592Z" fill="#D69831"/>
<path d="M474.692 347.305C478.352 343.516 482.295 340.009 486.488 336.816C490.365 334.074 494.226 330.823 499.11 329.969C499.617 329.926 500.127 329.982 500.613 330.134C503.423 331.513 506.019 333.29 508.321 335.408C514.314 340.52 519.868 346.124 524.925 352.16C516.585 346.166 508.982 338.749 500.372 333.265C499.981 333.145 499.711 332.876 499.29 332.921C495.158 333.775 491.492 336.592 487.825 338.719L474.692 347.245V347.305Z" fill="#D69831"/>
<path d="M454.783 317.083C458.06 314.073 461.773 311.573 465.797 309.666C467.966 308.493 470.43 307.972 472.889 308.167C475.474 308.557 476.961 311.374 478.329 313.277C482.837 320.769 487.615 327.661 495.203 332.426C490.904 331.108 486.99 328.768 483.798 325.608C479.486 321.593 477.006 316.363 473.52 311.898C470.695 308.452 458.494 315.584 454.723 317.143L454.783 317.083Z" fill="#D69831"/>
<path d="M469.268 309.291C459.786 301.724 454.362 290.172 451.687 278.544L451.597 278.14C452.899 275.385 454.539 272.803 456.481 270.453C460.181 265.844 465.17 262.433 470.816 260.653C474.166 259.68 477.457 262.302 479.095 264.894C483.603 271.876 488.817 278.379 493.535 285.212C494.782 287.235 497.201 290.052 497.863 292.314C497.2 291.108 496.387 289.991 495.443 288.988C492.829 285.901 489.899 282.605 487.299 279.533C484.7 276.461 481.935 273.135 479.38 269.824C477.187 267.231 475.414 262.661 471.432 263.485C463.918 265.928 457.908 271.981 454.287 278.889L454.392 278.065C454.938 280.911 455.651 283.722 456.526 286.486C458.972 294.957 463.331 302.758 469.268 309.291V309.291Z" fill="#D69831"/>
<path d="M474.242 310.415C478.96 304.796 492.994 289.602 500.612 290.636C501.162 290.773 501.675 291.029 502.115 291.385C505.637 294.775 508.906 298.415 511.897 302.279C515.218 306.444 518.403 310.7 521.304 315.18C514.211 308.527 507.54 300.69 500.537 293.963C497.788 290.726 477.998 307.928 474.257 310.445L474.242 310.415Z" fill="#D69831"/>
<path d="M500.026 331.602C505.436 325.159 517.246 312.497 526.127 312.647C526.951 312.783 527.744 313.062 528.471 313.471C532.58 315.917 536.31 318.946 539.545 322.462C543.297 326.247 546.762 330.303 549.913 334.599L537.892 324.11C534.196 321.113 530.665 317.697 526.337 315.674C524.008 315.03 521.334 316.648 519.185 317.727C512.348 321.638 506.292 326.717 499.981 331.512L500.026 331.602Z" fill="#D69831"/>
<path d="M554.692 334.389C559.404 327.22 565.054 320.71 571.491 315.03C574.121 312.917 576.69 310.609 580.161 309.755C580.853 309.611 581.57 309.637 582.25 309.83C586.983 311.166 591.392 313.456 595.202 316.558C590.892 314.67 586.394 313.239 581.784 312.288C581.436 312.186 581.065 312.186 580.717 312.288C578.028 313.531 575.57 315.218 573.444 317.277C567.058 322.761 561.138 328.83 554.692 334.359V334.389Z" fill="#D69831"/>
<path d="M529.718 315.779C534.001 309.171 546.998 291.026 554.797 290.112C555.521 290.159 556.23 290.342 556.886 290.651C560.958 292.779 563.948 296.24 567.013 299.446C570.319 302.983 574.737 308.317 578.538 311.284C569.883 307.058 564.143 298.473 556.074 293.528C555.839 293.389 555.587 293.284 555.323 293.213L554.962 293.093C554.827 293.018 554.842 293.093 554.782 293.093C552.002 293.828 549.628 296.3 547.269 298.308C543.107 301.994 533.745 311.793 529.718 315.809V315.779Z" fill="#D69831"/>
<path d="M501.469 293.378C507.633 285.193 514.784 277.795 522.761 271.352C531.957 264.25 536.39 273.6 540.792 280.342C544.1 285.055 547.667 289.582 551.476 293.903C546.791 290.375 542.562 286.284 538.884 281.721C535.969 278.619 532.753 270.558 527.885 271.951C522.821 273.929 518.869 278.469 514.587 281.856C510.259 285.677 505.962 289.557 501.514 293.333L501.469 293.378Z" fill="#D69831"/>
<path d="M476.931 264.325C481.589 259.635 497.863 244.711 504.429 246.898C504.857 247.109 505.248 247.387 505.586 247.723C509.145 251.283 512.477 255.061 515.564 259.035C518.569 262.557 522.355 268.13 525.721 271.217C523.416 269.843 521.304 268.17 519.44 266.243C514.647 261.672 510.229 256.728 505.661 251.948C504.889 251.118 504.06 250.342 503.182 249.625C502.846 249.545 502.496 249.545 502.16 249.625C494.497 252.023 483.918 260.114 476.931 264.31V264.325Z" fill="#D69831"/>
<path d="M473.19 261.417C466.608 253.161 461.755 243.662 456.661 234.447C462.957 229.607 469.478 224.977 476.976 222.1C484.79 219.103 486.338 223.254 489.478 229.337C492.483 235.795 495.909 242.823 500.733 248.262C496.908 245.031 493.661 241.175 491.131 236.859C488.546 232.858 486.548 228.049 483.453 224.557C479.456 221.336 463.302 233.158 459.23 235.9L459.621 234.192C463.603 242.028 468.952 253.866 473.235 261.402L473.19 261.417Z" fill="#D69831"/>
<path d="M473.175 209.064C475.964 211.702 477.775 215.203 478.314 218.999C478.565 220.313 478.477 221.669 478.058 222.939C475.248 218.759 473.009 214.219 473.175 209.064Z" fill="#D69831"/>
<path d="M498.674 184.67C503.182 190.125 506.428 197.212 506.262 204.359C502.228 198.476 499.629 191.734 498.674 184.67V184.67Z" fill="#D69831"/>
<path d="M484.61 224.363C488.607 218.534 504.91 197.242 512.754 202.472C516.991 205.603 519.155 210.623 521.319 215.193C523.611 220.36 525.436 225.72 526.773 231.21C522.265 222.67 518.779 213.44 512.513 206.113C511.878 205.314 510.967 204.78 509.959 204.614C507.765 204.614 505.256 206.487 503.362 207.806C496.631 212.735 490.77 218.699 484.61 224.408V224.363Z" fill="#D69831"/>
<path d="M504.114 248.427C508.787 243.017 523.768 227.165 531.04 228.243C531.862 228.529 532.626 228.961 533.294 229.517C537.077 232.637 540.562 236.098 543.708 239.856C547.353 243.995 550.76 248.337 553.91 252.862C546.262 246.044 539.485 238.343 531.551 231.884C531.15 231.579 530.717 231.318 530.259 231.105C529.241 231.137 528.246 231.415 527.359 231.914C518.974 236.41 511.822 242.793 504.114 248.397V248.427Z" fill="#D69831"/>
<path d="M531.221 270.768C535.398 265.598 549.883 249.506 556.765 251.184C557.19 251.344 557.586 251.572 557.937 251.858C561.519 254.602 564.936 257.554 568.17 260.699C571.882 264.205 575.488 267.831 578.854 271.697C571.04 266.302 563.482 259.71 555.864 254.031C555.744 253.941 555.864 254.031 555.774 254.031C555.654 254.011 555.532 254.011 555.413 254.031C550.905 255.065 546.998 258.781 543.227 261.403L531.206 270.813L531.221 270.768Z" fill="#D69831"/>
<path d="M556.75 292.644C560.972 286.942 565.666 281.604 570.785 276.686C573.97 273.854 577.261 270.468 581.604 269.464C582.478 269.322 583.375 269.469 584.158 269.884C590.614 273.726 596.75 278.08 602.505 282.905C597.97 293.586 591.298 303.232 582.896 311.254C589.635 302.529 595.192 292.957 599.425 282.785L599.875 284.403C594.211 280.207 588.576 275.547 582.445 272.161C580.743 272.375 579.132 273.048 577.787 274.109C570.199 279.338 563.512 286.186 556.75 292.539V292.644Z" fill="#D69831"/>
<path d="M556.66 252.742C559.294 248.143 562.215 243.714 565.405 239.481C568.411 235.795 571.236 231.375 575.849 229.412C580.356 228.258 587.87 237.548 590.875 240.62C594.706 244.89 598.283 249.371 601.724 253.941C596.601 257.786 591.714 261.934 587.088 266.362C585.615 267.728 584.327 269.279 583.257 270.977C586.713 263.59 593.309 258.196 599.199 252.742L599.004 254.48C595.653 250.464 592.182 246.479 588.681 242.598C585.21 239.002 581.814 234.821 577.532 232.259C577.244 232.068 576.897 231.988 576.555 232.034C572.678 233.802 569.853 237.623 566.893 240.68C563.407 244.606 560.041 248.666 556.66 252.742Z" fill="#D69831"/>
<path d="M591.356 221.471C589.387 226.565 585.42 230.011 581.468 233.563C581.468 228.408 586.803 223.284 591.356 221.471Z" fill="#D69831"/>
<path d="M532.288 230.297C535.894 224.723 552.272 202.936 559.605 208.915C566.938 214.893 567.81 225.472 575.638 231.031C568.215 227.914 564.864 219.703 560.326 213.724C559.53 212.589 558.507 211.63 557.321 210.908C556.76 210.724 556.151 210.751 555.608 210.982C551.236 212.646 547.284 216.556 543.587 219.673C539.801 223.119 536.074 226.73 532.288 230.297V230.297Z" fill="#D69831"/>
<path d="M511.987 203.685C514.225 200.043 517.077 196.814 520.417 194.14C523.753 191.533 527.464 188.836 531.837 188.387C525.255 193.646 519.485 199.64 511.987 203.685V203.685Z" fill="#D69831"/>
<path d="M540.177 190.754C546.057 196.127 550.204 203.12 552.092 210.847C546.617 205.157 542.539 198.279 540.177 190.754V190.754Z" fill="#D69831"/>
<path d="M556.705 209.723C560.206 201.752 566.803 193.901 575.323 191.188C569.312 197.287 563.482 204.269 556.705 209.723Z" fill="#D69831"/>
<g style="mix-blend-mode:multiply" opacity="0.33">
<path d="M561.258 179.426V179.576C561.532 179.355 561.83 179.164 562.145 179.007L561.258 179.426Z" fill="#FFB843"/>
<path d="M595.202 316.618C595.202 316.618 609.913 288.149 600.747 283.399C600.747 283.399 609.477 245.535 599.996 253.776C599.996 253.776 599.455 213.455 591.356 221.531C591.356 221.531 586.187 182.828 575.323 191.248C575.323 191.248 572.092 175.276 563.302 178.587C572.813 175.95 577.351 209.918 577.351 209.918C585.465 201.857 585.991 242.163 585.991 242.163C595.473 233.922 586.743 271.786 586.743 271.786C595.909 276.521 581.198 305.021 581.198 305.021C588.14 308.017 562.43 332.201 562.43 332.201C570.68 341.896 513.625 351.95 507.284 350.766C500.943 349.582 503.603 346.496 503.603 346.496C499.32 348.489 478.93 345.117 467.69 342.435C469.893 344.27 472.245 345.919 474.722 347.365C474.722 347.365 472.559 349.777 474.302 351.68C476.045 353.583 511.867 360.82 517.622 358.108C517.622 358.108 514.977 361.18 521.319 362.364C527.66 363.547 584.714 353.508 576.465 343.814C576.435 343.754 602.144 319.615 595.202 316.618Z" fill="#FFB843"/>
</g>
<path d="M514.046 177.598C514.046 177.598 503.978 178.078 498.674 184.671C498.674 184.671 495.398 181.119 492.002 185.749C488.607 190.379 476.661 202.381 473.175 209.064C473.175 209.064 471.582 203.76 467.164 211.536C462.746 219.313 458.254 231.21 458.359 234.836C458.359 234.836 455.564 230.836 453.34 240.081C451.116 249.326 449.629 267.456 453.04 278.304C453.04 278.304 450.124 277.046 449.448 282.245C448.772 287.444 450.2 306.863 454.783 317.082C454.783 317.082 451.387 316.483 451.868 321.053C452.348 325.623 461.559 339.678 474.692 347.305C474.692 347.305 472.529 349.717 474.272 351.62C476.015 353.523 511.837 360.76 517.592 358.048C517.592 358.048 514.947 361.12 521.289 362.303C527.63 363.487 584.684 353.448 576.435 343.754C576.435 343.754 602.144 319.6 595.202 316.558C595.202 316.558 609.913 288.089 600.747 283.339C600.747 283.339 609.477 245.475 599.996 253.716C599.996 253.716 599.455 213.394 591.356 221.471C591.356 221.471 586.187 182.768 575.323 191.188C575.323 191.188 571.942 174.422 562.611 178.797C553.279 183.172 542.896 186.139 540.176 190.784C539.284 189.479 537.963 188.524 536.441 188.084C534.92 187.644 533.292 187.745 531.837 188.372C531.837 188.372 520.868 178.123 514.046 177.598Z" stroke="#3B1D05" stroke-width="2" stroke-linecap="round" stroke-linejoin="round"/>
<path d="M483.528 300.81C489.343 297.814 497.247 298.638 501.559 303.807C501.775 304.056 501.902 304.369 501.922 304.698C501.942 305.026 501.852 305.352 501.667 305.625C501.483 305.898 501.213 306.102 500.9 306.207C500.587 306.312 500.249 306.311 499.936 306.204C498.556 305.659 497.12 305.267 495.654 305.036C491.168 304.231 486.542 305.129 482.686 307.553C484.167 305.531 486.194 303.972 488.531 303.058C492.59 301.626 497.034 301.733 501.018 303.357L499.275 305.695C495.398 301.2 489.313 300.376 483.498 300.765L483.528 300.81Z" fill="#3B1D05"/>
<path d="M548.606 303.627C542.851 302.728 536.721 302.983 532.468 307.163L530.965 304.691C535.08 303.424 539.518 303.706 543.437 305.485C545.681 306.576 547.568 308.28 548.877 310.4C546.469 308.624 543.676 307.439 540.724 306.939C537.771 306.439 534.743 306.639 531.882 307.523C531.691 307.593 531.488 307.624 531.284 307.613C531.081 307.602 530.882 307.551 530.699 307.461C530.516 307.371 530.354 307.246 530.222 307.091C530.089 306.937 529.989 306.758 529.929 306.564C529.855 306.3 529.854 306.02 529.929 305.756C530.003 305.492 530.148 305.253 530.349 305.066C531.574 303.873 533.018 302.926 534.602 302.279C536.885 301.419 539.335 301.095 541.764 301.331C544.192 301.568 546.533 302.358 548.606 303.642V303.627Z" fill="#3B1D05"/>
<path d="M504.354 310.625L527.134 311.613C527.134 311.613 527.044 323.196 516.405 323.406C504.835 323.66 504.053 312.917 504.354 310.625Z" fill="#3B1D05"/>
<path d="M515.458 319.03C512.955 318.879 510.475 319.582 508.426 321.023C510.699 322.775 513.539 323.634 516.405 323.436C518.512 323.451 520.574 322.835 522.325 321.668C520.409 320.027 517.983 319.096 515.458 319.03V319.03Z" fill="#F49D93"/>
<g style="mix-blend-mode:multiply" opacity="0.65">
<path d="M497.567 310.786C497.623 309.496 494.779 308.325 491.214 308.17C487.648 308.016 484.713 308.936 484.657 310.226C484.6 311.516 487.445 312.686 491.01 312.841C494.575 312.996 497.511 312.075 497.567 310.786Z" fill="#FFC8D1"/>
</g>
<g style="mix-blend-mode:multiply" opacity="0.65">
<path d="M545.946 312.842C545.946 314.131 542.941 315.045 539.395 314.895C535.849 314.745 532.994 313.561 533.054 312.273C533.114 310.984 536.059 310.07 539.605 310.22C543.152 310.37 546.007 311.553 545.946 312.842Z" fill="#FFC8D1"/>
</g>
<g style="mix-blend-mode:screen" opacity="0.38">
<path d="M517.938 186.484C517.938 186.484 509.117 181.149 498.554 191.983C487.99 202.816 493.941 191.233 485.136 203.505C476.33 215.777 471.086 211.162 469.012 217.395C466.939 223.628 468.201 236.08 464.249 243.617C460.297 251.154 461.079 245.115 458.945 258.601C456.811 272.086 460.583 280.402 467.63 284.837C474.677 289.273 478.148 263.56 488.186 257.941C498.223 252.322 497.517 245.685 503.137 241.249C508.757 236.814 499.606 221.276 505.361 213.814C511.116 206.352 544.639 196.748 517.938 186.484Z" fill="#FFB843"/>
</g>
<path d="M568.922 408.019C568.922 408.019 544.113 390.758 551.416 380.299C558.719 369.841 568.907 398.579 568.907 398.579C568.907 398.579 561.394 356.954 573.55 359.532C585.706 362.109 573.67 399.898 573.67 399.898C573.67 399.898 586.562 367.848 595.097 375.654C603.632 383.461 580.582 402.221 580.582 402.221C580.582 402.221 601.333 383.551 606.818 394.729C612.302 405.907 584.128 410.537 584.128 410.537L568.922 408.019Z" fill="#00B298"/>
<g style="mix-blend-mode:multiply" opacity="0.46">
<path d="M603.572 400.647C603.326 400.174 602.959 399.775 602.507 399.49C602.056 399.206 601.536 399.047 601.002 399.029C597.697 398.639 591.836 400.872 585.405 404.903C584.878 405.235 584.254 405.381 583.633 405.319C583.012 405.256 582.43 404.989 581.979 404.558V404.558C581.689 404.277 581.463 403.937 581.317 403.561C581.17 403.185 581.107 402.782 581.131 402.379C581.156 401.977 581.267 401.584 581.457 401.228C581.648 400.872 581.913 400.562 582.235 400.318C588.936 395.118 593.099 390.129 593.069 387.237C593.072 386.879 592.986 386.525 592.818 386.209C592.65 385.892 592.405 385.623 592.107 385.424C591.886 385.23 591.615 385.1 591.326 385.049C588.32 384.704 581.859 392.451 577.021 402.071C576.734 402.629 576.258 403.067 575.677 403.309C575.097 403.55 574.45 403.579 573.85 403.389V403.389C573.192 403.188 572.639 402.739 572.308 402.137C571.977 401.536 571.894 400.829 572.077 400.168C574.361 391.867 575.894 381.753 573.114 377.902C572.917 377.602 572.66 377.345 572.361 377.147C572.061 376.948 571.724 376.813 571.371 376.748H571.145C570.988 376.714 570.825 376.72 570.67 376.764C570.515 376.809 570.374 376.891 570.259 377.003C567.404 379.49 568.05 390.039 569.688 399.359C569.807 400.027 569.658 400.716 569.273 401.277C568.888 401.837 568.298 402.224 567.629 402.355V402.355C567.072 402.462 566.495 402.386 565.986 402.137C565.476 401.888 565.061 401.481 564.804 400.977C561.303 393.845 556.465 387.491 554.181 387.267C554 387.267 553.595 387.476 553.114 388.061C549.147 392.796 562.295 402.91 569.778 407.42L583.827 409.652C591.04 408.768 601.664 406.161 603.662 402.91C603.892 402.573 604.007 402.171 603.991 401.764C603.975 401.356 603.828 400.965 603.572 400.647V400.647Z" fill="#00B298"/>
</g>
<path d="M568.922 408.019C568.922 408.019 544.113 390.758 551.416 380.299C558.719 369.841 568.907 398.579 568.907 398.579C568.907 398.579 561.394 356.954 573.55 359.532C585.706 362.109 573.67 399.898 573.67 399.898C573.67 399.898 586.562 367.848 595.097 375.654C603.632 383.461 580.582 402.221 580.582 402.221C580.582 402.221 601.333 383.551 606.818 394.729C612.302 405.907 584.128 410.537 584.128 410.537L568.922 408.019Z" stroke="#3B1D05" stroke-width="2" stroke-linecap="round" stroke-linejoin="round"/>
<path d="M232.515 392.121C232.515 392.121 204.146 381.633 208.563 369.646C212.981 357.659 230.126 382.951 230.126 382.951C230.126 382.951 212.305 344.563 224.747 343.993C237.188 343.424 235.055 383.026 235.055 383.026C235.055 383.026 239.427 348.773 249.66 354.182C259.893 359.592 242.342 383.551 242.342 383.551C242.342 383.551 257.699 360.266 265.828 369.736C273.957 379.205 247.872 390.713 247.872 390.713L232.515 392.121Z" fill="#8FB31F"/>
<g style="mix-blend-mode:multiply" opacity="0.46">
<path d="M264.175 376.239C263.816 375.863 263.367 375.583 262.871 375.426C262.375 375.269 261.846 375.239 261.335 375.34C258.045 375.789 252.936 379.415 247.812 384.944C247.385 385.396 246.818 385.692 246.202 385.784C245.586 385.877 244.957 385.76 244.416 385.454V385.454C244.063 385.256 243.757 384.985 243.519 384.659C243.281 384.333 243.116 383.959 243.037 383.563C242.957 383.168 242.963 382.76 243.056 382.367C243.149 381.974 243.326 381.606 243.574 381.288C248.743 374.575 251.523 368.702 250.757 365.915C250.668 365.569 250.493 365.25 250.249 364.988C250.005 364.727 249.699 364.53 249.36 364.416C249.101 364.281 248.809 364.224 248.518 364.252C245.513 364.671 241.23 373.796 238.976 384.315C238.842 384.929 238.493 385.475 237.992 385.857C237.491 386.238 236.871 386.43 236.242 386.398C235.555 386.363 234.908 386.064 234.437 385.564C233.967 385.064 233.709 384.401 233.717 383.716C233.822 375.1 232.756 364.941 229.089 361.914C228.822 361.672 228.508 361.487 228.168 361.368C227.827 361.25 227.466 361.201 227.106 361.225H226.88C226.722 361.223 226.566 361.264 226.428 361.343C226.291 361.422 226.177 361.537 226.099 361.674C223.95 364.806 227.241 374.86 231.178 383.461C231.461 384.075 231.491 384.777 231.26 385.413C231.03 386.049 230.558 386.57 229.946 386.862C229.443 387.091 228.88 387.154 228.339 387.041C227.798 386.928 227.308 386.644 226.94 386.233C221.741 380.239 215.46 375.325 213.192 375.639C213.026 375.639 212.681 375.999 212.365 376.673C209.72 382.262 225.002 388.75 233.402 391.222L247.556 389.859C254.318 387.192 263.935 381.992 265.047 378.351C265.148 377.953 265.118 377.532 264.961 377.151C264.804 376.771 264.529 376.451 264.175 376.239V376.239Z" fill="#8FB31F"/>
</g>
<path d="M232.515 392.121C232.515 392.121 204.146 381.633 208.563 369.646C212.981 357.659 230.126 382.951 230.126 382.951C230.126 382.951 212.305 344.563 224.747 343.993C237.188 343.424 235.055 383.026 235.055 383.026C235.055 383.026 239.427 348.773 249.66 354.182C259.893 359.592 242.342 383.551 242.342 383.551C242.342 383.551 257.699 360.266 265.828 369.736C273.957 379.205 247.872 390.713 247.872 390.713L232.515 392.121Z" stroke="#3B1D05" stroke-width="2" stroke-linecap="round" stroke-linejoin="round"/>
<path d="M111.81 397.98C111.81 397.98 83.1098 397.081 80.2548 388.331C77.3999 379.58 98.2863 385.409 98.2863 385.409C98.2863 385.409 74.049 378.321 76.1376 367.908C78.2263 357.494 94.9504 372.912 94.9504 372.912C94.9504 372.912 85.3337 351.65 95.7769 352.474C106.22 353.298 103.636 373.317 103.636 373.317C103.636 373.317 108.234 357.898 114.154 364.147C120.074 370.395 108.714 382.906 108.714 382.906C108.714 382.906 120.841 367.923 124.176 375.414C127.512 382.906 111.81 397.98 111.81 397.98Z" fill="#FFB843"/>
<g style="mix-blend-mode:multiply" opacity="0.32">
<path d="M111.149 396.931C101.156 396.482 90.1871 394.024 89.1353 390.938C89.1353 390.788 89.1353 390.668 89.0451 390.593C89.8371 390.301 90.6819 390.178 91.5245 390.233C93.8023 390.303 96.0674 390.599 98.2863 391.117C98.9049 391.256 99.5534 391.154 100.098 390.83C100.643 390.507 101.044 389.988 101.216 389.379V389.379C101.385 388.783 101.325 388.145 101.047 387.591C100.769 387.036 100.294 386.606 99.7137 386.383C93.7934 384.285 85.1083 379.999 85.9197 375.894C86.115 374.935 86.3254 374.935 86.671 374.935C88.6695 374.935 92.426 377.407 95.266 379.715C95.7751 380.113 96.3996 380.337 97.0467 380.354C97.6937 380.37 98.3288 380.177 98.8572 379.805V379.805C99.3847 379.416 99.77 378.866 99.9545 378.238C100.139 377.61 100.112 376.94 99.879 376.328C98.1961 371.953 97.1593 367.143 98.0759 365.72C98.0759 365.645 98.2261 365.495 98.7821 365.495H99.0526C99.4973 365.517 99.9316 365.637 100.324 365.847C100.716 366.057 101.057 366.352 101.322 366.709C103.245 369.046 103.5 373.931 103.38 377.197C103.352 377.84 103.555 378.472 103.951 378.98C104.348 379.488 104.912 379.839 105.544 379.969V379.969C106.153 380.087 106.784 379.991 107.332 379.699C107.879 379.407 108.309 378.937 108.549 378.366C109.601 375.789 110.938 373.796 111.63 373.646C111.63 373.646 111.81 373.766 112.11 374.081C113.748 375.834 112.231 379.685 109.721 383.281C109.353 383.793 109.192 384.424 109.27 385.049C109.348 385.674 109.659 386.246 110.142 386.652V386.652C110.637 387.058 111.268 387.264 111.908 387.228C112.548 387.191 113.152 386.917 113.598 386.457C116.333 383.64 118.572 382.157 119.608 382.142C119.658 382.225 119.703 382.31 119.744 382.397C120.901 385.199 115.506 392.451 111.149 396.931Z" fill="#FFB843"/>
</g>
<path d="M98.5718 376.868L111.81 397.98" stroke="#3B1D05" stroke-width="2" stroke-linecap="round" stroke-linejoin="round"/>
<path d="M111.81 397.98C111.81 397.98 83.1098 397.081 80.2548 388.331C77.3999 379.58 98.2863 385.409 98.2863 385.409C98.2863 385.409 74.049 378.321 76.1376 367.908C78.2263 357.494 94.9504 372.912 94.9504 372.912C94.9504 372.912 85.3337 351.65 95.7769 352.474C106.22 353.298 103.636 373.317 103.636 373.317C103.636 373.317 108.234 357.898 114.154 364.147C120.074 370.395 108.714 382.906 108.714 382.906C108.714 382.906 120.841 367.923 124.176 375.414C127.512 382.906 111.81 397.98 111.81 397.98Z" stroke="#3B1D05" stroke-width="2" stroke-linecap="round" stroke-linejoin="round"/>
<path d="M423.859 389.469C423.859 389.469 451.672 382.322 452.604 373.137C453.535 363.952 434.422 374.231 434.422 374.231C434.422 374.231 456.526 362.004 452.183 352.294C447.84 342.585 434.933 361.285 434.933 361.285C434.933 361.285 439.636 338.449 429.629 341.551C419.621 344.653 426.458 363.622 426.458 363.622C426.458 363.622 418.584 349.582 414.242 356.954C409.899 364.326 423.693 374.066 423.693 374.066C423.693 374.066 408.562 362.079 406.954 370.14C405.346 378.201 423.859 389.469 423.859 389.469Z" fill="#FFB843"/>
<g style="mix-blend-mode:multiply" opacity="0.32">
<path d="M424.339 388.286C433.986 385.663 444.159 380.869 444.49 377.602C444.49 377.437 444.49 377.317 444.49 377.242C443.649 377.137 442.795 377.203 441.98 377.437C439.776 378.01 437.633 378.792 435.579 379.775C435.007 380.039 434.356 380.078 433.757 379.884C433.158 379.689 432.654 379.275 432.348 378.726C432.043 378.173 431.959 377.524 432.116 376.912C432.272 376.3 432.656 375.77 433.19 375.429C438.509 372.088 446.037 366.005 444.339 362.184C443.934 361.285 443.738 361.33 443.408 361.405C441.454 361.854 438.329 365.076 436.06 367.953C435.652 368.455 435.092 368.813 434.464 368.972C433.836 369.131 433.173 369.084 432.574 368.837C431.973 368.572 431.475 368.117 431.158 367.544C430.84 366.97 430.72 366.308 430.816 365.66C431.492 361.03 431.447 356.1 430.245 354.917C430.17 354.917 430.049 354.737 429.509 354.917L429.238 354.991C428.809 355.108 428.412 355.317 428.074 355.604C427.736 355.892 427.467 356.251 427.285 356.655C425.932 359.367 426.759 364.147 427.6 367.323C427.764 367.942 427.703 368.599 427.428 369.178C427.153 369.757 426.682 370.219 426.098 370.485C425.526 370.754 424.878 370.813 424.268 370.651C423.657 370.489 423.124 370.117 422.762 369.601C421.169 367.308 419.426 365.675 418.72 365.675C418.72 365.675 418.569 365.825 418.344 366.199C417.142 368.267 419.471 371.698 422.702 374.65C423.169 375.073 423.461 375.655 423.52 376.282C423.578 376.909 423.399 377.535 423.017 378.037V378.037C422.628 378.547 422.057 378.889 421.423 378.993C420.788 379.096 420.138 378.952 419.606 378.591C416.331 376.448 413.821 375.504 412.875 375.699C412.84 375.786 412.815 375.877 412.799 375.969C412.183 378.996 419.035 384.884 424.339 388.286Z" fill="#FFB843"/>
</g>
<path d="M432.123 365.99L423.859 389.484" stroke="#3B1D05" stroke-width="2" stroke-linecap="round" stroke-linejoin="round"/>
<path d="M423.859 389.469C423.859 389.469 451.672 382.322 452.604 373.137C453.535 363.952 434.422 374.231 434.422 374.231C434.422 374.231 456.526 362.004 452.183 352.294C447.84 342.585 434.933 361.285 434.933 361.285C434.933 361.285 439.636 338.449 429.629 341.551C419.621 344.653 426.458 363.622 426.458 363.622C426.458 363.622 418.584 349.582 414.242 356.954C409.899 364.326 423.693 374.066 423.693 374.066C423.693 374.066 408.562 362.079 406.954 370.14C405.346 378.201 423.859 389.469 423.859 389.469Z" stroke="#3B1D05" stroke-width="2" stroke-linecap="round" stroke-linejoin="round"/>
<path d="M90 8C90 11.866 86.866 15 83 15C79.134 15 76 11.866 76 8C76 4.13401 79.134 1 83 1C86.866 1 90 4.13401 90 8Z" stroke="#66CAC7" stroke-width="2"/>
</svg>
