<svg width="10" height="14" viewBox="0 0 10 14" fill="none" xmlns="http://www.w3.org/2000/svg">
<path d="M9.25999 5.57738C9.25999 8.34405 6.55999 11.6707 5.45999 12.9107C5.21332 13.184 4.78666 13.184 4.53999 12.9107C3.43999 11.6707 0.73999 8.34405 0.73999 5.57738C0.73999 3.22405 2.64666 1.31738 4.99999 1.31738C7.35332 1.31738 9.25999 3.22405 9.25999 5.57738Z" stroke="white" stroke-opacity="0.6" stroke-width="1.2" stroke-miterlimit="10" stroke-linecap="round" stroke-linejoin="round"/>
<path d="M4.99335 7.28394C5.93591 7.28394 6.70002 6.51984 6.70002 5.57727C6.70002 4.63471 5.93591 3.87061 4.99335 3.87061C4.05078 3.87061 3.28668 4.63471 3.28668 5.57727C3.28668 6.51984 4.05078 7.28394 4.99335 7.28394Z" stroke="white" stroke-opacity="0.6" stroke-width="1.2" stroke-miterlimit="10" stroke-linecap="round" stroke-linejoin="round"/>
</svg>
