<svg width="77" height="77" viewBox="0 0 77 77" fill="none" xmlns="http://www.w3.org/2000/svg">
<path d="M59.6364 26.9257C60.2048 26.7476 60.7547 26.5029 61.2642 26.1791C62.7938 25.2049 63.8533 23.6932 64.245 21.9228C64.6385 20.1524 64.3178 18.3347 63.3436 16.8053C62.3693 15.2758 60.8576 14.2179 59.0872 13.8261C57.3168 13.4327 55.5007 13.7549 53.9698 14.7276C53.6275 14.9452 53.3115 15.193 53.018 15.4625L45.5772 2.57337C44.8918 1.3846 43.7804 0.535087 42.4492 0.178817C41.1172 -0.178205 39.7293 0.00301723 38.5422 0.689945C37.0909 1.52867 36.2073 2.97308 36.0136 4.52028C36.0012 4.53577 35.9849 4.54739 35.9741 4.56365L19.7959 26.9886L2.89897 37.3398C-0.0794584 39.1652 -0.828477 43.4317 1.23158 46.8516L7.943 58.0005C9.02257 59.7941 10.7263 61.0873 12.6183 61.5497C13.1217 61.6728 13.6266 61.7332 14.1231 61.7332C15.1902 61.7332 16.2178 61.4521 17.114 60.903L18.1355 60.278L26.5204 74.239C27.1639 75.3092 28.187 76.0628 29.4013 76.3585C29.7707 76.4484 30.1432 76.4933 30.5126 76.4933C31.3598 76.4933 32.1939 76.2602 32.9335 75.8048L35.5666 74.1862C37.7551 72.8418 38.4591 69.9562 37.1371 67.7537L28.7437 53.7781L34.3762 50.3273C34.545 50.2243 34.6844 50.0918 34.8021 49.9455L59.4813 46.4698C60.3866 47.1652 61.4987 47.5416 62.631 47.5416C63.5046 47.5416 64.3882 47.3194 65.1966 46.8531C67.6562 45.4336 68.5012 42.2777 67.0816 39.8182L59.6364 26.9257ZM55.7711 17.5541C56.5464 17.06 57.4656 16.8981 58.3624 17.0971C59.2584 17.2954 60.0235 17.8313 60.5168 18.605C61.5352 20.2034 61.0628 22.3324 59.4644 23.3509C58.9842 23.6568 58.439 23.8372 57.8791 23.8791L54.7805 18.5114C55.0392 18.1319 55.3745 17.8067 55.771 17.5542L55.7711 17.5541ZM33.8101 71.3295L31.1763 72.9481C30.8804 73.1309 30.5319 73.1835 30.1943 73.1022C29.8559 73.0193 29.5709 72.811 29.392 72.5128L21.1046 58.7137L25.992 55.7097L34.2608 69.4793C34.6364 70.1027 34.4288 70.95 33.81 71.3295L33.8101 71.3295ZM34.1067 46.6583L23.0229 28.2451L37.176 8.62454L57.2535 43.3989L34.1067 46.6583ZM15.3621 58.045C14.6628 58.4733 13.9154 58.4168 13.412 58.2929C12.382 58.0412 11.4349 57.3047 10.8131 56.2716L4.10164 45.1228C3.00736 43.3044 3.2575 41.05 4.64917 40.1981L20.4725 30.5051L31.2078 48.3389L15.3621 58.045ZM64.3535 42.8581C64.2289 43.3251 63.9322 43.7123 63.5195 43.9516C62.6622 44.448 61.5594 44.1522 61.0636 43.2933L39.5606 6.04863C39.0642 5.18978 39.36 4.08852 40.2189 3.59281C40.493 3.4356 40.7982 3.35506 41.108 3.35506C41.2652 3.35506 41.4255 3.3752 41.5827 3.41857C42.0497 3.54326 42.4369 3.83987 42.6762 4.25264L64.1792 41.4973C64.4162 41.9062 64.4789 42.3918 64.3542 42.858L64.3535 42.8581ZM65.2627 13.4208L69.4866 10.9828C70.2889 10.5197 71.3143 10.7946 71.7759 11.597C72.239 12.3993 71.9641 13.4231 71.1618 13.8862L66.9379 16.3242C66.6738 16.4768 66.3865 16.5488 66.1015 16.5488C65.5222 16.5488 64.9584 16.2483 64.6478 15.7101C64.1855 14.9085 64.4612 13.8832 65.2627 13.4208H65.2627ZM61.5926 8.06327L64.1923 3.93713C64.6864 3.15417 65.7203 2.91874 66.5032 3.41284C67.2862 3.90693 67.5216 4.94081 67.0275 5.72373L64.4278 9.84987C64.1095 10.3548 63.5643 10.6328 63.0082 10.6328C62.7023 10.6328 62.3941 10.5492 62.1168 10.3742C61.3339 9.88161 61.0984 8.84619 61.5925 8.06327H61.5926ZM76.2264 20.2522C76.2628 21.1776 75.541 21.9559 74.6163 21.9908L69.7427 22.179C69.7211 22.1797 69.6986 22.1797 69.6769 22.1797C68.7809 22.1797 68.039 21.4704 68.0033 20.5689C67.9685 19.6434 68.6887 18.8651 69.6134 18.8303L74.487 18.6421C75.4024 18.5995 76.19 19.3275 76.2264 20.2522Z" fill="black"/>
</svg>
