<svg width="94" height="73" viewBox="0 0 94 73" fill="none" xmlns="http://www.w3.org/2000/svg">
<path d="M88.9662 39.9649C91.6754 37.037 93.3333 33.1228 93.3333 28.8284C93.3333 19.777 85.9695 12.4141 76.919 12.4141C67.8675 12.4141 60.5047 19.7778 60.5047 28.8284C60.5047 33.1228 62.1632 37.0356 64.8717 39.9649C62.4063 40.3188 60.5047 42.4446 60.5047 45.0064V47.6505C60.5047 49.0563 61.0765 50.3298 61.9995 51.2522C61.9989 51.2528 61.9975 51.2542 61.9968 51.2549C61.0732 50.3325 59.7996 49.76 58.3937 49.76H35.7542C32.9459 49.76 30.6597 52.0448 30.6597 54.8545V57.4986C30.6597 58.9044 31.2316 60.1779 32.1546 61.1003C32.1539 61.1009 32.1525 61.1023 32.1519 61.103C31.2289 60.18 29.9547 59.6081 28.5495 59.6081L5.90997 59.6088C3.10163 59.6088 0.81543 61.8936 0.81543 64.7033V67.3474C0.81543 70.1571 3.10024 72.4419 5.90997 72.4419H28.5512C29.9571 72.4419 31.2305 71.87 32.1536 70.947C33.0766 71.8707 34.3508 72.4419 35.7553 72.4419H58.3965C59.8024 72.4419 61.0759 71.87 61.9989 70.947C62.9219 71.87 64.1961 72.4419 65.6013 72.4419H88.2426C91.0523 72.4419 93.3371 70.1571 93.3371 67.3474V64.7033C93.3371 63.2974 92.7652 62.024 91.8422 61.1009C92.7652 60.1779 93.3371 58.9037 93.3371 57.4992V54.8552C93.3371 53.4493 92.7652 52.1759 91.8422 51.2528C92.7652 50.3298 93.3371 49.0556 93.3371 47.6511V45.0071C93.3351 42.4432 91.4334 40.3187 88.9679 39.9649L88.9662 39.9649ZM76.919 15.3972C84.324 15.3972 90.3497 21.4214 90.3497 28.8279C90.3497 36.2337 84.3254 42.2586 76.919 42.2586C69.5132 42.2586 63.4883 36.2344 63.4883 28.8279C63.4883 21.4221 69.5132 15.3972 76.919 15.3972ZM33.6429 54.8533C33.6429 53.6899 34.589 52.7438 35.7525 52.7438H58.3937C59.5572 52.7438 60.5033 53.6899 60.5033 54.8533V57.4974C60.5033 58.6608 59.5572 59.6069 58.3937 59.6069L35.7542 59.6076C34.5908 59.6076 33.6447 58.6615 33.6447 57.498V54.8533L33.6429 54.8533ZM28.5484 69.4562H5.9089C4.74547 69.4562 3.79935 68.5102 3.79935 67.3467V64.7027C3.79935 63.5392 4.74544 62.5931 5.9089 62.5931H28.5501C29.7136 62.5931 30.6597 63.5392 30.6597 64.7027V67.3467C30.6597 68.5101 29.7136 69.4562 28.5487 69.4562H28.5484ZM58.393 69.4562H35.7535C34.5901 69.4562 33.644 68.5102 33.644 67.3467V64.7027C33.644 63.5392 34.5901 62.5931 35.7535 62.5931H58.3948C59.5582 62.5931 60.5043 63.5392 60.5043 64.7027V67.3467C60.5043 68.5101 59.5569 69.4562 58.3934 69.4562H58.393ZM90.3484 67.3467C90.3484 68.5101 89.4023 69.4562 88.2389 69.4562H65.5994C64.436 69.4562 63.4898 68.5102 63.4898 67.3467V64.7027C63.4898 63.5392 64.4359 62.5931 65.5994 62.5931H88.2406C89.4041 62.5931 90.3502 63.5392 90.3502 64.7027V67.3467H90.3484ZM90.3484 57.4974C90.3484 58.6608 89.4023 59.6069 88.2389 59.6069L65.5994 59.6076C64.436 59.6076 63.4898 58.6615 63.4898 57.498V54.854C63.4898 53.6906 64.4359 52.7445 65.5994 52.7445H88.2406C89.4041 52.7445 90.3502 53.6905 90.3502 54.854V57.4973L90.3484 57.4974ZM90.3484 47.6492C90.3484 48.8127 89.4023 49.7588 88.2389 49.7588H65.5994C64.436 49.7588 63.4898 48.8127 63.4898 47.6492V45.0052C63.4898 43.8418 64.4359 42.8956 65.5994 42.8956H68.4696C70.9391 44.3844 73.831 45.2429 76.9193 45.2429C80.0076 45.2429 82.8995 44.3851 85.369 42.8956H88.2392C89.4026 42.8956 90.3488 43.8417 90.3488 45.0052L90.3484 47.6492ZM70.6838 33.2024C70.4848 32.403 70.9711 31.5928 71.7712 31.3939C72.5713 31.1942 73.3808 31.6811 73.5805 32.4812C73.9955 34.1479 75.7246 34.6981 77.0789 34.6688C78.2491 34.6403 79.378 34.2267 79.8872 33.6392C80.1569 33.3281 80.2567 32.9655 80.1997 32.5009C80.1025 31.7036 79.6162 30.7269 76.6924 30.246C72.2634 29.5186 71.2284 27.2033 71.14 25.3898C71.0185 22.8905 72.7402 20.7993 75.427 20.1765V19.3846C75.427 18.5601 76.0953 17.8925 76.9191 17.8925C77.7429 17.8925 78.4112 18.5608 78.4112 19.3846V20.1636C80.1567 20.5467 81.8199 21.6504 82.6881 23.7165C83.0073 24.4765 82.6494 25.3513 81.8901 25.6697C81.1301 25.9883 80.2553 25.6324 79.9368 24.8717C79.2332 23.1955 77.5115 22.7628 76.1185 23.0793C75.7714 23.1581 74.0423 23.6328 74.1204 25.2445C74.1407 25.6737 74.1964 26.8113 77.1752 27.3003C80.8305 27.9007 82.8449 29.5286 83.1623 32.1401C83.3205 33.4435 82.9687 34.6374 82.1448 35.5897C81.2959 36.5704 79.9518 37.2584 78.4127 37.5268V38.2691C78.4127 39.0936 77.7444 39.7612 76.9206 39.7612C76.0967 39.7612 75.4285 39.0929 75.4285 38.2691V37.5023C73.0567 37.0221 71.2385 35.4261 70.6837 33.2025L70.6838 33.2024ZM11.1493 46.1258C10.8104 45.3739 11.1452 44.491 11.8971 44.152C34.1332 34.1321 53.2866 20.7232 68.8844 4.27341L65.4613 4.76445C64.6449 4.88127 63.889 4.31484 63.7729 3.49983C63.6561 2.68414 64.2225 1.92753 65.0388 1.81141L72.6293 0.722014C73.0735 0.658851 73.5197 0.797402 73.8504 1.09964C74.1798 1.40188 74.3564 1.83723 74.3313 2.28345L73.9 9.93908C73.8552 10.733 73.197 11.347 72.4112 11.347C72.3827 11.347 72.3542 11.3463 72.3263 11.345C71.5039 11.2981 70.8743 10.5945 70.9205 9.77065L71.1181 6.25727C55.2362 23.0228 35.7444 36.6774 13.1223 46.8731C12.9233 46.9621 12.7148 47.0049 12.5097 47.0049C11.9406 47.0049 11.3972 46.6782 11.1486 46.1253L11.1493 46.1258Z" fill="black"/>
</svg>
