<svg width="78" height="74" viewBox="0 0 78 74" fill="none" xmlns="http://www.w3.org/2000/svg">
<path d="M70.8549 0H6.55276C3.1006 0 0.303711 2.80553 0.303711 6.24905V51.5611C0.303711 55.0051 3.10869 57.8101 6.55276 57.8101H27.2805L23.5535 63.9301H17.9591C16.0267 63.9301 14.4588 65.4987 14.4588 67.4225V69.5246C14.4588 71.4488 16.0274 73.0169 17.9591 73.0169H59.4393C61.3636 73.0169 62.9316 71.4483 62.9316 69.5246V67.4225C62.9316 65.4982 61.363 63.9301 59.4393 63.9301H53.8448L50.1178 57.8101H70.8456C74.2897 57.8101 77.0947 55.0051 77.0947 51.5611L77.0957 6.24905C77.1038 2.80553 74.3068 0 70.8546 0H70.8549ZM55.3167 66.3237H59.4475C60.0459 66.3237 60.5388 66.8171 60.5388 67.4149V69.517C60.5388 70.1235 60.054 70.6083 59.4475 70.6083H17.9591C17.3607 70.6083 16.8598 70.1069 16.8598 69.517V67.4149C16.8598 66.8245 17.3612 66.3237 17.9591 66.3237H55.3167ZM51.0481 63.9307H26.3596L30.0866 57.8107H47.3227L51.0481 63.9307ZM74.7025 51.562C74.7025 53.6802 72.9727 55.4101 70.8544 55.4101H6.55221C4.43404 55.4101 2.70412 53.6883 2.70412 51.562V47.2452H74.7096V51.562H74.7025ZM74.7025 44.8437H2.70522V6.25029C2.70522 4.13211 4.435 2.40219 6.55331 2.40219H70.8637C72.9819 2.40219 74.7118 4.12402 74.7118 6.25029V44.8437H74.7025ZM44.6463 37.8108H42.1804V24.8599H33.4333V37.8108H30.9841V19.468H22.2289V37.8108H19.771V12.3132H11.0078V37.8108H8.54202C7.87935 37.8108 7.34576 38.3444 7.34576 39.0071C7.34576 39.6698 7.88737 40.2034 8.54202 40.2034H44.6463C45.3089 40.2034 45.8425 39.6698 45.8425 39.0071C45.8425 38.3444 45.3089 37.8108 44.6463 37.8108ZM17.3617 37.8108H13.4087V14.7146H17.3617V37.8108ZM28.5748 37.8108H24.6217L24.6212 21.868H28.5742L28.5748 37.8108ZM39.7792 37.8108H35.8262V27.2604H39.7792V37.8108ZM28.0411 16.9857H25.64V10.2272H39.3913V12.6283L28.0411 12.6288V16.9857ZM50.9275 10.2196H68.859V12.6207L50.9275 12.6202V10.2196ZM50.9275 17.1234H68.859V19.5245H50.9275V17.1234ZM50.9275 24.0191H68.859V26.4202H50.9275V24.0191ZM50.9275 30.9147H68.859V33.3158H50.9275V30.9147ZM50.9275 37.811H68.859V40.2121L50.9275 40.2115V37.811Z" fill="black"/>
</svg>
