<svg width="125" height="125" viewBox="0 0 125 125" fill="none" xmlns="http://www.w3.org/2000/svg">
<path d="M62.9614 124.983C97.2031 124.983 124.961 97.2246 124.961 62.9829C124.961 28.7413 97.2031 0.98291 62.9614 0.98291C28.7198 0.98291 0.961426 28.7413 0.961426 62.9829C0.961426 97.2246 28.7198 124.983 62.9614 124.983Z" fill="#EBFCF5"/>
<path fill-rule="evenodd" clip-rule="evenodd" d="M25.4814 40.014C25.4806 40.014 25.4799 40.0147 25.4799 40.0155V77.0038C25.4799 77.5561 25.9276 78.0038 26.4799 78.0038H43.1187C43.4723 78.0038 43.7954 77.8138 43.9979 77.5239C45.2234 75.769 47.1195 74.6761 49.3277 74.6761C51.5232 74.6761 53.4873 75.8331 54.6562 77.5134C54.8612 77.808 55.1876 78.0038 55.5465 78.0038H76.7975C77.3498 78.0038 77.7975 77.5561 77.7975 77.0038V41.014C77.7975 40.4618 77.3498 40.014 76.7975 40.014H25.4814ZM35.6608 52.7694C36.0938 52.7694 36.4776 52.4907 36.6117 52.079L37.2544 50.1046C37.4648 49.4583 36.9831 48.795 36.3035 48.795H33.8686C33.4864 48.795 33.1377 49.0128 32.97 49.3562L32.0057 51.3306C31.6813 51.9949 32.165 52.7694 32.9043 52.7694H35.6608ZM42.3922 52.7694C42.8755 52.7694 43.2896 52.4238 43.3761 51.9483L43.752 49.8814C43.8636 49.2675 43.392 48.7025 42.7681 48.7025H40.0761C39.6406 48.7025 39.2552 48.9843 39.1231 49.3993L38.4656 51.4662C38.2604 52.1112 38.7417 52.7694 39.4185 52.7694H42.3922ZM49.2736 52.7695C49.8172 52.7694 50.2612 52.3351 50.2733 51.7917L50.3209 49.6521C50.3335 49.0837 49.8703 48.6192 49.3019 48.6301L46.3681 48.6865C45.8867 48.6958 45.4802 49.0469 45.401 49.5219L44.9829 52.0302C44.889 52.4058 45.1731 52.7697 45.5603 52.7697L49.2736 52.7695ZM56.2266 52.7694C56.8314 52.7694 57.2978 52.2367 57.2178 51.6372L56.9299 49.4779C56.8636 48.9811 56.4398 48.6101 55.9386 48.6101H52.9152C52.363 48.6101 51.9152 49.0578 51.9018 49.6099C51.8843 50.3298 51.8538 51.0497 51.8363 51.7695C51.8228 52.3216 52.2705 52.7694 52.8228 52.7694H56.2266ZM63.2566 52.7694C63.9198 52.7694 64.3993 52.1356 64.2189 51.4974L63.5864 49.2597C63.4628 48.8225 63.0599 48.5235 62.6056 48.5319L59.5062 48.5893C58.9089 48.6004 58.4545 49.1292 58.5335 49.7213L58.8243 51.9016C58.8905 52.3984 59.3143 52.7694 59.8155 52.7694L63.2566 52.7694ZM66.0264 52.0605C66.1545 52.4816 66.5429 52.7694 66.9831 52.7694H70.4173C71.1453 52.7694 71.6293 52.0164 71.327 51.3541L70.299 49.1024C70.1364 48.7462 69.7809 48.5176 69.3893 48.5176H66.2978C65.6263 48.5176 65.1457 49.1663 65.3412 49.8088L66.0264 52.0605ZM89.9045 76.2465C87.2239 76.2465 85.098 78.4648 85.098 81.1454C85.098 83.8259 87.2239 85.9518 89.9045 85.9518C92.585 85.9518 94.8033 83.8259 94.8033 81.1454C94.8033 78.4648 92.585 76.2465 89.9045 76.2465ZM100.442 66.9864C100.442 66.4341 99.9941 65.9864 99.4418 65.9864H80.3678C79.8155 65.9864 79.3678 66.4341 79.3678 66.9864V77.0029C79.3678 77.5551 79.8155 78.0029 80.3678 78.0029H83.6961C84.0497 78.0029 84.3726 77.8127 84.5764 77.5237C85.814 75.7683 87.7814 74.6752 89.9051 74.6752C92.1018 74.6752 94.0669 75.7563 95.2356 77.4954C95.4397 77.7992 95.7712 78.0029 96.1372 78.0029H99.4424C99.9947 78.0029 100.442 77.5551 100.442 77.0028L100.442 66.9864ZM80.3587 51.2806C79.81 51.2855 79.3678 51.7318 79.3678 52.2805V63.4154C79.3678 63.9677 79.8155 64.4154 80.3678 64.4154H97.5912C98.4188 64.4154 98.8882 63.4674 98.3865 62.8092L89.8392 51.5957C89.6481 51.345 89.3501 51.1991 89.0349 51.202L80.3587 51.2806ZM33.614 66.8348C33.614 67.387 34.0618 67.8348 34.614 67.8348H68.7544C69.3067 67.8348 69.7544 67.3871 69.7544 66.8348V55.3394C69.7544 54.7871 69.3067 54.3394 68.7544 54.3394H34.614C34.0618 54.3394 33.614 54.7871 33.614 55.3394V66.8348ZM44.521 81.1448C44.521 83.8254 46.647 85.9513 49.3275 85.9513C52.0081 85.9513 54.2264 83.8254 54.2264 81.1448C54.2264 78.4643 52.0081 76.246 49.3275 76.246C46.647 76.246 44.521 78.4643 44.521 81.1448ZM70.4944 69.4058H32.782C32.4122 69.4058 32.0424 69.1284 32.0424 68.6662V55.3388C32.0424 54.7865 31.5947 54.3388 31.0424 54.3388H30.1014C29.4782 54.3388 29.1122 53.7386 29.4162 53.1988C29.4399 53.1567 29.4647 53.115 29.4854 53.0713L32.0424 47.6833C32.1348 47.406 32.4122 47.2211 32.6895 47.2211L70.494 46.9437C70.8343 46.9437 71.018 47.1002 71.1892 47.3412C71.2194 47.3838 71.2446 47.4298 71.2664 47.4772L73.9142 53.2293C74.1915 53.784 73.8217 54.3387 73.1746 54.3387H72.326C71.7737 54.3387 71.326 54.7864 71.326 55.3387V68.6661C71.326 69.1283 70.9566 69.4058 70.4944 69.4058Z" fill="#39D192"/>
</svg>
