<svg width="125" height="125" viewBox="0 0 125 125" fill="none" xmlns="http://www.w3.org/2000/svg">
<path d="M62.1184 124.368C96.3601 124.368 124.118 96.6093 124.118 62.3677C124.118 28.126 96.3601 0.367676 62.1184 0.367676C27.8768 0.367676 0.118408 28.126 0.118408 62.3677C0.118408 96.6093 27.8768 124.368 62.1184 124.368Z" fill="#EBFCF5"/>
<path d="M66.1945 52.6069H64.8695V55.4224L66.1945 56.6365V52.6069Z" fill="#39D192"/>
<path d="M88.4302 81.0258C88.4302 80.3818 88.9524 79.8596 89.5964 79.8596H90.7625C90.8864 79.8643 91.0088 79.8888 91.1249 79.933C91.2415 79.4702 91.3029 78.9954 91.3076 78.5185V70.5069H83.1444C80.2967 70.5069 77.6655 68.9878 76.2416 66.5216C74.8177 64.0554 74.8177 61.0171 76.2416 58.551C77.6655 56.0848 80.2967 54.5652 83.1444 54.5652H91.3076V46.2156C91.3029 45.7388 91.2415 45.264 91.1249 44.8012C91.0088 44.8454 90.8864 44.8699 90.7625 44.8746H89.5964C88.9524 44.8746 88.4302 44.3524 88.4302 43.7084C88.4302 43.0644 88.9524 42.5422 89.5964 42.5422H90.0378C88.9024 41.0465 87.1333 40.1662 85.2555 40.163H36.8012C34.9208 40.1671 33.1501 41.0464 32.0111 42.5422H32.4542C33.0982 42.5422 33.6203 43.0644 33.6203 43.7084C33.6203 44.3524 33.0982 44.8746 32.4542 44.8746H31.288C31.1625 44.8704 31.0381 44.8454 30.921 44.8006C30.8033 45.263 30.7419 45.7383 30.7372 46.2157V78.5194C30.7419 78.9968 30.8033 79.4721 30.9204 79.9349C31.0381 79.8896 31.1625 79.8646 31.288 79.8604H32.4542C33.0982 79.8604 33.6203 80.3826 33.6203 81.0266C33.6203 81.6706 33.0982 82.1928 32.4542 82.1928H32.0111C33.1502 83.6886 34.9208 84.5678 36.8012 84.5721H85.2555C87.1333 84.5689 88.9023 83.6886 90.0378 82.1928H89.5964C88.9524 82.1928 88.4302 81.6706 88.4302 81.0266V81.0258ZM83.0038 42.542H85.2013H85.2008C85.8448 42.542 86.3669 43.0642 86.3669 43.7082C86.3669 44.3522 85.8448 44.8744 85.2008 44.8744H83.0038C82.3593 44.8744 81.8377 44.3522 81.8377 43.7082C81.8377 43.0642 82.3593 42.542 83.0038 42.542H83.0038ZM76.4097 42.542H78.6077C79.2517 42.542 79.7738 43.0642 79.7738 43.7082C79.7738 44.3522 79.2517 44.8744 78.6077 44.8744H76.4097C75.7657 44.8744 75.2435 44.3522 75.2435 43.7082C75.2435 43.0642 75.7657 42.542 76.4097 42.542ZM63.2231 42.542H65.4211C66.0651 42.542 66.5873 43.0642 66.5873 43.7082C66.5873 44.3522 66.0651 44.8744 65.4211 44.8744H63.2231C62.5791 44.8744 62.0569 44.3522 62.0569 43.7082C62.0569 43.0642 62.5791 42.542 63.2231 42.542ZM56.6295 42.542H58.8275C59.4715 42.542 59.9937 43.0642 59.9937 43.7082C59.9937 44.3522 59.4715 44.8744 58.8275 44.8744H56.6295C55.9855 44.8744 55.4633 44.3522 55.4633 43.7082C55.4633 43.0642 55.9855 42.542 56.6295 42.542ZM50.0359 42.542H52.2344C52.8784 42.542 53.4006 43.0642 53.4006 43.7082C53.4006 44.3522 52.8784 44.8744 52.2344 44.8744H50.0364C49.3924 44.8744 48.8702 44.3522 48.8702 43.7082C48.8702 43.0642 49.3924 42.542 50.0364 42.542H50.0359ZM43.4422 42.542H45.6408C46.2848 42.542 46.8069 43.0642 46.8069 43.7082C46.8069 44.3522 46.2848 44.8744 45.6408 44.8744H43.4428C42.7988 44.8744 42.2766 44.3522 42.2766 43.7082C42.2766 43.0642 42.7988 42.542 43.4428 42.542H43.4422ZM39.0468 82.192H36.8498C36.2058 82.192 35.6836 81.6698 35.6836 81.0258C35.6836 80.3818 36.2058 79.8596 36.8498 79.8596H39.0478C39.6918 79.8596 40.214 80.3818 40.214 81.0258C40.214 81.6698 39.6918 82.192 39.0478 82.192H39.0468ZM39.0468 44.8744H36.8498C36.2058 44.8744 35.6836 44.3522 35.6836 43.7082C35.6836 43.0642 36.2058 42.542 36.8498 42.542H39.0478C39.6918 42.542 40.214 43.0642 40.214 43.7082C40.214 44.3522 39.6918 44.8744 39.0478 44.8744H39.0468ZM45.6404 82.192H43.4429C42.7989 82.192 42.2767 81.6698 42.2767 81.0258C42.2767 80.3818 42.7989 79.8596 43.4429 79.8596H45.6409C46.2849 79.8596 46.8071 80.3818 46.8071 81.0258C46.8071 81.6698 46.2849 82.192 45.6409 82.192H45.6404ZM52.234 82.192H50.0365C49.3925 82.192 48.8703 81.6698 48.8703 81.0258C48.8703 80.3818 49.3925 79.8596 50.0365 79.8596H52.2345C52.8785 79.8596 53.4007 80.3818 53.4007 81.0258C53.4007 81.6698 52.8785 82.192 52.2345 82.192H52.234ZM58.8276 82.192H56.6296C55.9856 82.192 55.4634 81.6698 55.4634 81.0258C55.4634 80.3818 55.9856 79.8596 56.6296 79.8596H58.8276C59.4716 79.8596 59.9938 80.3818 59.9938 81.0258C59.9938 81.6698 59.4716 82.192 58.8276 82.192ZM65.4212 82.192H63.2232C62.5792 82.192 62.057 81.6698 62.057 81.0258C62.057 80.3818 62.5792 79.8596 63.2232 79.8596H65.4212C66.0652 79.8596 66.5874 80.3818 66.5874 81.0258C66.5874 81.6698 66.0652 82.192 65.4212 82.192ZM68.3487 75.5958C68.3487 76.2398 67.8265 76.762 67.1825 76.762H45.393C44.749 76.762 44.2268 76.2398 44.2268 75.5958V63.5332H41.8565C41.3755 63.5332 40.9439 63.238 40.7695 62.7897C40.5951 62.3415 40.7138 61.8323 41.0683 61.5069L55.4995 48.2787C55.9457 47.8695 56.6298 47.8695 57.076 48.2787L62.5372 53.2848V51.4413C62.5372 50.7973 63.0594 50.2751 63.7034 50.2751H67.3603C67.6695 50.2751 67.9663 50.398 68.1849 50.6167C68.4036 50.8353 68.5265 51.1321 68.5265 51.4413V58.7746L71.5075 61.5073V61.5068C71.862 61.8322 71.9807 62.3414 71.8063 62.7896C71.6319 63.2379 71.2003 63.533 70.7193 63.533H68.3489L68.3487 75.5958ZM72.0143 82.192H69.8163C69.1723 82.192 68.6501 81.6698 68.6501 81.0258C68.6501 80.3818 69.1723 79.8596 69.8163 79.8596H72.0143C72.6583 79.8596 73.1805 80.3818 73.1805 81.0258C73.1805 81.6698 72.6583 82.192 72.0143 82.192ZM72.0143 44.8744H69.8163C69.1723 44.8744 68.6501 44.3522 68.6501 43.7082C68.6501 43.0642 69.1723 42.542 69.8163 42.542H72.0143C72.6583 42.542 73.1805 43.0642 73.1805 43.7082C73.1805 44.3522 72.6583 44.8744 72.0143 44.8744ZM78.6079 82.192H76.4099C75.7659 82.192 75.2438 81.6698 75.2438 81.0258C75.2438 80.3818 75.7659 79.8596 76.4099 79.8596H78.6079C79.2519 79.8596 79.7741 80.3818 79.7741 81.0258C79.7741 81.6698 79.2519 82.192 78.6079 82.192ZM85.2015 82.192H83.0041C82.3596 82.192 81.8379 81.6698 81.8379 81.0258C81.8379 80.3818 82.3596 79.8596 83.0041 79.8596H85.2015H85.201C85.845 79.8596 86.3672 80.3818 86.3672 81.0258C86.3672 81.6698 85.845 82.192 85.201 82.192H85.2015Z" fill="#39D192"/>
<path d="M44.854 61.2006H45.3929H45.3924C45.7016 61.2006 45.9984 61.3235 46.217 61.5422C46.4357 61.7608 46.5585 62.0576 46.5585 62.3668V74.4295H66.0157V62.3668C66.0157 61.7228 66.5378 61.2006 67.1818 61.2006H67.7207L56.287 50.7196L44.854 61.2006Z" fill="#39D192"/>
<path d="M93.127 56.8972H83.1443C81.1301 56.8972 79.2683 57.9723 78.2614 59.7168C77.254 61.4614 77.254 63.6105 78.2614 65.3551C79.2683 67.0997 81.1299 68.1742 83.1443 68.1742H93.127C93.3285 68.1742 93.4935 68.0143 93.4998 67.8129V57.2704C93.4987 57.0647 93.3321 56.8987 93.127 56.8971V56.8972ZM83.1495 64.559C82.6138 64.559 82.1004 64.3466 81.7219 63.9676C81.3435 63.5891 81.1305 63.0758 81.1305 62.5401C81.1305 62.0049 81.3435 61.491 81.7219 61.1125C82.1004 60.734 82.6137 60.5211 83.1495 60.5211C83.6847 60.5211 84.1985 60.7341 84.577 61.1125C84.9555 61.491 85.1684 62.0049 85.1684 62.5401C85.1684 63.0758 84.9555 63.5891 84.577 63.9676C84.1985 64.3466 83.6847 64.559 83.1495 64.559Z" fill="#39D192"/>
</svg>
