<svg width="112" height="112" viewBox="0 0 112 112" fill="none" xmlns="http://www.w3.org/2000/svg">
<mask id="mask0_1053_5788" style="mask-type:alpha" maskUnits="userSpaceOnUse" x="0" y="0" width="112" height="112">
<rect width="112" height="112" fill="#39D192"/>
</mask>
<g mask="url(#mask0_1053_5788)">
<path d="M105.021 62.2608C103.397 61.0073 101.738 59.7907 100.762 57.9765C95.8211 48.7905 106.115 38.0469 100.399 28.093C97.4968 23.0397 91.7758 19.3511 86.1998 21.4497C80.2499 23.6889 74.633 26.0267 68.2368 24.1745C57.0356 20.9302 51.2268 5.74902 39.0286 6.00317C29.0161 6.21175 17.8733 16.7585 23.6727 27.704C28.0602 35.9848 25.3179 42.8378 15.1719 44.2653C5.02586 45.6931 0.638354 57.6858 3.65458 62.8254C6.67108 67.9649 12.4299 73.3901 6.94528 75.6746C1.46096 77.9589 -0.458456 85.3829 0.0899493 90.5227C0.638355 95.6625 1.73516 97.6611 1.73516 97.6611H106.982C106.982 97.6611 111.422 91.951 111.971 78.8177C112.209 73.1248 111.031 67.5506 106.727 63.6576C106.185 63.1676 105.605 62.7119 105.021 62.2608Z" fill="#39D192"/>
<g opacity="0.699997">
<path d="M105.021 62.2608C103.397 61.0073 101.738 59.7907 100.762 57.9765C95.8211 48.7905 106.115 38.0469 100.399 28.093C97.4968 23.0397 91.7758 19.3511 86.1998 21.4497C80.2499 23.6889 74.633 26.0267 68.2368 24.1745C57.0356 20.9302 51.2268 5.74902 39.0286 6.00317C29.0161 6.21175 17.8733 16.7585 23.6727 27.704C28.0602 35.9848 25.3179 42.8378 15.1719 44.2653C5.02586 45.6931 0.638354 57.6858 3.65458 62.8254C6.67108 67.9649 12.4299 73.3901 6.94528 75.6746C1.46096 77.9589 -0.458456 85.3829 0.0899493 90.5227C0.638355 95.6625 1.73516 97.6611 1.73516 97.6611H106.982C106.982 97.6611 111.422 91.951 111.971 78.8177C112.209 73.1248 111.031 67.5506 106.727 63.6576C106.185 63.1676 105.605 62.7119 105.021 62.2608Z" fill="white"/>
</g>
<path d="M75.275 104.03C75.275 105.18 66.3563 106.113 55.3543 106.113C44.3523 106.113 35.4336 105.18 35.4336 104.03C35.4336 102.879 44.3523 101.947 55.3543 101.947C66.3563 101.947 75.275 102.879 75.275 104.03Z" fill="#39D192"/>
<g opacity="0.5">
<path d="M75.2789 104.03C75.2789 105.18 66.3602 106.113 55.3582 106.113C44.3563 106.113 35.4375 105.18 35.4375 104.03C35.4375 102.879 44.3563 101.947 55.3582 101.947C66.3602 101.947 75.2789 102.879 75.2789 104.03Z" fill="white"/>
</g>
<path d="M100.365 86.8166V83.6379H96.8198V77.4676H91.7233V52.4126H86.8488V67.5578H82.417V62.1355H76.4346V76.1586H73.997V80.6464H68.2358V78.9634H70.0086V78.0285H62.6966V79.1506H63.5827V84.0118H59.8157V74.8498H46.5209V81.3942H36.9931V76.5328H33.4478V81.9551H25.9141V72.045H22.8119V68.6799H17.2724V84.0118H11.7329V87.3772H8.1875V97.6613H107.234V86.8166H100.365Z" stroke="#263238" stroke-width="1.33333" stroke-miterlimit="10"/>
<path d="M19.452 73.1989H18.2539V72.0005H19.452V73.1989Z" fill="#263238"/>
<path d="M21.9481 73.1989H20.75V72.0005H21.9481V73.1989Z" fill="#263238"/>
<path d="M19.452 75.6951H18.2539V74.4967H19.452V75.6951Z" fill="#263238"/>
<path d="M21.9481 75.6951H20.75V74.4967H21.9481V75.6951Z" fill="#263238"/>
<path d="M24.6434 75.695H23.4453V74.4966H24.6434V75.695Z" fill="#263238"/>
<path d="M24.6434 78.191H23.4453V76.9926H24.6434V78.191Z" fill="#263238"/>
<path d="M24.6434 80.6872H23.4453V79.4888H24.6434V80.6872Z" fill="#263238"/>
<path d="M24.6434 83.1831H23.4453V81.985H24.6434V83.1831Z" fill="#263238"/>
<path d="M24.6434 85.6793H23.4453V84.4812H24.6434V85.6793Z" fill="#263238"/>
<path d="M24.6434 88.1755H23.4453V86.9774H24.6434V88.1755Z" fill="#263238"/>
<path d="M19.452 78.1909H18.2539V76.9926H19.452V78.1909Z" fill="#263238"/>
<path d="M21.9481 78.1909H20.75V76.9926H21.9481V78.1909Z" fill="#263238"/>
<path d="M19.452 80.6871H18.2539V79.4888H19.452V80.6871Z" fill="#263238"/>
<path d="M21.9481 80.6871H20.75V79.4888H21.9481V80.6871Z" fill="#263238"/>
<path d="M19.452 83.1831H18.2539V81.985H19.452V83.1831Z" fill="#263238"/>
<path d="M21.9481 83.1831H20.75V81.985H21.9481V83.1831Z" fill="#263238"/>
<path d="M19.452 85.6793H18.2539V84.4812H19.452V85.6793Z" fill="#263238"/>
<path d="M13.9601 87.0771H12.7617V85.879H13.9601V87.0771Z" fill="#263238"/>
<path d="M31.2335 84.3815H30.0352V83.1831H31.2335V84.3815Z" fill="#263238"/>
<path d="M33.6278 84.3815H32.4297V83.1831H33.6278V84.3815Z" fill="#263238"/>
<path d="M88.8465 55.0264H87.6484V53.8283H88.8465V55.0264Z" fill="#263238"/>
<path d="M90.3429 55.0264H89.1445V53.8283H90.3429V55.0264Z" fill="#263238"/>
<path d="M88.8465 57.5223H87.6484V56.3242H88.8465V57.5223Z" fill="#263238"/>
<path d="M90.3429 57.5223H89.1445V56.3242H90.3429V57.5223Z" fill="#263238"/>
<path d="M88.8465 60.0186H87.6484V58.8204H88.8465V60.0186Z" fill="#263238"/>
<path d="M90.3429 60.0186H89.1445V58.8204H90.3429V60.0186Z" fill="#263238"/>
<path d="M88.8465 62.5148H87.6484V61.3167H88.8465V62.5148Z" fill="#263238"/>
<path d="M90.3429 62.5148H89.1445V61.3167H90.3429V62.5148Z" fill="#263238"/>
<path d="M88.8465 65.011H87.6484V63.8129H88.8465V65.011Z" fill="#263238"/>
<path d="M90.3429 65.011H89.1445V63.8129H90.3429V65.011Z" fill="#263238"/>
<path d="M88.8465 67.5072H87.6484V66.3091H88.8465V67.5072Z" fill="#263238"/>
<path d="M90.3429 67.5072H89.1445V66.3091H90.3429V67.5072Z" fill="#263238"/>
<path d="M88.8465 70.0034H87.6484V68.8053H88.8465V70.0034Z" fill="#263238"/>
<path d="M90.3429 70.0034H89.1445V68.8053H90.3429V70.0034Z" fill="#263238"/>
<path d="M88.8465 72.4996H87.6484V71.3015H88.8465V72.4996Z" fill="#263238"/>
<path d="M90.3429 72.4996H89.1445V71.3015H90.3429V72.4996Z" fill="#263238"/>
<path d="M88.8465 74.9958H87.6484V73.7975H88.8465V74.9958Z" fill="#263238"/>
<path d="M90.3429 74.9958H89.1445V73.7975H90.3429V74.9958Z" fill="#263238"/>
<path d="M78.659 74.9958H77.4609V73.7975H78.659V74.9958Z" fill="#263238"/>
<path d="M81.257 74.9958H80.0586V73.7975H81.257V74.9958Z" fill="#263238"/>
<path d="M83.8546 74.9958H82.6562V73.7975H83.8546V74.9958Z" fill="#263238"/>
<path d="M78.659 80.3877H77.4609V79.1893H78.659V80.3877Z" fill="#263238"/>
<path d="M81.257 80.3877H80.0586V79.1893H81.257V80.3877Z" fill="#263238"/>
<path d="M83.8546 80.3877H82.6562V79.1893H83.8546V80.3877Z" fill="#263238"/>
<path d="M78.659 85.7793H77.4609V84.5809H78.659V85.7793Z" fill="#263238"/>
<path d="M81.257 85.7793H80.0586V84.5809H81.257V85.7793Z" fill="#263238"/>
<path d="M83.8546 85.7793H82.6562V84.5809H83.8546V85.7793Z" fill="#263238"/>
<path d="M88.8465 77.4921H87.6484V76.2937H88.8465V77.4921Z" fill="#263238"/>
<path d="M90.3429 77.4921H89.1445V76.2937H90.3429V77.4921Z" fill="#263238"/>
<path d="M88.8465 79.9883H87.6484V78.7899H88.8465V79.9883Z" fill="#263238"/>
<path d="M90.3429 79.9883H89.1445V78.7899H90.3429V79.9883Z" fill="#263238"/>
<path d="M88.8465 82.4845H87.6484V81.2861H88.8465V82.4845Z" fill="#263238"/>
<path d="M90.3429 82.4844H89.1445V81.2861H90.3429V82.4844Z" fill="#263238"/>
<path d="M92.839 79.9883H91.6406V78.7899H92.839V79.9883Z" fill="#263238"/>
<path d="M95.6359 79.9883H94.4375V78.7899H95.6359V79.9883Z" fill="#263238"/>
<path d="M92.839 82.3845H91.6406V81.1864H92.839V82.3845Z" fill="#263238"/>
<path d="M95.6359 82.3845H94.4375V81.1864H95.6359V82.3845Z" fill="#263238"/>
<path d="M92.839 84.7809H91.6406V83.5826H92.839V84.7809Z" fill="#263238"/>
<path d="M95.6359 84.7809H94.4375V83.5825H95.6359V84.7809Z" fill="#263238"/>
<path d="M92.839 87.1771H91.6406V85.9788H92.839V87.1771Z" fill="#263238"/>
<path d="M95.6359 87.1771H94.4375V85.9788H95.6359V87.1771Z" fill="#263238"/>
<path d="M88.8465 84.9807H87.6484V83.7823H88.8465V84.9807Z" fill="#263238"/>
<path d="M90.3429 84.9807H89.1445V83.7823H90.3429V84.9807Z" fill="#263238"/>
<path d="M88.8465 87.4768H87.6484V86.2784H88.8465V87.4768Z" fill="#263238"/>
<path d="M90.3429 87.4769H89.1445V86.2785H90.3429V87.4769Z" fill="#263238"/>
<path d="M21.9481 85.6793H20.75V84.4812H21.9481V85.6793Z" fill="#263238"/>
<path d="M19.452 88.1755H18.2539V86.9774H19.452V88.1755Z" fill="#263238"/>
<path d="M21.9481 88.1755H20.75V86.9774H21.9481V88.1755Z" fill="#263238"/>
<path d="M19.452 90.6718H18.2539V89.4736H19.452V90.6718Z" fill="#263238"/>
<path d="M21.9481 90.6718H20.75V89.4736H21.9481V90.6718Z" fill="#263238"/>
<path d="M19.452 93.168H18.2539V91.9699H19.452V93.168Z" fill="#263238"/>
<path d="M21.9481 93.168H20.75V91.9699H21.9481V93.168Z" fill="#263238"/>
<path d="M85.0512 92.72V97.6614H75.0664V87.839H85.0512V91.8409" stroke="#263238" stroke-width="1.33333" stroke-miterlimit="10"/>
<path d="M103.422 96.169V97.6611H93.4375V92.4692H95.4981" stroke="#263238" stroke-width="1.33333" stroke-miterlimit="10"/>
<path d="M96.7188 92.4692H103.426V95.3575" stroke="#263238" stroke-width="1.33333" stroke-miterlimit="10"/>
<path d="M29.8334 92.4692H36.926V97.6611H26.9414V92.4692H28.8866" stroke="#263238" stroke-width="1.33333" stroke-miterlimit="10"/>
<path d="M14.2071 92.4691H15.1553V97.661H11.4609V92.4691H13.4632" stroke="#263238" stroke-width="1.33333" stroke-miterlimit="10"/>
<path d="M80.8554 97.6611H79.2578V87.8388H80.8554V97.6611Z" stroke="#263238" stroke-width="1.33333" stroke-miterlimit="10"/>
<path d="M68.4476 89.1743H66.8789V86.5781H72.1708V89.1743H69.8678" stroke="#263238" stroke-width="1.33333" stroke-miterlimit="10"/>
<path d="M40.4189 86.9777H34.3281V84.7809H40.4189V86.9777Z" stroke="#263238" stroke-width="1.33333" stroke-miterlimit="10"/>
<path d="M37.8218 97.6611H37.2227V84.7809H37.8218V97.6611Z" stroke="#263238" stroke-width="1.33333" stroke-miterlimit="10"/>
<path d="M56.5059 56.5399C47.4454 56.5399 40.1006 49.195 40.1006 40.1346C40.1006 31.0742 47.4454 23.7293 56.5059 23.7293C65.5663 23.7293 72.9112 31.0742 72.9112 40.1346C72.9112 49.195 65.5663 56.5399 56.5059 56.5399ZM56.5059 6.54282C37.9536 6.54282 22.9141 21.5823 22.9141 40.1346C22.9141 56.8907 53.9018 96.3813 53.9018 96.3813H56.5059C56.5059 96.3813 90.0977 58.6869 90.0977 40.1346C90.0977 21.5823 75.0582 6.54282 56.5059 6.54282Z" fill="#263238"/>
<path d="M56.5059 56.5399C47.4454 56.5399 40.1006 49.195 40.1006 40.1346C40.1006 31.0742 47.4454 23.7293 56.5059 23.7293C65.5663 23.7293 72.9112 31.0742 72.9112 40.1346C72.9112 49.195 65.5663 56.5399 56.5059 56.5399ZM56.5059 6.54281C37.9536 6.54281 22.9141 21.5823 22.9141 40.1346C22.9141 56.8907 53.9018 96.3813 53.9018 96.3813H56.5059C56.5059 96.3813 90.0977 58.6869 90.0977 40.1346C90.0977 21.5823 75.0582 6.54281 56.5059 6.54281Z" stroke="#263238" stroke-width="1.33333" stroke-miterlimit="10" stroke-linecap="round" stroke-linejoin="round"/>
<path d="M53.9004 56.5399C44.84 56.5399 37.4951 49.195 37.4951 40.1346C37.4951 31.0742 44.84 23.7293 53.9004 23.7293C62.9608 23.7293 70.3057 31.0742 70.3057 40.1346C70.3057 49.195 62.9608 56.5399 53.9004 56.5399ZM53.9004 6.54282C35.3481 6.54282 20.3086 21.5823 20.3086 40.1346C20.3086 58.6869 53.9004 96.3813 53.9004 96.3813C53.9004 96.3813 87.4922 58.6869 87.4922 40.1346C87.4922 21.5823 72.4527 6.54282 53.9004 6.54282Z" fill="#39D192"/>
<path d="M53.9004 56.5399C44.84 56.5399 37.4951 49.195 37.4951 40.1346C37.4951 31.0742 44.84 23.7293 53.9004 23.7293C62.9608 23.7293 70.3057 31.0742 70.3057 40.1346C70.3057 49.195 62.9608 56.5399 53.9004 56.5399ZM53.9004 6.54281C35.3481 6.54281 20.3086 21.5823 20.3086 40.1346C20.3086 58.6869 53.9004 96.3813 53.9004 96.3813C53.9004 96.3813 87.4922 58.6869 87.4922 40.1346C87.4922 21.5823 72.4527 6.54281 53.9004 6.54281Z" stroke="#263238" stroke-width="1.33333" stroke-miterlimit="10" stroke-linecap="round" stroke-linejoin="round"/>
</g>
</svg>
