<svg width="112" height="109" viewBox="0 0 112 109" fill="none" xmlns="http://www.w3.org/2000/svg">
<path d="M100.534 20.9542C93.669 5.39049 77.1911 -0.46904 64.1898 9.97621C59.1146 14.0536 55.9451 20.5416 49.7289 23.1441C43.8976 25.5852 36.5077 24.8645 30.1999 26.1872C16.7693 29.0028 -1.3056 39.6316 0.0745435 55.9783C0.67991 63.1449 5.54298 71.1051 7.94348 77.8088C10.7068 85.5253 12.3667 95.1753 19.6626 99.7876C32.1849 107.705 47.289 101.232 58.5807 94.846C64.6478 91.415 67.9928 89.3048 74.5282 90.4812C80.5811 91.5703 86.0302 95.4192 91.9434 90.8636C96.3829 87.443 96.7488 80.5083 100.476 76.4378C104.676 71.8513 108.935 71.5188 111.116 64.6236C113.761 56.2601 109.864 51.0335 107.228 43.5594C104.605 36.1246 103.769 28.2868 100.534 20.9542Z" fill="#39D192"/>
<g opacity="0.699997">
<path d="M100.534 20.9542C93.669 5.39049 77.1911 -0.46904 64.1898 9.97621C59.1146 14.0536 55.9451 20.5416 49.7289 23.1441C43.8976 25.5852 36.5077 24.8645 30.1999 26.1872C16.7693 29.0028 -1.3056 39.6316 0.0745435 55.9783C0.67991 63.1449 5.54298 71.1051 7.94348 77.8088C10.7068 85.5253 12.3667 95.1753 19.6626 99.7876C32.1849 107.705 47.289 101.232 58.5807 94.846C64.6478 91.415 67.9928 89.3048 74.5282 90.4812C80.5811 91.5703 86.0302 95.4192 91.9434 90.8636C96.3829 87.443 96.7488 80.5083 100.476 76.4378C104.676 71.8513 108.935 71.5188 111.116 64.6236C113.761 56.2601 109.864 51.0335 107.228 43.5594C104.605 36.1246 103.769 28.2868 100.534 20.9542Z" fill="white"/>
</g>
<path d="M79.0136 1.52588e-05H32.1116C29.2325 1.52588e-05 26.8984 2.33411 26.8984 5.21317V103.059C26.8984 105.938 29.2325 108.272 32.1116 108.272H79.0136C81.8926 108.272 84.2267 105.938 84.2267 103.059V5.21317C84.2267 2.33411 81.8926 1.52588e-05 79.0136 1.52588e-05Z" fill="#1A2E35"/>
<path d="M80.7057 94.395H30.793V7.31525H80.7057V94.395Z" fill="#39D192"/>
<g opacity="0.300003">
<path d="M30.5977 94.295H80.5104V85.6652H30.5977V94.295Z" fill="white"/>
</g>
<g opacity="0.100006">
<path d="M80.5104 43.0478C67.8216 55.6692 44.3256 79.2743 30.5977 93.0791V94.2952H58.488L80.5104 72.2727V43.0478Z" fill="white"/>
</g>
<path d="M58.9618 100.276C58.9618 98.3967 57.4386 96.8731 55.559 96.8731C53.6795 96.8731 52.1562 98.3967 52.1562 100.276C52.1562 102.155 53.6795 103.679 55.559 103.679C57.4386 103.679 58.9618 102.155 58.9618 100.276Z" fill="#39D192"/>
<g clip-path="url(#clip0_1053_2491)">
<path d="M44.6089 52.4973V53.2228H42.9187V52.0539L41.2415 51.8524C41.1115 51.8389 40.9945 51.7986 40.8775 51.7449L37.2891 50.0386L37.4061 49.8773C37.4321 49.837 37.4711 49.7967 37.5231 49.7833C37.6661 49.7161 37.8351 49.7027 37.9911 49.7564L38.9922 50.0654L40.1104 50.3745L40.5004 50.4685C40.4744 50.67 40.5914 50.8447 40.7864 50.885L42.1906 51.194L42.2296 50.9791L41.9046 50.9119L40.9815 50.6969C40.8124 50.6566 40.6954 50.4819 40.7214 50.3073L40.7344 50.2132C40.7474 50.1192 40.8255 50.052 40.9165 50.0654L41.2805 50.0789C41.8916 50.1057 42.4896 50.2132 43.0747 50.3879C43.2047 50.4148 43.3347 50.4819 43.4647 50.5626C43.9978 50.8984 44.3748 51.4359 44.5439 52.0405C44.5829 52.2017 44.6089 52.3495 44.6089 52.4973Z" fill="white"/>
<path d="M43.0353 48.2248C42.4762 48.1173 41.7352 48.0636 40.9551 48.0636C40.175 48.0636 39.4339 48.1173 38.8748 48.2114C38.1988 48.3323 37.8867 48.4801 37.8867 48.7219C37.8867 48.9638 38.1858 49.1384 38.8748 49.2593C39.4339 49.3668 40.175 49.4206 40.9551 49.4206C41.7352 49.4206 42.4762 49.3668 43.0353 49.2728C43.7244 49.1519 44.0234 48.9906 44.0234 48.7354C44.0104 48.4935 43.7114 48.3592 43.0353 48.2248ZM42.8533 48.9772C42.3332 49.0578 41.6441 49.1116 40.9421 49.1116C40.24 49.1116 39.5639 49.0578 39.0308 48.9772C38.4978 48.8966 38.2898 48.7891 38.2248 48.7488C38.3028 48.6951 38.4978 48.5473 39.0308 48.4667C39.6679 48.3726 40.305 48.3189 40.9421 48.3189C41.5791 48.3189 42.2162 48.3726 42.8533 48.4532C43.4383 48.5338 43.5943 48.7085 43.6594 48.7622C43.5943 48.7891 43.3863 48.8832 42.8533 48.9772Z" fill="white"/>
<path d="M49.7695 52.943V48.824H52.3195V49.4598H50.5008V50.5103H52.1144V51.1461H50.5008V52.943H49.7695Z" fill="white"/>
<path d="M55.6286 51.387C55.6325 51.616 55.5977 51.8411 55.5241 52.0584C55.4622 52.2479 55.3578 52.4256 55.2262 52.5757C55.0946 52.7179 54.9399 52.8324 54.7619 52.9074C54.5723 52.9864 54.3711 53.0299 54.166 53.0259C53.9609 53.0299 53.7597 52.9904 53.5701 52.9074C53.396 52.8324 53.2373 52.7179 53.1096 52.5757C52.9781 52.4256 52.8736 52.2479 52.8078 52.0584C52.7343 51.8411 52.6956 51.616 52.6995 51.387C52.6956 51.1579 52.7343 50.9328 52.8078 50.7156C52.8736 50.5261 52.9781 50.3523 53.1096 50.2022C53.2412 50.0601 53.396 49.9455 53.574 49.8744C53.7597 49.7955 53.9609 49.756 54.1621 49.7599C54.3633 49.756 54.5645 49.7955 54.7541 49.8744C54.9321 49.9495 55.0908 50.0601 55.2185 50.2022C55.35 50.3523 55.4506 50.5261 55.5203 50.7156C55.5938 50.9328 55.6325 51.1579 55.6286 51.387ZM54.905 51.387C54.905 51.079 54.8393 50.8341 54.7116 50.6524C54.5839 50.4708 54.402 50.3799 54.166 50.3839C53.9338 50.3839 53.752 50.4747 53.6204 50.6524C53.4888 50.8302 53.4231 51.079 53.4231 51.387C53.4231 51.699 53.4888 51.9478 53.6165 52.1294C53.7481 52.3111 53.93 52.4019 54.1621 52.4019C54.3943 52.4019 54.5761 52.3111 54.7077 52.1294C54.8393 51.9478 54.905 51.699 54.905 51.387Z" fill="white"/>
<path d="M59.113 51.387C59.1169 51.6161 59.082 51.8412 59.0085 52.0584C58.9466 52.2479 58.8421 52.4257 58.7106 52.5757C58.579 52.7179 58.4242 52.8324 58.2462 52.9075C58.0566 52.9865 57.8554 53.0299 57.6504 53.026C57.4453 53.0299 57.2441 52.9904 57.0545 52.9075C56.8804 52.8324 56.7217 52.7179 56.594 52.5757C56.4625 52.4257 56.358 52.2479 56.2922 52.0584C56.2187 51.8412 56.18 51.6161 56.1839 51.387C56.18 51.158 56.2187 50.9329 56.2922 50.7157C56.358 50.5261 56.4625 50.3523 56.594 50.2023C56.7256 50.0601 56.8842 49.9456 57.0583 49.8745C57.2441 49.7955 57.4453 49.756 57.6465 49.756C57.8477 49.7521 58.0489 49.7915 58.2385 49.8705C58.4165 49.9456 58.5751 50.0561 58.7028 50.2023C58.8344 50.3523 58.935 50.5261 59.0047 50.7157C59.082 50.9329 59.1169 51.158 59.113 51.387ZM58.3894 51.387C58.3894 51.079 58.3236 50.8341 58.1959 50.6525C58.0644 50.4708 57.8825 50.38 57.6504 50.38C57.4182 50.38 57.2363 50.4708 57.1048 50.6485C56.9732 50.8262 56.9074 51.075 56.9113 51.3831C56.9113 51.6951 56.9771 51.9439 57.1048 52.1255C57.2325 52.3072 57.4143 52.398 57.6504 52.398C57.8825 52.398 58.0644 52.3072 58.1959 52.1255C58.3275 51.9478 58.3894 51.699 58.3894 51.387Z" fill="white"/>
<path d="M62.4156 52.8481C62.2415 52.8994 62.0674 52.9389 61.8894 52.9666C61.6688 53.0021 61.4444 53.0218 61.22 53.0218C60.9994 53.0258 60.7788 52.9863 60.5738 52.9073C60.3919 52.8362 60.2255 52.7256 60.0862 52.5835C59.9469 52.4374 59.8425 52.2636 59.7767 52.0701C59.7032 51.8529 59.6683 51.6278 59.6722 51.3987C59.6683 51.1736 59.6993 50.9485 59.7612 50.7313C59.8154 50.5457 59.9044 50.368 60.0243 50.2179C60.1404 50.0757 60.2836 49.9652 60.4499 49.8901C60.6318 49.8111 60.8253 49.7717 61.0226 49.7717C61.1542 49.7677 61.2857 49.7875 61.4134 49.8269C61.514 49.8585 61.6108 49.898 61.7036 49.9454V48.4487L62.4079 48.3302L62.4156 52.8481ZM60.3919 51.379C60.3919 51.6949 60.4654 51.9437 60.6125 52.1254C60.7595 52.307 60.9646 52.3979 61.2238 52.3939C61.3206 52.3939 61.4173 52.39 61.514 52.3781C61.5798 52.3702 61.6417 52.3584 61.7075 52.3465V50.5654C61.6301 50.5141 61.5489 50.4746 61.4599 50.443C61.3554 50.4035 61.2432 50.3877 61.131 50.3877C60.8756 50.3877 60.686 50.4786 60.5699 50.6563C60.4538 50.834 60.3919 51.0749 60.3919 51.379Z" fill="white"/>
<path d="M63.1449 51.4027C63.141 51.1579 63.1794 50.913 63.2645 50.684C63.3342 50.4944 63.4425 50.3167 63.5818 50.1706C63.7095 50.0363 63.8643 49.9297 64.0384 49.8625C64.2048 49.7954 64.3828 49.7599 64.5608 49.7599C64.9787 49.7599 65.3079 49.8941 65.5439 50.1587C65.7799 50.4233 65.896 50.8222 65.896 51.3474C65.896 51.3869 65.896 51.4304 65.8921 51.4817C65.8883 51.5331 65.8883 51.5765 65.8844 51.616H63.872C63.8914 51.8648 63.9768 52.0583 64.1316 52.1965C64.2863 52.3347 64.5069 52.4019 64.7971 52.4019C64.9557 52.4019 65.1105 52.3861 65.2653 52.3545C65.3814 52.3308 65.4936 52.2992 65.6019 52.2518L65.6945 52.8402C65.6442 52.8639 65.5903 52.8876 65.5361 52.9034C65.4588 52.9271 65.3814 52.9469 65.304 52.9627C65.215 52.9824 65.1221 52.9942 65.0215 53.0061C64.917 53.0179 64.8164 53.0258 64.712 53.0219C64.4721 53.0258 64.2358 52.9863 64.0113 52.8995C63.8256 52.8284 63.6556 52.7099 63.5202 52.5598C63.3886 52.4137 63.2916 52.236 63.2336 52.0504C63.1717 51.8411 63.141 51.6239 63.1449 51.4027ZM65.1879 51.0828C65.1879 50.9881 65.1763 50.8933 65.1492 50.7985C65.126 50.7156 65.0834 50.6366 65.0293 50.5655C64.9751 50.4984 64.9093 50.447 64.8358 50.4115C64.7507 50.372 64.6578 50.3522 64.5649 50.3562C64.4682 50.3522 64.3673 50.3759 64.2783 50.4194C64.2009 50.4589 64.1277 50.5142 64.0735 50.5813C64.0155 50.6484 63.9726 50.7274 63.9417 50.8143C63.9107 50.9012 63.8875 50.992 63.8759 51.0828H65.1879Z" fill="white"/>
<path d="M67.6575 49.7561C67.8587 49.7521 68.056 49.7837 68.2456 49.8469C68.3926 49.8982 68.5203 49.9812 68.6287 50.0957C68.7254 50.2063 68.7951 50.3405 68.8337 50.4867C68.8763 50.6525 68.8957 50.8184 68.8957 50.9882V52.872C68.7873 52.8957 68.6248 52.9233 68.4042 52.9589C68.1566 52.9944 67.909 53.0102 67.6613 53.0102C67.4911 53.0102 67.3247 52.9944 67.1583 52.9549C67.019 52.9233 66.8874 52.868 66.7714 52.7812C66.663 52.7022 66.5779 52.5955 66.5198 52.4731C66.4541 52.327 66.4231 52.1651 66.4309 52.0032C66.427 51.8452 66.4618 51.6912 66.5315 51.553C66.5972 51.4305 66.694 51.3279 66.8101 51.2528C66.9339 51.1738 67.0732 51.1146 67.2163 51.0869C67.375 51.0514 67.5336 51.0356 67.6961 51.0356C67.7774 51.0356 67.8587 51.0396 67.9399 51.0514C68.0328 51.0632 68.1218 51.0791 68.2146 51.1027V50.9843C68.2146 50.9053 68.2069 50.8263 68.1837 50.7473C68.145 50.5933 68.0367 50.4669 67.8896 50.4156C67.7929 50.38 67.6923 50.3642 67.5878 50.3682C67.4369 50.3682 67.286 50.38 67.139 50.4037C67.0267 50.4235 66.9145 50.4511 66.8062 50.4867L66.7172 49.8982C66.8449 49.8587 66.9764 49.8272 67.108 49.8035C67.2899 49.7719 67.4717 49.7561 67.6575 49.7561ZM67.7155 52.4376C67.8819 52.4415 68.0483 52.4297 68.2108 52.402V51.6043C68.1566 51.5885 68.0986 51.5767 68.0405 51.5687C67.9593 51.5569 67.878 51.549 67.7968 51.553C67.7194 51.553 67.6381 51.5608 67.5607 51.5687C67.4872 51.5806 67.4137 51.6003 67.344 51.6359C67.2821 51.6675 67.2279 51.7109 67.1893 51.7702C67.1467 51.8334 67.1273 51.9123 67.1312 51.9874C67.1312 52.1572 67.1854 52.2757 67.2899 52.3428C67.3943 52.406 67.5336 52.4415 67.7155 52.4376Z" fill="white"/>
<path d="M70.814 53.0021C70.636 53.0021 70.4619 52.9784 70.2916 52.931C70.1678 52.8955 70.0556 52.8323 69.9627 52.7454C69.8815 52.6625 69.8196 52.5558 69.7925 52.4413C69.7577 52.307 69.7422 52.1688 69.7422 52.0267V48.4487L70.4464 48.3302V51.8924C70.4464 51.9674 70.4503 52.0385 70.4658 52.1135C70.4774 52.1688 70.5045 52.2201 70.5393 52.2636C70.578 52.307 70.6283 52.3386 70.6825 52.3584C70.756 52.3821 70.8334 52.4018 70.9107 52.4097L70.814 53.0021Z" fill="white"/>
<path d="M72.2444 52.4257C72.4301 52.4257 72.5655 52.402 72.6506 52.3586C72.7358 52.3151 72.7783 52.2362 72.7783 52.1216C72.7783 52.0189 72.728 51.9202 72.6429 51.8649C72.55 51.7978 72.3991 51.7228 72.1902 51.6438C72.0702 51.6004 71.9542 51.549 71.8381 51.4937C71.7375 51.4463 71.6446 51.3831 71.5595 51.3042C71.4821 51.2331 71.4202 51.1422 71.3776 51.0435C71.3312 50.925 71.308 50.7987 71.3118 50.6723C71.3118 50.3879 71.4163 50.1628 71.6214 49.997C71.8265 49.8311 72.1089 49.7521 72.461 49.7482C72.6313 49.7482 72.8054 49.7679 72.9718 49.7995C73.0956 49.8232 73.2194 49.8548 73.3394 49.8982L73.2117 50.4788C73.115 50.4353 73.0144 50.4037 72.9138 50.38C72.7745 50.3484 72.6352 50.3327 72.4959 50.3366C72.3759 50.3327 72.256 50.3563 72.1476 50.4116C72.0625 50.4551 72.0083 50.5459 72.0122 50.6407C72.0122 50.6881 72.0199 50.7355 72.0393 50.7789C72.0586 50.8223 72.0896 50.8618 72.1283 50.8895C72.1825 50.929 72.2366 50.9645 72.2985 50.9922C72.3837 51.0317 72.4688 51.0672 72.5539 51.0949C72.7009 51.1501 72.8402 51.2094 72.9795 51.2805C73.084 51.3357 73.1846 51.4029 73.2697 51.4898C73.3433 51.5648 73.4013 51.6556 73.4361 51.7544C73.4748 51.8689 73.4903 51.9874 73.4864 52.1098C73.4864 52.406 73.3781 52.6311 73.1614 52.7851C72.9447 52.9391 72.639 53.0142 72.2366 53.0142C72.0199 53.0221 71.7994 52.9984 71.5866 52.947C71.4705 52.9154 71.3544 52.8799 71.2422 52.8364L71.366 52.2362C71.4898 52.2875 71.6136 52.327 71.7413 52.3626C71.9077 52.4099 72.078 52.4297 72.2444 52.4257Z" fill="white"/>
</g>
<defs>
<clipPath id="clip0_1053_2491">
<rect width="36.3724" height="5.1592" fill="white" transform="translate(37.2891 48.0636)"/>
</clipPath>
</defs>
</svg>
