<svg width="112" height="112" viewBox="0 0 112 112" fill="none" xmlns="http://www.w3.org/2000/svg">
<mask id="mask0_1053_5514" style="mask-type:alpha" maskUnits="userSpaceOnUse" x="0" y="0" width="112" height="112">
<rect width="112" height="112" fill="#39D192"/>
</mask>
<g mask="url(#mask0_1053_5514)">
<path d="M96.7736 18.9851C88.8753 10.8869 77.9703 5.47714 66.9714 2.96408C65.3816 2.60095 63.7811 2.285 62.1733 2.01337C37.7794 -2.10732 22.8637 19.5595 18.5367 28.917C14.2097 38.2742 2.83689 58.5474 3.00177 70.5795C3.16666 82.6116 28.5494 103.709 54.7561 104.368C80.963 105.028 101.566 90.6881 106.016 68.2723C107.893 58.8203 109.822 48.8106 107.809 39.2171C106.141 31.269 102.155 24.503 96.7736 18.9851Z" fill="#39D192"/>
<g opacity="0.699997">
<path d="M96.7736 18.985C88.8753 10.8868 77.9703 5.47708 66.9714 2.96402C65.3816 2.60089 63.7811 2.28494 62.1733 2.01331C37.7794 -2.10738 22.8637 19.5595 18.5367 28.9169C14.2097 38.2742 2.83689 58.5474 3.00177 70.5794C3.16666 82.6115 28.5494 103.709 54.7561 104.368C80.963 105.028 101.566 90.688 106.016 68.2722C107.893 58.8202 109.822 48.8106 107.809 39.217C106.141 31.2689 102.155 24.5029 96.7736 18.985Z" fill="white"/>
</g>
<path d="M21.6735 36.8324C21.6735 36.8324 22.1864 37.2644 22.3476 37.6675C22.5092 38.0705 21.7834 39.0381 21.4609 39.1993" stroke="#1A2E35" stroke-width="1.33333" stroke-miterlimit="10"/>
<path d="M44.9304 26.5206C46.5583 34.1727 41.6746 41.696 34.0222 43.3239C26.3701 44.9518 18.8471 40.0681 17.2192 32.4157C15.5913 24.7636 20.475 17.2403 28.1271 15.6124C35.7795 13.9848 43.3025 18.8685 44.9304 26.5206Z" fill="white"/>
<path d="M44.9304 26.5206C46.5583 34.1727 41.6746 41.696 34.0222 43.3239C26.3701 44.9518 18.8471 40.0681 17.2192 32.4157C15.5913 24.7636 20.475 17.2403 28.1271 15.6124C35.7795 13.9848 43.3025 18.8685 44.9304 26.5206Z" stroke="#1A2E35" stroke-width="0.5" stroke-miterlimit="10"/>
<path d="M42.7116 26.9927C44.0788 33.4193 39.9773 39.7376 33.5507 41.1047C27.1241 42.4716 20.8058 38.3704 19.4386 31.9435C18.0714 25.5169 22.173 19.1989 28.5996 17.8317C35.0265 16.4645 41.3445 20.5661 42.7116 26.9927Z" fill="white"/>
<path d="M42.7116 26.9927C44.0788 33.4193 39.9773 39.7376 33.5507 41.1047C27.1241 42.4716 20.8058 38.3704 19.4386 31.9435C18.0714 25.5169 22.173 19.1989 28.5996 17.8317C35.0265 16.4645 41.3445 20.5661 42.7116 26.9927Z" stroke="#1A2E35" stroke-width="0.5" stroke-miterlimit="10"/>
<path d="M33.5209 40.2941L33.1179 38.3998C31.7079 38.6432 30.5671 38.4177 29.6952 37.7231C28.8236 37.0288 28.1831 35.8521 27.7735 34.1934L30.5412 33.0938C30.7128 33.7673 30.9049 34.3187 31.1168 34.7491C31.3291 35.1796 31.5743 35.4818 31.853 35.6569C32.131 35.8317 32.4538 35.8802 32.8206 35.8021C33.241 35.7126 33.5014 35.5158 33.5993 35.2107C33.6979 34.9062 33.7098 34.5772 33.6346 34.2239C33.4872 33.5315 33.2038 32.9852 32.785 32.5847C32.3666 32.1842 31.8284 31.8057 31.1707 31.4486L29.123 30.3302C28.651 30.0474 28.219 29.7492 27.8261 29.4353C27.4325 29.1217 27.0927 28.7397 26.8053 28.2898C26.5178 27.8401 26.3037 27.2828 26.162 26.6175C25.8905 25.3413 26.0417 24.2691 26.6166 23.402C27.1916 22.5345 28.0796 21.9233 29.2814 21.5685L28.8957 19.7557L29.8734 19.5476L30.2591 21.3603C31.0013 21.2451 31.6373 21.2838 32.1676 21.4759C32.6981 21.6683 33.133 21.9589 33.4712 22.3481C33.8093 22.7376 34.088 23.1822 34.3078 23.6816C34.5279 24.1813 34.7033 24.6725 34.8342 25.1555L32.013 26.2028C31.8927 25.7034 31.757 25.2673 31.6071 24.8948C31.4569 24.5223 31.2702 24.2465 31.0479 24.0664C30.8249 23.8869 30.5318 23.8428 30.1681 23.9341C29.7909 24.0289 29.534 24.2395 29.3979 24.5664C29.2616 24.8935 29.231 25.2336 29.306 25.5866C29.4389 26.2113 29.6952 26.682 30.0746 26.9982C30.4543 27.3149 30.8715 27.6093 31.3269 27.8814L33.3291 28.9882C33.8638 29.3002 34.3723 29.6535 34.8538 30.0477C35.3346 30.4423 35.7521 30.9032 36.106 31.4313C36.459 31.9593 36.7156 32.5966 36.8743 33.3432C37.0277 34.063 37.0207 34.7491 36.8545 35.4019C36.6879 36.0546 36.3696 36.6226 35.8976 37.1063C35.4256 37.5896 34.8232 37.9448 34.0908 38.1718L34.4983 40.0863L33.5209 40.2941Z" fill="#1A2E35"/>
<path d="M87.3373 6.46249V101.886C87.3373 104.505 85.2141 106.628 82.595 106.628H41.3634C38.7443 106.628 36.6211 104.505 36.6211 101.886V6.45997C36.6211 3.8421 38.7433 1.72015 41.3612 1.72015H59.0588L59.0736 1.77431C59.5147 3.3616 60.5302 4.39407 61.6565 4.39407H62.3023C63.4286 4.39407 64.4437 3.3616 64.8849 1.77431L64.9022 1.72015H82.595C85.2141 1.72015 87.3373 3.84336 87.3373 6.46249Z" fill="white"/>
<path d="M87.3373 6.46249V101.886C87.3373 104.505 85.2141 106.628 82.595 106.628H41.3634C38.7443 106.628 36.6211 104.505 36.6211 101.886V6.45997C36.6211 3.8421 38.7433 1.72016 41.3612 1.72016H59.0588L59.0736 1.77431C59.5147 3.3616 60.5302 4.39407 61.6565 4.39407H62.3023C63.4286 4.39407 64.4437 3.3616 64.8849 1.77431L64.9022 1.72016H82.595C85.2141 1.72016 87.3373 3.84336 87.3373 6.46249Z" stroke="#1A2E35" stroke-width="1.33333" stroke-miterlimit="10" stroke-linecap="round" stroke-linejoin="round"/>
<path d="M87.3373 9.16333V6.46265C87.3373 3.84321 85.2141 1.72001 82.595 1.72001H64.9022L64.8849 1.77448C64.4437 3.36145 63.4286 4.39424 62.3023 4.39424H61.6565C60.5302 4.39424 59.5147 3.36145 59.0736 1.77448L59.0588 1.72001H41.3612C38.7433 1.72001 36.6211 3.84226 36.6211 6.46013V9.16333H87.3373Z" fill="#1A2E35"/>
<path d="M87.3373 9.16333V6.46265C87.3373 3.84321 85.2141 1.72001 82.595 1.72001H64.9022L64.8849 1.77448C64.4437 3.36145 63.4286 4.39424 62.3023 4.39424H61.6565C60.5302 4.39424 59.5147 3.36145 59.0736 1.77448L59.0588 1.72001H41.3612C38.7433 1.72001 36.6211 3.84226 36.6211 6.46013V9.16333H87.3373Z" stroke="#1A2E35" stroke-width="1.33333" stroke-miterlimit="10"/>
<path d="M36.6211 99.3372V101.886C36.6211 104.505 38.7443 106.628 41.3634 106.628H82.595C85.2141 106.628 87.3373 104.505 87.3373 101.886V99.3372H36.6211Z" fill="#1A2E35"/>
<path d="M36.6211 99.3372V101.886C36.6211 104.505 38.7443 106.628 41.3634 106.628H82.595C85.2141 106.628 87.3373 104.505 87.3373 101.886V99.3372H36.6211Z" stroke="#1A2E35" stroke-width="1.33333" stroke-miterlimit="10"/>
<path d="M87.3366 99.1063C87.3366 103.262 83.9674 106.628 79.8145 106.628H44.1424C39.9895 106.628 36.6203 103.262 36.6203 99.1063V9.23975C36.6203 5.08686 39.9895 1.72022 44.1424 1.72022H59.058L59.0728 1.77438C59.5139 3.36166 60.5294 4.39413 61.6557 4.39413H62.3015C63.4278 4.39413 64.443 3.36166 64.8841 1.77438L64.9014 1.72022H79.8145C83.9674 1.72022 87.3366 5.08686 87.3366 9.23975V99.1063ZM90.5615 29.2538V19.7229H89.6994V7.52116C89.6994 3.36733 86.3321 6.10352e-05 82.1783 6.10352e-05H41.7789C37.6251 6.10352e-05 34.2578 3.36733 34.2578 7.52116V104.479C34.2578 108.633 37.6251 112 41.7789 112H82.1783C86.3321 112 89.6994 108.633 89.6994 104.479V37.3766H90.5615V31.7448H89.6994V29.2538H90.5615Z" fill="#39D192"/>
<path d="M87.3366 99.1063C87.3366 103.262 83.9674 106.628 79.8145 106.628H44.1424C39.9895 106.628 36.6203 103.262 36.6203 99.1063V9.23975C36.6203 5.08686 39.9895 1.72022 44.1424 1.72022H59.058L59.0728 1.77438C59.5139 3.36166 60.5294 4.39414 61.6557 4.39414H62.3015C63.4278 4.39414 64.443 3.36166 64.8841 1.77438L64.9014 1.72022H79.8145C83.9674 1.72022 87.3366 5.08686 87.3366 9.23975V99.1063ZM90.5615 29.2538V19.7229H89.6994V7.52116C89.6994 3.36733 86.3321 6.40353e-05 82.1783 6.40353e-05H41.7789C37.6251 6.40353e-05 34.2578 3.36733 34.2578 7.52116V104.479C34.2578 108.633 37.6251 112 41.7789 112H82.1783C86.3321 112 89.6994 108.633 89.6994 104.479V37.3766H90.5615V31.7448H89.6994V29.2538H90.5615Z" stroke="#1A2E35" stroke-width="1.33333" stroke-miterlimit="10" stroke-linecap="round" stroke-linejoin="round"/>
<path d="M87.337 99.3738C87.337 103.38 84.0891 106.628 80.0826 106.628H43.8752C39.8687 106.628 36.6208 103.38 36.6208 99.3738V8.97203C36.6208 4.96714 39.8678 1.72015 43.873 1.72015H59.0584L59.0732 1.77431C59.5144 3.36159 60.5299 4.39439 61.6562 4.39439H62.302C63.4283 4.39439 64.4434 3.36159 64.8846 1.77431L64.9019 1.72015H80.0826C84.0891 1.72015 87.337 4.96808 87.337 8.97455V99.3738ZM81.5754 1.03624H42.3827C38.3765 1.03624 35.1289 4.28387 35.1289 8.29002V103.71C35.1289 107.716 38.3765 110.964 42.3827 110.964H81.5754C85.5816 110.964 88.8292 107.716 88.8292 103.71V8.29002C88.8292 4.28387 85.5816 1.03624 81.5754 1.03624Z" fill="#1A2E35"/>
<path d="M87.337 99.3738C87.337 103.38 84.0891 106.628 80.0826 106.628H43.8752C39.8687 106.628 36.6208 103.38 36.6208 99.3738V8.97203C36.6208 4.96714 39.8678 1.72015 43.873 1.72015H59.0584L59.0732 1.77431C59.5144 3.36159 60.5299 4.39438 61.6562 4.39438H62.302C63.4283 4.39438 64.4434 3.36159 64.8846 1.77431L64.9019 1.72015H80.0826C84.0891 1.72015 87.337 4.96808 87.337 8.97455V99.3738ZM81.5754 1.03624H42.3827C38.3765 1.03624 35.1289 4.28387 35.1289 8.29002V103.71C35.1289 107.716 38.3765 110.964 42.3827 110.964H81.5754C85.5816 110.964 88.8292 107.716 88.8292 103.71V8.29002C88.8292 4.28387 85.5816 1.03624 81.5754 1.03624V1.03624Z" stroke="#1A2E35" stroke-width="1.33333" stroke-miterlimit="10" stroke-linecap="round" stroke-linejoin="round"/>
<path d="M62.5294 2.07957C62.5294 1.68944 62.2133 1.37362 61.8231 1.37362C61.4333 1.37362 61.1172 1.68944 61.1172 2.07957C61.1172 2.46939 61.4333 2.78552 61.8231 2.78552C62.2133 2.78552 62.5294 2.46939 62.5294 2.07957Z" fill="white"/>
<path d="M41.1287 4.78536C41.1287 5.49981 40.3264 5.75707 40.3229 6.30211V6.33927H41.1016V6.57983H40.0625V6.37642C40.0625 5.61159 40.8648 5.46266 40.8648 4.79544C40.8648 4.55204 40.7836 4.42326 40.5871 4.42326C40.3941 4.42326 40.3094 4.5618 40.3094 4.77182V4.98184H40.0625V4.78883C40.0625 4.42672 40.2284 4.18616 40.5937 4.18616C40.9627 4.18616 41.1287 4.42326 41.1287 4.78536Z" fill="white"/>
<path d="M42.4255 4.78209V4.84286C42.4255 5.08689 42.3276 5.25944 42.1381 5.3306C42.3374 5.40491 42.4255 5.58439 42.4255 5.82149V6.00412C42.4255 6.36654 42.2565 6.60364 41.8906 6.60364C41.5285 6.60364 41.3594 6.36654 41.3594 6.00412V5.84164H41.6062V6.02112C41.6062 6.2346 41.6944 6.36307 41.884 6.36307C42.077 6.36307 42.1617 6.23775 42.1617 5.9975V5.81456C42.1617 5.58092 42.0634 5.46946 41.8635 5.46253H41.7215V5.22543H41.877C42.053 5.21882 42.1617 5.10704 42.1617 4.90048V4.79216C42.1617 4.54845 42.077 4.42344 41.884 4.42344C41.6944 4.42344 41.6062 4.55506 41.6062 4.76855V4.8904H41.3594V4.78209C41.3594 4.41998 41.5285 4.18634 41.8906 4.18634C42.2565 4.18634 42.4255 4.41998 42.4255 4.78209Z" fill="white"/>
<path d="M42.9374 6.57959H42.6836V6.25118H42.9374V6.57959ZM42.9374 5.28986H42.6836V4.96145H42.9374V5.28986Z" fill="white"/>
<path d="M43.4693 5.17493C43.5439 5.04614 43.6623 4.97845 43.8213 4.97845C44.1261 4.97845 44.2615 5.20201 44.2615 5.5405V6.00431C44.2615 6.36641 44.0889 6.60352 43.7268 6.60352C43.3644 6.60352 43.1953 6.36641 43.1953 6.00431V5.8453H43.4422V6.02131C43.4422 6.23448 43.5303 6.36295 43.7199 6.36295C43.9094 6.36295 43.9976 6.23448 43.9976 6.02131V5.56065C43.9976 5.34748 43.9094 5.2187 43.7199 5.2187C43.5744 5.2187 43.4762 5.29993 43.4526 5.4728V5.52696H43.2054L43.2696 4.20984H44.2039V4.44694H43.5064L43.4693 5.17493Z" fill="white"/>
<path d="M44.7681 5.6657V6.02119C44.7681 6.23436 44.8563 6.36314 45.049 6.36314C45.2388 6.36314 45.3301 6.23436 45.3301 6.02119V5.6657C45.3301 5.45221 45.2388 5.32374 45.049 5.32374C44.8563 5.32374 44.7681 5.45221 44.7681 5.6657ZM45.5839 4.77869V4.82278H45.3371V4.76169C45.3371 4.54852 45.2489 4.4232 45.0559 4.4232C44.8563 4.4232 44.7681 4.55198 44.7681 4.80577V5.33728C44.8323 5.17481 44.9611 5.08318 45.1507 5.08318C45.4555 5.08318 45.5909 5.30328 45.5909 5.64523V6.00419C45.5909 6.36661 45.4111 6.60339 45.049 6.60339C44.6834 6.60339 44.5039 6.36661 44.5039 6.00419V4.7957C44.5039 4.41974 44.6733 4.1861 45.049 4.1861C45.4148 4.1861 45.5839 4.41659 45.5839 4.77869Z" fill="white"/>
<path d="M71.4504 6.55566H70.7812V4.88274H71.4504V6.55566Z" fill="white"/>
<path d="M72.3449 6.55566H71.6758V4.54771H72.3449V6.55566Z" fill="white"/>
<path d="M73.2355 6.55566H72.5664V4.30998H73.2355V6.55566Z" fill="white"/>
<path d="M74.1261 6.55566H73.457V3.89592H74.1261V6.55566Z" fill="white"/>
<path d="M78.6178 6.28684H82.1866V4.27952H78.6178V6.28684ZM82.4095 6.50977H78.3945V4.05626H82.4095V6.50977Z" fill="white"/>
<path d="M81.0719 6.04407H78.9531V4.52228H81.0719V6.04407Z" fill="white"/>
<path d="M82.7746 5.57208H82.2695V4.99397H82.7746V5.57208Z" fill="white"/>
<path d="M76.9233 5.97607C76.8972 5.97607 76.8704 5.96915 76.8465 5.95498C76.0297 5.46944 75.4893 5.92003 75.467 5.93923C75.4046 5.99339 75.3099 5.98615 75.2557 5.92412C75.2016 5.86177 75.2075 5.76826 75.2696 5.71378C75.2985 5.68828 75.9891 5.09663 77.0001 5.69741C77.0713 5.7396 77.0946 5.83155 77.0521 5.90271C77.024 5.94994 76.9743 5.97607 76.9233 5.97607Z" fill="white"/>
<path d="M77.2232 5.47191C77.197 5.47191 77.1703 5.4653 77.1463 5.45082C75.9649 4.74833 75.1711 5.42815 75.1629 5.43444C75.1009 5.48955 75.0064 5.48293 74.9517 5.4209C74.8969 5.35887 74.9025 5.2641 74.9649 5.20962C74.9746 5.20081 75.9322 4.38056 77.3 5.19325C77.3712 5.23544 77.3945 5.32739 77.352 5.39855C77.3239 5.44578 77.2742 5.47191 77.2232 5.47191Z" fill="white"/>
<path d="M77.4985 4.88831C77.4723 4.88831 77.4456 4.88169 77.4216 4.86721C75.9257 3.97769 74.9307 4.81525 74.8891 4.85147C74.8268 4.90562 74.732 4.89901 74.6778 4.83698C74.6233 4.77464 74.6293 4.68049 74.6917 4.62602C74.7033 4.61531 75.885 3.60456 77.5753 4.60964C77.6465 4.65183 77.6698 4.74409 77.6273 4.81525C77.5992 4.86217 77.5495 4.88831 77.4985 4.88831Z" fill="white"/>
<path d="M76.4749 6.22748C76.4749 6.4353 76.3064 6.60376 76.0989 6.60376C75.8911 6.60376 75.7227 6.4353 75.7227 6.22748C75.7227 6.01967 75.8911 5.85121 76.0989 5.85121C76.3064 5.85121 76.4749 6.01967 76.4749 6.22748Z" fill="white"/>
<path d="M81.2885 78.2227H42.8517C41.6048 78.2227 40.5938 77.2119 40.5938 75.965V53.8312C40.5938 52.5843 41.6048 51.5735 42.8517 51.5735H81.2885C82.5354 51.5735 83.5461 52.5843 83.5461 53.8312V75.965C83.5461 77.2119 82.5354 78.2227 81.2885 78.2227Z" fill="#39D192"/>
<path d="M81.2885 78.2227H42.8517C41.6048 78.2227 40.5938 77.2119 40.5938 75.965V53.8312C40.5938 52.5843 41.6048 51.5735 42.8517 51.5735H81.2885C82.5354 51.5735 83.5461 52.5843 83.5461 53.8312V75.965C83.5461 77.2119 82.5354 78.2227 81.2885 78.2227Z" stroke="#1A2E35" stroke-width="0.5" stroke-miterlimit="10" stroke-linecap="round" stroke-linejoin="round"/>
<path d="M48.429 74.4605H43.8828V72.5794H48.429V74.4605Z" fill="#1A2E35"/>
<path d="M54.4641 74.4605H49.918V72.5794H54.4641V74.4605Z" fill="#1A2E35"/>
<path d="M60.4993 74.4605H55.9531V72.5794H60.4993V74.4605Z" fill="#1A2E35"/>
<path d="M66.5344 74.4605H61.9883V72.5794H66.5344V74.4605Z" fill="#1A2E35"/>
<path d="M72.5696 74.4605H68.0234V72.5794H72.5696V74.4605Z" fill="#1A2E35"/>
<path d="M78.6087 74.4605H74.0625V72.5794H78.6087V74.4605Z" fill="#1A2E35"/>
<path d="M52.7205 68.1901H44.929C44.3534 68.1901 43.8867 67.7234 43.8867 67.1478V61.8645C43.8867 61.289 44.3534 60.8223 44.929 60.8223H52.7205C53.2961 60.8223 53.7628 61.289 53.7628 61.8645V67.1478C53.7628 67.7234 53.2961 68.1901 52.7205 68.1901Z" fill="white"/>
<path d="M52.7205 68.1901H44.929C44.3534 68.1901 43.8867 67.7234 43.8867 67.1478V61.8645C43.8867 61.289 44.3534 60.8223 44.929 60.8223H52.7205C53.2961 60.8223 53.7628 61.289 53.7628 61.8645V67.1478C53.7628 67.7234 53.2961 68.1901 52.7205 68.1901Z" stroke="#1A2E35" stroke-width="0.5" stroke-miterlimit="10" stroke-linecap="round" stroke-linejoin="round"/>
<path d="M65.5156 55.8061H43.8828V54.7088H65.5156V55.8061Z" fill="#1A2E35"/>
<path d="M71.7424 30.7267C71.7424 36.6618 66.9311 41.4731 60.996 41.4731C55.061 41.4731 50.25 36.6618 50.25 30.7267C50.25 24.7916 55.061 19.9804 60.996 19.9804C66.9311 19.9804 71.7424 24.7916 71.7424 30.7267Z" fill="#1A2E35"/>
<path d="M61.1187 40.751V39.0019C59.8271 38.9515 58.8617 38.5381 58.2219 37.7604C57.5824 36.9832 57.2376 35.8232 57.1875 34.281L59.8394 33.8295C59.8646 34.4567 59.9307 34.98 60.0371 35.4001C60.1432 35.8204 60.3035 36.1337 60.5167 36.3403C60.7295 36.5475 61.0054 36.6507 61.3442 36.6507C61.7324 36.6507 61.9994 36.5257 62.1433 36.2748C62.2875 36.0238 62.3599 35.7357 62.3599 35.4095C62.3599 34.77 62.2123 34.2341 61.9179 33.8014C61.6231 33.3688 61.2188 32.9333 60.705 32.4941L59.106 31.1212C58.742 30.7824 58.4165 30.4379 58.128 30.0865C57.8396 29.7358 57.611 29.3343 57.4416 28.8828C57.2719 28.4316 57.1875 27.8988 57.1875 27.2842C57.1875 26.1056 57.5228 25.1871 58.1935 24.5287C58.8645 23.8703 59.7641 23.4975 60.8926 23.4096V21.7358H61.7957V23.4096C62.473 23.4474 63.0275 23.6011 63.4601 23.8703C63.8924 24.1401 64.2221 24.4789 64.4476 24.8861C64.6733 25.2938 64.8358 25.7391 64.9363 26.2215C65.0367 26.7045 65.0994 27.1714 65.1245 27.6227L62.4349 28.0178C62.4226 27.554 62.3848 27.1431 62.3222 26.7857C62.2595 26.4283 62.1461 26.1497 61.9837 25.9488C61.8206 25.7482 61.5699 25.6544 61.2314 25.6666C60.8804 25.6792 60.6137 25.8172 60.432 26.0804C60.2503 26.3436 60.159 26.6387 60.159 26.9646C60.159 27.5414 60.2972 28.0055 60.573 28.3563C60.8489 28.7074 61.1622 29.0462 61.5132 29.3718L63.0744 30.7261C63.4881 31.1023 63.871 31.5098 64.2221 31.9487C64.5729 32.3876 64.855 32.8735 65.0685 33.4063C65.281 33.9394 65.3881 34.5508 65.3881 35.2401C65.3881 35.9051 65.253 36.5097 64.9838 37.0554C64.7136 37.6007 64.3254 38.0425 63.8178 38.3813C63.3099 38.7198 62.7107 38.92 62.0211 38.983V40.751H61.1187Z" fill="white"/>
<path d="M61.1187 40.751V39.0019C59.8271 38.9515 58.8617 38.5381 58.2219 37.7604C57.5824 36.9832 57.2376 35.8232 57.1875 34.281L59.8394 33.8295C59.8646 34.4567 59.9307 34.98 60.0371 35.4001C60.1432 35.8204 60.3035 36.1337 60.5167 36.3403C60.7295 36.5475 61.0054 36.6507 61.3442 36.6507C61.7324 36.6507 61.9994 36.5257 62.1433 36.2748C62.2875 36.0238 62.3599 35.7357 62.3599 35.4095C62.3599 34.77 62.2123 34.2341 61.9179 33.8014C61.6231 33.3688 61.2188 32.9333 60.705 32.4941L59.106 31.1212C58.742 30.7824 58.4165 30.4379 58.128 30.0865C57.8396 29.7358 57.611 29.3343 57.4416 28.8828C57.2719 28.4316 57.1875 27.8988 57.1875 27.2842C57.1875 26.1056 57.5228 25.1871 58.1935 24.5287C58.8645 23.8703 59.7641 23.4975 60.8926 23.4096V21.7358H61.7957V23.4096C62.473 23.4474 63.0275 23.6011 63.4601 23.8703C63.8924 24.1401 64.2221 24.4789 64.4476 24.8861C64.6733 25.2938 64.8358 25.7391 64.9363 26.2215C65.0367 26.7045 65.0994 27.1714 65.1245 27.6227L62.4349 28.0178C62.4226 27.554 62.3848 27.1431 62.3222 26.7857C62.2595 26.4283 62.1461 26.1497 61.9837 25.9488C61.8206 25.7482 61.5699 25.6544 61.2314 25.6666C60.8804 25.6792 60.6137 25.8172 60.432 26.0804C60.2503 26.3436 60.159 26.6387 60.159 26.9646C60.159 27.5414 60.2972 28.0055 60.573 28.3563C60.8489 28.7074 61.1622 29.0462 61.5132 29.3718L63.0744 30.7261C63.4881 31.1023 63.871 31.5098 64.2221 31.9487C64.5729 32.3876 64.855 32.8735 65.0685 33.4063C65.281 33.9394 65.3881 34.5508 65.3881 35.2401C65.3881 35.9051 65.253 36.5097 64.9838 37.0554C64.7136 37.6007 64.3254 38.0425 63.8178 38.3813C63.3099 38.7198 62.7107 38.92 62.0211 38.983V40.751H61.1187Z" stroke="#1A2E35" stroke-width="0.5" stroke-miterlimit="10" stroke-linecap="round" stroke-linejoin="round"/>
<path d="M72.4715 24.9332C72.4715 23.2518 71.1085 21.8887 69.427 21.8887C67.7459 21.8887 66.3828 23.2518 66.3828 24.9332C66.3828 26.6146 67.7459 27.9777 69.427 27.9777C71.1085 27.9777 72.4715 26.6146 72.4715 24.9332Z" fill="#39D192"/>
<path d="M72.4715 24.9332C72.4715 23.2518 71.1085 21.8887 69.427 21.8887C67.7459 21.8887 66.3828 23.2518 66.3828 24.9332C66.3828 26.6146 67.7459 27.9777 69.427 27.9777C71.1085 27.9777 72.4715 26.6146 72.4715 24.9332Z" stroke="#1A2E35" stroke-width="0.5" stroke-miterlimit="10" stroke-linecap="round" stroke-linejoin="round"/>
<path d="M69.4134 26.2606C69.4096 26.2606 69.4056 26.2606 69.4018 26.2602C69.2761 26.2568 69.1587 26.1973 69.0822 26.0978L67.5796 24.1537C67.4382 23.9708 67.4719 23.7076 67.6549 23.5662C67.8378 23.4251 68.101 23.4582 68.2424 23.6414L69.432 25.1809L72.5433 21.5907C72.6947 21.4159 72.9589 21.3967 73.1343 21.5488C73.3091 21.7002 73.328 21.9647 73.1765 22.1395L69.7299 26.116C69.6505 26.208 69.5347 26.2606 69.4134 26.2606Z" fill="#1A2E35"/>
</g>
</svg>
