<svg width="112" height="112" viewBox="0 0 112 112" fill="none" xmlns="http://www.w3.org/2000/svg">
<rect width="112" height="112" rx="24" fill="#39D192" fill-opacity="0.1"/>
<path d="M45.7283 47.7373C45.3172 47.7373 44.9229 47.9006 44.6323 48.1913C44.3416 48.482 44.1783 48.8762 44.1783 49.2873V62.8446C44.1783 63.2557 44.3416 63.65 44.6323 63.9407C44.9229 64.2313 45.3172 64.3946 45.7283 64.3946C46.1394 64.3946 46.5336 64.2313 46.8243 63.9407C47.115 63.65 47.2783 63.2557 47.2783 62.8446V58.7836C47.2783 58.5563 47.549 58.4406 47.7123 58.5976L53.2013 63.7498C53.3498 63.8892 53.5242 63.998 53.7147 64.0699C53.9052 64.1418 54.108 64.1756 54.3115 64.1691C54.515 64.1627 54.7153 64.1163 54.9009 64.0324C55.0864 63.9486 55.2537 63.8291 55.393 63.6806C55.5324 63.5321 55.6412 63.3577 55.7131 63.1672C55.785 62.9767 55.8188 62.7739 55.8123 62.5704C55.8059 62.3669 55.7595 62.1666 55.6756 61.9811C55.5918 61.7955 55.4723 61.6283 55.3238 61.4889L51.6327 58.0231C51.4736 57.8743 51.5604 57.5994 51.7733 57.5478C52.9534 57.2591 53.9871 56.5487 54.6796 55.5504C55.3721 54.5522 55.6755 53.3352 55.5327 52.1287C55.3899 50.9222 54.8106 49.8097 53.9042 49.0008C52.9977 48.1919 51.8267 47.7425 50.6118 47.7373H45.7262H45.7283ZM47.5366 54.5842C47.4681 54.5842 47.4024 54.557 47.3539 54.5085C47.3055 54.4601 47.2783 54.3944 47.2783 54.3258V51.0956C47.2783 50.953 47.394 50.8373 47.5366 50.8373H50.6118C50.8631 50.829 51.1134 50.8712 51.348 50.9616C51.5826 51.052 51.7966 51.1887 51.9773 51.3635C52.158 51.5383 52.3017 51.7476 52.3998 51.9791C52.4979 52.2105 52.5485 52.4593 52.5485 52.7107C52.5485 52.9621 52.4979 53.211 52.3998 53.4424C52.3017 53.6739 52.158 53.8832 51.9773 54.058C51.7966 54.2328 51.5826 54.3695 51.348 54.4598C51.1134 54.5502 50.8631 54.5925 50.6118 54.5842H47.5366ZM31.4414 49.463C31.4414 49.0519 31.6047 48.6576 31.8954 48.367C32.1861 48.0763 32.5803 47.913 32.9914 47.913H40.4996C40.9107 47.913 41.3049 48.0763 41.5956 48.367C41.8863 48.6576 42.0496 49.0519 42.0496 49.463C42.0496 49.8741 41.8863 50.2683 41.5956 50.559C41.3049 50.8497 40.9107 51.013 40.4996 51.013H34.7997C34.7312 51.013 34.6655 51.0402 34.6171 51.0886C34.5686 51.1371 34.5414 51.2028 34.5414 51.2713V54.5304C34.5414 54.6751 34.6571 54.7888 34.7997 54.7888H40.3983C40.8094 54.7888 41.2037 54.9521 41.4944 55.2428C41.785 55.5334 41.9483 55.9277 41.9483 56.3388C41.9483 56.7499 41.785 57.1441 41.4944 57.4348C41.2037 57.7255 40.8094 57.8888 40.3983 57.8888H34.7997C34.7312 57.8888 34.6655 57.916 34.6171 57.9644C34.5686 58.0129 34.5414 58.0786 34.5414 58.1471V62.7496C34.5414 63.1607 34.3781 63.5549 34.0874 63.8456C33.7967 64.1363 33.4025 64.2996 32.9914 64.2996C32.5803 64.2996 32.1861 64.1363 31.8954 63.8456C31.6047 63.5549 31.4414 63.1607 31.4414 62.7496V49.4609V49.463ZM59.2381 47.913C58.827 47.913 58.4327 48.0763 58.1421 48.367C57.8514 48.6576 57.6881 49.0519 57.6881 49.463V62.7516C57.6881 63.6072 58.3804 64.3016 59.2381 64.3016H66.7442C67.1553 64.3016 67.5495 64.1383 67.8402 63.8477C68.1309 63.557 68.2942 63.1627 68.2942 62.7516C68.2942 62.3406 68.1309 61.9463 67.8402 61.6556C67.5495 61.3649 67.1553 61.2016 66.7442 61.2016H61.0464C61.0123 61.2016 60.9785 61.1949 60.9471 61.1818C60.9156 61.1687 60.887 61.1495 60.863 61.1252C60.839 61.101 60.82 61.0723 60.8071 61.0407C60.7943 61.0092 60.7878 60.9753 60.7881 60.9412V58.1492C60.7881 58.0066 60.9038 57.8908 61.0464 57.8908H66.6429C67.054 57.8908 67.4483 57.7275 67.739 57.4369C68.0296 57.1462 68.1929 56.7519 68.1929 56.3408C68.1929 55.9298 68.0296 55.5355 67.739 55.2448C67.4483 54.9541 67.054 54.7908 66.6429 54.7908H61.0464C60.9779 54.7908 60.9122 54.7636 60.8637 54.7152C60.8153 54.6667 60.7881 54.601 60.7881 54.5325V51.2734C60.7881 51.1287 60.9038 51.015 61.0464 51.015H66.7442C67.1553 51.015 67.5495 50.8517 67.8402 50.5611C68.1309 50.2704 68.2942 49.8761 68.2942 49.465C68.2942 49.054 68.1309 48.6597 67.8402 48.369C67.5495 48.0783 67.1553 47.915 66.7442 47.915H59.2381V47.913ZM72.008 47.913C71.5969 47.913 71.2027 48.0763 70.912 48.367C70.6213 48.6576 70.458 49.0519 70.458 49.463V62.7516C70.458 63.6072 71.1524 64.3016 72.008 64.3016H79.5162C79.9273 64.3016 80.3215 64.1383 80.6122 63.8477C80.9029 63.557 81.0662 63.1627 81.0662 62.7516C81.0662 62.3406 80.9029 61.9463 80.6122 61.6556C80.3215 61.3649 79.9273 61.2016 79.5162 61.2016H73.8163C73.7822 61.2016 73.7485 61.1949 73.717 61.1818C73.6855 61.1687 73.657 61.1495 73.6329 61.1252C73.6089 61.101 73.5899 61.0723 73.5771 61.0407C73.5642 61.0092 73.5577 60.9753 73.558 60.9412V58.1492C73.558 58.0066 73.6737 57.8908 73.8163 57.8908H79.4149C79.826 57.8908 80.2203 57.7275 80.511 57.4369C80.8016 57.1462 80.9649 56.7519 80.9649 56.3408C80.9649 55.9298 80.8016 55.5355 80.511 55.2448C80.2203 54.9541 79.826 54.7908 79.4149 54.7908H73.8163C73.7478 54.7908 73.6821 54.7636 73.6337 54.7152C73.5852 54.6667 73.558 54.601 73.558 54.5325V51.2734C73.558 51.1287 73.6737 51.015 73.8163 51.015H79.5162C79.9273 51.015 80.3215 50.8517 80.6122 50.5611C80.9029 50.2704 81.0662 49.8761 81.0662 49.465C81.0662 49.054 80.9029 48.6597 80.6122 48.369C80.3215 48.0783 79.9273 47.915 79.5162 47.915H72.008V47.913Z" fill="#4CD79D"/>
<path d="M35.3333 25C33.9763 25 32.6326 25.2673 31.3789 25.7866C30.1252 26.3059 28.9861 27.067 28.0266 28.0266C26.0887 29.9644 25 32.5928 25 35.3333V76.6667C25 79.4072 26.0887 82.0356 28.0266 83.9734C28.9861 84.933 30.1252 85.6941 31.3789 86.2134C32.6326 86.7327 33.9763 87 35.3333 87H76.6667C79.4072 87 82.0356 85.9113 83.9734 83.9734C85.9113 82.0356 87 79.4072 87 76.6667V35.3333C87 33.9763 86.7327 32.6326 86.2134 31.3789C85.6941 30.1252 84.933 28.9861 83.9734 28.0266C83.0139 27.067 81.8748 26.3059 80.6211 25.7866C79.3674 25.2673 78.0237 25 76.6667 25H35.3333ZM29.1333 35.3333C29.1333 33.689 29.7865 32.112 30.9493 30.9493C32.112 29.7865 33.689 29.1333 35.3333 29.1333H76.6667C78.311 29.1333 79.888 29.7865 81.0507 30.9493C82.2135 32.112 82.8667 33.689 82.8667 35.3333V76.6667C82.8667 78.311 82.2135 79.888 81.0507 81.0507C79.888 82.2135 78.311 82.8667 76.6667 82.8667H35.3333C33.689 82.8667 32.112 82.2135 30.9493 81.0507C29.7865 79.888 29.1333 78.311 29.1333 76.6667V35.3333Z" fill="#4CD79D"/>
</svg>
