<svg width="300" height="293" viewBox="0 0 300 293" fill="none" xmlns="http://www.w3.org/2000/svg">
<path d="M298.455 142.966C295.174 170.757 282.485 203.069 257.142 217.912C218.851 240.344 222.057 274.847 147.318 289.846C135.665 292.186 124.607 293.171 114.179 292.976C108.574 292.872 103.147 292.42 97.9144 291.65C50.4133 284.711 18.4474 251.694 6.71991 211.837C-8.71358 159.419 22.1026 125.101 42.529 104.425C62.9543 83.7489 77.9149 19.3246 151.272 4.00201C162.458 1.67062 173.896 0.481018 185.331 0.766479C211.431 1.40659 239.899 9.97757 259.598 27.8656C261.077 29.2095 262.515 30.6031 263.917 32.0389C291.297 60.142 302.931 105.079 298.455 142.966Z" fill="#39D192"/>
<g opacity="0.699997">
<path d="M298.451 142.966C295.17 170.757 282.481 203.069 257.138 217.912C218.847 240.344 222.053 274.847 147.314 289.846C135.661 292.186 124.603 293.171 114.175 292.976C108.57 292.872 103.144 292.42 97.9105 291.65C50.4094 284.711 18.4435 251.694 6.716 211.837C-8.71748 159.419 22.0986 125.101 42.5251 104.425C62.9504 83.7489 77.9109 19.3246 151.268 4.00201C162.454 1.67062 173.892 0.481018 185.327 0.766479C211.427 1.40659 239.895 9.97757 259.594 27.8656C261.073 29.2095 262.511 30.6031 263.913 32.0389C291.293 60.142 302.927 105.079 298.451 142.966Z" fill="white"/>
</g>
<path d="M131.674 31.5795C131.674 31.5795 119.74 17.6566 102.337 17.6566C84.9339 17.6566 81.9501 30.0879 78.4695 32.5743C74.989 35.06 69.022 30.5847 63.0551 32.5743C57.0887 34.5632 55.5965 39.038 53.1107 40.0322C50.6243 41.027 47.1438 36.5516 41.1768 38.0438C35.2099 39.5354 27.2539 44.5076 27.2539 44.5076H160.017C160.017 44.5076 159.022 35.5574 150.072 34.5632C141.122 33.5684 134.658 39.5354 131.674 31.5795Z" stroke="#1A2E35" stroke-miterlimit="10"/>
<path d="M261.124 116.728C261.124 116.728 254.614 109.132 245.119 109.132C235.624 109.132 233.997 115.914 232.098 117.271C230.199 118.627 226.943 116.185 223.688 117.271C220.433 118.356 219.619 120.797 218.262 121.34C216.906 121.882 215.007 119.441 211.751 120.255C208.497 121.068 204.156 123.781 204.156 123.781H276.587C276.587 123.781 276.044 118.898 271.161 118.356C266.279 117.813 262.751 121.068 261.124 116.728Z" stroke="#1A2E35" stroke-miterlimit="10"/>
<path d="M83.6529 156.403C83.6529 156.403 76.9215 148.55 67.1052 148.55C57.2889 148.55 55.6056 155.562 53.6423 156.964C51.679 158.366 48.3136 155.842 44.9476 156.964C41.5822 158.086 40.7411 160.61 39.3384 161.171C37.9362 161.732 35.973 159.208 32.6069 160.049C29.2415 160.891 24.7539 163.695 24.7539 163.695H99.6401C99.6401 163.695 99.079 158.647 94.0303 158.086C88.9822 157.525 85.3362 160.891 83.6529 156.403Z" stroke="#1A2E35" stroke-miterlimit="10"/>
<path d="M256.929 209.129H39.2852V277.417H256.929V209.129Z" fill="#39D192" stroke="#1A2E35" stroke-miterlimit="10"/>
<path d="M256.929 209.129H39.2852V211.646H256.929V209.129Z" fill="#1A2E35" stroke="#1A2E35" stroke-miterlimit="10"/>
<path d="M256.929 250.481H39.2852V277.417H256.929V250.481Z" fill="#1A2E35" stroke="#1A2E35" stroke-miterlimit="10"/>
<path d="M258.901 209.52H37.3086V203.129H258.901V209.52Z" fill="#1A2E35" stroke="#1A2E35" stroke-miterlimit="10"/>
<path d="M207.068 39.6608H89.1406V277.416H207.068V39.6608Z" fill="#39D192" stroke="#1A2E35" stroke-miterlimit="10"/>
<path d="M178.226 223.531H117.98V277.416H178.226V223.531Z" fill="#8B8B8B" stroke="#1A2E35" stroke-miterlimit="10"/>
<path d="M207.068 122.541H89.1406V128.352H207.068V122.541Z" fill="#1A2E35" stroke="#1A2E35" stroke-miterlimit="10"/>
<path d="M207.068 150.382H89.1406V155.223H207.068V150.382Z" fill="#1A2E35" stroke="#1A2E35" stroke-miterlimit="10"/>
<path d="M207.068 176.77H89.1406V183.064H207.068V176.77Z" fill="#1A2E35" stroke="#1A2E35" stroke-miterlimit="10"/>
<path d="M89.1406 208.779H207.068V204.369H89.1406V208.779Z" fill="#1A2E35" stroke="#1A2E35" stroke-miterlimit="10"/>
<path d="M207.068 93.364H89.1406V98.5745H207.068V93.364Z" fill="#1A2E35" stroke="#1A2E35" stroke-miterlimit="10"/>
<path d="M207.068 66.3091H89.1406V71.5195H207.068V66.3091Z" fill="#1A2E35" stroke="#1A2E35" stroke-miterlimit="10"/>
<path d="M207.068 39.2545H89.1406V44.4644H207.068V39.2545Z" fill="#1A2E35" stroke="#1A2E35" stroke-miterlimit="10"/>
<path d="M169.166 229.06H127.043V268.051H169.166V229.06Z" fill="#B9B9B9" stroke="#1A2E35" stroke-miterlimit="10"/>
<path d="M146.372 231.34H129.352V268.051H146.372V231.34Z" fill="#1A2E35" stroke="#1A2E35" stroke-miterlimit="10"/>
<path d="M149.305 268.051H166.858V231.34H149.305V268.051Z" fill="#1A2E35" stroke="#1A2E35" stroke-miterlimit="10"/>
<path d="M207.167 277.472H89.043V266.601H207.167V277.472Z" fill="#1A2E35" stroke="#1A2E35" stroke-miterlimit="10"/>
<path d="M170.223 277.472H126.77V266.601H170.223V277.472Z" fill="white" stroke="#1A2E35" stroke-miterlimit="10"/>
<path d="M170.223 273.829H126.77V270.244H170.223V273.829Z" fill="white" stroke="#1A2E35" stroke-miterlimit="10"/>
<path d="M208.826 207.172H87.2578V202.572H208.826V207.172Z" fill="#1A2E35" stroke="#1A2E35" stroke-miterlimit="10"/>
<path d="M208.826 179.901H87.2578V175.301H208.826V179.901Z" fill="#1A2E35" stroke="#1A2E35" stroke-miterlimit="10"/>
<path d="M208.826 152.631H87.2578V148.03H208.826V152.631Z" fill="#1A2E35" stroke="#1A2E35" stroke-miterlimit="10"/>
<path d="M208.826 125.36H87.2578V120.76H208.826V125.36Z" fill="#1A2E35" stroke="#1A2E35" stroke-miterlimit="10"/>
<path d="M208.826 95.6643H87.2578V91.0646H208.826V95.6643Z" fill="#1A2E35" stroke="#1A2E35" stroke-miterlimit="10"/>
<path d="M202.872 229.197H191.043V210.797H202.872V229.197Z" fill="white" stroke="#1A2E35" stroke-miterlimit="10"/>
<path d="M202.059 212.061H191.855V219.833H202.059V212.061Z" fill="white" stroke="#1A2E35" stroke-miterlimit="10"/>
<path d="M191.855 227.933H202.059V221.536H191.855V227.933Z" fill="white" stroke="#1A2E35" stroke-miterlimit="10"/>
<path d="M202.872 257.792H191.043V239.393H202.872V257.792Z" fill="white" stroke="#1A2E35" stroke-miterlimit="10"/>
<path d="M202.059 240.656H191.855V248.428H202.059V240.656Z" fill="white" stroke="#1A2E35" stroke-miterlimit="10"/>
<path d="M191.855 256.529H202.059V250.132H191.855V256.529Z" fill="white" stroke="#1A2E35" stroke-miterlimit="10"/>
<path d="M224.911 257.792H213.082V239.393H224.911V257.792Z" fill="white" stroke="#1A2E35" stroke-miterlimit="10"/>
<path d="M224.094 240.656H213.891V248.428H224.094V240.656Z" fill="white" stroke="#1A2E35" stroke-miterlimit="10"/>
<path d="M213.891 256.529H224.094V250.132H213.891V256.529Z" fill="white" stroke="#1A2E35" stroke-miterlimit="10"/>
<path d="M249.809 257.792H237.98V239.393H249.809V257.792Z" fill="white" stroke="#1A2E35" stroke-miterlimit="10"/>
<path d="M248.996 240.656H238.793V248.428H248.996V240.656Z" fill="white" stroke="#1A2E35" stroke-miterlimit="10"/>
<path d="M238.793 256.529H248.996V250.132H238.793V256.529Z" fill="white" stroke="#1A2E35" stroke-miterlimit="10"/>
<path d="M58.0981 257.792H46.2695V239.393H58.0981V257.792Z" fill="white" stroke="#1A2E35" stroke-miterlimit="10"/>
<path d="M57.2855 240.656H47.082V248.428H57.2855V240.656Z" fill="white" stroke="#1A2E35" stroke-miterlimit="10"/>
<path d="M47.082 256.529H57.2855V250.132H47.082V256.529Z" fill="white" stroke="#1A2E35" stroke-miterlimit="10"/>
<path d="M82.9965 257.792H71.168V239.393H82.9965V257.792Z" fill="white" stroke="#1A2E35" stroke-miterlimit="10"/>
<path d="M82.1839 240.656H71.9805V248.428H82.1839V240.656Z" fill="white" stroke="#1A2E35" stroke-miterlimit="10"/>
<path d="M71.9805 256.529H82.1839V250.132H71.9805V256.529Z" fill="white" stroke="#1A2E35" stroke-miterlimit="10"/>
<path d="M107.551 229.197H95.7227V210.797H107.551V229.197Z" fill="white" stroke="#1A2E35" stroke-miterlimit="10"/>
<path d="M106.739 212.061H96.5352V219.833H106.739V212.061Z" fill="white" stroke="#1A2E35" stroke-miterlimit="10"/>
<path d="M96.5352 227.933H106.739V221.536H96.5352V227.933Z" fill="white" stroke="#1A2E35" stroke-miterlimit="10"/>
<path d="M107.551 257.792H95.7227V239.393H107.551V257.792Z" fill="white" stroke="#1A2E35" stroke-miterlimit="10"/>
<path d="M106.739 240.656H96.5352V248.428H106.739V240.656Z" fill="white" stroke="#1A2E35" stroke-miterlimit="10"/>
<path d="M96.5352 256.529H106.739V250.132H96.5352V256.529Z" fill="white" stroke="#1A2E35" stroke-miterlimit="10"/>
<path d="M224.911 229.325H213.082V210.926H224.911V229.325Z" fill="white" stroke="#1A2E35" stroke-miterlimit="10"/>
<path d="M224.094 212.19H213.891V219.962H224.094V212.19Z" fill="white" stroke="#1A2E35" stroke-miterlimit="10"/>
<path d="M213.891 228.061H224.094V221.664H213.891V228.061Z" fill="white" stroke="#1A2E35" stroke-miterlimit="10"/>
<path d="M249.809 229.325H237.98V210.926H249.809V229.325Z" fill="white" stroke="#1A2E35" stroke-miterlimit="10"/>
<path d="M248.996 212.19H238.793V219.962H248.996V212.19Z" fill="white" stroke="#1A2E35" stroke-miterlimit="10"/>
<path d="M238.793 228.061H248.996V221.664H238.793V228.061Z" fill="white" stroke="#1A2E35" stroke-miterlimit="10"/>
<path d="M58.0981 229.325H46.2695V210.926H58.0981V229.325Z" fill="white" stroke="#1A2E35" stroke-miterlimit="10"/>
<path d="M57.2855 212.19H47.082V219.962H57.2855V212.19Z" fill="white" stroke="#1A2E35" stroke-miterlimit="10"/>
<path d="M47.082 228.061H57.2855V221.664H47.082V228.061Z" fill="white" stroke="#1A2E35" stroke-miterlimit="10"/>
<path d="M82.9965 229.325H71.168V210.926H82.9965V229.325Z" fill="white" stroke="#1A2E35" stroke-miterlimit="10"/>
<path d="M82.1839 212.19H71.9805V219.962H82.1839V212.19Z" fill="white" stroke="#1A2E35" stroke-miterlimit="10"/>
<path d="M71.9805 228.061H82.1839V221.664H71.9805V228.061Z" fill="white" stroke="#1A2E35" stroke-miterlimit="10"/>
<path d="M107.551 229.325H95.7227V210.926H107.551V229.325Z" fill="white" stroke="#1A2E35" stroke-miterlimit="10"/>
<path d="M106.739 212.19H96.5352V219.962H106.739V212.19Z" fill="white" stroke="#1A2E35" stroke-miterlimit="10"/>
<path d="M96.5352 228.061H106.739V221.664H96.5352V228.061Z" fill="white" stroke="#1A2E35" stroke-miterlimit="10"/>
<path d="M107.551 200.601H95.7227V182.201H107.551V200.601Z" fill="white" stroke="#1A2E35" stroke-miterlimit="10"/>
<path d="M106.739 183.465H96.5352V191.237H106.739V183.465Z" fill="white" stroke="#1A2E35" stroke-miterlimit="10"/>
<path d="M96.5352 199.337H106.739V192.94H96.5352V199.337Z" fill="white" stroke="#1A2E35" stroke-miterlimit="10"/>
<path d="M107.551 173.104H95.7227V154.705H107.551V173.104Z" fill="white" stroke="#1A2E35" stroke-miterlimit="10"/>
<path d="M106.739 155.969H96.5352V163.741H106.739V155.969Z" fill="white" stroke="#1A2E35" stroke-miterlimit="10"/>
<path d="M96.5352 171.841H106.739V165.444H96.5352V171.841Z" fill="white" stroke="#1A2E35" stroke-miterlimit="10"/>
<path d="M107.551 145.608H95.7227V127.209H107.551V145.608Z" fill="white" stroke="#1A2E35" stroke-miterlimit="10"/>
<path d="M106.739 128.473H96.5352V136.245H106.739V128.473Z" fill="white" stroke="#1A2E35" stroke-miterlimit="10"/>
<path d="M96.5352 144.344H106.739V137.947H96.5352V144.344Z" fill="white" stroke="#1A2E35" stroke-miterlimit="10"/>
<path d="M107.551 118.112H95.7227V99.7126H107.551V118.112Z" fill="white" stroke="#1A2E35" stroke-miterlimit="10"/>
<path d="M106.739 100.977H96.5352V108.749H106.739V100.977Z" fill="white" stroke="#1A2E35" stroke-miterlimit="10"/>
<path d="M96.5352 116.848H106.739V110.451H96.5352V116.848Z" fill="white" stroke="#1A2E35" stroke-miterlimit="10"/>
<path d="M202.872 200.601H191.043V182.201H202.872V200.601Z" fill="white" stroke="#1A2E35" stroke-miterlimit="10"/>
<path d="M202.059 183.465H191.855V191.237H202.059V183.465Z" fill="white" stroke="#1A2E35" stroke-miterlimit="10"/>
<path d="M191.855 199.337H202.059V192.94H191.855V199.337Z" fill="white" stroke="#1A2E35" stroke-miterlimit="10"/>
<path d="M202.872 173.104H191.043V154.705H202.872V173.104Z" fill="white" stroke="#1A2E35" stroke-miterlimit="10"/>
<path d="M202.059 155.969H191.855V163.741H202.059V155.969Z" fill="white" stroke="#1A2E35" stroke-miterlimit="10"/>
<path d="M191.855 171.841H202.059V165.444H191.855V171.841Z" fill="white" stroke="#1A2E35" stroke-miterlimit="10"/>
<path d="M202.872 145.608H191.043V127.209H202.872V145.608Z" fill="white" stroke="#1A2E35" stroke-miterlimit="10"/>
<path d="M202.059 128.473H191.855V136.245H202.059V128.473Z" fill="white" stroke="#1A2E35" stroke-miterlimit="10"/>
<path d="M191.855 144.344H202.059V137.947H191.855V144.344Z" fill="white" stroke="#1A2E35" stroke-miterlimit="10"/>
<path d="M202.872 118.112H191.043V99.7126H202.872V118.112Z" fill="white" stroke="#1A2E35" stroke-miterlimit="10"/>
<path d="M202.059 100.977H191.855V108.749H202.059V100.977Z" fill="white" stroke="#1A2E35" stroke-miterlimit="10"/>
<path d="M191.855 116.848H202.059V110.451H191.855V116.848Z" fill="white" stroke="#1A2E35" stroke-miterlimit="10"/>
<path d="M107.551 91.0579H95.7227V72.6584H107.551V91.0579Z" fill="white" stroke="#1A2E35" stroke-miterlimit="10"/>
<path d="M106.739 73.9219H96.5352V81.6941H106.739V73.9219Z" fill="white" stroke="#1A2E35" stroke-miterlimit="10"/>
<path d="M96.5352 89.7935H106.739V83.3965H96.5352V89.7935Z" fill="white" stroke="#1A2E35" stroke-miterlimit="10"/>
<path d="M202.872 91.0579H191.043V72.6584H202.872V91.0579Z" fill="white" stroke="#1A2E35" stroke-miterlimit="10"/>
<path d="M202.059 73.9219H191.855V81.6941H202.059V73.9219Z" fill="white" stroke="#1A2E35" stroke-miterlimit="10"/>
<path d="M191.855 89.7935H202.059V83.3965H191.855V89.7935Z" fill="white" stroke="#1A2E35" stroke-miterlimit="10"/>
<path d="M107.551 64.0029H95.7227V45.6034H107.551V64.0029Z" fill="white" stroke="#1A2E35" stroke-miterlimit="10"/>
<path d="M106.739 46.867H96.5352V54.6392H106.739V46.867Z" fill="white" stroke="#1A2E35" stroke-miterlimit="10"/>
<path d="M96.5352 62.739H106.739V56.342H96.5352V62.739Z" fill="white" stroke="#1A2E35" stroke-miterlimit="10"/>
<path d="M131.383 64.0029H119.555V45.6034H131.383V64.0029Z" fill="white" stroke="#1A2E35" stroke-miterlimit="10"/>
<path d="M130.571 46.867H120.367V54.6392H130.571V46.867Z" fill="white" stroke="#1A2E35" stroke-miterlimit="10"/>
<path d="M120.367 62.739H130.571V56.342H120.367V62.739Z" fill="white" stroke="#1A2E35" stroke-miterlimit="10"/>
<path d="M155.211 64.0029H143.383V45.6034H155.211V64.0029Z" fill="white" stroke="#1A2E35" stroke-miterlimit="10"/>
<path d="M154.399 46.867H144.195V54.6392H154.399V46.867Z" fill="white" stroke="#1A2E35" stroke-miterlimit="10"/>
<path d="M144.195 62.739H154.399V56.342H144.195V62.739Z" fill="white" stroke="#1A2E35" stroke-miterlimit="10"/>
<path d="M179.043 64.0029H167.215V45.6034H179.043V64.0029Z" fill="white" stroke="#1A2E35" stroke-miterlimit="10"/>
<path d="M178.227 46.867H168.023V54.6392H178.227V46.867Z" fill="white" stroke="#1A2E35" stroke-miterlimit="10"/>
<path d="M168.027 62.739H178.231V56.342H168.027V62.739Z" fill="white" stroke="#1A2E35" stroke-miterlimit="10"/>
<path d="M202.872 64.0029H191.043V45.6034H202.872V64.0029Z" fill="white" stroke="#1A2E35" stroke-miterlimit="10"/>
<path d="M202.059 46.867H191.855V54.6392H202.059V46.867Z" fill="white" stroke="#1A2E35" stroke-miterlimit="10"/>
<path d="M191.855 62.739H202.059V56.342H191.855V62.739Z" fill="white" stroke="#1A2E35" stroke-miterlimit="10"/>
<path d="M182.38 71.1591H113.836V207.654H182.38V71.1591Z" fill="#8B8B8B" stroke="#1A2E35" stroke-miterlimit="10"/>
<g opacity="0.229996">
<path d="M181.726 123.842V99.7976L114.461 167.062V191.107L181.726 123.842Z" fill="white"/>
<path d="M114.461 89.7831V113.827L156 72.2884H131.956L114.461 89.7831Z" fill="white"/>
</g>
<g opacity="0.350006">
<path d="M118.477 72.5226V200.791" stroke="black" stroke-miterlimit="10"/>
<path d="M125.008 72.5226V206.721" stroke="black" stroke-miterlimit="10"/>
<path d="M131.539 72.5226V206.721" stroke="black" stroke-miterlimit="10"/>
<path d="M138.074 72.5226V206.721" stroke="black" stroke-miterlimit="10"/>
<path d="M144.609 72.5226V206.721" stroke="black" stroke-miterlimit="10"/>
<path d="M151.145 72.5226V206.721" stroke="black" stroke-miterlimit="10"/>
<path d="M157.68 72.5226V206.721" stroke="black" stroke-miterlimit="10"/>
<path d="M164.215 72.5226V206.721" stroke="black" stroke-miterlimit="10"/>
<path d="M170.746 72.5226V206.721" stroke="black" stroke-miterlimit="10"/>
<path d="M177.277 72.5226V200.791" stroke="black" stroke-miterlimit="10"/>
<path d="M115.633 75.1924H180.998" stroke="black" stroke-miterlimit="10"/>
<path d="M115.633 81.9089H180.998" stroke="black" stroke-miterlimit="10"/>
<path d="M115.633 88.625H180.998" stroke="black" stroke-miterlimit="10"/>
<path d="M115.633 95.3413H180.998" stroke="black" stroke-miterlimit="10"/>
<path d="M115.633 102.058H180.998" stroke="black" stroke-miterlimit="10"/>
<path d="M115.633 108.774H180.998" stroke="black" stroke-miterlimit="10"/>
<path d="M115.633 115.49H180.998" stroke="black" stroke-miterlimit="10"/>
<path d="M115.633 122.207H180.998" stroke="black" stroke-miterlimit="10"/>
<path d="M115.633 128.923H180.998" stroke="black" stroke-miterlimit="10"/>
<path d="M115.633 135.639H180.998" stroke="black" stroke-miterlimit="10"/>
<path d="M115.633 142.355H180.998" stroke="black" stroke-miterlimit="10"/>
<path d="M115.633 149.071H180.998" stroke="black" stroke-miterlimit="10"/>
<path d="M115.633 155.788H180.998" stroke="black" stroke-miterlimit="10"/>
<path d="M115.633 162.504H180.998" stroke="black" stroke-miterlimit="10"/>
<path d="M115.633 169.22H180.998" stroke="black" stroke-miterlimit="10"/>
<path d="M115.633 175.937H180.998" stroke="black" stroke-miterlimit="10"/>
<path d="M115.633 182.653H180.998" stroke="black" stroke-miterlimit="10"/>
<path d="M115.633 189.369H180.998" stroke="black" stroke-miterlimit="10"/>
<path d="M115.633 196.085H180.998" stroke="black" stroke-miterlimit="10"/>
</g>
<path d="M208.826 41.5542H87.2578V36.9545H208.826V41.5542Z" fill="#1A2E35" stroke="#1A2E35" stroke-miterlimit="10"/>
<path d="M186.299 64.4187H110.695V32.5876H186.299V64.4187Z" fill="#1A2E35" stroke="#1A2E35" stroke-miterlimit="10"/>
<path d="M208.826 68.6091H87.2578V64.0094H208.826V68.6091Z" fill="#1A2E35" stroke="#1A2E35" stroke-miterlimit="10"/>
<path d="M124.293 273.707H114.402V228.541H124.293V273.707Z" fill="#1A2E35" stroke="#1A2E35" stroke-miterlimit="10"/>
<path d="M126.775 229.074H111.93V222.023H126.775V229.074Z" fill="#39D192" stroke="#1A2E35" stroke-miterlimit="10"/>
<path d="M126.775 277.481H111.93V266.601H126.775V277.481Z" fill="#39D192" stroke="#1A2E35" stroke-miterlimit="10"/>
<path d="M182.559 273.707H172.668V228.541H182.559V273.707Z" fill="#1A2E35" stroke="#1A2E35" stroke-miterlimit="10"/>
<path d="M185.033 229.074H170.188V222.023H185.033V229.074Z" fill="#39D192" stroke="#1A2E35" stroke-miterlimit="10"/>
<path d="M185.033 277.481H170.188V266.601H185.033V277.481Z" fill="#39D192" stroke="#1A2E35" stroke-miterlimit="10"/>
<path d="M172.705 202.188L172.056 207.738H124.938L124.289 202.188H110.695V222.348H186.299V202.188H172.705Z" fill="#1A2E35"/>
<path d="M172.705 202.188L172.056 207.738H124.938L124.289 202.188H110.695V222.348H186.299V202.188H172.705Z" stroke="#1A2E35" stroke-miterlimit="10"/>
<path d="M175.883 217.049H121.02V211.788H175.883V217.049Z" fill="#39D192" stroke="#1A2E35" stroke-miterlimit="10"/>
<path d="M120.797 57.7805V38.7844H124.995V46.4769H127.926V38.7844H132.148V57.7805H127.926V49.4785H124.995V57.7805H120.797Z" fill="#39D192"/>
<path d="M120.797 57.7805V38.7844H124.995V46.4769H127.926V38.7844H132.148V57.7805H127.926V49.4785H124.995V57.7805H120.797Z" stroke="white" stroke-miterlimit="10"/>
<path d="M140.476 55.0833C140.913 55.0833 141.234 54.9736 141.438 54.7543C141.64 54.5356 141.773 54.2545 141.837 53.9102C141.898 53.5665 141.93 53.2149 141.93 52.8554V43.7086C141.93 43.3337 141.898 42.9778 141.837 42.6421C141.773 42.3058 141.64 42.0283 141.438 41.8097C141.234 41.5904 140.913 41.4813 140.476 41.4813C140.069 41.4813 139.764 41.5904 139.561 41.8097C139.358 42.0283 139.225 42.3058 139.163 42.6421C139.1 42.9778 139.069 43.3337 139.069 43.7086V52.8554C139.069 53.2149 139.096 53.5665 139.151 53.9102C139.206 54.2545 139.331 54.5356 139.526 54.7543C139.721 54.9736 140.038 55.0833 140.476 55.0833ZM140.476 58.0615C139.053 58.0615 137.927 57.8116 137.099 57.3105C136.27 56.8107 135.676 56.0915 135.317 55.1537C134.957 54.2153 134.777 53.0973 134.777 51.7999V44.7408C134.777 43.4274 134.957 42.3095 135.317 41.3876C135.676 40.4645 136.27 39.757 137.099 39.2651C137.927 38.772 139.053 38.5257 140.476 38.5257C141.914 38.5257 143.052 38.772 143.889 39.2651C144.725 39.757 145.323 40.4645 145.682 41.3876C146.042 42.3095 146.222 43.4274 146.222 44.7408V51.7999C146.222 53.0973 146.042 54.2153 145.682 55.1537C145.323 56.0915 144.725 56.8107 143.889 57.3105C143.052 57.8116 141.914 58.0615 140.476 58.0615Z" fill="#39D192"/>
<path d="M140.476 55.0833C140.913 55.0833 141.234 54.9736 141.438 54.7543C141.64 54.5356 141.773 54.2545 141.837 53.9102C141.898 53.5665 141.93 53.2149 141.93 52.8554V43.7086C141.93 43.3337 141.898 42.9778 141.837 42.6421C141.773 42.3058 141.64 42.0283 141.438 41.8097C141.234 41.5904 140.913 41.4813 140.476 41.4813C140.069 41.4813 139.764 41.5904 139.561 41.8097C139.358 42.0283 139.225 42.3058 139.163 42.6421C139.1 42.9778 139.069 43.3337 139.069 43.7086V52.8554C139.069 53.2149 139.096 53.5665 139.151 53.9102C139.206 54.2545 139.331 54.5356 139.526 54.7543C139.721 54.9736 140.038 55.0833 140.476 55.0833ZM140.476 58.0615C139.053 58.0615 137.927 57.8116 137.099 57.3105C136.27 56.8107 135.676 56.0915 135.317 55.1537C134.957 54.2153 134.777 53.0973 134.777 51.7999V44.7408C134.777 43.4274 134.957 42.3095 135.317 41.3876C135.676 40.4645 136.27 39.757 137.099 39.2651C137.927 38.772 139.053 38.5257 140.476 38.5257C141.914 38.5257 143.052 38.772 143.889 39.2651C144.725 39.757 145.323 40.4645 145.682 41.3876C146.042 42.3095 146.222 43.4274 146.222 44.7408V51.7999C146.222 53.0973 146.042 54.2153 145.682 55.1537C145.323 56.0915 144.725 56.8107 143.889 57.3105C143.052 57.8116 141.914 58.0615 140.476 58.0615Z" stroke="white" stroke-miterlimit="10"/>
<path d="M150.303 57.78V41.9031H147.441V38.7839H157.361V41.9031H154.524V57.78H150.303Z" fill="#39D192"/>
<path d="M150.303 57.78V41.9031H147.441V38.7839H157.361V41.9031H154.524V57.78H150.303Z" stroke="white" stroke-miterlimit="10"/>
<path d="M159.027 57.78V38.7839H167.564V41.6452H163.225V46.3588H166.532V49.2673H163.225V54.942H167.611V57.78H159.027Z" fill="#39D192"/>
<path d="M159.027 57.78V38.7839H167.564V41.6452H163.225V46.3588H166.532V49.2673H163.225V54.942H167.611V57.78H159.027Z" stroke="white" stroke-miterlimit="10"/>
<path d="M169.508 57.78V38.7839H173.706V54.942H178.068V57.78H169.508Z" fill="#39D192"/>
<path d="M169.508 57.78V38.7839H173.706V54.942H178.068V57.78H169.508Z" stroke="white" stroke-miterlimit="10"/>
<path d="M268.28 218.568C253.306 218.568 241.168 230.624 241.168 245.496C241.168 252.391 243.778 258.679 248.07 263.443C250.033 263.158 253.612 262.963 257.566 264.308C262.807 266.091 266.073 269.012 266.788 269.695H269.218C269.933 269.012 273.199 266.091 278.44 264.308C282.746 262.843 286.607 263.205 288.422 263.52C292.754 258.747 295.392 252.427 295.392 245.496C295.392 230.624 283.253 218.568 268.28 218.568Z" fill="#39D192"/>
<g opacity="0.5">
<path d="M268.276 218.568C253.303 218.568 241.164 230.625 241.164 245.496C241.164 252.391 243.774 258.679 248.066 263.443C250.029 263.158 253.608 262.963 257.562 264.308C262.803 266.091 266.069 269.013 266.784 269.695H269.214C269.929 269.013 273.195 266.091 278.436 264.308C282.742 262.844 286.603 263.206 288.418 263.52C292.75 258.747 295.388 252.428 295.388 245.496C295.388 230.625 283.249 218.568 268.276 218.568Z" fill="white"/>
</g>
<path d="M260.038 259.543C261.443 260.654 262.756 261.869 264.018 263.122C265.122 264.218 266.197 265.351 267.22 266.501L267.129 277.417H268.986L268.93 266.966C270.075 265.656 271.292 264.365 272.545 263.122C273.808 261.869 275.12 260.654 276.525 259.543C277.223 258.979 277.957 258.468 278.721 257.984C279.497 257.505 280.286 257.042 281.084 256.592C282.683 255.697 284.32 254.849 286.028 254.126C284.27 254.745 282.568 255.495 280.898 256.296C280.063 256.7 279.237 257.117 278.421 257.552C277.604 257.998 276.804 258.483 276.053 259.014C275.769 259.21 275.492 259.413 275.215 259.615L279.656 251.342L273.562 260.885C272.944 261.382 272.338 261.889 271.742 262.406C270.758 263.263 269.801 264.136 268.864 265.036L268.554 256.06L274.93 246.352L268.507 254.702L268.23 246.668L267.772 255.657L267.771 255.659L267.772 255.66L267.313 264.67C266.499 263.899 265.67 263.146 264.821 262.406C264.152 261.826 263.471 261.255 262.775 260.702L257.009 250.855L261.244 259.541C261 259.364 260.759 259.185 260.511 259.014C259.76 258.483 258.959 257.998 258.142 257.552C257.326 257.117 256.5 256.7 255.665 256.296C253.995 255.495 252.293 254.745 250.535 254.126C252.243 254.849 253.88 255.697 255.48 256.592C256.277 257.042 257.066 257.505 257.842 257.984C258.606 258.468 259.341 258.979 260.038 259.543Z" fill="#1A2E35"/>
<path d="M27.112 218.568C12.1385 218.568 0 230.624 0 245.495C0 252.39 2.61074 258.679 6.90173 263.443C8.86499 263.158 12.4436 262.963 16.3983 264.308C21.6393 266.091 24.9055 269.012 25.6204 269.695H28.0504C28.7653 269.012 32.0314 266.091 37.2719 264.308C41.5782 262.843 45.4392 263.205 47.2536 263.519C51.5862 258.747 54.2239 252.427 54.2239 245.495C54.2239 230.624 42.0854 218.568 27.112 218.568Z" fill="#39D192"/>
<g opacity="0.5">
<path d="M27.112 218.568C12.1385 218.568 0 230.624 0 245.495C0 252.39 2.61074 258.679 6.90173 263.443C8.86499 263.158 12.4436 262.963 16.3983 264.308C21.6393 266.091 24.9055 269.012 25.6204 269.695H28.0504C28.7653 269.012 32.0314 266.091 37.2719 264.308C41.5782 262.843 45.4392 263.205 47.2536 263.519C51.5862 258.747 54.2239 252.427 54.2239 245.495C54.2239 230.624 42.0854 218.568 27.112 218.568Z" fill="white"/>
</g>
<path d="M18.8744 259.543C20.279 260.654 21.5911 261.869 22.8542 263.122C23.958 264.218 25.0318 265.351 26.0554 266.501L25.9654 277.417H27.8227L27.7663 266.966C28.9106 265.656 30.1283 264.365 31.381 263.122C32.6441 261.869 33.9562 260.654 35.3608 259.543C36.0586 258.979 36.793 258.468 37.5569 257.984C38.333 257.505 39.1214 257.042 39.9195 256.592C41.5189 255.697 43.1563 254.849 44.8635 254.126C43.1061 254.745 41.4038 255.495 39.7333 256.296C38.8996 256.7 38.0727 257.117 37.2567 257.552C36.4402 257.998 35.6396 258.483 34.8886 259.014C34.6049 259.21 34.3281 259.413 34.0506 259.615L38.4916 251.342L32.3979 260.885C31.7804 261.382 31.174 261.889 30.5786 262.406C29.5942 263.263 28.6374 264.136 27.6995 265.036L27.3896 256.06L33.7657 246.352L27.343 254.702L27.0662 246.668L26.608 255.657L26.6067 255.659L26.608 255.66L26.1485 264.67C25.3344 263.899 24.5063 263.146 23.6566 262.406C22.9877 261.826 22.3072 261.255 21.6107 260.702L15.8453 250.855L20.0799 259.541C19.8367 259.364 19.5947 259.185 19.3467 259.014C18.5957 258.483 17.795 257.998 16.9779 257.552C16.1619 257.117 15.3356 256.7 14.5013 256.296C12.8308 255.495 11.1291 254.745 9.37109 254.126C11.0789 254.849 12.7163 255.697 14.3151 256.592C15.1132 257.042 15.9022 257.505 16.6783 257.984C17.4422 258.468 18.1767 258.979 18.8744 259.543Z" fill="#1A2E35"/>
<path d="M2.23047 277.417H300.001" stroke="#1A2E35" stroke-miterlimit="10"/>
</svg>
