<svg width="301" height="275" viewBox="0 0 301 275" fill="none" xmlns="http://www.w3.org/2000/svg">
<path d="M254.398 51.1156C243.696 40.6494 231.438 31.9507 218.405 25.8571C198.56 16.5778 176.703 12.1054 154.843 11.8393C90.9564 11.0629 86.093 86.114 66.4511 96.5487C46.808 106.984 11.2058 108.212 9.97821 149.952C9.20562 176.206 15.3343 203.201 32.568 223.657C48.3532 242.391 71.5424 251.887 94.3876 258.901C120.043 266.779 147.251 274.506 174.237 269.192C201.931 263.737 221.388 241.808 244.131 226.99C258.45 217.66 271.304 207.835 280.145 192.864C281.201 191.075 282.192 189.248 283.134 187.397C294.971 164.132 297.292 137.297 290.764 112.123C284.906 89.5326 271.684 68.0198 254.398 51.1156Z" fill="#39D192"/>
<g opacity="0.699997">
<path d="M254.398 51.1156C243.696 40.6494 231.438 31.9507 218.405 25.8571C198.56 16.5778 176.703 12.1054 154.843 11.8393C90.9564 11.0629 86.093 86.114 66.4511 96.5487C46.808 106.984 11.2058 108.212 9.97821 149.952C9.20562 176.206 15.3343 203.201 32.568 223.657C48.3532 242.391 71.5424 251.887 94.3876 258.901C120.043 266.779 147.251 274.506 174.237 269.192C201.931 263.737 221.388 241.808 244.131 226.99C258.45 217.66 271.304 207.835 280.145 192.864C281.201 191.075 282.192 189.248 283.134 187.397C294.971 164.132 297.292 137.297 290.764 112.123C284.906 89.5326 271.684 68.0198 254.398 51.1156Z" fill="white"/>
</g>
<path d="M6.90234 226.36H17.5718V206.276H25.7308V213.808H33.8899V200.628H52.7184V212.553H69.664V196.862H83.4716V211.925H97.2007V178.661H105.438V192.469H112.342V173.013H129.288V213.808H151.882V186.82H166.317V202.511H178.869V181.799H200.836V204.394H212.133V191.214H220.92V200H229.706V189.331H234.727V178.661H242.259V208.968H249.14V201.255H251.045V218.201H262.342V194.979H270.501V206.276H275.522V218.201H280.543V201.883H284.309V226.36H299.372" stroke="#1A2E35" stroke-width="1.33333" stroke-miterlimit="10" stroke-linecap="round" stroke-linejoin="round"/>
<path d="M217.132 108.094C216.372 108.683 215.592 109.06 214.813 109.233C212.487 109.75 206.287 109.492 205.253 112.333C204.22 115.175 201.378 115.95 201.378 115.95C201.378 115.95 196.47 116.209 196.211 117.242C195.953 118.275 194.145 120.083 194.145 120.083H278.624C278.624 120.083 281.465 115.691 276.815 111.559C272.745 107.942 265.315 113.423 264.385 108.966" stroke="#1A2E35" stroke-width="1.33333" stroke-miterlimit="10" stroke-linecap="round" stroke-linejoin="round"/>
<path d="M263.624 102.388C262.681 98.9905 260.697 94.4033 256.668 92.6987C249.951 89.8568 244.267 93.7324 242.717 97.6073C241.167 101.483 240.133 104.066 234.192 100.708C228.25 97.3487 223.083 97.6073 221.274 101.999C220.685 103.431 220.041 104.643 219.359 105.645" stroke="#1A2E35" stroke-width="1.33333" stroke-miterlimit="10" stroke-linecap="round" stroke-linejoin="round"/>
<path d="M73.6406 153.138H102.979C102.979 153.138 104.698 150.482 101.885 147.981C99.0723 145.482 93.6039 150.169 94.3846 144.857C94.3846 144.857 93.7601 138.294 89.6969 136.575C87.1262 135.487 84.8053 136.027 83.2105 137.163" stroke="#1A2E35" stroke-width="1.33333" stroke-miterlimit="10" stroke-linecap="round" stroke-linejoin="round"/>
<path d="M81.2629 139.544C80.3253 141.887 79.7002 143.45 76.1064 141.418C72.5127 139.387 69.3878 139.544 68.2932 142.2C67.1999 144.857 65.7934 146.263 64.387 146.575C62.9811 146.888 59.2311 146.731 58.6054 148.45C57.9809 150.169 56.2618 150.638 56.2618 150.638C56.2618 150.638 53.2932 150.794 53.1369 151.419C52.9807 152.044 51.8867 153.138 51.8867 153.138H69.0414" stroke="#1A2E35" stroke-width="1.33333" stroke-miterlimit="10" stroke-linecap="round" stroke-linejoin="round"/>
<path d="M220.508 153.138H234.365C234.365 153.138 236.084 150.482 233.272 147.981C230.459 145.482 224.99 150.169 225.771 144.857C225.771 144.857 225.147 138.294 221.083 136.575C217.021 134.856 213.583 137.2 212.646 139.544C211.708 141.888 211.083 143.45 207.489 141.419C203.895 139.387 200.771 139.544 199.677 142.2C198.582 144.857 197.176 146.263 195.77 146.575C194.364 146.888 190.613 146.731 189.989 148.45C189.364 150.169 187.645 150.638 187.645 150.638C187.645 150.638 184.675 150.794 184.519 151.42C184.363 152.045 183.27 153.138 183.27 153.138H215.906" stroke="#1A2E35" stroke-width="1.33333" stroke-miterlimit="10" stroke-linecap="round" stroke-linejoin="round"/>
<g opacity="0.100006">
<path d="M126.36 91.2134C126.36 91.2134 125.105 84.1007 119.665 82.8454C114.226 81.5902 115.481 85.3559 107.531 91.6321C99.5814 97.9082 91.2134 90.7948 85.3559 82.8454C79.4977 74.8954 71.9663 80.335 69.0378 87.0291C66.1087 93.7239 58.5773 91.6321 50.6273 78.6611C42.6779 65.6902 30.5436 67.7826 25.5226 72.8036C20.5017 77.8245 12.9703 78.2425 10.4598 74.4768C7.94938 70.7111 0 67.364 0 67.364V4.57764e-05H153.975C153.975 4.57764e-05 153.975 3.76574 157.322 12.1338C160.67 20.5018 163.598 12.5524 173.64 15.0628C183.682 17.5733 182.427 24.2675 181.59 30.5436C180.754 36.8198 187.866 38.9123 190.377 40.1675C192.887 41.4227 200 42.2593 196.234 48.5355C192.469 54.8117 184.937 60.6692 190.377 63.1797C195.816 65.6902 206.695 72.8036 200.837 77.4059C194.979 82.0082 192.973 87.5256 191.873 88.6252L190.773 89.7254H180.754C180.754 89.7254 182.845 83.682 176.151 82.0082C169.456 80.335 162.343 82.4268 161.088 90.3768H154.394C154.394 90.3768 154.394 87.4477 148.535 83.682C142.678 79.9163 134.31 81.5902 133.473 89.9582L126.36 91.2134Z" fill="black"/>
</g>
<g opacity="0.100006">
<path d="M177.407 76.0395C179.483 70.701 165.247 63.287 165.247 56.1692C165.247 49.0514 170.882 49.3476 170.288 40.7468C169.695 32.1459 161.095 31.5528 160.205 28.5873C159.316 25.6212 164.06 22.0626 159.316 20.8764C154.57 19.6896 151.308 25.6212 147.156 22.9526C143.004 20.2833 149.529 9.31008 143.004 8.12326C136.479 6.93707 133.81 12.2756 130.251 9.60632C127.224 7.33624 130.414 2.49291 126.875 0.000640869H14.0469C15.5481 2.90274 19.6233 9.34335 25.8555 8.42013C33.8633 7.23393 48.0988 -2.84999 52.5474 4.86091C56.9959 12.5718 59.0721 17.9103 64.1137 13.1649C69.156 8.42012 81.3155 3.67471 82.2054 13.1649C83.0947 22.6557 86.654 24.435 93.1787 21.7658C99.7034 19.0965 110.38 13.1649 112.16 23.5451C113.939 33.9258 118.388 38.9675 124.912 36.002C131.437 33.0359 140.631 35.112 138.852 44.306C137.072 53.4999 134.996 56.7623 139.445 58.8378C143.893 60.914 149.825 64.4732 145.376 69.2186C140.927 73.9634 133.513 74.8533 136.775 76.6326C140.038 78.4126 141.817 79.895 138.852 81.6749C137.79 82.3119 136.926 83.1021 136.3 83.9042C139.452 81.0812 144.562 81.1345 148.527 83.6827C154.384 87.4484 154.384 90.3774 154.384 90.3774H159.109C157.952 87.7672 157.47 84.9084 160.205 82.5642C164.357 79.0057 175.33 81.378 177.407 76.0395Z" fill="black"/>
</g>
<path d="M135.611 88.6043H125.36L120.234 216.219H140.737L135.611 88.6043Z" fill="#39D192"/>
<path d="M135.611 88.6043H125.36L120.234 216.219H140.737L135.611 88.6043Z" stroke="#1A2E35" stroke-width="1.33333" stroke-miterlimit="10"/>
<path d="M135.544 89.7253H125.424C124.817 89.7253 124.324 89.2327 124.324 88.6251C124.324 88.0176 124.817 87.5255 125.424 87.5255H135.544C136.152 87.5255 136.644 88.0176 136.644 88.6251C136.644 89.2327 136.152 89.7253 135.544 89.7253Z" fill="white"/>
<path d="M135.544 89.7253H125.424C124.817 89.7253 124.324 89.2327 124.324 88.6251C124.324 88.0176 124.817 87.5255 125.424 87.5255H135.544C136.152 87.5255 136.644 88.0176 136.644 88.6251C136.644 89.2327 136.152 89.7253 135.544 89.7253Z" stroke="#1A2E35" stroke-width="1.33333" stroke-miterlimit="10"/>
<path d="M125.122 94.4619L124.938 99.0642H136.028L135.844 94.4619H125.122Z" fill="white"/>
<path d="M125.122 94.4619L124.938 99.0642H136.028L135.844 94.4619H125.122Z" stroke="#1A2E35" stroke-width="1.33333" stroke-miterlimit="10"/>
<path d="M140.028 198.646L139.843 194.044H121.123L120.938 198.646H140.028Z" fill="white"/>
<path d="M140.028 198.646L139.843 194.044H121.123L120.938 198.646H140.028Z" stroke="#1A2E35" stroke-width="1.33333" stroke-miterlimit="10"/>
<path d="M122.263 165.592L122.078 170.194H138.883L138.699 165.592H122.263Z" fill="white"/>
<path d="M122.263 165.592L122.078 170.194H138.883L138.699 165.592H122.263Z" stroke="#1A2E35" stroke-width="1.33333" stroke-miterlimit="10"/>
<path d="M121.688 179.818L121.504 184.42H139.451L139.267 179.818H121.688Z" fill="white"/>
<path d="M121.688 179.818L121.504 184.42H139.451L139.267 179.818H121.688Z" stroke="#1A2E35" stroke-width="1.33333" stroke-miterlimit="10"/>
<path d="M122.837 151.366L122.652 155.969H138.315L138.129 151.366H122.837Z" fill="white"/>
<path d="M122.837 151.366L122.652 155.969H138.315L138.129 151.366H122.837Z" stroke="#1A2E35" stroke-width="1.33333" stroke-miterlimit="10"/>
<path d="M124.548 108.688L124.363 113.29H136.597L136.412 108.688H124.548Z" fill="white"/>
<path d="M124.548 108.688L124.363 113.29H136.597L136.412 108.688H124.548Z" stroke="#1A2E35" stroke-width="1.33333" stroke-miterlimit="10"/>
<path d="M123.407 137.14L123.223 141.742H137.742L137.557 137.14H123.407Z" fill="white"/>
<path d="M123.407 137.14L123.223 141.742H137.742L137.557 137.14H123.407Z" stroke="#1A2E35" stroke-width="1.33333" stroke-miterlimit="10"/>
<path d="M123.977 122.914L123.793 127.516H137.169L136.985 122.914H123.977Z" fill="white"/>
<path d="M123.977 122.914L123.793 127.516H137.169L136.985 122.914H123.977Z" stroke="#1A2E35" stroke-width="1.33333" stroke-miterlimit="10"/>
<path d="M163.22 88.6043H152.969L147.844 216.219H168.345L163.22 88.6043Z" fill="#39D192"/>
<path d="M163.22 88.6043H152.969L147.844 216.219H168.345L163.22 88.6043Z" stroke="#1A2E35" stroke-width="1.33333" stroke-miterlimit="10"/>
<path d="M163.153 89.7253H153.033C152.426 89.7253 151.934 89.2327 151.934 88.6251C151.934 88.0176 152.426 87.5255 153.033 87.5255H163.153C163.761 87.5255 164.253 88.0176 164.253 88.6251C164.253 89.2327 163.761 89.7253 163.153 89.7253Z" fill="white"/>
<path d="M163.153 89.7253H153.033C152.426 89.7253 151.934 89.2327 151.934 88.6251C151.934 88.0176 152.426 87.5255 153.033 87.5255H163.153C163.761 87.5255 164.253 88.0176 164.253 88.6251C164.253 89.2327 163.761 89.7253 163.153 89.7253Z" stroke="#1A2E35" stroke-width="1.33333" stroke-miterlimit="10"/>
<path d="M152.735 94.4619L152.551 99.0642H163.642L163.457 94.4619H152.735Z" fill="white"/>
<path d="M152.735 94.4619L152.551 99.0642H163.642L163.457 94.4619H152.735Z" stroke="#1A2E35" stroke-width="1.33333" stroke-miterlimit="10"/>
<path d="M167.646 198.646L167.46 194.044H148.74L148.555 198.646H167.646Z" fill="white"/>
<path d="M167.646 198.646L167.46 194.044H148.74L148.555 198.646H167.646Z" stroke="#1A2E35" stroke-width="1.33333" stroke-miterlimit="10"/>
<path d="M149.88 165.592L149.695 170.194H166.5L166.316 165.592H149.88Z" fill="white"/>
<path d="M149.88 165.592L149.695 170.194H166.5L166.316 165.592H149.88Z" stroke="#1A2E35" stroke-width="1.33333" stroke-miterlimit="10"/>
<path d="M149.306 179.818L149.121 184.42H167.069L166.884 179.818H149.306Z" fill="white"/>
<path d="M149.306 179.818L149.121 184.42H167.069L166.884 179.818H149.306Z" stroke="#1A2E35" stroke-width="1.33333" stroke-miterlimit="10"/>
<path d="M150.45 151.366L150.266 155.969H165.928L165.743 151.366H150.45Z" fill="white"/>
<path d="M150.45 151.366L150.266 155.969H165.928L165.743 151.366H150.45Z" stroke="#1A2E35" stroke-width="1.33333" stroke-miterlimit="10"/>
<path d="M152.165 108.688L151.98 113.29H164.214L164.029 108.688H152.165Z" fill="white"/>
<path d="M152.165 108.688L151.98 113.29H164.214L164.029 108.688H152.165Z" stroke="#1A2E35" stroke-width="1.33333" stroke-miterlimit="10"/>
<path d="M151.02 137.139L150.836 141.742H165.355L165.17 137.139H151.02Z" fill="white"/>
<path d="M151.02 137.139L150.836 141.742H165.355L165.17 137.139H151.02Z" stroke="#1A2E35" stroke-width="1.33333" stroke-miterlimit="10"/>
<path d="M151.595 122.914L151.41 127.516H164.787L164.602 122.914H151.595Z" fill="white"/>
<path d="M151.595 122.914L151.41 127.516H164.787L164.602 122.914H151.595Z" stroke="#1A2E35" stroke-width="1.33333" stroke-miterlimit="10"/>
<path d="M190.838 88.6043H180.586L175.461 216.219H195.963L190.838 88.6043Z" fill="#39D192"/>
<path d="M190.838 88.6043H180.586L175.461 216.219H195.963L190.838 88.6043Z" stroke="#1A2E35" stroke-width="1.33333" stroke-miterlimit="10"/>
<path d="M190.771 89.7253H180.65C180.043 89.7253 179.551 89.2327 179.551 88.6251C179.551 88.0176 180.043 87.5255 180.65 87.5255H190.771C191.378 87.5255 191.87 88.0176 191.87 88.6251C191.87 89.2327 191.378 89.7253 190.771 89.7253Z" fill="white"/>
<path d="M190.771 89.7253H180.65C180.043 89.7253 179.551 89.2327 179.551 88.6251C179.551 88.0176 180.043 87.5255 180.65 87.5255H190.771C191.378 87.5255 191.87 88.0176 191.87 88.6251C191.87 89.2327 191.378 89.7253 190.771 89.7253Z" stroke="#1A2E35" stroke-width="1.33333" stroke-miterlimit="10"/>
<path d="M180.352 94.4619L180.168 99.0642H191.259L191.074 94.4619H180.352Z" fill="white"/>
<path d="M180.352 94.4619L180.168 99.0642H191.259L191.074 94.4619H180.352Z" stroke="#1A2E35" stroke-width="1.33333" stroke-miterlimit="10"/>
<path d="M195.255 198.646L195.07 194.044H176.349L176.164 198.646H195.255Z" fill="white"/>
<path d="M195.255 198.646L195.07 194.044H176.349L176.164 198.646H195.255Z" stroke="#1A2E35" stroke-width="1.33333" stroke-miterlimit="10"/>
<path d="M177.497 165.592L177.312 170.194H194.117L193.932 165.592H177.497Z" fill="white"/>
<path d="M177.497 165.592L177.312 170.194H194.117L193.932 165.592H177.497Z" stroke="#1A2E35" stroke-width="1.33333" stroke-miterlimit="10"/>
<path d="M176.923 179.818L176.738 184.42H194.687L194.502 179.818H176.923Z" fill="white"/>
<path d="M176.923 179.818L176.738 184.42H194.687L194.502 179.818H176.923Z" stroke="#1A2E35" stroke-width="1.33333" stroke-miterlimit="10"/>
<path d="M178.063 151.366L177.879 155.969H193.541L193.356 151.366H178.063Z" fill="white"/>
<path d="M178.063 151.366L177.879 155.969H193.541L193.356 151.366H178.063Z" stroke="#1A2E35" stroke-width="1.33333" stroke-miterlimit="10"/>
<path d="M179.778 108.688L179.594 113.29H191.827L191.643 108.688H179.778Z" fill="white"/>
<path d="M179.778 108.688L179.594 113.29H191.827L191.643 108.688H179.778Z" stroke="#1A2E35" stroke-width="1.33333" stroke-miterlimit="10"/>
<path d="M178.634 137.139L178.449 141.742H192.969L192.784 137.139H178.634Z" fill="white"/>
<path d="M178.634 137.139L178.449 141.742H192.969L192.784 137.139H178.634Z" stroke="#1A2E35" stroke-width="1.33333" stroke-miterlimit="10"/>
<path d="M179.209 122.914L179.023 127.516H192.401L192.216 122.914H179.209Z" fill="white"/>
<path d="M179.209 122.914L179.023 127.516H192.401L192.216 122.914H179.209Z" stroke="#1A2E35" stroke-width="1.33333" stroke-miterlimit="10"/>
<path d="M78.6974 274.059H37.9023V187.036H78.6974V274.059Z" fill="#1A2E35" stroke="#1A2E35" stroke-width="1.33333" stroke-miterlimit="10" stroke-linecap="round" stroke-linejoin="round"/>
<path d="M76.8773 175.424L98.9669 188.329H94.7185L72.7695 177.353L76.8773 175.424Z" fill="white"/>
<path d="M76.8773 175.424L98.9669 188.329H94.7185L72.7695 177.353L76.8773 175.424Z" stroke="#1A2E35" stroke-width="1.33333" stroke-miterlimit="10"/>
<path d="M96.6505 274.059H55.8555V187.036L76.8806 175.425L96.6505 187.036V274.059Z" fill="#39D192"/>
<path d="M96.6505 274.059H55.8555V187.036L76.8806 175.425L96.6505 187.036V274.059Z" stroke="#1A2E35" stroke-width="1.33333" stroke-miterlimit="10" stroke-linecap="round" stroke-linejoin="round"/>
<path d="M34.7617 188.918H52.7153L76.8786 175.424H58.6777L34.7617 188.918Z" fill="#909090"/>
<path d="M34.7617 188.918H52.7153L76.8786 175.424H58.6777L34.7617 188.918Z" stroke="#1A2E35" stroke-width="1.33333" stroke-miterlimit="10" stroke-linecap="round" stroke-linejoin="round"/>
<path d="M80.0158 188.918H73.4258V182.956H80.0158V188.918Z" fill="#1A2E35" stroke="#1A2E35" stroke-width="1.33333" stroke-miterlimit="10"/>
<path d="M194.274 274.059H62.3789V200.555H194.274V274.059Z" fill="#1A2E35" stroke="#1A2E35" stroke-width="1.33333" stroke-miterlimit="10" stroke-linecap="round" stroke-linejoin="round"/>
<path d="M260.061 274.059H120.426V200.555H260.061V274.059Z" fill="white" stroke="#1A2E35" stroke-width="1.33333" stroke-miterlimit="10" stroke-linecap="round" stroke-linejoin="round"/>
<path d="M161.298 274.059H138.285V228.721H161.298V274.059Z" fill="white" stroke="#1A2E35" stroke-width="1.33333" stroke-miterlimit="10" stroke-linecap="round" stroke-linejoin="round"/>
<path d="M157.52 274.059H138.285V228.721H157.52V274.059Z" fill="#1A2E35" stroke="#1A2E35" stroke-width="1.33333" stroke-miterlimit="10" stroke-linecap="round" stroke-linejoin="round"/>
<path d="M202.517 274.059H179.504V228.721H202.517V274.059Z" fill="white" stroke="#1A2E35" stroke-width="1.33333" stroke-miterlimit="10" stroke-linecap="round" stroke-linejoin="round"/>
<path d="M198.738 274.059H179.504V228.721H198.738V274.059Z" fill="#1A2E35" stroke="#1A2E35" stroke-width="1.33333" stroke-miterlimit="10" stroke-linecap="round" stroke-linejoin="round"/>
<path d="M243.735 274.059H220.723V228.721H243.735V274.059Z" fill="white" stroke="#1A2E35" stroke-width="1.33333" stroke-miterlimit="10" stroke-linecap="round" stroke-linejoin="round"/>
<path d="M239.957 274.059H220.723V228.721H239.957V274.059Z" fill="#1A2E35" stroke="#1A2E35" stroke-width="1.33333" stroke-miterlimit="10" stroke-linecap="round" stroke-linejoin="round"/>
<path d="M80.2287 220.481H67.6758V208.968H80.2287V220.481Z" fill="white" stroke="#1A2E35" stroke-width="1.33333" stroke-miterlimit="10" stroke-linecap="round" stroke-linejoin="round"/>
<path d="M97.1975 220.481H84.6445V208.968H97.1975V220.481Z" fill="white" stroke="#1A2E35" stroke-width="1.33333" stroke-miterlimit="10" stroke-linecap="round" stroke-linejoin="round"/>
<path d="M114.17 220.481H101.617V208.968H114.17V220.481Z" fill="white" stroke="#1A2E35" stroke-width="1.33333" stroke-miterlimit="10" stroke-linecap="round" stroke-linejoin="round"/>
<path d="M158.889 220.481H140.137V208.968H158.889V220.481Z" fill="white" stroke="#1A2E35" stroke-width="1.33333" stroke-miterlimit="10" stroke-linecap="round" stroke-linejoin="round"/>
<path d="M157.822 220.481H139.07V208.968H157.822V220.481Z" fill="white" stroke="#1A2E35" stroke-width="1.33333" stroke-miterlimit="10" stroke-linecap="round" stroke-linejoin="round"/>
<path d="M200.069 220.481H181.316V208.968H200.069V220.481Z" fill="white" stroke="#1A2E35" stroke-width="1.33333" stroke-miterlimit="10" stroke-linecap="round" stroke-linejoin="round"/>
<path d="M199.003 220.481H180.25V208.968H199.003V220.481Z" fill="white" stroke="#1A2E35" stroke-width="1.33333" stroke-miterlimit="10" stroke-linecap="round" stroke-linejoin="round"/>
<path d="M241.252 220.481H222.5V208.968H241.252V220.481Z" fill="white" stroke="#1A2E35" stroke-width="1.33333" stroke-miterlimit="10" stroke-linecap="round" stroke-linejoin="round"/>
<path d="M240.182 220.481H221.43V208.968H240.182V220.481Z" fill="white" stroke="#1A2E35" stroke-width="1.33333" stroke-miterlimit="10" stroke-linecap="round" stroke-linejoin="round"/>
<path d="M60.5432 230.027H43.8398V220.355H60.5432V230.027Z" fill="#39D192" stroke="#1A2E35" stroke-width="1.33333" stroke-miterlimit="10" stroke-linecap="round" stroke-linejoin="round"/>
<path d="M65.805 230.027H49.1016V220.355H65.805V230.027Z" fill="#39D192" stroke="#1A2E35" stroke-width="1.33333" stroke-miterlimit="10" stroke-linecap="round" stroke-linejoin="round"/>
<path d="M80.9611 274.059H39.7812V225.795H80.9611V274.059Z" fill="#1A2E35" stroke="#1A2E35" stroke-width="1.33333" stroke-miterlimit="10" stroke-linecap="round" stroke-linejoin="round"/>
<path d="M111.512 274.059H70.332V225.795H111.512V274.059Z" fill="#39D192" stroke="#1A2E35" stroke-width="1.33333" stroke-miterlimit="10" stroke-linecap="round" stroke-linejoin="round"/>
<path d="M96.4566 274.059H85.3867V256.347H96.4566V274.059Z" fill="#1A2E35" stroke="#1A2E35" stroke-width="1.33333" stroke-miterlimit="10" stroke-linecap="round" stroke-linejoin="round"/>
<path d="M59.4961 264.318H66.3453V231.551H59.4961V264.318Z" fill="#39D192" stroke="#1A2E35" stroke-width="1.33333" stroke-miterlimit="10" stroke-linecap="round" stroke-linejoin="round"/>
<path d="M50.7461 264.318H57.5959V231.551H50.7461V264.318Z" fill="#39D192" stroke="#1A2E35" stroke-width="1.33333" stroke-miterlimit="10" stroke-linecap="round" stroke-linejoin="round"/>
<path d="M41.9922 264.318H48.842V231.551H41.9922V264.318Z" fill="#39D192" stroke="#1A2E35" stroke-width="1.33333" stroke-miterlimit="10" stroke-linecap="round" stroke-linejoin="round"/>
<path d="M125.027 208.058H134.883V273.76H125.027V208.058Z" fill="white" stroke="#1A2E35" stroke-width="1.33333" stroke-miterlimit="10" stroke-linecap="round" stroke-linejoin="round"/>
<path d="M126.57 208.058H136.426V273.76H126.57V208.058Z" fill="#39D192" stroke="#1A2E35" stroke-width="1.33333" stroke-miterlimit="10"/>
<path d="M165.219 208.058H175.074V273.76H165.219V208.058Z" fill="white" stroke="#1A2E35" stroke-width="1.33333" stroke-miterlimit="10" stroke-linecap="round" stroke-linejoin="round"/>
<path d="M166.762 208.058H176.617V273.76H166.762V208.058Z" fill="#39D192" stroke="#1A2E35" stroke-width="1.33333" stroke-miterlimit="10"/>
<path d="M206.379 208.058H216.234V273.76H206.379V208.058Z" fill="white" stroke="#1A2E35" stroke-width="1.33333" stroke-miterlimit="10" stroke-linecap="round" stroke-linejoin="round"/>
<path d="M207.922 208.058H217.777V273.76H207.922V208.058Z" fill="#39D192" stroke="#1A2E35" stroke-width="1.33333" stroke-miterlimit="10"/>
<path d="M247.594 208.058H257.449V273.76H247.594V208.058Z" fill="white" stroke="#1A2E35" stroke-width="1.33333" stroke-miterlimit="10" stroke-linecap="round" stroke-linejoin="round"/>
<path d="M249.137 208.058H258.992V273.76H249.137V208.058Z" fill="#39D192" stroke="#1A2E35" stroke-width="1.33333" stroke-miterlimit="10"/>
<path d="M235.278 30.7706C230.309 32.6584 226.777 37.4647 226.777 43.0957C226.777 50.3748 232.678 56.2756 239.957 56.2756C247.237 56.2756 253.137 50.3748 253.137 43.0957C253.137 35.8166 247.237 29.9157 239.957 29.9157C239.438 29.9157 238.926 29.9459 238.423 30.0042" stroke="#1A2E35" stroke-width="1.33333" stroke-miterlimit="10" stroke-linecap="round" stroke-linejoin="round"/>
<path d="M239.957 62.767V71.1294" stroke="#1A2E35" stroke-width="1.33333" stroke-miterlimit="10" stroke-linecap="round" stroke-linejoin="round"/>
<path d="M239.957 59.4138V61.1931" stroke="#1A2E35" stroke-width="1.33333" stroke-miterlimit="10" stroke-linecap="round" stroke-linejoin="round"/>
<path d="M239.957 20.4423V25.1042" stroke="#1A2E35" stroke-width="1.33333" stroke-miterlimit="10" stroke-linecap="round" stroke-linejoin="round"/>
<path d="M239.957 13.3889V17.9253" stroke="#1A2E35" stroke-width="1.33333" stroke-miterlimit="10" stroke-linecap="round" stroke-linejoin="round"/>
<path d="M219.212 42.259H211.086" stroke="#1A2E35" stroke-width="1.33333" stroke-miterlimit="10" stroke-linecap="round" stroke-linejoin="round"/>
<path d="M222.801 42.259H221.414" stroke="#1A2E35" stroke-width="1.33333" stroke-miterlimit="10" stroke-linecap="round" stroke-linejoin="round"/>
<path d="M265.268 42.259H257.109" stroke="#1A2E35" stroke-width="1.33333" stroke-miterlimit="10" stroke-linecap="round" stroke-linejoin="round"/>
<path d="M268.823 42.259H266.883" stroke="#1A2E35" stroke-width="1.33333" stroke-miterlimit="10" stroke-linecap="round" stroke-linejoin="round"/>
<path d="M227.827 54.3894L219.543 62.6733" stroke="#1A2E35" stroke-width="1.33333" stroke-miterlimit="10" stroke-linecap="round" stroke-linejoin="round"/>
<path d="M260.37 21.8448L252.086 30.1287" stroke="#1A2E35" stroke-width="1.33333" stroke-miterlimit="10" stroke-linecap="round" stroke-linejoin="round"/>
<path d="M227.827 30.1289L219.543 21.845" stroke="#1A2E35" stroke-width="1.33333" stroke-miterlimit="10" stroke-linecap="round" stroke-linejoin="round"/>
<path d="M260.37 62.6736L252.086 54.3897" stroke="#1A2E35" stroke-width="1.33333" stroke-miterlimit="10" stroke-linecap="round" stroke-linejoin="round"/>
<path d="M7.53125 274.059H300.001" stroke="#1A2E35" stroke-width="1.33333" stroke-miterlimit="10" stroke-linecap="round" stroke-linejoin="round"/>
</svg>
