<svg width="200" height="200" viewBox="0 0 200 200" fill="none" xmlns="http://www.w3.org/2000/svg">
<mask id="mask0_1048_22630" style="mask-type:alpha" maskUnits="userSpaceOnUse" x="0" y="0" width="200" height="200">
<rect width="200" height="200" fill="#D9D9D9"/>
</mask>
<g mask="url(#mask0_1048_22630)">
<path d="M156.169 41.3038C137.997 23.8638 112.107 28.6505 97.8746 41.8383C87.4801 51.4696 71.1083 65.4789 58.4331 64.8685C45.8834 64.2639 31.5158 55.5443 15.9075 62.2463C0.501038 68.8618 -3.70961 90.7315 3.25416 107.454C10.2477 124.248 35.7482 137.877 66.6254 150.596C79.6219 155.95 91.6233 157.713 102.44 157.596C102.44 157.596 130.371 157.308 140.868 150.589C149.09 145.327 152.59 141.872 161.476 128.458C168.201 118.306 172.687 104.029 173.193 90.2041C173.812 73.3091 169.747 54.3352 156.169 41.3038Z" fill="#39D192"/>
<g opacity="0.800003">
<path d="M156.169 41.3038C137.997 23.8638 112.107 28.6505 97.8746 41.8383C87.4801 51.4696 71.1083 65.4789 58.4331 64.8685C45.8834 64.2639 31.5158 55.5443 15.9075 62.2463C0.501038 68.8618 -3.70961 90.7315 3.25416 107.454C10.2477 124.248 35.7482 137.877 66.6254 150.596C79.6219 155.95 91.6233 157.713 102.44 157.596C102.44 157.596 130.371 157.308 140.868 150.589C149.09 145.327 152.59 141.872 161.476 128.458C168.201 118.306 172.687 104.029 173.193 90.2041C173.812 73.3091 169.747 54.3352 156.169 41.3038Z" fill="white"/>
</g>
<path d="M182.919 54.2052C164.747 36.7651 138.857 41.5518 124.625 54.7397C114.23 64.371 97.8583 78.3803 85.1831 77.7699C72.6334 77.1653 58.2658 68.4457 42.6575 75.1476C27.251 81.7632 23.0404 103.633 30.0042 120.355C36.9977 137.149 62.4982 150.778 93.3754 163.498C106.372 168.852 118.373 170.614 129.19 170.498C129.19 170.498 157.121 170.209 167.618 163.49C175.84 158.229 179.34 154.774 188.226 141.359C194.951 131.208 199.437 116.931 199.943 103.106C200.562 86.2105 196.497 67.2365 182.919 54.2052Z" fill="#39D192"/>
<g opacity="0.800003">
<path d="M182.919 54.2048C164.747 36.7648 138.857 41.5515 124.625 54.7393C114.23 64.3706 97.8583 78.3799 85.1831 77.7695C72.6334 77.1649 58.2658 68.4453 42.6575 75.1473C27.251 81.7628 23.0404 103.633 30.0042 120.355C36.9977 137.149 62.4982 150.778 93.3754 163.497C106.372 168.851 118.373 170.614 129.19 170.497C129.19 170.497 157.121 170.209 167.618 163.49C175.84 158.228 179.34 154.773 188.226 141.359C194.951 131.207 199.437 116.93 199.943 103.105C200.562 86.2101 196.497 67.2362 182.919 54.2048Z" fill="white"/>
</g>
<path d="M172.166 151.196C172.166 153.775 137.011 155.865 93.6459 155.865C50.2799 155.865 15.125 153.775 15.125 151.196C15.125 148.618 50.2799 146.528 93.6459 146.528C137.011 146.528 172.166 148.618 172.166 151.196Z" fill="#39D192"/>
<g opacity="0.600006">
<path d="M172.162 151.196C172.162 153.775 137.008 155.865 93.642 155.865C50.276 155.865 15.1211 153.775 15.1211 151.196C15.1211 148.618 50.276 146.528 93.642 146.528C137.008 146.528 172.162 148.618 172.162 151.196Z" fill="white"/>
</g>
<path d="M164.656 142.826H25.1289V56.6471C25.1289 54.2246 27.0928 52.2606 29.5158 52.2606H160.27C162.692 52.2606 164.656 54.2246 164.656 56.6471V142.826Z" fill="#39D192"/>
<path d="M164.656 142.826H25.1289V56.6471C25.1289 54.2246 27.0928 52.2606 29.5158 52.2606H160.27C162.692 52.2606 164.656 54.2246 164.656 56.6471V142.826Z" stroke="#1A2E35" stroke-width="1.228" stroke-miterlimit="10"/>
<path d="M158.995 131.788H30.7891V59.336H158.995V131.788Z" fill="white"/>
<g opacity="0.399994">
<path d="M159.015 131.787V69.9427L52.9648 131.787H159.015Z" fill="#39D192"/>
</g>
<path d="M159.003 131.788H30.7969V59.3362H159.003V131.788Z" stroke="#1A2E35" stroke-width="0.92" stroke-miterlimit="10"/>
<path d="M143.164 143.191H47.2734V138.466H143.164V143.191Z" fill="#39D192" stroke="#1A2E35" stroke-width="0.922667" stroke-miterlimit="10"/>
<path d="M143.164 143.191H47.2734V140.741H143.164V143.191Z" fill="#39D192" stroke="#1A2E35" stroke-width="0.922667" stroke-miterlimit="10"/>
<path d="M13.8516 145.99C13.8516 145.99 15.4262 147.915 20.1512 149.49H170.286C170.286 149.49 173.786 148.615 175.361 146.165L13.8516 145.99Z" fill="#39D192"/>
<path d="M13.8516 145.99C13.8516 145.99 15.4262 147.915 20.1512 149.49H170.286C170.286 149.49 173.786 148.615 175.361 146.165L13.8516 145.99Z" stroke="#1A2E35" stroke-width="1.228" stroke-miterlimit="10"/>
<path d="M174.568 146.222H14.6636C14.0385 146.222 13.5312 145.715 13.5312 145.09V143.675C13.5312 143.05 14.0385 142.543 14.6636 142.543H174.568C175.193 142.543 175.7 143.05 175.7 143.675V145.09C175.7 145.715 175.193 146.222 174.568 146.222Z" fill="#39D192"/>
<path d="M174.568 146.222H14.6636C14.0385 146.222 13.5312 145.715 13.5312 145.09V143.675C13.5312 143.05 14.0385 142.543 14.6636 142.543H174.568C175.193 142.543 175.7 143.05 175.7 143.675V145.09C175.7 145.715 175.193 146.222 174.568 146.222Z" stroke="#1A2E35" stroke-width="1.228" stroke-miterlimit="10"/>
<path d="M96.0982 54.9993C96.0982 54.323 95.5499 53.7746 94.8735 53.7746C94.1968 53.7746 93.6484 54.323 93.6484 54.9993C93.6484 55.6756 94.1968 56.224 94.8735 56.224C95.5499 56.224 96.0982 55.6756 96.0982 54.9993Z" fill="#1A2E35"/>
<path d="M78.6795 53.7743H48.0574C47.7193 53.7743 47.4453 53.5003 47.4453 53.1622C47.4453 52.8236 47.7193 52.5496 48.0574 52.5496H78.6795C79.0176 52.5496 79.292 52.8236 79.292 53.1622C79.292 53.5003 79.0176 53.7743 78.6795 53.7743Z" fill="#39D192"/>
<path d="M78.6795 53.7743H48.0574C47.7193 53.7743 47.4453 53.5003 47.4453 53.1622C47.4453 52.8236 47.7193 52.5496 48.0574 52.5496H78.6795C79.0176 52.5496 79.292 52.8236 79.292 53.1622C79.292 53.5003 79.0176 53.7743 78.6795 53.7743Z" stroke="#1A2E35" stroke-width="0.922667" stroke-miterlimit="10"/>
<path d="M141.148 53.7743H110.527C110.188 53.7743 109.914 53.5003 109.914 53.1622C109.914 52.8236 110.188 52.5496 110.527 52.5496H141.148C141.487 52.5496 141.761 52.8236 141.761 53.1622C141.761 53.5003 141.487 53.7743 141.148 53.7743Z" fill="#39D192"/>
<path d="M141.148 53.7743H110.527C110.188 53.7743 109.914 53.5003 109.914 53.1622C109.914 52.8236 110.188 52.5496 110.527 52.5496H141.148C141.487 52.5496 141.761 52.8236 141.761 53.1622C141.761 53.5003 141.487 53.7743 141.148 53.7743Z" stroke="#1A2E35" stroke-width="0.922667" stroke-miterlimit="10"/>
<path d="M163.467 77.7465C163.274 77.7465 163.117 77.5895 163.117 77.3966V67.2475C163.117 67.0545 163.274 66.8976 163.467 66.8976C163.661 66.8976 163.817 67.0545 163.817 67.2475V77.3966C163.817 77.5895 163.661 77.7465 163.467 77.7465Z" fill="#39D192"/>
<path d="M163.467 77.7465C163.274 77.7465 163.117 77.5895 163.117 77.3966V67.2475C163.117 67.0545 163.274 66.8976 163.467 66.8976C163.661 66.8976 163.817 67.0545 163.817 67.2475V77.3966C163.817 77.5895 163.661 77.7465 163.467 77.7465Z" stroke="#1A2E35" stroke-width="0.922667" stroke-miterlimit="10"/>
<path d="M26.4515 77.7465C26.2585 77.7465 26.1016 77.5895 26.1016 77.3966V67.2475C26.1016 67.0545 26.2585 66.8976 26.4515 66.8976C26.6449 66.8976 26.8014 67.0545 26.8014 67.2475V77.3966C26.8014 77.5895 26.6449 77.7465 26.4515 77.7465Z" fill="#39D192"/>
<path d="M26.4515 77.7465C26.2585 77.7465 26.1016 77.5895 26.1016 77.3966V67.2475C26.1016 67.0545 26.2585 66.8976 26.4515 66.8976C26.6449 66.8976 26.8014 67.0545 26.8014 67.2475V77.3966C26.8014 77.5895 26.6449 77.7465 26.4515 77.7465Z" stroke="#1A2E35" stroke-width="0.922667" stroke-miterlimit="10"/>
<g opacity="0.399994">
<path d="M27.7197 111.394C27.4868 110.925 27.1763 109.796 27.3983 109.085C27.7377 107.999 29.5682 106.785 29.5682 106.785C29.5682 106.785 28.748 106.986 27.8732 107.118C27.0131 107.246 25.8711 107.435 25.8711 107.435L26.1606 109.466C26.5671 110.381 27.0433 111.128 27.7197 111.394Z" fill="#39D192"/>
</g>
<g opacity="0.399994">
<path d="M84.5618 126.716L57.2148 142.664H84.5618V126.716Z" fill="#39D192"/>
</g>
<g opacity="0.399994">
<path d="M165.174 113.242L106.594 147.404H165.174V113.242Z" fill="#39D192"/>
</g>
<path d="M161.447 149.661H135.688C133.91 149.661 132.469 148.22 132.469 146.442V92.0628C132.469 90.2848 133.91 88.8427 135.688 88.8427H161.447C163.225 88.8427 164.667 90.2848 164.667 92.0628V146.442C164.667 148.22 163.225 149.661 161.447 149.661Z" fill="#1A2E35"/>
<path d="M163.234 142.983H133.898V95.5213H163.234V142.983Z" fill="white"/>
<path d="M163.238 142.983H133.902V95.5207H163.238V142.983Z" stroke="#1A2E35" stroke-width="0.704" stroke-miterlimit="10"/>
<path d="M151.754 92.1987H145.376C145.136 92.1987 144.941 92.0041 144.941 91.7637C144.941 91.5237 145.136 91.329 145.376 91.329H151.754C151.995 91.329 152.189 91.5237 152.189 91.7637C152.189 92.0041 151.995 92.1987 151.754 92.1987Z" fill="#39D192"/>
<g opacity="0.399994">
<path d="M151.774 92.199H145.396C145.156 92.199 144.961 92.0043 144.961 91.7639C144.961 91.5239 145.156 91.3292 145.396 91.3292H151.774C152.014 91.3292 152.209 91.5239 152.209 91.7639C152.209 92.0043 152.014 92.199 151.774 92.199Z" fill="white"/>
</g>
<path d="M150.311 145.663C150.311 144.702 149.532 143.923 148.572 143.923C147.611 143.923 146.832 144.702 146.832 145.663C146.832 146.623 147.611 147.402 148.572 147.402C149.532 147.402 150.311 146.623 150.311 145.663Z" fill="#39D192"/>
<path d="M150.311 145.663C150.311 144.702 149.532 143.923 148.572 143.923C147.611 143.923 146.832 144.702 146.832 145.663C146.832 146.623 147.611 147.402 148.572 147.402C149.532 147.402 150.311 146.623 150.311 145.663Z" stroke="#1A2E35" stroke-width="0.938667" stroke-miterlimit="10"/>
<path d="M149.455 146.544H147.691V144.781H149.455V146.544Z" fill="#39D192" stroke="#1A2E35" stroke-width="0.704" stroke-miterlimit="10" stroke-linecap="round" stroke-linejoin="round"/>
<g opacity="0.600006">
<path d="M149.451 146.544H147.688V144.781H149.451V146.544Z" fill="white" stroke="#1A2E35" stroke-width="0.704" stroke-miterlimit="10" stroke-linecap="round" stroke-linejoin="round"/>
</g>
<path d="M149.455 146.544H147.691V144.781H149.455V146.544Z" stroke="#1A2E35" stroke-width="0.704" stroke-miterlimit="10" stroke-linecap="round" stroke-linejoin="round"/>
</g>
</svg>
