<svg width="200" height="200" viewBox="0 0 200 200" fill="none" xmlns="http://www.w3.org/2000/svg">
<mask id="mask0_1048_24790" style="mask-type:alpha" maskUnits="userSpaceOnUse" x="0" y="0" width="200" height="200">
<rect width="200" height="200" fill="#D9D9D9"/>
</mask>
<g mask="url(#mask0_1048_24790)">
<path d="M70.9409 92.9604H52.5508V34.6785H70.9409V92.9604Z" fill="#F5F5F5"/>
<path d="M70.9372 92.8003H61.7422V34.6785H70.9372V92.8003Z" fill="#ECECEC"/>
<path d="M61.1462 34.6785H54.6523V28.9565H61.1462V34.6785Z" fill="#F5F5F5"/>
<path d="M61.1416 34.6785H59.5938V28.9565H61.1416V34.6785Z" fill="#ECECEC"/>
<path d="M51.0195 34.6785H71.4805V34.3445H51.0195V34.6785Z" fill="#E1E1E1"/>
<path d="M57.7363 40.4563H56.1797V37.1742H57.7363V40.4563Z" fill="#FAFAFA"/>
<path d="M61.7419 41.7446C61.7419 41.7792 59.6832 41.8074 57.1448 41.8074C54.6048 41.8074 52.5469 41.7792 52.5469 41.7446C52.5469 41.71 54.6048 41.6818 57.1448 41.6818C59.6832 41.6818 61.7419 41.71 61.7419 41.7446Z" fill="#E1E1E1"/>
<path d="M67.0097 40.4563H65.4531V37.1742H67.0097V40.4563Z" fill="#E1E1E1"/>
<path d="M71.0154 41.7446C71.0154 41.7792 68.9566 41.8074 66.4182 41.8074C63.8783 41.8074 61.8203 41.7792 61.8203 41.7446C61.8203 41.71 63.8783 41.6818 66.4182 41.6818C68.9566 41.6818 71.0154 41.71 71.0154 41.7446Z" fill="#E1E1E1"/>
<path d="M67.0097 46.9729H65.4531V43.6908H67.0097V46.9729Z" fill="#E1E1E1"/>
<path d="M71.0154 48.2615C71.0154 48.2961 68.9566 48.3242 66.4182 48.3242C63.8783 48.3242 61.8203 48.2961 61.8203 48.2615C61.8203 48.2268 63.8783 48.1987 66.4182 48.1987C68.9566 48.1987 71.0154 48.2268 71.0154 48.2615Z" fill="#E1E1E1"/>
<path d="M67.0097 53.6863H65.4531V50.4042H67.0097V53.6863Z" fill="#E1E1E1"/>
<path d="M71.0154 54.9746C71.0154 55.0092 68.9566 55.0374 66.4182 55.0374C63.8783 55.0374 61.8203 55.0092 61.8203 54.9746C61.8203 54.94 63.8783 54.9118 66.4182 54.9118C68.9566 54.9118 71.0154 54.94 71.0154 54.9746Z" fill="#E1E1E1"/>
<path d="M67.0097 60.3994H65.4531V57.1173H67.0097V60.3994Z" fill="#E1E1E1"/>
<path d="M71.0154 61.688C71.0154 61.7226 68.9566 61.7507 66.4182 61.7507C63.8783 61.7507 61.8203 61.7226 61.8203 61.688C61.8203 61.6533 63.8783 61.6252 66.4182 61.6252C68.9566 61.6252 71.0154 61.6533 71.0154 61.688Z" fill="#E1E1E1"/>
<path d="M67.0097 66.9211H65.4531V63.6387H67.0097V66.9211Z" fill="#E1E1E1"/>
<path d="M71.0154 68.2092C71.0154 68.2438 68.9566 68.272 66.4182 68.272C63.8783 68.272 61.8203 68.2438 61.8203 68.2092C61.8203 68.1746 63.8783 68.1464 66.4182 68.1464C68.9566 68.1464 71.0154 68.1746 71.0154 68.2092Z" fill="#E1E1E1"/>
<path d="M67.0097 73.4685H65.4531V70.186H67.0097V73.4685Z" fill="#E1E1E1"/>
<path d="M67.0097 80.1021H65.4531V76.8196H67.0097V80.1021Z" fill="#E1E1E1"/>
<path d="M71.0154 74.7568C71.0154 74.7914 68.9566 74.8196 66.4182 74.8196C63.8783 74.8196 61.8203 74.7914 61.8203 74.7568C61.8203 74.7222 63.8783 74.694 66.4182 74.694C68.9566 74.694 71.0154 74.7222 71.0154 74.7568Z" fill="#E1E1E1"/>
<path d="M57.7324 47.0725H56.1758V43.79H57.7324V47.0725Z" fill="#FAFAFA"/>
<path d="M61.7419 48.3608C61.7419 48.3954 59.6832 48.4236 57.1448 48.4236C54.6048 48.4236 52.5469 48.3954 52.5469 48.3608C52.5469 48.3262 54.6048 48.2981 57.1448 48.2981C59.6832 48.2981 61.7419 48.3262 61.7419 48.3608Z" fill="#E1E1E1"/>
<path d="M57.7324 53.689H56.1758V50.4065H57.7324V53.689Z" fill="#FAFAFA"/>
<path d="M61.7419 54.977C61.7419 55.0116 59.6832 55.0398 57.1448 55.0398C54.6048 55.0398 52.5469 55.0116 52.5469 54.977C52.5469 54.9424 54.6048 54.9143 57.1448 54.9143C59.6832 54.9143 61.7419 54.9424 61.7419 54.977Z" fill="#E1E1E1"/>
<path d="M57.7324 60.3047H56.1758V57.0226H57.7324V60.3047Z" fill="#FAFAFA"/>
<path d="M61.7419 61.593C61.7419 61.6276 59.6832 61.6558 57.1448 61.6558C54.6048 61.6558 52.5469 61.6276 52.5469 61.593C52.5469 61.5584 54.6048 61.5302 57.1448 61.5302C59.6832 61.5302 61.7419 61.5584 61.7419 61.593Z" fill="#E1E1E1"/>
<path d="M57.7324 66.9211H56.1758V63.6387H57.7324V66.9211Z" fill="#FAFAFA"/>
<path d="M61.7419 68.2092C61.7419 68.2438 59.6832 68.272 57.1448 68.272C54.6048 68.272 52.5469 68.2438 52.5469 68.2092C52.5469 68.1746 54.6048 68.1464 57.1448 68.1464C59.6832 68.1464 61.7419 68.1746 61.7419 68.2092Z" fill="#E1E1E1"/>
<path d="M57.7324 73.5371H56.1758V70.2546H57.7324V73.5371Z" fill="#FAFAFA"/>
<path d="M61.7419 74.8254C61.7419 74.86 59.6832 74.8882 57.1448 74.8882C54.6048 74.8882 52.5469 74.86 52.5469 74.8254C52.5469 74.7908 54.6048 74.7627 57.1448 74.7627C59.6832 74.7627 61.7419 74.7908 61.7419 74.8254Z" fill="#E1E1E1"/>
<path d="M57.7324 80.1533H56.1758V76.8712H57.7324V80.1533Z" fill="#FAFAFA"/>
<path d="M138.285 105.318H119.895V47.0364H138.285V105.318Z" fill="#F5F5F5"/>
<path d="M138.285 105.158H129.09V47.0364H138.285V105.158Z" fill="#ECECEC"/>
<path d="M128.49 47.0366H121.996V41.3146H128.49V47.0366Z" fill="#F5F5F5"/>
<path d="M128.489 47.0366H126.941V41.3146H128.489V47.0366Z" fill="#ECECEC"/>
<path d="M118.363 47.0366V46.703H138.824V47.0366" fill="#E1E1E1"/>
<path d="M125.08 52.8142H123.523V49.5321H125.08V52.8142Z" fill="#FAFAFA"/>
<path d="M129.093 54.1025C129.093 54.1371 127.035 54.1653 124.496 54.1653C121.956 54.1653 119.898 54.1371 119.898 54.1025C119.898 54.0679 121.956 54.0398 124.496 54.0398C127.035 54.0398 129.093 54.0679 129.093 54.1025Z" fill="#E1E1E1"/>
<path d="M134.357 52.8142H132.801V49.5321H134.357V52.8142Z" fill="#E1E1E1"/>
<path d="M138.367 54.1025C138.367 54.1371 136.309 54.1653 133.77 54.1653C131.23 54.1653 129.172 54.1371 129.172 54.1025C129.172 54.0679 131.23 54.0398 133.77 54.0398C136.309 54.0398 138.367 54.0679 138.367 54.1025Z" fill="#E1E1E1"/>
<path d="M134.357 59.3311H132.801V56.049H134.357V59.3311Z" fill="#E1E1E1"/>
<path d="M138.367 60.6191C138.367 60.6537 136.309 60.6819 133.77 60.6819C131.23 60.6819 129.172 60.6537 129.172 60.6191C129.172 60.5845 131.23 60.5564 133.77 60.5564C136.309 60.5564 138.367 60.5845 138.367 60.6191Z" fill="#E1E1E1"/>
<path d="M134.357 66.0442H132.801V62.7621H134.357V66.0442Z" fill="#E1E1E1"/>
<path d="M138.367 67.3325C138.367 67.3671 136.309 67.3953 133.77 67.3953C131.23 67.3953 129.172 67.3671 129.172 67.3325C129.172 67.2979 131.23 67.2697 133.77 67.2697C136.309 67.2697 138.367 67.2979 138.367 67.3325Z" fill="#E1E1E1"/>
<path d="M134.357 72.7576H132.801V69.4755H134.357V72.7576Z" fill="#E1E1E1"/>
<path d="M138.367 74.0459C138.367 74.0805 136.309 74.1086 133.77 74.1086C131.23 74.1086 129.172 74.0805 129.172 74.0459C129.172 74.0113 131.23 73.9831 133.77 73.9831C136.309 73.9831 138.367 74.0113 138.367 74.0459Z" fill="#E1E1E1"/>
<path d="M134.357 79.2788H132.801V75.9963H134.357V79.2788Z" fill="#E1E1E1"/>
<path d="M138.367 80.5671C138.367 80.6017 136.309 80.6299 133.77 80.6299C131.23 80.6299 129.172 80.6017 129.172 80.5671C129.172 80.5325 131.23 80.5044 133.77 80.5044C136.309 80.5044 138.367 80.5325 138.367 80.5671Z" fill="#E1E1E1"/>
<path d="M134.357 85.8267H132.801V82.5442H134.357V85.8267Z" fill="#E1E1E1"/>
<path d="M134.357 92.4597H132.801V89.1776H134.357V92.4597Z" fill="#E1E1E1"/>
<path d="M138.367 87.1145C138.367 87.1491 136.309 87.1772 133.77 87.1772C131.23 87.1772 129.172 87.1491 129.172 87.1145C129.172 87.0799 131.23 87.0517 133.77 87.0517C136.309 87.0517 138.367 87.0799 138.367 87.1145Z" fill="#E1E1E1"/>
<path d="M125.08 59.4304H123.523V56.1479H125.08V59.4304Z" fill="#FAFAFA"/>
<path d="M129.093 60.7185C129.093 60.7531 127.035 60.7812 124.496 60.7812C121.956 60.7812 119.898 60.7531 119.898 60.7185C119.898 60.6839 121.956 60.6557 124.496 60.6557C127.035 60.6557 129.093 60.6839 129.093 60.7185Z" fill="#E1E1E1"/>
<path d="M125.08 66.0466H123.523V62.7642H125.08V66.0466Z" fill="#FAFAFA"/>
<path d="M129.093 67.3347C129.093 67.3693 127.035 67.3975 124.496 67.3975C121.956 67.3975 119.898 67.3693 119.898 67.3347C119.898 67.3001 121.956 67.2719 124.496 67.2719C127.035 67.2719 129.093 67.3001 129.093 67.3347Z" fill="#E1E1E1"/>
<path d="M125.08 72.6628H123.523V69.3804H125.08V72.6628Z" fill="#FAFAFA"/>
<path d="M129.093 73.9509C129.093 73.9855 127.035 74.0137 124.496 74.0137C121.956 74.0137 119.898 73.9855 119.898 73.9509C119.898 73.9163 121.956 73.8881 124.496 73.8881C127.035 73.8881 129.093 73.9163 129.093 73.9509Z" fill="#E1E1E1"/>
<path d="M125.08 79.2788H123.523V75.9963H125.08V79.2788Z" fill="#FAFAFA"/>
<path d="M129.093 80.5669C129.093 80.6015 127.035 80.6296 124.496 80.6296C121.956 80.6296 119.898 80.6015 119.898 80.5669C119.898 80.5323 121.956 80.5041 124.496 80.5041C127.035 80.5041 129.093 80.5323 129.093 80.5669Z" fill="#E1E1E1"/>
<path d="M125.08 85.895H123.523V82.6125H125.08V85.895Z" fill="#FAFAFA"/>
<path d="M129.093 87.1831C129.093 87.2177 127.035 87.2458 124.496 87.2458C121.956 87.2458 119.898 87.2177 119.898 87.1831C119.898 87.1485 121.956 87.1203 124.496 87.1203C127.035 87.1203 129.093 87.1485 129.093 87.1831Z" fill="#E1E1E1"/>
<path d="M125.08 92.511H123.523V89.2285H125.08V92.511Z" fill="#FAFAFA"/>
<path d="M161.245 108.924H131.469V69.6493H161.245V108.924Z" fill="#ECECEC"/>
<path d="M147.285 108.924H161.247V69.6494H147.285V108.924Z" fill="#E1E1E1"/>
<path d="M140.388 81.4714H137.711V74.9666H140.388V81.4714Z" fill="#F5F5F5"/>
<path d="M140.388 106.929H137.711V100.425H140.388V106.929Z" fill="#F5F5F5"/>
<path d="M147.284 84.0241C147.284 84.0972 143.743 84.1565 139.377 84.1565C135.008 84.1565 131.469 84.0972 131.469 84.0241C131.469 83.9511 135.008 83.8917 139.377 83.8917C143.743 83.8917 147.284 83.9511 147.284 84.0241Z" fill="#F5F5F5"/>
<path d="M140.388 94.2969H137.711V87.792H140.388V94.2969Z" fill="#F5F5F5"/>
<path d="M147.284 96.8498C147.284 96.9228 143.743 96.9822 139.377 96.9822C135.008 96.9822 131.469 96.9228 131.469 96.8498C131.469 96.7768 135.008 96.7174 139.377 96.7174C143.743 96.7174 147.284 96.7768 147.284 96.8498Z" fill="#F5F5F5"/>
<path d="M152.927 81.4714H150.25V74.9666H152.927V81.4714Z" fill="#F5F5F5"/>
<path d="M158.736 81.4714H156.059V74.9666H158.736V81.4714Z" fill="#F5F5F5"/>
<path d="M152.927 93.8142H150.25V87.3094H152.927V93.8142Z" fill="#F5F5F5"/>
<path d="M158.736 93.8143H156.059V87.3094H158.736V93.8143Z" fill="#F5F5F5"/>
<path d="M152.927 106.157H150.25V99.6519H152.927V106.157Z" fill="#F5F5F5"/>
<path d="M158.736 106.157H156.059V99.6519H158.736V106.157Z" fill="#F5F5F5"/>
<path d="M163.484 69.6985H129.23V68.2823H163.484V69.6985Z" fill="#E1E1E1"/>
<path d="M161.454 69.8317C161.454 69.9048 154.799 69.9641 146.591 69.9641C138.381 69.9641 131.727 69.9048 131.727 69.8317C131.727 69.7587 138.381 69.6994 146.591 69.6994C154.799 69.6994 161.454 69.7587 161.454 69.8317Z" fill="#ECECEC"/>
<path d="M64.1128 109.709H37.0515L36.9336 66.9399H63.9949L64.1128 109.709Z" fill="#ECECEC"/>
<path d="M63.9957 109.709H50.4648V66.9398H63.9957V109.709Z" fill="#E1E1E1"/>
<path d="M49.5795 66.9399H40.0234V58.5202H49.5795V66.9399Z" fill="#ECECEC"/>
<path d="M49.5821 66.9398H47.3047V58.52H49.5821V66.9398Z" fill="#E1E1E1"/>
<path d="M64.7884 66.9399H34.6797V66.4489H64.7884V66.9399Z" fill="#E1E1E1"/>
<path d="M44.5677 75.4418H42.2773V70.6118H44.5677V75.4418Z" fill="white"/>
<path d="M50.4644 77.3374C50.4644 77.3884 47.4353 77.4294 43.6994 77.4294C39.9623 77.4294 36.9336 77.3884 36.9336 77.3374C36.9336 77.2864 39.9623 77.2449 43.6994 77.2449C47.4353 77.2449 50.4644 77.2864 50.4644 77.3374Z" fill="#E1E1E1"/>
<path d="M58.2123 75.4417H55.9219V70.6117H58.2123V75.4417Z" fill="#F5F5F5"/>
<path d="M64.1164 77.3374C64.1164 77.3884 61.0873 77.4294 57.3514 77.4294C53.6143 77.4294 50.5859 77.3884 50.5859 77.3374C50.5859 77.2864 53.6143 77.2449 57.3514 77.2449C61.0873 77.2449 64.1164 77.2864 64.1164 77.3374Z" fill="#ECECEC"/>
<path d="M58.2123 85.0312H55.9219V80.2013H58.2123V85.0312Z" fill="#F5F5F5"/>
<path d="M64.1164 86.9268C64.1164 86.9778 61.0873 87.0193 57.3514 87.0193C53.6143 87.0193 50.5859 86.9778 50.5859 86.9268C50.5859 86.8763 53.6143 86.8348 57.3514 86.8348C61.0873 86.8348 64.1164 86.8763 64.1164 86.9268Z" fill="#ECECEC"/>
<path d="M58.2123 94.9099H55.9219V90.08H58.2123V94.9099Z" fill="#F5F5F5"/>
<path d="M64.1164 96.8058C64.1164 96.8567 61.0873 96.8982 57.3514 96.8982C53.6143 96.8982 50.5859 96.8567 50.5859 96.8058C50.5859 96.7548 53.6143 96.7133 57.3514 96.7133C61.0873 96.7133 64.1164 96.7548 64.1164 96.8058Z" fill="#ECECEC"/>
<path d="M58.2123 104.789H55.9219V99.9589H58.2123V104.789Z" fill="#F5F5F5"/>
<path d="M64.1164 106.684C64.1164 106.735 61.0873 106.777 57.3514 106.777C53.6143 106.777 50.5859 106.735 50.5859 106.684C50.5859 106.633 53.6143 106.592 57.3514 106.592C61.0873 106.592 64.1164 106.633 64.1164 106.684Z" fill="#ECECEC"/>
<path d="M44.5677 85.1777H42.2773V80.3477H44.5677V85.1777Z" fill="white"/>
<path d="M50.4644 87.0731C50.4644 87.1241 47.4353 87.1655 43.6994 87.1655C39.9623 87.1655 36.9336 87.1241 36.9336 87.0731C36.9336 87.0221 39.9623 86.981 43.6994 86.981C47.4353 86.981 50.4644 87.0221 50.4644 87.0731Z" fill="#E1E1E1"/>
<path d="M44.5677 94.9132H42.2773V90.0833H44.5677V94.9132Z" fill="white"/>
<path d="M50.4644 96.8089C50.4644 96.8599 47.4353 96.9014 43.6994 96.9014C39.9623 96.9014 36.9336 96.8599 36.9336 96.8089C36.9336 96.758 39.9623 96.7169 43.6994 96.7169C47.4353 96.7169 50.4644 96.758 50.4644 96.8089Z" fill="#E1E1E1"/>
<path d="M44.5677 104.649H42.2773V99.8194H44.5677V104.649Z" fill="white"/>
<path d="M50.4644 106.545C50.4644 106.596 47.4353 106.637 43.6994 106.637C39.9623 106.637 36.9336 106.596 36.9336 106.545C36.9336 106.494 39.9623 106.453 43.6994 106.453C47.4353 106.453 50.4644 106.494 50.4644 106.545Z" fill="#E1E1E1"/>
<path d="M171.291 58.2945C171.434 57.2553 169.967 56.4001 168.864 56.3111C168.339 56.2685 167.793 56.3491 167.294 56.1753C166.215 55.7991 165.784 54.4053 164.732 53.961C163.944 53.6293 163.038 53.9249 162.275 54.3087C161.512 54.6929 160.758 55.1764 159.905 55.2308C159.163 55.2783 158.358 55.0033 157.71 55.3654C157.226 55.6355 156.972 56.1928 156.527 56.5211C156.091 56.8429 155.522 56.911 154.981 56.9403C154.44 56.97 153.88 56.9753 153.388 57.2009C152.896 57.4264 152.488 57.9472 152.59 58.479L171.291 58.2945Z" fill="#F5F5F5"/>
<path d="M125.504 28.6679C125.728 27.041 123.431 25.7023 121.706 25.5631C120.883 25.4969 120.028 25.6228 119.248 25.3508C117.559 24.7624 116.885 22.5804 115.237 21.885C114.005 21.3654 112.586 21.8279 111.391 22.4294C110.197 23.0304 109.016 23.787 107.682 23.8726C106.521 23.9468 105.261 23.5162 104.245 24.0833C103.488 24.506 103.092 25.3778 102.394 25.8925C101.712 26.3954 100.821 26.5023 99.975 26.5483C99.1282 26.5944 98.2514 26.6027 97.4807 26.9561C96.7096 27.3088 96.0717 28.124 96.2319 28.957L125.504 28.6679Z" fill="#ECECEC"/>
<path d="M47.2894 51.1695C47.4678 49.8724 45.6373 48.8053 44.2617 48.6946C43.6056 48.6414 42.9243 48.7418 42.3027 48.5254C40.9561 48.0559 40.4182 46.3164 39.1043 45.7621C38.1221 45.3479 36.9912 45.7169 36.039 46.1958C35.0865 46.6751 34.1458 47.2784 33.0818 47.3465C32.1563 47.4055 31.1512 47.0623 30.3418 47.5146C29.7384 47.8513 29.4223 48.5467 28.8662 48.9567C28.3222 49.358 27.6124 49.4429 26.9376 49.4798C26.2623 49.5163 25.5635 49.5231 24.9488 49.8046C24.3345 50.0861 23.8259 50.7359 23.9533 51.3997L47.2894 51.1695Z" fill="#F5F5F5"/>
<path d="M155.717 43.4134L154.988 42.2125C148.844 32.0881 137.736 25.985 126.024 26.7252C124.519 26.8207 123.02 27.0246 121.541 27.3411C110.892 29.6205 101.627 37.6728 97.7868 47.9854C95.528 54.0505 94.8973 61.0336 90.611 65.8479C85.0328 72.1135 75.5623 72.3101 67.2357 72.0503C58.9095 71.7909 49.433 72.0123 43.8818 78.3026C40.4053 82.2416 39.3003 87.8438 39.5806 93.1196C40.3228 107.087 50.0557 119.576 62.4332 125.784C74.811 131.991 89.3846 132.547 102.931 129.817C121.908 125.991 139.955 115.486 150.803 99.2596C161.651 83.0333 164.396 60.9267 155.717 43.4134Z" fill="#39D192" fill-opacity="0.2"/>
<path d="M68.34 40.519C68.34 45.8465 64.021 50.1655 58.6934 50.1655C53.3656 50.1655 49.0469 45.8465 49.0469 40.519C49.0469 35.1914 53.3656 30.8724 58.6934 30.8724C64.021 30.8724 68.34 35.1914 68.34 40.519Z" fill="#F5F5F5"/>
<path d="M34.0274 93.8119C30.6536 93.8119 27.9189 91.0768 27.9189 87.7031C27.9189 84.3297 30.6536 81.5946 34.0274 81.5946C37.4012 81.5946 40.1363 84.3297 40.1363 87.7031C40.1363 91.0768 37.4012 93.8119 34.0274 93.8119ZM33.8345 79.7805C29.5227 79.8801 26.0074 83.3943 25.9047 87.7057C25.8606 89.5522 26.435 91.2617 27.432 92.646L27.4301 92.6468L27.5092 92.7544C27.513 92.7594 27.5165 92.7647 27.5203 92.7696L33.2735 100.595C33.7801 101.284 34.8164 101.262 35.2934 100.553L40.4938 92.8214C41.4775 91.3211 42.1524 89.7523 42.1524 87.9032C42.1524 83.3517 38.41 79.674 33.8345 79.7805" fill="#39D192"/>
<g opacity="0.300003">
<path d="M34.0313 93.8119C30.6575 93.8119 27.9228 91.0768 27.9228 87.7031C27.9228 84.3297 30.6575 81.5946 34.0313 81.5946C37.4051 81.5946 40.1402 84.3297 40.1402 87.7031C40.1402 91.0768 37.4051 93.8119 34.0313 93.8119ZM33.8384 79.7805C29.5266 79.8801 26.0113 83.3943 25.9086 87.7057C25.8645 89.5522 26.4389 91.2617 27.4359 92.646L27.434 92.6468L27.5131 92.7544C27.517 92.7594 27.5204 92.7647 27.5242 92.7696L33.2774 100.595C33.7841 101.284 34.8203 101.262 35.2973 100.553L40.4977 92.8214C41.4815 91.3211 42.1563 89.7523 42.1563 87.9032C42.1563 83.3517 38.4139 79.674 33.8384 79.7805" fill="black"/>
</g>
<path d="M33.5434 92.7107C30.9882 92.7107 28.9169 90.6394 28.9169 88.0842C28.9169 85.5295 30.9882 83.4582 33.5434 83.4582C36.0981 83.4582 38.1698 85.5295 38.1698 88.0842C38.1698 90.6394 36.0981 92.7107 33.5434 92.7107ZM33.3501 79.7805C29.0387 79.8801 25.5234 83.3943 25.4203 87.7057C25.3766 89.5522 25.951 91.2617 26.948 92.646L26.9457 92.6468L27.0252 92.7544C27.029 92.7594 27.0324 92.7647 27.0362 92.7696L32.7894 100.595C33.2957 101.284 34.3319 101.262 34.8093 100.553L40.0094 92.8217C40.9935 91.3211 41.6683 89.7523 41.6683 87.9032C41.6683 83.3517 37.926 79.674 33.3501 79.7805" fill="#39D192"/>
<path d="M161.426 82.7723C158.855 82.7723 156.771 80.6881 156.771 78.117C156.771 75.5459 158.855 73.4613 161.426 73.4613C163.998 73.4613 166.082 75.5459 166.082 78.117C166.082 80.6881 163.998 82.7723 161.426 82.7723ZM161.279 72.0789C157.994 72.155 155.314 74.833 155.236 78.1189C155.203 79.526 155.64 80.8289 156.4 81.8837L156.398 81.8845L156.458 81.9663C156.461 81.9701 156.464 81.9739 156.467 81.9781L160.852 87.9416C161.238 88.4665 162.027 88.4498 162.391 87.9093L166.354 82.0176C167.104 80.8737 167.618 79.6785 167.618 78.2691C167.618 74.8003 164.766 71.9979 161.279 72.0789" fill="#39D192"/>
<g opacity="0.300003">
<path d="M161.434 82.7723C158.863 82.7723 156.779 80.6881 156.779 78.117C156.779 75.5459 158.863 73.4613 161.434 73.4613C164.005 73.4613 166.09 75.5459 166.09 78.117C166.09 80.6881 164.005 82.7723 161.434 82.7723ZM161.287 72.0789C158.002 72.155 155.322 74.833 155.244 78.1189C155.211 79.526 155.648 80.8289 156.408 81.8837L156.406 81.8845L156.466 81.9663C156.469 81.9701 156.472 81.9739 156.475 81.9781L160.859 87.9416C161.246 88.4665 162.035 88.4498 162.399 87.9093L166.362 82.0176C167.112 80.8737 167.626 79.6785 167.626 78.2691C167.626 74.8003 164.774 71.9979 161.287 72.0789" fill="black"/>
</g>
<path d="M161.059 81.9328C159.112 81.9328 157.533 80.3545 157.533 78.4068C157.533 76.46 159.112 74.8813 161.059 74.8813C163.007 74.8813 164.585 76.46 164.585 78.4068C164.585 80.3545 163.007 81.9328 161.059 81.9328ZM160.912 72.0785C157.627 72.1546 154.947 74.8326 154.869 78.1185C154.836 79.5256 155.273 80.8285 156.033 81.8837L156.031 81.8841L156.092 81.9659C156.094 81.9701 156.097 81.9739 156.1 81.9777L160.484 87.9412C160.871 88.4662 161.66 88.4498 162.024 87.9089L165.987 82.0176C166.737 80.8737 167.251 79.6781 167.251 78.2691C167.251 74.8003 164.399 71.9975 160.912 72.0785" fill="#39D192"/>
<path d="M38.2893 108.987L11.1211 176.455L62.0616 168.079L99.4185 176.455L137.68 168.079L188.848 177.839L161.453 108.987L130.889 101.29L99.9845 107.176L68.401 101.29L38.2893 108.987Z" fill="white"/>
<path d="M38.2838 108.987C38.2838 108.987 38.4501 108.941 38.7829 108.853C39.1173 108.767 39.6141 108.638 40.2699 108.467C41.5872 108.127 43.5417 107.623 46.0973 106.965C51.2178 105.65 58.746 103.716 68.383 101.241L68.3937 101.239L68.4047 101.241C77.1094 102.858 87.7937 104.843 99.9916 107.109H99.9661C109.217 105.343 119.648 103.352 130.868 101.211L130.885 101.207L130.903 101.212C140.395 103.6 150.679 106.187 161.469 108.901L161.513 108.912L161.53 108.954C169.902 129.988 179.158 153.244 188.934 177.803L189 177.969L188.824 177.936C180.41 176.331 171.519 174.635 162.503 172.916C154.102 171.313 145.811 169.731 137.657 168.176L137.696 168.175C124.549 171.052 111.757 173.852 99.4332 176.548L99.4127 176.553L99.3921 176.548C86.3737 173.627 73.8863 170.824 62.0368 168.165L62.0707 168.166C43.3534 171.238 26.2187 174.05 11.1271 176.527L11 176.548L11.0483 176.428C19.4514 155.599 26.256 138.733 30.9607 127.072C33.3147 121.248 35.1433 116.725 36.3837 113.655C37.0045 112.124 37.4781 110.957 37.7977 110.169C38.1168 109.385 38.2838 108.987 38.2838 108.987C38.2838 108.987 38.126 109.396 37.8118 110.185C37.4956 110.976 37.0266 112.149 36.4123 113.686C35.1786 116.761 33.3611 121.292 31.0205 127.126C26.3336 138.787 19.5544 155.653 11.1826 176.483L11.1039 176.384C26.1936 173.898 43.3264 171.075 62.0421 167.991L62.0589 167.989L62.0756 167.992C73.9258 170.648 86.4144 173.446 99.4336 176.363L99.3925 176.363C111.716 173.663 124.507 170.862 137.654 167.982L137.674 167.978L137.693 167.982C145.848 169.537 154.139 171.119 162.54 172.721C171.556 174.441 180.447 176.137 188.861 177.742L188.751 177.875C178.982 153.314 169.732 130.055 161.365 109.02L161.426 109.074C150.637 106.353 140.354 103.76 130.863 101.367L130.898 101.369C119.677 103.501 109.244 105.484 99.9916 107.243L99.9791 107.246L99.9661 107.243C87.7713 104.963 77.0892 102.966 68.3864 101.338L68.4077 101.338C58.773 103.79 51.2464 105.705 46.1266 107.008C43.5657 107.657 41.607 108.153 40.287 108.488C39.6274 108.654 39.1279 108.779 38.7917 108.864C38.4562 108.948 38.2838 108.987 38.2838 108.987Z" fill="#1A2E35"/>
<path d="M39.8698 110.798L15.8711 173.059L61.8311 165.588L99.9803 174.418L137.676 165.362L184.542 174.418L159.864 110.798L131.337 103.78L99.9803 109.666L67.9441 103.78L39.8698 110.798Z" fill="white"/>
<path d="M18.5312 166.141L55.0622 157.681L53.713 149.811L56.7486 147.9L52.0266 129.52L37.4185 117.141L18.5312 166.141Z" fill="#375A64"/>
<path d="M15.8711 173.059L17.6521 168.438L78.9027 154.208L82.23 163.365L81.1512 165.213L69.6468 167.397L61.8311 165.588L15.8711 173.059Z" fill="#ECECEC"/>
<path d="M82.2305 153.322L84.6608 162.381L91.7135 165.448L101.751 160.987L122.804 154.855L116.234 144.96L82.2305 153.322Z" fill="#ECECEC"/>
<path d="M57.767 156.677L69.1482 154.208L66.8772 146.813L58.586 148.817L56.3789 150.374L57.767 156.677Z" fill="#E1E1E1"/>
<path d="M55.4414 132.17L59.5741 145.73L66.031 144.309L64.8689 139.099L79.0745 135.915L55.4414 132.17Z" fill="#375A64"/>
<path d="M38.4961 114.353L56.3715 128.705L80.1028 133.203L105.415 126.911L93.8603 108.543L67.9402 103.78L39.8663 110.798L38.4961 114.353Z" fill="#ECECEC"/>
<path d="M97.3203 109.178L134.431 166.141L137.676 165.362L101.759 109.332L99.9801 109.666L97.3203 109.178Z" fill="#ECECEC"/>
<path d="M67.2578 140.533L71.9603 154.208L113.703 143.543L105.978 130.392L67.2578 140.533Z" fill="#E1E1E1"/>
<path d="M90.4805 172.219L90.8867 171.614L93.6287 167.539L100.208 165.447L104.732 162.038L124.352 156.677L130.445 167.099L99.9817 174.418" fill="#E1E1E1"/>
<path d="M125.227 104.926L135.06 115.863L159.86 110.799L131.333 103.78L125.227 104.926Z" fill="#E1E1E1"/>
<path d="M165.079 124.254L146.864 129.315L137.672 117.141L160.482 112.402L165.079 124.254Z" fill="#E1E1E1"/>
<path d="M103.703 108.967L122.8 136.398L144.841 130.074L122.8 105.382L103.703 108.967Z" fill="#ECECEC"/>
<path d="M157.102 169.115L179.139 160.482L184.545 174.418L157.102 169.115Z" fill="#E1E1E1"/>
<path d="M134.047 134.758L146.021 131.636L158.669 146.813L146.358 150.901L134.047 134.758Z" fill="#375A64"/>
<path d="M148.727 130.392L162.049 145.667L172.086 142.3L165.487 125.287L148.727 130.392Z" fill="#E1E1E1"/>
<path d="M158.672 165.547L148.723 151.745L172.772 144.078L177.659 156.677L174.525 159.833L158.672 165.547Z" fill="#375A64"/>
<path d="M123.969 138.416L142.251 166.141L153.508 168.422L155.632 167.45L132.467 135.855L123.969 138.416Z" fill="#E1E1E1"/>
<path d="M49.0443 159.075L44.4894 137.659L28.4281 140.466L18.5312 166.141L49.0443 159.075Z" fill="#E1E1E1"/>
<path d="M63.8148 104.811V114.616L67.2532 115.05L76.8541 126.235L85.1073 125.287L89.0361 130.982L80.1028 133.203L56.3719 128.705L38.4961 114.353L39.8663 110.798L63.8148 104.811Z" fill="#375A64"/>
<path d="M114.012 107.115L127.497 126.794L139.112 123.656L122.8 105.382L114.012 107.115Z" fill="#E1E1E1"/>
<path d="M153.601 127.444L148.723 119.816L161.915 116.088L165.083 124.254L153.601 127.444Z" fill="#ECECEC"/>
<path d="M134.047 153.698L140.432 151.491L152.817 168.282L142.252 166.141L134.047 153.698Z" fill="#ECECEC"/>
<path d="M75.1484 168.669L81.0876 167.947L83.0661 165.049L90.4831 167.381L88.5431 171.77L75.1484 168.669Z" fill="#375A64"/>
<path d="M39.8723 110.798C39.8723 110.798 40.4976 110.634 41.7229 110.323C42.9512 110.014 44.773 109.554 47.155 108.952C51.9294 107.753 58.9482 105.989 67.9344 103.732L67.9447 103.729L67.9553 103.731C76.7007 105.333 87.5414 107.318 99.9945 109.598L99.9698 109.599C109.346 107.834 119.927 105.844 131.324 103.7L131.342 103.696L131.359 103.701C140.276 105.892 149.859 108.247 159.888 110.711L159.933 110.723L159.95 110.766C167.504 130.234 175.847 151.733 184.636 174.382L184.7 174.548L184.526 174.514C177.015 173.064 169.066 171.528 161.012 169.972C153.118 168.446 145.324 166.939 137.66 165.458L137.701 165.457C124.727 168.573 112.12 171.6 100.005 174.51L99.9827 174.515L99.9607 174.51C86.5953 171.414 73.8386 168.459 61.8137 165.673L61.8472 165.674C44.9635 168.413 29.5261 170.917 15.885 173.13L15.7617 173.15L15.8066 173.033C23.2351 153.802 29.2473 138.237 33.4028 127.479C35.4824 122.106 37.0976 117.934 38.1932 115.103C38.7417 113.691 39.1601 112.614 39.442 111.888C39.7243 111.165 39.8723 110.798 39.8723 110.798C39.8723 110.798 39.7334 111.175 39.4561 111.904C39.1773 112.633 38.7638 113.715 38.2213 115.133C37.1326 117.969 35.5285 122.148 33.4625 127.531C29.3241 138.29 23.3374 153.854 15.9401 173.085L15.8618 172.989C29.5018 170.767 44.9373 168.252 61.8195 165.502L61.8362 165.499L61.8529 165.503C73.8789 168.284 86.6372 171.234 100.004 174.326H99.9599C112.075 171.414 124.681 168.384 137.655 165.266L137.676 165.261L137.698 165.265C145.362 166.746 153.155 168.251 161.05 169.777C169.104 171.333 177.053 172.87 184.563 174.321L184.453 174.454C175.669 151.802 167.332 130.301 159.783 110.831L159.845 110.886C149.817 108.415 140.235 106.055 131.32 103.859L131.354 103.86C119.956 105.995 109.373 107.978 99.9949 109.734L99.9824 109.737L99.9698 109.734C87.5189 107.439 76.6813 105.44 67.9374 103.828L67.9584 103.828C58.9744 106.062 51.9576 107.808 47.1847 108.995C44.7969 109.586 42.971 110.039 41.74 110.344C40.5094 110.647 39.8723 110.798 39.8723 110.798Z" fill="#1A2E35"/>
<g opacity="0.199997">
<path d="M99.4076 176.456L99.9737 107.176L68.3902 101.29L62.0508 168.079L99.4076 176.456Z" fill="black"/>
</g>
<g opacity="0.199997">
<path d="M130.883 101.289L137.674 168.078L188.842 177.839L161.447 108.987L130.883 101.289Z" fill="black"/>
</g>
<path d="M101.218 113.434C83.9513 113.434 69.9537 99.4364 69.9537 82.1696C69.9537 64.9029 83.9513 50.9057 101.218 50.9057C118.485 50.9057 132.482 64.9029 132.482 82.1696C132.482 99.4364 118.485 113.434 101.218 113.434ZM100.23 41.6193C78.1631 42.1313 60.1702 60.1155 59.6448 82.1822C59.42 91.6325 62.3586 100.382 67.4628 107.467L67.4518 107.47L67.8569 108.021C67.8763 108.047 67.895 108.073 67.9144 108.099L97.3593 148.15C99.9517 151.675 105.255 151.564 107.698 147.933L134.312 108.366C139.349 100.685 142.803 92.6565 142.803 83.1929C142.803 59.8976 123.649 41.0761 100.23 41.6193" fill="#39D192"/>
<g opacity="0.300003">
<path d="M101.206 113.434C83.9396 113.434 69.942 99.4364 69.942 82.1696C69.942 64.9029 83.9396 50.9057 101.206 50.9057C118.473 50.9057 132.471 64.9029 132.471 82.1696C132.471 99.4364 118.473 113.434 101.206 113.434ZM100.218 41.6193C78.1514 42.1313 60.1585 60.1155 59.6331 82.1822C59.4083 91.6325 62.3469 100.382 67.4511 107.467L67.4401 107.47L67.8452 108.021C67.8646 108.047 67.8832 108.073 67.9026 108.099L97.3475 148.15C99.94 151.675 105.244 151.564 107.686 147.933L134.301 108.366C139.337 100.685 142.792 92.6565 142.792 83.1929C142.792 59.8976 123.637 41.0761 100.218 41.6193" fill="black"/>
</g>
<path d="M98.7532 113.434C81.4864 113.434 67.4888 99.4364 67.4888 82.1696C67.4888 64.9029 81.4864 50.9057 98.7532 50.9057C116.02 50.9057 130.018 64.9029 130.018 82.1696C130.018 99.4364 116.02 113.434 98.7532 113.434ZM97.7649 41.6193C75.6983 42.1313 57.7053 60.1155 57.18 82.1822C56.9552 91.6325 59.8938 100.382 64.9976 107.467L64.9866 107.47L65.3921 108.021C65.4115 108.047 65.4297 108.073 65.4491 108.099L94.8944 148.15C97.4865 151.675 102.791 151.564 105.233 147.933L131.848 108.366C136.884 100.685 140.339 92.6565 140.339 83.1929C140.339 59.8976 121.184 41.0761 97.7649 41.6193" fill="#39D192"/>
<path d="M124.426 138.049H75.2726C74.2528 138.049 73.4258 137.222 73.4258 136.202V122.796C73.4258 121.776 74.2528 120.949 75.2726 120.949H124.426C125.447 120.949 126.274 121.776 126.274 122.796V136.202C126.274 137.222 125.447 138.049 124.426 138.049Z" fill="white"/>
<path d="M124.425 138.049C124.425 138.04 124.546 138.05 124.774 138.005C124.998 137.958 125.342 137.846 125.672 137.534C126.003 137.233 126.288 136.697 126.243 136.029C126.24 135.362 126.237 134.594 126.234 133.73C126.229 131.999 126.224 129.883 126.217 127.427C126.214 126.198 126.212 124.885 126.209 123.491C126.2 123.145 126.232 122.783 126.173 122.447C126.104 122.108 125.933 121.787 125.682 121.535C125.429 121.287 125.1 121.109 124.741 121.047C124.388 120.993 123.992 121.029 123.609 121.019C111.234 121.026 94.147 121.037 75.2746 121.048C74.7139 121.046 74.1657 121.329 73.8466 121.786C73.6819 122.01 73.5826 122.277 73.5426 122.55C73.5084 122.818 73.5289 123.123 73.5232 123.411C73.5228 124.576 73.5228 125.734 73.5228 126.883C73.5225 129.181 73.5217 131.446 73.5213 133.671C73.5213 134.228 73.5209 134.782 73.5209 135.333C73.5206 135.609 73.5206 135.884 73.5206 136.158C73.5175 136.423 73.5651 136.68 73.6739 136.917C73.8854 137.39 74.3122 137.76 74.8097 137.89C75.0566 137.962 75.3138 137.954 75.5877 137.954C75.8566 137.954 76.1248 137.954 76.3926 137.954C78.5331 137.955 80.6291 137.957 82.6738 137.958C90.852 137.965 98.2173 137.973 104.404 137.979C110.586 137.992 115.589 138.003 119.054 138.01C120.78 138.018 122.121 138.025 123.037 138.029C123.488 138.033 123.834 138.036 124.072 138.039C124.306 138.042 124.425 138.049 124.425 138.049C124.425 138.049 124.306 138.056 124.072 138.059C123.834 138.061 123.488 138.065 123.037 138.069C122.121 138.073 120.78 138.079 119.054 138.087C115.589 138.095 110.586 138.105 104.404 138.119C98.2173 138.125 90.852 138.132 82.6738 138.14C80.6291 138.141 78.5331 138.142 76.3926 138.143C76.1248 138.143 75.8566 138.144 75.5877 138.144C75.3252 138.144 75.0353 138.154 74.7595 138.074C74.2072 137.93 73.734 137.52 73.4989 136.995C73.3779 136.735 73.3247 136.442 73.3281 136.158C73.3277 135.884 73.3277 135.609 73.3277 135.333C73.3277 134.782 73.3273 134.228 73.3273 133.671C73.3266 131.446 73.3262 129.181 73.3258 126.883C73.3254 125.734 73.3254 124.576 73.3254 123.411C73.3319 123.116 73.3087 122.836 73.3467 122.523C73.3908 122.219 73.5023 121.921 73.6853 121.671C74.0394 121.162 74.6515 120.847 75.2746 120.85C94.147 120.861 111.234 120.872 123.609 120.879C123.998 120.891 124.371 120.853 124.765 120.912C125.152 120.98 125.505 121.174 125.776 121.441C126.045 121.712 126.227 122.057 126.3 122.421C126.363 122.793 126.326 123.143 126.335 123.491C126.333 124.885 126.33 126.198 126.328 127.427C126.321 129.883 126.316 131.999 126.311 133.73C126.307 134.594 126.304 135.362 126.302 136.029C126.31 136.361 126.263 136.68 126.145 136.94C126.03 137.201 125.868 137.408 125.7 137.564C125.358 137.877 125.005 137.984 124.778 138.025C124.662 138.043 124.574 138.051 124.514 138.049C124.455 138.051 124.425 138.049 124.425 138.049Z" fill="#1A2E35"/>
<path d="M78.6992 128.138C78.6992 127.309 79.3333 126.722 80.1965 126.722C80.6982 126.722 81.1026 126.905 81.367 127.236L80.877 127.679C80.7058 127.473 80.4958 127.36 80.2353 127.36C79.7879 127.36 79.4768 127.671 79.4768 128.138C79.4768 128.605 79.7879 128.916 80.2353 128.916C80.4958 128.916 80.7058 128.803 80.877 128.597L81.367 129.04C81.1026 129.371 80.6982 129.554 80.1965 129.554C79.3333 129.554 78.6992 128.966 78.6992 128.138Z" fill="#1A2E35"/>
<path d="M81.6523 128.286V126.777H82.4223V128.262C82.4223 128.729 82.6167 128.916 82.9396 128.916C83.2584 128.916 83.4528 128.729 83.4528 128.262V126.777H84.2113V128.286C84.2113 129.099 83.7366 129.553 82.9316 129.553C82.1267 129.553 81.6523 129.099 81.6523 128.286Z" fill="#1A2E35"/>
<path d="M85.9319 127.383H85.5039V128.181H85.9319C86.2507 128.181 86.4104 128.033 86.4104 127.784C86.4104 127.531 86.2507 127.383 85.9319 127.383ZM85.9243 128.776H85.5039V129.499H84.7344V126.777H85.9787C86.7216 126.777 87.188 127.162 87.188 127.784C87.188 128.185 86.9936 128.48 86.6554 128.644L87.2424 129.499H86.418L85.9243 128.776Z" fill="#1A2E35"/>
<path d="M88.8069 127.383H88.3789V128.181H88.8069C89.1257 128.181 89.2854 128.033 89.2854 127.784C89.2854 127.531 89.1257 127.383 88.8069 127.383ZM88.7993 128.776H88.3789V129.499H87.6094V126.777H88.8537C89.5966 126.777 90.063 127.162 90.063 127.784C90.063 128.185 89.8686 128.48 89.5304 128.644L90.1174 129.499H89.293L88.7993 128.776Z" fill="#1A2E35"/>
<path d="M92.6737 128.904V129.499H90.4883V126.777H92.6231V127.372H91.2502V127.831H92.4599V128.406H91.2502V128.904H92.6737Z" fill="#1A2E35"/>
<path d="M95.6917 126.777V129.499H95.0576L93.8563 128.048V129.499H93.1016V126.777H93.7353L94.9374 128.227V126.777H95.6917Z" fill="#1A2E35"/>
<path d="M96.8127 127.387H95.9766V126.777H98.4149V127.387H97.5826V129.499H96.8127V127.387Z" fill="#1A2E35"/>
<path d="M99.8359 126.777H100.606V128.888H101.905V129.499H99.8359V126.777Z" fill="#1A2E35"/>
<path d="M104.271 128.138C104.271 127.667 103.948 127.36 103.536 127.36C103.124 127.36 102.801 127.667 102.801 128.138C102.801 128.608 103.124 128.916 103.536 128.916C103.948 128.916 104.271 128.608 104.271 128.138ZM102.023 128.138C102.023 127.322 102.665 126.722 103.536 126.722C104.407 126.722 105.049 127.322 105.049 128.138C105.049 128.954 104.407 129.554 103.536 129.554C102.665 129.554 102.023 128.954 102.023 128.138Z" fill="#1A2E35"/>
<path d="M105.312 128.138C105.312 127.309 105.946 126.722 106.81 126.722C107.312 126.722 107.716 126.905 107.98 127.236L107.49 127.679C107.319 127.473 107.11 127.36 106.849 127.36C106.401 127.36 106.09 127.671 106.09 128.138C106.09 128.605 106.401 128.916 106.849 128.916C107.11 128.916 107.319 128.803 107.49 128.597L107.98 129.04C107.716 129.371 107.312 129.554 106.81 129.554C105.946 129.554 105.312 128.966 105.312 128.138Z" fill="#1A2E35"/>
<path d="M109.871 128.402L109.521 127.531L109.171 128.402H109.871ZM110.096 128.97H108.945L108.731 129.499H107.945L109.147 126.777H109.906L111.111 129.499H110.31L110.096 128.97Z" fill="#1A2E35"/>
<path d="M111.774 127.387H110.938V126.777H113.376V127.387H112.543V129.499H111.774V127.387Z" fill="#1A2E35"/>
<path d="M113.664 126.777H114.434V129.499H113.664V126.777Z" fill="#1A2E35"/>
<path d="M117.088 128.138C117.088 127.667 116.765 127.36 116.352 127.36C115.94 127.36 115.618 127.667 115.618 128.138C115.618 128.608 115.94 128.916 116.352 128.916C116.765 128.916 117.088 128.608 117.088 128.138ZM114.84 128.138C114.84 127.322 115.481 126.722 116.352 126.722C117.223 126.722 117.866 127.322 117.866 128.138C117.866 128.954 117.223 129.554 116.352 129.554C115.481 129.554 114.84 128.954 114.84 128.138Z" fill="#1A2E35"/>
<path d="M120.86 126.777V129.499H120.226L119.024 128.048V129.499H118.27V126.777H118.903L120.105 128.227V126.777H120.86Z" fill="#1A2E35"/>
<path d="M84.6406 132.679C84.6406 131.899 85.2398 131.34 86.0458 131.34C86.4932 131.34 86.8667 131.503 87.1106 131.799L86.726 132.154C86.5521 131.954 86.3342 131.851 86.0751 131.851C85.5909 131.851 85.247 132.191 85.247 132.679C85.247 133.167 85.5909 133.507 86.0751 133.507C86.3342 133.507 86.5521 133.403 86.726 133.2L87.1106 133.555C86.8667 133.855 86.4932 134.017 86.042 134.017C85.2398 134.017 84.6406 133.459 84.6406 132.679Z" fill="#E1E1E1"/>
<path d="M87.5117 131.385H88.1108V133.973H87.5117V131.385Z" fill="#E1E1E1"/>
<path d="M89.2617 131.873H88.4336V131.385H90.6886V131.873H89.8605V133.973H89.2617V131.873Z" fill="#E1E1E1"/>
<path d="M92.1988 133.056V133.973H91.5996V133.049L90.5977 131.385H91.2337L91.9253 132.535L92.6164 131.385H93.2045L92.1988 133.056Z" fill="#E1E1E1"/>
<path d="M93.8543 133.64C93.8543 133.736 93.8394 133.806 93.7542 134.01L93.5438 134.542H93.1775L93.3403 133.954C93.2182 133.906 93.1406 133.792 93.1406 133.64C93.1406 133.426 93.2958 133.285 93.4993 133.285C93.7063 133.285 93.8543 133.429 93.8543 133.64Z" fill="#E1E1E1"/>
<path d="M95.1719 132.679C95.1719 131.899 95.771 131.34 96.5771 131.34C97.0244 131.34 97.398 131.503 97.6418 131.799L97.2572 132.154C97.0834 131.954 96.8654 131.851 96.6064 131.851C96.1221 131.851 95.7782 132.191 95.7782 132.679C95.7782 133.167 96.1221 133.507 96.6064 133.507C96.8654 133.507 97.0834 133.403 97.2572 133.2L97.6418 133.555C97.398 133.855 97.0244 134.017 96.5733 134.017C95.771 134.017 95.1719 133.459 95.1719 132.679Z" fill="#E1E1E1"/>
<path d="M100.05 132.679C100.05 132.187 99.7026 131.851 99.2404 131.851C98.7783 131.851 98.4306 132.187 98.4306 132.679C98.4306 133.171 98.7783 133.507 99.2404 133.507C99.7026 133.507 100.05 133.171 100.05 132.679ZM97.8242 132.679C97.8242 131.91 98.4237 131.34 99.2404 131.34C100.054 131.34 100.657 131.906 100.657 132.679C100.657 133.452 100.054 134.017 99.2404 134.017C98.4237 134.017 97.8242 133.448 97.8242 132.679Z" fill="#E1E1E1"/>
<path d="M101.082 132.834V131.385H101.681V132.812C101.681 133.304 101.896 133.507 102.258 133.507C102.624 133.507 102.835 133.304 102.835 132.812V131.385H103.426V132.834C103.426 133.596 102.99 134.017 102.254 134.017C101.518 134.017 101.082 133.596 101.082 132.834Z" fill="#E1E1E1"/>
<path d="M106.389 131.385V133.973H105.897L104.607 132.402V133.973H104.016V131.385H104.511L105.798 132.956V131.385H106.389Z" fill="#E1E1E1"/>
<path d="M107.539 131.873H106.711V131.385H108.966V131.873H108.138V133.973H107.539V131.873Z" fill="#E1E1E1"/>
<path d="M110.376 131.873H109.888V132.775H110.376C110.742 132.775 110.927 132.605 110.927 132.324C110.927 132.039 110.742 131.873 110.376 131.873ZM110.938 133.973L110.439 133.252H110.409H109.888V133.973H109.289V131.385H110.409C111.101 131.385 111.533 131.743 111.533 132.324C111.533 132.712 111.337 132.997 111.001 133.141L111.581 133.973H110.938Z" fill="#E1E1E1"/>
<path d="M113.21 133.056V133.973H112.611V133.049L111.609 131.385H112.245L112.937 132.535L113.628 131.385H114.216L113.21 133.056Z" fill="#E1E1E1"/>
</g>
</svg>
