<svg width="141" height="21" viewBox="0 0 141 21" fill="none" xmlns="http://www.w3.org/2000/svg">
<g clip-path="url(#clip0_1046_17142)">
<path d="M28.3757 17.6876V20.5001H21.8236V15.9688L15.3219 15.1876C14.8179 15.1355 14.3643 14.9793 13.9107 14.7709L0 8.15638L0.453608 7.53138C0.55441 7.37513 0.705612 7.21888 0.907216 7.1668C1.46163 6.90638 2.11684 6.8543 2.72165 7.06263L6.60252 8.26055L10.937 9.45846L12.449 9.82305C12.3482 10.6043 12.8018 11.2813 13.5578 11.4376L19.0011 12.6355L19.1523 11.8022L17.8923 11.5418L14.3139 10.7084C13.6586 10.5522 13.205 9.87513 13.3058 9.19804L13.3562 8.83346C13.4066 8.46888 13.7091 8.20846 14.0619 8.26055L15.4731 8.31263C17.8419 8.4168 20.1604 8.83346 22.4284 9.51055C22.9324 9.61471 23.4364 9.87513 23.9404 10.1876C26.0069 11.4897 27.4685 13.573 28.1237 15.9168C28.2749 16.5418 28.3757 17.1147 28.3757 17.6876Z" fill="#39D192"/>
<path d="M22.279 1.125C20.1118 0.708334 17.239 0.5 14.2149 0.5C11.1908 0.5 8.31802 0.708333 6.15078 1.07292C3.52993 1.54167 2.32031 2.11458 2.32031 3.05208C2.32031 3.98958 3.47953 4.66667 6.15078 5.13541C8.31802 5.55208 11.1908 5.76042 14.2149 5.76042C17.239 5.76042 20.1118 5.55208 22.279 5.1875C24.9503 4.71875 26.1095 4.09375 26.1095 3.10417C26.0591 2.16667 24.8999 1.64583 22.279 1.125ZM21.5734 4.04167C19.5574 4.35417 16.8861 4.5625 14.1645 4.5625C11.4428 4.5625 8.82203 4.35417 6.75559 4.04167C4.68915 3.72917 3.88274 3.3125 3.63074 3.15625C3.93314 2.94792 4.68915 2.375 6.75559 2.0625C9.22524 1.69792 11.6949 1.48958 14.1645 1.48958C16.6341 1.48958 19.1038 1.69792 21.5734 2.01042C23.8415 2.32292 24.4463 3 24.6983 3.20833C24.4463 3.3125 23.6399 3.67708 21.5734 4.04167Z" fill="#39D192"/>
<path d="M48.375 19.4154V3.44775H58.26V5.91256H51.21V9.98484H57.465V12.4496H51.21V19.4154H48.375Z" fill="#39D192"/>
<path d="M71.1021 13.3832C71.1171 14.2711 70.9821 15.1438 70.6971 15.9858C70.4571 16.7206 70.0521 17.4096 69.5421 17.9913C69.0321 18.5425 68.4321 18.9864 67.7421 19.2773C67.0071 19.5835 66.2271 19.7519 65.4321 19.7366C64.6371 19.7519 63.8571 19.5988 63.1221 19.2773C62.4471 18.9864 61.8321 18.5425 61.3371 17.9913C60.8271 17.4096 60.4221 16.7206 60.1671 15.9858C59.8821 15.1438 59.7321 14.2711 59.7471 13.3832C59.7321 12.4953 59.8821 11.6226 60.1671 10.7806C60.4221 10.0458 60.8271 9.37215 61.3371 8.7904C61.8471 8.23926 62.4471 7.79529 63.1371 7.51972C63.8571 7.21354 64.6371 7.06044 65.4171 7.07575C66.1971 7.06044 66.9771 7.21354 67.7121 7.51972C68.4021 7.8106 69.0171 8.23926 69.5121 8.7904C70.0221 9.37215 70.4121 10.0458 70.6821 10.7806C70.9671 11.6226 71.1171 12.4953 71.1021 13.3832ZM68.2971 13.3832C68.2971 12.1891 68.0421 11.2399 67.5471 10.5357C67.0521 9.83143 66.3471 9.47932 65.4321 9.49463C64.5321 9.49463 63.8271 9.84674 63.3171 10.5357C62.8071 11.2246 62.5521 12.1891 62.5521 13.3832C62.5521 14.5926 62.8071 15.5571 63.3021 16.2614C63.8121 16.9656 64.5171 17.3177 65.4171 17.3177C66.3171 17.3177 67.0221 16.9656 67.5321 16.2614C68.0421 15.5571 68.2971 14.5926 68.2971 13.3832Z" fill="#39D192"/>
<path d="M84.5982 13.3834C84.6132 14.2713 84.4782 15.1439 84.1932 15.986C83.9532 16.7208 83.5482 17.4097 83.0382 17.9915C82.5282 18.5426 81.9282 18.9866 81.2382 19.2775C80.5032 19.5837 79.7232 19.7521 78.9282 19.7368C78.1332 19.7521 77.3532 19.599 76.6182 19.2775C75.9432 18.9866 75.3282 18.5426 74.8332 17.9915C74.3232 17.4097 73.9182 16.7208 73.6632 15.986C73.3782 15.1439 73.2282 14.2713 73.2432 13.3834C73.2282 12.4954 73.3782 11.6228 73.6632 10.7808C73.9182 10.0459 74.3232 9.37233 74.8332 8.79057C75.3432 8.23944 75.9582 7.79546 76.6332 7.5199C77.3532 7.21371 78.1332 7.06062 78.9132 7.06062C79.6932 7.04531 80.4732 7.1984 81.2082 7.50459C81.8982 7.79546 82.5132 8.22413 83.0082 8.79057C83.5182 9.37233 83.9082 10.0459 84.1782 10.7808C84.4782 11.6228 84.6132 12.4954 84.5982 13.3834ZM81.7932 13.3834C81.7932 12.1892 81.5382 11.2401 81.0432 10.5358C80.5332 9.83161 79.8282 9.47949 78.9282 9.47949C78.0282 9.47949 77.3232 9.83161 76.8132 10.5205C76.3032 11.2094 76.0482 12.1739 76.0632 13.3681C76.0632 14.5775 76.3182 15.542 76.8132 16.2462C77.3082 16.9505 78.0132 17.3026 78.9282 17.3026C79.8282 17.3026 80.5332 16.9505 81.0432 16.2462C81.5532 15.5573 81.7932 14.5928 81.7932 13.3834Z" fill="#39D192"/>
<path d="M97.4097 19.0475C96.7347 19.2465 96.0597 19.3996 95.3697 19.5068C94.5147 19.6446 93.6447 19.7211 92.7747 19.7211C91.9197 19.7364 91.0647 19.5834 90.2697 19.2772C89.5647 19.0016 88.9197 18.5729 88.3797 18.0218C87.8397 17.4554 87.4347 16.7817 87.1797 16.0316C86.8947 15.1896 86.7597 14.3169 86.7747 13.429C86.7597 12.5564 86.8797 11.6837 87.1197 10.8417C87.3297 10.1222 87.6747 9.43331 88.1397 8.85155C88.5897 8.30041 89.1447 7.87175 89.7897 7.58088C90.4947 7.27469 91.2447 7.1216 92.0097 7.1216C92.5197 7.10629 93.0297 7.18283 93.5247 7.33593C93.9147 7.4584 94.2897 7.61149 94.6497 7.79521V1.99297L97.3797 1.53369L97.4097 19.0475ZM89.5647 13.3525C89.5647 14.5772 89.8497 15.5417 90.4197 16.2459C90.9897 16.9501 91.7847 17.3023 92.7897 17.287C93.1647 17.287 93.5397 17.2716 93.9147 17.2257C94.1697 17.1951 94.4097 17.1492 94.6647 17.1032V10.1988C94.3647 9.99975 94.0497 9.84666 93.7047 9.72418C93.2997 9.57109 92.8647 9.50985 92.4297 9.50985C91.4397 9.50985 90.7047 9.86197 90.2547 10.5508C89.8047 11.2398 89.5647 12.1736 89.5647 13.3525Z" fill="#39D192"/>
<path d="M100.232 13.4444C100.217 12.4952 100.366 11.546 100.696 10.6581C100.966 9.92322 101.386 9.2343 101.926 8.66785C102.421 8.14734 103.021 7.73398 103.696 7.47373C104.341 7.21347 105.031 7.07568 105.721 7.07568C107.341 7.07568 108.617 7.5962 109.532 8.62193C110.447 9.64765 110.897 11.1939 110.897 13.23C110.897 13.3831 110.897 13.5515 110.882 13.7506C110.867 13.9496 110.867 14.118 110.852 14.2711H103.051C103.126 15.2356 103.457 15.9857 104.057 16.5215C104.657 17.0574 105.512 17.3176 106.637 17.3176C107.252 17.3176 107.852 17.2564 108.452 17.1339C108.902 17.0421 109.337 16.9196 109.757 16.7359L110.116 19.017C109.921 19.1088 109.712 19.2007 109.502 19.2619C109.202 19.3538 108.902 19.4303 108.602 19.4916C108.257 19.5681 107.897 19.614 107.507 19.66C107.102 19.7059 106.712 19.7365 106.307 19.7212C105.377 19.7365 104.461 19.5834 103.591 19.2466C102.871 18.971 102.212 18.5118 101.687 17.93C101.177 17.3636 100.801 16.6746 100.576 15.9551C100.336 15.1437 100.217 14.3017 100.232 13.4444ZM108.152 12.2043C108.152 11.8369 108.107 11.4695 108.002 11.102C107.912 10.7805 107.747 10.4744 107.537 10.1988C107.327 9.93853 107.072 9.73951 106.787 9.60172C106.457 9.44863 106.097 9.37208 105.737 9.38739C105.362 9.37208 104.971 9.46394 104.626 9.63234C104.326 9.78544 104.042 9.99977 103.832 10.26C103.607 10.5203 103.441 10.8265 103.321 11.1633C103.201 11.5001 103.111 11.8522 103.066 12.2043H108.152Z" fill="#39D192"/>
<path d="M117.72 7.06085C118.5 7.04554 119.265 7.16801 120 7.41296C120.57 7.61199 121.065 7.93348 121.485 8.37745C121.86 8.80611 122.13 9.32663 122.28 9.89308C122.445 10.5361 122.52 11.1791 122.52 11.8374V19.1399C122.1 19.2318 121.47 19.3389 120.615 19.4767C119.655 19.6145 118.695 19.6758 117.735 19.6758C117.075 19.6758 116.43 19.6145 115.785 19.4614C115.245 19.3389 114.735 19.1246 114.285 18.7878C113.865 18.4816 113.535 18.0683 113.31 17.5937C113.055 17.0272 112.935 16.3995 112.965 15.7719C112.95 15.1595 113.085 14.5624 113.355 14.0266C113.61 13.552 113.985 13.154 114.435 12.8631C114.915 12.5569 115.455 12.3273 116.01 12.2201C116.625 12.0823 117.24 12.0211 117.87 12.0211C118.185 12.0211 118.5 12.0364 118.815 12.0823C119.175 12.1282 119.52 12.1895 119.88 12.2813V11.8221C119.88 11.5159 119.85 11.2097 119.76 10.9035C119.61 10.3064 119.19 9.81653 118.62 9.61751C118.245 9.47973 117.855 9.41849 117.45 9.4338C116.865 9.4338 116.28 9.47973 115.71 9.57158C115.275 9.64813 114.84 9.75529 114.42 9.89308L114.075 7.61199C114.57 7.45889 115.08 7.33642 115.59 7.24456C116.295 7.12209 117 7.06085 117.72 7.06085ZM117.945 17.4559C118.59 17.4712 119.235 17.4253 119.865 17.3181V14.2256C119.655 14.1644 119.43 14.1185 119.205 14.0878C118.89 14.0419 118.575 14.0113 118.26 14.0266C117.96 14.0266 117.645 14.0572 117.345 14.0878C117.06 14.1338 116.775 14.2103 116.505 14.3481C116.265 14.4706 116.055 14.639 115.905 14.8686C115.74 15.1136 115.665 15.4198 115.68 15.7106C115.68 16.3689 115.89 16.8282 116.295 17.0885C116.7 17.3334 117.24 17.4712 117.945 17.4559Z" fill="#39D192"/>
<path d="M129.96 19.6446C129.27 19.6446 128.595 19.5527 127.935 19.369C127.455 19.2312 127.02 18.9863 126.66 18.6495C126.345 18.328 126.105 17.9146 126 17.4707C125.865 16.9501 125.805 16.4143 125.805 15.8632V1.99297L128.535 1.53369V15.3427C128.535 15.6335 128.55 15.9091 128.61 16.2C128.655 16.4143 128.76 16.6133 128.895 16.7817C129.045 16.9501 129.24 17.0726 129.45 17.1492C129.735 17.241 130.035 17.3176 130.335 17.3482L129.96 19.6446Z" fill="#39D192"/>
<path d="M135.51 17.41C136.23 17.41 136.755 17.3182 137.085 17.1498C137.415 16.9813 137.58 16.6752 137.58 16.2312C137.58 15.8331 137.385 15.4504 137.055 15.2361C136.695 14.9758 136.11 14.6849 135.3 14.3788C134.835 14.2104 134.385 14.0113 133.935 13.797C133.545 13.6133 133.185 13.3683 132.855 13.0622C132.555 12.7866 132.315 12.4345 132.15 12.0517C131.97 11.5925 131.88 11.1026 131.895 10.6127C131.895 9.51039 132.3 8.63776 133.095 7.99476C133.89 7.35177 134.985 7.04558 136.35 7.03027C137.01 7.03027 137.685 7.10682 138.33 7.2293C138.81 7.32115 139.29 7.44363 139.755 7.61203L139.26 9.8625C138.885 9.6941 138.495 9.57162 138.105 9.47977C137.565 9.35729 137.025 9.29606 136.485 9.31137C136.02 9.29606 135.555 9.38791 135.135 9.60224C134.805 9.77065 134.595 10.1228 134.61 10.4902C134.61 10.6739 134.64 10.8576 134.715 11.026C134.79 11.1944 134.91 11.3475 135.06 11.4547C135.27 11.6078 135.48 11.7456 135.72 11.8527C136.05 12.0058 136.38 12.1436 136.71 12.2508C137.28 12.4651 137.82 12.6947 138.36 12.9703C138.765 13.1846 139.155 13.4449 139.485 13.7817C139.77 14.0726 139.995 14.4247 140.13 14.8074C140.28 15.2514 140.34 15.7107 140.325 16.1853C140.325 17.3335 139.905 18.2061 139.065 18.8032C138.225 19.4002 137.04 19.6911 135.48 19.6911C134.64 19.7217 133.785 19.6299 132.96 19.4308C132.51 19.3084 132.06 19.1706 131.625 19.0022L132.105 16.6752C132.585 16.8742 133.065 17.0273 133.56 17.1651C134.205 17.3488 134.865 17.4253 135.51 17.41Z" fill="#39D192"/>
</g>
<defs>
<clipPath id="clip0_1046_17142">
<rect width="141" height="20" fill="white" transform="translate(0 0.5)"/>
</clipPath>
</defs>
</svg>
