<svg width="200" height="200" viewBox="0 0 200 200" fill="none" xmlns="http://www.w3.org/2000/svg">
<mask id="mask0_1048_24791" style="mask-type:alpha" maskUnits="userSpaceOnUse" x="0" y="0" width="200" height="200">
<rect width="200" height="200" fill="#D9D9D9"/>
</mask>
<g mask="url(#mask0_1048_24791)">
<path d="M159.475 58.7613C144.357 44.2526 122.819 48.2348 110.979 59.206C102.331 67.2185 88.7111 78.8731 78.1664 78.3653C67.726 77.8623 55.7733 70.6083 42.7885 76.1838C29.9715 81.6874 26.4686 99.8813 32.2619 113.793C38.08 127.764 59.2944 139.102 84.9817 149.684C95.7938 154.138 105.778 155.604 114.776 155.507C114.776 155.507 138.013 155.267 146.746 149.678C153.586 145.301 156.498 142.426 163.89 131.267C169.485 122.821 173.217 110.944 173.638 99.4425C174.152 85.3872 170.771 69.6024 159.475 58.7613Z" fill="#39D192"/>
<g opacity="0.800003">
<path d="M159.479 58.7615C144.361 44.2527 122.823 48.2349 110.982 59.2061C102.335 67.2186 88.715 78.8733 78.1703 78.3654C67.7299 77.8624 55.7772 70.6084 42.7924 76.1839C29.9754 81.6875 26.4725 99.8814 32.2658 113.793C38.0839 127.764 59.2983 139.103 84.9856 149.684C95.7977 154.138 105.782 155.604 114.78 155.508C114.78 155.508 138.017 155.267 146.75 149.678C153.59 145.301 156.502 142.426 163.894 131.267C169.489 122.821 173.221 110.944 173.642 99.4426C174.156 85.3873 170.774 69.6025 159.479 58.7615Z" fill="white"/>
</g>
<path d="M138.789 157.259L138.264 160.998L137.207 168.512H135.141V157.259H138.789Z" fill="#ECECEC"/>
<path d="M138.789 157.259L138.264 160.999H135.141V157.259H138.789Z" fill="#DCDCDC"/>
<path d="M138.562 168.779C138.562 172.647 135.665 175.777 132.093 175.777H68.2228C64.6416 175.777 61.745 172.647 61.745 168.779V31.9268C61.745 24.0466 64.6416 23.6623 68.2228 23.6623H81.019C81.7623 23.6623 82.37 24.5069 82.37 25.5542V26.0061C82.37 28.4597 83.7134 28.4681 85.3603 28.4681H114.947C116.611 28.4681 117.945 28.4597 117.945 26.0061V25.5542C117.945 24.5069 118.545 23.6623 119.301 23.6623H132.093C135.665 23.6623 138.562 24.7096 138.562 31.9268V168.779ZM135.851 19H64.4562C60.4697 19 57.2344 22.2898 57.2344 26.3566V173.323C57.2344 177.381 60.4697 180.68 64.4562 180.68H135.851C139.838 180.68 143.081 177.381 143.081 173.323V26.3566C143.081 22.2898 139.838 19 135.851 19Z" fill="#375A64"/>
<path d="M138.567 31.9267V168.779C138.567 172.647 135.67 175.777 132.098 175.777H68.2277C64.6466 175.777 61.75 172.647 61.75 168.779V31.9267C61.75 24.0465 64.6466 23.6622 68.2277 23.6622H81.024C81.7673 23.6622 82.375 24.5068 82.375 25.5541V26.006C82.375 28.4595 83.7183 28.468 85.3653 28.468H114.952C116.616 28.468 117.95 28.4595 117.95 26.006V25.5541C117.95 24.5068 118.55 23.6622 119.306 23.6622H132.098C135.67 23.6622 138.567 24.7095 138.567 31.9267Z" fill="white"/>
<path d="M138.567 31.9266V47.3386H61.75V31.9266C61.75 24.0464 64.6466 23.6621 68.2277 23.6621H81.024C81.7673 23.6621 82.375 24.5067 82.375 25.554V26.0059C82.375 28.4595 83.7183 28.4679 85.3653 28.4679H114.952C116.616 28.4679 117.95 28.4595 117.95 26.0059V25.554C117.95 24.5067 118.55 23.6621 119.306 23.6621H132.098C135.67 23.6621 138.567 24.7094 138.567 31.9266Z" fill="#39D192"/>
<path d="M78.8164 26.7359C78.775 26.7769 78.734 26.8174 78.6926 26.8588C78.6694 26.882 78.6462 26.9053 78.6229 26.9289C78.2906 26.6067 77.8953 26.4348 77.4325 26.4348C76.9692 26.4348 76.5739 26.6058 76.2394 26.9302C76.2175 26.9074 76.1951 26.8837 76.1727 26.8605C76.1322 26.8195 76.0912 26.779 76.0507 26.738C76.0498 26.7368 76.0481 26.7363 76.0469 26.7359V26.733C76.0503 26.7304 76.0532 26.7279 76.0562 26.7254C76.1081 26.6793 76.1588 26.6312 76.2124 26.5868C76.3235 26.4956 76.4451 26.42 76.5739 26.3567C76.7264 26.2819 76.886 26.2262 77.0532 26.1958C77.1322 26.181 77.2124 26.1734 77.2923 26.1641C77.3197 26.1603 77.4966 26.1599 77.5021 26.1603C77.5562 26.1641 77.6111 26.1666 77.6651 26.1726C77.8159 26.189 77.9625 26.2253 78.1048 26.2777C78.2078 26.3153 78.3066 26.3622 78.4021 26.4167C78.5026 26.4745 78.5976 26.5404 78.6859 26.6156C78.7302 26.6536 78.7729 26.6937 78.8164 26.733V26.7359Z" fill="white"/>
<path d="M76.6248 27.3174C76.5593 27.2528 76.4951 27.189 76.4297 27.1235C76.6518 26.9052 76.9149 26.7663 77.224 26.7245C77.6865 26.662 78.083 26.8026 78.4196 27.121C78.3533 27.1869 78.2887 27.2511 78.2236 27.3161C78.0024 27.1016 77.7363 26.9855 77.4246 26.9859C77.113 26.9859 76.8473 27.1016 76.6248 27.3174Z" fill="white"/>
<path d="M78.0277 27.5127C77.9635 27.5768 77.8989 27.6415 77.8334 27.7065C77.7207 27.5975 77.5843 27.5372 77.4238 27.5372C77.2642 27.5372 77.1278 27.5975 77.0146 27.7078C76.9491 27.6427 76.8849 27.5781 76.8203 27.5139C77.1294 27.19 77.6856 27.1643 78.0277 27.5127Z" fill="white"/>
<path d="M77.6014 27.8829C77.6014 27.98 77.5224 28.0586 77.4257 28.0586C77.3285 28.0586 77.25 27.98 77.25 27.8829C77.25 27.7862 77.3285 27.7072 77.4257 27.7072C77.5224 27.7072 77.6014 27.7862 77.6014 27.8829Z" fill="white"/>
<path d="M66.7578 27.1094C66.7578 26.8281 66.9859 26.6005 67.2671 26.6005C67.5479 26.6005 67.776 26.8281 67.776 27.1094C67.776 27.3906 67.5479 27.6187 67.2671 27.6187C66.9859 27.6187 66.7578 27.3906 66.7578 27.1094Z" fill="white"/>
<path d="M68.3633 27.1094C68.3633 26.8281 68.5913 26.6005 68.8726 26.6005C69.1538 26.6005 69.3815 26.8281 69.3815 27.1094C69.3815 27.3906 69.1538 27.6187 68.8726 27.6187C68.5913 27.6187 68.3633 27.3906 68.3633 27.1094Z" fill="white"/>
<path d="M69.9688 27.1095C69.9688 26.8282 70.1968 26.6006 70.4776 26.6006C70.7589 26.6006 70.9869 26.8282 70.9869 27.1095C70.9869 27.3907 70.7589 27.6188 70.4776 27.6188C70.1968 27.6188 69.9688 27.3907 69.9688 27.1095Z" fill="white"/>
<path d="M71.5703 27.1094C71.5703 26.8281 71.7984 26.6005 72.0796 26.6005C72.3604 26.6005 72.5885 26.8281 72.5885 27.1094C72.5885 27.3906 72.3604 27.6187 72.0796 27.6187C71.7984 27.6187 71.5703 27.3906 71.5703 27.1094Z" fill="white"/>
<path d="M73.1758 27.1094C73.1758 26.8281 73.4038 26.6005 73.6851 26.6005C73.9659 26.6005 74.194 26.8281 74.194 27.1094C74.194 27.3906 73.9659 27.6187 73.6851 27.6187C73.4038 27.6187 73.1758 27.3906 73.1758 27.1094Z" fill="white"/>
<path d="M128.871 28.0094H132.593V26.5119H128.871V28.0094ZM132.804 28.2205H128.66V26.3007H132.804V28.2205Z" fill="white"/>
<path d="M131.675 26.6272H129.004V27.8945H131.675V26.6272Z" fill="white"/>
<path d="M133.173 27.7742H132.805V26.7471H133.173V27.7742Z" fill="white"/>
<path d="M68.7499 43.01L66.4805 40.8837L68.7499 38.7574L69.1021 39.1324L67.233 40.8837L69.1021 42.635L68.7499 43.01Z" fill="white"/>
<path d="M131.571 38.7576L133.84 40.8839L131.571 43.0103L131.219 42.6352L133.087 40.8839L131.219 39.1326L131.571 38.7576Z" fill="white"/>
<path d="M95.7919 41.0548C95.7919 40.774 95.6804 40.5138 95.511 40.3318C95.3375 40.146 95.106 40.0387 94.8586 40.0387C94.5942 40.0387 94.3628 40.146 94.1892 40.3318C94.0156 40.5138 93.9084 40.774 93.9084 41.0548C93.9084 41.3356 94.0156 41.5958 94.1892 41.7736C94.3628 41.9594 94.5942 42.0709 94.8586 42.0709C95.106 42.0709 95.3375 41.9594 95.511 41.7736C95.6804 41.5958 95.7919 41.3356 95.7919 41.0548ZM95.8455 40.0096C96.1014 40.2824 96.2627 40.646 96.2627 41.0548C96.2627 41.4636 96.1014 41.8314 95.8455 42.1C95.6018 42.3682 95.2382 42.5417 94.8586 42.5417C94.462 42.5417 94.0984 42.3682 93.8463 42.1C93.5904 41.8314 93.4375 41.4636 93.4375 41.0548C93.4375 40.646 93.5904 40.2824 93.8463 40.0096C94.0984 39.7372 94.462 39.5679 94.8586 39.5679C95.2382 39.5679 95.6018 39.7372 95.8455 40.0096Z" fill="white"/>
<path d="M98.4115 40.5383C98.4115 40.2989 98.2214 40.1088 97.9862 40.1088H97.4782V40.9598H97.9862C98.2214 40.9598 98.4115 40.7698 98.4115 40.5383ZM98.99 42.1988C99.031 42.3183 98.9651 42.4467 98.8452 42.4881C98.8287 42.4919 98.7957 42.5004 98.7544 42.5004H98.7501C98.7092 42.5004 98.6471 42.4919 98.5892 42.4548C98.5352 42.4218 98.49 42.3682 98.4571 42.3103C98.3992 42.1904 98.3701 42.0417 98.3701 41.8145C98.3663 41.736 98.3498 41.6824 98.3207 41.6372C98.2957 41.5916 98.2463 41.5502 98.1969 41.5172C98.1099 41.4594 98.0027 41.4264 97.9655 41.418H97.4782V42.3145C97.4782 42.4383 97.3747 42.5417 97.2467 42.5417C97.1188 42.5417 97.0195 42.4383 97.0195 42.3145V39.8774C97.0195 39.7495 97.1188 39.6502 97.2467 39.6502H97.251H97.9862C98.4778 39.6502 98.8701 40.0468 98.8701 40.5383C98.8701 40.8111 98.7459 41.0506 98.5479 41.2157C98.6015 41.2571 98.6509 41.3065 98.6923 41.3686C98.7751 41.4885 98.8287 41.641 98.8287 41.8145C98.8245 41.9383 98.8371 42.0168 98.8452 42.0582C98.9115 42.0789 98.9651 42.1287 98.99 42.1988Z" fill="white"/>
<path d="M100.119 42.0835H100.375C100.92 42.0793 101.358 41.6414 101.358 41.092C101.358 40.551 100.92 40.1093 100.375 40.1093H100.119V42.0835ZM99.6602 42.3145V39.8778C99.6602 39.7499 99.7594 39.6506 99.8874 39.6506H100.375C101.172 39.6506 101.817 40.2989 101.817 41.092C101.817 41.8935 101.172 42.5417 100.375 42.5417H99.8874C99.7594 42.5417 99.6602 42.4387 99.6602 42.3145Z" fill="white"/>
<path d="M102.426 42.3145V39.8774C102.426 39.7495 102.525 39.6502 102.653 39.6502H102.657H102.665H104.004C104.123 39.6502 104.23 39.7495 104.23 39.8774C104.23 40.0058 104.123 40.1088 104.004 40.1088H102.884V40.8648H103.846C103.97 40.8648 104.074 40.972 104.074 41.092C104.074 41.2199 103.97 41.3234 103.846 41.3234H102.884V42.0835H104.004C104.123 42.0835 104.23 42.1866 104.23 42.3145C104.23 42.4383 104.123 42.5417 104.004 42.5417H102.665C102.657 42.5417 102.657 42.5375 102.657 42.5375L102.653 42.5417C102.525 42.5417 102.426 42.4383 102.426 42.3145Z" fill="white"/>
<path d="M106.287 40.5383C106.287 40.2989 106.097 40.1088 105.861 40.1088H105.353V40.9598H105.861C106.097 40.9598 106.287 40.7698 106.287 40.5383ZM106.865 42.1988C106.906 42.3183 106.841 42.4467 106.72 42.4881C106.704 42.4919 106.671 42.5004 106.63 42.5004H106.626C106.584 42.5004 106.523 42.4919 106.464 42.4548C106.411 42.4218 106.365 42.3682 106.332 42.3103C106.275 42.1904 106.245 42.0417 106.245 41.8145C106.242 41.736 106.225 41.6824 106.196 41.6372C106.171 41.5916 106.121 41.5502 106.072 41.5172C105.985 41.4594 105.878 41.4264 105.84 41.418H105.353V42.3145C105.353 42.4383 105.25 42.5417 105.122 42.5417C104.994 42.5417 104.895 42.4383 104.895 42.3145V39.8774C104.895 39.7495 104.994 39.6502 105.122 39.6502H105.126H105.861C106.353 39.6502 106.745 40.0468 106.745 40.5383C106.745 40.8111 106.621 41.0506 106.423 41.2157C106.476 41.2571 106.526 41.3065 106.568 41.3686C106.65 41.4885 106.704 41.641 106.704 41.8145C106.7 41.9383 106.712 42.0168 106.72 42.0582C106.787 42.0789 106.841 42.1287 106.865 42.1988Z" fill="white"/>
<path d="M104.19 25.4036H96.1198C95.8445 25.4036 95.6211 25.1802 95.6211 24.9048C95.6211 24.6295 95.8445 24.4065 96.1198 24.4065H104.19C104.465 24.4065 104.689 24.6295 104.689 24.9048C104.689 25.1802 104.465 25.4036 104.19 25.4036Z" fill="#1A2E35"/>
<path d="M74.3381 103.313L73.3241 104.702V106.038C73.3241 106.191 73.2054 106.311 73.0521 106.311C72.9085 106.311 72.7802 106.191 72.7802 106.038V104.702L71.7759 103.313C71.6818 103.194 71.7067 103.025 71.8304 102.937C71.9537 102.848 72.1222 102.873 72.2063 102.996L73.0521 104.153L73.898 102.996C73.9918 102.873 74.1603 102.848 74.2789 102.937C74.3976 103.025 74.4221 103.194 74.3381 103.313Z" fill="#1A2E35"/>
<path d="M74.7463 105.079C74.7463 105.291 74.8105 105.465 74.9241 105.603C75.0478 105.721 75.2113 105.786 75.3992 105.786C75.5723 105.786 75.7307 105.721 75.8544 105.603C75.9782 105.465 76.0474 105.291 76.0474 105.079C76.0474 104.876 75.9782 104.698 75.8544 104.564C75.7307 104.455 75.5723 104.376 75.3992 104.376C75.2113 104.376 75.0478 104.455 74.9241 104.564C74.8105 104.698 74.7463 104.876 74.7463 105.079ZM74.5483 105.949C74.3354 105.731 74.207 105.424 74.207 105.079C74.207 104.742 74.3354 104.451 74.5483 104.213C74.7708 103.98 75.058 103.837 75.3992 103.837C75.7256 103.837 76.0225 103.98 76.2252 104.213C76.4478 104.451 76.5715 104.742 76.5715 105.079C76.5715 105.424 76.4478 105.731 76.2252 105.949C76.0225 106.181 75.7256 106.325 75.3992 106.325C75.058 106.325 74.7708 106.181 74.5483 105.949Z" fill="#1A2E35"/>
<path d="M78.31 106.311C77.7462 106.311 77.2812 105.845 77.2812 105.281V104.099C77.2812 103.961 77.3999 103.838 77.5431 103.838C77.6917 103.838 77.8053 103.961 77.8053 104.099V105.281C77.8053 105.563 78.0283 105.786 78.31 105.786C78.5967 105.786 78.8244 105.563 78.8294 105.281V104.099C78.8294 103.961 78.938 103.838 79.0866 103.838C79.2251 103.838 79.3535 103.961 79.3535 104.099V105.281C79.3535 105.845 78.8788 106.311 78.31 106.311Z" fill="#1A2E35"/>
<path d="M81.8904 104.099C81.8904 104.238 81.7768 104.361 81.6282 104.361C81.5146 104.361 81.4158 104.391 81.3313 104.455C81.2376 104.515 81.1632 104.599 81.1041 104.693C80.9854 104.851 80.9259 105.039 80.901 105.108V106.048C80.901 106.191 80.7777 106.31 80.629 106.31C80.4859 106.31 80.3672 106.191 80.3672 106.048V104.099C80.3672 103.955 80.4859 103.842 80.629 103.842C80.7777 103.842 80.901 103.955 80.901 104.099V104.134C80.931 104.099 80.9702 104.059 81.0049 104.035C81.1683 103.926 81.3811 103.837 81.6282 103.842C81.7768 103.842 81.8904 103.955 81.8904 104.099Z" fill="#1A2E35"/>
<path d="M84.4533 105.079C84.4533 105.291 84.5175 105.465 84.6311 105.603C84.7549 105.721 84.9183 105.786 85.1062 105.786C85.2794 105.786 85.4377 105.721 85.5615 105.603C85.6852 105.465 85.7545 105.291 85.7545 105.079C85.7545 104.876 85.6852 104.698 85.5615 104.564C85.4377 104.455 85.2794 104.376 85.1062 104.376C84.9183 104.376 84.7549 104.455 84.6311 104.564C84.5175 104.698 84.4533 104.876 84.4533 105.079ZM84.2553 105.949C84.0429 105.731 83.9141 105.424 83.9141 105.079C83.9141 104.742 84.0429 104.451 84.2553 104.213C84.4783 103.98 84.765 103.837 85.1062 103.837C85.4327 103.837 85.7296 103.98 85.9323 104.213C86.1548 104.451 86.2786 104.742 86.2786 105.079C86.2786 105.424 86.1548 105.731 85.9323 105.949C85.7296 106.181 85.4327 106.325 85.1062 106.325C84.765 106.325 84.4783 106.181 84.2553 105.949Z" fill="#1A2E35"/>
<path d="M88.5428 104.099C88.5428 104.237 88.4292 104.361 88.2805 104.361C88.1669 104.361 88.0681 104.391 87.9837 104.455C87.8899 104.514 87.8156 104.598 87.7565 104.693C87.6378 104.851 87.5782 105.038 87.5533 105.108V106.048C87.5533 106.191 87.43 106.31 87.2814 106.31C87.1382 106.31 87.0195 106.191 87.0195 106.048V104.099C87.0195 103.955 87.1382 103.842 87.2814 103.842C87.43 103.842 87.5533 103.955 87.5533 104.099V104.133C87.5833 104.099 87.6226 104.059 87.6572 104.035C87.8206 103.926 88.0335 103.837 88.2805 103.842C88.4292 103.842 88.5428 103.955 88.5428 104.099Z" fill="#1A2E35"/>
<path d="M90.112 104.376C89.9338 104.376 89.7708 104.451 89.6471 104.579C89.5233 104.702 89.4494 104.881 89.4494 105.079C89.4494 105.266 89.5233 105.445 89.6471 105.569C89.7708 105.697 89.9338 105.771 90.112 105.771C90.2949 105.771 90.4533 105.697 90.577 105.569C90.7007 105.445 90.7751 105.266 90.7751 105.079C90.7751 104.881 90.7007 104.702 90.577 104.579C90.4533 104.451 90.2949 104.376 90.112 104.376ZM91.3139 106.043C91.3139 106.187 91.1953 106.311 91.047 106.311C90.9132 106.311 90.8097 106.216 90.7848 106.098C90.5968 106.226 90.3595 106.311 90.112 106.311C89.4444 106.311 88.9102 105.746 88.9102 105.079C88.9102 104.401 89.4444 103.838 90.112 103.838C90.3544 103.838 90.5918 103.916 90.7751 104.045V103.115C90.7751 102.972 90.8937 102.848 91.047 102.848C91.1953 102.848 91.3139 102.972 91.3139 103.115V105.073V105.079V106.043Z" fill="#1A2E35"/>
<path d="M92.6252 104.831H94.0247C93.9758 104.633 93.7232 104.342 93.2929 104.307C92.8723 104.327 92.6645 104.629 92.6252 104.831ZM92.0859 105.073C92.091 104.4 92.6155 103.837 93.2929 103.837C93.9361 103.837 94.4454 104.316 94.4851 104.985V105.009C94.4851 105.019 94.4851 105.044 94.48 105.054C94.4652 105.173 94.3613 105.252 94.2228 105.252H92.6501C92.6746 105.365 92.7291 105.494 92.8182 105.578C92.9221 105.697 93.1197 105.786 93.2929 105.801C93.4711 105.816 93.6835 105.771 93.8073 105.677C93.9111 105.569 94.1138 105.583 94.1785 105.662C94.2427 105.732 94.2921 105.88 94.1785 105.984C93.9361 106.207 93.6442 106.311 93.2929 106.311C92.6155 106.305 92.091 105.746 92.0859 105.073Z" fill="#1A2E35"/>
<path d="M96.6956 104.099C96.6956 104.237 96.5815 104.361 96.4333 104.361C96.3197 104.361 96.2205 104.391 96.1364 104.455C96.0427 104.514 95.9683 104.598 95.9092 104.693C95.7901 104.851 95.731 105.038 95.7061 105.108V106.048C95.7061 106.191 95.5828 106.31 95.4341 106.31C95.2905 106.31 95.1719 106.191 95.1719 106.048V104.099C95.1719 103.955 95.2905 103.842 95.4341 103.842C95.5828 103.842 95.7061 103.955 95.7061 104.099V104.133C95.7361 104.099 95.7753 104.059 95.81 104.035C95.9734 103.926 96.1858 103.837 96.4333 103.842C96.5815 103.842 96.6956 103.955 96.6956 104.099Z" fill="#1A2E35"/>
<path d="M99.3741 104.114V106.043C99.3741 106.191 99.26 106.311 99.1067 106.311C98.9585 106.311 98.8398 106.191 98.8398 106.043V104.114C98.8398 103.956 98.9585 103.842 99.1067 103.842C99.26 103.842 99.3741 103.956 99.3741 104.114ZM99.3741 103.219C99.3741 103.367 99.26 103.491 99.1067 103.491C98.9585 103.491 98.8398 103.367 98.8398 103.219V103.115C98.8398 102.967 98.9585 102.848 99.1067 102.848C99.26 102.848 99.3741 102.967 99.3741 103.115V103.219Z" fill="#1A2E35"/>
<path d="M100.101 105.603C100.19 105.485 100.363 105.469 100.472 105.563C100.601 105.672 100.823 105.786 101.016 105.781C101.149 105.781 101.273 105.736 101.353 105.687C101.422 105.628 101.441 105.578 101.441 105.539C101.441 105.514 101.436 105.504 101.427 105.489C101.422 105.474 101.402 105.454 101.362 105.43C101.293 105.381 101.145 105.326 100.967 105.292H100.962C100.808 105.261 100.66 105.222 100.531 105.163C100.398 105.099 100.279 105.009 100.19 104.876C100.136 104.786 100.106 104.678 100.106 104.564C100.106 104.337 100.234 104.144 100.398 104.02C100.571 103.901 100.778 103.837 101.006 103.837C101.348 103.837 101.59 104 101.748 104.109C101.867 104.188 101.902 104.351 101.827 104.475C101.748 104.593 101.585 104.628 101.462 104.544C101.303 104.44 101.165 104.362 101.006 104.362C100.883 104.362 100.774 104.4 100.709 104.451C100.645 104.495 100.63 104.539 100.63 104.564C100.63 104.584 100.63 104.589 100.64 104.604C100.645 104.613 100.66 104.633 100.694 104.653C100.759 104.697 100.887 104.743 101.055 104.772L101.06 104.777H101.065C101.228 104.806 101.382 104.851 101.526 104.92C101.659 104.979 101.792 105.073 101.877 105.212C101.936 105.311 101.97 105.425 101.97 105.539C101.97 105.781 101.837 105.984 101.659 106.112C101.481 106.236 101.258 106.311 101.016 106.311C100.63 106.305 100.333 106.127 100.136 105.968C100.027 105.88 100.012 105.712 100.101 105.603Z" fill="#1A2E35"/>
<path d="M103.969 105.079C103.969 104.391 104.543 103.842 105.225 103.838C105.522 103.838 105.799 103.946 106.011 104.109C106.125 104.198 106.145 104.366 106.066 104.475C105.967 104.594 105.809 104.613 105.695 104.525C105.566 104.431 105.408 104.366 105.225 104.366C104.824 104.366 104.493 104.698 104.493 105.079C104.493 105.459 104.824 105.786 105.225 105.786C105.403 105.786 105.566 105.721 105.695 105.628C105.804 105.544 105.967 105.563 106.066 105.682C106.145 105.791 106.125 105.949 106.011 106.048C105.799 106.202 105.522 106.311 105.225 106.311C104.543 106.311 103.969 105.756 103.969 105.079Z" fill="#1A2E35"/>
<path d="M107.317 105.079C107.317 105.291 107.381 105.465 107.495 105.603C107.618 105.721 107.782 105.786 107.97 105.786C108.142 105.786 108.301 105.721 108.424 105.603C108.548 105.465 108.618 105.291 108.618 105.079C108.618 104.876 108.548 104.698 108.424 104.564C108.301 104.455 108.142 104.376 107.97 104.376C107.782 104.376 107.618 104.455 107.495 104.564C107.381 104.698 107.317 104.876 107.317 105.079ZM107.119 105.949C106.906 105.731 106.777 105.424 106.777 105.079C106.777 104.742 106.906 104.451 107.119 104.213C107.342 103.98 107.628 103.837 107.97 103.837C108.296 103.837 108.592 103.98 108.796 104.213C109.018 104.451 109.141 104.742 109.141 105.079C109.141 105.424 109.018 105.731 108.796 105.949C108.592 106.181 108.296 106.325 107.97 106.325C107.628 106.325 107.342 106.181 107.119 105.949Z" fill="#1A2E35"/>
<path d="M112.047 104.866V106.048C112.047 106.191 111.933 106.311 111.791 106.311C111.652 106.311 111.528 106.191 111.528 106.048V104.866C111.528 104.589 111.296 104.366 111.014 104.366C110.737 104.366 110.519 104.589 110.519 104.866V106.048C110.519 106.063 110.519 106.078 110.509 106.098C110.484 106.216 110.375 106.311 110.247 106.311C110.099 106.311 109.984 106.191 109.984 106.048V104.866V104.099C109.984 103.956 110.099 103.837 110.247 103.837C110.351 103.837 110.445 103.897 110.489 103.99C110.638 103.897 110.821 103.837 111.014 103.837C111.587 103.837 112.047 104.307 112.047 104.866Z" fill="#1A2E35"/>
<path d="M113.829 103.674V103.743H113.977C114.126 103.743 114.249 103.862 114.249 104.015C114.249 104.163 114.126 104.287 113.977 104.287H113.829V106.033C113.829 106.181 113.71 106.305 113.557 106.305C113.403 106.305 113.285 106.181 113.285 106.033V104.287H113.156C113.003 104.287 112.879 104.163 112.879 104.015C112.879 103.862 113.003 103.743 113.156 103.743H113.285V103.674C113.285 103.49 113.305 103.332 113.379 103.189C113.448 103.04 113.586 102.927 113.734 102.882C113.834 102.853 113.927 102.843 114.031 102.843C114.18 102.843 114.303 102.966 114.303 103.115C114.303 103.268 114.18 103.392 114.031 103.392C113.967 103.392 113.923 103.397 113.903 103.406C113.883 103.411 113.878 103.417 113.873 103.421C113.869 103.421 113.829 103.49 113.829 103.674Z" fill="#1A2E35"/>
<path d="M115.347 104.114V106.043C115.347 106.191 115.233 106.31 115.08 106.31C114.932 106.31 114.812 106.191 114.812 106.043V104.114C114.812 103.956 114.932 103.842 115.08 103.842C115.233 103.842 115.347 103.956 115.347 104.114ZM115.347 103.219C115.347 103.367 115.233 103.491 115.08 103.491C114.932 103.491 114.812 103.367 114.812 103.219V103.115C114.812 102.967 114.932 102.848 115.08 102.848C115.233 102.848 115.347 102.967 115.347 103.115V103.219Z" fill="#1A2E35"/>
<path d="M117.723 104.099C117.723 104.237 117.608 104.361 117.461 104.361C117.347 104.361 117.248 104.391 117.164 104.455C117.07 104.514 116.995 104.598 116.936 104.693C116.817 104.851 116.758 105.038 116.733 105.108V106.048C116.733 106.191 116.609 106.31 116.461 106.31C116.318 106.31 116.199 106.191 116.199 106.048V104.099C116.199 103.955 116.318 103.842 116.461 103.842C116.609 103.842 116.733 103.955 116.733 104.099V104.133C116.763 104.099 116.802 104.059 116.837 104.035C117.001 103.926 117.213 103.837 117.461 103.842C117.608 103.842 117.723 103.955 117.723 104.099Z" fill="#1A2E35"/>
<path d="M120.443 104.861V104.876V106.048C120.443 106.191 120.324 106.311 120.18 106.311C120.042 106.311 119.913 106.191 119.913 106.048V104.876V104.861C119.908 104.589 119.68 104.366 119.404 104.366C119.132 104.366 118.904 104.593 118.904 104.876V106.048C118.904 106.058 118.9 106.072 118.9 106.083V106.098C118.894 106.107 118.894 106.118 118.884 106.127V106.152C118.84 106.241 118.741 106.311 118.637 106.311C118.617 106.311 118.603 106.305 118.587 106.305C118.469 106.276 118.375 106.176 118.375 106.048V104.876V104.87V104.104C118.375 103.951 118.494 103.837 118.637 103.837C118.741 103.837 118.834 103.892 118.875 103.986C119.033 103.892 119.216 103.837 119.404 103.837C119.715 103.837 119.992 103.965 120.18 104.178C120.363 103.965 120.645 103.837 120.957 103.837C121.525 103.837 121.985 104.302 121.985 104.876V106.048C121.985 106.191 121.867 106.311 121.723 106.311C121.58 106.311 121.456 106.191 121.456 106.048V104.876C121.456 104.593 121.229 104.366 120.957 104.366C120.675 104.366 120.452 104.589 120.443 104.861Z" fill="#1A2E35"/>
<path d="M123.445 104.831H124.845C124.796 104.633 124.544 104.342 124.113 104.307C123.693 104.327 123.485 104.628 123.445 104.831ZM122.906 105.073C122.911 104.4 123.435 103.837 124.113 103.837C124.756 103.837 125.266 104.316 125.305 104.984V105.009C125.305 105.019 125.305 105.044 125.3 105.054C125.285 105.173 125.181 105.252 125.043 105.252H123.47C123.495 105.365 123.549 105.494 123.638 105.578C123.742 105.697 123.94 105.786 124.113 105.801C124.291 105.816 124.504 105.771 124.628 105.677C124.731 105.568 124.934 105.583 124.998 105.662C125.063 105.732 125.112 105.88 124.998 105.984C124.756 106.207 124.464 106.31 124.113 106.31C123.435 106.305 122.911 105.746 122.906 105.073Z" fill="#1A2E35"/>
<path d="M127.128 104.376C126.949 104.376 126.786 104.451 126.663 104.579C126.539 104.702 126.465 104.881 126.465 105.079C126.465 105.266 126.539 105.445 126.663 105.569C126.786 105.697 126.949 105.771 127.128 105.771C127.311 105.771 127.469 105.697 127.593 105.569C127.717 105.445 127.791 105.266 127.791 105.079C127.791 104.881 127.717 104.702 127.593 104.579C127.469 104.451 127.311 104.376 127.128 104.376ZM128.33 106.043C128.33 106.187 128.211 106.311 128.063 106.311C127.929 106.311 127.825 106.216 127.8 106.098C127.612 106.226 127.375 106.311 127.128 106.311C126.46 106.311 125.926 105.746 125.926 105.079C125.926 104.401 126.46 103.838 127.128 103.838C127.37 103.838 127.608 103.916 127.791 104.045V103.115C127.791 102.972 127.91 102.848 128.063 102.848C128.211 102.848 128.33 102.972 128.33 103.115V105.073V105.079V106.043Z" fill="#1A2E35"/>
<path d="M88.213 96.7865H87.1694C87.1048 96.7865 87.0508 96.732 87.0508 96.6628C87.0508 96.5986 87.1048 96.5441 87.1694 96.5441H89.4942C89.5584 96.5441 89.6129 96.5986 89.6129 96.6628C89.6129 96.732 89.5584 96.7865 89.4942 96.7865H88.4503V99.8875C88.4503 99.9521 88.3962 100.007 88.3321 100.007C88.2674 100.007 88.213 99.9521 88.213 99.8875V96.7865Z" fill="#1A2E35"/>
<path d="M92.152 98.5374C92.152 98.1121 91.8057 97.825 91.38 97.825C90.9598 97.825 90.6135 98.1121 90.6135 98.5374V99.8875V99.9027C90.6135 99.9124 90.6084 99.9175 90.6084 99.9226C90.6034 99.9323 90.6034 99.9373 90.5987 99.9424C90.5839 99.972 90.5594 99.9914 90.5244 100.002C90.5244 100.002 90.5193 100.007 90.5147 100.007H90.5045H90.4898C90.4551 100.007 90.4205 99.9914 90.396 99.9669C90.3859 99.9521 90.3808 99.9424 90.3762 99.9276C90.3711 99.9124 90.3711 99.9027 90.3711 99.8875V98.5374V98.4977V96.6628C90.3711 96.5986 90.4256 96.5441 90.4898 96.5441C90.5594 96.5441 90.6135 96.5986 90.6135 96.6628V97.939C90.7968 97.7211 91.0734 97.5826 91.38 97.5826C91.9391 97.5826 92.3944 97.9783 92.3944 98.5374V99.8875C92.3944 99.9521 92.3399 100.007 92.2706 100.007C92.206 100.007 92.152 99.9521 92.152 99.8875V98.5374Z" fill="#1A2E35"/>
<path d="M95.4051 98.7946C95.4051 98.2502 94.9946 97.8152 94.4951 97.8152C94.0005 97.8152 93.5846 98.2502 93.5846 98.7946C93.5846 99.3385 94.0005 99.7688 94.4951 99.7688C94.9946 99.7688 95.4051 99.3385 95.4051 98.7946ZM95.6425 97.7012V99.8875C95.6425 99.9521 95.588 100.007 95.5238 100.007C95.4596 100.007 95.4051 99.9521 95.4051 99.8875V99.5264C95.1974 99.8136 94.8658 100.007 94.4951 100.007C93.8565 100.007 93.3477 99.4572 93.3477 98.7946C93.3477 98.1316 93.8565 97.5826 94.4951 97.5826C94.8658 97.5826 95.1974 97.7705 95.4051 98.0572V97.7012C95.4051 97.6324 95.4596 97.5826 95.5238 97.5826C95.588 97.5826 95.6425 97.6324 95.6425 97.7012Z" fill="#1A2E35"/>
<path d="M98.3486 98.572C98.3486 98.1615 98.0171 97.825 97.6016 97.825C97.1911 97.825 96.86 98.1615 96.8499 98.572V99.8875V99.9078C96.8448 99.9272 96.8402 99.947 96.8254 99.9622C96.8055 99.9914 96.7709 100.007 96.7363 100.007H96.7063C96.6717 99.9969 96.6421 99.972 96.6273 99.9424C96.6223 99.9373 96.6223 99.9323 96.6223 99.9272C96.6223 99.9226 96.6172 99.9175 96.6172 99.9175V99.8875V98.572V98.5323V97.7063C96.6172 97.6421 96.667 97.5876 96.7363 97.5876C96.8 97.5876 96.8499 97.6421 96.8499 97.7063V97.939C97.0281 97.7266 97.3001 97.5876 97.6016 97.5876C98.1459 97.5876 98.586 98.0332 98.586 98.572V99.8875C98.586 99.9568 98.5315 100.007 98.4673 100.007C98.4027 100.007 98.3486 99.9568 98.3486 99.8875V98.572Z" fill="#1A2E35"/>
<path d="M99.6523 96.6628C99.6523 96.5986 99.7068 96.5441 99.771 96.5441C99.8403 96.5441 99.8947 96.5986 99.8947 96.6628V98.9926L101.329 97.5631C101.378 97.5133 101.448 97.5133 101.497 97.5631C101.547 97.6075 101.547 97.6818 101.497 97.7312L100.562 98.6662L101.502 99.809C101.547 99.863 101.542 99.9323 101.493 99.9817C101.468 100.002 101.438 100.007 101.413 100.007C101.378 100.007 101.339 99.9969 101.32 99.9618L100.389 98.8389L99.8947 99.3339V99.8875C99.8947 99.9521 99.8403 100.007 99.771 100.007C99.7068 100.007 99.6523 99.9521 99.6523 99.8875V96.6628Z" fill="#1A2E35"/>
<path d="M103.707 97.6965C103.707 97.6323 103.762 97.5824 103.821 97.5824C103.89 97.5824 103.944 97.6323 103.944 97.6965V99.0124C103.944 99.4279 104.276 99.759 104.686 99.759C105.102 99.759 105.433 99.4279 105.438 99.0124V97.6965C105.438 97.6766 105.443 97.6521 105.458 97.6373C105.458 97.6323 105.463 97.6272 105.463 97.6226C105.468 97.6226 105.468 97.6175 105.473 97.6175C105.483 97.6027 105.503 97.5926 105.517 97.5879H105.528C105.532 97.5879 105.537 97.5824 105.542 97.5824H105.558H105.572C105.592 97.5879 105.611 97.5976 105.631 97.6074C105.641 97.6175 105.656 97.6323 105.661 97.6471C105.671 97.6618 105.676 97.6817 105.676 97.6965V99.0124V99.0567V99.8135C105.676 100.447 105.161 100.951 104.523 100.951C104.345 100.951 104.177 100.907 104.024 100.837C103.969 100.803 103.944 100.734 103.974 100.679C104.004 100.62 104.068 100.605 104.128 100.62C104.246 100.679 104.384 100.714 104.523 100.714C105.028 100.714 105.433 100.313 105.438 99.8135V99.6551C105.255 99.8629 104.988 100.001 104.686 100.001C104.147 99.9968 103.707 99.5563 103.707 99.0124V97.6965Z" fill="#1A2E35"/>
<path d="M107.703 99.7693C108.197 99.7693 108.612 99.3343 108.612 98.795C108.612 98.2557 108.197 97.8157 107.703 97.8157C107.208 97.8157 106.792 98.2557 106.792 98.795C106.792 99.3343 107.208 99.7693 107.703 99.7693ZM107.703 97.583C108.341 97.583 108.85 98.137 108.85 98.795C108.85 99.4525 108.341 100.007 107.703 100.007C107.069 100.007 106.555 99.4525 106.555 98.795C106.555 98.137 107.069 97.583 107.703 97.583Z" fill="#1A2E35"/>
<path d="M109.637 97.6966C109.637 97.6273 109.69 97.5779 109.755 97.5779C109.82 97.5779 109.874 97.6273 109.874 97.6966V99.0176C109.874 99.4327 110.205 99.7642 110.616 99.7693C111.032 99.7642 111.368 99.4327 111.368 99.0176V97.6966C111.368 97.6273 111.427 97.5779 111.486 97.5779C111.555 97.5779 111.61 97.6273 111.61 97.6966V99.0176C111.61 99.5615 111.17 100.007 110.616 100.007C110.071 100.007 109.637 99.5615 109.637 99.0176V97.6966Z" fill="#1A2E35"/>
<path d="M112.719 99.7693C112.719 99.7051 112.773 99.6506 112.838 99.6506C112.907 99.6506 112.961 99.7051 112.961 99.7693V99.8879C112.961 99.9525 112.907 100.007 112.838 100.007C112.773 100.007 112.719 99.9525 112.719 99.8879V99.7693ZM112.719 96.6632C112.719 96.5986 112.773 96.5441 112.838 96.5441C112.907 96.5441 112.961 96.5986 112.961 96.6632V99.1459C112.961 99.2152 112.907 99.2697 112.838 99.2697C112.773 99.2697 112.719 99.2152 112.719 99.1459V96.6632Z" fill="#1A2E35"/>
<path d="M99.2091 84.9658L95.6406 81.3538L96.8396 80.1693L98.9241 82.2791L103.255 75.4901L104.675 76.3964L99.2091 84.9658Z" fill="#39D192"/>
<path d="M100.156 72.1663C95.7112 72.1663 92.095 75.7825 92.095 80.2277C92.095 84.6729 95.7112 88.2895 100.156 88.2895C104.602 88.2895 108.218 84.6729 108.218 80.2277C108.218 75.7825 104.602 72.1663 100.156 72.1663ZM100.156 89.5564C95.0128 89.5564 90.8281 85.3718 90.8281 80.2277C90.8281 75.084 95.0128 70.8994 100.156 70.8994C105.3 70.8994 109.485 75.084 109.485 80.2277C109.485 85.3718 105.3 89.5564 100.156 89.5564Z" fill="#39D192"/>
<path d="M88.4348 80.439H85.6641V80.0167H88.4348V80.439Z" fill="#39D192"/>
<path d="M89.131 76.4001L87.1719 74.4406L87.4704 74.1421L89.4295 76.1016L89.131 76.4001Z" fill="#39D192"/>
<path d="M87.4704 86.2214L87.1719 85.9229L89.131 83.9638L89.4295 84.2624L87.4704 86.2214Z" fill="#39D192"/>
<path d="M114.654 80.439H111.883V80.0167H114.654V80.439Z" fill="#39D192"/>
<path d="M111.181 76.4001L110.883 76.1016L112.842 74.1421L113.14 74.4406L111.181 76.4001Z" fill="#39D192"/>
<path d="M112.842 86.2214L110.883 84.2624L111.181 83.9638L113.14 85.9229L112.842 86.2214Z" fill="#39D192"/>
<path d="M112.756 131.493H87.5586V123.026H112.756V131.493Z" fill="#39D192"/>
<path d="M94.0998 128.491H94.4064C95.0593 128.486 95.5838 127.962 95.5838 127.304C95.5838 126.656 95.0593 126.126 94.4064 126.126H94.0998V128.491ZM93.5508 128.768V125.85C93.5508 125.696 93.6694 125.578 93.8227 125.578H94.4064C95.3608 125.578 96.1328 126.354 96.1328 127.304C96.1328 128.264 95.3608 129.04 94.4064 129.04H93.8227C93.6694 129.04 93.5508 128.917 93.5508 128.768Z" fill="white"/>
<path d="M99.6943 127.259C99.6943 126.923 99.5609 126.612 99.3577 126.394C99.15 126.171 98.8734 126.043 98.5765 126.043C98.2602 126.043 97.9827 126.171 97.7749 126.394C97.5672 126.612 97.4388 126.923 97.4388 127.259C97.4388 127.596 97.5672 127.907 97.7749 128.12C97.9827 128.342 98.2602 128.476 98.5765 128.476C98.8734 128.476 99.15 128.342 99.3577 128.12C99.5609 127.907 99.6943 127.596 99.6943 127.259ZM99.7585 126.008C100.065 126.335 100.258 126.77 100.258 127.259C100.258 127.749 100.065 128.189 99.7585 128.511C99.4667 128.833 99.0313 129.04 98.5765 129.04C98.1018 129.04 97.6664 128.833 97.3645 128.511C97.0579 128.189 96.875 127.749 96.875 127.259C96.875 126.77 97.0579 126.335 97.3645 126.008C97.6664 125.682 98.1018 125.479 98.5765 125.479C99.0313 125.479 99.4667 125.682 99.7585 126.008Z" fill="white"/>
<path d="M101.653 128.768C101.653 128.917 101.529 129.041 101.385 129.041C101.232 129.041 101.114 128.917 101.114 128.768V125.894V125.89C101.108 125.805 101.148 125.716 101.222 125.662C101.346 125.578 101.514 125.603 101.598 125.721L103.196 127.932V125.894C103.196 125.751 103.315 125.627 103.463 125.627C103.612 125.627 103.735 125.751 103.735 125.894V128.768C103.735 128.917 103.612 129.041 103.463 129.041C103.384 129.041 103.31 129.001 103.26 128.941C103.25 128.932 103.241 128.921 103.235 128.912L101.653 126.716V128.768Z" fill="white"/>
<path d="M104.605 128.768V125.85C104.605 125.697 104.725 125.578 104.878 125.578H104.883H104.893H106.496C106.638 125.578 106.767 125.697 106.767 125.85C106.767 126.003 106.638 126.127 106.496 126.127H105.155V127.032H106.307C106.456 127.032 106.579 127.16 106.579 127.304C106.579 127.457 106.456 127.581 106.307 127.581H105.155V128.492H106.496C106.638 128.492 106.767 128.615 106.767 128.768C106.767 128.917 106.638 129.041 106.496 129.041H104.893C104.883 129.041 104.883 129.035 104.883 129.035L104.878 129.041C104.725 129.041 104.605 128.917 104.605 128.768Z" fill="white"/>
<path d="M76.8659 111.405L76.2223 110.526C76.2033 110.496 76.2083 110.452 76.2362 110.432C76.2662 110.408 76.3101 110.413 76.3291 110.444L76.9288 111.268L77.5314 110.444C77.5504 110.413 77.5943 110.408 77.6243 110.432C77.6543 110.452 77.6602 110.496 77.6383 110.526L76.9976 111.399V112.259C76.9976 112.295 76.9697 112.325 76.9313 112.325C76.8958 112.325 76.8659 112.295 76.8659 112.259V111.405Z" fill="#C8C8C8"/>
<path d="M78.2332 112.194C78.5069 112.194 78.737 111.953 78.737 111.654C78.737 111.356 78.5069 111.112 78.2332 111.112C77.9596 111.112 77.7294 111.356 77.7294 111.654C77.7294 111.953 77.9596 112.194 78.2332 112.194ZM78.2332 110.983C78.5863 110.983 78.8684 111.29 78.8684 111.654C78.8684 112.018 78.5863 112.325 78.2332 112.325C77.8827 112.325 77.5977 112.018 77.5977 111.654C77.5977 111.29 77.8827 110.983 78.2332 110.983Z" fill="#C8C8C8"/>
<path d="M79.3047 111.046C79.3047 111.008 79.3347 110.98 79.3706 110.98C79.406 110.98 79.4364 111.008 79.4364 111.046V111.777C79.4364 112.007 79.6197 112.191 79.8469 112.194C80.0771 112.191 80.2637 112.007 80.2637 111.777V111.046C80.2637 111.008 80.2963 110.98 80.3292 110.98C80.3676 110.98 80.3976 111.008 80.3976 111.046V111.777C80.3976 112.078 80.1539 112.325 79.8469 112.325C79.5458 112.325 79.3047 112.078 79.3047 111.777V111.046Z" fill="#C8C8C8"/>
<path d="M82.2782 112.314C82.2647 112.308 82.2563 112.298 82.2512 112.284L81.747 111.084C81.7335 111.051 81.7499 111.013 81.7799 111C81.8124 110.986 81.8538 111.002 81.8648 111.035L82.3112 112.092L82.6207 111.355C82.6317 111.331 82.6587 111.315 82.6836 111.315C82.7111 111.315 82.7385 111.331 82.7495 111.355L83.0591 112.092L83.5025 111.035C83.5164 111.002 83.5574 110.986 83.5878 111C83.6203 111.013 83.6368 111.051 83.6233 111.084L83.122 112.278C83.1161 112.292 83.1081 112.303 83.0971 112.311C83.0861 112.32 83.0755 112.325 83.0641 112.325H83.0591H83.0506C83.0287 112.322 83.0042 112.306 82.9987 112.284L82.9957 112.281L82.6836 111.539L82.3745 112.278C82.3745 112.278 82.3716 112.281 82.3716 112.284C82.3631 112.308 82.3361 112.325 82.3141 112.325C82.3057 112.325 82.2977 112.322 82.2892 112.32C82.2841 112.32 82.2812 112.317 82.2782 112.314Z" fill="#C8C8C8"/>
<path d="M84.0195 111.049C84.0195 111.011 84.0499 110.983 84.0854 110.983C84.1238 110.983 84.1538 111.011 84.1538 111.049V112.259C84.1538 112.295 84.1238 112.325 84.0854 112.325C84.0499 112.325 84.0195 112.295 84.0195 112.259V111.049ZM84.0195 110.611C84.0195 110.575 84.0499 110.545 84.0854 110.545C84.1238 110.545 84.1538 110.575 84.1538 110.611V110.674C84.1538 110.712 84.1238 110.745 84.0854 110.745C84.0499 110.745 84.0195 110.712 84.0195 110.674V110.611Z" fill="#C8C8C8"/>
<path d="M84.75 110.474C84.75 110.438 84.78 110.408 84.8155 110.408C84.8539 110.408 84.8839 110.438 84.8839 110.474V112.26C84.8839 112.295 84.8539 112.325 84.8155 112.325C84.78 112.325 84.75 112.295 84.75 112.26V110.474Z" fill="#C8C8C8"/>
<path d="M85.4336 110.474C85.4336 110.438 85.4636 110.408 85.4991 110.408C85.5375 110.408 85.5675 110.438 85.5675 110.474V112.26C85.5675 112.295 85.5375 112.325 85.4991 112.325C85.4636 112.325 85.4336 112.295 85.4336 112.26V110.474Z" fill="#C8C8C8"/>
<path d="M87.0479 111.657C87.0479 111.952 87.281 112.191 87.5631 112.191C87.8478 112.191 88.0775 111.952 88.0775 111.657C88.0775 111.358 87.8478 111.117 87.5631 111.117C87.2861 111.117 87.0589 111.347 87.0479 111.635V111.657ZM86.9141 111.684V111.657V111.629V110.474C86.9141 110.438 86.944 110.408 86.9795 110.408C87.0179 110.408 87.0479 110.438 87.0479 110.474V111.246C87.1658 111.087 87.352 110.983 87.5631 110.983C87.9242 110.983 88.2118 111.284 88.2118 111.657C88.2118 112.024 87.9242 112.325 87.5631 112.325C87.352 112.325 87.1658 112.224 87.0479 112.065V112.259C87.0479 112.295 87.0179 112.325 86.9795 112.325C86.944 112.325 86.9141 112.295 86.9141 112.259V111.684Z" fill="#C8C8C8"/>
<path d="M88.7648 111.55H89.7804C89.7369 111.298 89.5232 111.115 89.2766 111.115C89.0245 111.115 88.8138 111.295 88.7648 111.55ZM88.625 111.657C88.625 111.284 88.9151 110.983 89.2766 110.983C89.6216 110.983 89.8957 111.257 89.9232 111.607V111.61V111.618C89.9232 111.654 89.8932 111.679 89.8573 111.679H88.7563C88.7703 111.971 89.0004 112.193 89.2766 112.193C89.4548 112.193 89.6187 112.1 89.7095 111.95C89.7285 111.917 89.7699 111.911 89.7969 111.928C89.8273 111.95 89.8383 111.988 89.8189 112.021C89.704 112.205 89.5042 112.325 89.2766 112.325C88.9151 112.325 88.625 112.024 88.625 111.657Z" fill="#C8C8C8"/>
<path d="M91.2109 111.052C91.2109 111.013 91.2409 110.986 91.2794 110.986C91.3123 110.986 91.3427 111.013 91.3427 111.052V111.347C91.3478 111.337 91.3533 111.325 91.3613 111.315C91.4631 111.155 91.6408 110.986 91.8985 110.986C91.9339 110.986 91.9639 111.013 91.9639 111.052C91.9639 111.087 91.9339 111.117 91.8985 111.117C91.7232 111.117 91.6024 111.216 91.5095 111.337C91.4191 111.457 91.3668 111.594 91.3478 111.649C91.3427 111.659 91.3427 111.665 91.3427 111.671V112.259C91.3427 112.298 91.3123 112.325 91.2794 112.325C91.2409 112.325 91.2109 112.298 91.2109 112.259V111.052Z" fill="#C8C8C8"/>
<path d="M92.3195 111.55H93.3355C93.2916 111.298 93.0784 111.115 92.8317 111.115C92.5796 111.115 92.3689 111.295 92.3195 111.55ZM92.1797 111.657C92.1797 111.284 92.4698 110.983 92.8317 110.983C93.1768 110.983 93.4508 111.257 93.4779 111.607V111.61V111.618C93.4779 111.654 93.4479 111.679 93.4124 111.679H92.311C92.325 111.971 92.5551 112.193 92.8317 112.193C93.0099 112.193 93.1738 112.1 93.2642 111.95C93.2836 111.917 93.3246 111.911 93.352 111.928C93.3824 111.95 93.393 111.988 93.374 112.021C93.2591 112.205 93.0589 112.325 92.8317 112.325C92.4698 112.325 92.1797 112.024 92.1797 111.657Z" fill="#C8C8C8"/>
<path d="M93.8516 111.651C93.8516 111.279 94.1586 110.983 94.542 110.983C94.7008 110.983 94.8512 111.038 94.969 111.131C94.9964 111.15 95.0019 111.191 94.9774 111.221C94.9555 111.246 94.917 111.255 94.8871 111.232C94.7912 111.155 94.6704 111.112 94.542 111.112C94.2299 111.112 93.9833 111.356 93.9833 111.651C93.9833 111.953 94.2299 112.193 94.542 112.193C94.6704 112.193 94.7912 112.15 94.8871 112.076C94.917 112.054 94.9555 112.063 94.9774 112.087C95.0019 112.117 94.9964 112.158 94.9635 112.183C94.8512 112.27 94.7008 112.325 94.542 112.325C94.1586 112.325 93.8516 112.03 93.8516 111.651Z" fill="#C8C8C8"/>
<path d="M95.5109 111.55H96.5269C96.483 111.298 96.2698 111.115 96.0231 111.115C95.771 111.115 95.5603 111.295 95.5109 111.55ZM95.3711 111.657C95.3711 111.284 95.6612 110.983 96.0231 110.983C96.3682 110.983 96.6422 111.257 96.6693 111.607V111.61V111.618C96.6693 111.654 96.6393 111.679 96.6038 111.679H95.5024C95.5164 111.971 95.7465 112.193 96.0231 112.193C96.2013 112.193 96.3652 112.1 96.4556 111.95C96.475 111.917 96.516 111.911 96.5434 111.928C96.5738 111.95 96.5844 111.988 96.5654 112.021C96.4505 112.205 96.2503 112.325 96.0231 112.325C95.6612 112.325 95.3711 112.024 95.3711 111.657Z" fill="#C8C8C8"/>
<path d="M97.1367 111.048C97.1367 111.01 97.1667 110.983 97.2022 110.983C97.2406 110.983 97.2706 111.01 97.2706 111.048V112.259C97.2706 112.295 97.2406 112.325 97.2022 112.325C97.1667 112.325 97.1367 112.295 97.1367 112.259V111.048ZM97.1367 110.611C97.1367 110.575 97.1667 110.545 97.2022 110.545C97.2406 110.545 97.2706 110.575 97.2706 110.611V110.673C97.2706 110.712 97.2406 110.744 97.2022 110.744C97.1667 110.744 97.1367 110.712 97.1367 110.673V110.611Z" fill="#C8C8C8"/>
<path d="M98.3391 112.314C98.3307 112.306 98.3227 112.298 98.3172 112.284L97.8134 111.085C97.7999 111.052 97.8163 111.013 97.8463 111C97.8788 110.986 97.9202 111.003 97.9308 111.035L98.3776 112.093L98.8235 111.035C98.8349 111.003 98.8759 110.986 98.9088 111C98.9418 111.013 98.9553 111.052 98.9418 111.085L98.4405 112.273C98.4375 112.284 98.4325 112.295 98.424 112.306C98.413 112.32 98.394 112.325 98.3805 112.325C98.3721 112.325 98.3662 112.325 98.3581 112.322C98.3556 112.322 98.3556 112.322 98.3527 112.32C98.3476 112.32 98.3446 112.317 98.3391 112.314Z" fill="#C8C8C8"/>
<path d="M99.5039 111.049C99.5039 111.011 99.5343 110.983 99.5698 110.983C99.6082 110.983 99.6382 111.011 99.6382 111.049V112.259C99.6382 112.295 99.6082 112.325 99.5698 112.325C99.5343 112.325 99.5039 112.295 99.5039 112.259V111.049ZM99.5039 110.611C99.5039 110.575 99.5343 110.545 99.5698 110.545C99.6082 110.545 99.6382 110.575 99.6382 110.611V110.674C99.6382 110.712 99.6082 110.745 99.5698 110.745C99.5343 110.745 99.5039 110.712 99.5039 110.674V110.611Z" fill="#C8C8C8"/>
<path d="M101.228 111.531C101.228 111.303 101.044 111.117 100.815 111.117C100.587 111.117 100.404 111.303 100.398 111.531V112.259V112.27C100.395 112.281 100.393 112.292 100.385 112.3C100.374 112.317 100.355 112.325 100.335 112.325H100.319C100.3 112.319 100.283 112.306 100.275 112.289C100.272 112.287 100.272 112.284 100.272 112.281C100.272 112.278 100.27 112.276 100.27 112.276V112.259V111.531V111.509V111.051C100.27 111.016 100.297 110.986 100.335 110.986C100.371 110.986 100.398 111.016 100.398 111.051V111.18C100.497 111.063 100.647 110.986 100.815 110.986C101.116 110.986 101.36 111.232 101.36 111.531V112.259C101.36 112.298 101.33 112.325 101.294 112.325C101.258 112.325 101.228 112.298 101.228 112.259V111.531Z" fill="#C8C8C8"/>
<path d="M102.986 111.649C102.986 111.35 102.762 111.114 102.485 111.114C102.211 111.114 101.987 111.35 101.987 111.649C101.987 111.95 102.211 112.188 102.485 112.188C102.762 112.188 102.986 111.95 102.986 111.649ZM103.118 112.218C103.118 112.566 102.836 112.848 102.485 112.848C102.387 112.848 102.293 112.823 102.206 112.785C102.179 112.766 102.162 112.728 102.179 112.697C102.195 112.662 102.233 112.648 102.266 112.667C102.335 112.7 102.403 112.717 102.485 112.717C102.765 112.717 102.986 112.495 102.986 112.218V112.054C102.874 112.215 102.691 112.317 102.485 112.317C102.135 112.317 101.855 112.018 101.855 111.649C101.855 111.287 102.135 110.983 102.485 110.983C102.691 110.983 102.874 111.087 102.986 111.246V111.048C102.986 111.013 103.016 110.983 103.055 110.983C103.088 110.983 103.118 111.013 103.118 111.048V112.218Z" fill="#C8C8C8"/>
<path d="M105.573 111.654C105.573 111.353 105.346 111.112 105.069 111.112C104.795 111.112 104.565 111.353 104.565 111.654C104.565 111.955 104.795 112.193 105.069 112.193C105.346 112.193 105.573 111.955 105.573 111.654ZM105.705 111.048V112.259C105.705 112.295 105.674 112.325 105.638 112.325C105.603 112.325 105.573 112.295 105.573 112.259V112.059C105.458 112.218 105.274 112.325 105.069 112.325C104.716 112.325 104.434 112.021 104.434 111.654C104.434 111.287 104.716 110.983 105.069 110.983C105.274 110.983 105.458 111.087 105.573 111.246V111.048C105.573 111.011 105.603 110.983 105.638 110.983C105.674 110.983 105.705 111.011 105.705 111.048Z" fill="#C8C8C8"/>
<path d="M106.992 111.651C106.992 111.279 107.299 110.983 107.682 110.983C107.841 110.983 107.992 111.038 108.11 111.131C108.137 111.15 108.143 111.191 108.118 111.221C108.096 111.246 108.057 111.255 108.027 111.232C107.932 111.155 107.811 111.112 107.682 111.112C107.37 111.112 107.124 111.356 107.124 111.651C107.124 111.953 107.37 112.193 107.682 112.193C107.811 112.193 107.932 112.15 108.027 112.076C108.057 112.054 108.096 112.063 108.118 112.087C108.143 112.117 108.137 112.158 108.104 112.183C107.992 112.27 107.841 112.325 107.682 112.325C107.299 112.325 106.992 112.03 106.992 111.651Z" fill="#C8C8C8"/>
<path d="M109.186 112.194C109.46 112.194 109.69 111.953 109.69 111.654C109.69 111.356 109.46 111.112 109.186 111.112C108.912 111.112 108.682 111.356 108.682 111.654C108.682 111.953 108.912 112.194 109.186 112.194ZM109.186 110.983C109.539 110.983 109.821 111.29 109.821 111.654C109.821 112.018 109.539 112.325 109.186 112.325C108.835 112.325 108.551 112.018 108.551 111.654C108.551 111.29 108.835 110.983 109.186 110.983Z" fill="#C8C8C8"/>
<path d="M111.287 111.531C111.287 111.303 111.103 111.117 110.873 111.117C110.646 111.117 110.462 111.303 110.457 111.531V112.259V112.27C110.454 112.281 110.451 112.292 110.443 112.3C110.432 112.317 110.413 112.325 110.394 112.325H110.378C110.359 112.319 110.342 112.306 110.334 112.289C110.331 112.287 110.331 112.284 110.331 112.281C110.331 112.278 110.328 112.276 110.328 112.276V112.259V111.531V111.509V111.051C110.328 111.016 110.356 110.986 110.394 110.986C110.429 110.986 110.457 111.016 110.457 111.051V111.18C110.556 111.063 110.706 110.986 110.873 110.986C111.174 110.986 111.419 111.232 111.419 111.531V112.259C111.419 112.298 111.388 112.325 111.352 112.325C111.317 112.325 111.287 112.298 111.287 112.259V111.531Z" fill="#C8C8C8"/>
<path d="M112.598 110.479C112.598 110.515 112.568 110.545 112.532 110.545C112.439 110.545 112.39 110.564 112.362 110.597C112.332 110.63 112.308 110.696 112.308 110.819V110.962H112.496C112.535 110.962 112.565 110.992 112.565 111.027C112.565 111.065 112.535 111.095 112.496 111.095H112.308V112.262C112.308 112.298 112.277 112.328 112.242 112.328C112.203 112.328 112.173 112.298 112.173 112.262V111.095H111.995C111.96 111.095 111.93 111.065 111.93 111.027C111.93 110.992 111.96 110.962 111.995 110.962H112.173V110.819C112.176 110.682 112.198 110.581 112.261 110.507C112.327 110.435 112.425 110.411 112.532 110.411C112.568 110.411 112.598 110.441 112.598 110.479Z" fill="#C8C8C8"/>
<path d="M113 111.049C113 111.011 113.03 110.983 113.066 110.983C113.104 110.983 113.134 111.011 113.134 111.049V112.259C113.134 112.295 113.104 112.325 113.066 112.325C113.03 112.325 113 112.295 113 112.259V111.049ZM113 110.611C113 110.575 113.03 110.545 113.066 110.545C113.104 110.545 113.134 110.575 113.134 110.611V110.674C113.134 110.712 113.104 110.745 113.066 110.745C113.03 110.745 113 110.712 113 110.674V110.611Z" fill="#C8C8C8"/>
<path d="M113.766 111.052C113.766 111.013 113.796 110.986 113.834 110.986C113.867 110.986 113.897 111.013 113.897 111.052V111.347C113.902 111.337 113.908 111.325 113.916 111.315C114.018 111.155 114.196 110.986 114.453 110.986C114.489 110.986 114.519 111.013 114.519 111.052C114.519 111.087 114.489 111.117 114.453 111.117C114.277 111.117 114.157 111.216 114.064 111.337C113.973 111.457 113.921 111.594 113.902 111.649C113.897 111.659 113.897 111.665 113.897 111.671V112.259C113.897 112.298 113.867 112.325 113.834 112.325C113.796 112.325 113.766 112.298 113.766 112.259V111.052Z" fill="#C8C8C8"/>
<path d="M116.885 111.531C116.879 111.303 116.698 111.115 116.468 111.115C116.241 111.115 116.055 111.303 116.055 111.531V112.262V112.27C116.055 112.273 116.052 112.276 116.052 112.276V112.281C116.047 112.298 116.032 112.308 116.019 112.317C116.008 112.322 115.997 112.325 115.986 112.325H115.978H115.972C115.97 112.325 115.967 112.322 115.967 112.322C115.961 112.322 115.956 112.317 115.951 112.314C115.948 112.314 115.945 112.311 115.942 112.308L115.934 112.3C115.932 112.298 115.932 112.295 115.929 112.295C115.929 112.292 115.929 112.292 115.926 112.289C115.926 112.289 115.926 112.287 115.923 112.284C115.923 112.281 115.923 112.278 115.921 112.276V112.268V112.262V111.531C115.921 111.303 115.737 111.115 115.507 111.115C115.277 111.115 115.094 111.303 115.094 111.531V112.262C115.094 112.284 115.082 112.303 115.064 112.314C115.061 112.317 115.052 112.322 115.047 112.322C115.044 112.325 115.042 112.325 115.036 112.325H115.028H115.019C114.995 112.322 114.973 112.3 114.965 112.276V112.262V111.531V111.509V111.048C114.965 111.013 114.995 110.986 115.028 110.986C115.066 110.986 115.094 111.013 115.094 111.048V111.178C115.192 111.06 115.34 110.986 115.507 110.986C115.715 110.986 115.893 111.101 115.986 111.27C116.082 111.101 116.263 110.986 116.468 110.986C116.77 110.986 117.013 111.229 117.013 111.531V112.262C117.013 112.295 116.986 112.325 116.947 112.325C116.912 112.325 116.885 112.295 116.885 112.262V111.531Z" fill="#C8C8C8"/>
<path d="M118.569 111.654C118.569 111.353 118.341 111.112 118.065 111.112C117.791 111.112 117.561 111.353 117.561 111.654C117.561 111.955 117.791 112.193 118.065 112.193C118.341 112.193 118.569 111.955 118.569 111.654ZM118.7 111.048V112.259C118.7 112.295 118.67 112.325 118.634 112.325C118.599 112.325 118.569 112.295 118.569 112.259V112.059C118.454 112.218 118.27 112.325 118.065 112.325C117.712 112.325 117.43 112.021 117.43 111.654C117.43 111.287 117.712 110.983 118.065 110.983C118.27 110.983 118.454 111.087 118.569 111.246V111.048C118.569 111.011 118.599 110.983 118.634 110.983C118.67 110.983 118.7 111.011 118.7 111.048Z" fill="#C8C8C8"/>
<path d="M119.737 111.049C119.737 111.082 119.704 111.115 119.671 111.115H119.498V112.093C119.498 112.158 119.564 112.191 119.597 112.191C119.63 112.191 119.665 112.227 119.665 112.259C119.665 112.292 119.63 112.325 119.597 112.325C119.463 112.325 119.361 112.227 119.361 112.093V111.115H119.194C119.129 111.115 119.129 111.082 119.129 111.049C119.129 111.016 119.129 110.983 119.194 110.983H119.361V110.485C119.361 110.452 119.394 110.419 119.427 110.419C119.463 110.419 119.498 110.452 119.498 110.485V110.983H119.671C119.704 110.983 119.737 111.016 119.737 111.049Z" fill="#C8C8C8"/>
<path d="M120.363 111.049C120.363 111.011 120.393 110.983 120.429 110.983C120.468 110.983 120.498 111.011 120.498 111.049V112.259C120.498 112.295 120.468 112.325 120.429 112.325C120.393 112.325 120.363 112.295 120.363 112.259V111.049ZM120.363 110.611C120.363 110.575 120.393 110.545 120.429 110.545C120.468 110.545 120.498 110.575 120.498 110.611V110.674C120.498 110.712 120.468 110.745 120.429 110.745C120.393 110.745 120.363 110.712 120.363 110.674V110.611Z" fill="#C8C8C8"/>
<path d="M121.702 112.194C121.976 112.194 122.205 111.953 122.205 111.654C122.205 111.356 121.976 111.112 121.702 111.112C121.428 111.112 121.198 111.356 121.198 111.654C121.198 111.953 121.428 112.194 121.702 112.194ZM121.702 110.983C122.055 110.983 122.337 111.29 122.337 111.654C122.337 112.018 122.055 112.325 121.702 112.325C121.351 112.325 121.066 112.018 121.066 111.654C121.066 111.29 121.351 110.983 121.702 110.983Z" fill="#C8C8C8"/>
<path d="M123.802 111.531C123.802 111.303 123.619 111.117 123.389 111.117C123.161 111.117 122.978 111.303 122.973 111.531V112.259V112.27C122.97 112.281 122.967 112.292 122.959 112.3C122.948 112.317 122.929 112.325 122.91 112.325H122.893C122.874 112.319 122.858 112.306 122.849 112.289C122.846 112.287 122.846 112.284 122.846 112.281C122.846 112.278 122.844 112.276 122.844 112.276V112.259V111.531V111.509V111.051C122.844 111.016 122.871 110.986 122.91 110.986C122.945 110.986 122.973 111.016 122.973 111.051V111.18C123.071 111.063 123.222 110.986 123.389 110.986C123.69 110.986 123.934 111.232 123.934 111.531V112.259C123.934 112.298 123.903 112.325 123.868 112.325C123.832 112.325 123.802 112.298 123.802 112.259V111.531Z" fill="#C8C8C8"/>
<path d="M84.3234 114.836H85.3394C85.2955 114.584 85.0823 114.401 84.8356 114.401C84.5835 114.401 84.3728 114.581 84.3234 114.836ZM84.1836 114.943C84.1836 114.571 84.4737 114.269 84.8356 114.269C85.1807 114.269 85.4547 114.543 85.4818 114.894V114.897V114.905C85.4818 114.94 85.4518 114.965 85.4163 114.965H84.3149C84.3289 115.258 84.559 115.479 84.8356 115.479C85.0138 115.479 85.1777 115.386 85.2681 115.236C85.2875 115.203 85.3285 115.197 85.3559 115.214C85.3863 115.236 85.3969 115.274 85.3779 115.307C85.263 115.491 85.0628 115.611 84.8356 115.611C84.4737 115.611 84.1836 115.31 84.1836 114.943Z" fill="#C8C8C8"/>
<path d="M87.869 114.817C87.8635 114.59 87.6828 114.401 87.453 114.401C87.2254 114.401 87.0392 114.59 87.0392 114.817V115.548V115.556C87.0392 115.559 87.0362 115.562 87.0362 115.562V115.567C87.0312 115.584 87.0172 115.595 87.0033 115.603C86.9927 115.608 86.9813 115.611 86.9708 115.611H86.9628H86.9573C86.9543 115.611 86.9513 115.608 86.9513 115.608C86.9459 115.608 86.9408 115.603 86.9349 115.6C86.9323 115.6 86.9294 115.598 86.9273 115.595L86.9188 115.586C86.9159 115.584 86.9159 115.581 86.9129 115.581C86.9129 115.578 86.9129 115.578 86.9104 115.576C86.9104 115.576 86.9104 115.573 86.9079 115.57C86.9079 115.567 86.9079 115.565 86.9049 115.562V115.554V115.548V114.817C86.9049 114.59 86.7212 114.401 86.4915 114.401C86.2613 114.401 86.078 114.59 86.078 114.817V115.548C86.078 115.57 86.0666 115.589 86.048 115.6C86.0451 115.603 86.0366 115.608 86.0311 115.608C86.0286 115.611 86.0261 115.611 86.0202 115.611H86.0126H86.0041C85.9792 115.608 85.9577 115.586 85.9492 115.562V115.548V114.817V114.795V114.334C85.9492 114.299 85.9792 114.272 86.0126 114.272C86.0506 114.272 86.078 114.299 86.078 114.334V114.464C86.1764 114.346 86.3246 114.272 86.4915 114.272C86.6992 114.272 86.8774 114.387 86.9708 114.557C87.0666 114.387 87.247 114.272 87.453 114.272C87.7542 114.272 87.9978 114.516 87.9978 114.817V115.548C87.9978 115.581 87.9704 115.611 87.9319 115.611C87.896 115.611 87.869 115.581 87.869 115.548V114.817Z" fill="#C8C8C8"/>
<path d="M89.5417 114.94C89.5417 114.639 89.3145 114.398 89.0379 114.398C88.7638 114.398 88.5337 114.639 88.5337 114.94C88.5337 115.242 88.7638 115.479 89.0379 115.479C89.3145 115.479 89.5417 115.242 89.5417 114.94ZM89.6735 114.334V115.546C89.6735 115.581 89.6431 115.611 89.6072 115.611C89.5717 115.611 89.5417 115.581 89.5417 115.546V115.345C89.4269 115.504 89.2432 115.611 89.0379 115.611C88.6844 115.611 88.4023 115.307 88.4023 114.94C88.4023 114.573 88.6844 114.269 89.0379 114.269C89.2432 114.269 89.4269 114.373 89.5417 114.532V114.334C89.5417 114.297 89.5717 114.269 89.6072 114.269C89.6431 114.269 89.6735 114.297 89.6735 114.334Z" fill="#C8C8C8"/>
<path d="M90.2461 114.335C90.2461 114.297 90.2761 114.269 90.3116 114.269C90.35 114.269 90.38 114.297 90.38 114.335V115.545C90.38 115.581 90.35 115.611 90.3116 115.611C90.2761 115.611 90.2461 115.581 90.2461 115.545V114.335ZM90.2461 113.897C90.2461 113.861 90.2761 113.831 90.3116 113.831C90.35 113.831 90.38 113.861 90.38 113.897V113.96C90.38 113.998 90.35 114.031 90.3116 114.031C90.2761 114.031 90.2461 113.998 90.2461 113.96V113.897Z" fill="#C8C8C8"/>
<path d="M90.9727 113.76C90.9727 113.724 91.0026 113.694 91.0385 113.694C91.077 113.694 91.1069 113.724 91.1069 113.76V115.546C91.1069 115.581 91.077 115.611 91.0385 115.611C91.0026 115.611 90.9727 115.581 90.9727 115.546V113.76Z" fill="#C8C8C8"/>
<path d="M92.911 115.6C92.8975 115.594 92.8891 115.584 92.884 115.57L92.3798 114.371C92.3663 114.338 92.3827 114.299 92.4127 114.286C92.4452 114.272 92.4866 114.289 92.4976 114.321L92.944 115.379L93.2535 114.641C93.2645 114.617 93.2915 114.601 93.3165 114.601C93.3439 114.601 93.3713 114.617 93.3823 114.641L93.6919 115.379L94.1353 114.321C94.1492 114.289 94.1902 114.272 94.2206 114.286C94.2531 114.299 94.2696 114.338 94.2561 114.371L93.7548 115.564C93.7489 115.578 93.7409 115.589 93.7299 115.597C93.7189 115.606 93.7083 115.611 93.6969 115.611H93.6919H93.6834C93.6615 115.608 93.637 115.592 93.6315 115.57L93.6285 115.567L93.3165 114.825L93.0073 115.564C93.0073 115.564 93.0044 115.567 93.0044 115.57C92.9959 115.594 92.9689 115.611 92.9469 115.611C92.9385 115.611 92.9305 115.608 92.922 115.606C92.9169 115.606 92.914 115.603 92.911 115.6Z" fill="#C8C8C8"/>
<path d="M94.6484 114.335C94.6484 114.297 94.6788 114.269 94.7143 114.269C94.7527 114.269 94.7827 114.297 94.7827 114.335V115.545C94.7827 115.581 94.7527 115.611 94.7143 115.611C94.6788 115.611 94.6484 115.581 94.6484 115.545V114.335ZM94.6484 113.897C94.6484 113.861 94.6788 113.831 94.7143 113.831C94.7527 113.831 94.7827 113.861 94.7827 113.897V113.96C94.7827 113.998 94.7527 114.031 94.7143 114.031C94.6788 114.031 94.6484 113.998 94.6484 113.96V113.897Z" fill="#C8C8C8"/>
<path d="M95.885 114.335C95.885 114.368 95.8521 114.401 95.8192 114.401H95.6469V115.379C95.6469 115.444 95.7127 115.477 95.7453 115.477C95.7782 115.477 95.8137 115.512 95.8137 115.545C95.8137 115.578 95.7782 115.611 95.7453 115.611C95.6114 115.611 95.5096 115.512 95.5096 115.379V114.401H95.3428C95.2773 114.401 95.2773 114.368 95.2773 114.335C95.2773 114.302 95.2773 114.269 95.3428 114.269H95.5096V113.77C95.5096 113.738 95.5426 113.705 95.5755 113.705C95.6114 113.705 95.6469 113.738 95.6469 113.77V114.269H95.8192C95.8521 114.269 95.885 114.302 95.885 114.335Z" fill="#C8C8C8"/>
<path d="M97.4466 114.798C97.4466 114.562 97.2553 114.403 97.0196 114.403C96.787 114.403 96.5948 114.562 96.5948 114.798V115.546V115.554C96.5948 115.559 96.5927 115.562 96.5927 115.564C96.5897 115.57 96.5897 115.573 96.5868 115.576C96.5783 115.592 96.5648 115.603 96.5458 115.608C96.5458 115.608 96.5429 115.611 96.5403 115.611H96.5348H96.5264C96.5074 115.611 96.488 115.603 96.4745 115.589C96.4694 115.581 96.4664 115.576 96.4635 115.567C96.4609 115.559 96.4609 115.554 96.4609 115.546V114.798V114.776V113.76C96.4609 113.724 96.4909 113.694 96.5264 113.694C96.5648 113.694 96.5948 113.724 96.5948 113.76V114.466C96.6966 114.346 96.8499 114.269 97.0196 114.269C97.3292 114.269 97.5809 114.488 97.5809 114.798V115.546C97.5809 115.581 97.5509 115.611 97.5125 115.611C97.4766 115.611 97.4466 115.581 97.4466 115.546V114.798Z" fill="#C8C8C8"/>
<path d="M99.534 115.479C99.8077 115.479 100.038 115.239 100.038 114.94C100.038 114.641 99.8077 114.397 99.534 114.397C99.2604 114.397 99.0302 114.641 99.0302 114.94C99.0302 115.239 99.2604 115.479 99.534 115.479ZM99.534 114.269C99.8871 114.269 100.169 114.576 100.169 114.94C100.169 115.304 99.8871 115.611 99.534 115.611C99.1835 115.611 98.8984 115.304 98.8984 114.94C98.8984 114.576 99.1835 114.269 99.534 114.269Z" fill="#C8C8C8"/>
<path d="M100.613 114.337C100.613 114.299 100.643 114.272 100.682 114.272C100.715 114.272 100.745 114.299 100.745 114.337V114.633C100.75 114.622 100.756 114.611 100.764 114.601C100.865 114.441 101.044 114.272 101.301 114.272C101.336 114.272 101.366 114.299 101.366 114.337C101.366 114.373 101.336 114.403 101.301 114.403C101.126 114.403 101.005 114.502 100.912 114.622C100.821 114.743 100.77 114.88 100.75 114.935C100.745 114.945 100.745 114.951 100.745 114.957V115.545C100.745 115.584 100.715 115.611 100.682 115.611C100.643 115.611 100.613 115.584 100.613 115.545V114.337Z" fill="#C8C8C8"/>
<path d="M102.82 114.965V114.921C102.81 114.633 102.582 114.403 102.305 114.403C102.023 114.403 101.791 114.644 101.791 114.943C101.791 115.239 102.023 115.477 102.305 115.477C102.582 115.477 102.81 115.25 102.82 114.965ZM102.82 115.351C102.703 115.51 102.516 115.611 102.305 115.611C101.944 115.611 101.656 115.31 101.656 114.943C101.656 114.571 101.944 114.269 102.305 114.269C102.516 114.269 102.703 114.373 102.82 114.533V113.76C102.82 113.724 102.85 113.694 102.889 113.694C102.924 113.694 102.954 113.724 102.954 113.76V114.916V114.943V115.546C102.954 115.581 102.924 115.611 102.889 115.611C102.85 115.611 102.82 115.581 102.82 115.546V115.351Z" fill="#C8C8C8"/>
<path d="M103.562 114.836H104.577C104.534 114.584 104.32 114.401 104.073 114.401C103.821 114.401 103.611 114.581 103.562 114.836ZM103.422 114.943C103.422 114.571 103.712 114.269 104.073 114.269C104.419 114.269 104.693 114.543 104.72 114.894V114.897V114.905C104.72 114.94 104.69 114.965 104.654 114.965H103.553C103.567 115.258 103.797 115.479 104.073 115.479C104.252 115.479 104.416 115.386 104.506 115.236C104.525 115.203 104.567 115.197 104.594 115.214C104.624 115.236 104.635 115.274 104.616 115.307C104.501 115.491 104.301 115.611 104.073 115.611C103.712 115.611 103.422 115.31 103.422 114.943Z" fill="#C8C8C8"/>
<path d="M105.125 114.337C105.125 114.299 105.155 114.272 105.193 114.272C105.226 114.272 105.257 114.299 105.257 114.337V114.633C105.262 114.622 105.267 114.611 105.275 114.601C105.377 114.441 105.555 114.272 105.813 114.272C105.848 114.272 105.878 114.299 105.878 114.337C105.878 114.373 105.848 114.403 105.813 114.403C105.637 114.403 105.516 114.502 105.424 114.622C105.333 114.743 105.281 114.88 105.262 114.935C105.257 114.945 105.257 114.951 105.257 114.957V115.545C105.257 115.584 105.226 115.611 105.193 115.611C105.155 115.611 105.125 115.584 105.125 115.545V114.337Z" fill="#C8C8C8"/>
<path d="M108.222 114.965V114.921C108.212 114.633 107.985 114.403 107.708 114.403C107.426 114.403 107.193 114.644 107.193 114.943C107.193 115.239 107.426 115.477 107.708 115.477C107.985 115.477 108.212 115.25 108.222 114.965ZM108.222 115.351C108.105 115.51 107.918 115.611 107.708 115.611C107.346 115.611 107.059 115.31 107.059 114.943C107.059 114.571 107.346 114.269 107.708 114.269C107.918 114.269 108.105 114.373 108.222 114.533V113.76C108.222 113.724 108.252 113.694 108.291 113.694C108.327 113.694 108.357 113.724 108.357 113.76V114.916V114.943V115.546C108.357 115.581 108.327 115.611 108.291 115.611C108.252 115.611 108.222 115.581 108.222 115.546V115.351Z" fill="#C8C8C8"/>
<path d="M108.96 114.836H109.976C109.932 114.584 109.719 114.401 109.472 114.401C109.22 114.401 109.009 114.581 108.96 114.836ZM108.82 114.943C108.82 114.571 109.11 114.269 109.472 114.269C109.817 114.269 110.091 114.543 110.118 114.894V114.897V114.905C110.118 114.94 110.088 114.965 110.053 114.965H108.952C108.966 115.258 109.196 115.479 109.472 115.479C109.65 115.479 109.814 115.386 109.905 115.236C109.924 115.203 109.965 115.197 109.992 115.214C110.023 115.236 110.034 115.274 110.014 115.307C109.9 115.491 109.7 115.611 109.472 115.611C109.11 115.611 108.82 115.31 108.82 114.943Z" fill="#C8C8C8"/>
<path d="M110.944 114.335C110.944 114.368 110.911 114.401 110.878 114.401H110.705V115.379C110.705 115.444 110.771 115.477 110.804 115.477C110.837 115.477 110.872 115.512 110.872 115.545C110.872 115.578 110.837 115.611 110.804 115.611C110.67 115.611 110.568 115.512 110.568 115.379V114.401H110.401C110.336 114.401 110.336 114.368 110.336 114.335C110.336 114.302 110.336 114.269 110.401 114.269H110.568V113.77C110.568 113.738 110.601 113.705 110.635 113.705C110.67 113.705 110.705 113.738 110.705 113.77V114.269H110.878C110.911 114.269 110.944 114.302 110.944 114.335Z" fill="#C8C8C8"/>
<path d="M112.479 114.94C112.479 114.639 112.252 114.398 111.975 114.398C111.701 114.398 111.471 114.639 111.471 114.94C111.471 115.242 111.701 115.479 111.975 115.479C112.252 115.479 112.479 115.242 112.479 114.94ZM112.611 114.334V115.546C112.611 115.581 112.58 115.611 112.544 115.611C112.509 115.611 112.479 115.581 112.479 115.546V115.345C112.364 115.504 112.18 115.611 111.975 115.611C111.622 115.611 111.34 115.307 111.34 114.94C111.34 114.573 111.622 114.269 111.975 114.269C112.18 114.269 112.364 114.373 112.479 114.532V114.334C112.479 114.297 112.509 114.269 112.544 114.269C112.58 114.269 112.611 114.297 112.611 114.334Z" fill="#C8C8C8"/>
<path d="M113.188 114.335C113.188 114.297 113.217 114.269 113.253 114.269C113.292 114.269 113.322 114.297 113.322 114.335V115.545C113.322 115.581 113.292 115.611 113.253 115.611C113.217 115.611 113.188 115.581 113.188 115.545V114.335ZM113.188 113.897C113.188 113.861 113.217 113.831 113.253 113.831C113.292 113.831 113.322 113.861 113.322 113.897V113.96C113.322 113.998 113.292 114.031 113.253 114.031C113.217 114.031 113.188 113.998 113.188 113.96V113.897Z" fill="#C8C8C8"/>
<path d="M113.914 113.76C113.914 113.724 113.944 113.694 113.98 113.694C114.018 113.694 114.048 113.724 114.048 113.76V115.546C114.048 115.581 114.018 115.611 113.98 115.611C113.944 115.611 113.914 115.581 113.914 115.546V113.76Z" fill="#C8C8C8"/>
<path d="M114.483 115.332C114.505 115.304 114.546 115.299 114.577 115.323C114.669 115.392 114.817 115.48 114.987 115.48C115.091 115.48 115.182 115.447 115.242 115.397C115.308 115.354 115.343 115.294 115.343 115.234C115.34 115.17 115.316 115.127 115.248 115.069C115.19 115.025 115.094 114.992 114.963 114.97L114.957 114.967C114.836 114.946 114.73 114.919 114.653 114.864C114.568 114.814 114.508 114.726 114.508 114.622C114.508 114.516 114.568 114.423 114.653 114.359C114.733 114.304 114.845 114.269 114.982 114.269C115.154 114.269 115.278 114.349 115.382 114.414C115.412 114.436 115.42 114.478 115.401 114.508C115.382 114.538 115.34 114.546 115.31 114.527C115.212 114.461 115.113 114.392 114.982 114.392C114.872 114.392 114.785 114.423 114.727 114.469C114.672 114.513 114.642 114.568 114.642 114.622C114.642 114.677 114.667 114.716 114.719 114.757C114.779 114.798 114.869 114.831 114.993 114.85H114.998C115.127 114.869 115.231 114.907 115.324 114.959C115.412 115.017 115.475 115.121 115.475 115.234C115.475 115.345 115.412 115.436 115.321 115.504C115.228 115.573 115.119 115.611 114.987 115.611C114.771 115.608 114.601 115.507 114.492 115.419C114.464 115.394 114.461 115.359 114.483 115.332Z" fill="#C8C8C8"/>
<path d="M116.031 115.337C116.108 115.337 116.168 115.398 116.168 115.474C116.168 115.551 116.108 115.611 116.031 115.611C115.954 115.611 115.895 115.551 115.895 115.474C115.895 115.398 115.954 115.337 116.031 115.337Z" fill="#C8C8C8"/>
</g>
</svg>
