<svg width="200" height="200" viewBox="0 0 200 200" fill="none" xmlns="http://www.w3.org/2000/svg">
<path d="M182.893 51.171C164.755 33.7639 138.915 38.5416 124.709 51.7045C114.334 61.3175 97.9933 75.3004 85.3422 74.6911C72.8162 74.0877 58.4757 65.3846 42.8969 72.0738C27.5196 78.6769 23.3169 100.505 30.2675 117.196C37.2479 133.958 62.7002 147.561 93.5189 160.257C106.491 165.601 118.47 167.36 129.266 167.244C129.266 167.244 157.144 166.955 167.622 160.249C175.828 154.998 179.321 151.549 188.19 138.16C194.903 128.028 199.38 113.778 199.885 99.9788C200.503 83.1157 196.445 64.1777 182.893 51.171Z" fill="#39D192"/>
<g opacity="0.800003">
<path d="M182.897 51.1711C164.759 33.764 138.919 38.5417 124.713 51.7046C114.338 61.3177 97.9972 75.3005 85.3461 74.6912C72.8201 74.0878 58.4796 65.3847 42.9009 72.074C27.5235 78.677 23.3208 100.505 30.2714 117.196C37.2518 133.958 62.7041 147.562 93.5228 160.257C106.495 165.601 118.473 167.36 129.269 167.244C129.269 167.244 157.148 166.956 167.625 160.25C175.832 154.998 179.325 151.549 188.194 138.16C194.907 128.028 199.384 113.778 199.889 99.9789C200.507 83.1159 196.449 64.1778 182.897 51.1711Z" fill="white"/>
</g>
<path d="M116.539 180.607C138.048 167.593 140.121 141.396 131.083 124.268C124.483 111.758 115.206 92.3552 119.069 80.2928C122.894 68.3498 135.012 56.7505 132.582 39.9712C130.184 23.4089 110.188 13.6998 92.2667 16.0937C74.2687 18.4977 54.5416 39.5621 34.3022 66.0448C25.783 77.1917 20.9839 88.307 18.3017 98.7652C18.3017 98.7652 11.3646 125.768 15.1303 137.624C18.0791 146.91 20.5059 151.177 31.1432 163.209C39.193 172.315 51.7986 180.329 64.9967 184.388C81.1254 189.349 100.468 190.331 116.539 180.607Z" fill="#39D192"/>
<g opacity="0.800003">
<path d="M116.547 180.607C138.056 167.593 140.129 141.396 131.091 124.268C124.491 111.759 115.214 92.3554 119.077 80.293C122.901 68.35 135.02 56.7507 132.59 39.9715C130.192 23.4091 110.195 13.7001 92.2745 16.094C74.2765 18.498 54.5494 39.5623 34.31 66.045C25.7909 77.1919 20.9917 88.3072 18.3095 98.7654C18.3095 98.7654 11.3724 125.768 15.1381 137.625C18.0869 146.91 20.5137 151.178 31.151 163.21C39.2009 172.316 51.8064 180.329 65.0045 184.388C81.1332 189.349 100.476 190.331 116.547 180.607Z" fill="white"/>
</g>
<path d="M84.3496 13.8873L85.2372 66.2525L111.864 67.1401V12.9998L84.3496 13.8873Z" fill="#39D192"/>
<path d="M84.3496 13.8873L85.2372 66.2525L111.864 67.1401V12.9998L84.3496 13.8873Z" stroke="#1A2E35" stroke-width="2" stroke-miterlimit="10" stroke-linecap="round" stroke-linejoin="round"/>
<path d="M150.621 186.554H48.8477V50.465H150.621V186.554Z" fill="#39D192" stroke="#1A2E35" stroke-width="2" stroke-miterlimit="10" stroke-linecap="round" stroke-linejoin="round"/>
<path d="M139.789 164.319H57.7227V89.8508H139.789V164.319Z" fill="white" stroke="#1A2E35" stroke-width="2" stroke-miterlimit="10" stroke-linecap="round" stroke-linejoin="round"/>
<path d="M150.621 68.2165H48.8477V50.4656H150.621V68.2165Z" fill="white" stroke="#1A2E35" stroke-width="2" stroke-miterlimit="10" stroke-linecap="round" stroke-linejoin="round"/>
<path d="M80.6504 115.352C80.6504 115.979 80.5025 116.571 80.2067 117.127C79.9108 117.683 79.4374 118.139 78.7866 118.494C78.1357 118.837 77.3014 119.009 76.2837 119.009H74.0471V124.015H72.0235V111.678H76.2837C77.2304 111.678 78.0292 111.843 78.6801 112.175C79.3428 112.494 79.8339 112.932 80.1534 113.488C80.4848 114.044 80.6504 114.666 80.6504 115.352ZM76.2837 117.358C77.0529 117.358 77.6269 117.186 78.0055 116.843C78.3842 116.488 78.5736 115.991 78.5736 115.352C78.5736 114.003 77.8103 113.329 76.2837 113.329H74.0471V117.358H76.2837Z" fill="black"/>
<path d="M84.604 122.382H88.7755V124.015H82.5804V111.678H84.604V122.382Z" fill="black"/>
<path d="M92.4914 113.311V116.932H96.7516V118.583H92.4914V122.364H97.2842V124.015H90.4678V111.66H97.2842V113.311H92.4914Z" fill="black"/>
<path d="M107.214 121.494H102.049L101.161 124.015H99.0488L103.469 111.66H105.812L110.232 124.015H108.102L107.214 121.494ZM106.646 119.843L104.64 114.11L102.617 119.843H106.646Z" fill="black"/>
<path d="M116.219 124.139C115.39 124.139 114.645 123.997 113.982 123.713C113.319 123.417 112.799 123.003 112.42 122.47C112.041 121.938 111.852 121.316 111.852 120.606H114.018C114.065 121.139 114.272 121.577 114.639 121.92C115.018 122.263 115.544 122.435 116.219 122.435C116.917 122.435 117.461 122.269 117.852 121.938C118.242 121.595 118.438 121.157 118.438 120.624C118.438 120.21 118.313 119.873 118.065 119.612C117.828 119.352 117.526 119.151 117.16 119.009C116.804 118.867 116.307 118.713 115.668 118.547C114.864 118.334 114.207 118.121 113.698 117.908C113.201 117.683 112.775 117.34 112.42 116.879C112.065 116.417 111.887 115.802 111.887 115.033C111.887 114.323 112.065 113.701 112.42 113.169C112.775 112.636 113.272 112.228 113.911 111.944C114.55 111.66 115.29 111.518 116.13 111.518C117.325 111.518 118.301 111.82 119.059 112.423C119.828 113.015 120.254 113.831 120.337 114.873H118.1C118.065 114.423 117.852 114.039 117.461 113.719C117.071 113.4 116.556 113.24 115.917 113.24C115.337 113.24 114.864 113.388 114.497 113.684C114.13 113.979 113.947 114.405 113.947 114.962C113.947 115.34 114.059 115.654 114.284 115.902C114.521 116.139 114.816 116.328 115.171 116.47C115.526 116.612 116.012 116.766 116.627 116.932C117.444 117.157 118.106 117.382 118.615 117.607C119.136 117.831 119.574 118.18 119.929 118.654C120.296 119.115 120.479 119.737 120.479 120.518C120.479 121.145 120.307 121.737 119.964 122.293C119.633 122.849 119.142 123.299 118.491 123.642C117.852 123.973 117.094 124.139 116.219 124.139Z" fill="black"/>
<path d="M124.89 113.311V116.932H129.151V118.583H124.89V122.364H129.683V124.015H122.867V111.66H129.683V113.311H124.89Z" fill="black"/>
<path d="M70.6271 129.429C71.9407 129.429 73.0886 129.683 74.0708 130.192C75.0648 130.689 75.8281 131.411 76.3607 132.358C76.905 133.292 77.1772 134.387 77.1772 135.641C77.1772 136.896 76.905 137.985 76.3607 138.908C75.8281 139.831 75.0648 140.541 74.0708 141.038C73.0886 141.523 71.9407 141.766 70.6271 141.766H66.5977V129.429H70.6271ZM70.6271 140.115C72.0709 140.115 73.1773 139.724 73.9465 138.943C74.7157 138.162 75.1004 137.062 75.1004 135.641C75.1004 134.21 74.7157 133.091 73.9465 132.287C73.1773 131.482 72.0709 131.079 70.6271 131.079H68.6213V140.115H70.6271Z" fill="black"/>
<path d="M84.8098 141.89C83.6619 141.89 82.6028 141.624 81.6324 141.091C80.6739 140.547 79.9106 139.795 79.3425 138.837C78.7863 137.866 78.5083 136.778 78.5083 135.57C78.5083 134.363 78.7863 133.281 79.3425 132.322C79.9106 131.363 80.6739 130.618 81.6324 130.085C82.6028 129.541 83.6619 129.269 84.8098 129.269C85.9696 129.269 87.0287 129.541 87.9872 130.085C88.9576 130.618 89.7209 131.363 90.2771 132.322C90.8333 133.281 91.1114 134.363 91.1114 135.57C91.1114 136.778 90.8333 137.866 90.2771 138.837C89.7209 139.795 88.9576 140.547 87.9872 141.091C87.0287 141.624 85.9696 141.89 84.8098 141.89ZM84.8098 140.132C85.6264 140.132 86.3542 139.949 86.9932 139.582C87.6322 139.203 88.1293 138.671 88.4843 137.985C88.8511 137.286 89.0346 136.482 89.0346 135.57C89.0346 134.659 88.8511 133.86 88.4843 133.174C88.1293 132.488 87.6322 131.961 86.9932 131.594C86.3542 131.227 85.6264 131.044 84.8098 131.044C83.9933 131.044 83.2655 131.227 82.6265 131.594C81.9874 131.961 81.4845 132.488 81.1176 133.174C80.7626 133.86 80.5851 134.659 80.5851 135.57C80.5851 136.482 80.7626 137.286 81.1176 137.985C81.4845 138.671 81.9874 139.203 82.6265 139.582C83.2655 139.949 83.9933 140.132 84.8098 140.132Z" fill="black"/>
<path d="M103.238 141.766H101.215L95.1263 132.553V141.766H93.1027V129.411H95.1263L101.215 138.606V129.411H103.238V141.766Z" fill="black"/>
<path d="M113.333 139.245H108.168L107.28 141.766H105.168L109.588 129.411H111.931L116.351 141.766H114.221L113.333 139.245ZM112.765 137.594L110.76 131.861L108.736 137.594H112.765Z" fill="black"/>
<path d="M126.243 129.429V131.079H122.959V141.766H120.936V131.079H117.634V129.429H126.243Z" fill="black"/>
<path d="M130.316 131.062V134.683H134.576V136.334H130.316V140.115H135.109V141.766H128.293V129.411H135.109V131.062H130.316Z" fill="black"/>
</svg>
