<svg width="171" height="21" viewBox="0 0 171 21" fill="none" xmlns="http://www.w3.org/2000/svg">
<g clip-path="url(#clip0_1046_20346)">
<path d="M28.3757 18.1522V20.9647H21.8236V16.4334L15.3219 15.6522C14.8179 15.6001 14.3643 15.4439 13.9107 15.2355L0 8.62098L0.453608 7.99598C0.55441 7.83973 0.705612 7.68348 0.907216 7.6314C1.46163 7.37098 2.11684 7.3189 2.72165 7.52723L6.60252 8.72515L10.937 9.92306L12.449 10.2877C12.3482 11.0689 12.8018 11.7459 13.5578 11.9022L19.0011 13.1001L19.1523 12.2668L17.8923 12.0064L14.3139 11.173C13.6586 11.0168 13.205 10.3397 13.3058 9.66264L13.3562 9.29806C13.4066 8.93348 13.7091 8.67306 14.0619 8.72515L15.4731 8.77723C17.8419 8.8814 20.1604 9.29806 22.4284 9.97515C22.9324 10.0793 23.4364 10.3397 23.9404 10.6522C26.0069 11.9543 27.4685 14.0376 28.1237 16.3814C28.2749 17.0064 28.3757 17.5793 28.3757 18.1522Z" fill="#39D192"/>
<path d="M22.279 1.58984C20.1118 1.17318 17.239 0.964844 14.2149 0.964844C11.1908 0.964844 8.31802 1.17318 6.15078 1.53776C3.52993 2.00651 2.32031 2.57942 2.32031 3.51692C2.32031 4.45442 3.47953 5.13151 6.15078 5.60025C8.31802 6.01692 11.1908 6.22526 14.2149 6.22526C17.239 6.22526 20.1118 6.01692 22.279 5.65234C24.9503 5.18359 26.1095 4.55859 26.1095 3.56901C26.0591 2.63151 24.8999 2.11067 22.279 1.58984ZM21.5734 4.50651C19.5574 4.81901 16.8861 5.02734 14.1645 5.02734C11.4428 5.02734 8.82203 4.81901 6.75559 4.50651C4.68915 4.19401 3.88274 3.77734 3.63074 3.62109C3.93314 3.41276 4.68915 2.83984 6.75559 2.52734C9.22524 2.16276 11.6949 1.95443 14.1645 1.95443C16.6341 1.95443 19.1038 2.16276 21.5734 2.47526C23.8415 2.78776 24.4463 3.46484 24.6983 3.67317C24.4463 3.77734 23.6399 4.14192 21.5734 4.50651Z" fill="#39D192"/>
<path d="M48.375 19.8802V3.9126H58.26V6.37741H51.21V10.4497H57.465V12.9144H51.21V19.8802H48.375Z" fill="#39D192"/>
<path d="M71.1021 13.848C71.1171 14.7359 70.9821 15.6086 70.6971 16.4506C70.4571 17.1854 70.0521 17.8744 69.5421 18.4561C69.0321 19.0073 68.4321 19.4512 67.7421 19.7421C67.0071 20.0483 66.2271 20.2167 65.4321 20.2014C64.6371 20.2167 63.8571 20.0636 63.1221 19.7421C62.4471 19.4512 61.8321 19.0073 61.3371 18.4561C60.8271 17.8744 60.4221 17.1854 60.1671 16.4506C59.8821 15.6086 59.7321 14.7359 59.7471 13.848C59.7321 12.9601 59.8821 12.0874 60.1671 11.2454C60.4221 10.5106 60.8271 9.837 61.3371 9.25525C61.8471 8.70411 62.4471 8.26014 63.1371 7.98457C63.8571 7.67839 64.6371 7.52529 65.4171 7.5406C66.1971 7.52529 66.9771 7.67839 67.7121 7.98457C68.4021 8.27545 69.0171 8.70411 69.5121 9.25525C70.0221 9.837 70.4121 10.5106 70.6821 11.2454C70.9671 12.0874 71.1171 12.9601 71.1021 13.848ZM68.2971 13.848C68.2971 12.6539 68.0421 11.7047 67.5471 11.0005C67.0521 10.2963 66.3471 9.94417 65.4321 9.95948C64.5321 9.95948 63.8271 10.3116 63.3171 11.0005C62.8071 11.6894 62.5521 12.6539 62.5521 13.848C62.5521 15.0574 62.8071 16.0219 63.3021 16.7262C63.8121 17.4304 64.5171 17.7825 65.4171 17.7825C66.3171 17.7825 67.0221 17.4304 67.5321 16.7262C68.0421 16.0219 68.2971 15.0574 68.2971 13.848Z" fill="#39D192"/>
<path d="M84.5982 13.8482C84.6132 14.7361 84.4782 15.6087 84.1932 16.4508C83.9532 17.1856 83.5482 17.8745 83.0382 18.4563C82.5282 19.0074 81.9282 19.4514 81.2382 19.7423C80.5032 20.0485 79.7232 20.2169 78.9282 20.2016C78.1332 20.2169 77.3532 20.0638 76.6182 19.7423C75.9432 19.4514 75.3282 19.0074 74.8332 18.4563C74.3232 17.8745 73.9182 17.1856 73.6632 16.4508C73.3782 15.6087 73.2282 14.7361 73.2432 13.8482C73.2282 12.9602 73.3782 12.0876 73.6632 11.2456C73.9182 10.5108 74.3232 9.83717 74.8332 9.25541C75.3432 8.70428 75.9582 8.2603 76.6332 7.98474C77.3532 7.67855 78.1332 7.52546 78.9132 7.52546C79.6932 7.51015 80.4732 7.66324 81.2082 7.96943C81.8982 8.2603 82.5132 8.68897 83.0082 9.25541C83.5182 9.83717 83.9082 10.5108 84.1782 11.2456C84.4782 12.0876 84.6132 12.9602 84.5982 13.8482ZM81.7932 13.8482C81.7932 12.654 81.5382 11.7049 81.0432 11.0006C80.5332 10.2964 79.8282 9.94433 78.9282 9.94433C78.0282 9.94433 77.3232 10.2964 76.8132 10.9853C76.3032 11.6742 76.0482 12.6387 76.0632 13.8329C76.0632 15.0423 76.3182 16.0068 76.8132 16.711C77.3082 17.4153 78.0132 17.7674 78.9282 17.7674C79.8282 17.7674 80.5332 17.4153 81.0432 16.711C81.5532 16.0221 81.7932 15.0576 81.7932 13.8482Z" fill="#39D192"/>
<path d="M97.4097 19.5121C96.7347 19.7111 96.0597 19.8642 95.3697 19.9714C94.5147 20.1092 93.6447 20.1857 92.7747 20.1857C91.9197 20.201 91.0647 20.048 90.2697 19.7418C89.5647 19.4662 88.9197 19.0375 88.3797 18.4864C87.8397 17.92 87.4347 17.2463 87.1797 16.4962C86.8947 15.6542 86.7597 14.7815 86.7747 13.8936C86.7597 13.021 86.8797 12.1483 87.1197 11.3063C87.3297 10.5868 87.6747 9.89791 88.1397 9.31615C88.5897 8.76501 89.1447 8.33635 89.7897 8.04548C90.4947 7.73929 91.2447 7.5862 92.0097 7.5862C92.5197 7.57089 93.0297 7.64743 93.5247 7.80053C93.9147 7.923 94.2897 8.07609 94.6497 8.25981V2.45757L97.3797 1.99829L97.4097 19.5121ZM89.5647 13.8171C89.5647 15.0418 89.8497 16.0063 90.4197 16.7105C90.9897 17.4147 91.7847 17.7669 92.7897 17.7516C93.1647 17.7516 93.5397 17.7362 93.9147 17.6903C94.1697 17.6597 94.4097 17.6138 94.6647 17.5678V10.6634C94.3647 10.4644 94.0497 10.3113 93.7047 10.1888C93.2997 10.0357 92.8647 9.97445 92.4297 9.97445C91.4397 9.97445 90.7047 10.3266 90.2547 11.0154C89.8047 11.7044 89.5647 12.6382 89.5647 13.8171Z" fill="#39D192"/>
<path d="M100.232 13.9092C100.217 12.96 100.366 12.0108 100.696 11.1229C100.966 10.3881 101.386 9.69915 101.926 9.1327C102.421 8.61219 103.021 8.19883 103.696 7.93858C104.341 7.67832 105.031 7.54053 105.721 7.54053C107.341 7.54053 108.617 8.06105 109.532 9.08678C110.447 10.1125 110.897 11.6587 110.897 13.6948C110.897 13.8479 110.897 14.0163 110.882 14.2154C110.867 14.4144 110.867 14.5828 110.852 14.7359H103.051C103.126 15.7004 103.457 16.4505 104.057 16.9863C104.657 17.5222 105.512 17.7824 106.637 17.7824C107.252 17.7824 107.852 17.7212 108.452 17.5987C108.902 17.5069 109.337 17.3844 109.757 17.2007L110.116 19.4818C109.921 19.5736 109.712 19.6655 109.502 19.7267C109.202 19.8186 108.902 19.8951 108.602 19.9564C108.257 20.0329 107.897 20.0788 107.507 20.1248C107.102 20.1707 106.712 20.2013 106.307 20.186C105.377 20.2013 104.461 20.0482 103.591 19.7114C102.871 19.4358 102.212 18.9766 101.687 18.3948C101.177 17.8284 100.801 17.1394 100.576 16.4199C100.336 15.6085 100.217 14.7665 100.232 13.9092ZM108.152 12.6691C108.152 12.3017 108.107 11.9343 108.002 11.5668C107.912 11.2453 107.747 10.9392 107.537 10.6636C107.327 10.4034 107.072 10.2044 106.787 10.0666C106.457 9.91348 106.097 9.83693 105.737 9.85224C105.362 9.83693 104.971 9.92879 104.626 10.0972C104.326 10.2503 104.042 10.4646 103.832 10.7249C103.607 10.9851 103.441 11.2913 103.321 11.6281C103.201 11.9649 103.111 12.317 103.066 12.6691H108.152Z" fill="#39D192"/>
<path d="M117.72 7.52569C118.5 7.51038 119.265 7.63285 120 7.8778C120.57 8.07683 121.065 8.39832 121.485 8.84229C121.86 9.27095 122.13 9.79147 122.28 10.3579C122.445 11.0009 122.52 11.6439 122.52 12.3022V19.6047C122.1 19.6966 121.47 19.8037 120.615 19.9415C119.655 20.0793 118.695 20.1406 117.735 20.1406C117.075 20.1406 116.43 20.0793 115.785 19.9262C115.245 19.8037 114.735 19.5894 114.285 19.2526C113.865 18.9464 113.535 18.5331 113.31 18.0585C113.055 17.492 112.935 16.8643 112.965 16.2367C112.95 15.6243 113.085 15.0272 113.355 14.4914C113.61 14.0168 113.985 13.6188 114.435 13.3279C114.915 13.0217 115.455 12.7921 116.01 12.6849C116.625 12.5471 117.24 12.4859 117.87 12.4859C118.185 12.4859 118.5 12.5012 118.815 12.5471C119.175 12.593 119.52 12.6543 119.88 12.7461V12.2869C119.88 11.9807 119.85 11.6745 119.76 11.3683C119.61 10.7713 119.19 10.2814 118.62 10.0824C118.245 9.94457 117.855 9.88333 117.45 9.89864C116.865 9.89864 116.28 9.94457 115.71 10.0364C115.275 10.113 114.84 10.2201 114.42 10.3579L114.075 8.07683C114.57 7.92373 115.08 7.80126 115.59 7.7094C116.295 7.58693 117 7.52569 117.72 7.52569ZM117.945 17.9207C118.59 17.936 119.235 17.8901 119.865 17.7829V14.6904C119.655 14.6292 119.43 14.5833 119.205 14.5526C118.89 14.5067 118.575 14.4761 118.26 14.4914C117.96 14.4914 117.645 14.522 117.345 14.5526C117.06 14.5986 116.775 14.6751 116.505 14.8129C116.265 14.9354 116.055 15.1038 115.905 15.3334C115.74 15.5784 115.665 15.8846 115.68 16.1754C115.68 16.8337 115.89 17.293 116.295 17.5533C116.7 17.7982 117.24 17.936 117.945 17.9207Z" fill="#39D192"/>
<path d="M129.96 20.1092C129.27 20.1092 128.595 20.0173 127.935 19.8336C127.455 19.6958 127.02 19.4509 126.66 19.1141C126.345 18.7926 126.105 18.3792 126 17.9353C125.865 17.4147 125.805 16.8789 125.805 16.3278V2.45757L128.535 1.99829V15.8073C128.535 16.0981 128.55 16.3737 128.61 16.6646C128.655 16.8789 128.76 17.0779 128.895 17.2463C129.045 17.4147 129.24 17.5372 129.45 17.6138C129.735 17.7056 130.035 17.7822 130.335 17.8128L129.96 20.1092Z" fill="#39D192"/>
<path d="M135.51 17.8748C136.23 17.8748 136.755 17.783 137.085 17.6146C137.415 17.4461 137.58 17.14 137.58 16.696C137.58 16.2979 137.385 15.9152 137.055 15.7009C136.695 15.4406 136.11 15.1497 135.3 14.8436C134.835 14.6752 134.385 14.4761 133.935 14.2618C133.545 14.0781 133.185 13.8331 132.855 13.527C132.555 13.2514 132.315 12.8993 132.15 12.5165C131.97 12.0573 131.88 11.5674 131.895 11.0775C131.895 9.97524 132.3 9.10261 133.095 8.45961C133.89 7.81662 134.985 7.51043 136.35 7.49512C137.01 7.49512 137.685 7.57167 138.33 7.69415C138.81 7.786 139.29 7.90848 139.755 8.07688L139.26 10.3273C138.885 10.1589 138.495 10.0365 138.105 9.94462C137.565 9.82214 137.025 9.76091 136.485 9.77622C136.02 9.76091 135.555 9.85276 135.135 10.0671C134.805 10.2355 134.595 10.5876 134.61 10.955C134.61 11.1387 134.64 11.3224 134.715 11.4908C134.79 11.6592 134.91 11.8123 135.06 11.9195C135.27 12.0726 135.48 12.2104 135.72 12.3175C136.05 12.4706 136.38 12.6084 136.71 12.7156C137.28 12.9299 137.82 13.1595 138.36 13.4351C138.765 13.6494 139.155 13.9097 139.485 14.2465C139.77 14.5374 139.995 14.8895 140.13 15.2722C140.28 15.7162 140.34 16.1755 140.325 16.6501C140.325 17.7983 139.905 18.6709 139.065 19.268C138.225 19.865 137.04 20.1559 135.48 20.1559C134.64 20.1865 133.785 20.0947 132.96 19.8956C132.51 19.7732 132.06 19.6354 131.625 19.467L132.105 17.14C132.585 17.339 133.065 17.4921 133.56 17.6299C134.205 17.8136 134.865 17.8901 135.51 17.8748Z" fill="#39D192"/>
</g>
<rect x="146.809" y="8.16284" width="24.0784" height="11.331" rx="5.66552" fill="#EE3218"/>
<path d="M154.261 11.3792C154.633 11.3792 154.955 11.4412 155.227 11.5652C155.503 11.6892 155.715 11.8652 155.863 12.0932C156.011 12.3212 156.085 12.5912 156.085 12.9032C156.085 13.2112 156.011 13.4812 155.863 13.7132C155.715 13.9412 155.503 14.1172 155.227 14.2412C154.955 14.3612 154.633 14.4212 154.261 14.4212H153.415V15.5792H152.443V11.3792H154.261ZM154.207 13.6292C154.499 13.6292 154.721 13.5672 154.873 13.4432C155.025 13.3152 155.101 13.1352 155.101 12.9032C155.101 12.6672 155.025 12.4872 154.873 12.3632C154.721 12.2352 154.499 12.1712 154.207 12.1712H153.415V13.6292H154.207ZM159.455 15.5792L158.645 14.4092H158.597H157.751V15.5792H156.779V11.3792H158.597C158.969 11.3792 159.291 11.4412 159.563 11.5652C159.839 11.6892 160.051 11.8652 160.199 12.0932C160.347 12.3212 160.421 12.5912 160.421 12.9032C160.421 13.2152 160.345 13.4852 160.193 13.7132C160.045 13.9372 159.833 14.1092 159.557 14.2292L160.499 15.5792H159.455ZM159.437 12.9032C159.437 12.6672 159.361 12.4872 159.209 12.3632C159.057 12.2352 158.835 12.1712 158.543 12.1712H157.751V13.6352H158.543C158.835 13.6352 159.057 13.5712 159.209 13.4432C159.361 13.3152 159.437 13.1352 159.437 12.9032ZM163.225 15.6512C162.789 15.6512 162.395 15.5572 162.043 15.3692C161.695 15.1812 161.421 14.9232 161.221 14.5952C161.025 14.2632 160.927 13.8912 160.927 13.4792C160.927 13.0672 161.025 12.6972 161.221 12.3692C161.421 12.0372 161.695 11.7772 162.043 11.5892C162.395 11.4012 162.789 11.3072 163.225 11.3072C163.661 11.3072 164.053 11.4012 164.401 11.5892C164.749 11.7772 165.023 12.0372 165.223 12.3692C165.423 12.6972 165.523 13.0672 165.523 13.4792C165.523 13.8912 165.423 14.2632 165.223 14.5952C165.023 14.9232 164.749 15.1812 164.401 15.3692C164.053 15.5572 163.661 15.6512 163.225 15.6512ZM163.225 14.8232C163.473 14.8232 163.697 14.7672 163.897 14.6552C164.097 14.5392 164.253 14.3792 164.365 14.1752C164.481 13.9712 164.539 13.7392 164.539 13.4792C164.539 13.2192 164.481 12.9872 164.365 12.7832C164.253 12.5792 164.097 12.4212 163.897 12.3092C163.697 12.1932 163.473 12.1352 163.225 12.1352C162.977 12.1352 162.753 12.1932 162.553 12.3092C162.353 12.4212 162.195 12.5792 162.079 12.7832C161.967 12.9872 161.911 13.2192 161.911 13.4792C161.911 13.7392 161.967 13.9712 162.079 14.1752C162.195 14.3792 162.353 14.5392 162.553 14.6552C162.753 14.7672 162.977 14.8232 163.225 14.8232Z" fill="white"/>
<defs>
<clipPath id="clip0_1046_20346">
<rect width="141" height="20" fill="white" transform="translate(0 0.964844)"/>
</clipPath>
</defs>
</svg>
