<svg width="301" height="221" viewBox="0 0 301 221" fill="none" xmlns="http://www.w3.org/2000/svg">
<path d="M299.59 126.064C300.43 118.018 300.774 109.819 300.963 101.504C301.568 74.861 294.62 49.4902 276.344 31.0108C251.887 6.28008 207.385 -11.5261 177.327 11.8173C171.012 16.722 165.023 22.1082 158.765 27.0994C147.459 36.1171 134.605 44.098 120.625 44.4338C98.7298 44.9604 79.6629 26.8635 57.8375 24.8736C40.5563 23.2977 23.0454 32.6931 12.65 47.9045C2.25457 63.1159 -1.11323 83.5135 2.61468 102.074C6.07413 119.298 15.1927 134.941 16.8978 152.478C18.2322 166.204 15.3865 181.896 23.5432 192.415C29.2902 199.826 38.8351 202.061 47.6967 202.583C70.339 203.916 92.753 197 113.837 187.854C123.032 183.865 132.456 179.36 142.338 179.796C154.737 180.345 165.129 188.377 175.484 194.963C188.877 203.482 203.919 207.703 219.396 205.958C238.203 203.837 257.868 197.669 273.134 184.541C289.696 170.299 297.249 148.462 299.59 126.064Z" fill="#39D192"/>
<g opacity="0.699997">
<path d="M299.59 126.064C300.43 118.018 300.774 109.819 300.963 101.504C301.568 74.8607 294.62 49.4899 276.344 31.0105C251.887 6.27983 207.385 -11.5263 177.327 11.8171C171.012 16.7218 165.023 22.108 158.765 27.0991C147.459 36.1168 134.605 44.0977 120.625 44.4336C98.7298 44.9601 79.6629 26.8633 57.8375 24.8734C40.5563 23.2975 23.0454 32.6929 12.65 47.9043C2.25457 63.1157 -1.11323 83.5133 2.61468 102.074C6.07413 119.298 15.1927 134.941 16.8978 152.477C18.2322 166.204 15.3865 181.896 23.5432 192.415C29.2902 199.825 38.8351 202.061 47.6967 202.583C70.339 203.916 92.753 197 113.837 187.854C123.032 183.865 132.456 179.359 142.338 179.796C154.737 180.344 165.129 188.376 175.484 194.962C188.877 203.482 203.919 207.703 219.396 205.958C238.203 203.837 257.868 197.669 273.134 184.541C289.696 170.299 297.249 148.462 299.59 126.064Z" fill="white"/>
</g>
<path d="M273.758 210.424H291.253" stroke="#1A2E35" stroke-width="1.5" stroke-miterlimit="10" stroke-linecap="round"/>
<path d="M1 210.424L272.021 210.424" stroke="#1A2E35" stroke-width="1.5" stroke-miterlimit="10" stroke-linecap="round"/>
<path d="M103.518 71.6577C96.3768 78.7986 95.7758 85.8943 95.7758 85.8943L95.5117 71.6577" stroke="#1A2E35" stroke-width="1.5" stroke-miterlimit="10" stroke-linecap="round" stroke-linejoin="round"/>
<path d="M103.09 72.7392C103.09 72.7392 102.008 70.5754 103.09 69.0604C104.172 67.5459 107.851 64.949 108.933 66.2472C110.015 67.5459 108.926 71.8698 107.411 72.7354C105.896 73.601 103.739 72.9555 103.09 72.7392Z" fill="white"/>
<path d="M103.09 72.7392C103.09 72.7392 102.008 70.5754 103.09 69.0604C104.172 67.5459 107.851 64.949 108.933 66.2472C110.015 67.5459 108.926 71.8698 107.411 72.7354C105.896 73.601 103.739 72.9555 103.09 72.7392Z" stroke="#1A2E35" stroke-width="1.5" stroke-miterlimit="10" stroke-linecap="round" stroke-linejoin="round"/>
<path d="M106.09 66.7389C106.09 66.7389 109.308 68.6402 107.406 72.7358" stroke="#1A2E35" stroke-width="1.5" stroke-miterlimit="10" stroke-linecap="round" stroke-linejoin="round"/>
<path d="M95.5177 73.082C95.5177 73.082 93.2827 72.1555 93.1083 70.3025C92.9339 68.449 94.0125 64.0773 95.6802 64.3496C97.3484 64.6218 99.3579 68.6028 98.7803 70.2493C98.2027 71.8952 96.1502 72.8207 95.5177 73.082Z" fill="white"/>
<path d="M95.5177 73.082C95.5177 73.082 93.2827 72.1555 93.1083 70.3025C92.9339 68.449 94.0125 64.0773 95.6802 64.3496C97.3484 64.6218 99.3579 68.6028 98.7803 70.2493C98.2027 71.8952 96.1502 72.8207 95.5177 73.082Z" stroke="#1A2E35" stroke-width="1.5" stroke-miterlimit="10" stroke-linecap="round" stroke-linejoin="round"/>
<path d="M93.8555 66.5797C93.8555 66.5797 97.5327 65.9092 98.7781 70.2488" stroke="#1A2E35" stroke-width="1.5" stroke-miterlimit="10" stroke-linecap="round" stroke-linejoin="round"/>
<path d="M93.851 85.8943C93.851 85.8943 90.6987 79.5267 86.1211 74.8986" stroke="#1A2E35" stroke-width="1.5" stroke-miterlimit="10" stroke-linecap="round" stroke-linejoin="round"/>
<path d="M87.3773 75.8785C87.3773 75.8785 85.1091 76.7213 83.7202 75.4823C82.3302 74.2439 80.1446 70.307 81.552 69.3707C82.9594 68.435 87.1409 69.9831 87.8386 71.5823C88.5358 73.1816 87.662 75.2563 87.3773 75.8785Z" fill="white"/>
<path d="M87.3773 75.8785C87.3773 75.8785 85.1091 76.7213 83.7202 75.4823C82.3302 74.2439 80.1446 70.307 81.552 69.3707C82.9594 68.435 87.1409 69.9831 87.8386 71.5823C88.5358 73.1816 87.662 75.2563 87.3773 75.8785Z" stroke="#1A2E35" stroke-width="1.5" stroke-miterlimit="10" stroke-linecap="round" stroke-linejoin="round"/>
<path d="M81.7305 72.2454C81.7305 72.2454 83.9671 69.2507 87.8345 71.5819" stroke="#1A2E35" stroke-width="1.5" stroke-miterlimit="10" stroke-linecap="round" stroke-linejoin="round"/>
<path d="M93.8527 85.8943C93.8527 85.8943 94.2151 78.7986 92.4844 72.5234" stroke="#1A2E35" stroke-width="1.5" stroke-miterlimit="10" stroke-linecap="round" stroke-linejoin="round"/>
<path d="M93.0994 73.9907C93.0994 73.9907 90.709 73.6174 90.1026 71.8573C89.4956 70.0973 89.5135 65.5946 91.1986 65.4659C92.8843 65.3376 95.7751 68.7322 95.6018 70.4684C95.429 72.204 93.6521 73.5875 93.0994 73.9907Z" fill="white"/>
<path d="M93.0994 73.9907C93.0994 73.9907 90.709 73.6174 90.1026 71.8573C89.4956 70.0973 89.5135 65.5946 91.1986 65.4659C92.8843 65.3376 95.7751 68.7322 95.6018 70.4684C95.429 72.204 93.6521 73.5875 93.0994 73.9907Z" stroke="#1A2E35" stroke-width="1.5" stroke-miterlimit="10" stroke-linecap="round" stroke-linejoin="round"/>
<path d="M89.9531 68.0634C89.9531 68.0634 93.3684 66.5446 95.6023 70.4685" stroke="#1A2E35" stroke-width="1.5" stroke-miterlimit="10" stroke-linecap="round" stroke-linejoin="round"/>
<path d="M95.7773 85.8943C95.7773 85.8943 96.2914 84.4369 98.9242 82.097C101.557 79.7566 106.822 79.1713 106.822 79.1713C106.822 79.1713 105.067 82.097 103.166 83.2669C101.265 84.4369 95.7773 85.8943 95.7773 85.8943Z" fill="#39D192"/>
<path d="M95.7773 85.8943C95.7773 85.8943 96.2914 84.4369 98.9242 82.097C101.557 79.7566 106.822 79.1713 106.822 79.1713C106.822 79.1713 105.067 82.097 103.166 83.2669C101.265 84.4369 95.7773 85.8943 95.7773 85.8943Z" stroke="#1A2E35" stroke-width="1.5" stroke-miterlimit="10" stroke-linecap="round" stroke-linejoin="round"/>
<path d="M95.4129 86.4851C95.4129 86.4851 93.2187 82.8286 89.1236 81.8043C85.028 80.7805 82.9805 81.0734 82.9805 81.0734C82.9805 81.0734 89.855 88.0936 95.4129 86.4851Z" fill="#39D192"/>
<path d="M95.4129 86.4851C95.4129 86.4851 93.2187 82.8286 89.1236 81.8043C85.028 80.7805 82.9805 81.0734 82.9805 81.0734C82.9805 81.0734 89.855 88.0936 95.4129 86.4851V86.4851Z" stroke="#1A2E35" stroke-width="1.5" stroke-miterlimit="10" stroke-linecap="round" stroke-linejoin="round"/>
<path d="M98.4753 85.8944H95.7735H93.8477H92.3028C92.799 90.7111 93.2565 100.826 89.9961 110.61H93.8477H95.7735H101.551C97.2032 100.826 97.8134 90.7111 98.4753 85.8944Z" fill="white"/>
<path d="M98.4753 85.8944H95.7735H93.8477H92.3028C92.799 90.7111 93.2565 100.826 89.9961 110.61H93.8477H95.7735H101.551C97.2032 100.826 97.8134 90.7111 98.4753 85.8944Z" stroke="#1A2E35" stroke-width="1.5" stroke-miterlimit="10" stroke-linecap="round" stroke-linejoin="round"/>
<path d="M120.91 110.269H119.406V104.558H120.91V110.269Z" fill="white" stroke="#1A2E35" stroke-width="1.5" stroke-miterlimit="10" stroke-linecap="round" stroke-linejoin="round"/>
<path d="M122.665 100.83H117.645L118.899 64.3155H121.41L122.665 100.83Z" fill="white"/>
<path d="M122.665 100.83H117.645L118.899 64.3155H121.41L122.665 100.83Z" stroke="#1A2E35" stroke-width="1.5" stroke-miterlimit="10" stroke-linecap="round" stroke-linejoin="round"/>
<path d="M121.638 105.009H118.676C118.082 105.009 117.602 104.528 117.602 103.935V98.6967H122.712V103.935C122.712 104.528 122.231 105.009 121.638 105.009Z" fill="white"/>
<path d="M121.638 105.009H118.676C118.082 105.009 117.602 104.528 117.602 103.935V98.6967H122.712V103.935C122.712 104.528 122.231 105.009 121.638 105.009Z" stroke="#1A2E35" stroke-width="1.5" stroke-miterlimit="10" stroke-linecap="round" stroke-linejoin="round"/>
<path d="M123.98 108.616H116.109C115.253 108.616 114.559 109.31 114.559 110.167V110.57H125.53V110.167C125.53 109.31 124.836 108.616 123.98 108.616Z" fill="white"/>
<path d="M123.98 108.616H116.109C115.253 108.616 114.559 109.31 114.559 110.167V110.57H125.53V110.167C125.53 109.31 124.836 108.616 123.98 108.616Z" stroke="#1A2E35" stroke-width="1.5" stroke-miterlimit="10" stroke-linecap="round" stroke-linejoin="round"/>
<path d="M121.474 60.1444C121.474 61.9289 119.971 63.376 119.971 63.376C119.971 63.376 118.469 61.9289 118.469 60.1444C118.469 58.3598 119.971 56.9128 119.971 56.9128C119.971 56.9128 121.474 58.3598 121.474 60.1444Z" fill="white"/>
<path d="M121.474 60.1444C121.474 61.9289 119.971 63.376 119.971 63.376C119.971 63.376 118.469 61.9289 118.469 60.1444C118.469 58.3598 119.971 56.9128 119.971 56.9128C119.971 56.9128 121.474 58.3598 121.474 60.1444Z" stroke="#1A2E35" stroke-width="1.5" stroke-miterlimit="10" stroke-linecap="round" stroke-linejoin="round"/>
<path d="M71.0109 110.269H69.5078V104.557H71.0109V110.269Z" fill="white" stroke="#1A2E35" stroke-width="1.5" stroke-miterlimit="10" stroke-linecap="round" stroke-linejoin="round"/>
<path d="M72.7666 100.83H67.7461L69.0008 64.315H71.5113L72.7666 100.83Z" fill="white"/>
<path d="M72.7666 100.83H67.7461L69.0008 64.315H71.5113L72.7666 100.83Z" stroke="#1A2E35" stroke-width="1.5" stroke-miterlimit="10" stroke-linecap="round" stroke-linejoin="round"/>
<path d="M71.7395 105.009H68.7763C68.184 105.009 67.7031 104.528 67.7031 103.935V98.6969H72.8133V103.935C72.8133 104.528 72.3324 105.009 71.7395 105.009Z" fill="white"/>
<path d="M71.7395 105.009H68.7763C68.184 105.009 67.7031 104.528 67.7031 103.935V98.6969H72.8133V103.935C72.8133 104.528 72.3324 105.009 71.7395 105.009Z" stroke="#1A2E35" stroke-width="1.5" stroke-miterlimit="10" stroke-linecap="round" stroke-linejoin="round"/>
<path d="M74.0811 108.616H66.211C65.3541 108.616 64.6602 109.31 64.6602 110.167V110.57H75.6319V110.167C75.6319 109.31 74.9375 108.616 74.0811 108.616Z" fill="white"/>
<path d="M74.0811 108.616H66.211C65.3541 108.616 64.6602 109.31 64.6602 110.167V110.57H75.6319V110.167C75.6319 109.31 74.9375 108.616 74.0811 108.616Z" stroke="#1A2E35" stroke-width="1.5" stroke-miterlimit="10" stroke-linecap="round" stroke-linejoin="round"/>
<path d="M71.5764 60.1446C71.5764 61.9291 70.0734 63.3762 70.0734 63.3762C70.0734 63.3762 68.5703 61.9291 68.5703 60.1446C68.5703 58.3601 70.0734 56.913 70.0734 56.913C70.0734 56.913 71.5764 58.3601 71.5764 60.1446Z" fill="white"/>
<path d="M71.5764 60.1446C71.5764 61.9291 70.0734 63.3762 70.0734 63.3762C70.0734 63.3762 68.5703 61.9291 68.5703 60.1446C68.5703 58.3601 70.0734 56.913 70.0734 56.913C70.0734 56.913 71.5764 58.3601 71.5764 60.1446Z" stroke="#1A2E35" stroke-width="1.5" stroke-miterlimit="10" stroke-linecap="round" stroke-linejoin="round"/>
<path d="M228.482 107.493C228.482 107.493 229.297 146.617 230.791 152.459C232.285 158.3 233.508 195.116 235.002 200.822C236.497 206.527 235.546 206.391 235.546 206.391C235.546 206.391 229.568 210.467 227.802 212.097C226.036 213.727 223.455 213.863 223.591 215.222C223.727 216.58 227.123 216.58 231.199 216.988C235.274 217.395 241.116 214.407 241.659 214.407C242.203 214.407 245.055 214.271 245.599 213.456C246.142 212.64 244.24 202.723 244.24 202.723L244.784 170.391L246.142 130.044L248.316 130.451L257.554 184.791L260.542 207.75C260.542 207.75 262.172 213.456 262.988 214.542C263.803 215.629 264.074 219.025 267.199 219.705C270.324 220.384 272.633 220.248 272.497 215.357C272.361 210.467 268.557 204.082 268.557 204.082L268.422 176.912L267.606 151.916L265.84 106.542C265.84 106.542 255.38 110.074 246.821 110.074C238.263 110.074 229.161 105.319 229.161 105.319L228.482 107.493Z" fill="#1A2E35"/>
<path d="M228.482 107.493C228.482 107.493 229.297 146.617 230.791 152.459C232.285 158.3 233.508 195.116 235.002 200.822C236.497 206.527 235.546 206.391 235.546 206.391C235.546 206.391 229.568 210.467 227.802 212.097C226.036 213.727 223.455 213.863 223.591 215.222C223.727 216.58 227.123 216.58 231.199 216.988C235.274 217.395 241.116 214.407 241.659 214.407C242.203 214.407 245.055 214.271 245.599 213.456C246.142 212.64 244.24 202.723 244.24 202.723L244.784 170.391L246.142 130.044L248.316 130.451L257.554 184.791L260.542 207.75C260.542 207.75 262.172 213.456 262.988 214.542C263.803 215.629 264.074 219.025 267.199 219.705C270.324 220.384 272.633 220.248 272.497 215.357C272.361 210.467 268.557 204.082 268.557 204.082L268.422 176.912L267.607 151.916L265.84 106.542C265.84 106.542 255.38 110.074 246.821 110.074C238.263 110.074 229.161 105.319 229.161 105.319L228.482 107.493Z" stroke="#1A2E35" stroke-width="1.5" stroke-miterlimit="10" stroke-linecap="round" stroke-linejoin="round"/>
<path d="M227.937 103.417C227.937 103.417 227.894 103.673 227.845 104.068C227.718 105.083 227.545 107.02 227.937 107.9C228.48 109.123 232.555 112.927 242.88 112.791C253.205 112.655 259.046 111.704 261.084 110.889C263.122 110.074 266.246 107.9 266.518 106.134C266.79 104.368 267.061 102.33 267.061 102.33C267.061 102.33 253.612 106.678 245.597 106.27C237.582 105.863 231.333 103.961 230.246 103.553C229.159 103.146 227.937 102.33 227.937 103.417Z" fill="#6B6B6B"/>
<path d="M227.937 103.417C227.937 103.417 227.894 103.673 227.845 104.068C227.718 105.083 227.545 107.02 227.937 107.9C228.48 109.123 232.555 112.927 242.88 112.791C253.205 112.655 259.046 111.704 261.084 110.889C263.122 110.074 266.246 107.9 266.518 106.134C266.79 104.368 267.061 102.33 267.061 102.33C267.061 102.33 253.612 106.678 245.597 106.27C237.582 105.863 231.333 103.961 230.246 103.553C229.159 103.146 227.937 102.33 227.937 103.417Z" stroke="#1A2E35" stroke-width="1.5" stroke-miterlimit="10" stroke-linecap="round" stroke-linejoin="round"/>
<path d="M247.229 49.4841C247.229 49.4841 230.112 53.4238 228.89 54.5106C227.667 55.5974 227.395 93.2278 227.531 94.9939C227.667 96.7599 225.901 101.786 227.531 104.096C229.161 106.405 234.731 109.666 247.094 109.122C259.456 108.579 264.482 106.949 265.977 104.775C267.471 102.601 267.743 101.651 267.743 98.7977C267.743 95.9448 267.199 81.0013 267.471 80.5938C267.743 80.1862 271.818 59.537 271.818 58.4502C271.818 57.3634 247.229 49.4841 247.229 49.4841Z" fill="#6B6B6B"/>
<path d="M247.229 49.4841C247.229 49.4841 230.112 53.4238 228.89 54.5106C227.667 55.5974 227.395 93.2278 227.531 94.9939C227.667 96.7599 225.901 101.786 227.531 104.096C229.161 106.405 234.731 109.666 247.094 109.122C259.456 108.579 264.482 106.949 265.977 104.775C267.471 102.601 267.743 101.651 267.743 98.7977C267.743 95.9448 267.199 81.0013 267.471 80.5938C267.743 80.1862 271.818 59.537 271.818 58.4502C271.818 57.3634 247.229 49.4841 247.229 49.4841Z" stroke="#1A2E35" stroke-width="1.5" stroke-miterlimit="10" stroke-linecap="round" stroke-linejoin="round"/>
<path d="M268.344 76.7333L263.714 69.2871L255.419 77.4137L249.739 67.6015L241.88 75.4596L236.587 66.1517L229.923 74.7195L227.749 72.322C227.667 75.802 227.607 79.3786 227.566 82.6358L230.338 85.6924L235.672 78.8341L240.321 87.009L248.231 79.0982L253.864 88.8262L262.366 80.4975L267.504 88.7631C267.403 84.6257 267.335 80.7974 267.47 80.5937C267.542 80.4861 267.883 78.9466 268.344 76.7333Z" fill="#1A2E35"/>
<path d="M243.288 44.5933C243.288 44.5933 243.152 52.0651 243.152 53.4236C243.152 54.7821 243.56 59.9444 247.364 61.0312C251.167 62.118 254.292 58.8576 255.243 56.684C256.194 54.5104 256.33 51.5217 256.33 51.5217L257.688 43.2348C257.688 43.2348 250.76 46.3594 247.5 45.6801C244.239 45.0009 243.288 44.5933 243.288 44.5933Z" fill="white"/>
<path d="M243.288 44.5933C243.288 44.5933 243.152 52.0651 243.152 53.4236C243.152 54.7821 243.56 59.9444 247.364 61.0312C251.167 62.118 254.292 58.8576 255.243 56.684C256.194 54.5104 256.33 51.5217 256.33 51.5217L257.688 43.2348C257.688 43.2348 250.76 46.3594 247.5 45.6801C244.239 45.0009 243.288 44.5933 243.288 44.5933Z" stroke="#1A2E35" stroke-width="1.5" stroke-miterlimit="10" stroke-linecap="round" stroke-linejoin="round"/>
<path d="M245.127 52.2675C249.822 50.753 257.342 45.275 257.342 45.275L248.459 45.9064L248.199 45.7668C247.953 45.7532 247.719 45.726 247.503 45.6809C244.243 45.0017 243.292 44.5941 243.292 44.5941C243.292 44.5941 243.182 50.6639 243.16 52.856C243.749 52.694 244.396 52.5027 245.127 52.2675Z" fill="#1A2E35"/>
<path d="M245.127 52.2675C249.822 50.753 257.342 45.275 257.342 45.275L248.459 45.9064L248.199 45.7668C247.953 45.7532 247.719 45.726 247.503 45.6809C244.243 45.0017 243.292 44.5941 243.292 44.5941C243.292 44.5941 243.182 50.6639 243.16 52.856C243.749 52.694 244.396 52.5027 245.127 52.2675Z" stroke="#1A2E35" stroke-width="1.5" stroke-miterlimit="10" stroke-linecap="round" stroke-linejoin="round"/>
<path d="M241.39 32.4032C241.39 32.4032 240.302 30.228 239.758 32.4032C239.214 34.5785 241.208 37.6606 241.208 37.6606L241.39 32.4032Z" fill="white"/>
<path d="M241.39 32.4032C241.39 32.4032 240.302 30.228 239.758 32.4032C239.214 34.5785 241.208 37.6606 241.208 37.6606L241.39 32.4032Z" stroke="#1A2E35" stroke-width="1.5" stroke-miterlimit="10" stroke-linecap="round" stroke-linejoin="round"/>
<path d="M241.567 24.0637C241.567 24.0637 240.66 35.4849 240.66 38.9295C240.66 42.3742 244.468 48.1755 246.643 49.4443C248.819 50.7132 255.344 46.9067 257.339 45.2748C259.333 43.643 260.965 39.292 261.146 38.3856C261.327 37.4792 263.866 30.953 263.866 30.953C263.866 30.953 267.854 25.3326 265.134 20.4382C262.415 15.5432 250.994 16.2681 247.549 18.2624C244.105 20.2567 241.567 24.0637 241.567 24.0637Z" fill="white"/>
<path d="M241.567 24.0637C241.567 24.0637 240.66 35.4849 240.66 38.9295C240.66 42.3742 244.468 48.1755 246.643 49.4443C248.819 50.7132 255.344 46.9067 257.339 45.2748C259.333 43.643 260.965 39.292 261.146 38.3856C261.327 37.4792 263.866 30.953 263.866 30.953C263.866 30.953 267.854 25.3326 265.134 20.4382C262.415 15.5432 250.994 16.2681 247.549 18.2624C244.105 20.2567 241.567 24.0637 241.567 24.0637Z" stroke="#1A2E35" stroke-width="1.5" stroke-miterlimit="10" stroke-linecap="round" stroke-linejoin="round"/>
<path d="M249.108 31.7098C249.108 31.7098 247.011 38.7566 247.85 39.344C248.689 39.9309 251.541 38.7566 251.541 38.7566" stroke="#1A2E35" stroke-width="1.5" stroke-miterlimit="10" stroke-linecap="round" stroke-linejoin="round"/>
<path d="M245.746 41.1896C245.746 41.1896 247.089 43.7061 252.038 42.3639" stroke="#1A2E35" stroke-width="1.5" stroke-miterlimit="10" stroke-linecap="round" stroke-linejoin="round"/>
<path d="M254.314 33.589C254.193 34.2732 253.799 34.7758 253.433 34.7106C253.069 34.646 252.872 34.039 252.993 33.3543C253.114 32.6701 253.509 32.168 253.873 32.2327C254.238 32.2979 254.436 32.9049 254.314 33.589Z" fill="#1A2E35"/>
<path d="M245.764 31.811C245.642 32.4951 245.248 32.9977 244.883 32.9325C244.518 32.8679 244.321 32.2609 244.442 31.5762C244.564 30.8921 244.958 30.39 245.323 30.4546C245.687 30.5198 245.885 31.1268 245.764 31.811Z" fill="#1A2E35"/>
<path d="M253.887 29.1929C253.887 29.1929 256.487 28.7734 257.159 30.9546" stroke="#1A2E35" stroke-width="1.5" stroke-miterlimit="10" stroke-linecap="round" stroke-linejoin="round"/>
<path d="M244.574 28.3542C244.574 28.3542 247.091 27.3473 248.601 28.3542" stroke="#1A2E35" stroke-width="1.5" stroke-miterlimit="10" stroke-linecap="round" stroke-linejoin="round"/>
<path d="M260.967 36.9355C260.967 36.9355 263.686 33.6724 264.774 36.3921C265.862 39.1113 263.686 40.7426 262.236 41.649C260.785 42.5553 258.973 40.1986 258.973 40.1986" fill="white"/>
<path d="M260.967 36.9355C260.967 36.9355 263.686 33.6724 264.774 36.3921C265.862 39.1113 263.686 40.7426 262.236 41.649C260.785 42.5553 258.973 40.1986 258.973 40.1986" stroke="#1A2E35" stroke-width="1.5" stroke-miterlimit="10" stroke-linecap="round" stroke-linejoin="round"/>
<path d="M241.568 18.8066C241.568 18.8066 237.217 19.1691 237.036 21.8883C236.855 24.608 241.568 28.2335 247.914 26.0583C254.259 23.8825 256.978 23.1576 256.978 23.1576C256.978 23.1576 254.44 24.245 256.978 26.0583C259.516 27.8711 259.879 26.7832 259.879 26.7832C259.879 26.7832 258.791 28.415 259.879 30.4093C260.967 32.403 261.511 32.947 261.511 32.947C261.511 32.947 260.241 36.7541 260.967 36.9355C261.691 37.117 263.686 33.4909 263.686 33.4909C263.686 33.4909 267.312 30.0469 268.218 24.9704C269.125 19.894 265.68 14.0932 258.61 11.1925C251.54 8.29184 242.656 8.83524 240.299 11.7359C237.943 14.6371 241.568 18.8066 241.568 18.8066Z" fill="#1A2E35"/>
<path d="M241.568 18.8066C241.568 18.8066 237.217 19.1691 237.036 21.8883C236.855 24.608 241.568 28.2335 247.914 26.0583C254.259 23.8825 256.978 23.1576 256.978 23.1576C256.978 23.1576 254.44 24.245 256.978 26.0583C259.516 27.8711 259.879 26.7832 259.879 26.7832C259.879 26.7832 258.791 28.415 259.879 30.4093C260.967 32.403 261.511 32.947 261.511 32.947C261.511 32.947 260.241 36.7541 260.967 36.9355C261.691 37.117 263.686 33.4909 263.686 33.4909C263.686 33.4909 267.312 30.0469 268.218 24.9704C269.125 19.894 265.68 14.0932 258.61 11.1925C251.54 8.29184 242.656 8.83524 240.299 11.7359C237.943 14.6371 241.568 18.8066 241.568 18.8066Z" stroke="#1A2E35" stroke-width="1.5" stroke-miterlimit="10" stroke-linecap="round" stroke-linejoin="round"/>
<path d="M266.791 75.975L269.237 91.5978C269.237 91.5978 259.456 92.1412 254.837 92.6846C252.703 92.9356 243.018 93.4997 243.018 93.4997C243.018 93.4997 238.942 91.7336 237.991 91.7336C237.04 91.7336 235.546 92.9563 233.644 94.0431C231.742 95.1299 229.433 95.1299 230.655 95.945C231.878 96.7601 232.829 96.0808 234.459 95.5374C236.089 94.994 238.263 94.994 238.263 94.994C238.263 94.994 234.052 98.3903 233.236 98.662C232.421 98.9337 225.493 98.7978 225.357 99.4771C225.221 100.156 233.372 101.922 235.274 101.922C237.176 101.922 244.648 97.711 244.648 97.711C244.648 97.711 263.553 101.682 268.014 101.243C276.301 100.428 280.376 98.2544 281.599 96.4884C282.822 94.7223 275.305 62.3449 274.49 60.5788C273.675 58.8128 270.052 57.4087 270.052 57.4087" fill="#6B6B6B"/>
<path d="M266.791 75.975L269.237 91.5978C269.237 91.5978 259.456 92.1412 254.837 92.6846C252.703 92.9356 243.018 93.4997 243.018 93.4997C243.018 93.4997 238.942 91.7336 237.991 91.7336C237.04 91.7336 235.546 92.9563 233.644 94.0431C231.742 95.1299 229.433 95.1299 230.655 95.945C231.878 96.7601 232.829 96.0808 234.459 95.5374C236.089 94.994 238.263 94.994 238.263 94.994C238.263 94.994 234.052 98.3903 233.236 98.662C232.421 98.9337 225.493 98.7978 225.357 99.4771C225.221 100.156 233.372 101.922 235.274 101.922C237.176 101.922 244.648 97.711 244.648 97.711C244.648 97.711 263.553 101.682 268.014 101.243C276.301 100.428 280.376 98.2544 281.599 96.4884C282.822 94.7223 275.305 62.3449 274.49 60.5788C273.675 58.8128 270.052 57.4087 270.052 57.4087" stroke="#1A2E35" stroke-width="1.5" stroke-miterlimit="10" stroke-linecap="round" stroke-linejoin="round"/>
<path d="M276.352 92.1703C276.72 92.2904 277.085 92.4295 277.443 92.5898" stroke="#1A2E35" stroke-width="1.5" stroke-miterlimit="10" stroke-linecap="round" stroke-linejoin="round"/>
<path d="M269.238 91.598C269.238 91.598 272.073 91.1779 275.087 91.8306" stroke="#1A2E35" stroke-width="1.5" stroke-miterlimit="10" stroke-linecap="round" stroke-linejoin="round"/>
<path d="M272.641 90.1908C272.641 90.1908 276.148 89.4524 277.994 91.1135" stroke="#1A2E35" stroke-width="1.5" stroke-miterlimit="10" stroke-linecap="round" stroke-linejoin="round"/>
<path d="M243.018 93.4997C243.018 93.4997 238.942 91.7336 237.991 91.7336C237.04 91.7336 235.546 92.9563 233.644 94.0431C231.742 95.1299 229.433 95.1299 230.655 95.945C231.878 96.7601 232.829 96.0808 234.459 95.5374C236.089 94.994 238.263 94.994 238.263 94.994C238.263 94.994 234.052 98.3903 233.236 98.662C232.421 98.9337 225.493 98.7978 225.357 99.4771C225.221 100.156 233.372 101.922 235.274 101.922C237.176 101.922 244.648 97.711 244.648 97.711C244.648 97.711 252.326 99.3227 259.051 100.38C260.149 96.8171 258.997 93.6246 258.403 92.3379C257.074 92.4498 255.835 92.5672 254.837 92.6846C252.703 92.9356 243.018 93.4997 243.018 93.4997Z" fill="white"/>
<path d="M243.018 93.4997C243.018 93.4997 238.942 91.7336 237.991 91.7336C237.04 91.7336 235.546 92.9563 233.644 94.0431C231.742 95.1299 229.433 95.1299 230.655 95.945C231.878 96.7601 232.829 96.0808 234.459 95.5374C236.089 94.994 238.263 94.994 238.263 94.994C238.263 94.994 234.052 98.3903 233.236 98.662C232.421 98.9337 225.493 98.7978 225.357 99.4771C225.221 100.156 233.372 101.922 235.274 101.922C237.176 101.922 244.648 97.711 244.648 97.711C244.648 97.711 252.326 99.3227 259.051 100.38C260.149 96.8171 258.997 93.6246 258.403 92.3379C257.074 92.4498 255.835 92.5672 254.837 92.6846C252.703 92.9356 243.018 93.4997 243.018 93.4997Z" stroke="#1A2E35" stroke-width="1.5" stroke-miterlimit="10" stroke-linecap="round" stroke-linejoin="round"/>
<path d="M207.843 22.1C207.843 22.1 199.273 23.6427 198.073 31.0128C196.873 38.3835 201.673 40.9543 203.386 41.8112C205.1 42.6687 207.157 43.0111 207.157 43.0111C207.157 43.0111 207.329 45.4107 205.957 47.8104C204.586 50.21 199.958 54.3236 200.473 58.4377C200.987 62.5512 204.243 64.608 204.243 66.3219C204.243 68.0363 201.158 70.6071 202.53 74.2066C203.901 77.8061 208.7 81.0627 217.956 83.8052C227.211 86.5478 234.581 81.7484 235.952 76.778C237.324 71.8069 235.267 68.0363 235.781 65.122C236.295 62.2083 238.01 62.3795 238.01 57.409C238.01 52.4385 233.553 51.4099 233.553 46.9534C233.553 42.497 237.495 39.7545 235.781 30.3276C234.067 20.9001 225.154 17.4718 218.641 17.4718C212.128 17.4718 207.843 22.1 207.843 22.1Z" fill="#1A2E35"/>
<path d="M207.843 22.1C207.843 22.1 199.273 23.6427 198.073 31.0128C196.873 38.3835 201.673 40.9543 203.386 41.8112C205.1 42.6687 207.157 43.0111 207.157 43.0111C207.157 43.0111 207.329 45.4107 205.957 47.8104C204.586 50.21 199.958 54.3236 200.473 58.4377C200.987 62.5512 204.243 64.608 204.243 66.3219C204.243 68.0363 201.158 70.6071 202.53 74.2066C203.901 77.8061 208.7 81.0627 217.956 83.8052C227.211 86.5478 234.581 81.7484 235.952 76.778C237.324 71.8069 235.267 68.0363 235.781 65.122C236.295 62.2083 238.01 62.3795 238.01 57.409C238.01 52.4385 233.553 51.4099 233.553 46.9534C233.553 42.497 237.495 39.7545 235.781 30.3276C234.067 20.9001 225.154 17.4718 218.641 17.4718C212.128 17.4718 207.843 22.1 207.843 22.1Z" stroke="#1A2E35" stroke-width="1.5" stroke-miterlimit="10" stroke-linecap="round" stroke-linejoin="round"/>
<path d="M197.917 99.0069C197.917 99.0069 193.02 122.906 192.824 133.68C192.629 144.454 199.876 178.147 200.464 182.456C201.052 186.766 203.598 204.2 203.598 204.2C203.598 204.2 197.722 209.686 196.742 210.077C195.762 210.469 194.195 211.253 194.783 211.84C195.371 212.428 196.35 212.428 200.073 212.036C203.794 211.644 208.887 212.036 209.671 211.057C210.454 210.077 209.279 202.437 209.279 202.437C209.279 202.437 209.671 177.167 209.671 172.662C209.671 168.157 208.496 146.217 208.496 145.042V133.876C208.496 133.876 211.826 163.063 212.217 166.002C212.609 168.94 215.352 201.85 215.352 203.025C215.352 204.2 214.764 208.118 214.764 209.881C214.764 211.644 214.372 214.387 215.744 215.562C217.115 216.737 221.033 216.542 221.62 213.211C222.208 209.881 220.053 203.417 220.053 201.066C220.053 198.715 224.363 178.735 223.775 169.136C223.187 159.537 222.992 152.289 223.187 150.33C223.383 148.372 225.146 130.938 225.342 130.154C225.538 129.37 225.342 106.451 224.167 104.296C222.992 102.142 219.465 97.4397 219.465 97.4397L199.093 97.2441L197.917 99.0069Z" fill="white"/>
<path d="M197.917 99.0069C197.917 99.0069 193.02 122.906 192.824 133.68C192.629 144.454 199.876 178.147 200.464 182.456C201.052 186.766 203.598 204.2 203.598 204.2C203.598 204.2 197.722 209.686 196.742 210.077C195.762 210.469 194.195 211.253 194.783 211.84C195.371 212.428 196.35 212.428 200.073 212.036C203.794 211.644 208.887 212.036 209.671 211.057C210.454 210.077 209.279 202.437 209.279 202.437C209.279 202.437 209.671 177.167 209.671 172.662C209.671 168.157 208.496 146.217 208.496 145.042V133.876C208.496 133.876 211.826 163.063 212.217 166.002C212.609 168.94 215.352 201.85 215.352 203.025C215.352 204.2 214.764 208.118 214.764 209.881C214.764 211.644 214.372 214.387 215.744 215.562C217.115 216.737 221.033 216.542 221.62 213.211C222.208 209.881 220.053 203.417 220.053 201.066C220.053 198.715 224.363 178.735 223.775 169.136C223.187 159.537 222.992 152.289 223.187 150.33C223.383 148.372 225.146 130.938 225.342 130.154C225.538 129.37 225.342 106.451 224.167 104.296C222.992 102.142 219.465 97.4397 219.465 97.4397L199.093 97.2441L197.917 99.0069Z" stroke="#1A2E35" stroke-width="1.5" stroke-miterlimit="10" stroke-linecap="round" stroke-linejoin="round"/>
<path d="M206.342 206.354L205.559 205.375C204.775 204.396 203.6 204.2 203.6 204.2C203.6 204.2 197.723 209.685 196.744 210.077C195.764 210.468 194.197 211.252 194.785 211.839C195.373 212.427 196.352 212.427 200.074 212.035C203.795 211.643 208.889 212.035 209.673 211.056C210.047 210.588 209.974 208.601 209.796 206.652C208.129 206.946 206.342 206.354 206.342 206.354Z" fill="white"/>
<path d="M206.342 206.354L205.559 205.375C204.775 204.396 203.6 204.2 203.6 204.2C203.6 204.2 197.723 209.685 196.744 210.077C195.764 210.468 194.197 211.252 194.785 211.839C195.373 212.427 196.352 212.427 200.074 212.035C203.795 211.643 208.889 212.035 209.673 211.056C210.047 210.588 209.974 208.601 209.796 206.652C208.129 206.946 206.342 206.354 206.342 206.354Z" stroke="#1A2E35" stroke-width="1.5" stroke-miterlimit="10" stroke-linecap="round" stroke-linejoin="round"/>
<path d="M217.705 205.179C216.114 204.915 215.333 206.083 214.992 206.867C214.872 208.011 214.767 209.138 214.767 209.881C214.767 211.644 214.375 214.386 215.746 215.562C217.117 216.738 221.035 216.541 221.623 213.211C221.934 211.45 221.477 208.814 220.978 206.371C220.52 206.071 219.433 205.467 217.705 205.179Z" fill="white"/>
<path d="M217.705 205.179C216.114 204.915 215.333 206.083 214.992 206.867C214.872 208.011 214.767 209.138 214.767 209.881C214.767 211.644 214.375 214.386 215.746 215.562C217.117 216.738 221.035 216.541 221.623 213.211C221.934 211.45 221.477 208.814 220.978 206.371C220.52 206.071 219.433 205.467 217.705 205.179Z" stroke="#1A2E35" stroke-width="1.5" stroke-miterlimit="10" stroke-linecap="round" stroke-linejoin="round"/>
<path d="M219.466 97.4397L199.093 97.244L197.918 99.0068C197.918 99.0068 193.02 122.906 192.824 133.68C192.628 144.454 199.876 178.147 200.464 182.456C200.893 185.603 202.365 195.74 203.13 200.986C204.692 201.427 206.91 201.734 209.3 201.053C209.382 195.71 209.671 176.53 209.671 172.662C209.671 168.157 208.496 146.217 208.496 145.042V133.876C208.496 133.876 211.825 163.063 212.217 166.002C212.561 168.579 214.713 194.219 215.237 201.269C216.429 201.695 218.162 202.036 220.076 201.526C220.062 201.36 220.053 201.205 220.053 201.066C220.053 198.715 224.363 178.734 223.775 169.135C223.187 159.537 222.991 152.289 223.187 150.33C223.383 148.371 225.146 130.938 225.342 130.153C225.538 129.37 225.342 106.451 224.166 104.296C222.991 102.141 219.466 97.4397 219.466 97.4397Z" fill="#1A2E35"/>
<path d="M219.466 97.4397L199.093 97.244L197.918 99.0068C197.918 99.0068 193.02 122.906 192.824 133.68C192.628 144.454 199.876 178.147 200.464 182.456C200.893 185.603 202.365 195.74 203.13 200.986C204.692 201.427 206.91 201.734 209.3 201.053C209.382 195.71 209.671 176.53 209.671 172.662C209.671 168.157 208.496 146.217 208.496 145.042V133.876C208.496 133.876 211.825 163.063 212.217 166.002C212.561 168.579 214.713 194.219 215.237 201.269C216.429 201.695 218.162 202.036 220.076 201.526C220.062 201.36 220.053 201.205 220.053 201.066C220.053 198.715 224.363 178.734 223.775 169.135C223.187 159.537 222.991 152.289 223.187 150.33C223.383 148.371 225.146 130.938 225.342 130.153C225.538 129.37 225.342 106.451 224.166 104.296C222.991 102.141 219.466 97.4397 219.466 97.4397Z" stroke="#1A2E35" stroke-width="1.5" stroke-miterlimit="10" stroke-linecap="round" stroke-linejoin="round"/>
<path d="M211.103 54.1527L211.274 58.7809C211.274 58.7809 208.874 59.9807 207.674 59.9807C206.475 59.9807 205.618 59.809 205.618 59.809L200.99 98.7175C200.99 98.7175 199.104 100.603 208.36 101.289C217.616 101.974 220.701 99.4033 220.701 99.4033L221.73 60.1519L219.33 58.2663L219.159 51.0673C219.159 51.0673 216.073 52.4389 211.103 54.1527Z" fill="white"/>
<path d="M211.103 54.1527L211.274 58.7809C211.274 58.7809 208.874 59.9807 207.674 59.9807C206.475 59.9807 205.618 59.809 205.618 59.809L200.99 98.7175C200.99 98.7175 199.104 100.603 208.36 101.289C217.616 101.974 220.701 99.4033 220.701 99.4033L221.73 60.1519L219.33 58.2663L219.159 51.0673C219.159 51.0673 216.073 52.4389 211.103 54.1527Z" stroke="#1A2E35" stroke-width="1.5" stroke-miterlimit="10" stroke-linecap="round" stroke-linejoin="round"/>
<path d="M219.156 51.0672C219.156 51.0672 216.071 52.4382 211.1 54.1526L211.271 58.7802C211.271 58.7802 208.872 59.98 207.672 59.98C207.31 59.98 206.985 59.9643 206.699 59.942C207.857 62.6373 211.613 68.1837 221.672 62.2683L221.727 60.1518L219.327 58.2662L219.156 51.0672Z" fill="white"/>
<path d="M219.156 51.0672C219.156 51.0672 216.071 52.4382 211.1 54.1526L211.271 58.7802C211.271 58.7802 208.872 59.98 207.672 59.98C207.31 59.98 206.985 59.9643 206.699 59.942C207.857 62.6373 211.613 68.1837 221.672 62.2683L221.727 60.1518L219.327 58.2662L219.156 51.0672Z" stroke="#1A2E35" stroke-width="1.5" stroke-miterlimit="10" stroke-linecap="round" stroke-linejoin="round"/>
<path d="M219.154 51.0673C219.154 51.0673 216.068 52.4382 211.098 54.1527L211.269 58.7803C213.906 57.4924 218.023 53.9103 219.196 52.867L219.154 51.0673Z" fill="#1A2E35"/>
<path d="M219.154 51.0673C219.154 51.0673 216.068 52.4382 211.098 54.1527L211.269 58.7803C213.906 57.4924 218.023 53.9103 219.196 52.867L219.154 51.0673Z" stroke="#1A2E35" stroke-width="1.5" stroke-miterlimit="10" stroke-linecap="round" stroke-linejoin="round"/>
<path d="M204.756 34.784C204.756 34.784 204.07 46.0965 204.927 47.8104C205.785 49.5243 209.212 55.524 211.612 56.038C214.012 56.5521 221.725 51.4099 222.582 49.696C223.438 47.9821 223.267 40.2691 222.753 39.5833C222.239 38.8976 216.583 34.9552 214.526 32.2132C212.469 29.4707 211.269 26.8993 211.269 26.8993C211.269 26.8993 207.841 32.5555 204.756 34.784Z" fill="white"/>
<path d="M204.756 34.784C204.756 34.784 204.07 46.0965 204.927 47.8104C205.785 49.5243 209.212 55.524 211.612 56.038C214.012 56.5521 221.725 51.4099 222.582 49.696C223.438 47.9821 223.267 40.2691 222.753 39.5833C222.239 38.8976 216.583 34.9552 214.526 32.2132C212.469 29.4707 211.269 26.8993 211.269 26.8993C211.269 26.8993 207.841 32.5555 204.756 34.784Z" stroke="#1A2E35" stroke-width="1.5" stroke-miterlimit="10" stroke-linecap="round" stroke-linejoin="round"/>
<path d="M210.443 39.1914C210.443 39.1914 208.579 45.4541 209.324 45.9763C210.07 46.498 212.605 45.4541 212.605 45.4541" stroke="#1A2E35" stroke-width="1.5" stroke-miterlimit="10" stroke-linecap="round" stroke-linejoin="round"/>
<path d="M209.383 47.9821C209.383 47.9821 212.982 49.3531 215.382 47.468C215.382 47.468 213.668 51.5815 212.297 51.5815C210.926 51.5815 209.383 47.9821 209.383 47.9821Z" stroke="#1A2E35" stroke-width="1.5" stroke-miterlimit="10" stroke-linecap="round" stroke-linejoin="round"/>
<path d="M216.253 40.8612C216.145 41.4693 215.794 41.9154 215.471 41.8578C215.146 41.8007 214.971 41.2606 215.079 40.6525C215.186 40.0445 215.537 39.5978 215.861 39.6554C216.186 39.7135 216.361 40.2531 216.253 40.8612Z" fill="#1A2E35"/>
<path d="M208.472 39.3126C208.364 39.9212 208.014 40.3673 207.69 40.3097C207.365 40.2521 207.19 39.7125 207.297 39.1039C207.405 38.4958 207.756 38.0497 208.08 38.1073C208.405 38.1649 208.58 38.7045 208.472 39.3126Z" fill="#1A2E35"/>
<path d="M214.695 36.9541C214.695 36.9541 217.099 35.9836 218.813 39.2407" stroke="#1A2E35" stroke-width="1.5" stroke-miterlimit="10" stroke-linecap="round" stroke-linejoin="round"/>
<path d="M206.422 36.2085C206.422 36.2085 208.659 35.3141 210.001 36.2085" stroke="#1A2E35" stroke-width="1.5" stroke-miterlimit="10" stroke-linecap="round" stroke-linejoin="round"/>
<path d="M198.734 59.4016C198.734 59.4016 196.652 58.3148 195.021 60.2167C193.391 62.1186 184.153 79.6883 183.972 80.5034C183.791 81.3185 183.701 83.8546 184.244 84.1263C184.788 84.398 187.414 85.1223 189.406 85.1223C191.399 85.1223 192.757 81.5902 193.663 80.5034C194.569 79.4166 197.648 72.2622 197.648 72.2622" fill="#39D192"/>
<path d="M198.734 59.4016C198.734 59.4016 196.652 58.3148 195.021 60.2167C193.391 62.1186 184.153 79.6883 183.972 80.5034C183.791 81.3185 183.701 83.8546 184.244 84.1263C184.788 84.398 187.414 85.1223 189.406 85.1223C191.399 85.1223 192.757 81.5902 193.663 80.5034C194.569 79.4166 197.648 72.2622 197.648 72.2622" stroke="#1A2E35" stroke-width="1.5" stroke-miterlimit="10" stroke-linecap="round" stroke-linejoin="round"/>
<path d="M211.099 57.9236C211.099 57.9236 208.185 60.8373 208.185 64.2656C208.185 67.6934 208.871 70.2647 208.871 70.2647L203.729 111.23L198.929 140.712C198.929 140.712 190.359 136.598 188.816 132.999C188.816 132.999 192.073 105.231 193.787 99.0606C195.501 92.8897 196.358 88.0904 196.872 81.9201C197.387 75.7498 196.701 59.2945 196.701 59.2945L208.014 58.4376C208.014 58.4376 210.928 57.0666 211.099 57.9236Z" fill="#39D192"/>
<path d="M211.099 57.9236C211.099 57.9236 208.185 60.8373 208.185 64.2656C208.185 67.6934 208.871 70.2647 208.871 70.2647L203.729 111.23L198.929 140.712C198.929 140.712 190.359 136.598 188.816 132.999C188.816 132.999 192.073 105.231 193.787 99.0606C195.501 92.8897 196.358 88.0904 196.872 81.9201C197.387 75.7498 196.701 59.2946 196.701 59.2946L208.014 58.4376C208.014 58.4376 210.928 57.0666 211.099 57.9236V57.9236Z" stroke="#1A2E35" stroke-width="1.5" stroke-miterlimit="10" stroke-linecap="round" stroke-linejoin="round"/>
<path d="M196.902 137.235L201.585 114.645L204.616 92.7448" fill="#39D192"/>
<path d="M196.902 137.235L201.585 114.645L204.616 92.7448" stroke="#1A2E35" stroke-width="1.5" stroke-miterlimit="10" stroke-linecap="round"/>
<path d="M204.891 90.9539L205.58 85.8579L204.891 90.9539Z" fill="#39D192"/>
<path d="M204.891 90.9539L205.58 85.8579" stroke="#1A2E35" stroke-width="1.5" stroke-miterlimit="10" stroke-linecap="round"/>
<path d="M208.994 58.0324C208.452 58.234 208.017 58.4378 208.017 58.4378L207.382 58.4856C207.094 58.7801 206.842 59.2333 206.701 59.9425C206.194 62.503 205.99 63.8658 204.246 66.3225C202.503 68.7787 201.211 70.9941 201.211 70.9941L207.671 70.6246L208.863 70.354L208.874 70.2649C208.874 70.2649 208.189 67.6935 208.189 64.2658C208.189 60.8374 211.102 57.9237 211.102 57.9237C211.038 57.6042 210.593 57.595 210.06 57.708L209.148 58.0732C209.148 58.0732 209.089 58.0531 208.994 58.0324Z" fill="#39D192"/>
<path d="M208.994 58.0324C208.452 58.234 208.017 58.4378 208.017 58.4378L207.382 58.4856C207.094 58.7801 206.842 59.2333 206.701 59.9425C206.194 62.503 205.99 63.8658 204.246 66.3225C202.503 68.7787 201.211 70.9941 201.211 70.9941L207.671 70.6246L208.863 70.354L208.874 70.2649C208.874 70.2649 208.189 67.6935 208.189 64.2658C208.189 60.8374 211.102 57.9237 211.102 57.9237C211.038 57.6042 210.593 57.595 210.06 57.708L209.148 58.0732C209.148 58.0732 209.089 58.0531 208.994 58.0324Z" stroke="#1A2E35" stroke-width="1.5" stroke-miterlimit="10" stroke-linecap="round" stroke-linejoin="round"/>
<path d="M198.992 77.0851L206.929 78.3767L206.376 81.5149L201.576 83.176L198.254 79.4847L198.992 77.0851Z" fill="#39D192"/>
<path d="M198.992 77.0851L206.929 78.3767L206.376 81.5149L201.576 83.176L198.254 79.4847L198.992 77.0851Z" stroke="#1A2E35" stroke-width="1.5" stroke-miterlimit="10" stroke-linecap="round" stroke-linejoin="round"/>
<path d="M219.324 58.2661C219.324 58.2661 220.01 64.4364 218.638 67.1789C217.267 69.9215 214.011 70.9501 214.011 70.9501L213.668 141.054C213.668 141.054 219.153 139.169 222.067 137.969C224.98 136.769 229.265 131.798 229.265 131.798C229.265 131.798 227.894 103.174 227.722 99.5743C227.551 95.9748 227.208 90.3186 227.208 90.3186C227.208 90.3186 232.179 62.8942 230.979 61.6944C229.779 60.4946 221.21 58.609 221.21 58.609C221.21 58.609 220.01 57.752 219.324 58.2661Z" fill="#39D192"/>
<path d="M219.324 58.2661C219.324 58.2661 220.01 64.4364 218.638 67.1789C217.267 69.9215 214.011 70.9501 214.011 70.9501L213.668 141.054C213.668 141.054 219.153 139.169 222.067 137.969C224.98 136.769 229.265 131.798 229.265 131.798C229.265 131.798 227.894 103.174 227.722 99.5743C227.551 95.9748 227.208 90.3186 227.208 90.3186C227.208 90.3186 232.179 62.8942 230.979 61.6944C229.779 60.4946 221.21 58.609 221.21 58.609C221.21 58.609 220.01 57.752 219.324 58.2661Z" stroke="#1A2E35" stroke-width="1.5" stroke-miterlimit="10" stroke-linecap="round" stroke-linejoin="round"/>
<path d="M215.777 84.8938L216.053 110.927L215.777 84.8938Z" fill="#39D192"/>
<path d="M215.777 84.8938L216.053 110.927" stroke="#1A2E35" stroke-width="1.5" stroke-miterlimit="10" stroke-linecap="round"/>
<path d="M216.184 113.957V123.185V113.957Z" fill="#39D192"/>
<path d="M216.184 113.957V123.185" stroke="#1A2E35" stroke-width="1.5" stroke-miterlimit="10" stroke-linecap="round"/>
<path d="M216.324 138.888V124.839V138.888Z" fill="#39D192"/>
<path d="M216.324 138.888V124.839" stroke="#1A2E35" stroke-width="1.5" stroke-miterlimit="10" stroke-linecap="round"/>
<path d="M214.012 70.9503L222.433 72.4707C222.433 72.4707 221.072 60.4898 221.141 59.5497C221.163 59.2476 220.942 58.7781 220.608 58.2798C220.209 58.1103 219.693 57.9902 219.325 58.2662C219.325 58.2662 220.011 64.4371 218.64 67.1796C217.268 69.9216 214.012 70.9503 214.012 70.9503Z" fill="#39D192"/>
<path d="M214.012 70.9503L222.433 72.4707C222.433 72.4707 221.072 60.4898 221.141 59.5497C221.163 59.2476 220.942 58.7781 220.608 58.2798C220.209 58.1103 219.693 57.9902 219.325 58.2662C219.325 58.2662 220.011 64.4371 218.64 67.1796C217.268 69.9216 214.012 70.9503 214.012 70.9503Z" stroke="#1A2E35" stroke-width="1.5" stroke-miterlimit="10" stroke-linecap="round" stroke-linejoin="round"/>
<path d="M215.321 79.2152L223.279 80.3667L222.781 83.5135L218.013 85.26L214.625 81.6274L215.321 79.2152Z" fill="#39D192"/>
<path d="M215.321 79.2152L223.279 80.3667L222.781 83.5135L218.013 85.26L214.625 81.6274L215.321 79.2152Z" stroke="#1A2E35" stroke-width="1.5" stroke-miterlimit="10" stroke-linecap="round" stroke-linejoin="round"/>
<path d="M225.496 68.208L222.754 90.1478C222.754 90.1478 225.496 94.4325 227.039 96.1469C228.582 97.8608 229.782 98.7178 229.782 98.7178C229.782 98.7178 230.81 96.8322 230.81 89.8049C230.81 82.7777 232.353 64.7797 231.667 62.7229C230.982 60.6662 226.867 60.1521 226.867 60.1521" fill="#39D192"/>
<path d="M225.496 68.208L222.754 90.1478C222.754 90.1478 225.496 94.4325 227.039 96.1469C228.582 97.8608 229.782 98.7178 229.782 98.7178C229.782 98.7178 230.81 96.8322 230.81 89.8049C230.81 82.7777 232.353 64.7797 231.667 62.723C230.982 60.6662 226.867 60.1521 226.867 60.1521" stroke="#1A2E35" stroke-width="1.5" stroke-miterlimit="10" stroke-linecap="round" stroke-linejoin="round"/>
<path d="M217.954 69.7501C217.954 69.7501 223.096 61.8653 223.096 61.0084C223.096 60.1514 219.668 57.5801 219.668 57.5801C219.668 57.5801 215.384 58.0947 215.384 58.6087C215.384 59.1228 215.041 59.8085 215.041 61.0084C215.041 62.2082 216.069 61.8653 216.069 61.8653C216.069 61.8653 213.669 68.2073 213.841 69.5789C214.012 70.9499 215.726 73.0067 215.726 73.0067C215.726 73.0067 221.897 94.0895 222.924 96.4891C223.953 98.8888 228.066 100.603 229.781 98.0313C230.657 96.7163 230.809 93.0608 228.581 89.6325C226.353 86.2048 217.954 69.7501 217.954 69.7501Z" fill="white"/>
<path d="M217.954 69.7501C217.954 69.7501 223.096 61.8653 223.096 61.0084C223.096 60.1514 219.668 57.5801 219.668 57.5801C219.668 57.5801 215.384 58.0947 215.384 58.6087C215.384 59.1228 215.041 59.8085 215.041 61.0084C215.041 62.2082 216.069 61.8653 216.069 61.8653C216.069 61.8653 213.669 68.2073 213.841 69.5789C214.012 70.9499 215.726 73.0067 215.726 73.0067C215.726 73.0067 221.897 94.0895 222.924 96.4891C223.953 98.8888 228.066 100.603 229.781 98.0313C230.657 96.7163 230.809 93.0608 228.581 89.6325C226.353 86.2048 217.954 69.7501 217.954 69.7501Z" stroke="#1A2E35" stroke-width="1.5" stroke-miterlimit="10" stroke-linecap="round" stroke-linejoin="round"/>
<path d="M216.434 58.1711C216.434 58.1711 218.63 59.5079 219.012 59.9855C219.394 60.4632 219.585 61.3223 219.585 61.3223" stroke="#1A2E35" stroke-width="1.5" stroke-miterlimit="10" stroke-linecap="round" stroke-linejoin="round"/>
<path d="M218.059 58.0758C218.059 58.0758 220.732 59.3174 220.541 61.1318" stroke="#1A2E35" stroke-width="1.5" stroke-miterlimit="10" stroke-linecap="round" stroke-linejoin="round"/>
<path d="M218.824 57.6936C218.824 57.6936 222.071 59.3167 222.071 60.6541" stroke="#1A2E35" stroke-width="1.5" stroke-miterlimit="10" stroke-linecap="round" stroke-linejoin="round"/>
<path d="M216.068 61.8657L216.723 60.9403L216.055 60.1763" stroke="#1A2E35" stroke-width="1.5" stroke-miterlimit="10" stroke-linecap="round" stroke-linejoin="round"/>
<path d="M229.782 98.0317C230.659 96.7167 230.811 93.0612 228.582 89.6329C227.572 88.0777 225.291 83.8414 223.101 79.6767C222.365 80.7277 221.034 82.0547 218.695 83.0268C220.432 88.8287 222.387 95.2299 222.926 96.489C223.954 98.8887 228.068 100.603 229.782 98.0317Z" fill="#39D192"/>
<path d="M229.782 98.0317C230.659 96.7167 230.811 93.0612 228.582 89.6329C227.572 88.0777 225.291 83.8414 223.101 79.6767C222.365 80.7277 221.034 82.0547 218.695 83.0268C220.432 88.8287 222.387 95.2299 222.926 96.489C223.954 98.8887 228.068 100.603 229.782 98.0317Z" stroke="#1A2E35" stroke-width="1.5" stroke-miterlimit="10" stroke-linecap="round" stroke-linejoin="round"/>
<path d="M204.583 53.4672L204.512 53.3895L204.179 52.632C204.179 52.632 205.728 50.4529 205.873 50.0655C206.019 49.6786 206.019 49.0004 205.438 49.0004C205.137 49.0004 204.16 49.9242 203.287 50.8143L204.926 47.8109C204.926 47.1251 201.497 47.9821 200.469 49.1819C199.441 50.3817 198.241 53.6383 198.241 53.6383L202.183 62.7229C202.183 62.7229 188.471 75.5781 186.585 77.4637C184.7 79.3493 183.5 81.0632 183.5 82.263C183.5 83.4629 183.672 86.3766 187.099 87.0623C190.528 87.7476 194.298 81.9201 195.155 79.3493C196.013 76.7779 206.297 62.0371 206.982 61.009C207.668 59.9804 204.583 53.4672 204.583 53.4672Z" fill="white"/>
<path d="M204.583 53.4672L204.512 53.3895L204.179 52.632C204.179 52.632 205.728 50.4529 205.873 50.0655C206.019 49.6786 206.019 49.0004 205.438 49.0004C205.137 49.0004 204.16 49.9242 203.287 50.8143L204.926 47.8109C204.926 47.1251 201.497 47.9821 200.469 49.1819C199.441 50.3817 198.241 53.6383 198.241 53.6383L202.183 62.7229C202.183 62.7229 188.471 75.5781 186.585 77.4637C184.7 79.3493 183.5 81.0632 183.5 82.263C183.5 83.4629 183.672 86.3766 187.099 87.0623C190.528 87.7476 194.298 81.9201 195.155 79.3493C196.013 76.7779 206.297 62.0371 206.982 61.009C207.668 59.9804 204.583 53.4672 204.583 53.4672Z" stroke="#1A2E35" stroke-width="1.5" stroke-miterlimit="10" stroke-linecap="round" stroke-linejoin="round"/>
<path d="M194.529 69.9159C191.037 73.2051 187.48 76.5693 186.585 77.4637C184.7 79.3493 183.5 81.0632 183.5 82.263C183.5 83.4629 183.672 86.3766 187.099 87.0623C190.528 87.7476 194.298 81.9201 195.155 79.3493C195.428 78.5299 196.66 76.4736 198.232 74.0213C196.05 72.8019 194.993 70.9978 194.529 69.9159Z" fill="#39D192"/>
<path d="M194.529 69.9159C191.037 73.2051 187.48 76.5693 186.585 77.4637C184.7 79.3493 183.5 81.0632 183.5 82.263C183.5 83.4629 183.672 86.3766 187.099 87.0623C190.528 87.7476 194.298 81.9201 195.155 79.3493C195.428 78.5299 196.66 76.4736 198.232 74.0213C196.05 72.8019 194.993 70.9978 194.529 69.9159Z" stroke="#1A2E35" stroke-width="1.5" stroke-miterlimit="10" stroke-linecap="round" stroke-linejoin="round"/>
<path d="M198.777 53.8419C198.777 53.8419 200.321 50.5744 201.765 49.5159C203.209 48.4573 205.165 47.2651 204.937 48.1508C204.709 49.0371 203.351 51.1194 202.971 51.3564C202.591 51.5933 200.571 53.1604 200.167 53.6446C199.763 54.1288 198.777 53.8419 198.777 53.8419Z" fill="white"/>
<path d="M198.777 53.8419C198.777 53.8419 200.321 50.5744 201.765 49.5159C203.209 48.4573 205.165 47.2651 204.937 48.1508C204.709 49.0371 203.351 51.1194 202.971 51.3564C202.591 51.5933 200.571 53.1604 200.167 53.6446C199.763 54.1288 198.777 53.8419 198.777 53.8419Z" stroke="#1A2E35" stroke-width="1.5" stroke-miterlimit="10" stroke-linecap="round" stroke-linejoin="round"/>
<path d="M204.662 60.0884C204.566 58.0544 200.256 55.1011 200.256 55.1011C200.256 55.1011 200.886 54.4718 201.079 53.9871C201.273 53.5029 204.42 50.5979 203.404 50.3555C202.387 50.1137 198.803 53.6002 198.803 53.6002C198.803 53.6002 198.768 53.9692 198.959 54.8288C199.15 55.6879 201.633 61.5132 201.633 61.5132" fill="white"/>
<path d="M204.662 60.0884C204.566 58.0544 200.256 55.1011 200.256 55.1011C200.256 55.1011 200.886 54.4718 201.079 53.9871C201.273 53.5029 204.42 50.5979 203.404 50.3555C202.387 50.1137 198.803 53.6002 198.803 53.6002C198.803 53.6002 198.768 53.9692 198.959 54.8288C199.15 55.6879 201.633 61.5132 201.633 61.5132" stroke="#1A2E35" stroke-width="1.5" stroke-miterlimit="10" stroke-linecap="round" stroke-linejoin="round"/>
<path d="M47.1316 161.302C47.1316 161.302 44.5635 204.314 39.1066 209.129C33.6503 213.943 33.3292 203.993 34.9344 201.104C36.5391 198.216 38.4649 198.216 38.786 203.673" stroke="#1A2E35" stroke-width="1.5" stroke-miterlimit="10" stroke-linecap="round" stroke-linejoin="round"/>
<path d="M76.7812 161.302C76.7812 161.302 77.6425 204.314 79.4733 209.129C81.304 213.943 82.9869 203.993 82.4489 201.104C81.9099 198.216 81.2643 198.216 81.1567 203.673" stroke="#1A2E35" stroke-width="1.5" stroke-miterlimit="10" stroke-linecap="round" stroke-linejoin="round"/>
<path d="M57.7249 106.746H19.207V91.3386H57.7249V106.746Z" fill="#39D192" stroke="#1A2E35" stroke-width="1.5" stroke-miterlimit="10" stroke-linecap="round" stroke-linejoin="round"/>
<path d="M19.2085 90.3759C19.2085 90.3759 21.4555 136.597 21.1343 164.202C20.8137 191.806 18.2456 210.424 12.147 210.424C6.04845 210.424 6.36906 202.72 8.93717 201.115C11.5047 199.51 14.0728 200.473 13.1099 204.325" stroke="#1A2E35" stroke-width="1.5" stroke-miterlimit="10" stroke-linecap="round" stroke-linejoin="round"/>
<path d="M58.59 90.3759C58.59 90.3759 56.3431 136.597 56.6642 164.202C56.9848 191.806 59.5529 210.424 65.6515 210.424C71.7501 210.424 71.429 202.72 68.8614 201.115C66.2933 199.51 63.7257 200.473 64.6886 204.325" stroke="#1A2E35" stroke-width="1.5" stroke-miterlimit="10" stroke-linecap="round" stroke-linejoin="round"/>
<path d="M21.1289 106.746C21.1289 106.746 38.7829 135.956 39.104 158.745C39.104 158.745 43.9186 119.585 57.7209 106.746" stroke="#1A2E35" stroke-width="1.5" stroke-miterlimit="10" stroke-linecap="round" stroke-linejoin="round"/>
<path d="M82.1205 160.029H20.8125C20.8125 160.029 26.9111 154.894 36.2195 154.894H74.4168C74.4168 154.894 80.8365 155.215 82.1205 160.029Z" fill="#39D192"/>
<path d="M82.1205 160.029H20.8125C20.8125 160.029 26.9111 154.894 36.2195 154.894H74.4168C74.4168 154.894 80.8365 155.215 82.1205 160.029Z" stroke="#1A2E35" stroke-width="1.5" stroke-miterlimit="10" stroke-linecap="round" stroke-linejoin="round"/>
<path d="M20.8125 160.029H82.1205" stroke="#1A2E35" stroke-width="1.5" stroke-miterlimit="10" stroke-linecap="round" stroke-linejoin="round"/>
<path d="M86.0794 113.7V149.329C86.0408 164.3 83.6286 180.657 78.0452 194.615C75.6934 200.495 71.394 206.13 65.29 208.397C59.3446 210.605 52.2935 208.922 51.7343 201.65C51.092 193.304 59.4381 190.094 62.648 194.91C68.2548 203.32 52.8592 202.354 57.1906 197.156" stroke="#1A2E35" stroke-width="1.5" stroke-miterlimit="10" stroke-linecap="round" stroke-linejoin="round"/>
<path d="M98.8828 113.7V149.329C98.9214 164.3 101.334 180.657 106.917 194.615C109.269 200.495 113.568 206.13 119.673 208.398C125.617 210.605 132.669 208.922 133.228 201.65C133.87 193.305 125.524 190.095 122.314 194.91C116.708 203.321 132.103 202.354 127.771 197.156" stroke="#1A2E35" stroke-width="1.5" stroke-miterlimit="10" stroke-linecap="round" stroke-linejoin="round"/>
<path d="M92.9453 114.823V150.452C92.9546 165.422 93.5197 181.779 94.8287 195.738C95.3797 201.617 96.3878 207.253 97.8191 209.52C99.2123 211.727 100.865 210.045 100.996 202.773C101.147 194.427 99.1906 191.217 98.438 196.032C97.1235 204.443 100.733 203.477 99.7172 198.278" stroke="#1A2E35" stroke-width="1.5" stroke-miterlimit="10" stroke-linecap="round" stroke-linejoin="round"/>
<path d="M144.823 114.343H42.75V110.491H144.823V114.343Z" fill="#6B6B6B" stroke="#1A2E35" stroke-width="1.5" stroke-miterlimit="10" stroke-linecap="round" stroke-linejoin="round"/>
<path d="M158.246 160.029H96.9375C96.9375 160.029 103.036 154.894 112.345 154.894H150.542C150.542 154.894 156.961 155.215 158.246 160.029Z" fill="#39D192"/>
<path d="M158.246 160.029H96.9375C96.9375 160.029 103.036 154.894 112.345 154.894H150.542C150.542 154.894 156.961 155.215 158.246 160.029Z" stroke="#1A2E35" stroke-width="1.5" stroke-miterlimit="10" stroke-linecap="round" stroke-linejoin="round"/>
<path d="M96.9375 160.029H158.246" stroke="#1A2E35" stroke-width="1.5" stroke-miterlimit="10" stroke-linecap="round" stroke-linejoin="round"/>
<path d="M98.8662 161.302C98.8662 161.302 96.2981 204.314 90.8413 209.129C85.3845 213.943 85.0639 203.993 86.6685 201.104C88.2737 198.216 90.1995 198.216 90.5207 203.672" stroke="#1A2E35" stroke-width="1.5" stroke-miterlimit="10" stroke-linecap="round" stroke-linejoin="round"/>
<path d="M132.047 161.302C132.047 161.302 132.908 204.314 134.739 209.129C136.569 213.943 138.253 203.993 137.714 201.104C137.175 198.216 136.529 198.216 136.422 203.673" stroke="#1A2E35" stroke-width="1.5" stroke-miterlimit="10" stroke-linecap="round" stroke-linejoin="round"/>
<path d="M159.53 106.746H121.012V91.3386H159.53V106.746Z" fill="#39D192" stroke="#1A2E35" stroke-width="1.5" stroke-miterlimit="10" stroke-linecap="round" stroke-linejoin="round"/>
<path d="M121.017 90.3759C121.017 90.3759 123.264 136.597 122.943 164.202C122.622 191.806 120.055 210.424 113.955 210.424C107.857 210.424 108.178 202.72 110.746 201.115C113.314 199.51 115.882 200.473 114.918 204.325" stroke="#1A2E35" stroke-width="1.5" stroke-miterlimit="10" stroke-linecap="round" stroke-linejoin="round"/>
<path d="M160.395 90.3759C160.395 90.3759 158.148 136.597 158.469 164.202C158.79 191.806 161.358 210.424 167.456 210.424C173.555 210.424 173.234 202.72 170.666 201.115C168.099 199.51 165.53 200.473 166.494 204.325" stroke="#1A2E35" stroke-width="1.5" stroke-miterlimit="10" stroke-linecap="round" stroke-linejoin="round"/>
<path d="M122.941 106.746C122.941 106.746 140.595 135.956 140.917 158.745C140.917 158.745 145.731 119.585 159.533 106.746" stroke="#1A2E35" stroke-width="1.5" stroke-miterlimit="10" stroke-linecap="round" stroke-linejoin="round"/>
</svg>
