<svg width="112" height="112" viewBox="0 0 112 112" fill="none" xmlns="http://www.w3.org/2000/svg">
<rect width="112" height="112" rx="24" fill="#39D192" fill-opacity="0.1"/>
<path d="M53.4259 25.1464C47.8804 26.1935 43.4466 30.0068 41.6369 35.3067C40.6545 38.1506 40.6545 41.8734 41.624 44.7948C43.7439 51.2064 49.8582 55.4334 56.5412 55.162C59.0361 55.0456 60.6907 54.619 62.9011 53.4944C68.382 50.7023 71.6783 44.6914 71.0449 38.603C70.838 36.6511 70.3985 35.1645 69.4678 33.2902C68.201 30.7695 66.3137 28.6754 63.9352 27.1888C62.7589 26.4649 60.5614 25.5601 59.2558 25.2757C57.9115 24.9784 54.6927 24.9008 53.4259 25.1464ZM58.3122 28.8176C62.6297 29.7095 65.9776 32.9412 67.154 37.3233C67.5418 38.7581 67.5418 41.3951 67.154 42.8559C66.0423 47.057 62.8623 50.1852 58.6095 51.2711C57.2005 51.633 54.5376 51.5942 53.1157 51.2064C49.1084 50.1206 45.9285 46.9536 44.8297 42.9205C44.5324 41.8476 44.4937 38.5642 44.7651 37.4913C45.2822 35.4231 46.3939 33.4453 47.8804 31.9587C50.6467 29.1924 54.5118 28.042 58.3122 28.8176Z" fill="#4CD79D"/>
<path d="M54.1111 32.4498C50.7244 33.3417 48.3717 36.1597 48.1649 39.5852C48.0615 41.4596 48.4364 42.8427 49.5351 44.5103C50.8407 46.5139 53.5165 47.9487 55.9338 47.9617C57.7564 47.9617 59.8764 47.1344 61.2466 45.8805C62.3195 44.8981 62.9529 43.9156 63.4312 42.5325C64.1939 40.3738 63.8707 37.7626 62.6168 35.8624C60.7425 32.9927 57.2911 31.6225 54.1111 32.4498ZM57.7564 36.2373C59.8893 37.2326 60.8071 39.8567 59.7471 41.9637C59.3335 42.791 58.2476 43.7476 57.4203 44.032C55.5201 44.6654 53.5036 43.9803 52.4824 42.3515C51.9265 41.4725 51.7068 40.6323 51.7973 39.6887C51.9524 37.8919 53.258 36.4053 55.0806 35.9399C55.8045 35.759 57.0067 35.9012 57.7564 36.2373Z" fill="#4CD79D"/>
<path d="M28.7358 30.9374C26.9261 31.5578 25.7368 32.7988 25.181 34.6344C25.0388 35.1256 25 37.5429 25 48.9053V62.5687L30.4292 71.3847L35.8583 80.1877V83.5874V87H55.9592H76.06V83.6391V80.2911L81.5538 71.3847L87.0476 62.4653V49.2414C87.0476 41.3562 86.9959 35.6944 86.9184 35.2419C86.5694 33.109 84.9923 31.3639 82.9111 30.821C79.7829 30.0067 76.6547 32.1137 76.1893 35.3583C76.1247 35.8624 76.06 39.456 76.06 43.5925V50.9219L75.6464 50.7926C75.4137 50.728 74.7674 50.6763 74.2245 50.6763C73.0998 50.6763 72.0786 50.9865 71.2126 51.5941C70.9282 51.788 67.3992 55.2523 63.3532 59.2983L56.0238 66.6535L48.4876 59.1303C41.4943 52.137 40.8997 51.5811 40.0595 51.1804C39.2193 50.7668 39.0771 50.7409 37.7973 50.7409C37.0476 50.7409 36.3108 50.7926 36.1556 50.8443L35.8713 50.9477L35.8325 42.8945C35.7937 33.9234 35.8325 34.4146 34.863 32.9927C33.5186 31.0279 30.9333 30.1618 28.7358 30.9374ZM31.3082 34.518C31.5409 34.6602 31.8382 34.9575 31.9804 35.1902C32.226 35.6039 32.2389 35.8624 32.2389 46.0486C32.2389 53.2874 32.2777 56.6871 32.3811 57.1654C32.743 58.833 32.7818 58.8847 40.2922 66.4079C44.1443 70.273 47.3501 73.4271 47.4276 73.4271C47.5052 73.4271 48.1127 72.8712 48.7849 72.1991L50.013 70.971L43.0067 63.9648C36.9054 57.8376 36.0005 56.881 35.923 56.4674C35.8066 55.8211 36.0393 55.1618 36.5822 54.6835C36.9442 54.3733 37.151 54.2957 37.6164 54.2957C37.9395 54.2957 38.3532 54.3733 38.5471 54.4767C38.741 54.5801 42.1277 57.9152 46.0833 61.8836C52.7275 68.5538 53.2834 69.1613 53.6195 69.911C53.8134 70.3635 54.0331 71.1261 54.0978 71.5915C54.1624 72.0698 54.2012 74.9007 54.1882 77.8868L54.1495 83.3159H46.8459H39.5424L39.5036 81.2089L39.4778 79.1148L34.0486 70.3118L28.6194 61.5217V48.5692C28.6194 35.8753 28.6194 35.6039 28.878 35.1902C29.2141 34.6473 29.8604 34.2595 30.4292 34.2595C30.6748 34.2595 31.0755 34.3758 31.3082 34.518ZM82.588 34.5697C82.756 34.6861 83.0145 34.9705 83.1309 35.2031C83.3506 35.5909 83.3636 36.457 83.4023 48.5046L83.4282 61.4053L77.9344 70.3118L72.4406 79.2311V81.2994V83.3806H65.1371H57.8335V77.4602C57.8335 71.0874 57.8594 70.8288 58.5316 69.5879C58.7772 69.1484 61.091 66.744 66.1583 61.6768L73.4489 54.3862L74.0823 54.3345C75.3232 54.2052 76.1117 54.9679 76.0213 56.2089L75.9696 56.9069L68.9763 63.9002L61.9701 70.9064L63.2627 72.1991L64.5554 73.4917L71.665 66.3821C78.3222 59.712 78.7875 59.2208 79.1883 58.3676L79.6148 57.4627L79.6795 46.5398C79.7441 35.9141 79.757 35.6039 80.0026 35.1773C80.5197 34.3112 81.7477 34.0139 82.588 34.5697Z" fill="#4CD79D"/>
</svg>
