<svg width="112" height="112" viewBox="0 0 112 112" fill="none" xmlns="http://www.w3.org/2000/svg">
<rect width="112" height="112" rx="24" fill="#39D192" fill-opacity="0.1"/>
<path d="M53.7323 25.1417C50.5327 25.8204 47.9288 27.6626 46.2667 30.405C45.0478 32.4273 44.4522 35.5437 44.8539 37.6491L44.9647 38.2447L39.7152 38.2447C36.3217 38.2447 34.3687 38.3001 34.1886 38.3832C34.0224 38.4801 32.5542 41.2503 30.4627 45.4472L27 52.3726L27 69.34L27 86.3213L27.3463 86.6537L27.6787 87L55.81 87L83.9412 87L84.2737 86.6537L84.6199 86.3213L84.6199 69.34L84.6199 52.3726L81.1572 45.4472C79.0657 41.2503 77.5975 38.4801 77.4313 38.3832C77.2512 38.3001 75.2982 38.2447 71.9048 38.2447L66.6553 38.2447L66.7661 37.6491C67.2093 35.3775 66.5029 32.178 65.0901 30.0172C63.5388 27.6348 61.3226 26.0558 58.4416 25.2663C57.3613 24.9755 54.8404 24.9062 53.7323 25.1417ZM57.6798 27.3717C60.6716 27.995 63.3449 30.4604 64.3006 33.4661C64.5499 34.2556 64.6053 34.7542 64.5915 36.0978C64.5915 37.5383 64.5361 37.8984 64.2175 38.771C63.6773 40.2808 63.0679 41.2503 61.9598 42.3446C60.824 43.4942 59.245 44.3529 57.666 44.6854C52.3611 45.8073 47.2916 41.929 46.9869 36.5133C46.8484 33.9509 47.7487 31.6101 49.5632 29.8094C51.7516 27.621 54.688 26.7484 57.6798 27.3717ZM45.768 40.7378C45.9619 41.3473 47.2778 43.1479 48.1365 43.9928L49.0646 44.8931L45.0201 44.8931L40.9756 44.8931L40.6432 45.2394C40.4216 45.4472 40.2969 45.738 40.2969 46.0012C40.2969 46.2644 40.4216 46.5552 40.6432 46.763L40.9756 47.1093L55.81 47.1093L70.6443 47.1093L70.9767 46.763C71.4338 46.3198 71.4338 45.6826 70.9767 45.2394L70.6443 44.8931L66.5998 44.8931L62.5415 44.8931L63.4972 43.9513C64.3837 43.0786 65.658 41.3334 65.8519 40.7378C65.935 40.4747 66.1012 40.4608 71.0599 40.4608L76.1709 40.4608L78.941 46.0012L81.7112 51.5416L55.81 51.5416L29.9087 51.5416L32.6789 46.0012L35.4491 40.4608L40.5601 40.4608C45.5187 40.4608 45.6849 40.4747 45.768 40.7378ZM82.4038 69.2708L82.4038 84.7838L55.81 84.7838L29.2162 84.7838L29.2161 69.2708L29.2161 53.7577L55.81 53.7577L82.4038 53.7577L82.4038 69.2708Z" fill="#4CD79D"/>
<path d="M55.0492 29.7264C54.8553 29.9064 54.703 30.225 54.703 30.4189C54.703 30.6405 54.6199 30.7652 54.4814 30.7652C54.1074 30.7652 52.8331 32.1641 52.653 32.7874C52.2652 34.0894 52.5422 35.1282 53.5256 36.0978C54.232 36.8181 54.9384 37.1366 55.7972 37.1366C56.3789 37.1366 56.9191 37.663 56.9191 38.2447C56.9191 38.8126 56.3789 39.3528 55.811 39.3528C55.2432 39.3528 54.703 38.8126 54.703 38.2447C54.703 37.6768 54.1628 37.1366 53.5949 37.1366C53.0132 37.1366 52.4868 37.6768 52.4868 38.2586C52.4868 39.1173 52.8054 39.8237 53.5533 40.5578C53.9412 40.9595 54.3705 41.2919 54.4814 41.2919C54.6199 41.2919 54.703 41.4166 54.703 41.6382C54.703 42.1368 55.2847 42.677 55.811 42.677C56.3374 42.677 56.9191 42.1368 56.9191 41.6659C56.9191 41.4166 57.0161 41.2919 57.2515 41.2365C57.7225 41.1257 58.7751 39.9068 58.9691 39.242C59.3569 37.9815 59.0799 36.9289 58.0965 35.9593C57.3901 35.239 56.6837 34.9205 55.8249 34.9205C54.8415 34.9205 54.3567 33.7431 55.0492 33.0506C55.7279 32.358 56.9191 32.8428 56.9191 33.8124C56.9191 34.3803 57.4593 34.9205 58.0272 34.9205C58.6089 34.9205 59.1353 34.3803 59.1353 33.7985C59.1353 32.9398 58.8167 32.2334 58.0688 31.4854C57.6809 31.0976 57.2515 30.7652 57.1407 30.7652C57.0022 30.7652 56.9191 30.6405 56.9191 30.4189C56.9191 29.9203 56.3374 29.3801 55.811 29.3801C55.5479 29.3801 55.257 29.5048 55.0492 29.7264Z" fill="#4CD79D"/>
<path d="M49.0259 58.8827C47.4331 59.2151 45.6186 60.4894 44.7183 61.9022C43.3886 63.9937 43.444 66.9301 44.8568 69.077C45.1754 69.5618 47.4192 71.9026 50.3695 74.839C54.9818 79.4513 55.3697 79.7976 55.8129 79.7976C56.27 79.7976 56.6578 79.4375 61.5195 74.5619C66.4504 69.6172 66.769 69.2847 67.2261 68.3013C69.0544 64.4508 67.0183 60.0185 62.9461 58.9519C61.9073 58.6888 60.8962 58.6888 59.7188 58.9519C58.5831 59.2151 57.6274 59.7414 56.5885 60.6833L55.8129 61.4036L55.148 60.7941C54.2339 59.9354 53.5275 59.4921 52.5579 59.1597C51.6022 58.8273 49.9262 58.7026 49.0259 58.8827ZM52.1147 61.3481C52.5302 61.5282 53.2782 62.1238 54.0815 62.8995C55.799 64.5616 55.8267 64.5616 57.5442 62.8995C59.0263 61.4728 59.7327 61.085 61.0762 61.0019C64.4143 60.7664 66.7413 64.3538 65.2177 67.401C65.0238 67.775 63.2924 69.6172 60.3698 72.5397L55.8129 77.0967L51.1174 72.3874C46.7405 67.9966 46.4081 67.6226 46.1865 66.9162C45.4247 64.6031 46.4912 62.2069 48.6796 61.2927C49.7046 60.8634 51.0759 60.8911 52.1147 61.3481Z" fill="#4CD79D"/>
</svg>
