<svg width="607" height="460" viewBox="0 0 607 460" fill="none" xmlns="http://www.w3.org/2000/svg">
<circle cx="437" cy="13.5" r="13" fill="#0A1C2D"/>
<path d="M548.158 418.989C578.199 389.598 595.498 344.98 596.031 297.999C596.366 268.385 594.623 231.182 586.471 199.354C559.581 94.3511 483.615 37.3999 428.038 25.2538C372.463 13.1076 315.228 35.3763 272.095 70.803C228.961 106.231 233.109 100.158 159.284 86.9986C85.4593 73.8395 24.9067 112.304 4.99944 183.158C-14.9087 254.013 45.6367 294.164 52.2764 331.278C58.9161 368.392 47.3032 434.186 162.603 450.38C277.901 466.576 312.741 387.624 369.974 409.892C416.03 427.811 484.646 481.123 548.158 418.989Z" fill="#39D192"/>
<g opacity="0.699997">
<path d="M548.158 418.989C578.199 389.598 595.498 344.98 596.031 297.999C596.366 268.385 594.623 231.182 586.471 199.354C559.581 94.3511 483.615 37.3999 428.038 25.2538C372.463 13.1076 315.228 35.3763 272.095 70.803C228.961 106.231 233.109 100.158 159.284 86.9986C85.4593 73.8395 24.9067 112.304 4.99944 183.158C-14.9087 254.013 45.6367 294.164 52.2764 331.278C58.9161 368.392 47.3032 434.186 162.603 450.38C277.901 466.576 312.741 387.624 369.974 409.892C416.03 427.811 484.646 481.123 548.158 418.989Z" fill="white"/>
</g>
<g opacity="0.300003">
<path d="M250.471 301.552H227.511V295.259C227.511 288.929 232.661 283.779 238.991 283.779C245.321 283.779 250.471 288.11 250.471 295.259V301.552ZM240.106 320.707V327.021H236.53V320.707C234.784 319.998 233.55 318.292 233.55 316.292C233.55 313.658 235.685 311.525 238.318 311.525C240.951 311.525 243.087 313.658 243.087 316.292C243.087 318.292 241.852 319.998 240.106 320.707ZM255.703 301.552V295.259C255.703 282.833 247.438 278.437 238.991 278.437C230.379 278.437 222.466 284.769 222.466 295.259V301.552H220.113V336.405H257.87V301.552H255.703Z" stroke="black" stroke-width="1.33333" stroke-miterlimit="10"/>
</g>
<g opacity="0.300003">
<path d="M11.699 91.7432C11.699 88.7889 9.30439 86.3943 6.35004 86.3943C3.39458 86.3943 1 88.7889 1 91.7432C1 94.6976 3.39458 97.0933 6.35004 97.0933C9.30439 97.0933 11.699 94.6976 11.699 91.7432Z" stroke="black" stroke-width="1.33333" stroke-miterlimit="10"/>
<path d="M56.281 91.7432C56.281 88.7889 53.8864 86.3943 50.9321 86.3943C47.9766 86.3943 45.582 88.7889 45.582 91.7432C45.582 94.6976 47.9766 97.0933 50.9321 97.0933C53.8864 97.0933 56.281 94.6976 56.281 91.7432Z" stroke="black" stroke-width="1.33333" stroke-miterlimit="10"/>
<path d="M100.859 91.7432C100.859 88.7889 98.4634 86.3943 95.5091 86.3943C92.5547 86.3943 90.1602 88.7889 90.1602 91.7432C90.1602 94.6976 92.5547 97.0933 95.5091 97.0933C98.4634 97.0933 100.859 94.6976 100.859 91.7432Z" stroke="black" stroke-width="1.33333" stroke-miterlimit="10"/>
<path d="M11.699 125.623C11.699 122.669 9.30439 120.274 6.35004 120.274C3.39458 120.274 1 122.669 1 125.623C1 128.577 3.39458 130.973 6.35004 130.973C9.30439 130.973 11.699 128.577 11.699 125.623Z" stroke="black" stroke-width="1.33333" stroke-miterlimit="10"/>
<path d="M56.281 125.623C56.281 122.669 53.8864 120.274 50.9321 120.274C47.9766 120.274 45.582 122.669 45.582 125.623C45.582 128.577 47.9766 130.973 50.9321 130.973C53.8864 130.973 56.281 128.577 56.281 125.623Z" stroke="black" stroke-width="1.33333" stroke-miterlimit="10"/>
<path d="M100.859 125.623C100.859 122.669 98.4634 120.274 95.5091 120.274C92.5547 120.274 90.1602 122.669 90.1602 125.623C90.1602 128.577 92.5547 130.973 95.5091 130.973C98.4634 130.973 100.859 128.577 100.859 125.623Z" stroke="black" stroke-width="1.33333" stroke-miterlimit="10"/>
<path d="M11.699 159.503C11.699 156.549 9.30439 154.155 6.35004 154.155C3.39458 154.155 1 156.549 1 159.503C1 162.458 3.39458 164.854 6.35004 164.854C9.30439 164.854 11.699 162.458 11.699 159.503Z" stroke="black" stroke-width="1.33333" stroke-miterlimit="10"/>
<path d="M56.281 159.504C56.281 156.55 53.8864 154.155 50.9321 154.155C47.9766 154.155 45.582 156.55 45.582 159.504C45.582 162.458 47.9766 164.854 50.9321 164.854C53.8864 164.854 56.281 162.458 56.281 159.504Z" stroke="black" stroke-width="1.33333" stroke-miterlimit="10"/>
<path d="M100.859 159.504C100.859 156.55 98.4634 154.155 95.5091 154.155C92.5547 154.155 90.1602 156.55 90.1602 159.504C90.1602 162.458 92.5547 164.854 95.5091 164.854C98.4634 164.854 100.859 162.458 100.859 159.504Z" stroke="black" stroke-width="1.33333" stroke-miterlimit="10"/>
</g>
<g opacity="0.300003">
<path d="M563.801 200.295C577.057 200.347 587.846 189.645 587.9 176.388C587.953 163.132 577.248 152.342 563.994 152.289C550.737 152.237 539.947 162.94 539.895 176.196C539.841 189.452 550.545 200.241 563.801 200.295Z" stroke="black" stroke-width="1.33333" stroke-miterlimit="10"/>
</g>
<g opacity="0.300003">
<path d="M566.372 191.515L566.362 193.841L562.338 193.824L562.348 191.499C558.863 190.77 557.085 188.08 557.102 183.832L557.106 182.848L561.756 182.867L561.751 184.163C561.742 186.4 562.634 187.253 564.199 187.258C565.764 187.265 566.661 186.419 566.67 184.183C566.696 177.744 557.084 177.392 557.119 168.449C557.137 164.202 558.981 161.481 562.471 160.78L562.479 158.499L566.505 158.515L566.495 160.796C570.025 161.525 571.802 164.26 571.786 168.508L571.777 170.655L567.126 170.636L567.135 168.177C567.145 165.941 566.165 165.132 564.6 165.125C563.035 165.119 562.047 165.921 562.04 168.156C562.013 174.596 571.625 174.947 571.589 183.89C571.574 188.092 569.819 190.769 566.372 191.515Z" stroke="black" stroke-width="1.33333" stroke-miterlimit="10"/>
</g>
<g opacity="0.300003">
<path d="M237.691 410.386C246.209 410.419 253.141 403.543 253.174 395.026C253.21 386.509 246.331 379.578 237.815 379.542C229.298 379.509 222.365 386.386 222.332 394.904C222.298 403.42 229.175 410.352 237.691 410.386Z" stroke="black" stroke-width="1.33333" stroke-miterlimit="10"/>
</g>
<g opacity="0.300003">
<path d="M239.338 404.746L239.333 406.241L236.747 406.23L236.753 404.736C234.514 404.267 233.372 402.539 233.383 399.81L233.385 399.177L236.373 399.189L236.369 400.022C236.364 401.458 236.936 402.007 237.941 402.011C238.947 402.015 239.524 401.472 239.53 400.035C239.546 395.898 233.371 395.672 233.393 389.926C233.404 387.196 234.59 385.449 236.831 384.998L236.838 383.533L239.423 383.543L239.417 385.008C241.685 385.477 242.828 387.234 242.817 389.963L242.811 391.343L239.824 391.331L239.829 389.751C239.835 388.315 239.205 387.794 238.201 387.79C237.194 387.786 236.56 388.301 236.554 389.737C236.538 393.875 242.714 394.101 242.691 399.847C242.68 402.548 241.553 404.266 239.338 404.746Z" stroke="black" stroke-width="1.33333" stroke-miterlimit="10"/>
</g>
<g opacity="0.300003">
<path d="M353.309 39.8431C361.826 39.8776 368.758 33.0004 368.792 24.4838C368.827 15.9662 361.95 9.03459 353.432 9.00016C344.915 8.96573 337.983 15.8429 337.949 24.3606C337.915 32.8771 344.792 39.8098 353.309 39.8431Z" stroke="black" stroke-width="1.33333" stroke-miterlimit="10"/>
</g>
<g opacity="0.300003">
<path d="M354.952 34.202L354.946 35.6958L352.36 35.6858L352.367 34.192C350.128 33.7233 348.985 31.9951 348.996 29.2651L349 28.6331L351.986 28.6453L351.983 29.4783C351.977 30.9155 352.55 31.4631 353.555 31.4675C354.561 31.472 355.137 30.9277 355.144 29.4906C355.159 25.3545 348.984 25.1279 349.006 19.3825C349.017 16.6536 350.203 14.9054 352.445 14.4545L352.451 12.9895L355.037 12.9995L355.03 14.4645C357.298 14.9332 358.441 16.6902 358.43 19.4202L358.425 20.7997L355.437 20.7874L355.442 19.207C355.448 17.7709 354.819 17.2511 353.814 17.2467C352.807 17.2422 352.174 17.7576 352.167 19.1936C352.152 23.3308 358.327 23.5574 358.305 29.3029C358.293 32.004 357.166 33.7222 354.952 34.202Z" stroke="black" stroke-width="1.33333" stroke-miterlimit="10"/>
</g>
<g opacity="0.300003">
<path d="M52.2846 64.9617C63.5978 65.0073 72.8052 55.8732 72.8496 44.5601C72.8951 33.248 63.7611 24.0407 52.449 23.9951C41.1359 23.9507 31.9285 33.0836 31.883 44.3968C31.8385 55.7089 40.9715 64.9162 52.2846 64.9617Z" stroke="black" stroke-width="1.33333" stroke-miterlimit="10"/>
</g>
<g opacity="0.300003">
<path d="M54.4816 57.4689L54.4739 59.4536L51.0397 59.4392L51.0475 57.4555C48.0731 56.8336 46.556 54.5367 46.5704 50.9127L46.5737 50.073L50.5421 50.0885L50.5377 51.1948C50.5299 53.1029 51.2907 53.8315 52.6268 53.8359C53.9618 53.8415 54.7282 53.1195 54.736 51.2114C54.7582 45.717 46.5549 45.4171 46.586 37.7847C46.5993 34.1606 48.1742 31.8382 51.1519 31.2396L51.1597 29.2937L54.5938 29.3081L54.586 31.254C57.5992 31.876 59.1153 34.2106 59.1009 37.8358L59.0942 39.6672L55.1258 39.6517L55.1336 37.5526C55.1414 35.6444 54.305 34.9536 52.9689 34.9492C51.6339 34.9436 50.7909 35.6267 50.7831 37.5348C50.7609 43.0303 58.9654 43.3302 58.9343 50.9615C58.9198 54.5489 57.4227 56.8325 54.4816 57.4689Z" stroke="black" stroke-width="1.33333" stroke-miterlimit="10"/>
</g>
<path d="M1.35156 455.067L606.105 455.067" stroke="#1A2E35" stroke-width="1.33333" stroke-miterlimit="10" stroke-linecap="round" stroke-linejoin="round"/>
<path d="M320.63 251.012L228.898 240.622L246.852 82.1095L338.584 92.4997L320.63 251.012Z" fill="white"/>
<path d="M320.63 251.012L228.898 240.622L246.852 82.1095L338.584 92.4997L320.63 251.012Z" stroke="#B3B3B3" stroke-width="1.33333" stroke-miterlimit="10" stroke-linecap="round" stroke-linejoin="round"/>
<path d="M251.962 96.0665L237.332 225.225C240.17 225.546 242.209 228.106 241.888 230.944C241.764 232.037 241.302 233.006 240.625 233.774L310.733 241.715C310.246 240.815 310.012 239.767 310.136 238.674C310.457 235.837 313.018 233.797 315.854 234.119L330.484 104.961C327.647 104.64 325.608 102.08 325.929 99.2419L257.68 91.5117C257.359 94.3483 254.799 96.3886 251.962 96.0665Z" fill="white"/>
<path d="M251.962 96.0665L237.332 225.225C240.17 225.546 242.209 228.106 241.888 230.944C241.764 232.037 241.302 233.006 240.625 233.774L310.733 241.715C310.246 240.815 310.012 239.767 310.136 238.674C310.457 235.837 313.018 233.797 315.854 234.119L330.484 104.961C327.647 104.64 325.608 102.08 325.929 99.2419L257.68 91.5117C257.359 94.3483 254.799 96.3886 251.962 96.0665Z" stroke="#B3B3B3" stroke-width="1.33333" stroke-miterlimit="10" stroke-linecap="round" stroke-linejoin="round"/>
<path d="M307.593 169.262C309.085 156.089 299.617 144.202 286.444 142.71C273.273 141.218 261.386 150.686 259.893 163.858C258.401 177.031 267.87 188.918 281.042 190.411C294.213 191.902 306.101 182.433 307.593 169.262Z" fill="white"/>
<path d="M307.593 169.262C309.085 156.089 299.617 144.202 286.444 142.71C273.273 141.218 261.386 150.686 259.893 163.858C258.401 177.031 267.87 188.918 281.042 190.411C294.213 191.902 306.101 182.433 307.593 169.262Z" stroke="#B3B3B3" stroke-width="1.33333" stroke-miterlimit="10" stroke-linecap="round" stroke-linejoin="round"/>
<path d="M299.147 165.986L301.453 166.281L300.941 170.273L298.636 169.977C297.483 173.345 294.594 174.779 290.38 174.239L289.405 174.114L289.996 169.501L291.282 169.665C293.5 169.95 294.456 169.171 294.655 167.618C294.854 166.066 294.125 165.072 291.907 164.787C285.52 163.969 283.988 173.464 275.117 172.326C270.904 171.788 268.431 169.622 268.165 166.072L265.902 165.781L266.414 161.791L268.677 162.081C269.835 158.668 272.768 157.239 276.982 157.78L279.111 158.052L278.521 162.666L276.08 162.353C273.862 162.068 272.938 162.941 272.741 164.494C272.541 166.047 273.215 167.124 275.432 167.41C281.818 168.228 283.352 158.732 292.223 159.868C296.392 160.402 298.831 162.473 299.147 165.986Z" fill="white"/>
<path d="M299.147 165.986L301.453 166.281L300.941 170.273L298.636 169.977C297.483 173.345 294.594 174.779 290.38 174.239L289.405 174.114L289.996 169.501L291.282 169.665C293.5 169.95 294.456 169.171 294.655 167.618C294.854 166.066 294.125 165.072 291.907 164.787C285.52 163.969 283.988 173.464 275.117 172.326C270.904 171.788 268.431 169.622 268.165 166.072L265.902 165.781L266.414 161.791L268.677 162.081C269.835 158.668 272.768 157.239 276.982 157.78L279.111 158.052L278.521 162.666L276.08 162.353C273.862 162.068 272.938 162.941 272.741 164.494C272.541 166.047 273.215 167.124 275.432 167.41C281.818 168.228 283.352 158.732 292.223 159.868C296.392 160.402 298.831 162.473 299.147 165.986Z" stroke="#B3B3B3" stroke-width="1.33333" stroke-miterlimit="10" stroke-linecap="round" stroke-linejoin="round"/>
<path d="M277.965 241.226L185.68 243.728L181.355 84.2622L273.639 81.7588L277.965 241.226Z" fill="white"/>
<path d="M277.965 241.226L185.68 243.728L181.355 84.2622L273.639 81.7588L277.965 241.226Z" stroke="#B3B3B3" stroke-width="1.33333" stroke-miterlimit="10" stroke-linecap="round" stroke-linejoin="round"/>
<path d="M188.359 97.3706L191.883 227.306C194.738 227.229 197.114 229.48 197.191 232.334C197.221 233.434 196.899 234.459 196.336 235.313L266.866 233.401C266.258 232.578 265.881 231.573 265.851 230.472C265.773 227.619 268.025 225.242 270.879 225.165L267.354 95.2282C264.501 95.3059 262.124 93.0546 262.047 90.2002L193.387 92.0628C193.464 94.9172 191.214 97.294 188.359 97.3706Z" fill="white"/>
<path d="M188.359 97.3706L191.883 227.306C194.738 227.229 197.114 229.48 197.191 232.334C197.221 233.434 196.899 234.459 196.336 235.313L266.866 233.401C266.258 232.578 265.881 231.573 265.851 230.472C265.773 227.619 268.025 225.242 270.879 225.165L267.354 95.2282C264.501 95.3059 262.124 93.0546 262.047 90.2002L193.387 92.0628C193.464 94.9172 191.214 97.294 188.359 97.3706Z" stroke="#B3B3B3" stroke-width="1.33333" stroke-miterlimit="10" stroke-linecap="round" stroke-linejoin="round"/>
<path d="M253.653 162.093C253.295 148.842 242.26 138.39 229.009 138.749C215.757 139.109 205.306 150.143 205.665 163.395C206.025 176.646 217.058 187.097 230.31 186.737C243.562 186.379 254.012 175.344 253.653 162.093Z" fill="white"/>
<path d="M253.653 162.093C253.295 148.842 242.26 138.39 229.009 138.749C215.757 139.109 205.306 150.143 205.665 163.395C206.025 176.646 217.058 187.097 230.31 186.737C243.562 186.379 254.012 175.344 253.653 162.093Z" stroke="#B3B3B3" stroke-width="1.33333" stroke-miterlimit="10" stroke-linecap="round" stroke-linejoin="round"/>
<path d="M244.881 159.681L247.206 159.613L247.322 163.636L244.997 163.704C244.385 167.21 241.755 169.076 237.507 169.199L236.524 169.228L236.389 164.58L237.685 164.542C239.92 164.477 240.743 163.558 240.698 161.994C240.653 160.43 239.778 159.561 237.543 159.625C231.107 159.812 231.072 169.43 222.134 169.69C217.887 169.813 215.107 168.06 214.291 164.595L212.011 164.661L211.895 160.638L214.175 160.572C214.787 157.02 217.462 155.153 221.707 155.031L223.853 154.967L223.988 159.617L221.531 159.688C219.295 159.752 218.518 160.759 218.564 162.323C218.61 163.888 219.443 164.848 221.677 164.783C228.113 164.596 228.148 154.977 237.086 154.717C241.289 154.595 244.021 156.261 244.881 159.681Z" fill="white"/>
<path d="M244.881 159.681L247.206 159.613L247.322 163.636L244.997 163.704C244.385 167.21 241.755 169.076 237.507 169.199L236.524 169.228L236.389 164.58L237.685 164.542C239.92 164.477 240.743 163.558 240.698 161.994C240.653 160.43 239.778 159.561 237.543 159.625C231.107 159.812 231.072 169.43 222.134 169.69C217.887 169.813 215.107 168.06 214.291 164.595L212.011 164.661L211.895 160.638L214.175 160.572C214.787 157.02 217.462 155.153 221.707 155.031L223.853 154.967L223.988 159.617L221.531 159.688C219.295 159.752 218.518 160.759 218.564 162.323C218.61 163.888 219.443 164.848 221.677 164.783C228.113 164.596 228.148 154.977 237.086 154.717C241.289 154.595 244.021 156.261 244.881 159.681Z" stroke="#B3B3B3" stroke-width="1.33333" stroke-miterlimit="10" stroke-linecap="round" stroke-linejoin="round"/>
<path d="M279.218 226.589L191.671 255.881L141.055 104.599L228.602 75.3079L279.218 226.589Z" fill="white"/>
<path d="M279.218 226.589L191.671 255.881L141.055 104.599L228.602 75.3079L279.218 226.589Z" stroke="#B3B3B3" stroke-width="1.33333" stroke-miterlimit="10" stroke-linecap="round" stroke-linejoin="round"/>
<path d="M151.578 115.097L192.821 238.364C195.528 237.458 198.458 238.919 199.364 241.626C199.713 242.669 199.704 243.745 199.414 244.724L266.324 222.338C265.502 221.729 264.849 220.877 264.5 219.833C263.592 217.125 265.054 214.197 267.761 213.29L226.519 90.0228C223.811 90.9291 220.882 89.4686 219.976 86.7608L154.841 108.554C155.746 111.262 154.286 114.191 151.578 115.097Z" fill="white"/>
<path d="M151.578 115.097L192.821 238.364C195.528 237.458 198.458 238.919 199.364 241.626C199.713 242.669 199.704 243.745 199.414 244.724L266.324 222.338C265.502 221.729 264.849 220.877 264.5 219.833C263.592 217.125 265.054 214.197 267.761 213.29L226.519 90.0228C223.811 90.9291 220.882 89.4686 219.976 86.7608L154.841 108.554C155.746 111.262 154.286 114.191 151.578 115.097Z" stroke="#B3B3B3" stroke-width="1.33333" stroke-miterlimit="10" stroke-linecap="round" stroke-linejoin="round"/>
<path d="M232.9 157.979C228.694 145.407 215.093 138.625 202.522 142.831C189.951 147.037 183.17 160.639 187.376 173.21C191.582 185.782 205.183 192.562 217.754 188.357C230.326 184.15 237.108 170.549 232.9 157.979Z" fill="white"/>
<path d="M232.9 157.979C228.694 145.407 215.093 138.625 202.522 142.831C189.951 147.037 183.17 160.639 187.376 173.21C191.582 185.782 205.183 192.562 217.754 188.357C230.326 184.15 237.108 170.549 232.9 157.979Z" stroke="#B3B3B3" stroke-width="1.33333" stroke-miterlimit="10" stroke-linecap="round" stroke-linejoin="round"/>
<path d="M222.969 156.743L225.076 155.759L226.778 159.405L224.671 160.389C225.498 163.852 223.824 166.608 219.974 168.405L219.082 168.82L217.115 164.606L218.291 164.058C220.316 163.113 220.708 161.943 220.047 160.525C219.385 159.106 218.236 158.656 216.21 159.601C210.376 162.324 214.158 171.168 206.054 174.951C202.205 176.747 198.957 176.239 196.835 173.382L194.768 174.347L193.066 170.701L195.132 169.735C194.286 166.231 196.002 163.458 199.851 161.661L201.796 160.752L203.763 164.967L201.534 166.007C199.508 166.952 199.195 168.185 199.857 169.603C200.519 171.021 201.664 171.573 203.691 170.626C209.525 167.903 205.742 159.059 213.847 155.277C217.655 153.499 220.824 153.944 222.969 156.743Z" fill="white"/>
<path d="M222.969 156.743L225.076 155.759L226.778 159.405L224.671 160.389C225.498 163.852 223.824 166.608 219.974 168.405L219.082 168.82L217.115 164.606L218.291 164.058C220.316 163.113 220.708 161.943 220.047 160.525C219.385 159.106 218.236 158.656 216.21 159.601C210.376 162.324 214.158 171.168 206.054 174.951C202.205 176.747 198.957 176.239 196.835 173.382L194.768 174.347L193.066 170.701L195.132 169.735C194.286 166.231 196.002 163.458 199.851 161.661L201.796 160.752L203.763 164.967L201.534 166.007C199.508 166.952 199.195 168.185 199.857 169.603C200.519 171.021 201.664 171.573 203.691 170.626C209.525 167.903 205.742 159.059 213.847 155.277C217.655 153.499 220.824 153.944 222.969 156.743Z" stroke="#B3B3B3" stroke-width="1.33333" stroke-miterlimit="10" stroke-linecap="round" stroke-linejoin="round"/>
<path d="M274.272 210.96L200.068 265.881L105.164 137.655L179.368 82.7345L274.272 210.96Z" fill="white"/>
<path d="M274.272 210.96L200.068 265.881L105.164 137.655L179.368 82.7345L274.272 210.96Z" stroke="#B3B3B3" stroke-width="1.33333" stroke-miterlimit="10" stroke-linecap="round" stroke-linejoin="round"/>
<path d="M118.414 144.387L195.744 248.866C198.038 247.168 201.275 247.652 202.974 249.946C203.629 250.831 203.952 251.855 203.98 252.878L260.692 210.904C259.722 210.579 258.837 209.97 258.183 209.085C256.483 206.79 256.966 203.553 259.261 201.854L181.933 97.3747C179.638 99.0729 176.4 98.5898 174.702 96.2941L119.495 137.156C121.193 139.451 120.709 142.688 118.414 144.387Z" fill="white"/>
<path d="M118.414 144.387L195.744 248.866C198.038 247.168 201.275 247.652 202.974 249.946C203.629 250.831 203.952 251.855 203.98 252.878L260.692 210.904C259.722 210.579 258.837 209.97 258.183 209.085C256.483 206.79 256.966 203.553 259.261 201.854L181.933 97.3747C179.638 99.0729 176.4 98.5898 174.702 96.2941L119.495 137.156C121.193 139.451 120.709 142.688 118.414 144.387Z" stroke="#B3B3B3" stroke-width="1.33333" stroke-miterlimit="10" stroke-linecap="round" stroke-linejoin="round"/>
<path d="M209.013 160.028C201.126 149.373 186.095 147.128 175.44 155.015C164.784 162.901 162.539 177.932 170.426 188.587C178.312 199.242 193.344 201.487 203.999 193.601C214.654 185.715 216.9 170.683 209.013 160.028Z" fill="white"/>
<path d="M209.013 160.029C201.126 149.373 186.095 147.128 175.44 155.015C164.784 162.901 162.539 177.932 170.426 188.587C178.312 199.242 193.344 201.487 203.999 193.601C214.654 185.715 216.9 170.683 209.013 160.029Z" stroke="#B3B3B3" stroke-width="1.33333" stroke-miterlimit="10" stroke-linecap="round" stroke-linejoin="round"/>
<path d="M198.095 161.124L199.648 159.393L202.643 162.081L201.091 163.811C203.209 166.673 202.749 169.864 199.912 173.026L199.255 173.758L195.794 170.654L196.66 169.688C198.153 168.024 198.054 166.794 196.889 165.749C195.724 164.704 194.491 164.74 192.998 166.403C188.699 171.197 195.645 177.85 189.673 184.506C186.836 187.668 183.651 188.474 180.578 186.678L179.054 188.375L176.059 185.689L177.581 183.991C175.43 181.1 175.92 177.875 178.756 174.712L180.189 173.115L183.651 176.22L182.009 178.051C180.516 179.716 180.711 180.972 181.875 182.017C183.04 183.061 184.311 183.119 185.804 181.455C190.103 176.662 183.156 170.01 189.128 163.352C191.934 160.224 195.024 159.391 198.095 161.124Z" fill="white"/>
<path d="M198.095 161.124L199.648 159.393L202.643 162.081L201.091 163.811C203.209 166.673 202.749 169.864 199.912 173.026L199.255 173.758L195.794 170.654L196.66 169.688C198.153 168.024 198.054 166.794 196.889 165.749C195.724 164.704 194.491 164.74 192.998 166.403C188.699 171.197 195.645 177.85 189.673 184.506C186.836 187.668 183.651 188.474 180.578 186.678L179.054 188.375L176.059 185.689L177.581 183.991C175.43 181.1 175.92 177.875 178.756 174.712L180.189 173.115L183.651 176.22L182.009 178.051C180.516 179.716 180.711 180.972 181.875 182.017C183.04 183.061 184.311 183.119 185.804 181.455C190.103 176.662 183.156 170.01 189.128 163.352C191.934 160.224 195.024 159.391 198.095 161.124Z" stroke="#B3B3B3" stroke-width="1.33333" stroke-miterlimit="10" stroke-linecap="round" stroke-linejoin="round"/>
<path d="M241.319 235.47L168.169 291.789L70.8516 165.385L144.002 109.066L241.319 235.47Z" fill="white"/>
<path d="M241.319 235.47L168.169 291.789L70.8516 165.385L144.002 109.066L241.319 235.47Z" stroke="#B3B3B3" stroke-width="1.33333" stroke-miterlimit="10" stroke-linecap="round" stroke-linejoin="round"/>
<path d="M84.2305 171.864L163.526 274.858C165.788 273.117 169.034 273.539 170.775 275.801C171.447 276.673 171.789 277.692 171.837 278.713L227.743 235.672C226.767 235.364 225.87 234.774 225.2 233.902C223.457 231.639 223.88 228.393 226.141 226.651L146.847 123.656C144.585 125.397 141.338 124.975 139.597 122.714L85.1734 164.613C86.9149 166.876 86.4929 170.122 84.2305 171.864Z" fill="white"/>
<path d="M84.2305 171.864L163.526 274.858C165.788 273.117 169.034 273.539 170.775 275.801C171.447 276.673 171.789 277.692 171.837 278.713L227.743 235.672C226.767 235.364 225.87 234.774 225.2 233.902C223.457 231.639 223.88 228.393 226.141 226.651L146.847 123.656C144.585 125.397 141.338 124.975 139.597 122.714L85.1734 164.613C86.9149 166.876 86.4929 170.122 84.2305 171.864Z" stroke="#B3B3B3" stroke-width="1.33333" stroke-miterlimit="10" stroke-linecap="round" stroke-linejoin="round"/>
<path d="M175.105 185.786C167.018 175.281 151.946 173.322 141.443 181.41C130.939 189.495 128.98 204.567 137.067 215.07C145.154 225.575 160.224 227.534 170.729 219.447C181.232 211.36 183.191 196.289 175.105 185.786Z" fill="white"/>
<path d="M175.105 185.786C167.018 175.281 151.946 173.322 141.443 181.41C130.939 189.495 128.98 204.567 137.067 215.07C145.154 225.575 160.224 227.534 170.729 219.447C181.232 211.36 183.191 196.289 175.105 185.786Z" stroke="#B3B3B3" stroke-width="1.33333" stroke-miterlimit="10" stroke-linecap="round" stroke-linejoin="round"/>
<path d="M164.622 187.365L166.196 185.655L169.157 188.381L167.583 190.092C169.664 192.98 169.162 196.165 166.285 199.291L165.619 200.014L162.197 196.864L163.075 195.911C164.59 194.266 164.507 193.034 163.356 191.975C162.205 190.914 160.971 190.934 159.457 192.579C155.095 197.316 161.956 204.058 155.898 210.637C153.022 213.762 149.825 214.528 146.775 212.691L145.231 214.369L142.27 211.643L143.814 209.965C141.7 207.046 142.232 203.828 145.109 200.703L146.563 199.124L149.984 202.274L148.318 204.083C146.804 205.728 146.982 206.986 148.134 208.047C149.284 209.107 150.554 209.181 152.069 207.536C156.43 202.799 149.569 196.056 155.626 189.477C158.473 186.385 161.573 185.593 164.622 187.365Z" fill="white"/>
<path d="M164.622 187.365L166.196 185.655L169.157 188.381L167.583 190.092C169.664 192.98 169.162 196.165 166.285 199.291L165.619 200.014L162.197 196.864L163.075 195.911C164.59 194.266 164.507 193.034 163.356 191.975C162.205 190.914 160.971 190.934 159.457 192.579C155.095 197.316 161.956 204.058 155.898 210.637C153.022 213.762 149.825 214.528 146.775 212.691L145.231 214.369L142.27 211.643L143.814 209.965C141.7 207.046 142.232 203.828 145.109 200.703L146.563 199.124L149.984 202.274L148.318 204.083C146.804 205.728 146.982 206.986 148.134 208.047C149.284 209.107 150.554 209.181 152.069 207.536C156.43 202.799 149.569 196.056 155.626 189.477C158.473 186.385 161.573 185.593 164.622 187.365Z" stroke="#B3B3B3" stroke-width="1.33333" stroke-miterlimit="10" stroke-linecap="round" stroke-linejoin="round"/>
<path d="M227.898 241.222L178.608 319.28L43.7227 234.107L93.0125 156.049L227.898 241.222Z" fill="white"/>
<path d="M227.898 241.222L178.608 319.28L43.7227 234.107L93.0125 156.049L227.898 241.222Z" stroke="#B3B3B3" stroke-width="1.33333" stroke-miterlimit="10" stroke-linecap="round" stroke-linejoin="round"/>
<path d="M58.5139 235.586L168.42 304.985C169.945 302.572 173.137 301.85 175.552 303.375C176.482 303.961 177.154 304.799 177.55 305.742L215.221 246.086C214.199 246.133 213.153 245.886 212.223 245.299C209.809 243.774 209.088 240.582 210.612 238.168L100.706 168.767C99.1818 171.182 95.9886 171.903 93.574 170.379L56.9023 228.454C59.3169 229.979 60.0388 233.171 58.5139 235.586Z" fill="white"/>
<path d="M58.5139 235.586L168.42 304.985C169.945 302.572 173.137 301.85 175.552 303.375C176.482 303.961 177.154 304.799 177.55 305.742L215.221 246.086C214.199 246.133 213.153 245.886 212.223 245.299C209.809 243.774 209.088 240.582 210.612 238.168L100.706 168.767C99.1818 171.182 95.9886 171.903 93.574 170.379L56.9023 228.454C59.3169 229.979 60.0388 233.171 58.5139 235.586Z" stroke="#B3B3B3" stroke-width="1.33333" stroke-miterlimit="10" stroke-linecap="round" stroke-linejoin="round"/>
<path d="M148.626 217.37C137.417 210.291 122.593 213.641 115.515 224.85C108.438 236.059 111.786 250.883 122.995 257.96C134.204 265.038 149.028 261.689 156.105 250.48C163.183 239.272 159.835 224.448 148.626 217.37Z" fill="white"/>
<path d="M148.626 217.37C137.417 210.291 122.593 213.641 115.515 224.85C108.438 236.059 111.786 250.883 122.995 257.96C134.204 265.038 149.028 261.689 156.105 250.48C163.183 239.272 159.835 224.448 148.626 217.37Z" stroke="#B3B3B3" stroke-width="1.33333" stroke-miterlimit="10" stroke-linecap="round" stroke-linejoin="round"/>
<path d="M141.922 223.494L143.179 221.538L146.564 223.714L145.307 225.67C147.854 228.157 147.908 231.382 145.612 234.955L145.08 235.782L141.168 233.268L141.87 232.177C143.078 230.297 142.785 229.098 141.469 228.252C140.151 227.406 138.94 227.637 137.731 229.517C134.25 234.934 142.168 240.396 137.332 247.918C135.036 251.491 132.018 252.796 128.698 251.513L127.465 253.431L124.08 251.255L125.313 249.337C122.727 246.824 122.697 243.562 124.994 239.989L126.156 238.184L130.068 240.698L128.737 242.767C127.529 244.648 127.921 245.857 129.238 246.702C130.554 247.55 131.817 247.403 133.025 245.523C136.507 240.106 128.589 234.645 133.424 227.121C135.696 223.586 138.614 222.271 141.922 223.494Z" fill="white"/>
<path d="M141.922 223.494L143.179 221.538L146.564 223.714L145.307 225.67C147.854 228.157 147.908 231.382 145.612 234.955L145.08 235.782L141.168 233.268L141.87 232.177C143.078 230.297 142.785 229.098 141.469 228.252C140.151 227.406 138.94 227.637 137.731 229.517C134.25 234.934 142.168 240.396 137.332 247.918C135.036 251.491 132.018 252.796 128.698 251.513L127.465 253.431L124.08 251.255L125.313 249.337C122.727 246.824 122.697 243.562 124.994 239.989L126.156 238.184L130.068 240.698L128.737 242.767C127.529 244.648 127.921 245.857 129.238 246.702C130.554 247.55 131.817 247.403 133.025 245.523C136.507 240.106 128.589 234.645 133.424 227.121C135.696 223.586 138.614 222.271 141.922 223.494Z" stroke="#B3B3B3" stroke-width="1.33333" stroke-miterlimit="10" stroke-linecap="round" stroke-linejoin="round"/>
<path d="M212.016 245.773L185.708 334.262L32.7969 288.803L59.105 200.312L212.016 245.773Z" fill="white"/>
<path d="M212.016 245.773L185.708 334.262L32.7969 288.803L59.105 200.312L212.016 245.773Z" stroke="#B3B3B3" stroke-width="1.33333" stroke-miterlimit="10" stroke-linecap="round" stroke-linejoin="round"/>
<path d="M47.4311 286.22L172.026 323.262C172.839 320.525 175.718 318.965 178.454 319.779C179.508 320.093 180.382 320.717 181.019 321.517L201.125 253.888C200.154 254.211 199.083 254.257 198.027 253.942C195.29 253.128 193.731 250.251 194.546 247.514L69.9508 210.472C69.1367 213.209 66.259 214.768 63.5223 213.954L43.9492 279.792C46.6859 280.605 48.2452 283.483 47.4311 286.22Z" fill="white"/>
<path d="M47.4311 286.22L172.026 323.262C172.839 320.525 175.718 318.965 178.454 319.779C179.508 320.093 180.382 320.717 181.019 321.517L201.125 253.888C200.154 254.211 199.083 254.257 198.027 253.942C195.29 253.128 193.731 250.251 194.546 247.514L69.9508 210.472C69.1367 213.209 66.259 214.768 63.5223 213.954L43.9492 279.792C46.6859 280.605 48.2452 283.483 47.4311 286.22Z" stroke="#B3B3B3" stroke-width="1.33333" stroke-miterlimit="10" stroke-linecap="round" stroke-linejoin="round"/>
<path d="M129.248 244.28C116.542 240.503 103.178 247.741 99.3999 260.447C95.6225 273.155 102.861 286.518 115.568 290.295C128.275 294.074 141.637 286.834 145.416 274.128C149.193 261.421 141.955 248.058 129.248 244.28Z" fill="white"/>
<path d="M129.248 244.28C116.542 240.503 103.178 247.741 99.3999 260.447C95.6225 273.155 102.861 286.518 115.568 290.295C128.275 294.074 141.637 286.834 145.416 274.128C149.193 261.421 141.955 248.058 129.248 244.28Z" stroke="#B3B3B3" stroke-width="1.33333" stroke-miterlimit="10" stroke-linecap="round" stroke-linejoin="round"/>
<path d="M124.65 252.035L125.361 249.82L129.192 251.051L128.481 253.265C131.584 255.013 132.467 258.114 131.168 262.158L130.868 263.095L126.44 261.673L126.837 260.438C127.52 258.309 126.928 257.227 125.437 256.749C123.947 256.27 122.836 256.806 122.153 258.936C120.185 265.066 129.242 268.302 126.509 276.817C125.211 280.862 122.632 282.899 119.093 282.514L118.396 284.685L114.564 283.457L115.261 281.284C112.116 279.524 111.247 276.381 112.545 272.336L113.201 270.291L117.629 271.713L116.877 274.054C116.194 276.183 116.884 277.25 118.375 277.729C119.865 278.207 121.048 277.741 121.731 275.613C123.699 269.481 114.64 266.245 117.374 257.731C118.658 253.728 121.139 251.706 124.65 252.035Z" fill="white"/>
<path d="M124.65 252.035L125.361 249.82L129.192 251.051L128.481 253.265C131.584 255.013 132.467 258.114 131.168 262.158L130.868 263.095L126.44 261.673L126.837 260.438C127.52 258.309 126.928 257.227 125.437 256.749C123.947 256.27 122.836 256.806 122.153 258.936C120.185 265.066 129.242 268.302 126.509 276.817C125.211 280.862 122.632 282.899 119.093 282.514L118.396 284.685L114.564 283.457L115.261 281.284C112.116 279.524 111.247 276.381 112.545 272.336L113.201 270.291L117.629 271.713L116.877 274.054C116.194 276.183 116.884 277.25 118.375 277.729C119.865 278.207 121.048 277.741 121.731 275.613C123.699 269.481 114.64 266.245 117.374 257.731C118.658 253.728 121.139 251.706 124.65 252.035Z" stroke="#B3B3B3" stroke-width="1.33333" stroke-miterlimit="10" stroke-linecap="round" stroke-linejoin="round"/>
<path d="M34.2266 356.958L34.5964 264.64L194.12 265.279L193.75 357.596L34.2266 356.958Z" fill="white"/>
<path d="M34.2266 356.958L34.5964 264.64L194.12 265.279L193.75 357.596L34.2266 356.958Z" stroke="#B3B3B3" stroke-width="1.33333" stroke-miterlimit="10" stroke-linecap="round" stroke-linejoin="round"/>
<path d="M180.8 271.873L50.8178 271.352C50.8067 274.208 48.482 276.513 45.6265 276.502C44.527 276.497 43.513 276.144 42.6766 275.553L42.3945 346.109C43.2353 345.526 44.2515 345.182 45.3522 345.186C48.2077 345.197 50.5123 347.521 50.5012 350.376L180.484 350.896C180.496 348.04 182.819 345.736 185.675 345.748L185.949 277.063C183.094 277.052 180.789 274.727 180.8 271.873Z" fill="white"/>
<path d="M180.8 271.873L50.8178 271.352C50.8067 274.208 48.482 276.513 45.6265 276.502C44.527 276.497 43.513 276.144 42.6766 275.553L42.3945 346.109C43.2353 345.526 44.2515 345.182 45.3522 345.186C48.2077 345.197 50.5123 347.521 50.5012 350.376L180.484 350.896C180.496 348.04 182.819 345.736 185.675 345.748L185.949 277.063C183.094 277.052 180.789 274.727 180.8 271.873Z" stroke="#B3B3B3" stroke-width="1.33333" stroke-miterlimit="10" stroke-linecap="round" stroke-linejoin="round"/>
<path d="M114.079 335.12C127.336 335.174 138.125 324.47 138.177 311.215C138.23 297.958 127.527 287.169 114.271 287.116C101.014 287.062 90.2254 297.766 90.1721 311.022C90.1199 324.278 100.822 335.068 114.079 335.12Z" fill="white"/>
<path d="M114.079 335.12C127.336 335.174 138.125 324.47 138.177 311.215C138.23 297.958 127.527 287.169 114.271 287.116C101.014 287.062 90.2254 297.766 90.1721 311.022C90.1199 324.278 100.822 335.068 114.079 335.12Z" stroke="#B3B3B3" stroke-width="1.33333" stroke-miterlimit="10" stroke-linecap="round" stroke-linejoin="round"/>
<path d="M116.649 326.342L116.64 328.667L112.616 328.651L112.625 326.325C109.141 325.596 107.362 322.906 107.379 318.658L107.382 317.674L112.033 317.694L112.028 318.99C112.019 321.226 112.91 322.079 114.475 322.085C116.04 322.091 116.937 321.245 116.947 319.009C116.973 312.572 107.36 312.218 107.396 303.275C107.413 299.028 109.257 296.307 112.748 295.606L112.757 293.325L116.781 293.342L116.772 295.623C120.302 296.352 122.08 299.087 122.062 303.334L122.053 305.481L117.404 305.462L117.413 303.003C117.422 300.768 116.441 299.958 114.877 299.951C113.311 299.946 112.325 300.746 112.316 302.983C112.29 309.422 121.902 309.773 121.866 318.717C121.85 322.92 120.096 325.595 116.649 326.342Z" fill="white"/>
<path d="M116.649 326.342L116.64 328.667L112.616 328.651L112.625 326.325C109.141 325.596 107.362 322.906 107.379 318.658L107.382 317.674L112.033 317.694L112.028 318.99C112.019 321.226 112.91 322.079 114.475 322.085C116.04 322.091 116.937 321.245 116.947 319.009C116.973 312.572 107.36 312.218 107.396 303.275C107.413 299.028 109.257 296.307 112.748 295.606L112.757 293.325L116.781 293.342L116.772 295.623C120.302 296.352 122.08 299.087 122.062 303.334L122.053 305.481L117.404 305.462L117.413 303.003C117.422 300.768 116.441 299.958 114.877 299.951C113.311 299.946 112.325 300.746 112.316 302.983C112.29 309.422 121.902 309.773 121.866 318.717C121.85 322.92 120.096 325.595 116.649 326.342Z" stroke="#B3B3B3" stroke-width="1.33333" stroke-miterlimit="10" stroke-linecap="round" stroke-linejoin="round"/>
<path d="M316.001 407.891C316.001 423.089 321.748 435.41 336.946 435.41H467.467C482.665 435.41 494.986 423.089 494.986 407.891V90.7258C494.986 75.5276 482.665 63.207 467.467 63.207H412.897L412.842 63.4036C411.228 69.2202 407.508 72.9942 403.391 72.9942H401.022C396.905 72.9942 393.184 69.2202 391.57 63.4036L391.516 63.207H336.946C321.748 63.207 316.001 75.5276 316.001 90.7258V407.891ZM300.777 84.4351C300.777 69.2368 313.099 56.9163 328.296 56.9163H476.116C491.315 56.9163 503.635 69.2368 503.635 84.4351V427.547C503.635 442.745 491.315 455.067 476.116 455.067H328.296C313.099 455.067 300.777 442.745 300.777 427.547V84.4351Z" fill="#717171"/>
<path d="M316.001 407.891C316.001 423.089 321.748 435.41 336.946 435.41H467.467C482.665 435.41 494.986 423.089 494.986 407.891V90.7258C494.986 75.5276 482.665 63.207 467.467 63.207H412.897L412.842 63.4036C411.228 69.2201 407.508 72.9942 403.391 72.9942H401.022C396.905 72.9942 393.184 69.2201 391.57 63.4036L391.516 63.207H336.946C321.748 63.207 316.001 75.5276 316.001 90.7258V407.891ZM300.777 84.4351C300.777 69.2368 313.099 56.9163 328.296 56.9163H476.116C491.315 56.9163 503.635 69.2368 503.635 84.4351V427.547C503.635 442.745 491.315 455.067 476.116 455.067H328.296C313.099 455.067 300.777 442.745 300.777 427.547V84.4351Z" stroke="#1A2E35" stroke-width="1.33333" stroke-miterlimit="10" stroke-linecap="round" stroke-linejoin="round"/>
<path d="M479.959 63.2067H425.389L425.334 63.4044C423.72 69.2198 420 72.9949 415.883 72.9949H413.514C409.397 72.9949 405.676 69.2198 404.062 63.4044L404.007 63.2067H349.437C334.24 63.2067 321.918 75.5272 321.918 90.7255V423.46C321.918 432.181 328.987 439.251 337.709 439.251H491.688C500.408 439.251 507.478 432.181 507.478 423.46V90.7255C507.478 75.5272 495.158 63.2067 479.959 63.2067Z" fill="white"/>
<path d="M479.959 63.2067H425.389L425.334 63.4044C423.72 69.2198 420 72.9949 415.883 72.9949H413.514C409.397 72.9949 405.676 69.2198 404.062 63.4044L404.007 63.2067H349.437C334.24 63.2067 321.918 75.5272 321.918 90.7255V423.46C321.918 432.181 328.987 439.251 337.709 439.251H491.688C500.408 439.251 507.478 432.181 507.478 423.46V90.7255C507.478 75.5272 495.158 63.2067 479.959 63.2067Z" stroke="#1A2E35" stroke-width="1.33333" stroke-miterlimit="10" stroke-linecap="round" stroke-linejoin="round"/>
<path d="M371.134 95.4876L320.445 153.384V263.135L335.512 276.325L440.593 156.298L371.134 95.4876Z" fill="white"/>
<path d="M371.134 95.4876L320.445 153.384V263.135L335.512 276.325L440.593 156.298L371.134 95.4876Z" stroke="#B3B3B3" stroke-width="1.33333" stroke-miterlimit="10" stroke-linecap="round" stroke-linejoin="round"/>
<path d="M426.343 154.628L374.665 109.384C372.784 111.532 369.519 111.75 367.369 109.868L320.438 163.475V252.338L332.668 263.044C332.78 262.028 333.186 261.034 333.91 260.207C335.791 258.058 339.058 257.841 341.206 259.721L426.829 161.922C424.679 160.042 424.463 156.776 426.343 154.628Z" fill="white"/>
<path d="M426.343 154.628L374.665 109.384C372.784 111.532 369.519 111.75 367.369 109.868L320.438 163.475V252.338L332.668 263.044C332.78 262.028 333.186 261.034 333.91 260.207C335.791 258.058 339.058 257.841 341.206 259.721L426.829 161.922C424.679 160.042 424.463 156.776 426.343 154.628Z" stroke="#B3B3B3" stroke-width="1.33333" stroke-miterlimit="10" stroke-linecap="round" stroke-linejoin="round"/>
<path d="M371.379 201.717C380.111 191.743 379.104 176.578 369.131 167.846C359.156 159.114 343.992 160.12 335.259 170.095C326.528 180.069 327.534 195.234 337.509 203.965C347.482 212.698 362.647 211.691 371.379 201.717Z" fill="white"/>
<path d="M371.379 201.717C380.111 191.743 379.104 176.578 369.131 167.846C359.156 159.114 343.992 160.12 335.259 170.095C326.528 180.069 327.534 195.234 337.509 203.965C347.482 212.698 362.647 211.691 371.379 201.717Z" stroke="#B3B3B3" stroke-width="1.33333" stroke-miterlimit="10" stroke-linecap="round" stroke-linejoin="round"/>
<path d="M365.847 194.874L367.49 196.521L364.639 199.362L362.997 197.715C360.021 199.67 356.861 199.032 353.862 196.024L353.168 195.326L356.462 192.044L357.377 192.962C358.955 194.546 360.188 194.517 361.297 193.411C362.405 192.306 362.439 191.073 360.861 189.49C356.316 184.929 349.286 191.493 342.973 185.158C339.974 182.149 339.348 178.923 341.312 175.955L339.703 174.339L342.553 171.499L344.164 173.114C347.171 171.127 350.363 171.797 353.362 174.806L354.877 176.326L351.583 179.609L349.847 177.867C348.269 176.283 347.003 176.407 345.895 177.512C344.785 178.616 344.658 179.881 346.236 181.465C350.781 186.027 357.812 179.463 364.124 185.797C367.091 188.773 367.751 191.905 365.847 194.874Z" fill="white"/>
<path d="M365.847 194.874L367.49 196.521L364.639 199.362L362.997 197.715C360.021 199.67 356.861 199.032 353.862 196.024L353.168 195.326L356.462 192.044L357.377 192.962C358.955 194.546 360.188 194.517 361.297 193.411C362.405 192.306 362.439 191.073 360.861 189.49C356.316 184.929 349.286 191.493 342.973 185.158C339.974 182.149 339.348 178.923 341.312 175.955L339.703 174.339L342.553 171.499L344.164 173.114C347.171 171.127 350.363 171.797 353.362 174.806L354.877 176.326L351.583 179.609L349.847 177.867C348.269 176.283 347.003 176.407 345.895 177.512C344.785 178.616 344.658 179.881 346.236 181.465C350.781 186.027 357.812 179.463 364.124 185.797C367.091 188.773 367.751 191.905 365.847 194.874Z" stroke="#B3B3B3" stroke-width="1.33333" stroke-miterlimit="10" stroke-linecap="round" stroke-linejoin="round"/>
<path d="M432.748 134.939L320.445 201.314V258.454L342.389 295.581L479.72 214.413L432.748 134.939Z" fill="white"/>
<path d="M432.748 134.939L320.445 201.314V258.454L342.389 295.581L479.72 214.413L432.748 134.939Z" stroke="#B3B3B3" stroke-width="1.33333" stroke-miterlimit="10" stroke-linecap="round" stroke-linejoin="round"/>
<path d="M466.715 208.374L431.767 149.245C429.309 150.698 426.139 149.883 424.686 147.426L320.445 209.035V242.488L343.846 282.081C344.269 281.149 344.966 280.333 345.913 279.772C348.371 278.32 351.542 279.134 352.994 281.592L464.894 215.455C463.441 212.998 464.257 209.827 466.715 208.374Z" fill="white"/>
<path d="M466.715 208.374L431.767 149.245C429.309 150.698 426.139 149.883 424.686 147.426L320.445 209.035V242.488L343.846 282.081C344.269 281.149 344.966 280.333 345.913 279.772C348.371 278.32 351.542 279.134 352.994 281.592L464.894 215.455C463.441 212.998 464.257 209.827 466.715 208.374Z" stroke="#B3B3B3" stroke-width="1.33333" stroke-miterlimit="10" stroke-linecap="round" stroke-linejoin="round"/>
<path d="M399.782 235.923C411.194 229.178 414.978 214.459 408.232 203.047C401.488 191.636 386.768 187.852 375.356 194.597C363.944 201.342 360.16 216.06 366.905 227.473C373.652 238.885 388.37 242.668 399.782 235.923Z" fill="white"/>
<path d="M399.782 235.923C411.194 229.178 414.978 214.459 408.232 203.047C401.488 191.636 386.768 187.852 375.356 194.597C363.944 201.342 360.16 216.06 366.905 227.473C373.652 238.885 388.37 242.668 399.782 235.923Z" stroke="#B3B3B3" stroke-width="1.33333" stroke-miterlimit="10" stroke-linecap="round" stroke-linejoin="round"/>
<path d="M396.212 228.084L397.173 230.201L393.509 231.865L392.548 229.75C389.077 230.54 386.338 228.839 384.58 224.972L384.173 224.076L388.407 222.152L388.942 223.332C389.868 225.367 391.034 225.77 392.459 225.123C393.884 224.475 394.346 223.332 393.421 221.296C390.756 215.434 381.875 219.128 378.175 210.986C376.416 207.12 376.956 203.878 379.836 201.783L378.892 199.707L382.555 198.042L383.499 200.117C387.011 199.307 389.768 201.05 391.526 204.918L392.414 206.871L388.182 208.796L387.163 206.557C386.238 204.522 385.008 204.196 383.585 204.843C382.16 205.491 381.598 206.631 382.523 208.667C385.186 214.528 394.068 210.835 397.769 218.976C399.509 222.803 399.032 225.967 396.212 228.084Z" fill="white"/>
<path d="M396.212 228.084L397.173 230.201L393.509 231.865L392.548 229.75C389.077 230.54 386.338 228.839 384.58 224.972L384.173 224.076L388.407 222.152L388.942 223.332C389.868 225.367 391.034 225.77 392.459 225.123C393.884 224.475 394.346 223.332 393.421 221.296C390.756 215.434 381.875 219.128 378.175 210.986C376.416 207.12 376.956 203.878 379.836 201.783L378.892 199.707L382.555 198.042L383.499 200.117C387.011 199.307 389.768 201.05 391.526 204.918L392.414 206.871L388.182 208.796L387.163 206.557C386.238 204.522 385.008 204.196 383.585 204.843C382.16 205.491 381.598 206.631 382.523 208.667C385.186 214.528 394.068 210.835 397.769 218.976C399.509 222.803 399.032 225.967 396.212 228.084Z" stroke="#B3B3B3" stroke-width="1.33333" stroke-miterlimit="10" stroke-linecap="round" stroke-linejoin="round"/>
<path d="M475.693 177.451L320.445 204.887V215.642L334.668 296.122L491.76 268.359L475.693 177.451Z" fill="white"/>
<path d="M475.693 177.451L320.445 204.887V215.642L334.668 296.122L491.76 268.359L475.693 177.451Z" stroke="#B3B3B3" stroke-width="1.33333" stroke-miterlimit="10" stroke-linecap="round" stroke-linejoin="round"/>
<path d="M463.755 186.309L335.755 208.931C336.251 211.742 334.375 214.425 331.563 214.921C330.48 215.113 329.42 214.945 328.492 214.515L340.771 283.993C341.494 283.271 342.433 282.749 343.517 282.558C346.328 282.061 349.01 283.937 349.508 286.75L477.508 264.128C477.012 261.315 478.887 258.634 481.699 258.138L469.746 190.501C466.933 190.997 464.251 189.122 463.755 186.309Z" fill="white"/>
<path d="M463.755 186.309L335.755 208.931C336.251 211.742 334.375 214.425 331.563 214.921C330.48 215.113 329.42 214.945 328.492 214.515L340.771 283.993C341.494 283.271 342.433 282.749 343.517 282.558C346.328 282.061 349.01 283.937 349.508 286.75L477.508 264.128C477.012 261.315 478.887 258.634 481.699 258.138L469.746 190.501C466.933 190.997 464.251 189.122 463.755 186.309Z" stroke="#B3B3B3" stroke-width="1.33333" stroke-miterlimit="10" stroke-linecap="round" stroke-linejoin="round"/>
<path d="M409.352 260.423C422.406 258.116 431.119 245.662 428.812 232.61C426.504 219.555 414.052 210.843 400.998 213.15C387.944 215.457 379.231 227.91 381.538 240.963C383.845 254.017 396.298 262.73 409.352 260.423Z" fill="white"/>
<path d="M409.352 260.423C422.406 258.116 431.119 245.662 428.812 232.61C426.504 219.555 414.052 210.843 400.998 213.15C387.944 215.457 379.231 227.91 381.538 240.963C383.845 254.017 396.298 262.73 409.352 260.423Z" stroke="#B3B3B3" stroke-width="1.33333" stroke-miterlimit="10" stroke-linecap="round" stroke-linejoin="round"/>
<path d="M410.205 251.472L410.577 253.768L406.605 254.413L406.232 252.118C402.676 251.971 400.479 249.609 399.798 245.417L399.64 244.446L404.231 243.7L404.439 244.979C404.797 247.187 405.817 247.882 407.361 247.631C408.906 247.379 409.652 246.397 409.294 244.191C408.261 237.835 398.722 239.068 397.287 230.241C396.606 226.048 397.978 223.06 401.305 221.795L400.94 219.544L404.912 218.899L405.278 221.15C408.88 221.29 411.082 223.696 411.763 227.888L412.109 230.007L407.518 230.753L407.124 228.326C406.764 226.119 405.665 225.482 404.12 225.733C402.575 225.984 401.733 226.937 402.092 229.143C403.125 235.499 412.664 234.266 414.099 243.093C414.772 247.242 413.482 250.17 410.205 251.472Z" fill="white"/>
<path d="M410.205 251.472L410.577 253.768L406.605 254.413L406.232 252.118C402.676 251.971 400.479 249.609 399.798 245.417L399.64 244.446L404.231 243.7L404.439 244.979C404.797 247.187 405.817 247.882 407.361 247.631C408.906 247.379 409.652 246.397 409.294 244.191C408.261 237.835 398.722 239.068 397.287 230.241C396.606 226.048 397.978 223.06 401.305 221.795L400.94 219.544L404.912 218.899L405.278 221.15C408.88 221.29 411.082 223.696 411.763 227.888L412.109 230.007L407.518 230.753L407.124 228.326C406.764 226.119 405.665 225.482 404.12 225.733C402.575 225.984 401.733 226.937 402.092 229.143C403.125 235.499 412.664 234.266 414.099 243.093C414.772 247.242 413.482 250.17 410.205 251.472Z" stroke="#B3B3B3" stroke-width="1.33333" stroke-miterlimit="10" stroke-linecap="round" stroke-linejoin="round"/>
<path d="M337.187 297.672L337.129 205.354L496.655 205.255L496.713 297.572L337.187 297.672Z" fill="#39D192"/>
<path d="M337.187 297.672L337.129 205.354L496.655 205.255L496.713 297.572L337.187 297.672Z" stroke="#1A2E35" stroke-width="1.33333" stroke-miterlimit="10" stroke-linecap="round" stroke-linejoin="round"/>
<path d="M483.36 211.91L353.376 211.991C353.378 214.846 351.065 217.162 348.209 217.163C347.109 217.164 346.094 216.815 345.254 216.23L345.298 286.786C346.136 286.199 347.152 285.848 348.253 285.848C351.107 285.846 353.424 288.16 353.426 291.015L483.409 290.933C483.408 288.079 485.72 285.763 488.575 285.761L488.532 217.076C485.678 217.078 483.362 214.765 483.36 211.91Z" fill="white"/>
<path d="M483.36 211.91L353.376 211.991C353.378 214.846 351.065 217.162 348.209 217.163C347.109 217.164 346.094 216.815 345.254 216.23L345.298 286.786C346.136 286.199 347.152 285.848 348.253 285.848C351.107 285.846 353.424 288.16 353.426 291.015L483.409 290.933C483.408 288.079 485.72 285.763 488.575 285.761L488.532 217.076C485.678 217.078 483.362 214.765 483.36 211.91Z" stroke="#1A2E35" stroke-width="1.33333" stroke-miterlimit="10"/>
<path d="M416.932 275.466C430.189 275.458 440.927 264.706 440.92 251.448C440.911 238.192 430.158 227.453 416.902 227.461C403.645 227.468 392.905 238.222 392.914 251.478C392.923 264.734 403.675 275.474 416.932 275.466Z" fill="#1A2E35"/>
<path d="M419.458 266.675L419.459 269.001L415.435 269.003L415.433 266.677C411.946 265.964 410.155 263.282 410.152 259.035V258.051L414.802 258.047L414.804 259.345C414.805 261.58 415.699 262.43 417.264 262.429C418.83 262.428 419.723 261.577 419.722 259.341C419.717 252.903 410.104 252.595 410.098 243.652C410.095 239.405 411.928 236.675 415.414 235.959L415.412 233.677L419.437 233.675L419.438 235.955C422.971 236.668 424.762 239.395 424.764 243.643L424.766 245.79L420.116 245.792L420.115 243.333C420.112 241.098 419.128 240.294 417.564 240.294C415.999 240.295 415.016 241.101 415.017 243.337C415.021 249.775 424.635 250.083 424.641 259.025C424.643 263.229 422.901 265.912 419.458 266.675Z" fill="white"/>
<path d="M435.399 341.78C435.399 329.511 425.454 319.567 413.186 319.567C400.919 319.567 390.973 329.511 390.973 341.78C390.973 354.048 400.919 363.993 413.186 363.993C425.454 363.993 435.399 354.048 435.399 341.78Z" stroke="#1A2E35" stroke-width="1.33333" stroke-miterlimit="10"/>
<path d="M507.478 101.878V90.7258C507.478 75.5276 495.157 63.207 479.959 63.207H425.389L425.334 63.4047C423.72 69.2201 419.999 72.9953 415.882 72.9953H413.513C409.396 72.9953 405.676 69.2201 404.062 63.4047L404.007 63.207H349.437C334.239 63.207 321.918 75.5276 321.918 90.7258V101.878H507.478Z" fill="#39D192"/>
<path d="M507.478 101.878V90.7258C507.478 75.5276 495.157 63.207 479.959 63.207H425.389L425.334 63.4047C423.72 69.2201 419.999 72.9953 415.882 72.9953H413.513C409.396 72.9953 405.676 69.2201 404.062 63.4047L404.007 63.207H349.437C334.239 63.207 321.918 75.5276 321.918 90.7258V101.878H507.478Z" stroke="#1A2E35" stroke-width="1.33333" stroke-miterlimit="10" stroke-linecap="round" stroke-linejoin="round"/>
<path d="M321.918 416.194V423.46C321.918 432.182 328.987 439.251 337.709 439.251H491.686C500.408 439.251 507.478 432.182 507.478 423.46V416.194H321.918Z" fill="#39D192"/>
<path d="M321.918 416.194V423.46C321.918 432.182 328.987 439.251 337.709 439.251H491.686C500.408 439.251 507.478 432.182 507.478 423.46V416.194H321.918Z" stroke="#1A2E35" stroke-width="1.33333" stroke-miterlimit="10" stroke-linecap="round" stroke-linejoin="round"/>
<path d="M507.478 407.891C507.478 423.089 495.158 435.41 479.959 435.41H349.437C334.239 435.41 321.918 423.089 321.918 407.891V90.7258C321.918 75.5276 334.239 63.207 349.437 63.207H404.007L404.062 63.4036C405.676 69.2202 409.396 72.9942 413.513 72.9942H415.882C419.999 72.9942 423.72 69.2202 425.334 63.4036L425.389 63.207H479.959C495.158 63.207 507.478 75.5276 507.478 90.7258V407.891ZM516.127 84.4351C516.127 69.2368 503.806 56.9163 488.608 56.9163H340.788C325.59 56.9163 313.27 69.2368 313.27 84.4351V427.547C313.27 442.745 325.59 455.067 340.788 455.067H488.608C503.806 455.067 516.127 442.745 516.127 427.547V84.4351Z" fill="#717171"/>
<path d="M507.478 407.891C507.478 423.089 495.158 435.41 479.959 435.41H349.437C334.239 435.41 321.918 423.089 321.918 407.891V90.7258C321.918 75.5276 334.239 63.207 349.437 63.207H404.007L404.062 63.4036C405.676 69.2201 409.396 72.9942 413.513 72.9942H415.882C419.999 72.9942 423.72 69.2201 425.334 63.4036L425.389 63.207H479.959C495.158 63.207 507.478 75.5276 507.478 90.7258V407.891ZM516.127 84.4351C516.127 69.2368 503.806 56.9163 488.608 56.9163H340.788C325.59 56.9163 313.27 69.2368 313.27 84.4351V427.547C313.27 442.745 325.59 455.067 340.788 455.067H488.608C503.806 455.067 516.127 442.745 516.127 427.547V84.4351Z" stroke="#1A2E35" stroke-width="1.33333" stroke-miterlimit="10" stroke-linecap="round" stroke-linejoin="round"/>
<path d="M507.479 407.891C507.479 423.089 495.159 435.41 479.96 435.41H349.438C334.24 435.41 321.919 423.089 321.919 407.891V90.726C321.919 75.5277 334.24 63.2072 349.438 63.2072H404.008L404.064 63.4038C405.677 69.2203 409.397 72.9943 413.514 72.9943H415.883C420 72.9943 423.721 69.2203 425.335 63.4038L425.39 63.2072H479.96C495.159 63.2072 507.479 75.5277 507.479 90.726V407.891ZM483.788 60.7071H345.612C329.509 60.7071 316.457 73.7607 316.457 89.8619V422.122C316.457 438.223 329.509 451.277 345.612 451.277H483.788C499.889 451.277 512.942 438.223 512.942 422.122V89.8619C512.942 73.7607 499.889 60.7071 483.788 60.7071Z" fill="#1A2E35"/>
<path d="M507.479 407.891C507.479 423.089 495.159 435.41 479.96 435.41H349.438C334.24 435.41 321.919 423.089 321.919 407.891V90.726C321.919 75.5277 334.24 63.2072 349.438 63.2072H404.008L404.064 63.4038C405.677 69.2203 409.397 72.9943 413.514 72.9943H415.883C420 72.9943 423.721 69.2203 425.335 63.4038L425.39 63.2072H479.96C495.159 63.2072 507.479 75.5277 507.479 90.726V407.891ZM483.788 60.7071H345.612C329.509 60.7071 316.457 73.7607 316.457 89.8619V422.122C316.457 438.223 329.509 451.277 345.612 451.277H483.788C499.889 451.277 512.942 438.223 512.942 422.122V89.8619C512.942 73.7607 499.889 60.7071 483.788 60.7071V60.7071Z" stroke="#1A2E35" stroke-width="1.33333" stroke-miterlimit="10" stroke-linecap="round" stroke-linejoin="round"/>
<path d="M416.718 64.526C416.718 63.0988 415.56 61.9426 414.134 61.9426C412.707 61.9426 411.551 63.0988 411.551 64.526C411.551 65.9532 412.707 67.1094 414.134 67.1094C415.56 67.1094 416.718 65.9532 416.718 64.526Z" fill="#717171"/>
<path d="M338.413 74.4266C338.413 77.0411 335.477 77.9818 335.466 79.9754V80.1121H338.314V80.9917H334.512V80.2487C334.512 77.4487 337.447 76.9034 337.447 74.4633C337.447 73.5714 337.15 73.1016 336.432 73.1016C335.726 73.1016 335.416 73.6092 335.416 74.3766V75.1441H334.512V74.4388C334.512 73.1127 335.118 72.2342 336.455 72.2342C337.806 72.2342 338.413 73.1016 338.413 74.4266Z" fill="#1A2E35"/>
<path d="M343.156 74.4137V74.6369C343.156 75.5288 342.797 76.1608 342.104 76.4206C342.834 76.6928 343.156 77.3503 343.156 78.2166V78.8852C343.156 80.2113 342.536 81.0776 341.198 81.0776C339.874 81.0776 339.254 80.2113 339.254 78.8852V78.291H340.158V78.9474C340.158 79.7282 340.48 80.198 341.174 80.198C341.881 80.198 342.19 79.7393 342.19 78.8608V78.1921C342.19 77.3369 341.831 76.9282 341.099 76.9038H340.58V76.0364H341.149C341.793 76.0108 342.19 75.6032 342.19 74.848V74.4503C342.19 73.5585 341.881 73.1009 341.174 73.1009C340.48 73.1009 340.158 73.584 340.158 74.3648V74.8102H339.254V74.4137C339.254 73.0887 339.874 72.2335 341.198 72.2335C342.536 72.2335 343.156 73.0887 343.156 74.4137Z" fill="#1A2E35"/>
<path d="M345.027 80.9917H344.098V79.79H345.027V80.9917ZM345.027 76.2725H344.098V75.0708H345.027V76.2725Z" fill="#1A2E35"/>
<path d="M346.983 75.8512C347.256 75.3803 347.689 75.1326 348.272 75.1326C349.387 75.1326 349.881 75.9501 349.881 77.1896V78.8856C349.881 80.2117 349.25 81.0791 347.925 81.0791C346.599 81.0791 345.98 80.2117 345.98 78.8856V78.3036H346.883V78.9477C346.883 79.7285 347.206 80.1995 347.9 80.1995C348.594 80.1995 348.916 79.7285 348.916 78.9477V77.2629C348.916 76.4832 348.594 76.0123 347.9 76.0123C347.368 76.0123 347.008 76.3099 346.921 76.9408V77.1396H346.017L346.253 72.3205H349.671V73.1879H347.119L346.983 75.8512Z" fill="#1A2E35"/>
<path d="M351.716 77.6473V78.9479C351.716 79.7287 352.038 80.1985 352.744 80.1985C353.438 80.1985 353.772 79.7287 353.772 78.9479V77.6473C353.772 76.8665 353.438 76.3967 352.744 76.3967C352.038 76.3967 351.716 76.8665 351.716 77.6473ZM354.702 74.402V74.563H353.798V74.3398C353.798 73.559 353.476 73.1014 352.769 73.1014C352.038 73.1014 351.716 73.5723 351.716 74.5008V76.4456C351.952 75.8514 352.423 75.5171 353.116 75.5171C354.231 75.5171 354.726 76.3223 354.726 77.5729V78.8857C354.726 80.2118 354.069 81.0781 352.744 81.0781C351.406 81.0781 350.75 80.2118 350.75 78.8857V74.463C350.75 73.0892 351.37 72.234 352.744 72.234C354.082 72.234 354.702 73.0769 354.702 74.402Z" fill="#1A2E35"/>
<path d="M449.366 80.9038H446.918V74.783H449.366V80.9038Z" fill="#1A2E35"/>
<path d="M452.629 80.9038H450.18V73.5568H452.629V80.9038Z" fill="#1A2E35"/>
<path d="M455.894 80.9038H453.445V72.6861H455.894V80.9038Z" fill="#1A2E35"/>
<path d="M459.159 80.9038H456.711V71.1722H459.159V80.9038Z" fill="#1A2E35"/>
<path d="M475.582 79.919H488.64V72.5742H475.582V79.919ZM489.456 80.7354H474.766V71.7579H489.456V80.7354Z" fill="#1A2E35"/>
<path d="M484.561 79.0312H476.809V73.4624H484.561V79.0312Z" fill="#1A2E35"/>
<path d="M490.792 77.3042H488.945V75.1895H490.792V77.3042Z" fill="#1A2E35"/>
<path d="M469.38 78.7827C469.286 78.7827 469.188 78.7583 469.101 78.705C466.111 76.929 464.135 78.5772 464.053 78.6472C463.824 78.846 463.478 78.8205 463.28 78.5928C463.082 78.3651 463.103 78.0219 463.331 77.822C463.436 77.7287 465.963 75.5651 469.661 77.7631C469.921 77.9164 470.008 78.254 469.853 78.515C469.749 78.6872 469.567 78.7827 469.38 78.7827Z" fill="#1A2E35"/>
<path d="M470.488 76.9387C470.392 76.9387 470.295 76.9143 470.207 76.8621C465.884 74.2909 462.98 76.7776 462.95 76.801C462.723 77.0031 462.377 76.9798 462.177 76.7532C461.976 76.5255 461.997 76.1779 462.226 75.9791C462.261 75.9469 465.764 72.9448 470.769 75.9191C471.029 76.0735 471.114 76.41 470.96 76.671C470.857 76.8432 470.675 76.9387 470.488 76.9387Z" fill="#1A2E35"/>
<path d="M471.489 74.8027C471.393 74.8027 471.295 74.7783 471.208 74.7261C465.733 71.4708 462.094 74.5351 461.94 74.6672C461.713 74.866 461.366 74.8416 461.167 74.615C460.967 74.3873 460.991 74.0419 461.218 73.8431C461.261 73.8043 465.585 70.1058 471.77 73.7832C472.03 73.9375 472.115 74.2741 471.96 74.5351C471.857 74.7083 471.675 74.8027 471.489 74.8027Z" fill="#1A2E35"/>
<path d="M467.73 79.702C467.73 80.4628 467.113 81.0781 466.354 81.0781C465.593 81.0781 464.977 80.4628 464.977 79.702C464.977 78.9423 465.593 78.3259 466.354 78.3259C467.113 78.3259 467.73 78.9423 467.73 79.702Z" fill="#1A2E35"/>
<path d="M308.639 149.286H302.859V126.504H308.639V149.286Z" fill="#1A2E35" stroke="#1A2E35" stroke-width="1.33333" stroke-miterlimit="10" stroke-linecap="round" stroke-linejoin="round"/>
<path d="M146.722 301.311L149.509 313.326C149.509 313.326 145.851 317.505 142.543 315.938C139.235 314.371 138.016 305.665 138.016 305.665L146.722 301.311Z" fill="white"/>
<path d="M146.722 301.311L149.509 313.326C149.509 313.326 145.851 317.505 142.543 315.938C139.235 314.371 138.016 305.665 138.016 305.665L146.722 301.311Z" stroke="#1A2E35" stroke-width="1.33333" stroke-miterlimit="10" stroke-linecap="round" stroke-linejoin="round"/>
<path d="M138.242 271.551C138.242 271.551 141.361 274.047 141.986 278.206C142.609 282.365 152.02 310.133 152.02 310.133C152.02 310.133 146.768 309.098 141.777 310.969C136.786 312.842 131.639 307.879 131.639 307.879L131.379 275.087" fill="#39D192"/>
<path d="M138.242 271.551C138.242 271.551 141.361 274.047 141.986 278.206C142.609 282.365 152.02 310.133 152.02 310.133C152.02 310.133 146.768 309.098 141.777 310.969C136.786 312.842 131.639 307.879 131.639 307.879L131.379 275.087" stroke="#1A2E35" stroke-width="1.33333" stroke-miterlimit="10" stroke-linecap="round" stroke-linejoin="round"/>
<path d="M138.344 307.356L151.203 305.256C151.203 305.256 152.58 307.399 152.023 310.133C151.465 312.867 152.099 313.86 150.208 314.545C148.316 315.229 142.543 314.441 140.968 312.342C139.393 310.243 138.344 307.356 138.344 307.356Z" fill="#39D192"/>
<path d="M138.344 307.356L151.203 305.256C151.203 305.256 152.58 307.399 152.023 310.133C151.465 312.867 152.099 313.86 150.208 314.545C148.316 315.229 142.543 314.441 140.968 312.342C139.393 310.243 138.344 307.356 138.344 307.356Z" stroke="#1A2E35" stroke-width="1.33333" stroke-miterlimit="10" stroke-linecap="round" stroke-linejoin="round"/>
<path d="M138.227 297.381L140.736 284.84" stroke="#1A2E35" stroke-width="1.33333" stroke-miterlimit="10" stroke-linecap="round" stroke-linejoin="round"/>
<path d="M78.7609 306.907L78.8053 306.932C81.5231 297.217 87.0531 280.879 88.1193 277.374C89.5754 272.591 92.071 271.343 92.071 271.343L95.8151 294.636L94.359 297.757C94.359 297.757 90.3173 308.998 87.253 314.55L95.6063 332.28L98.5184 338.519L94.7744 343.927C94.7744 343.927 77.7213 317.514 76.8895 315.642C76.0576 313.77 78.7609 306.907 78.7609 306.907Z" fill="white"/>
<path d="M78.7609 306.907L78.8053 306.932C81.5231 297.217 87.0531 280.879 88.1193 277.374C89.5754 272.591 92.071 271.343 92.071 271.343L95.8151 294.636L94.359 297.757C94.359 297.757 90.3173 308.998 87.253 314.55L95.6063 332.28L98.5184 338.519L94.7744 343.927C94.7744 343.927 77.7213 317.514 76.8895 315.642C76.0576 313.77 78.7609 306.907 78.7609 306.907Z" stroke="#1A2E35" stroke-width="1.33333" stroke-miterlimit="10" stroke-linecap="round" stroke-linejoin="round"/>
<path d="M93.1134 270.927C93.1134 270.927 90.2013 271.552 88.1221 274.879C86.0418 278.207 75.8516 311.691 75.8516 311.691C75.8516 311.691 78.9714 314.186 83.1308 314.811C87.2902 315.434 87.2558 314.55 87.2558 314.55L95.6091 299.212" fill="#39D192"/>
<path d="M93.1134 270.927C93.1134 270.927 90.2013 271.552 88.1221 274.879C86.0418 278.207 75.8516 311.691 75.8516 311.691C75.8516 311.691 78.9714 314.186 83.1308 314.811C87.2902 315.434 87.2558 314.55 87.2558 314.55L95.6091 299.212" stroke="#1A2E35" stroke-width="1.33333" stroke-miterlimit="10" stroke-linecap="round" stroke-linejoin="round"/>
<path d="M76.9368 305.519C76.9368 305.519 73.7881 311.817 75.363 313.392C76.9368 314.966 84.0217 316.541 88.2211 315.492L89.2706 309.98C89.2706 309.98 79.5613 307.881 76.9368 305.519Z" fill="#39D192"/>
<path d="M76.9368 305.519C76.9368 305.519 73.7881 311.817 75.363 313.392C76.9368 314.966 84.0217 316.541 88.2211 315.492L89.2706 309.98C89.2706 309.98 79.5613 307.881 76.9368 305.519V305.519Z" stroke="#1A2E35" stroke-width="1.33333" stroke-miterlimit="10" stroke-linecap="round" stroke-linejoin="round"/>
<path d="M89.3072 287.347L94.3241 301.563L87.4258 292.992" stroke="#1A2E35" stroke-width="1.33333" stroke-miterlimit="10" stroke-linecap="round" stroke-linejoin="round"/>
<path d="M141.391 446.107C141.391 446.107 141.391 446.953 146.675 451.391C151.958 455.829 153.014 457.097 151.535 458.577C150.056 460.055 142.871 457.307 140.546 455.829C138.222 454.35 139.278 454.35 136.531 453.081C133.783 451.814 135.052 447.376 135.474 446.318C135.897 445.262 141.391 446.107 141.391 446.107Z" fill="white"/>
<path d="M141.391 446.107C141.391 446.107 141.391 446.953 146.675 451.391C151.958 455.829 153.014 457.097 151.535 458.577C150.056 460.055 142.871 457.307 140.546 455.829C138.222 454.35 139.278 454.35 136.531 453.081C133.783 451.814 135.052 447.376 135.474 446.318C135.897 445.262 141.391 446.107 141.391 446.107Z" stroke="#1A2E35" stroke-width="1.33333" stroke-miterlimit="10" stroke-linecap="round" stroke-linejoin="round"/>
<path d="M90.2893 445.15C90.2893 445.15 90.2893 445.995 85.0059 450.433C79.7225 454.87 78.6663 456.138 80.1457 457.618C81.6251 459.097 88.8099 456.35 91.1345 454.87C93.4591 453.391 92.4029 453.391 95.1496 452.122C97.8973 450.855 96.6289 446.418 96.2069 445.36C95.7837 444.303 90.2893 445.15 90.2893 445.15Z" fill="white"/>
<path d="M90.2893 445.15C90.2893 445.15 90.2893 445.995 85.0059 450.433C79.7225 454.87 78.6663 456.138 80.1457 457.618C81.6251 459.097 88.8099 456.35 91.1345 454.87C93.4591 453.391 92.4029 453.391 95.1496 452.122C97.8973 450.855 96.6289 446.418 96.2069 445.36C95.7837 444.303 90.2893 445.15 90.2893 445.15Z" stroke="#1A2E35" stroke-width="1.33333" stroke-miterlimit="10" stroke-linecap="round" stroke-linejoin="round"/>
<path d="M93.5309 366.052C92.8568 358.942 94.3617 344.987 94.3617 343.303C94.3617 341.523 97.5515 334.736 98.4745 332.808L98.5644 330.581C98.5644 330.581 131.441 329.342 135.783 327.791C135.783 327.791 140.855 345.627 141.476 362.376C142.097 379.125 144.888 399.594 144.267 411.38C143.77 420.818 143.332 439.629 142.915 445.949C142.817 447.431 141.758 448.672 140.31 449.002L139.549 449.174C137.612 449.614 135.719 448.29 135.474 446.319C133.949 434.055 128.316 392.891 125.969 385.326C123.177 376.333 117.439 351.986 117.439 351.986C117.439 351.986 104.258 412 102.706 420.065C101.156 428.129 96.1932 446.427 96.1932 446.427C96.1932 446.427 93.712 447.358 92.1615 447.358C90.611 447.358 88.7695 446.74 88.7695 446.74L93.5309 366.052Z" fill="#1A2E35"/>
<path d="M93.5309 366.052C92.8568 358.942 94.3617 344.987 94.3617 343.303C94.3617 341.523 97.5515 334.736 98.4745 332.808L98.5644 330.581C98.5644 330.581 131.441 329.342 135.783 327.791C135.783 327.791 140.855 345.627 141.476 362.376C142.097 379.125 144.888 399.594 144.267 411.38C143.77 420.818 143.332 439.629 142.915 445.949C142.817 447.431 141.758 448.672 140.31 449.002L139.549 449.174C137.612 449.614 135.719 448.29 135.474 446.319C133.949 434.055 128.316 392.891 125.969 385.326C123.177 376.333 117.439 351.986 117.439 351.986C117.439 351.986 104.258 412 102.706 420.065C101.156 428.129 96.1932 446.427 96.1932 446.427C96.1932 446.427 93.712 447.358 92.1615 447.358C90.611 447.358 88.7695 446.74 88.7695 446.74L93.5309 366.052Z" stroke="#1A2E35" stroke-width="1.33333" stroke-miterlimit="10" stroke-linecap="round" stroke-linejoin="round"/>
<path d="M116.687 265.23C116.687 265.23 124.707 266.834 130.119 268.439C135.532 270.043 139.142 271.045 139.142 272.849C139.142 274.653 136.735 328.586 136.735 328.586C136.735 328.586 136.535 330.791 131.724 331.392C126.911 331.994 101.45 332.796 99.8447 332.396C98.2421 331.994 97.6401 330.39 97.4391 327.985C97.2391 325.579 91.0239 274.453 91.4248 272.048C91.8258 269.642 111.474 266.033 112.075 265.832C112.677 265.631 114.481 264.83 116.687 265.23Z" fill="#39D192"/>
<path d="M116.687 265.23C116.687 265.23 124.707 266.834 130.119 268.439C135.532 270.043 139.142 271.045 139.142 272.849C139.142 274.653 136.735 328.586 136.735 328.586C136.735 328.586 136.535 330.791 131.724 331.392C126.911 331.994 101.45 332.796 99.8447 332.396C98.2421 331.994 97.6401 330.39 97.4391 327.985C97.2391 325.579 91.0239 274.453 91.4248 272.048C91.8258 269.642 111.474 266.033 112.075 265.832C112.677 265.631 114.481 264.83 116.687 265.23Z" stroke="#1A2E35" stroke-width="1.33333" stroke-miterlimit="10" stroke-linecap="round" stroke-linejoin="round"/>
<path d="M123.384 272.924C123.384 276.965 119.453 280.24 114.604 280.24C109.755 280.24 105.824 276.965 105.824 272.924C105.824 268.882 109.755 265.607 114.604 265.607C119.453 265.607 123.384 268.882 123.384 272.924Z" fill="#39D192"/>
<path d="M123.384 272.924C123.384 276.965 119.453 280.24 114.604 280.24C109.755 280.24 105.824 276.965 105.824 272.924C105.824 268.882 109.755 265.607 114.604 265.607C119.453 265.607 123.384 268.882 123.384 272.924Z" stroke="#1A2E35" stroke-width="1.33333" stroke-miterlimit="10" stroke-linecap="round" stroke-linejoin="round"/>
<path d="M92.0703 271.344L114.31 285.237L114.084 311.086L123.153 310.406L119.073 285.69L137.213 271.631L121.339 265.508C121.339 265.508 120.886 271.405 120.433 273.446C119.979 275.485 118.543 277.713 114.272 277.62C110.002 277.527 107.734 271.405 107.734 271.405L107.866 265.481C107.866 265.481 94.0928 268.56 92.0703 271.344Z" fill="#1A2E35"/>
<path d="M92.0703 271.344L114.31 285.237L114.084 311.086L123.153 310.406L119.073 285.69L137.213 271.631L121.339 265.508C121.339 265.508 120.886 271.405 120.433 273.446C119.979 275.485 118.543 277.713 114.272 277.62C110.002 277.527 107.734 271.405 107.734 271.405L107.866 265.481C107.866 265.481 94.0928 268.56 92.0703 271.344Z" stroke="#1A2E35" stroke-width="1.33333" stroke-miterlimit="10" stroke-linecap="round" stroke-linejoin="round"/>
<path d="M137.482 296.236C137.482 296.236 129.198 314.776 118.152 324.244" stroke="#1A2E35" stroke-width="1.33333" stroke-miterlimit="10" stroke-linecap="round" stroke-linejoin="round"/>
<path d="M105.814 328.929C104.871 329.64 103.977 330.201 103.168 330.555" stroke="#1A2E35" stroke-width="1.33333" stroke-miterlimit="10" stroke-linecap="round" stroke-linejoin="round"/>
<path d="M120.915 312.41C120.915 312.41 113.763 322.028 107.648 327.42" stroke="#1A2E35" stroke-width="1.33333" stroke-miterlimit="10" stroke-linecap="round" stroke-linejoin="round"/>
<path d="M122.387 251.442C122.387 251.442 124.239 246.808 125.167 250.515C126.093 254.222 122.85 258.855 120.996 257.465" fill="white"/>
<path d="M122.387 251.442C122.387 251.442 124.239 246.808 125.167 250.515C126.093 254.222 122.85 258.855 120.996 257.465" stroke="#1A2E35" stroke-width="1.33333" stroke-miterlimit="10" stroke-linecap="round" stroke-linejoin="round"/>
<path d="M103.384 252.6C103.384 252.6 99.4457 250.052 99.6778 253.526C99.91 257.001 103.384 260.94 104.543 258.855" fill="white"/>
<path d="M103.384 252.6C103.384 252.6 99.4457 250.052 99.6778 253.526C99.91 257.001 103.384 260.94 104.543 258.855" stroke="#1A2E35" stroke-width="1.33333" stroke-miterlimit="10" stroke-linecap="round" stroke-linejoin="round"/>
<path d="M120.991 257.465L120.76 271.829C120.76 271.829 120.528 277.62 114.273 277.62C108.018 277.62 108.25 270.439 108.25 270.439L106.859 258.855C106.859 258.855 116.822 260.014 120.991 257.465Z" fill="white"/>
<path d="M120.991 257.465L120.76 271.829C120.76 271.829 120.528 277.62 114.273 277.62C108.018 277.62 108.25 270.439 108.25 270.439L106.859 258.855C106.859 258.855 116.822 260.014 120.991 257.465V257.465Z" stroke="#1A2E35" stroke-width="1.33333" stroke-miterlimit="10" stroke-linecap="round" stroke-linejoin="round"/>
<path d="M114.616 269.473C116.541 269.123 118.962 266.861 120.846 264.772L120.933 259.302L117.087 256.981C114.886 257.35 112.437 257.389 110.485 257.33L107.258 260.4L107.868 265.481C109.57 267.397 112.291 269.896 114.616 269.473Z" fill="#1A2E35"/>
<path d="M101.718 249.288C101.718 249.288 98.9376 240.716 106.351 235.619C113.765 230.522 121.641 237.01 122.568 243.497C123.494 249.983 122.799 258.554 119.325 263.42C115.85 268.285 113.692 268.635 109.827 265.737C105.961 262.839 101.949 254.848 101.718 249.288Z" fill="white"/>
<path d="M101.718 249.288C101.718 249.288 98.9376 240.716 106.351 235.619C113.765 230.522 121.641 237.01 122.568 243.497C123.494 249.983 122.799 258.554 119.325 263.42C115.85 268.285 113.692 268.635 109.827 265.737C105.961 262.839 101.949 254.848 101.718 249.288Z" stroke="#1A2E35" stroke-width="1.33333" stroke-miterlimit="10" stroke-linecap="round" stroke-linejoin="round"/>
<path d="M106.354 244.272C106.354 244.272 103.768 248.635 105.223 248.958C106.677 249.281 112.656 245.081 112.656 245.081C112.656 245.081 111.525 247.504 113.949 247.504C116.373 247.504 119.12 241.363 119.12 241.363C119.12 241.363 118.797 243.303 119.928 244.919C121.059 246.535 122.352 248.635 122.352 248.635L122.514 249.605L124.291 248.635C124.291 248.635 124.129 240.233 123.968 238.94C123.806 237.647 127.2 241.525 127.362 238.778C127.523 236.031 119.928 231.667 119.282 231.344C118.636 231.021 123.484 231.344 122.514 230.051C121.544 228.759 114.757 226.982 112.172 227.951C109.586 228.921 103.445 232.799 103.445 232.799C103.445 232.799 102.152 229.567 101.022 232.637C99.89 235.708 97.6287 238.778 98.4361 241.525C99.2447 244.272 101.668 250.413 101.829 250.897C101.991 251.383 105.061 244.272 105.061 244.272C105.061 244.272 102.476 248.312 106.354 244.272Z" fill="#1A2E35"/>
<path d="M106.354 244.272C106.354 244.272 103.768 248.635 105.223 248.958C106.677 249.281 112.656 245.081 112.656 245.081C112.656 245.081 111.525 247.504 113.949 247.504C116.373 247.504 119.12 241.363 119.12 241.363C119.12 241.363 118.797 243.303 119.928 244.919C121.059 246.535 122.352 248.635 122.352 248.635L122.514 249.605L124.291 248.635C124.291 248.635 124.129 240.233 123.968 238.94C123.806 237.647 127.2 241.525 127.362 238.778C127.523 236.031 119.928 231.667 119.282 231.344C118.636 231.021 123.484 231.344 122.514 230.051C121.544 228.759 114.757 226.982 112.172 227.951C109.586 228.921 103.445 232.799 103.445 232.799C103.445 232.799 102.152 229.567 101.022 232.637C99.89 235.708 97.6287 238.778 98.4361 241.525C99.2447 244.272 101.668 250.413 101.829 250.897C101.991 251.383 105.061 244.272 105.061 244.272C105.061 244.272 102.476 248.312 106.354 244.272Z" stroke="#1A2E35" stroke-width="1.33333" stroke-miterlimit="10" stroke-linecap="round" stroke-linejoin="round"/>
<path d="M106.176 254.004C106.176 254.004 107.753 255.295 110.335 254.004" stroke="#1A2E35" stroke-width="1.33333" stroke-miterlimit="10" stroke-linecap="round" stroke-linejoin="round"/>
<path d="M114.926 253.573C114.926 253.573 118.368 254.72 119.802 252.855" stroke="#1A2E35" stroke-width="1.33333" stroke-miterlimit="10" stroke-linecap="round" stroke-linejoin="round"/>
<path d="M111.625 259.166C111.625 259.166 112.916 260.169 113.776 259.883C114.636 259.597 114.924 258.448 114.924 258.448" stroke="#1A2E35" stroke-width="1.33333" stroke-miterlimit="10" stroke-linecap="round" stroke-linejoin="round"/>
<path d="M111.914 262.034C111.914 262.034 114.065 263.181 115.929 261.174" stroke="#1A2E35" stroke-width="1.33333" stroke-miterlimit="10" stroke-linecap="round" stroke-linejoin="round"/>
<path d="M105.602 251.709C105.602 251.709 108.327 250.275 110.477 250.992" stroke="#1A2E35" stroke-width="1.33333" stroke-miterlimit="10" stroke-linecap="round" stroke-linejoin="round"/>
<path d="M114.062 250.848C114.062 250.848 116.357 248.985 118.795 250.131" stroke="#1A2E35" stroke-width="1.33333" stroke-miterlimit="10" stroke-linecap="round" stroke-linejoin="round"/>
<path d="M112.711 281.611L115.462 300.716L124.538 299.776L122.614 280.045L112.711 281.611Z" fill="white"/>
<path d="M112.711 281.611L115.462 300.716L124.538 299.776L122.614 280.044L112.711 281.611Z" stroke="#1A2E35" stroke-width="1.33333" stroke-miterlimit="10" stroke-linecap="round" stroke-linejoin="round"/>
<path d="M127.914 292.604L126.521 289.47L123.386 287.38L123.735 289.47L124.953 292.257L119.555 291.385L114.854 291.21C114.854 291.21 114.332 292.257 114.854 292.43C115.376 292.604 118.859 293.997 118.859 293.997L113.81 294.52C113.81 294.52 113.113 295.913 113.81 296.261C114.506 296.608 115.725 299.744 117.641 300.266C119.555 300.788 126.521 299.222 126.521 299.222C126.521 299.222 137.666 319.246 139.929 320.813C142.193 322.381 146.372 321.509 147.417 320.988C148.461 320.465 150.395 317.706 150.203 314.544C150.119 313.155 129.133 295.391 129.133 295.391L127.914 292.604Z" fill="white"/>
<path d="M127.914 292.604L126.521 289.47L123.386 287.38L123.735 289.47L124.953 292.257L119.555 291.385L114.854 291.21C114.854 291.21 114.332 292.257 114.854 292.43C115.376 292.604 118.859 293.997 118.859 293.997L113.81 294.52C113.81 294.52 113.113 295.913 113.81 296.261C114.506 296.608 115.725 299.744 117.641 300.266C119.555 300.788 126.521 299.222 126.521 299.222C126.521 299.222 137.666 319.246 139.929 320.813C142.193 322.381 146.372 321.509 147.417 320.988C148.461 320.465 150.395 317.706 150.203 314.544C150.119 313.155 129.133 295.391 129.133 295.391L127.914 292.604Z" stroke="#1A2E35" stroke-width="1.33333" stroke-miterlimit="10" stroke-linecap="round" stroke-linejoin="round"/>
</svg>
