<svg width="494" height="482" viewBox="0 0 494 482" fill="none" xmlns="http://www.w3.org/2000/svg">
<path d="M458.384 96.3204C454.97 90.8332 451.197 85.5061 447.018 80.3671C413.384 39.0038 369.409 21.5069 319.168 9.77994C267.279 -2.33264 206.526 -6.14426 156.712 15.7546C144.986 20.9092 133.869 27.8121 125.022 37.1649C91.6972 72.3946 80.2717 131.426 43.1389 178.08C6.006 224.735 -12.0844 282.814 21.24 338.037C35.3431 361.408 53.3243 380.689 74.6016 397.605C100.8 418.432 123.397 446.524 153.672 462.782C185.491 479.873 227.869 485.826 263.082 478.001C303.257 469.072 326.822 433.572 357.491 409.36C381.667 390.271 410.589 377.778 434.281 358.091C470.576 327.93 498.096 279.45 493.495 231.398C489.033 184.786 483.253 136.295 458.384 96.3204Z" fill="#39D192"/>
<g opacity="0.699997">
<path d="M458.38 96.3204C454.966 90.8332 451.193 85.5061 447.014 80.3671C413.381 39.0037 369.405 21.5069 319.164 9.77992C267.275 -2.33266 206.522 -6.14427 156.708 15.7546C144.982 20.9092 133.865 27.8121 125.018 37.1649C91.6933 72.3946 80.2678 131.426 43.135 178.08C6.0021 224.735 -12.0883 282.814 21.2361 338.037C35.3392 361.408 53.3204 380.689 74.5977 397.605C100.796 418.432 123.393 446.524 153.668 462.782C185.487 479.873 227.865 485.826 263.078 478.001C303.253 469.072 326.818 433.572 357.487 409.359C381.663 390.271 410.586 377.778 434.277 358.091C470.573 327.93 498.092 279.45 493.491 231.398C489.029 184.786 483.249 136.295 458.38 96.3204Z" fill="white"/>
</g>
<path d="M32.2285 433.531H480.439" stroke="#1A2E35" stroke-width="1.33333" stroke-miterlimit="10" stroke-linecap="round" stroke-linejoin="round"/>
<path d="M8.32422 433.531H23.9158" stroke="#1A2E35" stroke-width="1.33333" stroke-miterlimit="10" stroke-linecap="round" stroke-linejoin="round"/>
<g opacity="0.199997">
<path d="M438.31 29.9776C436.212 29.9776 434.45 31.3403 433.812 33.2227H200.742C200.104 31.3403 198.342 29.9776 196.245 29.9776C193.611 29.9776 191.475 32.1136 191.475 34.7475C191.475 37.3815 193.611 39.5175 196.245 39.5175C198.342 39.5175 200.104 38.1548 200.742 36.2724H433.812C434.451 38.1548 436.212 39.5175 438.31 39.5175C440.944 39.5175 443.08 37.3815 443.08 34.7475C443.08 32.1136 440.944 29.9776 438.31 29.9776Z" fill="black"/>
</g>
<g opacity="0.199997">
<path d="M255.874 37.1323C259.197 117.935 262.102 199.51 265.579 280.019L265.236 295.798C265.236 295.798 250.297 295.798 242.436 296.584C234.574 297.371 222.387 297.371 213.739 297.371C205.091 297.371 200.373 294.226 200.373 294.226L200.936 279.995C202.682 199.527 204.564 117.943 205.792 37.1323" stroke="black" stroke-width="1.33333" stroke-miterlimit="10" stroke-linejoin="round"/>
<path d="M218.635 266.662L218.594 276.176" stroke="black" stroke-width="1.33333" stroke-miterlimit="10" stroke-linejoin="round"/>
<path d="M219.446 81.2897L218.67 258.214" stroke="black" stroke-width="1.33333" stroke-miterlimit="10" stroke-linejoin="round"/>
<path d="M219.648 35.3423L219.469 76.0103" stroke="black" stroke-width="1.33333" stroke-miterlimit="10" stroke-linejoin="round"/>
<path d="M233.047 128.283L231.268 246.071" stroke="black" stroke-width="1.33333" stroke-miterlimit="10" stroke-linejoin="round"/>
<path d="M234.438 36.3984L233.16 120.914" stroke="black" stroke-width="1.33333" stroke-miterlimit="10" stroke-linejoin="round"/>
<path d="M245.562 161.038L246.058 270.366" stroke="black" stroke-width="1.33333" stroke-miterlimit="10" stroke-linejoin="round"/>
<path d="M245.207 83.405L245.519 152.064" stroke="black" stroke-width="1.33333" stroke-miterlimit="10" stroke-linejoin="round"/>
<path d="M245 37.4551L245.17 74.9549" stroke="black" stroke-width="1.33333" stroke-miterlimit="10" stroke-linejoin="round"/>
</g>
<g opacity="0.199997">
<path d="M376.456 37.1323C373.259 122.684 369.193 209.101 366.131 294.203C366.131 294.203 376.304 295.74 382.85 295.74H397.91H416.24C423.442 295.74 431.699 294.144 431.699 294.144C430.193 209.101 429.177 122.684 426.538 37.1323" stroke="black" stroke-width="1.33333" stroke-miterlimit="10" stroke-linejoin="round"/>
<path d="M413.695 266.662L413.737 276.176" stroke="black" stroke-width="1.33333" stroke-miterlimit="10" stroke-linejoin="round"/>
<path d="M412.881 81.2897L413.657 258.214" stroke="black" stroke-width="1.33333" stroke-miterlimit="10" stroke-linejoin="round"/>
<path d="M412.68 35.3423L412.858 76.0103" stroke="black" stroke-width="1.33333" stroke-miterlimit="10" stroke-linejoin="round"/>
<path d="M399.279 128.283L401.06 246.071" stroke="black" stroke-width="1.33333" stroke-miterlimit="10" stroke-linejoin="round"/>
<path d="M397.893 36.3984L399.17 120.914" stroke="black" stroke-width="1.33333" stroke-miterlimit="10" stroke-linejoin="round"/>
<path d="M386.769 161.038L386.273 270.366" stroke="black" stroke-width="1.33333" stroke-miterlimit="10" stroke-linejoin="round"/>
<path d="M387.117 83.405L386.805 152.064" stroke="black" stroke-width="1.33333" stroke-miterlimit="10" stroke-linejoin="round"/>
<path d="M387.328 37.4551L387.158 74.9549" stroke="black" stroke-width="1.33333" stroke-miterlimit="10" stroke-linejoin="round"/>
</g>
<g opacity="0.199997">
<path d="M257.361 60.0939H280.817V87.4602H258.925" stroke="black" stroke-width="1.33333" stroke-miterlimit="10" stroke-linejoin="round"/>
<path d="M309.423 87.6111H284.906V60.1617H309.423V87.6111Z" stroke="black" stroke-width="1.33333" stroke-miterlimit="10" stroke-linejoin="round"/>
</g>
<g opacity="0.199997">
<path d="M375.287 60.0939H351.83V87.4602H373.723" stroke="black" stroke-width="1.33333" stroke-miterlimit="10" stroke-linejoin="round"/>
<path d="M323.219 87.6111H347.737V60.1617H323.219V87.6111Z" stroke="black" stroke-width="1.33333" stroke-miterlimit="10" stroke-linejoin="round"/>
</g>
<g opacity="0.199997">
<path d="M261.22 184.445H310.039V102.403H259.074" stroke="black" stroke-width="1.33333" stroke-miterlimit="10" stroke-linejoin="round"/>
</g>
<g opacity="0.199997">
<path d="M372.806 101.707H322.914V184.445H369.051" stroke="black" stroke-width="1.33333" stroke-miterlimit="10" stroke-linejoin="round"/>
</g>
<g opacity="0.199997">
<path d="M262.832 203.912H310.041V286.384H266.407" stroke="black" stroke-width="1.33333" stroke-miterlimit="10" stroke-linejoin="round"/>
</g>
<g opacity="0.199997">
<path d="M369.587 203.217H322.914V287.151H365.466" stroke="black" stroke-width="1.33333" stroke-miterlimit="10" stroke-linejoin="round"/>
</g>
<g opacity="0.199997">
<path d="M266.188 292.389H366.12" stroke="black" stroke-width="1.33333" stroke-miterlimit="10" stroke-linejoin="round"/>
</g>
<g opacity="0.199997">
<path d="M257.152 50.5984H375.223" stroke="black" stroke-width="1.33333" stroke-miterlimit="10" stroke-linejoin="round"/>
</g>
<g opacity="0.199997">
<path d="M316.479 51.1632V291.258" stroke="black" stroke-width="1.33333" stroke-miterlimit="10" stroke-linejoin="round"/>
</g>
<g opacity="0.199997">
<path d="M258.66 96.0575H373.508" stroke="black" stroke-width="1.33333" stroke-miterlimit="10" stroke-linejoin="round"/>
</g>
<path d="M207.458 229.793L212.956 236.983L259.898 241.634L257.382 247.485L201.537 251.783L192.234 232.33L207.458 229.793Z" fill="white"/>
<path d="M207.458 229.793L212.956 236.983L259.898 241.634L257.382 247.485L201.537 251.783L192.234 232.33L207.458 229.793Z" stroke="#1A2E35" stroke-width="1.33333" stroke-miterlimit="10" stroke-linecap="round" stroke-linejoin="round"/>
<path d="M200.691 201.881L212.532 231.061L198.999 235.713L187.58 212.031L200.691 201.881Z" fill="#39D192"/>
<path d="M200.691 201.881L212.532 231.061L198.999 235.713L187.58 212.031L200.691 201.881Z" stroke="#1A2E35" stroke-width="1.33333" stroke-miterlimit="10" stroke-linecap="round" stroke-linejoin="round"/>
<path d="M480.702 449.18C480.702 453.772 452.083 457.495 416.777 457.495C381.472 457.495 352.852 453.772 352.852 449.18C352.852 444.587 381.472 440.864 416.777 440.864C452.083 440.864 480.702 444.587 480.702 449.18Z" fill="#1A2E35"/>
<path d="M480.702 449.18C480.702 453.772 452.083 457.495 416.777 457.495C381.472 457.495 352.852 453.772 352.852 449.18C352.852 444.587 381.472 440.864 416.777 440.864C452.083 440.864 480.702 444.587 480.702 449.18Z" stroke="#1A2E35" stroke-width="2.66667" stroke-miterlimit="10" stroke-linecap="round"/>
<path d="M390.372 210.198C390.372 210.198 386.224 214.345 384.447 220.27C382.668 226.195 371.115 254.931 371.708 257.893C372.3 260.856 380.891 265.003 383.853 263.818C386.816 262.633 391.557 249.302 391.557 249.302L390.372 210.198Z" fill="#39D192"/>
<path d="M390.372 210.198C390.372 210.198 386.224 214.345 384.447 220.27C382.668 226.195 371.115 254.931 371.708 257.893C372.3 260.856 380.891 265.003 383.853 263.818C386.816 262.633 391.557 249.302 391.557 249.302L390.372 210.198Z" stroke="#1A2E35" stroke-width="1.33333" stroke-miterlimit="10" stroke-linecap="round" stroke-linejoin="round"/>
<path d="M424.568 201.045C424.55 201.029 424.53 201.012 424.514 200.994C424.53 201.012 424.549 201.029 424.568 201.045Z" fill="#1A2E35"/>
<path d="M424.568 201.045C424.55 201.029 424.53 201.012 424.514 200.994C424.53 201.012 424.549 201.029 424.568 201.045Z" stroke="#1A2E35" stroke-width="1.33333" stroke-miterlimit="10" stroke-linecap="round" stroke-linejoin="round"/>
<path d="M423.934 200.356C423.963 200.392 423.998 200.428 424.028 200.464C423.998 200.428 423.962 200.392 423.934 200.356Z" fill="#1A2E35"/>
<path d="M423.934 200.356C423.963 200.392 423.998 200.428 424.028 200.464C423.998 200.428 423.962 200.392 423.934 200.356Z" stroke="#1A2E35" stroke-width="1.33333" stroke-miterlimit="10" stroke-linecap="round" stroke-linejoin="round"/>
<path d="M414.876 409.089C414.876 409.089 412.803 393.888 410.384 386.979C407.966 380.069 406.929 375.924 406.929 374.196C406.929 372.469 414.184 341.721 414.184 341.721C414.184 341.721 412.457 375.233 413.839 386.633C415.221 398.034 414.876 409.089 414.876 409.089ZM448.04 284.028C443.55 273.664 439.404 266.754 439.404 266.754C439.404 266.754 444.241 233.244 444.241 225.989C444.241 218.734 439.404 213.897 435.948 209.752C433.414 206.709 428.837 204.411 425.896 202.175C424.446 207.258 418.877 224.455 410.039 223.571C399.675 222.534 405.893 204.569 405.893 204.569C404.51 208.37 391.037 205.606 388.619 213.206C386.201 220.806 390.001 251.553 390.346 260.536C390.692 269.519 391.037 291.629 389.31 302.684C387.583 313.739 382.747 367.632 384.128 380.414C385.51 393.197 394.838 421.526 395.183 426.016C395.53 430.508 392.766 431.545 393.457 433.963C394.147 436.381 394.147 438.453 394.147 438.453C394.147 438.453 391.728 440.181 387.583 443.636C383.438 447.091 378.946 449.164 384.128 450.545C389.31 451.927 399.329 450.2 399.329 450.2C399.329 450.2 391.382 455.036 395.183 456.418C398.984 457.8 422.476 456.764 426.621 456.418C430.767 456.073 432.149 454.345 431.803 449.164C431.458 443.981 430.767 441.908 430.767 441.908C430.767 441.908 433.185 435.344 433.185 432.235V423.254C433.185 419.798 433.185 404.944 435.948 397.342C438.713 389.742 438.368 382.833 438.368 377.305C438.368 371.777 436.985 363.141 436.985 363.141C436.985 363.141 449.422 335.503 452.877 320.302C456.333 305.102 452.532 294.392 448.04 284.028Z" fill="#1A2E35"/>
<path d="M414.876 409.089C414.876 409.089 412.803 393.888 410.384 386.979C407.966 380.069 406.929 375.924 406.929 374.196C406.929 372.469 414.184 341.721 414.184 341.721C414.184 341.721 412.457 375.233 413.839 386.633C415.221 398.034 414.876 409.089 414.876 409.089ZM448.04 284.028C443.55 273.664 439.404 266.754 439.404 266.754C439.404 266.754 444.241 233.244 444.241 225.989C444.241 218.734 439.404 213.897 435.948 209.752C433.414 206.709 428.837 204.411 425.896 202.175C424.446 207.258 418.877 224.455 410.039 223.571C399.675 222.534 405.893 204.569 405.893 204.569C404.51 208.37 391.037 205.606 388.619 213.206C386.201 220.806 390.001 251.553 390.346 260.536C390.692 269.519 391.037 291.629 389.31 302.684C387.583 313.739 382.747 367.632 384.128 380.414C385.51 393.197 394.838 421.526 395.183 426.016C395.53 430.508 392.766 431.545 393.457 433.963C394.147 436.381 394.147 438.453 394.147 438.453C394.147 438.453 391.728 440.181 387.583 443.636C383.438 447.091 378.946 449.164 384.128 450.545C389.31 451.927 399.329 450.2 399.329 450.2C399.329 450.2 391.382 455.036 395.183 456.418C398.984 457.8 422.476 456.764 426.621 456.418C430.767 456.073 432.149 454.345 431.803 449.164C431.458 443.981 430.767 441.908 430.767 441.908C430.767 441.908 433.185 435.344 433.185 432.235V423.254C433.185 419.798 433.185 404.944 435.948 397.342C438.713 389.742 438.368 382.833 438.368 377.305C438.368 371.777 436.985 363.141 436.985 363.141C436.985 363.141 449.422 335.503 452.877 320.302C456.333 305.102 452.532 294.392 448.04 284.028V284.028Z" stroke="#1A2E35" stroke-width="1.33333" stroke-miterlimit="10" stroke-linecap="round" stroke-linejoin="round"/>
<path d="M428.001 302.338C440.843 300.733 447.937 297.263 451.856 294.008C450.787 290.563 449.447 287.278 448.038 284.028C443.547 273.664 439.402 266.755 439.402 266.755C439.402 266.755 444.238 233.244 444.238 225.989C444.238 218.734 439.402 213.898 435.947 209.752C433.411 206.709 428.835 204.411 425.893 202.174C424.443 207.258 418.875 224.455 410.037 223.571C399.672 222.535 405.891 204.569 405.891 204.569C404.508 208.37 391.036 205.606 388.617 213.206C386.198 220.806 389.998 251.554 390.344 260.536C390.654 268.588 390.963 287.187 389.779 298.917C397.225 301.465 410.541 304.522 428.001 302.338Z" fill="#39D192"/>
<path d="M428.001 302.338C440.843 300.733 447.937 297.263 451.856 294.008C450.787 290.563 449.447 287.278 448.038 284.028C443.547 273.664 439.402 266.755 439.402 266.755C439.402 266.755 444.238 233.244 444.238 225.989C444.238 218.734 439.402 213.898 435.947 209.752C433.411 206.709 428.835 204.411 425.893 202.174C424.443 207.258 418.875 224.455 410.037 223.571C399.672 222.535 405.891 204.569 405.891 204.569C404.508 208.37 391.036 205.606 388.617 213.206C386.198 220.806 389.998 251.554 390.344 260.536C390.654 268.588 390.963 287.187 389.779 298.917C397.225 301.465 410.541 304.522 428.001 302.338Z" stroke="#1A2E35" stroke-width="1.33333" stroke-miterlimit="10" stroke-linecap="round" stroke-linejoin="round"/>
<path d="M398.307 248.774C398.307 248.774 408.711 260.719 414.106 263.802" stroke="#1A2E35" stroke-width="1.33333" stroke-miterlimit="10" stroke-linecap="round" stroke-linejoin="round"/>
<path d="M411.67 266.33C412.461 266.782 413.273 267.225 414.105 267.656" stroke="#1A2E35" stroke-width="1.33333" stroke-miterlimit="10" stroke-linecap="round" stroke-linejoin="round"/>
<path d="M396.377 254.94C396.377 254.94 401.261 259.824 408.72 264.553" stroke="#1A2E35" stroke-width="1.33333" stroke-miterlimit="10" stroke-linecap="round" stroke-linejoin="round"/>
<path d="M393.034 194.919C393.034 194.919 389.94 205.656 390.913 209.327C391.886 213 393.867 218.722 393.867 218.722C393.867 218.722 370.266 253.115 369.998 257.254C369.729 261.393 374.288 264.359 378.426 264.628C382.565 264.896 385.064 262.979 386.554 258.325C388.041 253.672 400.332 219.734 400.332 219.734C400.332 219.734 404.532 209.913 405.237 208.177C405.943 206.442 406.44 198.755 406.44 198.755C406.44 198.755 404.525 196.256 404.391 198.326C404.256 200.396 402.825 204.162 402.825 204.162L400.356 201.034C400.356 201.034 400.328 196.875 400.405 195.693C400.481 194.51 399.824 190.905 398.289 191.696C396.753 192.487 394.426 191.743 393.034 194.919Z" fill="white"/>
<path d="M393.034 194.919C393.034 194.919 389.94 205.656 390.913 209.327C391.886 213 393.867 218.722 393.867 218.722C393.867 218.722 370.266 253.115 369.998 257.254C369.729 261.393 374.288 264.359 378.426 264.628C382.565 264.896 385.064 262.979 386.554 258.325C388.041 253.672 400.332 219.734 400.332 219.734C400.332 219.734 404.532 209.913 405.237 208.177C405.943 206.442 406.44 198.755 406.44 198.755C406.44 198.755 404.525 196.256 404.391 198.326C404.256 200.396 402.825 204.162 402.825 204.162L400.356 201.034C400.356 201.034 400.328 196.875 400.405 195.693C400.481 194.51 399.824 190.905 398.289 191.696C396.753 192.487 394.426 191.743 393.034 194.919Z" stroke="#1A2E35" stroke-width="1.33333" stroke-miterlimit="10" stroke-linecap="round" stroke-linejoin="round"/>
<path d="M394.602 200.351L393.598 205.71C393.598 205.71 398.955 211.737 398.286 216.426" stroke="#1A2E35" stroke-width="1.33333" stroke-miterlimit="10" stroke-linecap="round" stroke-linejoin="round"/>
<path d="M396.91 155.858C396.91 155.858 393.085 152.284 392.373 148.363C391.659 144.442 409.129 140.877 416.971 143.016C424.815 145.155 444.01 153.572 444.779 162.98C446.205 180.449 435.413 189.656 434.083 191.857C430.393 197.962 421.458 196.227 419.467 194.708C417.481 193.196 410.911 180.805 407.702 176.171C404.494 171.536 396.91 155.858 396.91 155.858Z" fill="#1A2E35"/>
<path d="M396.91 155.858C396.91 155.858 393.085 152.284 392.373 148.363C391.659 144.442 409.129 140.877 416.971 143.016C424.815 145.155 444.01 153.572 444.779 162.98C446.205 180.449 435.413 189.656 434.083 191.857C430.393 197.962 421.458 196.227 419.467 194.708C417.481 193.196 410.911 180.805 407.702 176.171C404.494 171.536 396.91 155.858 396.91 155.858Z" stroke="#1A2E35" stroke-width="1.33333" stroke-miterlimit="10" stroke-linecap="round" stroke-linejoin="round"/>
<path d="M407.701 161.197C407.701 161.197 421.605 168.684 432.299 169.396" stroke="#767676" stroke-width="1.33333" stroke-miterlimit="10" stroke-linecap="round" stroke-linejoin="round"/>
<path d="M411.264 168.327C411.264 168.327 419.464 180.092 436.576 179.379" stroke="#767676" stroke-width="1.33333" stroke-miterlimit="10" stroke-linecap="round" stroke-linejoin="round"/>
<path d="M423.51 199.733C421.962 196.946 423.739 193.336 424.126 192.615C424.124 192.618 424.124 192.619 424.122 192.622L419.364 189.714C419.364 189.714 421.092 189.714 424.201 189.024C427.31 188.333 429.448 182.588 426.619 180.041C423.015 176.797 419.71 180.386 419.71 180.386C419.71 180.386 414.182 180.386 411.073 173.477C407.964 166.568 407.964 162.077 403.819 160.004C399.672 157.931 396.908 155.859 396.908 155.859C396.908 155.859 393.073 164.701 393.418 170.919C393.764 177.138 387.927 180.041 387.582 181.769C387.235 183.496 391.727 184.878 391.727 184.878C391.727 184.878 391.036 196.969 392.418 198.351C393.799 199.733 405.891 198.351 405.891 198.351C405.891 198.351 407.273 200.77 405.891 204.57C405.891 204.57 399.672 222.534 410.036 223.571C418.875 224.454 424.443 207.259 425.893 202.174C425.935 202.206 425.984 202.238 426.026 202.27C424.901 201.427 423.988 200.593 423.51 199.733Z" fill="white"/>
<path d="M423.51 199.733C421.962 196.946 423.739 193.336 424.126 192.615C424.124 192.618 424.124 192.619 424.122 192.622L419.364 189.714C419.364 189.714 421.092 189.714 424.201 189.024C427.31 188.333 429.448 182.588 426.619 180.041C423.015 176.797 419.71 180.386 419.71 180.386C419.71 180.386 414.182 180.386 411.073 173.477C407.964 166.568 407.964 162.077 403.819 160.004C399.672 157.931 396.908 155.859 396.908 155.859C396.908 155.859 393.073 164.701 393.418 170.919C393.764 177.138 387.927 180.041 387.582 181.769C387.235 183.496 391.727 184.878 391.727 184.878C391.727 184.878 391.036 196.969 392.418 198.351C393.799 199.733 405.891 198.351 405.891 198.351C405.891 198.351 407.273 200.77 405.891 204.57C405.891 204.57 399.672 222.534 410.036 223.571C418.875 224.454 424.443 207.259 425.893 202.174C425.935 202.206 425.984 202.238 426.026 202.27C424.901 201.427 423.988 200.593 423.51 199.733Z" stroke="#1A2E35" stroke-width="1.33333" stroke-miterlimit="10" stroke-linecap="round" stroke-linejoin="round"/>
<path d="M398.635 175.204C398.635 176.35 398.172 177.277 397.599 177.277C397.026 177.277 396.562 176.35 396.562 175.204C396.562 174.06 397.026 173.132 397.599 173.132C398.172 173.132 398.635 174.06 398.635 175.204Z" fill="#1A2E35"/>
<path d="M394.586 187.645C394.586 187.645 398.093 188.815 401.601 185.696" stroke="#1A2E35" stroke-width="1.33333" stroke-miterlimit="10" stroke-linecap="round" stroke-linejoin="round"/>
<path d="M395.754 169.523C395.754 169.523 398.872 167.184 400.821 170.886" stroke="#1A2E35" stroke-width="1.33333" stroke-miterlimit="10" stroke-linecap="round" stroke-linejoin="round"/>
<path d="M396.222 452.444C401.675 451.371 410.042 448.724 411.417 444.326C413.144 438.799 413.489 438.453 413.489 438.453C407.271 441.217 400.707 439.144 400.707 439.144C400.707 439.144 400.016 434.308 396.907 433.963C394.302 433.673 394.122 437.01 394.133 438.105C394.143 438.326 394.143 438.453 394.143 438.453C394.143 438.453 391.725 440.181 387.58 443.636C383.434 447.091 378.942 449.163 384.124 450.545C389.307 451.927 399.325 450.2 399.325 450.2C399.325 450.2 397.663 451.212 396.222 452.444Z" fill="white"/>
<path d="M396.222 452.444C401.675 451.371 410.042 448.724 411.417 444.326C413.144 438.799 413.489 438.453 413.489 438.453C407.271 441.217 400.707 439.144 400.707 439.144C400.707 439.144 400.016 434.308 396.907 433.963C394.302 433.673 394.122 437.01 394.133 438.105C394.143 438.326 394.143 438.453 394.143 438.453C394.143 438.453 391.725 440.181 387.58 443.636C383.434 447.091 378.942 449.163 384.124 450.545C389.307 451.927 399.325 450.2 399.325 450.2C399.325 450.2 397.663 451.212 396.222 452.444Z" stroke="#1A2E35" stroke-width="1.33333" stroke-miterlimit="10" stroke-linecap="round" stroke-linejoin="round"/>
<path d="M431.799 449.163C431.629 446.592 431.372 444.788 431.157 443.622C424.867 445.047 417.29 444.327 417.29 444.327C417.29 444.327 415.217 433.617 411.763 440.181C408.307 446.746 399.325 450.2 399.325 450.2C399.325 450.2 391.379 455.036 395.18 456.418C398.98 457.801 422.472 456.764 426.618 456.418C430.763 456.072 432.146 454.345 431.799 449.163Z" fill="white"/>
<path d="M431.799 449.163C431.629 446.592 431.372 444.788 431.157 443.622C424.867 445.047 417.29 444.327 417.29 444.327C417.29 444.327 415.217 433.617 411.763 440.181C408.307 446.746 399.325 450.2 399.325 450.2C399.325 450.2 391.379 455.036 395.18 456.418C398.98 457.801 422.472 456.764 426.618 456.418C430.763 456.072 432.146 454.345 431.799 449.163Z" stroke="#1A2E35" stroke-width="1.33333" stroke-miterlimit="10" stroke-linecap="round" stroke-linejoin="round"/>
<path d="M429.474 222.64C429.474 222.64 419.403 258.485 419.106 261.745C418.81 265.003 422.661 274.779 428.883 273.298C435.103 271.818 438.954 265.3 440.14 258.782C441.324 252.265 448.434 230.046 448.434 224.417C448.434 218.789 433.325 208.716 433.325 208.716" fill="#39D192"/>
<path d="M429.474 222.64C429.474 222.64 419.403 258.485 419.106 261.745C418.81 265.003 422.661 274.779 428.883 273.298C435.103 271.818 438.954 265.3 440.14 258.782C441.324 252.265 448.434 230.046 448.434 224.417C448.434 218.789 433.325 208.716 433.325 208.716" stroke="#1A2E35" stroke-width="1.33333" stroke-miterlimit="10" stroke-linecap="round" stroke-linejoin="round"/>
<path d="M416.887 223.316C416.887 223.316 421.956 211.72 422.182 209.957C422.408 208.194 419.891 202.197 418.097 199.877C416.303 197.556 406.019 196.239 407.006 197.859C407.993 199.479 411.957 201.181 411.957 201.181C411.957 201.181 408.749 216.898 409.329 219.361C409.91 221.825 411.403 226.497 411.403 226.497C411.403 226.497 417.639 266.42 417.925 268.847C418.211 271.273 422.944 273.969 426.583 273.539C430.222 273.109 432.437 269.809 432.858 264.188C433.28 258.568 421.184 236.411 420.384 233.321C419.585 230.232 416.887 223.316 416.887 223.316Z" fill="white"/>
<path d="M416.887 223.316C416.887 223.316 421.956 211.72 422.182 209.957C422.408 208.194 419.891 202.197 418.097 199.877C416.303 197.556 406.019 196.239 407.006 197.859C407.993 199.479 411.957 201.181 411.957 201.181C411.957 201.181 408.749 216.898 409.329 219.361C409.91 221.825 411.403 226.497 411.403 226.497C411.403 226.497 417.639 266.42 417.925 268.847C418.211 271.273 422.944 273.969 426.583 273.539C430.222 273.109 432.437 269.809 432.858 264.188C433.28 258.568 421.184 236.411 420.384 233.321C419.585 230.232 416.887 223.316 416.887 223.316Z" stroke="#1A2E35" stroke-width="1.33333" stroke-miterlimit="10" stroke-linecap="round" stroke-linejoin="round"/>
<path d="M418.096 199.876C418.096 199.876 418.696 200.457 418.401 201.786C418.105 203.115 417.072 207.398 417.072 207.398" stroke="#1A2E35" stroke-width="1.33333" stroke-miterlimit="10" stroke-linecap="round" stroke-linejoin="round"/>
<path d="M420.467 205.33L419.139 209.76" stroke="#1A2E35" stroke-width="1.33333" stroke-miterlimit="10" stroke-linecap="round" stroke-linejoin="round"/>
<path d="M268.163 189.857C268.163 189.857 264.858 208.446 262.999 215.676C261.141 222.905 250.813 236.537 245.649 241.287C240.485 246.039 229.951 259.258 229.951 259.258V182.421L244.822 171.474L268.163 189.857Z" fill="#39D192"/>
<path d="M268.163 189.857C268.163 189.857 264.858 208.446 262.999 215.676C261.141 222.905 250.813 236.537 245.649 241.287C240.485 246.039 229.951 259.258 229.951 259.258V182.421L244.822 171.474L268.163 189.857Z" stroke="#1A2E35" stroke-width="1.33333" stroke-miterlimit="10" stroke-linecap="round" stroke-linejoin="round"/>
<path d="M249.781 144.209C249.781 144.209 251.641 151.645 252.466 152.884C253.293 154.123 253.293 160.94 250.401 164.658C247.509 168.376 243.998 172.093 243.998 172.093L261.761 184.899C261.761 184.899 266.925 176.432 269.197 174.158C271.469 171.887 274.774 170.028 274.774 170.028C274.774 170.028 268.578 164.658 268.165 157.841C267.751 151.026 267.958 142.556 267.958 142.556L249.781 144.209Z" fill="white"/>
<path d="M249.781 144.209C249.781 144.209 251.641 151.645 252.466 152.884C253.293 154.123 253.293 160.94 250.401 164.658C247.509 168.376 243.998 172.093 243.998 172.093L261.761 184.899C261.761 184.899 266.925 176.432 269.197 174.158C271.469 171.887 274.774 170.028 274.774 170.028C274.774 170.028 268.578 164.658 268.165 157.841C267.751 151.026 267.958 142.556 267.958 142.556L249.781 144.209Z" stroke="#1A2E35" stroke-width="1.33333" stroke-miterlimit="10" stroke-linecap="round" stroke-linejoin="round"/>
<path d="M264.248 163.248L267.847 175.484L274.778 170.028L264.248 163.248Z" fill="#1A2E35"/>
<path d="M264.248 163.248L267.847 175.484L274.778 170.028L264.248 163.248Z" stroke="#1A2E35" stroke-width="1.33333" stroke-miterlimit="10" stroke-linecap="round" stroke-linejoin="round"/>
<path d="M291.172 143.182C291.172 143.182 290.677 147.513 290.677 148.753C290.677 149.992 295.015 152.884 295.015 154.743C295.015 156.602 290.264 159.288 290.264 159.288C290.264 159.288 287.373 170.441 285.513 172.506C283.655 174.572 270.229 171.061 266.924 167.962C263.62 164.864 261.141 153.298 260.934 149.786C260.727 146.275 260.934 141.937 260.934 141.937L289.851 140.904L291.172 143.182Z" fill="white"/>
<path d="M291.172 143.182C291.172 143.182 290.677 147.513 290.677 148.753C290.677 149.992 295.015 152.884 295.015 154.743C295.015 156.602 290.264 159.288 290.264 159.288C290.264 159.288 287.373 170.441 285.513 172.506C283.655 174.572 270.229 171.061 266.924 167.962C263.62 164.864 261.141 153.298 260.934 149.786C260.727 146.275 260.934 141.937 260.934 141.937L289.851 140.904L291.172 143.182Z" stroke="#1A2E35" stroke-width="1.33333" stroke-miterlimit="10" stroke-linecap="round" stroke-linejoin="round"/>
<path d="M269.619 142.862C269.619 142.862 268.714 144.671 269.619 146.179C270.524 147.688 272.635 148.592 272.635 148.592L269.015 148.893L268.714 150.1C268.714 150.1 264.793 148.893 263.285 144.37C261.778 139.845 260.571 146.179 260.571 146.179L260.872 151.91C260.872 151.91 258.46 154.926 255.443 156.132L252.427 157.339C252.427 157.339 250.316 143.464 250.617 140.449C250.919 137.433 260.571 136.226 262.682 136.83C264.793 137.433 269.619 139.544 269.619 142.862Z" fill="#1A2E35"/>
<path d="M269.619 142.862C269.619 142.862 268.714 144.671 269.619 146.179C270.524 147.688 272.635 148.592 272.635 148.592L269.015 148.893L268.714 150.1C268.714 150.1 264.793 148.893 263.285 144.37C261.778 139.845 260.571 146.179 260.571 146.179L260.872 151.91C260.872 151.91 258.46 154.926 255.443 156.132L252.427 157.339C252.427 157.339 250.316 143.464 250.617 140.449C250.919 137.433 260.571 136.226 262.682 136.83C264.793 137.433 269.619 139.544 269.619 142.862Z" stroke="#1A2E35" stroke-width="1.33333" stroke-miterlimit="10" stroke-linecap="round" stroke-linejoin="round"/>
<path d="M285.926 148.546C285.926 149.802 285.51 150.819 284.997 150.819C284.483 150.819 284.066 149.802 284.066 148.546C284.066 147.292 284.483 146.274 284.997 146.274C285.51 146.274 285.926 147.292 285.926 148.546Z" fill="#1A2E35"/>
<path d="M280.762 158.255C280.762 158.255 282.62 161.352 287.165 160.94" stroke="#1A2E35" stroke-width="1.33333" stroke-miterlimit="10" stroke-linecap="round" stroke-linejoin="round"/>
<path d="M249.351 145.505C249.351 145.505 270.925 144.841 279.223 144.178C287.521 143.514 291.172 143.182 291.172 143.182C291.172 143.182 289.181 126.918 288.517 122.603C287.854 118.288 270.594 112.314 262.959 113.641C255.325 114.969 247.359 122.271 246.695 127.581C246.032 132.893 249.351 145.505 249.351 145.505Z" fill="#39D192"/>
<path d="M249.351 145.505C249.351 145.505 270.925 144.841 279.223 144.178C287.521 143.514 291.172 143.182 291.172 143.182C291.172 143.182 289.181 126.918 288.517 122.603C287.854 118.288 270.594 112.314 262.959 113.641C255.325 114.969 247.359 122.271 246.695 127.581C246.032 132.893 249.351 145.505 249.351 145.505Z" stroke="#1A2E35" stroke-width="1.33333" stroke-miterlimit="10" stroke-linecap="round" stroke-linejoin="round"/>
<path d="M264.621 148.824C264.621 148.824 261.302 140.858 258.315 142.518C255.327 144.178 255.659 150.484 257.65 152.476C259.642 154.467 263.957 153.139 263.957 153.139" fill="white"/>
<path d="M264.621 148.824C264.621 148.824 261.302 140.858 258.315 142.518C255.327 144.178 255.659 150.484 257.65 152.476C259.642 154.467 263.957 153.139 263.957 153.139" stroke="#1A2E35" stroke-width="1.33333" stroke-miterlimit="10" stroke-linecap="round" stroke-linejoin="round"/>
<path d="M277.566 144.509C277.566 144.509 287.524 139.199 291.507 139.199C295.49 139.199 311.09 138.866 309.099 142.85C307.107 146.833 294.162 145.174 288.52 145.174C282.877 145.174 277.566 144.509 277.566 144.509Z" fill="white"/>
<path d="M277.566 144.509C277.566 144.509 287.524 139.199 291.507 139.199C295.49 139.199 311.09 138.866 309.099 142.85C307.107 146.833 294.162 145.174 288.52 145.174C282.877 145.174 277.566 144.509 277.566 144.509Z" stroke="#1A2E35" stroke-width="1.33333" stroke-miterlimit="10" stroke-linecap="round" stroke-linejoin="round"/>
<path d="M245.239 165.277L272.297 183.247L270.438 193.575L240.488 171.887L245.239 165.277Z" fill="white"/>
<path d="M245.239 165.277L272.297 183.247L270.438 193.575L240.488 171.887L245.239 165.277Z" stroke="#1A2E35" stroke-width="1.33333" stroke-miterlimit="10" stroke-linecap="round" stroke-linejoin="round"/>
<path d="M358.014 247.485H306.17V203.076H358.014V247.485Z" fill="white" stroke="#1A2E35" stroke-width="1.33333" stroke-miterlimit="10" stroke-linecap="round" stroke-linejoin="round"/>
<path d="M358.015 247.485H342.316V203.076H358.015V247.485Z" fill="white" stroke="#1A2E35" stroke-width="1.33333" stroke-miterlimit="10" stroke-linecap="round" stroke-linejoin="round"/>
<path d="M346.449 203.49V225.177L350.993 218.568L354.916 223.937V203.283L346.449 203.49Z" stroke="#1A2E35" stroke-width="1.33333" stroke-miterlimit="10" stroke-linecap="round" stroke-linejoin="round"/>
<path d="M266.923 232.82L272.5 241.908L313.191 244.18C313.191 244.18 321.866 237.157 322.487 237.157C323.105 237.157 328.063 236.95 331.368 237.157C334.672 237.364 336.738 235.504 336.944 236.538C337.151 237.57 336.118 239.635 334.466 239.842C332.813 240.049 327.443 241.908 327.443 241.908L330.334 244.593C330.334 244.593 341.283 246.659 340.662 247.691C340.043 248.724 332.607 254.094 332.607 254.094C332.607 254.094 325.377 254.507 322.692 253.267C320.008 252.028 315.876 250.789 315.876 250.789C315.876 250.789 263.412 259.052 259.694 259.878C255.976 260.705 253.084 256.987 252.258 255.334C251.433 253.681 247.508 239.429 247.508 239.429L266.923 232.82Z" fill="white"/>
<path d="M266.923 232.82L272.5 241.908L313.191 244.18C313.191 244.18 321.866 237.157 322.487 237.157C323.105 237.157 328.063 236.95 331.368 237.157C334.672 237.364 336.738 235.504 336.944 236.538C337.151 237.57 336.118 239.635 334.466 239.842C332.813 240.049 327.443 241.908 327.443 241.908L330.334 244.593C330.334 244.593 341.283 246.659 340.662 247.691C340.043 248.724 332.607 254.094 332.607 254.094C332.607 254.094 325.377 254.507 322.692 253.267C320.008 252.028 315.876 250.789 315.876 250.789C315.876 250.789 263.412 259.052 259.694 259.878C255.976 260.705 253.084 256.987 252.258 255.334C251.433 253.681 247.508 239.429 247.508 239.429L266.923 232.82Z" stroke="#1A2E35" stroke-width="1.33333" stroke-miterlimit="10" stroke-linecap="round" stroke-linejoin="round"/>
<path d="M252.67 183.041C252.67 183.041 246.68 178.29 241.723 181.802C236.766 185.313 232.635 193.369 233.874 199.358C235.113 205.348 244.202 242.941 244.202 242.941L270.228 234.265L257.834 190.27" fill="#39D192"/>
<path d="M252.67 183.041C252.67 183.041 246.68 178.29 241.723 181.802C236.766 185.313 232.635 193.369 233.874 199.358C235.113 205.348 244.202 242.941 244.202 242.941L270.228 234.265L257.834 190.27" stroke="#1A2E35" stroke-width="1.33333" stroke-miterlimit="10" stroke-linecap="round" stroke-linejoin="round"/>
<path d="M231.553 424.368L122.656 409.511C120.371 409.2 118.523 406.139 118.523 402.676V76.9983C118.523 73.5339 120.371 70.4728 122.656 70.1609L231.553 55.3042C234.267 54.9342 236.476 57.7085 236.476 61.5024V418.171C236.476 421.964 234.267 424.738 231.553 424.368Z" fill="#1A2E35"/>
<path d="M231.553 424.368L122.656 409.511C120.371 409.2 118.523 406.139 118.523 402.676V76.9983C118.523 73.5339 120.371 70.4728 122.656 70.1609L231.553 55.3042C234.267 54.9342 236.476 57.7085 236.476 61.5024V418.171C236.476 421.964 234.267 424.738 231.553 424.368Z" stroke="#1A2E35" stroke-width="1.33333" stroke-miterlimit="10" stroke-linecap="round" stroke-linejoin="round"/>
<path d="M227.139 423.766L118.923 409.003C116.651 408.693 114.814 405.641 114.814 402.188V77.4847C114.814 74.0306 116.651 70.9799 118.923 70.6701L227.139 55.907C229.837 55.539 232.031 58.305 232.031 62.0854V417.588C232.031 421.368 229.837 424.134 227.139 423.766Z" fill="white"/>
<path d="M227.139 423.766L118.923 409.003C116.651 408.693 114.814 405.641 114.814 402.188V77.4847C114.814 74.0306 116.651 70.9799 118.923 70.6701L227.139 55.907C229.837 55.539 232.031 58.305 232.031 62.0854V417.588C232.031 421.368 229.837 424.134 227.139 423.766Z" stroke="#1A2E35" stroke-width="1.33333" stroke-miterlimit="10" stroke-linecap="round" stroke-linejoin="round"/>
<path d="M178.907 80.9999L164.327 82.7815C163.511 82.8813 162.85 81.9915 162.85 80.793C162.85 79.5956 163.511 78.5416 164.327 78.4398L178.907 76.6083C179.743 76.5033 180.421 77.4024 180.421 78.6175C180.421 79.8305 179.743 80.898 178.907 80.9999Z" fill="#1A2E35"/>
<path d="M174.044 397.011C174.044 395.132 173 393.485 171.714 393.333C170.431 393.18 169.393 394.574 169.393 396.446C169.393 398.318 170.431 399.965 171.714 400.124C173 400.283 174.044 398.89 174.044 397.011Z" fill="#1A2E35"/>
<path d="M235.613 116.368L233.074 116.598V93.9947L235.613 93.7213V116.368Z" fill="white"/>
<path d="M235.613 116.368L233.074 116.598V93.9947L235.613 93.7213V116.368Z" stroke="#1A2E35" stroke-width="1.33333" stroke-miterlimit="10" stroke-linecap="round" stroke-linejoin="round"/>
<path d="M235.613 155.998L233.074 156.155V133.552L235.613 133.352V155.998Z" fill="white"/>
<path d="M235.613 155.998L233.074 156.155V133.552L235.613 133.352V155.998Z" stroke="#1A2E35" stroke-width="1.33333" stroke-miterlimit="10" stroke-linecap="round" stroke-linejoin="round"/>
<path d="M235.613 181.476L233.074 181.585V158.981L235.613 158.829V181.476Z" fill="white"/>
<path d="M235.613 181.476L233.074 181.585V158.981L235.613 158.829V181.476Z" stroke="#1A2E35" stroke-width="1.33333" stroke-miterlimit="10" stroke-linecap="round" stroke-linejoin="round"/>
<path d="M217.177 393.887L127.474 383.561C124.233 383.187 121.619 378.924 121.619 374.036V97.0936C121.619 92.2051 124.233 87.9237 127.474 87.5287L144.444 85.4581L147.065 88.381C147.983 89.4049 149.14 89.8892 150.338 89.7479L193.125 84.6972C194.461 84.5392 195.753 83.6879 196.759 82.3013L199.327 78.7631L217.177 76.5855C220.92 76.1281 223.969 80.0458 223.969 85.3365V385.09C223.969 390.38 220.92 394.318 217.177 393.887Z" fill="white"/>
<path d="M217.177 393.887L127.474 383.561C124.233 383.187 121.619 378.924 121.619 374.036V97.0936C121.619 92.2051 124.233 87.9237 127.474 87.5287L144.444 85.4581L147.065 88.381C147.983 89.4049 149.14 89.8892 150.338 89.7479L193.125 84.6972C194.461 84.5392 195.753 83.6879 196.759 82.3013L199.327 78.7631L217.177 76.5855C220.92 76.1281 223.969 80.0458 223.969 85.3365V385.09C223.969 390.38 220.92 394.318 217.177 393.887Z" stroke="#1A2E35" stroke-width="1.33333" stroke-miterlimit="10" stroke-linecap="round" stroke-linejoin="round"/>
<path d="M121.619 323.513V374.036C121.619 378.925 124.233 383.187 127.474 383.561L217.177 393.887C220.92 394.318 223.969 390.38 223.969 385.089V329.488L121.619 323.513Z" fill="#39D192"/>
<path d="M121.619 323.513V374.036C121.619 378.925 124.233 383.187 127.474 383.561L217.177 393.887C220.92 394.318 223.969 390.38 223.969 385.089V329.488L121.619 323.513Z" stroke="#1A2E35" stroke-width="1.33333" stroke-miterlimit="10" stroke-linecap="round" stroke-linejoin="round"/>
<path d="M217.177 76.5853L199.327 78.7629L196.759 82.3011C195.753 83.6878 194.461 84.5391 193.125 84.6971L150.338 89.7477C149.14 89.889 147.983 89.4047 147.065 88.3808L144.444 85.4579L127.474 87.5285C124.233 87.9235 121.619 92.2049 121.619 97.0934V129.401L223.969 122.798V85.3363C223.969 80.0456 220.92 76.129 217.177 76.5853Z" fill="#39D192"/>
<path d="M217.177 76.5853L199.327 78.7629L196.759 82.3011C195.753 83.6878 194.461 84.5391 193.125 84.6971L150.338 89.7477C149.14 89.889 147.983 89.4047 147.065 88.3808L144.444 85.4579L127.474 87.5285C124.233 87.9235 121.619 92.2049 121.619 97.0934V129.401L223.969 122.798V85.3363C223.969 80.0456 220.92 76.129 217.177 76.5853Z" stroke="#1A2E35" stroke-width="1.33333" stroke-miterlimit="10" stroke-linecap="round" stroke-linejoin="round"/>
<path d="M223.969 101.481V85.336C223.969 80.0453 220.92 76.1286 217.177 76.585L199.328 78.7626L196.759 82.3008C195.753 83.6885 194.461 84.5398 193.125 84.6967L150.338 89.7474C149.14 89.8898 147.982 89.4054 147.065 88.3805L144.444 85.4576L127.474 87.5282C124.233 87.9231 121.619 92.2056 121.619 97.0931V110.218L223.969 101.481Z" fill="#1A2E35"/>
<path d="M223.969 101.481V85.336C223.969 80.0453 220.92 76.1286 217.177 76.585L199.328 78.7626L196.759 82.3008C195.753 83.6885 194.461 84.5398 193.125 84.6967L150.338 89.7474C149.14 89.8898 147.982 89.4054 147.065 88.3805L144.444 85.4576L127.474 87.5282C124.233 87.9231 121.619 92.2056 121.619 97.0931V110.218L223.969 101.481Z" stroke="#1A2E35" stroke-width="1.33333" stroke-miterlimit="10" stroke-linecap="round" stroke-linejoin="round"/>
<path d="M174.309 119.469L128.406 123.421V115.517L174.309 111.565V119.469Z" fill="white"/>
<path d="M207.574 108.569L194.678 109.437L197.634 116.17L207.282 115.438L209.877 106.701L214.153 106.377" stroke="white" stroke-width="1.33333" stroke-miterlimit="10" stroke-linecap="round" stroke-linejoin="round"/>
<path d="M200.121 118.655C200.121 119.219 199.664 119.678 199.098 119.678C198.533 119.678 198.074 119.219 198.074 118.655C198.074 118.09 198.533 117.632 199.098 117.632C199.664 117.632 200.121 118.09 200.121 118.655Z" fill="white"/>
<path d="M200.121 118.655C200.121 119.219 199.664 119.678 199.098 119.678C198.533 119.678 198.074 119.219 198.074 118.655C198.074 118.09 198.533 117.632 199.098 117.632C199.664 117.632 200.121 118.09 200.121 118.655Z" stroke="white" stroke-width="1.33333" stroke-miterlimit="10" stroke-linecap="round" stroke-linejoin="round"/>
<path d="M207.281 118.07C207.281 118.635 206.824 119.093 206.258 119.093C205.693 119.093 205.234 118.635 205.234 118.07C205.234 117.505 205.693 117.048 206.258 117.048C206.824 117.048 207.281 117.505 207.281 118.07Z" fill="white"/>
<path d="M207.281 118.07C207.281 118.635 206.824 119.093 206.258 119.093C205.693 119.093 205.234 118.635 205.234 118.07C205.234 117.505 205.693 117.048 206.258 117.048C206.824 117.048 207.281 117.505 207.281 118.07Z" stroke="white" stroke-width="1.33333" stroke-miterlimit="10" stroke-linecap="round" stroke-linejoin="round"/>
<path d="M198.639 230.322L138.27 229.862V181.556L198.639 179.833V230.322Z" fill="white"/>
<path d="M198.639 230.322L138.27 229.862V181.556L198.639 179.833V230.322Z" stroke="#1A2E35" stroke-width="1.33333" stroke-miterlimit="10" stroke-linecap="round" stroke-linejoin="round"/>
<path d="M198.64 230.322L179.793 230.179V180.372L198.64 179.833V230.322Z" fill="white"/>
<path d="M198.64 230.322L179.793 230.179V180.372L198.64 179.833V230.322Z" stroke="#1A2E35" stroke-width="1.33333" stroke-miterlimit="10" stroke-linecap="round" stroke-linejoin="round"/>
<path d="M184.701 180.696V205.108L190.143 197.581L194.878 203.595V180.176L184.701 180.696Z" stroke="#1A2E35" stroke-width="1.33333" stroke-miterlimit="10" stroke-linecap="round" stroke-linejoin="round"/>
<path d="M134.696 285.26L205.847 288.817C210.461 289.049 214.225 285.757 214.225 281.465V263.242C214.225 258.95 210.461 255.378 205.847 255.266L134.696 253.517C130.594 253.416 127.289 256.587 127.289 260.597V277.627C127.289 281.639 130.594 285.055 134.696 285.26Z" fill="#1A2E35"/>
<path d="M134.929 285.26L206.079 288.817C210.693 289.049 214.457 285.757 214.457 281.465V263.242C214.457 258.95 210.693 255.378 206.079 255.266L134.929 253.517C130.827 253.416 127.521 256.587 127.521 260.597V277.627C127.521 281.639 130.827 285.055 134.929 285.26Z" stroke="#1A2E35" stroke-width="1.33333" stroke-miterlimit="10" stroke-linecap="round" stroke-linejoin="round"/>
<path d="M162.331 266.843V267.2L160.864 267.15V266.717C160.864 265.531 160.39 264.819 159.283 264.783C158.179 264.746 157.707 265.427 157.707 266.591C157.707 269.538 162.351 269.989 162.351 273.702C162.351 275.7 161.339 276.956 159.225 276.869C157.116 276.78 156.133 275.444 156.133 273.456V272.707L157.568 272.762V273.588C157.568 274.77 158.081 275.485 159.186 275.531C160.292 275.577 160.806 274.901 160.806 273.716C160.806 270.78 156.192 270.327 156.192 266.634C156.192 264.608 157.175 263.382 159.245 263.447C161.339 263.514 162.331 264.845 162.331 266.843Z" fill="white"/>
<path d="M168.672 269.748V271.073L165.255 270.945V275.649L169.453 275.82V277.165L163.703 276.924V263.719L169.453 263.902V265.247L165.255 265.11V269.624L168.672 269.748Z" fill="white"/>
<path d="M172.291 277.284L170.883 277.224V263.947L172.875 264.01L176.15 273.752V264.114L177.55 264.159V277.505L175.906 277.435L172.291 266.536V277.284Z" fill="white"/>
<path d="M181.236 277.659V265.633L178.607 265.547V264.192L185.457 264.408V265.77L182.811 265.684V277.725L181.236 277.659Z" fill="white"/>
<path d="M242.665 449.18C242.665 453.772 214.044 457.495 178.74 457.495C143.435 457.495 114.814 453.772 114.814 449.18C114.814 444.587 143.435 440.864 178.74 440.864C214.044 440.864 242.665 444.587 242.665 449.18Z" fill="#1A2E35"/>
<path d="M242.665 449.18C242.665 453.772 214.044 457.495 178.74 457.495C143.435 457.495 114.814 453.772 114.814 449.18C114.814 444.587 143.435 440.864 178.74 440.864C214.044 440.864 242.665 444.587 242.665 449.18Z" stroke="#1A2E35" stroke-width="2.66667" stroke-miterlimit="10" stroke-linecap="round"/>
<path d="M106.008 409.176L107.287 432.343C107.287 432.343 106.519 434.008 105.112 434.263C103.703 434.519 73.1125 434.263 73.1125 434.263C73.1125 434.263 72.7279 432.343 73.3682 430.551C74.0085 428.76 75.1602 427.607 76.6965 427.222C78.2317 426.839 88.8558 421.974 89.7508 421.591C90.6478 421.207 91.1602 415.063 91.1602 415.063L106.008 409.176Z" fill="white"/>
<path d="M106.008 409.176L107.287 432.343C107.287 432.343 106.519 434.008 105.112 434.263C103.703 434.519 73.1125 434.263 73.1125 434.263C73.1125 434.263 72.7279 432.343 73.3682 430.551C74.0085 428.76 75.1602 427.607 76.6965 427.222C78.2317 426.839 88.8558 421.974 89.7508 421.591C90.6478 421.207 91.1602 415.063 91.1602 415.063L106.008 409.176Z" stroke="#1A2E35" stroke-width="1.47867" stroke-miterlimit="10"/>
<path d="M73.1114 434.263C73.1114 434.263 72.888 433.122 73.0761 431.78C79.4593 431.607 100.285 431.045 107.205 430.863L107.287 432.342C107.287 432.342 106.519 434.007 105.111 434.263C103.703 434.519 73.1114 434.263 73.1114 434.263Z" fill="white"/>
<path d="M73.1114 434.263C73.1114 434.263 72.888 433.122 73.0761 431.78C79.4593 431.607 100.285 431.045 107.205 430.863L107.287 432.342C107.287 432.342 106.519 434.007 105.111 434.263C103.703 434.519 73.1114 434.263 73.1114 434.263Z" stroke="#1A2E35" stroke-width="1.47867" stroke-miterlimit="10"/>
<path d="M99.6302 291.743C99.6302 291.743 97.0056 348.614 97.2977 350.364C97.5887 352.113 107.213 410.15 107.213 410.15C107.213 410.15 98.755 414.816 94.6721 415.691C90.5892 416.566 85.049 416.857 85.049 416.857C85.049 416.857 71.6319 362.32 71.0498 359.113C70.4657 355.905 77.7573 286.785 77.7573 286.785L99.6302 291.743Z" fill="#1A2E35"/>
<path d="M99.6302 291.743C99.6302 291.743 97.0056 348.614 97.2977 350.364C97.5887 352.113 107.213 410.15 107.213 410.15C107.213 410.15 98.755 414.816 94.6721 415.691C90.5892 416.566 85.049 416.857 85.049 416.857C85.049 416.857 71.6319 362.32 71.0498 359.113C70.4657 355.905 77.7573 286.785 77.7573 286.785L99.6302 291.743Z" stroke="#1A2E35" stroke-width="1.47867" stroke-miterlimit="10"/>
<path d="M99.226 403.031C99.226 403.031 111.13 419.416 109.722 421.079C108.314 422.743 97.9465 432.599 95.3863 433.751C92.8262 434.903 69.4025 433.751 69.4025 433.751C69.4025 433.751 69.0179 432.727 69.0179 431.703C69.0179 430.679 69.1468 426.711 70.5542 425.559C71.9626 424.406 82.5856 419.416 82.9692 418.647C83.3538 417.879 83.8662 411.608 83.8662 411.608L99.226 403.031Z" fill="white"/>
<path d="M99.226 403.031C99.226 403.031 111.13 419.416 109.722 421.079C108.314 422.743 97.9465 432.599 95.3863 433.751C92.8262 434.903 69.4025 433.751 69.4025 433.751C69.4025 433.751 69.0179 432.727 69.0179 431.703C69.0179 430.679 69.1468 426.711 70.5542 425.559C71.9626 424.406 82.5856 419.416 82.9692 418.647C83.3538 417.879 83.8662 411.608 83.8662 411.608L99.226 403.031Z" stroke="#1A2E35" stroke-width="1.47867" stroke-miterlimit="10"/>
<path d="M69.4025 433.751C69.4025 433.751 69.0189 432.728 69.0189 431.703C69.0189 431.581 69.021 431.416 69.0262 431.22L85.2747 431.831C85.2747 431.831 90.2661 432.6 92.9541 430.423C95.2034 428.602 105.071 419.61 108.23 416.727C109.428 418.901 110.128 420.601 109.722 421.08C108.315 422.743 97.9465 432.6 95.3864 433.751C92.8262 434.902 69.4025 433.751 69.4025 433.751Z" fill="white"/>
<path d="M69.4025 433.751C69.4025 433.751 69.0189 432.728 69.0189 431.703C69.0189 431.581 69.021 431.416 69.0262 431.22L85.2747 431.831C85.2747 431.831 90.2661 432.6 92.9541 430.423C95.2034 428.602 105.071 419.61 108.23 416.727C109.428 418.901 110.128 420.601 109.722 421.08C108.315 422.743 97.9465 432.6 95.3864 433.751C92.8262 434.902 69.4025 433.751 69.4025 433.751Z" stroke="#1A2E35" stroke-width="1.47867" stroke-miterlimit="10"/>
<path d="M108.088 265.204C108.088 265.204 106.337 282.119 104.88 284.745C103.422 287.368 101.089 291.452 101.089 291.452L78.9233 353.572L101.671 403.733C101.671 403.733 85.0488 414.525 81.549 415.691C78.0492 416.857 76.8829 416.857 76.8829 416.857C76.8829 416.857 50.0509 354.154 50.0509 349.78C50.0509 345.405 68.7161 282.702 68.7161 282.702L67.5498 261.12L108.088 265.204Z" fill="#1A2E35"/>
<path d="M108.088 265.204C108.088 265.204 106.337 282.119 104.88 284.745C103.422 287.368 101.089 291.452 101.089 291.452L78.9233 353.572L101.671 403.733C101.671 403.733 85.0488 414.525 81.549 415.691C78.0492 416.857 76.8829 416.857 76.8829 416.857C76.8829 416.857 50.0509 354.154 50.0509 349.78C50.0509 345.405 68.7161 282.702 68.7161 282.702L67.5498 261.12L108.088 265.204Z" stroke="#1A2E35" stroke-width="1.47867" stroke-miterlimit="10"/>
<path d="M85.9434 270.451L73.677 275.358L83.8406 267.298L76.8306 270.451" stroke="#696969" stroke-width="1.47867" stroke-miterlimit="10" stroke-linecap="round" stroke-linejoin="round"/>
<path d="M92.99 313.068L78.9233 353.572L99.3379 400.527" stroke="#696969" stroke-width="1.47867" stroke-miterlimit="10"/>
<path d="M95.8398 304.867L94.3898 309.043" stroke="#696969" stroke-width="1.47867" stroke-miterlimit="10"/>
<path d="M51.613 233.827C51.613 233.827 44.7153 227.344 43.3359 226.516C41.9566 225.689 36.301 224.033 35.8863 222.101C35.4736 220.17 36.0245 210.651 36.5765 211.066C37.1274 211.479 44.4398 221.825 44.4398 221.825L53.959 229.275L51.613 233.827Z" fill="white"/>
<path d="M51.613 233.827C51.613 233.827 44.7153 227.344 43.3359 226.516C41.9566 225.689 36.301 224.033 35.8863 222.101C35.4736 220.17 36.0245 210.651 36.5765 211.066C37.1274 211.479 44.4398 221.825 44.4398 221.825L53.959 229.275L51.613 233.827Z" stroke="#1A2E35" stroke-width="1.47867" stroke-miterlimit="10"/>
<path d="M41.8239 218.791L42.6523 225.136L41.8239 218.791Z" fill="white"/>
<path d="M41.8239 218.791L42.6523 225.136" stroke="#1A2E35" stroke-width="1.47867" stroke-miterlimit="10"/>
<path d="M39.6133 215.48L39.3368 223.206L39.6133 215.48Z" fill="white"/>
<path d="M39.6133 215.48L39.3368 223.206" stroke="#1A2E35" stroke-width="1.47867" stroke-miterlimit="10"/>
<path d="M37.4073 212.859C37.4073 212.859 37.5456 220.998 37.4073 221.825V212.859Z" fill="white"/>
<path d="M37.4073 212.859C37.4073 212.859 37.5456 220.998 37.4073 221.825" stroke="#1A2E35" stroke-width="1.47867" stroke-miterlimit="10"/>
<path d="M35.4741 219.894C35.4741 219.894 33.1281 216.997 33.68 215.065C34.2319 213.135 35.8867 212.583 35.8867 212.583L35.4741 219.894Z" fill="white"/>
<path d="M35.4741 219.894C35.4741 219.894 33.1281 216.997 33.68 215.065C34.2319 213.135 35.8867 212.583 35.8867 212.583L35.4741 219.894Z" stroke="#1A2E35" stroke-width="1.47867" stroke-miterlimit="10"/>
<path d="M52.4436 226.378C52.0299 226.654 48.7183 231.759 48.7183 231.759L52.8563 237.276C52.8563 237.276 50.7878 241.139 52.0299 242.104C53.271 243.071 63.6176 248.45 63.6176 248.45L67.0664 234.518C67.0664 234.518 59.3413 229.689 58.9266 229.827C58.5139 229.965 57.8237 230.654 57.8237 230.654L52.4436 226.378Z" fill="#39D192"/>
<path d="M52.4436 226.378C52.0299 226.654 48.7183 231.759 48.7183 231.759L52.8563 237.276C52.8563 237.276 50.7878 241.139 52.0299 242.104C53.271 243.071 63.6176 248.45 63.6176 248.45L67.0664 234.518C67.0664 234.518 59.3413 229.689 58.9266 229.827C58.5139 229.965 57.8237 230.654 57.8237 230.654L52.4436 226.378Z" stroke="#1A2E35" stroke-width="1.47867" stroke-miterlimit="10"/>
<path d="M48.0449 224.514L46.6053 225.509L31.4087 203.757L32.8483 202.762L48.0449 224.514Z" fill="#1A2E35"/>
<path d="M48.0449 224.514L46.6053 225.509L31.4087 203.757L32.8483 202.762L48.0449 224.514Z" stroke="#1A2E35" stroke-width="1.47867" stroke-miterlimit="10"/>
<path d="M91.2882 184.476C92.1332 184.899 104.188 199.491 108.63 205.201C113.071 210.911 112.648 220.215 112.437 225.291C112.225 230.367 114.551 268.01 114.551 268.01C114.551 268.01 96.1527 266.529 85.1555 265.472C74.1593 264.415 58.5095 263.357 58.5095 263.357C58.5095 263.357 62.95 243.901 65.0642 235.231C67.1794 226.561 70.5639 214.083 72.8901 208.162C75.2153 202.24 78.5998 196.741 78.5998 196.741L91.2882 184.476Z" fill="#39D192"/>
<path d="M91.2882 184.476C92.1332 184.899 104.188 199.491 108.63 205.201C113.071 210.911 112.648 220.215 112.437 225.291C112.225 230.367 114.551 268.01 114.551 268.01C114.551 268.01 96.1527 266.529 85.1555 265.472C74.1593 264.415 58.5095 263.357 58.5095 263.357C58.5095 263.357 62.95 243.901 65.0642 235.231C67.1794 226.561 70.5639 214.083 72.8901 208.162C75.2153 202.24 78.5998 196.741 78.5998 196.741L91.2882 184.476Z" stroke="#1A2E35" stroke-width="1.47867" stroke-miterlimit="10"/>
<path d="M68.8692 185.11L75.6369 192.723L85.998 179.612L79.8664 172.422C79.8664 172.422 76.271 168.614 74.1568 169.038C72.0415 169.46 68.8692 185.11 68.8692 185.11Z" fill="white"/>
<path d="M68.8692 185.11L75.6369 192.723L85.998 179.612L79.8664 172.422C79.8664 172.422 76.271 168.614 74.1568 169.038C72.0415 169.46 68.8692 185.11 68.8692 185.11Z" stroke="#1A2E35" stroke-width="1.47867" stroke-miterlimit="10"/>
<path d="M76.0625 177.286L71.9255 188.794L68.8717 185.11L76.0625 177.286Z" fill="#1A2E35"/>
<path d="M76.0625 177.286L71.9255 188.794L68.8717 185.11L76.0625 177.286Z" stroke="#1A2E35" stroke-width="1.47867" stroke-miterlimit="10"/>
<path d="M76.9085 172.21C76.9085 172.21 79.4458 176.229 81.561 175.383C83.6763 174.536 89.3859 168.404 91.9232 160.79C94.4615 153.177 85.1565 151.908 83.6763 148.948C82.1951 145.986 80.9259 145.564 78.8117 135.202C76.6975 124.839 53.0118 128.857 49.4164 134.356C45.821 139.855 46.4551 150.851 36.517 147.255C26.5769 143.661 15.7917 139.855 13.4654 148.737C11.1391 157.618 18.752 168.404 16.0027 172.21C13.2544 176.017 4.37136 173.267 5.00542 176.863C5.64051 180.458 10.293 182.784 8.81184 183.629C7.33168 184.476 -0.915222 180.246 1.41104 184.054C3.73626 187.86 8.60083 191.877 9.23592 190.185C9.86998 188.494 9.23593 186.379 11.5622 187.648C13.8885 188.917 20.8672 193.993 23.8276 191.243C26.7879 188.494 22.9815 178.555 27.846 177.497C32.7106 176.44 44.5519 179.823 48.5703 180.035C52.5888 180.246 53.0118 178.977 60.4137 175.383C67.8155 171.787 76.9085 172.21 76.9085 172.21Z" fill="#1A2E35"/>
<path d="M76.9085 172.21C76.9085 172.21 79.4458 176.229 81.561 175.383C83.6763 174.536 89.3859 168.404 91.9232 160.79C94.4615 153.177 85.1565 151.908 83.6763 148.948C82.1951 145.986 80.9259 145.564 78.8117 135.202C76.6975 124.839 53.0118 128.857 49.4164 134.356C45.821 139.855 46.4551 150.851 36.517 147.255C26.5769 143.661 15.7917 139.855 13.4654 148.737C11.1391 157.617 18.752 168.404 16.0027 172.21C13.2544 176.017 4.37136 173.267 5.00541 176.863C5.64051 180.458 10.293 182.784 8.81184 183.629C7.33168 184.476 -0.915223 180.246 1.41104 184.054C3.73626 187.86 8.60083 191.877 9.23593 190.185C9.86998 188.494 9.23593 186.379 11.5622 187.648C13.8885 188.917 20.8672 193.993 23.8276 191.243C26.7879 188.494 22.9815 178.555 27.846 177.497C32.7106 176.44 44.5519 179.823 48.5703 180.035C52.5888 180.246 53.0118 178.977 60.4137 175.383C67.8155 171.787 76.9085 172.21 76.9085 172.21Z" stroke="#1A2E35" stroke-width="1.47867" stroke-miterlimit="10"/>
<path d="M75.2159 166.289C75.2159 166.289 62.7385 166.923 54.7036 164.809C46.6667 162.693 43.9174 161.424 43.9174 161.424C43.9174 161.424 43.7064 169.672 45.8206 171.998C47.9359 174.325 50.6841 176.44 50.6841 178.132C50.6841 179.823 48.5699 182.573 49.8391 184.053C51.1082 185.533 54.0685 185.533 54.9146 185.533C55.7597 185.533 62.5275 191.878 64.4307 191.878C66.3339 191.878 75.85 179.189 76.062 177.286C76.2741 175.383 76.062 170.518 76.062 170.518" fill="white"/>
<path d="M75.2159 166.289C75.2159 166.289 62.7385 166.923 54.7036 164.809C46.6667 162.693 43.9174 161.424 43.9174 161.424C43.9174 161.424 43.7064 169.672 45.8206 171.998C47.9359 174.325 50.6841 176.44 50.6841 178.132C50.6841 179.823 48.5699 182.573 49.8391 184.053C51.1082 185.533 54.0685 185.533 54.9146 185.533C55.7597 185.533 62.5275 191.878 64.4307 191.878C66.3339 191.878 75.85 179.189 76.062 177.286C76.2741 175.383 76.062 170.518 76.062 170.518" stroke="#1A2E35" stroke-width="1.47867" stroke-miterlimit="10"/>
<path d="M53.0131 173.69L55.3394 176.439C55.3394 176.439 57.6656 176.228 58.5117 173.69" stroke="#1A2E35" stroke-width="1.47867" stroke-miterlimit="10"/>
<path d="M60.8341 180.035C60.8341 180.035 61.0461 183.418 58.2968 183.841" stroke="#1A2E35" stroke-width="1.47867" stroke-miterlimit="10"/>
<path d="M55.5488 170.095C55.5488 170.095 51.7424 168.826 50.0502 171.998" stroke="#1A2E35" stroke-width="1.47867" stroke-miterlimit="10"/>
<path d="M72.0445 169.461C72.0445 169.461 75.2169 160.156 78.1772 163.539C81.1386 166.924 79.4464 172.844 77.1201 174.113C74.7949 175.383 72.6786 174.113 72.6786 174.113" fill="white"/>
<path d="M72.0445 169.461C72.0445 169.461 75.2169 160.156 78.1772 163.539C81.1386 166.924 79.4464 172.844 77.1201 174.113C74.7949 175.383 72.6786 174.113 72.6786 174.113" stroke="#1A2E35" stroke-width="1.47867" stroke-miterlimit="10"/>
<path d="M85.1536 176.228C85.1536 176.228 71.1961 189.975 71.6191 191.878C72.0422 193.78 74.3684 195.049 74.3684 195.049C74.3684 195.049 73.7344 198.856 74.7915 199.702C75.8486 200.548 77.1178 200.759 77.1178 200.759C77.1178 200.759 90.4413 187.014 92.1324 184.898C93.8246 182.784 92.5555 181.727 91.4984 181.304C90.4413 180.881 89.1721 180.669 89.1721 180.669C89.1721 180.669 87.6909 175.594 85.1536 176.228Z" fill="#39D192"/>
<path d="M85.1536 176.228C85.1536 176.228 71.1961 189.975 71.6191 191.878C72.0422 193.78 74.3684 195.049 74.3684 195.049C74.3684 195.049 73.7344 198.856 74.7915 199.702C75.8486 200.548 77.1178 200.759 77.1178 200.759C77.1178 200.759 90.4413 187.014 92.1324 184.898C93.8246 182.784 92.5555 181.727 91.4984 181.304C90.4413 180.881 89.1721 180.669 89.1721 180.669C89.1721 180.669 87.6909 175.594 85.1536 176.228V176.228Z" stroke="#1A2E35" stroke-width="1.47867" stroke-miterlimit="10"/>
<path d="M105.39 206.948C105.39 206.948 106.703 214.385 106.703 221.822C106.703 229.26 103.641 265.786 102.11 267.756C100.579 269.725 94.4544 271.474 91.8298 269.725C89.2052 267.975 66.4571 253.319 66.2378 250.913C66.0195 248.507 69.7376 239.758 71.2687 239.102C72.7998 238.446 74.1116 238.664 76.2996 240.633C78.4865 242.602 84.1744 245.882 84.1744 245.882C84.1744 245.882 85.7054 217.884 87.4548 211.104C89.2052 204.325 90.0804 203.012 91.1729 202.574" fill="#39D192"/>
<path d="M105.39 206.948C105.39 206.948 106.703 214.385 106.703 221.822C106.703 229.26 103.641 265.786 102.11 267.756C100.579 269.725 94.4544 271.474 91.8298 269.725C89.2052 267.975 66.4571 253.319 66.2378 250.913C66.0195 248.507 69.7376 239.758 71.2687 239.102C72.7998 238.446 74.1116 238.664 76.2996 240.633C78.4865 242.602 84.1744 245.882 84.1744 245.882C84.1744 245.882 85.7054 217.884 87.4548 211.104C89.2052 204.325 90.0804 203.012 91.1729 202.574" stroke="#1A2E35" stroke-width="1.47867" stroke-miterlimit="10"/>
<path d="M65.0645 235.23C65.0645 235.23 58.8008 220.291 58.3632 219.197C57.9256 218.103 56.3935 216.354 55.0817 216.136C53.7689 215.916 43.7071 213.728 42.8319 213.51C41.9578 213.292 41.3019 214.385 43.7071 215.916C46.1145 217.448 52.0195 218.103 52.0195 218.103L52.8947 224.665C52.8947 224.665 46.9886 220.072 46.9886 222.478C46.9886 224.885 51.3626 226.416 52.0195 226.634C52.6754 226.852 54.4258 229.697 55.0817 230.135C55.7376 230.571 58.1439 231.227 58.1439 231.227C58.1439 231.227 58.5815 233.853 59.4556 234.728C60.3309 235.602 64.2682 238.446 64.2682 238.446L65.0645 235.23Z" fill="white"/>
<path d="M65.0645 235.23C65.0645 235.23 58.8008 220.291 58.3632 219.197C57.9256 218.103 56.3935 216.354 55.0817 216.136C53.7689 215.916 43.7071 213.728 42.8319 213.51C41.9578 213.292 41.3019 214.385 43.7071 215.916C46.1145 217.448 52.0195 218.103 52.0195 218.103L52.8947 224.665C52.8947 224.665 46.9886 220.072 46.9886 222.478C46.9886 224.885 51.3626 226.416 52.0195 226.634C52.6754 226.852 54.4258 229.697 55.0817 230.135C55.7376 230.571 58.1439 231.227 58.1439 231.227C58.1439 231.227 58.5815 233.853 59.4556 234.728C60.3309 235.602 64.2682 238.446 64.2682 238.446L65.0645 235.23Z" stroke="#1A2E35" stroke-width="1.47867" stroke-miterlimit="10"/>
<path d="M58.3633 219.197C58.3633 219.197 55.8302 216.066 55.456 216.101C55.0818 216.136 50.6361 219.894 50.3295 220.202C50.0218 220.51 51.9697 223.688 52.2784 224.201C52.585 224.714 52.688 225.124 53.5081 224.816C54.3282 224.509 55.0464 223.894 55.0464 223.894" fill="white"/>
<path d="M58.3633 219.197C58.3633 219.197 55.8302 216.066 55.456 216.101C55.0818 216.136 50.6361 219.894 50.3295 220.202C50.0218 220.51 51.9697 223.688 52.2784 224.201C52.585 224.714 52.688 225.124 53.5081 224.816C54.3282 224.509 55.0464 223.894 55.0464 223.894" stroke="#1A2E35" stroke-width="1.47867" stroke-miterlimit="10"/>
<path d="M59.0449 221.741C59.0449 221.741 56.2759 218.664 55.8653 218.664C55.4557 218.664 51.9684 221.433 51.9684 221.946C51.9684 222.458 52.5848 225.534 53.0973 225.637C53.6097 225.74 55.251 225.432 55.251 225.432" fill="white"/>
<path d="M59.0449 221.741C59.0449 221.741 56.2759 218.664 55.8653 218.664C55.4557 218.664 51.9684 221.433 51.9684 221.946C51.9684 222.458 52.5848 225.534 53.0973 225.637C53.6097 225.74 55.251 225.432 55.251 225.432" stroke="#1A2E35" stroke-width="1.47867" stroke-miterlimit="10"/>
<path d="M59.1484 224.714C59.1484 224.714 57.5072 222.971 56.687 222.561C55.8669 222.151 54.025 223.9 52.8952 224.665C51.7643 225.431 50.4317 225.842 51.0471 226.56C51.6624 227.278 54.0209 226.251 54.5344 226.251C55.0468 226.251 56.1746 225.739 56.1746 225.739L57.5072 229.739" fill="white"/>
<path d="M59.1484 224.714C59.1484 224.714 57.5072 222.971 56.687 222.561C55.8669 222.151 54.025 223.9 52.8952 224.665C51.7643 225.431 50.4317 225.842 51.0471 226.56C51.6624 227.278 54.0209 226.251 54.5344 226.251C55.0468 226.251 56.1746 225.739 56.1746 225.739L57.5072 229.739" stroke="#1A2E35" stroke-width="1.47867" stroke-miterlimit="10"/>
<path d="M72.3613 239.758L64.7059 233.633L61.2061 240.196L67.767 246.976C67.767 246.976 72.3613 246.102 72.3613 239.758Z" fill="#39D192"/>
<path d="M72.3613 239.758L64.7059 233.633L61.2061 240.196L67.767 246.976C67.767 246.976 72.3613 246.102 72.3613 239.758Z" stroke="#1A2E35" stroke-width="1.47867" stroke-miterlimit="10"/>
</svg>
