<svg width="351" height="380" viewBox="0 0 351 380" fill="none" xmlns="http://www.w3.org/2000/svg">
<path d="M87.1214 118.272C87.1214 118.272 85.4878 104.092 76.6961 95.4983C67.9088 86.9042 59.0293 86.9394 54.875 77.0322C50.725 67.1295 73.5738 81.4764 73.5738 81.4764C73.5738 81.4764 67.3072 65.9306 61.1547 58.6935C55.0067 51.4564 53.5883 42.6076 60.9703 42.0718C68.3479 41.5361 77.9081 68.0122 77.9081 68.0122C77.9081 68.0122 67.9483 33.0167 74.1535 24.9671C80.3586 16.9176 83.9596 35.5593 84.851 57.0204C84.851 57.0204 86.814 36.5869 93.0016 36.5957C99.1892 36.6045 93.208 70.4319 93.208 70.4319C93.208 70.4319 97.9376 57.1565 104.024 58.3027C110.111 59.4445 90.1779 89.1131 98.5041 114.522C106.835 139.935 87.1214 118.272 87.1214 118.272Z" fill="#1A2E35"/>
<path d="M246.967 134.682C247.657 134.933 248.338 135.236 249.018 135.565C249.031 135.126 249.045 134.696 249.053 134.177C249.255 122.496 244.504 115.878 230.157 104.421C215.81 92.9679 219.499 76.5614 221.629 70.1323C223.759 63.6988 221.15 59.5357 221.15 59.5357L229.257 51.0383L224.25 44.6224L217.953 57.4542C217.953 57.4542 208.674 57.1731 205.187 61.894C201.7 66.6192 196.474 78.4366 184.635 78.9284C172.8 79.4203 152.911 82.1649 147.356 95.7477C141.805 109.335 150.997 108.483 150.997 108.483C150.997 108.483 170.016 90.0081 187.437 91.0532C199.105 91.7559 203.707 86.0031 205.486 82.1166C205.099 85.3224 205.626 91.0225 210.277 100.205C218.375 116.203 227.439 111.759 230.855 119.782C233.639 126.325 243.445 132.592 246.967 134.682Z" fill="#39D192"/>
<g opacity="0.199997">
<path d="M246.971 134.682C247.661 134.932 248.341 135.235 249.022 135.565C249.035 135.126 249.049 134.695 249.057 134.177C249.259 122.496 244.508 115.878 230.161 104.421C215.814 92.9677 219.503 76.5612 221.633 70.1321C223.762 63.6986 221.154 59.5355 221.154 59.5355L229.261 51.038L224.254 44.6221L217.957 57.4539C217.957 57.4539 208.678 57.1729 205.191 61.8937C201.704 66.6189 196.478 78.4363 184.639 78.9282C172.804 79.42 152.915 82.1647 147.36 95.7475C141.809 109.335 151 108.483 151 108.483C151 108.483 170.02 90.0078 187.441 91.053C199.109 91.7556 203.711 86.0028 205.49 82.1164C205.103 85.3221 205.63 91.0223 210.281 100.205C218.379 116.203 227.443 111.759 230.859 119.782C233.643 126.325 243.449 132.592 246.971 134.682Z" fill="black"/>
</g>
<g opacity="0.600006">
<path d="M249.033 135.592C248.475 135.294 247.961 135.021 247.391 134.837C247.272 134.824 247.14 134.736 247.022 134.723C246.758 134.552 246.468 134.424 246.187 134.178C242.134 131.728 233.443 125.883 230.866 119.809C227.449 111.747 218.389 116.208 210.292 100.197C205.654 91.0278 205.096 85.3233 205.483 82.1219C203.718 85.9995 199.15 91.7524 187.438 91.0366C170.031 89.9958 151.011 108.506 151.011 108.506C151.011 108.506 141.794 109.349 147.371 95.7749C152.9 82.1702 172.819 79.4431 184.65 78.9205C196.45 78.4419 201.711 66.6069 205.206 61.9124C208.684 57.1477 217.955 57.4682 217.955 57.4682C217.955 57.4682 217.441 59.8967 215.184 64.3277C214.898 64.9601 214.516 65.6495 214.125 66.339C214.327 66.0316 214.542 65.6056 214.802 65.2104C215.46 64.196 216.308 62.9883 217.16 61.9739C218.468 60.4413 219.931 59.2556 221.13 59.5366C221.13 59.5366 223.76 63.6953 221.657 70.1113C219.522 76.5711 215.803 92.9864 230.158 104.404C244.527 115.897 249.27 122.497 249.077 134.174C249.068 134.674 249.086 135.127 249.033 135.592Z" fill="white"/>
</g>
<g opacity="0.100006">
<path d="M249.033 135.592C248.476 135.294 247.962 135.021 247.391 134.837C246.982 134.692 246.583 134.437 246.188 134.178C238.292 129.04 230.141 114.944 222.487 111.654C213.981 107.939 208.649 96.7411 207.38 87.5014C206.177 78.7449 212.176 70.7831 214.802 65.2104L215.184 64.3277L217.16 61.9739C218.469 60.4413 219.931 59.2556 221.13 59.5366C221.13 59.5366 223.76 63.6953 221.657 70.1113C219.523 76.5711 215.803 92.9864 230.159 104.404C244.528 115.897 249.27 122.497 249.077 134.174C249.068 134.674 249.086 135.127 249.033 135.592Z" fill="black"/>
</g>
<path d="M16.8164 115.299C16.8164 115.299 47.2492 84.8045 83.65 93.7894C83.65 93.7894 94.9844 72.7543 127.209 68.701C159.433 64.6433 175.633 91.9977 175.633 91.9977C175.633 91.9977 183.894 81.9939 207.169 88.2342C230.443 94.4832 238.791 130.203 238.791 130.203L16.8164 115.299Z" fill="#1A2E35"/>
<g opacity="0.199997">
<path d="M16.8242 115.299C16.8242 115.299 47.257 84.8044 83.6578 93.7893C83.6578 93.7893 94.9922 72.7542 127.217 68.7009C159.441 64.6432 175.641 91.9976 175.641 91.9976C175.641 91.9976 183.902 81.9938 207.176 88.2341C230.451 94.4831 238.799 130.203 238.799 130.203L16.8242 115.299Z" fill="white"/>
</g>
<path d="M135.481 48.2301C135.481 48.2301 119.913 72.954 89.4805 73.8762L98.3337 82.4966L101.983 95.6271C101.983 95.6271 108.408 70.5958 145.564 66.8674L136.118 61.4703L135.481 48.2301Z" fill="#39D192"/>
<g opacity="0.699997">
<path d="M135.485 48.2297C135.485 48.2297 119.917 72.9536 89.4844 73.8758L98.3376 82.4962L101.987 95.6267C101.987 95.6267 108.412 70.5954 145.568 66.867L136.122 61.4699L135.485 48.2297Z" fill="white"/>
</g>
<path d="M135.716 59.7533C135.716 59.7533 150.972 53.8819 163.096 55.5331L162.455 49.9867C162.455 49.9867 150.524 47.2728 134.684 57.9923L135.716 59.7533Z" fill="#1A2E35"/>
<path d="M136.387 57.3364C136.387 57.3364 146.017 42.6558 137.348 33.0912C138.363 40.0077 135.306 45.8484 130.493 49.647C131.029 54.2932 129.312 58.3026 126.383 61.2404C127.23 62.3295 128.003 63.5328 128.614 64.9995C128.996 65.913 129.255 66.8044 129.457 67.6827C134.345 66.3082 139.746 66.9933 143.707 70.6162C149.636 69.268 156.03 70.3571 160.671 74.9681C159.688 67.7661 152.714 61.1438 136.387 57.3364Z" fill="#39D192"/>
<path d="M105.784 99.2294C103.76 93.7094 104.888 88.8041 107.752 85.1855C104.467 83.8593 101.586 81.2288 99.825 76.9911C99.4386 76.0645 99.197 75.1686 99.0082 74.2815C96.1933 73.7853 93.5452 72.4679 91.389 70.1975C88.0296 70.7201 84.5954 70.4698 81.4336 69.2182C83.0365 74.04 86.8087 78.6247 93.4618 82.5287C93.4618 82.5287 93.9492 96.6253 104.748 103.489C104.888 101.983 105.284 100.582 105.784 99.2294Z" fill="#39D192"/>
<g opacity="0.199997">
<path d="M105.776 99.2163C103.839 93.9246 104.827 89.217 107.44 85.6423C101.363 82.0194 97.7571 77.8255 96.0225 73.3989C94.3274 72.6963 92.7597 71.6424 91.3851 70.1976C88.0257 70.7202 84.5915 70.4698 81.4297 69.2139C83.037 74.0445 86.8092 78.6336 93.4798 82.542C93.4798 82.542 93.9629 96.6078 104.753 103.428C104.893 101.943 105.28 100.551 105.776 99.2163Z" fill="black"/>
</g>
<path d="M36.4155 83.9945C36.4155 83.9945 32.8277 112.991 55.8125 132.959L43.5033 134.04L32.3709 141.896C32.3709 141.896 43.2266 118.445 16.8164 92.044L27.5447 93.8445L36.4155 83.9945Z" fill="#39D192"/>
<g opacity="0.699997">
<path d="M36.4233 83.9941C36.4233 83.9941 32.8355 112.991 55.8204 132.959L43.5111 134.039L32.3788 141.896C32.3788 141.896 43.2344 118.445 16.8242 92.0437L27.5526 93.8442L36.4233 83.9941Z" fill="white"/>
</g>
<path d="M28.9582 92.7773C28.9582 92.7773 20.8604 78.5798 10.4219 72.1858L14.4313 68.295C14.4313 68.295 25.388 73.7448 30.8773 92.0659L28.9582 92.7773Z" fill="#1A2E35"/>
<path d="M29.9629 90.4784C29.9629 90.4784 31.7942 73.0136 44.5601 71.0945C39.3958 75.8065 38.0652 82.262 39.3914 88.2519C36.0363 91.5104 34.833 95.7042 35.2414 99.8322C33.8977 100.14 32.5319 100.579 31.1354 101.33C30.2571 101.795 29.4974 102.322 28.7816 102.875C25.8701 98.7168 21.2547 95.8316 15.8883 96.1302C12.1556 91.3347 6.51253 88.1334 0 88.7613C5.32245 83.8122 14.909 83.092 29.9629 90.4784Z" fill="#39D192"/>
<path d="M27.1622 142.284C32.2212 139.294 34.4477 134.779 34.5223 130.159C37.9081 131.213 41.799 131.002 45.8479 128.833C46.735 128.359 47.4859 127.819 48.1973 127.252C50.6873 128.649 53.5681 129.303 56.6816 128.908C58.9476 131.442 61.7669 133.418 65.0078 134.45C60.713 137.168 54.8943 138.332 47.2707 137.15C47.2707 137.15 37.974 147.756 25.2695 146.236C26.1127 144.985 26.6968 143.65 27.1622 142.284Z" fill="#39D192"/>
<g opacity="0.199997">
<path d="M27.1798 142.278C32.028 139.406 34.2413 135.133 34.4784 130.711C41.4784 131.756 46.9238 130.785 51.0694 128.458C52.826 128.985 54.7055 129.16 56.686 128.91C58.9564 131.44 61.7714 133.42 65.0166 134.448C60.7174 137.17 54.8899 138.338 47.2532 137.144C47.2532 137.144 37.9784 147.732 25.3047 146.19C26.1391 144.943 26.7231 143.626 27.1798 142.278Z" fill="black"/>
</g>
<path d="M207.997 94.4928C208.792 98.6734 217.667 105.985 222.014 109.569C227.552 114.136 234.315 116.819 240.397 120.429C239.8 114.988 238.575 110.236 236.857 106.648L214.724 89.5172C211.892 89.2933 209.038 89.3021 206.188 89.4777C207 90.9181 207.632 92.5737 207.997 94.4928Z" fill="#39D192"/>
<g opacity="0.100006">
<path d="M207.989 94.4926C208.784 98.6733 217.659 105.985 222.007 109.569C227.544 114.136 234.307 116.819 240.389 120.429C239.792 114.988 238.567 110.236 236.85 106.648L214.717 89.5171C211.884 89.2932 209.03 89.3019 206.18 89.4776C206.992 90.918 207.624 92.5736 207.989 94.4926Z" fill="white"/>
</g>
<g opacity="0.100006">
<path d="M221.855 109.436L227.225 108.443C226.944 104.561 226.685 101.342 226.47 98.8218L223.014 96.143C219.43 96.7534 215.013 97.478 210.055 98.2816C213.076 102.177 218.618 106.766 221.855 109.436Z" fill="white"/>
</g>
<g opacity="0.100006">
<path d="M208.92 93.9197C212.319 93.3707 215.389 92.8701 218.195 92.4046L216.64 91.197C213.891 90.9818 211.133 91.0477 208.371 91.2585C208.551 92.1104 208.731 92.9887 208.92 93.9197Z" fill="white"/>
</g>
<g opacity="0.100006">
<path d="M231.656 107.628L236.281 106.776C236.21 106.614 236.149 106.42 236.074 106.262L231.266 102.538C231.389 104.093 231.52 105.77 231.656 107.628Z" fill="white"/>
</g>
<path d="M212.184 89.4171L212.882 70.345L217.48 79.69C217.48 79.69 223.25 59.6957 231.625 49.0069C231.625 49.0069 228.884 68.8124 224.247 78.6492C224.247 78.6492 239.406 57.9347 260.582 40.6456C260.582 40.6456 253.419 58.0401 245.769 69.2603L273.914 46.9649C273.914 46.9649 266.519 65.6505 256.709 76.9497C256.709 76.9497 268.671 70.2879 280.449 70.0156C280.449 70.0156 265.145 86.5143 252.221 94.1643C252.221 94.1643 259.203 91.7006 270.458 92.9346C270.458 92.9346 255.887 103.54 242.392 107.607L252.352 109.056L238.756 112.235C238.756 112.235 222.613 105.635 212.184 89.4171" fill="#1A2E35"/>
<path d="M151.035 108.336C151.035 108.336 179.588 102.144 201.55 123.232L201.511 110.874L208.331 99.0787C208.331 99.0787 185.96 112.007 157.284 88.0912L160.042 98.6132L151.035 108.336Z" fill="#39D192"/>
<g opacity="0.699997">
<path d="M151.043 108.336C151.043 108.336 179.596 102.144 201.558 123.232L201.518 110.874L208.338 99.0789C208.338 99.0789 185.968 112.007 157.292 88.0915L160.05 98.6134L151.043 108.336Z" fill="white"/>
</g>
<path d="M159.112 100.111C159.112 100.111 144.239 93.3303 136.931 83.511L133.418 87.8542C133.418 87.8542 139.834 98.2751 158.577 102.083L159.112 100.111Z" fill="#1A2E35"/>
<path d="M156.913 101.318C156.913 101.318 139.686 104.717 138.926 117.606C143.155 112.038 149.465 110.132 155.543 110.913C158.49 107.273 162.556 105.696 166.706 105.727C166.886 104.361 167.207 102.965 167.822 101.502C168.212 100.589 168.665 99.781 169.152 99.0257C164.752 96.4962 161.454 92.1618 161.27 86.7911C156.158 83.5063 152.46 78.175 152.5 71.6362C148.051 77.3802 148.201 86.9931 156.913 101.318Z" fill="#39D192"/>
<path d="M208.249 93.8447C205.724 99.154 201.429 101.78 196.84 102.272C198.193 105.548 198.333 109.443 196.537 113.672C196.151 114.599 195.676 115.398 195.176 116.153C196.796 118.507 197.71 121.318 197.591 124.453C200.318 126.482 202.545 129.113 203.862 132.244C206.185 127.72 206.818 121.823 204.951 114.335C204.951 114.335 214.674 104.121 212.013 91.6051C210.84 92.558 209.562 93.2607 208.249 93.8447Z" fill="#39D192"/>
<g opacity="0.199997">
<path d="M208.239 93.858C205.815 98.9477 201.758 101.539 197.379 102.171C199.048 109.048 198.574 114.559 196.633 118.898C197.313 120.602 197.66 122.455 197.59 124.453C200.317 126.482 202.544 129.113 203.861 132.244C206.184 127.716 206.817 121.81 204.941 114.313C204.941 114.313 214.647 104.121 211.963 91.6404C210.8 92.5757 209.539 93.2784 208.239 93.858Z" fill="black"/>
</g>
<path d="M231.84 379.101H34.9844V341.972H231.84V379.101Z" fill="#39D192"/>
<g opacity="0.5">
<path d="M231.848 379.102H34.9922V341.972H231.848V379.102Z" fill="white"/>
</g>
<path d="M237.941 367.563H28.899L8.07031 107.878H258.77L237.941 367.563Z" fill="#39D192"/>
<g opacity="0.699997">
<path d="M237.945 367.562H28.9029L8.07422 107.878H258.774L237.945 367.562Z" fill="white"/>
</g>
<g opacity="0.100006">
<path d="M46.8801 134C41.0307 134 36.6217 139.191 37.0257 145.541L49.3657 340.052C49.6687 344.847 53.9943 348.716 59.0225 348.716C64.0551 348.716 67.9372 344.847 67.7 340.052L58.0432 145.541C57.727 139.191 52.7295 134 46.8801 134Z" fill="black"/>
<path d="M89.9611 134.065C84.1116 134.065 79.5533 139.255 79.7817 145.605L86.6192 340.116C86.7904 344.912 91.0018 348.781 96.0344 348.781C101.063 348.781 105.059 344.912 104.958 340.116L100.795 145.605C100.659 139.255 95.8105 134.065 89.9611 134.065Z" fill="black"/>
<path d="M133.423 134.065C127.574 134.065 122.87 139.255 122.914 145.605L124.254 340.116C124.285 344.912 128.391 348.781 133.423 348.781C138.451 348.781 142.557 344.912 142.588 340.116L143.932 145.605C143.971 139.255 139.268 134.065 133.423 134.065Z" fill="black"/>
<path d="M176.87 134.065C171.02 134.065 166.168 139.255 166.036 145.605L161.873 340.116C161.772 344.912 165.768 348.781 170.796 348.781C175.829 348.781 180.04 344.912 180.212 340.116L187.049 145.605C187.273 139.255 182.715 134.065 176.87 134.065Z" fill="black"/>
<path d="M220.319 134.065C214.469 134.065 209.472 139.255 209.156 145.605L199.499 340.116C199.257 344.912 203.144 348.781 208.176 348.781C213.205 348.781 217.53 344.912 217.833 340.116L230.173 145.605C230.577 139.255 226.164 134.065 220.319 134.065Z" fill="black"/>
</g>
<path d="M299.374 209.042L319.46 276.468L337.276 271.163C340.969 270.065 343.086 266.157 341.984 262.464L325.894 208.44C324.791 204.742 320.887 202.635 317.19 203.737L299.374 209.042ZM313.826 286.889L288.957 203.407L314.801 195.709C322.925 193.289 331.501 197.931 333.921 206.051L350.011 260.07C352.431 268.195 347.789 276.771 339.665 279.191L313.826 286.889Z" fill="#39D192"/>
<g opacity="0.699997">
<path d="M299.366 209.042L319.452 276.468L337.268 271.163C340.962 270.065 343.078 266.157 341.976 262.464L325.886 208.44C324.784 204.743 320.88 202.635 317.182 203.737L299.366 209.042ZM313.818 286.889L288.949 203.408L314.793 195.709C322.917 193.29 331.494 197.931 333.913 206.051L350.004 260.071C352.423 268.195 347.782 276.771 339.657 279.191L313.818 286.889Z" fill="white"/>
</g>
<path d="M322.383 379.103L245.664 121.54L273.695 120.85C278.077 120.741 281.99 123.586 283.237 127.785L350.418 353.317C351.669 357.515 349.948 362.034 346.22 364.344L322.383 379.103Z" fill="#39D192"/>
<g opacity="0.5">
<path d="M322.395 379.103L245.676 121.54L273.706 120.85C278.089 120.74 282.002 123.586 283.249 127.784L350.43 353.316C351.681 357.515 349.96 362.033 346.231 364.343L322.395 379.103Z" fill="white"/>
</g>
<path d="M124.27 104.961C124.942 104.676 125.649 104.425 126.369 104.197C126.079 103.872 125.794 103.552 125.442 103.165C117.59 94.5139 109.598 92.9417 91.2986 94.4173C72.9994 95.8928 64.4536 81.4098 61.6036 75.2661C58.7535 69.1225 53.9976 67.8709 53.9976 67.8709L54.0898 56.1325L46.0446 54.8854L50.2429 68.5472C50.2429 68.5472 43.2868 74.6908 43.9806 80.5227C44.6745 86.3546 48.9606 98.5452 40.6651 107.008C32.374 115.47 19.7617 131.09 25.0139 144.792C30.2705 158.497 36.3878 151.581 36.3878 151.581C36.3878 151.581 37.5999 125.096 51.0114 113.929C59.9963 106.45 59.4078 99.1074 58.0465 95.0584C59.9568 97.6538 64.2472 101.448 73.9216 104.961C90.7804 111.074 94.3419 101.628 102.326 105.137C108.834 108 120.273 105.853 124.27 104.961Z" fill="#39D192"/>
<g opacity="0.199997">
<path d="M124.27 104.961C124.942 104.676 125.649 104.426 126.369 104.197C126.079 103.872 125.794 103.552 125.442 103.165C117.59 94.514 109.598 92.9419 91.2986 94.4174C72.9994 95.8929 64.4536 81.4099 61.6036 75.2663C58.7535 69.1226 53.9976 67.871 53.9976 67.871L54.0898 56.1327L46.0446 54.8855L50.2429 68.5473C50.2429 68.5473 43.2868 74.691 43.9806 80.5228C44.6745 86.3547 48.9606 98.5454 40.6651 107.008C32.374 115.47 19.7617 131.09 25.0139 144.792C30.2705 158.498 36.3878 151.581 36.3878 151.581C36.3878 151.581 37.5999 125.096 51.0114 113.929C59.9963 106.45 59.4078 99.1075 58.0465 95.0585C59.9568 97.6539 64.2472 101.448 73.9216 104.961C90.7804 111.074 94.3419 101.628 102.326 105.137C108.834 108 120.273 105.853 124.27 104.961Z" fill="black"/>
</g>
<g opacity="0.600006">
<path d="M126.383 104.215C125.768 104.377 125.206 104.531 124.666 104.79C124.574 104.86 124.416 104.887 124.324 104.957C124.012 105.014 123.709 105.124 123.34 105.133C118.707 106.125 108.369 107.816 102.331 105.155C94.3256 101.615 90.7773 111.07 73.9141 104.948C64.2485 101.439 59.9405 97.6671 58.0302 95.0674C59.3959 99.0988 60.0107 106.419 50.9819 113.916C37.5835 125.083 36.3979 151.599 36.3979 151.599C36.3979 151.599 30.2586 158.52 25.024 144.809C19.7411 131.112 32.3928 115.479 40.6576 106.999C48.9267 98.5674 44.6582 86.346 43.9907 80.5273C43.2617 74.6735 50.2397 68.5606 50.2397 68.5606C50.2397 68.5606 51.5308 70.6816 52.9185 75.4595C53.1425 76.1139 53.3313 76.878 53.5245 77.6465C53.4587 77.2864 53.3225 76.8297 53.2391 76.3598C53.0283 75.1697 52.8175 73.7117 52.7429 72.3855C52.6463 70.3742 52.9053 68.5123 53.9681 67.8931C53.9681 67.8931 58.7328 69.1227 61.5917 75.24C64.4593 81.41 72.9919 95.9193 91.2691 94.4131C109.612 92.9463 117.592 94.5097 125.443 103.156C125.777 103.521 126.102 103.842 126.383 104.215Z" fill="white"/>
</g>
<g opacity="0.100006">
<path d="M126.39 104.215C125.775 104.377 125.213 104.531 124.672 104.79C124.277 104.966 123.812 105.049 123.346 105.133C114.071 106.793 98.4818 102.103 90.6474 104.948C81.9084 108.062 70.3545 103.556 63.1042 97.6891C56.2272 92.134 55.1513 82.2224 53.2454 76.3598L52.9248 75.4596L52.7492 72.3856C52.6525 70.3743 52.9116 68.5123 53.9744 67.8931C53.9744 67.8931 58.7391 69.1227 61.5979 75.24C64.4656 81.41 72.9982 95.9194 91.2754 94.4131C109.619 92.9464 117.598 94.5097 125.45 103.157C125.783 103.521 126.108 103.842 126.39 104.215Z" fill="black"/>
</g>
<path d="M210.25 17.0872C210.25 17.0872 212.854 2.60856 223.569 3.05176e-05L227.333 4.3871C227.333 4.3871 217.487 6.0822 211.989 18.5364L210.25 17.0872Z" fill="#1A2E35"/>
<path d="M180.142 7.76769C177.534 11.2984 177.244 15.6372 177.244 15.6372C177.244 15.6372 178.983 20.56 177.244 26.6422C177.244 26.6422 179.562 30.5681 177.244 39.7507C174.929 48.9376 173.48 51.2519 170.876 50.9621C170.876 50.9621 167.894 65.4188 159.977 67.4564C159.977 67.4564 170.007 84.2625 189.988 75.5718C209.965 66.8899 211.37 24.464 202.148 13.8586C192.926 3.25327 180.142 7.76769 180.142 7.76769Z" fill="#39D192"/>
<g opacity="0.699997">
<path d="M180.134 7.76769C177.526 11.2984 177.236 15.6372 177.236 15.6372C177.236 15.6372 178.975 20.56 177.236 26.6422C177.236 26.6422 179.555 30.5681 177.236 39.7507C174.922 48.9376 173.472 51.2519 170.868 50.9621C170.868 50.9621 167.887 65.4188 159.969 67.4564C159.969 67.4564 169.999 84.2625 189.98 75.5718C209.957 66.8899 211.362 24.464 202.14 13.8586C192.918 3.25327 180.134 7.76769 180.134 7.76769Z" fill="white"/>
</g>
<path d="M180.142 7.76777C180.142 7.76777 198.384 -6.55717 212.279 15.69C212.279 15.69 226.771 9.5463 238.338 21.434C262.662 46.4302 227.873 110.897 195.196 83.9727C195.196 83.9727 166.735 89.159 159.977 67.4565C159.977 67.4565 165.707 71.8128 170.876 66.0205C170.876 66.0205 180.612 73.6045 187.656 57.0443C198.094 32.5136 187.656 22.5889 187.656 22.5889C187.656 22.5889 188.828 8.87002 180.142 7.76777Z" fill="#39D192"/>
</svg>
