<svg width="166" height="143" viewBox="0 0 166 143" fill="none" xmlns="http://www.w3.org/2000/svg">
<g clip-path="url(#clip0_164_333)">
<path d="M10.2061 19.9173C10.2059 20.2413 10.2693 20.5622 10.3927 20.8616C10.5161 21.161 10.697 21.4331 10.9252 21.6622C11.1533 21.8914 11.4242 22.0732 11.7224 22.1972C12.0205 22.3213 12.3401 22.3851 12.6628 22.3851C12.9855 22.3851 13.3051 22.3213 13.6032 22.1972C13.9014 22.0732 14.1722 21.8914 14.4004 21.6622C14.6285 21.4331 14.8095 21.161 14.9328 20.8616C15.0562 20.5622 15.1197 20.2413 15.1195 19.9173V13.7501C15.1195 13.0959 14.8607 12.4685 14.3999 12.0059C13.9392 11.5433 13.3144 11.2834 12.6628 11.2834C12.0112 11.2834 11.3863 11.5433 10.9256 12.0059C10.4649 12.4685 10.2061 13.0959 10.2061 13.7501V19.9173Z" fill="#171115"/>
<path d="M10.2061 40.7242C10.2059 41.0482 10.2693 41.3691 10.3927 41.6685C10.5161 41.9679 10.697 42.2399 10.9252 42.4691C11.1533 42.6983 11.4242 42.8801 11.7224 43.0041C12.0205 43.1282 12.3401 43.192 12.6628 43.192C12.9855 43.192 13.3051 43.1282 13.6032 43.0041C13.9014 42.8801 14.1722 42.6983 14.4004 42.4691C14.6285 42.2399 14.8095 41.9679 14.9328 41.6685C15.0562 41.3691 15.1197 41.0482 15.1195 40.7242V34.557C15.1195 33.9028 14.8607 33.2754 14.3999 32.8128C13.9392 32.3502 13.3144 32.0903 12.6628 32.0903C12.0112 32.0903 11.3863 32.3502 10.9256 32.8128C10.4649 33.2754 10.2061 33.9028 10.2061 34.557V40.7242Z" fill="#171115"/>
<path d="M96.8012 134.75C101.567 134.75 103.276 133.037 103.276 128.249V6.71013C103.276 1.92613 101.57 0.209473 96.8012 0.209473H19.8512C15.0864 0.209473 12.6572 1.92372 12.6572 6.71013V128.253C12.6572 133.037 15.0828 134.754 19.8512 134.754L96.8012 134.75Z" fill="#352E35"/>
<path d="M93.7693 123.68C98.1648 123.68 99.7367 122.247 99.7367 118.251V16.7127C99.7367 12.7148 98.1648 11.2834 93.7693 11.2834H22.8287C18.4344 11.2834 16.1982 12.7148 16.1982 16.7127V118.251C16.1982 122.247 18.4344 123.68 22.8287 123.68H93.7693Z" fill="#171115"/>
<path d="M92.7843 122.132C97.0575 122.132 98.5874 120.74 98.5874 116.853V18.1103C98.5874 14.2219 97.0575 12.8303 92.7843 12.8303H23.7968C19.5224 12.8303 17.3486 14.2219 17.3486 18.1103V116.853C17.3486 120.74 19.5224 122.132 23.7968 122.132H92.7843Z" fill="#60C6F2"/>
<g style="mix-blend-mode:soft-light">
<path d="M97.4856 14.2207C96.6199 20.1965 94.5756 26.1675 93.156 31.8977C91.2472 39.6022 89.2833 47.4535 85.9225 54.6717C80.105 67.1686 72.8451 79.0672 63.5853 89.3033C51.1002 103.108 36.0337 112.98 20.0907 121.566C18.2731 120.843 17.3486 119.376 17.3486 116.849V18.1103C17.3486 14.2219 19.5224 12.8303 23.7968 12.8303H92.7843C95.0864 12.8303 96.5863 13.2408 97.4856 14.2207Z" fill="#BAE3FA"/>
</g>
<path d="M57.968 133.066C59.0809 133.066 60.1483 132.622 60.9353 131.832C61.7223 131.042 62.1644 129.97 62.1644 128.853C62.1644 127.735 61.7223 126.663 60.9353 125.873C60.1483 125.083 59.0809 124.639 57.968 124.639C56.855 124.639 55.7876 125.083 55.0006 125.873C54.2136 126.663 53.7715 127.735 53.7715 128.853C53.7715 129.97 54.2136 131.042 55.0006 131.832C55.7876 132.622 56.855 133.066 57.968 133.066Z" fill="#171115"/>
<path d="M51.0019 8.51577C51.6533 8.51546 52.278 8.25548 52.7387 7.79297C53.1993 7.33045 53.4583 6.70323 53.4586 6.04914C53.4588 5.72511 53.3953 5.40424 53.2719 5.10483C53.1485 4.80543 52.9676 4.53336 52.7395 4.30419C52.5113 4.07501 52.2404 3.89321 51.9423 3.76918C51.6441 3.64514 51.3246 3.5813 51.0019 3.5813C50.35 3.5813 49.7248 3.84131 49.2639 4.30412C48.8029 4.76693 48.5439 5.39463 48.5439 6.04914C48.5443 6.70344 48.8034 7.33084 49.2643 7.79339C49.7252 8.25594 50.3502 8.51577 51.0019 8.51577Z" fill="#171115"/>
<path d="M64.9324 8.51577C65.5837 8.51546 66.2083 8.25544 66.6688 7.79289C67.1293 7.33034 67.3879 6.70312 67.3879 6.04914C67.3881 5.72522 67.3247 5.40444 67.2014 5.10511C67.078 4.80578 66.8972 4.53378 66.6692 4.30461C66.4412 4.07545 66.1705 3.89363 65.8724 3.76952C65.5744 3.64542 65.255 3.58146 64.9324 3.5813H58.7888C58.1371 3.58162 57.5122 3.84177 57.0515 4.30454C56.5908 4.76732 56.332 5.39484 56.332 6.04914C56.3323 6.70323 56.5913 7.33045 57.0519 7.79297C57.5126 8.25548 58.1373 8.51546 58.7888 8.51577H64.9324Z" fill="#171115"/>
<g style="mix-blend-mode:multiply">
<path d="M91.791 105.027H89.8138V102.86H89.6328V105.027H84.3428V102.86H84.1606V105.027H78.8695V102.86H78.6872V105.027H73.3973V102.86H73.2066V105.027H67.9167V102.86H67.7344V105.027H62.4433V102.86H62.261V105.027H56.9711V102.86H56.7888V105.027H51.5049V102.86H51.3226V105.027H46.0315V102.86H45.8492V105.027H42.1408L49.3815 91.5112L57.4267 100.914L66.0774 76.1817L72.9524 101.45L82.1499 81.446L84.2745 85.3416L82.783 86.106L88.1688 89.5839L88.5285 83.1639L86.8799 84.0065L81.9329 74.9333L73.6598 92.9209L66.4203 66.3464L56.3416 95.16L48.8203 86.3721L40.6348 101.652L37.6865 94.5123L28.1797 101.652V101.615H26.0863V96.3036H28.1845V96.1206H26.0863V90.8081H28.1845V90.6252H26.0863V85.3139H28.1845V85.1261H26.0863V79.8148H28.1845V79.6318H26.0863V74.3194H28.1845V74.1364H26.0863V68.8251H28.1845V68.6337H26.0863V67.6261H25.904V103.352L25.1211 103.941L25.904 104.992V105.206H26.0635L26.8692 106.289L28.308 105.206H38.9503L40.2955 108.466L42.0424 105.206H91.791V105.027ZM26.0863 101.789H27.9891L26.0863 103.22V101.789ZM29.4303 104.367V105.027H28.5538L29.4303 104.367ZM35.0859 105.027V102.86H34.9037V105.027H29.6137V104.23L36.4336 99.1085L38.8759 105.027H35.0859Z" fill="#C8DCE9"/>
<path d="M25.0535 99.5515H24.8652V101.02H25.0535V99.5515Z" fill="#C8DCE9"/>
<path d="M25.2461 95.6584H24.9032C24.9937 95.4881 25.0738 95.3124 25.143 95.1323C25.1874 95.017 25.2114 94.8948 25.2137 94.7712C25.22 94.6634 25.1882 94.5568 25.1238 94.4702C25.0949 94.4346 25.0583 94.4061 25.0167 94.3869C24.9751 94.3677 24.9298 94.3583 24.884 94.3595C24.8099 94.3614 24.7371 94.3795 24.6706 94.4124V94.6075C24.7215 94.5803 24.7774 94.564 24.8349 94.5593C24.8617 94.5584 24.8884 94.5641 24.9127 94.5759C24.9369 94.5876 24.9579 94.6051 24.9739 94.6267C25.0108 94.6785 25.029 94.7414 25.0255 94.8049C25.0255 95.0513 24.8972 95.3875 24.6406 95.8137V95.8426H25.2497L25.2461 95.6584Z" fill="#C8DCE9"/>
<path d="M24.823 90.1004C24.7662 90.0982 24.7107 90.0825 24.6611 90.0546V90.2412C24.7205 90.2678 24.7844 90.2829 24.8494 90.2858C24.8981 90.2865 24.9463 90.2761 24.9904 90.2552C25.0344 90.2343 25.0732 90.2036 25.1036 90.1654C25.1736 90.0788 25.2105 89.9699 25.2079 89.8584C25.2161 89.7775 25.197 89.6962 25.1534 89.6275C25.1099 89.5589 25.0446 89.5071 24.9681 89.4804C25.0337 89.4531 25.0898 89.4068 25.1293 89.3474C25.1688 89.2881 25.1899 89.2183 25.1899 89.147C25.1934 89.0508 25.1594 88.9571 25.0952 88.8857C25.0656 88.8513 25.0287 88.824 24.9872 88.8058C24.9457 88.7877 24.9006 88.7792 24.8554 88.781C24.7969 88.7802 24.7391 88.793 24.6863 88.8183V89.0025C24.7251 88.9775 24.7698 88.9633 24.8158 88.9616C24.8402 88.9606 24.8644 88.9653 24.8867 88.9754C24.9089 88.9854 24.9286 89.0004 24.9441 89.0193C24.9774 89.0644 24.9939 89.1198 24.9909 89.1759C24.9942 89.2015 24.9923 89.2276 24.9854 89.2526C24.9784 89.2775 24.9665 89.3008 24.9504 89.3211C24.9343 89.3413 24.9143 89.358 24.8916 89.3703C24.8688 89.3826 24.8439 89.3902 24.8182 89.3925V89.5791C24.9453 89.5984 25.0088 89.6863 25.0088 89.8404C25.0125 89.9092 24.9935 89.9773 24.9549 90.0342C24.9396 90.0548 24.9197 90.0715 24.8968 90.083C24.8739 90.0945 24.8486 90.1004 24.823 90.1004Z" fill="#C8DCE9"/>
<path d="M25.0067 84.8095H25.195V84.4038H25.2765V84.2714H25.195V83.3228H25.0199L24.623 84.2352V84.4038H25.0067V84.8095ZM24.7513 84.275L25.0019 83.6815V84.2714L24.7513 84.275Z" fill="#C8DCE9"/>
<path d="M24.8213 78.7905C24.7705 78.7882 24.7206 78.7768 24.6738 78.7567V78.9349C24.7312 78.9607 24.7932 78.9742 24.8561 78.9746C24.9088 78.975 24.9608 78.963 25.0081 78.9396C25.0553 78.9162 25.0965 78.882 25.1283 78.8398C25.2033 78.7445 25.242 78.6254 25.2374 78.5039C25.2374 78.256 25.1282 78.1175 24.9112 78.0862V77.6516H25.1918V77.4795H24.7278V78.2511C24.7525 78.245 24.7779 78.2421 24.8033 78.2427C24.8363 78.2409 24.8692 78.2464 24.8998 78.2587C24.9305 78.2709 24.9581 78.2897 24.9808 78.3137C25.0266 78.3684 25.0497 78.4387 25.0455 78.51C25.0498 78.5833 25.0281 78.6558 24.9844 78.7146C24.9652 78.7394 24.9403 78.7592 24.912 78.7723C24.8836 78.7855 24.8525 78.7917 24.8213 78.7905Z" fill="#C8DCE9"/>
<path d="M24.9672 73.3888C25.0127 73.3873 25.057 73.3738 25.0957 73.3497C25.1344 73.3256 25.1662 73.2918 25.1878 73.2515C25.2499 73.1482 25.2807 73.029 25.2765 72.9084C25.2817 72.7952 25.2556 72.6826 25.2009 72.5834C25.1814 72.5474 25.1526 72.5173 25.1177 72.4961C25.0827 72.475 25.0427 72.4636 25.0019 72.463C24.9752 72.464 24.9486 72.468 24.9228 72.4751L25.2045 71.8972H25.0163L24.8005 72.339C24.713 72.5164 24.6675 72.7117 24.6674 72.9096C24.659 73.036 24.6891 73.162 24.7537 73.2708C24.7768 73.3067 24.8083 73.3362 24.8456 73.3568C24.8829 73.3774 24.9246 73.3884 24.9672 73.3888ZM24.9672 72.6448C25.0471 72.6448 25.087 72.7279 25.087 72.894C25.087 73.0998 25.0487 73.2034 24.9743 73.2034C24.9 73.2034 24.8616 73.1107 24.8616 72.9241C24.8616 72.7375 24.8964 72.6448 24.9695 72.6448H24.9672Z" fill="#C8DCE9"/>
</g>
<path d="M91.3751 104.705H25.5781V67.2168" stroke="#192440" stroke-width="1.52" stroke-miterlimit="10"/>
<path d="M25.5781 101.286H27.7675" stroke="#192440" stroke-width="1.52" stroke-miterlimit="10"/>
<path d="M25.5781 95.7908H27.7675" stroke="#192440" stroke-width="1.52" stroke-miterlimit="10"/>
<path d="M25.5781 90.2952H27.7675" stroke="#192440" stroke-width="1.52" stroke-miterlimit="10"/>
<path d="M25.5781 84.801H27.7675" stroke="#192440" stroke-width="1.52" stroke-miterlimit="10"/>
<path d="M25.5781 79.3054H27.7675" stroke="#192440" stroke-width="1.52" stroke-miterlimit="10"/>
<path d="M25.5781 73.8113H27.7675" stroke="#192440" stroke-width="1.52" stroke-miterlimit="10"/>
<path d="M25.5781 68.3159H27.7675" stroke="#192440" stroke-width="1.52" stroke-miterlimit="10"/>
<path d="M29.1055 102.446V104.644" stroke="#192440" stroke-width="1.52" stroke-miterlimit="10"/>
<path d="M34.5791 102.446V104.644" stroke="#192440" stroke-width="1.52" stroke-miterlimit="10"/>
<path d="M40.0518 102.446V104.644" stroke="#192440" stroke-width="1.52" stroke-miterlimit="10"/>
<path d="M45.5244 104.644V102.446" stroke="#192440" stroke-width="1.52" stroke-miterlimit="10"/>
<path d="M50.9971 102.446V104.644" stroke="#192440" stroke-width="1.52" stroke-miterlimit="10"/>
<path d="M56.4707 102.446V104.644" stroke="#192440" stroke-width="1.52" stroke-miterlimit="10"/>
<path d="M61.9424 102.446V104.644" stroke="#192440" stroke-width="1.52" stroke-miterlimit="10"/>
<path d="M67.416 102.446V104.644" stroke="#192440" stroke-width="1.52" stroke-miterlimit="10"/>
<path d="M72.8887 102.446V104.644" stroke="#192440" stroke-width="1.52" stroke-miterlimit="10"/>
<path d="M78.3613 102.446V104.644" stroke="#192440" stroke-width="1.52" stroke-miterlimit="10"/>
<path d="M83.835 102.446V104.644" stroke="#192440" stroke-width="1.52" stroke-miterlimit="10"/>
<path d="M89.3086 102.446V104.644" stroke="#192440" stroke-width="1.52" stroke-miterlimit="10"/>
<path d="M24.4551 100.607V99.1399H24.6433V100.607H24.4551Z" fill="#192440"/>
<path d="M24.2246 95.4332V95.4043C24.4812 94.9781 24.6095 94.6411 24.6095 94.3955C24.6129 94.3316 24.5948 94.2684 24.5579 94.2161C24.5417 94.1946 24.5207 94.1773 24.4965 94.1655C24.4723 94.1538 24.4457 94.148 24.4188 94.1487C24.3613 94.1537 24.3054 94.1705 24.2546 94.198V94.0018C24.3208 93.9693 24.3932 93.9517 24.4668 93.9501C24.5124 93.9488 24.5578 93.958 24.5993 93.977C24.6409 93.9959 24.6776 94.0242 24.7066 94.0596C24.7699 94.1466 24.8012 94.253 24.7953 94.3606C24.7933 94.4841 24.7697 94.6063 24.7258 94.7217C24.6553 94.9013 24.5753 95.0769 24.486 95.2478H24.8277V95.4344L24.2246 95.4332Z" fill="#192440"/>
<path d="M24.25 89.8294V89.6416C24.2999 89.6699 24.3558 89.686 24.4131 89.6886C24.4404 89.6891 24.4674 89.6828 24.4917 89.6702C24.516 89.6575 24.5368 89.6391 24.5521 89.6163C24.5902 89.5592 24.6088 89.4912 24.6049 89.4225C24.6049 89.2684 24.5426 89.1818 24.4155 89.1601V88.9783C24.4411 88.9761 24.466 88.9687 24.4888 88.9565C24.5115 88.9444 24.5315 88.9277 24.5476 88.9076C24.5638 88.8874 24.5757 88.8642 24.5826 88.8394C24.5896 88.8145 24.5915 88.7884 24.5881 88.7628C24.5912 88.7068 24.5746 88.6514 24.5414 88.6063C24.5257 88.5876 24.5061 88.5726 24.4838 88.5626C24.4616 88.5526 24.4374 88.5478 24.4131 88.5486C24.367 88.5503 24.3223 88.5645 24.2836 88.5895V88.4041C24.3366 88.3797 24.3943 88.3674 24.4526 88.368C24.4969 88.3671 24.5408 88.376 24.5812 88.3941C24.6216 88.4122 24.6575 88.4391 24.6864 88.4727C24.7185 88.5077 24.7433 88.5486 24.7596 88.5932C24.7759 88.6379 24.7832 88.6853 24.7812 88.7327C24.7811 88.8041 24.7601 88.8739 24.7206 88.9332C24.6811 88.9926 24.625 89.0388 24.5593 89.0662C24.6359 89.0929 24.7012 89.1447 24.7447 89.2133C24.7882 89.2819 24.8074 89.3633 24.7991 89.4442C24.8023 89.556 24.7648 89.6651 24.6936 89.7512C24.6633 89.7895 24.6246 89.8202 24.5805 89.8411C24.5364 89.862 24.4882 89.8724 24.4394 89.8716C24.3743 89.8691 24.3101 89.8548 24.25 89.8294Z" fill="#192440"/>
<path d="M24.5927 84.3964V83.9944H24.209V83.8258L24.6047 82.9133H24.7809V83.8631H24.8612V83.9944H24.7809V84.3964H24.5927ZM24.5927 83.8631V83.2733L24.3421 83.8668L24.5927 83.8631Z" fill="#192440"/>
<path d="M24.2627 78.523V78.3449C24.3096 78.3644 24.3595 78.3758 24.4102 78.3786C24.4414 78.3797 24.4724 78.3734 24.5007 78.3602C24.529 78.347 24.5539 78.3273 24.5732 78.3027C24.617 78.2439 24.6386 78.1714 24.6344 78.0981C24.6386 78.0268 24.6154 77.9566 24.5696 77.9019C24.5469 77.8779 24.5193 77.8592 24.4886 77.8469C24.458 77.8346 24.4251 77.8292 24.3922 77.8308C24.3667 77.8302 24.3413 77.8331 24.3166 77.8393V77.0676H24.7807V77.2398H24.5001V77.6743C24.7171 77.7044 24.8262 77.8441 24.8262 78.0909C24.831 78.2129 24.7918 78.3325 24.7159 78.4279C24.6845 78.4703 24.6436 78.5046 24.5965 78.528C24.5494 78.5514 24.4975 78.5633 24.4449 78.5628C24.3821 78.5623 24.3201 78.5488 24.2627 78.523Z" fill="#192440"/>
<path d="M24.7933 71.4819L24.5127 72.0597C24.5386 72.0527 24.5651 72.0487 24.5919 72.0477C24.6328 72.048 24.6728 72.0593 24.7078 72.0805C24.7429 72.1017 24.7715 72.1319 24.7909 72.1681C24.8456 72.2673 24.8717 72.3798 24.8664 72.4931C24.8709 72.6139 24.8396 72.7333 24.7765 72.8362C24.7551 72.8764 24.7236 72.9102 24.6851 72.9343C24.6466 72.9584 24.6024 72.9719 24.5571 72.9734C24.5143 72.9729 24.4724 72.9616 24.4351 72.9406C24.3978 72.9196 24.3664 72.8895 24.3437 72.8531C24.2787 72.7444 24.2485 72.6183 24.2574 72.4919C24.2575 72.294 24.303 72.0987 24.3904 71.9213L24.6051 71.4795L24.7933 71.4819ZM24.5535 72.2331C24.4804 72.2331 24.4432 72.3258 24.4432 72.5112C24.4432 72.6966 24.4816 72.7917 24.5559 72.7917C24.6302 72.7917 24.6674 72.6881 24.6674 72.4811C24.6734 72.3149 24.6362 72.2331 24.5595 72.2331H24.5535Z" fill="#192440"/>
<path d="M39.8797 108.057L36.0166 98.6956L26.4522 105.879L24.7041 103.531L37.2755 94.091L40.2226 101.231L48.4081 85.9507L55.9306 94.7423L66.0081 65.9287L73.2416 92.5104L81.5111 74.5228L87.3645 85.2573L84.8047 86.6646L81.7329 81.0331L72.5366 101.037L65.6604 75.77L57.0097 100.501L48.9645 91.0983L39.8797 108.057Z" fill="#E6302A"/>
<path d="M82.3662 85.6943L88.107 82.751L87.7521 89.171L82.3662 85.6943Z" fill="#E6302A"/>
<path d="M64.287 57.9004C65.0125 53.1403 61.7573 48.6909 57.0162 47.9625C52.2752 47.2341 47.8438 50.5025 47.1183 55.2626C46.3928 60.0227 49.648 64.4721 54.3891 65.2005C59.1301 65.9289 63.5615 62.6605 64.287 57.9004Z" fill="#FFCD00" stroke="#F7A50C" stroke-width="4.6" stroke-miterlimit="10"/>
<path d="M62.1032 56.5724C62.1032 57.4145 61.9379 58.2483 61.6169 59.0263C61.2959 59.8043 60.8255 60.5111 60.2324 61.1065C59.6393 61.7019 58.9351 62.1742 58.1602 62.4963C57.3853 62.8184 56.5548 62.9842 55.7161 62.984C54.8774 62.9842 54.0469 62.8184 53.272 62.4963C52.4971 62.1742 51.793 61.7019 51.1999 61.1065C50.6068 60.5111 50.1363 59.8043 49.8153 59.0263C49.4943 58.2483 49.3291 57.4145 49.3291 56.5724C49.3291 54.8717 50.002 53.2406 51.1998 52.0379C52.3976 50.8353 54.0222 50.1597 55.7161 50.1597C57.4101 50.1597 59.0346 50.8353 60.2324 52.0379C61.4302 53.2406 62.1032 54.8717 62.1032 56.5724Z" fill="#FFE06E"/>
<path d="M56.2784 62.4303C54.5848 62.4303 52.9606 61.7548 51.763 60.5524C50.5654 59.35 49.8926 57.7192 49.8926 56.0187C49.8903 54.4344 50.4744 52.9057 51.5316 51.7295C50.8396 52.3306 50.2847 53.0742 49.9046 53.91C49.5246 54.7457 49.3283 55.6538 49.3291 56.5725C49.3291 57.4146 49.4943 58.2484 49.8153 59.0264C50.1363 59.8043 50.6068 60.5112 51.1999 61.1066C51.793 61.702 52.4971 62.1742 53.272 62.4963C54.0469 62.8185 54.8774 62.9842 55.7161 62.984C56.6118 62.9851 57.4975 62.7965 58.3157 62.4306C59.1338 62.0647 59.8659 61.5297 60.4641 60.8605C59.3039 61.8748 57.8168 62.4325 56.2784 62.4303Z" fill="#F7A50C"/>
<path d="M55.1848 62.0391V61.1699C54.475 61.1844 53.083 60.1503 53.083 60.1503L53.9403 58.9597C53.9403 58.9597 54.9294 59.617 55.4894 59.6567C56.0493 59.6965 56.6248 59.3353 56.6884 58.8658C56.7639 58.3349 56.5577 57.8414 55.5541 57.2575C54.1969 56.4678 53.1214 55.8394 53.1214 54.5886C53.1214 53.3956 53.9607 52.4903 55.2796 52.2749V51.3323H56.1668V52.2183C57.1656 52.3242 57.9137 53.0044 57.9137 53.0044L57.1787 54.1877C56.872 53.9171 56.5133 53.7123 56.1248 53.5858C55.5254 53.4173 54.9127 53.9229 54.8827 54.3154C54.8563 54.6633 54.9594 55.2327 56.2016 55.7491C57.6763 56.351 58.3394 57.3996 58.3394 58.678C58.3394 59.8132 57.5528 60.8774 56.0781 61.1218V62.0367L55.1848 62.0391Z" fill="#F7A50C"/>
<path d="M55.8419 48.3757H55.5889V49.606H55.8419V48.3757Z" fill="#F7A50C"/>
<path d="M55.8419 63.4294H55.5889V64.6597H55.8419V63.4294Z" fill="#F7A50C"/>
<path d="M63.825 56.3909H62.5996V56.6449H63.825V56.3909Z" fill="#F7A50C"/>
<path d="M48.8318 56.3909H47.6064V56.6449H48.8318V56.3909Z" fill="#F7A50C"/>
<path d="M61.3701 50.6705L60.5039 51.5408L60.6829 51.7203L61.549 50.8501L61.3701 50.6705Z" fill="#F7A50C"/>
<path d="M50.7581 61.3166L49.8916 62.1865L50.0705 62.3661L50.937 61.4962L50.7581 61.3166Z" fill="#F7A50C"/>
<path d="M60.6644 61.3152L60.4854 61.4946L61.3509 62.3655L61.53 62.1861L60.6644 61.3152Z" fill="#F7A50C"/>
<path d="M50.0781 50.6711L49.8994 50.8508L50.7666 51.72L50.9454 51.5403L50.0781 50.6711Z" fill="#F7A50C"/>
<path d="M58.6665 48.941L58.2012 50.0791L58.4352 50.1756L58.9006 49.0374L58.6665 48.941Z" fill="#F7A50C"/>
<path d="M52.974 62.8695L52.5078 64.0073L52.7418 64.104L53.2079 62.9662L52.974 62.8695Z" fill="#F7A50C"/>
<path d="M61.4321 58.2661L61.3359 58.4998L62.4633 58.9673L62.5594 58.7336L61.4321 58.2661Z" fill="#F7A50C"/>
<path d="M48.2679 53.3067L48.1719 53.5417L49.3056 54.0086L49.4016 53.7736L48.2679 53.3067Z" fill="#F7A50C"/>
<path d="M63.1546 53.2624L62.0244 53.7378L62.1222 53.9721L63.2524 53.4967L63.1546 53.2624Z" fill="#F7A50C"/>
<path d="M49.3053 59.0618L48.1748 59.5364L48.2724 59.7707L49.4029 59.2961L49.3053 59.0618Z" fill="#F7A50C"/>
<path d="M58.4971 62.8504L58.2637 62.9485L58.7368 64.0834L58.9701 63.9854L58.4971 62.8504Z" fill="#F7A50C"/>
<path d="M52.712 48.9595L52.4785 49.0574L52.9508 50.1926L53.1842 50.0947L52.712 48.9595Z" fill="#F7A50C"/>
<g style="mix-blend-mode:soft-light">
<path d="M59.8643 52.2616C61.2455 53.6713 61.7659 55.731 61.3031 56.1873C60.8402 56.6435 59.3463 55.8694 57.9663 54.4586C56.5862 53.0477 55.8405 51.5345 56.3033 51.0782C56.7661 50.622 58.483 50.8507 59.8643 52.2616Z" fill="#FACEC8"/>
</g>
<path d="M39.614 87.1967C44.4102 87.1967 48.2983 83.2929 48.2983 78.4774C48.2983 73.6618 44.4102 69.7581 39.614 69.7581C34.8178 69.7581 30.9297 73.6618 30.9297 78.4774C30.9297 83.2929 34.8178 87.1967 39.614 87.1967Z" fill="#FFCD00" stroke="#F7A50C" stroke-width="4.6" stroke-miterlimit="10"/>
<path d="M46.0004 78.4784C46.0005 79.3205 45.8355 80.1544 45.5146 80.9324C45.1938 81.7104 44.7234 82.4174 44.1304 83.0129C43.5375 83.6084 42.8334 84.0808 42.0586 84.4031C41.2837 84.7253 40.4533 84.8912 39.6146 84.8912C37.9206 84.8912 36.2961 84.2156 35.0983 83.013C33.9005 81.8103 33.2275 80.1792 33.2275 78.4784C33.2275 76.7777 33.9005 75.1466 35.0983 73.9439C36.2961 72.7413 37.9206 72.0657 39.6146 72.0657C40.4533 72.0657 41.2837 72.2316 42.0586 72.5538C42.8334 72.8761 43.5375 73.3485 44.1304 73.944C44.7234 74.5395 45.1938 75.2465 45.5146 76.0245C45.8355 76.8025 46.0005 77.6364 46.0004 78.4784Z" fill="#FFE06E"/>
<path d="M40.1769 84.3375C38.483 84.3375 36.8584 83.6619 35.6606 82.4592C34.4628 81.2566 33.7899 79.6255 33.7899 77.9247C33.7879 76.3402 34.3725 74.8116 35.4301 73.6355C34.7381 74.2366 34.1831 74.9802 33.8031 75.8159C33.423 76.6517 33.2267 77.5598 33.2275 78.4785C33.2275 80.1793 33.9005 81.8104 35.0983 83.013C36.2961 84.2156 37.9206 84.8913 39.6146 84.8913C40.5101 84.8921 41.3957 84.7032 42.2136 84.3371C43.0316 83.971 43.7634 83.4358 44.3614 82.7665C43.2019 83.7814 41.7151 84.3396 40.1769 84.3375Z" fill="#F7A50C"/>
<path d="M39.7413 70.2817H39.4883V71.5121H39.7413V70.2817Z" fill="#F7A50C"/>
<path d="M39.7413 85.3367H39.4883V86.567H39.7413V85.3367Z" fill="#F7A50C"/>
<path d="M47.7234 78.2969H46.498V78.5509H47.7234V78.2969Z" fill="#F7A50C"/>
<path d="M32.7303 78.2969H31.5049V78.5509H32.7303V78.2969Z" fill="#F7A50C"/>
<path d="M45.2609 72.5767L44.3945 73.4468L44.5735 73.6264L45.4398 72.7562L45.2609 72.5767Z" fill="#F7A50C"/>
<path d="M34.6626 83.2213L33.7969 84.092L33.9759 84.2715L34.8416 83.4008L34.6626 83.2213Z" fill="#F7A50C"/>
<path d="M44.5677 83.2214L44.3887 83.4009L45.2547 84.2713L45.4337 84.0918L44.5677 83.2214Z" fill="#F7A50C"/>
<path d="M33.9749 72.5763L33.7959 72.7559L34.6621 73.6261L34.841 73.4466L33.9749 72.5763Z" fill="#F7A50C"/>
<path d="M42.5921 70.8357L42.127 71.9739L42.361 72.0703L42.8262 70.9321L42.5921 70.8357Z" fill="#F7A50C"/>
<path d="M36.9015 84.7628L36.4355 85.9006L36.6695 85.9972L37.1355 84.8593L36.9015 84.7628Z" fill="#F7A50C"/>
<path d="M46.0394 80.9269L45.9434 81.1619L47.0769 81.6291L47.173 81.3941L46.0394 80.9269Z" fill="#F7A50C"/>
<path d="M32.1576 75.2147L32.0615 75.4497L33.1951 75.917L33.2912 75.682L32.1576 75.2147Z" fill="#F7A50C"/>
<path d="M47.0561 75.1688L45.9258 75.6438L46.0235 75.8781L47.1538 75.4031L47.0561 75.1688Z" fill="#F7A50C"/>
<path d="M33.203 80.9684L32.0723 81.4424L32.1697 81.6768L33.3005 81.2028L33.203 80.9684Z" fill="#F7A50C"/>
<path d="M42.3789 84.749L42.1455 84.8469L42.618 85.9821L42.8514 85.8842L42.3789 84.749Z" fill="#F7A50C"/>
<path d="M36.6016 70.862L36.3682 70.96L36.8406 72.0951L37.0741 71.9972L36.6016 70.862Z" fill="#F7A50C"/>
<path d="M39.3153 73.2095H38.5264V74.2809H39.3153V73.2095Z" fill="#F7A50C"/>
<path d="M41.0575 73.2095H40.2686V74.2809H41.0575V73.2095Z" fill="#F7A50C"/>
<path d="M39.3153 81.6289H38.5264V82.7003H39.3153V81.6289Z" fill="#F7A50C"/>
<path d="M41.0575 81.6289H40.2686V82.7003H41.0575V81.6289Z" fill="#F7A50C"/>
<path d="M39.3152 74.312H38.0898V81.8624H39.3152V74.312Z" fill="#F7A50C"/>
<path d="M39.8404 73.7114H37.5V74.7527H39.8404C40.7708 74.7527 41.519 75.2571 41.519 76.1335C41.519 77.0099 40.7649 77.5143 39.8404 77.5143H38.9304V78.5544H39.8404C41.3811 78.5544 42.6305 77.5914 42.6305 76.1335C42.6305 74.6757 41.3811 73.7114 39.8404 73.7114Z" fill="#F7A50C"/>
<path d="M39.8404 82.3574H37.5V81.3148H39.8404C40.7708 81.3148 41.519 80.8116 41.519 79.9341C41.519 79.0565 40.7649 78.5557 39.8404 78.5557H38.9304V77.512H39.8404C41.3811 77.512 42.6305 78.475 42.6305 79.9341C42.6305 81.3931 41.3811 82.3574 39.8404 82.3574Z" fill="#F7A50C"/>
<g style="mix-blend-mode:soft-light">
<path d="M43.7637 74.1712C45.1449 75.5821 45.6653 77.6406 45.2025 78.0969C44.7397 78.5531 43.2457 77.7803 41.8657 76.3694C40.4856 74.9585 39.7399 73.4441 40.2027 72.989C40.6655 72.534 42.3824 72.7567 43.7637 74.1712Z" fill="#FACEC8"/>
</g>
<path d="M91.0502 61.8404C91.0502 64.1529 90.1353 66.3707 88.5066 68.0059C86.878 69.6411 84.6692 70.5597 82.3659 70.5597C80.0627 70.5597 77.8538 69.6411 76.2252 68.0059C74.5966 66.3707 73.6816 64.1529 73.6816 61.8404C73.6816 59.5279 74.5966 57.3101 76.2252 55.6749C77.8538 54.0397 80.0627 53.1211 82.3659 53.1211C84.6692 53.1211 86.878 54.0397 88.5066 55.6749C90.1353 57.3101 91.0502 59.5279 91.0502 61.8404Z" fill="#FFCD00" stroke="#F7A50C" stroke-width="4.6" stroke-miterlimit="10"/>
<path d="M88.7535 61.8405C88.7535 62.6826 88.5883 63.5165 88.2674 64.2946C87.9464 65.0726 87.4759 65.7795 86.8828 66.375C86.2897 66.9705 85.5856 67.4429 84.8107 67.7651C84.0358 68.0874 83.2053 68.2533 82.3665 68.2533C80.6726 68.2533 79.048 67.5777 77.8502 66.375C76.6524 65.1724 75.9795 63.5413 75.9795 61.8405C75.9795 60.9984 76.1447 60.1646 76.4657 59.3866C76.7867 58.6087 77.2572 57.9018 77.8503 57.3064C78.4434 56.711 79.1475 56.2388 79.9224 55.9167C80.6973 55.5945 81.5278 55.4288 82.3665 55.429C83.2052 55.4288 84.0357 55.5945 84.8106 55.9167C85.5855 56.2388 86.2896 56.711 86.8827 57.3064C87.4759 57.9018 87.9463 58.6087 88.2673 59.3866C88.5883 60.1646 88.7535 60.9984 88.7535 61.8405Z" fill="#FFE06E"/>
<path d="M82.93 67.6996C81.2363 67.6996 79.6119 67.0241 78.4142 65.8217C77.2164 64.6194 76.5433 62.9886 76.543 61.288C76.5412 59.7038 77.1253 58.1753 78.182 56.9988C77.4904 57.5999 76.9356 58.3434 76.5556 59.1788C76.1755 60.0143 75.9791 60.9221 75.9795 61.8406C75.9795 63.5413 76.6524 65.1724 77.8502 66.3751C79.048 67.5777 80.6726 68.2533 82.3665 68.2533C83.2621 68.2544 84.1479 68.0658 84.966 67.6999C85.7842 67.334 86.5163 66.799 87.1145 66.1298C85.9549 67.1443 84.4681 67.702 82.93 67.6996Z" fill="#F7A50C"/>
<path d="M82.4932 53.6436H82.2402V54.8739H82.4932V53.6436Z" fill="#F7A50C"/>
<path d="M82.4932 68.6987H82.2402V69.929H82.4932V68.6987Z" fill="#F7A50C"/>
<path d="M90.4763 61.6599H89.251V61.9139H90.4763V61.6599Z" fill="#F7A50C"/>
<path d="M75.4812 61.6599H74.2559V61.9139H75.4812V61.6599Z" fill="#F7A50C"/>
<path d="M88.0136 55.9383L87.1475 56.8086L87.3264 56.9881L88.1926 56.1179L88.0136 55.9383Z" fill="#F7A50C"/>
<path d="M77.4068 66.5852L76.54 67.4548L76.7189 67.6345L77.5856 66.7648L77.4068 66.5852Z" fill="#F7A50C"/>
<path d="M87.3225 66.5853L87.1436 66.7649L88.0097 67.6352L88.1887 67.4556L87.3225 66.5853Z" fill="#F7A50C"/>
<path d="M76.7247 55.938L76.5459 56.1177L77.4128 56.9872L77.5916 56.8075L76.7247 55.938Z" fill="#F7A50C"/>
<path d="M85.3218 54.2095L84.8564 55.3477L85.0905 55.4441L85.5558 54.306L85.3218 54.2095Z" fill="#F7A50C"/>
<path d="M79.6242 68.1395L79.1592 69.2778L79.3932 69.3742L79.8582 68.2359L79.6242 68.1395Z" fill="#F7A50C"/>
<path d="M89.519 64.9283L89.4229 65.1646L90.5624 65.6321L90.6586 65.3958L89.519 64.9283Z" fill="#F7A50C"/>
<path d="M74.9028 58.5829L74.8066 58.8179L75.94 59.2855L76.0362 59.0506L74.9028 58.5829Z" fill="#F7A50C"/>
<path d="M89.7889 58.5275L88.6582 59.0017L88.7557 59.2361L89.8864 58.7619L89.7889 58.5275Z" fill="#F7A50C"/>
<path d="M75.9643 64.3361L74.834 64.811L74.9317 65.0454L76.062 64.5704L75.9643 64.3361Z" fill="#F7A50C"/>
<path d="M85.1553 68.119L84.9219 68.217L85.3948 69.3521L85.6281 69.254L85.1553 68.119Z" fill="#F7A50C"/>
<path d="M79.3614 54.2275L79.1279 54.3254L79.6004 55.4606L79.8338 55.3627L79.3614 54.2275Z" fill="#F7A50C"/>
<path d="M84.6392 64.2673C84.2788 64.5552 83.8324 64.713 83.3719 64.7151C82.0746 64.7151 81.023 63.3716 81.023 61.714C81.023 60.0563 82.0746 58.7116 83.3719 58.7116C83.8393 58.6995 84.2933 58.8689 84.6392 59.1847L84.8658 57.6486C84.3646 57.379 83.9606 57.1755 83.3719 57.1755C81.2065 57.1755 79.4512 59.2076 79.4512 61.714C79.4512 64.2203 81.2065 66.2524 83.3719 66.2524C83.8683 66.2524 84.4294 66.1982 84.8658 66.0032L84.6392 64.2673Z" fill="#F7A50C"/>
<path d="M83.7595 60.3899H78.8389V61.4059H83.7595V60.3899Z" fill="#F7A50C"/>
<path d="M83.7595 62.021H78.8389V63.037H83.7595V62.021Z" fill="#F7A50C"/>
<g style="mix-blend-mode:soft-light">
<path d="M86.515 57.5296C87.895 58.9405 88.4154 61.0003 87.9538 61.4565C87.4922 61.9128 85.997 61.1387 84.6158 59.7278C83.2346 58.3169 82.49 56.8037 82.9528 56.3475C83.4156 55.8912 85.135 56.1139 86.515 57.5296Z" fill="#FACEC8"/>
</g>
<path d="M99.6755 55.2713C97.3629 56.5853 95.6648 58.7676 94.9545 61.3384C94.2442 63.9093 94.58 66.6581 95.8879 68.9804C97.1962 71.3028 99.3697 73.0082 101.93 73.7216C104.491 74.435 107.229 74.0979 109.542 72.7845C111.855 71.471 113.554 69.2887 114.264 66.7178C114.975 64.1468 114.639 61.3978 113.331 59.0754C112.022 56.7529 109.849 55.0475 107.288 54.3341C104.727 53.6207 101.989 53.9578 99.6755 55.2713Z" fill="#FFCD00" stroke="#F7A50C" stroke-width="5.31" stroke-miterlimit="10"/>
<path d="M100.983 57.5922C99.2829 58.558 98.0342 60.1622 97.5116 62.0521C96.9891 63.9421 97.2355 65.963 98.1967 67.6706C99.1591 69.3783 100.758 70.6323 102.641 71.1569C104.524 71.6816 106.537 71.4339 108.238 70.4683C109.939 69.5018 111.188 67.8967 111.71 66.0058C112.233 64.1148 111.986 62.0931 111.024 60.3851C110.061 58.6781 108.462 57.4249 106.579 56.9011C104.697 56.3774 102.684 56.626 100.983 57.5922Z" fill="#FFE06E"/>
<path d="M98.4306 66.793C99.3932 68.5005 100.992 69.7542 102.875 70.2787C104.758 70.8031 106.771 70.5552 108.472 69.5895C110.058 68.6909 111.255 67.2319 111.829 65.4965C111.62 66.5359 111.191 67.518 110.57 68.3759C109.95 69.2338 109.152 69.9475 108.232 70.4683C106.532 71.432 104.52 71.6786 102.638 71.154C100.757 70.6295 99.1592 69.3766 98.1968 67.6706C97.6868 66.7682 97.3723 65.7678 97.2737 64.735C97.1752 63.7021 97.2948 62.66 97.6249 61.6768C97.2675 63.4239 97.5538 65.2418 98.4306 66.793Z" fill="#F7A50C"/>
<path d="M112.739 59.2477L111.509 59.9485L111.653 60.204L112.884 59.5032L112.739 59.2477Z" fill="#F7A50C"/>
<path d="M97.6645 67.8002L96.4326 68.4963L96.5755 68.7513L97.8074 68.0552L97.6645 67.8002Z" fill="#F7A50C"/>
<path d="M100.17 55.7511L99.916 55.895L100.611 57.1308L100.865 56.9869L100.17 55.7511Z" fill="#F7A50C"/>
<path d="M108.687 70.8688L108.434 71.0125L109.128 72.2487L109.382 72.105L108.687 70.8688Z" fill="#F7A50C"/>
<path d="M106.646 56.2765L106.927 56.3547L107.304 54.9872L107.024 54.9089L106.646 56.2765Z" fill="#F7A50C"/>
<path d="M102.401 71.6428L102.025 73.011L102.306 73.0888L102.682 71.7207L102.401 71.6428Z" fill="#F7A50C"/>
<path d="M96.9702 62.009L97.0482 61.7286L95.6861 61.3481L95.6094 61.631L96.9702 62.009Z" fill="#F7A50C"/>
<path d="M113.639 66.6533L113.719 66.3716L112.356 65.9912L112.277 66.2741L113.639 66.6533Z" fill="#F7A50C"/>
<path d="M109.46 57.6416L109.689 57.8234L110.563 56.7086L110.335 56.5269L109.46 57.6416Z" fill="#F7A50C"/>
<path d="M98.7637 71.293L98.9927 71.4747L99.8655 70.3588L99.6377 70.1782L98.7637 71.293Z" fill="#F7A50C"/>
<path d="M98.3292 59.1849L98.5103 58.9538L97.3988 58.0774L97.2178 58.3061L98.3292 59.1849Z" fill="#F7A50C"/>
<path d="M111.927 69.9242L112.108 69.6942L110.995 68.8167L110.815 69.0466L111.927 69.9242Z" fill="#F7A50C"/>
<path d="M103.577 56.0982L103.866 56.0645L103.699 54.6548L103.409 54.6909L103.577 56.0982Z" fill="#F7A50C"/>
<path d="M105.628 73.3455L105.917 73.3118L105.75 71.9021L105.46 71.937L105.628 73.3455Z" fill="#F7A50C"/>
<path d="M96.7696 64.8069L95.3672 64.9756L95.4018 65.266L96.8042 65.0974L96.7696 64.8069Z" fill="#F7A50C"/>
<path d="M113.941 62.7423L112.538 62.9133L112.573 63.2037L113.977 63.0327L113.941 62.7423Z" fill="#F7A50C"/>
<path d="M100.892 63.1188C100.808 63.6462 100.904 64.1866 101.164 64.6525C101.9 65.9587 103.841 66.2548 105.499 65.3134C107.158 64.372 107.904 62.5446 107.168 61.2421C106.848 60.6739 106.487 60.4331 105.969 60.2309L107.377 59.1282C107.931 59.4809 108.365 59.7746 108.696 60.3681C109.925 62.5506 108.89 65.4747 106.383 66.8989C103.876 68.323 100.846 67.7066 99.6171 65.5241C99.3353 65.0233 99.0691 64.4262 99.0176 63.8761L100.892 63.1188Z" fill="#F7A50C"/>
<path d="M104.253 62.3798L107.047 67.3408L108.065 66.763L105.268 61.802L104.253 62.3798Z" fill="#F7A50C"/>
<path d="M103.627 62.7278L102.611 63.3044L105.406 68.2661L106.422 67.6894L103.627 62.7278Z" fill="#F7A50C"/>
<g style="mix-blend-mode:soft-light">
<path d="M106.565 57.4009C104.37 56.8098 102.009 57.4538 101.82 58.1785C101.63 58.9032 103.25 59.9722 105.445 60.5621C107.641 61.152 109.577 61.0436 109.77 60.3213C109.963 59.599 108.761 57.9907 106.565 57.4009Z" fill="#FACEC8"/>
</g>
<path d="M136.571 34.5516L113.92 47.377L142.823 98.8372L165.475 86.0119L136.571 34.5516Z" fill="#5AB88B"/>
<path d="M121.603 47.379L132.596 41.1541C132.818 41.5494 133.115 41.8971 133.471 42.177C133.827 42.457 134.234 42.6639 134.669 42.7859C135.105 42.9078 135.56 42.9425 136.009 42.8878C136.457 42.8332 136.891 42.6903 137.285 42.4674L159.1 81.3064C158.707 81.5291 158.36 81.8275 158.081 82.1846C157.802 82.5417 157.596 82.9506 157.475 83.3877C157.353 83.8249 157.319 84.2817 157.373 84.7323C157.428 85.1828 157.57 85.6181 157.792 86.0134L146.8 92.2383C146.578 91.843 146.281 91.4953 145.925 91.2154C145.569 90.9354 145.162 90.7285 144.726 90.6065C144.291 90.4846 143.836 90.4499 143.387 90.5046C142.938 90.5592 142.504 90.7021 142.111 90.925L120.289 52.086C120.683 51.8638 121.03 51.5658 121.31 51.2089C121.589 50.852 121.796 50.4433 121.918 50.0061C122.04 49.5689 122.075 49.1118 122.021 48.6611C121.967 48.2103 121.825 47.7746 121.603 47.379Z" fill="#339364"/>
<path d="M134.156 56.8362C132.866 57.5667 131.731 58.5453 130.817 59.7161C129.904 60.8869 129.228 62.2269 128.831 63.6597C128.433 65.0925 128.32 66.59 128.498 68.0666C128.677 69.5432 129.143 70.97 129.871 72.2656C130.599 73.5613 131.573 74.7004 132.739 75.6179C133.905 76.5353 135.24 77.2132 136.667 77.6127C138.094 78.0123 139.586 78.1256 141.056 77.9464C142.527 77.7672 143.948 77.2988 145.238 76.5681C147.844 75.0925 149.76 72.638 150.564 69.7445C151.368 66.8511 150.994 63.7555 149.525 61.1386C148.797 59.8429 147.822 58.7038 146.656 57.7863C145.49 56.8688 144.155 56.191 142.728 55.7914C141.301 55.3919 139.809 55.2785 138.339 55.4578C136.868 55.637 135.447 56.1054 134.156 56.8362Z" fill="white"/>
<path d="M130.94 71.0015L132.259 70.1902C131.578 69.1236 131.846 66.049 131.846 66.049L134.437 66.2452C134.437 66.2452 134.365 68.3591 134.825 69.2464C135.286 70.1336 136.363 70.6729 137.133 70.3382C138.004 69.9602 138.556 69.1862 138.505 67.1192C138.434 64.3239 138.385 62.1053 140.267 60.9436C142.066 59.8361 144.216 60.2779 145.764 62.0788L147.184 61.2024L148.009 62.5519L146.675 63.3741C147.442 64.992 147.11 66.7605 147.11 66.7605L144.646 66.7424C144.646 66.7424 144.857 65.6204 144.565 64.5888C144.26 63.5162 142.929 63.0587 142.309 63.3765C141.76 63.6606 140.999 64.3456 141.376 66.7183C141.836 69.5208 140.874 71.4999 138.946 72.6893C137.234 73.7426 134.899 73.532 133.161 71.5204L131.781 72.3715L130.94 71.0015Z" fill="#5AB88B"/>
<g style="mix-blend-mode:multiply">
<path d="M113.92 47.3777L142.823 98.8376L165.474 86.0132L113.92 47.3777Z" fill="#CDE0EB"/>
</g>
<path d="M114.003 57.5819L101.807 80.6418L153.775 108.35L165.972 85.2904L114.003 57.5819Z" fill="#5AB88B"/>
<path d="M108.268 76.4922L114.188 65.2966C114.587 65.5096 115.024 65.6415 115.474 65.6848C115.924 65.7281 116.378 65.682 116.81 65.5491C117.242 65.4161 117.644 65.199 117.993 64.9101C118.341 64.6212 118.63 64.2661 118.841 63.8652L158.064 84.7829C157.851 85.1838 157.719 85.6229 157.676 86.075C157.632 86.5272 157.678 86.9835 157.81 87.4179C157.943 87.8523 158.159 88.2562 158.447 88.6066C158.735 88.957 159.089 89.2469 159.488 89.4597L153.569 100.655C153.17 100.443 152.733 100.311 152.283 100.267C151.833 100.224 151.379 100.27 150.947 100.403C150.515 100.536 150.113 100.753 149.765 101.042C149.416 101.331 149.128 101.686 148.916 102.087L109.693 81.1702C109.906 80.7692 110.038 80.3299 110.082 79.8776C110.125 79.4253 110.079 78.9688 109.947 78.5342C109.815 78.0997 109.598 77.6956 109.31 77.3452C109.022 76.9948 108.668 76.7049 108.268 76.4922Z" fill="#339364"/>
<path d="M123.916 77.6625C123.221 78.9764 122.791 80.4148 122.65 81.8957C122.509 83.3766 122.66 84.8709 123.094 86.2932C123.528 87.7155 124.237 89.038 125.181 90.1851C126.124 91.3322 127.283 92.2815 128.592 92.9787C129.901 93.6762 131.333 94.1081 132.808 94.2497C134.283 94.3912 135.771 94.2397 137.188 93.8037C138.605 93.3677 139.922 92.6559 141.064 91.7088C142.207 90.7617 143.152 89.5978 143.847 88.2838C144.542 86.9698 144.972 85.5312 145.113 84.0503C145.254 82.5694 145.103 81.075 144.669 79.6527C144.234 78.2303 143.525 76.9077 142.582 75.7605C141.639 74.6132 140.48 73.6638 139.171 72.9663C137.862 72.2689 136.429 71.8371 134.954 71.6956C133.479 71.5542 131.991 71.7058 130.575 72.1419C129.158 72.578 127.841 73.29 126.698 74.2372C125.556 75.1844 124.61 76.3483 123.916 77.6625Z" fill="white"/>
<path d="M128.239 91.0164L129.004 89.6705C127.895 89.0686 126.655 86.2408 126.655 86.2408L129.022 85.1574C129.022 85.1574 129.972 87.045 130.8 87.6012C131.629 88.1573 132.838 88.108 133.347 87.4422C133.928 86.6899 134.042 85.7449 133.005 83.9584C131.604 81.5423 130.494 79.6246 131.59 77.6985C132.636 75.8578 134.732 75.2066 136.952 76.0372L137.778 74.5818L139.148 75.3667L138.372 76.7318C139.82 77.7779 140.378 79.4898 140.378 79.4898L138.209 80.6647C138.209 80.6647 137.856 79.5813 137.103 78.8168C136.324 78.0235 134.937 78.2667 134.547 78.8433C134.202 79.3586 133.862 80.3264 135.33 82.2249C137.076 84.458 137.182 86.6586 136.063 88.6316C135.067 90.382 132.921 91.3282 130.427 90.4024L129.625 91.8157L128.239 91.0164Z" fill="#5AB88B"/>
</g>
<defs>
<clipPath id="clip0_164_333">
<rect width="165.762" height="142.081" fill="white" transform="translate(0.199219 0.211914)"/>
</clipPath>
</defs>
</svg>
