<svg width="142" height="21" viewBox="0 0 142 21" fill="none" xmlns="http://www.w3.org/2000/svg">
<g clip-path="url(#clip0_488_216)">
<path d="M28.8757 17.6876V20.5001H22.3236V15.9688L15.8219 15.1876C15.3179 15.1355 14.8643 14.9793 14.4107 14.7709L0.5 8.15638L0.953608 7.53138C1.05441 7.37513 1.20561 7.21888 1.40722 7.1668C1.96163 6.90638 2.61684 6.8543 3.22165 7.06263L7.10252 8.26055L11.437 9.45846L12.949 9.82305C12.8482 10.6043 13.3018 11.2813 14.0578 11.4376L19.5011 12.6355L19.6523 11.8022L18.3923 11.5418L14.8139 10.7084C14.1586 10.5522 13.705 9.87513 13.8058 9.19804L13.8562 8.83346C13.9066 8.46888 14.2091 8.20846 14.5619 8.26055L15.9731 8.31263C18.3419 8.4168 20.6604 8.83346 22.9284 9.51055C23.4324 9.61471 23.9364 9.87513 24.4404 10.1876C26.5069 11.4897 27.9685 13.573 28.6237 15.9168C28.7749 16.5418 28.8757 17.1147 28.8757 17.6876Z" fill="#39D192"/>
<path d="M22.7771 1.125C20.6099 0.708334 17.7371 0.5 14.713 0.5C11.6889 0.5 8.81607 0.708333 6.64883 1.07292C4.02798 1.54167 2.81836 2.11458 2.81836 3.05208C2.81836 3.98958 3.97758 4.66667 6.64883 5.13541C8.81607 5.55208 11.6889 5.76042 14.713 5.76042C17.7371 5.76042 20.6099 5.55208 22.7771 5.1875C25.4484 4.71875 26.6076 4.09375 26.6076 3.10417C26.5572 2.16667 25.398 1.64583 22.7771 1.125ZM22.0715 4.04167C20.0555 4.35417 17.3842 4.5625 14.6626 4.5625C11.9409 4.5625 9.32008 4.35417 7.25364 4.04167C5.1872 3.72917 4.38079 3.3125 4.12879 3.15625C4.43119 2.94792 5.1872 2.375 7.25364 2.0625C9.72329 1.69792 12.193 1.48958 14.6626 1.48958C17.1322 1.48958 19.6019 1.69792 22.0715 2.01042C24.3396 2.32292 24.9444 3 25.1964 3.20833C24.9444 3.3125 24.138 3.67708 22.0715 4.04167Z" fill="#39D192"/>
<path d="M48.875 19.4154V3.44775H58.76V5.91256H51.71V9.98484H57.965V12.4496H51.71V19.4154H48.875Z" fill="#39D192"/>
<path d="M71.6021 13.3832C71.6171 14.2711 71.4821 15.1438 71.1971 15.9858C70.9571 16.7206 70.5521 17.4096 70.0421 17.9913C69.5321 18.5425 68.9321 18.9864 68.2421 19.2773C67.5071 19.5835 66.7271 19.7519 65.9321 19.7366C65.1371 19.7519 64.3571 19.5988 63.6221 19.2773C62.9471 18.9864 62.3321 18.5425 61.8371 17.9913C61.3271 17.4096 60.9221 16.7206 60.6671 15.9858C60.3821 15.1438 60.2321 14.2711 60.2471 13.3832C60.2321 12.4953 60.3821 11.6226 60.6671 10.7806C60.9221 10.0458 61.3271 9.37215 61.8371 8.7904C62.3471 8.23926 62.9471 7.79529 63.6371 7.51972C64.3571 7.21354 65.1371 7.06044 65.9171 7.07575C66.6971 7.06044 67.4771 7.21354 68.2121 7.51972C68.9021 7.8106 69.5171 8.23926 70.0121 8.7904C70.5221 9.37215 70.9121 10.0458 71.1821 10.7806C71.4671 11.6226 71.6171 12.4953 71.6021 13.3832ZM68.7971 13.3832C68.7971 12.1891 68.5421 11.2399 68.0471 10.5357C67.5521 9.83143 66.8471 9.47932 65.9321 9.49463C65.0321 9.49463 64.3271 9.84674 63.8171 10.5357C63.3071 11.2246 63.0521 12.1891 63.0521 13.3832C63.0521 14.5926 63.3071 15.5571 63.8021 16.2614C64.3121 16.9656 65.0171 17.3177 65.9171 17.3177C66.8171 17.3177 67.5221 16.9656 68.0321 16.2614C68.5421 15.5571 68.7971 14.5926 68.7971 13.3832Z" fill="#39D192"/>
<path d="M85.1002 13.3834C85.1152 14.2713 84.9802 15.1439 84.6952 15.986C84.4552 16.7208 84.0502 17.4097 83.5402 17.9915C83.0302 18.5426 82.4302 18.9866 81.7402 19.2775C81.0052 19.5837 80.2252 19.7521 79.4302 19.7368C78.6352 19.7521 77.8552 19.599 77.1202 19.2775C76.4452 18.9866 75.8302 18.5426 75.3352 17.9915C74.8252 17.4097 74.4202 16.7208 74.1652 15.986C73.8802 15.1439 73.7302 14.2713 73.7452 13.3834C73.7302 12.4954 73.8802 11.6228 74.1652 10.7808C74.4202 10.0459 74.8252 9.37233 75.3352 8.79057C75.8452 8.23944 76.4602 7.79546 77.1352 7.5199C77.8552 7.21371 78.6352 7.06062 79.4152 7.06062C80.1952 7.04531 80.9752 7.1984 81.7102 7.50459C82.4002 7.79546 83.0152 8.22413 83.5102 8.79057C84.0202 9.37233 84.4102 10.0459 84.6802 10.7808C84.9802 11.6228 85.1152 12.4954 85.1002 13.3834ZM82.2952 13.3834C82.2952 12.1892 82.0402 11.2401 81.5452 10.5358C81.0352 9.83161 80.3302 9.47949 79.4302 9.47949C78.5302 9.47949 77.8252 9.83161 77.3152 10.5205C76.8052 11.2094 76.5502 12.1739 76.5652 13.3681C76.5652 14.5775 76.8202 15.542 77.3152 16.2462C77.8102 16.9505 78.5152 17.3026 79.4302 17.3026C80.3302 17.3026 81.0352 16.9505 81.5452 16.2462C82.0552 15.5573 82.2952 14.5928 82.2952 13.3834Z" fill="#39D192"/>
<path d="M97.9097 19.0475C97.2347 19.2465 96.5597 19.3996 95.8697 19.5068C95.0147 19.6446 94.1447 19.7211 93.2747 19.7211C92.4197 19.7364 91.5647 19.5834 90.7697 19.2772C90.0647 19.0016 89.4197 18.5729 88.8797 18.0218C88.3397 17.4554 87.9347 16.7817 87.6797 16.0316C87.3947 15.1896 87.2597 14.3169 87.2747 13.429C87.2597 12.5564 87.3797 11.6837 87.6197 10.8417C87.8297 10.1222 88.1747 9.43331 88.6397 8.85155C89.0897 8.30041 89.6447 7.87175 90.2897 7.58088C90.9947 7.27469 91.7447 7.1216 92.5097 7.1216C93.0197 7.10629 93.5297 7.18283 94.0247 7.33593C94.4147 7.4584 94.7897 7.61149 95.1497 7.79521V1.99297L97.8797 1.53369L97.9097 19.0475ZM90.0647 13.3525C90.0647 14.5772 90.3497 15.5417 90.9197 16.2459C91.4897 16.9501 92.2847 17.3023 93.2897 17.287C93.6647 17.287 94.0397 17.2716 94.4147 17.2257C94.6697 17.1951 94.9097 17.1492 95.1647 17.1032V10.1988C94.8647 9.99975 94.5497 9.84666 94.2047 9.72418C93.7997 9.57109 93.3647 9.50985 92.9297 9.50985C91.9397 9.50985 91.2047 9.86197 90.7547 10.5508C90.3047 11.2398 90.0647 12.1736 90.0647 13.3525Z" fill="#39D192"/>
<path d="M100.732 13.4444C100.717 12.4952 100.866 11.546 101.196 10.6581C101.466 9.92322 101.886 9.2343 102.426 8.66785C102.921 8.14734 103.521 7.73398 104.196 7.47373C104.841 7.21347 105.531 7.07568 106.221 7.07568C107.841 7.07568 109.117 7.5962 110.032 8.62193C110.947 9.64765 111.397 11.1939 111.397 13.23C111.397 13.3831 111.397 13.5515 111.382 13.7506C111.367 13.9496 111.367 14.118 111.352 14.2711H103.551C103.626 15.2356 103.957 15.9857 104.557 16.5215C105.157 17.0574 106.012 17.3176 107.137 17.3176C107.752 17.3176 108.352 17.2564 108.952 17.1339C109.402 17.0421 109.837 16.9196 110.257 16.7359L110.616 19.017C110.421 19.1088 110.212 19.2007 110.002 19.2619C109.702 19.3538 109.402 19.4303 109.102 19.4916C108.757 19.5681 108.397 19.614 108.007 19.66C107.602 19.7059 107.212 19.7365 106.807 19.7212C105.877 19.7365 104.961 19.5834 104.091 19.2466C103.371 18.971 102.712 18.5118 102.187 17.93C101.677 17.3636 101.301 16.6746 101.076 15.9551C100.836 15.1437 100.717 14.3017 100.732 13.4444ZM108.652 12.2043C108.652 11.8369 108.607 11.4695 108.502 11.102C108.412 10.7805 108.247 10.4744 108.037 10.1988C107.827 9.93853 107.572 9.73951 107.287 9.60172C106.957 9.44863 106.597 9.37208 106.237 9.38739C105.862 9.37208 105.471 9.46394 105.126 9.63234C104.826 9.78544 104.542 9.99977 104.332 10.26C104.107 10.5203 103.941 10.8265 103.821 11.1633C103.701 11.5001 103.611 11.8522 103.566 12.2043H108.652Z" fill="#39D192"/>
<path d="M118.22 7.06085C119 7.04554 119.765 7.16801 120.5 7.41296C121.07 7.61199 121.565 7.93348 121.985 8.37745C122.36 8.80611 122.63 9.32663 122.78 9.89308C122.945 10.5361 123.02 11.1791 123.02 11.8374V19.1399C122.6 19.2318 121.97 19.3389 121.115 19.4767C120.155 19.6145 119.195 19.6758 118.235 19.6758C117.575 19.6758 116.93 19.6145 116.285 19.4614C115.745 19.3389 115.235 19.1246 114.785 18.7878C114.365 18.4816 114.035 18.0683 113.81 17.5937C113.555 17.0272 113.435 16.3995 113.465 15.7719C113.45 15.1595 113.585 14.5624 113.855 14.0266C114.11 13.552 114.485 13.154 114.935 12.8631C115.415 12.5569 115.955 12.3273 116.51 12.2201C117.125 12.0823 117.74 12.0211 118.37 12.0211C118.685 12.0211 119 12.0364 119.315 12.0823C119.675 12.1282 120.02 12.1895 120.38 12.2813V11.8221C120.38 11.5159 120.35 11.2097 120.26 10.9035C120.11 10.3064 119.69 9.81653 119.12 9.61751C118.745 9.47973 118.355 9.41849 117.95 9.4338C117.365 9.4338 116.78 9.47973 116.21 9.57158C115.775 9.64813 115.34 9.75529 114.92 9.89308L114.575 7.61199C115.07 7.45889 115.58 7.33642 116.09 7.24456C116.795 7.12209 117.5 7.06085 118.22 7.06085ZM118.445 17.4559C119.09 17.4712 119.735 17.4253 120.365 17.3181V14.2256C120.155 14.1644 119.93 14.1185 119.705 14.0878C119.39 14.0419 119.075 14.0113 118.76 14.0266C118.46 14.0266 118.145 14.0572 117.845 14.0878C117.56 14.1338 117.275 14.2103 117.005 14.3481C116.765 14.4706 116.555 14.639 116.405 14.8686C116.24 15.1136 116.165 15.4198 116.18 15.7106C116.18 16.3689 116.39 16.8282 116.795 17.0885C117.2 17.3334 117.74 17.4712 118.445 17.4559Z" fill="#39D192"/>
<path d="M130.46 19.6446C129.77 19.6446 129.095 19.5527 128.435 19.369C127.955 19.2312 127.52 18.9863 127.16 18.6495C126.845 18.328 126.605 17.9146 126.5 17.4707C126.365 16.9501 126.305 16.4143 126.305 15.8632V1.99297L129.035 1.53369V15.3427C129.035 15.6335 129.05 15.9091 129.11 16.2C129.155 16.4143 129.26 16.6133 129.395 16.7817C129.545 16.9501 129.74 17.0726 129.95 17.1492C130.235 17.241 130.535 17.3176 130.835 17.3482L130.46 19.6446Z" fill="#39D192"/>
<path d="M136.012 17.41C136.732 17.41 137.257 17.3182 137.587 17.1498C137.917 16.9813 138.082 16.6752 138.082 16.2312C138.082 15.8331 137.887 15.4504 137.557 15.2361C137.197 14.9758 136.612 14.6849 135.802 14.3788C135.337 14.2104 134.887 14.0113 134.437 13.797C134.047 13.6133 133.687 13.3683 133.357 13.0622C133.057 12.7866 132.817 12.4345 132.652 12.0517C132.472 11.5925 132.382 11.1026 132.397 10.6127C132.397 9.51039 132.802 8.63776 133.597 7.99476C134.392 7.35177 135.487 7.04558 136.852 7.03027C137.512 7.03027 138.187 7.10682 138.832 7.2293C139.312 7.32115 139.792 7.44363 140.257 7.61203L139.762 9.8625C139.387 9.6941 138.997 9.57162 138.607 9.47977C138.067 9.35729 137.527 9.29606 136.987 9.31137C136.522 9.29606 136.057 9.38791 135.637 9.60224C135.307 9.77065 135.097 10.1228 135.112 10.4902C135.112 10.6739 135.142 10.8576 135.217 11.026C135.292 11.1944 135.412 11.3475 135.562 11.4547C135.772 11.6078 135.982 11.7456 136.222 11.8527C136.552 12.0058 136.882 12.1436 137.212 12.2508C137.782 12.4651 138.322 12.6947 138.862 12.9703C139.267 13.1846 139.657 13.4449 139.987 13.7817C140.272 14.0726 140.497 14.4247 140.632 14.8074C140.782 15.2514 140.842 15.7107 140.827 16.1853C140.827 17.3335 140.407 18.2061 139.567 18.8032C138.727 19.4002 137.542 19.6911 135.982 19.6911C135.142 19.7217 134.287 19.6299 133.462 19.4308C133.012 19.3084 132.562 19.1706 132.127 19.0022L132.607 16.6752C133.087 16.8742 133.567 17.0273 134.062 17.1651C134.707 17.3488 135.367 17.4253 136.012 17.41Z" fill="#39D192"/>
</g>
<defs>
<clipPath id="clip0_488_216">
<rect width="141" height="20" fill="white" transform="translate(0.5 0.5)"/>
</clipPath>
</defs>
</svg>
