<svg width="113" height="112" viewBox="0 0 113 112" fill="none" xmlns="http://www.w3.org/2000/svg">
<rect x="0.5" width="112" height="112" rx="24" fill="#39D192" fill-opacity="0.2"/>
<path d="M44.1 39.4V33.2C44.1 31.495 44.7076 30.0349 45.9228 28.8197C47.1359 27.6066 48.595 27 50.3 27H62.7C64.405 27 65.8651 27.6066 67.0803 28.8197C68.2934 30.0349 68.9 31.495 68.9 33.2V39.4H81.3C83.005 39.4 84.4651 40.0076 85.6803 41.2228C86.8934 42.4359 87.5 43.895 87.5 45.6V79.7C87.5 81.405 86.8934 82.8651 85.6803 84.0803C84.4651 85.2934 83.005 85.9 81.3 85.9H31.7C29.995 85.9 28.5359 85.2934 27.3228 84.0803C26.1076 82.8651 25.5 81.405 25.5 79.7V45.6C25.5 43.895 26.1076 42.4359 27.3228 41.2228C28.5359 40.0076 29.995 39.4 31.7 39.4H44.1ZM50.3 39.4H62.7V33.2H50.3V39.4ZM81.3 67.3H65.8V70.4C65.8 71.2783 65.5034 72.0141 64.9103 72.6072C64.3151 73.2024 63.5783 73.5 62.7 73.5H50.3C49.4217 73.5 48.6859 73.2024 48.0928 72.6072C47.4976 72.0141 47.2 71.2783 47.2 70.4V67.3H31.7V79.7H81.3V67.3ZM53.4 67.3H59.6V61.1H53.4V67.3ZM31.7 61.1H47.2V58C47.2 57.1217 47.4976 56.3849 48.0928 55.7897C48.6859 55.1966 49.4217 54.9 50.3 54.9H62.7C63.5783 54.9 64.3151 55.1966 64.9103 55.7897C65.5034 56.3849 65.8 57.1217 65.8 58V61.1H81.3V45.6H31.7V61.1Z" fill="#4CD79D"/>
</svg>
