<svg width="113" height="112" viewBox="0 0 113 112" fill="none" xmlns="http://www.w3.org/2000/svg">
<path fill-rule="evenodd" clip-rule="evenodd" d="M64.4345 57.1513C63.9594 55.8079 63.0795 54.6449 61.916 53.8222C60.7525 52.9996 59.3626 52.5578 57.9377 52.5578V50.8354H54.493V52.5578C52.6658 52.5578 50.9134 53.2837 49.6214 54.5757C48.3294 55.8677 47.6035 57.6201 47.6035 59.4473C47.6035 61.2745 48.3294 63.0268 49.6214 64.3188C50.9134 65.6109 52.6658 66.3367 54.493 66.3367V73.2262C52.9945 73.2262 51.7182 72.2703 51.2429 70.9303C51.1723 70.711 51.0586 70.5082 50.9083 70.3337C50.758 70.1592 50.5742 70.0166 50.3678 69.9144C50.1615 69.8122 49.9367 69.7524 49.7068 69.7385C49.477 69.7247 49.2466 69.757 49.0295 69.8338C48.8123 69.9105 48.6128 70.03 48.4426 70.1852C48.2725 70.3403 48.1352 70.5281 48.0388 70.7373C47.9425 70.9464 47.8891 71.1728 47.8818 71.403C47.8745 71.6332 47.9134 71.8625 47.9962 72.0774C48.4713 73.4208 49.3512 74.5839 50.5147 75.4065C51.6781 76.2292 53.068 76.6709 54.493 76.6709V78.3933H57.9377V76.6709C59.7649 76.6709 61.5173 75.9451 62.8093 74.653C64.1013 73.361 64.8272 71.6087 64.8272 69.7815C64.8272 67.9543 64.1013 66.2019 62.8093 64.9099C61.5173 63.6178 59.7649 62.892 57.9377 62.892V56.0025C58.6501 56.0024 59.345 56.223 59.9268 56.6342C60.5085 57.0454 60.9485 57.6268 61.1861 58.2984C61.3382 58.7292 61.6552 59.0819 62.0674 59.2789C62.2714 59.3765 62.4927 59.4329 62.7186 59.4449C62.9445 59.457 63.1705 59.4244 63.3838 59.3491C63.5971 59.2738 63.7935 59.1572 63.9617 59.006C64.13 58.8548 64.2668 58.6719 64.3643 58.4678C64.4619 58.2637 64.5183 58.0424 64.5303 57.8166C64.5424 57.5907 64.5098 57.3646 64.4345 57.1513ZM54.493 56.0025C53.5794 56.0025 52.7032 56.3655 52.0572 57.0115C51.4112 57.6575 51.0482 58.5337 51.0482 59.4473C51.0482 60.3609 51.4112 61.237 52.0572 61.8831C52.7032 62.5291 53.5794 62.892 54.493 62.892V56.0025ZM57.9377 73.2262C58.8513 73.2262 59.7275 72.8633 60.3735 72.2173C61.0195 71.5712 61.3824 70.6951 61.3824 69.7815C61.3824 68.8679 61.0195 67.9917 60.3735 67.3457C59.7275 66.6997 58.8513 66.3367 57.9377 66.3367V73.2262Z" fill="#4CD79D"/>
<rect x="0.5" width="112" height="112" rx="24" fill="#39D192" fill-opacity="0.2"/>
<path fill-rule="evenodd" clip-rule="evenodd" d="M37.5325 29.5143C41.7592 27.4458 48.6935 25 56.2822 25C63.7125 25 70.4642 27.3441 74.6685 29.3851L74.9061 29.5005C76.1738 30.1275 77.1969 30.72 77.9168 31.2005L71.5544 40.5013C86.2221 55.4962 97.5518 87 56.2822 87C15.0126 87 26.0375 56.068 40.8326 40.5013L34.5115 31.2005C34.9989 30.8819 35.6173 30.5116 36.3544 30.1189C36.7196 29.9225 37.1123 29.721 37.5325 29.516V29.5143ZM67.4655 40.3773L72.5586 32.9315C67.8221 33.2725 62.1865 34.3852 56.761 35.956C52.8857 37.0755 48.5798 36.905 44.5925 36.1695C43.5877 35.9833 42.5899 35.7615 41.6008 35.5047L44.9077 40.3738C51.9952 42.8971 60.3763 42.8971 67.4655 40.3773ZM42.9184 43.3087C51.2116 46.5123 61.1789 46.5123 69.4721 43.3053C72.9338 46.9545 75.8296 51.1014 78.0632 55.6082C80.3919 60.3584 81.6595 65.107 81.4529 69.1993C81.2531 73.1487 79.6995 76.5228 76.1514 79.0306C72.4535 81.6434 66.234 83.5553 56.2805 83.5553C46.3166 83.5553 40.0679 81.6762 36.3355 79.0926C32.7616 76.6158 31.1925 73.2882 30.9703 69.3923C30.7378 65.3447 31.9779 60.6202 34.2979 55.8372C36.5112 51.2764 39.5994 46.8861 42.9184 43.3087ZM40.9376 31.7448C42.3155 32.1547 43.7554 32.5112 45.216 32.7816C48.9191 33.4637 52.6325 33.5636 55.8017 32.6456C59.4948 31.5697 63.251 30.7235 67.0487 30.112C63.8796 29.1578 60.173 28.4447 56.2805 28.4447C50.3469 28.4447 44.813 30.0999 40.9376 31.7448Z" fill="#4CD79D"/>
</svg>
