<svg width="489" height="491" viewBox="0 0 489 491" fill="none" xmlns="http://www.w3.org/2000/svg">
<path d="M256.625 114.715C256.597 114.641 257.806 114.437 259.746 113.287C261.609 112.142 264.306 109.709 265.278 105.492C265.512 104.451 265.593 103.324 265.55 102.146C265.465 100.962 265.189 99.7671 264.831 98.4915C264.155 95.9481 263.421 93.1868 262.634 90.2221C261.062 84.279 259.275 77.5209 257.3 70.0548C255.331 62.5768 253.175 54.3909 250.862 45.6049C250.285 43.4072 249.697 41.1722 249.1 38.9018C248.589 36.6383 247.546 34.5319 245.897 32.8566C244.265 31.1961 242.115 29.9813 239.766 29.5286C237.383 28.9767 235.012 29.4501 232.551 30.1826C212.896 35.3862 191.293 41.1044 168.617 47.1074C165.886 47.836 163.462 49.5594 161.891 51.876C160.292 54.1788 159.591 57.0521 159.89 59.7958C160.02 61.1539 160.457 62.5209 160.805 63.9104C161.163 65.2891 161.521 66.6629 161.877 68.0319C162.591 70.7687 163.297 73.4829 163.998 76.1746C166.796 86.9383 169.496 97.321 172.068 107.214C173.351 112.159 174.602 116.984 175.818 121.67C176.357 124.043 177.143 126.209 178.682 127.932C180.133 129.67 182.09 130.929 184.175 131.573C188.446 133.092 192.69 131.036 196.748 130.152C200.807 129.091 204.703 128.072 208.423 127.1C223.274 123.243 235.306 120.118 243.669 117.947C247.803 116.894 251.028 116.073 253.264 115.505C254.332 115.243 255.162 115.04 255.764 114.893C256.33 114.759 256.625 114.715 256.625 114.715C256.625 114.715 256.346 114.822 255.79 114.986C255.193 115.155 254.37 115.389 253.311 115.689C251.087 116.298 247.876 117.177 243.762 118.302C235.417 120.544 223.411 123.767 208.591 127.747C204.877 128.738 200.986 129.776 196.932 130.857C194.902 131.396 192.832 131.945 190.723 132.504C188.544 133.04 186.171 133.035 183.945 132.322C181.72 131.644 179.63 130.309 178.072 128.459C176.435 126.67 175.545 124.205 175.019 121.881C173.79 117.198 172.526 112.378 171.229 107.435C168.641 97.5468 165.924 87.1691 163.107 76.4093C162.403 73.7186 161.695 71.0053 160.979 68.2695C160.621 66.9016 160.263 65.5278 159.902 64.148C159.561 62.7762 159.111 61.4004 158.96 59.893C158.636 56.9294 159.393 53.8272 161.116 51.3428C162.81 48.8416 165.432 46.9768 168.378 46.1922C191.061 40.2157 212.669 34.5211 232.331 29.3401C234.706 28.6281 237.434 28.0812 239.933 28.6929C242.45 29.1859 244.746 30.491 246.486 32.2743C248.24 34.0488 249.367 36.38 249.878 38.6966C250.467 40.9689 251.046 43.2059 251.616 45.4056C253.89 54.2023 256.008 62.3981 257.943 69.8849C259.868 77.3648 261.61 84.1347 263.142 90.0876C263.902 93.0591 264.612 95.8274 265.265 98.3776C265.605 99.6375 265.886 100.905 265.957 102.123C265.987 103.343 265.89 104.506 265.634 105.574C264.576 109.906 261.765 112.342 259.843 113.451C258.852 114.019 258.033 114.33 257.476 114.494C256.916 114.656 256.625 114.715 256.625 114.715Z" fill="#E1E1E1"/>
<path d="M230.915 89.5801C230.918 89.5938 230.715 89.6616 230.322 89.7794C229.895 89.9032 229.321 90.0691 228.6 90.2773C227.057 90.7055 224.885 91.3074 222.201 92.0518C216.73 93.5287 209.18 95.5674 200.684 97.8623L200.508 97.9094L200.437 97.7395C199.976 96.6368 199.487 95.4672 198.992 94.2839C194.794 84.1545 191.047 75.1152 188.598 69.2065L188.755 69.2851C186.322 69.9067 184.379 70.4036 183.005 70.7552C182.361 70.9113 181.852 71.035 181.469 71.1273C181.12 71.2088 180.937 71.2442 180.934 71.2324C180.931 71.2196 181.107 71.1597 181.45 71.0557C181.829 70.9457 182.332 70.7994 182.968 70.6147C184.335 70.2347 186.266 69.6975 188.687 69.0259L188.798 68.9944L188.844 69.1025C191.326 74.9964 195.125 84.0151 199.38 94.1199C199.874 95.3042 200.362 96.4737 200.823 97.5765L200.578 97.4548C209.087 95.2129 216.649 93.2214 222.129 91.7768C224.826 91.0855 227.011 90.5258 228.559 90.1281C229.29 89.9493 229.869 89.8079 230.303 89.7028C230.701 89.6096 230.911 89.5673 230.915 89.5801Z" fill="#E1E1E1"/>
<path d="M198.09 91.5806C198.09 91.5747 198.138 91.5551 198.238 91.5227C198.357 91.4864 198.502 91.4412 198.68 91.3872C199.101 91.2664 199.675 91.1014 200.404 90.8922C201.942 90.467 204.132 89.8621 206.87 89.106C212.428 87.6045 220.201 85.504 229.2 83.0726L229.05 83.2857C228.714 79.3243 228.352 75.0408 227.978 70.6071C227.787 68.3259 227.6 66.085 227.421 63.9481L227.682 64.1327C217.216 66.8961 207.978 69.3344 201.323 71.0912C198.027 71.9426 195.372 72.629 193.508 73.1102C192.612 73.3331 191.908 73.5089 191.398 73.6356C191.175 73.6866 190.994 73.7288 190.849 73.7622C190.725 73.7887 190.66 73.7996 190.658 73.7927C190.656 73.7858 190.718 73.7632 190.838 73.7239C190.981 73.6807 191.158 73.6267 191.378 73.5599C191.884 73.4166 192.582 73.2172 193.47 72.9639C195.325 72.4532 197.969 71.7265 201.253 70.8231C207.899 69.0319 217.124 66.5455 227.574 63.7282L227.815 63.6643L227.836 63.9138C228.016 66.0496 228.204 68.2905 228.396 70.5707C228.765 75.0054 229.122 79.2889 229.452 83.2513L229.466 83.4212L229.302 83.4644C220.289 85.8379 212.502 87.8873 206.935 89.3534C204.185 90.0615 201.984 90.6271 200.439 91.0248C199.702 91.2075 199.122 91.3499 198.699 91.4549C198.517 91.4962 198.369 91.5296 198.247 91.5571C198.145 91.5787 198.091 91.5865 198.09 91.5806Z" fill="#E1E1E1"/>
<path d="M210.38 103.909C210.343 103.921 210.27 103.648 210.018 103.231C209.769 102.82 209.287 102.257 208.49 101.945C207.713 101.624 206.588 101.636 205.677 102.291C204.765 102.912 204.186 104.219 204.526 105.471C204.846 106.729 205.993 107.574 207.091 107.659C208.206 107.774 209.188 107.223 209.705 106.559C210.245 105.889 210.385 105.159 210.4 104.679C210.413 104.191 210.342 103.918 210.38 103.909C210.398 103.902 210.525 104.163 210.563 104.677C210.6 105.181 210.501 105.979 209.94 106.741C209.404 107.497 208.323 108.155 207.057 108.048C205.812 107.977 204.484 107.019 204.12 105.579C203.728 104.146 204.409 102.653 205.456 101.97C206.503 101.247 207.765 101.278 208.603 101.668C209.465 102.05 209.944 102.694 210.161 103.151C210.381 103.618 210.399 103.906 210.38 103.909Z" fill="#E1E1E1"/>
<path d="M229.87 98.7107C229.833 98.7215 229.76 98.4495 229.508 98.0321C229.259 97.6216 228.777 97.0589 227.979 96.7457C227.203 96.4246 226.078 96.4373 225.167 97.0923C224.255 97.7139 223.675 99.02 224.017 100.271C224.336 101.529 225.483 102.375 226.581 102.461C227.695 102.576 228.678 102.025 229.195 101.359C229.734 100.689 229.876 99.9608 229.889 99.4806C229.903 98.9925 229.832 98.7195 229.87 98.7107C229.888 98.7038 230.014 98.964 230.053 99.4786C230.09 99.9824 229.991 100.781 229.43 101.543C228.894 102.299 227.813 102.956 226.547 102.85C225.301 102.778 223.974 101.821 223.61 100.38C223.219 98.9463 223.9 97.4547 224.946 96.7712C225.992 96.0485 227.255 96.0799 228.093 96.4688C228.955 96.8517 229.434 97.4959 229.65 97.9526C229.871 98.418 229.888 98.7077 229.87 98.7107Z" fill="#E1E1E1"/>
<path d="M407.178 467.09C385.271 456.246 376.837 431.129 374.073 407.807C373.61 403.914 372.564 399.896 373.875 396.214C375.188 392.534 379.104 389.55 382.8 390.648C385.867 391.561 387.623 394.713 389.646 397.232C392.335 400.584 395.972 403.14 400 404.51C402.646 405.411 405.798 405.725 408.012 404.007C411.051 401.65 410.737 396.974 410.125 393.126C408.982 385.953 407.841 378.78 406.698 371.61C406.085 367.762 405.473 363.831 406.104 359.99C406.736 356.15 408.848 352.346 412.333 350.756C415.82 349.167 420.645 350.582 421.991 354.234C422.55 355.753 422.482 357.431 422.833 359.013C423.183 360.596 424.194 362.25 425.772 362.462C427.369 362.678 428.733 361.348 429.706 360.043C433.063 355.543 434.978 350.118 436.723 344.748C438.467 339.377 440.119 333.899 443.056 329.102C445.993 324.306 450.439 320.178 455.874 319.016C461.309 317.856 467.67 320.357 469.884 325.557C472.103 330.774 469.797 336.77 467.042 341.697C462.956 349.005 457.824 355.703 451.858 361.513C450.784 362.563 449.618 363.696 449.374 365.194C448.936 367.89 451.744 370.067 454.392 370.521C457.393 371.037 460.444 370.259 463.482 370.15C466.522 370.042 469.958 370.867 471.521 373.53C473.691 377.224 471.049 381.857 468.242 385.059C462.622 391.469 455.913 396.884 448.5 400.995C445.843 402.468 443.018 403.836 441.052 406.179C439.085 408.521 438.244 412.195 440.03 414.695C441.819 417.199 445.472 417.522 448.338 416.514C451.203 415.509 453.598 413.488 456.246 411.986C461.202 409.174 468.052 408.487 472.121 412.54C474.795 415.205 475.631 419.362 475.058 423.12C474.487 426.878 472.687 430.317 470.71 433.538C463.799 444.797 454.229 454.48 442.675 460.628C431.122 466.774 419.989 469.677 407.178 467.09Z" fill="#F5F5F5"/>
<path d="M410.908 451.624C412.512 439.39 415.375 426.126 418.844 412.357C419.723 408.918 420.594 405.521 421.45 402.172C422.314 398.83 423.169 395.517 424.204 392.328C426.249 385.94 428.699 379.956 431.2 374.349C433.701 368.738 436.275 363.506 438.719 358.631C441.175 353.759 443.548 349.262 445.885 345.256C450.536 337.222 455.04 331.202 458.301 327.196C459.926 325.186 461.238 323.67 462.141 322.654C462.577 322.17 462.918 321.79 463.175 321.505C463.411 321.248 463.537 321.122 463.546 321.129C463.556 321.138 463.448 321.282 463.23 321.554C462.986 321.851 462.661 322.246 462.25 322.75C461.383 323.796 460.105 325.34 458.514 327.375C455.326 331.43 450.901 337.475 446.319 345.516C444.016 349.528 441.674 354.028 439.246 358.905C436.828 363.789 434.275 369.023 431.797 374.627C429.318 380.227 426.892 386.195 424.868 392.55C423.842 395.723 422.998 399.008 422.135 402.358C421.28 405.704 420.412 409.101 419.534 412.538C416.068 426.297 413.193 439.524 411.556 451.717" fill="#E1E1E1"/>
<path d="M424.402 392.27C424.355 392.285 424.136 391.719 423.776 390.684C423.412 389.651 422.936 388.14 422.374 386.262C421.246 382.511 419.864 377.276 418.363 371.501C416.86 365.721 415.41 360.521 414.228 356.797C413.643 354.933 413.154 353.43 412.803 352.396C412.457 351.358 412.288 350.775 412.334 350.757C412.379 350.738 412.635 351.287 413.062 352.297C413.493 353.302 414.056 354.786 414.703 356.635C416.013 360.331 417.548 365.531 419.05 371.315C420.518 377.02 421.844 382.18 422.858 386.123C423.326 387.901 423.723 389.399 424.042 390.603C424.317 391.66 424.45 392.254 424.402 392.27Z" fill="#E1E1E1"/>
<path d="M472.206 375.397C472.215 375.446 471.527 375.636 470.279 375.938C469.034 376.246 467.228 376.683 465.016 377.295C460.583 378.481 454.516 380.337 447.912 382.679C441.309 385.034 435.424 387.42 431.218 389.271C429.107 390.182 427.419 390.964 426.249 391.498C425.08 392.037 424.423 392.314 424.401 392.271C424.378 392.224 424.993 391.863 426.127 391.244C427.262 390.632 428.922 389.776 431.012 388.801C435.178 386.827 441.054 384.357 447.675 381.994C454.299 379.645 460.413 377.86 464.892 376.797C467.127 376.247 468.955 375.885 470.223 375.662C471.492 375.445 472.196 375.347 472.206 375.397Z" fill="#E1E1E1"/>
<path d="M411.373 450.619C411.353 450.633 411.205 450.443 410.944 450.068C410.642 449.618 410.274 449.071 409.828 448.406C408.866 446.96 407.528 444.83 405.908 442.175C402.666 436.869 398.418 429.398 393.839 421.092C389.259 412.78 385.085 405.28 381.958 399.913C380.429 397.307 379.17 395.162 378.235 393.567C377.834 392.875 377.503 392.304 377.232 391.835C377.009 391.435 376.902 391.219 376.922 391.204C376.945 391.192 377.09 391.381 377.354 391.757C377.654 392.206 378.022 392.753 378.468 393.417C379.431 394.864 380.77 396.994 382.389 399.649C385.63 404.954 389.88 412.425 394.459 420.736C399.038 429.044 403.212 436.544 406.339 441.912C407.868 444.517 409.126 446.663 410.061 448.256C410.463 448.948 410.793 449.521 411.065 449.988C411.287 450.39 411.394 450.606 411.373 450.619Z" fill="#E1E1E1"/>
<path d="M473.538 419.288C473.547 419.31 473.338 419.437 472.93 419.658C472.445 419.909 471.849 420.218 471.128 420.592C469.461 421.436 467.211 422.575 464.474 423.96C458.854 426.805 451.14 430.823 442.619 435.276C434.098 439.73 426.337 443.682 420.658 446.41C417.819 447.775 415.512 448.856 413.901 449.571C413.157 449.896 412.542 450.163 412.042 450.382C411.614 450.56 411.383 450.643 411.373 450.619C411.364 450.597 411.573 450.47 411.981 450.248C412.466 449.999 413.061 449.69 413.782 449.315C415.45 448.472 417.699 447.335 420.437 445.948C426.056 443.104 433.773 439.084 442.294 434.63C450.814 430.177 458.573 426.226 464.251 423.498C467.091 422.133 469.399 421.051 471.01 420.336C471.756 420.011 472.368 419.743 472.868 419.525C473.297 419.348 473.526 419.266 473.538 419.288Z" fill="#E1E1E1"/>
<path d="M32.1949 111.64C32.1949 111.64 21.3056 114.302 29.9413 138.01C38.5779 161.716 45.0917 173.725 45.0917 173.725C45.0917 173.725 46.4767 179.153 42.0427 179.43C37.6097 179.707 28.245 177.012 25.6703 182.116C23 187.409 26.3691 193.121 33.9234 198.69C41.4776 204.259 57.5845 217.074 59.0358 218.238C60.4608 219.38 61.7159 221.981 58.7255 222.656C55.736 223.333 33.9858 222.972 34.4338 233.367C34.8808 243.76 58.461 255.797 61.0132 257.163C63.5655 258.529 64.0681 259.748 63.6718 261.201C63.2766 262.653 55.9771 261.839 49.7863 261.991C43.5965 262.143 36.4454 263.412 37.2037 269.387C37.9611 275.362 51.1058 289.323 86.1628 297.142L102.643 299.694L113.339 286.728C134.547 257.574 135.264 238.357 131.915 233.365C128.564 228.373 122.36 232.169 117.61 236.165C112.858 240.16 107.909 245.619 106.659 244.791C105.409 243.964 104.987 242.714 106.008 239.992C107.03 237.271 116.848 212.57 110.367 204.465C103.886 196.358 87.782 211.072 85.0921 212.549C82.4023 214.027 81.639 211.24 81.9601 209.436C82.2881 207.596 85.9822 187.275 88.0045 178.074C90.0258 168.874 88.8107 162.346 83.3334 160.142C78.0503 158.017 72.7828 166.261 69.2702 168.997C65.7576 171.732 63.2385 166.735 63.2385 166.735C63.2385 166.735 60.2549 153.387 51.1917 129.842C42.1286 106.298 31.9782 111.709 31.9782 111.709" fill="#ECECEC"/>
<path d="M103.028 303.716C96.4401 286.397 85.2453 255.42 75.4961 228.874C65.7497 202.338 56.9043 178.32 50.4041 160.97C47.1511 152.313 44.5149 145.301 42.6849 140.432C41.7811 138.022 41.0765 136.142 40.5904 134.845C40.3611 134.219 40.1844 133.734 40.0575 133.387C39.9404 133.058 39.8926 132.884 39.8926 132.884C39.8926 132.884 39.9736 133.045 40.1063 133.368C40.2449 133.711 40.4382 134.19 40.687 134.807C41.1946 136.097 41.9305 137.963 42.8733 140.358C44.7667 145.182 47.4556 152.179 50.7467 160.84C57.3347 178.157 66.2358 202.157 75.9812 228.694C85.7304 255.239 96.8705 286.235 103.372 303.585" fill="#E1E1E1"/>
<path d="M38.6196 186.417C38.6362 186.385 39.0325 186.552 39.7352 186.882C40.4399 187.208 41.4432 187.709 42.6788 188.34C45.1461 189.609 48.5094 191.447 52.185 193.542C55.8031 195.623 59.0737 197.504 61.5761 198.943C62.7073 199.584 63.6618 200.125 64.429 200.56C65.1053 200.939 65.4723 201.164 65.4567 201.196C65.4401 201.229 65.0429 201.066 64.3372 200.741C63.6335 200.412 62.6292 199.911 61.4004 199.266C58.9448 197.973 55.6049 196.092 51.9303 193.995C48.3006 191.943 45.0183 190.086 42.5061 188.666C41.371 188.03 40.4125 187.494 39.6425 187.061C38.9681 186.678 38.604 186.45 38.6196 186.417Z" fill="#E1E1E1"/>
<path d="M66.7143 200.27C66.5874 200.205 70.0483 193.06 74.4442 184.313C78.8421 175.565 82.5099 168.527 82.6368 168.591C82.7646 168.656 79.3047 175.8 74.9069 184.549C70.51 193.296 66.8422 200.335 66.7143 200.27Z" fill="#E1E1E1"/>
<path d="M79.857 241.708C79.8317 241.682 80.1166 241.346 80.6525 240.762C81.2644 240.102 82.0296 239.279 82.9373 238.302C84.8629 236.223 87.5108 233.34 90.3149 230.052C93.1287 226.769 95.5726 223.71 97.3235 221.479C98.1482 220.431 98.8432 219.548 99.4004 218.84C99.8943 218.219 100.181 217.885 100.211 217.907C100.239 217.929 100.008 218.303 99.5625 218.961C99.1164 219.62 98.4567 220.559 97.6134 221.703C95.9347 223.994 93.5288 227.1 90.7082 230.392C87.8944 233.69 85.1967 236.541 83.2008 238.557C82.1985 239.562 81.3786 240.366 80.795 240.904C80.2142 241.446 79.8824 241.733 79.857 241.708Z" fill="#E1E1E1"/>
<path d="M51.7032 234.806C51.711 234.77 52.1122 234.828 52.8315 234.963C53.6562 235.131 54.6693 235.337 55.8639 235.58C58.4191 236.124 61.9415 236.909 65.825 237.809C69.7095 238.708 73.2192 239.551 75.7538 240.186C76.9338 240.493 77.9342 240.753 78.7492 240.964C79.4538 241.159 79.8394 241.284 79.8316 241.319C79.8237 241.354 79.4226 241.296 78.7043 241.162C77.8796 240.994 76.8665 240.788 75.6718 240.545C73.1157 240.002 69.5933 239.216 65.7088 238.316C61.8253 237.417 58.3156 236.574 55.7819 235.939C54.601 235.633 53.6006 235.372 52.7856 235.16C52.081 234.965 51.6954 234.84 51.7032 234.806Z" fill="#E1E1E1"/>
<path d="M58.6856 272.87C58.6934 272.836 59.2068 272.914 60.1272 273.086C61.1403 273.288 62.4471 273.548 64.0165 273.863C67.2949 274.54 71.8177 275.511 76.8051 276.616C81.7944 277.721 86.3055 278.75 89.5643 279.52C91.1181 279.899 92.4133 280.214 93.4176 280.459C94.3252 280.692 94.823 280.837 94.8152 280.871C94.8074 280.908 94.295 280.828 93.3746 280.657C92.3606 280.455 91.0547 280.194 89.4853 279.88C86.2059 279.202 81.6831 278.231 76.6938 277.125C71.7065 276.02 67.1964 274.992 63.9375 274.222C62.3827 273.843 61.0876 273.529 60.0842 273.284C59.1756 273.052 58.6778 272.905 58.6856 272.87Z" fill="#E1E1E1"/>
<path d="M94.0053 280.436C93.9789 280.412 94.3284 279.977 94.9823 279.212C95.7016 278.38 96.6385 277.296 97.7678 275.989C100.116 273.264 103.346 269.49 106.793 265.221C110.248 260.956 113.273 257.013 115.444 254.144C116.487 252.766 117.354 251.623 118.018 250.747C118.629 249.947 118.98 249.515 119.009 249.536C119.039 249.557 118.742 250.029 118.181 250.866C117.62 251.703 116.789 252.901 115.738 254.363C113.64 257.292 110.655 261.277 107.194 265.55C103.741 269.825 100.463 273.569 98.0411 276.233C96.8269 277.562 95.8343 278.627 95.1316 279.349C94.4318 280.072 94.0316 280.46 94.0053 280.436Z" fill="#E1E1E1"/>
<path d="M445.571 130.494L442.946 126.197C420.819 89.9679 380.81 68.1292 338.632 70.7787C333.209 71.1204 327.81 71.849 322.484 72.9822C284.133 81.1378 250.762 109.953 236.931 146.854C228.796 168.557 226.523 193.545 211.087 210.772C190.996 233.191 156.888 233.895 126.899 232.967C96.9115 232.037 62.7798 232.829 42.7874 255.338C30.2663 269.433 26.2862 289.479 27.2963 308.358C29.9696 358.339 65.0226 403.027 109.602 425.24C154.181 447.454 206.669 449.443 255.458 439.672C323.806 425.983 388.805 388.391 427.873 330.328C466.942 272.265 476.83 193.161 445.571 130.494Z" fill="#ECECEC"/>
<path d="M454.476 468.888C454.476 469.03 360.459 469.145 244.51 469.145C128.52 469.145 34.5234 469.03 34.5234 468.888C34.5234 468.747 128.52 468.633 244.51 468.633C360.459 468.633 454.476 468.747 454.476 468.888Z" fill="#1A2E35"/>
<path d="M409.049 64.4014L380.732 64.3847C376.936 64.3827 373.855 67.6194 373.856 71.6132L373.853 76.7804C373.854 80.7752 370.774 84.0109 366.978 84.009L311.783 83.9765C307.986 83.9746 304.908 80.734 304.908 76.7402L304.91 71.5719C304.91 67.5781 301.832 64.3385 298.035 64.3365L288.076 64.3297L263.293 64.3159C250.984 64.3091 241.002 74.3441 241 86.7291L240.93 446.308C240.928 458.686 250.896 468.723 263.197 468.731L408.952 468.816C421.26 468.823 431.242 458.788 431.246 446.403L431.315 86.8234C431.317 74.4463 421.35 64.4092 409.049 64.4014Z" fill="white"/>
<path d="M409.048 64.4019C409.048 64.4019 409.305 64.4038 409.811 64.4244C410.315 64.4726 411.082 64.4127 412.07 64.6002C414.045 64.834 417.05 65.4801 420.428 67.505C422.135 68.4732 423.87 69.8657 425.512 71.649C427.148 73.4353 428.668 75.6683 429.755 78.3423C430.858 81.0075 431.454 84.1214 431.424 87.4435C431.428 90.7538 431.432 94.2782 431.436 98.0118C431.453 127.884 431.479 171.099 431.512 224.497C431.52 277.9 431.531 341.486 431.542 412.09C431.543 420.916 431.543 429.85 431.543 438.889V445.688C431.518 447.965 431.371 450.308 430.689 452.527C430.048 454.745 429.134 456.907 427.843 458.845C426.557 460.781 424.993 462.531 423.202 464.027C419.578 466.953 415.04 468.819 410.334 469.052C405.662 469.19 401.024 469.087 396.331 469.116C386.961 469.112 377.5 469.108 367.955 469.103C348.863 469.093 329.436 469.084 309.719 469.073C299.86 469.068 289.93 469.062 279.933 469.057C274.935 469.055 269.92 469.051 264.889 469.049C259.84 469.308 254.6 467.967 250.379 465.017C246.136 462.088 243.006 457.658 241.545 452.742C240.76 450.292 240.614 447.676 240.615 445.158C240.615 442.634 240.616 440.115 240.616 437.599C240.619 427.539 240.621 417.544 240.624 407.622C240.629 387.778 240.635 368.225 240.64 349.012C240.653 310.586 240.667 273.523 240.68 238.215C240.697 202.907 240.713 169.356 240.728 137.956C240.737 122.256 240.747 107.094 240.755 92.5195C240.757 90.6979 240.758 88.8851 240.759 87.0821C240.771 86.1787 240.836 85.2654 240.885 84.363C241.041 83.4703 241.11 82.563 241.34 81.6909C242.155 78.1803 243.77 74.8955 246.027 72.1911C248.301 69.5014 251.153 67.3704 254.291 65.977C257.426 64.5521 260.872 64.0503 264.195 64.0916C270.83 64.0994 277.307 64.1072 283.618 64.1141C286.774 64.118 289.889 64.122 292.962 64.1259C294.498 64.1269 296.024 64.1299 297.539 64.1308C299.07 64.0552 300.667 64.4775 301.926 65.3642C303.185 66.2509 304.154 67.5285 304.652 68.9662C305.223 70.4058 305.087 71.9603 305.103 73.394C305.103 74.1237 305.102 74.8513 305.102 75.576C305.103 76.3047 305.078 77.0245 305.171 77.7129C305.347 79.1004 305.931 80.4291 306.834 81.4651C307.72 82.5168 308.934 83.2671 310.239 83.5921C310.898 83.7581 311.554 83.8052 312.247 83.7914C312.934 83.7924 313.619 83.7934 314.3 83.7944C317.026 83.7973 319.706 83.8012 322.342 83.8052C332.882 83.8209 342.693 83.8356 351.723 83.8484C356.238 83.8563 360.557 83.8631 364.676 83.87C365.698 83.8523 366.739 83.9171 367.711 83.8317C368.688 83.7198 369.624 83.38 370.437 82.8664C372.074 81.8422 373.184 80.1433 373.561 78.3502C373.765 77.4536 373.729 76.5384 373.735 75.6281C373.737 74.7207 373.738 73.8271 373.74 72.9462C373.751 72.0723 373.697 71.1924 373.857 70.3322C374.003 69.4778 374.291 68.6628 374.697 67.9302C375.5 66.4543 376.805 65.3406 378.255 64.7672C379.718 64.1269 381.274 64.3213 382.679 64.2919C388.39 64.3076 393.224 64.3203 397.132 64.3311C401.034 64.3469 404.012 64.3596 406.02 64.3675C408.023 64.3793 409.048 64.4019 409.048 64.4019C409.048 64.4019 408.023 64.4225 406.02 64.4323C404.011 64.4382 401.034 64.447 397.132 64.4588C393.224 64.4637 388.39 64.4716 382.679 64.4804C381.258 64.5138 379.738 64.3302 378.329 64.9557C376.925 65.5164 375.661 66.6015 374.886 68.0363C374.495 68.7492 374.217 69.5397 374.077 70.3695C373.925 71.1953 373.979 72.0634 373.971 72.9462C373.972 73.8271 373.973 74.7207 373.973 75.6281C373.97 76.5276 374.009 77.4703 373.8 78.4022C373.416 80.2563 372.272 82.0189 370.575 83.0873C369.732 83.6225 368.759 83.979 367.74 84.0978C366.709 84.1891 365.711 84.1243 364.676 84.145C360.557 84.1469 356.237 84.1489 351.723 84.1509C342.693 84.1538 332.882 84.1568 322.342 84.1597C319.706 84.1607 317.026 84.1607 314.3 84.1617C313.619 84.1617 312.934 84.1617 312.247 84.1617C311.568 84.1764 310.836 84.1292 310.15 83.9545C308.768 83.6127 307.484 82.8203 306.549 81.7136C305.595 80.6226 304.98 79.2242 304.792 77.7629C304.692 77.0255 304.719 76.2949 304.716 75.576C304.716 74.8513 304.716 74.1237 304.715 73.394C304.696 71.9308 304.824 70.4559 304.28 69.1007C303.807 67.7377 302.888 66.5309 301.698 65.6961C300.496 64.8615 299.039 64.4677 297.539 64.5403H292.962H283.618C277.306 64.5403 270.83 64.5403 264.195 64.5403C260.9 64.504 257.551 64.9979 254.473 66.3973C251.401 67.7662 248.609 69.8569 246.384 72.4926C244.177 75.143 242.6 78.361 241.805 81.797C241.58 82.6504 241.515 83.5391 241.36 84.4121C241.315 85.2998 241.252 86.1826 241.24 87.0821C241.241 88.886 241.241 90.6979 241.242 92.5195C241.245 107.094 241.248 122.256 241.251 137.956C241.254 169.356 241.257 202.907 241.26 238.215C241.259 273.523 241.258 310.586 241.257 349.012C241.255 368.225 241.253 387.778 241.251 407.622C241.249 417.544 241.248 427.539 241.246 437.599C241.246 440.115 241.245 442.635 241.245 445.158C241.247 447.671 241.384 450.169 242.15 452.563C243.57 457.34 246.613 461.647 250.737 464.495C254.863 467.363 259.885 468.667 264.89 468.415C269.921 468.418 274.935 468.421 279.933 468.424C289.93 468.431 299.86 468.436 309.72 468.443C329.436 468.456 348.864 468.469 367.955 468.481C377.5 468.488 386.961 468.495 396.332 468.502C401.008 468.474 405.699 468.577 410.298 468.443C414.878 468.219 419.293 466.403 422.822 463.557C424.565 462.101 426.089 460.397 427.343 458.514C428.601 456.629 429.488 454.523 430.114 452.365C430.781 450.198 430.922 447.943 430.948 445.687C430.949 443.416 430.95 441.149 430.951 438.889C430.955 429.85 430.959 420.915 430.962 412.09C431.001 341.486 431.036 277.9 431.066 224.497C431.119 171.099 431.161 127.884 431.191 98.0118C431.196 94.2782 431.202 90.7528 431.207 87.4435C431.247 84.142 430.666 81.0625 429.582 78.413C428.512 75.7577 427.013 73.5364 425.395 71.756C423.772 69.9786 422.055 68.5852 420.363 67.614C417.015 65.5832 414.028 64.9184 412.061 64.665C411.078 64.4667 410.313 64.5167 409.81 64.4568C409.305 64.4254 409.048 64.4019 409.048 64.4019Z" fill="#1A2E35"/>
<path d="M277.084 100.71C277.085 100.807 273.403 100.915 268.86 100.954C264.317 100.991 260.635 100.944 260.635 100.847C260.634 100.751 264.314 100.642 268.858 100.604C273.401 100.567 277.083 100.614 277.084 100.71Z" fill="#1A2E35"/>
<path d="M277.12 104.945C277.12 105.042 273.439 105.15 268.897 105.188C264.353 105.226 260.671 105.178 260.67 105.082C260.669 104.986 264.35 104.877 268.894 104.839C273.436 104.802 277.119 104.849 277.12 104.945Z" fill="#1A2E35"/>
<path d="M277.155 109.18C277.156 109.277 273.474 109.385 268.931 109.423C264.388 109.461 260.705 109.413 260.705 109.317C260.704 109.221 264.385 109.112 268.928 109.074C273.471 109.036 277.154 109.083 277.155 109.18Z" fill="#1A2E35"/>
<path d="M331.111 451.67H257.865V377.973H331.111V451.67Z" fill="#F5F5F5"/>
<path d="M322.462 420.134C316.502 411.762 303.842 406.027 293.555 407.567C285.214 408.817 277.842 412.713 273.8 421.043C272.659 423.394 274.123 426.184 276.704 426.495C290.576 428.16 304.651 428.115 318.511 426.352C320.651 426.08 323.195 425.484 323.341 422.82C323.395 421.855 323.022 420.921 322.462 420.134Z" fill="#4CD79D"/>
<g opacity="0.5">
<path d="M322.462 420.134C316.503 411.762 303.842 406.027 293.555 407.566C285.214 408.817 277.842 412.713 273.801 421.042" fill="white"/>
</g>
<path d="M289.53 419.72C289.48 419.758 289.054 419.335 288.482 418.547C287.923 417.759 287.228 416.551 286.903 415.07C286.581 413.593 286.596 412.243 286.594 411.28C286.607 410.314 286.652 409.717 286.722 409.715C286.792 409.712 286.874 410.307 286.953 411.267C287.046 412.223 287.092 413.556 287.398 414.957C287.706 416.36 288.312 417.526 288.784 418.35C289.266 419.171 289.591 419.673 289.53 419.72Z" fill="#F5F5F5"/>
<path d="M298.368 419.308C298.215 419.292 298.435 416.927 298.125 414.041C297.833 411.151 297.129 408.885 297.276 408.838C297.392 408.786 298.33 411.027 298.631 413.987C298.948 416.944 298.493 419.333 298.368 419.308Z" fill="#F5F5F5"/>
<path d="M307.5 417.953C307.358 417.892 308.044 416.305 308.211 414.223C308.402 412.143 307.999 410.462 308.149 410.425C308.265 410.372 308.916 412.075 308.718 414.268C308.537 416.461 307.605 418.025 307.5 417.953Z" fill="#F5F5F5"/>
<g opacity="0.300003">
<path d="M296.744 407.964C296.773 408.011 296.796 408.064 296.824 408.11C296.825 408.108 296.826 408.106 296.828 408.104L296.744 407.964Z" fill="black"/>
</g>
<path d="M331.965 251.484H257.865V139.724H331.965V251.484Z" fill="#F5F5F5"/>
<path d="M331.965 371.678H257.865V259.918H331.965V371.678Z" fill="#F5F5F5"/>
<path d="M413.116 343.158H339.016V238.812H413.116V343.158Z" fill="#F5F5F5"/>
<path d="M412.514 451.67H338.414V350.5H412.514V451.67Z" fill="#F5F5F5"/>
<path d="M413.116 232.037H339.016V139.724H413.116V232.037Z" fill="#F5F5F5"/>
<path d="M306.55 173.15C306.55 173.174 306.559 173.188 306.559 173.196V204.125C306.559 205.482 305.474 206.884 303.476 207.944C301.485 209.002 298.571 209.729 294.939 209.737H294.893C287.619 209.722 283.271 206.846 283.271 204.125V173.196C283.271 173.188 283.279 173.174 283.279 173.15C283.279 173.134 283.271 173.111 283.271 173.088C283.287 170.064 285.496 166.908 287.719 163.789C289.213 161.708 289.571 158.707 289.64 156.946C289.648 156.736 289.655 156.549 289.655 156.377H289.453C288.493 156.377 287.719 155.706 287.719 154.88V153.571C287.719 152.736 288.493 152.067 289.453 152.067H300.377C301.097 152.067 301.717 152.442 301.979 152.979C302.064 153.166 302.111 153.361 302.111 153.571V154.88C302.111 155.706 301.337 156.377 300.377 156.377H300.176C300.176 156.549 300.184 156.736 300.19 156.946C300.261 158.707 300.617 161.708 302.111 163.789C304.335 166.908 306.542 170.064 306.559 173.088C306.559 173.111 306.55 173.134 306.55 173.15Z" fill="#FAFAFA"/>
<path d="M306.55 173.15C306.55 173.15 306.546 173.043 306.523 172.834C306.512 172.625 306.471 172.315 306.4 171.912C306.241 171.111 305.864 169.949 305.112 168.574C304.371 167.193 303.273 165.613 301.956 163.79C300.636 161.893 300.071 159.246 300.01 156.377L300.006 156.194L300.176 156.211C300.953 156.282 301.809 155.829 301.925 155.036C301.946 154.645 301.929 154.163 301.932 153.721C301.963 153.284 301.808 152.913 301.485 152.644C301.168 152.376 300.748 152.242 300.306 152.257C299.833 152.258 299.356 152.26 298.873 152.261C297.906 152.263 296.919 152.266 295.911 152.269C293.892 152.274 291.793 152.279 289.617 152.284C289.099 152.258 288.616 152.412 288.274 152.763C288.113 152.938 287.993 153.151 287.958 153.382C287.924 153.59 287.947 153.918 287.941 154.187C287.945 154.457 287.935 154.781 287.95 155.011C287.982 155.244 288.088 155.468 288.255 155.648C288.595 156.018 289.098 156.181 289.654 156.147L289.887 156.133L289.884 156.377C289.867 157.625 289.748 158.887 289.475 160.149C289.197 161.404 288.762 162.675 288.002 163.797C286.516 165.94 284.875 168.107 283.97 170.661C283.755 171.297 283.598 171.956 283.544 172.625C283.509 173.282 283.525 174.009 283.522 174.705C283.522 176.114 283.523 177.536 283.524 178.971C283.524 181.843 283.525 184.765 283.526 187.727C283.524 192.936 283.522 198.021 283.52 202.933C283.532 203.542 283.479 204.184 283.598 204.7C283.716 205.246 284.04 205.737 284.412 206.164C285.178 207.021 286.192 207.643 287.244 208.103C289.369 209.007 291.654 209.38 293.869 209.473C296.087 209.571 298.271 209.39 300.309 208.888C302.32 208.371 304.293 207.536 305.558 206.064C305.868 205.698 306.102 205.281 306.242 204.844C306.383 204.413 306.349 203.948 306.355 203.451C306.358 202.484 306.361 201.533 306.363 200.601C306.367 198.739 306.373 196.951 306.378 195.244C306.412 188.439 306.441 182.923 306.459 179.078C306.481 177.19 306.495 175.715 306.507 174.682C306.521 173.678 306.55 173.15 306.55 173.15C306.584 173.149 306.589 173.678 306.61 174.682C306.62 175.715 306.637 177.19 306.657 179.078C306.677 182.923 306.704 188.439 306.737 195.244C306.743 196.951 306.749 198.739 306.755 200.601C306.757 201.533 306.76 202.484 306.763 203.451C306.758 203.918 306.802 204.448 306.639 204.965C306.482 205.469 306.217 205.933 305.883 206.334C304.514 207.935 302.48 208.78 300.419 209.324C298.329 209.847 296.11 210.037 293.849 209.944C291.595 209.853 289.26 209.484 287.05 208.551C285.955 208.073 284.887 207.431 284.043 206.492C283.633 206.022 283.265 205.47 283.117 204.818C282.972 204.144 283.04 203.548 283.023 202.933C283.021 198.021 283.02 192.936 283.018 187.727C283.019 184.765 283.02 181.843 283.02 178.971C283.021 177.536 283.021 176.114 283.021 174.705C283.025 173.992 283.009 173.32 283.048 172.586C283.106 171.865 283.275 171.167 283.503 170.5C284.452 167.836 286.126 165.654 287.608 163.524C289.012 161.395 289.363 158.772 289.426 156.377L289.654 156.606C289.061 156.646 288.354 156.449 287.921 155.954C287.699 155.713 287.547 155.399 287.506 155.066C287.484 154.727 287.5 154.481 287.496 154.187C287.506 153.892 287.475 153.653 287.523 153.306C287.575 152.98 287.742 152.686 287.958 152.457C288.394 151.996 289.057 151.816 289.617 151.85C291.793 151.855 293.892 151.859 295.911 151.864C296.919 151.867 297.906 151.87 298.873 151.872C299.356 151.873 299.833 151.875 300.306 151.876C300.806 151.863 301.336 152.023 301.725 152.361C302.127 152.679 302.341 153.252 302.292 153.721C302.283 154.185 302.303 154.596 302.271 155.085C302.112 156.131 301.006 156.631 300.176 156.544L300.342 156.377C300.379 159.194 300.917 161.803 302.169 163.64C303.462 165.474 304.548 167.082 305.271 168.489C306.004 169.89 306.361 171.079 306.49 171.896C306.548 172.307 306.574 172.62 306.569 172.832C306.577 173.044 306.564 173.15 306.55 173.15Z" fill="#1A2E35"/>
<path d="M299.557 156.302C299.557 156.443 297.38 156.557 294.695 156.557C292.009 156.557 289.832 156.443 289.832 156.302C289.832 156.16 292.009 156.046 294.695 156.046C297.38 156.046 299.557 156.16 299.557 156.302Z" fill="#1A2E35"/>
<path d="M305.578 177.282C304.594 176.641 303.301 176.923 302.245 177.424C301.19 177.925 300.194 178.631 299.049 178.817C297.699 179.035 296.342 178.494 295.143 177.811C293.943 177.129 292.811 176.288 291.52 175.826C289.047 174.937 286.119 175.631 284.252 177.548V204.106C284.252 204.106 285.703 208.638 295.912 207.926C306.12 207.213 305.316 202.682 305.316 202.682L305.578 177.282Z" fill="#4CD79D"/>
<path d="M384.47 388.132C384.47 388.155 384.478 388.17 384.478 388.178V418.905C384.478 420.252 383.4 421.645 381.415 422.698C379.437 423.75 376.543 424.472 372.934 424.48H372.888C365.661 424.465 361.344 421.607 361.344 418.905V388.178C361.344 388.17 361.352 388.155 361.352 388.132C361.352 388.116 361.344 388.094 361.344 388.071C361.358 385.065 363.552 381.93 365.761 378.831C367.247 376.764 367.6 373.783 367.669 372.033C367.677 371.825 367.685 371.638 367.685 371.467H367.486C366.53 371.467 365.761 370.802 365.761 369.981V368.68C365.761 367.852 366.53 367.186 367.486 367.186H378.336C379.051 367.186 379.668 367.558 379.93 368.092C380.015 368.277 380.06 368.471 380.06 368.68V369.981C380.06 370.802 379.29 371.467 378.336 371.467H378.137C378.137 371.638 378.145 371.825 378.151 372.033C378.221 373.783 378.576 376.764 380.06 378.831C382.269 381.93 384.462 385.065 384.478 388.071C384.478 388.094 384.47 388.116 384.47 388.132Z" fill="#FAFAFA"/>
<path d="M384.471 388.132C384.471 388.132 384.466 388.026 384.444 387.818C384.433 387.609 384.392 387.302 384.321 386.902C384.163 386.106 383.788 384.951 383.042 383.585C382.304 382.214 381.214 380.644 379.905 378.832C378.594 376.947 378.033 374.318 377.972 371.467L377.968 371.286L378.138 371.3C378.91 371.373 379.76 370.922 379.874 370.136C379.896 369.748 379.877 369.268 379.881 368.83C379.911 368.396 379.757 368.027 379.438 367.76C379.123 367.494 378.706 367.362 378.267 367.375C377.798 367.376 377.324 367.378 376.843 367.379C375.883 367.382 374.901 367.385 373.9 367.388C371.895 367.393 369.809 367.398 367.65 367.403C367.133 367.377 366.654 367.531 366.315 367.878C366.155 368.052 366.036 368.263 366.001 368.493C365.967 368.699 365.99 369.025 365.984 369.291C365.988 369.561 365.978 369.882 365.993 370.11C366.025 370.342 366.13 370.564 366.295 370.744C366.634 371.11 367.132 371.272 367.686 371.238L367.917 371.224L367.914 371.467C367.898 372.708 367.779 373.961 367.508 375.216C367.231 376.463 366.801 377.726 366.044 378.84C364.567 380.97 362.938 383.122 362.04 385.659C361.826 386.292 361.671 386.946 361.616 387.61C361.582 388.263 361.596 388.985 361.594 389.677C361.595 391.076 361.596 392.489 361.596 393.916C361.596 396.768 361.597 399.67 361.597 402.613C361.596 407.789 361.595 412.84 361.593 417.721C361.604 418.325 361.552 418.963 361.671 419.475C361.788 420.017 362.109 420.505 362.479 420.929C363.238 421.781 364.245 422.399 365.291 422.855C367.404 423.752 369.672 424.123 371.872 424.216C374.076 424.314 376.245 424.133 378.27 423.635C380.267 423.122 382.228 422.292 383.484 420.83C383.792 420.466 384.024 420.053 384.163 419.619C384.303 419.192 384.27 418.728 384.276 418.235C384.278 417.274 384.281 416.329 384.284 415.403C384.288 413.554 384.293 411.777 384.299 410.082C384.332 403.321 384.361 397.841 384.38 394.02C384.401 392.146 384.416 390.68 384.428 389.653C384.441 388.655 384.471 388.132 384.471 388.132C384.504 388.13 384.51 388.655 384.53 389.653C384.541 390.68 384.558 392.146 384.577 394.02C384.597 397.841 384.624 403.32 384.658 410.082C384.663 411.777 384.669 413.554 384.675 415.403C384.678 416.329 384.68 417.274 384.683 418.235C384.679 418.699 384.722 419.225 384.56 419.741C384.404 420.239 384.141 420.702 383.809 421.1C382.449 422.689 380.426 423.531 378.38 424.072C376.304 424.591 374.098 424.779 371.852 424.688C369.611 424.597 367.293 424.23 365.096 423.303C364.009 422.828 362.947 422.191 362.11 421.257C361.702 420.79 361.335 420.241 361.189 419.593C361.044 418.922 361.111 418.331 361.095 417.721C361.094 412.84 361.092 407.789 361.09 402.613C361.091 399.67 361.091 396.768 361.092 393.916C361.092 392.489 361.093 391.076 361.094 389.677C361.099 388.969 361.081 388.301 361.119 387.571C361.179 386.854 361.347 386.16 361.571 385.498C362.516 382.851 364.179 380.683 365.65 378.567C367.045 376.452 367.393 373.847 367.456 371.467L367.686 371.698C367.095 371.737 366.393 371.54 365.962 371.049C365.741 370.808 365.59 370.496 365.549 370.165C365.527 369.827 365.543 369.585 365.539 369.291C365.549 369 365.518 368.761 365.566 368.416C365.618 368.092 365.784 367.801 365.999 367.572C366.433 367.115 367.09 366.935 367.65 366.968C369.809 366.974 371.895 366.979 373.9 366.984C374.901 366.986 375.883 366.989 376.843 366.991C377.324 366.993 377.798 366.994 378.267 366.996C378.764 366.983 379.29 367.142 379.677 367.477C380.077 367.794 380.29 368.363 380.241 368.83C380.232 369.29 380.254 369.699 380.221 370.185C380.062 371.225 378.963 371.721 378.138 371.634L378.304 371.467C378.341 374.266 378.876 376.859 380.118 378.682C381.402 380.505 382.483 382.103 383.201 383.5C383.929 384.892 384.283 386.074 384.411 386.885C384.469 387.293 384.494 387.606 384.49 387.816C384.497 388.026 384.485 388.132 384.471 388.132Z" fill="#1A2E35"/>
<path d="M377.523 371.393C377.523 371.534 375.36 371.649 372.693 371.649C370.023 371.649 367.861 371.534 367.861 371.393C367.861 371.251 370.023 371.138 372.693 371.138C375.36 371.138 377.523 371.251 377.523 371.393Z" fill="#1A2E35"/>
<path d="M383.504 392.237C382.527 391.599 381.243 391.88 380.194 392.378C379.146 392.876 378.157 393.577 377.018 393.761C375.677 393.978 374.33 393.441 373.137 392.763C371.946 392.084 370.822 391.249 369.538 390.789C367.081 389.907 364.173 390.596 362.318 392.501V418.887C362.318 418.887 363.76 423.388 373.902 422.68C384.044 421.973 383.244 417.471 383.244 417.471L383.504 392.237Z" fill="#4CD79D"/>
<g opacity="0.5">
<path d="M383.504 392.237C382.527 391.599 381.243 391.88 380.194 392.378C379.146 392.876 378.157 393.577 377.018 393.761C375.677 393.978 374.33 393.441 373.137 392.763C371.946 392.084 370.822 391.249 369.538 390.789C367.081 389.907 364.173 390.596 362.318 392.501V418.887C362.318 418.887 363.76 423.388 373.902 422.68C384.044 421.973 383.244 417.471 383.244 417.471L383.504 392.237Z" fill="white"/>
</g>
<path d="M400.361 276.469C399.789 276.164 399.033 276.285 398.308 276.711C398.158 276.803 398.007 276.924 397.856 277.045C393.511 280.446 387.417 282.57 380.719 282.57C368.725 282.57 358.793 275.805 357.013 266.967V265.296C357.013 264.631 356.478 264.093 355.819 264.093C355.159 264.093 354.624 264.631 354.624 265.296V269.976C354.624 270.089 354.66 270.191 354.688 270.295C353.889 272.132 353.414 274.083 353.414 276.133C353.414 286.335 364.156 294.621 377.431 294.621C388.563 294.621 397.945 288.794 400.661 280.868C400.692 280.84 400.721 280.78 400.721 280.747C401.055 280.049 401.235 279.322 401.235 278.715C401.296 277.684 400.994 276.833 400.361 276.469Z" fill="#4CD79D"/>
<g opacity="0.300003">
<path d="M356.119 271.527C356.119 271.527 367.421 297.701 398.056 279.358C398.056 279.358 390.156 287.605 379.859 289.612C370.56 291.423 356.751 286.139 356.119 271.527Z" fill="black"/>
</g>
<path d="M401.198 277.788C401.009 278.242 400.275 278.364 399.563 278.062C398.851 277.759 398.428 277.143 398.617 276.691C398.811 276.235 399.543 276.115 400.253 276.418C400.966 276.72 401.389 277.334 401.198 277.788Z" fill="#1A2E35"/>
<path d="M412.621 108.996C412.621 109.001 412.538 109.007 412.38 109.013C412.207 109.018 411.977 109.023 411.686 109.031C411.067 109.041 410.197 109.055 409.119 109.072C406.928 109.091 403.903 109.119 400.501 109.149H400.431L400.42 109.079C400.354 108.621 400.282 108.136 400.212 107.644C399.616 103.441 399.083 99.6896 398.735 97.2385L398.786 97.2827C397.815 97.2778 397.039 97.2748 396.492 97.2729C396.235 97.268 396.033 97.265 395.881 97.2621C395.741 97.2581 395.67 97.2542 395.67 97.2493C395.67 97.2444 395.741 97.2385 395.881 97.2336C396.032 97.2297 396.235 97.2238 396.491 97.2159C397.039 97.208 397.815 97.1943 398.785 97.1786H398.83L398.837 97.2238C399.199 99.6729 399.753 103.421 400.372 107.62C400.444 108.112 400.515 108.597 400.58 109.056L400.5 108.986C403.902 108.976 406.927 108.968 409.118 108.962C410.196 108.966 411.067 108.969 411.686 108.971C411.977 108.975 412.207 108.979 412.38 108.982C412.538 108.986 412.621 108.991 412.621 108.996Z" fill="#1A2E35"/>
<path d="M400.135 106.543C400.135 106.541 400.156 106.538 400.196 106.536C400.243 106.534 400.302 106.532 400.374 106.529C400.543 106.524 400.773 106.519 401.067 106.512C401.685 106.502 402.562 106.489 403.661 106.474C405.888 106.453 409.001 106.424 412.605 106.391L412.528 106.457C412.785 104.941 413.062 103.301 413.349 101.604C413.497 100.731 413.643 99.8736 413.782 99.0555L413.862 99.1498C409.676 99.1636 405.981 99.1763 403.32 99.1852C402.003 99.1822 400.942 99.1803 400.198 99.1793C399.841 99.1754 399.56 99.1724 399.357 99.1704C399.268 99.1675 399.197 99.1655 399.139 99.1636C399.091 99.1616 399.064 99.1587 399.064 99.1567C399.064 99.1537 399.091 99.1518 399.139 99.1488C399.196 99.1459 399.268 99.1429 399.357 99.14C399.56 99.1351 399.84 99.1292 400.198 99.1204C400.942 99.1105 402.002 99.0958 403.319 99.0772C405.98 99.0555 409.675 99.0241 413.861 98.9878H413.956L413.941 99.083C413.802 99.9001 413.657 100.758 413.509 101.631C413.22 103.328 412.941 104.967 412.683 106.482L412.672 106.548H412.606C409.002 106.558 405.889 106.566 403.661 106.572C402.563 106.569 401.685 106.566 401.068 106.564C400.774 106.561 400.543 106.558 400.374 106.556C400.303 106.553 400.243 106.551 400.196 106.55C400.156 106.548 400.135 106.545 400.135 106.543Z" fill="#1A2E35"/>
<path d="M403.55 112.36C403.535 112.361 403.534 112.252 403.48 112.07C403.426 111.892 403.3 111.635 403.031 111.44C402.771 111.244 402.349 111.138 401.944 111.295C401.543 111.439 401.2 111.872 401.208 112.373C401.206 112.875 401.554 113.304 401.957 113.444C402.363 113.595 402.784 113.485 403.042 113.286C403.308 113.087 403.431 112.829 403.483 112.65C403.535 112.469 403.535 112.36 403.55 112.36C403.557 112.36 403.58 112.469 403.545 112.665C403.509 112.858 403.395 113.147 403.112 113.378C402.839 113.609 402.37 113.749 401.906 113.586C401.447 113.437 401.042 112.95 401.045 112.374C401.036 111.799 401.434 111.307 401.892 111.153C402.354 110.985 402.824 111.119 403.101 111.347C403.386 111.574 403.504 111.863 403.541 112.054C403.579 112.251 403.557 112.361 403.55 112.36Z" fill="#1A2E35"/>
<path d="M411.35 112.314C411.336 112.314 411.335 112.206 411.281 112.024C411.226 111.846 411.1 111.589 410.832 111.394C410.571 111.197 410.15 111.092 409.745 111.249C409.344 111.393 409.001 111.826 409.009 112.327C409.007 112.829 409.354 113.258 409.757 113.398C410.163 113.549 410.585 113.439 410.842 113.24C411.109 113.041 411.232 112.783 411.284 112.604C411.336 112.423 411.336 112.314 411.35 112.314C411.358 112.313 411.381 112.423 411.345 112.619C411.31 112.812 411.196 113.101 410.913 113.332C410.639 113.562 410.171 113.703 409.707 113.54C409.248 113.392 408.843 112.904 408.846 112.328C408.837 111.753 409.235 111.261 409.693 111.107C410.155 110.939 410.625 111.073 410.901 111.301C411.187 111.528 411.304 111.817 411.341 112.008C411.379 112.205 411.358 112.314 411.35 112.314Z" fill="#1A2E35"/>
<path d="M416.651 97.8192C416.663 99.741 415.124 101.308 413.214 101.319C411.304 101.331 409.745 99.7822 409.734 97.8604C409.723 95.9377 411.263 94.3714 413.173 94.3596C415.083 94.3488 416.64 95.8974 416.651 97.8192Z" fill="#4CD79D"/>
<path d="M413.618 96.4986L413.598 99.1401L412.99 99.1352L413.007 96.9846L412.482 96.9807L412.486 96.4897L413.618 96.4986Z" fill="white"/>
<path d="M386.52 451.723H285.638C278.155 451.723 272.088 445.62 272.088 438.091V431.559C272.088 424.03 278.155 417.926 285.638 417.926H386.52C394.003 417.926 400.069 424.03 400.069 431.559V438.091C400.069 445.62 394.003 451.723 386.52 451.723Z" fill="#4CD79D"/>
<g opacity="0.300003">
<path d="M386.52 451.723H285.638C278.155 451.723 272.088 445.62 272.088 438.091V431.559C272.088 424.03 278.155 417.926 285.638 417.926H386.52C394.003 417.926 400.069 424.03 400.069 431.559V438.091C400.069 445.62 394.003 451.723 386.52 451.723Z" fill="black"/>
</g>
<path d="M381.552 451.723H280.67C273.187 451.723 267.121 445.62 267.121 438.091V431.559C267.121 424.03 273.187 417.926 280.67 417.926H381.552C389.035 417.926 395.102 424.03 395.102 431.559V438.091C395.102 445.62 389.035 451.723 381.552 451.723Z" fill="#4CD79D"/>
<path d="M326.131 432.969C326.131 431.827 325.371 431.176 323.918 431.176H321.99V434.761H323.918C325.371 434.761 326.131 434.11 326.131 432.969ZM327.266 432.969C327.266 434.704 326.019 435.755 323.952 435.755H321.99V438.175H320.855V430.183H323.952C326.019 430.183 327.266 431.233 327.266 432.969Z" fill="white"/>
<path d="M333.198 435.263L331.485 431.348L329.771 435.263H333.198ZM333.595 436.178H329.375L328.501 438.175H327.332L330.929 430.183H332.052L335.66 438.175H334.47L333.595 436.178Z" fill="white"/>
<path d="M339.405 435.413V438.175H338.282V435.389L335.127 430.184H336.341L338.884 434.396L341.437 430.184H342.559L339.405 435.413Z" fill="white"/>
<path d="M297.38 297.951C297.956 294.197 296.985 290.227 294.743 287.17C292.5 284.113 289.017 282.009 285.282 281.455C284.932 281.402 284.545 281.373 284.254 281.574C283.84 281.862 283.823 282.463 283.87 282.966C284.21 286.608 285.724 290.129 288.129 292.873C290.532 295.617 293.815 297.569 297.363 298.365" fill="#375A64"/>
<path d="M277.263 324.608C280.887 332.118 286.09 337.177 292.537 337.423C293.827 337.468 294.802 336.616 296.031 336.542C296.662 336.585 297.395 337.033 298.096 337.324C298.47 337.468 298.84 337.582 299.17 337.568C305.832 337.209 311.509 332.492 315.335 324.608C320.662 313.564 319.016 301.7 311.665 298.096C310.618 297.576 309.63 297.188 308.657 296.913C307.466 296.597 306.292 296.437 305.001 296.48C302.738 296.525 300.144 297.144 296.647 298.383C296.534 298.428 296.404 298.472 296.29 298.514C290.316 295.861 285.543 295.845 280.917 298.096C273.566 301.7 271.932 313.564 277.263 324.608Z" fill="#4CD79D"/>
<path d="M277.392 313.421C277.348 313.44 276.97 312.625 276.782 311.2C276.587 309.784 276.686 307.747 277.442 305.677C278.206 303.61 279.447 301.998 280.51 301.048C281.575 300.09 282.387 299.718 282.41 299.762C282.459 299.838 281.725 300.315 280.76 301.308C279.792 302.295 278.653 303.869 277.918 305.855C277.194 307.843 277.042 309.784 277.139 311.167C277.231 312.553 277.481 313.396 277.392 313.421Z" fill="#FAFAFA"/>
<path d="M278.742 318.671C278.605 318.702 278.369 318.182 278.214 317.506C278.06 316.831 278.045 316.259 278.182 316.228C278.318 316.195 278.554 316.718 278.71 317.391C278.864 318.067 278.879 318.639 278.742 318.671Z" fill="#FAFAFA"/>
<path d="M312.572 279.885C312.61 279.978 311.194 280.508 309.123 281.755C308.082 282.37 306.909 283.208 305.679 284.225C304.47 285.265 303.216 286.498 302.043 287.922C300.888 289.36 299.934 290.842 299.16 292.241C298.412 293.654 297.829 294.978 297.435 296.125C296.631 298.415 296.393 299.915 296.295 299.897C296.261 299.891 296.303 299.515 296.408 298.836C296.456 298.495 296.529 298.081 296.655 297.61C296.776 297.136 296.888 296.589 297.095 296.01C297.45 294.832 298.009 293.471 298.747 292.018C299.512 290.583 300.473 289.063 301.651 287.598C302.844 286.147 304.133 284.899 305.381 283.862C306.649 282.846 307.865 282.026 308.943 281.443C309.466 281.124 309.978 280.905 310.414 280.692C310.848 280.475 311.238 280.321 311.56 280.206C312.201 279.967 312.559 279.852 312.572 279.885Z" fill="#1A2E35"/>
<path d="M402.963 177.107C397.004 168.735 384.343 163 374.056 164.54C365.715 165.789 358.344 169.687 354.303 178.016C353.161 180.368 354.624 183.158 357.207 183.468C371.077 185.133 385.152 185.087 399.012 183.326C401.153 183.053 403.696 182.457 403.843 179.794C403.896 178.828 403.524 177.894 402.963 177.107Z" fill="#4CD79D"/>
<path d="M370.032 176.694C369.982 176.732 369.556 176.308 368.984 175.52C368.425 174.732 367.73 173.525 367.405 172.044C367.084 170.566 367.099 169.217 367.096 168.253C367.109 167.287 367.154 166.691 367.224 166.688C367.294 166.686 367.376 167.28 367.455 168.241C367.548 169.197 367.594 170.529 367.9 171.931C368.208 173.333 368.813 174.499 369.286 175.323C369.768 176.144 370.093 176.647 370.032 176.694Z" fill="#1A2E35"/>
<path d="M378.87 176.281C378.718 176.266 378.937 173.901 378.627 171.014C378.335 168.125 377.63 165.858 377.778 165.81C377.894 165.759 378.832 168.001 379.133 170.961C379.45 173.918 378.995 176.307 378.87 176.281Z" fill="#1A2E35"/>
<path d="M388.002 174.927C387.86 174.865 388.546 173.279 388.713 171.197C388.904 169.117 388.501 167.436 388.651 167.398C388.767 167.346 389.418 169.049 389.22 171.241C389.039 173.434 388.107 174.999 388.002 174.927Z" fill="#1A2E35"/>
<g opacity="0.300003">
<path d="M377.246 164.937C377.274 164.984 377.297 165.037 377.325 165.084C377.326 165.081 377.327 165.079 377.329 165.077L377.246 164.937Z" fill="black"/>
</g>
<g opacity="0.300003">
<path d="M377.325 165.084C375.589 168.079 375.806 172.448 378.787 175.606C379.631 172.172 379.134 168.124 377.325 165.084Z" fill="black"/>
</g>
<g opacity="0.300003">
<path d="M368.835 175.216C367.888 173.5 367.318 171.574 367.178 169.615C367.116 168.748 367.121 167.849 366.798 167.047C365.786 168.319 365.263 169.979 365.384 171.604C365.511 173.313 366.339 174.957 367.634 176.069C367.835 176.242 368.056 176.407 368.314 176.462C368.573 176.517 368.878 176.434 369.012 176.204C369.187 175.9 369.004 175.522 368.835 175.216Z" fill="black"/>
</g>
<g opacity="0.300003">
<path d="M388.797 168.175C388.743 167.843 388.686 167.5 388.508 167.213C388.331 166.925 388.003 166.705 387.672 166.762C387.211 166.84 386.989 167.361 386.851 167.809C386.238 169.792 385.685 171.903 386.174 173.92C386.287 174.389 386.583 174.933 387.061 174.899C387.426 174.874 387.666 174.514 387.832 174.187C388.854 172.177 389.035 170.42 388.797 168.175Z" fill="black"/>
</g>
<path d="M276.072 229.432C276.072 229.029 275.713 228.84 275.222 228.7V230.156C275.818 230.065 276.072 229.785 276.072 229.432ZM274.552 227.532V226.068C273.972 226.158 273.726 226.455 273.726 226.816C273.726 227.211 274.077 227.392 274.552 227.532ZM275.222 231.052V231.974H274.552V231.061C273.75 231.011 272.973 230.748 272.549 230.378L272.917 229.548C273.318 229.877 273.931 230.114 274.552 230.172V228.528C273.645 228.306 272.672 228.009 272.672 226.866C272.672 226.026 273.277 225.295 274.552 225.171V224.241H275.222V225.154C275.827 225.188 276.44 225.368 276.882 225.656L276.547 226.487C276.113 226.233 275.655 226.092 275.222 226.043V227.705C276.13 227.927 277.118 228.214 277.118 229.358C277.118 230.197 276.506 230.922 275.222 231.052Z" fill="#1A2E35"/>
<path d="M282.003 225.229V230.987H280.94V226.125H279.73V225.229H282.003Z" fill="#1A2E35"/>
<path d="M284.449 230.362C284.449 230.543 284.408 230.691 284.262 231.07L283.844 232.229H283.182L283.509 230.971C283.28 230.872 283.125 230.658 283.125 230.362C283.125 229.95 283.412 229.679 283.787 229.679C284.171 229.679 284.449 229.958 284.449 230.362Z" fill="#1A2E35"/>
<path d="M289.301 229.218C289.301 230.231 288.573 231.069 287.037 231.069C286.227 231.069 285.41 230.823 284.887 230.404L285.336 229.572C285.752 229.917 286.374 230.139 287.019 230.139C287.78 230.139 288.23 229.803 288.23 229.26C288.23 228.709 287.878 228.363 286.692 228.363H285.311L285.605 225.229H288.965V226.126H286.505L286.382 227.459H286.929C288.623 227.459 289.301 228.198 289.301 229.218Z" fill="#1A2E35"/>
<path d="M293.629 228.108C293.629 226.717 293.089 226.076 292.304 226.076C291.527 226.076 290.988 226.717 290.988 228.108C290.988 229.498 291.527 230.139 292.304 230.139C293.089 230.139 293.629 229.498 293.629 228.108ZM289.916 228.108C289.916 226.215 290.947 225.146 292.304 225.146C293.67 225.146 294.7 226.215 294.7 228.108C294.7 230 293.67 231.069 292.304 231.069C290.947 231.069 289.916 230 289.916 228.108Z" fill="#1A2E35"/>
<path d="M318.357 238.325C318.357 238.467 307.86 238.581 294.914 238.581C281.965 238.581 271.471 238.467 271.471 238.325C271.471 238.184 281.965 238.07 294.914 238.07C307.86 238.07 318.357 238.184 318.357 238.325Z" fill="#1A2E35"/>
<path d="M293.316 242.164C293.316 242.306 288.442 242.421 282.432 242.421C276.419 242.421 271.547 242.306 271.547 242.164C271.547 242.023 276.419 241.909 282.432 241.909C288.442 241.909 293.316 242.023 293.316 242.164Z" fill="#1A2E35"/>
<path d="M358.221 205.889C358.221 205.486 357.861 205.297 357.371 205.157V206.613C357.967 206.522 358.221 206.243 358.221 205.889ZM356.7 203.989V202.525C356.12 202.615 355.874 202.912 355.874 203.273C355.874 203.668 356.226 203.849 356.7 203.989ZM357.371 207.509V208.431H356.7V207.518C355.899 207.468 355.122 207.205 354.697 206.835L355.065 206.005C355.466 206.334 356.079 206.571 356.7 206.629V204.985C355.793 204.763 354.82 204.466 354.82 203.323C354.82 202.483 355.425 201.752 356.7 201.628V200.698H357.371V201.611C357.976 201.645 358.589 201.825 359.031 202.113L358.695 202.944C358.262 202.69 357.804 202.549 357.371 202.5V204.162C358.278 204.384 359.267 204.671 359.267 205.815C359.267 206.654 358.654 207.379 357.371 207.509Z" fill="#1A2E35"/>
<path d="M366.321 206.539V207.444H362.101V206.728L364.375 204.557C364.93 204.022 365.028 203.685 365.028 203.363C365.028 202.837 364.669 202.533 363.966 202.533C363.41 202.533 362.944 202.722 362.625 203.134L361.881 202.557C362.322 201.957 363.115 201.604 364.055 201.604C365.298 201.604 366.099 202.237 366.099 203.256C366.099 203.816 365.944 204.327 365.151 205.075L363.622 206.539H366.321Z" fill="#1A2E35"/>
<path d="M368.324 206.819C368.324 207 368.283 207.148 368.137 207.527L367.719 208.687H367.057L367.384 207.428C367.155 207.329 367 207.115 367 206.819C367 206.407 367.287 206.136 367.662 206.136C368.046 206.136 368.324 206.415 368.324 206.819Z" fill="#1A2E35"/>
<path d="M373.241 206.539V207.444H369.021V206.728L371.294 204.557C371.85 204.022 371.948 203.685 371.948 203.363C371.948 202.837 371.589 202.533 370.886 202.533C370.33 202.533 369.864 202.722 369.544 203.134L368.801 202.557C369.242 201.957 370.035 201.604 370.975 201.604C372.218 201.604 373.019 202.237 373.019 203.256C373.019 203.816 372.864 204.327 372.071 205.075L370.542 206.539H373.241Z" fill="#1A2E35"/>
<path d="M378.018 205.675C378.018 206.687 377.29 207.526 375.754 207.526C374.944 207.526 374.127 207.28 373.604 206.86L374.052 206.029C374.469 206.374 375.091 206.596 375.736 206.596C376.496 206.596 376.946 206.259 376.946 205.716C376.946 205.165 376.595 204.82 375.409 204.82H374.028L374.322 201.686H377.682V202.583H375.222L375.099 203.915H375.646C377.34 203.915 378.018 204.655 378.018 205.675Z" fill="#1A2E35"/>
<path d="M400.505 214.783C400.505 214.924 390.008 215.038 377.063 215.038C364.113 215.038 353.619 214.924 353.619 214.783C353.619 214.642 364.113 214.528 377.063 214.528C390.008 214.528 400.505 214.642 400.505 214.783Z" fill="#1A2E35"/>
<path d="M375.464 218.623C375.464 218.764 370.591 218.878 364.581 218.878C358.568 218.878 353.695 218.764 353.695 218.623C353.695 218.481 358.568 218.367 364.581 218.367C370.591 218.367 375.464 218.481 375.464 218.623Z" fill="#1A2E35"/>
<path d="M274.201 348.944C274.201 348.54 273.842 348.351 273.351 348.211V349.668C273.947 349.577 274.201 349.297 274.201 348.944ZM272.68 347.043V345.579C272.101 345.67 271.855 345.966 271.855 346.328C271.855 346.723 272.206 346.903 272.68 347.043ZM273.351 350.564V351.485H272.68V350.572C271.879 350.523 271.102 350.26 270.678 349.89L271.046 349.059C271.447 349.388 272.06 349.626 272.68 349.684V348.039C271.774 347.818 270.801 347.521 270.801 346.377C270.801 345.537 271.406 344.806 272.68 344.682V343.753H273.351V344.666C273.956 344.699 274.569 344.879 275.011 345.167L274.675 345.999C274.242 345.744 273.784 345.604 273.351 345.555V347.216C274.259 347.439 275.247 347.726 275.247 348.87C275.247 349.709 274.634 350.433 273.351 350.564Z" fill="#1A2E35"/>
<path d="M281.867 347.62C281.867 346.229 281.327 345.588 280.543 345.588C279.766 345.588 279.226 346.229 279.226 347.62C279.226 349.009 279.766 349.65 280.543 349.65C281.327 349.65 281.867 349.009 281.867 347.62ZM278.154 347.62C278.154 345.727 279.185 344.658 280.543 344.658C281.908 344.658 282.939 345.727 282.939 347.62C282.939 349.512 281.908 350.581 280.543 350.581C279.185 350.581 278.154 349.512 278.154 347.62Z" fill="#1A2E35"/>
<path d="M284.871 349.873C284.871 350.055 284.83 350.202 284.684 350.581L284.266 351.74H283.603L283.93 350.482C283.702 350.384 283.547 350.17 283.547 349.873C283.547 349.462 283.834 349.191 284.209 349.191C284.593 349.191 284.871 349.471 284.871 349.873Z" fill="#1A2E35"/>
<path d="M289.719 348.73C289.719 349.742 288.991 350.581 287.455 350.581C286.645 350.581 285.828 350.334 285.305 349.915L285.754 349.084C286.17 349.429 286.792 349.65 287.437 349.65C288.198 349.65 288.647 349.315 288.647 348.771C288.647 348.22 288.296 347.875 287.11 347.875H285.729L286.023 344.74H289.383V345.637H286.923L286.8 346.97H287.347C289.041 346.97 289.719 347.71 289.719 348.73Z" fill="#1A2E35"/>
<path d="M294.049 347.62C294.049 346.229 293.509 345.588 292.724 345.588C291.947 345.588 291.408 346.229 291.408 347.62C291.408 349.009 291.947 349.65 292.724 349.65C293.509 349.65 294.049 349.009 294.049 347.62ZM290.336 347.62C290.336 345.727 291.367 344.658 292.724 344.658C294.09 344.658 295.12 345.727 295.12 347.62C295.12 349.512 294.09 350.581 292.724 350.581C291.367 350.581 290.336 349.512 290.336 347.62Z" fill="#1A2E35"/>
<path d="M316.486 357.838C316.486 357.979 305.99 358.093 293.044 358.093C280.095 358.093 269.6 357.979 269.6 357.838C269.6 357.695 280.095 357.581 293.044 357.581C305.99 357.581 316.486 357.695 316.486 357.838Z" fill="#1A2E35"/>
<path d="M291.444 361.677C291.444 361.819 286.571 361.933 280.561 361.933C274.548 361.933 269.676 361.819 269.676 361.677C269.676 361.535 274.548 361.421 280.561 361.421C286.571 361.421 291.444 361.535 291.444 361.677Z" fill="#1A2E35"/>
<path d="M354.42 317.785C354.42 317.381 354.061 317.192 353.57 317.052V318.508C354.166 318.418 354.42 318.138 354.42 317.785ZM352.899 315.884V314.419C352.319 314.511 352.074 314.806 352.074 315.169C352.074 315.563 352.425 315.744 352.899 315.884ZM353.57 319.405V320.326H352.899V319.413C352.098 319.364 351.321 319.101 350.896 318.73L351.264 317.9C351.666 318.229 352.279 318.467 352.899 318.525V316.879C351.993 316.658 351.019 316.362 351.019 315.218C351.019 314.378 351.625 313.647 352.899 313.523V312.594H353.57V313.507C354.175 313.54 354.788 313.72 355.23 314.008L354.894 314.84C354.461 314.584 354.003 314.445 353.57 314.396V316.056C354.477 316.279 355.466 316.567 355.466 317.711C355.466 318.55 354.853 319.273 353.57 319.405Z" fill="#1A2E35"/>
<path d="M360.352 313.58V319.339H359.289V314.477H358.08V313.58H360.352Z" fill="#1A2E35"/>
<path d="M362.797 318.714C362.797 318.896 362.756 319.043 362.61 319.422L362.192 320.581H361.529L361.856 319.323C361.628 319.225 361.473 319.011 361.473 318.714C361.473 318.303 361.76 318.032 362.134 318.032C362.519 318.032 362.797 318.311 362.797 318.714Z" fill="#1A2E35"/>
<path d="M367.101 316.46C367.101 315.07 366.562 314.429 365.777 314.429C365 314.429 364.46 315.07 364.46 316.46C364.46 317.85 365 318.491 365.777 318.491C366.562 318.491 367.101 317.85 367.101 316.46ZM363.389 316.46C363.389 314.568 364.419 313.499 365.777 313.499C367.142 313.499 368.173 314.568 368.173 316.46C368.173 318.353 367.142 319.422 365.777 319.422C364.419 319.422 363.389 318.353 363.389 316.46Z" fill="#1A2E35"/>
<path d="M372.605 316.46C372.605 315.07 372.066 314.429 371.281 314.429C370.504 314.429 369.964 315.07 369.964 316.46C369.964 317.85 370.504 318.491 371.281 318.491C372.066 318.491 372.605 317.85 372.605 316.46ZM368.893 316.46C368.893 314.568 369.923 313.499 371.281 313.499C372.646 313.499 373.677 314.568 373.677 316.46C373.677 318.353 372.646 319.422 371.281 319.422C369.923 319.422 368.893 318.353 368.893 316.46Z" fill="#1A2E35"/>
<path d="M396.706 326.677C396.706 326.819 386.209 326.933 373.264 326.933C360.314 326.933 349.82 326.819 349.82 326.677C349.82 326.535 360.314 326.421 373.264 326.421C386.209 326.421 396.706 326.535 396.706 326.677Z" fill="#1A2E35"/>
<path d="M371.663 330.516C371.663 330.659 366.79 330.772 360.78 330.772C354.767 330.772 349.895 330.659 349.895 330.516C349.895 330.375 354.767 330.261 360.78 330.261C366.79 330.261 371.663 330.375 371.663 330.516Z" fill="#1A2E35"/>
<path d="M361.388 106.572C361.388 106.714 350.075 106.828 336.123 106.828C322.166 106.828 310.857 106.714 310.857 106.572C310.857 106.431 322.166 106.317 336.123 106.317C350.075 106.317 361.388 106.431 361.388 106.572Z" fill="#4CD79D"/>
<path d="M32.3142 411.508C32.3142 411.508 27.28 411.508 25.9751 416.949C24.6692 422.389 24.4838 424.264 24.4838 424.264C24.4838 424.264 18.7547 429.444 24.4838 430.831C30.2119 432.219 32.3142 424.453 32.3142 424.453L33.1965 411.508H32.3142Z" fill="#FFBF9D"/>
<path d="M89.6836 312.268C89.6836 312.268 107.586 251.788 109.41 249.18C112.419 244.873 141.393 231.912 141.393 231.912L149.163 215.959L197.333 208.213L209.263 223.671L242.807 248.395L240.467 333.949L239.222 393.687L245.569 468.254L93.2167 468.021L100.109 452.316L107.344 316.689L89.6836 312.268Z" fill="#4CD79D"/>
<path d="M110.329 304.114C110.312 304.115 110.291 303.947 110.269 303.626C110.248 303.246 110.225 302.784 110.195 302.224C110.139 301.006 110.088 299.244 110.048 297.066C109.968 292.709 109.964 286.687 110.153 280.04C110.343 273.391 110.689 267.378 111.018 263.033C111.181 260.86 111.333 259.104 111.458 257.892C111.519 257.335 111.57 256.874 111.611 256.497C111.652 256.179 111.682 256.012 111.7 256.013C111.717 256.015 111.721 256.183 111.713 256.505C111.698 256.884 111.678 257.347 111.655 257.906C111.584 259.202 111.491 260.941 111.376 263.056C111.14 267.404 110.851 273.412 110.66 280.055C110.473 286.695 110.419 292.709 110.408 297.063C110.401 299.182 110.397 300.924 110.393 302.22C110.384 302.781 110.377 303.243 110.371 303.624C110.36 303.945 110.347 304.114 110.329 304.114Z" fill="#1A2E35"/>
<g opacity="0.300003">
<path d="M144.836 286.723C144.804 286.011 145.019 285.372 145.398 284.832C146.539 283.214 149.168 282.49 151.085 283.412C153.64 284.641 154.907 287.585 155.42 290.386C155.981 293.453 155.898 296.61 156.473 299.674C157.047 302.738 158.442 305.865 161.11 307.449C164.419 309.413 168.762 308.524 172.237 310.171C177.413 312.623 178.611 319.39 178.87 325.14C179.361 336.026 178.893 346.931 178.425 357.817C177.428 381 176.431 404.181 175.435 427.364L172.716 462.253L158.696 468.248L140.156 345.674L144.836 286.723Z" fill="black"/>
</g>
<path d="M148.83 276.808C148.837 276.821 148.719 276.902 148.466 277.005C148.212 277.101 147.804 277.189 147.283 277.123C146.272 277.01 144.728 276.159 144.099 274.323C143.796 273.429 143.721 272.383 143.816 271.299C143.909 270.211 144.151 269.084 144.378 267.905C144.848 265.534 145.362 262.942 145.901 260.22C146.996 254.77 148.015 249.842 148.777 246.28C149.155 244.567 149.467 243.149 149.706 242.067C149.937 241.074 150.08 240.528 150.114 240.535C150.15 240.543 150.071 241.102 149.901 242.107C149.703 243.197 149.443 244.626 149.13 246.351C148.457 249.932 147.494 254.871 146.4 260.322C145.846 263.04 145.319 265.629 144.837 267.998C144.332 270.338 143.883 272.503 144.441 274.211C144.968 275.907 146.38 276.768 147.313 276.926C148.294 277.1 148.816 276.742 148.83 276.808Z" fill="#1A2E35"/>
<path d="M153.786 254.056C153.788 254.107 153.388 254.104 152.724 254.313C152.069 254.518 151.136 255.005 150.373 255.98C149.613 256.925 149.086 258.468 149.648 260.005C150.155 261.506 151.628 262.938 153.467 263.101C155.311 263.233 156.989 262.055 157.727 260.653C158.525 259.225 158.246 257.617 157.644 256.563C157.044 255.478 156.2 254.849 155.585 254.542C154.962 254.229 154.567 254.168 154.577 254.119C154.58 254.103 154.678 254.107 154.866 254.132C155.055 254.156 155.332 254.221 155.667 254.362C156.335 254.625 157.269 255.243 157.956 256.382C158.29 256.948 158.563 257.644 158.634 258.431C158.7 259.215 158.561 260.089 158.141 260.872C157.345 262.433 155.523 263.753 153.427 263.61C151.334 263.416 149.744 261.823 149.204 260.157C148.913 259.315 148.913 258.43 149.101 257.668C149.295 256.901 149.674 256.259 150.094 255.753C150.951 254.736 151.97 254.275 152.671 254.12C153.025 254.036 153.308 254.015 153.498 254.023C153.687 254.028 153.786 254.039 153.786 254.056Z" fill="#1A2E35"/>
<path d="M170.175 316.575L82.1746 300.557L41.1035 309.62L133.023 326.273L170.175 316.575Z" fill="#4CD79D"/>
<g opacity="0.600006">
<path d="M170.175 316.575L82.1746 300.557L41.1035 309.62L133.023 326.273L170.175 316.575Z" fill="black"/>
</g>
<path d="M113.91 355.185C115.104 338.867 119.551 297.421 122.888 281.406C123.888 276.614 125.037 271.71 127.808 267.685C130.579 263.661 135.361 260.665 140.17 261.41C144.465 262.075 147.911 265.581 149.655 269.584C151.399 273.588 152.051 278.058 151.869 282.426C151.041 302.22 149.341 324.397 149.357 342.751" fill="#375A64"/>
<path d="M143.711 316.324C143.728 316.403 142.46 316.731 140.447 317.364C138.432 317.995 135.682 318.97 132.753 320.303C129.824 321.643 127.284 323.082 125.485 324.191C123.685 325.299 122.605 326.042 122.558 325.976C122.537 325.948 122.784 325.73 123.251 325.361C123.714 324.988 124.411 324.483 125.292 323.886C127.051 322.693 129.589 321.189 132.543 319.838C135.499 318.492 138.295 317.563 140.346 317.017C141.372 316.743 142.209 316.549 142.794 316.443C143.377 316.334 143.703 316.29 143.711 316.324Z" fill="#1A2E35"/>
<path d="M145.175 297.485C145.193 297.568 143.853 297.863 141.744 298.519C139.637 299.171 136.775 300.245 133.797 301.816C130.821 303.395 128.319 305.156 126.59 306.534C124.858 307.909 123.857 308.853 123.799 308.792C123.774 308.765 124.001 308.506 124.433 308.056C124.861 307.602 125.517 306.983 126.362 306.254C128.047 304.794 130.549 302.96 133.561 301.363C136.574 299.773 139.494 298.739 141.644 298.17C142.719 297.885 143.6 297.691 144.214 297.593C144.828 297.491 145.168 297.451 145.175 297.485Z" fill="#1A2E35"/>
<path d="M143.195 282.325C143.198 282.413 142.152 282.461 140.502 282.765C138.856 283.066 136.612 283.696 134.325 284.837C132.04 285.987 130.189 287.409 128.958 288.55C127.723 289.69 127.055 290.503 126.988 290.448C126.96 290.425 127.103 290.203 127.386 289.818C127.663 289.428 128.114 288.902 128.709 288.29C129.896 287.062 131.759 285.556 134.098 284.38C136.44 283.21 138.757 282.622 140.446 282.409C141.291 282.3 141.98 282.255 142.456 282.267C142.932 282.27 143.194 282.29 143.195 282.325Z" fill="#1A2E35"/>
<path d="M132.268 329.543C132.268 329.586 132.284 329.614 132.284 329.628V386.285C132.284 388.769 130.297 391.337 126.636 393.28C122.989 395.219 117.654 396.549 110.997 396.563H110.914C97.5872 396.537 89.627 391.267 89.627 386.285V329.628C89.627 329.614 89.6406 329.586 89.6406 329.543C89.6406 329.515 89.627 329.473 89.627 329.43C89.6553 323.89 93.6998 318.107 97.7726 312.396C100.51 308.583 101.163 303.087 101.291 299.86C101.305 299.475 101.319 299.131 101.319 298.818H100.951C99.1908 298.818 97.7726 297.59 97.7726 296.075V293.678C97.7726 292.149 99.1908 290.922 100.951 290.922H120.959C122.279 290.922 123.415 291.608 123.896 292.592C124.052 292.936 124.137 293.292 124.137 293.678V296.075C124.137 297.59 122.719 298.818 120.959 298.818H120.591C120.591 299.131 120.605 299.475 120.618 299.86C120.746 303.087 121.401 308.583 124.137 312.396C128.211 318.107 132.255 323.89 132.284 329.43C132.284 329.473 132.268 329.515 132.268 329.543Z" fill="#FAFAFA"/>
<path d="M132.269 329.543C132.269 329.543 132.274 329.348 132.238 328.963C132.226 328.579 132.156 328.01 132.031 327.269C131.753 325.794 131.071 323.655 129.703 321.125C128.351 318.586 126.344 315.68 123.941 312.334C122.735 310.632 121.899 308.528 121.33 306.241C120.764 303.945 120.469 301.452 120.425 298.818L120.423 298.644L120.591 298.651C121.346 298.68 122.079 298.56 122.717 298.159C123.346 297.775 123.84 297.127 123.94 296.381C123.986 295.626 123.95 294.77 123.959 293.953C124.023 293.14 123.714 292.375 123.091 291.862C122.481 291.342 121.664 291.086 120.83 291.111C119.966 291.113 119.091 291.114 118.206 291.116C116.436 291.119 114.626 291.121 112.778 291.124C109.083 291.129 105.237 291.134 101.253 291.14C100.285 291.09 99.3243 291.382 98.6597 292.071C98.3425 292.412 98.1024 292.837 98.0302 293.299C97.9628 293.738 98.0087 294.302 97.996 294.807C98.0038 295.312 97.9804 295.872 98.0136 296.338C98.0751 296.807 98.2878 297.255 98.6158 297.61C99.2804 298.341 100.285 298.653 101.32 298.588L101.553 298.573L101.549 298.818C101.517 301.086 101.299 303.389 100.799 305.684C100.292 307.967 99.502 310.273 98.1287 312.297C96.7526 314.265 95.3335 316.224 94.0344 318.305C92.7402 320.379 91.5134 322.554 90.7121 324.917C90.3139 326.095 90.0211 327.319 89.9186 328.566C89.8542 329.8 89.8835 331.11 89.8776 332.392C89.8776 334.971 89.8786 337.578 89.8796 340.206C89.8796 345.466 89.8806 350.82 89.8815 356.245C89.8796 365.787 89.8776 375.104 89.8757 384.102C89.8991 385.218 89.7957 386.376 90.027 387.387C90.2544 388.429 90.8653 389.354 91.5642 390.156C92.9979 391.76 94.8777 392.906 96.8219 393.759C98.7768 394.609 100.826 395.172 102.875 395.574C104.924 395.993 106.991 396.182 109.031 396.278C113.113 396.454 117.128 396.118 120.883 395.191C122.754 394.712 124.567 394.091 126.234 393.239C127.895 392.394 129.439 391.328 130.589 389.948C131.165 389.263 131.607 388.48 131.869 387.653C132.137 386.827 132.071 385.947 132.081 385.049C132.084 383.276 132.087 381.535 132.089 379.829C132.095 376.417 132.099 373.142 132.105 370.016C132.139 357.522 132.167 347.409 132.186 340.401C132.209 333.409 132.269 329.543 132.269 329.543C132.293 329.542 132.305 329.783 132.31 330.256C132.316 330.744 132.325 331.441 132.336 332.348C132.347 334.206 132.363 336.916 132.383 340.401C132.403 347.409 132.43 357.522 132.464 370.016C132.469 373.142 132.475 376.417 132.481 379.829C132.483 381.535 132.486 383.276 132.489 385.049C132.488 385.495 132.486 385.942 132.485 386.391C132.483 386.859 132.389 387.322 132.266 387.773C131.985 388.667 131.515 389.5 130.913 390.218C129.711 391.667 128.125 392.76 126.43 393.63C124.729 394.503 122.889 395.137 120.992 395.627C117.186 396.575 113.135 396.92 109.012 396.749C106.951 396.656 104.862 396.467 102.785 396.046C100.708 395.641 98.6265 395.073 96.6286 394.207C94.6415 393.337 92.7061 392.17 91.1952 390.484C90.4593 389.639 89.8015 388.653 89.5458 387.504C89.2881 386.336 89.4072 385.224 89.3779 384.102C89.377 375.104 89.375 365.787 89.373 356.245C89.374 350.82 89.374 345.466 89.375 340.206C89.375 337.578 89.376 334.971 89.377 332.392C89.3848 331.092 89.3535 329.838 89.4228 328.525C89.5302 327.227 89.8337 325.963 90.2436 324.756C91.0684 322.332 92.3147 320.132 93.6216 318.042C94.9323 315.949 96.3661 313.975 97.7335 312.023C99.0608 310.077 99.8397 307.826 100.342 305.582C100.836 303.33 101.058 301.047 101.092 298.818L101.32 299.047C100.248 299.118 99.0394 298.771 98.283 297.917C97.8994 297.499 97.6417 296.961 97.5685 296.392C97.5295 295.817 97.5588 295.336 97.551 294.807C97.5675 294.276 97.5129 293.802 97.5958 293.223C97.6847 292.666 97.9716 292.162 98.3444 291.764C99.1038 290.966 100.242 290.647 101.253 290.705C105.237 290.71 109.083 290.715 112.778 290.719C114.626 290.722 116.436 290.725 118.206 290.728C119.091 290.729 119.966 290.731 120.83 290.732C121.724 290.707 122.649 290.99 123.329 291.579C124.034 292.142 124.401 293.107 124.319 293.953C124.305 294.792 124.342 295.576 124.287 296.43C124.165 297.299 123.595 298.029 122.896 298.452C122.199 298.894 121.346 299.019 120.591 298.985L120.757 298.818C120.837 303.998 121.835 308.794 124.154 312.184C126.534 315.539 128.528 318.475 129.861 321.04C131.212 323.596 131.872 325.762 132.122 327.253C132.233 328.002 132.289 328.575 132.285 328.961C132.306 329.348 132.288 329.544 132.269 329.543Z" fill="#1A2E35"/>
<path d="M119.459 298.68C119.459 298.821 115.472 298.935 110.552 298.935C105.632 298.935 101.645 298.821 101.645 298.68C101.645 298.539 105.632 298.424 110.552 298.424C115.472 298.424 119.459 298.539 119.459 298.68Z" fill="#1A2E35"/>
<path d="M130.487 337.113C128.686 335.937 126.317 336.454 124.383 337.372C122.45 338.291 120.627 339.585 118.528 339.924C116.056 340.324 113.57 339.333 111.373 338.081C109.175 336.831 107.103 335.293 104.736 334.443C100.205 332.818 94.8428 334.089 91.4238 337.599V386.25C91.4238 386.25 94.0815 394.551 112.782 393.247C131.482 391.943 130.008 383.642 130.008 383.642L130.487 337.113Z" fill="#4CD79D"/>
<path d="M80.9455 303.999C81.495 300.416 80.5678 296.625 78.4274 293.709C76.288 290.79 72.9618 288.782 69.3965 288.254C69.0627 288.204 68.6928 288.175 68.4156 288.368C68.0203 288.642 68.0037 289.214 68.0486 289.696C68.3736 293.173 69.8191 296.533 72.1137 299.152C74.4082 301.771 77.5422 303.635 80.9289 304.394" fill="#375A64"/>
<path d="M61.7417 329.444C65.2007 336.613 70.1676 341.442 76.3212 341.676C77.552 341.719 78.4821 340.906 79.6572 340.836C80.2584 340.877 80.9572 341.305 81.6268 341.582C81.984 341.719 82.3383 341.828 82.6525 341.816C89.0122 341.472 94.4299 336.97 98.0821 329.444C103.167 318.902 101.596 307.578 94.5793 304.137C93.5798 303.642 92.637 303.272 91.7079 303.009C90.5728 302.706 89.4514 302.554 88.2187 302.596C86.0578 302.638 83.5827 303.231 80.2448 304.412C80.1374 304.454 80.0125 304.496 79.9032 304.538C74.2014 302.005 69.6464 301.989 65.23 304.137C58.2125 307.578 56.6529 318.902 61.7417 329.444Z" fill="#4CD79D"/>
<path d="M61.8643 318.766C61.8194 318.785 61.4563 318.009 61.2738 316.648C61.0854 315.294 61.1791 313.347 61.9004 311.37C62.6314 309.396 63.8182 307.856 64.8352 306.95C65.8532 306.035 66.631 305.685 66.6535 305.728C66.7033 305.804 66.0044 306.261 65.0851 307.21C64.1627 308.152 63.0784 309.655 62.3776 311.547C61.6866 313.443 61.5402 315.294 61.631 316.614C61.7169 317.936 61.9511 318.741 61.8643 318.766Z" fill="#FAFAFA"/>
<path d="M63.1533 323.777C63.0167 323.809 62.7864 323.312 62.638 322.669C62.4906 322.025 62.4819 321.477 62.6185 321.444C62.7551 321.413 62.9855 321.91 63.1338 322.554C63.2812 323.197 63.29 323.746 63.1533 323.777Z" fill="#FAFAFA"/>
<path d="M95.4453 286.755C95.4823 286.846 94.1325 287.356 92.1571 288.547C91.1655 289.135 90.046 289.935 88.8738 290.906C87.7192 291.898 86.5227 293.076 85.4051 294.434C84.3023 295.806 83.3917 297.219 82.6528 298.555C81.9394 299.903 81.3811 301.166 81.0053 302.26C80.2353 304.444 80.0059 305.875 79.9093 305.857C79.8741 305.851 79.9122 305.491 80.0127 304.843C80.0576 304.518 80.126 304.123 80.246 303.672C80.3612 303.221 80.4676 302.697 80.6647 302.144C81.0034 301.017 81.5353 299.718 82.24 298.332C82.969 296.96 83.8865 295.509 85.0118 294.11C86.1518 292.724 87.3825 291.533 88.5752 290.541C89.7864 289.573 90.9478 288.791 91.9775 288.235C92.4772 287.93 92.9662 287.722 93.383 287.52C93.7987 287.312 94.1696 287.166 94.478 287.058C95.09 286.831 95.4326 286.722 95.4453 286.755Z" fill="#1A2E35"/>
<path d="M41.104 309.62L30.043 449.976L133.112 475.045C133.112 475.045 169.061 462.781 169.55 461.943C170.04 461.106 170.175 316.575 170.175 316.575L133.024 326.273L41.104 309.62Z" fill="#4CD79D"/>
<g opacity="0.399994">
<path d="M41.104 309.62L30.043 449.976L133.112 475.045C133.112 475.045 169.061 462.781 169.55 461.943C170.04 461.106 170.175 316.575 170.175 316.575L133.024 326.273L41.104 309.62Z" fill="black"/>
</g>
<path d="M202.757 146.137L197.01 228.049C196.071 241.422 185.015 251.789 171.691 251.789C157.02 251.789 145.399 239.307 146.362 224.579C146.872 216.782 147.333 210.397 147.333 210.397C147.333 210.397 127.624 207.315 127.38 187.488C127.24 176.037 129.203 150.051 130.886 130.143C132.023 116.685 143.221 106.353 156.645 106.353H168.549C189.051 107.559 204.521 125.551 202.757 146.137Z" fill="#FFBF9D"/>
<path d="M147.333 210.398C147.333 210.398 159.754 211.131 172.99 202.767C172.99 202.767 166.644 217.19 146.98 215.404L147.333 210.398Z" fill="#FF9A6C"/>
<path d="M134.584 150.594C134.933 150.964 137.065 149.376 140.093 149.385C143.118 149.348 145.34 150.917 145.668 150.543C145.83 150.377 145.475 149.712 144.507 149.003C143.554 148.297 141.93 147.61 140.044 147.618C138.158 147.629 136.571 148.327 135.658 149.042C134.727 149.761 134.412 150.429 134.584 150.594Z" fill="#1A2E35"/>
<path d="M167.361 154.093C167.309 155.588 168.523 156.865 170.074 156.95C171.622 157.033 172.922 155.892 172.975 154.396C173.028 152.902 171.813 151.621 170.265 151.538C168.714 151.454 167.414 152.598 167.361 154.093Z" fill="#1A2E35"/>
<path d="M137.316 154.093C137.264 155.588 138.478 156.865 140.029 156.95C141.577 157.033 142.877 155.892 142.93 154.396C142.983 152.902 141.769 151.621 140.22 151.538C138.669 151.454 137.369 152.598 137.316 154.093Z" fill="#1A2E35"/>
<path d="M164.048 150.594C164.398 150.964 166.532 149.377 169.559 149.385C172.583 149.349 174.806 150.917 175.134 150.543C175.295 150.378 174.943 149.712 173.972 149.003C173.019 148.297 171.395 147.611 169.509 147.618C167.622 147.629 166.036 148.327 165.124 149.043C164.194 149.762 163.877 150.429 164.048 150.594Z" fill="#1A2E35"/>
<path d="M153.057 173.19C153.071 173.016 151.189 172.689 148.139 172.297C147.365 172.217 146.633 172.063 146.503 171.532C146.321 170.969 146.645 170.131 147.02 169.225C147.747 167.342 148.507 165.369 149.306 163.301C152.482 154.866 154.781 147.93 154.442 147.804C154.103 147.679 151.255 154.413 148.079 162.849C147.314 164.929 146.583 166.911 145.888 168.808C145.596 169.692 145.092 170.695 145.487 171.861C145.695 172.444 146.263 172.865 146.758 173C147.255 173.152 147.689 173.161 148.072 173.183C151.141 173.349 153.045 173.364 153.057 173.19Z" fill="#1A2E35"/>
<path d="M161.97 175.298C161.478 175.269 161.471 178.576 158.657 180.923C155.849 183.278 152.346 182.907 152.32 183.37C152.274 183.577 153.101 184.012 154.579 184.052C156.03 184.102 158.148 183.634 159.87 182.197C161.585 180.757 162.324 178.837 162.436 177.481C162.561 176.098 162.194 175.278 161.97 175.298Z" fill="#1A2E35"/>
<path d="M163.266 140.691C163.564 141.519 166.588 141.127 170.14 141.558C173.702 141.917 176.567 142.963 177.038 142.221C177.249 141.865 176.749 141.085 175.591 140.283C174.443 139.483 172.611 138.722 170.478 138.482C168.345 138.248 166.393 138.589 165.099 139.118C163.795 139.648 163.138 140.299 163.266 140.691Z" fill="#1A2E35"/>
<path d="M135.006 141.872C135.539 142.564 137.624 141.846 140.133 141.811C142.64 141.689 144.766 142.278 145.254 141.553C145.468 141.201 145.135 140.509 144.206 139.853C143.292 139.2 141.762 138.667 140.039 138.72C138.314 138.775 136.821 139.401 135.949 140.11C135.062 140.821 134.771 141.534 135.006 141.872Z" fill="#1A2E35"/>
<path d="M196.113 161.018C196.449 160.872 209.652 156.989 209.222 170.544C208.791 184.098 195.356 180.868 195.344 180.478C195.333 180.088 196.113 161.018 196.113 161.018Z" fill="#FFBF9D"/>
<path d="M199.623 175.475C199.684 175.434 199.853 175.648 200.244 175.844C200.625 176.034 201.285 176.178 201.997 175.937C203.436 175.457 204.706 173.222 204.85 170.781C204.924 169.548 204.704 168.365 204.3 167.379C203.921 166.373 203.305 165.661 202.592 165.51C201.885 165.32 201.363 165.737 201.187 166.112C200.994 166.485 201.072 166.759 200.999 166.78C200.96 166.812 200.717 166.543 200.843 165.987C200.908 165.72 201.075 165.405 201.4 165.155C201.732 164.9 202.213 164.781 202.709 164.851C203.746 164.957 204.651 165.949 205.094 167.032C205.594 168.121 205.87 169.452 205.788 170.835C205.615 173.564 204.144 176.075 202.178 176.58C201.223 176.798 200.441 176.485 200.044 176.152C199.637 175.803 199.575 175.498 199.623 175.475Z" fill="#FF9A6C"/>
<path d="M203.609 160.559C201.554 160.059 198 161.967 197.124 163.903C196.248 165.838 196.055 168.031 195.182 169.968C194.309 171.905 192.334 173.657 190.277 173.167C188.858 172.829 187.843 171.491 187.469 170.073C187.094 168.656 187.246 167.158 187.429 165.703C188.223 159.372 189.546 153.095 189.798 146.72C190.051 140.344 189.149 133.721 185.822 128.288C182.495 122.857 176.383 118.863 170.063 119.376C165.876 119.716 162.035 121.912 157.876 122.499C152.944 123.193 147.73 121.442 144.202 117.906C143.75 117.453 141.646 116.058 141.646 116.058C141.646 115.73 141.955 112.898 143.064 111.866C151.316 104.188 166.186 102.044 177.086 104.805C187.987 107.564 198.204 115.307 202.894 125.586C207.584 135.864 206.192 150.159 203.609 160.559Z" fill="#1A2E35"/>
<path d="M128.729 126.566C130.496 130.683 134.998 133.079 139.433 133.533C143.868 133.987 148.295 132.829 152.584 131.606C156.872 130.383 168.374 128.463 172.83 128.6C173.498 128.62 174.298 128.608 174.652 128.039C175.122 127.287 174.37 126.376 173.676 125.829C167.803 121.2 153.605 118.361 146.151 118.045C138.696 117.729 130.869 120.954 126.832 127.267" fill="#1A2E35"/>
<path d="M130.668 127.084C130.668 127.084 182.364 110.349 204.727 155.351C204.727 155.351 208.07 144.088 208.07 138.052C208.07 134.02 205.672 110.008 181.115 102.455C181.115 102.455 144.121 88.2498 130.668 127.084Z" fill="#4CD79D"/>
<g opacity="0.399994">
<path d="M130.668 127.084C130.668 127.084 136.55 120.043 147.107 119.574C162.355 118.896 190.898 127.523 204.727 155.351C204.727 155.351 208.07 144.088 208.07 138.052C208.07 134.02 205.672 110.008 181.115 102.455C181.115 102.455 144.121 88.2498 130.668 127.084Z" fill="black"/>
</g>
<path d="M202.567 150.083C194.901 138.283 184.332 128.526 172.45 121.057C160.566 113.587 140.916 106.2 127.374 102.583C123.308 101.497 119.07 100.548 114.925 101.269C110.779 101.99 106.722 104.767 105.695 108.871C104.406 114.007 113.466 121.933 117.725 125.05C121.983 128.167 130.668 132.739 130.668 132.739C130.668 132.739 130.551 123.212 145.707 121.248C166.323 118.576 202.567 150.083 202.567 150.083Z" fill="#4CD79D"/>
<path d="M160.169 111.215C160.169 111.215 152.721 107.068 145.24 106.103C146.776 104.971 147.596 104.427 149.296 103.653C153.124 104.419 157.003 105.396 160.931 107.589L160.169 111.215Z" fill="#FAFAFA"/>
<path d="M225.114 246.323C225.114 246.323 210.984 262.572 212.544 285.189C212.761 288.326 212.914 292.698 213.298 295.821C215.68 315.221 219.365 333.228 219.365 333.228H220.71L269.989 320.986C269.989 320.986 262.564 277.941 260.859 272.23C255.398 253.936 236.669 243.872 236.669 243.872L225.114 246.323Z" fill="#4CD79D"/>
<path d="M169.551 461.943C169.551 461.943 169.535 461.696 169.529 461.212C169.526 460.713 169.522 459.997 169.516 459.059C169.513 457.152 169.51 454.359 169.507 450.757C169.52 443.52 169.538 433.039 169.562 420C169.652 393.895 169.779 357.557 169.923 316.575L170.239 316.821C164.245 318.387 157.913 320.039 151.492 321.716C145.188 323.361 138.969 324.984 133.087 326.519L133.276 326.269C133.527 346.816 133.459 366.199 133.363 383.714C133.258 401.226 133.166 416.873 133.087 429.96C133.035 443.041 133.039 453.553 133.071 460.796C133.085 464.408 133.097 467.207 133.106 469.12C133.106 470.06 133.105 470.778 133.105 471.278C133.102 471.763 133.089 472.012 133.089 472.012C133.089 472.012 133.07 471.764 133.057 471.278C133.046 470.779 133.031 470.06 133.01 469.122C132.982 467.208 132.94 464.409 132.886 460.797C132.797 453.555 132.741 443.041 132.749 429.959C132.795 416.873 132.85 401.224 132.913 383.712C132.981 366.197 133.029 346.817 132.771 326.276L132.769 326.077L132.961 326.027C138.842 324.491 145.06 322.868 151.364 321.221C157.786 319.545 164.118 317.894 170.112 316.329L170.429 316.247L170.427 316.577C170.218 357.559 170.033 393.896 169.9 420.002C169.811 433.04 169.74 443.521 169.691 450.758C169.656 454.36 169.629 457.152 169.61 459.059C169.596 459.997 169.586 460.714 169.578 461.212C169.568 461.696 169.551 461.943 169.551 461.943Z" fill="#1A2E35"/>
<path d="M146.733 217.096C146.733 217.096 144.761 235.962 151.089 238.898C158.206 242.199 165.297 238.972 169.659 236.171C181.282 228.708 198.562 207.977 198.562 207.977L210.239 223.282C210.239 223.282 180.748 258.942 174.822 258.712C170.958 258.561 164.918 254.75 161.184 252.115C159.129 250.667 157.299 248.929 155.748 246.944L150.647 240.416C144.279 243.579 139.125 247.628 135.559 252.83C135.559 252.83 133.856 239.622 136.912 233.623C139.967 227.624 146.059 217.299 146.059 217.299L146.733 217.096Z" fill="#4CD79D"/>
<path d="M136.528 234.14C136.536 234.144 136.497 234.255 136.412 234.464C136.315 234.699 136.189 235.004 136.031 235.389C135.768 236.228 135.376 237.47 135.158 239.132C134.67 242.437 134.543 247.325 135.168 253.275L134.821 253.208C136.265 250.633 138.444 248.155 141.141 245.961C143.828 243.745 146.964 241.714 150.488 239.997L150.648 239.919L150.768 240.061C152.823 242.468 154.998 244.975 157.298 247.513C159.592 250.05 162.057 252.605 164.996 254.66C166.374 255.625 167.842 256.428 169.377 256.992C170.145 257.265 170.93 257.493 171.715 257.629C172.504 257.751 173.299 257.782 174.083 257.717C177.254 257.424 179.951 255.596 182.166 253.669L182.148 253.686C190.32 244.92 197.337 237.392 202.337 232.028C204.821 229.389 206.803 227.285 208.189 225.813C208.858 225.114 209.383 224.566 209.764 224.17C209.932 224 210.069 223.864 210.178 223.753C210.273 223.661 210.323 223.616 210.328 223.621C210.334 223.626 210.293 223.68 210.208 223.781C210.107 223.899 209.98 224.045 209.825 224.226C209.458 224.635 208.952 225.201 208.306 225.922C206.943 227.416 204.996 229.554 202.555 232.233C197.589 237.627 190.618 245.199 182.501 254.016L182.492 254.026L182.482 254.034C181.344 255.022 180.116 255.982 178.721 256.74C177.34 257.51 175.777 258.067 174.126 258.22C173.302 258.29 172.463 258.259 171.634 258.131C170.804 257.987 170 257.753 169.204 257.472C167.62 256.89 166.113 256.065 164.707 255.081C161.714 252.987 159.225 250.399 156.928 247.853C154.625 245.304 152.456 242.791 150.404 240.372L150.685 240.436C147.213 242.114 144.077 244.124 141.415 246.297C138.737 248.456 136.58 250.882 135.146 253.388L134.855 253.897L134.8 253.32C134.217 247.325 134.4 242.423 134.955 239.099C135.206 237.431 135.633 236.184 135.931 235.351C136.109 234.945 136.264 234.644 136.363 234.441C136.465 234.237 136.52 234.136 136.528 234.14Z" fill="#1A2E35"/>
<g opacity="0.300003">
<path d="M137.248 250.041C136.8 250.788 137.19 252.527 137.969 252.91C138.748 253.293 139.715 253.013 140.395 252.473C141.076 251.931 141.54 251.171 142.036 250.455C143.204 248.767 144.612 247.247 146.204 245.958C147.776 244.683 149.937 243.603 151.741 244.512C152.941 245.117 153.594 246.423 154.182 247.637C156.626 252.678 159.569 257.809 164.358 260.679C169.171 263.563 175.309 263.688 180.59 261.808C185.871 259.929 190.359 256.221 193.98 251.921C197.601 247.62 200.435 242.717 203.239 237.839C205.446 233.999 207.686 230.045 208.373 225.664C207.761 226.008 206.342 228.212 205.73 228.557C205.73 228.557 182.986 253.768 180.843 255.061C178.7 256.355 172.81 265.074 156.109 246.245L150.586 240.216C150.586 240.216 140.069 245.338 137.248 250.041Z" fill="black"/>
</g>
<path d="M197.04 312.013L172.025 308.154L173.184 300.557L198.198 304.415L197.04 312.013Z" fill="white"/>
<path d="M265.856 321.937L226.773 331.431L231.281 368.489L156.523 424.978C153.531 425.399 150.472 425.885 148.772 426.312C144.683 427.341 137.463 437.661 135.418 438.689L120.851 450.004C120.851 450.004 119.572 455.147 126.218 454.118C132.863 453.09 140.275 447.946 141.042 447.946C141.808 447.946 144.137 449.514 143.037 452.833C142.058 455.787 138.053 465.91 138.053 465.91L133.111 475.045C133.111 475.045 154.5 475.749 160.484 467.763C164.546 462.343 177.052 446.972 177.052 446.972C177.052 446.972 265.05 403.413 270.332 394.294C277.505 381.911 265.856 321.937 265.856 321.937Z" fill="#FFBF9D"/>
<path d="M247.856 384.455C247.748 384.447 248.073 382.88 247.681 380.406C247.317 377.965 246.026 374.567 243.217 371.997C240.396 369.44 236.906 368.486 234.456 368.365C231.968 368.221 230.451 368.702 230.434 368.594C230.426 368.566 230.793 368.428 231.484 368.272C232.174 368.112 233.199 367.977 234.471 368.004C236.985 368.034 240.623 368.957 243.558 371.618C246.481 374.29 247.756 377.841 248.037 380.353C248.191 381.624 248.159 382.664 248.071 383.371C247.985 384.078 247.885 384.46 247.856 384.455Z" fill="#FF9A6C"/>
<path d="M150.689 461.232C150.753 461.25 150.57 462.198 150.175 463.709C149.771 465.216 149.154 467.31 148.014 469.437C146.879 471.573 145.282 473.184 143.897 473.963C143.208 474.357 142.598 474.579 142.167 474.669C141.737 474.766 141.492 474.771 141.487 474.742C141.461 474.647 142.434 474.498 143.708 473.655C144.983 472.832 146.467 471.262 147.568 469.194C148.676 467.126 149.341 465.079 149.831 463.606C150.312 462.128 150.618 461.211 150.689 461.232Z" fill="#FF9A6C"/>
<path d="M161.054 457.805C161.114 457.828 160.854 458.752 160.299 460.197C159.745 461.642 158.875 463.602 157.741 465.677C156.605 467.75 155.424 469.537 154.507 470.782C153.589 472.026 152.953 472.742 152.901 472.702C152.841 472.656 153.375 471.865 154.211 470.576C155.047 469.286 156.17 467.485 157.296 465.43C158.419 463.374 159.332 461.457 159.967 460.056C160.605 458.655 160.983 457.78 161.054 457.805Z" fill="#FF9A6C"/>
<path d="M160.77 393.687C160.805 393.684 160.866 394.128 160.945 394.935C161.03 395.743 161.1 396.915 161.139 398.366C161.223 401.265 161.092 405.288 160.464 409.677C159.827 414.067 158.818 417.962 157.92 420.718C157.472 422.099 157.074 423.202 156.765 423.951C156.461 424.703 156.279 425.111 156.245 425.099C156.213 425.087 156.333 424.654 156.579 423.884C156.83 423.116 157.175 421.998 157.577 420.613C158.382 417.843 159.329 413.962 159.96 409.604C160.585 405.246 160.771 401.256 160.78 398.37C160.787 396.926 160.771 395.755 160.748 394.947C160.729 394.139 160.735 393.689 160.77 393.687Z" fill="#1A2E35"/>
<path d="M139.613 405.481C139.684 405.459 140.13 406.649 140.849 408.572C141.567 410.495 142.572 413.147 143.751 416.046C144.931 418.945 146.062 421.544 146.89 423.422C147.717 425.301 148.229 426.465 148.163 426.497C148.103 426.527 147.477 425.42 146.564 423.576C145.652 421.733 144.465 419.149 143.28 416.239C142.097 413.33 141.143 410.65 140.509 408.692C139.876 406.733 139.55 405.502 139.613 405.481Z" fill="#1A2E35"/>
<path d="M133.952 430.9C133.956 430.917 133.744 430.979 133.336 431.082C132.875 431.192 132.282 431.334 131.546 431.511C130.769 431.697 129.814 431.909 128.695 432.101C127.577 432.299 126.31 432.562 124.892 432.738C123.476 432.944 121.925 433.16 120.25 433.303C118.579 433.497 116.784 433.58 114.896 433.693C111.118 433.839 106.956 433.816 102.603 433.498C98.2487 433.148 94.1309 432.535 90.4182 431.814C88.5687 431.413 86.807 431.057 85.1849 430.611C83.5501 430.214 82.049 429.765 80.6816 429.344C79.3065 428.954 78.0933 428.501 77.0187 428.134C75.9402 427.774 75.0296 427.419 74.2898 427.115C73.5891 426.828 73.024 426.598 72.5857 426.42C72.1983 426.255 71.9982 426.161 72.004 426.144C72.0109 426.128 72.2236 426.19 72.6228 426.323C73.0698 426.479 73.6447 426.679 74.3581 426.929C75.1067 427.203 76.0261 427.53 77.1095 427.862C78.1899 428.202 79.407 428.63 80.7841 428.998C82.1535 429.394 83.6536 429.823 85.2864 430.2C86.9066 430.627 88.6644 430.966 90.508 431.351C94.208 432.044 98.3082 432.639 102.641 432.988C106.974 433.305 111.116 433.341 114.878 433.221C116.757 433.123 118.546 433.055 120.211 432.881C121.882 432.758 123.429 432.562 124.843 432.381C126.26 432.228 127.527 431.99 128.646 431.82C129.767 431.656 130.725 431.473 131.507 431.315C132.249 431.178 132.849 431.068 133.313 430.982C133.728 430.912 133.948 430.882 133.952 430.9Z" fill="#1A2E35"/>
<path d="M130.233 413.825C130.165 413.95 128.09 412.944 125.598 411.578C123.104 410.212 121.138 409.007 121.205 408.882C121.272 408.758 123.347 409.764 125.841 411.13C128.333 412.495 130.3 413.702 130.233 413.825Z" fill="#1A2E35"/>
<path d="M269.988 320.986C269.99 320.993 269.909 321.019 269.748 321.065C269.564 321.115 269.327 321.179 269.028 321.261C268.365 321.431 267.43 321.67 266.229 321.979C263.755 322.594 260.196 323.48 255.732 324.591C246.73 326.79 234.091 329.881 219.422 333.465L219.167 333.527L219.127 333.265C218.096 326.516 216.694 319.235 215.34 311.661C214.45 306.604 213.678 301.645 213.153 296.826C212.634 292.006 212.384 287.332 212.323 282.878C212.266 278.428 212.432 274.177 213.054 270.252C213.667 266.329 214.755 262.747 216.255 259.714C217.785 256.696 219.691 254.255 221.638 252.42C223.594 250.586 225.562 249.333 227.273 248.553C228.987 247.767 230.424 247.452 231.387 247.252C231.875 247.18 232.25 247.142 232.501 247.111C232.752 247.084 232.88 247.074 232.881 247.083C232.882 247.092 232.755 247.119 232.508 247.164C232.235 247.211 231.87 247.274 231.407 247.354C230.455 247.585 229.04 247.929 227.356 248.734C225.677 249.532 223.748 250.795 221.834 252.627C219.928 254.46 218.066 256.889 216.576 259.877C215.117 262.878 214.06 266.426 213.471 270.317C212.872 274.21 212.722 278.436 212.791 282.872C212.866 287.312 213.124 291.968 213.648 296.772C214.177 301.574 214.95 306.521 215.84 311.571C217.193 319.137 218.588 326.429 219.606 333.19L219.309 332.99C233.994 329.476 246.648 326.449 255.661 324.292C260.138 323.241 263.709 322.402 266.191 321.819C267.4 321.544 268.341 321.331 269.009 321.178C269.312 321.114 269.553 321.063 269.738 321.024C269.902 320.992 269.987 320.978 269.988 320.986Z" fill="#1A2E35"/>
</svg>
