<svg width="483" height="482" viewBox="0 0 483 482" fill="none" xmlns="http://www.w3.org/2000/svg">
<path d="M399.808 96.9371C391.235 82.3547 379.243 70.4175 364.083 60.684C313.593 28.2637 244.977 16.5897 185.99 25.3997C143.853 31.6927 115.761 60.3389 97.7899 97.6611C76.5549 141.763 57.2778 185.64 33.1045 228.468C5.35482 277.632 -7.08461 328.724 53.1982 371.14C105.369 407.847 170.788 398.325 230.589 397.148C250.407 396.758 270.367 397.415 289.87 401.251C328.621 408.871 366.263 435.96 404.374 410.663C433.344 391.435 450.408 355.103 458.675 322.192C463.603 302.576 467.476 280.934 465.652 260.114C463.653 237.306 453.133 220.132 442.311 200.708C428.696 176.271 418.06 150.155 410.714 123.126C408.115 113.567 404.467 104.862 399.808 96.9371Z" fill="#4CD79D"/>
<g opacity="0.699997">
<path d="M399.808 96.9371C391.235 82.3547 379.243 70.4175 364.083 60.684C313.593 28.2637 244.977 16.5897 185.99 25.3997C143.853 31.6927 115.761 60.3389 97.7899 97.6611C76.5549 141.763 57.2778 185.64 33.1045 228.468C5.35482 277.632 -7.08461 328.724 53.1982 371.14C105.369 407.847 170.788 398.325 230.589 397.148C250.407 396.758 270.367 397.415 289.87 401.251C328.621 408.871 366.263 435.96 404.374 410.663C433.344 391.435 450.408 355.103 458.675 322.192C463.603 302.576 467.476 280.934 465.652 260.114C463.653 237.306 453.133 220.132 442.311 200.708C428.696 176.271 418.06 150.155 410.714 123.126C408.115 113.567 404.467 104.862 399.808 96.9371Z" fill="white"/>
</g>
<path d="M452.615 437.004H459.363" stroke="#1A2E35" stroke-width="1.33333" stroke-miterlimit="10" stroke-linecap="round"/>
<path d="M22.6719 437.004H444.904" stroke="#1A2E35" stroke-width="1.33333" stroke-miterlimit="10" stroke-linecap="round"/>
<path d="M136.313 177.726H40.877V49.7782H136.313V177.726Z" stroke="#1A2E35" stroke-width="1.33333" stroke-miterlimit="10" stroke-linecap="round"/>
<path d="M132.456 172.556H44.7324V54.9482H132.456V172.556Z" stroke="#1A2E35" stroke-width="1.33333" stroke-miterlimit="10" stroke-linecap="round"/>
<path d="M112.324 145.564H64.8672V81.94H112.324V145.564Z" stroke="#1A2E35" stroke-width="1.33333" stroke-miterlimit="10" stroke-linecap="round"/>
<path d="M419.801 190.258H385.025V143.636H419.801V190.258Z" stroke="#1A2E35" stroke-width="1.33333" stroke-miterlimit="10" stroke-linecap="round"/>
<path d="M418.395 188.374H386.43V145.52H418.395V188.374Z" stroke="#1A2E35" stroke-width="1.33333" stroke-miterlimit="10" stroke-linecap="round"/>
<path d="M411.06 178.539H393.768V155.355H411.06V178.539Z" stroke="#1A2E35" stroke-width="1.33333" stroke-miterlimit="10" stroke-linecap="round"/>
<path d="M458.841 159.454H424.066V112.832H458.841V159.454Z" stroke="#1A2E35" stroke-width="1.33333" stroke-miterlimit="10" stroke-linecap="round"/>
<path d="M457.436 157.571H425.471V114.716H457.436V157.571Z" stroke="#1A2E35" stroke-width="1.33333" stroke-miterlimit="10" stroke-linecap="round"/>
<path d="M450.099 147.735H432.807V124.552H450.099V147.735Z" stroke="#1A2E35" stroke-width="1.33333" stroke-miterlimit="10" stroke-linecap="round"/>
<path d="M357.784 436.692H148.596V49.1642H357.784V436.692Z" fill="white"/>
<path d="M344.574 358.608H165.651C164.216 358.608 163.053 357.445 163.053 356.01V117.314C163.053 115.88 164.216 114.716 165.651 114.716H344.574C346.008 114.716 347.172 115.88 347.172 117.314V356.01C347.172 357.445 346.008 358.608 344.574 358.608Z" fill="#4CD79D"/>
<path d="M344.574 358.608H165.651C164.216 358.608 163.053 357.445 163.053 356.01V117.314C163.053 115.88 164.216 114.716 165.651 114.716H344.574C346.008 114.716 347.172 115.88 347.172 117.314V356.01C347.172 357.445 346.008 358.608 344.574 358.608Z" stroke="#1A2E35" stroke-width="1.33333" stroke-miterlimit="10" stroke-linecap="round"/>
<path d="M334.096 217.405H173.429C172.897 217.405 172.465 216.973 172.465 216.441V198.446C172.465 197.913 172.897 197.482 173.429 197.482H334.096C334.628 197.482 335.06 197.913 335.06 198.446V216.441C335.06 216.973 334.628 217.405 334.096 217.405Z" fill="white"/>
<path d="M334.096 217.405H173.429C172.897 217.405 172.465 216.973 172.465 216.441V198.446C172.465 197.913 172.897 197.482 173.429 197.482H334.096C334.628 197.482 335.06 197.913 335.06 198.446V216.441C335.06 216.973 334.628 217.405 334.096 217.405Z" stroke="#1A2E35" stroke-width="1.33333" stroke-miterlimit="10" stroke-linecap="round"/>
<path d="M334.096 185.323H173.429C172.897 185.323 172.465 184.892 172.465 184.359V166.365C172.465 165.832 172.897 165.401 173.429 165.401H334.096C334.628 165.401 335.06 165.832 335.06 166.365V184.359C335.06 184.892 334.628 185.323 334.096 185.323Z" fill="white"/>
<path d="M334.096 185.323H173.429C172.897 185.323 172.465 184.892 172.465 184.359V166.365C172.465 165.832 172.897 165.401 173.429 165.401H334.096C334.628 165.401 335.06 165.832 335.06 166.365V184.359C335.06 184.892 334.628 185.323 334.096 185.323Z" stroke="#1A2E35" stroke-width="1.33333" stroke-miterlimit="10" stroke-linecap="round"/>
<g opacity="0.300003">
<path d="M336.625 213.887H193.32V187.036H336.625V213.887Z" fill="black"/>
</g>
<path d="M334.918 211.938H191.371V185.088H334.918V211.938Z" fill="white" stroke="#1A2E35" stroke-width="1.33333" stroke-miterlimit="10" stroke-linecap="round"/>
<path d="M195.379 196.264C195.529 196.275 195.691 196.275 195.83 196.275C196.42 196.241 196.778 195.963 196.778 195.142V188.991H197.668V195.085C197.668 196.599 196.916 197.072 195.946 197.097C195.738 197.097 195.576 197.107 195.379 197.085V196.264Z" fill="#1A2E35"/>
<path d="M199.382 195.177C199.382 195.917 199.694 196.344 200.342 196.344C201.001 196.344 201.301 195.917 201.301 195.177V190.899C201.301 190.17 201.001 189.731 200.342 189.731C199.694 189.731 199.382 190.17 199.382 190.899V195.177ZM198.492 190.945C198.492 189.708 199.104 188.911 200.342 188.911C201.59 188.911 202.204 189.708 202.204 190.945V195.13C202.204 196.356 201.59 197.165 200.342 197.165C199.104 197.165 198.492 196.356 198.492 195.13V190.945Z" fill="#1A2E35"/>
<path d="M203.963 193.442V197.084H203.061V188.991H203.963V192.633H205.952V188.991H206.854V197.084H205.952V193.442H203.963Z" fill="#1A2E35"/>
<path d="M208.578 197.084H207.77V188.991H208.914L210.787 194.841V188.991H211.585V197.084H210.648L208.578 190.541V197.084Z" fill="#1A2E35"/>
<path d="M217.808 190.934V191.154H216.952V190.887C216.952 190.159 216.675 189.731 216.028 189.731C215.38 189.731 215.102 190.159 215.102 190.876C215.102 192.691 217.82 192.865 217.82 195.142C217.82 196.368 217.23 197.165 215.993 197.165C214.755 197.165 214.178 196.368 214.178 195.142V194.68H215.021V195.189C215.021 195.917 215.322 196.345 215.97 196.345C216.618 196.345 216.918 195.917 216.918 195.189C216.918 193.384 214.212 193.212 214.212 190.934C214.212 189.685 214.791 188.91 216.005 188.91C217.23 188.91 217.808 189.708 217.808 190.934Z" fill="#1A2E35"/>
<path d="M221.59 197.073H220.722L219.381 190.633V197.084H218.596V188.991H219.856L221.185 195.454L222.468 188.991H223.729V197.084H222.873V190.575L221.59 197.073Z" fill="#1A2E35"/>
<path d="M225.56 197.084H224.658V188.99H225.56V197.084Z" fill="#1A2E35"/>
<path d="M227.653 197.084V189.812H226.162V188.991H230.035V189.812H228.544V197.084H227.653Z" fill="#1A2E35"/>
<path d="M231.552 193.442V197.084H230.65V188.991H231.552V192.633H233.54V188.991H234.443V197.084H233.54V193.442H231.552Z" fill="#1A2E35"/>
<path d="M334.096 248.253H173.429C172.897 248.253 172.465 247.822 172.465 247.289V229.294C172.465 228.762 172.897 228.33 173.429 228.33H334.096C334.628 228.33 335.06 228.762 335.06 229.294V247.289C335.06 247.822 334.628 248.253 334.096 248.253Z" fill="white"/>
<path d="M334.096 248.253H173.429C172.897 248.253 172.465 247.822 172.465 247.289V229.294C172.465 228.762 172.897 228.33 173.429 228.33H334.096C334.628 228.33 335.06 228.762 335.06 229.294V247.289C335.06 247.822 334.628 248.253 334.096 248.253Z" stroke="#1A2E35" stroke-width="1.33333" stroke-miterlimit="10" stroke-linecap="round"/>
<path d="M196.218 241.917H195.408V233.823H196.553L198.426 239.674V233.823H199.224V241.917H198.288L196.218 235.373V241.917Z" fill="#E6E6E6"/>
<path d="M203.032 237.408V238.217H201.054V241.096H203.482V241.917H200.152V233.824H203.482V234.644H201.054V237.408H203.032Z" fill="#E6E6E6"/>
<path d="M206.467 241.917H205.231L204.121 233.823H205L205.948 240.715L206.849 233.836H207.74L208.63 240.726L209.544 233.823H210.329L209.231 241.917H208.041L207.266 236.425L206.467 241.917Z" fill="#E6E6E6"/>
<path d="M214.553 237.916C215.224 237.916 215.548 237.604 215.548 236.83V235.754C215.548 235.015 215.282 234.645 214.623 234.645H213.756V237.916H214.553ZM214.623 233.823C215.894 233.823 216.438 234.575 216.438 235.8V236.772C216.438 238.055 215.837 238.726 214.553 238.726H213.756V241.917H212.854V233.823H214.623Z" fill="#E6E6E6"/>
<path d="M218.025 239.512H219.827L218.914 234.841L218.025 239.512ZM217.909 240.287L217.597 241.917H216.764L218.314 233.823H219.62L221.169 241.917H220.268L219.955 240.287H217.909Z" fill="#E6E6E6"/>
<path d="M225.38 235.766V235.986H224.524V235.72C224.524 234.991 224.248 234.563 223.599 234.563C222.952 234.563 222.674 234.991 222.674 235.708C222.674 237.524 225.392 237.697 225.392 239.975C225.392 241.2 224.802 241.998 223.565 241.998C222.327 241.998 221.75 241.2 221.75 239.975V239.512H222.593V240.021C222.593 240.749 222.894 241.177 223.542 241.177C224.189 241.177 224.49 240.749 224.49 240.021C224.49 238.217 221.785 238.044 221.785 235.766C221.785 234.518 222.363 233.743 223.577 233.743C224.802 233.743 225.38 234.541 225.38 235.766Z" fill="#E6E6E6"/>
<path d="M229.683 235.766V235.986H228.828V235.72C228.828 234.991 228.55 234.563 227.903 234.563C227.256 234.563 226.978 234.991 226.978 235.708C226.978 237.524 229.696 237.697 229.696 239.975C229.696 241.2 229.105 241.998 227.868 241.998C226.63 241.998 226.053 241.2 226.053 239.975V239.512H226.896V240.021C226.896 240.749 227.197 241.177 227.846 241.177C228.493 241.177 228.793 240.749 228.793 240.021C228.793 238.217 226.088 238.044 226.088 235.766C226.088 234.518 226.666 233.743 227.88 233.743C229.105 233.743 229.683 234.541 229.683 235.766Z" fill="#E6E6E6"/>
<path d="M232.634 241.917H231.398L230.287 233.823H231.166L232.114 240.715L233.016 233.836H233.906L234.797 240.726L235.709 233.823H236.495L235.398 241.917H234.207L233.432 236.425L232.634 241.917Z" fill="#E6E6E6"/>
<path d="M238.048 240.009C238.048 240.75 238.36 241.177 239.008 241.177C239.667 241.177 239.967 240.75 239.967 240.009V235.732C239.967 235.003 239.667 234.564 239.008 234.564C238.36 234.564 238.048 235.003 238.048 235.732V240.009ZM237.158 235.777C237.158 234.541 237.77 233.743 239.008 233.743C240.256 233.743 240.87 234.541 240.87 235.777V239.963C240.87 241.189 240.256 241.998 239.008 241.998C237.77 241.998 237.158 241.189 237.158 239.963V235.777Z" fill="#E6E6E6"/>
<path d="M243.299 237.639C244.016 237.639 244.443 237.408 244.443 236.53V235.755C244.443 235.027 244.178 234.645 243.508 234.645H242.629V237.639H243.299ZM243.53 233.824C244.803 233.824 245.334 234.472 245.334 235.674V236.333C245.334 237.223 245.022 237.778 244.328 237.998C245.069 238.218 245.345 238.818 245.345 239.686V240.946C245.345 241.304 245.358 241.639 245.507 241.917H244.594C244.489 241.686 244.443 241.478 244.443 240.934V239.663C244.443 238.749 244.016 238.461 243.265 238.461H242.629V241.917H241.727V233.824H243.53Z" fill="#E6E6E6"/>
<path d="M248.17 241.096C248.818 241.096 249.129 240.691 249.129 239.952V235.789C249.129 235.05 248.818 234.645 248.158 234.645H247.186V241.096H248.17ZM248.181 233.824C249.441 233.824 250.02 234.587 250.02 235.836V239.917C250.02 241.154 249.441 241.917 248.181 241.917H246.285V233.824H248.181Z" fill="#E6E6E6"/>
<path d="M197.011 178.987H196.201V170.894H197.346L199.218 176.744V170.894H200.017V178.987H199.08L197.011 172.444V178.987Z" fill="#E6E6E6"/>
<path d="M201.973 176.583H203.776L202.864 171.912L201.973 176.583ZM201.857 177.358L201.546 178.988H200.713L202.262 170.894H203.568L205.118 178.988H204.216L203.904 177.358H201.857Z" fill="#E6E6E6"/>
<path d="M208.809 178.975H207.942L206.6 172.536V178.987H205.814V170.894H207.074L208.404 177.357L209.687 170.894H210.948V178.987H210.092V172.478L208.809 178.975Z" fill="#E6E6E6"/>
<path d="M214.754 174.478V175.287H212.776V178.167H215.205V178.987H211.875V170.894H215.205V171.715H212.776V174.478H214.754Z" fill="#E6E6E6"/>
<path d="M219.496 139.871V140.6H218.639V139.825C218.639 139.097 218.351 138.658 217.692 138.658C217.044 138.658 216.743 139.097 216.743 139.825V144.103C216.743 144.832 217.044 145.271 217.692 145.271C218.351 145.271 218.639 144.832 218.639 144.103V143.051H219.496V144.057C219.496 145.282 218.917 146.092 217.668 146.092C216.431 146.092 215.854 145.282 215.854 144.057V139.871C215.854 138.646 216.431 137.836 217.668 137.836C218.917 137.836 219.496 138.646 219.496 139.871Z" fill="#1A2E35"/>
<path d="M221.891 141.733C222.608 141.733 223.035 141.502 223.035 140.623V139.848C223.035 139.121 222.77 138.739 222.1 138.739H221.22V141.733H221.891ZM222.122 137.917C223.394 137.917 223.926 138.565 223.926 139.767V140.427C223.926 141.317 223.613 141.872 222.92 142.092C223.661 142.311 223.937 142.912 223.937 143.78V145.04C223.937 145.398 223.948 145.733 224.099 146.01H223.186C223.082 145.78 223.035 145.572 223.035 145.028V143.756C223.035 142.843 222.608 142.554 221.857 142.554H221.22V146.01H220.318V137.917H222.122Z" fill="#1A2E35"/>
<path d="M227.754 141.502V142.311H225.777V145.19H228.205V146.01H224.875V137.918H228.205V138.738H225.777V141.502H227.754Z" fill="#1A2E35"/>
<path d="M230.07 143.606H231.873L230.96 138.935L230.07 143.606ZM229.955 144.381L229.642 146.011H228.811L230.36 137.917H231.666L233.215 146.011H232.314L232 144.381H229.955Z" fill="#1A2E35"/>
<path d="M234.651 146.011V138.738H233.16V137.917H237.034V138.738H235.542V146.011H234.651Z" fill="#1A2E35"/>
<path d="M240.526 141.502V142.311H238.548V145.19H240.976V146.01H237.646V137.918H240.976V138.738H238.548V141.502H240.526Z" fill="#1A2E35"/>
<path d="M245.037 143.109L243.326 137.918H244.263L245.523 141.895L246.795 137.918H247.651L245.928 143.109V146.01H245.037V143.109Z" fill="#1A2E35"/>
<path d="M248.949 144.103C248.949 144.843 249.262 145.27 249.909 145.27C250.568 145.27 250.868 144.843 250.868 144.103V139.826C250.868 139.097 250.568 138.657 249.909 138.657C249.262 138.657 248.949 139.097 248.949 139.826V144.103ZM248.059 139.871C248.059 138.634 248.672 137.837 249.909 137.837C251.158 137.837 251.77 138.634 251.77 139.871V144.057C251.77 145.283 251.158 146.092 249.909 146.092C248.672 146.092 248.059 145.283 248.059 144.057V139.871Z" fill="#1A2E35"/>
<path d="M253.482 144.103C253.482 144.832 253.772 145.27 254.43 145.27C255.078 145.27 255.366 144.832 255.366 144.103V137.917H256.211V144.057C256.211 145.283 255.644 146.103 254.395 146.103C253.158 146.103 252.592 145.283 252.592 144.057V137.917H253.482V144.103Z" fill="#1A2E35"/>
<path d="M258.677 141.733C259.393 141.733 259.821 141.502 259.821 140.623V139.848C259.821 139.121 259.555 138.739 258.884 138.739H258.006V141.733H258.677ZM258.907 137.917C260.18 137.917 260.711 138.565 260.711 139.767V140.427C260.711 141.317 260.399 141.872 259.704 142.092C260.445 142.311 260.723 142.912 260.723 143.78V145.04C260.723 145.398 260.735 145.733 260.884 146.01H259.971C259.866 145.78 259.821 145.572 259.821 145.028V143.756C259.821 142.843 259.393 142.554 258.641 142.554H258.006V146.01H257.104V137.917H258.907Z" fill="#1A2E35"/>
<path d="M264.485 143.606H266.288L265.375 138.935L264.485 143.606ZM264.37 144.381L264.058 146.011H263.225L264.775 137.917H266.08L267.63 146.011H266.728L266.415 144.381H264.37Z" fill="#1A2E35"/>
<path d="M271.898 139.871V140.6H271.042V139.825C271.042 139.097 270.754 138.658 270.095 138.658C269.447 138.658 269.147 139.097 269.147 139.825V144.103C269.147 144.832 269.447 145.271 270.095 145.271C270.754 145.271 271.042 144.832 271.042 144.103V143.051H271.898V144.057C271.898 145.282 271.319 146.092 270.07 146.092C268.833 146.092 268.256 145.282 268.256 144.057V139.871C268.256 138.646 268.833 137.836 270.07 137.836C271.319 137.836 271.898 138.646 271.898 139.871Z" fill="#1A2E35"/>
<path d="M276.293 139.871V140.6H275.438V139.825C275.438 139.097 275.149 138.658 274.491 138.658C273.843 138.658 273.542 139.097 273.542 139.825V144.103C273.542 144.832 273.843 145.271 274.491 145.271C275.149 145.271 275.438 144.832 275.438 144.103V143.051H276.293V144.057C276.293 145.282 275.715 146.092 274.467 146.092C273.23 146.092 272.652 145.282 272.652 144.057V139.871C272.652 138.646 273.23 137.836 274.467 137.836C275.715 137.836 276.293 138.646 276.293 139.871Z" fill="#1A2E35"/>
<path d="M277.937 144.103C277.937 144.843 278.249 145.27 278.896 145.27C279.555 145.27 279.856 144.843 279.856 144.103V139.826C279.856 139.097 279.555 138.657 278.896 138.657C278.249 138.657 277.937 139.097 277.937 139.826V144.103ZM277.047 139.871C277.047 138.634 277.659 137.837 278.896 137.837C280.145 137.837 280.758 138.634 280.758 139.871V144.057C280.758 145.283 280.145 146.092 278.896 146.092C277.659 146.092 277.047 145.283 277.047 144.057V139.871Z" fill="#1A2E35"/>
<path d="M282.473 144.103C282.473 144.832 282.762 145.27 283.42 145.27C284.068 145.27 284.357 144.832 284.357 144.103V137.917H285.201V144.057C285.201 145.283 284.634 146.103 283.386 146.103C282.149 146.103 281.582 145.283 281.582 144.057V137.917H282.473V144.103Z" fill="#1A2E35"/>
<path d="M286.892 146.011H286.082V137.917H287.227L289.1 143.768V137.917H289.898V146.011H288.961L286.892 139.467V146.011Z" fill="#1A2E35"/>
<path d="M291.991 146.011V138.738H290.5V137.917H294.373V138.738H292.882V146.011H291.991Z" fill="#1A2E35"/>
<path d="M275.918 310.987H234.307C233.041 310.987 232.016 309.962 232.016 308.697V293.809C232.016 292.543 233.041 291.518 234.307 291.518H275.918C277.183 291.518 278.209 292.543 278.209 293.809V308.697C278.209 309.962 277.183 310.987 275.918 310.987Z" fill="#1A2E35"/>
<path d="M275.918 310.987H234.307C233.041 310.987 232.016 309.962 232.016 308.697V293.809C232.016 292.543 233.041 291.518 234.307 291.518H275.918C277.183 291.518 278.209 292.543 278.209 293.809V308.697C278.209 309.962 277.183 310.987 275.918 310.987Z" stroke="#1A2E35" stroke-width="1.33333" stroke-miterlimit="10" stroke-linecap="round"/>
<path d="M250.488 299.492V299.711H249.632V299.444C249.632 298.717 249.355 298.289 248.707 298.289C248.06 298.289 247.782 298.717 247.782 299.433C247.782 301.248 250.5 301.422 250.5 303.699C250.5 304.926 249.909 305.723 248.673 305.723C247.436 305.723 246.857 304.926 246.857 303.699V303.238H247.701V303.746C247.701 304.475 248.003 304.902 248.65 304.902C249.297 304.902 249.598 304.475 249.598 303.746C249.598 301.942 246.893 301.769 246.893 299.492C246.893 298.242 247.471 297.467 248.684 297.467C249.909 297.467 250.488 298.266 250.488 299.492Z" fill="white"/>
<path d="M252.318 303.237H254.121L253.208 298.566L252.318 303.237ZM252.202 304.012L251.891 305.642H251.057L252.607 297.549H253.913L255.463 305.642H254.561L254.248 304.012H252.202Z" fill="white"/>
<path d="M256.563 297.549L257.881 304.591L259.188 297.549H260.02L258.506 305.642H257.176L255.65 297.549H256.563Z" fill="white"/>
<path d="M263.595 301.133V301.942H261.618V304.821H264.046V305.642H260.717V297.548H264.046V298.37H261.618V301.133H263.595Z" fill="white"/>
<path d="M257.529 128.704C257.529 127.137 256.258 125.865 254.69 125.865C253.121 125.865 251.85 127.137 251.85 128.704C251.85 130.271 253.121 131.543 254.69 131.543C256.258 131.543 257.529 130.271 257.529 128.704Z" fill="#1A2E35"/>
<path d="M191.371 165.487V185.088V165.487Z" fill="white"/>
<path d="M191.371 165.487V185.088" stroke="#1A2E35" stroke-width="1.33333" stroke-miterlimit="10" stroke-linecap="round"/>
<path d="M191.371 197.299V216.9V197.299Z" fill="white"/>
<path d="M191.371 197.299V216.9" stroke="#1A2E35" stroke-width="1.33333" stroke-miterlimit="10" stroke-linecap="round"/>
<path d="M191.371 228.468V248.069V228.468Z" fill="white"/>
<path d="M191.371 228.468V248.069" stroke="#1A2E35" stroke-width="1.33333" stroke-miterlimit="10" stroke-linecap="round"/>
<path d="M176.398 179.309H186.382L183.43 176.492C183.106 176.183 182.735 175.955 182.341 175.807C183.355 175.385 184.069 174.388 184.069 173.221C184.069 171.675 182.815 170.421 181.269 170.421C179.721 170.421 178.468 171.675 178.468 173.221C178.468 174.369 179.16 175.353 180.148 175.785C179.647 175.957 179.176 176.239 178.794 176.661L176.398 179.309Z" fill="white"/>
<path d="M176.398 179.309H186.382L183.43 176.492C183.106 176.183 182.735 175.955 182.341 175.807C183.355 175.385 184.069 174.388 184.069 173.221C184.069 171.675 182.815 170.421 181.269 170.421C179.721 170.421 178.468 171.675 178.468 173.221C178.468 174.369 179.16 175.353 180.148 175.785C179.647 175.957 179.176 176.239 178.794 176.661L176.398 179.309Z" stroke="#E6E6E6" stroke-width="1.33333" stroke-miterlimit="10"/>
<path d="M185.407 244.324H177.859V237.992H185.407V244.324Z" fill="white" stroke="#E6E6E6" stroke-width="1.33333" stroke-miterlimit="10"/>
<path d="M177.859 237.993V236.41C177.859 234.326 179.549 232.636 181.633 232.636C183.718 232.636 185.407 234.326 185.407 236.41V237.993" stroke="#E6E6E6" stroke-width="1.33333" stroke-miterlimit="10"/>
<path d="M186.869 211.208H177.129V204.633H186.869V211.208Z" fill="white" stroke="#E6E6E6" stroke-width="1.33333" stroke-miterlimit="10"/>
<path d="M177.129 204.633L181.999 207.92L186.869 204.633" stroke="#E6E6E6" stroke-width="1.33333" stroke-miterlimit="10"/>
<path d="M186.071 273.831H178.176V265.936H186.071V273.831Z" stroke="#1A2E35" stroke-width="1.33333" stroke-miterlimit="10" stroke-linecap="round"/>
<path d="M192.273 266.781H333.545" stroke="#1A2E35" stroke-width="1.33333" stroke-miterlimit="10" stroke-linecap="round"/>
<path d="M192.273 272.984H295.76" stroke="#1A2E35" stroke-width="1.33333" stroke-miterlimit="10" stroke-linecap="round"/>
<g opacity="0.149994">
<path d="M358.904 437.876V250.277L194.539 437.876H358.904Z" fill="#020202"/>
</g>
<path d="M206.094 92.865H160.807V80.012H206.094V92.865Z" fill="#1A2E35"/>
<path d="M253.764 92.865H208.477V80.012H253.764V92.865Z" fill="#1A2E35"/>
<path d="M301.436 92.865H256.148V80.012H301.436V92.865Z" fill="#1A2E35"/>
<path d="M349.108 92.865H303.82V80.012H349.108V92.865Z" fill="#1A2E35"/>
<path d="M170.547 86.9414H194.968" stroke="white" stroke-width="1.33333" stroke-miterlimit="10" stroke-linecap="round"/>
<path d="M218.305 86.9414H242.726" stroke="white" stroke-width="1.33333" stroke-miterlimit="10" stroke-linecap="round"/>
<path d="M265.801 86.9414H290.223" stroke="white" stroke-width="1.33333" stroke-miterlimit="10" stroke-linecap="round"/>
<path d="M314.262 86.9414H338.684" stroke="white" stroke-width="1.33333" stroke-miterlimit="10" stroke-linecap="round"/>
<path d="M353.932 427.671H156.294V58.2074H353.932V427.671ZM346.918 29.458H163.307C154.106 29.458 146.646 36.9165 146.646 46.1179V436.138C146.646 445.339 154.106 452.798 163.307 452.798H346.918C356.12 452.798 363.58 445.339 363.58 436.138V46.1179C363.58 36.9165 356.12 29.458 346.918 29.458Z" fill="#1A2E35"/>
<path d="M347.207 71.0256H330.82V62.0392H347.207V71.0256Z" stroke="#1A2E35" stroke-width="1.09467" stroke-miterlimit="10" stroke-linecap="round" stroke-linejoin="round"/>
<path d="M343.6 71.0256H330.82V62.0392H343.6V71.0256Z" fill="#1A2E35" stroke="#1A2E35" stroke-width="0.966667" stroke-miterlimit="10" stroke-linecap="round" stroke-linejoin="round"/>
<path d="M349.484 68.5115H347.174V64.5542H349.484V68.5115Z" fill="#1A2E35" stroke="#1A2E35" stroke-width="0.966667" stroke-miterlimit="10" stroke-linecap="round" stroke-linejoin="round"/>
<path d="M163.748 64.8271H160.744V69.9778H163.748V64.8271Z" fill="#1A2E35" stroke="#1A2E35" stroke-width="1.17733" stroke-miterlimit="10" stroke-linecap="round" stroke-linejoin="round"/>
<path d="M168.47 63.0187H165.465V69.9778H168.47V63.0187Z" fill="#1A2E35" stroke="#1A2E35" stroke-width="1.17733" stroke-miterlimit="10" stroke-linecap="round" stroke-linejoin="round"/>
<path d="M173.19 60.8815H170.186V69.9778H173.19V60.8815Z" fill="#1A2E35" stroke="#1A2E35" stroke-width="1.17733" stroke-miterlimit="10" stroke-linecap="round" stroke-linejoin="round"/>
<path d="M426.054 269.019C426.054 269.019 412.482 261.48 411.477 278.57C410.471 295.66 407.959 406.747 407.959 406.747" stroke="#1A2E35" stroke-width="2.66667" stroke-miterlimit="10" stroke-linecap="round"/>
<path d="M404.43 280.076C404.43 280.076 415.499 304.708 410.473 405.239" stroke="#1A2E35" stroke-width="2.66667" stroke-miterlimit="10" stroke-linecap="round"/>
<path d="M415.304 272.459C415.304 272.459 410.113 275.786 407.159 271.979C404.205 268.172 409.158 261.198 404.793 258.217C400.427 255.234 392.893 259.785 392.893 259.785C392.893 259.785 398.695 261.489 398.509 264.656C398.322 267.824 395.527 269.022 395.155 267.637C394.782 266.254 392.015 259.278 387.303 262.179C382.59 265.081 381.871 269.579 381.871 269.579C381.871 269.579 392.838 268.409 393.503 272.535C394.167 276.661 389.005 271.816 384.479 271.549C379.954 271.282 375.828 271.947 376.121 274.689C376.413 277.43 375.693 281.928 375.693 281.928C375.693 281.928 379.527 278.523 384.505 278.817C389.482 279.109 389.296 282.277 384.77 282.01C380.245 281.743 376.359 286.055 376.359 286.055C376.359 286.055 380.483 293.11 385.726 296.598C390.97 300.085 392.86 298.835 393.473 296.146C394.085 293.458 392.675 286.563 395.844 286.75C399.012 286.937 390.597 298.702 394.643 299.394C398.69 300.087 401.937 298.916 403.002 296.255L404.068 293.593C404.068 293.593 402.658 286.698 403.271 284.01C403.883 281.321 404.629 284.09 405.346 287.31C406.064 290.532 406.516 298.278 407.9 297.906C409.284 297.534 413.704 291.89 414.742 289.682C415.781 287.472 408.915 280.711 408.995 279.352C409.075 277.994 414.371 280.578 415.197 281.989C416.021 283.4 416.82 285.263 416.82 285.263C416.82 285.263 420.12 283.187 420.042 276.825C419.963 270.464 415.304 272.459 415.304 272.459Z" fill="#4CD79D"/>
<g opacity="0.300003">
<path d="M415.304 272.459C415.304 272.459 410.113 275.786 407.159 271.979C404.205 268.172 409.158 261.198 404.793 258.217C400.427 255.234 392.893 259.785 392.893 259.785C392.893 259.785 398.695 261.489 398.509 264.656C398.322 267.824 395.527 269.022 395.155 267.637C394.782 266.254 392.015 259.278 387.303 262.179C382.59 265.081 381.871 269.579 381.871 269.579C381.871 269.579 392.838 268.409 393.503 272.535C394.167 276.661 389.005 271.816 384.479 271.549C379.954 271.282 375.828 271.947 376.121 274.689C376.413 277.43 375.693 281.928 375.693 281.928C375.693 281.928 379.527 278.523 384.505 278.817C389.482 279.109 389.296 282.277 384.77 282.01C380.245 281.743 376.359 286.055 376.359 286.055C376.359 286.055 380.483 293.11 385.726 296.598C390.97 300.085 392.86 298.835 393.473 296.146C394.085 293.458 392.675 286.563 395.844 286.75C399.012 286.937 390.597 298.702 394.643 299.394C398.69 300.087 401.937 298.916 403.002 296.255L404.068 293.593C404.068 293.593 402.658 286.698 403.271 284.01C403.883 281.321 404.629 284.09 405.346 287.31C406.064 290.532 406.516 298.278 407.9 297.906C409.284 297.534 413.704 291.89 414.742 289.682C415.781 287.472 408.915 280.711 408.995 279.352C409.075 277.994 414.371 280.578 415.197 281.989C416.021 283.4 416.82 285.263 416.82 285.263C416.82 285.263 420.12 283.187 420.042 276.825C419.963 270.464 415.304 272.459 415.304 272.459Z" fill="#1A2E35"/>
</g>
<path d="M388.986 287.377C392.372 283.192 397.362 277.528 401.541 274.825" stroke="#1A2E35" stroke-width="1.33333" stroke-miterlimit="10" stroke-linecap="round"/>
<path d="M385.061 292.472C385.061 292.472 385.929 291.263 387.338 289.452" stroke="#1A2E35" stroke-width="1.33333" stroke-miterlimit="10" stroke-linecap="round"/>
<path d="M403.75 275.864C403.75 275.864 408.78 282.973 409.71 290.293" stroke="#1A2E35" stroke-width="1.33333" stroke-miterlimit="10" stroke-linecap="round"/>
<path d="M398.053 280.069C398.053 280.069 399.464 279.245 398.93 288.294" stroke="#1A2E35" stroke-width="1.33333" stroke-miterlimit="10" stroke-linecap="round"/>
<path d="M401.729 271.658C401.729 271.658 404.603 269.103 403.087 264.018" stroke="#1A2E35" stroke-width="1.33333" stroke-miterlimit="10" stroke-linecap="round"/>
<path d="M397.842 275.97L395.793 272.216" stroke="#1A2E35" stroke-width="1.33333" stroke-miterlimit="10" stroke-linecap="round"/>
<path d="M393.529 279.802C393.529 279.802 387.007 274.877 382.936 274.637" stroke="#1A2E35" stroke-width="1.33333" stroke-miterlimit="10" stroke-linecap="round"/>
<path d="M433.809 259.047C433.809 259.047 433.601 266.512 427.775 266.875C421.95 267.237 418.343 257.527 412.382 259.864C406.422 262.201 405.842 272.846 405.842 272.846C405.842 272.846 411.504 268.198 414.549 270.544C417.593 272.891 416.886 276.505 415.246 275.935C413.606 275.364 404.737 273.381 404.429 280.076C404.121 286.771 408.135 290.558 408.135 290.558C408.135 290.558 414.44 278.78 419.024 280.927C423.609 283.074 415.237 284.94 411.886 289.288C408.534 293.638 406.388 298.222 409.331 299.798C412.276 301.374 416.289 305.161 416.289 305.161C416.289 305.161 415.492 299 419.179 294.216C422.865 289.433 425.911 291.779 422.558 296.128C419.207 300.478 420.874 307.308 420.874 307.308C420.874 307.308 430.749 307.987 437.815 305.114C444.881 302.243 444.917 299.497 442.643 297.052C440.37 294.606 432.505 291.318 434.852 288.272C437.198 285.229 443.241 301.672 446.693 298.093C450.145 294.514 451.186 290.465 449.247 287.584L447.309 284.703C447.309 284.703 439.444 281.415 437.17 278.969C434.896 276.523 438.176 277.664 441.891 279.14C445.604 280.617 453.668 285.446 454.239 283.806C454.809 282.165 452.173 273.894 450.668 271.349C449.165 268.803 437.714 271.069 436.409 270.063C435.104 269.058 441.3 265.515 443.275 265.651C445.25 265.786 447.66 266.258 447.66 266.258C447.66 266.258 447.833 261.538 441.409 257.28C434.986 253.023 433.809 259.047 433.809 259.047Z" fill="#4CD79D"/>
<g opacity="0.199997">
<path d="M433.809 259.047C433.809 259.047 433.601 266.512 427.775 266.875C421.95 267.237 418.343 257.527 412.382 259.864C406.422 262.201 405.842 272.846 405.842 272.846C405.842 272.846 411.504 268.198 414.549 270.544C417.593 272.891 416.886 276.505 415.246 275.935C413.606 275.364 404.737 273.381 404.429 280.076C404.121 286.771 408.135 290.558 408.135 290.558C408.135 290.558 414.44 278.78 419.024 280.927C423.609 283.074 415.237 284.94 411.886 289.288C408.534 293.638 406.388 298.222 409.331 299.798C412.276 301.374 416.289 305.161 416.289 305.161C416.289 305.161 415.492 299 419.179 294.216C422.865 289.433 425.911 291.779 422.558 296.128C419.207 300.478 420.874 307.308 420.874 307.308C420.874 307.308 430.749 307.987 437.815 305.114C444.881 302.243 444.917 299.497 442.643 297.052C440.37 294.606 432.505 291.318 434.852 288.272C437.198 285.229 443.241 301.672 446.693 298.093C450.145 294.514 451.186 290.465 449.247 287.584L447.309 284.703C447.309 284.703 439.444 281.415 437.17 278.969C434.896 276.523 438.176 277.664 441.891 279.14C445.604 280.617 453.668 285.446 454.239 283.806C454.809 282.165 452.173 273.894 450.668 271.349C449.165 268.803 437.714 271.069 436.409 270.063C435.104 269.058 441.3 265.515 443.275 265.651C445.25 265.786 447.66 266.258 447.66 266.258C447.66 266.258 447.833 261.538 441.409 257.28C434.986 253.023 433.809 259.047 433.809 259.047Z" fill="#1A2E35"/>
</g>
<path d="M430.805 295.566C428.922 289.323 426.653 280.469 426.798 274.44" stroke="#1A2E35" stroke-width="1.33333" stroke-miterlimit="10" stroke-linecap="round"/>
<path d="M433.23 302.967C433.23 302.967 432.612 301.274 431.76 298.628" stroke="#1A2E35" stroke-width="1.33333" stroke-miterlimit="10" stroke-linecap="round"/>
<path d="M429.342 272.935C429.342 272.935 439.887 272.745 447.851 276.803" stroke="#1A2E35" stroke-width="1.33333" stroke-miterlimit="10" stroke-linecap="round"/>
<path d="M429.668 281.506C429.668 281.506 429.804 279.531 438.501 286.234" stroke="#1A2E35" stroke-width="1.33333" stroke-miterlimit="10" stroke-linecap="round"/>
<path d="M423.752 272.094C423.752 272.094 423.155 267.473 417.029 265.526" stroke="#1A2E35" stroke-width="1.33333" stroke-miterlimit="10" stroke-linecap="round"/>
<path d="M425.42 278.924L420.266 278.417" stroke="#1A2E35" stroke-width="1.33333" stroke-miterlimit="10" stroke-linecap="round"/>
<path d="M426.317 285.854C426.317 285.854 416.94 289.026 413.924 292.941" stroke="#1A2E35" stroke-width="1.33333" stroke-miterlimit="10" stroke-linecap="round"/>
<path d="M371.266 308.729C371.266 308.729 400.923 328.333 400.42 404.233" stroke="#1A2E35" stroke-width="2.66667" stroke-miterlimit="10" stroke-linecap="round"/>
<path d="M407.831 303.55C407.831 303.55 406.887 312.145 400.131 312.013C393.374 311.883 390.13 300.335 383.03 302.47C375.931 304.606 374.258 316.834 374.258 316.834C374.258 316.834 381.23 312.005 384.521 314.999C387.812 317.994 386.656 322.098 384.818 321.286C382.98 320.473 372.933 317.347 371.945 325.042C370.958 332.739 375.233 337.488 375.233 337.488C375.233 337.488 383.62 324.493 388.707 327.402C393.794 330.313 383.958 331.677 379.68 336.378C375.402 341.079 372.492 346.167 375.741 348.263C378.99 350.361 383.264 355.108 383.264 355.108C383.264 355.108 382.925 347.924 387.631 342.753C392.337 337.581 395.628 340.575 391.349 345.277C387.072 349.979 388.351 358.019 388.351 358.019C388.351 358.019 399.682 359.734 408.106 357.087C416.531 354.439 416.832 351.275 414.439 348.237C412.046 345.201 403.281 340.664 406.276 337.373C409.271 334.082 414.693 353.626 419.014 349.822C423.334 346.019 424.918 341.444 422.954 337.937L420.987 334.429C420.987 334.429 412.223 329.892 409.83 326.856C407.437 323.818 411.114 325.445 415.261 327.5C419.408 329.554 428.256 335.886 429.069 334.048C429.883 332.209 427.62 322.416 426.126 319.337C424.63 316.258 411.203 317.79 409.792 316.507C408.381 315.224 415.866 311.722 418.133 312.064C420.398 312.407 423.135 313.177 423.135 313.177C423.135 313.177 423.779 307.747 416.769 302.228C409.758 296.709 407.831 303.55 407.831 303.55Z" fill="#4CD79D"/>
<g opacity="0.300003">
<path d="M407.831 303.55C407.831 303.55 406.887 312.145 400.131 312.013C393.374 311.883 390.13 300.335 383.03 302.47C375.931 304.606 374.258 316.834 374.258 316.834C374.258 316.834 381.23 312.005 384.521 314.999C387.812 317.994 386.656 322.098 384.818 321.286C382.98 320.473 372.933 317.347 371.945 325.042C370.958 332.739 375.233 337.488 375.233 337.488C375.233 337.488 383.62 324.493 388.707 327.402C393.794 330.313 383.958 331.677 379.68 336.378C375.402 341.079 372.492 346.167 375.741 348.263C378.99 350.361 383.264 355.108 383.264 355.108C383.264 355.108 382.925 347.924 387.631 342.753C392.337 337.581 395.628 340.575 391.349 345.277C387.072 349.979 388.351 358.019 388.351 358.019C388.351 358.019 399.682 359.734 408.106 357.087C416.531 354.439 416.832 351.275 414.439 348.237C412.046 345.201 403.281 340.664 406.276 337.373C409.271 334.082 414.693 353.626 419.014 349.822C423.334 346.019 424.918 341.444 422.954 337.937L420.987 334.429C420.987 334.429 412.223 329.892 409.83 326.856C407.437 323.818 411.114 325.445 415.261 327.5C419.408 329.554 428.256 335.886 429.069 334.048C429.883 332.209 427.62 322.416 426.126 319.337C424.63 316.258 411.203 317.79 409.792 316.507C408.381 315.224 415.866 311.722 418.133 312.064C420.398 312.407 423.135 313.177 423.135 313.177C423.135 313.177 423.779 307.747 416.769 302.228C409.758 296.709 407.831 303.55 407.831 303.55Z" fill="#1A2E35"/>
</g>
<path d="M400.919 345.406C399.335 338.025 397.552 327.593 398.288 320.65" stroke="#1A2E35" stroke-width="1.33333" stroke-miterlimit="10" stroke-linecap="round"/>
<path d="M403.019 354.177C403.019 354.177 402.467 352.163 401.732 349.03" stroke="#1A2E35" stroke-width="1.33333" stroke-miterlimit="10" stroke-linecap="round"/>
<path d="M401.367 319.155C401.367 319.155 413.554 319.931 422.36 325.364" stroke="#1A2E35" stroke-width="1.33333" stroke-miterlimit="10" stroke-linecap="round"/>
<path d="M400.936 329.075C400.936 329.075 401.278 326.809 410.682 335.365" stroke="#1A2E35" stroke-width="1.33333" stroke-miterlimit="10" stroke-linecap="round"/>
<path d="M394.996 317.655C394.996 317.655 394.741 312.267 387.859 309.442" stroke="#1A2E35" stroke-width="1.33333" stroke-miterlimit="10" stroke-linecap="round"/>
<path d="M396.276 325.695L390.375 324.624" stroke="#1A2E35" stroke-width="1.33333" stroke-miterlimit="10" stroke-linecap="round"/>
<path d="M396.656 333.777C396.656 333.777 385.538 336.551 381.688 340.783" stroke="#1A2E35" stroke-width="1.33333" stroke-miterlimit="10" stroke-linecap="round"/>
<path d="M382.826 368.545C382.826 368.545 401.926 383.122 403.937 404.736L399.917 332.354" stroke="#1A2E35" stroke-width="2.66667" stroke-miterlimit="10" stroke-linecap="round"/>
<path d="M429.07 357.99C403.938 353.466 403.938 404.736 403.938 404.736" stroke="#1A2E35" stroke-width="2.66667" stroke-miterlimit="10" stroke-linecap="round"/>
<path d="M406.953 404.233C406.953 404.233 392.377 298.173 434.6 298.173" stroke="#1A2E35" stroke-width="2.66667" stroke-miterlimit="10" stroke-linecap="round"/>
<path d="M419.493 354.94C416.06 351.078 408.765 351.078 404.474 360.948C400.183 370.818 404.045 369.102 404.045 369.102C404.045 369.102 412.199 366.528 417.347 364.81C422.497 363.094 429.364 358.803 429.794 361.378C430.222 363.953 426.36 366.528 421.64 367.385C416.918 368.244 404.474 371.676 405.762 374.251C407.049 376.826 410.053 384.551 410.053 384.551C410.053 384.551 416.06 379.401 421.64 375.967C427.219 372.534 430.651 373.822 427.647 377.685C424.644 381.547 416.06 385.838 417.777 390.988C419.493 396.137 429.794 402.574 429.794 402.574C429.794 402.574 431.081 391.845 434.084 388.413C437.088 384.98 437.088 388.841 436.229 394.849C435.372 400.858 435.372 402.574 435.372 402.574L447.388 406.865C447.388 406.865 451.679 400.429 453.824 398.283L455.97 396.137C455.97 396.137 446.529 387.983 446.101 382.835C445.671 377.685 452.536 382.835 454.682 383.692C456.828 384.551 460.261 390.558 460.261 390.558C460.261 390.558 462.408 380.688 462.836 377.255L463.265 373.822C463.265 373.822 454.254 370.388 450.82 370.388C447.388 370.388 445.671 372.963 445.671 369.531C445.671 366.098 449.104 363.953 452.966 364.382C456.828 364.81 463.265 366.957 463.265 366.957C463.265 366.957 465.84 364.81 464.983 358.374C464.124 351.937 461.978 351.937 456.828 353.652C451.679 355.369 448.246 359.231 444.383 359.231C440.521 359.231 442.667 354.511 445.242 353.224C447.817 351.937 454.254 349.362 455.541 348.933C456.828 348.503 448.675 342.496 444.383 341.637C440.092 340.779 434.536 343.802 434.942 348.075C435.8 357.086 422.927 358.803 419.493 354.94Z" fill="#4CD79D"/>
<path d="M447.117 399.125C447.245 400.417 447.337 401.712 447.386 403.002" stroke="#1A2E35" stroke-width="1.33333" stroke-miterlimit="10" stroke-linecap="round"/>
<path d="M438.498 368.319C441.512 375.284 444.996 384.887 446.575 394.91" stroke="#1A2E35" stroke-width="1.33333" stroke-miterlimit="10" stroke-linecap="round"/>
<path d="M436.952 364.874C434.827 360.302 433.227 357.515 433.227 357.515C433.227 357.515 437.089 355.799 438.805 352.365C440.522 348.932 443.097 347.216 443.097 347.216" stroke="#1A2E35" stroke-width="1.33333" stroke-miterlimit="10" stroke-linecap="round"/>
<path d="M418.207 372.106C418.207 372.106 433.655 365.668 433.655 366.956" stroke="#1A2E35" stroke-width="1.33333" stroke-miterlimit="10" stroke-linecap="round"/>
<path d="M442.238 363.952C442.238 363.952 449.104 360.519 455.112 360.519" stroke="#1A2E35" stroke-width="1.33333" stroke-miterlimit="10" stroke-linecap="round"/>
<path d="M439.663 374.251C439.663 374.251 435.8 377.255 431.51 382.405C427.219 387.555 425.502 392.274 425.502 392.274" stroke="#1A2E35" stroke-width="1.33333" stroke-miterlimit="10" stroke-linecap="round"/>
<path d="M444.383 375.968C444.383 375.968 453.395 373.393 458.115 377.685" stroke="#1A2E35" stroke-width="1.33333" stroke-miterlimit="10" stroke-linecap="round"/>
<path d="M425.876 315.699C424.413 314.966 428.803 313.504 428.803 313.504C435.145 314.722 427.34 316.431 425.876 315.699ZM420.095 331.72C416.662 330.003 424.816 326.57 424.816 326.57C427.82 326.141 423.528 333.435 420.095 331.72ZM460.707 317.984C456.035 315.22 450.868 315.159 448.336 312.243C445.804 309.327 450.775 307.852 453.436 308.953C456.095 310.054 462.259 313.226 463.428 313.916C464.596 314.608 463.787 304.513 461.622 300.709C459.457 296.906 453.531 294.692 450.572 297.8C444.33 304.355 434.594 295.758 435.26 290.635C435.926 285.511 431.143 280.002 420.877 283.231C410.61 286.462 414.438 288.253 414.438 288.253C414.438 288.253 421.728 292.722 426.399 295.485C431.072 298.248 438.814 300.62 437.15 302.632C435.488 304.644 431.011 303.416 427.269 300.414C423.526 297.412 412.775 290.265 411.675 292.925C410.574 295.585 406.711 302.917 406.711 302.917C406.711 302.917 414.537 304.078 420.788 306.04C427.038 308.002 428.316 311.439 423.43 311.702C418.545 311.965 409.677 308.297 406.914 312.97C404.15 317.642 406.042 329.639 406.042 329.639C406.042 329.639 414.987 323.579 419.549 323.596C424.11 323.613 421.194 326.146 416.095 329.436C410.995 332.726 409.699 333.852 409.699 333.852L414.335 345.738C414.335 345.738 422.009 344.76 425.036 344.973L428.063 345.187C428.063 345.187 428.03 332.712 431.639 329.013C435.246 325.313 435.858 333.873 436.617 336.056C437.376 338.239 435.09 344.769 435.09 344.769C435.09 344.769 443.949 339.919 446.823 337.993L449.696 336.066C449.696 336.066 446.381 327.01 444.131 324.418C441.88 321.825 438.81 322.218 441.402 319.967C443.995 317.716 447.867 318.902 450.074 322.101C452.282 325.297 454.882 331.565 454.882 331.565C454.882 331.565 458.19 332.103 462.488 327.235C466.786 322.367 465.38 320.746 460.707 317.984Z" fill="#4CD79D"/>
<path d="M420.004 340.462C419.112 341.405 418.194 342.323 417.252 343.207" stroke="#1A2E35" stroke-width="1.33333" stroke-miterlimit="10" stroke-linecap="round"/>
<path d="M437.615 313.756C434.332 320.597 429.363 329.525 422.83 337.287" stroke="#1A2E35" stroke-width="1.33333" stroke-miterlimit="10" stroke-linecap="round"/>
<path d="M439.203 310.33C441.262 305.728 442.317 302.692 442.317 302.692C442.317 302.692 446.146 304.484 449.864 303.529C453.581 302.574 456.566 303.394 456.566 303.394" stroke="#1A2E35" stroke-width="1.33333" stroke-miterlimit="10" stroke-linecap="round"/>
<path d="M421.453 300.916C421.453 300.916 436.442 308.362 435.47 309.206" stroke="#1A2E35" stroke-width="1.33333" stroke-miterlimit="10" stroke-linecap="round"/>
<path d="M443.365 313.717C443.365 313.717 450.458 316.652 454.397 321.188" stroke="#1A2E35" stroke-width="1.33333" stroke-miterlimit="10" stroke-linecap="round"/>
<path d="M433.9 318.525C433.9 318.525 429.1 317.578 422.397 317.713C415.696 317.848 411.006 319.647 411.006 319.647" stroke="#1A2E35" stroke-width="1.33333" stroke-miterlimit="10" stroke-linecap="round"/>
<path d="M435.697 323.215C435.697 323.215 443.55 328.332 443.403 334.71" stroke="#1A2E35" stroke-width="1.33333" stroke-miterlimit="10" stroke-linecap="round"/>
<path d="M365.994 375.606C364.816 375.018 368.349 373.84 368.349 373.84C373.452 374.821 367.172 376.195 365.994 375.606ZM361.342 388.499C358.579 387.117 365.14 384.354 365.14 384.354C367.558 384.01 364.105 389.881 361.342 388.499ZM394.023 377.445C390.264 375.221 386.105 375.173 384.068 372.825C382.031 370.479 386.031 369.292 388.172 370.178C390.313 371.063 395.273 373.617 396.213 374.173C397.152 374.729 396.502 366.604 394.76 363.544C393.018 360.483 388.249 358.701 385.868 361.203C380.843 366.478 373.009 359.56 373.545 355.436C374.081 351.312 370.232 346.879 361.97 349.478C353.709 352.078 356.789 353.52 356.789 353.52C356.789 353.52 362.655 357.116 366.415 359.34C370.175 361.563 376.405 363.472 375.066 365.092C373.728 366.709 370.126 365.721 367.114 363.305C364.103 360.89 355.45 355.139 354.566 357.279C353.68 359.421 350.57 365.32 350.57 365.32C350.57 365.32 356.869 366.255 361.899 367.833C366.928 369.412 367.957 372.178 364.026 372.39C360.093 372.602 352.958 369.65 350.734 373.411C348.51 377.171 350.031 386.825 350.031 386.825C350.031 386.825 357.23 381.947 360.902 381.962C364.572 381.975 362.226 384.014 358.122 386.662C354.018 389.31 352.975 390.215 352.975 390.215L356.706 399.781C356.706 399.781 362.881 398.993 365.318 399.164L367.753 399.337C367.753 399.337 367.728 389.298 370.631 386.32C373.533 383.343 374.027 390.232 374.637 391.989C375.247 393.746 373.407 399.001 373.407 399.001C373.407 399.001 380.538 395.098 382.85 393.547L385.163 391.998C385.163 391.998 382.495 384.709 380.683 382.623C378.872 380.537 376.402 380.852 378.488 379.041C380.574 377.23 383.689 378.185 385.467 380.759C387.243 383.332 389.335 388.375 389.335 388.375C389.335 388.375 391.998 388.807 395.456 384.89C398.916 380.973 397.784 379.669 394.023 377.445Z" fill="#4CD79D"/>
<path d="M361.268 395.534C360.55 396.294 359.811 397.033 359.053 397.743" stroke="#1A2E35" stroke-width="1.33333" stroke-miterlimit="10" stroke-linecap="round"/>
<path d="M375.442 374.042C372.798 379.549 368.801 386.734 363.543 392.981" stroke="#1A2E35" stroke-width="1.33333" stroke-miterlimit="10" stroke-linecap="round"/>
<path d="M376.719 371.286C378.376 367.582 379.225 365.14 379.225 365.14C379.225 365.14 382.306 366.581 385.297 365.814C388.29 365.045 390.691 365.705 390.691 365.705" stroke="#1A2E35" stroke-width="1.33333" stroke-miterlimit="10" stroke-linecap="round"/>
<path d="M362.436 363.71C362.436 363.71 374.498 369.703 373.715 370.381" stroke="#1A2E35" stroke-width="1.33333" stroke-miterlimit="10" stroke-linecap="round"/>
<path d="M380.068 374.012C380.068 374.012 385.777 376.373 388.947 380.024" stroke="#1A2E35" stroke-width="1.33333" stroke-miterlimit="10" stroke-linecap="round"/>
<path d="M372.45 377.881C372.45 377.881 368.588 377.119 363.194 377.227C357.801 377.337 354.027 378.784 354.027 378.784" stroke="#1A2E35" stroke-width="1.33333" stroke-miterlimit="10" stroke-linecap="round"/>
<path d="M373.898 381.655C373.898 381.655 380.217 385.773 380.1 390.906" stroke="#1A2E35" stroke-width="1.33333" stroke-miterlimit="10" stroke-linecap="round"/>
<path d="M378.693 306.582C378.693 306.582 373.974 310.016 370.969 306.582C367.965 303.149 372.256 296.283 367.965 293.709C363.674 291.134 356.808 295.854 356.808 295.854C356.808 295.854 362.386 297.141 362.386 300.145C362.386 303.149 359.812 304.437 359.383 303.149C358.953 301.863 355.949 295.425 351.658 298.429C347.367 301.433 346.938 305.723 346.938 305.723C346.938 305.723 357.237 304.008 358.096 307.869C358.953 311.732 353.804 307.441 349.512 307.441C345.221 307.441 341.359 308.298 341.789 310.873C342.217 313.448 341.789 317.74 341.789 317.74C341.789 317.74 345.221 314.307 349.942 314.307C354.662 314.307 354.662 317.311 350.37 317.311C346.079 317.311 342.646 321.601 342.646 321.601C342.646 321.601 346.938 328.039 352.087 331.043C357.237 334.047 358.953 332.759 359.383 330.184C359.812 327.609 358.096 321.173 361.1 321.173C364.102 321.173 356.808 332.759 360.671 333.189C364.532 333.618 367.536 332.33 368.394 329.755L369.252 327.18C369.252 327.18 367.536 320.744 367.965 318.17C368.394 315.595 369.252 318.17 370.111 321.173C370.969 324.176 371.828 331.472 373.115 331.043C374.403 330.614 378.264 325.035 379.122 322.889C379.98 320.744 373.115 314.736 373.115 313.448C373.115 312.161 378.264 314.307 379.122 315.595C379.98 316.882 380.839 318.598 380.839 318.598C380.839 318.598 383.843 316.452 383.413 310.445C382.984 304.437 378.693 306.582 378.693 306.582Z" fill="#4CD79D"/>
<path d="M354.654 322.146C357.621 318.003 362.019 312.373 365.82 309.587" stroke="#1A2E35" stroke-width="1.33333" stroke-miterlimit="10" stroke-linecap="round"/>
<path d="M351.229 327.18C351.229 327.18 351.982 325.99 353.213 324.199" stroke="#1A2E35" stroke-width="1.33333" stroke-miterlimit="10" stroke-linecap="round"/>
<path d="M367.965 310.445C367.965 310.445 373.115 316.881 374.402 323.748" stroke="#1A2E35" stroke-width="1.33333" stroke-miterlimit="10" stroke-linecap="round"/>
<path d="M362.816 314.736C362.816 314.736 364.103 313.877 364.103 322.46" stroke="#1A2E35" stroke-width="1.33333" stroke-miterlimit="10" stroke-linecap="round"/>
<path d="M365.82 306.582C365.82 306.582 368.395 304.007 366.678 299.288" stroke="#1A2E35" stroke-width="1.33333" stroke-miterlimit="10" stroke-linecap="round"/>
<path d="M362.386 310.873L360.24 307.44" stroke="#1A2E35" stroke-width="1.33333" stroke-miterlimit="10" stroke-linecap="round"/>
<path d="M358.524 314.736C358.524 314.736 352.087 310.445 348.225 310.445" stroke="#1A2E35" stroke-width="1.33333" stroke-miterlimit="10" stroke-linecap="round"/>
<path d="M422.033 450.478H388.857V402.726H422.033V450.478Z" fill="#1A2E35" stroke="#1A2E35" stroke-width="2.66667" stroke-miterlimit="10" stroke-linecap="round"/>
<path d="M124.825 438.139H73.4355V433.546H124.825V438.139Z" fill="white" stroke="#1A2E35" stroke-width="1.33333" stroke-miterlimit="10" stroke-linecap="round"/>
<path d="M124.825 415.396H73.4355V410.804H124.825V415.396Z" fill="white" stroke="#1A2E35" stroke-width="1.33333" stroke-miterlimit="10" stroke-linecap="round"/>
<path d="M72.9975 453.277C71.4001 453.277 70.1055 451.982 70.1055 450.385V410.158C70.1055 393.914 80.3981 379.766 95.717 374.953C97.7462 374.316 99.0428 374.084 99.1845 374.059C100.755 373.784 102.254 374.843 102.526 376.417C102.798 377.988 101.745 379.483 100.175 379.757C100.165 379.759 99.1122 379.949 97.4503 380.472C84.5539 384.523 75.8895 396.454 75.8895 410.158V450.385C75.8895 451.982 74.5948 453.277 72.9975 453.277Z" fill="white"/>
<path d="M72.9975 453.277C71.4001 453.277 70.1055 451.982 70.1055 450.385V410.158C70.1055 393.914 80.3981 379.766 95.717 374.953C97.7462 374.316 99.0428 374.084 99.1845 374.059C100.755 373.784 102.254 374.843 102.526 376.417C102.798 377.988 101.745 379.483 100.175 379.757C100.165 379.759 99.1122 379.949 97.4503 380.472C84.5539 384.523 75.8895 396.454 75.8895 410.158V450.385C75.8895 451.982 74.5948 453.277 72.9975 453.277Z" stroke="#1A2E35" stroke-width="1.33333" stroke-miterlimit="10" stroke-linecap="round"/>
<path d="M126.573 453.277C124.976 453.277 123.681 451.982 123.681 450.385V410.158C123.681 396.454 115.017 384.523 102.119 380.472C100.458 379.949 99.4058 379.759 99.3961 379.757C97.8258 379.479 96.7741 377.982 97.0498 376.411C97.3245 374.841 98.8187 373.785 100.386 374.059C100.528 374.084 101.824 374.316 103.854 374.953C119.173 379.766 129.465 393.914 129.465 410.158V450.385C129.465 451.982 128.171 453.277 126.573 453.277Z" fill="white"/>
<path d="M126.573 453.277C124.976 453.277 123.681 451.982 123.681 450.385V410.158C123.681 396.454 115.017 384.523 102.119 380.472C100.458 379.949 99.4058 379.759 99.3961 379.757C97.8258 379.479 96.7741 377.982 97.0498 376.411C97.3245 374.841 98.8187 373.785 100.386 374.059C100.528 374.084 101.824 374.316 103.854 374.953C119.173 379.766 129.465 393.914 129.465 410.158V450.385C129.465 451.982 128.171 453.277 126.573 453.277Z" stroke="#1A2E35" stroke-width="1.33333" stroke-miterlimit="10" stroke-linecap="round"/>
<path d="M101.587 414.655H99.8859C98.2365 414.655 96.9004 413.317 96.9004 411.669V348.635H104.573V411.669C104.573 413.317 103.236 414.655 101.587 414.655Z" fill="white"/>
<path d="M101.587 414.655H99.8859C98.2365 414.655 96.9004 413.317 96.9004 411.669V348.635H104.573V411.669C104.573 413.317 103.236 414.655 101.587 414.655Z" stroke="#1A2E35" stroke-width="1.33333" stroke-miterlimit="10" stroke-linecap="round"/>
<path d="M119.956 345.601C114.387 344.866 107.93 344.444 101.039 344.444C94.1474 344.444 87.6915 344.866 82.1225 345.601H63.1211V353.12C63.1211 357.912 80.0981 361.796 101.039 361.796C121.98 361.796 138.956 357.912 138.956 353.12V345.601H119.956Z" fill="#888888"/>
<path d="M119.956 345.601C114.387 344.866 107.93 344.444 101.039 344.444C94.1474 344.444 87.6915 344.866 82.1225 345.601H63.1211V353.12C63.1211 357.912 80.0981 361.796 101.039 361.796C121.98 361.796 138.956 357.912 138.956 353.12V345.601H119.956Z" stroke="#1A2E35" stroke-width="1.33333" stroke-miterlimit="10" stroke-linecap="round"/>
<path d="M138.956 345.602C138.956 350.394 121.98 354.278 101.039 354.278C80.0981 354.278 63.1211 350.394 63.1211 345.602C63.1211 340.81 80.0981 336.926 101.039 336.926C121.98 336.926 138.956 340.81 138.956 345.602Z" fill="#1A2E35"/>
<path d="M138.956 345.602C138.956 350.394 121.98 354.278 101.039 354.278C80.0981 354.278 63.1211 350.394 63.1211 345.602C63.1211 340.81 80.0981 336.926 101.039 336.926C121.98 336.926 138.956 340.81 138.956 345.602Z" stroke="#1A2E35" stroke-width="1.33333" stroke-miterlimit="10" stroke-linecap="round"/>
<path d="M85.6159 351.143C85.6159 351.143 93.6759 348.634 96.9005 348.634C100.124 348.634 108.363 348.277 112.125 348.456C115.886 348.634 116.423 348.815 121.617 348.815C126.812 348.815 131.469 345.769 136.126 340.575C140.783 335.38 141.857 325.53 140.066 320.515C138.274 315.499 137.201 311.2 133.976 308.872C130.752 306.543 113.915 304.931 101.557 305.649C89.1982 306.365 78.9884 308.514 72.3609 311.2C65.7344 313.888 64.1226 317.469 64.4802 319.977C64.8388 322.484 68.4211 337.708 70.7501 342.903C73.0782 348.098 77.019 350.068 77.9145 350.068C78.8091 350.068 85.6159 351.143 85.6159 351.143Z" fill="white"/>
<path d="M85.6159 351.143C85.6159 351.143 93.6759 348.634 96.9005 348.634C100.124 348.634 108.363 348.277 112.125 348.456C115.886 348.634 116.423 348.815 121.617 348.815C126.812 348.815 131.469 345.769 136.126 340.575C140.783 335.38 141.857 325.53 140.066 320.515C138.274 315.499 137.201 311.2 133.976 308.872C130.752 306.543 113.915 304.931 101.557 305.649C89.1982 306.365 78.9884 308.514 72.3609 311.2C65.7344 313.888 64.1226 317.469 64.4802 319.977C64.8388 322.484 68.4211 337.708 70.7501 342.903C73.0782 348.098 77.019 350.068 77.9145 350.068C78.8091 350.068 85.6159 351.143 85.6159 351.143Z" stroke="#1A2E35" stroke-width="1.33333" stroke-miterlimit="10" stroke-linecap="round"/>
<path d="M108.543 338.246C108.543 338.246 111.767 324.992 120.185 320.873" stroke="#1A2E35" stroke-width="1.33333" stroke-miterlimit="10" stroke-linecap="round"/>
<path d="M83.6465 318.902C83.6465 318.902 90.6326 322.485 91.8858 330.366" stroke="#1A2E35" stroke-width="1.33333" stroke-miterlimit="10" stroke-linecap="round"/>
<path d="M97.6172 308.514L98.5127 314.961" stroke="#1A2E35" stroke-width="1.33333" stroke-miterlimit="10" stroke-linecap="round"/>
<path d="M102.991 314.066L101.916 308.156" stroke="#1A2E35" stroke-width="1.33333" stroke-miterlimit="10" stroke-linecap="round"/>
<path d="M92.6776 201.774C92.6776 201.774 94.1285 208.224 92.5166 210.158C90.9039 212.093 80.2632 217.091 72.8472 220.96C65.4302 224.829 53.8217 228.699 50.7591 236.277C47.6955 243.854 48.6624 263.846 48.6624 269.167C48.6624 274.487 52.8548 299.478 55.4345 300.767C58.0141 302.056 64.6243 301.251 64.6243 301.251C64.6243 301.251 64.4633 304.152 63.0125 309.795C61.5607 315.439 61.3997 317.051 62.8505 317.373C64.3013 317.695 63.9794 317.051 74.298 314.148C84.6167 311.247 97.676 307.216 108.801 308.668C119.924 310.118 130.243 312.536 132.984 312.536C135.725 312.536 137.821 313.342 137.821 307.861C137.821 302.378 135.241 294.479 136.692 290.126C138.143 285.774 146.043 258.364 146.043 258.364C155.709 245.661 149.42 283.124 152.492 239.502C153.298 228.054 148.622 222.895 141.528 220.154C134.434 217.413 122.182 214.511 118.473 212.093C114.766 209.674 116.055 203.548 116.055 203.548L92.6776 201.774Z" fill="#4CD79D"/>
<path d="M92.6776 201.774C92.6776 201.774 94.1285 208.224 92.5166 210.158C90.9039 212.093 80.2632 217.091 72.8472 220.96C65.4302 224.829 53.8217 228.699 50.7591 236.277C47.6955 243.854 48.6624 263.846 48.6624 269.167C48.6624 274.487 52.8548 299.478 55.4345 300.767C58.0141 302.056 64.6243 301.251 64.6243 301.251C64.6243 301.251 64.4633 304.152 63.0125 309.795C61.5607 315.439 61.3997 317.051 62.8505 317.373C64.3013 317.695 63.9794 317.051 74.298 314.148C84.6167 311.247 97.676 307.216 108.801 308.668C119.924 310.118 130.243 312.536 132.984 312.536C135.725 312.536 137.821 313.342 137.821 307.861C137.821 302.378 135.241 294.479 136.692 290.126C138.143 285.774 146.043 258.364 146.043 258.364C155.709 245.661 149.42 283.124 152.492 239.502C153.298 228.054 148.622 222.895 141.528 220.154C134.434 217.413 122.182 214.511 118.473 212.093C114.766 209.674 116.055 203.548 116.055 203.548L92.6776 201.774Z" stroke="#1A2E35" stroke-width="1.33333" stroke-miterlimit="10" stroke-linecap="round"/>
<path d="M111.852 303.668C110.497 303.809 109.768 303.669 109.768 303.669" stroke="#1A2E35" stroke-width="1.33333" stroke-miterlimit="10" stroke-linecap="round"/>
<path d="M135.079 278.518C135.079 278.518 127.824 296.091 120.892 300.283C118.325 301.834 116.135 302.702 114.393 303.178" stroke="#1A2E35" stroke-width="1.33333" stroke-miterlimit="10" stroke-linecap="round"/>
<path d="M66.9552 276.565C66.9552 276.565 66.2958 251.04 61.1914 237.537" stroke="#1A2E35" stroke-width="1.33333" stroke-miterlimit="10" stroke-linecap="round"/>
<path d="M56.9805 243.513C58.9711 249.705 61.8949 257.715 64.4833 260.592" stroke="#1A2E35" stroke-width="1.33333" stroke-miterlimit="10" stroke-linecap="round"/>
<path d="M54.6035 235.56C54.6035 235.56 54.9978 237.018 55.661 239.245" stroke="#1A2E35" stroke-width="1.33333" stroke-miterlimit="10" stroke-linecap="round"/>
<path d="M54.6113 260.253C57.6942 264.252 62.2125 268.919 66.4599 268.826" stroke="#1A2E35" stroke-width="1.33333" stroke-miterlimit="10" stroke-linecap="round"/>
<path d="M50.8164 254.663C50.8164 254.663 51.6281 256.076 52.9719 258.01" stroke="#1A2E35" stroke-width="1.33333" stroke-miterlimit="10" stroke-linecap="round"/>
<path d="M83.9238 296.694C86.4572 294.928 88.5857 293.302 89.3502 292.539" stroke="#1A2E35" stroke-width="1.33333" stroke-miterlimit="10" stroke-linecap="round"/>
<path d="M70.2489 301.596C70.2489 301.596 69.4257 303.243 71.8954 303.408C73.2508 303.499 77.7286 300.862 81.8487 298.111" stroke="#1A2E35" stroke-width="1.33333" stroke-miterlimit="10" stroke-linecap="round"/>
<path d="M122.726 214.017C120.909 213.351 119.415 212.707 118.474 212.092C114.766 209.675 116.056 203.549 116.056 203.549L92.6782 201.775C92.6782 201.775 94.1291 208.224 92.5173 210.159C92.0353 210.736 90.7368 211.591 88.9707 212.604C90.6808 216.942 98.9597 236.995 105.576 236.276C111.402 235.644 119.514 220.489 122.726 214.017Z" fill="#DADADA"/>
<path d="M122.726 214.017C120.909 213.351 119.415 212.707 118.474 212.092C114.766 209.675 116.056 203.549 116.056 203.549L92.6782 201.775C92.6782 201.775 94.1291 208.224 92.5173 210.159C92.0353 210.736 90.7368 211.591 88.9707 212.604C90.6808 216.942 98.9597 236.995 105.576 236.276C111.402 235.644 119.514 220.489 122.726 214.017Z" stroke="#1A2E35" stroke-width="1.33333" stroke-miterlimit="10" stroke-linecap="round"/>
<path d="M116.055 203.548L92.6777 201.774C92.6777 201.774 93.4682 205.303 93.2282 207.923C96.2002 211.339 101.629 217.398 103.491 218.257C106.104 219.464 108.115 218.257 108.517 217.654C108.789 217.246 113.84 213.254 117.083 210.711C115.15 207.895 116.055 203.548 116.055 203.548Z" fill="#1A2E35"/>
<path d="M87.8403 179.848C87.8403 179.848 86.3895 177.752 85.2606 179.848C84.1318 181.943 85.2606 186.458 86.7114 189.199C88.1623 191.939 89.1301 193.229 89.1301 193.229L88.6462 180.17L87.8403 179.848Z" fill="#DADADA"/>
<path d="M87.8403 179.848C87.8403 179.848 86.3895 177.752 85.2606 179.848C84.1318 181.943 85.2606 186.458 86.7114 189.199C88.1623 191.939 89.1301 193.229 89.1301 193.229L88.6462 180.17L87.8403 179.848Z" stroke="#1A2E35" stroke-width="1.33333" stroke-miterlimit="10" stroke-linecap="round"/>
<path d="M123.956 180.654C123.956 180.654 124.439 177.751 126.536 179.525C128.632 181.299 125.729 188.07 125.246 189.36C124.762 190.65 122.988 192.262 122.988 192.262V182.589L123.956 180.654Z" fill="#DADADA"/>
<path d="M123.956 180.654C123.956 180.654 124.439 177.751 126.536 179.525C128.632 181.299 125.729 188.07 125.246 189.36C124.762 190.65 122.988 192.262 122.988 192.262V182.589L123.956 180.654Z" stroke="#1A2E35" stroke-width="1.33333" stroke-miterlimit="10" stroke-linecap="round"/>
<path d="M88.3243 182.589C88.3243 182.589 88.6463 198.228 89.2922 199.356C89.9371 200.484 98.321 211.287 100.417 213.383C102.512 215.478 106.059 215.317 108.478 214.672C110.896 214.028 120.731 202.742 121.537 200.323C122.343 197.905 123.31 181.138 123.31 181.138C123.31 181.138 124.117 165.821 123.31 163.564C122.505 161.306 95.7413 162.274 93.1617 162.919C90.582 163.564 89.6141 166.466 89.9371 168.884C90.2591 171.303 87.3574 175.657 87.3574 175.657L88.3243 182.589Z" fill="#DADADA"/>
<path d="M88.3243 182.589C88.3243 182.589 88.6463 198.228 89.2922 199.356C89.9371 200.484 98.321 211.287 100.417 213.383C102.512 215.478 106.059 215.317 108.478 214.672C110.896 214.028 120.731 202.742 121.537 200.323C122.343 197.905 123.31 181.138 123.31 181.138C123.31 181.138 124.117 165.821 123.31 163.564C122.505 161.306 95.7413 162.274 93.1617 162.919C90.582 163.564 89.6141 166.466 89.9371 168.884C90.2591 171.303 87.3574 175.657 87.3574 175.657L88.3243 182.589Z" stroke="#1A2E35" stroke-width="1.33333" stroke-miterlimit="10" stroke-linecap="round"/>
<path d="M93.1606 166.466C93.1606 166.466 92.9996 172.915 91.8708 175.656C90.7419 178.396 88.8072 178.235 88.8072 178.235L88.3232 184.362L86.3894 176.946C86.3894 176.946 86.0665 160.984 86.7114 157.437C87.3563 153.891 93.8055 153.246 93.8055 153.246C93.8055 153.246 88.1622 150.343 91.3868 148.409C94.6114 146.474 103.801 148.892 103.801 148.892C103.801 148.892 102.511 145.668 108.316 145.668C114.12 145.668 119.763 150.827 121.698 153.246C123.633 155.663 123.955 156.792 123.955 156.792C123.955 156.792 124.761 151.633 126.534 155.502C128.308 159.372 128.308 163.402 127.663 168.24C127.018 173.076 124.761 177.269 124.761 177.269L122.665 186.619L121.537 178.074C121.537 178.074 118.957 176.624 117.989 173.721C117.022 170.819 116.7 167.272 116.7 167.272C116.7 167.272 111.701 172.431 104.769 171.625C97.836 170.819 93.1606 166.466 93.1606 166.466Z" fill="#1A2E35"/>
<path d="M93.1606 166.466C93.1606 166.466 92.9996 172.915 91.8708 175.656C90.7419 178.396 88.8072 178.235 88.8072 178.235L88.3232 184.362L86.3894 176.946C86.3894 176.946 86.0665 160.984 86.7114 157.437C87.3563 153.891 93.8055 153.246 93.8055 153.246C93.8055 153.246 88.1622 150.343 91.3868 148.409C94.6114 146.474 103.801 148.892 103.801 148.892C103.801 148.892 102.511 145.668 108.316 145.668C114.12 145.668 119.763 150.827 121.698 153.246C123.633 155.663 123.955 156.792 123.955 156.792C123.955 156.792 124.761 151.633 126.534 155.502C128.308 159.372 128.308 163.402 127.663 168.24C127.018 173.076 124.761 177.269 124.761 177.269L122.665 186.619L121.537 178.074C121.537 178.074 118.957 176.624 117.989 173.721C117.022 170.819 116.7 167.272 116.7 167.272C116.7 167.272 111.701 172.431 104.769 171.625C97.836 170.819 93.1606 166.466 93.1606 166.466Z" stroke="#1A2E35" stroke-width="1.33333" stroke-miterlimit="10" stroke-linecap="round"/>
<path d="M109.283 184.04C109.283 184.04 109.767 197.744 108.155 198.711C106.542 199.679 103.801 196.131 103.801 196.131" stroke="#1A2E35" stroke-width="1.33333" stroke-miterlimit="10" stroke-linecap="round"/>
<path d="M99.7715 201.29C99.7715 201.29 105.415 204.515 112.509 201.29" stroke="#1A2E35" stroke-width="1.33333" stroke-miterlimit="10" stroke-linecap="round"/>
<path d="M110.896 188.842C110.896 188.842 113.324 191.144 117.991 189.261" stroke="#1A2E35" stroke-width="1.33333" stroke-miterlimit="10" stroke-linecap="round"/>
<path d="M110.412 183.717C110.412 183.717 113.637 180.332 119.924 182.588" stroke="#1A2E35" stroke-width="2.66667" stroke-miterlimit="10" stroke-linecap="round"/>
<path d="M101.061 188.07C101.061 188.07 98.1583 190.65 93.9668 188.553" stroke="#1A2E35" stroke-width="1.33333" stroke-miterlimit="10" stroke-linecap="round"/>
<path d="M102.995 183.233C102.995 183.233 97.5129 179.525 93.4824 181.622" stroke="#1A2E35" stroke-width="2.66667" stroke-miterlimit="10" stroke-linecap="round"/>
<path d="M80.9384 247.228L85.261 276.416C85.3525 277.057 85.9194 277.521 86.5662 277.483L100.527 276.662C101.25 276.619 101.785 275.97 101.688 275.252L97.5144 245.789C97.4266 245.135 96.8425 244.664 96.184 244.715L82.0749 245.81C81.3577 245.866 80.8372 246.517 80.9384 247.228Z" fill="#1A2E35"/>
<path d="M80.9384 247.228L85.261 276.416C85.3525 277.057 85.9194 277.521 86.5662 277.483L100.527 276.662C101.25 276.619 101.785 275.97 101.688 275.252L97.5144 245.789C97.4266 245.135 96.8425 244.664 96.184 244.715L82.0749 245.81C81.3577 245.866 80.8372 246.517 80.9384 247.228Z" stroke="#1A2E35" stroke-width="1.33333" stroke-miterlimit="10" stroke-linecap="round"/>
<path d="M49.7188 278.309C49.7188 278.309 50.114 295.769 51.2428 301.573C52.3707 307.377 56.5631 309.634 61.8835 304.476C67.2038 299.315 80.747 281.421 80.747 281.421C80.747 281.421 88.0021 279.485 91.0647 278.518C94.1283 277.55 98.3207 272.068 98.3207 272.068C98.3207 272.068 101.222 270.456 101.383 269.167C101.544 267.877 100.094 267.393 100.094 267.393C100.094 267.393 102.512 267.07 102.512 265.943C102.512 264.814 97.5139 263.362 95.7411 263.362H89.9368C89.9368 263.362 94.2893 262.072 96.386 261.911C98.4808 261.75 101.544 262.072 101.061 260.944C100.577 259.815 98.4808 259.331 95.4181 258.687C92.3555 258.043 83.4877 260.944 82.1978 262.072C80.908 263.201 75.9097 274.326 75.9097 274.326L53.3386 280.937" fill="#4CD79D"/>
<path d="M49.7188 278.309C49.7188 278.309 50.114 295.769 51.2428 301.573C52.3707 307.377 56.5631 309.634 61.8835 304.476C67.2038 299.315 80.747 281.421 80.747 281.421C80.747 281.421 88.0021 279.485 91.0647 278.518C94.1283 277.55 98.3207 272.068 98.3207 272.068C98.3207 272.068 101.222 270.456 101.383 269.167C101.544 267.877 100.094 267.393 100.094 267.393C100.094 267.393 102.512 267.07 102.512 265.943C102.512 264.814 97.5139 263.362 95.7411 263.362H89.9368C89.9368 263.362 94.2893 262.072 96.386 261.911C98.4808 261.75 101.544 262.072 101.061 260.944C100.577 259.815 98.4808 259.331 95.4181 258.687C92.3555 258.043 83.4877 260.944 82.1978 262.072C80.908 263.201 75.9097 274.325 75.9097 274.325L53.3386 280.937" stroke="#1A2E35" stroke-width="1.33333" stroke-miterlimit="10" stroke-linecap="round"/>
<path d="M101.384 269.167C101.545 267.877 100.094 267.393 100.094 267.393C100.094 267.393 102.512 267.07 102.512 265.942C102.512 264.814 97.5144 263.363 95.7406 263.363H89.9364C89.9364 263.363 94.2898 262.073 96.3855 261.912C98.4813 261.751 101.545 262.073 101.062 260.944C100.578 259.816 98.4812 259.332 95.4186 258.687C92.355 258.042 83.4882 260.944 82.1983 262.073C80.9085 263.202 75.9102 274.326 75.9102 274.326L62.5375 278.242C61.2458 280.834 60.2124 284.406 61.561 288.03C63.2962 292.693 66.5651 294.506 70.0394 295.099C75.3549 288.544 80.7465 281.42 80.7465 281.42C80.7465 281.42 88.0026 279.485 91.0652 278.518C94.1288 277.55 98.3203 272.069 98.3203 272.069C98.3203 272.069 101.223 270.457 101.384 269.167Z" fill="#DADADA"/>
<path d="M101.384 269.167C101.545 267.877 100.094 267.393 100.094 267.393C100.094 267.393 102.512 267.07 102.512 265.942C102.512 264.814 97.5144 263.363 95.7406 263.363H89.9364C89.9364 263.363 94.2898 262.073 96.3855 261.912C98.4813 261.751 101.545 262.073 101.062 260.944C100.578 259.816 98.4812 259.332 95.4186 258.687C92.355 258.042 83.4882 260.944 82.1983 262.073C80.9085 263.202 75.9102 274.326 75.9102 274.326L62.5375 278.242C61.2458 280.834 60.2124 284.406 61.561 288.03C63.2962 292.693 66.5651 294.506 70.0394 295.099C75.3549 288.544 80.7465 281.42 80.7465 281.42C80.7465 281.42 88.0026 279.485 91.0652 278.518C94.1288 277.55 98.3203 272.069 98.3203 272.069C98.3203 272.069 101.223 270.457 101.384 269.167V269.167Z" stroke="#1A2E35" stroke-width="1.33333" stroke-miterlimit="10" stroke-linecap="round"/>
<path d="M87.1953 268.522C87.1953 268.522 92.0317 266.748 100.093 267.393" stroke="#1A2E35" stroke-width="1.33333" stroke-miterlimit="10" stroke-linecap="round"/>
<path d="M88.6465 273.359C88.6465 273.359 89.2914 272.875 98.3202 272.068" stroke="#1A2E35" stroke-width="1.33333" stroke-miterlimit="10" stroke-linecap="round"/>
<path d="M59.7543 434.711C59.7543 434.711 57.9391 441.369 53.8527 445.605C49.7682 449.841 43.2622 455.29 43.8675 460.434C44.472 465.578 51.7347 467.394 57.6364 466.032C63.537 464.67 65.6559 460.585 68.2278 456.5C70.7998 452.414 73.07 448.783 77.0041 445.303C80.9372 441.823 80.3318 440.46 78.8193 436.376C77.3058 432.29 76.7004 430.777 76.7004 430.777C76.7004 430.777 63.8397 436.98 59.7543 434.711Z" fill="#4CD79D"/>
<path d="M59.7543 434.711C59.7543 434.711 57.9391 441.369 53.8527 445.605C49.7682 449.841 43.2622 455.29 43.8675 460.434C44.472 465.578 51.7347 467.394 57.6364 466.032C63.537 464.67 65.6559 460.585 68.2278 456.5C70.7998 452.414 73.07 448.783 77.0041 445.303C80.9372 441.823 80.3318 440.46 78.8193 436.376C77.3058 432.29 76.7004 430.777 76.7004 430.777C76.7004 430.777 63.8397 436.98 59.7543 434.711Z" stroke="#1A2E35" stroke-width="1.33333" stroke-miterlimit="10" stroke-linecap="round"/>
<path d="M77.0026 445.303C80.3757 442.319 80.4084 440.888 79.3972 437.969C75.3214 440.662 72.1768 447.582 69.2858 452.263C66.1085 457.408 62.6284 464.065 54.3072 464.821C48.6533 465.335 45.3796 462.221 43.8574 460.169C43.8642 460.258 43.8555 460.345 43.8661 460.433C44.4715 465.578 51.7343 467.394 57.6359 466.032C63.5365 464.671 65.6544 460.585 68.2264 456.499C70.7993 452.414 73.0685 448.782 77.0026 445.303Z" fill="white"/>
<path d="M77.0026 445.303C80.3757 442.319 80.4084 440.888 79.3972 437.969C75.3214 440.662 72.1768 447.582 69.2858 452.263C66.1085 457.408 62.6284 464.065 54.3072 464.821C48.6533 465.335 45.3796 462.221 43.8574 460.169C43.8642 460.258 43.8555 460.345 43.8661 460.433C44.4715 465.578 51.7343 467.394 57.6359 466.032C63.5365 464.671 65.6544 460.585 68.2264 456.499C70.7993 452.414 73.0685 448.782 77.0026 445.303Z" stroke="#1A2E35" stroke-width="1.33333" stroke-miterlimit="10" stroke-linecap="round"/>
<path d="M85.9749 323.201C85.9749 323.201 73.0795 313.529 60.3614 316.574C47.6443 319.618 37.2562 337.53 39.0474 343.441C40.8385 349.351 46.7497 382.488 50.331 391.622C53.9142 400.756 58.3919 429.593 58.3919 429.593C58.3919 429.593 57.854 429.593 57.6757 431.205C57.4964 432.818 58.2126 435.862 58.7496 436.4C59.2865 436.937 62.6904 437.833 65.914 437.833C69.1386 437.833 76.3031 435.862 77.3779 434.608C78.4518 433.356 78.6311 432.28 78.6311 431.205C78.6311 430.131 77.7356 427.086 77.1986 425.833C76.6607 424.579 75.9445 418.489 75.9445 417.951C75.9445 417.413 74.8696 400.756 75.0489 395.562C75.2282 390.368 78.4518 372.099 75.2282 364.755C72.0036 357.411 69.8549 346.485 69.8549 346.485C69.8549 346.485 73.6164 351.501 81.1385 351.142C88.6615 350.785 96.1846 348.098 96.1846 348.098L101.379 347.919" fill="white"/>
<path d="M85.9749 323.201C85.9749 323.201 73.0795 313.529 60.3614 316.574C47.6443 319.618 37.2562 337.53 39.0474 343.441C40.8385 349.351 46.7497 382.488 50.331 391.622C53.9142 400.756 58.3919 429.593 58.3919 429.593C58.3919 429.593 57.854 429.593 57.6757 431.205C57.4964 432.818 58.2126 435.862 58.7496 436.4C59.2865 436.937 62.6904 437.833 65.914 437.833C69.1386 437.833 76.3031 435.862 77.3779 434.608C78.4518 433.356 78.6311 432.28 78.6311 431.205C78.6311 430.131 77.7356 427.086 77.1986 425.833C76.6607 424.579 75.9445 418.489 75.9445 417.951C75.9445 417.413 74.8696 400.756 75.0489 395.562C75.2282 390.368 78.4518 372.099 75.2282 364.755C72.0036 357.411 69.8549 346.485 69.8549 346.485C69.8549 346.485 73.6164 351.501 81.1385 351.142C88.6615 350.785 96.1846 348.098 96.1846 348.098L101.379 347.919" stroke="#1A2E35" stroke-width="1.33333" stroke-miterlimit="10" stroke-linecap="round"/>
<path d="M132.294 430.625C132.294 430.625 134.11 437.283 138.195 441.52C142.28 445.756 148.787 451.204 148.181 456.349C147.576 461.493 140.313 463.308 134.413 461.947C128.511 460.585 126.393 456.499 123.82 452.415C121.248 448.328 118.979 444.698 115.045 441.217C111.111 437.737 111.716 436.376 113.229 432.29C114.742 428.205 115.348 426.691 115.348 426.691C115.348 426.691 128.208 432.895 132.294 430.625Z" fill="#4CD79D"/>
<path d="M132.294 430.625C132.294 430.625 134.11 437.283 138.195 441.52C142.28 445.756 148.787 451.204 148.181 456.349C147.576 461.493 140.313 463.308 134.413 461.947C128.511 460.585 126.393 456.499 123.82 452.415C121.248 448.328 118.979 444.698 115.045 441.217C111.111 437.737 111.716 436.376 113.229 432.29C114.742 428.205 115.348 426.691 115.348 426.691C115.348 426.691 128.208 432.895 132.294 430.625V430.625Z" stroke="#1A2E35" stroke-width="1.33333" stroke-miterlimit="10" stroke-linecap="round"/>
<path d="M115.045 441.217C111.672 438.234 111.639 436.803 112.65 433.883C116.726 436.578 119.87 443.497 122.761 448.177C125.939 453.322 129.419 459.98 137.74 460.736C143.394 461.25 146.669 458.136 148.19 456.084C148.183 456.172 148.192 456.26 148.181 456.348C147.576 461.492 140.313 463.308 134.412 461.947C128.511 460.585 126.393 456.5 123.821 452.414C121.248 448.329 118.979 444.697 115.045 441.217Z" fill="white"/>
<path d="M115.045 441.217C111.672 438.234 111.639 436.803 112.65 433.883C116.726 436.578 119.87 443.497 122.761 448.177C125.939 453.322 129.419 459.98 137.74 460.736C143.394 461.25 146.669 458.136 148.19 456.084C148.183 456.172 148.192 456.26 148.181 456.348C147.576 461.492 140.313 463.308 134.412 461.947C128.511 460.585 126.393 456.5 123.821 452.414C121.248 448.329 118.979 444.697 115.045 441.217Z" stroke="#1A2E35" stroke-width="1.33333" stroke-miterlimit="10" stroke-linecap="round"/>
<path d="M118.574 324.633C118.574 324.633 134.694 310.842 149.739 316.574C161.959 321.23 176.069 339.321 174.278 345.231C172.486 351.142 159.979 386.283 153.904 393.988C147.829 401.694 135.189 427.997 135.189 427.997C135.189 427.997 135.703 428.153 135.407 429.747C135.112 431.341 133.544 434.048 132.874 434.407C132.205 434.766 128.688 434.636 125.602 433.703C122.516 432.769 116.229 428.807 115.564 427.297C114.899 425.785 115.039 424.704 115.35 423.676C115.662 422.647 117.401 419.992 118.278 418.948C119.156 417.903 121.607 412.283 121.762 411.768C121.917 411.254 125.658 394.138 126.991 389.114C128.326 384.091 127.709 372.994 130.932 365.651C134.157 358.307 140.246 346.485 140.246 346.485C140.246 346.485 136.485 351.501 128.962 351.142C121.44 350.785 113.917 348.098 113.917 348.098L108.723 347.918" fill="white"/>
<path d="M118.574 324.633C118.574 324.633 134.694 310.842 149.739 316.574C161.959 321.23 176.069 339.321 174.278 345.231C172.486 351.142 159.979 386.283 153.904 393.988C147.829 401.694 135.189 427.997 135.189 427.997C135.189 427.997 135.703 428.153 135.407 429.747C135.112 431.341 133.544 434.048 132.874 434.407C132.205 434.766 128.688 434.636 125.602 433.703C122.516 432.769 116.229 428.807 115.564 427.297C114.899 425.785 115.039 424.704 115.35 423.676C115.662 422.647 117.401 419.992 118.278 418.948C119.156 417.903 121.607 412.283 121.762 411.768C121.917 411.254 125.658 394.138 126.991 389.114C128.326 384.091 127.709 372.994 130.932 365.651C134.157 358.307 140.246 346.485 140.246 346.485C140.246 346.485 136.485 351.501 128.962 351.142C121.44 350.785 113.917 348.098 113.917 348.098L108.723 347.918" stroke="#1A2E35" stroke-width="1.33333" stroke-miterlimit="10" stroke-linecap="round"/>
<path d="M143.947 256.108C143.947 256.108 156.78 268.694 158.23 269.662C159.681 270.628 157.747 271.272 159.036 272.562C160.326 273.852 162.261 275.626 162.261 275.626C162.261 275.626 161.616 277.078 162.261 278.367C162.906 279.657 166.13 280.141 166.13 280.141L150.88 309.312C150.88 309.312 139.11 310.279 136.37 310.279C133.628 310.279 131.211 315.116 131.211 316.245C131.211 317.374 129.276 324.467 129.921 324.467C130.566 324.467 130.082 325.757 130.727 326.08C131.371 326.402 132.661 325.918 132.661 325.918H134.112H135.241C135.241 325.918 136.531 326.241 137.337 325.435C138.143 324.628 141.851 318.341 141.851 318.341C141.851 318.341 149.912 319.47 152.492 319.47C155.071 319.47 157.328 313.342 157.328 312.858C157.328 312.375 181.125 291.749 184.026 286.428C186.929 281.108 188.219 273.53 185.316 268.049C182.414 262.567 171.033 248.208 169.743 245.789C168.453 243.37 159.264 228.054 151.686 224.024C144.108 219.993 138.465 219.67 138.465 219.67" fill="#4CD79D"/>
<path d="M143.947 256.108C143.947 256.108 156.78 268.694 158.23 269.662C159.681 270.628 157.747 271.272 159.036 272.562C160.326 273.852 162.261 275.626 162.261 275.626C162.261 275.626 161.616 277.078 162.261 278.367C162.906 279.657 166.13 280.141 166.13 280.141L150.88 309.312C150.88 309.312 139.11 310.279 136.37 310.279C133.628 310.279 131.211 315.116 131.211 316.245C131.211 317.374 129.276 324.467 129.921 324.467C130.566 324.467 130.082 325.757 130.727 326.08C131.371 326.402 132.661 325.918 132.661 325.918H134.112H135.241C135.241 325.918 136.531 326.241 137.337 325.435C138.143 324.628 141.851 318.341 141.851 318.341C141.851 318.341 149.912 319.47 152.492 319.47C155.071 319.47 157.328 313.342 157.328 312.858C157.328 312.375 181.124 291.749 184.026 286.428C186.929 281.108 188.219 273.53 185.316 268.049C182.414 262.567 171.033 248.208 169.743 245.789C168.453 243.37 159.264 228.054 151.686 224.024C144.108 219.993 138.465 219.67 138.465 219.67" stroke="#1A2E35" stroke-width="1.33333" stroke-miterlimit="10" stroke-linecap="round"/>
<path d="M166.131 279.495C166.131 279.495 169.678 272.241 177.094 270.789" stroke="#1A2E35" stroke-width="1.33333" stroke-miterlimit="10" stroke-linecap="round"/>
<path d="M172.378 268.174C170.128 269.507 167.401 271.499 165.809 274.015" stroke="#1A2E35" stroke-width="1.33333" stroke-miterlimit="10" stroke-linecap="round"/>
<path d="M176.127 266.275C176.127 266.275 175.399 266.566 174.307 267.117" stroke="#1A2E35" stroke-width="1.33333" stroke-miterlimit="10" stroke-linecap="round"/>
<path d="M165.808 268.854C165.808 268.854 162.906 271.918 162.906 274.98" stroke="#1A2E35" stroke-width="1.33333" stroke-miterlimit="10" stroke-linecap="round"/>
<path d="M163.386 284.872L150.88 309.313C150.88 309.313 139.11 310.279 136.37 310.279C133.629 310.279 131.211 315.116 131.211 316.245C131.211 317.374 129.276 324.467 129.921 324.467C130.566 324.467 130.082 325.757 130.728 326.08C131.371 326.402 132.661 325.918 132.661 325.918H134.112H135.241C135.241 325.918 136.531 326.241 137.338 325.435C138.143 324.628 141.851 318.341 141.851 318.341C141.851 318.341 149.912 319.47 152.493 319.47C155.071 319.47 157.329 313.342 157.329 312.858C157.329 312.45 175.855 297.103 182.138 288.387C175.3 279.981 166.718 283.358 163.386 284.872Z" fill="#DADADA"/>
<path d="M163.386 284.872L150.88 309.313C150.88 309.313 139.11 310.279 136.37 310.279C133.629 310.279 131.211 315.116 131.211 316.245C131.211 317.374 129.276 324.467 129.921 324.467C130.566 324.467 130.082 325.757 130.728 326.08C131.371 326.402 132.661 325.918 132.661 325.918H134.112H135.241C135.241 325.918 136.531 326.241 137.338 325.435C138.143 324.628 141.851 318.341 141.851 318.341C141.851 318.341 149.912 319.47 152.493 319.47C155.071 319.47 157.329 313.342 157.329 312.858C157.329 312.45 175.855 297.103 182.138 288.387C175.3 279.981 166.718 283.358 163.386 284.872Z" stroke="#1A2E35" stroke-width="1.33333" stroke-miterlimit="10" stroke-linecap="round"/>
<path d="M129.92 324.467C129.92 324.467 133.305 314.632 134.918 313.021" stroke="#1A2E35" stroke-width="1.33333" stroke-miterlimit="10" stroke-linecap="round"/>
<path d="M132.662 325.918C132.662 325.918 135.726 316.567 137.498 314.148" stroke="#1A2E35" stroke-width="1.33333" stroke-miterlimit="10" stroke-linecap="round"/>
<path d="M135.24 325.918C135.24 325.918 138.465 317.535 139.755 315.922" stroke="#1A2E35" stroke-width="1.33333" stroke-miterlimit="10" stroke-linecap="round"/>
</svg>
