<svg width="112" height="112" viewBox="0 0 112 112" fill="none" xmlns="http://www.w3.org/2000/svg">
<rect width="112" height="112" rx="16" fill="#FFFCEE"/>
<path d="M89.7694 72.6924V67.9232H84.7593C84.4518 66.4305 83.8591 65.0111 83.0138 63.7429L86.5668 60.1899L83.195 56.818L79.6419 60.3711C78.3738 59.5258 76.9544 58.9331 75.4617 58.6256V53.6155H70.6925V58.6256C69.1997 58.9331 67.7804 59.5258 66.5122 60.3711L62.9592 56.818L59.5873 60.1899L63.1404 63.7429C62.2951 65.0111 61.7024 66.4305 61.3948 67.9232H56.3848V72.6924H61.3948C61.7024 74.1851 62.2951 75.6045 63.1404 76.8726L59.5873 80.4257L62.9592 83.7976L66.5122 80.2445C67.7804 81.0898 69.1997 81.6825 70.6925 81.99V87.0001H75.4617V81.99C76.9544 81.6825 78.3738 81.0898 79.6419 80.2445L83.195 83.7976L86.5668 80.4257L83.0138 76.8726C83.8591 75.6045 84.4518 74.1851 84.7593 72.6924H89.7694ZM73.0771 77.4616C71.6622 77.4616 70.2791 77.0421 69.1026 76.256C67.9262 75.4699 67.0092 74.3526 66.4678 73.0454C65.9263 71.7383 65.7847 70.2998 66.0607 68.9121C66.3367 67.5244 67.0181 66.2497 68.0185 65.2493C69.019 64.2488 70.2937 63.5674 71.6814 63.2914C73.0691 63.0154 74.5075 63.157 75.8147 63.6985C77.1219 64.24 78.2392 65.1569 79.0253 66.3333C79.8114 67.5098 80.2309 68.8929 80.2309 70.3078C80.229 72.2045 79.4747 74.023 78.1335 75.3642C76.7923 76.7054 74.9738 77.4597 73.0771 77.4616Z" fill="#FFCB02"/>
<path d="M85 25H27.7692C26.5047 25.0013 25.2924 25.5041 24.3983 26.3983C23.5041 27.2924 23.0013 28.5047 23 29.7692V77.4615C23.0013 78.726 23.5041 79.9384 24.3983 80.8325C25.2924 81.7266 26.5047 82.2295 27.7692 82.2308H51.6154V77.4615H27.7692V44.0769H85V51.2308H89.7692V29.7692C89.768 28.5047 89.2651 27.2924 88.371 26.3983C87.4768 25.5041 86.2645 25.0013 85 25ZM85 39.3077H27.7692V29.7692H85V39.3077Z" fill="#FFCB02"/>
<path d="M65.9237 36.923C67.2407 36.923 68.3083 35.8554 68.3083 34.5384C68.3083 33.2214 67.2407 32.1538 65.9237 32.1538C64.6067 32.1538 63.5391 33.2214 63.5391 34.5384C63.5391 35.8554 64.6067 36.923 65.9237 36.923Z" fill="#FFCB02"/>
<path d="M73.076 36.923C74.393 36.923 75.4606 35.8554 75.4606 34.5384C75.4606 33.2214 74.393 32.1538 73.076 32.1538C71.759 32.1538 70.6914 33.2214 70.6914 34.5384C70.6914 35.8554 71.759 36.923 73.076 36.923Z" fill="#FFCB02"/>
<path d="M80.2303 36.923C81.5473 36.923 82.6149 35.8554 82.6149 34.5384C82.6149 33.2214 81.5473 32.1538 80.2303 32.1538C78.9133 32.1538 77.8457 33.2214 77.8457 34.5384C77.8457 35.8554 78.9133 36.923 80.2303 36.923Z" fill="#FFCB02"/>
</svg>
