<svg width="166" height="231" viewBox="0 0 166 231" fill="none" xmlns="http://www.w3.org/2000/svg">
<path d="M119.817 175.541C119.678 175.254 119.468 174.987 119.413 174.681C116.987 161.533 113.716 148.733 110.094 136.169C104.193 115.674 96.0191 96.1856 85.1145 78.8168C74.2925 61.5656 60.8629 46.7808 45.376 35.517C38.6605 30.6268 31.5537 26.59 24.1728 23.4192C22.8799 22.8635 21.5904 22.2947 20.3552 21.6358C19.3686 21.1086 18.8825 20.0063 19.1534 19.1602C19.4994 18.0948 20.3425 17.63 21.3907 17.7108C22.9138 17.8329 24.4517 17.9868 25.9525 18.3308C31.3356 19.5662 36.45 21.8739 41.4229 24.6227C53.1904 31.1154 63.8297 40.057 73.4234 50.4534C85.1235 63.1259 94.8434 78.0678 102.724 94.3029C108.919 107.054 113.796 120.635 117.452 134.713C120.366 145.936 121.75 157.565 122.916 169.217C123.062 170.696 123.014 172.239 122.838 173.713C122.609 175.598 121.941 175.921 119.817 175.541Z" fill="#39D192"/>
<path d="M118.499 219.502C120.246 217.826 120.77 215.81 121.461 213.995C125.18 204.229 128.391 194.173 131.279 183.965C132.835 178.456 134.344 172.918 135.818 167.357C136.237 165.765 137.011 164.291 137.761 162.883C137.96 162.503 138.731 162.429 139.195 162.539C139.498 162.613 139.937 163.291 139.935 163.682C139.924 165.244 139.896 166.841 139.606 168.34C136.975 182.07 133.589 195.533 129.42 208.619C128.084 212.816 126.46 216.879 124.806 220.908C124.109 222.605 123.378 224.344 122.397 225.795C120.078 229.225 116.832 229.544 114.456 226.623C113.162 225.037 112.033 223.132 111.2 221.148C107.869 213.181 105.231 204.991 102.868 196.704C102.269 194.606 101.641 192.526 101.023 190.447C100.606 189.037 100.922 187.761 101.814 187.063C102.656 186.4 103.992 186.484 104.86 187.41C105.457 188.048 105.938 188.838 106.424 189.603C108.785 193.343 110.696 197.422 112.182 201.8C113.611 206.011 114.982 210.271 116.327 214.564C116.838 216.213 117.255 217.957 118.499 219.502Z" fill="#39D192"/>
</svg>
