<svg width="93" height="99" viewBox="0 0 93 99" fill="none" xmlns="http://www.w3.org/2000/svg">
<path d="M43.759 80.6009C43.815 80.6782 43.859 80.7956 43.9296 80.8169C44.0043 80.8382 44.1056 80.7622 44.195 80.7289C44.1336 80.6582 44.0843 80.5516 44.0083 80.5249C43.9416 80.5036 43.843 80.5729 43.759 80.6009ZM80.6656 82.5969C80.7216 82.5902 80.8096 82.6009 80.8216 82.5742C80.9043 82.3982 80.9723 82.2142 81.0443 82.0329C80.9949 82.0156 80.9083 81.9716 80.8989 81.9836C80.7843 82.1436 80.675 82.3089 80.5763 82.4796C80.567 82.4969 80.6363 82.5609 80.6656 82.5969ZM58.8043 87.6062C58.7163 87.4969 58.655 87.4222 58.5936 87.3476C58.5056 87.4529 58.3576 87.5529 58.347 87.6649C58.339 87.7569 58.495 87.8636 58.5763 87.9636C58.655 87.8409 58.7323 87.7182 58.8043 87.6062ZM88.0669 69.4209C88.0229 69.4502 87.9536 69.4702 87.9403 69.5102C87.8723 69.6982 87.8163 69.8929 87.767 70.0876C87.763 70.1022 87.8856 70.1662 87.8883 70.1622C88.003 70.0049 88.1283 69.8503 88.2083 69.6742C88.231 69.6209 88.1189 69.5076 88.0669 69.4209ZM53.819 93.4142C53.935 93.2182 54.0563 93.1036 54.063 92.9809C54.0776 92.7369 53.795 92.5156 53.6643 92.6396C53.567 92.7316 53.5043 92.9116 53.5163 93.0449C53.5283 93.1529 53.675 93.2462 53.819 93.4142ZM12.063 48.4236C12.0496 48.5222 11.9896 48.6516 12.031 48.7169C12.1563 48.9142 12.319 49.0902 12.467 49.2742C12.527 49.1929 12.655 49.0756 12.6336 49.0382C12.5163 48.8196 12.3683 48.6182 12.219 48.4182C12.2003 48.3956 12.1176 48.4209 12.063 48.4236ZM49.959 93.6822C49.367 93.7569 48.9963 93.8036 48.567 93.8569C49.4563 94.3969 49.4563 94.3969 49.959 93.6822ZM32.1323 85.3529C32.439 85.9209 32.951 86.2222 33.715 86.5836C33.475 86.0489 33.3483 85.6849 33.1563 85.3556C32.8816 84.8862 32.5336 84.9876 32.1323 85.3529ZM62.0856 85.1969C62.2616 85.8369 62.5456 86.3116 63.1376 86.7702C63.251 86.0916 63.2656 85.5902 62.9843 85.0836C62.6683 85.1236 62.4096 85.1556 62.0856 85.1969ZM51.003 83.5156C51.379 84.3382 51.379 84.3382 51.9883 84.7956C52.011 84.4489 52.035 84.1182 52.0563 83.8009C51.723 83.5689 51.439 83.2569 51.003 83.5156ZM61.4376 92.7756C61.1216 93.2636 60.7016 93.5862 60.9723 94.1462C61.323 94.0262 61.647 93.9156 62.1016 93.7609C61.8256 93.3516 61.631 93.0636 61.4376 92.7756ZM3.55896 39.2383C3.83229 38.4422 3.83229 38.4422 3.15096 36.3596C3.22562 37.3862 3.29229 38.2369 3.55896 39.2383ZM73.5696 88.4862C73.787 88.3956 73.9936 88.3422 74.1616 88.2289C74.5616 87.9596 74.943 87.6609 75.4176 87.3116C75.1536 87.0369 74.9736 86.8516 74.7963 86.6689C73.5243 87.7529 73.5243 87.7529 73.5696 88.4862ZM39.1136 90.1836C39.1816 89.7809 39.287 89.5742 39.2256 89.4609C38.8736 88.8236 38.4896 88.2036 38.095 87.5916C38.0363 87.5009 37.8643 87.4836 37.687 87.4062C37.6536 88.1156 37.6243 88.7236 37.595 89.3769C38.071 89.6302 38.507 89.8609 39.1136 90.1836ZM21.2563 60.0583C21.9536 63.2782 22.4496 64.5356 23.599 65.9329C23.415 65.3689 23.287 65.0036 23.1763 64.6316C22.9363 63.8209 22.5643 63.0169 22.5083 62.1902C22.4456 61.2969 22.0576 60.7209 21.2563 60.0583ZM38.6403 83.8329C38.2576 81.4822 37.7136 80.2622 36.7896 79.4729C36.5456 81.3009 37.635 82.5382 38.6403 83.8329ZM26.903 80.8929C27.7816 81.7102 28.5976 82.4862 29.4363 83.2396C29.6083 83.3929 29.7776 83.7396 30.1203 83.4542C29.3923 82.2929 28.6736 81.1449 27.9536 79.9982C27.8936 79.9036 27.8283 79.8022 27.7416 79.7356C27.675 79.6836 27.5696 79.6796 27.431 79.6382C27.2776 80.0049 27.1256 80.3636 26.903 80.8929ZM32.1536 71.8729C32.6443 73.5076 33.2896 74.9596 34.3976 76.4182C34.3976 75.4022 34.3976 74.6356 34.3963 73.7916C33.671 73.1716 32.9123 72.5222 32.1536 71.8729ZM66.479 89.1689C66.1443 90.4716 66.1016 91.2956 66.3096 92.4076C67.4443 92.0569 68.5056 91.5849 69.527 90.9036C68.9403 90.7156 68.3723 90.6316 67.9136 90.3636C67.3936 90.0596 66.971 89.5889 66.479 89.1689ZM24.307 77.8996C24.1296 77.3342 24.0403 76.9662 23.9003 76.6209C22.5683 73.3036 21.567 69.8782 20.579 66.4502C20.1056 64.8036 19.407 63.2649 18.5576 61.7889C18.4483 61.5982 18.2336 61.4676 18.0003 61.2436C17.8883 62.2956 18.343 63.0449 18.6336 63.8342C19.515 66.2236 20.475 68.5862 21.2843 71.0009C21.7456 72.3822 22.3123 73.7689 22.2483 75.2849C22.239 75.4942 22.2963 75.7529 22.4216 75.9129C22.9376 76.5729 23.4123 77.2809 24.307 77.8996ZM14.3936 2.81691C14.051 2.92091 13.707 2.96358 13.4256 3.11958C11.579 4.13024 9.84696 5.30891 8.29496 6.73958C7.36562 7.59824 6.63096 8.60358 6.09629 9.74358C4.35896 13.4489 3.47762 17.3396 3.54829 21.4422C3.58562 23.6102 3.95362 25.7289 4.35629 27.8503C5.11762 31.8436 6.48029 35.6049 8.51095 39.1289C9.96029 41.6422 11.6323 43.9969 13.4283 46.2689C16.7696 50.4969 20.1056 54.7302 23.451 58.9542C24.2256 59.9316 25.0136 60.9009 25.8243 61.8503C30.5323 67.3636 35.8683 72.1649 41.979 76.0956C46.5283 79.0236 51.535 80.7729 56.7696 81.9489C59.8963 82.6502 62.9736 82.3062 66.0003 81.3489C69.9243 80.1062 73.4603 78.0903 76.959 75.9622C81.7243 73.0662 85.0776 68.9516 87.6216 64.0876C88.4736 62.4582 88.9723 60.7276 89.0443 58.8783C89.2083 54.6796 88.543 50.6236 86.8923 46.7502C85.527 43.5502 83.7096 40.6102 81.607 37.8476C75.7003 30.0849 68.5976 23.6289 60.2803 18.5396C55.3883 15.5476 50.2843 12.9396 45.1123 10.4636C41.4136 8.69424 37.5683 7.33025 33.5563 6.48491C29.4536 5.62091 25.3376 4.80491 21.2163 4.02891C19.119 3.63424 17.011 3.14625 14.9163 3.64625C14.7776 3.47558 14.695 3.39824 14.639 3.30357C14.559 3.16758 14.495 3.02091 14.3936 2.81691ZM33.5883 81.0249C33.595 80.9222 33.603 80.8209 33.6096 80.7182C33.599 80.8182 33.5883 80.9182 33.579 81.0182C34.1243 82.0889 34.3603 83.3102 35.067 84.3342C35.199 84.2262 35.271 84.1956 35.2723 84.1622C35.343 82.8276 34.6576 81.8542 33.7483 80.9916C33.7283 80.9716 33.6443 81.0169 33.5883 81.0249ZM87.387 72.5302C86.5656 72.7862 86.2283 73.5142 85.827 74.1609C85.5336 74.6342 85.5256 74.8649 85.555 75.8156C85.9963 75.0262 86.3416 74.4022 86.6936 73.7796C86.935 73.3529 87.1803 72.9302 87.419 72.5102C87.3736 72.4822 87.3149 72.4649 87.2896 72.4262C87.2763 72.4022 87.3123 72.3449 87.327 72.3009C87.3469 72.3782 87.367 72.4542 87.387 72.5302ZM42.6576 84.9889C42.6683 84.8542 42.6763 84.7209 42.6603 84.9569C42.643 84.7129 42.6523 84.8436 42.6616 84.9729C43.047 85.7156 43.4256 86.4622 43.8323 87.1929C43.879 87.2769 44.0816 87.2742 44.2603 87.3249C43.7896 85.9809 43.571 85.5822 42.963 85.0142C42.9056 84.9609 42.7536 85.0062 42.6576 84.9889ZM16.991 1.51157C20.6603 1.1889 24.3216 1.57158 27.9723 2.13158C30.439 2.51291 32.9096 2.85691 35.3683 3.28224C38.343 3.79558 41.2163 4.68624 43.979 5.89824C50.8523 8.90891 57.5203 12.3302 63.8056 16.4303C72.4176 22.0502 79.547 29.2369 85.4616 37.6222C88.203 41.5076 90.1403 45.7836 91.187 50.4409C91.8496 53.3929 92.1056 56.3862 92.003 59.4049C91.9723 60.2502 91.787 61.0902 91.671 61.9329C91.563 62.7182 91.4403 63.5009 91.3429 64.2876C90.7603 68.9382 89.687 73.4396 87.335 77.5556C87.0243 78.0982 86.7163 78.6409 86.4136 79.1862C83.6483 84.1982 79.8896 88.3009 75.159 91.5222C70.9523 94.3862 66.423 96.5369 61.5163 97.9342C57.8256 98.9849 54.123 98.9982 50.3896 98.3956C46.719 97.8022 43.2483 96.5889 39.939 94.9036C33.9003 91.8249 28.675 87.6849 24.0523 82.7636C19.4483 77.8636 15.447 72.5169 12.0856 66.6849C9.30829 61.8649 6.66296 56.9822 4.48029 51.8542C2.30429 46.7422 0.992291 41.4196 0.508291 35.8982C0.277624 33.2422 0.165625 30.5742 0.0816246 27.9102C0.00829125 25.5302 -0.0503768 23.1423 0.0656232 20.7676C0.173623 18.6196 0.46829 16.4756 0.786957 14.3462C1.09629 12.2636 1.65762 10.2369 2.55096 8.31958C4.31762 4.52758 7.26029 2.00092 11.083 0.426247C12.3936 -0.113754 13.7536 -0.0444183 15.111 0.114243C15.8403 0.199577 16.071 0.426239 16.991 1.51157Z" fill="#5AE4A7"/>
<path d="M37.8827 42.1022C37.7467 43.2649 37.7627 44.3382 38.0054 45.3955C39.1467 50.3942 41.6641 54.6289 45.2441 58.2515C45.7987 58.8129 46.4561 59.2795 47.1001 59.7382C51.7361 63.0289 56.9534 63.9009 62.4734 63.2822C64.8734 63.0142 67.0734 62.0929 68.9961 60.5862C70.5027 59.4075 71.6854 57.9702 72.2907 56.1422C73.1267 53.6182 73.2987 51.0355 72.6907 48.4329C71.5627 43.5942 68.8534 39.7902 65.0081 36.7262C63.0681 35.1795 60.9081 34.1209 58.4747 33.6035C55.1734 32.9022 51.8481 32.7755 48.5014 33.1595C47.1987 33.3075 45.9387 33.6395 44.7294 34.1462C43.3401 34.7275 42.1281 35.5462 41.3547 36.8782C40.7574 37.9049 40.1627 38.9395 39.6667 40.0169C39.2547 40.9075 38.8827 41.7809 37.8827 42.1022ZM63.9041 67.2235C59.4107 67.7342 55.5387 67.3315 51.8241 65.8929C47.1494 64.0822 43.3161 61.1649 40.5667 56.9209C38.6747 54.0022 37.1601 50.9022 36.2147 47.5422C35.7174 45.7769 35.4987 43.9782 35.7507 42.1515C35.9654 40.6062 36.4441 39.1795 37.6761 38.0915C37.9974 37.8062 38.2054 37.3729 38.4107 36.9782C38.9334 35.9715 39.4121 34.9435 39.9334 33.9355C40.5494 32.7449 41.4667 31.8342 42.6267 31.1689C44.2614 30.2289 45.9841 29.5062 47.8561 29.2142C51.9987 28.5675 56.1107 28.7449 60.1894 29.7089C62.1467 30.1729 63.9454 30.9875 65.5827 32.1502C68.4801 34.2049 71.0307 36.6342 72.9801 39.6009C76.0467 44.2622 77.4961 49.3529 76.5574 54.9662C75.6334 60.4889 72.4521 64.1942 67.3081 66.2382C66.0521 66.7382 64.7001 66.9982 63.9041 67.2235Z" fill="#5AE4A7"/>
<path d="M82.099 45.9344C82.2377 45.9864 82.451 45.9984 82.5017 46.0957C82.979 46.9957 83.503 47.881 83.8723 48.825C84.8643 51.3677 85.575 53.9944 85.9683 56.6997C86.355 59.361 85.5563 61.6264 83.6457 63.505C83.323 63.8224 82.9897 64.1357 82.627 64.4064C80.739 65.8237 79.2577 67.6064 77.987 69.5717C77.015 71.0717 75.8323 72.3584 74.3203 73.3064C73.607 73.753 72.8457 74.1837 72.047 74.4237C70.095 75.0157 68.1043 75.4717 66.139 76.0197C64.611 76.4464 63.0857 76.8904 61.5803 77.393C59.3923 78.125 57.283 78.0277 55.0923 77.2637C53.1763 76.5944 51.1537 76.2264 49.1777 75.7304C48.2977 75.509 47.4097 75.3197 46.5363 75.0784C44.691 74.569 43.1217 73.6037 41.771 72.2397C39.4563 69.901 37.0963 67.605 34.771 65.277C32.763 63.2677 30.8537 61.173 29.2617 58.8077C28.0817 57.0557 26.6683 55.513 25.095 54.1104C24.7137 53.7704 24.3417 53.417 23.9377 53.1064C21.315 51.0824 19.0843 48.6744 16.9697 46.141C15.9123 44.873 14.9297 43.5544 14.1643 42.093C12.2177 38.377 10.287 34.6517 8.39901 30.905C7.84034 29.7957 7.40834 28.617 6.98301 27.4477C6.14834 25.153 5.98968 22.7997 6.52435 20.4117C6.89635 18.7517 7.27368 17.093 7.67634 15.441C7.76701 15.0637 7.92168 14.681 8.13901 14.3624C8.26168 14.1837 8.57101 14.129 8.91235 13.961C8.95901 14.325 9.02568 14.5357 9.00568 14.7384C8.72435 17.4437 8.42301 20.1464 8.14301 22.8517C7.92701 24.9397 8.36568 26.941 9.20835 28.817C10.251 31.1424 11.435 33.4064 12.591 35.681C13.439 37.3477 14.3457 38.985 15.2163 40.641C16.039 42.2037 17.0123 43.6637 18.187 44.9837C18.2257 45.0264 18.263 45.0704 18.2963 45.1144C20.371 47.8317 22.7697 50.2317 25.363 52.4557C27.3097 54.125 28.931 56.0824 30.2963 58.273C31.7417 60.5904 33.559 62.6237 35.4777 64.5677C37.7483 66.8677 40.0137 69.1784 42.207 71.553C43.767 73.2397 45.603 74.341 47.8483 74.813C49.7323 75.2104 51.6083 75.6517 53.4803 76.1037C54.139 76.2624 54.8003 76.4557 55.4177 76.7317C57.4603 77.6464 59.515 77.5517 61.5563 76.8237C63.427 76.157 65.327 75.6024 67.223 75.021C69.7657 74.241 72.2377 73.2384 74.3457 71.5144C75.187 70.8237 75.9657 70.0944 76.5697 69.1877C78.0323 66.993 79.7963 65.093 81.9977 63.6157C82.2323 63.4597 82.4417 63.265 82.6643 63.089C84.7683 61.4317 85.5723 59.2424 85.2563 56.6237C84.8323 53.109 83.9563 49.7197 82.3417 46.5464C82.2403 46.3477 82.1963 46.1184 82.1283 45.901C82.1297 45.8984 82.099 45.9344 82.099 45.9344Z" fill="#5AE4A7"/>
<path d="M57.6391 70.1009C57.4378 70.8156 56.8471 71.0116 56.2178 71.1236C54.3644 71.4502 52.4818 71.6489 50.6311 71.3276C45.1498 70.3756 40.3871 68.0849 36.9044 63.5689C35.3338 61.5316 34.1151 59.3049 33.3151 56.8556C33.0458 56.0289 32.9378 55.1902 33.1378 54.3449C33.1964 54.0956 33.3898 53.8089 33.6045 53.6849C33.9391 53.4942 34.2778 53.6982 34.4951 53.9742C34.8791 54.4622 35.2418 54.9689 35.5751 55.4929C36.4551 56.8809 37.2858 58.2996 38.1884 59.6729C40.4338 63.0862 43.4351 65.6022 47.2538 67.0889C50.1658 68.2249 53.1391 69.1356 56.2871 69.3316C57.0578 69.3796 57.0564 69.3996 57.6391 70.1009Z" fill="#5AE4A7"/>
<path d="M73.63 34.0749C73.43 34.0482 73.1607 34.0962 73.0407 33.9842C72.4167 33.4056 71.826 32.7909 71.2313 32.1842C69.5967 30.5216 67.8393 29.0136 65.934 27.6589C64.55 26.6762 63.278 25.5322 62.002 24.4082C60.8967 23.4336 59.8527 22.3869 58.7887 21.3656C57.3807 20.0122 55.766 18.9842 53.9927 18.1776C51.206 16.9096 48.4367 15.5962 45.6407 14.3496C44.662 13.9136 43.6367 13.5589 42.6047 13.2696C38.838 12.2056 35.0207 11.3669 31.154 10.7469C30.3753 10.6216 29.6113 10.3776 28.8567 10.1376C27.1273 9.58956 25.4247 8.9549 23.6793 8.46289C22.266 8.06289 20.8193 7.6909 19.3633 7.54689C18.318 7.44556 17.1767 7.56823 16.1793 7.89756C13.9713 8.62556 11.914 9.70823 10.0207 11.1282C9.72733 10.8842 10.0367 10.6869 10.182 10.4962C10.3193 10.3202 10.486 10.1402 10.678 10.0376C12.8687 8.86823 14.8553 7.29223 17.366 6.76689C18.2087 6.58956 19.038 6.44689 19.8913 6.60823C21.7273 6.95623 23.5633 7.29489 25.3953 7.65889C27.8953 8.15889 30.394 8.65889 32.886 9.1909C37.11 10.0922 41.2487 11.2562 45.126 13.2229C46.8447 14.0949 48.606 14.8802 50.3553 15.6922C51.898 16.4082 53.4487 17.1096 54.9993 17.8096C56.7273 18.5882 58.2407 19.6696 59.5927 20.9922C61.05 22.4216 62.506 23.8562 63.99 25.2602C64.6887 25.9229 65.3993 26.5922 66.1913 27.1322C69.0313 29.0722 71.4167 31.4816 73.5913 34.1189L73.63 34.0749Z" fill="#5AE4A7"/>
<path d="M37.7212 30.5762C38.0492 30.5762 38.2305 30.5375 38.3852 30.5842C38.6439 30.6615 38.9852 30.7295 39.1119 30.9202C39.3385 31.2642 39.0519 31.5415 38.7865 31.7708C36.7172 33.5588 35.4092 35.8202 34.4212 38.3548C33.4745 40.7922 32.5092 43.2015 32.2159 45.8242C32.1852 46.1002 32.0679 46.3682 31.9679 46.6308C31.9305 46.7295 31.8465 46.8575 31.7585 46.8815C31.6105 46.9202 31.4319 46.9188 31.2879 46.8708C31.2052 46.8428 31.1439 46.6962 31.1132 46.5908C31.0199 46.2655 30.8692 45.9348 30.8719 45.6055C30.8985 42.1428 30.9839 38.6895 32.5225 35.4668C33.3492 33.7322 34.5212 32.3095 36.1732 31.3175C36.7012 30.9988 37.2892 30.7802 37.7212 30.5762Z" fill="#5AE4A7"/>
<path d="M71.4023 65.0697C71.7063 65.411 71.725 65.8284 71.505 66.1737C70.1983 68.2217 68.477 69.6764 65.9383 69.8924C65.8823 69.8977 65.8143 69.9097 65.769 69.8844C65.537 69.7524 65.2077 69.6604 65.101 69.4564C64.957 69.179 65.1877 68.9257 65.473 68.803C65.889 68.6244 66.317 68.4684 66.733 68.2897C68.209 67.655 69.545 66.8244 70.593 65.5737C70.7637 65.3697 71.0143 65.2284 71.2343 65.0684C71.2703 65.0417 71.3423 65.067 71.4023 65.0697Z" fill="#5AE4A7"/>
<path d="M58.0365 38.4746C55.8018 41.1426 55.8738 43.8319 57.2458 46.5759C58.8511 49.7866 62.7391 50.8359 65.8325 48.9919C66.6325 48.5119 67.1138 47.8372 67.1325 46.9359C67.1911 44.2772 66.3685 42.0306 63.9525 40.6012C62.6791 39.8466 61.3378 39.2466 59.9085 38.8586C59.3178 38.6986 58.7071 38.6106 58.0365 38.4746ZM55.9618 37.7012C57.2125 37.1132 58.4618 37.2492 59.6885 37.4492C61.7231 37.7826 63.6071 38.5559 65.3765 39.6026C66.4805 40.2546 67.2885 41.1906 67.8685 42.3226C68.6085 43.7692 68.8831 45.3306 68.8485 46.9319C68.8151 48.5946 68.0485 49.8519 66.5365 50.6132C64.4245 51.6772 62.2205 51.9519 59.9445 51.2799C59.3031 51.0892 58.6765 50.7706 58.1191 50.3999C55.3965 48.5972 53.5711 43.8212 54.7218 40.5706C54.9085 40.0412 55.1818 39.5412 55.4085 39.0239C55.5845 38.6212 55.7471 38.2159 55.9618 37.7012Z" fill="#5AE4A7"/>
</svg>
