<svg width="100" height="100" viewBox="0 0 100 100" fill="none" xmlns="http://www.w3.org/2000/svg">
<path d="M76.352 59.3154C72.586 61.993 68.7057 64.7433 64.7911 67.3641C61.7791 63.4977 58.0805 58.8416 55.079 55.4086C66.6387 49.7117 77.8877 43.1518 88.507 35.8776C91.8911 38.16 94.7511 40.944 97.9309 45.0114C90.4062 49.3159 83.2648 54.3877 76.352 59.3154ZM94.2172 82.3395C84.4794 87.4892 74.1806 92.709 62.7961 98.2519L54.6356 56.8915C57.6265 60.3773 61.2425 64.9462 64.1401 68.6474C64.1824 68.7108 64.2498 68.7333 64.3047 68.7703C64.3318 68.7948 64.3463 68.8205 64.3866 68.8305C64.4811 68.8787 64.5875 68.9117 64.6926 68.9064C64.8102 68.8998 64.9265 68.8542 65.0276 68.7954C69.1207 66.0735 73.1768 63.1825 77.108 60.3899C81.8592 57.0005 86.7129 53.5531 91.7239 50.3329C93.029 62.5302 93.8174 72.7326 94.2172 82.3395ZM21.4977 97.3321L21.1435 96.3924C16.7881 84.8638 13.8766 77.1171 11.1355 65.079C11.6397 65.1821 12.1571 65.272 12.6494 65.3757C23.3388 67.4639 34.4015 69.6234 45.1173 70.2915C45.1444 70.3034 45.1708 70.3014 45.1972 70.3001C45.2362 70.2981 45.2878 70.2823 45.3267 70.2664C45.3796 70.277 45.4193 70.2875 45.4721 70.2856C45.6552 70.275 45.8342 70.1858 45.9572 70.0351C48.4848 66.8077 50.6681 62.3393 52.6036 58.383C52.8382 57.884 53.0755 57.4248 53.312 56.9516L61.4923 98.429C47.3052 99.1354 32.7527 98.2334 21.4977 97.3321ZM10.3696 63.5968C7.42172 63.0245 4.46126 62.4529 1.52923 61.9322C3.0762 57.1301 5.43795 52.5731 8.57946 48.3406C15.8735 49.5789 23.2211 50.8404 30.5806 52.1013C37.8741 53.3396 45.1556 54.5919 52.3955 55.8197C52.077 56.4679 51.7585 57.1294 51.4155 57.8054C49.5632 61.6124 47.4612 65.8799 45.0974 68.9791C34.4986 68.3044 23.5172 66.1667 12.9058 64.0878C12.0824 63.9232 11.2465 63.7594 10.4093 63.5955L10.3696 63.5968ZM11.3787 46.9244C11.3906 46.9106 11.4038 46.9099 11.4038 46.9099C11.5604 47.1247 11.7045 47.3526 11.8604 47.5674C11.2769 47.4683 10.6941 47.3692 10.1106 47.27C10.5229 47.1293 10.9491 47.0004 11.3787 46.9244ZM10.1998 38.4376C10.5811 36.7875 11.7434 35.4758 13.153 35.082C14.0841 34.8209 15.1678 34.9313 16.1795 35.4137C17.0696 35.8241 17.9353 36.512 18.7487 37.4523C18.9873 37.7279 19.4096 37.7576 19.6726 37.5197C19.81 37.3935 19.8933 37.2316 19.8959 37.0604C19.9329 37.0056 19.9561 36.9521 19.9666 36.8985C20.2647 35.411 21.0616 34.1456 22.1434 33.5072C23.3513 32.7843 25.0807 32.7017 26.1783 33.3103C27.7642 34.1945 28.2361 35.6139 28.4713 36.7697C28.6867 37.8085 28.7779 38.9861 28.7634 40.1557C26.6937 43.0943 25.5532 46.2312 25.2545 49.8479C21.3689 49.1824 17.5097 48.5289 13.6512 47.8753C13.6215 47.8245 13.6056 47.7597 13.5772 47.722C12.5668 46.3198 11.5274 44.8666 10.8348 43.2629C10.3088 42.0701 9.77488 40.2608 10.1998 38.4376ZM31.0941 39.2914C31.8587 38.3953 32.7204 37.5851 33.6534 36.8774C37.9269 37.1919 42.2665 39.4222 45.5646 42.9965C45.5917 43.021 45.6069 43.0468 45.6347 43.0712C44.847 43.7981 43.6826 44.3486 42.6445 44.5898C40.7123 45.051 39.3206 45.049 37.9831 44.6248C37.1677 44.3671 36.3608 44.0307 35.5817 43.7195C34.7894 43.4089 33.97 43.0858 33.1406 42.8168C31.6155 42.3106 30.2502 42.0965 29.0198 42.1646C29.6092 41.1859 30.2919 40.229 31.0941 39.2914ZM40.5715 33.7094C43.4923 34.7562 45.8263 36.8073 46.5235 38.9629C46.8109 39.8795 46.8261 40.6407 46.5559 41.6802C46.5017 41.8936 46.3953 42.1097 46.275 42.3133C43.0892 38.8638 38.973 36.6355 34.8284 36.0368C36.604 34.8877 38.5567 34.0967 40.5715 33.7094ZM53.2803 45.4587C51.6844 45.1006 50.2207 45.2473 48.9943 45.8671C48.7643 45.5116 48.5343 45.1567 48.2925 44.8158C51.5767 42.6767 54.6898 41.2566 57.7996 40.4802C58.4049 41.209 58.9594 41.9657 59.3962 42.7435C60.7383 45.1647 61.2795 47.8271 60.9577 50.3151L60.811 50.7565C60.7773 50.8503 60.7693 50.9428 60.7746 51.0347C60.4806 51.1953 60.1753 51.3565 59.8686 51.5178L59.7808 51.3519C58.0547 48.4132 56.8064 46.2755 53.2803 45.4587ZM49.513 46.6918C50.524 46.216 51.7003 46.1116 53.0576 46.4169C56.1714 47.1379 57.2736 49.0212 58.9283 51.8594L58.9878 51.9744C57.2115 52.8863 55.4233 53.8002 53.6325 54.6745C53.62 54.6751 53.6206 54.6883 53.6074 54.689C53.3556 54.65 53.1032 54.6117 52.8653 54.572C51.9937 51.6387 50.8756 49.0073 49.513 46.6918ZM46.7693 50.7717C46.8294 49.7177 47.4546 48.1853 48.6744 47.2119C49.9214 49.3232 50.9602 51.7219 51.7776 54.383C50.306 54.1359 48.8469 53.8881 47.3753 53.641C46.92 52.7733 46.7237 51.8389 46.7693 50.7717ZM47.4532 38.6616C46.8023 36.6488 44.923 34.7297 42.4899 33.4848C43.982 33.3896 45.4999 33.529 47.0303 33.8773C47.0574 33.8885 47.0852 33.9143 47.1242 33.9117C47.1777 33.9216 47.2305 33.9321 47.2695 33.9302C49.4397 34.4535 51.5794 35.3734 53.5968 36.7062C54.9198 37.5785 56.0782 38.5783 57.0965 39.6522C54.0158 40.4795 50.9305 41.9247 47.7103 44.0334C47.4559 43.7063 47.2021 43.3917 46.9352 43.0785C47.2041 42.7084 47.4057 42.3298 47.5147 41.9161C47.8279 40.6903 47.8028 39.7592 47.4532 38.6616ZM37.7075 51.9823C35.3993 51.5852 33.1056 51.1999 30.7974 50.8014C29.3793 50.5649 27.9605 50.3151 26.5411 50.0778C26.7453 47.5846 27.3559 45.3438 28.4224 43.2358C29.6978 43.0336 31.1384 43.1902 32.8373 43.74C33.6402 44.0109 34.4325 44.3221 35.2116 44.6327C36.0046 44.9565 36.8379 45.2916 37.6804 45.5612C38.6836 45.8863 39.6721 45.9491 40.5887 45.8988C41.4266 45.8526 42.1945 45.7046 42.8685 45.5493C44.0619 45.2731 45.3406 44.6506 46.2664 43.8113C46.4772 44.0624 46.688 44.3135 46.8869 44.5779C43.6212 46.8081 40.6138 49.4309 37.7075 51.9823ZM46.1944 53.4308C43.7811 53.0257 41.3685 52.6207 38.9538 52.2024C41.6599 49.8201 44.4697 47.4181 47.4823 45.3596C47.7103 45.6887 47.9251 46.0184 48.1418 46.3608C46.6173 47.5357 45.866 49.3899 45.7953 50.7208C45.745 51.7087 45.8732 52.6081 46.1944 53.4308ZM44.5139 22.3513C44.5946 22.3864 44.6758 22.4346 44.7565 22.4696C46.2539 23.1754 47.9508 23.2124 49.2744 23.1655L49.772 23.1384C51.9858 23.0155 54.1843 22.6309 56.3168 21.9879C58.099 21.4421 59.4576 20.8288 60.5823 20.0312C60.9359 19.7748 61.3376 19.4372 61.7229 19.0479C61.7639 19.0592 61.7909 19.0836 61.8299 19.0816C64.9411 19.5138 68.228 21.6958 69.8351 24.392C69.8628 24.4171 69.8899 24.429 69.9038 24.4541C69.5013 25.475 69.1372 26.4933 68.787 27.5242L66.683 33.6566C66.4616 33.2224 66.2554 32.814 66.0631 32.4301C65.2331 30.716 64.5201 29.2318 62.6044 27.8533C62.3044 27.6465 61.9006 27.7079 61.6806 28.0093C61.4731 28.2967 61.5359 28.713 61.8359 28.9205C63.478 30.1034 64.0708 31.3186 64.8855 32.9944C65.1671 33.57 65.4631 34.1707 65.8147 34.8216C65.9025 34.9742 66.038 35.0588 66.1847 35.1031L62.1802 46.7665C61.9086 45.1786 61.3608 43.5933 60.5433 42.115C59.1583 39.6429 57.0113 37.3975 54.3118 35.6159C52.3347 34.3062 50.2326 33.3453 48.0982 32.7671C48.3903 31.8578 48.8264 30.9671 49.4013 30.1992C49.6082 29.8992 49.5467 29.4954 49.2586 29.2747C48.9698 29.054 48.5542 29.1293 48.3467 29.4174C47.6621 30.3353 47.1552 31.3873 46.8215 32.4836C45.1358 32.1559 43.4474 32.0396 41.8138 32.1955C40.5993 32.3158 39.4052 32.5788 38.2441 32.9581C39.1085 28.8769 41.3539 25.062 44.5139 22.3513ZM50.2802 14.2696C50.4633 14.0224 50.7553 13.8361 51.0481 13.6623C51.1756 13.6022 51.317 13.542 51.4452 13.4826C51.5087 13.4528 51.5741 13.4356 51.6388 13.4191C51.9864 13.2949 52.3089 13.1852 52.5871 13.2354C52.8931 13.2969 53.2235 13.5678 53.1984 13.8321C53.1819 14.0039 53.0477 14.1949 52.8098 14.405C52.6221 14.5729 52.4061 14.7031 52.1761 14.8214C52.0968 14.8128 52.0175 14.8035 51.9402 14.8339C51.8364 14.8663 51.7618 14.9363 51.7142 15.0176C51.4432 15.1115 51.1578 15.1795 50.8697 15.1954C50.608 15.2099 50.3965 15.1822 50.2868 15.0963C50.0806 14.937 50.1104 14.5286 50.2802 14.2696ZM50.8981 16.1793L50.9377 16.1774C51.2384 16.1602 51.5371 16.0914 51.8344 16.0089L52.4735 17.8261C52.5514 18.0448 52.755 18.1651 52.9644 18.1532C53.0166 18.1506 53.0563 18.1486 53.1072 18.1195C53.3656 18.0395 53.4944 17.756 53.4019 17.499L52.7457 15.6302C52.9889 15.4987 53.242 15.3401 53.4554 15.1445C53.9068 14.7652 54.146 14.3443 54.1744 13.9094C54.2035 13.4872 54.0389 13.1151 53.7739 12.8409C54.2841 12.7999 54.8114 12.8363 55.3209 13.018C56.3247 13.357 57.2525 14.2121 57.9364 15.4221C58.5774 16.5553 58.9508 17.8486 59.3096 19.1028C59.3248 19.155 59.3532 19.192 59.3829 19.2429C58.4558 19.8198 57.3529 20.3015 55.9322 20.7343C53.7482 21.3938 51.4961 21.7553 49.2289 21.8551C48.9929 21.8676 48.7564 21.8676 48.5205 21.8676C48.5059 21.8551 48.5046 21.8286 48.4907 21.8167C47.4704 20.4674 47.2907 18.4149 48.0764 16.7034C48.3453 16.0974 48.7491 15.5628 49.2203 15.0639C49.2771 15.3758 49.4119 15.6705 49.6855 15.8787C49.9881 16.1113 50.3873 16.2078 50.8981 16.1793ZM42.0749 17.4428C41.1259 15.0123 41.0929 12.2686 41.9744 9.92076C42.8678 7.55966 44.7419 5.57787 46.9735 4.60052C49.2903 3.73684 50.7078 3.25048 53.168 3.07536C55.8403 2.94056 58.1796 3.67803 59.6301 5.20055C60.8295 6.44751 61.4526 8.22576 61.9562 9.95842C62.5106 11.9111 62.9533 13.9755 62.3196 15.8099C61.8788 17.1084 60.9841 18.0382 60.2037 18.6594C59.8455 17.4052 59.4596 16.1126 58.7902 14.9416C57.9893 13.5275 56.8824 12.5118 55.65 12.081C54.485 11.6851 53.1092 11.7486 51.6811 12.2871C49.6333 13.0305 47.9944 14.5009 47.1737 16.2937C46.3669 18.0851 46.4316 20.2096 47.3204 21.8022C46.6338 21.7355 45.9426 21.5894 45.3082 21.2828C43.9331 20.6372 42.7806 19.2819 42.0749 17.4428ZM40.2821 11.1578L40.2689 11.1585C39.4845 11.4644 38.0571 10.5842 37.6699 9.76546C37.282 8.93284 37.4307 7.80814 38.0373 6.90744C38.5957 6.08869 39.501 5.59176 40.2603 5.53691C41.0988 5.5032 41.9334 6.10058 42.0782 6.81558C42.094 6.86713 42.1092 6.90546 42.1244 6.94445C41.5627 7.72355 41.0975 8.5641 40.7532 9.46347C40.5471 10.0133 40.3944 10.5736 40.2821 11.1578ZM60.9927 1.32883C62.1822 1.45968 63.2474 2.43835 63.4701 3.60865C63.6901 4.7393 63.1027 5.99354 62.0976 6.57439C61.7097 5.74242 61.22 4.96795 60.5784 4.29391C59.9374 3.6331 59.1583 3.08528 58.2827 2.68681C58.8371 1.78942 59.9354 1.2165 60.9927 1.32883ZM73.04 21.0621C74.5176 18.7995 76.4934 17.2452 78.579 16.71C80.9493 16.106 83.5192 16.9617 84.6948 18.7486C85.5691 20.0663 85.6451 21.6648 85.5473 22.7611C85.4191 24.2393 84.9611 25.6964 84.5144 27.1138L80.6757 39.1744C80.642 39.2821 80.648 39.3865 80.6671 39.4903C74.7165 43.2873 68.6092 46.8702 62.383 50.1968L70.032 27.9412C70.8335 25.5847 71.6715 23.1609 73.04 21.0621ZM84.3994 35.2379C85.2043 35.3119 85.9966 35.3859 86.7889 35.4599C85.2948 36.4756 83.7868 37.4662 82.2775 38.4422L83.3296 35.1395L84.3994 35.2379ZM99.3319 44.6836C95.778 40.0467 92.6404 37.0016 88.811 34.4945C88.7562 34.4581 88.6894 34.4357 88.6366 34.4258C88.5401 34.3524 88.4317 34.2923 88.3002 34.2863C87.0718 34.1575 85.8043 34.0438 84.5237 33.9308L83.732 33.8694L85.7574 27.5044C86.2279 26.0334 86.7202 24.4957 86.8543 22.8727C86.966 21.5656 86.8728 19.6526 85.7984 18.0309C84.293 15.7498 81.1859 14.6872 78.2591 15.4399C75.8498 16.0597 73.6083 17.799 71.9497 20.3471C71.38 21.2068 70.9313 22.1247 70.5091 23.0412C68.7156 20.5394 65.6759 18.5404 62.6725 17.9186C63.026 17.4256 63.3498 16.8699 63.5639 16.2269C64.3106 14.0581 63.8289 11.7591 63.2097 9.58704C63.0452 8.99165 62.841 8.38568 62.6249 7.79293C64.195 6.97088 65.0897 5.10804 64.756 3.35358C64.4236 1.61166 62.9011 0.211395 61.1301 0.0204163C59.4788 -0.150734 57.8221 0.768463 57.0489 2.23019C55.833 1.8641 54.4982 1.7141 53.0821 1.7663C50.5174 1.94802 48.9573 2.46742 46.7045 3.30137C46.6655 3.31657 46.6398 3.31789 46.6014 3.33375C45.2792 3.8928 44.0778 4.73402 43.0727 5.80123C42.5335 4.84569 41.42 4.18488 40.2266 4.22453L40.1486 4.22915C38.9175 4.29722 37.7353 5.01949 36.9582 6.166C36.0714 7.46318 35.8969 9.06236 36.4784 10.3172C37.0454 11.5338 38.6545 12.601 40.0429 12.5237C40.0554 12.523 40.0686 12.5224 40.0686 12.5224C39.9193 14.3304 40.1803 16.1945 40.853 17.9173C41.4504 19.4477 42.3346 20.7119 43.3952 21.5993C39.9774 24.6384 37.5721 28.8967 36.7983 33.4193L36.8022 33.498C34.2746 34.583 31.9518 36.2754 30.1009 38.4396L30.0262 38.5228C29.9747 37.829 29.8848 37.1378 29.7566 36.502C29.4877 35.1897 28.885 33.3182 26.8239 32.1579C25.3192 31.3219 23.0652 31.4204 21.4634 32.3891C20.2937 33.085 19.4155 34.3022 18.9443 35.76C18.2379 35.0899 17.4985 34.5659 16.7306 34.2143C15.4235 33.6163 14.0233 33.4709 12.7941 33.8145C10.9313 34.3379 9.40945 36.0382 8.92176 38.1409C8.51801 39.8577 8.77044 41.8143 9.62818 43.7895C9.91563 44.4695 10.2804 45.1197 10.6564 45.7422C9.6969 45.9662 8.78431 46.3323 7.93252 46.8524C7.74221 46.9674 7.63582 47.1841 7.6345 47.3943C7.62194 47.4075 7.61071 47.4346 7.61203 47.461C4.16191 52.0524 1.61315 57.0408 0.0258713 62.3036C-0.0725901 62.6512 0.117725 63.0087 0.465314 63.121C0.545273 63.1422 0.624568 63.1514 0.689989 63.1474C0.729638 63.1455 0.740874 63.1184 0.767307 63.117L0.780521 63.1164C3.72644 63.6497 6.73909 64.2186 9.7273 64.8021C12.5186 77.2578 15.4744 85.0944 19.921 96.855L20.2607 97.7682C20.2501 97.8085 20.2395 97.8488 20.2283 97.8885C20.2052 98.1918 20.4041 98.4561 20.6717 98.5467C20.796 98.6458 20.944 98.7158 21.1138 98.7059C21.1799 98.7026 21.2446 98.6993 21.3094 98.6696C21.3226 98.6689 21.3471 98.6411 21.3603 98.6405C32.8651 99.5537 47.787 100.488 62.3249 99.7097C62.4055 99.7315 62.4861 99.7665 62.5648 99.7626C62.656 99.7573 62.7339 99.7401 62.8238 99.7084C74.5784 93.9745 85.1719 88.6067 95.2031 83.3096C95.2289 83.295 95.2408 83.2679 95.2659 83.2534C95.3042 83.225 95.3551 83.1959 95.3914 83.1543C95.4172 83.1265 95.4278 83.0869 95.4516 83.0459C95.476 83.0182 95.5011 82.9778 95.5117 82.9375C95.5223 82.8979 95.5196 82.845 95.5295 82.7922C95.5414 82.7651 95.5533 82.738 95.5507 82.699C95.1449 72.7643 94.3262 62.2349 92.9537 49.5426C94.9473 48.289 96.9556 47.0751 98.9929 45.9114C99.1587 45.8235 99.2552 45.6735 99.2988 45.5004C99.4951 45.2658 99.5294 44.9354 99.3319 44.6836Z" fill="#0A1C2D"/>
<path d="M11.8607 47.5673C11.2772 47.4688 10.6937 47.369 10.1108 47.2706C10.5232 47.1291 10.9494 47.0009 11.3789 46.9243C11.3908 46.9104 11.4041 46.9097 11.4041 46.9097C11.5607 47.1245 11.7047 47.3532 11.8607 47.5673Z" fill="#0A1C2D"/>
<path d="M86.792 35.4601C85.2979 36.4751 83.7899 37.465 82.2812 38.4424L83.3333 35.1396L84.4025 35.2374C85.208 35.3114 86.0003 35.3861 86.792 35.4601Z" fill="#0A1C2D"/>
<path d="M76.4835 28.6353C76.3751 28.8124 76.1842 28.9148 75.9872 28.9254C75.8432 28.9333 75.6965 28.889 75.5736 28.8038C74.3854 27.989 72.8708 27.6791 71.4541 27.9414C71.0899 28.0141 70.7609 27.7689 70.6882 27.4061C70.63 27.0539 70.86 26.713 71.2241 26.6403C72.9805 26.3336 74.8407 26.7163 76.315 27.7247C76.615 27.9322 76.6904 28.3346 76.4835 28.6353Z" fill="#0A1C2D"/>
<path d="M73.5413 35.7603C73.4204 35.9506 73.2162 36.0537 73.0193 36.0649C72.8884 36.0722 72.7556 36.0398 72.6334 35.9678C71.5866 35.3301 70.3357 35.044 69.1225 35.2032C68.7709 35.2495 68.4411 34.9918 68.3949 34.6257C68.3493 34.2741 68.6064 33.9444 68.9586 33.8988C70.4851 33.7091 72.0281 34.0574 73.3199 34.853C73.6332 35.0459 73.7343 35.4471 73.5413 35.7603Z" fill="#0A1C2D"/>
<path d="M71.2908 42.0852C71.1837 42.288 70.9676 42.4182 70.7575 42.4295C70.6405 42.4361 70.507 42.4037 70.3987 42.3449C69.4775 41.844 68.3653 41.6821 67.3516 41.8823C66.9875 41.9556 66.6472 41.7244 66.5745 41.3741C66.5031 41.0232 66.7331 40.6684 67.084 40.597C68.4215 40.3261 69.8257 40.5369 71.0311 41.1924C71.343 41.3728 71.4698 41.76 71.2908 42.0852Z" fill="#0A1C2D"/>
<path d="M55.824 10.1795C55.7467 10.2099 55.6694 10.2271 55.5776 10.2324C55.3284 10.2463 55.0714 10.1161 54.9524 9.85969L54.7892 9.51409C54.6392 9.18104 54.7753 8.79248 55.1084 8.64247C55.4414 8.49313 55.83 8.62926 55.9793 8.96231L56.1432 9.30791C56.2932 9.64096 56.1571 10.0295 55.824 10.1795Z" fill="#0A1C2D"/>
<path d="M46.6719 12.3804C46.5483 12.5185 46.3811 12.5939 46.2238 12.6018C46.0533 12.6117 45.8802 12.5555 45.7421 12.432C45.4381 12.1597 45.296 11.7341 45.3787 11.335C45.4381 10.9775 45.7798 10.7482 46.1386 10.8202C46.4703 10.881 46.697 11.1837 46.6758 11.5134C46.886 11.7513 46.8939 12.132 46.6719 12.3804Z" fill="#0A1C2D"/>
<path d="M28.0807 17.181C28.5816 19.9815 27.8349 23.5374 26.2173 26.1284C24.1059 25.8357 22.4116 25.385 20.9466 24.7394C19.0758 23.9312 17.5526 22.753 16.5409 21.352C15.9951 20.5809 15.7433 19.9227 15.8008 19.3445C15.9079 18.2046 17.2057 17.444 18.3106 17.4585C19.4029 17.4783 20.5461 18.0077 21.8334 19.0914C22.0898 19.3114 22.483 19.2672 22.703 19.0108C22.8299 18.8568 22.8603 18.6592 22.8167 18.4775C22.974 17.5035 23.1934 16.4138 23.7755 15.5825C24.2368 14.9164 25.1487 14.2899 26.0316 14.5219C27.1668 14.7895 27.8752 16.0543 28.0807 17.181ZM26.3243 13.3112C24.8639 12.9551 23.4815 13.8412 22.7625 14.8701C22.1949 15.6704 21.9253 16.5942 21.7363 17.4869C20.562 16.6649 19.436 16.2472 18.3436 16.2287C16.6625 16.195 14.7429 17.3396 14.5743 19.2183C14.4838 20.1262 14.8096 21.0474 15.5424 22.0644C16.6804 23.6556 18.3846 24.9641 20.4516 25.8687C22.0957 26.6035 23.9764 27.0899 26.3626 27.4097C26.4723 27.4203 26.5741 27.4084 26.6659 27.3727C26.6897 27.3641 26.6963 27.3476 26.7195 27.3397C26.7433 27.3304 26.7704 27.3331 26.7935 27.3245C26.9091 27.2802 27.0116 27.2016 27.0889 27.0925C29.0059 24.175 29.8716 20.2035 29.2966 16.9675C29.0356 15.558 28.1085 13.754 26.3243 13.3112Z" fill="#0A1C2D"/>
<path d="M30.4831 79.522L29.8256 79.37L29.9637 81.8593L30.6212 82.0119C30.8274 82.0601 31.0058 82.0668 31.1565 82.0324C31.3065 81.998 31.43 81.9333 31.5265 81.8394C31.6237 81.7449 31.693 81.6286 31.736 81.4918C31.7783 81.3544 31.7948 81.209 31.7869 81.0537C31.7783 80.8991 31.7439 80.7412 31.6851 80.5806C31.6256 80.4193 31.5417 80.268 31.432 80.1253C31.3223 79.9832 31.1875 79.859 31.0302 79.7532C30.8723 79.6468 30.6893 79.5702 30.4831 79.522ZM29.517 82.1275L29.3379 78.8843L30.4811 79.1499C30.7646 79.2153 31.0131 79.3184 31.2278 79.4592C31.4426 79.5999 31.6243 79.7638 31.7723 79.9515C31.921 80.1392 32.036 80.3367 32.1166 80.5462C32.1966 80.755 32.2428 80.9605 32.2541 81.1621C32.2646 81.3636 32.2409 81.5526 32.1814 81.7297C32.1219 81.9062 32.0274 82.0562 31.8959 82.1784C31.7644 82.3007 31.5972 82.3833 31.3924 82.4269C31.1869 82.4705 30.9437 82.4586 30.6615 82.3939L29.517 82.1275Z" fill="#0A1C2D"/>
<path d="M34.5545 82.9466C34.7548 82.9929 34.9285 82.9995 35.0779 82.9645C35.2266 82.9301 35.3488 82.8647 35.446 82.7682C35.5418 82.673 35.6138 82.5554 35.6594 82.416C35.7043 82.2765 35.7228 82.1252 35.7136 81.9613C35.705 81.8008 35.6693 81.6389 35.6072 81.4756C35.5444 81.3124 35.4585 81.1591 35.3482 81.015C35.2385 80.8716 35.1056 80.7468 34.9497 80.6417C34.7924 80.536 34.6147 80.4593 34.4144 80.413C34.2142 80.3668 34.0398 80.3608 33.8911 80.3959C33.7424 80.4302 33.6195 80.4956 33.523 80.5921C33.4265 80.6873 33.3551 80.8042 33.3096 80.9424C33.264 81.0805 33.2455 81.2292 33.254 81.3904C33.2633 81.5543 33.2996 81.7182 33.3618 81.8827C33.4239 82.0472 33.5104 82.2012 33.6201 82.3446C33.7298 82.4887 33.8633 82.6129 34.0193 82.7186C34.1759 82.8244 34.3543 82.9004 34.5545 82.9466ZM34.5763 83.3457C34.2968 83.281 34.0477 83.1766 33.8296 83.0319C33.6115 82.8871 33.4265 82.7186 33.2745 82.5263C33.1232 82.334 33.0049 82.1305 32.921 81.9144C32.8371 81.6983 32.7895 81.4869 32.7783 81.28C32.7664 81.0719 32.7915 80.8783 32.8542 80.6985C32.9164 80.5175 33.0142 80.3655 33.1483 80.2406C33.2825 80.1163 33.4536 80.0311 33.6611 79.9855C33.8693 79.9399 34.1124 79.9498 34.392 80.0146C34.6722 80.0793 34.9206 80.1837 35.1387 80.3285C35.3574 80.4732 35.5418 80.641 35.6938 80.832C35.8451 81.0223 35.9634 81.2258 36.0473 81.44C36.1312 81.6534 36.1788 81.8642 36.1907 82.0717C36.2019 82.2792 36.1768 82.4741 36.1141 82.6559C36.0526 82.8376 35.9541 82.9909 35.82 83.1178C35.6858 83.2433 35.5154 83.3292 35.3079 83.3748C35.0997 83.4204 34.8559 83.4105 34.5763 83.3457Z" fill="#0A1C2D"/>
<path d="M36.9244 83.8475L36.7446 80.6042L37.1642 80.7014L39.1407 83.5964L39.0033 81.1289L39.4712 81.2373L39.6509 84.4806L39.2306 84.3835L37.2548 81.493L37.3916 83.9559L36.9244 83.8475Z" fill="#0A1C2D"/>
<path d="M41.1164 83.6739L42.3263 83.9554L41.6331 82.2241L41.1164 83.6739ZM40.2461 84.6189L41.3107 81.6644L41.8968 81.8005L43.3255 85.3339L42.8299 85.2189L42.4909 84.3744L40.9941 84.0268L40.7424 84.7338L40.2461 84.6189Z" fill="#0A1C2D"/>
<path d="M44.4265 85.5893L44.2679 82.7226L43.167 82.4669L43.1465 82.0902L45.8149 82.7101L45.836 83.0868L44.7351 82.831L44.8937 85.6976L44.4265 85.5893Z" fill="#0A1C2D"/>
<path d="M46.5902 86.0919L46.4111 82.8487L46.8783 82.957L47.0574 86.2003L46.5902 86.0919Z" fill="#0A1C2D"/>
<path d="M49.3875 86.3907C49.5878 86.437 49.7616 86.4436 49.9102 86.4086C50.0596 86.3742 50.1818 86.3088 50.2783 86.2123C50.3748 86.1171 50.4462 85.9995 50.4918 85.8601C50.5374 85.72 50.5559 85.5693 50.5466 85.4054C50.5374 85.2449 50.5023 85.083 50.4402 84.9191C50.3774 84.7565 50.2909 84.6032 50.1812 84.4591C50.0715 84.3158 49.938 84.1909 49.782 84.0858C49.6254 83.9801 49.4477 83.9034 49.2468 83.8571C49.0466 83.8109 48.8728 83.8049 48.7241 83.84C48.5754 83.8743 48.4525 83.9397 48.356 84.0362C48.2595 84.1314 48.1882 84.2483 48.1426 84.3865C48.097 84.5246 48.0785 84.6733 48.0871 84.8345C48.0963 84.9984 48.132 85.1623 48.1941 85.3268C48.2569 85.4913 48.3428 85.6447 48.4531 85.7887C48.5628 85.9328 48.6963 86.057 48.8523 86.1627C49.0089 86.2685 49.1866 86.3445 49.3875 86.3907ZM49.4093 86.7898C49.1292 86.7251 48.8807 86.6207 48.6626 86.476C48.4446 86.3312 48.2595 86.1627 48.1075 85.9704C47.9562 85.7781 47.8379 85.5746 47.754 85.3585C47.6694 85.1424 47.6218 84.931 47.6113 84.7241C47.5994 84.516 47.6245 84.3217 47.6866 84.142C47.7494 83.9616 47.8472 83.8096 47.9813 83.6847C48.1155 83.5604 48.2866 83.4752 48.4941 83.4296C48.7016 83.384 48.9455 83.3939 49.225 83.4587C49.5045 83.5234 49.7536 83.6278 49.9717 83.7726C50.1898 83.9173 50.3748 84.0845 50.5268 84.2761C50.6781 84.4664 50.7964 84.6693 50.8803 84.8834C50.9642 85.0975 51.0118 85.3083 51.0237 85.5158C51.0349 85.7233 51.0092 85.9182 50.9471 86.1C50.8856 86.2817 50.7871 86.435 50.653 86.5619C50.5189 86.6874 50.3477 86.7733 50.1402 86.8183C49.9327 86.8645 49.6889 86.8546 49.4093 86.7898Z" fill="#0A1C2D"/>
<path d="M51.7567 87.2916L51.5776 84.0483L51.9966 84.1455L53.9731 87.0405L53.8363 84.573L54.3035 84.6814L54.4832 87.9247L54.0636 87.8275L52.0878 84.9371L52.2239 87.4L51.7567 87.2916Z" fill="#0A1C2D"/>
</svg>
