<svg width="100" height="77" viewBox="0 0 100 77" fill="none" xmlns="http://www.w3.org/2000/svg">
<path d="M29.5143 37.4059C29.457 37.0496 29.3524 36.6991 29.247 36.3525C29.141 36.0056 29.0167 35.6636 28.8834 35.3259C28.5992 34.6095 28.7457 33.9933 29.2881 33.4596C29.3366 33.4112 29.3859 33.364 29.4297 33.3122C29.4585 33.2789 29.4786 33.2377 29.519 33.1728C29.5183 32.9756 29.3661 32.8297 29.2543 32.6645C29.0763 32.4016 28.8812 32.148 28.7262 31.8719C28.458 31.3939 28.5372 30.9564 28.923 30.5732C29.2452 30.2531 29.6521 30.1194 30.0845 30.0561C30.4194 30.0078 30.7581 29.9874 31.1086 29.954C31.3951 29.4055 31.5088 28.7837 31.951 28.3258C32.3558 27.9044 32.6976 27.4231 33.1482 27.0141C33.0737 27.035 32.9939 27.0447 32.9269 27.0795C32.1826 27.468 31.4543 27.8885 30.6962 28.2462C29.2051 28.9498 27.6302 29.2135 25.9857 29.0213C25.6699 28.9844 25.3531 28.9542 25.0391 28.9066C24.7669 28.8655 24.5078 28.8804 24.2334 28.9269C23.9046 28.9824 23.5568 28.9527 23.2205 28.9231C22.8849 28.8939 22.5534 28.8193 22.1944 28.7604C22.1598 29.2134 22.1738 29.6269 22.0854 30.0165C22.0029 30.3846 21.8119 30.7282 21.6624 31.0966C21.8657 31.402 22.1702 31.605 22.4326 31.8527C22.8447 32.2419 23.2641 32.6273 23.6346 33.0542C24.1051 33.5954 24.3713 34.25 24.5009 34.9542C24.5661 35.3107 24.6222 35.6714 24.6538 36.0326C24.6852 36.3893 24.8563 36.6233 25.1774 36.7631C25.364 36.8444 25.5438 36.9438 25.735 37.016C26.5705 37.3346 27.3187 37.7981 28.021 38.3461C28.2519 38.5264 28.5015 38.683 28.7775 38.8754C29.3898 38.5121 29.6135 38.0265 29.5143 37.4059ZM4.71994 29.8172C5.19446 29.8451 5.67859 29.8932 6.14561 29.8324C6.95469 29.7273 7.75974 29.5707 8.5562 29.3909C9.26485 29.2308 9.95708 29.0025 10.6608 28.8204C11.1444 28.6964 11.631 28.5763 12.1228 28.4967C12.9 28.3703 13.6108 28.5273 14.2159 29.0706C14.4347 29.2667 14.6811 29.4339 14.9223 29.604C14.9934 29.6538 15.0891 29.6687 15.1649 29.6963C15.4452 29.6268 15.5751 29.4007 15.7263 29.2074C16.0675 28.7742 16.427 28.3692 16.9971 28.2048C17.0212 28.0064 17.0295 27.8268 17.0672 27.6533C17.1301 27.3664 17.1731 27.0666 17.293 26.8031C17.5485 26.2447 17.9874 25.9157 18.627 25.9097C18.7852 25.9078 18.9449 25.9111 19.104 25.9155C19.7196 25.9331 20.334 25.8956 20.9318 25.7494C22.473 25.3736 24.036 25.3264 25.6077 25.4105C27.3544 25.5045 29.1012 25.6199 30.8481 25.7148C31.3924 25.744 31.9381 25.7389 32.4835 25.7445C32.8056 25.7476 33.1233 25.7584 33.3845 26.0312C33.5731 25.7413 33.5346 25.4429 33.6279 25.1376C33.5028 25.105 33.4217 25.0685 33.3401 25.0661C32.5172 25.045 31.7156 24.884 30.9112 24.7303C29.4166 24.4439 27.9197 24.1717 26.4232 23.8938C25.3727 23.6994 24.3186 23.5241 23.274 23.3044C21.3836 22.9071 19.4997 22.4834 17.6123 22.0723C16.2088 21.768 14.8475 21.3538 13.5611 20.6941C12.3494 20.073 11.0306 19.8295 9.67986 19.7481C9.61281 19.7446 9.54346 19.7465 9.47698 19.7573C9.43356 19.7638 9.3943 19.7911 9.34924 19.8106C9.25579 20.0857 9.34464 20.3478 9.42816 20.6039C9.54747 20.971 9.68947 21.3306 9.81431 21.6957C10.1066 22.5431 9.81452 23.1875 8.96487 23.4748C8.64984 23.5816 8.29868 23.6161 7.9631 23.6236C7.5794 23.6305 7.19355 23.5685 6.80827 23.54C6.22274 23.4957 5.63538 23.4534 5.02989 23.4093C5.06388 23.6074 5.19668 23.5695 5.28805 23.5856C6.22927 23.7478 7.1744 23.8829 8.10951 24.0709C9.33406 24.3174 10.5512 24.6022 11.7698 24.8768C11.9452 24.9164 12.1271 24.9678 12.2805 25.0571C12.7342 25.322 12.7744 25.8718 12.3509 26.187C12.1549 26.3331 11.9188 26.4443 11.6839 26.5165C11.1641 26.6777 10.6358 26.8156 10.1061 26.9431C9.31119 27.1342 8.50873 27.2952 7.71556 27.4961C6.80777 27.7262 5.95381 28.0948 5.15877 28.5928C4.77355 28.8338 4.40551 29.0973 4.15336 29.5048C4.30701 29.7793 4.52598 29.8058 4.71994 29.8172ZM95.8694 50.4147C95.3809 49.6082 94.7222 48.9503 94.0182 48.3352C92.148 46.7009 90.0984 45.3112 88.0385 43.9354C85.6953 42.371 83.2963 40.8956 80.8507 39.4947C77.6173 37.644 74.4819 35.6289 71.2994 33.6938C65.4188 30.1172 59.5559 26.5112 53.5783 23.0974C51.244 21.7644 48.7961 20.6765 46.3031 19.6859C44.5312 18.9817 42.6768 18.8732 40.7984 19.0711C39.7092 19.1855 38.7567 19.6713 37.8424 20.237C37.3 20.5724 36.7863 20.9456 36.3263 21.3925C35.8524 21.852 35.5526 22.3942 35.4635 23.0523C35.2625 24.5403 34.9884 26.0149 34.6631 27.4803C34.4453 28.4593 34.5298 29.4261 34.8532 30.3708C35.0376 30.9077 35.2461 31.4357 35.4539 31.9956C35.6033 31.9849 35.756 31.9431 35.8926 31.9735C36.0169 32.0012 36.123 32.1102 36.2393 32.1796C36.4143 32.285 36.5912 32.3856 36.7673 32.4902C37.0782 32.6756 37.3874 32.8652 37.7 33.0501C38.1685 33.3264 38.6394 33.5997 39.1084 33.875C39.4415 34.0702 39.7822 34.2537 40.1028 34.4667C41.1106 35.1345 42.1786 35.6762 43.2902 36.1527C46.6772 37.6036 50.1555 38.8075 53.6429 39.9866C53.7867 40.0351 53.935 40.0723 54.1272 40.1274C54.1341 39.8317 54.133 39.588 54.1471 39.3449C54.1598 39.118 54.1873 38.8922 54.2092 38.6661C54.2595 38.1605 54.4161 37.6868 54.667 37.2485C54.7666 37.0747 54.906 36.9186 55.0498 36.7776C55.1869 36.6445 55.4481 36.7556 55.4588 36.9521C55.4677 37.1313 55.4538 37.3157 55.4187 37.4922C55.289 38.1379 55.1469 38.7823 55.0074 39.4259C54.9401 39.7345 54.8667 40.041 54.7898 40.3726C54.9757 40.4476 55.1407 40.5179 55.3083 40.5802C58.5266 41.7787 61.7943 42.8155 65.1231 43.6702C68.3149 44.4899 71.4784 45.421 74.6631 46.2696C77.0357 46.9013 79.3965 47.5702 81.728 48.3419C81.8965 48.3973 82.0705 48.4368 82.3002 48.4996C82.2715 48.2605 82.2379 48.0693 82.2303 47.8776C82.2224 47.6968 82.2339 47.5139 82.2513 47.3337C82.2718 47.1303 82.3059 46.9275 82.3405 46.7264C82.3709 46.5464 82.4087 46.3691 82.4458 46.1915C82.4881 45.9912 82.5331 45.791 82.579 45.592C82.7214 44.9625 82.9885 44.3852 83.3632 43.8648C83.5327 43.6285 83.7564 43.4279 83.9748 43.2315C84.1032 43.1161 84.3111 43.1275 84.4166 43.2207C84.5336 43.3235 84.5387 43.4609 84.4972 43.5963C84.4573 43.7253 84.398 43.8497 84.346 43.9754C84.1046 44.5639 83.8406 45.1445 83.6272 45.7432C83.4062 46.3626 83.2247 46.9975 83.0462 47.6311C82.955 47.9545 82.9063 48.2907 82.8399 48.6181C82.8701 48.651 82.8945 48.7003 82.9301 48.7113C85.3753 49.4973 87.813 50.3076 90.3138 50.9045C91.0867 51.0885 91.8661 51.2499 92.6486 51.3932C93.4567 51.5417 94.2753 51.5766 95.0954 51.5161C95.4558 51.4899 95.8187 51.4592 96.1331 51.2478C96.1915 50.9113 96.0214 50.664 95.8694 50.4147ZM32.1708 29.8622C32.1034 30.0311 32.0315 30.1975 31.9625 30.3655C31.8161 30.7195 31.5414 30.8899 31.1703 30.9158C30.9665 30.9303 30.7584 30.913 30.5574 30.9417C30.29 30.9812 30.0192 31.0268 29.7651 31.1144C29.5192 31.1994 29.4732 31.3822 29.6132 31.604C29.7831 31.8733 29.9688 32.1318 30.1485 32.3942C30.2384 32.5247 30.3451 32.6465 30.4209 32.785C30.6341 33.1777 30.597 33.4544 30.2965 33.7752C30.1722 33.9077 30.0356 34.0286 29.903 34.154C29.68 34.3646 29.6279 34.6165 29.7328 34.9004C29.8359 35.1773 29.9558 35.4478 30.0502 35.727C30.2102 36.2006 30.3854 36.6705 30.5022 37.1551C30.7453 38.1614 30.4291 38.9902 29.6344 39.6441C29.1713 40.0253 28.7753 40.0699 28.2584 39.7604C27.9266 39.563 27.6033 39.347 27.3032 39.1047C26.7312 38.6414 26.0954 38.3038 25.4074 38.049C25.0897 37.9302 24.7771 37.7872 24.4797 37.6229C23.9945 37.3552 23.6925 36.9458 23.6275 36.3817C23.6035 36.179 23.5729 35.9763 23.5572 35.7719C23.4684 34.6116 22.926 33.7064 22.0205 32.9963C21.6806 32.7303 21.3415 32.4589 21.0287 32.1622C20.3833 31.5501 20.3299 30.9633 20.7583 30.3433C20.7845 30.3055 20.8047 30.2643 20.8306 30.2271C21.0701 29.8733 21.1568 29.4826 21.115 29.0589C21.0991 28.9007 21.0867 28.7415 21.0917 28.5828C21.1126 27.9118 21.4598 27.5775 22.122 27.5933C22.3033 27.5974 22.4847 27.6228 22.664 27.6507C22.9334 27.6916 23.2005 27.757 23.4715 27.7863C23.671 27.8083 23.8963 27.8443 24.0741 27.778C24.5212 27.6117 24.969 27.644 25.4216 27.6805C25.8518 27.7152 26.2815 27.7686 26.7128 27.7951C27.9642 27.8705 29.1535 27.6119 30.2929 27.1026C30.3614 27.0717 30.4784 27.065 30.4201 26.8962C30.1679 26.8725 29.9008 26.8403 29.6326 26.8227C28.3391 26.7414 27.0442 26.6702 25.7511 26.5832C24.2244 26.4796 22.7084 26.5026 21.2085 26.8654C20.4306 27.0538 19.6354 27.0941 18.836 27.008C18.6817 26.9916 18.525 27.0061 18.3668 27.0066C18.1571 27.2756 18.1449 27.5689 18.1335 27.8635C18.1217 28.1358 18.1257 28.4113 18.084 28.6795C18.0449 28.9368 17.9112 29.1886 17.6278 29.2101C17.188 29.2441 16.9466 29.516 16.7043 29.8264C16.5225 30.0585 16.3247 30.2815 16.1106 30.4832C15.6779 30.8878 15.1867 30.9384 14.6662 30.6607C14.5267 30.5868 14.3924 30.4989 14.2677 30.4019C14.0529 30.2346 13.8364 30.0663 13.6406 29.8776C13.2826 29.5321 12.8608 29.423 12.3847 29.5072C12.0722 29.5626 11.7605 29.6316 11.4535 29.7144C10.7738 29.8993 10.103 30.1186 9.41819 30.2844C8.55728 30.4932 7.69011 30.6785 6.81962 30.8429C6.1932 30.9623 5.55397 30.9818 4.91637 30.9221C4.50604 30.8835 4.10656 30.802 3.7397 30.6041C3.06597 30.2394 2.88872 29.5936 3.27526 28.9317C3.5105 28.5306 3.84748 28.2294 4.22058 27.9622C5.13411 27.3086 6.13151 26.8151 7.20583 26.4974C8.05533 26.246 8.92129 26.0526 9.77706 25.8247C9.89231 25.7943 10.067 25.8327 10.101 25.5982C9.54893 25.4808 8.99836 25.348 8.44107 25.251C7.45516 25.0784 6.46502 24.9334 5.47932 24.7668C5.05337 24.6943 4.62785 24.6146 4.21201 24.5016C3.95204 24.4315 3.68875 24.3265 3.46653 24.1784C2.92982 23.8193 2.89563 23.1687 3.35967 22.716C3.54502 22.5337 3.77027 22.4272 4.01914 22.3829C4.24236 22.3436 4.47202 22.3109 4.69659 22.3201C5.44566 22.3508 6.19411 22.3966 6.94238 22.4452C7.32815 22.4704 7.71134 22.5241 8.09682 22.5447C8.36958 22.5582 8.64524 22.5426 8.88208 22.2952C8.86387 22.1855 8.85887 22.0504 8.81611 21.9273C8.6985 21.584 8.55648 21.2486 8.43919 20.9047C8.31539 20.5365 8.23375 20.1589 8.26501 19.7663C8.31839 19.1001 8.65596 18.7177 9.31163 18.6189C9.57967 18.5782 9.85583 18.5732 10.1277 18.5781C11.5276 18.6048 12.8844 18.8704 14.1858 19.3882C15.5208 19.918 16.8965 20.3135 18.2915 20.64C21.5012 21.3907 24.7149 22.1253 27.9564 22.7342C29.1611 22.9604 30.3484 23.2816 31.541 23.5706C32.1596 23.7206 32.7708 23.8972 33.3884 24.0525C33.5105 24.0841 33.6424 24.0743 33.8068 24.0848C33.885 23.6415 33.9456 23.2387 34.028 22.8404C34.1101 22.445 34.2139 22.054 34.3172 21.6259C34.1753 21.5675 34.0478 21.5276 33.9317 21.4665C33.4515 21.212 32.9427 20.9954 32.5008 20.6844C31.2732 19.8199 30.1189 18.8576 29.0461 17.8077C28.2343 17.0129 27.4566 16.182 26.6902 15.3429C24.848 13.3281 22.9309 11.387 20.9252 9.53564C20.4641 9.10928 19.9836 8.69601 19.3675 8.33587C19.3778 8.50633 19.3625 8.61798 19.3947 8.71366C19.519 9.07848 19.6584 9.43879 19.7934 9.80027C19.8495 9.94868 19.9255 10.0917 19.9651 10.2432C20.0511 10.5726 19.8402 10.8387 19.4981 10.827C19.342 10.8213 19.1877 10.7653 19.0323 10.7394C18.9386 10.7236 18.8426 10.7232 18.6894 10.7112C18.8856 10.9706 19.058 11.1554 19.1791 11.3692C19.4037 11.764 19.2418 12.1538 18.8018 12.2759C18.5868 12.3354 18.3522 12.36 18.1292 12.3481C17.6762 12.3237 17.2246 12.2599 16.7715 12.2216C16.674 12.2137 16.5736 12.2439 16.4518 12.2588C16.598 12.4967 16.7331 12.6812 16.8304 12.8842C17.0312 13.3035 16.9226 13.7116 16.5249 13.9462C16.3152 14.0704 16.0673 14.155 15.8266 14.1967C15.3565 14.2793 14.8786 14.3119 14.4062 14.377C13.6409 14.4839 12.874 14.5809 12.1145 14.7182C11.3958 14.8475 10.7149 15.1096 10.0693 15.453C10.0004 15.4896 9.94652 15.5525 9.81482 15.6623C10.412 15.783 10.9255 15.8643 11.4411 15.9203C13.7654 16.1701 16.0232 15.9856 18.1391 14.8752C18.4578 14.7074 18.8054 14.5761 19.1547 14.4877C20.027 14.2693 20.7911 14.5907 21.2675 15.352C21.3871 15.543 21.4793 15.7534 21.5712 15.9607C21.7012 16.2532 21.8574 16.5196 22.0834 16.7566C22.2518 16.9317 22.3647 17.1636 22.4848 17.3805C22.5722 17.5383 22.6257 17.7153 22.7025 17.8801C22.8611 18.2147 23.0663 18.3046 23.4152 18.1785C23.629 18.1021 23.8337 18.0007 24.0417 17.91C24.4723 17.7215 24.8949 17.7643 25.28 18.0094C25.5657 18.1913 25.8373 18.4053 26.0803 18.6396C27.1206 19.6428 28.2947 20.4499 29.594 21.0759C30.1465 21.3428 30.7032 21.601 31.2538 21.8712C31.5181 22.001 31.7777 22.1443 32.0315 22.2937C32.1261 22.3498 32.2068 22.4353 32.2792 22.5198C32.3679 22.6231 32.3031 22.8244 32.1714 22.8541C32.0637 22.8779 31.9413 22.9027 31.8392 22.8761C31.5985 22.8135 31.3585 22.7381 31.1326 22.637C30.4065 22.3133 29.6809 21.9862 28.9659 21.6395C27.7548 21.0504 26.6267 20.333 25.6361 19.4115C25.4537 19.2415 25.2542 19.0896 25.0608 18.931C24.8277 18.7406 24.58 18.6989 24.3011 18.8346C24.0968 18.9341 23.8888 19.0299 23.6721 19.0973C22.9961 19.3077 22.3344 19.0227 22.0075 18.3918C21.9342 18.2503 21.8886 18.0925 21.8007 17.9624C21.6893 17.7953 21.5764 17.6016 21.4134 17.5023C21.0821 17.3001 20.8937 17.0069 20.7347 16.6742C20.6466 16.4897 20.5584 16.3028 20.4433 16.1358C20.1588 15.724 19.9006 15.6535 19.4543 15.8769C19.1502 16.0297 18.8532 16.2005 18.5688 16.3866C17.9498 16.7909 17.2674 17.011 16.551 17.1783C14.0425 17.7638 11.5785 17.3996 9.11939 16.8744C8.98713 16.8465 8.85583 16.7979 8.73428 16.7387C8.61327 16.6799 8.49336 16.6077 8.39237 16.5193C7.9749 16.1534 7.92935 15.6636 8.31345 15.2655C8.54712 15.0236 8.82671 14.8141 9.11742 14.6426C10.4923 13.8286 12.0139 13.4652 13.5798 13.2565C14.0974 13.1881 14.6207 13.1545 15.1402 13.0968C15.2664 13.083 15.389 13.0348 15.5566 12.9913C15.4137 12.8038 15.3001 12.6647 15.1987 12.5173C15.0703 12.33 14.9239 12.1485 14.8348 11.9429C14.6273 11.4625 14.9116 11.0045 15.4334 10.9657C15.612 10.9528 15.7975 10.9776 15.9749 11.0088C16.5124 11.1031 17.0469 11.2142 17.5838 11.3082C17.729 11.3341 17.8823 11.4196 18.0744 11.2778C17.9592 11.1401 17.8545 11.0047 17.7381 10.8795C17.5379 10.6626 17.3239 10.4582 17.1277 10.237C16.9812 10.0723 16.9455 9.87327 17.037 9.66531C17.1096 9.50011 17.3105 9.41926 17.5687 9.46696C17.7465 9.49986 17.9236 9.54926 18.0943 9.61109C18.3495 9.70476 18.5976 9.8194 18.8517 9.91615C18.9657 9.95919 19.089 9.9797 19.2557 10.023C19.1098 9.62302 18.9617 9.28926 18.8701 8.94037C18.7963 8.6598 18.7511 8.359 18.7661 8.07094C18.7826 7.74477 19.0935 7.54971 19.4078 7.64523C19.6208 7.71017 19.8265 7.81941 20.0181 7.93663C21.0699 8.58282 21.9903 9.39553 22.8845 10.2372C24.6907 11.9366 26.4087 13.7225 28.0763 15.5578C29.4565 17.0752 30.9744 18.4458 32.5584 19.7438C33.0308 20.1303 33.5584 20.4518 34.0762 20.7787C34.2587 20.8951 34.4549 21.0363 34.668 21.008C35.1004 20.5974 35.479 20.1681 35.9266 19.828C36.5218 19.3747 37.1583 18.9732 37.7973 18.5812C38.8256 17.9527 39.955 17.6198 41.1563 17.5606C43.2722 17.4565 45.3361 17.7072 47.294 18.5636C48.7921 19.2192 50.2876 19.8843 51.7709 20.5732C53.6279 21.4353 55.3858 22.4869 57.1399 23.5349C62.4051 26.6813 67.6546 29.8539 72.905 33.0247C75.822 34.786 78.7143 36.5888 81.6437 38.3285C85.4176 40.5698 89.107 42.932 92.5876 45.61C93.6875 46.4565 94.7556 47.3442 95.674 48.3907C96.0322 48.7995 96.368 49.2343 96.6573 49.6937C96.872 50.0343 97.0411 50.4206 97.1477 50.8097C97.3259 51.459 97.0441 51.9802 96.4165 52.2377C96.1671 52.339 95.8965 52.412 95.6288 52.4432C95.2009 52.4936 94.7683 52.5164 94.3368 52.5184C93.355 52.523 92.3816 52.409 91.428 52.1868C89.8567 51.8195 88.2805 51.4647 86.7304 51.02C82.6661 49.8516 78.5928 48.7257 74.4906 47.694C70.8983 46.7908 67.3333 45.774 63.7548 44.8126C61.8887 44.311 60.0387 43.7549 58.2159 43.1108C55.5166 42.1555 52.822 41.1858 50.1198 40.2368C47.6736 39.3775 45.2661 38.4283 42.9111 37.3411C41.8565 36.8549 40.8401 36.3077 39.87 35.6676C39.3209 35.3057 38.7459 34.9825 38.1865 34.6361C37.2407 34.0504 36.292 33.4674 35.5195 32.649C35.0078 32.6437 34.9594 32.6319 34.6414 32.272C33.8979 31.4352 33.4338 30.4643 33.2662 29.354C33.2303 29.1122 33.1953 28.8701 33.1459 28.5332C32.4774 29.1416 32.4263 29.2135 32.1708 29.8622Z" fill="#39D192"/>
<path d="M69.0745 33.1816C68.8632 33.0362 68.6804 32.9012 68.4894 32.7792C67.9536 32.4375 67.4227 32.0862 66.8729 31.7688C66.481 31.5418 66.0694 31.3453 65.6523 31.1669C63.8778 30.4075 62.0807 29.6998 60.3255 28.8994C56.1124 26.9774 51.9376 24.9725 47.7914 22.9078C46.6943 22.3618 45.5817 21.845 44.4584 21.3544C43.9205 21.1195 43.3515 20.9386 42.78 20.8025C41.9179 20.5986 41.0609 20.6672 40.2477 21.0452C39.7889 21.2585 39.3695 21.5283 39.1174 21.9916C39.0639 22.0893 39.0179 22.1957 38.9881 22.3033C38.9362 22.4937 39.126 22.6701 39.3172 22.6035C39.4427 22.5591 39.5668 22.4942 39.671 22.4118C40.5174 21.7459 41.4806 21.5903 42.5058 21.8003C43.0148 21.9047 43.5132 22.0756 44.0058 22.244C46.1993 22.9978 48.3202 23.927 50.4322 24.8805C53.639 26.328 56.8592 27.7472 60.0208 29.2935C61.6564 30.0938 63.2446 30.9674 64.7208 32.0349C65.6879 32.735 66.7625 33.2144 67.8762 33.6172C68.0464 33.6788 68.2216 33.7314 68.3992 33.7686C68.5304 33.7959 68.6708 33.8108 68.8033 33.7963C68.9623 33.7779 69.1416 33.7243 69.1654 33.5419C69.1811 33.4231 69.1057 33.2929 69.0745 33.1816Z" fill="#39D192"/>
<path d="M52.7671 30.3429C52.4958 30.6983 52.2414 30.9913 52.032 31.3133C51.3284 32.3959 50.8821 33.5785 50.7131 34.861C50.6391 35.4242 50.5679 35.9876 50.5115 36.5536C50.4864 36.8006 50.4864 37.0525 50.4999 37.3013C50.5068 37.4331 50.5508 37.5694 50.6086 37.6894C50.6706 37.8185 50.7957 37.8804 50.9453 37.8757C51.1018 37.8706 51.1997 37.7876 51.2429 37.6428C51.2753 37.5345 51.2985 37.423 51.3223 37.3119C51.6289 35.8635 52.0966 34.4633 52.5921 33.0719C52.8819 32.2572 53.2287 31.4681 53.6983 30.7374C53.7951 30.5876 53.8707 30.416 53.916 30.2446C53.9718 30.0374 53.7336 29.8088 53.5433 29.8965C53.259 30.0276 52.9977 30.208 52.7671 30.3429Z" fill="#39D192"/>
<path d="M65.5115 35.1361C65.2986 35.4818 65.0623 35.8147 64.8788 36.1759C64.3505 37.2157 64.0317 38.325 63.8857 39.4798C63.7947 40.1985 63.739 40.9221 63.6862 41.6459C63.6697 41.8678 63.6978 42.0977 63.7375 42.319C63.7629 42.457 63.8797 42.5523 64.0311 42.5597C64.1771 42.5676 64.3019 42.5119 64.35 42.3611C64.4106 42.167 64.4685 41.9713 64.5135 41.7725C64.9832 39.6919 65.5506 37.6419 66.4099 35.6827C66.4644 35.5592 66.5093 35.428 66.5332 35.2963C66.562 35.133 66.5295 34.9732 66.3744 34.8793C66.2305 34.7925 66.0737 34.7843 65.9222 34.8686C65.8626 34.9018 65.802 34.9344 65.749 34.9765C65.6786 35.0336 65.616 35.0988 65.5496 35.1603C65.5373 35.1525 65.5238 35.144 65.5115 35.1361Z" fill="#39D192"/>
<path d="M72.6451 36.2611C72.7845 36.5413 72.9961 36.676 73.179 36.8337C74.3975 37.8883 75.7085 38.8171 77.0745 39.6697C77.9584 40.2211 78.8407 40.7731 79.73 41.3152C79.9214 41.4316 80.1336 41.5181 80.3448 41.5938C80.4896 41.6458 80.6294 41.5664 80.68 41.4355C80.7142 41.3458 80.6967 41.2005 80.6424 41.1215C80.5407 40.9746 80.4056 40.8459 80.2663 40.7324C79.7208 40.2904 79.1535 39.8814 78.5316 39.5451C77.4767 38.9742 76.428 38.3901 75.397 37.7779C74.7943 37.4211 74.2345 36.9914 73.6461 36.6099C73.4204 36.4627 73.1704 36.3499 72.924 36.2399C72.8601 36.2119 72.7664 36.2496 72.6451 36.2611Z" fill="#39D192"/>
<path d="M40.6319 33.0193C40.8127 33.2404 41.1069 33.2245 41.196 33.0269C41.2782 32.8438 41.326 32.6414 41.3725 32.445C41.539 31.7369 41.6869 31.0239 41.864 30.319C42.0578 29.5458 42.3141 28.794 42.7337 28.1079C42.7571 28.07 42.7772 28.0288 42.7948 27.9868C42.8428 27.8706 42.829 27.7495 42.7333 27.6773C42.6501 27.6153 42.5313 27.5629 42.4331 27.5701C42.3295 27.5778 42.214 27.6419 42.1354 27.7155C42.0038 27.8379 41.874 27.9737 41.7832 28.1284C41.1198 29.2533 40.6023 30.4359 40.4911 31.7569C40.4643 32.0705 40.4938 32.3909 40.5219 32.706C40.5341 32.835 40.6096 32.9587 40.6319 33.0193Z" fill="#39D192"/>
<path d="M74.1548 41.3628C73.8022 41.7446 73.4953 42.1476 73.3193 42.6115C73.0874 43.2217 72.9089 43.8553 72.7514 44.4894C72.6942 44.717 72.7413 44.9815 72.7871 45.2202C72.8233 45.4093 73.066 45.5156 73.2171 45.4295C73.3068 45.3785 73.4071 45.2836 73.4312 45.1896C73.7057 44.1075 74.2695 43.1411 74.6582 42.1052C74.7295 41.9156 74.8087 41.7249 74.8425 41.5277C74.8589 41.4358 74.8004 41.3029 74.7313 41.2307C74.6302 41.1246 74.4826 41.1385 74.3558 41.2093C74.2782 41.2534 74.2122 41.3181 74.1548 41.3628Z" fill="#39D192"/>
<path d="M43.3484 31.3565C43.2315 31.2523 43.0311 31.2292 42.9111 31.3391C42.7969 31.4428 42.6626 31.5673 42.6266 31.7059C42.4254 32.4755 42.2587 33.254 42.3737 34.0586C42.3931 34.1917 42.4402 34.3225 42.4885 34.4488C42.5478 34.6056 42.653 34.7237 42.8341 34.7342C42.9614 34.7416 43.0887 34.5999 43.1291 34.4066C43.1568 34.2734 43.1749 34.1377 43.1864 34.0019C43.2153 33.6631 43.2309 33.3232 43.2638 32.9838C43.3022 32.5814 43.2563 32.1686 43.461 31.7873C43.5402 31.6399 43.4774 31.4766 43.3484 31.3565Z" fill="#39D192"/>
<path d="M56.9158 37.6768C56.8766 37.7268 56.7922 37.8081 56.7398 37.9064C56.4945 38.3707 56.2969 38.8567 56.2167 39.3774C56.1949 39.522 56.2362 39.6921 56.2984 39.8286C56.3806 40.0082 56.6703 40.0242 56.7482 39.8561C57.0161 39.2801 57.2661 38.6958 57.5188 38.1131C57.5446 38.053 57.547 37.9802 57.5516 37.9124C57.5613 37.7659 57.5105 37.6441 57.3869 37.5617C57.2653 37.4797 57.0925 37.5144 56.9158 37.6768Z" fill="#39D192"/>
<path d="M66.9949 39.8321C67.0891 39.7301 67.2225 39.6338 67.2891 39.5032C67.6285 38.8377 67.9558 38.1666 68.2733 37.4906C68.3392 37.3523 68.3601 37.1889 68.376 37.0342C68.3883 36.915 68.1747 36.7836 68.0744 36.8505C67.9464 36.936 67.7978 37.0294 67.7282 37.1575C67.3364 37.8743 67.0165 38.6231 66.8118 39.4165C66.7715 39.5702 66.7642 39.7342 66.9949 39.8321Z" fill="#39D192"/>
<path d="M88.2427 49.3157C88.2931 49.2552 88.3713 49.196 88.4005 49.1188C88.5673 48.6746 88.7281 48.2283 88.8807 47.7781C88.9234 47.6521 88.9516 47.5142 88.9512 47.3825C88.952 47.1038 88.6531 46.9371 88.4166 47.0885C88.3078 47.1586 88.1877 47.2612 88.144 47.3762C87.9676 47.8421 87.8225 48.321 87.8366 48.8271C87.8439 49.0715 87.9443 49.2653 88.2427 49.3157Z" fill="#39D192"/>
<path d="M76.5143 44.1983C76.5773 44.1032 76.6507 44.0207 76.6924 43.9243C76.9258 43.3878 77.1572 42.8508 77.3739 42.3075C77.424 42.18 77.384 42.0255 77.2511 41.9502C77.1263 41.8803 76.9876 41.9016 76.8766 42.0036C76.8109 42.064 76.739 42.1261 76.6963 42.2028C76.4415 42.658 76.2469 43.1376 76.1885 43.6598C76.1617 43.897 76.2117 44.1081 76.5143 44.1983Z" fill="#39D192"/>
</svg>
