<svg width="21" height="21" viewBox="0 0 21 21" fill="none" xmlns="http://www.w3.org/2000/svg">
<g clip-path="url(#clip0_1_6157)">
<path d="M10.2227 10.6008C11.7227 10.6008 12.8894 9.37858 12.8894 7.87858C12.8894 6.37858 11.6672 5.21191 10.1672 5.21191C8.66715 5.21191 7.50049 6.43414 7.50049 7.87858C7.50049 9.37858 8.72271 10.6008 10.2227 10.6008ZM10.1672 6.32303C10.2227 6.32303 10.2227 6.32303 10.1672 6.32303C11.056 6.32303 11.7783 7.04525 11.7783 7.93414C11.7783 8.82303 11.056 9.48969 10.1672 9.48969C9.27827 9.48969 8.6116 8.76747 8.6116 7.93414C8.6116 7.04525 9.33382 6.32303 10.1672 6.32303Z" fill="#39D192"/>
<path d="M18.4449 10.2676C17.3894 9.32314 16.0005 8.82314 14.556 8.87869H14.1116C14.0005 9.32314 13.8338 9.71203 13.6116 10.0454C13.9449 9.9898 14.2227 9.9898 14.556 9.9898C15.6116 9.93425 16.6671 10.2676 17.5005 10.8787V14.8787H18.6116V10.4342L18.4449 10.2676Z" fill="#39D192"/>
<path d="M13.2783 5.32311C13.556 4.65644 14.3338 4.32311 15.056 4.60088C15.7227 4.87866 16.056 5.65644 15.7783 6.37866C15.556 6.87866 15.056 7.21199 14.556 7.21199C14.4449 7.21199 14.2783 7.212 14.1672 7.15644C14.2227 7.43422 14.2227 7.712 14.2227 7.93422V8.26755C14.3338 8.26755 14.4449 8.32311 14.556 8.32311C15.9449 8.32311 17.056 7.212 17.056 5.87866C17.056 4.48977 15.9449 3.37866 14.6116 3.37866C13.7227 3.37866 12.9449 3.82311 12.5005 4.60088C12.7783 4.76755 13.056 4.98977 13.2783 5.32311Z" fill="#39D192"/>
<path d="M6.94507 10.1008C6.72285 9.76745 6.55618 9.37856 6.44507 8.93412H6.00062C4.55618 8.87856 3.16729 9.37856 2.11174 10.2675L1.94507 10.4341V14.8786H3.05618V10.8786C3.94507 10.2675 4.94507 9.93412 6.00062 9.98968C6.33396 9.98968 6.66729 10.0452 6.94507 10.1008Z" fill="#39D192"/>
<path d="M6.00047 8.26742C6.11158 8.26742 6.22269 8.26742 6.3338 8.21187V7.87853C6.3338 7.60076 6.3338 7.32298 6.38936 7.10076C6.27825 7.15631 6.11158 7.15631 6.00047 7.15631C5.27825 7.15631 4.66714 6.5452 4.66714 5.82298C4.66714 5.10076 5.27825 4.48965 6.00047 4.48965C6.55602 4.48965 7.05602 4.82298 7.27825 5.32298C7.50047 5.0452 7.8338 4.76742 8.11158 4.5452C7.38936 3.37853 5.88936 2.98964 4.72269 3.71187C3.55602 4.43409 3.16714 5.93409 3.88936 7.10076C4.3338 7.82298 5.11158 8.26742 6.00047 8.26742Z" fill="#39D192"/>
<path d="M14.7784 13.6008L14.6673 13.4341C13.5562 12.2119 12.0007 11.4897 10.334 11.5452C8.66732 11.4897 7.05621 12.2119 5.9451 13.4341L5.83398 13.6008V17.823C5.83398 18.323 6.22287 18.7674 6.77843 18.7674H13.8895C14.3895 18.7674 14.834 18.323 14.834 17.823V13.6008H14.7784ZM13.6673 17.6563H6.9451V13.9897C7.83398 13.1008 9.05621 12.6563 10.334 12.6563C11.5562 12.6008 12.7784 13.1008 13.6673 13.9897V17.6563Z" fill="#39D192"/>
</g>
<defs>
<clipPath id="clip0_1_6157">
<rect width="20" height="20" fill="white" transform="translate(0.27832 0.989746)"/>
</clipPath>
</defs>
</svg>
