<svg width="100" height="85" viewBox="0 0 100 85" fill="none" xmlns="http://www.w3.org/2000/svg">
<path fill-rule="evenodd" clip-rule="evenodd" d="M21.8374 80.2145C15.3586 75.6624 16.106 74.3158 14.176 75.7725C13.7334 76.1049 10.7905 78.3194 10.3011 77.7409C9.22582 76.4767 8.23461 75.4122 9.50034 74.3428C11.6783 72.5045 13.4144 72.5109 12.5377 71.1067C12.423 70.9197 10.2138 67.1683 10.2138 67.1683C9.41299 65.7309 8.60337 66.3255 4.87885 68.6708C3.47183 69.5578 3.37169 68.4991 2.22005 66.7529C0.900318 64.7479 2.43607 64.9873 6.57379 61.9391C7.44031 61.2943 6.3285 59.3122 5.89177 57.3455C3.6667 47.2588 6.92312 40.9129 7.86102 41.1584C15.7444 43.2235 8.93775 41.8589 11.9062 56.325C12.5851 59.6348 13.9601 55.7162 34.0465 43.1689C39.9069 39.5103 40.8578 37.8725 52.4632 30.9092C55.0885 29.3346 51.6647 29.5085 52.9135 19.2368C54.6708 4.81511 68.5562 1.47599 77.2769 5.0977C84.756 8.20451 81.9528 9.97134 86.8115 5.65369C87.6102 4.93744 87.9939 4.99675 90.3295 8.91378C90.7904 9.68598 89.5099 10.7509 87.8211 12.1103C87.05 12.7276 87.3577 12.7035 90.1115 17.209C90.5689 17.9622 90.8188 17.8337 93.9911 15.4989C95.2279 14.5822 95.428 15.542 97.1631 18.1902C98.4966 20.226 91.9811 20.9587 93.0373 23.4114C94.5394 26.9122 94.4069 30.9939 93.3505 34.13C92.4802 36.7282 92.4864 36.7283 89.7654 36.6182C84.145 36.3881 89.5213 34.0015 87.9235 27.4697C87.3373 25.0796 87.7997 25.7342 65.0194 40.3093C62.4298 41.9655 66.7489 45.9843 65.1038 56.4574C61.4716 79.5428 36.4324 90.4707 21.8374 80.2145ZM9.78592 72.5478C6.71334 73.409 10.8246 69.554 11.1251 70.7615C11.3667 71.7216 10.8009 71.8825 10.1489 72.3499C10.1222 72.3702 9.82316 72.5359 9.78592 72.5478ZM1.4242 62.7214C2.96067 59.7397 9.35339 59.2944 2.25985 63.4109C1.56887 63.8105 1.14647 63.262 1.4242 62.7214ZM3.94237 47.8795C3.995 47.2064 3.8345 45.4356 4.84892 42.1695C4.95104 41.8458 5.74247 39.4036 6.01905 38.9291C6.20066 38.6234 6.9341 39.1783 6.86415 39.4039C6.44448 40.7572 4.28578 45.6464 4.25506 47.865C4.25175 48.0474 3.91897 48.1755 3.94237 47.8795ZM11.6532 39.9975C11.8961 40.1164 11.8685 40.4766 11.8987 40.7766C12.0029 41.9073 7.817 40.1889 7.67939 39.6359C7.11689 37.3602 9.53442 38.9413 11.6532 39.9975ZM51.6018 28.6146C52.549 28.5407 52.8132 29.1674 51.883 30.0618C51.883 30.0618 34.9331 41.5789 31.7167 43.6911C12.1913 56.486 13.3031 56.8447 12.8677 55.1781C12.618 54.2221 12.8544 53.7658 13.7338 53.1783C14.637 52.5728 50.5012 28.7036 51.6018 28.6146ZM73.088 2.27623C83.8014 4.05699 82.6091 6.30194 81.9934 6.34578C80.3608 6.46454 74.2095 1.03488 64.9756 3.89247C58.0942 6.02274 65.9876 1.09565 73.088 2.27623ZM87.2074 2.26517C87.4027 4.21629 86.5053 4.71643 85.0223 5.78931C84.6464 6.05837 84.2675 6.34587 84.0733 6.38599C83.5025 6.50507 83.3789 4.88655 83.641 4.55255C84.0002 4.09029 87.0226 0.426974 87.2074 2.26517ZM91.064 7.33318C90.6116 8.06841 89.7594 6.41856 89.4705 5.9489C85.9163 0.0630851 92.3533 5.25295 91.064 7.33318ZM94.0768 12.4228C95.0924 13.0206 92.5908 14.7235 91.1069 15.8146C91.0126 15.8842 90.4833 15.5817 90.3633 15.3482C89.9811 14.6047 91.4565 13.7261 92.6955 12.878C93.0111 12.6641 93.5878 12.1345 94.0768 12.4228ZM96.1693 12.8333C97.7235 13.4141 98.4828 17.8685 97.2739 16.9231C96.8352 16.5798 96.8273 16.1466 96.3499 15.5392C96.0458 15.1486 95.6236 13.7487 95.5431 13.2867C95.5226 13.1665 96.0279 12.7793 96.1693 12.8333ZM86.1629 28.0665C86.2842 27.2579 87.3602 27.531 86.9226 30.5692C86.8449 31.1091 86.2899 34.5458 85.7414 34.4993C85.0647 34.4446 85.3796 33.3453 86.1629 28.0665ZM66.4324 48.4988C65.7584 43.322 64.968 41.475 65.9611 40.8435C73.4274 36.098 75.7795 34.5986 80.3546 31.4771C83.9404 29.0307 85.0879 27.8276 84.9526 29.1314C84.4306 34.2356 83.721 33.7711 84.4368 34.9949C86.2518 38.1 85.1188 36.7556 92.4393 37.7658C93.781 37.949 93.6158 37.1295 94.2237 34.8446C96.9689 24.5266 92.0374 24.0336 96.0595 21.2667C96.3894 21.0366 97.2922 20.165 98.9293 18.9984C99.4575 18.6237 99.0952 17.0027 98.6208 15.0432C98.3325 13.8514 96.7784 11.523 96.0529 10.5576C94.6286 8.66669 90.2848 14.9424 89.1722 13.4529C88.0419 11.9491 91.6714 11.1347 92.1123 9.27608C92.2665 8.61992 92.2167 7.90016 92.4665 7.29321C92.7378 6.63574 92.7135 6.18269 92.2676 5.63263C88.4082 0.880657 88.2491 -0.18016 87.1029 0.559193C78.6463 6.03804 84.6089 3.68718 73.4746 1.78689C59.462 -0.598054 50.3762 12.2915 51.6404 25.5918C51.975 29.0876 31.7769 39.3923 13.2453 52.1918C11.4049 53.4613 12.5522 44.7239 13.2355 42.5857C13.5677 41.5363 12.8107 40.144 12.5282 38.9112C12.5101 38.8359 12.3049 38.7984 12.1829 38.7578C6.30422 36.7194 5.81583 36.2112 5.34469 37.4805C3.25227 43.1055 1.13656 45.3983 4.83462 58.1859C5.38967 60.1096 0.594119 60.7609 0.374923 61.9538C-0.303863 65.7161 0.487078 65.8606 2.90579 69.8107C3.80188 71.2728 3.78075 70.7776 8.49947 68.032C9.41778 67.5001 9.76804 68.3061 10.1498 68.8158C10.6122 69.434 9.9347 69.6428 9.58448 69.8937C7.67531 71.2583 6.67355 70.7842 7.29403 73.7432C7.80639 76.1865 8.54893 76.4899 9.87462 78.9484C11.264 81.5147 14.0561 75.0652 16.6622 77.3747C39.0353 97.2102 69.7386 73.7516 66.4324 48.4988ZM61.6142 20.449C61.8188 20.0915 62.2324 19.8434 62.5831 19.5896C65.2387 17.6719 66.3884 16.9834 70.5669 13.8537C70.6048 13.827 73.9331 11.8161 74.6414 11.8077C75.7284 11.7928 76.4847 12.573 75.1371 13.3909C66.2656 18.806 59.7356 23.7374 61.6142 20.449ZM62.2219 17.6171C65.9232 9.25559 73.4812 10.551 72.7777 11.5692C72.4753 12.0094 70.9755 12.8045 70.3554 13.1571C68.1093 14.4288 60.8049 20.8272 62.2219 17.6171ZM77.3081 13.1422C78.06 12.7929 78.1234 12.4061 77.4108 11.964C62.462 2.73107 56.8192 26.9477 61.6545 23.3159C62.0941 22.9859 69.4786 16.7753 77.3081 13.1422ZM63.3195 34.8482C62.2563 33.6277 64.3424 32.9929 80.0392 21.9111C82.5876 20.1146 83.3809 19.8134 83.9512 21.0596C84.2757 21.7633 63.9318 35.5492 63.3195 34.8482ZM63.969 29.5946C66.9688 27.2257 70.5301 24.0285 80.1525 18.0933C80.9173 17.6244 81.5164 17.7051 82.0494 18.4849C82.5847 19.2691 78.8776 21.6643 74.7548 24.4764C69.9425 27.7592 64.5041 31.4793 63.6874 31.996C63.0934 32.3713 61.0691 31.8847 63.969 29.5946ZM64.1347 36.3018C82.9007 22.2466 86.3279 22.69 85.0589 20.9444C82.1204 16.8872 81.7256 16.1552 80.5006 16.9664C80.9628 16.6641 65.278 26.737 62.05 29.3088C61.7348 29.5635 61.4712 30.1395 61.5143 30.5327C62.1986 36.9589 62.4643 37.5524 64.1347 36.3018ZM19.2898 65.9804C16.2095 63.584 35.1477 53.5524 52.7514 40.6232C53.8051 39.8484 54.7673 39.8518 54.8371 39.9836C55.7923 41.8017 56.3689 40.6212 32.1102 57.3107C20.8449 65.06 19.8606 66.4237 19.2898 65.9804ZM17.1961 64.6475C17.1554 64.508 16.8912 63.745 16.9744 63.6336C17.2342 63.2871 17.8849 64.525 17.85 64.7464C17.7966 65.0684 17.3428 65.1459 17.1961 64.6475ZM17.7029 62.7606C16.6626 61.472 15.7025 61.8381 38.1007 47.665C48.9888 40.7808 52.8529 37.8352 53.833 38.0543C56.4835 38.6582 26.343 57.0682 19.1403 62.8648C18.5614 63.3336 18.1407 63.3028 17.7029 62.7606ZM55.2083 36.9207C54.8125 35.4436 54.433 35.9509 48.6233 39.8166C48.4786 39.9168 37.6153 47.1183 37.4597 47.1934C35.1941 48.3468 33.8783 49.0859 31.7325 50.5286C26.2547 54.2083 20.8088 57.9339 15.3782 61.6813C14.5145 62.2794 15.1499 63.3669 17.5793 67.2091C19.0204 69.4865 17.975 67.4124 55.936 42.1537C57.1555 41.3398 56.3046 40.9743 55.2083 36.9207ZM22.8996 70.99C22.895 70.5632 23.611 70.4855 23.9036 70.6247C26.5289 71.8708 29.2287 74.5636 37.2669 72.6426C45.3492 70.7068 51.1729 67.013 55.9959 60.2071C56.7665 59.0865 55.8815 63.7415 52.5195 67.5875C39.3244 82.6806 22.9278 74.9303 22.8996 70.99ZM24.882 68.8076C37.8361 58.6217 28.6148 65.1122 47.102 53.5603C56.8967 47.4382 56.1385 46.8549 56.9056 49.6653C60.4913 62.7928 36.9988 77.429 25.755 70.7873C24.5194 70.0549 23.8526 69.6174 24.882 68.8076ZM52.9758 68.664C61.05 60.0949 58.9437 44.6901 55.9475 46.6844C45.2819 53.7762 18.6128 69.6257 21.5363 71.8215C25.7355 74.9683 27.8111 77.4271 33.0751 77.4822C42.1606 77.5705 47.9724 73.9861 52.9758 68.664Z" fill="#0A1C2D"/>
</svg>
