<svg width="200" height="200" viewBox="0 0 200 200" fill="none" xmlns="http://www.w3.org/2000/svg">
<path d="M181.987 50.732C171.37 30.4508 151.217 16.3996 129.484 11.0752C108.752 5.9964 83.7935 6.2464 68.1875 22.972C57.9119 33.9848 53.7967 49.3168 44.7283 61.2088C40.2207 67.12 34.5791 69.824 28.6735 73.9612C14.2795 84.0448 3.69308 100.272 6.01308 118.624C9.89188 149.309 37.8819 165.789 66.0131 167.64C103.188 170.086 129.701 165.114 152.222 150.722C163.919 143.248 175.584 134.378 182.725 122.101C193.523 103.535 193.079 80.122 186.094 60.1868C184.945 56.908 183.569 53.7532 181.987 50.732Z" fill="#5AE4A7"/>
<g opacity="0.800003">
<path d="M181.987 50.732C171.37 30.4508 151.217 16.3996 129.484 11.0752C108.752 5.9964 83.7935 6.2464 68.1875 22.972C57.9119 33.9848 53.7967 49.3168 44.7283 61.2088C40.2207 67.12 34.5791 69.824 28.6735 73.9612C14.2795 84.0448 3.69308 100.272 6.01308 118.624C9.89188 149.309 37.8819 165.789 66.0131 167.64C103.188 170.086 129.701 165.114 152.222 150.722C163.919 143.248 175.584 134.378 182.725 122.101C193.523 103.535 193.079 80.122 186.094 60.1868C184.945 56.908 183.569 53.7532 181.987 50.732Z" fill="white"/>
</g>
<path d="M188.14 180.8H191.6" stroke="#1A2E35" stroke-width="1.33333" stroke-miterlimit="10" stroke-linecap="round" stroke-linejoin="round"/>
<path d="M71.4766 180.8H184.453" stroke="#1A2E35" stroke-width="1.33333" stroke-miterlimit="10" stroke-linecap="round" stroke-linejoin="round"/>
<path d="M10.3999 180.8H68.5799" stroke="#1A2E35" stroke-width="1.33333" stroke-miterlimit="10" stroke-linecap="round" stroke-linejoin="round"/>
<path d="M7.75391 20.1513C10.1975 21.5585 12.8191 22.6421 15.4695 23.6045C18.1251 24.5609 20.8323 25.3753 23.5723 26.0537C24.9355 26.4233 26.3219 26.6937 27.6967 27.0149L29.7751 27.4193C30.4683 27.5541 31.1599 27.6941 31.8583 27.7997C33.2523 28.0225 34.6419 28.2749 36.0439 28.4437L38.1427 28.7249C38.8423 28.8213 39.5463 28.8777 40.2479 28.9561C45.8635 29.5545 51.5119 29.8213 57.1591 29.8489C62.8079 29.8601 68.4527 29.5821 74.0839 29.1577C85.3411 28.2097 96.5287 26.5005 107.585 24.1865C110.34 23.5661 113.102 22.9737 115.852 22.3305C118.591 21.6429 121.339 20.9905 124.071 20.2741C126.794 19.5253 129.525 18.8021 132.242 18.0317L136.303 16.8249L138.336 16.2201L139.36 15.9161L139.872 15.7641L140.127 15.6881L140.255 15.6501C140.298 15.6417 140.342 15.6093 140.38 15.6441C142.416 16.7021 144.47 17.6429 146.555 18.5341C148.64 19.4233 150.75 20.2529 152.882 21.0213C157.146 22.5577 161.496 23.8629 165.917 24.8673C170.334 25.8769 174.825 26.5861 179.347 26.8973C181.607 27.0689 183.875 27.0857 186.14 27.0409C188.404 26.9657 190.665 26.7749 192.907 26.4569" stroke="#1A2E35" stroke-width="0.5" stroke-miterlimit="10" stroke-linecap="round" stroke-linejoin="round"/>
<path d="M19.0609 24.7068L17.9761 24.3608L18.0181 22.4204C18.7261 22.6428 19.4289 22.8784 20.1409 23.0904L19.0609 24.7068Z" fill="#1A2E35"/>
<path d="M20.8181 22.1325C20.4521 23.3757 19.8041 23.1361 19.0013 22.8713C18.1965 22.6129 17.5209 22.4621 17.9393 21.2297C18.2329 20.3685 19.3661 19.3121 19.9829 18.7641C20.1789 18.5913 20.4957 18.6929 20.5569 18.9473C20.7425 19.7613 21.0741 21.2541 20.8181 22.1325Z" fill="#5AE4A7"/>
<path d="M19.5742 21.173C19.461 21.5334 19.1294 21.749 18.833 21.6546C18.537 21.5602 18.3934 21.193 18.5126 20.8342C18.6322 20.4758 18.9638 20.2598 19.2538 20.3526C19.5442 20.445 19.6874 20.8126 19.5742 21.173Z" fill="white"/>
<path d="M31.2047 27.886L32.3315 28.0704L32.5947 29.9996C31.8331 29.8692 31.0683 29.7612 30.3091 29.6132L31.2047 27.886Z" fill="#1A2E35"/>
<path d="M29.7202 30.6274C29.959 29.3506 30.645 29.5574 31.513 29.6902C32.3802 29.8326 33.0906 29.8906 32.8878 31.1698C32.7462 32.0746 31.731 33.273 31.1342 33.8954C30.947 34.0914 30.5714 34.0298 30.4606 33.785C30.1042 33.015 29.5498 31.5238 29.7202 30.6274Z" fill="#5AE4A7"/>
<path d="M31.1717 31.4503C31.2365 31.0779 31.5525 30.8191 31.8777 30.8727C32.2029 30.9259 32.4169 31.2715 32.3565 31.6443C32.2961 32.0171 31.9801 32.2759 31.6509 32.2223C31.3217 32.1679 31.1069 31.8227 31.1717 31.4503Z" fill="white"/>
<path d="M48.6871 29.5255L47.5487 29.4727L47.0947 27.5843L49.3455 27.6927L48.6871 29.5255Z" fill="#1A2E35"/>
<path d="M49.7768 26.6038C49.7188 27.8982 49.0272 27.8086 48.1728 27.769C47.3176 27.7374 46.6216 27.7382 46.7068 26.4446C46.768 25.5318 47.61 24.247 48.0912 23.5498C48.2432 23.333 48.59 23.3486 48.7176 23.5791C49.1192 24.309 49.8164 25.689 49.7768 26.6038Z" fill="#5AE4A7"/>
<path d="M48.3069 25.9813C48.2865 26.3585 48.0137 26.6529 47.6977 26.6381C47.3809 26.6261 47.1445 26.3025 47.1681 25.9237C47.1917 25.5481 47.4641 25.2601 47.7773 25.2721C48.0901 25.2865 48.3273 25.6041 48.3069 25.9813Z" fill="white"/>
<path d="M61.2367 29.9983C61.6171 29.9915 61.9979 29.9975 62.3779 29.9799L63.0003 31.8187C62.2331 31.8567 61.4647 31.8563 60.6963 31.8651L61.2367 29.9983Z" fill="#1A2E35"/>
<path d="M60.3216 32.9767C60.304 31.6811 61.0124 31.7315 61.8864 31.7227C62.76 31.7051 63.4644 31.6099 63.5048 32.9083C63.534 33.8235 62.7736 35.1995 62.3164 35.9279C62.1732 36.1559 61.7988 36.1579 61.6452 35.9363C61.1548 35.2303 60.3328 33.8923 60.3216 32.9767Z" fill="#5AE4A7"/>
<path d="M61.8894 33.5146C61.881 33.135 62.1398 32.8326 62.4658 32.817C62.7922 32.805 63.0654 33.101 63.0766 33.4786C63.0874 33.8562 62.8294 34.173 62.5006 34.185C62.1718 34.2006 61.8974 33.8906 61.8894 33.5146Z" fill="white"/>
<path d="M78.749 28.6363L77.6142 28.7411L76.873 26.9403L79.1246 26.7327L78.749 28.6363Z" fill="#1A2E35"/>
<path d="M79.3897 25.5958C79.5261 26.8842 78.8265 26.891 77.9717 26.9698C77.1165 27.0486 76.4281 27.1698 76.3105 25.8794C76.2281 24.9678 76.8681 23.5566 77.2429 22.8078C77.3617 22.5722 77.7117 22.5402 77.8741 22.7498C78.3885 23.4166 79.2925 24.6854 79.3897 25.5958Z" fill="#5AE4A7"/>
<path d="M77.8315 25.1831C77.8687 25.5591 77.6423 25.8875 77.3255 25.9167C77.0087 25.9459 76.7235 25.6647 76.6887 25.2883C76.6535 24.9123 76.8799 24.5835 77.1943 24.5547C77.5091 24.5255 77.7943 24.8071 77.8315 25.1831Z" fill="white"/>
<path d="M91.2407 27.329L92.3699 27.165L93.2247 28.921L90.9507 29.2518L91.2407 27.329Z" fill="#1A2E35"/>
<path d="M90.7271 30.4039C90.5383 29.1219 91.2455 29.0775 92.1079 28.9519C92.9711 28.8303 93.6595 28.6643 93.8631 29.9387C94.0099 30.8479 93.4351 32.2995 93.0771 33.0663C92.9651 33.3087 92.5983 33.3623 92.4183 33.1623C91.8451 32.5271 90.8599 31.3099 90.7271 30.4039Z" fill="#5AE4A7"/>
<path d="M92.3437 30.7285C92.2865 30.3549 92.5013 30.0141 92.8233 29.9673C93.1453 29.9205 93.4545 30.1853 93.5137 30.5585C93.5725 30.9317 93.3581 31.2721 93.0341 31.3197C92.7101 31.3665 92.4009 31.1021 92.3437 30.7285Z" fill="white"/>
<path d="M108.469 23.8968L107.355 24.1412L106.418 22.4288C107.16 22.2912 107.896 22.1144 108.634 21.9532L108.469 23.8968Z" fill="#1A2E35"/>
<path d="M108.775 20.7871C109.05 22.0535 108.356 22.1487 107.516 22.3359C106.676 22.5203 106 22.6987 105.74 21.4335C105.556 20.5359 106.041 19.0703 106.334 18.2851C106.427 18.0351 106.773 17.9579 106.958 18.1459C107.544 18.7439 108.581 19.8923 108.775 20.7871Z" fill="#5AE4A7"/>
<path d="M107.181 20.5745C107.259 20.9425 107.071 21.3041 106.757 21.3657C106.445 21.4273 106.129 21.1773 106.052 20.8077C105.975 20.4373 106.166 20.0877 106.477 20.0261C106.789 19.9653 107.103 20.2033 107.181 20.5745Z" fill="white"/>
<path d="M120.76 21.3109L121.868 21.0365L122.885 22.7017L120.659 23.2533L120.76 21.3109Z" fill="#1A2E35"/>
<path d="M120.549 24.422C120.237 23.1648 120.935 23.0508 121.779 22.8416C122.624 22.6324 123.293 22.4072 123.619 23.6612C123.849 24.5476 123.416 26.042 123.137 26.8436C123.05 27.0956 122.692 27.1844 122.495 27.0028C121.866 26.426 120.77 25.3108 120.549 24.422Z" fill="#5AE4A7"/>
<path d="M122.184 24.5874C122.092 24.221 122.272 23.861 122.587 23.7826C122.902 23.7046 123.234 23.9378 123.328 24.3038C123.423 24.6698 123.243 25.0298 122.926 25.1086C122.609 25.187 122.277 24.9538 122.184 24.5874Z" fill="white"/>
<path d="M137.611 16.3413L136.518 16.6661L135.441 15.0445L137.693 14.3753C137.591 15.0525 137.616 15.6921 137.611 16.3413Z" fill="#1A2E35"/>
<path d="M137.973 13.1364C138.093 13.7768 137.919 14.1512 137.6 14.4C137.417 14.5312 137.283 14.6056 137.107 14.6736C136.933 14.7408 136.735 14.796 136.529 14.8572C135.703 15.1028 135.049 15.3568 134.682 14.1144C134.423 13.2364 134.782 11.7248 135.011 10.9152C135.083 10.6604 135.424 10.5588 135.625 10.7324C135.785 10.8704 135.975 11.0408 136.175 11.2324C136.273 11.3296 136.376 11.4312 136.48 11.534C136.6 11.6336 136.78 11.7196 136.914 11.8204C137.487 12.2132 137.888 12.6844 137.973 13.1364Z" fill="#5AE4A7"/>
<path d="M136.048 13.1306C136.157 13.4926 135.996 13.8598 135.69 13.951C135.384 14.0418 135.048 13.8222 134.94 13.4598C134.833 13.0974 134.993 12.7306 135.298 12.6394C135.604 12.549 135.94 12.7686 136.048 13.1306Z" fill="white"/>
<path d="M149.175 19.8204L150.237 20.2396L150.107 22.1808C149.383 21.9112 148.667 21.6192 147.948 21.3352L149.175 19.8204Z" fill="#1A2E35"/>
<path d="M147.166 22.2123C147.655 21.0143 148.292 21.3367 149.111 21.6563C149.928 21.9815 150.617 22.1699 150.16 23.3855C149.84 24.2423 148.602 25.2171 147.892 25.7023C147.67 25.8551 147.314 25.7151 147.256 25.4515C147.064 24.6147 146.817 23.0611 147.166 22.2123Z" fill="#5AE4A7"/>
<path d="M148.422 23.3109C148.56 22.9593 148.921 22.7721 149.228 22.8933C149.536 23.0101 149.678 23.3909 149.543 23.7441C149.409 24.0973 149.047 24.2877 148.734 24.1693C148.424 24.0469 148.284 23.6625 148.422 23.3109Z" fill="white"/>
<path d="M166.007 24.7943C165.637 24.7095 165.265 24.6331 164.897 24.5383L164.787 22.5943C165.509 22.7791 166.237 22.9395 166.965 23.1019L166.007 24.7943Z" fill="#1A2E35"/>
<path d="M167.569 22.1021C167.295 23.3685 166.634 23.1613 165.805 22.9757C164.979 22.7801 164.295 22.6645 164.611 21.4097C164.835 20.5221 165.885 19.3941 166.465 18.8057C166.649 18.6225 166.979 18.6925 167.062 18.9417C167.319 19.7277 167.76 21.2065 167.569 22.1021Z" fill="#5AE4A7"/>
<path d="M166.248 21.2383C166.162 21.6063 165.845 21.8511 165.541 21.7735C165.238 21.6987 165.064 21.3403 165.154 20.9731C165.245 20.6063 165.56 20.3687 165.86 20.4427C166.158 20.5191 166.333 20.8703 166.248 21.2383Z" fill="white"/>
<path d="M178.36 27.0168C178.739 27.0568 179.12 27.074 179.5 27.098L179.962 28.9904C179.182 28.946 178.402 28.8988 177.627 28.8188L178.36 27.0168Z" fill="#1A2E35"/>
<path d="M177.129 29.8855C177.252 28.5927 177.959 28.7251 178.843 28.7919C179.729 28.8455 180.447 28.8311 180.382 30.1255C180.339 31.0399 179.436 32.3347 178.887 33.0131C178.715 33.2259 178.321 33.2063 178.185 32.9671C177.742 32.2131 177.039 30.7967 177.129 29.8855Z" fill="#5AE4A7"/>
<path d="M178.674 30.577C178.702 30.2002 178.996 29.911 179.33 29.9314C179.664 29.9518 179.916 30.2738 179.896 30.651C179.874 31.0282 179.581 31.3174 179.24 31.297C178.898 31.2762 178.646 30.9538 178.674 30.577Z" fill="white"/>
<g opacity="0.199997">
<path d="M157.733 78.5496H177.871V70.3984H157.733V78.5496Z" fill="black"/>
</g>
<g opacity="0.199997">
<path d="M169.531 110.875H189.669V102.724H169.531V110.875Z" fill="black"/>
</g>
<g opacity="0.199997">
<path d="M135.13 78.5496H155.269V70.3984H135.13V78.5496Z" fill="black"/>
</g>
<g opacity="0.199997">
<path d="M135.13 100.549H155.269V92.3983H135.13V100.549Z" fill="black"/>
</g>
<g opacity="0.199997">
<path d="M42.1733 100.949H62.3113V92.7983H42.1733V100.949Z" fill="black"/>
</g>
<g opacity="0.100006">
<path d="M169.721 89.8168H189.859V81.666H169.721V89.8168Z" fill="black"/>
</g>
<g opacity="0.100006">
<path d="M158.73 100.475H178.869V92.3243H158.73V100.475Z" fill="black"/>
</g>
<g opacity="0.199997">
<path d="M111.765 78.5496H131.903V70.3984H111.765V78.5496Z" fill="black"/>
</g>
<g opacity="0.100006">
<path d="M100.737 89.8168H120.875V81.666H100.737V89.8168Z" fill="black"/>
</g>
<g opacity="0.100006">
<path d="M123.752 89.8168H143.89V81.666H123.752V89.8168Z" fill="black"/>
</g>
<g opacity="0.199997">
<path d="M65.7964 78.5496H85.9344V70.3984H65.7964V78.5496Z" fill="black"/>
</g>
<g opacity="0.100006">
<path d="M54.7681 89.8168H74.9061V81.666H54.7681V89.8168Z" fill="black"/>
</g>
<g opacity="0.100006">
<path d="M77.7832 89.8168H97.9212V81.666H77.7832V89.8168Z" fill="black"/>
</g>
<g opacity="0.199997">
<path d="M19.8276 78.5496H39.9656V70.3984H19.8276V78.5496Z" fill="black"/>
</g>
<g opacity="0.199997">
<path d="M18.731 108.475H38.869V100.324H18.731V108.475Z" fill="black"/>
</g>
<g opacity="0.100006">
<path d="M8.7998 89.8168H28.9378V81.666H8.7998V89.8168Z" fill="black"/>
</g>
<g opacity="0.100006">
<path d="M31.8145 89.8168H51.9525V81.666H31.8145V89.8168Z" fill="black"/>
</g>
<g opacity="0.199997">
<path d="M157.733 32.5496H177.871V24.3984H157.733V32.5496Z" fill="black"/>
</g>
<g opacity="0.199997">
<path d="M169.531 64.8755H189.669V56.7243H169.531V64.8755Z" fill="black"/>
</g>
<g opacity="0.199997">
<path d="M135.13 32.5496H155.269V24.3984H135.13V32.5496Z" fill="black"/>
</g>
<g opacity="0.199997">
<path d="M135.13 54.5496H155.269V46.3984H135.13V54.5496Z" fill="black"/>
</g>
<g opacity="0.199997">
<path d="M42.1733 54.9495H62.3113V46.7983H42.1733V54.9495Z" fill="black"/>
</g>
<g opacity="0.100006">
<path d="M146.706 43.8168H166.844V35.666H146.706V43.8168Z" fill="black"/>
</g>
<g opacity="0.100006">
<path d="M169.721 43.8168H189.859V35.666H169.721V43.8168Z" fill="black"/>
</g>
<g opacity="0.100006">
<path d="M158.73 54.4756H178.869V46.3244H158.73V54.4756Z" fill="black"/>
</g>
<g opacity="0.199997">
<path d="M111.765 32.5496H131.903V24.3984H111.765V32.5496Z" fill="black"/>
</g>
<g opacity="0.100006">
<path d="M100.737 43.8168H120.875V35.666H100.737V43.8168Z" fill="black"/>
</g>
<g opacity="0.100006">
<path d="M123.752 43.8168H143.89V35.666H123.752V43.8168Z" fill="black"/>
</g>
<g opacity="0.199997">
<path d="M76.9961 23.7495H97.1341V15.5983H76.9961V23.7495Z" fill="black"/>
</g>
<g opacity="0.100006">
<path d="M54.7681 43.8168H74.9061V35.666H54.7681V43.8168Z" fill="black"/>
</g>
<g opacity="0.199997">
<path d="M65.7964 55.2079H85.9344V47.0571H65.7964V55.2079Z" fill="black"/>
</g>
<g opacity="0.100006">
<path d="M77.7832 66.4755H97.9212V58.3243H77.7832V66.4755Z" fill="black"/>
</g>
<g opacity="0.199997">
<path d="M18.731 62.4755H38.869V54.3243H18.731V62.4755Z" fill="black"/>
</g>
<g opacity="0.199997">
<path d="M135.13 120.149H155.269V111.998H135.13V120.149Z" fill="black"/>
</g>
<g opacity="0.199997">
<path d="M135.13 142.149H155.269V133.998H135.13V142.149Z" fill="black"/>
</g>
<g opacity="0.199997">
<path d="M42.1733 142.549H62.3113V134.398H42.1733V142.549Z" fill="black"/>
</g>
<g opacity="0.100006">
<path d="M169.721 131.417H189.859V123.266H169.721V131.417Z" fill="black"/>
</g>
<g opacity="0.100006">
<path d="M158.73 142.075H178.869V133.924H158.73V142.075Z" fill="black"/>
</g>
<g opacity="0.199997">
<path d="M111.765 120.149H131.903V111.998H111.765V120.149Z" fill="black"/>
</g>
<g opacity="0.100006">
<path d="M100.737 131.417H120.875V123.266H100.737V131.417Z" fill="black"/>
</g>
<g opacity="0.100006">
<path d="M123.752 131.417H143.89V123.266H123.752V131.417Z" fill="black"/>
</g>
<g opacity="0.100006">
<path d="M114.152 154.617H134.29V146.466H114.152V154.617Z" fill="black"/>
</g>
<g opacity="0.100006">
<path d="M142.952 165.417H163.09V157.266H142.952V165.417Z" fill="black"/>
</g>
<g opacity="0.100006">
<path d="M66.9517 165.417H87.0897V157.266H66.9517V165.417Z" fill="black"/>
</g>
<g opacity="0.100006">
<path d="M9.53076 165.417H29.6688V157.266H9.53076V165.417Z" fill="black"/>
</g>
<g opacity="0.100006">
<path d="M82.7368 103.817H102.875V95.6659H82.7368V103.817Z" fill="black"/>
</g>
<g opacity="0.100006">
<path d="M105.752 103.817H125.89V95.6659H105.752V103.817Z" fill="black"/>
</g>
<g opacity="0.199997">
<path d="M65.7964 120.149H85.9344V111.998H65.7964V120.149Z" fill="black"/>
</g>
<g opacity="0.100006">
<path d="M54.7681 131.417H74.9061V123.266H54.7681V131.417Z" fill="black"/>
</g>
<g opacity="0.100006">
<path d="M87.9683 143.417H108.106V135.266H87.9683V143.417Z" fill="black"/>
</g>
<g opacity="0.100006">
<path d="M77.7832 131.417H97.9212V123.266H77.7832V131.417Z" fill="black"/>
</g>
<g opacity="0.199997">
<path d="M19.8276 120.149H39.9656V111.998H19.8276V120.149Z" fill="black"/>
</g>
<g opacity="0.199997">
<path d="M18.731 150.075H38.869V141.924H18.731V150.075Z" fill="black"/>
</g>
<g opacity="0.100006">
<path d="M8.7998 131.417H28.9378V123.266H8.7998V131.417Z" fill="black"/>
</g>
<g opacity="0.100006">
<path d="M31.8145 131.417H51.9525V123.266H31.8145V131.417Z" fill="black"/>
</g>
<path d="M157.347 85.4348L165.276 161.419" stroke="#1A2E35" stroke-width="2.66667" stroke-miterlimit="10"/>
<path d="M163.999 146.878L160.404 143.08" stroke="#1A2E35" stroke-width="2.66667" stroke-miterlimit="10"/>
<path d="M161.496 144.218C161.496 144.218 161.599 142.539 160.065 141.169C159.142 140.345 154.286 138.302 153.825 140.012C153.324 141.873 158.294 145.526 161.496 144.218Z" fill="#5AE4A7"/>
<path d="M161.496 144.218C161.496 144.218 161.599 142.539 160.065 141.169C159.142 140.345 154.286 138.302 153.825 140.012C153.324 141.873 158.294 145.526 161.496 144.218Z" stroke="#1A2E35" stroke-width="0.5" stroke-miterlimit="10"/>
<path d="M161.496 144.218L156.873 141.338" stroke="#1A2E35" stroke-width="0.5" stroke-miterlimit="10"/>
<path d="M164.9 155.519L161.306 151.722" stroke="#1A2E35" stroke-width="0.5" stroke-miterlimit="10"/>
<path d="M162.397 152.86C162.397 152.86 162.501 151.181 160.967 149.811C160.044 148.986 155.188 146.943 154.727 148.654C154.225 150.514 159.196 154.168 162.397 152.86Z" fill="#5AE4A7"/>
<path d="M162.397 152.86C162.397 152.86 162.501 151.181 160.967 149.811C160.044 148.986 155.188 146.943 154.727 148.654C154.225 150.514 159.196 154.168 162.397 152.86Z" stroke="#1A2E35" stroke-width="0.5" stroke-miterlimit="10"/>
<path d="M162.398 152.86L157.774 149.979" stroke="#1A2E35" stroke-width="0.5" stroke-miterlimit="10"/>
<path d="M161.798 125.791L158.203 121.993" stroke="#1A2E35" stroke-width="0.5" stroke-miterlimit="10"/>
<path d="M159.295 123.131C159.295 123.131 159.398 121.452 157.865 120.082C156.942 119.258 152.085 117.215 151.625 118.925C151.123 120.786 156.094 124.439 159.295 123.131Z" fill="#5AE4A7"/>
<path d="M159.295 123.131C159.295 123.131 159.398 121.452 157.865 120.082C156.942 119.258 152.085 117.215 151.625 118.925C151.123 120.786 156.094 124.439 159.295 123.131Z" stroke="#1A2E35" stroke-width="0.5" stroke-miterlimit="10"/>
<path d="M159.295 123.131L154.671 120.25" stroke="#1A2E35" stroke-width="0.5" stroke-miterlimit="10"/>
<path d="M162.699 134.432L159.104 130.635" stroke="#1A2E35" stroke-width="0.5" stroke-miterlimit="10"/>
<path d="M160.197 131.773C160.197 131.773 160.3 130.093 158.766 128.723C157.843 127.899 152.987 125.856 152.526 127.567C152.025 129.427 156.995 133.081 160.197 131.773Z" fill="#5AE4A7"/>
<path d="M160.197 131.773C160.197 131.773 160.3 130.093 158.766 128.723C157.843 127.899 152.987 125.856 152.526 127.567C152.025 129.427 156.995 133.081 160.197 131.773Z" stroke="#1A2E35" stroke-width="0.5" stroke-miterlimit="10"/>
<path d="M160.197 131.773L155.574 128.892" stroke="#1A2E35" stroke-width="0.5" stroke-miterlimit="10"/>
<path d="M160.333 111.753L156.738 107.956" stroke="#1A2E35" stroke-width="0.5" stroke-miterlimit="10"/>
<path d="M157.83 109.094C157.83 109.094 157.933 107.414 156.399 106.044C155.476 105.22 150.62 103.177 150.159 104.887C149.658 106.748 154.629 110.401 157.83 109.094Z" fill="#5AE4A7"/>
<path d="M157.83 109.094C157.83 109.094 157.933 107.414 156.399 106.044C155.476 105.22 150.62 103.177 150.159 104.887C149.658 106.748 154.629 110.401 157.83 109.094Z" stroke="#1A2E35" stroke-width="0.5" stroke-miterlimit="10"/>
<path d="M157.83 109.094L153.207 106.213" stroke="#1A2E35" stroke-width="0.5" stroke-miterlimit="10"/>
<path d="M158.861 97.6539L155.267 93.8567" stroke="#1A2E35" stroke-width="0.5" stroke-miterlimit="10"/>
<path d="M156.359 94.9945C156.359 94.9945 156.462 93.3149 154.928 91.9453C154.005 91.1209 149.149 89.0781 148.688 90.7885C148.186 92.6489 153.157 96.3021 156.359 94.9945Z" fill="#5AE4A7"/>
<path d="M156.359 94.9945C156.359 94.9945 156.462 93.3149 154.928 91.9453C154.005 91.1209 149.149 89.0781 148.688 90.7885C148.186 92.6489 153.157 96.3021 156.359 94.9945Z" stroke="#1A2E35" stroke-width="0.5" stroke-miterlimit="10"/>
<path d="M156.359 94.9945L151.735 92.1133" stroke="#1A2E35" stroke-width="0.5" stroke-miterlimit="10"/>
<path d="M163.395 141.765L166.128 137.307" stroke="#1A2E35" stroke-width="0.5" stroke-miterlimit="10"/>
<path d="M165.294 138.646C165.294 138.646 164.847 137.024 166.065 135.367C166.797 134.37 171.127 131.368 171.931 132.946C172.805 134.663 168.697 139.264 165.294 138.646Z" fill="#5AE4A7"/>
<path d="M165.294 138.646C165.294 138.646 164.847 137.024 166.065 135.367C166.797 134.37 171.127 131.368 171.931 132.946C172.805 134.663 168.697 139.264 165.294 138.646Z" stroke="#1A2E35" stroke-width="0.5" stroke-miterlimit="10"/>
<path d="M165.294 138.646L169.457 134.667" stroke="#1A2E35" stroke-width="0.5" stroke-miterlimit="10"/>
<path d="M161.021 119.024L163.755 114.567" stroke="#1A2E35" stroke-width="0.5" stroke-miterlimit="10"/>
<path d="M162.921 115.906C162.921 115.906 162.473 114.283 163.691 112.626C164.424 111.63 168.754 108.628 169.558 110.206C170.432 111.923 166.323 116.524 162.921 115.906Z" fill="#5AE4A7"/>
<path d="M162.921 115.906C162.921 115.906 162.473 114.283 163.691 112.626C164.424 111.63 168.754 108.628 169.558 110.206C170.432 111.923 166.323 116.524 162.921 115.906Z" stroke="#1A2E35" stroke-width="0.5" stroke-miterlimit="10"/>
<path d="M162.92 115.906L167.084 111.927" stroke="#1A2E35" stroke-width="0.5" stroke-miterlimit="10"/>
<path d="M159.978 109.031L162.712 104.573" stroke="#1A2E35" stroke-width="0.5" stroke-miterlimit="10"/>
<path d="M161.878 105.912C161.878 105.912 161.43 104.289 162.648 102.633C163.381 101.636 167.71 98.6341 168.515 100.213C169.389 101.929 165.28 106.53 161.878 105.912Z" fill="#5AE4A7"/>
<path d="M161.878 105.912C161.878 105.912 161.43 104.289 162.648 102.633C163.381 101.636 167.71 98.6341 168.515 100.213C169.389 101.929 165.28 106.53 161.878 105.912Z" stroke="#1A2E35" stroke-width="0.5" stroke-miterlimit="10"/>
<path d="M161.877 105.912L166.041 101.933" stroke="#1A2E35" stroke-width="0.5" stroke-miterlimit="10"/>
<path d="M158.449 94.3799L161.183 89.9223" stroke="#1A2E35" stroke-width="0.5" stroke-miterlimit="10"/>
<path d="M160.349 91.2611C160.349 91.2611 159.902 89.6387 161.119 87.9819C161.852 86.9851 166.182 83.9835 166.986 85.5619C167.86 87.2783 163.751 91.8795 160.349 91.2611Z" fill="#5AE4A7"/>
<path d="M160.349 91.2611C160.349 91.2611 159.902 89.6387 161.119 87.9819C161.852 86.9851 166.182 83.9835 166.986 85.5619C167.86 87.2783 163.751 91.8795 160.349 91.2611Z" stroke="#1A2E35" stroke-width="0.5" stroke-miterlimit="10"/>
<path d="M160.349 91.2611L164.511 87.2819" stroke="#1A2E35" stroke-width="0.5" stroke-miterlimit="10"/>
<path d="M157.28 85.0128C157.28 85.0128 156.833 83.3904 158.05 81.7336C158.783 80.7368 163.113 77.7352 163.917 79.3136C164.791 81.03 160.682 85.6312 157.28 85.0128Z" fill="#5AE4A7"/>
<path d="M157.28 85.0128C157.28 85.0128 156.833 83.3904 158.05 81.7336C158.783 80.7368 163.113 77.7352 163.917 79.3136C164.791 81.03 160.682 85.6312 157.28 85.0128Z" stroke="#1A2E35" stroke-width="0.5" stroke-miterlimit="10"/>
<path d="M157.28 85.0128L161.443 81.0336" stroke="#1A2E35" stroke-width="0.5" stroke-miterlimit="10"/>
<path d="M157.521 85.1845C157.521 85.1845 155.861 85.4593 154.341 84.0745C153.427 83.2413 150.895 78.6205 152.549 77.9865C154.348 77.2965 158.493 81.8657 157.521 85.1845Z" fill="#5AE4A7"/>
<path d="M157.521 85.1845C157.521 85.1845 155.861 85.4593 154.341 84.0745C153.427 83.2413 150.895 78.6205 152.549 77.9865C154.348 77.2965 158.493 81.8657 157.521 85.1845Z" stroke="#1A2E35" stroke-width="0.5" stroke-miterlimit="10"/>
<path d="M157.521 85.1846L154 80.627" stroke="#1A2E35" stroke-width="0.5" stroke-miterlimit="10"/>
<path d="M178.262 95.899L170.377 171.888" stroke="#1A2E35" stroke-width="0.5" stroke-miterlimit="10"/>
<path d="M172.12 157.395L169.384 152.939" stroke="#1A2E35" stroke-width="0.5" stroke-miterlimit="10"/>
<path d="M170.219 154.277C170.219 154.277 170.665 152.655 169.446 150.999C168.713 150.002 164.382 147.003 163.578 148.582C162.705 150.299 166.817 154.898 170.219 154.277Z" fill="#5AE4A7"/>
<path d="M170.219 154.277C170.219 154.277 170.665 152.655 169.446 150.999C168.713 150.002 164.382 147.003 163.578 148.582C162.705 150.299 166.817 154.898 170.219 154.277Z" stroke="#1A2E35" stroke-width="0.5" stroke-miterlimit="10"/>
<path d="M170.218 154.277L166.288 150.506" stroke="#1A2E35" stroke-width="0.5" stroke-miterlimit="10"/>
<path d="M174.309 136.307L171.572 131.851" stroke="#1A2E35" stroke-width="0.5" stroke-miterlimit="10"/>
<path d="M172.407 133.189C172.407 133.189 172.853 131.566 171.634 129.911C170.901 128.914 166.57 125.915 165.766 127.494C164.893 129.211 169.005 133.809 172.407 133.189Z" fill="#5AE4A7"/>
<path d="M172.407 133.189C172.407 133.189 172.853 131.566 171.634 129.911C170.901 128.914 166.57 125.915 165.766 127.494C164.893 129.211 169.005 133.809 172.407 133.189Z" stroke="#1A2E35" stroke-width="0.5" stroke-miterlimit="10"/>
<path d="M172.407 133.189L168.476 129.417" stroke="#1A2E35" stroke-width="0.5" stroke-miterlimit="10"/>
<path d="M173.412 144.949L170.676 140.493" stroke="#1A2E35" stroke-width="0.5" stroke-miterlimit="10"/>
<path d="M171.51 141.831C171.51 141.831 171.957 140.208 170.738 138.552C170.005 137.556 165.673 134.557 164.87 136.136C163.997 137.853 168.108 142.452 171.51 141.831Z" fill="#5AE4A7"/>
<path d="M171.51 141.831C171.51 141.831 171.957 140.208 170.738 138.552C170.005 137.556 165.673 134.557 164.87 136.136C163.997 137.853 168.108 142.452 171.51 141.831Z" stroke="#1A2E35" stroke-width="0.5" stroke-miterlimit="10"/>
<path d="M171.51 141.831L167.579 138.06" stroke="#1A2E35" stroke-width="0.5" stroke-miterlimit="10"/>
<path d="M175.765 122.268L173.029 117.812" stroke="#1A2E35" stroke-width="0.5" stroke-miterlimit="10"/>
<path d="M173.864 119.15C173.864 119.15 174.31 117.528 173.091 115.872C172.358 114.875 168.027 111.876 167.223 113.455C166.35 115.172 170.462 119.771 173.864 119.15Z" fill="#5AE4A7"/>
<path d="M173.864 119.15C173.864 119.15 174.31 117.528 173.091 115.872C172.358 114.875 168.027 111.876 167.223 113.455C166.35 115.172 170.462 119.771 173.864 119.15Z" stroke="#1A2E35" stroke-width="0.5" stroke-miterlimit="10"/>
<path d="M173.863 119.15L169.933 115.379" stroke="#1A2E35" stroke-width="0.5" stroke-miterlimit="10"/>
<path d="M177.229 108.168L174.492 103.712" stroke="#1A2E35" stroke-width="0.5" stroke-miterlimit="10"/>
<path d="M175.327 105.051C175.327 105.051 175.773 103.428 174.555 101.772C173.821 100.776 169.489 97.7764 168.686 99.3552C167.813 101.073 171.925 105.671 175.327 105.051Z" fill="#5AE4A7"/>
<path d="M175.327 105.051C175.327 105.051 175.773 103.428 174.555 101.772C173.821 100.776 169.489 97.7764 168.686 99.3552C167.813 101.073 171.925 105.671 175.327 105.051Z" stroke="#1A2E35" stroke-width="0.5" stroke-miterlimit="10"/>
<path d="M175.327 105.051L171.396 101.279" stroke="#1A2E35" stroke-width="0.5" stroke-miterlimit="10"/>
<path d="M172.582 152.267L176.174 148.468" stroke="#1A2E35" stroke-width="0.5" stroke-miterlimit="10"/>
<path d="M175.083 149.606C175.083 149.606 174.979 147.927 176.512 146.556C177.434 145.731 182.289 143.685 182.751 145.396C183.253 147.256 178.285 150.912 175.083 149.606Z" fill="#5AE4A7"/>
<path d="M175.083 149.606C175.083 149.606 174.979 147.927 176.512 146.556C177.434 145.731 182.289 143.685 182.751 145.396C183.253 147.256 178.285 150.912 175.083 149.606Z" stroke="#1A2E35" stroke-width="0.5" stroke-miterlimit="10"/>
<path d="M175.083 149.606L179.975 146.57" stroke="#1A2E35" stroke-width="0.5" stroke-miterlimit="10"/>
<path d="M174.941 129.525L178.534 125.726" stroke="#1A2E35" stroke-width="0.5" stroke-miterlimit="10"/>
<path d="M177.442 126.864C177.442 126.864 177.339 125.185 178.872 123.814C179.794 122.989 184.649 120.944 185.111 122.654C185.613 124.514 180.645 128.17 177.442 126.864Z" fill="#5AE4A7"/>
<path d="M177.442 126.864C177.442 126.864 177.339 125.185 178.872 123.814C179.794 122.989 184.649 120.944 185.111 122.654C185.613 124.514 180.645 128.17 177.442 126.864Z" stroke="#1A2E35" stroke-width="0.5" stroke-miterlimit="10"/>
<path d="M177.442 126.864L182.336 123.828" stroke="#1A2E35" stroke-width="0.5" stroke-miterlimit="10"/>
<path d="M175.979 119.531L179.571 115.732" stroke="#1A2E35" stroke-width="0.5" stroke-miterlimit="10"/>
<path d="M178.48 116.87C178.48 116.87 178.376 115.191 179.909 113.82C180.831 112.995 185.686 110.949 186.148 112.66C186.65 114.519 181.682 118.176 178.48 116.87Z" fill="#5AE4A7"/>
<path d="M178.48 116.87C178.48 116.87 178.376 115.191 179.909 113.82C180.831 112.995 185.686 110.949 186.148 112.66C186.65 114.519 181.682 118.176 178.48 116.87Z" stroke="#1A2E35" stroke-width="0.5" stroke-miterlimit="10"/>
<path d="M178.479 116.87L183.373 113.834" stroke="#1A2E35" stroke-width="0.5" stroke-miterlimit="10"/>
<path d="M177.499 104.88L181.091 101.08" stroke="#1A2E35" stroke-width="0.5" stroke-miterlimit="10"/>
<path d="M180 102.219C180 102.219 179.896 100.539 181.429 99.1688C182.352 98.344 187.207 96.298 187.668 98.0084C188.171 99.8684 183.202 103.525 180 102.219Z" fill="#5AE4A7"/>
<path d="M180 102.219C180 102.219 179.896 100.539 181.429 99.1688C182.352 98.344 187.207 96.298 187.668 98.0084C188.171 99.8684 183.202 103.525 180 102.219Z" stroke="#1A2E35" stroke-width="0.5" stroke-miterlimit="10"/>
<path d="M180 102.219L184.893 99.1824" stroke="#1A2E35" stroke-width="0.5" stroke-miterlimit="10"/>
<path d="M178.283 95.4724C178.283 95.4724 178.179 93.7928 179.712 92.4224C180.634 91.5976 185.49 89.5516 185.952 91.262C186.454 93.122 181.485 96.778 178.283 95.4724Z" fill="#5AE4A7"/>
<path d="M178.283 95.4724C178.283 95.4724 178.179 93.7928 179.712 92.4224C180.634 91.5976 185.49 89.5516 185.952 91.262C186.454 93.122 181.485 96.778 178.283 95.4724Z" stroke="#1A2E35" stroke-width="0.5" stroke-miterlimit="10"/>
<path d="M178.284 95.4724L183.176 92.436" stroke="#1A2E35" stroke-width="0.5" stroke-miterlimit="10"/>
<path d="M178.484 95.6901C178.484 95.6901 176.803 95.6173 175.6 93.9489C174.877 92.9457 173.352 87.9025 175.101 87.6229C177.003 87.3181 180.118 92.6425 178.484 95.6901Z" fill="#5AE4A7"/>
<path d="M178.484 95.6901C178.484 95.6901 176.803 95.6173 175.6 93.9489C174.877 92.9457 173.352 87.9025 175.101 87.6229C177.003 87.3181 180.118 92.6425 178.484 95.6901Z" stroke="#1A2E35" stroke-width="0.5" stroke-miterlimit="10"/>
<path d="M178.484 95.6901L175.978 90.5057" stroke="#1A2E35" stroke-width="0.5" stroke-miterlimit="10"/>
<path d="M169.226 64.9563V161.049" stroke="#1A2E35" stroke-width="0.5" stroke-miterlimit="10"/>
<path d="M169.302 146.601L166.121 142.451" stroke="#1A2E35" stroke-width="0.5" stroke-miterlimit="10"/>
<path d="M167.089 143.696C167.089 143.696 167.366 142.036 165.982 140.514C165.15 139.599 160.532 137.063 159.896 138.716C159.205 140.514 163.769 144.664 167.089 143.696Z" fill="#5AE4A7"/>
<path d="M167.089 143.696C167.089 143.696 167.366 142.036 165.982 140.514C165.15 139.599 160.532 137.063 159.896 138.716C159.205 140.514 163.769 144.664 167.089 143.696Z" stroke="#1A2E35" stroke-width="0.5" stroke-miterlimit="10"/>
<path d="M167.089 143.696L162.79 140.351" stroke="#1A2E35" stroke-width="0.5" stroke-miterlimit="10"/>
<path d="M169.302 128.542L166.121 124.393" stroke="#1A2E35" stroke-width="0.5" stroke-miterlimit="10"/>
<path d="M167.089 125.637C167.089 125.637 167.366 123.978 165.982 122.456C165.15 121.541 160.532 119.005 159.896 120.658C159.205 122.456 163.769 126.606 167.089 125.637Z" fill="#5AE4A7"/>
<path d="M167.089 125.637C167.089 125.637 167.366 123.978 165.982 122.456C165.15 121.541 160.532 119.005 159.896 120.658C159.205 122.456 163.769 126.606 167.089 125.637Z" stroke="#1A2E35" stroke-width="0.5" stroke-miterlimit="10"/>
<path d="M167.089 125.637L162.79 122.292" stroke="#1A2E35" stroke-width="0.5" stroke-miterlimit="10"/>
<path d="M169.302 107.341L166.121 103.191" stroke="#1A2E35" stroke-width="0.5" stroke-miterlimit="10"/>
<path d="M167.089 104.436C167.089 104.436 167.366 102.776 165.982 101.255C165.15 100.339 160.532 97.8031 159.896 99.4563C159.205 101.255 163.769 105.404 167.089 104.436Z" fill="#5AE4A7"/>
<path d="M167.089 104.436C167.089 104.436 167.366 102.776 165.982 101.255C165.15 100.339 160.532 97.8031 159.896 99.4563C159.205 101.255 163.769 105.404 167.089 104.436Z" stroke="#1A2E35" stroke-width="0.5" stroke-miterlimit="10"/>
<path d="M167.089 104.436L162.79 101.091" stroke="#1A2E35" stroke-width="0.5" stroke-miterlimit="10"/>
<path d="M169.302 93.2267L166.121 89.0771" stroke="#1A2E35" stroke-width="0.5" stroke-miterlimit="10"/>
<path d="M167.089 90.322C167.089 90.322 167.366 88.6624 165.982 87.1404C165.15 86.2252 160.532 83.6892 159.896 85.3424C159.205 87.1404 163.769 91.29 167.089 90.322Z" fill="#5AE4A7"/>
<path d="M167.089 90.322C167.089 90.322 167.366 88.6624 165.982 87.1404C165.15 86.2252 160.532 83.6892 159.896 85.3424C159.205 87.1404 163.769 91.29 167.089 90.322Z" stroke="#1A2E35" stroke-width="0.5" stroke-miterlimit="10"/>
<path d="M167.089 90.322L162.79 86.9768" stroke="#1A2E35" stroke-width="0.5" stroke-miterlimit="10"/>
<path d="M169.302 79.0511L166.121 74.9015" stroke="#1A2E35" stroke-width="0.5" stroke-miterlimit="10"/>
<path d="M167.089 76.1465C167.089 76.1465 167.366 74.4869 165.982 72.9649C165.15 72.0497 160.532 69.5137 159.896 71.1669C159.205 72.9649 163.769 77.1149 167.089 76.1465Z" fill="#5AE4A7"/>
<path d="M167.089 76.1465C167.089 76.1465 167.366 74.4869 165.982 72.9649C165.15 72.0497 160.532 69.5137 159.896 71.1669C159.205 72.9649 163.769 77.1149 167.089 76.1465Z" stroke="#1A2E35" stroke-width="0.5" stroke-miterlimit="10"/>
<path d="M167.089 76.1465L162.79 72.8013" stroke="#1A2E35" stroke-width="0.5" stroke-miterlimit="10"/>
<path d="M169.232 152.115L172.414 147.966" stroke="#1A2E35" stroke-width="0.5" stroke-miterlimit="10"/>
<path d="M171.445 149.211C171.445 149.211 171.169 147.551 172.552 146.029C173.384 145.114 178.003 142.577 178.638 144.231C179.33 146.029 174.765 150.179 171.445 149.211Z" fill="#5AE4A7"/>
<path d="M171.445 149.211C171.445 149.211 171.169 147.551 172.552 146.029C173.384 145.114 178.003 142.577 178.638 144.231C179.33 146.029 174.765 150.179 171.445 149.211Z" stroke="#1A2E35" stroke-width="0.5" stroke-miterlimit="10"/>
<path d="M171.445 149.211L175.999 145.685" stroke="#1A2E35" stroke-width="0.5" stroke-miterlimit="10"/>
<path d="M169.232 123.394L172.414 119.245" stroke="#1A2E35" stroke-width="0.5" stroke-miterlimit="10"/>
<path d="M171.445 120.489C171.445 120.489 171.169 118.83 172.552 117.308C173.384 116.393 178.003 113.857 178.638 115.51C179.33 117.308 174.765 121.458 171.445 120.489Z" fill="#5AE4A7"/>
<path d="M171.445 120.489C171.445 120.489 171.169 118.83 172.552 117.308C173.384 116.393 178.003 113.857 178.638 115.51C179.33 117.308 174.765 121.458 171.445 120.489Z" stroke="#1A2E35" stroke-width="0.5" stroke-miterlimit="10"/>
<path d="M171.445 120.489L175.999 116.964" stroke="#1A2E35" stroke-width="0.5" stroke-miterlimit="10"/>
<path d="M169.232 109.219L172.414 105.069" stroke="#1A2E35" stroke-width="0.5" stroke-miterlimit="10"/>
<path d="M171.445 106.314C171.445 106.314 171.169 104.655 172.552 103.133C173.384 102.217 178.003 99.6809 178.638 101.335C179.33 103.133 174.765 107.283 171.445 106.314Z" fill="#5AE4A7"/>
<path d="M171.445 106.314C171.445 106.314 171.169 104.655 172.552 103.133C173.384 102.217 178.003 99.6809 178.638 101.335C179.33 103.133 174.765 107.283 171.445 106.314Z" stroke="#1A2E35" stroke-width="0.5" stroke-miterlimit="10"/>
<path d="M171.445 106.314L175.999 102.789" stroke="#1A2E35" stroke-width="0.5" stroke-miterlimit="10"/>
<path d="M169.232 90.4824L172.414 86.3328" stroke="#1A2E35" stroke-width="0.5" stroke-miterlimit="10"/>
<path d="M171.445 87.5775C171.445 87.5775 171.169 85.9179 172.552 84.3963C173.384 83.4807 178.003 80.9447 178.638 82.5979C179.33 84.3963 174.765 88.5459 171.445 87.5775Z" fill="#5AE4A7"/>
<path d="M171.445 87.5775C171.445 87.5775 171.169 85.9179 172.552 84.3963C173.384 83.4807 178.003 80.9447 178.638 82.5979C179.33 84.3963 174.765 88.5459 171.445 87.5775Z" stroke="#1A2E35" stroke-width="0.5" stroke-miterlimit="10"/>
<path d="M171.445 87.5775L175.999 84.0523" stroke="#1A2E35" stroke-width="0.5" stroke-miterlimit="10"/>
<path d="M169.232 75.7522L172.414 71.6026" stroke="#1A2E35" stroke-width="0.5" stroke-miterlimit="10"/>
<path d="M171.445 72.8475C171.445 72.8475 171.169 71.1875 172.552 69.6659C173.384 68.7507 178.003 66.2143 178.638 67.8679C179.33 69.6659 174.765 73.8155 171.445 72.8475Z" fill="#5AE4A7"/>
<path d="M171.445 72.8475C171.445 72.8475 171.169 71.1875 172.552 69.6659C173.384 68.7507 178.003 66.2143 178.638 67.8679C179.33 69.6659 174.765 73.8155 171.445 72.8475Z" stroke="#1A2E35" stroke-width="0.5" stroke-miterlimit="10"/>
<path d="M171.445 72.8474L175.999 69.3222" stroke="#1A2E35" stroke-width="0.5" stroke-miterlimit="10"/>
<path d="M169.042 66.3142C169.042 66.3142 168.765 64.6546 170.148 63.133C170.98 62.2174 175.598 59.6814 176.234 61.3346C176.926 63.133 172.361 67.2826 169.042 66.3142Z" fill="#5AE4A7"/>
<path d="M169.042 66.3142C169.042 66.3142 168.765 64.6546 170.148 63.133C170.98 62.2174 175.598 59.6814 176.234 61.3346C176.926 63.133 172.361 67.2826 169.042 66.3142Z" stroke="#1A2E35" stroke-width="0.5" stroke-miterlimit="10"/>
<path d="M169.042 66.3142L173.595 62.789" stroke="#1A2E35" stroke-width="0.5" stroke-miterlimit="10"/>
<path d="M169.263 66.5101C169.263 66.5101 167.584 66.6109 166.216 65.0761C165.393 64.1521 163.355 59.2937 165.066 58.8349C166.927 58.3353 170.575 63.3101 169.263 66.5101Z" fill="#5AE4A7"/>
<path d="M169.263 66.5101C169.263 66.5101 167.584 66.6109 166.216 65.0761C165.393 64.1521 163.355 59.2937 165.066 58.8349C166.927 58.3353 170.575 63.3101 169.263 66.5101Z" stroke="#1A2E35" stroke-width="0.5" stroke-miterlimit="10"/>
<path d="M169.263 66.5101L166.235 61.6117" stroke="#1A2E35" stroke-width="0.5" stroke-miterlimit="10"/>
<path d="M173.179 185.972H163.003L161.73 160.27H174.451L173.179 185.972Z" fill="#1A2E35"/>
<path d="M173.179 185.972H163.003L161.73 160.27H174.451L173.179 185.972Z" stroke="#1A2E35" stroke-width="0.5" stroke-miterlimit="10"/>
<g opacity="0.199997">
<path d="M149.2 188C149.2 191.314 139.798 194 128.2 194C116.602 194 107.2 191.314 107.2 188C107.2 184.686 116.602 182 128.2 182C139.798 182 149.2 184.686 149.2 188Z" fill="black"/>
</g>
<path d="M85.3999 71.5C85.3999 71.5 83.8999 72.6 83.8999 73.6C83.8999 74.6 84.6999 77.7 85.3999 78.1C86.0999 78.5 87.7999 78.8 88.3999 78.7C88.9999 78.6 90.1999 77.7 89.8999 77.4L89.5999 77.1L88.5999 76.9C88.5999 76.9 89.2999 76.9 89.7999 76.5C90.2999 76.1 90.4999 75 90.4999 75C90.4999 75 89.7999 73.4 88.9999 73.2C88.1999 73 85.3999 71.5 85.3999 71.5Z" fill="white"/>
<path d="M85.3999 71.5C85.3999 71.5 83.8999 72.6 83.8999 73.6C83.8999 74.6 84.6999 77.7 85.3999 78.1C86.0999 78.5 87.7999 78.8 88.3999 78.7C88.9999 78.6 90.1999 77.7 89.8999 77.4L89.5999 77.1L88.5999 76.9C88.5999 76.9 89.2999 76.9 89.7999 76.5C90.2999 76.1 90.4999 75 90.4999 75C90.4999 75 89.7999 73.4 88.9999 73.2C88.1999 73 85.3999 71.5 85.3999 71.5Z" stroke="#1A2E35" stroke-width="0.5" stroke-miterlimit="10" stroke-linecap="round" stroke-linejoin="round"/>
<path d="M98.4001 74.2C98.4001 74.2 93.0001 70 91.9001 69.9C90.8001 69.8 89.1001 69.8 88.0001 70.1C86.9001 70.4 85.4001 70.9 85.4001 71.5C85.4001 72.1 85.1001 75.3 85.1001 76.2C85.1001 77.1 86.4001 78.4 86.9001 78.4C87.4001 78.4 87.6001 78.2 87.6001 77.6C87.6001 77 86.7001 76.1 86.7001 76.1L87.5001 74.5L89.1001 74.6C89.1001 74.6 90.5001 77.1 92.3001 77.3C94.1001 77.5 95.3001 77.3 95.3001 77.3L97.8001 78.6L100.1 76.3L98.4001 74.2Z" fill="white"/>
<path d="M98.4001 74.2C98.4001 74.2 93.0001 70 91.9001 69.9C90.8001 69.8 89.1001 69.8 88.0001 70.1C86.9001 70.4 85.4001 70.9 85.4001 71.5C85.4001 72.1 85.1001 75.3 85.1001 76.2C85.1001 77.1 86.4001 78.4 86.9001 78.4C87.4001 78.4 87.6001 78.2 87.6001 77.6C87.6001 77 86.7001 76.1 86.7001 76.1L87.5001 74.5L89.1001 74.6C89.1001 74.6 90.5001 77.1 92.3001 77.3C94.1001 77.5 95.3001 77.3 95.3001 77.3L97.8001 78.6L100.1 76.3L98.4001 74.2Z" stroke="#1A2E35" stroke-width="0.5" stroke-miterlimit="10" stroke-linecap="round" stroke-linejoin="round"/>
<path d="M89.4594 72.8246L87.7402 72.1798L89.4594 72.8246Z" fill="white"/>
<path d="M89.4594 72.8246L87.7402 72.1798" stroke="#1A2E35" stroke-width="0.5" stroke-miterlimit="10" stroke-linecap="round" stroke-linejoin="round"/>
<path d="M85.6001 76L85.7001 81.9L88.7001 82V75.9L85.6001 76Z" fill="#5AE4A7"/>
<path d="M85.6001 76L85.7001 81.9L88.7001 82V75.9L85.6001 76Z" stroke="#1A2E35" stroke-width="0.5" stroke-miterlimit="10" stroke-linecap="round" stroke-linejoin="round"/>
<path d="M91.2 71.7C91.2 71.7 88.9 72.9 87.3 74C85.7 75.1 84.1 75.1 84.6 75.8C85.1 76.5 85.3 76.7 86.6 76.5C87.9 76.3 89.7 75.8 89.7 75.8C89.7 75.8 92 76.2 93.5 76.2C95 76.2 96.3 75.1 96.3 75.1" fill="white"/>
<path d="M91.2 71.7C91.2 71.7 88.9 72.9 87.3 74C85.7 75.1 84.1 75.1 84.6 75.8C85.1 76.5 85.3 76.7 86.6 76.5C87.9 76.3 89.7 75.8 89.7 75.8C89.7 75.8 92 76.2 93.5 76.2C95 76.2 96.3 75.1 96.3 75.1" stroke="#1A2E35" stroke-width="0.5" stroke-miterlimit="10" stroke-linecap="round" stroke-linejoin="round"/>
<path d="M102.5 77.4999L100.6 75.2999C100.6 75.2999 99.0999 74.7999 97.3999 76.4999C95.6999 78.1999 95.7999 79.3999 95.7999 79.3999L97.2999 81.3999C97.2999 81.3999 100.5 77.4999 102.5 77.4999Z" fill="#1A2E35"/>
<path d="M102.5 77.4999L100.6 75.2999C100.6 75.2999 99.0999 74.7999 97.3999 76.4999C95.6999 78.1999 95.7999 79.3999 95.7999 79.3999L97.2999 81.3999C97.2999 81.3999 100.5 77.4999 102.5 77.4999Z" stroke="#1A2E35" stroke-width="0.5" stroke-miterlimit="10" stroke-linecap="round" stroke-linejoin="round"/>
<path d="M121.322 181.688C121.322 181.688 117.54 184.18 114.961 185.9C112.382 187.619 114.36 188.565 116.164 188.909C117.97 189.252 122.44 188.479 124.159 188.221C125.878 187.963 131.122 186.501 131.81 185.642C132.497 184.782 132.497 183.923 131.982 183.665C131.466 183.407 124.245 181.344 123.471 181.344C122.698 181.344 121.322 181.688 121.322 181.688Z" fill="white"/>
<path d="M121.322 181.688C121.322 181.688 117.54 184.18 114.961 185.9C112.382 187.619 114.36 188.565 116.164 188.909C117.97 189.252 122.44 188.479 124.159 188.221C125.878 187.963 131.122 186.501 131.81 185.642C132.497 184.782 132.497 183.923 131.982 183.665C131.466 183.407 124.245 181.344 123.471 181.344C122.698 181.344 121.322 181.688 121.322 181.688Z" stroke="#1A2E35" stroke-width="0.5" stroke-miterlimit="10" stroke-linecap="round" stroke-linejoin="round"/>
<path d="M114.15 186.746C114.15 186.746 115.473 187.835 119.363 188.068C123.253 188.302 128.31 185.656 128.31 185.656" stroke="#1A2E35" stroke-width="0.5" stroke-miterlimit="10" stroke-linecap="round" stroke-linejoin="round"/>
<path d="M114.15 186.746C114.15 186.746 115.473 187.835 119.363 188.068C123.253 188.302 128.31 185.656 128.31 185.656" stroke="#1A2E35" stroke-width="0.5" stroke-miterlimit="10" stroke-linecap="round" stroke-linejoin="round"/>
<path d="M130.52 183.837C130.52 183.837 128.629 185.47 126.394 186.845C124.159 188.221 121.322 189.338 121.838 190.799C122.354 192.261 126.738 192.261 129.575 192.003C132.411 191.745 133.701 190.971 135.85 190.284C137.999 189.596 139.718 188.307 140.148 187.275C140.578 186.244 131.724 183.579 130.52 183.837Z" fill="white"/>
<path d="M130.52 183.837C130.52 183.837 128.629 185.47 126.394 186.845C124.159 188.221 121.322 189.338 121.838 190.799C122.354 192.261 126.738 192.261 129.575 192.003C132.411 191.745 133.701 190.971 135.85 190.284C137.999 189.596 139.718 188.307 140.148 187.275C140.578 186.244 131.724 183.579 130.52 183.837Z" stroke="#1A2E35" stroke-width="0.5" stroke-miterlimit="10" stroke-linecap="round" stroke-linejoin="round"/>
<path d="M122.008 190.014C122.008 190.014 122.864 191.025 128.466 190.791C134.068 190.558 137.881 187.913 137.881 187.913" stroke="#1A2E35" stroke-width="0.5" stroke-miterlimit="10" stroke-linecap="round" stroke-linejoin="round"/>
<path d="M113.589 144.52C113.589 144.52 113.479 151.113 114.029 153.42C114.578 155.728 116.226 156.387 116.666 156.387C117.105 156.387 114.688 143.861 114.688 143.861C114.688 143.861 113.369 143.971 113.589 144.52Z" fill="#5AE4A7"/>
<path d="M113.589 144.52C113.589 144.52 113.479 151.113 114.029 153.42C114.578 155.728 116.226 156.387 116.666 156.387C117.105 156.387 114.688 143.861 114.688 143.861C114.688 143.861 113.369 143.971 113.589 144.52Z" stroke="#1A2E35" stroke-width="0.5" stroke-miterlimit="10" stroke-linecap="round" stroke-linejoin="round"/>
<path d="M114.249 143.312C114.249 143.312 112.93 142.652 112.93 143.531C112.93 144.41 113.479 146.388 113.919 146.388H114.359L114.249 143.312Z" fill="#5AE4A7"/>
<path d="M114.249 143.312C114.249 143.312 112.93 142.652 112.93 143.531C112.93 144.41 113.479 146.388 113.919 146.388H114.359L114.249 143.312Z" stroke="#1A2E35" stroke-width="0.5" stroke-miterlimit="10" stroke-linecap="round" stroke-linejoin="round"/>
<path d="M112.71 115.512C112.71 115.512 111.282 129.687 112.71 137.378C114.138 145.07 116.995 160.453 117.654 162.321C118.314 164.188 121.83 177.923 121.83 177.923C121.83 177.923 120.951 179.132 120.951 179.571C120.951 180.011 120.841 181.659 120.841 181.659C120.841 181.659 123.149 182.868 125.456 183.527C127.763 184.186 129.411 184.516 129.411 184.516C129.411 184.516 132.049 185.395 133.697 186.054C135.345 186.714 139.301 188.252 139.301 188.252C139.301 188.252 140.949 187.153 141.937 185.834C142.927 184.516 142.487 181 142.157 180.121C141.828 179.242 141.278 177.923 141.278 176.495C141.278 175.066 141.168 160.342 141.168 159.903C141.168 159.464 142.267 131.225 142.267 129.357V117.38C142.267 117.051 135.894 117.16 129.301 117.16C122.709 117.16 112.49 113.864 112.49 113.864L112.71 115.512Z" fill="#5AE4A7"/>
<path d="M112.71 115.512C112.71 115.512 111.282 129.687 112.71 137.378C114.138 145.07 116.995 160.453 117.654 162.321C118.314 164.188 121.83 177.923 121.83 177.923C121.83 177.923 120.951 179.132 120.951 179.571C120.951 180.011 120.841 181.659 120.841 181.659C120.841 181.659 123.149 182.868 125.456 183.527C127.763 184.186 129.411 184.516 129.411 184.516C129.411 184.516 132.049 185.395 133.697 186.054C135.345 186.714 139.301 188.252 139.301 188.252C139.301 188.252 140.949 187.153 141.937 185.834C142.927 184.516 142.487 181 142.157 180.121C141.828 179.242 141.278 177.923 141.278 176.495C141.278 175.066 141.168 160.342 141.168 159.903C141.168 159.464 142.267 131.225 142.267 129.357V117.38C142.267 117.051 135.894 117.16 129.301 117.16C122.709 117.16 112.49 113.864 112.49 113.864L112.71 115.512Z" stroke="#1A2E35" stroke-width="0.5" stroke-miterlimit="10" stroke-linecap="round" stroke-linejoin="round"/>
<path d="M119.522 121.995L123.038 125.951C123.038 125.951 125.346 155.288 126.005 158.255C126.664 161.222 130.95 180.34 130.95 180.34C130.95 180.34 129.631 181 129.961 182.098C130.29 183.197 129.412 184.516 129.412 184.516" stroke="#1A2E35" stroke-width="0.5" stroke-miterlimit="10" stroke-linecap="round" stroke-linejoin="round"/>
<path d="M132.159 146.828C132.159 146.828 131.829 152.212 132.159 154.739C132.488 157.266 133.477 158.035 134.686 158.035C135.895 158.035 140.619 157.156 141.389 156.936C142.158 156.717 142.377 155.288 142.158 153.201C141.938 151.113 141.169 145.399 141.169 145.399C141.169 145.399 136.334 146.718 132.159 146.828Z" fill="#5AE4A7"/>
<path d="M132.159 146.828C132.159 146.828 131.829 152.212 132.159 154.739C132.488 157.266 133.477 158.035 134.686 158.035C135.895 158.035 140.619 157.156 141.389 156.936C142.158 156.717 142.377 155.288 142.158 153.201C141.938 151.113 141.169 145.399 141.169 145.399C141.169 145.399 136.334 146.718 132.159 146.828Z" stroke="#1A2E35" stroke-width="0.5" stroke-miterlimit="10" stroke-linecap="round" stroke-linejoin="round"/>
<path d="M141.608 143.531C141.608 143.531 139.081 144.41 137.323 144.41C135.565 144.41 131.719 144.63 131.719 144.63V147.267C131.719 147.267 133.257 147.597 135.125 147.487C136.993 147.377 141.608 146.278 141.608 146.278C141.608 146.278 141.498 144.63 141.608 143.531Z" fill="#5AE4A7"/>
<path d="M141.608 143.531C141.608 143.531 139.081 144.41 137.323 144.41C135.565 144.41 131.719 144.63 131.719 144.63V147.267C131.719 147.267 133.257 147.597 135.125 147.487C136.993 147.377 141.608 146.278 141.608 146.278C141.608 146.278 141.498 144.63 141.608 143.531Z" stroke="#1A2E35" stroke-width="0.5" stroke-miterlimit="10" stroke-linecap="round" stroke-linejoin="round"/>
<path d="M132.159 121.226C132.159 121.226 132.269 124.632 133.807 126.5C135.345 128.368 137.323 128.258 137.323 128.258" stroke="#1A2E35" stroke-width="0.5" stroke-miterlimit="10" stroke-linecap="round" stroke-linejoin="round"/>
<path d="M138.279 142.377L138.312 144.191" stroke="#1A2E35" stroke-width="0.5" stroke-miterlimit="10" stroke-linecap="round" stroke-linejoin="round"/>
<path d="M137.918 122.466L138.245 140.508" stroke="#1A2E35" stroke-width="0.5" stroke-miterlimit="10" stroke-linecap="round" stroke-linejoin="round"/>
<path d="M137.872 119.908L137.893 121.041" stroke="#1A2E35" stroke-width="0.5" stroke-miterlimit="10" stroke-linecap="round" stroke-linejoin="round"/>
<path d="M138.537 178.447C138.78 180.316 139.333 181.37 139.96 181.549C140.729 181.769 140.839 183.417 139.96 183.856L139.081 184.296C139.081 184.296 138.641 183.747 139.411 185.285C140.179 186.823 138.422 187.812 138.422 187.812" stroke="#1A2E35" stroke-width="0.5" stroke-miterlimit="10" stroke-linecap="round" stroke-linejoin="round"/>
<path d="M138.422 158.255C138.422 158.255 138.312 174.297 138.422 177.044" stroke="#1A2E35" stroke-width="0.5" stroke-miterlimit="10" stroke-linecap="round" stroke-linejoin="round"/>
<path d="M110.842 111.447C110.842 111.447 110.952 114.634 111.171 115.183C111.391 115.732 113.919 119.138 120.401 120.018C126.884 120.896 134.685 120.018 142.047 118.479C142.047 118.479 144.135 117.271 144.465 116.611C144.794 115.952 144.135 113.205 144.135 113.205C144.135 113.205 135.565 115.403 129.192 115.403C122.819 115.403 113.699 111.887 112.381 111.447C111.062 111.007 110.842 111.447 110.842 111.447Z" fill="#1A2E35"/>
<path d="M110.842 111.447C110.842 111.447 110.952 114.634 111.171 115.183C111.391 115.732 113.919 119.138 120.401 120.018C126.884 120.896 134.685 120.018 142.047 118.479C142.047 118.479 144.135 117.271 144.465 116.611C144.794 115.952 144.135 113.205 144.135 113.205C144.135 113.205 135.565 115.403 129.192 115.403C122.819 115.403 113.699 111.887 112.381 111.447C111.062 111.007 110.842 111.447 110.842 111.447Z" stroke="#1A2E35" stroke-width="0.5" stroke-miterlimit="10" stroke-linecap="round" stroke-linejoin="round"/>
<path d="M122 66.0999C122 66.0999 118.9 67.5999 116.9 69.1999C114.9 70.7999 113.6 74.8999 112.6 77.1999C111.6 79.4999 110.6 83.7999 110.6 83.7999C110.6 83.7999 106.4 79.4999 104.9 77.7999C103.4 76.0999 100.8 76.5999 98.5001 78.8999C96.2001 81.1999 96.7001 82.8999 97.8001 84.9999C98.9001 87.0999 106 94.3999 108.4 96.3999C110.8 98.3999 111.6 97.8999 111.6 97.8999C111.6 97.8999 109.8 109.6 110.2 111.2C110.6 112.8 115.3 116.5 121.8 117.4C128.3 118.3 138.2 117.5 140.6 116.3C143 115.1 144.7 114.8 145.2 113.4C145.7 112 146 109.4 146 109.4C146 109.4 147.1 78.4999 146.6 74.4999C146.1 70.4999 145.8 69.1999 144.6 68.2999C143.4 67.3999 139.2 66.3999 135.3 66.2999C131.4 66.1999 122 66.0999 122 66.0999Z" fill="#ADADAD"/>
<path d="M122 66.0999C122 66.0999 118.9 67.5999 116.9 69.1999C114.9 70.7999 113.6 74.8999 112.6 77.1999C111.6 79.4999 110.6 83.7999 110.6 83.7999C110.6 83.7999 106.4 79.4999 104.9 77.7999C103.4 76.0999 100.8 76.5999 98.5001 78.8999C96.2001 81.1999 96.7001 82.8999 97.8001 84.9999C98.9001 87.0999 106 94.3999 108.4 96.3999C110.8 98.3999 111.6 97.8999 111.6 97.8999C111.6 97.8999 109.8 109.6 110.2 111.2C110.6 112.8 115.3 116.5 121.8 117.4C128.3 118.3 138.2 117.5 140.6 116.3C143 115.1 144.7 114.8 145.2 113.4C145.7 112 146 109.4 146 109.4C146 109.4 147.1 78.4999 146.6 74.4999C146.1 70.4999 145.8 69.1999 144.6 68.2999C143.4 67.3999 139.2 66.3999 135.3 66.2999C131.4 66.1999 122 66.0999 122 66.0999Z" stroke="#1A2E35" stroke-width="0.5" stroke-miterlimit="10" stroke-linecap="round" stroke-linejoin="round"/>
<path d="M134.2 102.4C134.2 102.4 135.6 108.4 136.6 110.4C137.6 112.4 138 113.6 138 113.6L135.4 114.5C135.4 114.5 133.7 111.3 132.9 108.1C132.1 104.9 131.9 103.3 131.9 103.3L134.2 102.4Z" fill="#1A2E35"/>
<path d="M134.2 102.4C134.2 102.4 135.6 108.4 136.6 110.4C137.6 112.4 138 113.6 138 113.6L135.4 114.5C135.4 114.5 133.7 111.3 132.9 108.1C132.1 104.9 131.9 103.3 131.9 103.3L134.2 102.4Z" stroke="#1A2E35" stroke-width="0.5" stroke-miterlimit="10" stroke-linecap="round" stroke-linejoin="round"/>
<path d="M113.8 99.1L114.7 101.3L111.3 107.1L111.2 103.9L113.8 99.1Z" fill="#1A2E35"/>
<path d="M113.8 99.1L114.7 101.3L111.3 107.1L111.2 103.9L113.8 99.1Z" stroke="#1A2E35" stroke-width="0.5" stroke-miterlimit="10" stroke-linecap="round" stroke-linejoin="round"/>
<path d="M125 71.4999C125 71.4999 123.8 79.2999 121.7 92.8999C119.6 106.5 120.4 116.8 120.4 116.8" stroke="#1A2E35" stroke-width="0.5" stroke-miterlimit="10" stroke-linecap="round" stroke-linejoin="round"/>
<path d="M132.198 88.9043C134.813 89.1099 137.607 89.0291 139.7 88.1999" stroke="#1A2E35" stroke-width="0.5" stroke-miterlimit="10" stroke-linecap="round" stroke-linejoin="round"/>
<path d="M124.6 87.6C124.6 87.6 127.293 88.342 130.62 88.7456" stroke="#1A2E35" stroke-width="0.5" stroke-miterlimit="10" stroke-linecap="round" stroke-linejoin="round"/>
<path d="M115.787 73.6387C115.985 73.0351 116.19 72.4847 116.4 71.9999" stroke="#1A2E35" stroke-width="0.5" stroke-miterlimit="10" stroke-linecap="round" stroke-linejoin="round"/>
<path d="M111.6 97.8999C111.6 97.8999 113.06 83.1443 115.374 74.9903" stroke="#1A2E35" stroke-width="0.5" stroke-miterlimit="10" stroke-linecap="round" stroke-linejoin="round"/>
<path d="M117.341 86.3224C118.062 86.564 118.86 86.7472 119.7 86.8" stroke="#1A2E35" stroke-width="0.5" stroke-miterlimit="10" stroke-linecap="round" stroke-linejoin="round"/>
<path d="M113.9 84.5C113.9 84.5 114.838 85.258 116.282 85.9064" stroke="#1A2E35" stroke-width="0.5" stroke-miterlimit="10" stroke-linecap="round" stroke-linejoin="round"/>
<path d="M112.3 97.3C112.3 97.3 115.4 99.4 119.1 99.5" stroke="#1A2E35" stroke-width="0.5" stroke-miterlimit="10" stroke-linecap="round" stroke-linejoin="round"/>
<path d="M125.109 100.569C127.926 101.184 133.117 101.969 138.8 101.1" stroke="#1A2E35" stroke-width="0.5" stroke-miterlimit="10" stroke-linecap="round" stroke-linejoin="round"/>
<path d="M122.9 99.9999C122.9 99.9999 123.305 100.131 124.034 100.316" stroke="#1A2E35" stroke-width="0.5" stroke-miterlimit="10" stroke-linecap="round" stroke-linejoin="round"/>
<path d="M110.6 83.7999C110.6 83.7999 110.4 88.2999 111.5 90.7999" stroke="#1A2E35" stroke-width="0.5" stroke-miterlimit="10" stroke-linecap="round" stroke-linejoin="round"/>
<path d="M126.547 108.037C126.269 108.511 126.01 109.043 125.782 109.64L126.547 108.037Z" fill="white"/>
<path d="M126.547 108.037C126.269 108.511 126.01 109.043 125.782 109.64" stroke="#1A2E35" stroke-width="0.5" stroke-miterlimit="10" stroke-linecap="round" stroke-linejoin="round"/>
<path d="M131.374 104.251C131.374 104.251 128.881 104.656 126.966 107.384" stroke="#1A2E35" stroke-width="0.5" stroke-miterlimit="10" stroke-linecap="round" stroke-linejoin="round"/>
<path d="M124.6 71.2999C124.6 71.2999 126.4 72.6999 131.6 72.0999C136.8 71.4999 141 69.3999 142.8 69.1999C144.6 68.9999 145.2 68.8999 145.2 68.8999C145.2 68.8999 143.1 64.7999 140.5 63.0999C137.9 61.3999 135.1 60.4999 133.4 60.4999C131.7 60.4999 127 61.9999 124.1 64.1999C121.2 66.3999 120 65.7999 121.4 67.7999C122.8 69.7999 124.6 71.2999 124.6 71.2999Z" fill="#1A2E35"/>
<path d="M124.6 71.2999C124.6 71.2999 126.4 72.6999 131.6 72.0999C136.8 71.4999 141 69.3999 142.8 69.1999C144.6 68.9999 145.2 68.8999 145.2 68.8999C145.2 68.8999 143.1 64.7999 140.5 63.0999C137.9 61.3999 135.1 60.4999 133.4 60.4999C131.7 60.4999 127 61.9999 124.1 64.1999C121.2 66.3999 120 65.7999 121.4 67.7999C122.8 69.7999 124.6 71.2999 124.6 71.2999Z" stroke="#1A2E35" stroke-width="0.5" stroke-miterlimit="10" stroke-linecap="round" stroke-linejoin="round"/>
<path d="M124.1 63.0999C124.1 63.0999 124.3 70.4999 124.6 71.2999C124.9 72.0999 133.3 66.1999 134.1 64.6999C134.9 63.1999 136.4 55.3999 136.4 55.3999C136.4 55.3999 132.9 56.0999 131.7 56.8999C130.5 57.6999 128.8 59.9999 127 60.8999C125.2 61.7999 124.1 63.0999 124.1 63.0999Z" fill="white"/>
<path d="M124.1 63.0999C124.1 63.0999 124.3 70.4999 124.6 71.2999C124.9 72.0999 133.3 66.1999 134.1 64.6999C134.9 63.1999 136.4 55.3999 136.4 55.3999C136.4 55.3999 132.9 56.0999 131.7 56.8999C130.5 57.6999 128.8 59.9999 127 60.8999C125.2 61.7999 124.1 63.0999 124.1 63.0999Z" stroke="#1A2E35" stroke-width="0.5" stroke-miterlimit="10" stroke-linecap="round" stroke-linejoin="round"/>
<path d="M131.2 60.0999L127.316 60.7267C127.211 60.7887 127.106 60.8471 127 60.8999C125.2 61.7999 124.1 63.0999 124.1 63.0999C124.1 63.0999 124.126 64.0843 124.175 65.3723C129.998 63.1847 131.2 60.0999 131.2 60.0999Z" fill="#1A2E35"/>
<path d="M131.2 60.0999L127.316 60.7267C127.211 60.7887 127.106 60.8471 127 60.8999C125.2 61.7999 124.1 63.0999 124.1 63.0999C124.1 63.0999 124.126 64.0843 124.175 65.3723C129.998 63.1847 131.2 60.0999 131.2 60.0999Z" stroke="#1A2E35" stroke-width="0.5" stroke-miterlimit="10" stroke-linecap="round" stroke-linejoin="round"/>
<path d="M119.9 47.7C119.9 47.7 119.4 53 119.4 54.7C119.4 56.4 119 62.5 120.7 63.5C122.4 64.5 126.9 63.5 128.1 62.8C129.3 62.1 130.8 60.8 131.2 60.1C131.6 59.4 131.9 58.7 131.9 58.7C131.9 58.7 132.9 57.8 133.5 57.4C134.1 57 135.5 57.3 136 55.6C136.5 53.9 137 53.3 136.5 51.5C136 49.7 134.3 46.7 133.4 45.9C132.5 45.1 127.4 42.9 125.2 43.8C123 44.7 120.2 46.2 119.9 47.7Z" fill="white"/>
<path d="M119.9 47.7C119.9 47.7 119.4 53 119.4 54.7C119.4 56.4 119 62.5 120.7 63.5C122.4 64.5 126.9 63.5 128.1 62.8C129.3 62.1 130.8 60.8 131.2 60.1C131.6 59.4 131.9 58.7 131.9 58.7C131.9 58.7 132.9 57.8 133.5 57.4C134.1 57 135.5 57.3 136 55.6C136.5 53.9 137 53.3 136.5 51.5C136 49.7 134.3 46.7 133.4 45.9C132.5 45.1 127.4 42.9 125.2 43.8C123 44.7 120.2 46.2 119.9 47.7Z" stroke="#1A2E35" stroke-width="0.5" stroke-miterlimit="10" stroke-linecap="round" stroke-linejoin="round"/>
<path d="M122.3 50.7C122.3 50.7 122.2 52.2 121.6 53.2C121 54.2 119.7 54.7 120.7 55.3C121.7 55.9 123.2 56.1 123.2 56.1" stroke="#1A2E35" stroke-width="0.5" stroke-miterlimit="10" stroke-linecap="round" stroke-linejoin="round"/>
<path d="M121.8 57.6C121.8 57.6 125.2 58.6 126.8 55.5" stroke="#1A2E35" stroke-width="0.5" stroke-miterlimit="10" stroke-linecap="round" stroke-linejoin="round"/>
<path d="M125.5 51.75C125.5 52.2196 125.254 52.6 124.95 52.6C124.646 52.6 124.4 52.2196 124.4 51.75C124.4 51.2804 124.646 50.9 124.95 50.9C125.254 50.9 125.5 51.2804 125.5 51.75Z" fill="#1A2E35"/>
<path d="M121.5 51.0499C121.5 51.5195 121.254 51.8999 120.95 51.8999C120.646 51.8999 120.4 51.5195 120.4 51.0499C120.4 50.5803 120.646 50.1999 120.95 50.1999C121.254 50.1999 121.5 50.5803 121.5 51.0499Z" fill="#1A2E35"/>
<path d="M124.2 49.5C124.2 49.5 125.7 49.1 126.9 50" stroke="#1A2E35" stroke-width="0.5" stroke-miterlimit="10" stroke-linecap="round" stroke-linejoin="round"/>
<path d="M120.3 49C120.3 49 121.6 48.1 122.4 49" stroke="#1A2E35" stroke-width="0.5" stroke-miterlimit="10" stroke-linecap="round" stroke-linejoin="round"/>
<path d="M121.9 37.3999C121.9 37.3999 119.3 37.8999 118 39.9999C116.7 42.0999 115.9 44.5999 115.9 44.5999L119.7 43.4999C119.7 43.4999 118.7 45.9999 117.4 46.5999C116.1 47.1999 115.2 47.4999 115.2 47.4999C115.2 47.4999 117.7 48.5999 120.2 48.2999C122.7 47.9999 126.3 45.5999 126.3 45.5999L124.8 48.0999C124.8 48.0999 124 48.4999 127.4 48.0999C130.8 47.6999 132.1 47.0999 132.1 47.0999C132.1 47.0999 130.2 50.3999 130 50.6999C129.8 50.9999 128.9 51.7999 128.9 51.7999L130.9 51.8999C130.9 51.8999 130 52.1999 130 52.7999C130 53.3999 129.8 54.7999 129.8 54.7999L131.8 53.8999L131.7 54.5999C131.7 54.5999 132.4 54.3999 133.1 54.2999C133.8 54.1999 134.8 53.7999 134.8 53.7999C134.8 53.7999 135 55.5999 134.7 56.2999C134.4 56.9999 132.7 57.5999 132.7 57.5999L132.5 59.5999C132.5 59.5999 134.3 59.5999 134.6 59.4999C134.9 59.3999 135.4 58.6999 135.4 58.6999L134.9 60.1999C134.9 60.1999 135.4 60.2999 137 59.6999C138.6 59.0999 139.8 55.8999 139.8 55.8999C139.8 55.8999 142.2 51.1999 142.4 47.9999C142.6 44.7999 140.6 40.2999 138.3 38.3999C136 36.4999 127.2 33.5999 121.9 37.3999Z" fill="#1A2E35"/>
<path d="M121.9 37.3999C121.9 37.3999 119.3 37.8999 118 39.9999C116.7 42.0999 115.9 44.5999 115.9 44.5999L119.7 43.4999C119.7 43.4999 118.7 45.9999 117.4 46.5999C116.1 47.1999 115.2 47.4999 115.2 47.4999C115.2 47.4999 117.7 48.5999 120.2 48.2999C122.7 47.9999 126.3 45.5999 126.3 45.5999L124.8 48.0999C124.8 48.0999 124 48.4999 127.4 48.0999C130.8 47.6999 132.1 47.0999 132.1 47.0999C132.1 47.0999 130.2 50.3999 130 50.6999C129.8 50.9999 128.9 51.7999 128.9 51.7999L130.9 51.8999C130.9 51.8999 130 52.1999 130 52.7999C130 53.3999 129.8 54.7999 129.8 54.7999L131.8 53.8999L131.7 54.5999C131.7 54.5999 132.4 54.3999 133.1 54.2999C133.8 54.1999 134.8 53.7999 134.8 53.7999C134.8 53.7999 135 55.5999 134.7 56.2999C134.4 56.9999 132.7 57.5999 132.7 57.5999L132.5 59.5999C132.5 59.5999 134.3 59.5999 134.6 59.4999C134.9 59.3999 135.4 58.6999 135.4 58.6999L134.9 60.1999C134.9 60.1999 135.4 60.2999 137 59.6999C138.6 59.0999 139.8 55.8999 139.8 55.8999C139.8 55.8999 142.2 51.1999 142.4 47.9999C142.6 44.7999 140.6 40.2999 138.3 38.3999C136 36.4999 127.2 33.5999 121.9 37.3999Z" stroke="#1A2E35" stroke-width="0.5" stroke-miterlimit="10" stroke-linecap="round" stroke-linejoin="round"/>
<path d="M140.8 75C140.8 75 137.7 80.3 138.3 82.3C138.9 84.3 144 98.2 144 98.2C144 98.2 141.9 100 139.9 101.1C137.9 102.2 134.747 103.388 134.747 104.488C134.747 105.588 135.608 109.806 137.008 110.206C138.408 110.606 141.5 110.7 146 109.4C150.5 108.1 156.9 102.7 157.8 99.8C158.7 96.9 157 92 156.1 90.3C155.2 88.6 150.6 77 149 73.9C147.4 70.8 144.8 69.8 143.9 70" fill="#ADADAD"/>
<path d="M140.8 75C140.8 75 137.7 80.3 138.3 82.3C138.9 84.3 144 98.2 144 98.2C144 98.2 141.9 100 139.9 101.1C137.9 102.2 134.747 103.388 134.747 104.488C134.747 105.588 135.608 109.806 137.008 110.206C138.408 110.606 141.5 110.7 146 109.4C150.5 108.1 156.9 102.7 157.8 99.8C158.7 96.9 157 92 156.1 90.3C155.2 88.6 150.6 77 149 73.9C147.4 70.8 144.8 69.8 143.9 70" stroke="#1A2E35" stroke-width="0.5" stroke-miterlimit="10" stroke-linecap="round" stroke-linejoin="round"/>
<path d="M152.383 98.5254C152.914 98.397 153.425 98.225 153.9 98.0002" stroke="#1A2E35" stroke-width="0.5" stroke-miterlimit="10" stroke-linecap="round" stroke-linejoin="round"/>
<path d="M144 98.1999C144 98.1999 147.705 99.1719 151.139 98.7487" stroke="#1A2E35" stroke-width="0.5" stroke-miterlimit="10" stroke-linecap="round" stroke-linejoin="round"/>
<path d="M148.21 81.6138C148.536 81.5266 148.866 81.4546 149.2 81.3998" stroke="#1A2E35" stroke-width="0.5" stroke-miterlimit="10" stroke-linecap="round" stroke-linejoin="round"/>
<path d="M140.2 86.7999C140.2 86.7999 143.192 83.4427 147.119 81.9659" stroke="#1A2E35" stroke-width="0.5" stroke-miterlimit="10" stroke-linecap="round" stroke-linejoin="round"/>
<path d="M153.283 91.6568C153.586 91.658 153.892 91.672 154.2 91.7" stroke="#1A2E35" stroke-width="0.5" stroke-miterlimit="10" stroke-linecap="round" stroke-linejoin="round"/>
<path d="M143.7 95.2C143.7 95.2 147.112 92.4704 151.399 91.8028" stroke="#1A2E35" stroke-width="0.5" stroke-miterlimit="10" stroke-linecap="round" stroke-linejoin="round"/>
<g opacity="0.199997">
<path d="M68.7998 188C68.7998 191.314 59.3978 194 47.7998 194C36.2018 194 26.7998 191.314 26.7998 188C26.7998 184.686 36.2018 182 47.7998 182C59.3978 182 68.7998 184.686 68.7998 188Z" fill="black"/>
</g>
<path d="M34.4937 105.698C34.4937 105.698 31.0997 111.1 31.2333 115.767C31.3665 120.433 34.5665 143.5 34.5665 143.5C34.5665 143.5 32.8333 151.5 33.4997 155.1C34.1665 158.7 39.6333 182.167 39.6333 182.167C39.6333 182.167 39.2333 188.033 40.1665 190.433C41.0997 192.833 44.2997 195.233 45.0997 194.3C45.8997 193.367 47.0997 193.1 45.7665 188.833C44.4333 184.567 43.3665 182.3 43.3665 180.967C43.3665 179.633 42.8333 167.367 43.4997 164.833C44.1665 162.3 44.8333 146.033 44.8333 143.5V134.433L46.0333 120.567L52.0333 151.767C52.0333 151.767 49.6333 155.633 49.0997 158.167C48.5665 160.7 47.6333 172.967 47.0997 175.1C46.5665 177.233 45.6333 184.033 45.3665 184.833C45.0997 185.633 46.0333 186.3 46.8333 186.433C47.6333 186.567 53.0997 188.7 54.5665 188.567C56.0333 188.433 58.2997 188.167 57.4997 187.1C56.6997 186.033 51.2333 180.567 51.0997 180.167C50.9665 179.767 58.9665 159.633 59.8997 156.567C60.8333 153.5 61.3665 151.5 61.7665 149.633C62.1665 147.767 62.1665 125.1 61.0997 115.767C60.0333 106.433 60.2793 105.336 60.2793 105.336L36.4333 102.433L34.4937 105.698Z" fill="#1A2E35"/>
<path d="M34.4937 105.698C34.4937 105.698 31.0997 111.1 31.2333 115.767C31.3665 120.433 34.5665 143.5 34.5665 143.5C34.5665 143.5 32.8333 151.5 33.4997 155.1C34.1665 158.7 39.6333 182.167 39.6333 182.167C39.6333 182.167 39.2333 188.033 40.1665 190.433C41.0997 192.833 44.2997 195.233 45.0997 194.3C45.8997 193.367 47.0997 193.1 45.7665 188.833C44.4333 184.567 43.3665 182.3 43.3665 180.967C43.3665 179.633 42.8333 167.367 43.4997 164.833C44.1665 162.3 44.8333 146.033 44.8333 143.5V134.433L46.0333 120.567L52.0333 151.767C52.0333 151.767 49.6333 155.633 49.0997 158.167C48.5665 160.7 47.6333 172.967 47.0997 175.1C46.5665 177.233 45.6333 184.033 45.3665 184.833C45.0997 185.633 46.0333 186.3 46.8333 186.433C47.6333 186.567 53.0997 188.7 54.5665 188.567C56.0333 188.433 58.2997 188.167 57.4997 187.1C56.6997 186.033 51.2333 180.567 51.0997 180.167C50.9665 179.767 58.9665 159.633 59.8997 156.567C60.8333 153.5 61.3665 151.5 61.7665 149.633C62.1665 147.767 62.1665 125.1 61.0997 115.767C60.0333 106.433 60.2793 105.336 60.2793 105.336L36.4333 102.433L34.4937 105.698Z" stroke="#1A2E35" stroke-width="0.5" stroke-miterlimit="10" stroke-linecap="round" stroke-linejoin="round"/>
<path d="M46.5269 64.0797C46.5269 64.0797 46.1649 66.0701 45.9841 68.4225C45.8029 70.7749 45.0793 70.9557 44.3557 71.3177C43.6317 71.6797 36.9365 73.4889 36.2129 73.9413C35.4889 74.3937 34.9461 83.8033 35.4889 86.7889C36.0317 89.7745 36.1221 99.9981 36.1221 99.9981C36.1221 99.9981 34.4937 105.336 34.4937 105.698C34.4937 106.06 41.4601 108.865 49.3317 108.774C57.2029 108.684 60.0077 106.512 60.2793 105.336C60.5505 104.16 61.4552 96.3793 61.4552 96.1077C61.4552 95.8365 63.7104 101.711 65.1528 101.86C66.5956 102.009 80.8021 97.6853 80.8021 97.6853C80.8021 97.6853 87.2716 98.4901 88.4616 98.5053C89.6516 98.5205 90.3661 96.9885 90.0389 96.2005C89.7121 95.4121 84.6704 92.6441 83.0492 92.4649C81.4281 92.2861 77.9617 94.3673 77.9617 94.3673L69.2348 93.1245C69.2348 93.1245 64.3504 79.4605 62.9028 76.4749C61.4552 73.4889 61.6361 72.9465 59.0125 71.9509C56.3889 70.9557 52.9508 69.9605 52.9508 69.9605L52.7697 66.6129L46.5269 64.0797Z" fill="#ADADAD"/>
<path d="M46.5269 64.0797C46.5269 64.0797 46.1649 66.0701 45.9841 68.4225C45.8029 70.7749 45.0793 70.9557 44.3557 71.3177C43.6317 71.6797 36.9365 73.4889 36.2129 73.9413C35.4889 74.3937 34.9461 83.8033 35.4889 86.7889C36.0317 89.7745 36.1221 99.9981 36.1221 99.9981C36.1221 99.9981 34.4937 105.336 34.4937 105.698C34.4937 106.06 41.4601 108.865 49.3317 108.774C57.2029 108.684 60.0077 106.512 60.2793 105.336C60.5505 104.16 61.4553 96.3793 61.4553 96.1077C61.4553 95.8365 63.7104 101.711 65.1528 101.86C66.5956 102.009 80.8021 97.6853 80.8021 97.6853C80.8021 97.6853 87.2716 98.4901 88.4616 98.5053C89.6516 98.5205 90.3661 96.9885 90.0389 96.2005C89.7121 95.4121 84.6704 92.6441 83.0492 92.4649C81.428 92.2861 77.9616 94.3673 77.9616 94.3673L69.2348 93.1245C69.2348 93.1245 64.3504 79.4605 62.9028 76.4749C61.4552 73.4889 61.6361 72.9465 59.0125 71.9509C56.3889 70.9557 52.9509 69.9605 52.9509 69.9605L52.7697 66.6129L46.5269 64.0797Z" stroke="#1A2E35" stroke-width="0.5" stroke-miterlimit="10" stroke-linecap="round" stroke-linejoin="round"/>
<path d="M89.6445 97.1879C89.6445 97.1879 92.5949 96.2059 92.6505 95.7879C92.7061 95.3699 92.8577 92.6255 92.6261 92.1267C92.3945 91.6283 92.2081 92.0711 91.8049 93.5063C91.4017 94.9415 90.8225 95.4603 89.5633 95.9735C88.3041 96.4871 89.6445 97.1879 89.6445 97.1879Z" fill="white"/>
<path d="M89.6445 97.1879C89.6445 97.1879 92.5949 96.2059 92.6505 95.7879C92.7061 95.3699 92.8577 92.6255 92.6261 92.1267C92.3945 91.6283 92.2081 92.0711 91.8049 93.5063C91.4017 94.9415 90.8225 95.4603 89.5633 95.9735C88.3041 96.4871 89.6445 97.1879 89.6445 97.1879Z" stroke="#1A2E35" stroke-width="0.5" stroke-miterlimit="10" stroke-linecap="round" stroke-linejoin="round"/>
<path d="M83.0492 92.4648C81.428 92.286 77.9616 94.3672 77.9616 94.3672L72.7076 93.6388C71.5636 94.2928 71.152 95.8412 71.4692 97.5528C71.7204 98.9076 72.7028 99.5148 73.7216 99.7704C77.3776 98.7272 80.8016 97.6852 80.8016 97.6852C80.8016 97.6852 87.2716 98.49 88.4616 98.5052C89.6516 98.5204 90.366 96.9888 90.0388 96.2004C89.712 95.412 84.6704 92.644 83.0492 92.4648Z" fill="white"/>
<path d="M83.0492 92.4648C81.428 92.286 77.9616 94.3672 77.9616 94.3672L72.7076 93.6388C71.5636 94.2928 71.152 95.8412 71.4692 97.5528C71.7204 98.9076 72.7028 99.5148 73.7216 99.7704C77.3776 98.7272 80.8016 97.6852 80.8016 97.6852C80.8016 97.6852 87.2716 98.49 88.4616 98.5052C89.6516 98.5204 90.366 96.9888 90.0388 96.2004C89.712 95.412 84.6704 92.644 83.0492 92.4648Z" stroke="#1A2E35" stroke-width="0.5" stroke-miterlimit="10" stroke-linecap="round" stroke-linejoin="round"/>
<path d="M92.1665 95.4543H80.6997V80.1212H92.1665V95.4543Z" fill="#5AE4A7" stroke="#1A2E35" stroke-width="0.5" stroke-miterlimit="10" stroke-linecap="round" stroke-linejoin="round"/>
<path d="M91.4085 92.9492H82.1621V84.5588H91.4085V92.9492Z" fill="white" stroke="#1A2E35" stroke-width="0.5" stroke-miterlimit="10" stroke-linecap="round" stroke-linejoin="round"/>
<path d="M83.3787 87.18C83.5815 87.18 83.6795 87.0856 83.6795 86.8512V86.526C83.6795 86.3024 83.5991 86.1904 83.3999 86.1904H83.1375V87.18H83.3787ZM83.3999 85.942C83.7847 85.942 83.9487 86.1696 83.9487 86.54V86.834C83.9487 87.222 83.7671 87.4248 83.3787 87.4248H83.1375V88.39H82.8647V85.942H83.3999Z" fill="#1A2E35"/>
<path d="M84.1631 88.3903V85.9423H84.4359V88.1419H85.1355V88.3903H84.1631Z" fill="#1A2E35"/>
<path d="M86.2136 87.0264V87.2712H85.6156V88.142H86.35V88.3904H85.3428V85.9424H86.35V86.1904H85.6156V87.0264H86.2136Z" fill="#1A2E35"/>
<path d="M86.9139 87.6628H87.4595L87.1831 86.2496L86.9139 87.6628ZM86.8791 87.8968L86.7843 88.39H86.5327L87.0015 85.942H87.3967L87.8651 88.39H87.5923L87.4979 87.8968H86.8791Z" fill="#1A2E35"/>
<path d="M89.1399 86.5296V86.596H88.8811V86.5156C88.8811 86.2952 88.7971 86.166 88.6011 86.166C88.4055 86.166 88.3215 86.2952 88.3215 86.512C88.3215 87.0612 89.1435 87.1136 89.1435 87.8028C89.1435 88.1732 88.9651 88.4144 88.5907 88.4144C88.2167 88.4144 88.0415 88.1732 88.0415 87.8028V87.6628H88.2971V87.8164C88.2971 88.0368 88.3879 88.1664 88.5839 88.1664C88.7799 88.1664 88.8707 88.0368 88.8707 87.8164C88.8707 87.2712 88.0523 87.2184 88.0523 86.5296C88.0523 86.152 88.2271 85.9176 88.5943 85.9176C88.9651 85.9176 89.1399 86.1588 89.1399 86.5296Z" fill="#1A2E35"/>
<path d="M90.2526 87.0264V87.2712H89.6546V88.142H90.389V88.3904H89.3818V85.9424H90.389V86.1904H89.6546V87.0264H90.2526Z" fill="#1A2E35"/>
<path d="M84.4432 90.9056V92.0072H84.1704V89.5592H84.4432V90.6608H85.0448V89.5592H85.3176V92.0072H85.0448V90.9056H84.4432Z" fill="#1A2E35"/>
<path d="M86.4694 90.6433V90.8881H85.8714V91.7589H86.6058V92.0073H85.5986V89.5593H86.6058V89.8073H85.8714V90.6433H86.4694Z" fill="#1A2E35"/>
<path d="M86.8584 92.0072V89.5592H87.1312V91.7588H87.8308V92.0072H86.8584Z" fill="#1A2E35"/>
<path d="M88.5521 90.7971C88.7549 90.7971 88.8529 90.7027 88.8529 90.4683V90.1431C88.8529 89.9195 88.7725 89.8075 88.5733 89.8075H88.3109V90.7971H88.5521ZM88.5733 89.5591C88.9581 89.5591 89.1221 89.7867 89.1221 90.1571V90.4511C89.1221 90.8391 88.9405 91.0419 88.5521 91.0419H88.3109V92.0071H88.0381V89.5591H88.5733Z" fill="#1A2E35"/>
<path d="M92.1665 82.1212H80.6997V80.1212H92.1665V82.1212Z" fill="white" stroke="#1A2E35" stroke-width="0.5" stroke-miterlimit="10" stroke-linecap="round" stroke-linejoin="round"/>
<path d="M88.9658 97.8108C88.9658 97.8108 91.9162 96.8288 91.9718 96.4108C92.027 95.9928 92.1786 93.248 91.9474 92.7496C91.7158 92.2512 91.5294 92.694 91.1262 94.1292C90.723 95.5644 90.1438 96.0832 88.8846 96.5964C87.6254 97.11 88.9658 97.8108 88.9658 97.8108Z" fill="white"/>
<path d="M88.9658 97.8108C88.9658 97.8108 91.9162 96.8288 91.9718 96.4108C92.027 95.9928 92.1786 93.248 91.9474 92.7496C91.7158 92.2512 91.5294 92.694 91.1262 94.1292C90.723 95.5644 90.1438 96.0832 88.8846 96.5964C87.6254 97.11 88.9658 97.8108 88.9658 97.8108Z" stroke="#1A2E35" stroke-width="0.5" stroke-miterlimit="10" stroke-linecap="round" stroke-linejoin="round"/>
<path d="M79.9966 95.8673C79.9966 95.8673 82.1014 94.5965 83.5478 94.8381C84.9946 95.0797 88.2382 96.7025 88.2382 96.7025C88.2382 96.7025 90.8258 93.3497 91.0666 94.3361C91.3074 95.3225 89.8382 97.6457 88.8078 98.1497C87.7774 98.6533 83.6786 98.1041 83.6786 98.1041" fill="white"/>
<path d="M79.9966 95.8673C79.9966 95.8673 82.1014 94.5965 83.5478 94.8381C84.9946 95.0797 88.2382 96.7025 88.2382 96.7025C88.2382 96.7025 90.8258 93.3497 91.0666 94.3361C91.3074 95.3225 89.8382 97.6457 88.8078 98.1497C87.7774 98.6533 83.6786 98.1041 83.6786 98.1041" stroke="#1A2E35" stroke-width="0.5" stroke-miterlimit="10" stroke-linecap="round" stroke-linejoin="round"/>
<path d="M50.4173 76.4748C55.3029 75.7508 52.9505 69.9604 52.9505 69.9604L52.7697 66.6128L46.5269 64.0796C46.5269 64.0796 46.1649 66.07 45.9841 68.4224C45.8261 70.4752 45.2549 71.4252 44.6309 71.8748C45.1041 73.4672 46.6021 77.04 50.4173 76.4748Z" fill="white"/>
<path d="M50.4173 76.4748C55.3029 75.7508 52.9505 69.9604 52.9505 69.9604L52.7697 66.6128L46.5269 64.0796C46.5269 64.0796 46.1649 66.07 45.9841 68.4224C45.8261 70.4752 45.2549 71.4252 44.6309 71.8748C45.1041 73.4672 46.6021 77.04 50.4173 76.4748Z" stroke="#1A2E35" stroke-width="0.5" stroke-miterlimit="10" stroke-linecap="round" stroke-linejoin="round"/>
<path d="M59.3746 53.2226C59.3746 53.2226 60.189 55.213 60.189 57.6558C60.189 60.0986 59.1938 63.3558 60.5506 64.351C61.9078 65.3462 62.903 64.4414 62.903 64.4414C62.903 64.4414 62.9938 67.1558 59.9174 68.4226C56.8414 69.689 54.3078 69.5986 52.0462 68.151C49.7842 66.7034 49.7842 62.813 49.7842 59.4654C49.7842 56.1178 49.9654 53.9466 50.0558 53.675C50.1462 53.4034 59.0126 53.4034 59.0126 53.4034L59.3746 53.2226Z" fill="#1A2E35"/>
<path d="M59.3746 53.2226C59.3746 53.2226 60.189 55.213 60.189 57.6558C60.189 60.0986 59.1938 63.3558 60.5506 64.351C61.9078 65.3462 62.903 64.4414 62.903 64.4414C62.903 64.4414 62.9938 67.1558 59.9174 68.4226C56.8414 69.689 54.3078 69.5986 52.0462 68.151C49.7842 66.7034 49.7842 62.813 49.7842 59.4654C49.7842 56.1178 49.9654 53.9466 50.0558 53.675C50.1462 53.4034 59.0126 53.4034 59.0126 53.4034L59.3746 53.2226Z" stroke="#1A2E35" stroke-width="0.5" stroke-miterlimit="10" stroke-linecap="round" stroke-linejoin="round"/>
<path d="M57.8366 53.7655C57.8366 53.7655 58.4698 60.0083 58.4698 62.1799C58.4698 64.3511 56.2082 67.4271 53.5842 68.1511C50.9606 68.8747 48.4274 67.0655 46.5274 64.0799C44.6274 61.0939 46.1654 54.5799 46.1654 54.5799C46.1654 54.5799 55.3938 53.2227 57.8366 53.7655Z" fill="white"/>
<path d="M57.8366 53.7655C57.8366 53.7655 58.4698 60.0083 58.4698 62.1799C58.4698 64.3511 56.2082 67.4271 53.5842 68.1511C50.9606 68.8747 48.4274 67.0655 46.5274 64.0799C44.6274 61.0939 46.1654 54.5799 46.1654 54.5799C46.1654 54.5799 55.3938 53.2227 57.8366 53.7655V53.7655Z" stroke="#1A2E35" stroke-width="0.5" stroke-miterlimit="10" stroke-linecap="round" stroke-linejoin="round"/>
<path d="M55.5746 56.7511C55.5746 56.7511 55.2126 57.7463 55.3934 58.3795C55.5746 59.0131 57.1126 59.5559 56.2982 60.2795C55.4838 61.0035 54.127 61.0035 54.127 61.0035" stroke="#1A2E35" stroke-width="0.5" stroke-miterlimit="10" stroke-linecap="round" stroke-linejoin="round"/>
<path d="M51.9556 61.9987C51.9556 61.9987 53.4032 63.5367 55.3936 62.6319" stroke="#1A2E35" stroke-width="0.5" stroke-miterlimit="10" stroke-linecap="round" stroke-linejoin="round"/>
<path d="M52.6793 57.475C52.6793 57.9246 52.4565 58.2894 52.1817 58.2894C51.9069 58.2894 51.6841 57.9246 51.6841 57.475C51.6841 57.025 51.9069 56.6606 52.1817 56.6606C52.4565 56.6606 52.6793 57.025 52.6793 57.475Z" fill="#1A2E35"/>
<path d="M57.2032 57.475C57.2032 57.9246 56.9804 58.2894 56.7056 58.2894C56.4308 58.2894 56.208 57.9246 56.208 57.475C56.208 57.025 56.4308 56.6606 56.7056 56.6606C56.9804 56.6606 57.2032 57.025 57.2032 57.475Z" fill="#1A2E35"/>
<path d="M50.3271 55.7559C50.3271 55.7559 50.7795 55.1227 52.5891 55.3035" stroke="#1A2E35" stroke-width="0.5" stroke-miterlimit="10" stroke-linecap="round" stroke-linejoin="round"/>
<path d="M55.9365 55.3939C55.9365 55.3939 56.8413 54.8511 57.7461 56.0271" stroke="#1A2E35" stroke-width="0.5" stroke-miterlimit="10" stroke-linecap="round" stroke-linejoin="round"/>
<path d="M49.151 54.2178C49.151 54.2178 47.7034 59.375 47.613 62.1798C47.5226 64.9846 47.975 66.8846 49.151 66.613C50.327 66.3418 50.7794 65.9798 50.7794 65.9798C50.7794 65.9798 51.413 68.151 49.4226 69.5082C47.4322 70.8654 43.9938 72.313 40.5558 71.227C37.1178 70.1414 37.3894 64.1702 38.475 62.0894C39.5606 60.0082 40.013 57.6558 40.1938 56.9322C40.375 56.2082 46.075 53.2226 49.151 54.2178Z" fill="#1A2E35"/>
<path d="M49.151 54.2178C49.151 54.2178 47.7034 59.375 47.613 62.1798C47.5226 64.9846 47.975 66.8846 49.151 66.613C50.327 66.3418 50.7794 65.9798 50.7794 65.9798C50.7794 65.9798 51.413 68.151 49.4226 69.5082C47.4322 70.8654 43.9938 72.313 40.5558 71.227C37.1178 70.1414 37.3894 64.1702 38.475 62.0894C39.5606 60.0082 40.013 57.6558 40.1938 56.9322C40.375 56.2082 46.075 53.2226 49.151 54.2178Z" stroke="#1A2E35" stroke-width="0.5" stroke-miterlimit="10" stroke-linecap="round" stroke-linejoin="round"/>
<path d="M57.8365 48.4274C57.8365 48.4274 56.0273 44.8086 55.0317 43.9038C54.0365 42.999 43.8129 39.4702 42.8177 39.2894C41.8225 39.1086 38.0225 40.6466 37.3893 42.0942C36.7557 43.5418 31.5085 51.0514 31.2369 52.499C30.9653 53.9466 30.7845 59.8274 31.5085 60.1894C32.2321 60.5514 31.9609 61.0942 32.2321 60.5514C32.5033 60.0082 35.1273 52.4086 35.7605 51.8654C36.3941 51.3226 37.9321 50.5086 37.9321 50.5086L38.5653 53.1322C38.5653 53.1322 46.9793 50.1466 49.7845 49.513C52.5889 48.8798 57.8365 48.4274 57.8365 48.4274Z" fill="#5AE4A7"/>
<path d="M57.8365 48.4274C57.8365 48.4274 56.0273 44.8086 55.0317 43.9038C54.0365 42.999 43.8129 39.4702 42.8177 39.2894C41.8225 39.1086 38.0225 40.6466 37.3893 42.0942C36.7557 43.5418 31.5085 51.0514 31.2369 52.499C30.9653 53.9466 30.7845 59.8274 31.5085 60.1894C32.2321 60.5514 31.9609 61.0942 32.2321 60.5514C32.5033 60.0082 35.1273 52.4086 35.7605 51.8654C36.3941 51.3226 37.9321 50.5086 37.9321 50.5086L38.5653 53.1322C38.5653 53.1322 46.9793 50.1466 49.7845 49.513C52.5889 48.8798 57.8365 48.4274 57.8365 48.4274Z" stroke="#1A2E35" stroke-width="0.5" stroke-miterlimit="10" stroke-linecap="round" stroke-linejoin="round"/>
<path d="M39.2476 58.5264C39.2476 58.5264 42.4624 56.3832 45.8308 55.4644C49.1984 54.546 59.9152 54.0868 59.9152 54.0868C59.9152 54.0868 58.9968 49.6468 58.5372 48.4224C58.078 47.1976 52.2604 46.7384 47.2084 48.5756C42.1564 50.4124 37.7168 52.4024 37.7168 53.3212C37.7168 54.2396 39.2476 58.5264 39.2476 58.5264Z" fill="white"/>
<path d="M39.2476 58.5264C39.2476 58.5264 42.4624 56.3832 45.8308 55.4644C49.1984 54.546 59.9152 54.0868 59.9152 54.0868C59.9152 54.0868 58.9968 49.6468 58.5372 48.4224C58.078 47.1976 52.2604 46.7384 47.2084 48.5756C42.1564 50.4124 37.7168 52.4024 37.7168 53.3212C37.7168 54.2396 39.2476 58.5264 39.2476 58.5264Z" stroke="#1A2E35" stroke-width="0.5" stroke-miterlimit="10" stroke-linecap="round" stroke-linejoin="round"/>
<path d="M34.1319 62.7224C34.1319 63.9216 33.1599 64.894 31.9607 64.894C30.7615 64.894 29.7891 63.9216 29.7891 62.7224C29.7891 61.5232 30.7615 60.5512 31.9607 60.5512C33.1599 60.5512 34.1319 61.5232 34.1319 62.7224Z" stroke="#1A2E35" stroke-width="0.5" stroke-miterlimit="10" stroke-linecap="round" stroke-linejoin="round"/>
<path d="M43.5417 71.4986C43.5417 71.4986 42.1845 97.2838 42.1845 98.5506C42.1845 99.8174 41.2797 100.632 40.2845 100.722C39.2893 100.813 36.1225 99.9982 36.1225 99.9982L35.7605 100.993L38.0225 101.899L35.4893 134.107C35.4893 134.107 40.3749 137.003 47.0701 137.183C53.7653 137.365 61.9081 134.198 62.7225 133.565C63.5365 132.931 63.9889 132.479 63.9889 132.479L61.6365 104.613C61.6365 104.613 62.6321 93.303 61.2749 89.141C59.9177 84.9794 54.4893 70.5034 54.4893 70.5034L53.8557 70.3226L57.8365 83.8034C57.8365 83.8034 49.7845 85.4318 43.9941 84.3462L44.3561 71.3174L43.5417 71.4986Z" fill="#5AE4A7"/>
<path d="M43.5417 71.4986C43.5417 71.4986 42.1845 97.2838 42.1845 98.5506C42.1845 99.8174 41.2797 100.632 40.2845 100.722C39.2893 100.813 36.1225 99.9982 36.1225 99.9982L35.7605 100.993L38.0225 101.899L35.4893 134.107C35.4893 134.107 40.3749 137.003 47.0701 137.183C53.7653 137.365 61.9081 134.198 62.7225 133.565C63.5365 132.931 63.9889 132.479 63.9889 132.479L61.6365 104.613C61.6365 104.613 62.6321 93.303 61.2749 89.141C59.9177 84.9794 54.4893 70.5034 54.4893 70.5034L53.8557 70.3226L57.8365 83.8034C57.8365 83.8034 49.7845 85.4318 43.9941 84.3462L44.3561 71.3174L43.5417 71.4986Z" stroke="#1A2E35" stroke-width="0.5" stroke-miterlimit="10" stroke-linecap="round" stroke-linejoin="round"/>
<path d="M58.4204 103.331C56.8424 105.962 53.9432 109.967 49.7236 112.573" stroke="#1A2E35" stroke-width="0.5" stroke-miterlimit="10" stroke-linecap="round" stroke-linejoin="round"/>
<path d="M59.8351 100.677C59.8351 100.677 59.6243 101.161 59.2031 101.951" stroke="#1A2E35" stroke-width="0.5" stroke-miterlimit="10" stroke-linecap="round" stroke-linejoin="round"/>
<path d="M55.0764 110.392C55.0764 110.392 50.5164 113.366 49.1284 115.349" stroke="#1A2E35" stroke-width="0.5" stroke-miterlimit="10" stroke-linecap="round" stroke-linejoin="round"/>
<path d="M38.6558 73.4891C38.6558 73.4891 37.0274 73.6699 35.3986 74.4843C33.7702 75.2987 31.0558 81.8127 30.3318 83.8035C29.6082 85.7939 26.713 93.3935 26.713 93.3935C26.713 93.3935 25.3558 91.5843 23.9082 89.2319C22.4606 86.8795 23.1846 85.5223 23.1846 84.0747C23.1846 82.6271 23.637 82.4463 22.913 80.9079C22.1894 79.3699 20.9226 79.0079 20.1082 79.2795C19.2942 79.5511 18.5702 81.3603 18.8418 83.5319C19.1134 85.7031 20.3798 90.1367 21.013 92.7603C21.6466 95.3839 22.551 99.6363 23.9986 101.717C25.4466 103.798 26.0798 105.517 26.4414 105.336C26.8034 105.155 35.1274 92.1271 36.0318 90.5891C36.937 89.0507 37.9318 86.9699 38.2938 85.3411" fill="#ADADAD"/>
<path d="M38.6558 73.4891C38.6558 73.4891 37.0274 73.6699 35.3986 74.4843C33.7702 75.2987 31.0558 81.8127 30.3318 83.8035C29.6082 85.7939 26.713 93.3935 26.713 93.3935C26.713 93.3935 25.3558 91.5843 23.9082 89.2319C22.4606 86.8795 23.1846 85.5223 23.1846 84.0747C23.1846 82.6271 23.637 82.4463 22.913 80.9079C22.1894 79.3699 20.9226 79.0079 20.1082 79.2795C19.2942 79.5511 18.5702 81.3603 18.8418 83.5319C19.1134 85.7031 20.3798 90.1367 21.013 92.7603C21.6466 95.3839 22.551 99.6363 23.9986 101.717C25.4466 103.798 26.0798 105.517 26.4414 105.336C26.8034 105.155 35.1274 92.1271 36.0318 90.5891C36.937 89.0507 37.9318 86.9699 38.2938 85.3411" stroke="#1A2E35" stroke-width="0.5" stroke-miterlimit="10" stroke-linecap="round" stroke-linejoin="round"/>
<path d="M23.9085 89.2316C22.4609 86.8792 23.1845 85.5224 23.1845 84.0744C23.1845 82.6268 23.6369 82.446 22.9133 80.908C22.1897 79.37 20.9229 79.008 20.1085 79.2796C19.2941 79.5508 18.5705 81.3604 18.8417 83.5316C19.1133 85.7032 20.3801 90.1364 21.0133 92.7604C21.1657 93.3908 21.3337 94.1168 21.5213 94.8824C22.1441 94.6972 22.9081 94.3628 23.6369 93.7556C24.5649 92.982 24.9633 91.916 25.1353 91.1412C24.7557 90.5732 24.3365 89.9272 23.9085 89.2316Z" fill="white"/>
<path d="M23.9085 89.2316C22.4609 86.8792 23.1845 85.5224 23.1845 84.0744C23.1845 82.6268 23.6369 82.446 22.9133 80.908C22.1897 79.37 20.9229 79.008 20.1085 79.2796C19.2941 79.5508 18.5705 81.3604 18.8417 83.5316C19.1133 85.7032 20.3801 90.1364 21.0133 92.7604C21.1657 93.3908 21.3337 94.1168 21.5213 94.8824C22.1441 94.6972 22.9081 94.3628 23.6369 93.7556C24.5649 92.982 24.9633 91.916 25.1353 91.1412C24.7557 90.5732 24.3365 89.9272 23.9085 89.2316Z" stroke="#1A2E35" stroke-width="0.5" stroke-miterlimit="10" stroke-linecap="round" stroke-linejoin="round"/>
<path d="M21.9634 82.1025C21.9634 82.1025 23.0014 84.2593 22.8102 85.1201C22.619 85.9813 22.045 87.0337 22.045 87.0337" stroke="#1A2E35" stroke-width="0.5" stroke-miterlimit="10" stroke-linecap="round" stroke-linejoin="round"/>
<path d="M21.5083 66.5031C21.5383 65.9291 22.0279 65.4883 22.6015 65.5183C23.1755 65.5479 23.6163 66.0375 23.5863 66.6115C23.5567 67.1855 23.0671 67.6263 22.4931 67.5963C21.9195 67.5663 21.4783 67.0771 21.5083 66.5031Z" fill="#1A2E35"/>
<path d="M21.5083 66.5031C21.5383 65.9291 22.0279 65.4883 22.6015 65.5183C23.1755 65.5479 23.6163 66.0375 23.5863 66.6115C23.5567 67.1855 23.0671 67.6263 22.4931 67.5963C21.9195 67.5663 21.4783 67.0771 21.5083 66.5031Z" stroke="#1A2E35" stroke-width="0.5" stroke-miterlimit="10" stroke-linecap="round" stroke-linejoin="round"/>
<path d="M21.6302 73.9838L21.447 83.7322C21.4354 84.3406 20.9222 84.8186 20.3146 84.787C19.6934 84.7546 19.229 84.2038 19.3014 83.5862L20.4698 73.6514L21.6302 73.9838Z" fill="#1A2E35"/>
<path d="M21.6302 73.9838L21.447 83.7322C21.4354 84.3406 20.9222 84.8186 20.3146 84.787C19.6934 84.7546 19.229 84.2038 19.3014 83.5862L20.4698 73.6514L21.6302 73.9838Z" stroke="#1A2E35" stroke-width="0.5" stroke-miterlimit="10" stroke-linecap="round" stroke-linejoin="round"/>
<path d="M18.3809 68.016C18.6093 68.8432 18.6057 70.6548 18.6017 72.4664C18.5953 75.3308 23.0081 75.5588 23.2997 72.712C23.4845 70.9096 23.6693 69.1072 23.9825 68.308C24.2961 67.5092 24.6001 66.8908 24.6001 66.8908L21.5281 66.7308L20.9861 66.7024L17.9141 66.542C17.9141 66.542 18.1521 67.1888 18.3809 68.016Z" fill="white"/>
<path d="M18.3809 68.016C18.6093 68.8432 18.6057 70.6548 18.6017 72.4664C18.5953 75.3308 23.0081 75.5588 23.2997 72.712C23.4845 70.9096 23.6693 69.1072 23.9825 68.308C24.2961 67.5092 24.6001 66.8908 24.6001 66.8908L21.5281 66.7308L20.9861 66.7024L17.9141 66.542C17.9141 66.542 18.1521 67.1888 18.3809 68.016V68.016Z" stroke="#1A2E35" stroke-width="0.5" stroke-miterlimit="10" stroke-linecap="round" stroke-linejoin="round"/>
<path d="M19.3407 76.7013C20.5831 76.6237 22.0095 76.7061 22.2291 77.3513C22.5575 78.3161 22.2799 78.9269 21.5043 78.9545C20.4595 78.9917 18.3347 79.2581 17.5731 79.1081C16.8115 78.9581 16.3191 77.2577 17.5583 76.9373C17.8483 76.8625 18.5579 76.7501 19.3407 76.7013Z" fill="white"/>
<path d="M19.3407 76.7013C20.5831 76.6237 22.0095 76.7061 22.2291 77.3513C22.5575 78.3161 22.2799 78.9269 21.5043 78.9545C20.4595 78.9917 18.3347 79.2581 17.5731 79.1081C16.8115 78.9581 16.3191 77.2577 17.5583 76.9373C17.8483 76.8625 18.5579 76.7501 19.3407 76.7013Z" stroke="#1A2E35" stroke-width="0.5" stroke-miterlimit="10" stroke-linecap="round" stroke-linejoin="round"/>
<path d="M19.6751 79.1454C20.9175 79.0678 22.3439 79.1502 22.5635 79.7954C22.8919 80.7606 22.6143 81.371 21.8387 81.3986C20.7939 81.4358 18.6691 81.7022 17.9075 81.5522C17.1459 81.4022 16.6535 79.7018 17.8931 79.3814C18.1827 79.3066 18.8923 79.1942 19.6751 79.1454Z" fill="white"/>
<path d="M19.6751 79.1454C20.9175 79.0678 22.3439 79.1502 22.5635 79.7954C22.8919 80.7606 22.6143 81.371 21.8387 81.3986C20.7939 81.4358 18.6691 81.7022 17.9075 81.5522C17.1459 81.4022 16.6535 79.7018 17.8931 79.3814C18.1827 79.3066 18.8923 79.1942 19.6751 79.1454Z" stroke="#1A2E35" stroke-width="0.5" stroke-miterlimit="10" stroke-linecap="round" stroke-linejoin="round"/>
<path d="M25.0357 79.2186C25.3045 80.4342 25.4437 81.8562 24.8401 82.1726C23.9373 82.6462 23.2909 82.4666 23.1441 81.7046C22.9461 80.6778 22.3541 78.6198 22.3849 77.8442C22.4149 77.0686 24.0189 76.3194 24.5273 77.4942C24.6457 77.769 24.8665 78.4526 25.0357 79.2186Z" fill="white"/>
<path d="M25.0357 79.2186C25.3045 80.4342 25.4437 81.8562 24.8401 82.1726C23.9373 82.6462 23.2909 82.4666 23.1441 81.7046C22.9461 80.6778 22.3541 78.6198 22.3849 77.8442C22.4149 77.0686 24.0189 76.3194 24.5273 77.4942C24.6457 77.769 24.8665 78.4526 25.0357 79.2186Z" stroke="#1A2E35" stroke-width="0.5" stroke-miterlimit="10" stroke-linecap="round" stroke-linejoin="round"/>
<path d="M19.5924 81.5689C20.6124 81.5053 21.7828 81.5729 21.9632 82.1025C22.2328 82.8945 22.0048 83.3957 21.368 83.4185C20.5104 83.4485 18.7668 83.6673 18.1416 83.5441C17.5168 83.4213 17.1124 82.0257 18.1296 81.7625C18.3672 81.7013 18.95 81.6093 19.5924 81.5689Z" fill="white"/>
<path d="M19.5924 81.5689C20.6124 81.5053 21.7828 81.5729 21.9632 82.1025C22.2328 82.8945 22.0048 83.3957 21.368 83.4185C20.5104 83.4485 18.7668 83.6673 18.1416 83.5441C17.5168 83.4213 17.1124 82.0257 18.1296 81.7625C18.3672 81.7013 18.95 81.6093 19.5924 81.5689Z" stroke="#1A2E35" stroke-width="0.5" stroke-miterlimit="10" stroke-linecap="round" stroke-linejoin="round"/>
<path d="M19.9379 83.4428C20.8143 83.388 21.8207 83.446 21.9755 83.9012C22.2067 84.582 22.0115 85.0128 21.4639 85.032C20.7271 85.0584 19.2283 85.246 18.6911 85.1404C18.1539 85.0344 17.8067 83.8352 18.6807 83.6092C18.8851 83.5564 19.3859 83.4772 19.9379 83.4428Z" fill="white"/>
<path d="M19.9379 83.4428C20.8143 83.388 21.8207 83.446 21.9755 83.9012C22.2067 84.582 22.0115 85.0128 21.4639 85.032C20.7271 85.0584 19.2283 85.246 18.6911 85.1404C18.1539 85.0344 17.8067 83.8352 18.6807 83.6092C18.8851 83.5564 19.3859 83.4772 19.9379 83.4428Z" stroke="#1A2E35" stroke-width="0.5" stroke-miterlimit="10" stroke-linecap="round" stroke-linejoin="round"/>
<path d="M57.5 187.1C56.7 186.033 51.2332 180.567 51.1 180.167C51.0168 179.916 54.114 171.949 56.6748 165.265C52.96 165.934 49.8488 164.328 48.4416 163.414C47.9728 167.929 47.45 173.699 47.1 175.1C46.5668 177.233 45.6332 184.033 45.3668 184.833C45.1 185.633 46.0332 186.3 46.8332 186.433C47.6332 186.567 53.1 188.7 54.5668 188.567C56.0332 188.433 58.3 188.167 57.5 187.1Z" fill="#5AE4A7"/>
<path d="M57.5 187.1C56.7 186.033 51.2332 180.567 51.1 180.167C51.0168 179.916 54.114 171.949 56.6748 165.265C52.96 165.934 49.8488 164.328 48.4416 163.414C47.9728 167.929 47.45 173.699 47.1 175.1C46.5668 177.233 45.6332 184.033 45.3668 184.833C45.1 185.633 46.0332 186.3 46.8332 186.433C47.6332 186.567 53.1 188.7 54.5668 188.567C56.0332 188.433 58.3 188.167 57.5 187.1Z" stroke="#1A2E35" stroke-width="0.5" stroke-miterlimit="10" stroke-linecap="round" stroke-linejoin="round"/>
<path d="M45.0998 194.3C45.8998 193.367 47.0998 193.1 45.7666 188.833C44.433 184.567 43.3666 182.3 43.3666 180.967C43.3666 179.633 42.833 167.367 43.4998 164.833C43.5206 164.754 43.5414 164.661 43.5626 164.555C41.5462 165.22 37.8962 164.912 35.5898 164.615C37.3798 172.493 39.633 182.167 39.633 182.167C39.633 182.167 39.233 188.033 40.1666 190.433C41.0998 192.833 44.2998 195.233 45.0998 194.3Z" fill="#5AE4A7"/>
<path d="M45.0998 194.3C45.8998 193.367 47.0998 193.1 45.7666 188.833C44.433 184.567 43.3666 182.3 43.3666 180.967C43.3666 179.633 42.833 167.367 43.4998 164.833C43.5206 164.754 43.5414 164.661 43.5626 164.555C41.5462 165.22 37.8962 164.912 35.5898 164.615C37.3798 172.493 39.633 182.167 39.633 182.167C39.633 182.167 39.233 188.033 40.1666 190.433C41.0998 192.833 44.2998 195.233 45.0998 194.3Z" stroke="#1A2E35" stroke-width="0.5" stroke-miterlimit="10" stroke-linecap="round" stroke-linejoin="round"/>
<path d="M34.6997 162.433C34.6997 162.433 35.2329 167.1 35.8997 167.9C36.5665 168.7 39.8997 168.7 40.9665 168.567C42.0329 168.433 44.0329 168.3 44.1665 167.5C44.2997 166.7 44.4329 162.7 44.4329 162.167C44.4329 161.633 41.6329 162.167 39.4997 162.167C37.3665 162.167 34.8329 161.767 34.6997 162.433" fill="#5AE4A7"/>
<path d="M34.6997 162.433C34.6997 162.433 35.2329 167.1 35.8997 167.9C36.5665 168.7 39.8997 168.7 40.9665 168.567C42.0329 168.433 44.0329 168.3 44.1665 167.5C44.2997 166.7 44.4329 162.7 44.4329 162.167C44.4329 161.633 41.6329 162.167 39.4997 162.167C37.3665 162.167 34.8329 161.767 34.6997 162.433V162.433Z" stroke="#1A2E35" stroke-width="0.5" stroke-miterlimit="10" stroke-linecap="round" stroke-linejoin="round"/>
<path d="M48.0674 161.218C48.0674 161.218 47.1794 165.834 47.6054 166.81C48.031 167.786 51.3802 168.859 52.4926 169.076C53.6054 169.292 55.6554 169.809 56.0338 169.09C56.4114 168.371 57.7658 164.605 57.9286 164.097C58.0914 163.589 55.1154 163.195 52.9718 162.509C50.8282 161.822 48.4046 160.626 48.0674 161.218Z" fill="#5AE4A7"/>
<path d="M48.0674 161.218C48.0674 161.218 47.1794 165.834 47.6054 166.81C48.031 167.786 51.3802 168.859 52.4926 169.076C53.6054 169.292 55.6554 169.809 56.0338 169.09C56.4114 168.371 57.7658 164.605 57.9286 164.097C58.0914 163.589 55.1154 163.195 52.9718 162.509C50.8282 161.822 48.4046 160.626 48.0674 161.218Z" stroke="#1A2E35" stroke-width="0.5" stroke-miterlimit="10" stroke-linecap="round" stroke-linejoin="round"/>
</svg>
