<svg width="88" height="91" viewBox="0 0 88 91" fill="none" xmlns="http://www.w3.org/2000/svg">
<path d="M84.1216 44.4258C81.8913 47.4501 77.9451 49.5246 73.3031 50.1478C72.554 50.2481 71.8219 50.3078 71.0707 50.3484C70.6652 50.3719 70.281 50.3932 69.8734 50.3761C69.6429 50.3889 69.4081 50.3847 69.1776 50.3761L68.3645 50.3633C65.654 50.2822 62.9242 49.9109 60.2564 49.5544L53.0491 48.5812C52.8634 48.3977 52.6798 48.1971 52.4963 48.0135C53.7086 46.1866 54.5046 44.1313 54.733 41.9906L67.0348 41.3696C67.5556 41.3397 67.976 40.8915 67.9461 40.3708C67.9163 39.8329 67.4681 39.4317 66.9281 39.4424L54.7629 40.057C54.6818 38.5929 54.3531 37.1779 53.7961 35.876C54.1119 35.6455 54.4278 35.415 54.765 35.2037C55.734 34.5506 56.7456 33.9531 57.7764 33.3939C58.246 33.1356 58.7347 32.9158 59.2256 32.6746C60.3567 32.1496 61.4922 31.6993 62.6681 31.3066C63.2209 31.1401 63.7715 30.9544 64.3243 30.8072C64.6679 30.7111 65.0094 30.6151 65.3338 30.5404C65.6582 30.4636 65.9826 30.3867 66.3262 30.3312C66.5567 30.2587 66.7851 30.2074 67.0156 30.1946C67.2653 30.1221 67.5321 30.0901 67.801 30.0346C69.6002 29.723 71.41 29.5842 73.2092 29.6013C73.6339 29.597 74.0608 29.612 74.4684 29.6269C74.5815 29.6205 74.7203 29.6333 74.8355 29.6461L74.8547 29.644C75.0681 29.6525 75.3008 29.6589 75.5142 29.6867C79.5928 30.0026 82.5401 31.2105 84.2753 33.2424C86.7147 36.0852 86.64 41.0004 84.1216 44.4258ZM62.8367 67.877C62.9733 68.2569 63.0907 68.6368 63.1889 68.9975C63.2337 69.1106 63.2764 69.2066 63.2828 69.3027C63.3255 69.3774 63.349 69.435 63.3532 69.5118C63.3554 69.531 63.3554 69.5502 63.3554 69.5502C63.4493 69.8938 63.5475 70.2353 63.6243 70.5597V70.5789C63.6883 70.6728 63.6926 70.7497 63.6968 70.8265C63.8121 71.168 63.8889 71.5116 63.9466 71.8574C64.0682 72.3333 64.1557 72.8306 64.2219 73.3108C64.2432 73.3684 64.2454 73.426 64.2475 73.4837C64.2816 73.7142 64.3136 73.9254 64.3265 74.1559C64.6295 76.5356 64.4993 78.6891 63.9508 80.6547C62.9349 84.3449 59.693 88.2569 55.4181 88.5707C53.0299 88.7606 50.3834 87.7853 48.1936 85.9135C46.4073 84.3897 44.86 82.2896 43.3233 79.3016C42.6745 78.0616 42.1004 76.7789 41.5817 75.4728C41.3833 74.9798 41.2018 74.4889 41.0375 73.9937C40.9713 73.8614 40.9265 73.7291 40.8988 73.5946C40.6939 73.0269 40.5061 72.4379 40.3375 71.8488C40.3375 71.8488 40.3204 71.8488 40.3183 71.8296C40.2948 71.7336 40.25 71.6397 40.2436 71.5458C39.5072 69.053 38.9801 66.5111 38.6834 63.935C38.6493 63.6853 38.6365 63.474 38.6045 63.2243C38.3185 60.5138 38.2822 57.7692 38.502 55.0715C39.1017 55.1142 39.7036 55.1398 40.3012 55.1056C41.9382 55.016 43.6007 54.634 45.21 53.9851C46.7509 58.8107 48.4498 63.6469 50.2959 68.3593C50.4538 68.7563 50.8529 69.0039 51.2606 68.9825C51.3545 68.9761 51.4505 68.9526 51.5444 68.9078C52.0566 68.7243 52.2957 68.1523 52.0929 67.6593C50.2255 62.9106 48.5074 58.0167 46.96 53.1336C48.3857 52.3588 49.6834 51.36 50.7804 50.2139L52.1249 50.3911C56.9057 55.366 60.6001 61.3504 62.8367 67.877ZM36.6175 52.8348C31.9285 51.6076 28.3579 46.8354 28.4988 41.9928C28.6354 37.1523 32.4621 32.5914 37.2236 31.631C37.3773 31.584 37.5267 31.5179 37.6569 31.4133C40.5167 30.7133 43.6626 30.2309 46.4798 31.1956C50.4816 32.5786 53.271 37.2206 52.825 41.7303C52.3875 46.0457 49.3056 50.0837 44.9816 52.0046C42.2284 53.2403 39.2469 53.522 36.6175 52.8348ZM35.7211 56.559C35.5824 57.1865 35.4244 57.8119 35.2451 58.4222L35.2473 58.4415C35.1 58.9323 34.9335 59.4253 34.7479 59.9184C34.4811 60.6888 34.1588 61.4785 33.7939 62.234C33.5356 62.8081 33.239 63.3865 32.9209 63.9457C32.6051 64.5433 32.2529 65.143 31.8602 65.7235C31.5059 66.304 31.1111 66.8696 30.6778 67.4331C30.2659 67.9965 29.8135 68.5642 29.3397 69.1127C29.3418 69.1319 29.3418 69.1319 29.3226 69.1511C26.928 71.9918 24.3754 74.0855 21.7225 75.3917C18.6172 76.9177 15.2984 77.3915 12.3596 76.7213C9.16887 75.9914 6.45623 73.8187 5.29947 71.0805C4.51833 69.1703 4.39027 66.8589 4.93878 64.5454C5.42752 62.5264 6.39648 60.501 7.92033 58.3305C8.5478 57.4256 9.23503 56.574 9.98202 55.7608C10.5284 55.1312 11.1324 54.5166 11.7577 53.9403C12.1611 53.5711 12.5687 53.1997 12.9934 52.8476C13.1962 52.6619 13.416 52.4954 13.6209 52.329C13.8429 52.1625 14.0478 51.996 14.2697 51.8295C14.7521 51.4753 15.2387 51.1381 15.721 50.8222C16.15 50.5469 16.5811 50.2715 17.0122 50.0154C17.6482 49.6505 18.2864 49.3069 18.9459 48.9803C19.3215 48.784 19.7163 48.609 20.0962 48.4532C20.474 48.276 20.8688 48.1202 21.2679 47.9623C22.0982 47.6272 22.954 47.3476 23.8312 47.1043C24.4032 46.9378 24.973 46.7906 25.5642 46.6604C26.1383 46.5323 26.7316 46.4235 27.3079 46.3338C27.9481 48.1159 28.9854 49.7593 30.298 51.1359L21.4856 62.4133C21.142 62.8188 21.2338 63.4313 21.6393 63.7579C21.8399 63.9201 22.0768 63.9841 22.2881 63.9734C22.5592 63.9585 22.8217 63.8262 23.0031 63.6042L31.7236 52.4485C33.0191 53.4601 34.4725 54.2498 36.0434 54.666C35.9623 55.2892 35.8619 55.9337 35.7211 56.559ZM21.6884 43.6852L21.2807 43.649C20.5999 43.6105 19.9618 43.5487 19.3172 43.4483C18.6343 43.3715 17.9919 43.252 17.3473 43.1325C17.3068 43.1154 17.2491 43.1197 17.2086 43.1026C16.7604 43.0108 16.3101 42.8998 15.8747 42.7696C15.7786 42.7547 15.6613 42.7419 15.5631 42.6907C15.3454 42.6245 15.1106 42.5605 14.8929 42.4943C14.4042 42.3684 13.9304 42.2019 13.4736 42.0141C13.2602 41.948 13.0404 41.8626 12.844 41.758C12.4898 41.6428 12.1312 41.4699 11.7748 41.2949C11.3351 41.0879 10.8976 40.8595 10.4772 40.6119C10.4793 40.6333 10.458 40.6141 10.458 40.6141C10.4217 40.6162 10.3811 40.5991 10.3406 40.5436C10.1805 40.4732 10.0204 40.3686 9.86037 40.279C4.55889 37.0541 1.39593 31.2938 2.01059 25.9624C2.56976 21.0387 6.49251 16.4522 11.5635 14.8174C11.9455 14.7 12.3446 14.5826 12.7459 14.4823C12.9934 14.4289 13.2602 14.3756 13.5099 14.3243C13.7959 14.2689 14.084 14.2347 14.3722 14.1984C15.1576 14.0981 15.9686 14.0533 16.7817 14.0661C16.9375 14.0768 17.072 14.0682 17.2065 14.081C17.6162 14.0981 18.0217 14.1323 18.4315 14.1685C19.3855 14.2881 20.3609 14.4673 21.3234 14.7427C23.1525 15.2592 24.9367 16.0894 26.6014 17.1757C30.6949 19.8691 33.971 24.2315 35.847 29.4647C35.8555 29.5992 35.8449 29.7529 35.8321 29.9087C35.719 29.9556 35.6058 30.0004 35.5141 30.0815C32.874 30.963 30.5775 32.7728 28.964 35.065L20.0258 30.0687C19.5477 29.8062 18.9587 29.9748 18.7132 30.4315C18.4486 30.9096 18.6172 31.5008 19.0739 31.7462L27.9738 36.7255C27.135 38.3368 26.6164 40.1253 26.5801 41.9458C26.5523 42.5071 26.6057 43.0855 26.6761 43.6618L26.2706 43.6831C24.6891 43.7706 23.1632 43.777 21.6884 43.6852ZM39.1466 16.7723C39.2725 16.2623 39.4005 15.7522 39.5478 15.2805C39.6759 14.7896 39.8423 14.3179 40.0088 13.8441C40.1262 13.4899 40.2414 13.1548 40.3802 12.8368C40.4805 12.5615 40.5808 12.284 40.7195 12.0066C40.8412 11.7291 40.9585 11.4324 41.0994 11.155C41.5134 10.2799 41.9702 9.44332 42.4675 8.66219C42.7193 8.29936 42.9498 7.91946 43.2016 7.59506C43.5986 7.05083 44.0148 6.54501 44.4523 6.07547C44.781 5.72972 45.1097 5.38397 45.4597 5.07451C47.2268 3.44821 49.1413 2.43444 51.0173 2.07802C53.143 1.70879 55.3007 2.26797 56.6858 3.5229C57.7466 4.50893 58.4871 6.03492 58.7582 7.81702C59.0292 9.56284 58.8585 11.3492 58.6429 13.0246C58.5448 13.7268 58.4509 14.4481 58.3121 15.1311C58.0368 16.7894 57.7017 18.4136 57.2877 20.0036C57.2898 20.042 57.2728 20.0804 57.2557 20.121C57.1319 20.6481 56.9868 21.1988 56.8224 21.7302C56.5962 22.5156 56.3486 23.3031 56.1011 24.0693C55.8343 24.859 55.5675 25.6273 55.2644 26.3978C54.3851 28.7092 53.3692 30.9502 52.1762 33.1634C50.8636 31.4368 49.1434 30.0815 47.1137 29.3815C46.6805 29.2321 46.2493 29.1211 45.8182 29.008L49.9843 19.0538C50.1892 18.5587 49.9437 17.991 49.4507 17.7882C48.9748 17.5812 48.4092 17.8267 48.2043 18.3218L43.8825 28.6324C43.8654 28.6729 43.8675 28.7113 43.8504 28.7498C41.8144 28.6324 39.7634 28.9376 37.8361 29.3943C37.8297 29.2961 37.8255 29.2193 37.802 29.1425C37.9599 25.017 38.1904 20.789 39.1466 16.7723ZM85.7543 32.0002C83.6649 29.5437 80.28 28.1266 75.6785 27.7616C75.1941 27.7317 74.7288 27.6997 74.2635 27.7061L74.2443 27.7082C67.2888 27.4543 60.2607 29.3708 54.3958 33.0972C56.1971 29.6333 57.6206 26.035 58.6707 22.2851C59.5159 19.3953 60.1433 16.4031 60.551 13.2871C60.7985 11.4751 60.9799 9.51162 60.6769 7.51823C60.3397 5.31355 59.3835 3.37564 57.9792 2.09936C56.1459 0.421837 53.4183 -0.297401 50.68 0.182808C48.4412 0.596848 46.1875 1.78563 44.162 3.63815C42.047 5.591 40.3119 8.12222 39.0057 11.0952C38.2822 12.7023 37.7038 14.4545 37.2663 16.3156C36.5769 19.2353 36.2568 22.1912 36.0711 25.1407C33.9966 21.1561 31.0855 17.8373 27.6536 15.5708C26.3901 14.7512 25.0754 14.0512 23.7117 13.5475C19.5413 11.8828 15.0039 11.6501 10.9595 12.9755C5.10952 14.8857 0.753514 20.0185 0.0854939 25.7575C-0.603869 31.8103 2.92618 38.3048 8.84873 41.9202C9.68962 42.4346 10.5647 42.8892 11.476 43.284L11.4781 43.3032C14.5899 44.6777 18.1519 45.4481 22.1451 45.6317C17.7208 47.0936 13.5633 49.548 10.1826 52.7515C8.75269 54.126 7.46146 55.6285 6.33244 57.2377C4.68267 59.5918 3.60915 61.8349 3.05851 64.0887C2.41397 66.7928 2.56763 69.5502 3.52377 71.836C4.92598 75.142 8.14229 77.7287 11.9434 78.6016C13.2133 78.879 14.5536 78.9986 15.9046 78.9239C18.1199 78.8001 20.4057 78.1918 22.572 77.1247C25.4724 75.7075 28.2277 73.4474 30.8059 70.4039C31.2029 69.9365 31.5849 69.4713 31.9435 68.9868C33.9091 66.4043 35.4372 63.6704 36.483 60.8468C36.6452 64.1655 37.1382 67.5014 37.9962 70.7219C38.852 74.0001 40.0728 77.1802 41.6116 80.1895C43.2593 83.4037 44.9709 85.6873 46.9408 87.3947C49.4571 89.5375 52.5176 90.6836 55.369 90.5257C55.4458 90.5214 55.5056 90.5171 55.5611 90.4958C60.2031 90.1415 64.399 86.3126 65.814 81.1499C66.8107 77.4982 66.561 73.3364 65.0542 68.4703C64.9369 68.0712 64.796 67.6529 64.6573 67.2346C62.5849 61.2203 59.3152 55.6008 55.1257 50.8072L59.9939 51.4646C62.5273 51.8082 65.0991 52.1689 67.6964 52.2756H67.7156C68.9364 52.3226 70.1551 52.3332 71.3695 52.2671C72.1015 52.2265 72.8336 52.1646 73.5635 52.0686C78.8031 51.3707 83.1015 49.0636 85.6754 45.5591C88.7487 41.3867 88.7743 35.5452 85.7543 32.0002Z" fill="#39D192"/>
<path d="M35.3194 37.0343C35.424 37.5508 35.0868 38.0715 34.5682 38.1782L34.4359 38.1846C33.9514 38.2124 33.5288 37.888 33.4264 37.4291L33.1596 36.1101C33.0336 35.5744 33.373 35.0729 33.9087 34.9662C34.423 34.8403 34.9246 35.1796 35.0334 35.7153L35.3194 37.0343Z" fill="#39D192"/>
<path d="M40.3796 36.5994C40.3028 36.6229 40.2281 36.6463 40.1512 36.6506C39.7244 36.6741 39.3039 36.4073 39.1652 35.9698L38.764 34.6572C38.5996 34.145 38.8984 33.6072 39.4128 33.4428C39.9058 33.2998 40.4436 33.5794 40.6058 34.0916L41.0092 35.4042C41.1714 35.8972 40.894 36.4543 40.3796 36.5994Z" fill="#39D192"/>
<path d="M46.412 36.6129C46.2626 36.6983 46.094 36.7666 45.9211 36.7751C45.5903 36.7944 45.2744 36.6386 45.0631 36.3398L43.9874 34.7369C43.6951 34.308 43.7954 33.704 44.2436 33.4073C44.6917 33.1128 45.2787 33.2152 45.5711 33.6634L46.6659 35.2662C46.9626 35.7123 46.8601 36.2992 46.412 36.6129Z" fill="#39D192"/>
<path d="M46.2864 40.2754L46.2693 42.0532C46.2778 42.5569 45.8766 42.9859 45.3537 43.0136L45.3174 43.0157C44.7753 43.0072 44.3463 42.5868 44.3549 42.0447L44.3527 40.2668C44.3421 39.7439 44.7838 39.315 45.3238 39.3022C45.8467 39.3128 46.2757 39.7354 46.2864 40.2754Z" fill="#39D192"/>
<path d="M40.0797 42.0101L40.1586 43.4358C40.1885 43.9757 39.7873 44.4239 39.2473 44.4538C38.7073 44.4837 38.2592 44.0825 38.2314 43.5425L38.1524 42.1168C38.1226 41.5768 38.5238 41.1287 39.0616 41.0988C39.6016 41.071 40.0498 41.4701 40.0797 42.0101Z" fill="#39D192"/>
<path d="M34.1607 44.4261C34.0326 44.8977 34.0028 45.4014 34.0689 45.9008C34.1756 46.4173 33.8171 46.9189 33.2792 47.0064L33.1832 47.0128C32.7009 47.0405 32.2569 46.6969 32.1716 46.2188C32.0521 45.4313 32.0841 44.6374 32.3146 43.8904C32.4789 43.3781 33.0039 43.0794 33.5162 43.2437C34.0284 43.3888 34.3272 43.9331 34.1607 44.4261Z" fill="#39D192"/>
<path d="M39.6005 50.138C39.4191 50.3407 39.1737 50.4517 38.924 50.4645C38.6721 50.4795 38.4374 50.4154 38.2325 50.2319C37.7053 49.7794 37.3062 49.1818 37.0949 48.5181C36.9306 48.0037 37.2102 47.468 37.7224 47.3037C38.2367 47.1394 38.7724 47.419 38.9368 47.9312C39.0328 48.2556 39.242 48.5522 39.4874 48.7721C39.8929 49.1157 39.9463 49.7325 39.6005 50.138Z" fill="#39D192"/>
<path d="M45.2214 48.2994C45.0443 48.5619 44.7604 48.7113 44.4723 48.7284C44.2802 48.739 44.0625 48.6729 43.8832 48.5662C43.3987 48.2268 43.0252 47.7061 42.8759 47.1341C42.7521 46.6176 43.0701 46.099 43.5844 45.973C44.1009 45.8493 44.6195 46.1481 44.7647 46.6624C44.7903 46.7777 44.8543 46.8886 44.9546 46.9612C45.3964 47.2451 45.5266 47.8576 45.2214 48.2994Z" fill="#39D192"/>
<path d="M49.4881 45.3562C49.3365 45.4224 49.2042 45.4693 49.0506 45.4779C48.7027 45.4971 48.3441 45.3221 48.1712 44.9849L47.6804 44.1418C47.4008 43.6723 47.5651 43.0854 48.0304 42.8079C48.4999 42.5497 49.089 42.7098 49.3494 43.1793L49.8402 44.0415C50.0963 44.4919 49.9363 45.0809 49.4881 45.3562Z" fill="#39D192"/>
</svg>
