<svg width="81" height="116" viewBox="0 0 81 116" fill="none" xmlns="http://www.w3.org/2000/svg">
<path d="M52.9814 105.41C52.9814 104.398 52.4361 103.525 51.3456 102.789C50.0733 102.054 48.7405 101.686 47.3471 101.686H46.9109C45.8931 101.686 44.7177 101.879 43.397 102.274C42.6458 102.514 41.8824 102.854 41.0948 103.286C40.7677 103.424 40.1497 103.856 39.2531 104.582C38.5382 105.281 38.0657 105.851 37.8354 106.311V106.357C37.8354 106.412 37.8597 106.467 37.896 106.522C38.2595 106.862 38.6352 107.037 39.0229 107.037H39.1319C39.241 107.037 39.3379 107 39.4227 106.936C39.653 106.559 39.9438 106.182 40.2951 105.778C40.7313 105.29 41.3856 104.766 42.2702 104.214C44.2452 103.12 46.1233 102.569 47.9287 102.569H48.0983C48.6557 102.569 49.1404 102.642 49.5766 102.78C50.8852 103.203 51.5274 103.985 51.5274 105.134V105.207C51.5274 105.732 51.4062 106.32 51.1517 106.982C50.7398 108.076 49.7341 109.409 48.1589 110.972C45.6144 113.317 43.4697 114.485 41.737 114.485C41.6159 114.485 41.4462 114.475 41.216 114.457C40.9979 114.457 40.8525 114.172 40.804 113.593C40.804 113.078 41.0464 112.453 41.5432 111.735C41.9551 111.156 42.4035 110.641 42.9124 110.182C42.561 111.404 42.3913 112.057 42.3913 112.131V112.158C42.4883 112.37 42.6943 112.471 43.0214 112.471H43.1426C43.3364 112.471 43.494 112.407 43.6151 112.287C44.124 110.899 44.6208 109.584 45.1176 108.361C45.1176 108.315 45.4084 108.094 45.99 107.69C46.9957 107.037 47.9166 106.513 48.7526 106.109C49.3463 105.888 49.6493 105.759 49.6614 105.722V105.64C49.5402 105.391 49.3342 105.263 49.0677 105.263C48.4497 105.327 47.3228 105.869 45.6992 106.899C46.2687 105.474 46.5474 104.748 46.5474 104.711L46.5231 104.61C46.2566 104.316 45.8567 104.159 45.3478 104.159H45.2267C45.1055 104.159 44.9964 104.205 44.8753 104.288C44.5602 105.088 44.1361 106.274 43.603 107.846C43.4818 108.389 43.3728 108.655 43.2759 108.655C40.7192 110.816 39.4349 112.48 39.4349 113.648V113.712C39.4349 113.933 39.4954 114.135 39.6287 114.319C40.174 114.972 40.9616 115.294 41.9794 115.294H42.149C43.2516 115.294 44.536 114.889 46.0264 114.071C46.5353 113.832 47.3592 113.271 48.4982 112.388C49.6371 111.441 50.5096 110.605 51.1033 109.869C52.3513 108.26 52.9692 106.862 52.9692 105.676V105.41H52.9814Z" fill="black"/>
<path d="M69.448 111.377C69.3389 111.303 69.2783 111.138 69.2783 110.871V110.825C69.2783 109.658 69.7145 107.929 70.5748 105.64C71.5563 105.548 72.3318 105.502 72.9255 105.502H73.1193C73.3738 105.502 73.6282 105.52 73.8585 105.557C74.0644 105.612 74.1856 105.649 74.2099 105.649H74.2462C74.4158 105.649 74.5855 105.612 74.7793 105.538C74.9853 105.456 75.0823 105.373 75.0823 105.309V105.281C75.0823 105.272 75.0823 105.253 75.0701 105.235C74.6097 104.978 73.6888 104.849 72.3075 104.849C71.7017 104.858 71.217 104.876 70.8778 104.895H70.8656C71.0595 104.444 71.1685 104.214 71.1685 104.205L71.1443 104.132C70.9626 103.985 70.7445 103.902 70.4658 103.902H70.3688C70.2113 103.902 70.0902 103.929 70.0053 103.994C69.9811 103.994 69.8357 104.316 69.5691 104.968C69.5691 105.005 69.4843 105.014 69.3147 105.014C67.8365 105.18 66.8792 105.327 66.4309 105.456C66.1765 105.502 66.0553 105.548 66.0553 105.603V105.612C66.0553 105.649 66.0674 105.695 66.1038 105.759C66.3703 106.053 66.6127 106.21 66.8186 106.21C67.4366 106.063 68.2484 105.925 69.242 105.805H69.2541C68.8058 107 68.5029 108.012 68.3211 108.839C68.1878 109.023 67.9697 109.345 67.6547 109.795C67.3397 110.237 67.0489 110.549 66.7823 110.733H66.6854C66.6369 110.595 66.6127 110.457 66.6127 110.329V110.246C66.6127 109.556 66.8913 108.665 67.4608 107.552V107.543C67.4608 107.387 67.2306 107.285 66.7702 107.23H66.6005C66.334 107.23 66.1401 107.341 65.9947 107.561C65.9947 107.57 65.9947 107.58 65.9826 107.58C65.6676 107.396 65.3646 107.304 65.0496 107.304C64.3953 107.304 63.8379 107.58 63.3896 108.122C63.2806 108.269 63.1957 108.407 63.1109 108.545C63.0988 108.554 63.0867 108.554 63.0746 108.563C62.7232 108.913 62.1537 109.529 61.3782 110.402C61.2207 110.568 61.1117 110.66 61.0268 110.696C61.0268 110.696 61.0147 110.687 61.0147 110.678C61.0753 110.301 61.1723 109.878 61.3177 109.437C61.669 108.379 61.8508 107.773 61.8508 107.626C61.8508 107.552 61.8266 107.497 61.7902 107.46C61.6327 107.341 61.4388 107.285 61.2086 107.285H61.1117C60.736 107.285 60.312 107.478 59.8394 107.865C59.4517 108.232 59.1124 108.591 58.8337 108.95H58.8216C58.8701 108.775 58.9791 108.444 59.1609 107.966V107.938L59.1366 107.892C58.967 107.736 58.7247 107.653 58.3975 107.653C58.1915 107.653 58.0461 107.69 57.9613 107.773C57.8765 107.957 57.7675 108.315 57.6221 108.848C57.6099 108.867 57.5857 108.885 57.5736 108.904C57.3797 109.051 57.2464 109.143 57.1737 109.17C56.992 109.271 56.6891 109.391 56.265 109.52H56.2529C56.3861 109.161 56.4467 108.858 56.4467 108.591V108.563C56.4467 108.324 56.3983 108.122 56.2892 107.947C56.0348 107.57 55.5986 107.387 54.9685 107.387H54.8716C54.7383 107.387 54.5808 107.405 54.4111 107.442C53.987 107.57 53.6599 107.791 53.4175 108.104C53.2479 108.37 53.1752 108.591 53.1752 108.784C52.8844 109.087 52.739 109.428 52.739 109.805V109.897C52.739 110.182 52.8481 110.467 53.054 110.752C53.3085 111.018 53.6114 111.156 53.9628 111.156H54.0597C54.5202 111.156 54.9927 110.972 55.4653 110.614C55.7197 110.393 55.9136 110.191 56.0348 109.998C56.0348 109.952 56.0953 109.924 56.2044 109.906C56.6285 109.795 57.0041 109.658 57.3434 109.483C57.3797 109.464 57.4161 109.446 57.4524 109.428C57.307 109.943 57.2101 110.384 57.1495 110.742V110.816C57.1495 110.834 57.1495 110.871 57.1616 110.926C57.2828 111.119 57.5251 111.221 57.8765 111.221C57.9492 111.221 58.0219 111.211 58.0946 111.184C58.1431 111.156 58.2642 110.981 58.4823 110.65C59.0397 109.906 59.694 109.124 60.4452 108.297H60.4574V108.306C60.1302 109.179 59.9727 109.814 59.9727 110.2V110.347C59.9727 110.54 60.0212 110.724 60.1181 110.89C60.2998 111.129 60.5301 111.248 60.7845 111.248H60.8572C61.0511 111.248 61.2934 111.119 61.5721 110.871C61.8387 110.595 62.1901 110.218 62.6141 109.731C62.602 109.823 62.5899 109.915 62.5899 110.007V110.136C62.5899 110.274 62.6263 110.421 62.7111 110.568C62.9413 110.917 63.3533 111.092 63.947 111.092C64.2741 111.092 64.7225 110.779 65.2919 110.163H65.3041V110.264C65.3041 110.375 65.3283 110.494 65.3646 110.623C65.5464 111.083 65.8372 111.303 66.237 111.303H66.334C66.8308 111.303 67.4245 110.844 68.1273 109.933C68.1151 110.08 68.103 110.218 68.103 110.338C68.103 110.696 68.1636 111.009 68.2727 111.276C68.4544 111.625 68.7573 111.8 69.1814 111.8H69.2783C69.5328 111.8 69.6661 111.735 69.7024 111.616C69.7145 111.515 69.6297 111.441 69.448 111.377ZM54.3021 110.632C54.2536 110.632 54.2173 110.623 54.1688 110.595C54.0234 110.43 53.9507 110.218 53.9507 109.943C53.9507 109.878 53.9628 109.832 53.9628 109.814H53.9749L54.1082 109.869C54.3263 109.961 54.5929 110.016 54.9321 110.053C54.6656 110.43 54.4596 110.632 54.3021 110.632ZM55.4653 108.499C55.4653 108.821 55.3562 109.207 55.1381 109.667C54.6777 109.667 54.3627 109.501 54.2051 109.17C54.2415 109.115 54.3021 109.051 54.399 108.968C54.5444 108.904 54.6171 108.839 54.6171 108.784V108.775C54.6171 108.683 54.4959 108.6 54.2415 108.527C54.2415 108.508 54.2536 108.471 54.2657 108.425C54.3263 108.315 54.4232 108.196 54.5444 108.076C54.7989 107.865 55.0048 107.754 55.1624 107.754C55.1866 107.763 55.2108 107.773 55.2351 107.782C55.3805 107.957 55.4532 108.159 55.4532 108.398V108.499H55.4653ZM64.7225 109.906C64.5286 110.191 64.3105 110.384 64.056 110.494C63.947 110.494 63.8864 110.411 63.8864 110.246V110.154C63.8864 110.071 63.9106 109.943 63.9833 109.768C64.5286 108.517 64.9769 107.892 65.3283 107.892C65.51 107.892 65.6554 108.113 65.7403 108.563C65.3283 109.161 64.989 109.612 64.7225 109.906Z" fill="black"/>
<path d="M75.2762 108.49H75.2399C75.0945 108.49 74.937 108.554 74.7795 108.674C74.6098 108.876 74.3796 109.124 74.0767 109.418C73.1316 110.301 72.4409 110.742 72.0047 110.742C71.9563 110.742 71.9078 110.733 71.8351 110.715C71.617 110.623 71.5079 110.402 71.5079 110.053V109.86C71.6291 109.86 71.7503 109.841 71.8836 109.823C72.1017 109.786 72.3076 109.731 72.5015 109.676C72.7438 109.593 72.9619 109.483 73.1922 109.326C73.6647 108.977 73.9071 108.573 73.9071 108.104C73.9071 107.892 73.8465 107.717 73.7132 107.58C73.4587 107.377 73.1558 107.276 72.8165 107.276H72.7196C72.138 107.276 71.5806 107.534 71.0596 108.058C70.5144 108.618 70.2478 109.216 70.2478 109.823V109.933C70.2478 110.191 70.3205 110.43 70.4538 110.65C70.8052 111.083 71.205 111.294 71.6655 111.294H71.7382C72.2349 111.294 72.8287 111.037 73.5072 110.531C73.8222 110.283 74.0646 110.08 74.2221 109.924C74.6219 109.529 74.9491 109.17 75.2035 108.839C75.3247 108.701 75.3853 108.6 75.3853 108.563V108.554C75.4095 108.527 75.3732 108.499 75.2762 108.49ZM71.726 109.253C72.1986 108.416 72.5257 107.993 72.7075 107.993H72.7196C72.8165 107.993 72.8771 108.122 72.9014 108.389C72.9014 108.527 72.865 108.674 72.8044 108.821C72.6227 109.198 72.2713 109.391 71.7139 109.391H71.6897H71.6533L71.726 109.253Z" fill="black"/>
<rect x="13.3418" y="17.8633" width="53.8861" height="51.1646" fill="white"/>
<path d="M22.0591 29.0148C22.5561 29.3932 24.213 29.7846 26.9022 30.2673C30.3433 30.8936 34.9442 31.1806 39.5961 31.1806C44.248 31.1806 48.8489 30.8153 52.2901 30.2673C54.9665 29.7846 56.6616 29.3671 57.1332 29.0148C57.2988 28.8844 57.3243 28.6886 57.1459 28.5712C56.3685 28.0754 50.0087 26.301 39.5961 26.301C29.1835 26.301 23.6522 27.8406 22.0463 28.5712C21.8552 28.6495 21.8934 28.8844 22.0591 29.0148Z" fill="#28B3DD"/>
<path d="M57.6815 0.989746H22.8878C10.3978 0.989746 0.27832 11.3492 0.27832 24.1353V59.7409C0.27832 72.5271 10.3978 82.8866 22.8878 82.8866H57.6688C70.1588 82.8866 80.2783 72.5271 80.2783 59.7409V24.1353C80.2911 11.3492 70.1716 0.989746 57.6815 0.989746ZM25.7809 25.5444C29.4897 24.8138 34.422 24.4485 39.5965 24.4485C44.7709 24.4485 49.7032 24.8138 53.412 25.5444C57.8982 26.4577 59.8737 27.371 59.9629 29.015C59.9629 30.7502 57.9747 31.8462 53.412 32.6682C49.7032 33.3075 44.7709 33.6728 39.5965 33.6728C34.422 33.6728 29.4897 33.3075 25.7809 32.6682C21.2055 31.8462 19.23 30.7502 19.23 29.015C19.3193 27.358 21.3075 26.4447 25.7809 25.5444ZM63.3403 58.9451C63.3403 59.2191 63.1236 59.4409 62.856 59.4409H52.8384C52.5708 59.4409 52.3541 59.2191 52.3541 58.9451V54.0133C52.3541 53.6871 52.1247 53.4 51.8061 53.3348L40.8072 51.2734C39.9916 51.1168 39.2014 50.8428 38.4622 50.4644L17.2291 39.27C17.2291 37.4826 18.8859 36.1909 20.5683 36.6606L38.3602 42.5448C38.3602 43.5886 38.9974 44.515 39.9661 44.8542L47.8679 47.1244C48.0336 47.1766 48.1993 47.0461 48.1993 46.8634V46.4981C48.1993 46.0415 47.9062 45.6501 47.4728 45.5326L41.5719 43.967C40.6161 43.6277 39.9661 42.7014 39.9661 41.6576C39.9661 40.2616 41.1768 39.1787 42.5278 39.3613L49.0659 39.9876C51.3473 40.2094 53.5777 40.8226 55.5914 41.9316C61.454 45.1151 63.3275 50.4514 63.3275 57.5229V58.9451H63.3403Z" fill="#28B3DD"/>
<path d="M12.5008 89.1038V92.0829H17.3844V93.6228H12.5008V97.3669H10.6201V87.574H17.9974V89.0937H12.5008V89.1038Z" fill="#28B3DD"/>
<path d="M20.7816 96.9739C20.1582 96.6518 19.6698 96.1889 19.3165 95.6152C18.9633 95.0314 18.7866 94.3772 18.7866 93.6324C18.7866 92.8977 18.9633 92.2335 19.3165 91.6598C19.6698 91.0861 20.1582 90.6332 20.7816 90.301C21.405 89.979 22.1116 89.8079 22.8909 89.8079C23.6806 89.8079 24.3871 89.9689 25.0105 90.301C25.634 90.6231 26.1223 91.076 26.4756 91.6598C26.8289 92.2335 27.0055 92.8977 27.0055 93.6324C27.0055 94.3672 26.8289 95.0314 26.4756 95.6152C26.1223 96.1989 25.634 96.6518 25.0105 96.9739C24.3871 97.296 23.6806 97.4671 22.8909 97.4671C22.1116 97.4671 21.4154 97.3061 20.7816 96.9739ZM24.543 95.3233C24.9794 94.8905 25.1976 94.3269 25.1976 93.6324C25.1976 92.938 24.9794 92.3643 24.543 91.9416C24.1066 91.5088 23.5559 91.2974 22.9013 91.2974C22.2363 91.2974 21.6856 91.5088 21.2596 91.9416C20.8336 92.3744 20.6154 92.938 20.6154 93.6324C20.6154 94.3269 20.8336 94.9006 21.2596 95.3233C21.6856 95.7561 22.2363 95.9674 22.9013 95.9674C23.5559 95.9674 24.1066 95.7561 24.543 95.3233Z" fill="#28B3DD"/>
<path d="M30.1022 96.9739C29.4787 96.6518 28.9904 96.1889 28.6371 95.6152C28.2838 95.0314 28.1072 94.3772 28.1072 93.6324C28.1072 92.8977 28.2838 92.2335 28.6371 91.6598C28.9904 91.0861 29.4787 90.6332 30.1022 90.301C30.7256 89.979 31.4322 89.8079 32.2114 89.8079C33.0011 89.8079 33.7077 89.9689 34.3311 90.301C34.9545 90.6231 35.4429 91.076 35.7962 91.6598C36.1495 92.2335 36.3261 92.8977 36.3261 93.6324C36.3261 94.3672 36.1495 95.0314 35.7962 95.6152C35.4429 96.1989 34.9545 96.6518 34.3311 96.9739C33.7077 97.296 33.0011 97.4671 32.2114 97.4671C31.4322 97.4671 30.7256 97.3061 30.1022 96.9739ZM33.8531 95.3233C34.2896 94.8905 34.5078 94.3269 34.5078 93.6324C34.5078 92.938 34.2896 92.3643 33.8531 91.9416C33.4167 91.5088 32.866 91.2974 32.2114 91.2974C31.5464 91.2974 30.9957 91.5088 30.5697 91.9416C30.1437 92.3744 29.9255 92.938 29.9255 93.6324C29.9255 94.3269 30.1437 94.9006 30.5697 95.3233C30.9957 95.7561 31.5464 95.9674 32.2114 95.9674C32.8764 95.9674 33.4167 95.7561 33.8531 95.3233Z" fill="#28B3DD"/>
<path d="M45.6152 86.9897V97.3664H43.88V96.4002C43.5787 96.7525 43.215 97.0242 42.7786 97.1953C42.3422 97.3765 41.8539 97.457 41.3239 97.457C40.5862 97.457 39.9108 97.296 39.329 96.984C38.7367 96.672 38.2691 96.219 37.9366 95.6353C37.6041 95.0515 37.4275 94.3873 37.4275 93.6324C37.4275 92.8776 37.5937 92.2133 37.9366 91.6296C38.2691 91.0559 38.7367 90.603 39.329 90.291C39.9212 89.979 40.5862 89.8179 41.3239 89.8179C41.8331 89.8179 42.3006 89.8984 42.7267 90.0695C43.1527 90.2406 43.5163 90.4923 43.8073 90.8244V86.9897H45.6152ZM42.7059 95.6856C43.0488 95.4944 43.3293 95.2226 43.5267 94.8704C43.7241 94.5181 43.8281 94.1055 43.8281 93.6425C43.8281 93.1795 43.7241 92.7669 43.5267 92.4146C43.3293 92.0623 43.0488 91.7906 42.7059 91.5994C42.363 91.4081 41.9681 91.3175 41.5317 91.3175C41.0953 91.3175 40.7109 91.4182 40.3576 91.5994C40.0147 91.7906 39.7342 92.0623 39.5368 92.4146C39.3393 92.7669 39.2354 93.1795 39.2354 93.6425C39.2354 94.1055 39.3393 94.5181 39.5368 94.8704C39.7342 95.2226 40.0147 95.4944 40.3576 95.6856C40.7005 95.8768 41.0953 95.9674 41.5317 95.9674C41.9681 95.9674 42.363 95.8768 42.7059 95.6856Z" fill="#28B3DD"/>
<path d="M55.1956 94.196H49.1483C49.2522 94.7496 49.5327 95.1823 49.9795 95.5044C50.4263 95.8265 50.9874 95.9875 51.6524 95.9875C52.5044 95.9875 53.2006 95.7158 53.7513 95.1723L54.7176 96.2492C54.3747 96.6518 53.9279 96.9537 53.4084 97.155C52.8785 97.3563 52.2862 97.467 51.6212 97.467C50.7692 97.467 50.0315 97.306 49.3872 96.9738C48.743 96.6518 48.2443 96.1888 47.891 95.6151C47.5377 95.0314 47.3611 94.3772 47.3611 93.6324C47.3611 92.9077 47.5273 92.2535 47.8702 91.6698C48.2131 91.086 48.6911 90.6331 49.2937 90.311C49.8964 89.989 50.5822 89.8179 51.3407 89.8179C52.0888 89.8179 52.7642 89.9789 53.3564 90.301C53.9487 90.623 54.4059 91.076 54.7384 91.6597C55.0709 92.2435 55.2371 92.9178 55.2371 93.6827C55.2267 93.7934 55.2163 93.9645 55.1956 94.196ZM49.8652 91.71C49.4704 92.0422 49.221 92.485 49.1379 93.0285H53.5123C53.4396 92.485 53.2006 92.0522 52.8057 91.71C52.4109 91.3779 51.9225 91.2068 51.3303 91.2068C50.7484 91.2169 50.26 91.3779 49.8652 91.71Z" fill="#28B3DD"/>
<path d="M62.2924 90.603C62.895 91.1263 63.1963 91.9214 63.1963 92.9883V97.3664H61.4923V96.4606C61.2741 96.7827 60.952 97.0343 60.5468 97.2054C60.1415 97.3765 59.6428 97.4671 59.0713 97.4671C58.4998 97.4671 57.9907 97.3664 57.5543 97.1853C57.1179 96.9941 56.7854 96.7324 56.5464 96.3902C56.3074 96.048 56.1931 95.6655 56.1931 95.2327C56.1931 94.5584 56.4529 94.025 56.962 93.6123C57.4815 93.2097 58.292 93.0084 59.3934 93.0084H61.3884V92.8977C61.3884 92.3744 61.2221 91.9718 60.9 91.69C60.5779 91.4081 60.1 91.2672 59.4661 91.2672C59.0297 91.2672 58.6037 91.3276 58.1881 91.4585C57.7725 91.5893 57.4192 91.7705 57.1283 92.002L56.4217 90.7338C56.8269 90.4319 57.3153 90.2105 57.8764 90.0494C58.4479 89.8884 59.0505 89.8079 59.6843 89.8079C60.8273 89.8179 61.7001 90.0796 62.2924 90.603ZM60.6507 95.897C61.0039 95.6957 61.2533 95.4139 61.3988 95.0415V94.1759H59.5389C58.4998 94.1759 57.9803 94.5081 57.9803 95.1723C57.9803 95.4944 58.1154 95.746 58.3751 95.9272C58.6349 96.1184 58.9986 96.209 59.4557 96.209C59.9025 96.1889 60.2974 96.0882 60.6507 95.897Z" fill="#28B3DD"/>
<path d="M65.5133 86.9897H67.3109V97.3664H65.5029V86.9897H65.5133Z" fill="#28B3DD"/>
<path d="M70.2305 97.2255C69.6383 97.0644 69.1603 96.8631 68.7966 96.6216L69.4928 95.293C69.8357 95.5145 70.2513 95.6956 70.7397 95.8365C71.228 95.9674 71.706 96.0378 72.1736 96.0378C73.2542 96.0378 73.7945 95.7661 73.7945 95.2125C73.7945 94.9508 73.6594 94.7697 73.3789 94.669C73.1087 94.5684 72.6619 94.4677 72.0593 94.3772C71.4254 94.2866 70.9059 94.1759 70.5111 94.0551C70.1162 93.9343 69.7629 93.723 69.472 93.421C69.1811 93.1191 69.0356 92.6964 69.0356 92.1529C69.0356 91.4483 69.3369 90.8747 69.95 90.4519C70.563 90.0292 71.3839 89.8179 72.4229 89.8179C72.9528 89.8179 73.4828 89.8783 74.0127 89.989C74.5426 90.1097 74.979 90.2607 75.3115 90.462L74.6153 91.7905C73.9607 91.4181 73.223 91.2269 72.4021 91.2269C71.8722 91.2269 71.467 91.3074 71.1968 91.4584C70.9267 91.6094 70.7812 91.8107 70.7812 92.0623C70.7812 92.3441 70.9267 92.5353 71.2176 92.6561C71.5086 92.7769 71.9657 92.8775 72.5788 92.9882C73.1918 93.0788 73.701 93.1895 74.0958 93.3103C74.4906 93.4311 74.8335 93.6324 75.1141 93.9242C75.3946 94.2161 75.5401 94.6187 75.5401 95.1521C75.5401 95.8466 75.2284 96.4102 74.6049 96.8329C73.9815 97.2557 73.1295 97.467 72.0489 97.467C71.4358 97.467 70.8332 97.3865 70.2305 97.2255Z" fill="#28B3DD"/>
</svg>
