<svg width="81" height="118" viewBox="0 0 81 118" fill="none" xmlns="http://www.w3.org/2000/svg">
<path d="M22.0554 29.0105C22.5524 29.3888 24.209 29.7801 26.8977 30.2628C30.3383 30.889 34.9385 31.176 39.5896 31.176C44.2408 31.176 48.841 30.8107 52.2816 30.2628C54.9576 29.7801 56.6524 29.3627 57.1239 29.0105C57.2896 28.88 57.315 28.6844 57.1366 28.567C56.3593 28.0712 50.0006 26.2971 39.5896 26.2971C29.1787 26.2971 23.6483 27.8364 22.0427 28.567C21.8515 28.6452 21.8897 28.88 22.0554 29.0105Z" fill="#FFCB02"/>
<path d="M57.6724 0.989746H22.8842C10.3962 0.989746 0.27832 11.3475 0.27832 24.1317V59.7316C0.27832 72.5158 10.3962 82.8735 22.8842 82.8735H57.6597C70.1477 82.8735 80.2656 72.5158 80.2656 59.7316V24.1317C80.2783 11.3475 70.1605 0.989746 57.6724 0.989746ZM25.7769 25.5405C29.4851 24.81 34.4166 24.4447 39.5902 24.4447C44.7638 24.4447 49.6953 24.81 53.4035 25.5405C57.889 26.4537 59.8642 27.3668 59.9534 29.0105C59.9534 30.7455 57.9655 31.8413 53.4035 32.6631C49.6953 33.3023 44.7638 33.6676 39.5902 33.6676C34.4166 33.6676 29.4851 33.3023 25.7769 32.6631C21.2022 31.8413 19.227 30.7455 19.227 29.0105C19.3162 27.3538 21.3041 26.4406 25.7769 25.5405ZM63.3302 58.9359C63.3302 59.2098 63.1136 59.4316 62.846 59.4316H52.8301C52.5625 59.4316 52.3459 59.2098 52.3459 58.9359V54.0048C52.3459 53.6787 52.1165 53.3917 51.7979 53.3265L40.8008 51.2654C39.9852 51.1088 39.1952 50.8349 38.4561 50.4566L17.2264 39.2639C17.2264 37.4767 18.883 36.1853 20.565 36.6549L38.3541 42.5382C38.3541 43.5818 38.9913 44.508 39.9598 44.8472L47.8604 47.117C48.026 47.1692 48.1917 47.0388 48.1917 46.8561V46.4909C48.1917 46.0343 47.8986 45.643 47.4653 45.5255L41.5654 43.9601C40.6096 43.621 39.9598 42.6948 39.9598 41.6512C39.9598 40.2553 41.1703 39.1726 42.5211 39.3552L49.0582 39.9814C51.3392 40.2032 53.5692 40.8163 55.5826 41.9251C61.4443 45.1081 63.3175 50.4435 63.3175 57.5139V58.9359H63.3302Z" fill="#FFCB02"/>
<path d="M7.70252 88.7124V91.9267H12.8487V93.5881H7.70252V97.6278H5.7207V87.0618H13.4947V88.7015H7.70252V88.7124Z" fill="#FFCB02"/>
<path d="M16.4294 97.2042C15.7724 96.8567 15.2578 96.3572 14.8856 95.7382C14.5133 95.1084 14.3271 94.4025 14.3271 93.5989C14.3271 92.8062 14.5133 92.0895 14.8856 91.4705C15.2578 90.8515 15.7724 90.3629 16.4294 90.0045C17.0864 89.657 17.8309 89.4724 18.6521 89.4724C19.4842 89.4724 20.2288 89.6462 20.8857 90.0045C21.5427 90.352 22.0573 90.8407 22.4296 91.4705C22.8019 92.0895 22.988 92.8062 22.988 93.5989C22.988 94.3916 22.8019 95.1084 22.4296 95.7382C22.0573 96.368 21.5427 96.8567 20.8857 97.2042C20.2288 97.5517 19.4842 97.7363 18.6521 97.7363C17.8309 97.7363 17.0973 97.5625 16.4294 97.2042ZM20.393 95.4233C20.8529 94.9563 21.0828 94.3482 21.0828 93.5989C21.0828 92.8496 20.8529 92.2307 20.393 91.7746C19.9332 91.3076 19.3529 91.0796 18.663 91.0796C17.9623 91.0796 17.382 91.3076 16.9331 91.7746C16.4841 92.2415 16.2542 92.8496 16.2542 93.5989C16.2542 94.3482 16.4841 94.9672 16.9331 95.4233C17.382 95.8902 17.9623 96.1183 18.663 96.1183C19.3529 96.1183 19.9332 95.8902 20.393 95.4233Z" fill="#FFCB02"/>
<path d="M26.2507 97.2042C25.5937 96.8567 25.0791 96.3572 24.7069 95.7382C24.3346 95.1084 24.1484 94.4025 24.1484 93.5989C24.1484 92.8062 24.3346 92.0895 24.7069 91.4705C25.0791 90.8515 25.5937 90.3629 26.2507 90.0045C26.9076 89.657 27.6522 89.4724 28.4734 89.4724C29.3055 89.4724 30.0501 89.6462 30.707 90.0045C31.364 90.352 31.8786 90.8407 32.2509 91.4705C32.6232 92.0895 32.8093 92.8062 32.8093 93.5989C32.8093 94.3916 32.6232 95.1084 32.2509 95.7382C31.8786 96.368 31.364 96.8567 30.707 97.2042C30.0501 97.5517 29.3055 97.7363 28.4734 97.7363C27.6522 97.7363 26.9076 97.5625 26.2507 97.2042ZM30.2034 95.4233C30.6632 94.9563 30.8932 94.3482 30.8932 93.5989C30.8932 92.8496 30.6632 92.2307 30.2034 91.7746C29.7435 91.3076 29.1632 91.0796 28.4734 91.0796C27.7726 91.0796 27.1923 91.3076 26.7434 91.7746C26.2945 92.2415 26.0646 92.8496 26.0646 93.5989C26.0646 94.3482 26.2945 94.9672 26.7434 95.4233C27.1923 95.8902 27.7726 96.1183 28.4734 96.1183C29.1741 96.1183 29.7435 95.8902 30.2034 95.4233Z" fill="#FFCB02"/>
<path d="M42.5977 86.4319V97.6277H40.7692V96.5852C40.4517 96.9653 40.0685 97.2585 39.6086 97.4431C39.1487 97.6386 38.6341 97.7255 38.0757 97.7255C37.2983 97.7255 36.5866 97.5517 35.9734 97.2151C35.3493 96.8785 34.8566 96.3898 34.5062 95.7599C34.1559 95.1301 33.9697 94.4134 33.9697 93.599C33.9697 92.7845 34.1449 92.0678 34.5062 91.438C34.8566 90.819 35.3493 90.3303 35.9734 89.9937C36.5975 89.6571 37.2983 89.4833 38.0757 89.4833C38.6122 89.4833 39.1049 89.5702 39.5538 89.7548C40.0028 89.9394 40.386 90.2109 40.6926 90.5692V86.4319H42.5977ZM39.5319 95.8142C39.8933 95.6079 40.1889 95.3147 40.3969 94.9347C40.605 94.5546 40.7145 94.1094 40.7145 93.6098C40.7145 93.1103 40.605 92.6651 40.3969 92.285C40.1889 91.9049 39.8933 91.6117 39.5319 91.4054C39.1706 91.1991 38.7545 91.1013 38.2947 91.1013C37.8348 91.1013 37.4297 91.2099 37.0574 91.4054C36.6961 91.6117 36.4005 91.9049 36.1924 92.285C35.9844 92.6651 35.8749 93.1103 35.8749 93.6098C35.8749 94.1094 35.9844 94.5546 36.1924 94.9347C36.4005 95.3147 36.6961 95.6079 37.0574 95.8142C37.4187 96.0206 37.8348 96.1183 38.2947 96.1183C38.7545 96.1183 39.1706 96.0206 39.5319 95.8142Z" fill="#FFCB02"/>
<path d="M52.6932 94.2072H46.3208C46.4303 94.8044 46.7259 95.2714 47.1967 95.6189C47.6675 95.9663 48.2588 96.1401 48.9595 96.1401C49.8574 96.1401 50.591 95.8469 51.1713 95.2605L52.1896 96.4224C51.8282 96.8568 51.3574 97.1826 50.81 97.3998C50.2516 97.6169 49.6274 97.7364 48.9267 97.7364C48.0289 97.7364 47.2515 97.5626 46.5726 97.2043C45.8938 96.8568 45.3682 96.3573 44.9959 95.7383C44.6236 95.1085 44.4375 94.4026 44.4375 93.599C44.4375 92.8172 44.6127 92.1113 44.974 91.4815C45.3353 90.8517 45.839 90.363 46.4741 90.0155C47.1091 89.668 47.8318 89.4834 48.6311 89.4834C49.4194 89.4834 50.1311 89.6571 50.7552 90.0046C51.3793 90.3521 51.8611 90.8408 52.2115 91.4706C52.5618 92.1005 52.737 92.828 52.737 93.6533C52.7261 93.7728 52.7151 93.9574 52.6932 94.2072ZM47.0763 91.5249C46.6602 91.8833 46.3974 92.3611 46.3098 92.9475H50.9195C50.8428 92.3611 50.591 91.8941 50.1749 91.5249C49.7588 91.1666 49.2442 90.982 48.6201 90.982C48.007 90.9928 47.4923 91.1666 47.0763 91.5249Z" fill="#FFCB02"/>
<path d="M60.1709 90.3303C60.8059 90.895 61.1234 91.7529 61.1234 92.9039V97.6277H59.3278V96.6504C59.0978 96.9979 58.7584 97.2693 58.3314 97.4539C57.9044 97.6386 57.3788 97.7363 56.7766 97.7363C56.1744 97.7363 55.6379 97.6277 55.178 97.4322C54.7181 97.2259 54.3678 96.9436 54.1159 96.5744C53.8641 96.2051 53.7437 95.7925 53.7437 95.3255C53.7437 94.598 54.0174 94.0224 54.5539 93.5772C55.1014 93.1428 55.9554 92.9257 57.116 92.9257H59.2183V92.8062C59.2183 92.2415 59.0431 91.8071 58.7037 91.5031C58.3642 91.199 57.8606 91.047 57.1927 91.047C56.7328 91.047 56.2839 91.1122 55.8459 91.2533C55.4079 91.3945 55.0357 91.59 54.7291 91.8397L53.9845 90.4715C54.4116 90.1457 54.9262 89.9068 55.5174 89.733C56.1196 89.5593 56.7547 89.4724 57.4226 89.4724C58.627 89.4833 59.5468 89.7656 60.1709 90.3303ZM58.4409 96.0422C58.8132 95.8251 59.0759 95.521 59.2292 95.1192V94.1853H57.2693C56.1744 94.1853 55.6269 94.5437 55.6269 95.2604C55.6269 95.6079 55.7693 95.8794 56.043 96.0748C56.3167 96.2812 56.7 96.3789 57.1817 96.3789C57.6525 96.3572 58.0686 96.2486 58.4409 96.0422Z" fill="#FFCB02"/>
<path d="M63.5656 86.4319H65.4599V97.6277H63.5547V86.4319H63.5656Z" fill="#FFCB02"/>
<path d="M68.5374 97.4758C67.9133 97.302 67.4096 97.0848 67.0264 96.8242L67.76 95.3908C68.1213 95.6297 68.5593 95.8252 69.0739 95.9772C69.5885 96.1184 70.0922 96.1944 70.5849 96.1944C71.7236 96.1944 72.293 95.9012 72.293 95.3039C72.293 95.0216 72.1506 94.8261 71.855 94.7175C71.5703 94.6089 71.0995 94.5004 70.4644 94.4026C69.7965 94.3049 69.2491 94.1854 68.833 94.0551C68.4169 93.9248 68.0446 93.6968 67.7381 93.371C67.4315 93.0452 67.2782 92.5891 67.2782 92.0027C67.2782 91.2426 67.5957 90.6236 68.2417 90.1675C68.8877 89.7114 69.7527 89.4834 70.8477 89.4834C71.4061 89.4834 71.9645 89.5486 72.5229 89.668C73.0813 89.7983 73.5412 89.9612 73.8915 90.1784L73.1579 91.6118C72.4681 91.21 71.6907 91.0037 70.8258 91.0037C70.2673 91.0037 69.8403 91.0906 69.5556 91.2534C69.271 91.4163 69.1177 91.6335 69.1177 91.905C69.1177 92.2091 69.271 92.4154 69.5775 92.5457C69.8841 92.676 70.3659 92.7846 71.0119 92.904C71.6579 93.0018 72.1944 93.1212 72.6105 93.2515C73.0265 93.3819 73.3879 93.599 73.6835 93.914C73.9791 94.2289 74.1324 94.6632 74.1324 95.2388C74.1324 95.9881 73.8039 96.5962 73.147 97.0523C72.49 97.5084 71.5922 97.7364 70.4535 97.7364C69.8075 97.7364 69.1724 97.6495 68.5374 97.4758Z" fill="#FFCB02"/>
<rect x="40.2783" y="101.99" width="34" height="16" rx="8" fill="#FFCB02"/>
<path d="M47.3515 106.99H50.5315C51.2915 106.99 51.9615 107.136 52.5415 107.43C53.1282 107.716 53.5815 108.123 53.9015 108.65C54.2282 109.176 54.3915 109.79 54.3915 110.49C54.3915 111.19 54.2282 111.803 53.9015 112.33C53.5815 112.856 53.1282 113.266 52.5415 113.56C51.9615 113.846 51.2915 113.99 50.5315 113.99H47.3515V106.99ZM50.4515 112.66C51.1515 112.66 51.7082 112.466 52.1215 112.08C52.5415 111.686 52.7515 111.156 52.7515 110.49C52.7515 109.823 52.5415 109.296 52.1215 108.91C51.7082 108.516 51.1515 108.32 50.4515 108.32H48.9715V112.66H50.4515ZM55.6132 106.99H57.2332V112.67H60.7432V113.99H55.6132V106.99ZM64.8812 114.11C64.1678 114.11 63.5212 113.956 62.9412 113.65C62.3678 113.336 61.9145 112.906 61.5812 112.36C61.2545 111.806 61.0912 111.183 61.0912 110.49C61.0912 109.796 61.2545 109.176 61.5812 108.63C61.9145 108.076 62.3678 107.646 62.9412 107.34C63.5212 107.026 64.1712 106.87 64.8912 106.87C65.4978 106.87 66.0445 106.976 66.5312 107.19C67.0245 107.403 67.4378 107.71 67.7712 108.11L66.7312 109.07C66.2578 108.523 65.6712 108.25 64.9712 108.25C64.5378 108.25 64.1512 108.346 63.8112 108.54C63.4712 108.726 63.2045 108.99 63.0112 109.33C62.8245 109.67 62.7312 110.056 62.7312 110.49C62.7312 110.923 62.8245 111.31 63.0112 111.65C63.2045 111.99 63.4712 112.256 63.8112 112.45C64.1512 112.636 64.5378 112.73 64.9712 112.73C65.6712 112.73 66.2578 112.453 66.7312 111.9L67.7712 112.86C67.4378 113.266 67.0245 113.576 66.5312 113.79C66.0378 114.003 65.4878 114.11 64.8812 114.11Z" fill="white"/>
</svg>
