<svg width="81" height="103" viewBox="0 0 81 103" fill="none" xmlns="http://www.w3.org/2000/svg">
<path d="M2.60046 92.0989V95.9781H8.63032V97.9832H2.60046V102.858H0.27832V90.1069H9.38726V92.0858H2.60046V92.0989Z" fill="#4CD79D"/>
<path d="M12.8258 102.347C12.056 101.928 11.4531 101.325 11.0169 100.578C10.5806 99.818 10.3625 98.9662 10.3625 97.9964C10.3625 97.0397 10.5806 96.1748 11.0169 95.4277C11.4531 94.6807 12.056 94.091 12.8258 93.6585C13.5956 93.2392 14.468 93.0164 15.4302 93.0164C16.4052 93.0164 17.2776 93.226 18.0474 93.6585C18.8172 94.0779 19.4202 94.6676 19.8564 95.4277C20.2926 96.1748 20.5107 97.0397 20.5107 97.9964C20.5107 98.9531 20.2926 99.818 19.8564 100.578C19.4202 101.338 18.8172 101.928 18.0474 102.347C17.2776 102.767 16.4052 102.99 15.4302 102.99C14.468 102.99 13.6084 102.78 12.8258 102.347ZM17.4701 100.198C18.0089 99.6346 18.2783 98.9007 18.2783 97.9964C18.2783 97.0921 18.0089 96.3451 17.4701 95.7947C16.9312 95.2312 16.2513 94.956 15.443 94.956C14.6219 94.956 13.942 95.2312 13.416 95.7947C12.89 96.3582 12.6205 97.0921 12.6205 97.9964C12.6205 98.9007 12.89 99.6477 13.416 100.198C13.942 100.762 14.6219 101.037 15.443 101.037C16.2513 101.037 16.9312 100.762 17.4701 100.198Z" fill="#4CD79D"/>
<path d="M24.3336 102.347C23.5639 101.928 22.9609 101.325 22.5247 100.578C22.0885 99.818 21.8704 98.9662 21.8704 97.9964C21.8704 97.0397 22.0885 96.1748 22.5247 95.4277C22.9609 94.6807 23.5639 94.091 24.3336 93.6585C25.1034 93.2392 25.9758 93.0164 26.938 93.0164C27.9131 93.0164 28.7855 93.226 29.5552 93.6585C30.325 94.0779 30.928 94.6676 31.3642 95.4277C31.8004 96.1748 32.0185 97.0397 32.0185 97.9964C32.0185 98.9531 31.8004 99.818 31.3642 100.578C30.928 101.338 30.325 101.928 29.5552 102.347C28.7855 102.767 27.9131 102.99 26.938 102.99C25.9758 102.99 25.1034 102.78 24.3336 102.347ZM28.9651 100.198C29.5039 99.6346 29.7733 98.9007 29.7733 97.9964C29.7733 97.0921 29.5039 96.3451 28.9651 95.7947C28.4262 95.2312 27.7463 94.956 26.938 94.956C26.1169 94.956 25.437 95.2312 24.911 95.7947C24.3849 96.3582 24.1155 97.0921 24.1155 97.9964C24.1155 98.9007 24.3849 99.6477 24.911 100.198C25.437 100.762 26.1169 101.037 26.938 101.037C27.7591 101.037 28.4262 100.762 28.9651 100.198Z" fill="#4CD79D"/>
<path d="M43.4878 89.3469V102.859H41.3453V101.6C40.9732 102.059 40.5242 102.413 39.9854 102.636C39.4465 102.872 38.8435 102.976 38.1892 102.976C37.2783 102.976 36.4444 102.767 35.726 102.361C34.9947 101.954 34.4174 101.365 34.0068 100.604C33.5963 99.8443 33.3782 98.9793 33.3782 97.9964C33.3782 97.0135 33.5834 96.1486 34.0068 95.3885C34.4174 94.6415 34.9947 94.0517 35.726 93.6455C36.4573 93.2392 37.2783 93.0295 38.1892 93.0295C38.8179 93.0295 39.3952 93.1344 39.9212 93.3572C40.4472 93.58 40.8963 93.9076 41.2555 94.3401V89.3469H43.4878ZM39.8956 100.67C40.3189 100.421 40.6653 100.067 40.9091 99.6084C41.1528 99.1497 41.2811 98.6124 41.2811 98.0096C41.2811 97.4067 41.1528 96.8694 40.9091 96.4107C40.6653 95.952 40.3189 95.5982 39.8956 95.3492C39.4722 95.1002 38.9847 94.9822 38.4458 94.9822C37.907 94.9822 37.4323 95.1133 36.9961 95.3492C36.5727 95.5982 36.2263 95.952 35.9826 96.4107C35.7388 96.8694 35.6105 97.4067 35.6105 98.0096C35.6105 98.6124 35.7388 99.1497 35.9826 99.6084C36.2263 100.067 36.5727 100.421 36.9961 100.67C37.4195 100.919 37.907 101.037 38.4458 101.037C38.9847 101.037 39.4722 100.919 39.8956 100.67Z" fill="#4CD79D"/>
<path d="M55.317 98.7304H47.8502C47.9785 99.4512 48.3249 100.015 48.8766 100.434C49.4283 100.853 50.1211 101.063 50.9421 101.063C51.9942 101.063 52.8537 100.709 53.5337 100.002L54.7268 101.404C54.3035 101.928 53.7518 102.321 53.1103 102.583C52.456 102.845 51.7247 102.99 50.9037 102.99C49.8516 102.99 48.9407 102.78 48.1453 102.347C47.3499 101.928 46.7341 101.325 46.2979 100.578C45.8617 99.8181 45.6436 98.9663 45.6436 97.9965C45.6436 97.0529 45.8488 96.201 46.2722 95.4409C46.6956 94.6808 47.2857 94.0911 48.0298 93.6717C48.774 93.2523 49.6207 93.0295 50.5573 93.0295C51.481 93.0295 52.3149 93.2392 53.0462 93.6586C53.7775 94.078 54.342 94.6677 54.7525 95.4278C55.163 96.1879 55.3683 97.066 55.3683 98.062C55.3555 98.2061 55.3427 98.4289 55.317 98.7304ZM48.7355 95.4933C48.2479 95.9258 47.94 96.5025 47.8374 97.2101H53.2386C53.1488 96.5025 52.8537 95.9389 52.3662 95.4933C51.8787 95.0609 51.2757 94.8381 50.5444 94.8381C49.826 94.8512 49.223 95.0609 48.7355 95.4933Z" fill="#4CD79D"/>
<path d="M64.079 94.0517C64.8231 94.7332 65.1952 95.7685 65.1952 97.1577V102.858H63.0911V101.679C62.8217 102.098 62.424 102.426 61.9237 102.649C61.4233 102.872 60.8075 102.99 60.1019 102.99C59.3962 102.99 58.7676 102.858 58.2288 102.623C57.6899 102.374 57.2794 102.033 56.9843 101.587C56.6892 101.142 56.5481 100.644 56.5481 100.08C56.5481 99.2021 56.8688 98.5075 57.4975 97.9702C58.139 97.446 59.1397 97.1839 60.4996 97.1839H62.9629V97.0397C62.9629 96.3582 62.7576 95.834 62.3599 95.4671C61.9621 95.1001 61.372 94.9166 60.5894 94.9166C60.0506 94.9166 59.5245 94.9953 59.0114 95.1656C58.4982 95.336 58.062 95.5719 57.7028 95.8733L56.8303 94.2221C57.3307 93.8289 57.9337 93.5406 58.6265 93.3309C59.3321 93.1212 60.0762 93.0164 60.8588 93.0164C62.2701 93.0295 63.3477 93.3702 64.079 94.0517ZM62.052 100.945C62.4882 100.683 62.7961 100.316 62.9757 99.8311V98.7041H60.6792C59.3962 98.7041 58.7548 99.1366 58.7548 100.002C58.7548 100.421 58.9216 100.749 59.2423 100.984C59.563 101.233 60.0121 101.351 60.5766 101.351C61.1282 101.325 61.6158 101.194 62.052 100.945Z" fill="#4CD79D"/>
<path d="M68.0563 89.3469H70.2758V102.859H68.0435V89.3469H68.0563Z" fill="#4CD79D"/>
<path d="M73.882 102.675C73.1508 102.465 72.5606 102.203 72.1116 101.889L72.9711 100.159C73.3945 100.447 73.9077 100.683 74.5107 100.867C75.1137 101.037 75.7038 101.129 76.2812 101.129C77.6154 101.129 78.2826 100.775 78.2826 100.054C78.2826 99.7133 78.1158 99.4774 77.7694 99.3463C77.4358 99.2153 76.8841 99.0842 76.14 98.9663C75.3574 98.8483 74.716 98.7041 74.2284 98.5469C73.7409 98.3896 73.3047 98.1144 72.9455 97.7213C72.5863 97.3281 72.4066 96.7777 72.4066 96.07C72.4066 95.1526 72.7787 94.4056 73.5356 93.8552C74.2926 93.3048 75.3061 93.0295 76.5891 93.0295C77.2434 93.0295 77.8977 93.1082 78.552 93.2523C79.2063 93.4096 79.7451 93.6062 80.1557 93.8683L79.2961 95.5982C78.4878 95.1133 77.5769 94.8643 76.5634 94.8643C75.9091 94.8643 75.4088 94.9691 75.0752 95.1657C74.7416 95.3623 74.562 95.6244 74.562 95.952C74.562 96.319 74.7416 96.568 75.1008 96.7252C75.4601 96.8825 76.0246 97.0136 76.7815 97.1577C77.5384 97.2757 78.1671 97.4198 78.6546 97.5771C79.1421 97.7344 79.5655 97.9965 79.9119 98.3765C80.2583 98.7566 80.4379 99.2808 80.4379 99.9754C80.4379 100.88 80.053 101.614 79.2833 102.164C78.5135 102.714 77.4615 102.99 76.1272 102.99C75.3703 102.99 74.6261 102.885 73.882 102.675Z" fill="#4CD79D"/>
<path d="M22.2048 29.139C22.7051 29.5191 24.373 29.9122 27.08 30.3971C30.544 31.0262 35.1754 31.3145 39.8582 31.3145C44.541 31.3145 49.1724 30.9475 52.6364 30.3971C55.3306 29.9122 57.0369 29.4928 57.5116 29.139C57.6784 29.0079 57.704 28.8114 57.5244 28.6934C56.7418 28.1954 50.3399 26.4131 39.8582 26.4131C29.3765 26.4131 23.8085 27.9595 22.192 28.6934C21.9995 28.772 22.038 29.0079 22.2048 29.139Z" fill="#4CD79D"/>
<path d="M58.0841 0.989746H23.0464C10.4688 0.989746 0.27832 11.3954 0.27832 24.2386V60.0031C0.27832 72.8463 10.4688 83.252 23.0464 83.252H58.0712C70.6489 83.252 80.8393 72.8463 80.8393 60.0031V24.2386C80.8522 11.3954 70.6617 0.989746 58.0841 0.989746ZM25.9598 25.654C29.6946 24.9201 34.6615 24.5531 39.8722 24.5531C45.0829 24.5531 50.0498 24.9201 53.7846 25.654C58.3023 26.5714 60.2916 27.4887 60.3814 29.14C60.3814 30.883 58.3793 31.9839 53.7846 32.8095C50.0498 33.4517 45.0829 33.8186 39.8722 33.8186C34.6615 33.8186 29.6946 33.4517 25.9598 32.8095C21.3523 31.9839 19.3629 30.883 19.3629 29.14C19.4528 27.4756 21.4549 26.5583 25.9598 25.654ZM63.7825 59.2037C63.7825 59.4789 63.5643 59.7017 63.2948 59.7017H53.207C52.9375 59.7017 52.7193 59.4789 52.7193 59.2037V54.2498C52.7193 53.9222 52.4883 53.6339 52.1675 53.5684L41.0914 51.4977C40.2701 51.3405 39.4743 51.0653 38.7299 50.6852L17.348 39.4408C17.348 37.6454 19.0164 36.348 20.7106 36.8197L38.6273 42.7303C38.6273 43.7787 39.269 44.7092 40.2444 45.0499L48.2017 47.3302C48.3685 47.3827 48.5354 47.2516 48.5354 47.0681V46.7012C48.5354 46.2425 48.2402 45.8493 47.8038 45.7314L41.8615 44.1587C40.8989 43.818 40.2444 42.8875 40.2444 41.8391C40.2444 40.4368 41.4636 39.3491 42.8241 39.5326L49.4081 40.1616C51.7054 40.3844 53.9514 41.0003 55.9793 42.1143C61.883 45.312 63.7697 50.6721 63.7697 57.7752V59.2037H63.7825Z" fill="#4CD79D"/>
</svg>
