<svg width="79" height="64" viewBox="0 0 79 64" fill="none" xmlns="http://www.w3.org/2000/svg">
<path d="M16.3949 21.2802C16.5736 21.0522 16.7509 20.8255 16.8776 20.5642C17.0909 20.1242 17.2976 19.6802 17.5042 19.2375C17.6976 18.8242 17.8896 18.4122 18.0882 18.0028C18.2296 19.3975 18.4216 22.9535 18.3976 23.9349L15.5496 24.7255V24.7242C15.4882 24.6255 15.4296 24.5309 15.3856 24.4309C15.2602 24.1482 15.1402 23.8642 15.0189 23.5802C14.8282 23.1335 14.6376 22.6869 14.4309 22.2469C13.7296 20.7442 13.0229 19.2442 12.3149 17.7442L11.0429 15.0455C9.67756 12.1402 8.4549 9.78819 7.19356 7.64286C6.31756 6.15752 5.46156 4.66019 4.60556 3.16419L4.1309 2.33619C4.07756 2.24419 4.03757 2.14419 3.99357 2.03352L4.03757 2.04152C4.29757 2.08419 4.52956 2.12152 4.7589 2.16286C7.82823 2.70552 10.6149 4.10952 13.2762 6.45485C13.5589 6.70419 13.6362 6.93219 13.5509 7.26552C13.4776 7.54952 13.4136 7.83752 13.3496 8.12552C13.3002 8.34419 13.2509 8.56552 13.1989 8.78286C12.7416 10.6669 12.4576 12.2509 12.3029 13.7682C12.2656 14.1442 12.2922 14.5242 12.3189 14.8109C12.3416 15.0349 12.6029 15.2082 12.7762 15.2295C12.9429 15.2509 13.2322 15.1589 13.3216 14.9575C13.4402 14.6935 13.5416 14.4015 13.6282 14.0629C14.1416 12.0682 14.4696 10.0575 14.7869 8.11219L14.7909 8.08152C16.4042 10.1989 17.4269 12.6975 17.8309 15.5055C17.8669 15.7415 17.8269 15.9349 17.7042 16.1362C17.1309 17.0895 16.7109 18.1215 16.3029 19.1202C16.1496 19.4962 15.9962 19.8708 15.8362 20.2429C15.7536 20.4309 15.6896 20.6455 15.6389 20.9002C15.6069 21.0709 15.7096 21.2909 15.8576 21.3749C16.0096 21.4629 16.2749 21.4322 16.3949 21.2802ZM32.7402 42.2575C32.5176 42.6962 32.2709 43.1615 31.9896 43.5882C30.8669 45.2869 29.7856 46.3709 28.4816 47.0989C26.3362 48.2975 24.0909 48.9815 21.8136 49.1322C20.8962 49.1922 20.0109 49.0909 19.1842 48.8322C16.0682 47.8642 13.7109 46.4335 11.9456 44.4642C10.4016 42.7429 9.37756 40.8149 8.9029 38.7349C8.6429 37.5975 8.62023 36.5935 8.83223 35.6642C9.51356 32.6829 11.0056 30.4935 13.3922 28.9695C14.5722 28.2149 15.8269 27.6069 17.1202 27.1642C19.0802 26.4909 21.1722 26.2282 23.3389 26.3815C24.6376 26.4735 25.8229 26.9069 26.8629 27.6695C27.1416 27.8749 27.4096 28.0962 27.6762 28.3162L27.8482 28.4562L27.7269 28.9469C27.7056 29.0389 27.7402 29.1362 27.8149 29.1922L28.1282 29.4255C28.3642 29.6055 28.6002 29.7842 28.8456 29.9482C29.6549 30.4842 30.3549 31.2122 30.9869 32.1709C31.1442 32.4095 31.2896 32.6535 31.4362 32.8962C31.5722 33.1229 31.7069 33.3495 31.8509 33.5709C31.9149 33.6695 31.9776 33.7709 32.0389 33.8722C32.2549 34.2215 32.4776 34.5829 32.7829 34.8695C33.0136 35.0869 33.1482 35.3015 33.2349 35.5882C33.9616 37.9989 33.8002 40.1815 32.7402 42.2575ZM21.7082 16.4922C22.2562 14.9695 23.2629 13.6109 24.7002 12.4535C26.6896 10.8535 29.1349 10.0135 32.3976 9.81219C33.0122 9.77485 33.6082 9.85752 34.1736 10.0575C34.2896 10.0989 34.4042 10.1455 34.5189 10.1962L34.7429 10.2975C35.3776 10.5829 36.0322 10.8789 36.6482 11.2122C37.0616 11.4375 37.4576 11.7255 37.8416 12.0042L38.0616 12.1642C38.1536 12.2295 38.2309 12.3135 38.3109 12.3975C38.3949 12.4842 38.4776 12.5709 38.5696 12.6469C40.2909 14.0415 41.5789 15.5949 42.5069 17.3949C43.9029 20.1042 44.1509 22.7082 43.2642 25.3575C42.4216 27.8735 41.0429 30.0175 39.1696 31.7295C38.1229 32.6842 36.9709 33.3762 35.7456 33.7842L35.5856 33.8415C35.3696 33.9189 35.1776 33.9882 34.9696 33.9709L34.9336 33.9042C34.8682 33.7842 34.8016 33.6602 34.7416 33.5335C33.9896 31.9202 33.0296 30.7055 31.8029 29.8189C30.9242 29.1842 30.1389 28.4069 29.3296 27.3722C29.1509 27.1442 28.9536 26.9295 28.7576 26.7149L28.6536 26.6015C27.1682 24.9789 25.3509 24.0482 23.2562 23.8335C22.7602 23.7815 22.2576 23.7695 21.7722 23.7562L21.2309 23.7415C21.0442 23.7335 20.8576 23.7349 20.6522 23.7362H20.5509C20.5362 23.6455 20.5269 23.5802 20.5282 23.5135C20.5696 20.8789 20.9562 18.5815 21.7082 16.4922ZM2.35756 8.45485L2.2629 8.41486C1.97756 8.29219 1.7069 8.17619 1.51756 7.98552C1.5149 5.84686 1.92956 3.59886 2.53623 2.37486C4.7269 6.09752 6.73356 9.98685 8.67623 13.7509C9.8869 16.0949 11.1376 18.5175 12.4189 20.8749C13.3376 22.5629 14.0056 23.8775 14.5629 25.1042L11.0469 27.0842C8.1669 26.0482 4.96956 22.4735 3.90823 19.8509C5.53623 20.2175 7.17223 20.3269 8.75756 20.4322C9.10023 20.4549 9.4429 20.4775 9.78423 20.5042C10.0549 20.5242 10.3256 20.4935 10.5602 20.4642C10.8282 20.4269 11.0109 20.2269 11.0402 19.9402C11.0669 19.6549 10.9189 19.4162 10.6389 19.3415C10.3149 19.2522 10.0042 19.1869 9.71223 19.1469C8.81223 19.0282 7.90956 18.9109 7.0069 18.7935C6.15356 18.6829 5.30023 18.5735 4.4469 18.4589C4.11356 18.4149 3.78157 18.3589 3.46557 18.3055L3.18157 18.2575C2.2189 16.3122 1.30023 11.4629 1.49756 9.51885C2.68556 10.2735 3.97623 10.6535 5.30823 11.0082C5.45757 11.0495 5.68423 11.1015 5.9149 11.0909C6.08956 11.0855 6.32556 10.9522 6.39756 10.7682C6.46556 10.5949 6.40956 10.2909 6.2389 10.1722C6.00956 10.0122 5.7549 9.87085 5.48023 9.75619C5.04156 9.57085 4.60023 9.38952 4.16023 9.20819C3.55757 8.96019 2.9549 8.71218 2.35756 8.45485ZM0.190898 5.97886C-0.195768 9.37085 0.00423169 12.4602 0.797565 15.4229C1.47756 17.9629 2.40957 20.1189 3.64423 22.0175C5.14823 24.3295 6.6349 25.9482 8.32156 27.1109C8.62156 27.3175 8.94156 27.5015 9.24956 27.6775C9.38823 27.7575 9.52823 27.8375 9.66423 27.9189L9.92156 28.0695L9.8669 28.1282C9.70556 28.3015 9.5589 28.4615 9.4029 28.6135C8.37756 29.6055 7.6069 30.7495 7.1149 32.0109C6.74556 32.9549 6.43756 33.8989 6.20023 34.8175C5.82156 36.2722 5.84556 37.8055 6.2709 39.3762C7.00156 42.0722 8.4149 44.5029 10.4722 46.5962C12.1589 48.3122 14.2962 49.6615 17.0069 50.7215C19.1856 51.5695 21.4856 51.7749 23.7962 51.3002C25.1389 51.0255 26.4149 50.6242 27.5909 50.1095C27.7362 50.0469 27.8856 49.9895 28.0469 49.9269L28.1416 50.3109C28.2149 50.6135 28.2829 50.9162 28.3522 51.2189C28.4962 51.8602 28.6469 52.5242 28.8376 53.1682C29.6962 56.0802 31.3589 58.4855 33.7789 60.3175C34.4029 60.7909 35.1496 61.3282 35.9562 61.7322C36.4269 61.9682 36.9029 62.1709 37.3856 62.3415C39.6989 63.1615 42.1442 63.2322 44.6736 62.5469C46.6042 62.0255 48.2922 60.9109 49.8336 59.1402C50.9642 57.8402 51.8376 56.3309 52.4269 54.6495C52.6869 53.9055 52.8042 53.2815 52.7949 52.6909C52.7909 52.4082 52.7856 51.9802 52.3549 51.7709C52.2322 51.7135 52.0976 51.7055 51.9629 51.7549C51.7389 51.8362 51.5362 52.0669 51.3896 52.4002C51.3296 52.5375 51.2789 52.6775 51.2282 52.8189C51.1949 52.9095 51.1616 53.0015 51.1256 53.0922C50.3362 55.0802 49.2749 56.7282 47.8816 58.1335C44.1042 61.9388 38.8856 61.3602 35.6829 58.8229C34.6776 58.0269 33.5416 57.0322 32.7416 55.7055C32.2602 54.9082 31.8962 54.1402 31.6309 53.3602C31.2456 52.2322 30.9496 50.9935 30.7229 49.5749C30.7042 49.4589 30.6949 49.3415 30.6856 49.2242C30.6749 49.0975 30.6642 48.9735 30.6456 48.8495C30.5922 48.4975 30.7042 48.2495 31.0469 47.9655C32.8589 46.4615 34.1922 44.5295 35.1242 42.0589C35.3256 41.5269 35.4896 40.9535 35.6162 40.3562C35.7002 39.9562 35.7456 39.5562 35.7949 39.1322C35.8122 38.9762 35.8322 38.8162 35.8522 38.6535L35.8989 38.6202C35.9936 38.5469 36.1016 38.4642 36.2202 38.4002C37.1522 37.8935 38.1749 37.5829 39.2616 37.4789C40.9296 37.3175 42.5496 37.4522 44.0749 37.8802C44.7109 38.0589 45.4416 38.3095 46.0989 38.8349C45.9602 39.4402 46.0696 40.0029 46.1856 40.4349C46.2136 40.5389 46.2256 40.6482 46.2349 40.7575C46.2589 41.0109 46.1749 41.1749 45.9629 41.2909C45.8749 41.3389 45.7856 41.3855 45.6962 41.4309C45.5082 41.5269 45.3202 41.6229 45.1442 41.7362C44.7549 41.9882 44.5282 42.2922 44.4722 42.6415C44.4189 42.9882 44.5376 43.3442 44.8282 43.7002C44.9856 43.8922 45.1976 44.0682 45.4456 44.2109C45.5829 44.2922 45.7336 44.3095 45.8696 44.2655C45.9789 44.2295 46.1322 44.1375 46.2402 43.8975C46.2669 43.8389 46.2682 43.7722 46.2442 43.7135L45.9829 43.0735C46.0856 42.9602 46.2202 42.9122 46.3829 42.8535C46.4656 42.8242 46.5469 42.7949 46.6229 42.7575C47.6349 42.2669 48.0336 41.5895 47.9522 40.4935C47.9416 40.3602 47.9229 40.2269 47.9016 40.0935C47.8816 39.9562 47.8602 39.8189 47.8536 39.6815C47.8522 39.6642 47.8589 39.6322 47.8669 39.6042C47.9296 39.6002 47.9896 39.6109 48.0096 39.6229C48.1429 39.7242 48.2562 39.8629 48.3776 40.0082L48.4709 40.1202C48.5216 40.1802 48.5682 40.2429 48.6149 40.3055C48.7002 40.4202 48.7869 40.5349 48.8896 40.6335C49.0149 40.7522 49.2962 40.8642 49.4842 40.7589C49.6549 40.6602 49.8429 40.4575 49.8562 40.2402C49.8976 39.5922 49.6496 38.9615 49.1776 38.5082C48.6989 38.0522 48.0482 37.8322 47.3949 37.9042C47.2936 37.9149 47.1936 37.9295 47.1082 37.9402C46.9989 37.8349 46.8909 37.7295 46.7856 37.6269C46.5029 37.3469 46.2336 37.0829 45.9309 36.8482C45.0456 36.1655 43.9416 35.7255 42.4562 35.4655C40.2282 35.0722 38.0349 35.2815 35.9416 36.0855C35.8456 36.1215 35.7496 36.1549 35.6429 36.1935L35.6122 36.0562C35.6976 36.0202 35.7762 35.9895 35.8562 35.9655C37.4389 35.5109 38.8709 34.7202 40.2362 33.5482L40.6082 33.2309C40.8576 33.0202 41.1056 32.8082 41.3509 32.5909C41.5122 32.4469 41.6949 32.2842 41.8309 32.0869C41.9976 31.8455 42.1682 31.6055 42.3389 31.3655C42.7989 30.7149 43.2749 30.0415 43.6736 29.3335C44.6269 27.6402 45.9282 26.1362 47.5429 24.8629C50.2282 22.7442 53.4149 21.3989 57.0189 20.8695C57.0402 20.8655 57.0629 20.8642 57.0882 20.8642C56.1416 22.2949 55.1962 23.7229 54.2482 25.1482L53.4949 26.2762C53.1349 26.8122 52.7762 27.3495 52.4202 27.8895C52.2296 28.1749 52.0976 28.4135 52.0002 28.6402C51.9256 28.8082 51.9682 29.1095 52.1309 29.2455C52.2682 29.3602 52.5536 29.5002 52.7709 29.4069C53.0269 29.2989 53.2642 29.1322 53.4362 28.9389C54.6362 27.6082 55.8896 26.1535 56.9296 24.5442C57.5562 23.5775 58.1896 22.6149 58.8242 21.6535L59.3882 20.7975C59.4162 20.7535 59.4509 20.7149 59.4856 20.6762L59.4869 20.6749C61.3629 20.3175 65.5149 20.8562 67.2522 21.6655C67.2269 21.6922 67.2002 21.7189 67.1736 21.7442L65.8589 22.9642C64.9536 23.8042 64.0482 24.6429 63.1522 25.4909C62.8669 25.7615 62.6082 26.0615 62.3589 26.3535L62.0936 26.6589C61.9909 26.7775 61.8722 26.9109 61.8469 27.0829C61.8336 27.1775 61.8029 27.4975 61.9709 27.6909C62.1082 27.8509 62.4082 27.9375 62.6122 27.8775C62.8842 27.7989 63.1069 27.6389 63.2469 27.5189L63.5642 27.2442C64.3002 26.6055 65.0616 25.9442 65.7869 25.2669C66.3656 24.7255 66.9282 24.1709 67.4922 23.6149C67.8202 23.2909 68.1482 22.9669 68.4802 22.6455C68.5936 22.5349 68.7176 22.4362 68.8402 22.3362L68.9469 22.2682C69.0176 22.2855 69.0856 22.3015 69.1456 22.3295C71.4429 23.3362 73.2442 24.3562 74.8202 25.5402C75.3429 25.9349 75.9029 26.2895 76.4456 26.6322L76.8909 26.9162C77.0656 27.0282 77.2762 27.1229 77.5269 27.2029C77.8376 27.3015 78.1389 27.2229 78.3562 26.9882C78.5842 26.7442 78.6096 26.3295 78.4136 26.0215C78.3002 25.8429 78.1602 25.6389 77.9749 25.4735C77.8029 25.3202 77.6322 25.1642 77.4616 25.0082C76.9602 24.5495 76.4416 24.0762 75.8802 23.6695C73.3322 21.8255 70.5242 20.4135 67.5029 19.4709C64.7629 18.6135 61.8656 18.3789 58.8882 18.7709C55.9869 19.1522 53.8096 19.6935 51.8309 20.5215C49.1229 21.6549 47.2042 22.8189 45.6109 24.2962C45.5989 24.3082 45.5882 24.3175 45.5749 24.3282C45.5776 24.3175 45.5789 24.3055 45.5816 24.2949C46.2282 20.1802 44.9776 16.5509 41.7576 13.1975C41.0256 12.6402 40.3922 11.9962 39.7789 11.3735C39.3416 10.9309 38.8909 10.4722 38.4122 10.0522C38.0629 9.74419 37.7069 9.47886 37.3562 9.26419C36.9309 9.00419 36.4856 8.77085 36.0549 8.54419L35.7402 8.37885C34.5922 7.76819 33.3309 7.50552 31.9869 7.59219C28.8336 7.79485 26.2109 8.66152 23.9709 10.2402C22.3762 11.3642 21.0776 12.9109 20.1109 14.8375C20.0656 14.9269 20.0189 15.0162 19.9736 15.1042C19.9589 15.0335 19.9456 14.9629 19.9349 14.8909C19.5202 12.0775 18.3816 9.40552 16.5522 6.95086C15.2482 5.20019 13.5122 3.70552 11.2442 2.37885C9.9389 1.61485 8.46956 0.976189 6.7589 0.422855C5.5669 0.0375214 4.4709 -0.0824776 3.4069 0.0548553C2.47756 0.174854 1.80023 0.662853 1.39356 1.50285C0.774898 2.77618 0.393565 4.19886 0.190898 5.97886Z" fill="#0A1C2D"/>
<path d="M57.6917 41.9899C57.4797 42.0032 57.2304 42.0192 56.9544 41.9219C56.8371 41.8805 56.7157 41.8192 56.5904 41.7272C56.5277 41.6819 56.4917 41.6085 56.4944 41.5312C56.4971 41.4539 56.5371 41.3819 56.6024 41.3419C57.1424 40.9939 57.7264 40.9045 58.2904 40.8165C58.5491 40.7765 58.7997 40.7379 59.0437 40.6765C58.9584 40.6259 58.8784 40.5792 58.7957 40.5392L57.6904 39.9819C56.2891 39.2752 54.8877 38.5699 53.4797 37.8779C52.5944 37.4419 51.7011 37.0219 50.8091 36.6019L49.5184 35.9925C49.3757 35.9259 49.2344 35.8539 49.0957 35.7765C48.8491 35.6365 48.7331 35.3899 48.7651 35.0805C48.8011 34.7432 49.0811 34.4899 49.4317 34.4805C49.6344 34.4739 49.8971 34.4765 50.1397 34.5512C50.5117 34.6685 50.9077 34.8032 51.2811 34.9965L51.4491 35.0832C53.4757 36.1245 55.5704 37.2005 57.6131 38.2925C58.4531 38.7392 59.2917 39.2272 60.1037 39.6979C60.4491 39.8979 60.7944 40.0979 61.1437 40.2979C62.3144 40.1019 63.5411 39.7779 64.8904 39.3072C67.3837 38.4365 69.3344 37.4632 71.0317 36.2419L71.0904 36.2032L69.3344 35.6139C67.8957 35.1285 66.4517 34.6432 65.0024 34.1685C63.5197 33.6832 62.0331 33.2072 60.5344 32.7299L58.5304 32.0885C58.4464 32.0552 58.3877 31.9925 58.3717 31.9072L58.2771 31.3939C58.1891 31.4045 58.1077 31.4139 58.0251 31.4285C54.7317 32.0139 52.2237 32.5445 49.8984 33.1512C48.9997 33.3845 48.0771 33.5659 47.1837 33.7405C46.8611 33.8032 46.5384 33.8672 46.2171 33.9325C45.9384 33.9899 45.6611 34.0032 45.4477 34.0072C45.1077 34.0165 44.8411 33.8485 44.7171 33.5459C44.5837 33.2192 44.7424 32.8392 45.0957 32.6379C45.3437 32.4979 45.6064 32.3872 45.8584 32.2792L45.9477 32.2405C48.3797 31.2125 50.9144 30.6579 52.8531 30.2899C55.1104 29.8619 57.7371 29.3699 60.3384 28.9512C63.9304 28.3752 66.9464 28.0525 69.8304 27.9379C70.7224 27.9019 71.6291 27.9059 72.5051 27.9099L73.4091 27.9139C73.6651 27.9139 73.9371 27.9192 74.1944 27.9885C74.4091 28.0392 74.5731 28.2579 74.6384 28.4312C74.7237 28.6552 74.4824 28.9339 74.3211 28.9992C74.0011 29.1312 73.7357 29.2099 73.4811 29.2459C73.1437 29.2952 72.8037 29.3325 72.4624 29.3699C72.1651 29.4019 71.8677 29.4339 71.5717 29.4752C67.9184 29.9792 64.2677 30.4872 60.6171 31.0005C60.9304 31.0925 61.2451 31.1805 61.5584 31.2685C62.3504 31.4925 63.1691 31.7232 63.9611 32.0019C65.7971 32.6552 67.6464 33.3285 69.4851 34.0032C70.3397 34.3165 71.1944 34.6299 72.0504 34.9405C72.1797 34.9819 72.3051 35.0205 72.4411 35.0565L72.5411 35.0845L72.5757 35.0565C72.6491 34.9992 72.7197 34.9445 72.7784 34.8805L73.2971 34.3139C73.8131 33.7485 74.3477 33.1645 74.8477 32.5712C75.0637 32.3125 75.2611 32.0232 75.4531 31.7432C75.6197 31.4979 75.7864 31.2539 75.9691 31.0219C76.3157 30.5819 76.6251 30.2552 76.9437 29.9952C77.1864 29.7992 77.4731 29.7499 77.7637 29.8832C78.0477 30.0152 78.2291 30.3019 78.2344 30.6312C78.2397 30.8525 78.1864 31.0712 78.1371 31.2379C78.0037 31.7045 77.7611 32.1499 77.3984 32.5979L77.3411 32.6699C77.0131 33.0739 76.6851 33.4805 76.3437 33.8739C75.0824 35.3339 73.8491 36.4512 72.5757 37.2872C69.9237 39.0299 66.9531 40.3312 63.7424 41.1565C61.9771 41.6099 60.0371 41.8805 57.8104 41.9819L57.6917 41.9899Z" fill="#0A1C2D"/>
<path d="M50.3798 41.0907C50.9358 41.1373 51.3638 41.476 51.5918 42.04C51.6491 42.1827 51.5825 42.36 51.4891 42.4547C51.4025 42.5413 51.2425 42.608 51.1011 42.568C51.0171 42.5413 50.9385 42.5093 50.8598 42.4747C50.8171 42.4533 50.7771 42.4347 50.7251 42.416C50.2985 42.2653 49.6771 42.436 49.4811 42.7627C49.1438 43.328 49.0211 43.892 49.1198 44.44C49.2371 45.092 49.6211 45.652 50.2051 46.0187C50.8105 46.396 51.5451 46.508 52.1745 46.3413C52.2425 46.104 52.1811 45.8387 52.1131 45.5547C52.0491 45.2787 51.9705 45.0053 51.8905 44.7307C51.8345 44.5387 51.7798 44.3467 51.7278 44.1533C51.6385 43.8107 51.5451 43.4413 51.4785 43.0693C51.4158 42.7187 51.5771 42.4533 51.9251 42.3453C52.0065 42.3187 52.0998 42.34 52.1598 42.4027C52.1945 42.4373 52.2331 42.4707 52.2731 42.5053C52.3811 42.6013 52.5065 42.7107 52.5958 42.856C53.1985 43.8373 53.6078 44.788 53.8465 45.764C53.8958 45.9667 53.9225 46.1667 53.9238 46.3613C53.9291 47.328 53.2958 47.988 52.3451 48.0013C52.0011 48.0067 51.6638 47.9573 51.3691 47.8587C51.2545 47.82 51.1358 47.78 51.0131 47.736C50.6065 47.592 50.1625 47.4187 49.7305 47.2027C48.2065 46.4413 47.4878 44.652 48.0931 43.1307C48.3051 42.596 48.6251 42.1053 48.8785 41.736C49.2011 41.264 49.7345 41.0347 50.3798 41.0907Z" fill="#0A1C2D"/>
<path d="M47.2092 48.6688C47.2039 48.7822 47.1986 48.8955 47.1986 49.0075C47.1972 49.0915 47.1812 49.1782 47.1652 49.2635C47.1572 49.3048 47.1506 49.3395 47.1466 49.3675C47.2492 49.2822 47.3399 49.1555 47.4319 48.9728C47.4972 48.8422 47.5572 48.7088 47.6159 48.5742C47.6799 48.4302 47.7439 48.2848 47.8159 48.1435C47.9279 47.9222 48.0492 47.6888 48.2092 47.4808C48.4346 47.1942 48.7079 47.1008 49.0412 47.2168C49.3279 47.3275 49.4706 47.6315 49.4146 48.0075C49.2812 48.9008 48.9186 49.6848 48.3359 50.3382C47.9892 50.7248 47.5919 50.9768 47.1546 51.0902C46.8932 51.1568 46.6412 51.1502 46.4212 51.0728C46.3399 51.0435 46.2626 51.0048 46.1919 50.9568C45.9386 50.7862 45.7732 50.5035 45.7279 50.1622C45.6839 49.8355 45.7186 49.5048 45.7599 49.1942C45.7919 48.9448 45.8426 48.6968 45.8999 48.4208L45.9319 48.2675C45.9252 48.2675 45.9199 48.2662 45.9132 48.2662C45.7372 48.2528 45.5866 48.2395 45.4332 48.1982C45.0546 48.0915 44.7466 47.7048 44.7612 47.2808C44.7692 47.0955 44.8972 46.9208 45.0146 46.8195C45.1412 46.7128 45.3359 46.7355 45.3746 46.7408C45.4826 46.7555 45.5586 46.8008 45.6052 46.8688C45.7186 47.0382 45.8506 47.0395 46.1359 47.0355L46.2199 47.0328C46.7812 47.0288 47.1172 47.3235 47.1946 47.8848C47.2319 48.1488 47.2199 48.4128 47.2092 48.6688Z" fill="#0A1C2D"/>
<path d="M54.0945 48.1663C54.0092 48.0716 53.7465 47.7836 53.9185 47.4169C54.1012 47.0276 54.4892 47.1156 54.6559 47.1529C54.7572 47.1769 54.8559 47.2076 54.9559 47.2383C55.0572 47.2703 55.1585 47.3036 55.2625 47.3223C55.5372 47.3769 55.7092 47.3889 55.8559 47.3063C55.8465 47.1969 55.7825 47.0983 55.6852 46.9543C55.6532 46.9063 55.6212 46.8583 55.5905 46.8089L55.5079 46.6729C55.3119 46.3516 55.1159 46.0289 54.9412 45.6969C54.8519 45.5303 54.8705 45.2249 55.0239 45.0823C55.1599 44.9556 55.4052 44.8383 55.6225 44.8796C55.8372 44.9196 56.0665 45.0476 56.2159 45.2063C56.5639 45.5743 56.8852 45.9529 57.1759 46.3343C57.3265 46.5343 57.4092 46.7783 57.4705 46.9916C57.5892 47.4089 57.5492 47.8196 57.3585 48.1503C57.1692 48.4769 56.8359 48.7129 56.4212 48.8156C55.9452 48.9329 55.4705 48.9089 55.0039 48.7423C54.8039 48.6716 54.6052 48.5756 54.4105 48.4543C54.2852 48.3769 54.1879 48.2703 54.0945 48.1663Z" fill="#0A1C2D"/>
<path d="M52.1195 41.3499L52.0902 41.3526C51.9182 41.3726 51.7382 41.3926 51.5529 41.3846C51.3475 41.3752 51.1689 41.1992 51.0982 41.0939C50.9875 40.9272 51.0622 40.6752 51.1555 40.5632C51.4609 40.2059 51.8835 39.9926 52.4142 39.9299C52.7182 39.8939 53.0035 40.0392 53.1769 40.3166C53.2795 40.4792 53.3649 40.6512 53.4542 40.8312L53.4982 40.9179C53.5555 40.9086 53.6115 40.8992 53.6649 40.8846C53.7222 40.8699 53.7782 40.8486 53.8342 40.8272C53.9249 40.7939 54.0155 40.7606 54.1089 40.7406C54.5235 40.6539 54.7822 40.7699 54.9249 40.8832C55.0649 40.9939 55.2342 41.2112 55.2435 41.6192C55.2569 42.2086 55.0462 42.7766 54.6022 43.3552C54.4675 43.5299 54.2609 43.6526 54.0622 43.6752C53.9822 43.6832 53.9075 43.6752 53.8395 43.6512C53.7929 43.6339 53.7502 43.6099 53.7129 43.5779C53.4275 43.3392 53.5302 43.0219 53.5942 42.8259C53.6262 42.7299 53.6689 42.6339 53.7142 42.5392C53.7595 42.4432 53.8009 42.3526 53.8249 42.2659C52.7862 42.4219 52.5955 42.3059 52.1195 41.3499Z" fill="#0A1C2D"/>
<path d="M52.3245 51.5855C52.1392 51.5295 51.9192 51.4628 51.6872 51.3802C51.5232 51.3215 51.3525 51.2562 51.1845 51.1842C50.9898 51.1002 50.8445 50.8708 50.8018 50.6895C50.7525 50.4828 50.9178 50.2082 51.0898 50.1282C51.3832 49.9908 51.6258 49.9175 51.8498 49.9002C51.9952 49.8908 52.1298 49.9188 52.2885 49.9602C52.1925 49.6695 52.1138 49.4308 52.0405 49.1882C51.8778 48.6522 52.1965 48.4682 52.2978 48.4255C52.5512 48.3162 52.8485 48.3748 52.9632 48.4042C53.1298 48.4482 53.3232 48.5722 53.4565 48.7335C53.9765 49.3695 54.1178 50.0975 53.8672 50.8362C53.6458 51.4828 53.0125 51.7908 52.3245 51.5855Z" fill="#0A1C2D"/>
<path d="M51.6793 44.9398C51.7819 45.3078 51.6126 45.7358 51.2926 45.9145C51.0419 46.0545 50.7739 46.0785 50.5139 45.9851C50.4353 45.9585 50.3593 45.9198 50.2833 45.8718C50.2113 45.8251 50.1539 45.7665 50.1073 45.7198L50.0646 45.6771C50.0553 45.6691 50.0473 45.6611 50.0406 45.6518C49.7139 45.2491 49.5286 44.8345 49.4726 44.3838C49.4326 44.0518 49.5713 43.7651 49.8459 43.6145C50.0939 43.4798 50.3806 43.5118 50.6273 43.7078C50.8833 43.9118 51.1499 44.1225 51.3846 44.3678C51.5126 44.5011 51.6113 44.6931 51.6793 44.9398Z" fill="#0A1C2D"/>
<path d="M41.9359 32.5035C41.8346 32.4035 41.7986 32.2155 41.8559 32.0888C41.9052 31.9742 42.0066 31.8928 42.1359 31.8662C42.3012 31.8342 42.4892 31.8968 42.6239 32.0288C42.6506 32.0555 42.6852 32.1422 42.6972 32.1768C42.7159 32.2342 42.7466 32.3315 42.7132 32.4355C42.6759 32.5462 42.5826 32.6262 42.4586 32.6568C42.3599 32.6795 42.2492 32.6702 42.1479 32.6355C42.0679 32.6062 41.9932 32.5608 41.9359 32.5035Z" fill="#0A1C2D"/>
<path d="M16.2093 31.8915C16.232 31.8128 16.2586 31.7421 16.2906 31.6795C16.48 31.3021 16.7466 31.1915 17.152 31.3181C17.4893 31.4248 17.7346 31.6301 17.976 31.9915L17.9586 32.2555C17.9426 32.5061 17.9266 32.7381 17.9186 32.9715C17.912 33.1608 17.8653 33.2875 17.7626 33.3941C17.644 33.5155 17.528 33.6395 17.412 33.7635C17.2173 33.9715 17.0226 34.1795 16.816 34.3768C16.4346 34.7435 16.292 34.7675 15.8666 34.5341C15.6093 34.3941 15.376 34.1661 15.1573 33.9448C15.0653 33.8488 15.068 33.7155 15.1653 33.5448C15.2293 33.4355 15.312 33.3301 15.4066 33.2395C15.796 32.8701 16.0666 32.4168 16.2093 31.8915ZM17.0626 30.1261C16.256 30.0515 15.6226 30.4461 15.3213 31.2061C15.264 31.3541 15.216 31.5075 15.1733 31.6621C15.0906 31.9528 14.928 32.1941 14.648 32.4435C14.176 32.8608 13.9226 33.3528 13.916 33.8661C13.908 34.3821 14.1493 34.8821 14.6093 35.3141C14.868 35.5555 15.184 35.7768 15.5546 35.9701C15.6653 36.0288 15.776 36.0768 15.8866 36.1155C16.5506 36.3515 17.1826 36.2355 17.624 35.7835C18.3146 35.1581 18.7226 34.5355 19.084 33.9875C19.148 33.8901 19.18 33.7835 19.2093 33.6915C19.3853 33.1155 19.0746 31.4701 18.712 31.0061C18.3026 30.4848 17.748 30.1875 17.0626 30.1261Z" fill="#0A1C2D"/>
<path d="M21.6893 35.1442C21.6119 35.1749 21.5319 35.2069 21.4479 35.2429L21.4533 35.2575C21.4946 35.4109 21.5346 35.5549 21.5559 35.7015C21.6519 36.3402 21.3973 36.8402 20.8199 37.1482C20.3253 37.4109 19.6679 37.4295 19.1119 37.2322C18.8839 37.1522 18.6746 37.0349 18.4999 36.8855C18.2719 36.6895 18.1266 36.4215 18.1333 36.2055C18.1359 36.0802 18.1893 35.9735 18.2786 35.9029C18.5799 35.6709 18.8693 35.8242 19.0426 35.9175L19.1133 35.9535C19.4493 36.1202 19.7173 36.2122 20.0159 36.1589C20.1746 36.1295 20.2773 36.0815 20.3226 36.0135C20.3679 35.9469 20.3733 35.8309 20.3373 35.6695C20.3306 35.6389 20.3199 35.6109 20.3093 35.5802C20.2866 35.5202 20.2666 35.4615 20.2546 35.4002C20.1399 34.7522 20.3386 34.3429 20.9199 34.0322C21.0213 33.9775 21.1279 33.9335 21.2359 33.8909C21.3253 33.8549 21.4159 33.8189 21.5013 33.7735L21.5079 33.7709C21.2879 33.6855 21.0666 33.5975 20.8559 33.4895C20.6599 33.3895 20.6306 33.0935 20.6413 32.9469C20.6613 32.7655 20.8546 32.5975 21.0159 32.5669C21.5506 32.4669 22.0906 32.5695 22.5773 32.8615C22.8159 33.0055 22.9413 33.2949 22.9853 33.4135C23.1826 33.9575 22.9813 34.4975 22.4719 34.7882C22.2293 34.9255 21.9799 35.0269 21.6893 35.1442Z" fill="#0A1C2D"/>
<path d="M16.663 30.0315C16.5084 30.0648 16.3657 30.0315 16.2697 29.9341C16.211 29.8741 16.159 29.8088 16.1057 29.7421C16.0457 29.6661 15.9884 29.5941 15.927 29.5435C15.9017 29.5235 15.8604 29.5075 15.803 29.4875C15.803 29.4888 15.8017 29.4915 15.8017 29.4941C15.7524 29.6141 15.7137 29.7101 15.6977 29.8021C15.579 30.4648 15.1564 30.8968 14.443 31.0835C14.1697 31.1555 13.8884 31.2488 13.607 31.3648C13.5524 31.3848 13.495 31.4315 13.4257 31.4848L13.7604 32.1195C13.7937 32.1821 13.7964 32.2568 13.7684 32.3221C13.7404 32.3888 13.683 32.4368 13.6137 32.4555C13.359 32.5221 13.1604 32.5061 12.999 32.4501C12.763 32.3661 12.611 32.1928 12.495 32.0595C12.219 31.7408 12.107 31.3688 12.1804 31.0088C12.2524 30.6555 12.4977 30.3621 12.8684 30.1821C13.215 30.0141 13.535 29.9181 13.8217 29.8955C14.4297 29.8475 14.663 29.6448 14.6844 29.1461C14.6897 29.0195 14.731 28.9048 14.7697 28.8061C14.8844 28.5075 15.107 28.2741 15.3924 28.1488C15.6924 28.0181 16.0124 28.0035 16.3537 28.1408C16.9577 28.3795 17.2724 29.1088 17.0404 29.7328C16.987 29.8755 16.839 29.9928 16.663 30.0315Z" fill="#0A1C2D"/>
<path d="M11.8414 33.7307C11.9081 33.8014 11.9841 33.9307 11.9667 34.1507C11.9587 34.2294 11.9147 34.2987 11.8441 34.336L11.6907 34.416C11.5761 34.476 11.4547 34.5374 11.3427 34.6134C11.3281 34.624 11.3147 34.6334 11.3041 34.6414L11.4347 34.6947C12.1654 34.9814 12.2174 35.04 12.3601 35.7427C12.3787 35.832 12.3987 35.936 12.4254 36.0547C12.5987 36.048 12.7147 35.948 12.8814 35.7494C12.9187 35.704 12.9547 35.6574 12.9921 35.6107C13.0894 35.484 13.1907 35.3547 13.3201 35.244C13.4601 35.124 13.7161 35.0934 13.9001 35.1694C14.0761 35.2494 14.2161 35.4854 14.2027 35.6747C14.1734 36.1534 13.9227 36.6094 13.5174 36.9254C13.1121 37.2414 12.6107 37.3734 12.1401 37.2867C12.0641 37.2734 11.9894 37.2534 11.9214 37.2294C11.5014 37.08 11.2707 36.7467 11.2507 36.2547C11.2454 36.1134 11.2494 35.9707 11.2561 35.816C11.0934 35.8134 10.9427 35.8107 10.7881 35.7814C10.3121 35.688 10.0014 35.2374 10.0827 34.7707C10.1921 34.128 10.7801 33.62 11.4507 33.5907C11.6534 33.584 11.7747 33.6627 11.8414 33.7307Z" fill="#0A1C2D"/>
<path d="M19.7471 31.6058C19.7151 31.5938 19.6844 31.5818 19.6511 31.5671C19.5137 31.5084 19.4911 31.3711 19.4764 31.2898C19.4724 31.2671 19.4684 31.2404 19.4617 31.2138C19.4377 31.1191 19.4737 31.0191 19.5524 30.9631C19.6737 30.8778 19.8097 30.8044 19.9484 30.7311C20.3244 30.5311 20.6337 30.3658 20.7004 29.9391L20.6831 29.9444C20.4537 30.0311 20.2617 30.1031 20.0671 30.1684C19.3311 30.4164 18.9217 30.1764 18.7097 29.9338C18.5191 29.7164 18.3231 29.6258 18.0124 29.6098C17.8271 29.5991 17.6537 29.4084 17.6191 29.2444C17.5817 29.0711 17.6737 28.8764 17.7804 28.7791C18.2537 28.3578 18.7671 28.3684 19.2231 28.8124C19.3244 28.9111 19.4244 29.0138 19.5257 29.1204L19.5777 29.1724L19.7591 29.1164C19.9937 29.0431 20.2177 28.9751 20.4444 28.9244C21.0524 28.7924 21.4991 29.0724 21.6697 29.6964C21.8191 30.2444 21.6817 30.7271 21.2737 31.0951C20.9364 31.3978 20.4351 31.8498 19.7471 31.6058Z" fill="#0A1C2D"/>
<path d="M14.6057 37.2705C14.6377 37.2025 14.7017 37.1545 14.7764 37.1411C14.8524 37.1291 14.9284 37.1531 14.9817 37.2078L15.4364 37.6611L15.755 37.7078C15.9937 37.7425 16.191 37.7705 16.387 37.7905C16.5457 37.8065 16.571 37.7891 16.623 37.6385C16.6377 37.5931 16.6444 37.5438 16.6537 37.4931C16.6697 37.3891 16.691 37.2705 16.7537 37.1598C16.8497 36.9958 17.0364 36.7958 17.2497 36.7705C17.467 36.7451 17.7204 36.8958 17.839 37.0518C17.9724 37.2291 18.0604 37.4611 18.0737 37.6745C18.103 38.1011 17.9497 38.5011 17.6564 38.7745C17.367 39.0465 16.9617 39.1678 16.5444 39.1105C16.1604 39.0585 15.7084 38.9891 15.2697 38.8665C15.2377 38.8571 15.207 38.8478 15.175 38.8358C14.7124 38.6718 14.427 38.3025 14.3897 37.8091C14.379 37.6571 14.4524 37.5331 14.5244 37.4145C14.551 37.3705 14.5804 37.3238 14.6057 37.2705Z" fill="#0A1C2D"/>
<path d="M34.8355 20.3382C34.8981 20.3168 34.9688 20.3248 35.0248 20.3582L35.6901 20.7395L35.6928 20.7408C35.7741 19.8528 36.3728 19.5182 37.0635 19.3675C37.0008 19.3062 36.9421 19.2475 36.8875 19.1875C36.5901 18.8675 36.4755 18.4608 36.5448 17.9755C36.5835 17.7142 36.7821 17.4795 37.0421 17.3942C37.2595 17.3208 37.4795 17.3675 37.6315 17.5182C37.9168 17.8022 38.2568 17.9968 38.6168 18.2008C38.7515 18.2782 38.8861 18.3555 39.0181 18.4355C39.4315 18.6915 39.6701 19.0875 39.6728 19.5248C39.6741 19.9622 39.4381 20.3622 39.0235 20.6222C38.7808 20.7742 38.4981 20.8555 38.2795 20.9088C38.0688 20.9582 37.8555 20.9888 37.6208 21.0208L37.4555 21.0448L37.4221 21.1675C37.3768 21.3568 37.3355 21.5222 37.2795 21.6835C37.1488 22.0608 36.9155 22.3368 36.6048 22.4795C36.3155 22.6128 35.9861 22.6195 35.6488 22.5008C35.6315 22.4942 35.6128 22.4875 35.5968 22.4808C35.3341 22.3782 35.0715 22.2115 34.8381 22.0008C34.3435 21.5515 34.4115 21.0968 34.6955 20.4648C34.7221 20.4048 34.7728 20.3582 34.8355 20.3382Z" fill="#0A1C2D"/>
<path d="M30.0486 19.6598C30.2633 19.6931 30.4473 19.8251 30.5433 20.0145C30.6206 20.1651 30.6726 20.3411 30.6939 20.5211C30.7099 20.6398 30.7153 20.7598 30.7179 20.8958C31.6726 20.4545 31.8459 20.4651 32.7379 20.8505C32.7753 20.7945 32.7966 20.7145 32.8246 20.5865C32.8433 20.4958 32.8633 20.4065 32.8953 20.3238C33.1033 19.7825 33.4939 19.7345 33.7859 19.7891C34.1886 19.8651 34.4379 20.1518 34.4659 20.5745C34.4953 21.0318 34.354 21.4851 34.0446 21.9211C33.5593 22.5998 32.9273 22.8145 32.1099 22.5771C31.9873 22.5425 31.8659 22.4958 31.7513 22.4531L31.7126 22.4385L31.5686 22.5211C31.4113 22.6131 31.2673 22.6985 31.1153 22.7705C30.7086 22.9598 30.2833 22.9891 29.9139 22.8571C29.8206 22.8251 29.7286 22.7798 29.6433 22.7265C29.2299 22.4678 28.9913 22.0078 28.9846 21.4665C28.9793 21.1305 29.0633 20.8038 29.1446 20.4891L29.2033 20.2518C29.2446 20.0798 29.3753 19.9465 29.4713 19.8478C29.6193 19.6971 29.8353 19.6265 30.0486 19.6598Z" fill="#0A1C2D"/>
<path d="M34.1788 17.4462L34.4028 17.5635C34.0361 17.7795 33.6334 17.9075 33.2054 17.9448C32.6721 17.9915 32.1894 17.7862 31.7668 17.3368C31.5254 17.0795 31.4481 16.8142 31.5294 16.5155L32.5388 16.5008C32.5174 16.5368 32.4894 16.5702 32.4708 16.6088C32.4001 16.7462 32.3668 16.9235 32.3801 17.0822C32.4054 17.3902 32.6508 17.6542 32.9761 17.7688C33.0988 17.8128 33.2321 17.8355 33.3708 17.8302C33.6828 17.8182 33.9681 17.6422 34.1254 17.3902C34.1441 17.4088 34.1548 17.4342 34.1788 17.4462ZM33.6921 16.1595C33.8188 16.0995 33.9454 16.0302 34.0748 15.9875C34.1254 15.9702 34.2001 15.9608 34.2508 16.0062C34.3001 16.0502 34.3188 16.1342 34.3001 16.2275C34.2721 16.3768 34.2308 16.5248 34.1921 16.6715C34.1054 16.4408 33.9281 16.2515 33.6921 16.1595ZM26.1481 16.1942C25.8974 16.5848 25.8388 17.0195 25.9854 17.3862C26.1214 17.7195 26.4161 17.9542 26.8094 18.0502C26.8828 18.0688 26.9561 18.0875 27.0508 18.1128L27.0481 18.1408C27.0361 18.2875 27.0254 18.4155 27.0308 18.5422C27.0574 19.1288 27.3441 19.5462 27.8161 19.7142C27.9321 19.7542 28.0588 19.7808 28.1974 19.7915C29.0094 19.8502 29.7388 19.5888 30.3708 19.0142C30.4401 18.9515 30.5628 18.8195 30.5908 18.6542C30.5948 18.6248 30.5948 18.5902 30.6001 18.5582C30.6588 18.6208 30.7041 18.6902 30.7721 18.7488C31.1534 19.0702 31.5534 19.3048 31.9681 19.4515C32.5148 19.6448 33.0881 19.6875 33.6841 19.5755C34.1294 19.4928 34.5161 19.2715 34.7614 19.0995C34.9988 18.9355 35.1454 18.6675 35.2761 18.4315L35.3094 18.3702C35.4934 18.0408 35.3121 17.7755 35.2028 17.6155C35.2001 17.6115 35.1974 17.6075 35.1934 17.6035C35.5228 17.3248 35.7014 16.9822 35.8054 16.6262C35.8174 16.7822 35.9214 16.9568 36.0574 17.0208C36.1521 17.0675 36.2468 17.1075 36.3441 17.1408C36.9508 17.3568 37.5828 17.3435 38.1548 17.0995C38.7788 16.8342 39.2548 16.3235 39.4574 15.6968C39.5908 15.2942 39.5548 14.9222 39.3574 14.6488C39.1614 14.3782 38.8201 14.2275 38.4041 14.2262C38.2361 14.2262 38.0681 14.2448 37.8708 14.2675C37.8588 14.2688 37.8468 14.2702 37.8348 14.2715C37.8361 14.2582 37.8361 14.2448 37.8374 14.2315C37.8508 14.0155 37.8641 13.8115 37.8428 13.6088C37.8174 13.3742 37.7441 13.1262 37.6201 12.8488C37.5014 12.5875 37.2428 12.4395 36.9388 12.4582C36.1494 12.5075 35.5641 12.7715 35.1534 13.2648C34.8561 13.6208 34.8961 14.0248 35.2574 14.3448C35.3241 14.4022 35.4161 14.4182 35.4961 14.3875L36.2988 14.0795C36.2974 14.0955 36.2934 14.1115 36.2921 14.1235L36.2681 14.2595C36.2521 14.3528 36.2348 14.4462 36.2294 14.5395C36.1761 15.2808 36.3574 15.5968 37.0294 15.8622C37.0254 15.8635 37.0214 15.8635 37.0174 15.8635L36.9321 15.8808C36.8481 15.8995 36.7628 15.9155 36.6788 15.9315C36.4921 15.9662 36.3001 16.0022 36.1121 16.0648C35.9974 16.1035 35.9281 16.2022 35.8801 16.2995C35.9134 16.1075 35.9348 15.9155 35.9428 15.7275C35.9641 15.2368 35.7188 14.8155 35.2534 14.5395C34.7854 14.2622 34.2881 14.1595 33.7721 14.2168C33.8534 14.1675 33.9294 14.1035 34.0014 14.0222C34.7254 13.1982 34.8801 11.5848 34.3268 10.6382C34.0988 10.2488 33.7068 10.0022 33.2521 9.96082C32.7748 9.91816 32.3174 10.1102 31.9988 10.4848C31.7788 10.7435 31.6508 11.0582 31.5254 11.3635L31.4988 11.4288C31.4228 11.6168 31.3748 11.8128 31.3254 12.0208C31.3148 12.0688 31.3014 12.1195 31.2894 12.1728L31.1241 12.2062C30.9161 12.2475 30.7308 12.2835 30.5481 12.3368C29.9868 12.4982 29.3174 12.7835 29.1188 13.5622C28.9188 14.3382 29.3628 14.9155 29.7708 15.3302C29.8454 15.4075 29.9321 15.4635 30.0241 15.4955C30.1148 15.5275 30.2108 15.5368 30.3054 15.5195C30.4948 15.4862 30.6548 15.3568 30.7428 15.1622C30.8068 15.0208 31.0041 14.5902 30.7281 14.1542C30.6708 14.0675 30.6134 13.9822 30.5574 13.8995L30.5428 13.8782C30.5841 13.7862 30.6734 13.7422 30.8721 13.6982C31.0454 13.6582 31.2494 13.6208 31.4388 13.6315C32.0148 13.6648 32.4241 13.3942 32.6534 12.8288C32.7094 12.6902 32.7628 12.5475 32.8161 12.4048C32.8681 12.2608 32.9201 12.1182 32.9788 11.9768C32.9814 11.9702 32.9841 11.9635 32.9868 11.9568C33.0734 12.2142 33.0108 12.6168 32.7974 13.9555C32.7814 14.0528 32.8294 14.1488 32.9148 14.1968C33.0321 14.2608 33.1454 14.2955 33.2548 14.3128C32.9961 14.3782 32.7374 14.4408 32.4788 14.5022L32.0814 14.5968L32.0454 14.8408L32.0014 14.6128C30.9494 14.8182 30.3081 15.4368 30.0934 16.4488C29.9814 16.9808 30.0054 17.4395 30.1441 17.8408C30.0761 17.8262 30.0081 17.8035 29.9454 17.8048C29.7801 17.8102 29.6254 17.8662 29.4881 17.9168L29.3614 17.9608C29.2361 18.0022 29.1108 18.0422 28.9721 18.0888C28.9841 18.0262 28.9948 17.9675 29.0028 17.9088C29.0801 17.3315 28.8361 16.9728 28.2868 16.8502C28.1388 16.8168 27.9868 16.8048 27.8361 16.7928C27.7388 16.7848 27.6441 16.7782 27.5494 16.7622C27.5054 16.7555 27.4614 16.7462 27.4188 16.7342C27.4948 16.6462 27.6041 16.5915 27.7508 16.5222C27.8828 16.4595 27.9908 16.4208 28.0988 16.3835C28.2201 16.3408 28.3414 16.2982 28.4574 16.2435C28.6281 16.1622 28.7468 16.0075 28.7814 15.8195C28.8188 15.6182 28.7548 15.4062 28.6094 15.2528C28.3654 14.9995 28.0721 14.9128 27.7881 15.0102C27.2614 15.1902 26.5988 15.4888 26.1481 16.1942Z" fill="#0A1C2D"/>
<path d="M16.1116 32.794L16.1783 32.7166C16.1969 32.6926 16.2209 32.674 16.2476 32.6593L16.3449 32.6046C16.4396 32.5513 16.5409 32.494 16.6463 32.4513C16.7783 32.398 16.9356 32.3966 17.0809 32.466C17.2343 32.5326 17.3516 32.6486 17.4049 32.786C17.5129 33.0673 17.4769 33.3926 17.3076 33.654C17.1543 33.8913 16.9143 34.038 16.6489 34.0526C16.5676 34.058 16.4849 34.0433 16.4023 34.014C16.2516 33.9606 16.1116 33.8606 16.0143 33.7593C15.8063 33.542 15.7929 33.2206 15.9796 32.9606C16.0183 32.9046 16.0609 32.8526 16.1116 32.794Z" fill="#0A1C2D"/>
</svg>
