<svg width="594" height="594" viewBox="0 0 594 594" fill="none" xmlns="http://www.w3.org/2000/svg">
<path d="M445.149 445.149C527.098 363.199 527.098 230.332 445.149 148.383C363.199 66.4332 230.332 66.4333 148.383 148.383C66.4333 230.332 66.4333 363.199 148.383 445.149C230.332 527.098 363.199 527.098 445.149 445.149Z" fill="#2BABD9"/>
<path d="M231.814 443.254C230.139 441.299 227.905 439.763 226.369 437.669C223.856 434.318 223.297 429.85 222.32 425.801C219.667 415.33 212.826 406.115 203.611 400.391C202.075 399.413 200.4 398.436 199.981 396.621C199.283 393.27 203.611 391.455 205.845 388.942C209.894 384.195 206.124 377.074 202.354 372.188C191.464 357.807 180.574 343.287 169.544 328.906C166.752 325.136 163.54 321.367 158.235 322.763C156.56 323.182 155.024 324.159 153.488 324.997C151.812 325.974 150.277 326.951 148.601 328.068C146.926 329.046 144.971 330.581 145.25 332.536C145.39 333.653 146.088 334.491 146.647 335.468C147.764 337.562 147.484 340.075 147.065 342.309C146.786 343.985 146.367 345.8 145.39 347.056C144.413 348.453 142.598 349.43 140.922 348.871C139.107 348.313 138.13 346.219 138.13 344.264C138.13 342.309 138.968 340.494 139.386 338.679C139.945 336.725 140.224 334.91 140.364 332.955C141.062 328.068 141.62 323.182 142.318 318.435C140.503 317.597 138.13 318.853 137.851 320.668C137.711 321.506 137.851 322.483 137.571 323.321C137.152 324.717 135.477 325.276 134.081 324.997C132.685 324.717 131.568 323.6 130.73 322.484C128.077 318.993 127.379 314.386 128.636 310.197C129.055 308.94 129.613 307.684 129.473 306.288C129.334 305.31 128.775 304.473 128.636 303.495C128.356 301.261 130.172 299.446 131.428 297.631C132.824 295.816 133.662 292.884 131.707 291.628C131.428 291.488 131.149 291.349 130.87 291.069C129.892 290.092 131.009 288.556 131.568 287.3C132.824 284.228 130.311 280.737 127.24 279.621C125.564 279.062 123.33 278.364 123.191 276.549C123.191 275.851 123.47 275.153 123.33 274.594C123.051 271.941 117.885 271.941 118.025 269.289C118.025 268.73 118.304 268.311 118.723 267.893C119.979 266.357 121.794 265.519 123.191 264.123C124.587 262.727 125.285 260.353 124.028 258.957C123.051 257.98 121.236 257.98 119.979 258.678C118.723 259.376 117.606 260.353 116.489 261.191C113.836 262.866 110.485 263.285 107.553 262.029C104.621 260.912 102.387 258.259 101.689 255.327C100.991 252.534 101.55 249.602 102.527 246.81C103.923 242.203 106.436 237.595 110.625 235.222C114.813 232.709 120.957 233.267 123.609 237.316C125.145 239.829 125.285 242.901 125.704 245.833C126.123 248.765 127.519 251.836 130.172 252.814C133.104 253.791 136.175 251.836 139.247 252.255C140.783 252.395 142.318 253.233 143.435 254.489C144.971 256.304 145.39 258.957 147.345 260.493C148.88 261.749 151.114 261.889 152.929 261.33C158.375 259.795 162.284 255.466 165.355 250.859C170.103 243.738 174.85 236.478 179.597 229.358C181.551 226.426 182.808 223.215 185.042 220.562C187.276 217.769 189.928 215.256 192.581 213.022C193.559 212.185 194.536 211.487 195.653 211.068C197.887 210.23 200.4 211.068 202.494 212.324C204.588 213.581 206.403 215.256 208.498 216.373C209.335 216.792 210.173 217.211 211.15 216.932C213.803 216.373 213.943 212.185 216.316 211.068C218.55 209.951 220.924 212.185 222.041 214.419C223.018 216.652 223.716 219.445 225.81 220.562C227.486 221.539 229.72 221.26 231.674 220.981C232.093 220.841 232.512 220.841 232.791 220.562C233.908 219.584 232.512 217.909 232.931 216.513C233.21 215.396 234.606 214.977 235.723 214.279C238.097 212.743 238.516 209.113 236.701 207.019C234.886 205.064 231.535 204.506 230.557 201.992C229.859 200.177 230.837 197.944 232.652 197.245C234.467 196.547 236.561 196.966 237.957 198.362C239.912 200.177 240.331 203.249 242.285 204.924C243.402 205.902 244.938 206.321 245.776 207.577C246.614 208.973 246.195 210.788 246.055 212.464C245.916 214.139 246.614 216.234 248.149 216.513C250.104 216.792 251.361 214.279 253.176 213.441C254.712 212.743 256.527 213.441 257.644 214.698C258.76 215.954 259.319 217.63 259.598 219.166C260.017 221.399 260.157 223.773 260.994 226.007C261.692 228.241 263.228 230.335 265.323 231.173C267.556 232.011 270.349 231.033 271.047 228.799C271.326 227.682 271.187 226.565 270.907 225.448C269.93 221.399 268.394 217.63 266.44 214C265.183 211.626 263.508 209.253 263.787 206.6C263.926 204.645 265.043 202.97 264.764 201.015C264.345 197.525 260.296 195.989 258.062 193.196C256.527 191.102 255.968 188.31 256.806 185.936C257.225 184.54 258.202 183.144 257.783 181.748C257.085 179.095 253.036 178.955 251.64 176.582C249.546 172.952 255.689 168.903 254.432 164.854C253.874 163.178 252.338 162.201 251.919 160.526C250.802 156.337 258.062 153.265 256.806 149.217C256.108 146.843 253.036 146.145 250.663 146.983C245.357 148.798 243.682 155.22 239.633 159.129C237.957 160.805 235.305 162.061 233.071 160.945C232.093 160.386 231.395 159.548 230.697 158.571C229.859 157.454 229.161 156.197 228.742 154.801C227.625 151.311 228.603 147.681 228.603 144.051C228.742 140.421 227.346 136.232 223.856 135.115C220.645 134.138 217.154 136.651 215.898 139.862C214.641 142.934 214.781 146.564 214.781 149.915C214.781 154.522 214.501 159.129 213.803 163.597C213.664 164.435 213.524 165.273 212.826 165.692C211.569 166.39 210.313 164.854 208.917 164.575C206.962 164.295 205.705 166.809 206.124 168.763C206.543 170.718 207.8 172.254 208.358 174.069C209.475 177.838 206.683 179.095 203.471 178.816C196.909 178.118 190.626 176.023 185.181 172.533C182.11 169.182 185.321 163.737 189.091 161.084C199.981 153.405 192.721 149.496 197.607 140.7C202.354 132.462 209.475 136.79 210.173 125.9C210.592 119.198 205.705 115.708 209.196 108.448C209.754 107.471 210.313 106.493 211.15 105.516C148.88 133.44 101.41 191.242 89.6821 263.704C89.1236 267.194 88.7047 270.545 88.2859 274.036C88.7047 274.873 89.2632 275.572 89.9613 276.27C92.6141 278.922 96.8026 278.922 100.433 279.621C112.44 281.994 121.655 294.001 120.957 306.288C120.538 313.548 117.327 321.646 121.794 327.231C123.749 329.744 126.821 331.28 128.077 334.351C129.055 336.864 128.636 340.634 125.424 341.332C123.889 341.611 122.213 341.053 120.677 341.192C117.745 341.472 115.651 344.404 112.859 345.521C111.881 345.939 110.904 346.079 109.927 346.498C108.531 347.196 107.693 348.592 106.995 349.849C104.342 355.154 104.621 361.158 105.04 367.022C105.319 371.769 105.04 375.957 104.761 380.565C104.761 380.705 104.761 380.705 104.761 380.844C121.376 418.681 148.88 451.212 184.064 473.691C201.238 467.408 218.271 461.265 235.444 454.982C235.723 450.793 234.467 446.465 231.814 443.254Z" fill="#71C687"/>
<path d="M417.507 125.202C412.202 127.715 406.757 129.949 402.009 133.44C398.1 136.372 393.353 139.164 393.632 144.749C393.772 146.285 394.051 147.96 393.074 149.217C391.538 151.171 388.327 149.775 385.953 150.473C383.719 151.171 382.463 153.964 380.089 154.243C378.274 154.522 376.738 153.265 374.923 152.847C371.433 152.149 367.803 155.639 368.501 159.129C368.78 160.526 369.618 161.922 369.339 163.318C368.92 165.552 366.127 166.529 363.894 166.11C361.66 165.831 359.565 164.575 357.331 164.575C355.098 164.435 352.445 166.11 352.724 168.344C353.143 170.857 356.773 171.835 357.192 174.348C357.611 177.001 354.26 178.676 353.422 181.189C353.003 182.446 353.282 183.842 352.864 185.238C352.166 187.472 349.652 188.729 347.418 188.729C345.045 188.589 342.951 187.472 341.136 185.936C339.321 184.54 337.645 182.865 335.411 182.725C334.434 182.725 333.596 182.865 332.619 182.865C331.502 182.865 330.525 182.446 329.547 182.306C325.917 181.887 322.287 185.657 322.985 189.287C323.264 190.683 324.102 192.08 324.381 193.476C325.219 197.944 320.751 201.713 320.193 206.181C320.053 207.717 320.332 209.392 319.774 210.928C318.657 214.558 313.77 215.954 312.235 219.445C310.838 223.075 313.491 226.984 313.491 230.894C313.352 235.501 309.582 239.131 308.325 243.459C306.65 249.602 310.419 255.885 315.027 260.353C319.634 264.681 325.219 268.172 328.849 273.338C330.804 276.13 332.34 279.481 335.411 280.877C338.902 282.692 343.23 281.296 347 282.413C350.769 283.53 353.562 286.741 357.331 287.579C361.101 288.417 364.871 286.462 368.361 284.647C373.108 282.134 377.995 279.481 381.067 275.013C383.301 271.802 384.278 267.753 386.791 264.821C388.327 263.146 390.421 261.749 391.398 259.795C393.632 255.606 391.119 250.58 388.466 246.67C386.093 243.18 383.719 239.69 381.485 236.199C380.229 234.244 378.972 232.011 378.833 229.637C378.693 227.263 380.369 224.611 382.742 224.471C385.674 224.192 388.048 227.682 390.98 227.403C393.912 227.124 395.308 223.773 396.145 220.981C396.425 223.215 399.776 223.633 401.591 222.098C403.266 220.701 403.964 218.328 404.802 216.234C405.64 214.139 407.315 212.045 409.549 212.045C410.526 212.045 411.504 212.464 412.341 212.883C419.601 216.234 429.794 220.981 433.144 228.939C434.82 232.988 434.96 237.595 434.261 241.923C433.982 243.32 433.703 244.716 434.261 246.112C434.82 247.369 436.635 248.206 437.612 247.229C438.031 246.81 438.171 246.252 438.31 245.693C439.846 239.969 441.94 234.244 444.454 228.939C444.733 228.52 444.872 227.962 445.431 227.822C445.85 227.682 446.269 227.822 446.548 227.962C448.363 228.52 450.178 228.939 451.853 229.497C452.412 227.124 449.899 225.448 447.804 224.192C443.197 221.539 439.288 217.769 436.356 213.162C435.099 211.347 434.122 209.253 434.122 207.019C434.261 204.785 435.797 202.551 438.031 202.411C441.522 202.272 443.057 206.46 445.71 208.694C446.967 209.671 448.363 210.23 449.899 210.928C458.555 214.558 466.793 219.724 473.913 225.867C475.17 226.845 476.287 228.101 476.845 229.497C477.404 231.033 477.124 232.988 475.728 233.686C473.774 234.803 471.4 232.988 469.166 232.29C464.978 231.033 460.789 233.826 457.438 236.478C455.204 238.293 452.691 240.248 451.993 243.04C451.016 246.67 452.97 251.278 450.178 253.651C448.642 255.048 446.129 254.908 444.593 256.304C443.755 257.002 443.197 258.119 442.499 258.957C441.382 260.353 439.986 261.191 438.45 262.029C432.167 265.519 425.605 268.311 418.764 270.406C410.387 272.919 401.311 274.734 395.168 280.737C392.097 283.669 389.863 287.579 388.048 291.349C386.791 293.722 385.674 296.235 385.255 298.888C384.557 302.937 386.093 306.427 387.629 310.057C389.165 313.548 390.002 316.759 391.957 319.97C396.285 327.37 396.564 336.306 396.006 344.683C395.727 348.034 395.447 351.385 395.866 354.875C396.285 358.505 397.402 362.135 397.402 365.765C397.402 369.395 396.285 372.886 396.006 376.516C395.727 380.146 396.425 384.195 399.357 386.289C403.266 389.221 408.572 387.546 413.458 386.708C414.436 386.569 415.552 386.429 416.53 386.848C417.647 387.267 418.345 388.104 419.322 388.802C424.348 392.572 431.329 391.316 437.612 391.176C439.567 391.176 441.801 391.455 442.639 392.991C443.197 393.968 443.057 395.225 443.197 396.342C443.616 399.972 447.106 402.625 450.597 403.602C454.087 404.579 457.857 404.161 461.487 404.161C463.581 404.161 465.676 404.3 467.491 405.277C470.004 406.534 470.842 409.745 472.936 411.421C489.69 387.965 499.882 358.226 504.35 330.023C517.055 248.346 481.034 169.88 417.507 125.202Z" fill="#71C687"/>
<path d="M469.725 177.978C484.385 212.883 489.83 252.116 483.268 292.326C464.838 406.674 357.192 484.581 242.844 466.151C183.786 456.657 134.5 423.428 103.226 377.772C130.312 442.416 189.231 491.981 263.368 503.848C377.716 522.278 485.362 444.371 503.792 330.023C512.728 274.734 499.045 220.841 469.725 177.978Z" fill="#1287B1"/>
<path opacity="0.3" d="M133.523 187.751C155.862 153.824 188.254 126.598 225.392 110.263C233.769 106.633 242.426 103.422 251.361 102.444C260.437 101.467 269.931 102.584 277.749 107.191C280.961 109.146 284.172 111.938 284.591 115.708C285.428 121.572 279.425 126.04 274.259 128.972C242.286 147.262 209.057 164.714 182.948 190.683C179.178 194.453 175.409 198.502 172.756 203.109C170.522 206.879 168.847 210.928 166.334 214.558C162.285 220.562 156.281 225.169 149.998 228.799C145.53 231.452 140.644 233.825 135.478 234.384C130.312 234.942 124.727 233.546 121.237 229.637C111.603 218.607 127.52 196.687 133.523 187.751Z" fill="#9FD7F2"/>
<path d="M107.833 190.544C115.093 178.676 123.47 167.507 132.964 157.314" stroke="#0D4E60" stroke-miterlimit="10" stroke-linecap="round" stroke-linejoin="round"/>
<path d="M108.112 180.072C112.301 173.65 116.908 167.646 121.935 161.922" stroke="#0D4E60" stroke-miterlimit="10" stroke-linecap="round" stroke-linejoin="round"/>
<path d="M110.207 169.88C111.044 169.042 111.882 168.065 112.72 167.227" stroke="#0D4E60" stroke-miterlimit="10" stroke-linecap="round" stroke-linejoin="round"/>
<path d="M471.819 425.103C463.442 435.575 453.529 444.929 442.639 452.748" stroke="#0D4E60" stroke-miterlimit="10" stroke-linecap="round" stroke-linejoin="round"/>
<path d="M472.657 432.363C468.05 440.88 461.069 448.001 452.692 452.748" stroke="#0D4E60" stroke-miterlimit="10" stroke-linecap="round" stroke-linejoin="round"/>
<path d="M469.586 444.65C468.189 446.046 466.514 447.442 464.978 448.559" stroke="#0D4E60" stroke-miterlimit="10" stroke-linecap="round" stroke-linejoin="round"/>
<path d="M471.121 167.088C476.287 174.069 480.336 181.748 483.128 189.846" stroke="#0D4E60" stroke-miterlimit="10" stroke-linecap="round" stroke-linejoin="round"/>
<path d="M478.94 171.276C480.615 174.767 482.291 178.397 483.966 181.887" stroke="#0D4E60" stroke-miterlimit="10" stroke-linecap="round" stroke-linejoin="round"/>
<path d="M306.091 176.024C313.77 172.533 321.17 168.624 329.408 166.809C337.645 164.994 346.72 165.692 353.282 170.858C360.263 176.443 362.916 186.216 361.939 195.012C360.961 203.948 356.773 212.185 352.305 219.864C347.139 228.521 341.415 237.037 334.015 243.879C314.329 262.169 285.567 267.335 258.621 265.799C242.285 264.821 225.81 261.75 211.849 253.233C197.887 244.856 186.717 230.475 185.181 214.279C183.646 198.223 192.581 193.057 207.241 193.755C240.889 195.571 275.235 190.125 306.091 176.024Z" fill="#0A3F4C"/>
<path d="M301.903 230.754C299.529 234.943 299.808 241.086 303.578 244.018C308.744 248.067 316.563 245.275 321.449 242.064C323.962 240.388 326.196 238.015 327.593 235.222C328.989 232.29 330.245 229.358 328.849 226.147C327.593 223.215 324.521 221.54 321.31 220.981C313.77 219.725 305.672 224.053 301.903 230.754Z" fill="#FC6376"/>
<path d="M303.578 244.018C308.744 248.067 316.563 245.275 321.449 242.064C323.963 240.388 326.196 238.015 327.593 235.222C328.849 232.57 329.966 229.777 329.128 226.845C328.291 230.615 326.476 234.245 323.544 236.898C319.355 240.807 313.212 242.622 307.627 241.645C305.952 241.365 304.137 240.807 302.74 239.69C301.763 238.852 300.925 237.875 300.367 236.618C300.367 239.411 301.344 242.203 303.578 244.018Z" fill="#DD4E66"/>
<path d="M320.193 221.4C318.378 220.981 316.563 221.26 314.887 222.098C313.91 222.657 311.816 223.774 312.933 225.17C313.212 225.449 313.491 225.589 313.91 225.728C314.469 226.007 315.027 226.147 315.586 226.147C316.563 226.287 317.54 226.147 318.517 225.868C319.216 225.728 320.053 225.589 320.751 225.17C321.449 224.751 321.868 224.053 322.008 223.215C322.008 222.517 321.589 221.958 321.031 221.54C320.751 221.54 320.472 221.4 320.193 221.4Z" fill="#FF8A9E"/>
<path d="M306.929 150.753C306.65 145.587 307.069 140.561 308.744 135.534C309.582 133.021 310.699 130.508 312.374 128.274C312.793 127.716 313.352 127.157 313.77 126.599C314.329 126.04 314.887 125.621 315.446 125.063C316.144 124.644 316.702 124.225 317.54 123.946L318.657 123.527C319.076 123.388 319.495 123.388 319.774 123.248C322.985 122.55 326.057 123.527 328.57 124.784L329.547 125.203L330.385 125.761C330.944 126.18 331.502 126.459 332.061 126.878C333.038 127.716 334.155 128.553 334.993 129.531C338.762 133.161 341.694 137.349 344.207 141.678C344.347 141.957 344.347 142.515 343.928 142.655C343.649 142.795 343.37 142.795 343.09 142.515C339.46 139.165 335.97 135.674 332.2 132.742C331.223 131.904 330.245 131.485 329.268 130.787C328.849 130.508 328.291 130.229 327.732 129.95L327.034 129.531L326.336 129.252C324.381 128.414 322.427 127.995 320.751 128.414C317.401 128.972 314.608 133.021 312.793 137.21C310.838 141.538 309.442 146.285 308.186 151.032C308.046 151.451 307.627 151.591 307.348 151.591C307.069 151.311 306.929 151.172 306.929 150.753Z" fill="#0D4E60"/>
<path d="M211.151 171.277C208.637 166.949 206.124 162.76 203.053 159.13C200.121 155.5 196.491 152.428 193 152.708C191.325 152.847 189.51 153.685 187.834 155.081L187.136 155.64L186.578 156.198C186.159 156.617 185.74 157.036 185.321 157.455C184.623 158.432 183.785 159.13 183.087 160.107C180.155 163.877 177.642 168.066 174.989 172.394C174.85 172.673 174.291 172.813 174.012 172.673C173.733 172.533 173.593 172.254 173.733 171.835C174.989 166.949 176.804 162.202 179.457 157.734C180.016 156.617 180.853 155.5 181.691 154.383C182.11 153.824 182.529 153.406 183.087 152.847L183.785 152.149L184.623 151.451C186.578 149.496 189.37 147.821 192.721 147.681C193.14 147.681 193.559 147.681 193.977 147.681L195.234 147.821C196.072 147.821 196.77 148.24 197.608 148.379C198.306 148.659 199.004 148.938 199.702 149.357C200.26 149.776 200.958 150.194 201.517 150.613C203.751 152.428 205.426 154.523 206.962 156.756C209.754 161.224 211.709 165.971 212.686 170.998C212.826 171.416 212.547 171.696 212.128 171.835C211.709 171.696 211.43 171.556 211.151 171.277Z" fill="#0D4E60"/>
<path d="M349.373 147.123C353.283 145.308 357.332 143.632 361.52 142.236" stroke="#0D4E60" stroke-miterlimit="10" stroke-linecap="round" stroke-linejoin="round"/>
<path d="M356.913 147.402C360.683 146.145 364.452 145.168 368.362 144.33" stroke="#0D4E60" stroke-miterlimit="10" stroke-linecap="round" stroke-linejoin="round"/>
<path d="M360.822 149.496C365.15 149.077 369.478 148.659 373.946 148.1" stroke="#0D4E60" stroke-miterlimit="10" stroke-linecap="round" stroke-linejoin="round"/>
<path d="M162.005 177.56C168.287 176.164 174.71 174.907 181.132 174.209" stroke="#0D4E60" stroke-miterlimit="10" stroke-linecap="round" stroke-linejoin="round"/>
<path d="M165.355 181.05C170.521 178.956 175.966 177.699 181.551 176.862" stroke="#0D4E60" stroke-miterlimit="10" stroke-linecap="round" stroke-linejoin="round"/>
<path d="M165.076 185.937C167.869 185.099 170.801 184.401 173.872 184.122" stroke="#0D4E60" stroke-miterlimit="10" stroke-linecap="round" stroke-linejoin="round"/>
<path d="M216.735 192.639C216.735 192.639 266.439 194.872 308.325 173.371C308.325 173.511 268.254 188.031 216.735 192.639Z" fill="#48BFE0"/>
<path d="M347 166.111C347 166.111 367.105 171.696 363.196 196.967C363.196 196.967 372.829 170.718 347 166.111Z" fill="#83EA9B"/>
<path d="M192.023 194.314C192.023 194.314 179.178 200.736 184.763 219.166C184.623 219.166 173.873 199.619 192.023 194.314Z" fill="#83EA9B"/>
<path opacity="0.5" d="M116.071 401.787C116.629 401.927 117.327 402.066 117.886 402.206C118.025 402.206 118.304 402.206 118.444 402.346C119.003 402.485 119.561 402.485 119.98 402.625C120.259 402.625 120.678 402.625 120.957 402.765C121.376 402.765 121.795 402.904 122.074 402.904C122.772 402.904 123.47 403.044 124.308 403.044C125.285 403.044 126.123 403.044 127.1 403.044C128.915 403.044 130.731 402.904 132.546 402.625C132.685 402.625 132.685 402.625 132.825 402.625C142.598 409.327 154.745 412.538 165.216 418.402C175.129 423.987 183.646 432.224 189.65 441.997C189.65 441.858 189.65 441.858 189.789 441.718C190.069 440.881 190.208 440.043 190.487 439.065C190.627 438.786 190.627 438.507 190.767 438.228C191.046 437.53 191.185 436.971 191.465 436.273C191.604 435.994 191.744 435.715 191.744 435.435C192.023 434.737 192.302 434.179 192.582 433.481C192.721 433.201 192.861 432.922 192.861 432.783C193.14 432.085 193.419 431.386 193.699 430.828C193.838 430.688 193.838 430.409 193.978 430.269C194.257 429.571 194.676 428.873 195.095 428.175C195.095 428.036 195.234 427.896 195.374 427.756C195.653 427.198 195.932 426.639 196.212 426.081C196.491 426.081 196.77 426.081 197.049 426.081C198.446 426.081 199.842 426.081 201.098 425.802C203.472 425.243 205.706 424.266 207.94 423.149C208.498 422.87 209.057 422.59 209.615 422.311C211.291 421.613 212.966 420.915 214.781 420.496C222.181 419.1 229.162 423.707 236.282 426.779C237.958 427.477 239.633 428.175 241.448 428.594C241.727 428.734 242.146 428.734 242.426 428.873C243.822 429.153 245.218 429.292 246.614 429.292C247.033 429.292 247.312 429.292 247.731 429.292C248.708 429.153 249.546 429.013 250.523 428.873C251.361 428.594 252.199 428.315 253.037 427.896C253.595 427.617 254.154 427.337 254.712 427.058C255.41 426.639 255.969 426.221 256.527 425.802C257.086 425.383 257.644 424.964 258.063 424.405C258.901 423.707 259.599 422.87 260.297 422.032C261.274 420.915 262.112 419.658 262.81 418.262C263.229 417.425 263.648 416.587 264.066 415.749C265.183 413.236 265.882 410.444 266.44 407.791C266.719 405.976 266.998 404.161 267.278 402.206C267.417 401.229 267.417 400.391 267.557 399.414C267.697 397.599 267.836 395.644 267.976 393.829C268.115 391.316 268.395 388.803 268.534 386.429C268.814 383.637 269.093 380.705 269.372 377.912C269.93 372.607 270.489 367.301 271.187 361.996C271.466 359.902 271.746 357.807 272.025 355.713C272.583 351.524 273.281 347.336 274.259 343.287C274.678 341.193 275.236 339.098 275.655 337.144C277.191 331.14 279.145 325.276 280.821 319.272C281.519 316.899 282.077 314.525 282.496 312.012C282.775 310.756 282.915 309.639 283.055 308.382C283.194 307.545 283.194 306.846 283.334 306.009C283.753 300.424 283.055 294.7 280.123 290.092C277.33 285.624 272.583 282.692 267.557 280.877C266.859 280.598 266.161 280.319 265.463 280.179C264.765 280.04 264.066 279.76 263.368 279.621C263.229 279.621 262.95 279.481 262.81 279.481C262.251 279.342 261.553 279.202 260.995 279.062C260.716 279.062 260.436 278.923 260.157 278.923C259.738 278.783 259.319 278.783 258.901 278.783C258.621 278.783 258.202 278.643 257.923 278.643C257.644 278.643 257.225 278.643 256.946 278.504C256.248 278.504 255.689 278.364 254.991 278.364C254.712 278.364 254.572 278.364 254.293 278.364C253.874 278.364 253.455 278.364 253.037 278.364C250.803 278.504 248.429 278.783 246.335 279.481C245.218 279.76 244.241 280.179 243.263 280.598C241.867 280.738 240.471 281.436 239.214 281.855C235.724 283.251 232.094 283.809 228.743 285.485C227.347 286.183 225.951 286.741 224.415 287.021C224.275 286.741 224.275 286.462 224.135 286.183C223.019 283.111 223.158 279.621 223.856 276.41C223.996 275.572 224.275 274.874 224.554 274.176C224.694 273.896 224.834 273.617 224.834 273.198C224.973 272.779 225.113 272.361 225.252 271.942C225.392 271.523 225.532 271.104 225.811 270.685C225.951 270.406 226.09 270.127 226.23 269.708C226.509 269.149 226.788 268.591 226.928 267.893C227.067 267.614 227.207 267.334 227.347 267.055C224.973 266.915 222.6 267.195 220.505 268.032C219.388 268.451 218.132 269.01 217.434 269.987C216.875 270.825 216.736 271.802 216.596 272.919C216.317 277.108 217.434 281.296 219.249 285.066C219.528 285.764 219.947 286.741 220.366 287.719C218.97 287.858 217.573 287.858 216.317 287.858C212.128 287.858 207.8 287.439 203.612 287.719C197.887 287.3 192.163 287.579 186.159 289.953C179.457 292.605 173.454 297.771 170.661 304.333C174.012 286.322 188.812 283.39 188.812 283.39C189.51 279.76 183.925 279.481 183.925 279.481C173.314 283.53 166.892 290.93 162.982 298.888C162.843 298.888 162.843 298.749 162.703 298.749C162.424 298.469 162.145 298.19 161.866 298.05C161.447 297.771 161.028 297.352 160.609 297.073C160.33 296.794 160.05 296.654 159.632 296.375C159.213 296.096 158.794 295.817 158.375 295.398C158.096 295.118 157.817 294.979 157.398 294.839C157.258 294.839 157.258 294.7 157.118 294.7C155.443 287.439 154.605 281.575 154.605 281.575C150.556 278.364 144.692 283.53 144.692 283.53C144.553 285.066 144.553 286.741 144.553 288.417C144.413 288.417 144.134 288.277 143.994 288.277C143.715 288.138 143.436 288.138 143.296 287.998C142.738 287.858 142.04 287.579 141.481 287.439C141.342 287.439 141.062 287.3 140.923 287.3C140.225 287.16 139.527 286.881 138.828 286.741C137.991 286.602 137.153 286.322 136.315 286.183C129.055 284.926 121.516 285.066 114.535 287.439C105.18 290.511 96.2447 296.096 88.5656 303.216C88.1468 302.518 87.5883 301.681 87.1694 300.843C87.7279 337.144 97.7805 371.769 115.233 402.066C115.512 402.066 115.791 402.206 115.931 402.206C115.791 401.648 115.931 401.787 116.071 401.787Z" fill="#A7A9AC"/>
<path d="M185.461 289.115C177.224 292.326 170.243 299.447 169.265 308.243C168.288 316.62 172.616 324.438 175.269 332.397C179.318 343.845 180.156 356.132 180.993 368.139C181.552 376.935 182.25 386.01 180.574 394.667C179.876 398.576 178.759 402.485 178.759 406.395C178.759 410.304 180.295 414.632 183.646 416.726C185.461 417.843 187.555 418.262 189.65 418.541C193.14 419.1 196.631 419.658 200.121 418.96C204.729 417.983 208.498 414.911 213.106 414.074C223.996 412.119 233.63 423.428 244.52 422.451C251.64 421.892 257.504 416.028 260.297 409.466C263.089 402.904 263.508 395.644 263.927 388.384C264.625 378.192 265.602 367.999 266.998 357.807C267.976 349.849 269.232 341.751 271.327 333.932C273.7 324.718 277.191 315.782 278.308 306.428C279.006 300.424 278.726 294.002 275.515 288.975C272.444 284.089 266.998 281.157 261.553 279.481C255.55 277.666 249.127 276.968 243.124 278.783C234.048 281.575 226.788 289.394 216.736 288.417C205.845 287.439 196.072 284.926 185.461 289.115Z" fill="#F91B2A"/>
<path d="M220.226 298.888C221.203 300.005 222.181 301.122 222.879 302.379C223.856 304.333 224.135 306.707 224.275 308.941C224.275 309.778 224.275 310.756 224.694 311.454C224.973 312.292 225.532 312.99 226.369 313.269C227.067 313.409 227.766 313.269 228.464 312.99C231.256 311.593 232.652 308.522 233.211 305.59C233.909 302.658 234.048 299.447 235.305 296.654C236.003 295.258 236.841 294.001 237.399 292.605C237.958 291.209 237.958 289.394 236.98 288.277C236.562 287.719 235.863 287.3 235.165 287.021C233.909 286.881 232.652 286.183 231.256 286.043C229.86 285.904 228.883 286.043 227.486 286.183C224.554 286.741 221.483 287.16 218.551 287.579C217.573 287.719 216.596 287.858 215.619 288.138C214.502 288.417 213.524 288.975 212.687 289.534C212.408 289.673 212.268 289.813 212.128 290.092C211.849 290.651 212.128 291.349 212.547 291.907C213.245 292.885 214.223 293.164 215.2 293.862C217.015 295.258 218.69 297.073 220.226 298.888Z" fill="#D31124"/>
<path d="M241.309 282.134C241.727 281.994 242.007 281.715 242.286 281.296C242.425 280.877 242.426 280.458 242.146 280.179C242.007 280.04 241.727 280.04 241.588 279.9C239.773 279.621 237.958 280.458 236.143 281.157C232.792 282.413 229.301 282.972 226.23 284.647C224.973 285.345 223.577 285.764 222.041 286.183C221.902 285.904 221.902 285.624 221.762 285.345C220.645 282.413 220.785 279.062 221.483 275.991C222.181 272.919 223.437 269.987 224.834 267.055C222.6 266.915 220.366 267.195 218.271 268.032C217.154 268.451 216.038 269.01 215.339 269.847C214.781 270.685 214.641 271.662 214.502 272.64C214.222 276.689 215.339 280.598 217.015 284.228C217.294 284.926 217.713 285.904 218.132 286.741C216.875 286.881 215.479 286.881 214.222 286.881C209.475 286.881 204.868 286.322 200.121 287.021C199.283 287.16 198.446 287.3 197.747 287.858C197.468 287.998 197.329 288.277 197.329 288.556C197.329 289.254 198.166 289.394 198.864 289.394C201.657 289.394 204.449 289.673 207.102 290.232C204.868 291.07 202.355 292.047 201.098 294.001C200.819 294.281 200.679 294.839 201.098 295.118C201.238 295.258 201.517 295.118 201.796 295.118C204.17 294.42 206.543 293.862 208.777 293.164C209.755 292.885 211.011 292.605 211.849 293.303C212.407 293.722 212.547 294.56 212.687 295.258C212.826 295.817 212.826 296.375 212.966 296.933C212.966 297.213 213.106 297.632 213.385 297.771C213.804 298.05 214.362 297.492 214.641 297.073C215.06 296.515 215.339 295.956 215.758 295.398C216.177 294.839 216.736 294.141 217.434 294.141C217.853 294.141 218.271 294.42 218.69 294.56C222.6 296.934 227.486 297.632 231.954 296.794C232.233 296.654 232.652 296.654 232.792 296.235C232.931 295.677 232.373 295.398 231.954 295.118C229.999 294.281 228.045 293.583 226.09 292.745C231.116 292.326 236.143 290.651 239.912 287.3C240.75 286.462 241.727 285.624 241.867 284.368C239.354 283.67 236.701 286.322 234.188 285.764C235.863 283.809 238.795 283.39 241.309 282.134Z" fill="#55892C"/>
<path d="M241.727 284.647C239.214 283.949 236.561 286.602 234.048 286.043C235.863 283.949 238.795 283.53 241.308 282.134C241.727 281.994 242.007 281.715 242.286 281.296C242.425 280.877 242.425 280.458 242.146 280.179C242.007 280.04 241.727 280.04 241.588 279.9C239.773 279.621 237.958 280.458 236.143 281.157C232.792 282.413 229.301 282.972 226.23 284.647C224.973 285.345 223.577 285.764 222.041 286.183C221.901 285.904 221.901 285.624 221.762 285.345C220.645 282.413 220.784 279.062 221.483 275.991C222.181 273.198 223.298 270.546 224.415 267.893C222.181 269.01 220.366 271.802 219.528 273.617C218.271 276.689 218.271 280.319 219.528 283.53C219.947 284.647 220.784 286.043 220.505 287.3C220.366 287.719 220.366 288.137 220.505 288.417C220.924 289.115 222.599 288.277 223.158 287.998C225.671 287.021 228.184 286.043 230.697 285.066C231.116 284.926 231.814 284.787 231.954 285.206C232.233 285.904 230.977 286.322 231.256 287.021C231.256 287.16 231.535 287.3 231.675 287.439C232.373 287.719 233.211 287.3 233.909 287.16C234.607 287.021 235.724 287.3 235.724 287.998C235.724 288.696 234.886 289.115 234.467 289.534C234.048 289.813 233.909 290.232 233.769 290.79C236.003 289.953 237.958 288.696 239.773 287.16C240.75 286.741 241.588 285.764 241.727 284.647Z" fill="#436D1F"/>
<path d="M189.65 418.402C193.14 418.96 196.63 419.519 200.121 418.821C204.728 417.843 208.498 414.772 213.105 413.934C223.996 411.979 233.629 423.289 244.52 422.311C251.64 421.753 257.504 415.889 260.297 409.327C263.089 402.765 263.508 395.504 263.927 388.244C264.625 378.052 265.602 367.86 266.998 357.668C267.976 349.709 269.232 341.611 271.327 333.793C273.7 324.578 277.191 315.642 278.307 306.288C279.006 300.284 278.726 293.862 275.515 288.836C272.443 283.949 266.998 281.017 261.553 279.341C257.644 278.085 253.595 277.526 249.546 277.666C255.27 282.832 259.319 289.813 261.414 297.213C264.904 309.22 263.787 322.065 261.553 334.351C259.319 346.638 255.968 358.785 254.852 371.211C254.153 378.75 254.433 386.569 251.64 393.689C248.848 400.81 242.007 407.093 234.467 406.115C227.905 405.278 221.622 399.274 215.339 401.648C212.547 402.625 210.592 404.998 208.498 407.093C201.796 413.515 192.442 416.726 183.227 416.168C183.367 416.308 183.506 416.447 183.646 416.447C185.321 417.704 187.555 418.123 189.65 418.402Z" fill="#D31124"/>
<path d="M176.526 301.122C174.152 304.054 172.477 307.684 172.198 311.454C172.058 312.431 172.198 313.688 172.756 314.386C173.175 314.805 173.594 315.224 174.152 315.363C175.967 316.061 178.201 315.642 179.877 314.665C181.552 313.688 182.948 312.152 184.344 310.756C187.835 306.986 191.884 303.216 196.77 301.681C197.748 301.401 198.725 301.122 199.563 300.564C200.68 299.865 201.378 298.469 201.238 297.213C201.238 295.956 200.401 294.56 199.284 294.001C198.306 293.443 197.329 293.303 196.212 293.164C188.393 292.186 181.412 294.979 176.526 301.122Z" fill="#F93D4F"/>
<path d="M221.902 374.701C222.46 370.792 222.6 366.883 223.298 363.113C223.717 361.158 225.95 349.989 229.162 353.479C230.837 355.294 229.999 360.32 229.72 362.554C229.162 366.184 228.045 369.675 227.626 373.165C226.788 379.029 227.626 385.033 225.95 390.618C225.252 392.852 224.135 395.086 222.181 396.202C220.785 396.901 218.132 396.901 217.154 395.365C216.038 393.689 217.573 391.735 218.132 390.059C219.947 385.033 221.203 380.007 221.902 374.701Z" fill="#D31124"/>
<path d="M182.948 399.134C181.971 402.066 180.854 405.138 181.552 408.07C182.529 411.7 186.718 414.213 190.348 413.236C191.604 412.957 192.861 412.119 193.14 410.862C193.559 409.327 192.302 407.791 191.465 406.395C188.253 401.089 189.929 394.248 192.023 388.384C193.978 382.52 196.072 375.818 193.28 370.233C192.302 368.279 190.208 366.324 187.974 366.603C181.691 367.162 185.321 376.237 185.601 380.007C185.74 386.429 184.903 392.991 182.948 399.134Z" fill="#F93D4F"/>
<path d="M229.58 348.453L181.551 383.358C181.551 387.127 181.272 390.757 180.574 394.387C179.876 398.297 178.759 402.206 178.759 406.115C178.759 410.025 180.295 414.353 183.646 416.447C185.461 417.564 187.555 417.983 189.649 418.262C193.14 418.821 196.63 419.379 200.121 418.681C204.728 417.704 208.498 414.632 213.105 413.794C215.2 413.376 217.154 413.515 219.109 413.934C233.21 394.108 229.58 348.453 229.58 348.453Z" fill="#BCBEC0"/>
<path d="M126.681 397.319C154.884 398.157 181.551 374.701 184.344 346.638C187.136 318.574 165.635 290.371 137.851 285.624C130.87 284.368 123.749 284.507 117.048 286.741C89.8218 295.817 65.1093 326.952 73.6261 355.992C79.7693 377.633 104.063 396.621 126.681 397.319Z" fill="#F99441"/>
<path d="M92.1956 312.85C96.8031 310.337 100.992 306.288 101.69 301.122C101.829 300.284 101.829 299.307 101.131 298.749C100.573 298.33 99.7351 298.33 99.1766 298.609C98.6181 298.888 98.0596 299.447 97.7804 300.005C96.5238 301.82 95.8257 303.914 94.1503 305.311C93.0334 306.288 91.6372 306.846 90.3806 307.405C89.124 308.103 87.8675 308.941 87.1694 310.197C85.2147 314.525 89.9617 314.107 92.1956 312.85Z" fill="#E28037"/>
<path d="M85.3542 289.115C85.3542 289.115 71.8112 253.093 111.323 241.086C111.323 241.086 121.655 274.455 85.3542 289.115Z" fill="#8DC63F"/>
<path d="M85.3541 289.115C103.784 281.715 110.206 269.429 112.021 259.097C109.229 264.542 104.203 269.289 98.8971 271.802C97.6405 272.361 96.2443 272.919 94.8482 272.919C93.452 272.919 91.9162 272.361 91.2181 271.104C89.8219 271.104 88.7049 269.568 89.1238 268.172C87.3087 268.312 85.4937 267.474 84.2371 266.078C81.3051 278.085 85.3541 289.115 85.3541 289.115Z" fill="#85B53A"/>
<path d="M84.9351 288.277C86.052 283.809 87.4482 279.481 89.1236 275.293C90.799 271.104 92.7537 266.915 94.9876 263.006L95.8253 261.47L96.663 259.934C97.2215 258.957 97.78 257.98 98.4781 257.003C99.7346 255.048 100.991 253.233 102.387 251.418C105.04 247.648 108.112 244.297 111.183 240.946C111.323 240.807 111.323 240.807 111.463 240.946C111.602 241.086 111.602 241.086 111.463 241.226C108.391 244.576 105.459 248.067 102.806 251.697C101.41 253.512 100.293 255.467 99.0366 257.282C98.4781 258.259 97.9196 259.236 97.3611 260.214L96.5234 261.75L95.6857 263.285C93.5914 267.334 91.6368 271.383 89.9613 275.572C88.2859 279.76 86.8897 284.089 85.9124 288.556C85.9124 288.836 85.6332 288.975 85.3539 288.975C85.0747 288.836 84.9351 288.556 84.9351 288.277Z" fill="#587529"/>
<path d="M89.124 275.851C88.9843 274.315 88.8447 272.64 88.8447 271.104C88.8447 269.568 88.8447 267.893 88.8447 266.357C88.9843 264.821 89.124 263.146 89.4032 261.61C89.6824 260.074 90.2409 258.538 90.939 257.142H91.0786V257.282C90.3805 258.678 89.9617 260.214 89.6824 261.75C89.4032 263.285 89.2636 264.821 89.2636 266.497C89.2636 268.032 89.2636 269.708 89.2636 271.244C89.4032 272.779 89.5428 274.455 89.6824 275.991C89.6824 276.13 89.5428 276.41 89.4032 276.41C89.2636 276.13 89.124 275.991 89.124 275.851Z" fill="#587529"/>
<path d="M88.1465 279.202C89.4031 279.342 90.7993 279.202 92.0558 279.062C93.3124 278.783 94.569 278.364 95.8256 277.806C96.9425 277.247 98.1991 276.549 99.1764 275.711C99.7349 275.293 100.154 274.874 100.712 274.455C101.131 274.036 101.69 273.478 102.108 273.059C102.108 273.059 102.108 273.059 102.248 273.059C102.248 273.059 102.248 273.059 102.248 273.198C101.829 273.757 101.41 274.176 100.852 274.734C100.293 275.153 99.8745 275.711 99.316 276.13C98.3387 276.968 97.0821 277.666 95.9652 278.364C94.7086 278.923 93.452 279.342 92.1955 279.76C90.9389 280.04 89.5427 280.179 88.1465 280.04C88.0069 280.04 87.8673 279.9 87.8673 279.621C87.7277 279.342 87.8673 279.202 88.1465 279.202C88.0069 279.202 88.0069 279.202 88.1465 279.202Z" fill="#587529"/>
<path d="M95.1274 263.006C94.9878 260.772 95.267 258.678 95.6859 256.584C95.9651 255.467 96.2443 254.489 96.6632 253.512C97.082 252.535 97.5009 251.557 98.0594 250.58C98.0594 250.58 98.199 250.44 98.199 250.58C98.199 250.58 98.3386 250.72 98.199 250.72C97.6405 251.697 97.2217 252.535 96.8028 253.652C96.3839 254.629 96.1047 255.606 95.9651 256.723C95.5462 258.818 95.4066 260.912 95.5462 263.006C95.5462 263.146 95.4066 263.285 95.267 263.285C95.267 263.285 95.1274 263.146 95.1274 263.006Z" fill="#587529"/>
<path d="M94.15 265.24C95.1274 265.519 96.2443 265.519 97.2216 265.38C98.3386 265.24 99.3159 264.961 100.293 264.542C101.271 264.123 102.248 263.565 103.225 263.146C103.644 262.867 104.063 262.587 104.621 262.308L105.878 261.331H106.018V261.47L104.761 262.448C104.342 262.727 103.923 263.146 103.365 263.425C102.388 263.983 101.55 264.542 100.433 264.961C99.4555 265.38 98.3386 265.799 97.2216 265.938C96.1047 266.078 94.9877 266.217 93.8708 265.938C93.7312 265.938 93.5916 265.798 93.7312 265.659C93.8708 265.24 94.0104 265.1 94.15 265.24Z" fill="#587529"/>
<path d="M100.992 253.652C101.55 253.791 102.248 253.791 102.946 253.652C103.644 253.512 104.203 253.233 104.901 252.954C105.459 252.674 106.158 252.255 106.716 251.837C107.274 251.418 107.833 250.999 108.391 250.58H108.531V250.72C107.973 251.139 107.414 251.697 106.856 252.116C106.297 252.535 105.739 252.954 105.041 253.233C104.482 253.512 103.784 253.791 103.086 253.931C102.388 254.071 101.69 254.21 100.852 253.931C100.712 253.931 100.712 253.791 100.712 253.652C100.852 253.652 100.852 253.512 100.992 253.652Z" fill="#587529"/>
<path d="M92.8933 307.963C92.8933 307.963 83.3993 296.235 79.3503 280.877C75.3014 265.519 73.3467 254.908 78.0937 255.746C82.8408 256.584 78.9315 259.795 80.6069 268.312C82.2823 276.689 88.7048 300.843 95.5461 305.59C95.5461 305.45 95.4065 306.986 92.8933 307.963Z" fill="#662E08"/>
<path d="M95.5461 305.45C88.5652 300.703 82.1427 276.549 80.6069 268.172C78.9315 259.795 82.8408 256.584 78.0938 255.606C76.9768 255.467 76.2787 255.746 75.8599 256.723C77.2561 256.723 79.7692 257.142 79.3503 260.493C78.7919 265.1 80.4673 282.972 87.3086 294.141C92.0556 301.96 92.7537 304.752 91.6368 306.288C92.3349 307.265 92.7537 307.824 92.7537 307.824C95.4065 306.986 95.5461 305.45 95.5461 305.45Z" fill="#542607"/>
<path d="M140.364 286.043C154.885 299.307 163.681 318.993 161.726 338.68C159.073 365.626 136.455 388.663 110.346 393.829C115.791 395.923 121.376 397.18 126.821 397.319C155.024 398.157 181.691 374.701 184.484 346.638C187.137 319.552 166.892 292.047 140.364 286.043Z" fill="#E28037"/>
<path d="M76.8375 351.245C77.3959 353.479 78.094 355.573 79.0714 357.668C80.3279 360.32 81.7241 362.973 83.8184 365.067C85.2146 366.464 87.0296 367.72 88.8447 367.162C90.2409 366.743 91.3578 365.347 91.6371 363.811C91.9163 362.275 91.6371 360.739 91.3578 359.343C89.822 352.083 86.4712 344.962 87.7277 337.563C88.007 335.468 88.7051 333.514 88.8447 331.419C88.8447 329.325 88.1466 327.091 86.3315 325.974C81.5845 323.321 77.5356 329.883 77.1167 333.793C76.5582 339.657 75.5809 345.521 76.8375 351.245Z" fill="#F4A264"/>
<path d="M168.008 348.592L145.809 287.719C145.809 287.719 142.179 299.028 145.809 309.639C145.809 309.639 122.353 297.073 114.255 307.684C114.255 307.684 139.805 303.356 143.854 333.514L118.304 375.12C118.304 375.12 118.444 384.754 122.772 397.04C124.168 397.18 125.425 397.319 126.821 397.319C142.039 397.738 156.978 391.037 167.729 380.286C168.427 363.252 168.008 348.592 168.008 348.592Z" fill="#BCBEC0"/>
<path d="M153.488 321.786C153.488 321.786 144.552 296.515 145.949 282.972C145.949 282.972 151.394 278.085 155.443 281.157C155.443 281.157 160.329 312.431 168.008 318.993C168.008 318.993 162.703 326.393 153.488 321.786Z" fill="#6CAF3C"/>
<path d="M151.673 329.325C151.673 329.325 158.096 325.974 164.658 324.159C164.658 324.159 144.832 293.164 115.791 301.82C115.791 301.82 111.742 305.311 114.255 307.545C114.255 307.684 136.315 296.794 151.673 329.325Z" fill="#BBC543"/>
<path d="M154.326 313.269C155.024 315.922 155.443 318.854 155.443 321.646C155.443 323.182 155.303 324.718 155.024 326.393C154.884 326.952 154.745 327.51 154.605 328.069C156.979 326.952 160.469 325.555 163.96 324.578C164.099 324.299 164.099 324.02 164.239 323.74C162.982 322.065 159.492 317.178 153.907 312.292C154.047 312.431 154.186 312.85 154.326 313.269Z" fill="#A2A53A"/>
<path d="M171.499 322.763C171.499 322.763 164.379 324.02 157.956 326.533C157.956 326.533 154.885 289.813 183.367 279.202C183.367 279.202 188.672 279.481 188.114 282.832C188.114 282.832 163.96 287.439 171.499 322.763Z" fill="#BBC543"/>
<path d="M129.753 392.852C139.526 402.346 153.907 405.278 165.774 411.979C175.268 417.285 183.366 425.104 189.091 434.458C196.909 404.859 229.72 384.195 229.859 353.479C229.999 340.634 223.297 327.65 212.128 321.367C173.314 299.028 83.8182 348.313 129.753 392.852Z" fill="#661756"/>
<path d="M129.753 392.852C139.526 402.346 153.907 405.278 165.775 411.979C175.269 417.285 183.367 425.104 189.091 434.458C196.91 405.138 229.162 384.475 229.86 354.177C223.437 363.951 210.592 374.562 184.623 381.124C146.926 390.757 126.542 377.494 117.048 366.883C117.048 375.399 120.818 384.195 129.753 392.852Z" fill="#460939"/>
<path d="M132.685 355.713C132.685 355.713 174.292 358.645 208.778 332.397C208.778 332.397 182.669 361.019 132.685 355.713Z" fill="#460939"/>
<path d="M135.757 371.769C135.757 371.769 177.363 374.701 211.849 348.453C211.989 348.453 185.74 377.214 135.757 371.769Z" fill="#460939"/>
<path d="M149.3 328.906C152.65 326.952 156.141 324.997 160.05 324.299C161.446 324.02 162.843 324.02 164.099 324.578C165.356 325.136 166.473 326.253 166.473 327.65C166.473 329.604 164.797 330.861 163.122 331.838C157.677 335.049 151.254 337.144 147.066 341.891C144.832 344.404 143.296 347.475 140.922 349.989C138.549 352.502 134.5 354.596 131.149 352.641C127.659 350.547 127.659 347.336 129.753 344.404C134.5 337.563 142.179 333.095 149.3 328.906Z" fill="#751F65"/>
<path d="M251.501 344.404C252.199 343.147 253.176 341.891 254.572 341.612C256.248 341.472 257.644 342.868 257.923 344.544C258.202 346.219 257.784 347.755 257.225 349.43C260.576 349.709 263.927 348.034 265.881 345.242C266.998 343.566 267.836 341.193 269.791 340.913C270.908 340.634 272.025 341.193 273.002 341.891C275.096 343.566 276.213 346.219 276.213 348.872C276.213 351.524 275.236 354.038 273.7 356.271C271.327 359.762 267.557 362.275 263.508 363.252C259.738 364.23 255.55 363.811 252.338 361.577C245.776 356.97 248.289 350.128 251.501 344.404Z" fill="black"/>
<path d="M252.757 352.921C252.617 351.943 251.78 351.106 250.663 351.245C181.691 358.366 129.892 360.879 96.8027 358.785C63.5735 356.69 55.0567 350.408 53.8001 345.521C51.8455 337.981 64.2716 327.789 78.6523 318.854C79.6296 316.899 81.4447 314.246 83.1201 311.873C65.947 321.786 47.2381 335.189 50.1701 346.359C53.1021 357.528 76.8373 363.113 122.213 363.113C154.326 363.113 197.189 360.32 251.082 354.736C252.199 354.875 252.897 353.898 252.757 352.921Z" fill="black"/>
<path opacity="0.5" d="M495.136 228.66C490.528 233.826 486.06 239.69 482.43 245.275C482.43 245.414 482.291 245.414 482.291 245.554C481.453 246.95 480.476 248.207 479.777 249.463C478.8 249.603 477.823 249.603 476.985 249.743C467.491 251.139 458.695 255.467 451.295 261.61C449.899 259.097 447.944 256.724 445.292 254.49C442.22 251.977 438.031 249.603 432.726 247.509C432.726 247.369 432.726 247.369 432.866 247.23C433.424 245.833 433.843 244.437 434.262 243.041C435.239 240.249 436.216 237.456 437.194 234.664C439.148 229.219 441.382 223.634 443.895 218.468C445.571 215.117 447.386 211.766 449.48 208.695C450.178 207.578 451.016 206.461 452.273 205.902C452.552 205.763 452.971 205.623 453.25 205.623C453.39 205.623 453.669 205.623 453.808 205.623C454.507 205.623 455.205 205.763 455.903 205.763C456.042 205.763 456.322 205.763 456.461 205.902C456.88 205.902 457.159 206.042 457.578 206.042C457.997 206.042 458.276 206.042 458.695 205.902C458.835 205.902 459.114 205.902 459.254 205.763C459.533 205.623 459.952 205.483 460.231 205.344C460.37 205.204 460.51 205.065 460.65 205.065C461.069 204.646 461.208 204.087 461.208 203.529C461.208 202.691 460.65 201.714 459.672 201.853C460.51 201.853 461.487 201.853 462.325 201.714C463.163 201.574 464.001 201.295 464.699 200.876C465.536 200.318 466.095 199.061 466.095 198.084C466.095 197.665 465.955 197.246 465.816 196.967C465.676 196.827 465.536 196.687 465.397 196.548C465.816 196.687 466.234 196.827 466.793 196.687C467.91 196.548 469.027 195.85 469.446 194.872C469.585 194.733 469.585 194.454 469.585 194.174C471.121 194.872 473.215 193.895 473.634 192.22C474.053 190.544 472.797 188.59 470.982 188.45C471.54 188.31 472.098 188.171 472.517 187.752C472.797 187.473 473.076 187.193 473.215 186.914C473.495 186.495 473.774 185.937 473.774 185.378C473.774 185.099 473.774 184.82 473.914 184.68C472.797 182.865 471.54 181.05 470.423 179.235C470.144 179.096 469.725 178.956 469.446 178.816C468.189 178.397 466.653 178.118 465.257 177.979C464.838 177.979 464.419 177.839 463.861 177.839C464.001 177.56 464.14 177.141 464.14 176.722C464.28 175.605 463.721 174.348 462.744 173.65C462.186 173.232 461.487 172.813 460.65 172.673C459.952 172.533 459.114 172.394 458.416 172.533C455.065 172.813 451.714 174.628 449.759 177.42C450.458 175.047 446.827 173.232 444.733 174.488C442.499 175.605 441.662 178.258 440.963 180.631C438.45 180.492 435.937 182.446 435.518 184.82C435.099 187.333 436.635 189.986 439.009 190.823C437.613 191.103 437.194 193.197 438.031 194.314C438.869 195.431 440.545 195.85 441.941 195.71C441.103 197.106 440.963 198.782 441.382 200.318C443.197 200.457 444.873 200.597 446.688 200.736C445.431 200.597 440.265 213.721 439.567 215.257C437.333 220.283 435.239 225.449 433.284 230.615C432.586 232.57 431.609 234.385 430.911 236.2C429.794 238.852 428.817 241.645 428.119 244.437C427.979 244.996 427.839 245.554 427.7 246.113C396.285 236.618 391.12 270.685 391.12 270.685C391.12 270.685 390.282 277.527 389.025 288.138C388.886 288.138 388.606 288.138 388.467 288.138C388.048 287.998 387.629 287.719 387.21 287.579C386.512 287.3 385.814 287.021 385.116 286.742C386.093 286.323 387.071 285.904 387.908 285.485C388.467 285.206 389.165 284.787 389.305 284.228C389.444 283.53 388.886 282.832 388.327 282.693C387.629 282.413 386.931 282.553 386.233 282.553C380.788 283.112 375.343 284.228 369.897 284.927C369.199 285.066 368.362 284.508 368.501 283.81C368.501 283.53 368.781 283.391 368.92 283.112C369.758 282.413 370.735 281.715 371.713 281.157C371.713 280.738 371.014 280.598 370.596 280.738C368.082 281.436 365.569 282.553 363.056 283.391C362.777 279.342 364.033 275.153 366.686 272.082C367.105 271.663 367.664 270.965 367.384 270.406C367.245 269.708 366.267 269.568 365.569 269.568C364.313 269.568 363.056 269.708 361.939 269.987C361.52 270.127 361.101 270.267 360.683 270.546C359.985 271.104 359.705 271.942 359.566 272.78C358.588 276.549 358.728 280.459 359.566 284.368C359.007 284.368 358.588 284.508 358.03 284.508C355.377 284.508 352.585 284.647 349.932 285.485C349.653 285.625 349.234 285.904 349.513 286.044C350.211 286.044 350.909 286.323 351.607 286.602C351.747 286.742 351.887 286.742 352.026 286.881C352.166 287.3 351.607 287.579 351.189 287.719C346.023 288.976 340.857 290.092 335.551 291.209C334.714 291.349 333.457 292.047 333.876 292.885C335.83 292.885 337.785 292.745 339.6 292.885C339.181 293.164 338.762 293.443 338.483 293.583C327.174 301.402 323.544 317.179 326.476 330.722C328.989 342.31 335.551 352.642 342.811 362.275C343.51 364.09 344.626 365.766 345.883 367.162C346.721 368.139 347.558 368.977 348.536 369.675C353.143 375.26 358.588 380.705 365.011 383.218C365.43 383.358 365.849 383.497 366.267 383.637C366.407 383.637 366.686 383.777 366.826 383.777H366.965C367.245 383.916 367.524 383.916 367.664 383.916C368.082 384.056 368.501 384.056 368.92 384.196C368.92 384.196 368.92 384.196 369.06 384.196H369.199C369.339 384.196 369.618 384.196 369.758 384.335C370.177 384.335 370.596 384.475 371.014 384.475C371.154 384.475 371.154 384.475 371.294 384.475C371.433 384.475 371.573 384.475 371.713 384.475C372.271 384.475 372.969 384.475 373.528 384.475C375.901 384.335 378.135 383.637 380.229 382.66C380.229 384.475 380.229 386.15 380.229 387.546C380.369 412.678 385.674 439.066 398.659 426.081C398.938 425.802 399.217 425.523 399.357 425.243C399.357 425.243 399.357 425.104 399.497 425.104C399.776 424.825 399.916 424.545 400.195 424.406L400.334 424.266C400.474 423.987 400.753 423.708 401.032 423.568C401.032 423.428 401.172 423.428 401.312 423.289C401.451 423.01 401.731 422.73 401.87 422.451C402.01 422.311 402.01 422.172 402.149 422.172C402.289 421.893 402.568 421.613 402.708 421.334C402.848 421.195 402.848 421.055 402.987 420.915C403.127 420.636 403.406 420.357 403.546 420.078C403.685 419.938 403.685 419.798 403.825 419.659C403.964 419.38 404.244 418.961 404.383 418.681C404.523 418.542 404.523 418.402 404.663 418.263C404.942 417.844 405.221 417.285 405.5 416.866C409.689 409.746 414.436 399.972 419.043 388.943C419.462 387.965 419.881 386.988 420.3 385.871C420.44 385.592 420.439 385.452 420.579 385.173C420.998 384.196 421.417 383.079 421.836 382.101C421.836 382.101 421.836 381.962 421.975 381.962C422.394 380.984 422.813 380.007 423.232 379.03C423.371 378.75 423.371 378.611 423.511 378.332C423.79 377.494 424.209 376.656 424.488 375.679C424.768 377.215 425.187 378.611 425.605 380.147C425.605 380.286 425.745 380.426 425.745 380.565C426.024 381.682 426.303 382.799 426.722 383.916C426.722 384.056 426.862 384.196 426.862 384.335C427.56 386.569 428.258 388.803 429.096 391.037C429.096 391.176 429.235 391.316 429.235 391.595C429.654 392.573 430.073 393.69 430.492 394.667C430.492 394.807 430.632 394.946 430.771 395.086C431.749 397.18 432.726 399.135 433.703 401.089C433.843 401.229 433.843 401.369 433.983 401.648C434.541 402.625 435.099 403.463 435.658 404.44C435.798 404.58 435.798 404.72 435.937 404.859C436.496 405.837 437.054 406.674 437.752 407.512C438.311 408.35 439.009 409.187 439.707 410.025C439.847 410.165 439.986 410.304 440.126 410.444C440.824 411.282 441.382 411.98 442.08 412.817C442.22 412.957 442.36 413.097 442.499 413.236C443.197 414.074 443.895 414.772 444.733 415.47C445.431 416.168 446.269 416.866 447.107 417.564C447.246 417.704 447.386 417.844 447.526 417.983C448.363 418.681 449.061 419.24 449.899 419.798C450.039 419.938 450.178 420.078 450.318 420.078C451.156 420.636 452.133 421.334 452.971 421.753C453.948 422.311 454.786 422.87 455.763 423.289C455.903 423.428 456.182 423.428 456.322 423.568C457.299 423.987 458.276 424.406 459.254 424.825C459.393 424.964 459.672 424.964 459.812 425.104C460.37 425.383 461.069 425.523 461.627 425.802C480.894 401.089 494.996 371.769 501.698 339.378C501 338.121 500.441 336.865 500.022 335.608C497.649 329.186 497.649 322.065 498.766 315.224C499.603 314.247 500.301 313.269 501 312.292C501.139 312.152 501.279 312.013 501.418 311.733C501.418 311.594 501.558 311.594 501.558 311.454C502.535 310.058 503.652 308.801 504.63 307.405C505.049 306.847 505.467 306.288 505.886 305.73C507.422 278.783 503.513 252.814 495.136 228.66Z" fill="#A7A9AC"/>
<path d="M522.082 226.007C519.15 220.143 515.799 217.211 512.169 216.513C512.448 214.279 512.867 212.185 513.705 210.091C515.52 205.344 519.29 201.016 524.176 199.48C526.131 198.921 528.225 198.642 529.761 197.386C532.414 195.152 531.716 190.823 530.459 187.612C522.64 184.68 513.565 190.544 510.354 198.363C508.818 201.853 507.422 210.091 507.98 216.513C492.902 219.306 475.31 249.463 470.283 258.12C447.386 297.353 406.757 325.695 362.079 333.933C357.332 334.77 352.166 335.608 348.815 338.959C343.37 344.125 344.487 353.759 349.513 359.343C354.539 364.928 362.218 367.441 369.618 368.698C394.889 373.305 421.556 367.302 444.035 354.876C466.514 342.45 485.223 323.88 500.441 303.077C513.426 284.647 533.81 249.743 522.082 226.007Z" fill="#F9D767"/>
<path d="M443.616 354.876C466.095 342.45 484.804 323.88 500.022 303.077C511.332 287.579 527.527 260.354 525.293 238.015C517.894 258.12 471.68 369.815 359.287 366.045C362.498 367.302 365.849 368.139 369.06 368.698C394.471 373.305 421.138 367.302 443.616 354.876Z" fill="#E5C15C"/>
<path d="M469.166 282.832C464.419 290.511 458.555 297.492 452.412 304.054C446.129 310.477 439.288 316.48 432.028 321.786L429.235 323.741L427.839 324.718L426.443 325.556L420.719 329.186C418.764 330.303 416.809 331.42 414.855 332.397L411.923 333.933L408.851 335.329C400.753 339.378 391.957 341.751 383.301 343.985L389.723 342.031L392.934 341.053C394.051 340.634 395.029 340.216 396.146 339.797L402.429 337.423C404.523 336.446 406.477 335.469 408.572 334.491L411.643 333.095L414.575 331.42C416.53 330.303 418.485 329.325 420.439 328.069L426.164 324.439L427.56 323.461L428.956 322.484L431.609 320.529C438.729 315.224 445.71 309.36 451.993 302.937L456.74 298.051C458.276 296.375 459.812 294.7 461.208 293.024C463.721 290.092 466.514 286.602 469.166 282.832Z" fill="#A38D2F"/>
<path d="M472.238 291.07C471.819 291.489 471.54 292.047 471.54 292.606C471.54 292.745 471.54 292.745 471.54 292.885C471.68 293.024 471.819 293.164 471.959 293.164C472.378 293.164 472.657 293.024 472.936 292.745C473.215 292.466 473.495 292.187 473.634 291.908C473.914 291.489 474.193 290.93 474.332 290.372C474.332 290.232 474.332 290.232 474.332 290.092C474.332 289.953 474.193 289.953 474.193 289.953C473.355 289.534 472.797 290.511 472.238 291.07Z" fill="#A38D2F"/>
<path d="M472.936 299.028C473.355 299.168 473.634 299.028 474.053 298.888C475.031 298.33 476.566 295.817 474.472 295.956C473.634 296.096 472.099 298.749 472.936 299.028Z" fill="#A38D2F"/>
<path d="M470.004 297.492C470.283 297.353 470.562 297.073 470.562 296.794C470.562 296.655 470.562 296.515 470.562 296.375C470.562 296.236 470.283 296.096 470.144 296.236C469.864 296.236 469.585 296.515 469.446 296.794C469.306 296.934 469.166 297.073 469.306 297.353C469.445 297.492 469.864 297.632 470.004 297.492Z" fill="#A38D2F"/>
<path d="M520.267 190.963C521.105 191.103 521.244 192.359 520.686 193.057C520.127 193.616 519.29 193.895 518.452 194.174C517.614 194.454 516.916 195.152 516.916 195.989C517.614 196.129 518.312 195.989 519.01 195.85C519.708 195.71 520.406 195.431 521.105 195.571C521.803 195.71 522.501 196.269 522.361 196.967C521.523 196.967 521.244 197.944 520.825 198.642C520.546 199.34 519.988 199.899 519.429 200.457C520.127 201.435 521.384 201.714 522.501 201.574C523.618 201.435 524.735 200.876 525.712 200.457C526.55 200.038 527.248 199.619 528.086 199.34C529.482 198.642 531.018 197.944 531.855 196.548C532.833 195.012 532.833 193.057 532.693 191.242C532.553 189.986 532.414 188.729 531.576 187.891C531.018 187.333 530.319 187.054 529.482 186.775C524.874 185.518 521.244 187.891 517.195 189.567C517.475 190.125 517.475 191.242 518.033 191.522C518.731 191.801 519.429 190.823 520.267 190.963Z" fill="#A38D2F"/>
<path d="M346.302 349.71C346.441 350.687 347 351.664 347.837 352.223C348.117 352.362 348.396 352.362 348.675 352.362C349.094 352.223 349.234 351.525 349.234 351.106C349.234 350.687 349.234 350.129 349.234 349.71C349.234 348.593 349.234 347.336 348.396 346.498C347.698 345.8 346.581 345.661 346.162 346.638C345.883 347.336 346.162 348.872 346.302 349.71Z" fill="#A38D2F"/>
<path d="M485.781 238.434C484.385 240.249 482.989 242.203 482.291 244.297C482.151 244.856 482.012 245.694 482.43 246.113C482.989 246.811 484.245 246.392 484.943 245.833C488.574 243.181 491.366 239.55 494.298 236.06C497.23 232.57 500.581 229.358 504.909 227.962C506.305 227.543 507.701 227.264 508.958 226.566C510.215 225.868 511.192 224.611 511.052 223.215C510.494 216.653 500.162 224.751 498.207 226.147C493.46 229.777 489.272 233.826 485.781 238.434Z" fill="#F9E098"/>
<path d="M508.26 269.848C503.792 261.75 502.396 251.558 495.275 245.694C491.366 242.482 485.781 241.226 480.196 241.505C475.449 248.346 471.819 254.629 469.865 257.841C465.536 265.24 460.51 272.221 455.065 278.783C455.205 282.693 455.903 286.602 457.159 290.232C460.51 300.704 467.77 310.058 477.404 315.363C480.336 317.039 483.547 318.295 486.898 318.994C491.505 313.828 495.834 308.243 500.022 302.658C504.769 296.236 510.354 287.719 515.101 278.364C512.309 276.131 510.075 273.199 508.26 269.848Z" fill="#E6E7E8"/>
<path d="M342.253 289.534C331.502 296.934 328.012 312.013 330.804 324.718C333.597 337.423 341.415 348.593 349.513 358.925C356.075 367.441 364.732 376.656 375.622 375.958C387.071 375.12 394.47 363.672 398.519 352.921C401.591 345.242 403.964 337.144 405.5 329.046C407.176 320.809 408.153 312.152 405.779 304.054C403.266 295.119 396.565 287.579 388.048 283.81C379.671 280.18 372.55 281.436 364.173 283.112C356.634 284.647 348.955 284.927 342.253 289.534Z" fill="#F92B53"/>
<path d="M338.902 310.756C338.902 311.315 339.042 311.873 339.321 312.292C339.6 312.711 340.019 313.13 340.578 313.269C341.276 313.409 341.974 312.711 342.253 312.013C342.532 311.315 342.393 310.477 342.393 309.779C342.393 309.081 342.253 308.383 341.974 307.684C341.695 306.986 341.136 306.428 340.438 306.288C338.204 305.59 338.763 309.499 338.902 310.756Z" fill="#FCC638"/>
<path d="M359.985 305.451C359.985 306.009 360.124 306.568 360.403 306.986C360.683 307.405 361.101 307.824 361.66 307.964C362.358 308.103 363.056 307.405 363.335 306.707C363.615 306.009 363.475 305.171 363.475 304.473C363.475 303.775 363.335 303.077 363.056 302.379C362.777 301.681 362.218 301.122 361.52 300.983C359.286 300.424 359.845 304.334 359.985 305.451Z" fill="#FCC638"/>
<path d="M374.086 325.695C374.086 326.254 374.226 326.812 374.505 327.231C374.784 327.65 375.203 328.069 375.761 328.208C376.46 328.348 377.158 327.65 377.437 326.952C377.716 326.254 377.577 325.416 377.577 324.718C377.577 324.02 377.437 323.322 377.158 322.624C376.878 321.926 376.32 321.367 375.622 321.227C373.388 320.529 373.946 324.439 374.086 325.695Z" fill="#FCC638"/>
<path d="M394.191 337.004C394.191 337.563 394.331 338.121 394.61 338.54C394.889 338.959 395.308 339.378 395.866 339.518C396.565 339.657 397.263 338.959 397.542 338.261C397.821 337.563 397.682 336.725 397.682 336.027C397.682 335.329 397.542 334.631 397.263 333.933C396.983 333.235 396.425 332.676 395.727 332.537C393.493 331.839 394.051 335.748 394.191 337.004Z" fill="#FCC638"/>
<path d="M362.637 358.925C362.637 359.483 362.777 360.042 363.056 360.46C363.335 360.879 363.754 361.298 364.313 361.438C365.011 361.577 365.709 360.879 365.988 360.181C366.267 359.483 366.128 358.645 366.128 357.947C366.128 357.249 365.988 356.551 365.709 355.853C365.43 355.155 364.871 354.596 364.173 354.457C361.939 353.759 362.498 357.668 362.637 358.925Z" fill="#FCC638"/>
<path d="M371.573 349.43C371.573 349.989 371.713 350.547 371.992 350.966C372.271 351.385 372.69 351.804 373.249 351.944C373.947 352.083 374.645 351.385 374.924 350.687C375.203 349.989 375.064 349.151 375.064 348.453C375.064 347.755 374.924 347.057 374.645 346.359C374.366 345.661 373.807 345.102 373.109 344.963C370.875 344.265 371.434 348.174 371.573 349.43Z" fill="#FCC638"/>
<path d="M374.086 367.441C374.086 368 374.226 368.558 374.505 368.977C374.784 369.396 375.203 369.815 375.761 369.954C376.46 370.094 377.158 369.396 377.437 368.698C377.716 368 377.577 367.162 377.577 366.464C377.577 365.766 377.437 365.068 377.158 364.37C376.878 363.672 376.32 363.113 375.622 362.974C373.388 362.415 373.946 366.185 374.086 367.441Z" fill="#FCC638"/>
<path d="M387.909 303.077C387.909 303.636 388.048 304.194 388.327 304.613C388.607 305.032 389.026 305.451 389.584 305.59C390.282 305.73 390.98 305.032 391.259 304.334C391.539 303.636 391.399 302.798 391.399 302.1C391.399 301.402 391.259 300.704 390.98 300.005C390.701 299.307 390.142 298.749 389.444 298.609C387.21 297.911 387.769 301.82 387.909 303.077Z" fill="#FCC638"/>
<path d="M343.789 325.835C343.789 326.393 343.928 326.952 344.208 327.371C344.487 327.79 344.906 328.208 345.464 328.348C346.162 328.488 346.86 327.79 347.14 327.091C347.419 326.393 347.279 325.556 347.279 324.858C347.279 324.159 347.14 323.461 346.86 322.763C346.581 322.065 346.023 321.507 345.325 321.367C343.091 320.669 343.649 324.578 343.789 325.835Z" fill="#FCC638"/>
<path d="M359.566 338.121C359.566 338.68 359.705 339.238 359.985 339.657C360.264 340.076 360.683 340.495 361.241 340.635C361.939 340.774 362.637 340.076 362.917 339.378C363.196 338.68 363.056 337.842 363.056 337.144C363.056 336.446 362.917 335.748 362.637 335.05C362.358 334.352 361.8 333.793 361.102 333.654C358.868 332.955 359.426 336.865 359.566 338.121Z" fill="#FCC638"/>
<path d="M382.184 355.015C382.184 355.574 382.323 356.132 382.603 356.551C382.882 356.97 383.301 357.389 383.859 357.528C384.557 357.668 385.255 356.97 385.535 356.272C385.814 355.574 385.674 354.736 385.674 354.038C385.674 353.34 385.535 352.642 385.255 351.944C384.976 351.246 384.418 350.687 383.72 350.547C381.486 349.849 382.044 353.759 382.184 355.015Z" fill="#FCC638"/>
<path d="M384.418 335.748C384.418 336.306 384.557 336.865 384.837 337.284C385.116 337.702 385.535 338.121 386.093 338.261C386.791 338.401 387.489 337.703 387.769 337.004C388.048 336.306 387.908 335.469 387.908 334.771C387.908 334.072 387.769 333.374 387.489 332.676C387.21 331.978 386.652 331.42 385.954 331.28C383.72 330.582 384.278 334.491 384.418 335.748Z" fill="#FCC638"/>
<path d="M352.445 349.57C352.445 350.129 352.585 350.687 352.864 351.106C353.143 351.525 353.562 351.944 354.121 352.083C354.819 352.223 355.517 351.525 355.796 350.827C356.075 350.129 355.936 349.291 355.936 348.593C355.936 347.895 355.796 347.197 355.517 346.498C355.238 345.8 354.679 345.242 353.981 345.102C351.747 344.544 352.306 348.314 352.445 349.57Z" fill="#FCC638"/>
<path d="M339.74 340.076C339.74 340.634 339.879 341.193 340.159 341.612C340.438 342.031 340.857 342.45 341.415 342.589C342.113 342.729 342.811 342.031 343.091 341.333C343.37 340.635 343.23 339.797 343.23 339.099C343.23 338.401 343.091 337.703 342.812 337.004C342.532 336.306 341.974 335.748 341.276 335.608C339.042 335.05 339.6 338.819 339.74 340.076Z" fill="#FCC638"/>
<path d="M349.792 314.247C349.792 314.805 349.932 315.363 350.211 315.782C350.49 316.201 350.909 316.62 351.468 316.76C352.166 316.899 352.864 316.201 353.143 315.503C353.422 314.805 353.283 313.967 353.283 313.269C353.283 312.571 353.143 311.873 352.864 311.175C352.585 310.477 352.026 309.918 351.328 309.779C349.094 309.22 349.653 313.13 349.792 314.247Z" fill="#FCC638"/>
<path d="M359.985 323.461C359.985 324.02 360.124 324.578 360.403 324.997C360.683 325.416 361.101 325.835 361.66 325.975C362.358 326.114 363.056 325.416 363.335 324.718C363.615 324.02 363.475 323.182 363.475 322.484C363.475 321.786 363.335 321.088 363.056 320.39C362.777 319.692 362.218 319.133 361.52 318.994C359.286 318.296 359.845 322.205 359.985 323.461Z" fill="#FCC638"/>
<path d="M383.162 317.737C383.162 318.295 383.301 318.854 383.58 319.273C383.86 319.692 384.278 320.111 384.837 320.25C385.535 320.39 386.233 319.692 386.512 318.994C386.792 318.296 386.652 317.458 386.652 316.76C386.652 316.062 386.512 315.364 386.233 314.665C385.954 313.967 385.395 313.409 384.697 313.269C382.463 312.571 383.022 316.48 383.162 317.737Z" fill="#FCC638"/>
<path d="M371.294 306.428C371.294 306.986 371.434 307.545 371.713 307.964C371.992 308.383 372.411 308.801 372.969 308.941C373.668 309.081 374.366 308.383 374.645 307.684C374.924 306.986 374.785 306.149 374.785 305.451C374.785 304.752 374.645 304.054 374.366 303.356C374.086 302.658 373.528 302.1 372.83 301.96C370.596 301.262 371.154 305.171 371.294 306.428Z" fill="#FCC638"/>
<path d="M396.146 316.62C396.146 317.179 396.286 317.737 396.565 318.156C396.844 318.575 397.263 318.994 397.821 319.133C398.519 319.273 399.217 318.575 399.497 317.877C399.776 317.179 399.636 316.341 399.636 315.643C399.636 314.945 399.497 314.247 399.218 313.548C398.938 312.85 398.38 312.292 397.682 312.152C395.448 311.594 396.006 315.363 396.146 316.62Z" fill="#FCC638"/>
<path d="M398.52 352.921C401.591 345.242 403.965 337.144 405.501 329.046C407.176 320.809 408.153 312.152 405.78 304.054C403.267 295.119 396.565 287.579 388.048 283.81C379.671 280.18 372.55 281.436 364.173 283.112C357.891 284.228 351.747 284.787 346.023 287.3C346.721 288.138 347.14 289.115 347.279 290.092C347.279 291.489 346.302 292.326 345.464 293.443C344.208 294.979 343.091 296.655 342.393 298.609C345.464 297.772 348.396 296.236 350.91 294.281C350.351 296.375 349.932 298.47 349.374 300.564C352.864 299.307 356.075 297.073 358.449 294.141C358.03 295.817 360.124 297.213 361.8 296.934C363.475 296.655 364.732 295.258 365.709 293.862C366.268 295.398 368.362 296.096 369.898 295.538C371.573 295.119 372.83 293.862 374.086 292.745C374.645 294.56 377.158 294.839 378.973 294.141C380.788 293.443 382.184 292.047 383.999 291.628C387.49 290.791 390.841 293.583 392.935 296.655C398.24 304.892 398.24 315.503 397.542 325.416C396.425 339.238 393.773 353.898 383.999 363.672C378.973 368.837 372.271 372.049 365.151 373.445C368.362 375.12 371.852 376.098 375.622 375.818C386.931 375.12 394.331 363.532 398.52 352.921Z" fill="#D1D3D4"/>
<path d="M393.772 283.949C392.795 283.81 391.818 284.089 390.98 284.228C388.886 284.647 386.512 284.508 384.418 283.81C385.954 283.112 387.35 282.413 388.886 281.715C389.444 281.436 390.142 281.157 390.282 280.459C390.422 279.761 389.863 279.202 389.305 278.923C388.746 278.644 388.048 278.783 387.35 278.783C382.184 279.342 377.018 280.319 371.852 281.017C371.154 281.157 370.316 280.598 370.596 279.9C370.596 279.621 370.875 279.481 371.015 279.342C371.852 278.644 372.69 278.085 373.667 277.527C373.667 277.108 373.109 277.108 372.69 277.108C370.316 277.666 367.943 278.783 365.569 279.621C365.29 275.851 366.547 271.802 369.06 269.01C369.479 268.591 369.898 268.033 369.758 267.335C369.618 266.637 368.781 266.497 368.083 266.497C366.966 266.497 365.709 266.636 364.592 266.916C364.173 267.055 363.754 267.195 363.475 267.335C362.777 267.753 362.637 268.591 362.358 269.429C361.52 273.059 361.52 276.829 362.358 280.319C361.939 280.319 361.381 280.459 360.962 280.459C358.449 280.459 355.796 280.598 353.283 281.296C353.004 281.436 352.724 281.715 352.864 281.855C353.562 281.855 354.26 282.134 354.819 282.413C354.958 282.553 355.098 282.553 355.238 282.693C355.377 283.112 354.819 283.391 354.54 283.53C349.653 284.787 344.627 285.764 339.74 286.881C338.902 287.021 337.785 287.579 338.064 288.417C339.88 288.417 341.834 288.277 343.649 288.417C344.766 288.557 344.906 288.138 345.045 289.255C345.185 289.953 344.347 291.07 344.068 291.489C342.812 293.443 341.695 295.398 340.438 297.353C340.298 297.632 340.019 298.051 340.159 298.33C340.438 299.168 341.555 298.749 342.253 298.33C345.744 295.817 348.955 292.745 353.004 290.93C353.562 291.489 353.283 292.466 353.004 293.164C352.585 293.862 352.166 294.56 352.026 295.398C352.026 296.236 352.724 297.073 353.423 296.794C353.841 296.655 353.981 296.236 354.26 295.817C355.098 294.002 356.075 292.326 357.332 290.93C357.611 290.651 357.89 290.372 358.309 290.511C358.449 290.651 358.588 290.791 358.588 291.07C358.868 291.908 359.147 292.745 359.566 293.583C359.985 294.7 360.683 295.956 361.8 295.817C362.498 295.817 363.056 294.979 363.335 294.281C363.475 293.583 363.335 292.745 363.335 292.047C363.335 291.489 363.336 290.791 363.754 290.511C364.173 290.232 364.871 290.372 365.29 290.791C365.709 291.07 365.988 291.628 366.407 292.047C367.245 292.885 368.362 293.164 369.339 293.443C370.316 293.723 371.433 293.723 371.852 292.885C372.411 291.489 369.758 290.511 370.037 289.115C371.433 288.975 372.69 289.534 373.947 289.953C376.32 290.651 378.973 290.511 381.346 289.674C381.486 288.836 380.788 288.277 380.09 287.859C379.392 287.44 378.554 287.16 378.275 286.323C384.139 286.742 390.142 286.462 396.006 285.625C395.727 284.787 394.75 284.089 393.772 283.949Z" fill="#55892C"/>
<path opacity="0.2" d="M334.295 319.412C334.853 323.88 335.691 328.348 337.087 332.676C337.785 334.91 338.623 337.284 340.159 339.099C341.695 340.914 344.068 342.31 346.442 342.031C347.419 341.891 348.536 341.472 349.095 340.634C350.211 339.238 349.932 337.284 349.513 335.608C348.955 333.095 348.396 330.722 347.698 328.208C346.302 323.042 344.627 317.737 345.883 312.571C346.302 310.616 347.279 308.662 347 306.707C346.861 304.613 345.464 302.798 343.51 301.96C334.016 297.492 333.736 313.967 334.295 319.412Z" fill="white"/>
<path d="M375.482 375.958C386.931 375.12 394.331 363.672 398.38 352.921C401.451 345.242 403.825 337.144 405.361 329.046C407.036 320.809 408.014 312.152 405.64 304.054C403.266 295.956 397.542 288.836 390.003 284.927C389.863 285.206 389.584 285.485 389.444 285.904C389.444 285.904 382.324 339.238 366.966 374.562C369.898 375.539 372.69 376.098 375.482 375.958Z" fill="#BCBEC0"/>
<path d="M391.818 267.753C391.818 267.753 396.704 234.803 427.281 244.716C457.857 254.629 451.714 271.942 449.201 287.998C446.688 304.054 422.953 377.494 405.78 406.674C388.606 435.715 381.905 406.535 381.765 378.89C381.625 351.246 391.818 267.753 391.818 267.753Z" fill="#F68B2B"/>
<path d="M432.726 248.067C433.564 248.486 434.402 248.765 435.239 249.324C435.658 249.603 436.077 249.882 436.496 250.161C436.775 250.441 437.194 250.58 437.473 250.86C437.613 251.139 437.753 251.418 437.613 251.697C437.334 252.116 436.915 251.977 436.496 251.977C435.519 251.837 434.681 251.558 433.843 251.139C429.934 249.603 425.745 248.905 421.557 249.045C420.859 249.045 420.3 249.045 419.602 248.905C418.904 248.765 418.346 248.346 418.206 247.648C417.927 246.811 418.764 246.252 419.463 246.113C420.58 245.973 421.696 245.973 422.813 245.973C425.047 245.973 427.281 246.252 429.375 246.811C430.353 247.23 431.609 247.648 432.726 248.067Z" fill="#DB7726"/>
<path d="M449.341 287.998C451.295 275.712 455.344 262.727 443.337 252.814C444.175 253.931 444.873 255.188 444.594 256.584C444.314 258.399 442.639 259.656 440.964 260.493C432.726 264.542 422.953 262.588 413.878 260.493C421.836 266.218 434.82 263.705 440.545 271.802C442.22 274.176 442.918 277.248 443.337 280.18C445.013 291.768 443.337 303.775 438.59 314.526C437.613 316.899 436.356 319.133 434.262 320.669C432.587 321.926 430.353 322.344 428.258 322.763C421.138 324.02 413.878 324.439 406.757 324.02C410.946 324.439 415.274 324.997 419.323 325.975C422.813 326.673 426.443 327.79 428.538 330.582C430.492 333.095 430.771 336.586 430.073 339.797C427.979 350.408 415.693 357.668 405.5 354.457C409.41 356.83 414.855 356.411 417.787 359.902C419.043 361.298 419.602 363.253 419.881 365.207C419.881 365.347 419.881 365.626 419.881 365.766C420.3 370.932 418.206 375.818 414.715 379.449C413.04 381.264 411.364 382.799 409.131 383.916C408.014 384.475 406.897 384.754 405.64 385.033C404.942 385.173 402.708 385.731 402.15 385.313C404.384 386.848 406.338 388.663 407.455 391.037C409.549 395.505 407.315 400.252 403.685 402.904C400.195 405.557 395.867 406.255 391.539 405.697C395.588 406.116 398.38 410.025 399.078 414.074C399.218 414.493 399.218 415.051 399.218 415.47C401.172 413.516 403.406 410.584 405.78 406.674C423.092 377.633 446.828 304.054 449.341 287.998Z" fill="#DB7726"/>
<path d="M444.454 201.435C442.778 201.295 441.103 201.155 439.427 201.155C438.869 199.759 439.148 198.084 439.846 196.827C438.45 196.967 436.914 196.687 436.216 195.571C435.379 194.454 435.797 192.499 437.194 192.22C434.96 191.522 433.424 188.869 433.843 186.495C434.262 184.122 436.635 182.307 439.009 182.446C439.707 180.212 440.544 177.699 442.639 176.582C444.733 175.465 448.084 177.141 447.525 179.375C449.34 176.722 452.412 174.907 455.623 174.767C457.019 174.628 458.555 174.907 459.812 175.884C460.929 176.862 461.487 178.537 460.789 179.794C463.861 180.073 467.072 180.492 469.166 182.726C471.261 184.96 470.702 189.567 467.63 189.986C469.306 190.125 470.562 191.94 470.144 193.616C469.725 195.152 467.77 196.129 466.234 195.571C465.955 197.246 463.861 198.503 462.185 197.804C463.442 198.921 462.883 201.016 461.487 201.993C460.091 202.97 458.416 202.97 456.74 202.97C458.136 202.97 458.555 205.065 457.578 206.042C456.601 207.019 455.065 207.019 453.669 206.88C452.272 206.74 450.876 206.461 449.62 206.88C448.503 207.438 447.665 208.415 446.967 209.532C445.012 212.464 443.197 215.676 441.661 218.887C439.148 223.913 437.194 229.079 435.239 234.245C434.262 236.898 433.424 239.55 432.447 242.203C432.028 243.599 431.469 244.856 431.05 246.252C430.771 246.95 430.631 247.648 430.352 248.346C430.213 248.626 430.073 249.882 429.515 249.603C428.398 248.905 427.141 248.486 425.884 248.486C425.745 248.486 425.605 248.486 425.605 248.346C425.605 248.346 425.605 248.207 425.605 248.067C425.884 246.392 426.164 244.856 426.583 243.181C427.281 240.528 428.118 237.875 429.235 235.362C429.933 233.547 430.911 231.871 431.469 230.056C433.284 225.17 435.239 220.283 437.473 215.536C438.45 213.721 443.337 201.295 444.454 201.435Z" fill="#69AC39"/>
<path d="M430.632 247.928C430.911 247.229 431.051 246.531 431.33 245.833C431.749 244.437 432.307 243.181 432.726 241.784C433.703 239.132 434.541 236.479 435.518 233.826C437.334 228.66 439.428 223.355 441.941 218.468C443.477 215.257 445.292 212.185 447.246 209.114C447.945 208.136 448.643 207.019 449.899 206.461C451.156 205.902 452.552 206.182 453.948 206.461C455.344 206.6 456.88 206.6 457.858 205.623C458.835 204.646 458.276 202.551 457.02 202.551C458.695 202.551 460.371 202.551 461.767 201.574C463.163 200.597 463.721 198.363 462.465 197.386C464.14 198.084 466.235 196.827 466.514 195.152C468.05 195.85 470.004 194.872 470.423 193.197C470.842 191.661 469.585 189.846 467.91 189.567C470.842 189.148 471.54 184.541 469.446 182.307C467.352 180.073 464.14 179.654 461.069 179.375C461.767 178.118 461.208 176.443 460.091 175.465C458.974 174.488 457.439 174.348 455.903 174.348C455.624 174.348 455.205 174.348 454.926 174.488C456.182 174.907 457.439 175.605 458.416 176.443C460.231 178.118 461.208 180.771 460.231 182.865C461.069 182.726 461.767 183.703 461.767 184.401C461.627 185.239 460.79 185.797 460.091 186.076C459.254 186.356 458.416 186.216 457.578 186.076C458.137 186.495 458.695 187.054 459.114 187.612C459.393 187.892 459.533 188.171 459.673 188.59C459.812 189.288 459.393 189.846 458.974 190.405C458.556 190.823 458.137 191.382 457.578 191.522C457.299 191.661 456.88 191.661 456.601 191.661C456.042 191.661 455.484 191.661 455.065 191.522C455.624 191.801 456.322 192.22 456.741 192.639C457.159 193.057 457.578 193.755 457.578 194.454C457.578 195.012 457.299 195.571 456.88 195.989C456.322 196.548 455.484 197.106 454.646 197.246C453.948 197.386 452.412 197.386 451.993 196.827C453.11 197.944 452.831 200.038 451.714 201.016C451.016 201.714 445.571 202.133 448.363 203.389C446.548 204.367 445.571 206.042 444.594 207.717C437.752 220.423 430.911 233.407 428.258 247.509C428.956 247.648 429.794 247.928 430.353 248.346C430.353 249.463 430.492 248.346 430.632 247.928Z" fill="#55892C"/>
<path d="M388.327 317.179C388.327 317.179 410.945 326.393 430.911 320.39C430.911 320.529 406.059 321.507 388.327 317.179Z" fill="#F79E54"/>
<path d="M385.814 345.94C385.814 345.94 406.757 355.993 418.066 352.502C417.926 352.363 396.844 349.43 385.814 345.94Z" fill="#F79E54"/>
<path d="M383.162 377.494C383.162 377.494 397.123 384.754 407.874 383.358C407.735 383.358 389.584 380.705 383.162 377.494Z" fill="#F79E54"/>
<path d="M385.396 400.81C385.396 400.81 395.029 404.859 401.871 402.486C401.871 402.486 394.89 407.931 385.396 400.81Z" fill="#F79E54"/>
<path d="M394.331 278.085C394.331 278.085 419.602 285.625 438.59 285.625C438.73 285.625 418.764 287.998 394.331 278.085Z" fill="#DB7726"/>
<path d="M398.938 290.93C398.938 290.93 414.715 296.236 438.171 296.515C438.171 296.515 419.742 299.447 398.938 290.93Z" fill="#DB7726"/>
<path d="M392.935 302.937C392.935 302.937 400.195 309.22 433.564 310.198C433.564 310.337 404.523 311.873 392.935 302.937Z" fill="#DB7726"/>
<path d="M388.327 329.186C388.327 329.186 407.315 338.121 426.862 336.027C426.862 336.027 408.572 340.914 388.327 329.186Z" fill="#DB7726"/>
<path d="M385.814 362.136C385.814 362.136 400.055 369.675 418.066 368.419C417.926 368.419 402.149 373.166 385.814 362.136Z" fill="#DB7726"/>
<path d="M385.814 388.244C385.814 388.663 393.772 393.829 405.361 392.293C405.361 392.293 396.286 397.18 385.675 388.663" fill="#DB7726"/>
<path d="M411.923 247.648C411.364 247.509 410.806 247.369 410.387 247.369C409.13 247.369 407.874 247.648 406.757 248.207C405.221 249.045 403.964 250.301 402.708 251.558C400.753 253.652 398.798 255.746 397.402 258.259C396.146 260.633 394.889 263.565 394.61 266.357C394.47 267.474 394.75 268.87 395.727 269.429C396.285 269.708 397.123 269.708 397.682 269.429C398.24 269.15 398.798 268.591 399.217 268.172C401.032 266.218 402.289 263.844 403.825 261.61C405.361 259.376 407.036 257.142 409.409 255.886C410.526 255.327 411.783 254.909 412.9 254.21C414.017 253.512 414.994 252.395 414.994 251.139C414.994 250.72 414.855 250.301 414.715 249.882C414.575 249.463 414.436 249.045 414.157 248.626C413.598 248.346 412.76 247.928 411.923 247.648Z" fill="#F99441"/>
<path d="M447.665 182.586C447.386 181.748 446.967 180.911 446.269 180.352C446.129 180.212 445.85 179.933 445.571 179.933C445.152 179.794 444.733 179.933 444.314 180.073C443.337 180.352 442.36 180.911 441.801 181.748C441.103 182.586 440.684 183.563 440.824 184.541C439.847 184.122 438.59 184.261 437.613 184.959C436.775 185.658 436.217 186.775 436.217 187.752C436.217 187.891 436.217 188.171 436.356 188.31C436.496 188.45 436.635 188.45 436.775 188.59C437.613 188.869 438.59 188.59 439.428 188.171C440.265 187.612 440.824 186.914 441.382 186.216C441.662 186.495 442.22 186.635 442.639 186.495C443.058 186.356 443.477 186.216 443.896 185.797C444.594 185.239 445.152 184.401 445.431 183.563C445.152 184.122 445.013 184.82 445.013 185.518C445.013 186.076 445.152 186.635 445.571 186.775C445.85 186.914 446.269 186.914 446.688 186.775C448.503 186.356 449.899 184.541 449.899 182.726C449.899 183.703 450.318 184.82 451.295 184.959C451.714 185.099 452.133 184.96 452.552 184.82C453.25 184.541 453.809 184.122 454.227 183.703C454.646 183.144 454.786 182.446 454.646 181.748C454.507 181.05 453.948 180.631 453.529 180.073C454.646 180.352 456.042 180.492 456.74 179.375C457.299 178.537 457.02 177.56 456.042 177.28C454.088 176.722 451.435 178.397 450.039 179.514C449.48 180.073 447.526 182.028 447.665 182.586Z" fill="#87C159"/>
<path d="M451.156 266.357C450.737 266.078 450.318 265.799 450.039 265.799C450.039 265.799 415.413 278.225 414.855 334.212C414.576 357.249 416.53 371.49 418.625 380.286C433.005 346.359 447.246 300.285 449.201 288.138C450.458 280.878 452.273 273.338 451.156 266.357Z" fill="#BCBEC0"/>
<path d="M424.07 307.266C426.722 294.002 431.469 281.017 439.707 270.267C447.944 259.516 459.812 251.278 473.215 249.324C479.079 248.486 485.362 248.905 490.389 251.837C498.347 256.584 501.698 266.497 501.558 275.712C501.418 284.927 498.207 293.723 495.973 302.658C493.739 311.594 492.343 321.227 495.554 329.884C498.905 338.68 506.445 345.102 511.331 353.2C519.429 366.464 519.29 384.335 511.192 397.459C502.954 410.723 487.038 418.542 471.54 417.146C421.277 412.538 416.67 344.683 424.07 307.266Z" fill="#AE5639"/>
<path d="M473.215 249.324C459.812 251.278 447.944 259.516 439.707 270.267C431.469 281.017 426.722 294.002 424.07 307.266C416.53 344.683 421.138 412.538 471.54 417.146C487.038 418.542 502.954 410.584 511.192 397.459C514.822 391.595 516.776 384.894 517.335 378.192C514.822 379.169 512.588 381.124 510.354 382.66C506.864 385.312 501.418 387.128 498.486 383.916C497.23 382.52 496.811 380.565 495.275 379.588C493.181 378.332 490.389 379.728 488.992 381.543C487.457 383.497 486.758 385.871 485.083 387.686C480.615 392.852 470.842 390.478 468.189 384.196C466.793 380.705 467.072 376.935 466.653 373.166C466.234 369.536 464.699 365.487 461.208 364.09C459.533 363.392 457.578 363.532 455.763 362.974C450.178 361.298 448.224 354.596 447.386 348.872C443.337 315.922 456.182 281.436 480.615 258.957C483.408 256.444 486.34 253.931 488.294 250.86C483.826 248.765 478.381 248.486 473.215 249.324Z" fill="#9B462F"/>
<path d="M490.668 250.999C485.502 247.928 479.219 247.509 473.215 248.346C459.672 250.301 447.665 258.678 439.288 269.568C431.051 280.459 426.164 293.583 423.511 306.986C415.832 344.823 420.579 413.516 471.4 418.123C481.313 419.1 491.506 416.168 499.743 410.444C439.847 409.048 428.677 362.136 444.594 296.794C456.88 246.252 483.408 250.72 496.951 257.003C495.415 254.629 493.321 252.535 490.668 250.999Z" fill="#DBC682"/>
<path d="M468.887 340.634C469.725 342.868 470.702 345.102 472.378 346.778C474.053 348.453 476.566 349.43 478.94 348.732C482.43 347.755 484.106 343.846 484.943 340.355C485.781 337.144 486.479 334.072 486.619 330.722C486.759 327.371 486.479 323.741 484.943 320.669C483.408 317.597 480.755 314.945 477.404 314.246C464.14 311.454 466.374 333.514 468.887 340.634Z" fill="#DBC682"/>
<path d="M472.099 337.842C472.657 339.518 473.495 341.193 474.752 342.45C476.008 343.706 477.963 344.404 479.638 343.985C482.291 343.287 483.408 340.355 484.106 337.702C484.804 335.329 485.223 332.955 485.363 330.582C485.502 328.069 485.223 325.416 484.106 323.043C482.989 320.809 480.895 318.854 478.521 318.295C468.469 315.922 470.284 332.397 472.099 337.842Z" fill="#AE5639"/>
<path d="M472.099 337.842C472.657 339.518 473.495 341.193 474.752 342.45C476.008 343.706 477.963 344.404 479.638 343.985C481.314 343.566 482.57 342.031 483.268 340.355C482.989 339.936 482.71 339.657 482.151 339.657C481.733 339.657 481.314 339.797 480.895 339.936C479.778 340.495 478.521 340.914 477.265 340.774C476.008 340.634 474.752 339.518 474.891 338.261C474.891 337.842 475.031 337.423 475.17 337.004C475.31 336.306 475.031 335.469 474.612 334.771C474.333 334.352 473.914 334.072 473.635 333.654C473.216 333.095 473.076 332.537 472.937 331.838C472.797 331.28 472.657 330.582 472.518 330.023C471.959 326.393 473.216 322.624 475.17 319.552C475.589 318.854 476.008 318.435 476.567 318.156C468.748 318.295 470.423 332.816 472.099 337.842Z" fill="#9B462F"/>
<path d="M471.54 418.123C481.453 419.1 491.645 416.168 499.883 410.444C448.922 409.187 433.285 375.12 439.428 324.858C437.473 324.997 435.239 326.254 433.564 327.51C431.051 329.465 428.119 331.699 425.047 330.722C423.372 330.163 422.255 328.907 420.859 327.929C418.904 365.905 429.236 414.214 471.54 418.123Z" fill="#C9B16F"/>
<path d="M424.07 327.51C423.092 324.997 423.092 322.065 423.372 319.412C423.511 317.877 423.79 316.48 424.489 315.084C425.187 313.688 426.164 312.571 427.56 312.152C428.956 311.733 430.632 312.013 431.609 313.13C432.586 314.247 432.586 316.062 432.168 317.458C431.749 318.854 430.911 320.25 430.492 321.646C430.073 323.182 429.934 324.858 429.375 326.393C428.538 328.627 425.187 330.582 424.07 327.51Z" fill="#C9B16F"/>
<path d="M432.168 323.601C432.586 324.159 433.285 324.299 433.843 324.299C434.541 324.299 435.1 324.02 435.658 323.601C436.356 323.043 437.054 322.205 437.333 321.367C438.032 319.552 436.217 317.597 434.262 318.435C432.866 318.994 430.911 321.926 432.168 323.601Z" fill="#C9B16F"/>
<path d="M489.83 268.591C491.087 270.546 491.366 273.059 491.087 275.432C490.808 277.806 489.97 280.04 489.272 282.274C488.853 283.949 488.574 286.183 490.11 287.16C491.366 288.138 493.321 287.44 494.438 286.462C497.649 283.81 499.045 279.481 499.604 275.432C500.162 271.523 500.162 267.335 498.347 263.844C496.672 260.773 491.645 257.561 488.015 258.957C482.291 261.052 488.295 266.218 489.83 268.591Z" fill="#B75B42"/>
<path d="M458.416 257.282C455.624 258.957 452.831 260.773 451.156 263.565C450.737 264.263 450.318 265.101 450.039 265.938C449.76 266.637 449.76 267.614 450.458 268.033C451.016 268.312 451.714 268.033 452.273 267.614C454.926 265.799 457.02 263.146 459.533 261.052C461.348 259.656 463.303 258.539 465.257 257.422C465.816 257.003 466.514 256.724 466.793 256.025C468.05 254.21 465.816 252.675 464.28 253.652C462.325 254.769 460.371 256.025 458.416 257.282Z" fill="#E5D19A"/>
<path d="M360.124 329.186C359.426 327.929 358.448 326.673 357.052 326.393C355.377 326.254 353.981 327.65 353.701 329.325C353.422 331.001 353.841 332.537 354.4 334.212C351.049 334.491 347.698 332.816 345.743 330.023C344.626 328.348 343.789 325.975 341.834 325.695C340.717 325.416 339.6 325.975 338.623 326.673C336.528 328.348 335.411 331.001 335.411 333.654C335.411 336.306 336.389 338.819 337.925 341.053C340.298 344.544 344.068 347.057 348.117 348.034C351.886 349.012 356.075 348.593 359.286 346.359C365.848 341.891 363.196 334.91 360.124 329.186Z" fill="black"/>
<path d="M520.406 266.218C519.987 267.335 519.569 268.591 519.01 269.708C531.157 272.919 541.768 277.387 541.908 282.693C542.187 290.93 519.15 308.941 362.497 337.423C361.52 337.563 360.822 338.54 360.962 339.657C361.101 340.495 361.939 341.193 362.777 341.193C362.916 341.193 363.056 341.193 363.056 341.193C429.096 329.186 477.823 317.877 507.841 307.545C533.67 298.609 545.677 290.791 545.398 282.693C545.538 274.734 532.693 269.429 520.406 266.218Z" fill="black"/>
</svg>
