<svg width="76" height="100" viewBox="0 0 76 100" fill="none" xmlns="http://www.w3.org/2000/svg">
<path d="M19.6213 27.5223C19.3203 27.1025 19.0894 27.084 18.2669 27.3543C18.7108 27.4657 19.1042 27.5476 19.6213 27.5223ZM31.6212 52.2596C32.1094 52.1876 32.6025 52.0503 33.0999 51.8761C32.9694 51.6815 32.7841 51.7154 32.6339 51.6975C32.1796 51.6427 31.7215 51.6163 31.213 51.5744C31.2641 51.8995 31.3737 52.1002 31.6212 52.2596ZM10.0716 25.9451C10.936 26.4031 11.7148 26.36 12.4738 26.4154C12.6801 26.4308 12.9054 26.5115 13.0895 26.272C12.8494 25.878 12.6093 25.4784 12.3618 25.0832C12.3212 25.0179 12.2467 24.973 12.1617 24.8948C11.479 25.1509 10.8461 25.5061 10.0716 25.9451ZM49.8482 84.0514C50.1461 84.6836 50.3739 85.1749 50.6097 85.6619C50.6916 85.8312 50.7932 85.99 50.8824 86.1482C51.6261 85.897 52.3273 85.3313 52.7989 84.5919C51.8508 84.4183 50.9243 84.249 49.8482 84.0514ZM49.0448 82.2476C49.0971 82.6748 49.2596 82.8798 49.6487 82.9679C50.6442 83.192 51.6292 83.4598 52.6191 83.7097C52.8543 83.7688 53.0907 83.8248 53.3412 83.8858C53.2637 83.3323 53.2526 83.3108 52.6468 82.5573C51.4771 82.4341 50.297 82.1442 49.0448 82.2476ZM22.0925 31.7486C22.0217 31.2352 21.7625 31.1028 21.3937 31.053C20.3028 30.9058 19.215 30.7359 18.1253 30.5802C18.0859 30.5746 18.0391 30.6251 17.9708 30.6645C18.0865 31.0314 18.3519 31.3183 18.5353 31.6495C18.6578 31.8699 18.8456 31.9512 19.0833 31.945C19.4138 31.9358 19.7444 31.9315 20.0744 31.9087C20.7301 31.8631 21.3845 31.8053 22.0925 31.7486ZM21.1339 30.0754C21.0188 29.6352 20.759 29.3434 20.5866 29.0097C20.4604 28.7647 20.2659 28.6662 19.995 28.6329C19.0137 28.5123 18.0348 28.3719 17.0547 28.2402C16.8731 28.2155 16.6903 28.1977 16.4194 28.1657C16.5949 28.6311 16.8399 28.9487 17.0529 29.2559C18.3433 29.5385 19.6035 29.8149 20.8643 30.0877C20.916 30.0994 20.9726 30.084 21.1339 30.0754ZM27.0618 39.8904C26.7639 39.3775 26.5231 38.9811 26.3009 38.5754C26.1402 38.2823 25.9284 38.1389 25.5751 38.1469C24.6676 38.1672 23.7639 38.0976 22.8663 37.948C22.8035 37.937 22.7309 37.985 22.6028 38.0244C22.8448 38.4098 23.0608 38.757 23.2812 39.1023C23.3908 39.2735 23.5447 39.3597 23.7534 39.3892C24.8092 39.5413 25.8638 39.7075 27.0618 39.8904ZM33.7008 51.0831C33.481 50.4798 33.1406 50.0778 32.9085 49.6192C32.7533 49.3132 32.5262 49.2018 32.1894 49.1667C31.423 49.0873 30.6626 48.958 29.8999 48.8515C29.7694 48.833 29.6259 48.7868 29.5219 49.0072C29.8205 49.4923 30.1363 50.0033 30.4466 50.5051C31.5122 50.6947 32.5403 50.8769 33.7008 51.0831ZM38.2798 63.4942C39.1522 63.6149 40.0221 63.7362 40.892 63.8562C41.0009 63.8704 41.1111 63.8766 41.2207 63.8846C41.2472 63.8864 41.2792 63.8889 41.2989 63.8766C41.3198 63.8624 41.3297 63.8316 41.3494 63.7996C41.3358 63.7294 41.3408 63.6402 41.3026 63.5761C41.0225 63.1039 40.7337 62.6367 40.4302 62.1399C39.4021 62.0118 38.3876 61.8197 37.2179 61.7188C37.5768 62.3953 37.8926 62.9562 38.2798 63.4942ZM2.44891 5.90076C2.69701 6.30831 2.88047 6.5798 3.03191 6.86792C3.16181 7.11417 3.35819 7.21883 3.61799 7.25885C4.94652 7.4657 6.27321 7.67994 7.60235 7.88371C7.71932 7.90096 7.87077 7.98283 7.99759 7.7532C7.72671 7.35858 7.56049 6.863 7.26868 6.57365C5.64157 6.34648 4.12712 6.1347 2.44891 5.90076ZM47.9299 74.6796C47.5845 73.9064 47.1696 73.3597 46.8482 72.7613C46.6881 72.4646 46.4579 72.3452 46.1298 72.2965C45.2352 72.1623 44.3463 71.9912 43.4536 71.8416C43.3828 71.8299 43.3034 71.8674 43.2301 71.8822C43.2258 71.9425 43.2024 72.0047 43.2227 72.0417C43.5583 72.6382 43.8999 73.2317 44.2256 73.8011C45.4452 74.0905 46.6173 74.3681 47.9299 74.6796ZM8.69448 15.9472C9.19191 16.7291 9.59269 17.3533 9.98792 17.9825C10.1006 18.1611 10.257 18.2423 10.4626 18.2688C11.6649 18.4221 12.866 18.5828 14.0689 18.733C14.1576 18.7434 14.2549 18.6893 14.4081 18.6505C14.0806 18.0933 13.7814 17.599 13.4995 17.0954C13.3499 16.8301 13.1332 16.7211 12.8395 16.67C11.6446 16.4625 10.4533 16.2347 9.26086 16.0174C9.13281 15.9934 9.0023 15.9848 8.69448 15.9472ZM39.7044 61.0631C39.2605 60.1015 37.8274 57.7744 37.4167 57.3207C36.2951 57.4198 35.4141 57.6224 34.9357 57.9056C35.4535 58.8407 36.0106 59.7531 36.569 60.6568C37.6057 60.7916 38.6092 60.9215 39.7044 61.0631ZM34.3626 52.166C33.5296 52.3433 32.6942 52.4344 31.8921 52.7158C32.1648 53.364 33.3985 55.4307 33.8929 56.0851C34.6045 56.0691 35.7835 55.8303 36.364 55.5852C36.1812 55.0299 35.1118 53.1898 34.3626 52.166ZM13.9827 24.2047C14.3004 24.9564 14.9321 25.9574 15.3704 26.405C17.5374 26.3871 18.1795 26.3182 18.7533 26.0405C18.3156 25.1115 17.3699 23.562 16.9606 23.1033C16.1048 23.2769 14.4894 23.8741 13.9827 24.2047ZM4.5833 1.82775C4.37583 1.8807 4.22623 1.88439 4.11604 1.95273C3.27447 2.47355 2.43844 3.00546 1.60549 3.54044C1.47313 3.62601 1.36171 3.74483 1.22442 3.86179C1.28783 3.988 1.32908 4.08835 1.38448 4.17885C1.49899 4.36477 1.62027 4.54638 1.72554 4.70768C3.3859 5.03519 5.87797 5.36578 6.57856 5.33315C5.90998 4.15484 5.27527 3.01469 4.5833 1.82775ZM16.1288 21.5292C15.8247 21.0163 15.5655 20.5953 15.3236 20.1643C15.1869 19.9205 14.9881 19.8386 14.7221 19.7956C13.606 19.6158 12.4923 19.412 11.3774 19.223C11.2241 19.1972 11.0659 19.2021 10.7858 19.1861C11.1767 19.9033 11.5713 20.4918 11.9542 21.0835C12.3378 21.6763 12.6364 22.3307 13.1535 22.8706C14.1342 22.4286 15.0847 21.9995 16.1288 21.5292ZM22.9254 33.0519C21.8456 33.0938 20.8021 33.1326 19.7592 33.1775C19.7161 33.1787 19.6761 33.2354 19.5856 33.3037C20.3336 34.479 21.0834 35.6585 21.8167 36.8104C23.0141 37.0006 24.1536 37.1822 25.2931 37.362C25.3177 37.3663 25.3498 37.3552 25.3719 37.3404C25.3928 37.3269 25.4052 37.2998 25.4206 37.2782C25.2002 36.7137 23.5072 33.8362 22.9254 33.0519ZM45.9174 71.386C45.8423 71.1816 45.8213 71.0751 45.769 70.9877C44.5482 68.9561 43.3237 66.927 42.1232 64.9361C40.8101 64.7298 39.5388 64.6547 39.0008 64.76C40.1569 66.7516 41.3032 68.7246 42.4064 70.6239C43.597 70.8824 44.6972 71.1207 45.9174 71.386ZM52.1728 81.6948C51.9979 81.3635 51.9191 81.1942 51.8237 81.0348C50.904 79.4969 49.9811 77.961 49.0595 76.4243C48.9746 76.2821 48.9044 76.1258 48.7961 76.0051C48.692 75.8881 48.5584 75.7502 48.4181 75.7213C47.3198 75.4978 46.2159 75.2983 45.1121 75.0915C45.1035 75.1703 45.0746 75.2349 45.0949 75.2725C46.1211 77.1268 47.1517 78.9792 48.1613 80.7959C49.4776 81.0908 50.7371 81.3734 52.1728 81.6948ZM24.1006 40.3391C24.3026 40.6802 24.4097 40.8711 24.526 41.0551C24.981 41.7779 25.4403 42.4975 25.894 43.2209C26.7294 44.5501 27.5722 45.8749 28.3885 47.2145C28.6058 47.5716 28.8564 47.7741 29.283 47.8381C30.0716 47.957 30.8498 48.1417 31.6335 48.2956C31.7542 48.319 31.8785 48.3257 32.0343 48.3442C31.7825 47.7089 28.1133 41.5433 27.5543 40.8083C26.4881 40.6636 25.3787 40.5134 24.1006 40.3391ZM3.91226 8.21C4.09695 8.53567 4.18622 8.70558 4.28657 8.86811C4.96561 9.97317 5.64588 11.0776 6.32923 12.1796C6.82358 12.9774 7.32409 13.7704 7.81844 14.5682C7.95449 14.788 8.11148 14.9425 8.39221 14.9856C9.61916 15.1728 10.8424 15.3827 12.0681 15.5791C12.195 15.5988 12.3279 15.5785 12.5329 15.576C12.2614 14.9265 11.8865 14.4211 11.5793 13.88C11.2795 13.3517 10.9662 12.8322 10.6596 12.3083C10.3394 11.7597 10.0224 11.2106 9.69981 10.6639C9.37845 10.1197 9.05155 9.57916 8.7425 9.06203C7.14987 8.7813 5.61079 8.50919 3.91226 8.21ZM20.6685 25.9229C20.8969 25.9038 21.0342 25.8995 21.169 25.8798C22.3165 25.7118 23.4641 25.5412 24.611 25.3707C27.9465 24.8727 31.25 24.2109 34.5214 23.3951C36.3443 22.9408 38.1475 22.412 39.8762 21.6683C40.5583 21.3753 41.2078 21.004 41.8597 20.647C42.1183 20.5054 42.3769 20.3348 42.4914 20.011C42.2759 19.6681 41.9299 19.5518 41.6049 19.4188C40.4413 18.9423 39.2205 18.7367 37.9708 18.6893C36.3942 18.6308 34.8243 18.7484 33.2612 18.9343C31.8631 19.1005 30.4712 19.3203 29.0737 19.4976C26.1291 19.8707 23.2671 20.5786 20.4887 21.6203C19.8713 21.8518 19.2612 22.1029 18.648 22.3455C18.6609 22.4698 18.6437 22.5653 18.6812 22.6281C19.332 23.7165 19.9901 24.8012 20.6685 25.9229ZM31.652 56.5721C31.6489 56.4576 31.6667 56.3917 31.6427 56.3499C31.0394 55.3285 30.4324 54.3097 29.8069 53.2594C29.6099 53.2705 29.4178 53.2557 29.2387 53.2976C28.5129 53.4687 27.7895 53.6485 27.0692 53.8418C25.761 54.1921 24.4343 54.4445 23.0793 54.5731C23.7762 54.4051 24.4749 54.2462 25.1681 54.0653C25.8632 53.8843 26.5527 53.6842 27.2428 53.4859C27.9551 53.2809 28.6643 53.0673 29.3729 52.858C29.4431 52.4966 29.2036 52.3015 29.0694 52.0811C27.3727 49.2984 25.6767 46.517 23.959 43.7479C21.8191 40.2991 19.6589 36.8627 17.506 33.4213C17.4186 33.2809 17.3207 33.148 17.1926 32.9602C16.963 32.9171 16.6952 32.8697 16.428 32.8155C15.9959 32.7281 15.56 32.6518 15.1334 32.541C14.8194 32.4603 14.671 32.2818 14.7221 32.1112C14.7917 31.8748 14.9973 31.8656 15.1912 31.8607C15.4116 31.8545 15.6326 31.8699 15.853 31.8699C16.0131 31.8699 16.1732 31.8613 16.3677 31.8551C16.3615 31.7419 16.3825 31.6538 16.3492 31.5984C15.5046 30.2071 14.6538 28.8188 13.7876 27.4035C13.4213 27.377 13.0661 27.3629 12.7146 27.3223C12.03 27.2435 11.3423 27.1763 10.667 27.0495C10.3505 26.9904 10.0316 26.8439 9.76199 26.6654C9.34582 26.3896 9.25471 25.9359 9.50527 25.4988C9.64071 25.2636 9.82478 25.0456 10.0267 24.8634C10.3124 24.6061 10.6343 24.3875 10.9434 24.1554C11.117 24.0249 11.2961 23.9018 11.4599 23.7848C11.4396 23.4198 11.2136 23.1945 11.0597 22.942C9.24732 19.9716 7.41459 17.0147 5.61387 14.0382C4.51312 12.2196 3.46039 10.3721 2.3818 8.53997C2.04875 7.97359 1.65598 7.446 1.38264 6.83961C1.12161 6.26276 0.786706 5.71915 0.502285 5.15154C0.342221 4.83203 0.208013 4.49713 0.0793461 4.16223C-0.0585551 3.80209 -0.0203862 3.45364 0.222788 3.1452C0.392702 2.92912 0.549072 2.68964 0.759003 2.52034C1.51007 1.91271 2.27838 1.32601 3.04853 0.742393C3.22276 0.610031 3.4333 0.526306 3.62168 0.411797C3.82484 0.287445 4.02123 0.152008 4.25455 -5.34058e-05C4.72428 0.166168 5.0481 0.518921 5.33499 0.996651C6.1864 2.41691 7.12155 3.78607 7.9939 5.19402C10.0877 8.57507 12.1623 11.966 14.2475 15.3513C14.4198 15.6314 14.5633 15.9312 14.868 16.1141C14.969 16.1744 15.0607 16.3271 15.0718 16.4459C15.0964 16.7057 15.2023 16.9175 15.3328 17.1323C16.0365 18.2879 16.7346 19.4471 17.4358 20.6039C17.4925 20.6968 17.5639 20.7812 17.6458 20.8926C17.7498 20.8858 17.8612 20.8981 17.9591 20.868C19.4089 20.4186 20.8618 19.9753 22.3055 19.5062C23.9375 18.9743 25.5942 18.5471 27.2896 18.2805C29.7995 17.8865 32.3095 17.4814 34.8459 17.2887C36.2784 17.1804 37.7122 17.1188 39.146 17.2789C40.2505 17.4026 41.3266 17.647 42.3381 18.113C42.7099 18.2848 43.0818 18.4935 43.3914 18.7582C44.1671 19.4237 44.2225 20.3484 43.5318 21.0927C43.2554 21.3906 42.9088 21.6369 42.5609 21.8555C41.5741 22.4754 40.4924 22.9008 39.4009 23.293C37.2659 24.06 35.073 24.6209 32.8537 25.0844C29.9855 25.6841 27.0945 26.1464 24.1967 26.5712C23.4585 26.6795 22.7173 26.7608 21.9786 26.8636C21.7945 26.8888 21.616 26.9492 21.4307 26.9954C21.6529 27.5974 23.3662 30.4761 24.0846 31.4599C24.1893 31.4599 24.3247 31.4753 24.4559 31.4587C27.225 31.1035 29.9781 30.651 32.6979 30.0181C33.8264 29.7558 34.9364 29.4129 36.0513 29.0953C37.1933 28.7696 38.3248 28.4002 39.5148 28.2808C39.7346 28.2592 39.9605 28.2057 40.1735 28.2358C40.3804 28.2654 40.5915 28.3565 40.7695 28.4704C40.908 28.5597 40.9831 28.745 40.8883 28.9093C40.8273 29.0165 40.7067 29.1451 40.5989 29.1593C39.9267 29.251 39.3418 29.5625 38.744 29.847C37.3152 30.5272 35.8136 31.0068 34.277 31.3509C32.8771 31.6637 31.4568 31.8952 30.039 32.1192C28.5658 32.352 27.0846 32.5323 25.6077 32.7386C25.4193 32.765 25.234 32.81 25.0339 32.8488C24.9798 33.1504 25.1675 33.3327 25.2876 33.5333C26.8119 36.0636 28.3405 38.592 29.8673 41.1216C31.7511 44.2416 33.6337 47.3629 35.5175 50.4823C35.6597 50.7174 35.8087 50.9477 35.9768 51.2155C36.2002 51.1872 36.4188 51.1816 36.6263 51.1305C38.1309 50.7599 39.6613 50.5278 41.1949 50.3284C42.1245 50.2071 43.0639 50.1622 44.0003 50.1C44.1862 50.0877 44.3857 50.1264 44.5636 50.1868C44.699 50.2336 44.7729 50.3635 44.6609 50.5426C41.925 50.9064 39.1627 51.2198 36.4286 51.7573C36.5955 52.323 37.836 54.4451 38.427 55.1999C41.712 54.772 48.9309 53.0168 51.4248 51.5732C51.3041 51.5141 51.2186 51.4396 51.1281 51.4334C50.6602 51.4008 50.1917 51.3786 49.7232 51.3669C49.3932 51.3596 49.0657 51.3602 48.7794 51.1859C48.7548 50.9631 48.9173 50.9372 49.0288 50.9089C50.1701 50.6153 51.3238 50.5765 52.4714 50.8461C53.207 51.0191 53.3831 51.6649 52.8598 52.2264C52.6561 52.4449 52.3963 52.6173 52.1432 52.7823C50.8418 53.6343 49.4289 54.2493 47.9588 54.7498C45.4944 55.5883 42.9605 56.1479 40.4173 56.6768C40.123 56.7383 39.8306 56.8079 39.5326 56.8744C39.4772 57.184 39.6601 57.3681 39.7814 57.5719C41.4811 60.4161 43.1803 63.2603 44.8837 66.1021C47.8646 71.0751 50.8492 76.0463 53.8325 81.0188C53.9175 81.161 54.0074 81.3001 54.0899 81.4442C54.269 81.7569 54.4531 82.0641 54.7775 82.1472C54.8532 82.4532 54.9019 82.6902 54.9702 82.9217C55.057 83.2117 55.1764 83.4918 55.2509 83.7842C55.3907 84.3266 55.2725 84.8295 54.9444 85.2759C54.418 85.9925 53.8104 86.6315 53.0704 87.1332C52.653 87.4158 52.1949 87.5925 51.6926 87.6682C51.4248 87.7088 51.1595 87.7852 50.9034 87.8757C50.6325 87.9723 50.3985 87.9083 50.2194 87.7224C49.9916 87.4854 49.7743 87.228 49.6007 86.9498C48.8404 85.7327 48.0961 84.5051 47.3481 83.2794C47.1757 82.998 47.0113 82.7112 46.8266 82.3978C46.6327 82.4052 46.445 82.4033 46.2597 82.423C43.6722 82.7019 41.1327 83.2369 38.6147 83.8796C36.4471 84.4325 34.277 84.9754 32.1143 85.5455C31.3158 85.7561 30.5346 86.0331 29.7429 86.2732C29.509 86.3446 29.2676 86.392 29.0171 86.4086C29.6893 86.1624 30.3462 85.8854 31.0431 85.7068C31.7899 85.5154 32.5175 85.25 33.2581 85.0309C33.9729 84.8191 34.692 84.6215 35.411 84.4257C36.1578 84.2231 36.9045 84.0218 37.6544 83.8341C38.3777 83.6518 39.106 83.4893 39.8306 83.3139C40.5552 83.1378 41.2755 82.9426 42.0032 82.7813C42.7586 82.6127 43.5232 82.4895 44.2773 82.3184C44.9964 82.1546 45.7468 82.1386 46.453 81.8954C46.0079 80.5792 33.9396 59.7875 32.7065 58.2097C32.488 58.238 32.2442 58.2614 32.0029 58.3008C28.7585 58.8321 25.5178 59.3861 22.2698 59.891C20.6334 60.1452 18.9878 60.3551 17.3256 60.3699C16.5782 60.3767 15.8364 60.3256 15.11 60.1317C14.6526 60.0098 14.2167 59.838 13.8492 59.5296C13.1732 58.9638 13.1018 58.1413 13.6848 57.4888C14.0437 57.0861 14.4789 56.8017 15.0453 56.7943C15.1198 56.7937 15.1949 56.8399 15.2608 56.8614C15.3341 57.064 15.1648 57.1083 15.0761 57.189C14.8539 57.3933 14.5916 57.5626 14.4001 57.791C14.048 58.2103 14.1305 58.5754 14.6279 58.7711C14.9567 58.9004 15.3162 58.9755 15.669 59.0162C16.7186 59.1374 17.764 59.0168 18.8062 58.8918C21.1665 58.608 23.5029 58.1758 25.8373 57.7344C27.5476 57.4112 29.2559 57.0806 30.9649 56.7482C31.2013 56.702 31.4328 56.6287 31.652 56.5721Z" fill="#39D192"/>
<path d="M60.3256 66.4863C61.1124 66.0073 61.893 65.5548 62.649 65.0648C63.2265 64.6911 63.8089 64.3094 64.3266 63.8588C65.0438 63.2357 65.5068 62.4527 65.2962 61.4498C65.0635 60.3429 64.8148 59.2378 64.5218 58.1457C64.0563 56.4139 63.538 54.6957 63.0596 52.967C62.3898 50.5457 61.656 48.1454 60.8046 45.7814C60.6371 45.316 60.4297 44.8604 60.1957 44.4245C59.8461 43.7732 59.2754 43.4087 58.5428 43.3189C58.2152 43.2795 57.8834 43.2727 57.5528 43.2591C57.1126 43.2407 56.6719 43.2253 56.2317 43.2179C56.1036 43.2154 55.9756 43.2444 55.8143 43.2622C57.2739 50.9514 58.7244 58.5957 60.1791 66.2394C60.1933 66.3108 60.2567 66.373 60.3256 66.4863ZM53.5568 34.1072C53.7045 34.1429 53.8086 34.181 53.9144 34.1921C55.6444 34.3664 57.3761 34.5837 59.1104 34.2709C60.2573 34.0641 61.4153 33.9865 62.5733 33.9964C64.089 34.0093 65.4551 34.4291 66.4936 35.6339C67.02 36.244 67.4719 36.8991 67.8566 37.604C68.5486 38.8709 69.0362 40.2198 69.4634 41.5926C69.9966 43.3084 70.4441 45.0451 70.8375 46.799C71.1398 48.1454 71.5184 49.4752 71.8638 50.8123C71.9672 51.2131 72.0817 51.612 72.1759 52.0153C72.9719 55.4314 73.7667 58.8481 74.5553 62.2667C74.7726 63.2087 74.9715 64.1549 75.1734 65.0999C75.3125 65.7543 75.3322 66.4136 75.2479 67.0779C75.0669 68.5031 74.3922 69.6168 73.1966 70.4269C71.9777 71.2543 70.6756 71.9057 69.2787 72.3723C68.3885 72.6697 67.4959 72.9602 66.6131 73.2791C65.5985 73.6461 64.6221 74.0973 63.7202 74.6969C63.4186 74.897 63.1144 75.0854 62.7457 75.126C62.2402 75.1827 61.9515 74.8829 62.0272 74.3823C62.0783 74.0444 62.2199 73.7421 62.4711 73.5131C62.7555 73.2533 63.0455 72.991 63.3668 72.7829C64.342 72.1501 65.3763 71.6366 66.4715 71.2352C67.5593 70.8357 68.6286 70.3869 69.6961 69.9363C70.462 69.6118 71.1509 69.1507 71.8287 68.6699C72.6148 68.1121 72.9744 67.3426 72.9793 66.4025C72.9811 66.019 72.9454 65.6268 72.8617 65.2538C72.5539 63.8797 72.2184 62.5111 71.8946 61.1395C71.3177 58.6936 70.7286 56.2502 70.1683 53.8006C69.3563 50.2459 68.5788 46.6839 67.7606 43.1305C67.4319 41.7041 66.9972 40.3047 66.4339 38.9497C66.0922 38.1291 65.6422 37.3737 65.0783 36.6836C64.4442 35.9079 63.6088 35.5182 62.6355 35.4542C61.7286 35.3938 60.8181 35.3815 59.9088 35.5047C58.6456 35.6752 57.3804 35.7158 56.1178 35.4585C55.4966 35.3317 54.8668 35.2461 54.2395 35.1488C54.1632 35.1365 54.0807 35.1661 53.9625 35.1808C54.5061 37.4999 55.0466 39.8018 55.5976 42.1479C55.7847 42.1578 55.9725 42.1898 56.156 42.1732C56.7063 42.1227 57.253 42.0383 57.8034 41.9959C58.1875 41.9663 58.5785 41.9478 58.9602 41.9854C60.0578 42.0944 60.9523 42.5666 61.6055 43.4894C62.2045 44.3359 62.5745 45.2858 62.9365 46.2394C63.8501 48.6422 64.6246 51.0887 65.2599 53.5814C65.7025 55.3206 66.1883 57.0493 66.6592 58.7817C66.8993 59.6645 67.0514 60.5602 67.1302 61.4713C67.185 62.1017 67.0391 62.6657 66.706 63.2056C66.2301 63.977 65.6213 64.5766 64.8136 65.0069C63.7178 65.5899 62.6466 66.2191 61.5747 66.847C61.2682 67.0268 60.9911 67.2601 60.711 67.483C60.5245 67.632 60.4605 67.8394 60.5146 68.0783C60.5269 68.1318 60.5325 68.1873 60.5436 68.2414C60.9289 70.1357 61.2712 72.0405 61.7108 73.9225C62.5006 77.3103 63.3484 80.6839 64.1752 84.0631C64.2552 84.39 64.3051 84.7157 64.2213 85.0451C64.1339 85.388 63.9425 85.657 63.5762 85.7272C63.2499 85.7894 62.9765 85.6539 62.774 85.4003C62.6724 85.2729 62.5862 85.1263 62.5234 84.9767C62.4489 84.7994 62.4003 84.6098 62.3523 84.4233C61.7797 82.175 61.2435 79.9169 60.6322 77.6797C58.8395 71.114 57.692 64.4147 56.4496 57.7338C55.3175 51.6508 54.1718 45.5696 53.0101 39.4921C52.7564 38.1642 52.4351 36.8461 52.0903 35.5379C51.8792 34.7407 51.588 33.96 51.2845 33.1911C51.1355 32.8119 50.9089 32.4505 50.6608 32.1248C50.2835 31.6299 49.7651 31.4089 49.1292 31.5031C48.7745 31.5554 48.4181 31.6022 48.0604 31.6299C47.8997 31.6416 47.7286 31.6243 47.5735 31.58C47.3223 31.5074 47.2305 31.1706 47.3906 30.9668C47.4245 30.9231 47.4626 30.8819 47.5063 30.8486C48.942 29.759 50.5119 29.642 51.8478 30.9422C52.4123 31.4914 52.7878 32.1649 53.0809 32.887C53.2366 33.2705 53.3819 33.6584 53.5568 34.1072Z" fill="#39D192"/>
<path d="M10.8544 36.9071C11.2096 36.9065 11.566 36.8917 11.92 36.912C12.093 36.9213 12.2241 37.0426 12.2623 37.2248C12.2999 37.4039 12.2346 37.564 12.085 37.6551C11.8505 37.7967 11.6054 37.926 11.3536 38.0343C9.78748 38.7078 8.79631 40.1133 8.70766 41.8186C8.62824 43.3392 8.7052 44.8524 8.93544 46.3595C9.63603 50.9484 10.4899 55.509 11.4411 60.0511C12.8619 66.8354 14.3197 73.6129 15.7591 80.394C16.4301 83.5547 17.0925 86.7178 17.7654 89.8784C17.9606 90.7963 18.1798 91.7099 18.3854 92.626C18.4586 92.9492 18.5596 93.2718 18.5818 93.5993C18.6082 93.9798 18.591 94.3701 18.5405 94.7487C18.4906 95.1218 18.3023 95.4388 17.9064 95.5404C17.4724 95.6518 17.1436 95.4327 16.9122 95.1008C16.7096 94.8103 16.5533 94.4834 16.4043 94.1602C16.3249 93.9878 16.299 93.7889 16.2571 93.6005C15.6784 90.957 15.0757 88.3178 14.5278 85.6675C13.3323 79.88 12.1737 74.0844 10.9836 68.2944C9.86074 62.8295 8.73906 57.3639 7.82361 51.8602C7.4844 49.8181 7.21783 47.7625 6.96666 45.7069C6.81275 44.4449 6.854 43.173 6.97281 41.9042C7.13719 40.1539 7.95597 38.7688 9.29312 37.6643C9.74992 37.287 10.2603 37.0278 10.8544 36.9071Z" fill="#39D192"/>
<path d="M46.6094 98.6938C43.9498 99.1254 41.2158 99.4948 38.4609 99.7084C36.4238 99.8666 34.3872 100.014 32.344 99.999C29.4739 99.9799 26.6112 99.8174 23.7572 99.4935C22.114 99.307 20.5787 98.809 19.1541 97.9754C18.8937 97.8233 18.64 97.646 18.4264 97.4367C18.3298 97.3419 18.3033 97.1381 18.3094 96.9867C18.3162 96.8242 18.5385 96.709 18.7724 96.7312C18.9626 96.7484 19.1541 96.7878 19.3369 96.8445C19.7328 96.9658 20.1262 97.0963 20.5146 97.2391C21.6098 97.6405 22.7383 97.8744 23.9006 97.9748C27.2576 98.2641 30.6177 98.3731 33.9852 98.2007C37.0757 98.0419 40.1483 97.7168 43.2043 97.2379C44.5679 97.0242 45.9328 96.8125 47.2853 96.5397C49.7054 96.0522 52.0201 95.2482 54.2149 94.108C56.2914 93.0288 58.129 91.635 59.7469 89.9488C60.1871 89.4902 60.6088 89.01 61.201 88.7385C61.4233 88.6363 61.6572 88.5341 61.8961 88.4959C62.3116 88.4282 62.6786 88.6978 62.7321 89.1097C62.7598 89.319 62.7309 89.5517 62.6681 89.7561C62.513 90.2615 62.2766 90.7331 61.9035 91.116C61.4805 91.5507 61.0619 91.9945 60.6014 92.3867C57.9019 94.6855 54.8847 96.4179 51.4956 97.4964C49.9128 98 48.3085 98.3946 46.6094 98.6938Z" fill="#39D192"/>
<path d="M12.4082 32.0999C12.4519 32.4883 12.2697 32.6429 12.0376 32.7623C11.8246 32.8725 11.6066 32.8355 11.3998 32.7543C11.076 32.6275 10.8716 32.3683 10.7109 32.074C10.2978 31.3205 10.0183 30.5183 9.85516 29.6774C9.7819 29.3006 9.7388 28.9171 9.70433 28.5341C9.68463 28.3168 9.69632 28.0946 9.71972 27.8773C9.76097 27.4956 9.91364 27.2881 10.1605 27.261C10.4936 27.2241 10.6813 27.4457 10.7841 27.703C10.9873 28.2115 11.1701 28.7305 11.3191 29.2581C11.4607 29.7592 11.5438 30.277 11.662 30.7855C11.7864 31.3205 11.8726 31.8801 12.4082 32.0999Z" fill="#39D192"/>
<path d="M44.3176 25.0304C44.3318 25.143 44.3927 25.4416 44.4032 25.7414C44.4124 26.0185 44.2265 26.2419 43.9994 26.301C43.7586 26.3651 43.5703 26.2702 43.4059 26.104C43.3862 26.0843 43.3659 26.0652 43.3523 26.0418C42.7903 25.0827 42.3248 24.0934 42.3433 22.9446C42.3488 22.6257 42.4055 22.3333 42.7361 22.1948C42.9842 22.0901 43.276 22.2668 43.5093 22.6707C43.8996 23.3472 44.0818 24.0983 44.3176 25.0304Z" fill="#39D192"/>
<path d="M27.8477 86.7468C28.0256 86.7123 28.2035 86.6778 28.3808 86.6434C28.3851 86.6631 28.3894 86.6834 28.3937 86.7043C28.2158 86.7388 28.0379 86.7733 27.8606 86.8083L27.8477 86.7468Z" fill="#39D192"/>
<path d="M26.8599 87.1093C27.0033 87.0816 27.1474 87.0533 27.2908 87.0256C27.2951 87.0453 27.2988 87.0656 27.3025 87.086C27.1591 87.1137 27.015 87.142 26.8716 87.1697C26.8679 87.1494 26.8636 87.1297 26.8599 87.1093Z" fill="#39D192"/>
<path d="M25.9102 87.4652C26.053 87.4375 26.1958 87.4098 26.3393 87.3815C26.3442 87.403 26.3491 87.4252 26.354 87.4467C26.2124 87.4812 26.0708 87.5163 25.9292 87.5514C25.9231 87.5225 25.9169 87.4941 25.9102 87.4652Z" fill="#39D192"/>
<path d="M25.1267 88.0081C25.0498 87.7495 25.1957 87.7089 25.4185 87.7267C25.3151 87.8252 25.2203 87.9163 25.1249 88.0074L25.1267 88.0081Z" fill="#39D192"/>
<path d="M25.1251 88.0075L24.4072 88.2512L24.43 88.2623C24.4442 88.0678 24.5851 88.0112 24.744 87.997C24.8702 87.9859 24.9982 88.0031 25.1263 88.0081C25.1269 88.0081 25.1251 88.0075 25.1251 88.0075Z" fill="#39D192"/>
<path d="M24.4072 88.251C24.241 88.3249 24.0754 88.3987 23.9092 88.4726L23.9344 88.4905C24.0157 88.2381 24.2262 88.2615 24.4275 88.2615C24.43 88.2627 24.4072 88.251 24.4072 88.251Z" fill="#39D192"/>
<path d="M23.909 88.4729C23.8856 88.5135 23.8659 88.5579 23.8364 88.5942C23.8247 88.6096 23.7933 88.609 23.7705 88.6151C23.7785 88.5843 23.7767 88.5363 23.7957 88.5252C23.8358 88.5031 23.8862 88.5006 23.9336 88.4895C23.9349 88.4901 23.909 88.4729 23.909 88.4729Z" fill="#39D192"/>
</svg>
