<svg width="20" height="16" viewBox="0 0 20 16" fill="none" xmlns="http://www.w3.org/2000/svg">
<path d="M6.05865 1.03131C5.98443 1.12506 5.97661 1.18756 5.97661 1.64068C5.97661 2.82037 6.17974 3.75787 6.64068 4.69147C6.87505 5.16412 7.26568 5.75397 7.55474 6.07428C7.67583 6.20318 7.77349 6.32037 7.77349 6.32818C7.77349 6.33209 7.60943 6.336 7.41411 6.32818C7.18755 6.32037 6.94146 6.336 6.75786 6.37506C6.23443 6.48443 5.92974 6.67193 4.83208 7.55084C4.2813 7.99615 3.81255 8.34772 3.79302 8.336C3.77349 8.32428 3.68755 8.18365 3.59771 8.0235C3.44146 7.73443 3.38677 7.68756 3.22661 7.68756C3.17193 7.68756 2.66802 8.05084 1.87115 8.66803C1.17583 9.20709 0.593802 9.66803 0.578177 9.69537C0.484427 9.8399 0.570365 9.961 2.49615 12.4532C3.57036 13.8399 4.48833 14.9962 4.53911 15.0274C4.5938 15.0587 4.67193 15.0704 4.73052 15.0587C4.81255 15.0352 6.18755 13.9922 6.49615 13.7188C6.64068 13.5899 6.62896 13.4805 6.44536 13.1407C6.35943 12.9844 6.28911 12.8477 6.28911 12.8321C6.28911 12.7891 6.64068 12.5665 6.95318 12.4102C7.36333 12.2071 7.83208 12.0743 8.33208 12.0235C8.77349 11.9766 8.67583 11.9688 11.2266 12.2462C12.7149 12.4063 12.8555 12.4024 13.2969 12.1837C13.5313 12.0665 18.6368 8.00787 19.0274 7.62115C19.129 7.5235 19.2618 7.34772 19.3204 7.22272C19.4219 7.0274 19.4336 6.9649 19.4336 6.61334C19.4336 6.2735 19.4219 6.19537 19.3282 6.00006C19.1368 5.5899 18.7813 5.29303 18.3477 5.18365C18.2461 5.16022 18.168 5.12897 18.1719 5.11334C18.6563 4.12897 18.793 3.7735 18.9219 3.14459C19.0001 2.7735 19.0626 2.05865 19.0626 1.53131C19.0626 1.19147 19.0508 1.12115 18.9805 1.03131L18.9024 0.929747H12.5196H6.13677L6.05865 1.03131ZM18.5157 1.79693C18.5157 1.97662 18.504 2.2149 18.4922 2.32428L18.4649 2.53131H12.5196H6.57427L6.54693 2.38287C6.53521 2.30475 6.52349 2.06647 6.52349 1.85553V1.47662H12.5196H18.5157V1.79693ZM18.3516 3.24225C18.1797 4.01178 17.6172 5.12897 17.2969 5.32818C17.168 5.41022 15.793 6.48443 14.3165 7.65631L13.9297 7.96881L13.8829 7.836C13.7227 7.36725 13.379 7.03131 12.961 6.92975C12.8594 6.90631 9.6524 6.54693 9.04693 6.49225C8.74615 6.4649 8.73443 6.461 8.48833 6.25006C7.99615 5.83209 7.41411 5.06256 7.10943 4.42193C6.9649 4.12506 6.72661 3.45318 6.66411 3.18365L6.64068 3.07818H12.5157H18.3907L18.3516 3.24225ZM18.3516 5.75787C18.8321 5.95709 19.0391 6.51959 18.8126 7.00787C18.7266 7.19537 18.543 7.34772 15.9688 9.41412C14.4571 10.629 13.1407 11.6641 13.0469 11.711C12.7657 11.8555 12.5196 11.8477 10.7618 11.6524C9.32036 11.4922 9.05083 11.4727 8.53521 11.4883C8.06255 11.504 7.87505 11.5274 7.55865 11.6094C7.14458 11.7227 6.49224 12.0118 6.19146 12.2188C6.0899 12.2891 6.00396 12.336 5.99615 12.3282C5.99224 12.3243 5.5938 11.6133 5.11724 10.754C4.64068 9.89459 4.20708 9.11725 4.1563 9.0274L4.06255 8.86334L5.08599 8.04303C5.64849 7.5899 6.20708 7.16803 6.32818 7.10553C6.61333 6.95318 6.9649 6.86725 7.28911 6.86725C7.43755 6.86725 8.75005 7.00006 10.2032 7.15631C12.5469 7.41412 12.8672 7.45709 13.004 7.53131C13.1954 7.64068 13.3047 7.78912 13.3672 8.01568C13.4649 8.37897 13.2266 8.78912 12.8555 8.9024C12.7227 8.94147 12.4454 8.92193 10.9766 8.76178L9.25396 8.57428L9.1563 8.66412C9.03521 8.78131 9.0313 8.94928 9.1563 9.04303C9.29693 9.15631 12.5899 9.51178 12.8907 9.44928C13.2422 9.37506 13.5235 9.19147 13.7071 8.91412C13.7852 8.79303 14.3438 8.32818 15.6485 7.29303C16.6563 6.49615 17.5508 5.81256 17.6368 5.7735C17.8321 5.68365 18.1602 5.67584 18.3516 5.75787ZM3.37115 8.72272C3.4649 8.89459 4.08208 10.0079 4.74224 11.1954C5.4063 12.3829 5.94927 13.379 5.95318 13.4063C5.95708 13.4532 4.78521 14.4024 4.72271 14.4063C4.69146 14.4063 1.25786 9.98053 1.23052 9.90631C1.21099 9.84772 3.12896 8.34772 3.17193 8.38678C3.18755 8.4024 3.2774 8.55084 3.37115 8.72272Z" fill="#0A1C2D"/>
</svg>
