<svg width="140" height="148" viewBox="0 0 140 148" fill="none" xmlns="http://www.w3.org/2000/svg">
<path d="M87.1702 44.9575C87.9863 44.7272 88.8251 44.4897 89.6523 44.256C91.5645 43.704 93.4801 43.1631 95.2105 42.6959C95.5079 42.6226 95.8472 42.5242 96.2233 42.4258C98.028 41.922 100.499 41.2239 101.938 41.3838C103.003 41.4935 103.155 42.1122 103.168 42.5658C103.182 42.7597 103.164 43.4224 102.674 43.6696C102.223 43.8793 98.8665 44.4828 98.222 44.5202C94.1535 44.8001 90.7207 44.9463 87.1702 44.9575ZM107.02 42.5678C107.014 43.0408 107.018 43.6213 106.621 44.2225C106.22 44.812 105.419 45.433 103.798 45.9647C95.7785 48.5909 87.0028 48.492 79.9635 45.7193C86.5879 45.9406 91.5685 45.8702 98.2889 45.4027C98.8213 45.3648 101.831 44.8741 102.837 44.5449C102.938 44.5123 103.017 44.4856 103.069 44.4564C103.718 44.1328 104.09 43.4155 104.051 42.5373C104.004 41.3763 103.268 40.6388 102.033 40.4983C100.43 40.3301 97.854 41.05 95.9825 41.5759C95.6181 41.6707 95.2781 41.7694 94.9838 41.853C93.251 42.3095 91.3238 42.8542 89.4112 43.4055C87.518 43.9388 85.6385 44.4801 83.9174 44.9329C82.9493 44.9278 81.9934 44.882 80.9662 44.8463C81.0189 44.8172 81.0706 44.7877 81.1223 44.7583L81.134 44.7546C86.9835 42.8758 93.5448 40.9003 100.125 39.476C101.769 39.1237 103.37 38.8343 104.85 39.2662C106.34 39.695 107.016 41.2321 107.02 42.5678ZM86.837 50.9739C91.816 56.2293 96.2134 62.0215 99.9625 68.2121C100.391 68.9144 100.799 69.8581 100.338 70.3803C100.009 70.7357 99.3838 70.6806 98.9571 70.4363C98.4378 70.1357 98.0499 69.5562 97.7103 69.049L85.8706 51.3891C85.801 51.2881 85.689 51.2132 85.5585 51.1943C85.482 50.9962 85.4086 50.81 85.3199 50.6159C85.1218 50.1609 84.931 49.6908 84.7247 49.2138L84.4154 48.4973C84.7153 48.8079 85.0232 49.1032 85.3225 49.4141C85.8375 49.9264 86.3407 50.4423 86.837 50.9739ZM82.271 49.3985C81.9878 48.7226 81.7012 48.0358 81.407 47.3649C81.3812 47.2865 81.3481 47.2232 81.3112 47.1481C81.9101 47.3488 82.5229 47.5196 83.1438 47.6752C83.1395 47.7389 83.146 47.7987 83.1792 47.8621C83.3121 48.1529 83.4335 48.4475 83.5665 48.7384C83.7897 49.2721 84.0075 49.7832 84.2237 50.2942C86.9922 56.7811 89.0221 62.1847 91.0437 68.3958C91.0518 69.0621 90.867 69.5184 90.5127 69.6846C90.408 69.7441 90.3005 69.754 90.1847 69.7419C90.151 69.7539 90.1029 69.7567 90.0585 69.7344C89.9687 69.7262 89.8762 69.7067 89.791 69.6737C89.7236 69.6578 89.6494 69.6199 89.5865 69.5793C89.5124 69.5414 89.4486 69.5004 89.3937 69.4444C89.3045 69.3624 89.2121 69.2684 89.1419 69.1677C89.064 69.0814 88.9943 68.9804 88.9385 68.8873C88.8869 68.8056 88.8351 68.7233 88.7838 68.6406C88.7141 68.5028 88.6551 68.361 88.5962 68.2193C88.434 67.839 88.3285 67.4402 88.2264 67.0525L88.2187 67.0301C88.1935 66.9514 88.1636 66.8623 88.1495 66.7802C86.5917 60.8875 84.6158 55.0449 82.271 49.3985ZM91.8996 52.2887C95.7497 53.9869 98.0246 58.0971 99.8734 61.8132C100.993 64.0973 102.032 66.1723 103 68.1089C107.859 77.8004 111.063 84.2191 115.496 96.2785L115.503 96.3011L115.671 96.8156C117.528 102.486 118.051 105.932 117.262 107.305C116.315 108.952 113.272 112.029 111.743 113.224C104.811 118.677 96.8672 123.198 89.1625 126.786C76.9026 132.498 65.2391 135.872 59.1594 136.972C53.5408 137.932 51.8762 137.425 49.7657 135.441C47.2361 133.05 45.5484 129.714 43.9096 126.485L43.4562 125.593C42.86 124.414 42.1631 123.082 41.4156 121.63C36.4416 111.964 28.1082 95.782 26.7008 90.1615C26.1762 88.0679 25.7976 84.9837 26.9773 82.1943C27.5573 80.828 28.342 79.5552 29.0924 78.3315C30.0878 76.7175 31.1055 75.059 31.7182 73.1121C32.0516 72.049 32.0531 70.8846 31.8665 69.7075C33.9042 69.3496 36.949 68.5504 40.5727 67.3637C48.9951 64.6057 60.4583 59.7862 69.2693 53.8295C72.8705 51.399 76.0325 48.7659 78.3623 46.0087C78.4365 46.0466 78.511 46.0836 78.5778 46.0998C79.246 47.0073 80.0425 47.8119 80.9359 48.4977C83.2627 53.9402 85.2326 59.5742 86.8137 65.2732C86.9902 65.8474 87.1428 66.4294 87.2963 67.01C87.5808 68.0687 87.8906 69.2797 88.7906 70.1003C89.2837 70.5449 89.9753 70.7273 90.5707 70.5821C90.6197 70.5781 90.6641 70.5636 90.7091 70.5489C90.7652 70.5307 90.8209 70.512 90.873 70.4831C91.2839 70.2985 91.975 69.7636 91.9189 68.3072C91.9161 68.2591 91.9157 68.2218 91.901 68.1767C90.3709 63.4643 88.8296 59.2133 86.9782 54.6186L96.9673 69.54C97.3699 70.1262 97.813 70.7991 98.5146 71.2008C99.0186 71.4934 99.6988 71.6052 100.292 71.4106C100.549 71.3267 100.788 71.1864 100.991 70.9717C101.444 70.4645 101.772 69.5023 100.717 67.7551C97.1488 61.8511 92.9982 56.3245 88.3056 51.2606C89.5656 51.5165 90.7664 51.7802 91.8996 52.2887ZM72.9487 37.1557C72.8726 36.7719 72.9331 36.5788 72.982 36.538C73.012 36.516 73.1092 36.5091 73.2084 36.5507C73.3761 36.6068 73.5503 36.7611 73.6944 36.8991C74.7204 37.8384 75.7243 39.4671 76.2469 40.6083L76.254 40.6309C76.2617 40.6533 76.2651 40.6643 76.2621 40.6907C75.8871 41.0602 75.4902 41.4381 75.0799 41.8086C74.1938 40.3149 73.202 38.4969 72.9487 37.1557ZM66.8657 41.7612C66.7622 41.4853 66.6712 41.206 66.7274 41.0384C66.7805 40.8603 67.0867 40.7353 67.3619 40.7816C67.7409 40.843 68.1042 41.1205 68.4154 41.3901C69.4792 42.3297 70.3731 43.51 70.9695 44.8012C71.003 44.8652 71.0434 44.9135 71.0842 44.9625C70.4714 45.3982 69.8435 45.8265 69.2016 46.2479C69.1792 46.1805 69.161 46.1244 69.1279 46.0611C68.2153 44.7123 67.4678 43.2604 66.8657 41.7612ZM58.379 48.2187C58.2579 47.8497 58.1484 47.477 58.1652 47.1118C58.178 46.811 58.2988 46.5361 58.4778 46.4032C58.6642 46.2554 58.9776 46.2265 59.2819 46.3255C59.6536 46.4387 59.9759 46.7049 60.2543 46.9484C61.265 47.8431 62.056 48.9717 62.5738 50.2137C61.7343 50.6744 60.8909 51.1245 60.0437 51.5628C59.334 50.5315 58.7786 49.4011 58.379 48.2187ZM50.2165 52.4895C50.1395 52.1805 50.0706 51.8562 50.1135 51.57C50.1481 51.3353 50.257 51.1385 50.4064 51.0651C50.5331 50.9988 50.7341 51.0072 50.9309 51.0793C51.1871 51.181 51.4103 51.3679 51.6357 51.5665C52.5691 52.4128 53.364 53.4404 53.9644 54.556C53.1371 54.9393 52.3196 55.3182 51.521 55.6784C50.9348 54.6816 50.4864 53.6151 50.2165 52.4895ZM40.4913 58.1516C40.2791 57.3915 40.3462 56.6507 40.6618 56.1387C40.8196 55.8644 41.0477 55.6908 41.252 55.6734C41.6358 55.6341 42.0385 56.1091 42.3499 56.5272L44.0754 58.8477C43.0839 59.2593 42.1625 59.623 41.3044 59.9536C40.9647 59.3713 40.6592 58.7782 40.4913 58.1516ZM30.201 59.4412C30.2179 59.0016 30.444 58.4454 30.8844 58.2758C31.2127 58.144 31.6922 58.2464 32.0853 58.5395C32.4964 58.8503 32.8069 59.3064 33.1393 59.8286C33.6597 60.6616 34.1609 61.5127 34.637 62.3602C33.6971 62.6305 32.7694 62.86 31.8092 62.9891C31.6897 63.0037 31.5592 63.0216 31.4288 63.0395C31.2793 62.5063 31.0655 62.0059 30.8337 61.5246L30.6719 61.1817C30.4136 60.6223 30.1826 60.0295 30.201 59.4412ZM31.9814 64.1586C33.3181 63.9684 34.6148 63.6178 35.9349 63.1853C36.718 62.9299 37.5277 62.6398 38.3548 62.331C39.2165 62.0121 40.298 61.6077 41.548 61.1129C42.1332 60.8962 42.7557 60.6425 43.4159 60.3891C44.9488 59.775 46.6609 59.0664 48.4962 58.2789C49.2354 57.9625 49.996 57.6398 50.7609 57.29C53.3608 56.1537 56.1217 54.8652 58.8838 53.4659C59.3614 53.2224 59.8277 52.9833 60.3053 52.7398C62.425 51.6494 64.5341 50.4885 66.5428 49.2851C66.5728 49.263 66.6061 49.2519 66.6361 49.2299C67.2071 48.8944 67.7637 48.5513 68.3049 48.2002C68.8088 47.8863 69.3026 47.576 69.7918 47.2554C70.9936 46.4652 72.1406 45.6558 73.2092 44.8355C73.5459 44.5763 73.886 44.3296 74.2077 44.063C75.0411 43.3937 75.8265 42.7271 76.5554 42.0429C76.6025 42.226 76.6655 42.4152 76.7279 42.6064C75.5954 44.1035 74.1437 45.5694 72.4653 46.9869C71.7883 47.5672 71.0788 48.1222 70.3313 48.6762C70.1666 48.8167 69.9839 48.9379 69.8005 49.061C69.4641 49.3193 69.1133 49.5699 68.7582 49.8108C68.284 50.1388 67.8062 50.4567 67.3167 50.7783C66.3307 51.4356 65.3109 52.0665 64.251 52.6865C63.9526 52.8706 63.6384 53.0478 63.3366 53.2208C62.8584 53.5014 62.3768 53.7709 61.8921 54.0284C61.578 54.2055 61.2605 54.3716 60.947 54.5484C60.3163 54.8919 59.6706 55.2265 59.0218 55.5507C58.2263 55.9597 57.4171 56.3606 56.6149 56.7475C54.4872 57.7782 52.3273 58.7459 50.2197 59.647C49.5669 59.9222 48.9364 60.1913 48.3025 60.4477C47.8555 60.632 47.3965 60.8194 46.9558 60.9884C45.5766 61.5388 44.2452 62.0491 42.9615 62.5193C42.399 62.7288 41.8462 62.9341 41.3027 63.1249C39.1585 63.8766 37.216 64.5251 35.5494 65.0333C35.1994 65.1357 34.8598 65.235 34.5428 65.3257L34.4984 65.3401C34.1704 65.4358 33.8648 65.5237 33.5705 65.6074L33.5478 65.6144C33.0893 65.728 32.6789 65.8372 32.3029 65.9356C32.2918 65.939 32.2918 65.939 32.2805 65.9433C32.0275 66.0005 31.7963 66.052 31.5801 66.1107C31.2447 66.1831 30.9547 66.2413 30.7087 66.2845C30.3581 65.5944 29.9518 64.9598 29.5045 64.3874C30.361 64.3549 31.1985 64.266 31.9814 64.1586ZM31.091 67.113C32.3915 66.8475 35.0191 66.1354 38.4193 65.0225C39.1687 64.7775 39.9477 64.5098 40.7601 64.2311C41.3049 64.0396 41.8607 63.8464 42.4392 63.6444L42.5167 63.6183C43.0838 63.4207 43.6473 63.2115 44.2325 62.9949C45.0715 62.683 45.9295 62.3524 46.798 62.0188C47.5666 61.7174 48.3419 61.4014 49.1295 61.0813C50.297 60.6 51.494 60.0969 52.7062 59.5634C53.337 59.295 53.9635 59.0152 54.5976 58.7211C55.1686 58.4591 55.7394 58.1981 56.3071 57.9251C57.2284 57.4879 58.1457 57.0384 59.0606 56.5782C60.1689 56.0295 61.2669 55.4472 62.3455 54.8462C62.8904 54.5435 63.4458 54.2378 63.9874 53.9241C64.7194 53.5116 65.4321 53.0804 66.1314 52.6403C66.687 52.2969 67.2392 51.9425 67.7808 51.5921C68.3226 51.2407 68.8385 50.8869 69.3536 50.5319C69.7461 50.2555 70.1382 49.9784 70.5156 49.6931C70.9944 49.3388 71.4611 48.9875 71.9095 48.6179C72.3136 48.2994 72.7053 47.985 73.0686 47.6559C73.1656 47.574 73.2623 47.493 73.3597 47.4117C73.5843 47.227 73.783 47.0384 73.9913 46.8455C74.7926 46.1131 75.5291 45.3761 76.1995 44.6242C76.3348 44.4688 76.4724 44.324 76.6043 44.1575C76.7766 43.9643 76.9445 43.7614 77.1018 43.5608C77.3334 44.1166 77.621 44.6542 77.9393 45.1694C77.4326 45.7806 76.8978 46.3776 76.3102 46.9655C76.0557 47.2473 75.794 47.5065 75.5094 47.7736C73.5827 49.6423 71.2846 51.4351 68.7707 53.1377C67.6837 53.8662 66.559 54.5928 65.3984 55.2831C64.7147 55.6919 64.0317 56.1019 63.3297 56.4923C63.1209 56.6111 62.9118 56.7293 62.703 56.8465C62.0123 57.2342 61.3182 57.6093 60.6088 57.978C60.2096 58.1957 59.8067 58.4016 59.4034 58.6086C58.5229 59.058 57.6497 59.4925 56.7727 59.9152C56.0009 60.2807 55.2394 60.6415 54.4748 60.9903C53.9778 61.2151 53.4931 61.4359 53.0044 61.646C52.9417 61.6788 52.8777 61.7123 52.8106 61.7338C52.1164 62.0354 51.4339 62.3333 50.7511 62.6305C48.3863 63.6159 46.0774 64.508 43.8968 65.2971C43.5762 65.4145 43.2549 65.5322 42.9306 65.6379C38.1987 67.2989 34.1657 68.4089 31.6817 68.8396C31.5392 68.254 31.3376 67.6761 31.091 67.113ZM25.249 62.5864C25.2453 62.5748 25.2453 62.5748 25.2346 62.5788C23.7007 61.7931 23.1468 60.3646 22.4931 58.7086C22.2799 58.1712 22.0627 57.6231 21.8165 57.0974C21.5733 56.5821 21.2827 55.8845 21.0757 55.061C21.1238 55.0949 21.1456 55.1243 21.1903 55.1472C23.2745 56.632 26.8104 56.4645 28.5728 56.1348C30.5437 55.7623 32.467 55.2437 34.3574 54.624C39.2676 53.0168 43.94 50.718 48.5067 48.4801C49.3612 48.0635 50.2127 47.6364 51.071 47.2314C51.649 46.9554 52.2127 46.6717 52.7648 46.3917C53.8281 45.8578 54.866 45.3196 55.855 44.7855C56.3626 44.52 56.8552 44.2471 57.3368 43.9776C57.8704 43.6792 58.393 43.3843 58.9006 43.082C59.3188 42.8456 59.722 42.6019 60.1212 42.3476C60.5704 42.0894 61.0036 41.8237 61.4214 41.5499C61.8433 41.2885 62.2614 41.0154 62.6686 40.7456C63.8303 39.9813 64.9167 39.2164 65.9265 38.4396C66.2439 38.2 66.5617 37.9595 66.8644 37.7116C67.1671 37.4637 67.4735 37.2275 67.7611 36.9723C68.1428 36.6616 68.5089 36.3438 68.8602 36.0178C69.0512 35.8436 69.2308 35.6737 69.4211 35.4998C69.9417 35.0069 70.4393 34.522 70.8958 34.0258C72.502 32.3113 73.2356 30.6216 73.0814 29.0128C73.053 28.6257 72.9546 28.2863 72.841 27.9774C73.2373 28.2064 73.5862 28.4762 73.9236 28.7865C75.3903 30.1266 76.326 31.9628 77.228 33.7359C77.3794 34.0451 77.5528 34.3476 77.7262 34.6501C78.4051 35.815 78.9837 36.8262 78.4399 38.2679C78.0576 38.7652 77.6201 39.2794 77.1522 39.7799C76.5369 38.5441 75.5513 37.0098 74.4884 36.0321C74.2514 35.8005 73.9806 35.5793 73.6272 35.4477C73.1592 35.2665 72.6563 35.3195 72.2874 35.5891C71.9577 35.8327 71.5904 36.3374 71.794 37.3729C72.0871 38.9491 73.2077 40.9722 74.1708 42.5886C73.4908 43.1586 72.7693 43.7166 72.0221 44.2713C71.3478 42.857 70.3725 41.5411 69.1907 40.5042C68.7571 40.126 68.2163 39.7216 67.5395 39.6209C66.6874 39.4785 65.8589 39.9358 65.6165 40.6717C65.4162 41.2695 65.6481 41.8627 65.7799 42.191C66.3971 43.7726 67.1928 45.2952 68.1418 46.7183C68.1867 46.778 68.2415 46.7973 68.3053 46.8382C67.558 47.3179 66.804 47.7754 66.0276 48.2407C65.2282 48.7124 64.4258 49.1738 63.6007 49.6421C63.0196 48.2838 62.1436 47.0478 61.029 46.0628C60.6957 45.7633 60.225 45.3845 59.6452 45.2035C58.9686 44.9917 58.269 45.0843 57.7722 45.4577C57.2938 45.8127 57.0147 46.399 56.9894 47.0764C56.9679 47.6159 57.1097 48.1267 57.26 48.5851C57.6817 49.8343 58.2669 51.017 58.9947 52.1044C57.6662 52.7746 56.3454 53.4304 55.0281 54.0595C54.365 52.7904 53.4778 51.6322 52.4113 50.6812C52.1151 50.419 51.7922 50.1531 51.3797 49.9909C50.8523 49.7801 50.2978 49.7881 49.8535 50.0205C49.3793 50.275 49.0382 50.7826 48.9455 51.4074C48.8798 51.8869 48.9667 52.3417 49.0692 52.7668C49.3606 53.9594 49.8195 55.0964 50.4392 56.1572C48.5885 56.9735 46.8279 57.7235 45.2016 58.3928L43.2838 55.8253C42.973 55.4068 42.238 54.4096 41.1652 54.5008C40.5734 54.5459 40.0169 54.9257 39.657 55.5271C39.1646 56.3322 39.0585 57.3699 39.3508 58.451C39.5332 59.1587 39.85 59.7858 40.1925 60.3794C39.3352 60.7097 38.5742 60.9966 37.9446 61.2277C37.2057 61.5063 36.4943 61.7522 35.7927 61.9937C35.2617 61.0535 34.7084 60.1195 34.1324 59.194C33.7521 58.6001 33.3529 58.0249 32.794 57.6013C32.0708 57.0573 31.1745 56.8932 30.4509 57.1798C29.6376 57.495 29.0639 58.389 29.0328 59.3898C28.9982 60.2311 29.3029 61.0107 29.6085 61.6788L29.7737 62.0328C29.9613 62.4174 30.1201 62.7866 30.2332 63.171C28.5433 63.303 26.6264 63.2748 25.249 62.5864ZM20.8245 52.555C20.8318 52.54 20.8318 52.54 20.8281 52.5284C20.8575 51.9 20.9726 51.2676 21.2068 50.6216C21.9273 48.6638 23.5806 47.1692 25.2071 45.8189C28.3847 43.1928 31.7466 40.754 35.2721 38.5469C36.2785 39.6915 37.4571 40.6797 38.7477 41.4831C37.8293 42.0067 36.9445 42.5199 36.0827 43.0251C36.0373 43.0392 36.0077 43.0619 35.9777 43.084L35.966 43.0877C35.925 43.1132 35.8993 43.1466 35.858 43.173C35.8393 43.1908 35.8246 43.2208 35.8057 43.2395C35.7797 43.2723 35.7607 43.291 35.7494 43.3321C35.7421 43.3471 35.7231 43.3658 35.7154 43.3802C35.7115 43.4063 35.7075 43.4323 35.7045 43.4587C35.6962 43.4734 35.6886 43.4878 35.6816 43.5034L35.6923 43.5362C35.681 43.5405 35.685 43.5512 35.685 43.5512C35.677 43.5666 35.677 43.5666 35.681 43.5772C35.6808 43.615 35.6881 43.6367 35.6879 43.6744C35.6956 43.6967 35.6916 43.7228 35.6993 43.7451C35.7027 43.7561 35.7061 43.7672 35.7061 43.7672C35.7098 43.7788 35.7248 43.7861 35.7288 43.7968C35.754 43.8756 35.8021 43.9463 35.8573 44.0029C35.8764 44.0209 35.8908 44.0286 35.9095 44.0475C35.9914 44.1078 36.0652 44.1451 36.1577 44.1646C36.1577 44.1646 36.1617 44.1753 36.1728 44.172C36.1844 44.1683 36.1878 44.1793 36.1988 44.1759C36.8646 44.28 37.7233 44.5556 38.5406 44.821C39.1351 45.0103 39.7287 45.1992 40.295 45.3361C40.2984 45.3472 40.3094 45.3438 40.3204 45.3404C40.4249 45.3553 40.5248 45.3598 40.6148 45.3303L40.6926 45.3048C45.5362 43.0004 51.2969 39.5648 56.0976 36.1104C56.1986 36.0408 56.2512 35.9366 56.2927 35.8357C56.3788 35.7588 56.4574 35.6585 56.5026 35.5326C56.5933 35.2797 56.5758 35.0003 56.4365 34.7615C56.2664 34.4701 55.9915 34.3494 55.8278 34.2672L53.968 33.39C53.9314 33.3156 53.8873 33.2556 53.7981 33.2103C53.8859 32.0048 53.8891 30.7659 53.7502 29.4736C54.4481 29.2204 55.1377 28.9819 55.8423 28.7507C56.909 28.3774 57.9973 28.0334 59.0787 27.7035C61.468 26.9834 64.3169 26.6072 67.1013 26.6363C68.5305 26.6519 69.7542 26.7958 70.8169 27.0918C71.2989 27.4662 71.8158 28.1764 71.9152 29.1226C72.0388 30.3702 71.3878 31.7841 70.0366 33.2174C68.2582 35.1251 66.0153 37.0113 63.3038 38.9029C61.1441 40.4027 58.687 41.9006 55.9028 43.4195C55.6637 43.5597 55.4102 43.6924 55.1567 43.825C54.3166 44.286 53.436 44.7355 52.5211 45.1957C52.2342 45.3394 51.9507 45.4941 51.6516 45.6418C51.286 45.8106 50.9247 45.9908 50.5622 46.1717C49.7046 46.5764 48.8424 47.0074 47.9875 47.4235C41.7224 50.4907 35.2598 53.6724 28.3528 54.9688C26.2995 55.3564 23.4004 55.2778 21.8804 54.19C21.2835 53.767 20.9478 53.2322 20.8245 52.555ZM42.3862 43.1401C41.7108 43.4975 41.028 43.8331 40.3755 44.1456C39.8996 44.0165 39.4016 43.8575 38.9036 43.6984C38.5436 43.5815 38.1976 43.4716 37.8409 43.3657C38.5239 42.9556 39.2259 42.5652 39.9309 42.1484C40.7221 42.5577 41.5355 42.8859 42.3862 43.1401ZM55.2199 35.2837C54.6071 35.7193 53.9829 36.1593 53.3444 36.5917C53.4708 35.9182 53.5825 35.238 53.6644 34.5422L55.2199 35.2837ZM33.2582 30.1659C33.8142 28.4605 35.7619 27.5623 37.3254 27.4589C38.766 27.359 40.3187 28.0141 41.8149 28.6515C42.1604 28.7985 42.5315 28.9488 42.8622 29.0891L42.8923 29.1037C42.9067 29.1114 42.9333 29.115 42.9444 29.1116C42.9744 29.1263 42.9998 29.1306 43.0259 29.1345C43.0519 29.1385 43.0782 29.1415 43.1 29.1341C43.1637 29.1383 43.2348 29.1275 43.2902 29.1097C43.3459 29.091 43.387 29.0655 43.4393 29.0357C43.4803 29.0103 43.5183 28.9728 43.5556 28.9357C43.589 28.8879 43.6235 28.8394 43.6452 28.7953L43.6605 28.765C43.6868 28.6945 43.6907 28.6317 43.6949 28.5679C43.7682 28.1108 43.9084 27.6683 44.1227 27.2637C44.1453 27.2199 44.1756 27.1601 44.1979 27.1156C44.3067 26.9188 44.4306 26.7294 44.5581 26.5515C44.6367 26.4513 44.704 26.3553 44.7977 26.2624C44.8766 26.1628 44.9586 26.0735 45.0526 25.9812C45.1835 25.8512 45.3142 25.7221 45.4639 25.611C45.5012 25.5739 45.5423 25.5484 45.5906 25.508C45.6203 25.4852 45.6396 25.4671 45.6693 25.4444C45.7776 25.3598 45.8863 25.2742 46.0017 25.2122C46.0314 25.1895 46.0614 25.1674 46.0948 25.1563C46.2702 25.0501 46.4349 24.9464 46.629 24.8576C46.6701 24.8322 46.7258 24.8134 46.7928 24.7919C46.9646 24.7109 47.1284 24.6451 47.3076 24.5858C47.6879 24.4619 48.0904 24.3665 48.5112 24.3278C49.1481 24.2679 50.0338 24.2881 50.6491 24.7678C51.2641 25.2469 51.9572 26.4939 52.1582 27.295C52.2745 27.7648 52.3764 28.227 52.4556 28.6963C52.5134 29.0984 52.5705 29.5009 52.6022 29.8991C52.7258 31.1467 52.7041 32.3672 52.5862 33.5581C52.55 34.0526 52.4844 34.5321 52.4184 35.0126C52.2913 35.8711 52.1308 36.7039 51.9552 37.5294C51.2833 37.9728 50.6067 38.4042 49.916 38.8287C49.2404 39.2604 48.5498 39.6849 47.8551 40.0986C46.7386 40.7738 45.6224 41.4113 44.5177 42.0083C44.5104 42.0233 44.4987 42.027 44.4877 42.0304C44.4761 42.0341 44.458 42.0531 44.4464 42.0568C44.2152 42.1817 43.9838 42.3076 43.752 42.4328C43.6787 42.3202 43.5677 42.2455 43.4335 42.215C42.653 42.0247 41.8982 41.7643 41.1629 41.448C40.74 41.2521 40.3243 41.0412 39.9163 40.8158C38.5624 40.0456 37.3233 39.0642 36.2768 37.9086C36.0063 37.613 35.7474 37.3136 35.5072 36.9965C34.7829 36.0687 34.1921 35.0615 33.7289 33.9868C33.0671 32.4573 32.9178 31.2063 33.2582 30.1659ZM77.8383 42.2173C77.7144 41.837 77.6077 41.4756 77.5323 41.0915C78.1535 40.4549 78.7222 39.8097 79.2279 39.1615C78.817 40.2124 78.3611 41.2413 77.8383 42.2173ZM80.4576 42.5358C81.6544 40.7078 82.4486 38.9736 83.2133 37.2989C83.97 35.6395 84.6821 34.069 85.7699 32.3994C86.5431 31.2054 87.334 30.0668 88.4506 29.4283C88.5773 29.362 88.7041 29.2957 88.8272 29.2561C89.1288 29.1574 89.4232 29.1473 89.5971 29.3009C89.9825 29.6451 89.9121 30.2254 89.7799 30.6526C88.4724 35.0936 85.5007 38.9154 80.4576 42.5358ZM80.9894 36.9373C82.2511 33.3787 83.4339 30.0315 86.1175 27.8268C87.0633 27.0468 87.8804 26.5937 88.6816 26.3928C89.647 26.1635 90.6434 26.3328 91.2769 26.8685C92.3375 27.7594 92.34 29.4308 92.2454 30.353C91.9164 33.4334 90.199 36.5839 87.39 39.2378C85.4225 41.0958 83.0769 42.5945 80.8111 43.9189L80.7995 43.9226C80.2966 44.0873 79.7788 44.2447 79.286 44.4058C85.5157 40.3221 89.1225 36.0202 90.6306 30.9068C90.9114 29.948 90.7482 29.1471 90.1852 28.6376C89.5737 28.0951 88.6607 28.2946 88.0114 28.6559C86.7197 29.4011 85.8681 30.621 85.0207 31.9266C83.9096 33.6403 83.1449 35.3151 82.4115 36.9303C81.413 39.1022 80.3966 41.3298 78.4901 43.7505C78.401 43.594 78.3273 43.444 78.2607 43.2799L78.2576 43.2695C79.4178 41.3287 80.2263 39.1068 80.9894 36.9373ZM105.103 38.4158C103.42 37.9266 101.698 38.2302 99.9287 38.6117C96.1578 39.4255 92.397 40.4219 88.7664 41.4748C87.2155 41.92 85.6947 42.3815 84.2113 42.8426C85.5411 41.9488 86.8227 40.9843 87.9933 39.87C90.956 37.079 92.7711 33.7351 93.1192 30.4514C93.319 28.5646 92.8618 27.0552 91.8469 26.1859C90.9828 25.4783 89.7262 25.2334 88.4632 25.5353C87.2375 25.8384 86.2206 26.5925 85.5592 27.1431C82.6883 29.4953 81.4035 33.1364 80.1531 36.654C80.0472 36.9739 79.9192 37.3006 79.8019 37.6233C79.9768 36.1916 79.3349 35.064 78.7454 34.0562C78.579 33.7764 78.425 33.4925 78.2693 33.2087C77.375 31.4212 76.3542 29.4026 74.728 27.9165C73.6722 26.9615 72.4958 26.3566 71.3028 26.004C71.2767 26.0001 71.2507 25.9961 71.2363 25.9885C71.2213 25.9811 71.2096 25.9848 71.1952 25.9772C71.1952 25.9772 71.1799 25.9692 71.1686 25.9736C69.7565 25.5566 68.3429 25.4745 67.1111 25.4572C64.2158 25.4269 61.2394 25.8315 58.7343 26.5778C57.2359 27.0316 55.7451 27.5077 54.2605 28.043L54.2498 28.047C54.026 28.1201 53.8021 28.1933 53.5825 28.2778C53.5061 27.8566 53.415 27.4288 53.2987 26.9957C53.0467 26.0007 52.2397 24.5191 51.3723 23.8373C50.6417 23.2716 49.6127 23.0387 48.3985 23.1512C45.702 23.4277 43.3697 25.3431 42.6797 27.7364C42.55 27.6796 42.4085 27.6273 42.2782 27.5708C40.7258 26.9148 38.9697 26.1656 37.2386 26.2863C35.2389 26.4205 32.873 27.5551 32.1363 29.8026C31.7002 31.1216 31.8637 32.6409 32.6435 34.4539C33.1254 35.5844 33.7591 36.6523 34.5135 37.6314C31.003 39.8459 27.6411 42.2847 24.4635 44.9108C22.7777 46.305 20.9233 47.9775 20.1072 50.2138C19.8433 50.9193 19.694 51.6743 19.652 52.4555C19.6373 52.5223 19.6371 52.5967 19.6479 52.6678C19.5838 54.2486 19.9615 55.9331 20.7571 57.6052C20.9966 58.1089 21.1911 58.6273 21.3929 59.1307C22.0687 60.8535 22.755 62.6099 24.6744 63.5918C24.6928 63.6102 24.6965 63.6218 24.7229 63.6248L24.7266 63.6365C24.7266 63.6365 24.7373 63.6325 24.741 63.6442C25.6768 64.1176 26.7851 64.3251 27.9198 64.386C29.897 66.3399 31.4331 70.0845 30.6 72.7604C30.0278 74.5694 29.0893 76.0905 28.0872 77.7192C27.3108 78.9773 26.5108 80.279 25.9003 81.7427C24.8528 84.1784 24.7394 87.2004 25.5569 90.4498C26.9963 96.2078 35.047 111.827 40.3743 122.157C41.1258 123.62 41.811 124.955 42.4039 126.124L42.8576 127.016C44.5409 130.34 46.2832 133.77 48.968 136.296C51.3241 138.535 53.3567 139.033 58.1165 138.328C58.1435 138.333 58.1575 138.34 58.1692 138.336C58.5717 138.279 59.0039 138.199 59.4621 138.123L59.5065 138.109L59.5291 138.102C62.6361 137.53 67.1305 136.392 72.3873 134.67C74.4563 133.993 76.6565 133.223 78.9241 132.356C89.6494 128.311 102.165 122.243 112.48 114.147C114.105 112.871 117.26 109.684 118.285 107.898C119.315 106.087 118.813 102.512 116.614 95.9127L116.61 95.9017L116.606 95.89C112.152 83.763 108.929 77.3259 104.052 67.5784C103.084 65.6418 102.049 63.5778 100.929 61.2943C98.9925 57.3838 96.5774 53.0728 92.3741 51.2037C90.9664 50.5751 89.449 50.2916 87.981 50.0046C87.6348 49.9324 87.2781 49.8632 86.9212 49.795C86.4031 49.234 85.8664 48.6908 85.3184 48.1519C91.282 49.2704 97.8986 48.8244 104.072 46.8032C107.909 45.5466 107.904 43.6038 107.899 42.5653C107.901 40.5701 106.771 38.8971 105.103 38.4158Z" fill="#0A1C2D"/>
<path d="M75.4351 68.2689C75.9897 70.3787 75.9213 72.7793 75.237 75.4174C74.6559 77.689 73.7293 79.7753 72.5965 82.2524C67.9518 80.7389 63.2802 78.6897 60.2589 74.3043C59.8713 73.7254 58.943 71.9493 59.4075 70.6082C59.6567 69.8945 60.2587 69.3877 61.2843 69.0766C62.3494 68.74 63.5344 69.3308 64.1539 69.71C65.0893 70.2957 65.7487 70.7603 66.5112 71.5762C66.5296 71.5945 66.5443 71.6028 66.5596 71.6092C66.5927 71.6358 66.6111 71.6542 66.6559 71.6771C66.6893 71.7028 66.7187 71.7178 66.7598 71.7291L66.8045 71.752C66.8296 71.7556 66.8413 71.7519 66.864 71.7449C66.9044 71.7565 66.9421 71.7568 66.9899 71.7533C67.0272 71.753 67.0499 71.7459 67.0833 71.7348C67.1317 71.7311 67.162 71.7096 67.195 71.698C67.2287 71.6875 67.2694 71.6614 67.2998 71.64C67.3077 71.6246 67.3294 71.6173 67.3484 71.5985C67.3601 71.5948 67.3668 71.5801 67.3751 71.5654C67.4014 71.5317 67.4274 71.4989 67.442 71.4689C67.4687 71.4357 67.4799 71.3947 67.4949 71.3653C67.4986 71.3386 67.5096 71.3352 67.5142 71.3088C67.8905 69.7366 68.3245 67.9599 69.3695 66.6516C70.265 65.5294 71.963 64.6627 73.3661 65.2809C74.6286 65.8457 75.2093 67.3896 75.4351 68.2689ZM73.845 64.2073C71.8767 63.3412 69.6382 64.4092 68.4466 65.914C67.4719 67.1368 66.9803 68.6231 66.6195 70.0538C66.0414 69.537 65.4669 69.1431 64.7662 68.7049C63.8045 68.1147 62.3677 67.5084 60.9393 67.9511C59.5493 68.357 58.6666 69.1416 58.3002 70.2148C57.5407 72.396 59.2802 74.9465 59.2909 74.9808C62.597 79.7807 67.6703 81.9211 72.649 83.5109C72.7755 83.5557 72.8981 83.5532 73.0098 83.5163C73.1893 83.4576 73.3279 83.3131 73.3918 83.1311C73.3991 83.1161 73.3917 83.0943 73.3997 83.079C73.489 83.0131 73.5643 82.9385 73.6163 82.8346C74.5503 80.8068 75.7098 78.2981 76.3751 75.7139C77.1192 72.8816 77.1813 70.2733 76.5716 67.9589C76.2289 66.6469 75.4682 64.9269 73.845 64.2073Z" fill="#0A1C2D"/>
<path d="M79.7613 104.093C79.0404 107.413 78.0107 109.942 76.4512 112.249C74.0522 112.564 69.6952 111.588 66.532 110.023C63.5849 108.548 59.9825 105.678 58.7436 102.01C58.3005 100.694 58.1985 98.7954 59.3686 97.7933C60.2323 97.0642 61.5202 97.0634 62.4531 97.1907C64.8264 97.5156 67.1007 98.8641 68.5276 100.799C68.7237 101.058 69.0917 101.122 69.3497 100.927C69.5884 100.749 69.6494 100.444 69.5168 100.19C69.4927 97.8086 69.9959 95.4139 70.9977 93.2531C71.6004 91.9165 72.2975 90.9452 73.0972 90.2863C74.0657 89.4991 75.2545 89.1593 76.266 89.3727C78.3962 89.8271 79.3686 92.4193 79.6909 93.515C80.601 96.5977 80.616 100.16 79.7613 104.093ZM76.5178 88.2132C75.1497 87.9307 73.5948 88.3653 72.3537 89.3782C71.4082 90.1589 70.6059 91.2635 69.921 92.7638C69.0396 94.6874 68.545 96.7683 68.3956 98.886C66.8408 97.3513 64.7948 96.3246 62.6161 96.0234C61.4487 95.8604 59.8067 95.8778 58.6063 96.903C56.9879 98.2747 57.068 100.713 57.629 102.388C58.7796 105.788 61.9116 109.034 66.0096 111.073C69.5174 112.823 74.2947 113.834 76.8875 113.394L76.9655 113.368C77.0887 113.328 77.175 113.25 77.2463 113.165C77.2536 113.15 77.268 113.158 77.2646 113.147C79.0087 110.643 80.1285 107.936 80.9063 104.337C81.8101 100.214 81.7815 96.4589 80.82 93.1817C80.0193 90.435 78.4507 88.6326 76.5178 88.2132Z" fill="#0A1C2D"/>
<path d="M99.313 88.426C99.3633 88.7313 99.4062 89.0517 99.4274 89.3795C99.4558 89.5804 99.4735 89.7853 99.4719 90.0084C99.4823 90.2283 99.5033 90.4443 99.4984 90.6563C99.5236 91.6013 99.4628 92.5881 99.3116 93.6039C99.2959 93.7448 99.281 93.886 99.2539 94.0313C99.2071 94.3435 99.1418 94.6741 99.0736 94.9943C98.447 97.9978 97.5339 99.7829 95.7602 101.516C91.9285 100.48 87.0138 97.9153 84.4641 93.7594C83.7669 92.6129 83.3994 91.6431 83.3047 90.7089C83.2017 89.6031 83.5431 88.563 84.2161 87.9336C85.1433 87.0601 86.5574 87.0301 87.5613 87.2961C88.8511 87.6412 89.9968 88.4548 90.9755 89.212C91.2235 89.4035 91.6039 89.3531 91.7911 89.0937C91.8697 88.9935 91.8966 88.8859 91.9081 88.7704C91.9044 88.7588 91.9237 88.7407 91.916 88.7183C92.0745 86.858 92.5617 85.5099 93.4043 84.5648C94.28 83.6096 95.8837 83.0224 97.0746 83.7101C97.7426 84.0855 98.2783 84.8514 98.7042 86.0368C98.957 86.7341 99.1465 87.4645 99.2764 88.2397L99.2807 88.2511C99.2835 88.2992 99.3016 88.3552 99.313 88.426ZM97.6681 82.6859C97.2414 82.4416 96.7885 82.3045 96.3378 82.2542C94.8984 82.0937 93.4211 82.8002 92.5371 83.7717C91.6761 84.7352 91.1374 86.0383 90.8825 87.6822C89.9971 87.056 88.9987 86.4659 87.8688 86.1546C86.1896 85.7144 84.4717 86.0664 83.4015 87.073C82.4669 87.9615 81.9935 89.3544 82.1385 90.8186C82.2482 91.9464 82.6663 93.0727 83.4633 94.3717C86.2205 98.8937 91.5539 101.643 95.6273 102.698C95.7392 102.737 95.858 102.722 95.9588 102.689C96.0148 102.671 96.0525 102.634 96.1042 102.605C96.1532 102.601 96.2047 102.609 96.2497 102.594C96.3391 102.565 96.4138 102.527 96.4778 102.457C98.4859 100.536 99.5351 98.5211 100.229 95.2344C100.497 93.9331 100.649 92.6573 100.675 91.4107C100.73 89.3486 100.438 87.4009 99.8115 85.6374C99.287 84.1871 98.5844 83.2152 97.6681 82.6859Z" fill="#0A1C2D"/>
<path d="M54.6756 97.7568C53.9642 101.408 52.4538 104.664 50.3306 107.217C45.4136 106.536 41.3395 104.266 37.8615 100.304C36.7892 99.0697 36.091 97.9979 35.6717 96.9458C35.1575 95.6404 35.0794 94.3042 35.4501 93.204C35.7145 92.3864 36.2206 91.7756 36.8287 91.5142C37.4172 91.2719 38.1954 91.302 39.1764 91.6495C41.1451 92.3299 42.8836 93.7421 43.9718 95.5152C44.1382 95.7951 44.4982 95.8752 44.7783 95.7095C45.0585 95.5438 45.15 95.1794 44.9732 94.9027C44.8953 94.7796 44.8173 94.6566 44.7327 94.5482C44.7295 94.4995 44.7368 94.4477 44.7221 94.4027C43.9012 91.9718 44.4483 89.1418 46.1038 87.2008C46.9497 86.1933 48.3882 85.2138 49.8758 85.445C51.0097 85.619 51.9472 86.4761 52.5318 87.1644C54.6809 89.7173 55.493 93.6744 54.6756 97.7568ZM53.4216 86.4025C52.4081 85.1984 51.2388 84.4666 50.0497 84.2743C48.3909 84.012 46.5773 84.8289 45.2066 86.4298C43.7429 88.1601 43.0421 90.4824 43.1974 92.7348C42.1609 91.7617 40.9212 91.0037 39.5544 90.5343C38.2948 90.0927 37.2452 90.0647 36.3649 90.4397C35.4506 90.8261 34.7093 91.7007 34.3242 92.8299C33.8702 94.2047 33.9623 95.8093 34.5721 97.3676C35.0494 98.5612 35.8065 99.738 36.9758 101.076C40.6786 105.313 45.0429 107.71 50.3245 108.408C50.4137 108.416 50.4998 108.413 50.5892 108.383C50.6336 108.369 50.6599 108.335 50.7009 108.31C50.7493 108.306 50.8014 108.314 50.8464 108.299C50.9465 108.266 51.0365 108.2 51.1078 108.115C53.4297 105.409 55.067 101.901 55.8396 97.9822C56.7188 93.4831 55.8439 89.2623 53.4216 86.4025Z" fill="#0A1C2D"/>
<path d="M64.3373 89.3294C64.3866 89.8575 64.2612 90.345 63.9846 90.6703C63.7105 91.0079 63.2705 91.1766 62.9064 91.0857C62.5237 90.9758 62.2096 90.5831 62.0634 90.0242C61.8767 89.3419 61.9887 88.624 62.3332 88.2759C62.6292 87.9692 62.9715 87.8812 63.3353 88.0098C63.856 88.1986 64.2769 88.7664 64.3373 89.3294ZM63.7287 86.9025C62.93 86.6194 62.1139 86.813 61.4923 87.4491C60.8415 88.1084 60.627 89.2308 60.9263 90.3345L60.9884 90.525C61.2742 91.3969 61.8741 92.0181 62.6062 92.2122C62.9886 92.3214 63.4132 92.2943 63.7939 92.1695C64.2189 92.0302 64.6071 91.7792 64.8879 91.4269C65.368 90.8489 65.5883 90.0464 65.5028 89.22C65.4153 88.1956 64.6796 87.2354 63.7287 86.9025Z" fill="#0A1C2D"/>
<path d="M52.2391 77.0427C52.0996 77.2986 51.8049 77.5312 51.4392 77.6633C50.719 77.9609 49.8608 77.7594 49.2937 77.2392C49.0269 76.992 48.8275 76.6855 48.7141 76.3389C48.5859 75.9472 48.5729 75.5312 48.668 75.1402C48.8237 74.5944 49.0711 74.2532 49.4401 74.1321C49.5078 74.1103 49.5786 74.0988 49.6601 74.085C50.4831 73.9885 51.6333 74.7023 52.1055 75.6125C52.3225 76.0121 52.464 76.5973 52.2391 77.0427ZM53.1501 75.0596C52.4422 73.7309 50.8139 72.7661 49.5139 72.9195C48.9432 72.9943 47.9259 73.3274 47.5346 74.8556C47.2427 76.0041 47.6337 77.3124 48.5037 78.1168C49.3629 78.8885 50.6536 79.1588 51.7606 78.7971L51.839 78.7712C52.4953 78.5438 53.0116 78.1147 53.2818 77.5801C53.6542 76.8635 53.6029 75.9145 53.1501 75.0596Z" fill="#0A1C2D"/>
<path d="M85.9494 79.6133C85.7416 80.1144 85.1335 80.3758 84.6682 80.429C84.0201 80.5298 83.3438 80.3554 82.8765 79.9876C82.5914 79.7588 82.3775 79.4447 82.2678 79.1097C82.194 78.8861 82.1766 78.6435 82.2009 78.4134C82.2512 77.926 82.4463 77.6145 82.7902 77.453L82.9019 77.4161C83.5055 77.2179 84.4796 77.4315 85.2319 77.9531C85.7626 78.3244 86.1681 79.0337 85.9494 79.6133ZM85.907 76.9885C84.9655 76.3438 83.4385 75.8783 82.3043 76.3853C81.797 76.6131 81.172 77.1279 81.0289 78.2768C80.9084 79.2334 81.3464 80.2662 82.1463 80.8955C82.873 81.4872 83.8465 81.7379 84.8297 81.6024C85.0307 81.574 85.2248 81.522 85.4147 81.4602C86.175 81.2103 86.7774 80.7042 87.0334 80.0508C87.5014 78.8693 86.82 77.6186 85.907 76.9885Z" fill="#0A1C2D"/>
<path d="M95.8372 76.3373C96.0375 77.1388 95.5714 78.0963 94.7175 78.3264C94.6281 78.3556 94.5347 78.3741 94.4342 78.3699C94.4122 78.3767 94.4008 78.381 94.3748 78.377C94.3261 78.3801 94.2666 78.3872 94.2149 78.38C94.2032 78.3837 94.1778 78.3794 94.1628 78.372C94.0773 78.3752 93.9835 78.3563 93.8876 78.3258C93.4859 78.2346 93.1076 77.9866 92.871 77.6428C92.8603 77.6101 92.8345 77.5684 92.8124 77.5384C92.7609 77.4567 92.7244 77.3823 92.6942 77.2926C92.4161 76.5166 92.679 75.997 92.9563 75.7081C93.0082 75.641 93.0759 75.5824 93.1466 75.5342C93.2556 75.4493 93.3673 75.3756 93.4864 75.3237C93.5274 75.2983 93.5614 75.2869 93.6058 75.2724C93.6475 75.2466 93.6919 75.2322 93.7363 75.2178C94.0609 75.1111 94.4107 75.0831 94.745 75.16C95.098 75.2543 95.5658 75.5099 95.7963 76.2148L95.8372 76.3373ZM95.0308 74.0259C94.22 73.8203 93.333 73.987 92.6421 74.4491C92.437 74.578 92.2533 74.7372 92.089 74.9151C91.4116 75.6443 91.2243 76.6597 91.5802 77.67C92.042 79.0051 93.6004 79.8315 94.9574 79.474C94.9945 79.4746 95.0279 79.4635 95.0612 79.4525L95.117 79.4337C95.7886 79.2142 96.3422 78.7112 96.6837 78.0914C97.0258 77.4713 97.1561 76.735 96.9777 76.038C96.7113 74.9985 96.001 74.2656 95.0308 74.0259Z" fill="#0A1C2D"/>
<path d="M58.6517 115.304C58.0042 115.974 56.8316 116.061 56.161 115.488C55.9047 115.274 55.7021 114.958 55.5841 114.599C55.4458 114.174 55.4223 113.686 55.5063 113.188C55.6564 112.322 56.1225 111.401 56.6597 111.225L56.7715 111.189C57.4861 111.103 58.569 111.913 58.9668 112.637C59.4349 113.5 59.3029 114.645 58.6517 115.304ZM59.9973 112.077C59.4706 111.11 58.003 109.844 56.6136 110.027C55.1988 110.205 54.5271 111.973 54.3505 112.985C54.0974 114.331 54.4998 115.635 55.4041 116.392C56.175 117.044 57.3015 117.195 58.2748 116.876C58.7332 116.726 59.148 116.479 59.492 116.131C60.5058 115.105 60.7159 113.402 59.9973 112.077Z" fill="#0A1C2D"/>
<path d="M67.8238 122.059C67.8692 122.688 67.5942 123.323 67.1264 123.674C66.6597 124.025 65.9667 124.067 65.5036 123.785C65.0873 123.537 64.7886 123.003 64.7285 122.404C64.6481 121.439 65.0955 119.856 65.7917 119.789C66.1719 119.74 66.5318 119.968 66.7731 120.174C67.3916 120.702 67.7929 121.549 67.8238 122.059ZM67.5291 119.269C66.933 118.772 66.2897 118.549 65.6685 118.616C65.5378 118.634 65.4223 118.66 65.2995 118.7C63.8789 119.165 63.4502 121.374 63.5596 122.502C63.648 123.489 64.1492 124.34 64.9067 124.798C65.5369 125.173 66.3409 125.245 67.0672 125.006C67.3361 124.918 67.5896 124.786 67.8284 124.608C68.6166 124.028 69.0655 123.015 69.0001 121.984C68.9378 121.075 68.3374 119.959 67.5291 119.269Z" fill="#0A1C2D"/>
<path d="M93.05 113.698C92.2446 113.963 91.2308 113.551 90.9003 112.768C90.5662 111.973 90.8033 111.412 91.0581 111.094C91.275 110.812 91.6041 110.605 91.9508 110.492C92.2414 110.397 92.5651 110.365 92.866 110.414C93.2788 110.502 93.8253 110.769 94.0734 111.604C94.3224 112.403 93.8334 113.405 93.05 113.698ZM93.0844 109.266C92.0138 109.059 90.8202 109.499 90.1462 110.352C89.4939 111.159 89.3772 112.201 89.8255 113.231C90.3886 114.57 91.9964 115.282 93.361 114.835C93.3938 114.824 93.4275 114.814 93.4571 114.791C94.1434 114.541 94.6973 114.001 95.021 113.362C95.3291 112.717 95.4263 111.954 95.1955 111.25C94.8699 110.18 94.0999 109.453 93.0844 109.266Z" fill="#0A1C2D"/>
</svg>
