<svg width="73" height="59" viewBox="0 0 73 59" fill="none" xmlns="http://www.w3.org/2000/svg">
<path d="M14.6417 51.1434C18.2234 50.8314 21.8126 50.59 25.361 49.9665C30.1933 49.116 34.9552 47.9677 39.6484 46.555C43.7637 45.3162 47.669 43.6014 51.2018 41.1086C54.3923 38.8587 57.1442 36.1931 59.0649 32.7552C59.5721 31.8487 60.0537 30.9172 60.4456 29.9548C61.5735 27.1937 63.0947 24.641 64.6012 22.087C65.2304 21.0217 66.0785 20.0682 66.9203 19.1495C69.0958 16.7778 70.0879 13.9277 70.4444 10.8016C70.4805 10.4932 70.4685 10.1786 70.4606 9.86669C70.3945 7.17397 69.1372 5.38839 66.5714 4.4194C64.6822 3.70455 62.7387 3.43442 60.7622 3.30072C57.73 3.09635 54.7287 3.32763 51.75 3.97733C46.7554 5.06986 41.811 6.33378 36.9883 8.05219C34.3772 8.9826 31.8538 10.0999 29.4756 11.5234C24.9137 14.2533 21.5187 18.0485 19.2847 22.8598C18.3163 24.9442 17.6761 27.1538 17.0707 29.3669C15.9681 33.3892 14.8963 37.4217 13.7442 41.4299C13.3419 42.8271 12.7763 44.1824 12.2172 45.5295C11.7036 46.7721 10.8278 47.7459 9.61252 48.3374C8.62383 48.8166 7.94074 49.5252 7.46509 50.506C7.10769 51.2412 6.64698 51.9271 6.2319 52.6351C9.03011 51.6316 11.8366 51.3868 14.6417 51.1434ZM68.8302 3.14942C70.5653 4.22891 71.613 5.78247 71.9984 7.78442C72.278 9.23301 72.3231 10.6912 72.0454 12.1375C71.4562 15.2159 70.2903 18.0228 68.0832 20.3242C67.6857 20.7373 67.3044 21.1661 66.9339 21.6029C64.7908 24.1155 62.9677 26.8307 61.6983 29.8937C60.8598 31.9178 59.9555 33.904 58.7359 35.7382C56.1501 39.6246 52.7632 42.6836 48.9031 45.2366C44.9056 47.8807 40.4991 49.6151 35.903 50.9013C29.8121 52.6064 23.608 53.6916 17.3123 54.2819C15.3411 54.4668 13.3717 54.681 11.4021 54.8859C8.80928 55.1547 6.43618 56.0328 4.25255 57.4471C3.72747 57.7871 3.20922 58.1404 2.66233 58.442C2.34981 58.6139 1.99415 58.7491 1.64412 58.8015C1.0532 58.8904 0.535008 58.1928 0.78548 57.6483C0.936057 57.3237 1.15753 57.0169 1.40088 56.7525C2.31114 55.7649 3.2148 54.7827 4.02647 53.6964C4.99155 52.4041 6.05756 51.1852 6.84907 49.7697C7.32372 48.921 7.96884 48.2674 8.85723 47.8709C10.3052 47.2245 11.0999 46.0664 11.4851 44.572C12.1486 41.9968 12.8523 39.433 13.485 36.8515C14.2661 33.6587 14.9722 30.4495 15.7493 27.2568C16.2678 25.1301 16.7836 23.0007 17.5992 20.9582C19.7734 15.5303 23.1938 11.1081 28.1082 7.88973C30.7003 6.19284 33.5213 4.98909 36.4407 3.97479C41.6396 2.16761 47.01 1.15967 52.4452 0.425594C56.0539 -0.0627153 59.6221 0.350891 63.0118 0.881432C65.1808 1.37406 67.0844 2.0634 68.8302 3.14942Z" fill="#39D192"/>
<path d="M47.7231 36.0977C47.371 35.5661 46.794 35.4908 46.2416 35.3591C44.9242 35.0437 43.6067 34.727 42.2931 34.3982C42.0055 34.3258 41.728 34.2067 41.5097 34.1321C41.3812 33.6723 41.6625 33.5581 41.8595 33.4249C44.3994 31.718 46.4936 29.5514 48.3109 27.1149C50.561 24.0996 53.0621 21.3198 55.7895 18.7277C57.1836 17.4034 58.437 15.9274 59.7405 14.5095C60.0431 14.1803 60.3881 13.8359 60.1559 13.1881C59.8557 13.3893 59.5854 13.5247 59.3719 13.7234C57.3079 15.6336 55.2277 17.5281 53.2028 19.4792C51.4784 21.1424 49.8053 22.861 48.1362 24.5796C46.7909 25.9647 45.4213 27.3195 43.8054 28.3946C43.3809 28.6773 42.9306 28.9191 42.3311 29.276C42.3045 28.8603 42.2427 28.6171 42.2826 28.3925C42.7783 25.6234 43.286 22.8554 43.7965 20.0901C43.8901 19.5835 44.0131 19.0833 44.1127 18.63C43.7343 18.3374 43.5272 18.5147 43.3966 18.735C43.1644 19.1367 42.9228 19.5464 42.779 19.9829C41.7725 23.0612 41.0147 26.1977 40.7276 29.4336C40.7089 29.6379 40.6634 29.8411 40.614 30.1484C38.074 31.434 35.3459 32.1778 32.3857 32.7126C32.4548 31.3223 32.5005 30.0803 32.5821 28.8405C32.7319 26.5544 32.9124 24.2693 33.0595 21.9819C33.085 21.5722 33.0357 21.1528 32.9719 20.7456C32.924 20.4422 32.4251 20.3191 32.2162 20.5671C31.9876 20.8367 31.7567 21.1383 31.6462 21.4664C31.4804 21.9565 31.3843 22.4778 31.3201 22.9933C30.9132 26.248 30.3969 29.4962 30.628 32.7962C30.6345 32.8921 30.5758 32.9915 30.5221 33.1789C30.1385 33.3171 29.7072 33.4799 29.2704 33.6294C22.8297 35.8309 17.9545 39.9315 14.5295 45.786C14.2932 46.189 14.0625 46.6079 13.9201 47.0498C13.5814 48.1035 14.4072 48.9784 15.4712 48.6543C16.0025 48.4929 16.5185 48.1757 16.95 47.8182C17.6296 47.2549 18.2226 46.59 18.867 45.9818C20.2282 44.6939 21.5582 43.3676 22.9748 42.143C25.1683 40.2444 27.6983 38.907 30.4538 38.0094C31.6424 37.6224 32.8545 37.3057 34.0403 36.912C35.4239 36.4532 36.8061 35.9823 38.1594 35.4439C38.775 35.1974 39.3038 35.1574 39.9529 35.3452C41.4519 35.7823 42.9753 36.1457 44.5059 36.4517C45.2639 36.6048 46.0597 36.5788 46.8388 36.6089C47.1083 36.6202 47.2045 36.531 47.7231 36.0977Z" fill="#39D192"/>
<path d="M52.0786 10.6892C51.8965 10.7342 51.667 10.7238 51.5497 10.8346C51.3309 11.04 51.1261 11.2933 51.0069 11.5669C50.6376 12.4169 50.2604 13.2698 49.9902 14.1546C49.8621 14.5722 49.9364 15.0673 49.9941 15.5173C50.0104 15.6478 50.2802 15.7897 50.4568 15.8381C50.5652 15.8661 50.7424 15.7519 50.8466 15.6559C50.9546 15.5558 51.0501 15.4106 51.0857 15.2688C51.4521 13.8721 51.8077 12.4715 52.1567 11.0696C52.177 10.984 52.1196 10.8767 52.0786 10.6892Z" fill="#39D192"/>
<path d="M36.3725 14.9611C36.2882 15.6782 36.176 16.297 36.1585 16.9172C36.1514 17.2027 36.2979 17.5062 36.4267 17.7766C36.524 17.9847 36.9837 17.9616 37.0999 17.7614C37.1769 17.6298 37.2725 17.4899 37.2893 17.3443C37.421 16.1599 37.538 14.9743 37.6577 13.7874C37.6624 13.738 37.6563 13.6714 37.6278 13.6384C37.498 13.4974 37.3658 13.267 37.2203 13.2555C37.0682 13.2455 36.8329 13.4111 36.7521 13.5628C36.6075 13.8313 36.5435 14.1455 36.4646 14.4452C36.4111 14.6459 36.3911 14.8541 36.3725 14.9611Z" fill="#39D192"/>
<path d="M33.041 41.8112C33.2056 42.1691 33.2669 42.483 33.4533 42.674C34.2166 43.4578 35.1358 44.0249 36.1465 44.4401C36.2363 44.4763 36.3592 44.4948 36.4441 44.463C36.5782 44.4133 36.7453 44.3405 36.8012 44.2278C36.8545 44.1205 36.8241 43.9289 36.76 43.815C36.6891 43.6905 36.5478 43.5923 36.4175 43.5166C35.4839 42.975 34.5477 42.4388 33.6037 41.9147C33.4842 41.8482 33.319 41.8596 33.041 41.8112Z" fill="#39D192"/>
</svg>
