<svg width="10" height="14" viewBox="0 0 10 14" fill="none" xmlns="http://www.w3.org/2000/svg">
<path d="M9.26024 5.6599C9.26024 8.42657 6.56023 11.7532 5.46023 12.9932C5.21357 13.2666 4.7869 13.2666 4.54023 12.9932C3.44023 11.7532 0.740234 8.42657 0.740234 5.6599C0.740234 3.30657 2.6469 1.3999 5.00023 1.3999C7.35357 1.3999 9.26024 3.30657 9.26024 5.6599Z" stroke="white" stroke-opacity="0.6" stroke-width="1.2" stroke-miterlimit="10" stroke-linecap="round" stroke-linejoin="round"/>
<path d="M4.99353 7.36646C5.9361 7.36646 6.7002 6.60236 6.7002 5.65979C6.7002 4.71723 5.9361 3.95312 4.99353 3.95312C4.05097 3.95312 3.28687 4.71723 3.28687 5.65979C3.28687 6.60236 4.05097 7.36646 4.99353 7.36646Z" stroke="white" stroke-opacity="0.6" stroke-width="1.2" stroke-miterlimit="10" stroke-linecap="round" stroke-linejoin="round"/>
</svg>
