<svg width="127" height="125" viewBox="0 0 127 125" fill="none" xmlns="http://www.w3.org/2000/svg">
<path d="M119.054 81.3186C120.025 75.4524 120.085 69.4381 119.179 63.6733C118.844 61.5961 118.332 59.4792 116.786 58.0967C115.113 56.6115 112.847 56.4597 110.653 56.3231C108.624 56.1873 106.72 56.0782 105.277 54.9789C105.165 54.8985 105.061 54.7824 104.966 54.7059C106.722 54.651 108.462 54.6676 110.17 54.8252C110.336 54.8258 110.494 54.7863 110.637 54.725C111.022 54.6625 111.362 54.3856 111.417 53.9715C111.759 51.7667 111.373 49.4183 110.366 47.5254L110.325 47.4603C110.209 47.2306 110.015 47.0201 109.733 46.9576C107.257 46.3324 104.718 45.9898 102.187 45.9464C96.295 45.8398 90.4083 47.2932 85.24 50.1851C84.967 50.3287 84.8151 50.5915 84.7915 50.8646C84.611 51.1766 84.6167 51.567 84.8623 51.8815C84.9619 52.0149 85.0761 52.1705 85.1724 52.3217C84.3902 52.834 83.6406 53.3712 82.951 53.8854L77.8956 57.7675C75.9753 59.2317 75.3009 60.8432 76.0665 62.0707C76.2413 62.3699 76.5061 62.5951 76.7185 62.8095C76.9967 63.057 77.2397 63.2963 77.2774 63.5464C77.3456 63.9879 76.8825 64.4038 76.427 64.6175C76.2407 64.7062 76.0403 64.7726 75.8362 64.8568C75.3743 65.0137 74.9092 65.1885 74.5041 65.5069C73.3729 66.423 73.2058 68.092 73.9886 70.4914C74.6457 72.4551 75.3756 74.6759 76.7587 76.542C78.2663 78.6021 80.4411 79.8276 82.5714 79.8385C83.8537 79.827 85.0416 79.4053 86.1945 78.9753C87.2605 78.6008 88.2877 78.2359 89.3359 78.1912C91.4016 78.0764 93.3551 79.2152 95.0764 80.2289C95.3884 80.4095 95.6972 80.6085 95.9524 80.7948C96.4487 81.1464 96.8449 81.5317 97.051 82.0229C97.4771 83.0258 96.9699 84.1372 96.4334 85.2971C96.0462 86.1194 95.6557 86.9603 95.5473 87.863C95.3603 89.2863 95.9039 90.5942 96.4372 91.8625C96.6529 92.3927 96.8825 92.9452 97.0414 93.4804C97.5811 95.3076 97.4861 97.233 97.3891 99.0851C97.2883 101.455 97.1837 103.843 97.065 106.208C97.0216 106.236 96.9744 106.281 96.9272 106.326C96.8838 106.353 96.8411 106.38 96.8156 106.412C90.4957 111.144 83.5455 114.957 76.1954 117.735C63.9659 122.356 50.62 124.077 37.5497 122.727C37.5248 121.256 37.8808 119.74 38.2189 118.388C38.3975 117.668 38.5762 116.947 38.7516 116.244C41.7776 116.064 44.2734 114.097 46.7953 111.933C49.1577 109.9 51.672 107.436 51.6771 104.247C51.665 103.967 51.6357 103.682 51.6203 103.419C51.5808 102.928 51.5342 102.472 51.5974 102.023C51.6835 101.467 52.0803 100.851 52.5754 100.794C52.9301 100.78 53.274 100.987 53.6842 101.226C54.0281 101.432 54.3892 101.643 54.8134 101.737C55.7494 101.946 57.1338 101.641 58.4582 99.0251C58.5507 98.8599 58.6292 98.6736 58.7217 98.5084C59.3482 97.2758 59.9887 96.0643 60.6191 94.8138C61.3132 93.4479 62.0105 92.0641 62.7219 90.7014C63.3898 89.3661 64.1535 87.849 63.9755 86.233C63.7898 84.3184 62.3078 82.5608 60.0545 81.5215C58.9922 81.0436 57.8598 80.7176 56.7759 80.421C55.9746 80.1875 55.1522 79.9667 54.3669 79.6618C53.1515 79.2062 51.006 78.0981 50.3744 76.1031C50.278 75.7848 50.2117 75.4179 50.1409 75.0683C49.996 74.2198 49.8372 73.3502 49.1877 72.6867C48.5147 71.962 47.5698 71.7884 46.6613 71.6238C45.9111 71.4937 45.2137 71.3757 44.7078 70.9846C44.1738 70.5508 43.8969 69.8764 43.5971 69.1427C43.222 68.2432 42.8513 67.3258 41.9677 66.7956C41.285 66.3656 40.5112 66.3414 39.759 66.3044C39.2269 66.2788 38.7306 66.2603 38.2827 66.1053C37.6313 65.8673 37.1088 65.3806 36.5595 64.8504C35.9649 64.2724 35.3346 63.6874 34.5097 63.3926C32.9671 62.8267 31.3606 63.5451 29.9622 64.1607L29.4894 64.3713C28.0737 64.9831 26.2848 65.2708 25.4229 64.2258C24.9106 63.6114 24.8596 62.6723 24.8175 61.6988C24.7352 60.4011 24.6605 59.0677 23.4828 58.3609C23.1217 58.151 22.7332 58.0642 22.3657 57.964C22.048 57.8926 21.7654 57.8301 21.5338 57.7037C21.306 57.5608 21.1746 57.2348 21.204 57.0185C21.2237 56.9305 21.2448 56.9171 21.2843 56.9069C21.4808 56.8578 21.5772 56.6753 21.5848 56.4737C21.9606 56.0373 22.2215 55.6137 22.3198 55.1722C22.4889 54.4118 22.2356 53.6328 21.6761 53.2296C20.9284 52.6739 19.921 52.9501 19.2907 53.3667C19.0099 53.5447 18.7567 53.7661 18.5072 53.9709C18.2322 54.2063 17.9828 54.4105 17.7231 54.5751C17.1049 54.9381 16.3432 55.028 15.5457 54.7767C14.657 54.5234 13.885 53.9065 13.4831 53.1307C12.7507 51.6697 13.0818 49.685 14.3017 48.2878C15.3715 47.0609 17.0584 46.2303 19.0597 45.9898C20.9507 45.7429 22.8544 46.0185 24.6631 46.3094C25.3636 46.4096 26.0354 46.5595 26.4418 46.9837C26.7538 47.3314 26.8852 47.824 27.0224 48.3739C27.0715 48.5704 27.1206 48.7669 27.1736 48.9455C27.4619 49.8999 28.2058 50.8072 29.2228 50.7363C30.2831 50.6387 30.8426 49.5389 30.9179 48.5359C30.9376 48.2808 30.9217 48.0179 30.9198 47.7761C30.9102 47.2364 30.9064 46.7534 31.0933 46.3311C31.4825 45.4169 32.643 45.1183 33.7677 44.8121C34.0076 44.7355 34.2609 44.6806 34.5001 44.6047C36.4913 43.9903 38.1959 42.664 39.6984 41.4958L44.5809 37.7241C46.4189 36.2976 48.3041 34.8251 50.0369 33.2078C50.0369 33.2078 50.0547 33.2123 50.0586 33.1938C50.1013 33.1663 50.1313 33.1172 50.1785 33.0726C50.2213 33.0451 50.2685 32.9998 50.3157 32.9545L50.3195 32.9373C50.7399 32.5488 51.0583 32.1188 51.3116 31.7296C51.7186 31.1529 52.0446 30.6878 52.6239 30.5015C53.1815 30.3286 53.7091 30.7057 54.3528 31.1452C54.9621 31.5778 55.6683 32.069 56.5105 32.0339C56.7344 32.0282 56.9488 31.9829 57.1803 31.9414C57.4732 31.877 57.7437 31.8266 57.9268 31.9223C58.0735 32.011 58.203 32.2617 58.1928 32.5564C58.1992 32.7804 58.1482 33.01 58.1105 33.2614C58.0793 33.403 58.0474 33.544 58.0301 33.7074C57.8209 35.3112 58.6726 36.9847 60.1119 37.7681C60.3294 37.8721 60.5514 37.9589 60.7811 38.0099C61.4523 38.1598 62.1872 38.0265 62.5407 37.4376C62.8233 36.9993 62.7665 36.5049 62.7333 36.0704C62.4826 33.8637 62.2363 31.639 61.9894 29.415C61.8644 28.3107 61.733 27.1508 62.0399 26.1065L62.1279 25.7919C62.3799 24.9951 62.7116 23.9188 61.925 23.2062C61.0924 22.4464 59.9262 23.0205 59.1364 23.4014C58.1099 23.9335 56.788 24.1217 56.1621 23.3516C56.0033 23.1488 55.8814 22.8623 55.7813 22.5618C55.6345 22.1395 55.4597 21.6744 55.0769 21.3108C54.1857 20.4827 52.77 20.7608 51.9062 21.4766C51.3422 21.9264 50.9454 22.5427 50.5607 23.106C50.3992 23.3293 50.2595 23.5405 50.0988 23.7638C49.0888 25.1342 47.5436 26.1626 45.89 26.592C45.1442 26.7782 44.6121 26.7527 44.2765 26.5109C43.8816 26.2002 43.7036 25.5859 43.7668 24.4688C43.7885 23.6209 43.8357 22.5739 43.1881 21.8173C42.9074 21.4951 42.5636 21.289 42.2344 21.1047C41.9224 20.9241 41.6455 20.7506 41.4764 20.5094C41.294 20.2459 41.2902 19.9302 41.3335 19.7362C41.4101 19.3081 41.6812 18.9228 42.027 18.7033C42.5884 18.346 43.3897 18.2465 44.4482 18.4079C44.7168 18.4488 44.9994 18.5119 45.2686 18.5534C45.9398 18.7033 46.6326 18.8379 47.3574 18.8328C49.1443 18.8041 50.6876 17.8676 52.1703 16.9552C53.0265 16.4417 53.9088 15.8956 54.8217 15.5421C57.2448 14.6541 59.9658 15.0923 62.5809 15.5077L62.7263 15.5211C63.0664 15.5785 63.3566 15.6059 63.6335 15.6123C65.8945 18.7856 67.6777 22.3538 68.8924 26.1473C70.1103 29.9235 70.7547 33.9428 70.7987 37.9959C70.7942 38.0131 70.8083 38.0348 70.8044 38.0526C70.8063 38.1273 70.8299 38.1885 70.8536 38.2485C70.8631 38.2881 70.8867 38.3487 70.9142 38.3927C70.9244 38.431 70.9199 38.4495 70.9339 38.4712C70.9652 38.4967 70.9965 38.5222 71.0105 38.5433C71.0558 38.5905 71.0832 38.6338 71.1324 38.6638C71.1777 38.7104 71.2268 38.7398 71.2753 38.7697C71.3244 38.7991 71.378 38.8106 71.4482 38.8265C71.4973 38.8559 71.5502 38.868 71.607 38.8616L71.7129 38.8852C71.7308 38.889 71.7525 38.8756 71.7742 38.8616C71.8488 38.8597 71.8877 38.8501 71.949 38.8265C72.0058 38.8208 72.067 38.7972 72.1276 38.7736C72.1493 38.7602 72.171 38.7461 72.192 38.7321C78.369 34.7294 86.546 30.1513 95.1204 30.2048C95.3048 30.2087 95.472 30.2087 95.6525 30.2304C104.05 30.4115 111.808 33.715 117.066 39.3356C123.171 45.9055 125.902 55.8785 124.378 65.9803C123.622 71.042 121.828 76.1873 119.054 81.3186ZM86.761 51.4324C91.6173 48.86 97.1486 47.5879 102.635 47.7704C104.735 47.8297 106.82 48.127 108.88 48.6221C109.502 49.9108 109.784 51.4758 109.687 52.9935C107.663 52.8391 105.633 52.7957 103.549 52.9068C103.532 52.9029 103.493 52.9131 103.475 52.9087C98.7002 53.1996 93.7462 54.2114 89.0883 55.8083C88.6169 54.4239 87.9227 53.0452 86.9613 51.6997C86.9058 51.6129 86.8337 51.523 86.761 51.4324ZM117.032 84.8186C115.543 87.1765 113.873 89.5128 112.056 91.7598C107.981 96.8247 103.234 101.405 98.0118 105.454C98.11 103.344 98.2095 101.233 98.304 99.14C98.3831 97.2841 98.496 95.1953 97.9135 93.2297C97.7272 92.6511 97.5014 92.0813 97.2717 91.5295C96.7658 90.3039 96.2969 89.1613 96.4462 87.9893C96.5406 87.2314 96.9023 86.4397 97.2558 85.6843C97.8414 84.3867 98.4564 83.0399 97.8899 81.6714C97.5996 80.976 97.0459 80.4631 96.4864 80.0605C96.168 79.8232 95.8426 79.6209 95.5479 79.4442C94.2502 78.6914 92.7389 77.8174 91.0954 77.4512C90.5123 77.3217 89.9177 77.2451 89.2989 77.2744C88.0975 77.3408 86.9881 77.7434 85.9003 78.1312C84.7513 78.5427 83.6853 78.9179 82.5694 78.9294C80.7161 78.9249 78.8258 77.8365 77.4917 75.9998C76.1941 74.2459 75.484 72.1042 74.8505 70.2011C74.1832 68.1985 74.2585 66.8613 75.0719 66.2074C75.3647 65.9758 75.7296 65.8342 76.1303 65.7015C76.3695 65.6249 76.5916 65.5445 76.8174 65.4463C77.5243 65.103 78.3141 64.3885 78.1789 63.413C78.0844 62.835 77.6844 62.4682 77.3291 62.1479C77.1485 61.9591 76.9641 61.7887 76.8404 61.5941C76.0888 60.3884 78.0545 58.8043 78.4589 58.4865L83.5105 54.6223C84.2078 54.0723 84.9357 53.5486 85.6924 53.0682C86.597 54.4188 87.2663 55.8293 87.6171 57.1685C87.6133 57.1857 87.6312 57.1902 87.6312 57.1902C87.6446 57.2112 87.6407 57.2291 87.6363 57.2469C87.6739 57.3286 87.7505 57.402 87.792 57.4664C87.8366 57.5136 87.843 57.5704 87.8915 57.5997C87.9955 57.7159 88.1473 57.7867 88.3062 57.8224C88.4299 57.8498 88.5786 57.846 88.7145 57.8205C88.7362 57.8064 88.7579 57.7931 88.7579 57.7931C88.7757 57.7969 88.7929 57.8007 88.7968 57.7828C93.5529 56.0782 98.6644 55.0274 103.588 54.7327C103.628 54.7225 103.663 54.7307 103.703 54.7212C103.72 54.725 103.716 54.7429 103.729 54.7646C104.028 55.0906 104.348 55.4025 104.725 55.7088C106.395 56.9528 108.533 57.0945 110.601 57.2208C112.722 57.3586 114.732 57.4906 116.188 58.7794C117.519 59.966 117.978 61.9036 118.296 63.8105C119.313 70.3236 119.082 77.1896 117.68 83.7391C117.452 84.0964 117.26 84.4619 117.032 84.8186ZM36.6425 122.636C35.1056 122.461 33.6465 122.266 32.2353 122.026C32.1562 121.878 32.0388 121.741 31.8876 121.67C31.4595 121.427 31.0493 121.187 30.6212 120.944L30.4272 108.234C30.3941 106.965 30.3871 105.666 30.0987 104.378C30.0336 104.086 29.9513 103.789 29.869 103.492C29.6948 102.86 29.5341 102.249 29.5226 101.635C29.4913 100.441 30.0234 99.2988 30.6033 98.1109C31.1201 97.0391 31.6228 95.9456 31.737 94.7653C31.7606 94.4923 31.767 94.216 31.7511 93.9525C31.5597 91.6475 29.7421 90.1489 28.001 88.7224C27.2157 88.0838 26.4169 87.4241 25.7789 86.7076C23.969 84.6731 23.3125 81.8749 22.8264 79.3925C22.552 77.959 22.3287 76.4636 22.9514 75.2476C23.3661 74.4686 24.071 73.8842 24.8328 73.2928C25.0822 73.0893 25.3138 72.8807 25.5633 72.6765C26.3455 71.9977 27.6259 70.5763 27.2495 68.9348C27.0243 67.8649 26.1879 67.1223 25.2864 66.4211L17.103 59.945C15.2427 58.4738 13.1265 56.8163 10.6645 56.0456C10.3685 55.9614 10.0891 55.8804 9.78857 55.8134C8.96621 55.5933 8.19681 55.3853 7.57478 54.9317C5.91794 53.71 5.90518 51.1848 5.88604 48.936C5.8803 47.2102 5.56513 44.3776 3.69266 43.1259L3.69649 43.108C3.73413 42.8566 3.57081 42.6723 3.33156 42.5817L2.89965 42.5223C2.72293 42.4834 2.55961 42.4662 2.38289 42.4266C2.93027 37.8006 3.85471 33.315 5.16001 29.1171C5.52111 27.9923 5.87328 26.9952 6.27011 26.0446C6.37665 25.7345 6.51382 25.45 6.65545 25.1476C7.05419 24.7724 7.47079 24.4018 7.89696 24.0706C10.1828 22.2977 12.8726 21.0422 15.4985 19.8274C17.6466 18.8405 19.8636 17.7948 21.8847 16.4646C23.2493 15.581 24.54 14.5328 25.7834 13.5299C27.3956 12.2017 29.0862 10.8536 30.9089 9.83092C34.139 8.06499 38.5768 6.95681 41.2997 9.1387L41.3527 9.15083C41.3527 9.15083 41.3661 9.17252 41.3839 9.17635C41.7801 9.39454 42.1929 9.54191 42.6165 9.63633C43.7655 9.89216 44.979 9.77222 45.9589 9.61974L46.7283 9.4947C47.9437 9.28289 49.0627 9.08639 50.1957 9.24589C51.4423 9.3939 52.5773 9.9617 53.7965 10.5671C55.0195 11.1541 56.2878 11.7889 57.6933 11.972C58.5258 12.0645 59.3501 12.0256 60.1438 11.9611C60.2931 11.9567 60.4417 11.9528 60.5916 11.9497C60.6363 11.9969 60.6854 12.0262 60.7307 12.0728C61.4803 12.8703 62.1968 13.7341 62.8877 14.6304C62.8877 14.6304 62.8839 14.6477 62.866 14.6438L62.725 14.6119C59.9862 14.1698 57.1548 13.7252 54.4881 14.7083C53.5145 15.0847 52.5933 15.6404 51.6937 16.1814C50.2544 17.0663 48.8974 17.9141 47.3382 17.9199C46.7232 17.9314 46.1012 17.8114 45.4472 17.666C45.1608 17.6207 44.8782 17.5581 44.5917 17.5122C43.2819 17.3138 42.2886 17.4452 41.546 17.9473C40.9846 18.3046 40.5737 18.8992 40.4461 19.5569C40.3453 20.0909 40.448 20.6332 40.73 21.0294C41.0088 21.4434 41.4229 21.6661 41.784 21.876C42.0436 22.0451 42.3065 22.1963 42.4832 22.4023C42.9125 22.8878 42.8851 23.6789 42.8456 24.5236C42.806 25.3677 42.8723 26.5696 43.7457 27.2274C44.3014 27.6478 45.081 27.7282 46.1063 27.4558C47.9698 26.9983 49.6917 25.843 50.8331 24.2984C50.9938 24.0738 51.1553 23.8505 51.3026 23.6049C51.6663 23.0556 52.0216 22.5414 52.4733 22.1784C53.0405 21.7108 53.9579 21.5072 54.4664 21.973C54.6782 22.1861 54.8096 22.5127 54.9334 22.8744C55.0603 23.2177 55.1981 23.6005 55.461 23.9188C56.3873 25.0889 58.1915 24.8968 59.5524 24.1989C60.2809 23.8416 60.9585 23.5475 61.3279 23.8888C61.6513 24.1836 61.5078 24.745 61.2602 25.5246L61.1684 25.8564C60.8085 27.0558 60.9553 28.3126 61.0746 29.526C61.3208 31.7513 61.5716 33.9581 61.8363 36.1866C61.8657 36.4711 61.8906 36.7735 61.777 36.9521C61.5786 37.2596 60.9974 37.2048 60.5476 36.9751C59.456 36.3805 58.7715 35.0407 58.9329 33.8158C58.9431 33.6882 58.9705 33.5638 58.998 33.4407C59.0433 33.1542 59.1102 32.8531 59.1019 32.5545C59.1122 31.9268 58.8123 31.3589 58.3447 31.1254C57.8636 30.8702 57.3966 30.9698 56.9858 31.0642C56.8333 31.0859 56.6585 31.121 56.4875 31.1388C55.9471 31.1478 55.4151 30.7886 54.8524 30.4033C54.1314 29.8916 53.3308 29.3232 52.3508 29.6428C51.4749 29.912 51.0098 30.587 50.5696 31.2307C50.2946 31.6333 49.998 32.0492 49.5858 32.4027C47.8454 34.0557 45.9168 35.5549 44.0175 37.0051L39.1529 40.7813C37.6288 41.9628 36.0619 43.1718 34.2315 43.7288C34.0095 43.8092 33.7741 43.8678 33.5208 43.9227C32.2742 44.2755 30.8349 44.6602 30.2671 45.9617C30.0056 46.5531 30.0132 47.1847 30.0113 47.778C30.0132 48.0198 30.0183 48.2431 30.003 48.4804C29.9711 49.1229 29.6374 49.7902 29.1462 49.8298C28.6556 49.8687 28.2141 49.2696 28.0489 48.6769C27.9927 48.5155 27.943 48.319 27.89 48.1404C27.7331 47.512 27.5768 46.8836 27.0976 46.3694C26.5011 45.7167 25.6309 45.5419 24.8066 45.4143C23.0158 45.1266 20.9666 44.8376 18.9436 45.0921C16.733 45.3607 14.8203 46.289 13.6184 47.69C12.1689 49.3704 11.7829 51.7699 12.6856 53.5467C13.1896 54.5311 14.1632 55.3222 15.2963 55.6488C15.3849 55.6679 15.4691 55.7056 15.5572 55.7254C16.4937 55.9333 17.4131 55.8045 18.1831 55.3451C18.5244 55.1435 18.7994 54.9075 19.0961 54.658C19.306 54.4641 19.5337 54.2733 19.7896 54.1266C20.2036 53.8471 20.7925 53.7004 21.1421 53.9639C21.4151 54.1546 21.5268 54.5687 21.4362 54.9751C21.3577 55.3285 21.1255 55.7037 20.6974 56.1273C20.6508 56.1726 20.6566 56.2294 20.6444 56.2823C20.4601 56.4456 20.3421 56.6415 20.3006 56.9107C20.2279 57.4875 20.5577 58.1733 21.084 58.4757C21.4273 58.6824 21.7986 58.7647 22.1514 58.8432C22.4837 58.9357 22.7842 59.0027 23.0292 59.15C23.7827 59.5954 23.8395 60.5912 23.9179 61.7402C23.9722 62.828 24.0366 63.9547 24.7218 64.7936C25.7285 66.0192 27.6252 66.1627 29.8403 65.2089L30.3316 65.0035C31.633 64.4025 32.9926 63.7965 34.2073 64.2526C34.8631 64.4727 35.3812 64.9774 35.9305 65.5082C36.5295 66.0677 37.1554 66.6706 37.9841 66.9481C38.5653 67.1695 39.1542 67.1899 39.7258 67.2052C40.3855 67.2409 41.0094 67.269 41.5001 67.5631C42.1208 67.9421 42.4347 68.6987 42.762 69.4764C43.0822 70.2892 43.4331 71.1275 44.1419 71.6934C44.8405 72.2197 45.6788 72.3696 46.4999 72.5145C47.2987 72.674 48.0662 72.8079 48.5491 73.3043C49.0008 73.7764 49.1239 74.4712 49.2534 75.2227C49.3338 75.6119 49.3925 76.0151 49.5163 76.3762C50.2538 78.7278 52.6628 79.9878 54.0466 80.5179C54.867 80.8305 55.7072 81.0545 56.5264 81.2924C57.6276 81.5936 58.6719 81.8998 59.6672 82.3438C61.636 83.2459 62.9177 84.7363 63.0823 86.3306C63.2271 87.6799 62.5592 89.0146 61.9027 90.2963C61.2092 91.6628 60.5157 93.0287 59.8005 94.41C59.0815 95.8072 58.3804 97.2088 57.6614 98.6066C57.0681 99.7728 56.1232 101.102 55.0099 100.854C54.7273 100.79 54.4504 100.618 54.1385 100.438C53.6791 100.168 53.1528 99.8653 52.495 99.9049C51.5132 99.9827 50.8312 100.962 50.6978 101.897C50.6155 102.435 50.6602 102.983 50.7131 103.495C50.7284 103.758 50.7654 104.007 50.7635 104.267C50.775 107.051 48.5038 109.253 46.1847 111.259C43.7279 113.383 41.2608 115.301 38.3944 115.349C38.1883 115.358 38.0116 115.486 37.9644 115.698C37.7481 116.503 37.5414 117.347 37.3391 118.173C37.0087 119.491 36.6412 121.06 36.6425 122.636ZM11.7185 98.8037C8.54642 91.8108 6.05319 84.2642 4.40082 76.6084C3.81643 73.9008 3.32454 71.1951 2.94622 68.4773C1.69259 59.4454 1.47759 50.9966 2.2891 43.3511C2.3395 43.4551 2.41606 43.5284 2.51814 43.5693C4.64836 44.2474 4.96734 47.2294 4.98648 48.9774C4.9935 51.2786 5.01583 54.1763 7.04015 55.6654C7.80573 56.2255 8.69889 56.4609 9.55698 56.6893C9.8396 56.7519 10.1184 56.8329 10.3972 56.9133C12.7041 57.6304 14.641 59.1743 16.5378 60.6531L24.739 67.1337C25.4963 67.729 26.193 68.3478 26.3716 69.1293C26.6536 70.36 25.4816 71.546 24.9527 72.0028C24.7256 72.1936 24.4979 72.3837 24.2695 72.5744C23.4784 73.2143 22.6432 73.8817 22.1546 74.8297C21.3979 76.3111 21.641 78.0534 21.9345 79.5654C22.4506 82.1652 23.1466 85.1203 25.0918 87.2965C25.7706 88.078 26.6185 88.7677 27.4173 89.4273C29.0958 90.8022 30.6799 92.1005 30.8439 94.0291C30.8521 94.1605 30.856 94.3092 30.8458 94.4368C30.8043 95.5405 30.3092 96.5989 29.7803 97.7236C29.1896 98.9645 28.5726 100.237 28.609 101.654C28.6326 102.383 28.8132 103.072 29.0014 103.726C29.0658 104.018 29.1519 104.297 29.2208 104.572C29.4754 105.76 29.4913 107.024 29.5143 108.254L29.7025 120.406C20.4039 114.608 14.8108 105.575 11.7185 98.8037ZM31.441 2.43863C41.0669 0.353065 51.755 3.49194 59.3367 10.6686C59.4764 10.7924 59.6079 10.9512 59.7476 11.075C59.072 11.1101 58.4321 11.1535 57.8017 11.0692C56.5551 10.9206 55.4023 10.3496 54.201 9.74798C52.9646 9.1387 51.7097 8.5256 50.3221 8.34697C49.0435 8.17408 47.7886 8.39482 46.5733 8.60663L45.8217 8.73614C44.614 8.91286 43.0452 9.04556 41.8025 8.37951C41.0407 7.80213 40.1967 7.42892 39.2952 7.22795C36.4683 6.59891 33.0908 7.60883 30.4713 9.04748C28.5701 10.0899 26.8673 11.4909 25.1984 12.8256C23.9766 13.8145 22.7077 14.8486 21.382 15.722C19.4259 17.0114 17.2344 18.0258 15.1259 19.0025C12.5 20.2179 9.81026 21.4728 7.48482 23.2547C12.6282 12.3088 21.4273 4.60521 31.441 2.43863ZM126.154 66.2457C127.762 55.6061 124.857 45.0755 118.379 38.1075C112.69 32.0008 104.223 28.4657 95.1345 28.3904C94.9501 28.3866 94.7829 28.3866 94.5947 28.4006C86.3539 28.5129 78.6146 32.5398 72.5308 36.3786C72.1582 28.4695 69.5693 20.7723 65.1124 14.5507C64.1471 13.2231 63.1302 11.9579 62.0603 10.8485C61.5856 10.3158 61.081 9.83283 60.5763 9.34924C52.5799 1.78406 41.2678 -1.55003 31.0531 0.682907C19.6192 3.14552 9.71839 12.3841 4.58392 25.3728C4.1788 26.3585 3.8158 27.4086 3.4464 28.5684C2.0505 33.0056 1.07503 37.7215 0.543589 42.6104C-0.352774 50.552 -0.137137 59.3351 1.16498 68.7306C1.38062 70.2618 1.61795 71.7795 1.90759 73.3088C3.53444 82.3317 6.33773 91.3196 10.0693 99.5489C13.524 107.106 19.9433 117.343 31.0327 123.261C31.0818 123.29 31.1348 123.302 31.1877 123.314C31.3038 123.543 31.5061 123.718 31.7708 123.778C31.7887 123.781 31.8066 123.785 31.8066 123.785C33.5004 124.088 35.2108 124.32 37.0425 124.505C50.4796 125.957 64.2422 124.198 76.8372 119.435C84.3915 116.573 91.5139 112.65 98.0111 107.791C98.0367 107.759 98.0794 107.732 98.1049 107.701C103.869 103.383 109.019 98.4088 113.47 92.9088C115.337 90.5987 117.041 88.196 118.559 85.7896C122.642 79.2803 125.198 72.709 126.154 66.2457Z" fill="#5AE4A7"/>
<path d="M61.9031 90.2965C61.2096 91.663 60.5161 93.029 59.801 94.4095C59.082 95.8074 58.3808 97.209 57.6612 98.6062C57.0678 99.7731 56.123 101.102 55.0097 100.854C54.7271 100.791 54.4502 100.618 54.1382 100.438C53.6789 100.169 53.1532 99.8656 52.4948 99.9051C51.5136 99.983 50.8316 100.962 50.6982 101.898C50.6153 102.435 50.66 102.983 50.7129 103.495C50.7289 103.759 50.7659 104.007 50.764 104.266C50.7748 107.051 48.5042 109.253 46.1852 111.259C43.7283 113.383 41.2612 115.3 38.3948 115.349C38.1887 115.358 38.012 115.485 37.9648 115.698C37.7485 116.503 37.5418 117.347 37.3396 118.173C37.0091 119.491 36.641 121.06 36.6429 122.636C35.1053 122.461 33.6469 122.266 32.2351 122.026C32.1566 121.878 32.0386 121.741 31.888 121.67C31.4599 121.427 31.0497 121.188 30.6216 120.944L30.4277 108.234C30.3945 106.966 30.3868 105.666 30.0985 104.378C30.034 104.085 29.9517 103.789 29.8694 103.492C29.6946 102.86 29.5339 102.249 29.5224 101.635C29.4911 100.441 30.0238 99.2984 30.6031 98.1111C31.2283 96.8033 31.865 95.4424 31.7515 93.9521C31.5594 91.6477 29.7418 90.1491 28.0008 88.7226C27.2154 88.084 26.4167 87.4243 25.7787 86.7078C23.9694 84.6733 23.3123 81.8751 22.8268 79.3928C22.5518 77.9592 22.3285 76.4631 22.9512 75.2478C23.3659 74.4682 24.0708 73.8838 24.8332 73.293C25.0827 73.0889 25.3143 72.8809 25.5637 72.6767C26.3452 71.9973 27.6257 70.5765 27.2492 68.935C27.024 67.8651 26.1883 67.1225 25.2868 66.4213L17.1034 59.9452C15.2424 58.474 13.1263 56.8159 10.6649 56.0452C10.3683 55.9616 10.0895 55.8806 9.78899 55.8136C8.96663 55.5929 8.19658 55.3849 7.57455 54.9313C5.91772 53.7095 5.90495 51.1844 5.88582 48.9362C5.88071 47.2104 5.56555 44.3772 3.69244 43.1254L3.6969 43.1082C3.73391 42.8569 3.57122 42.6725 3.33134 42.5819L2.90006 42.5226C2.72334 42.4836 2.56002 42.4658 2.3833 42.4269C2.93069 37.8009 3.85512 33.3152 5.16043 29.1167C5.52153 27.9925 5.8737 26.9947 6.27052 26.0448C6.37643 25.7347 6.51423 25.4495 6.65522 25.1478C7.05396 24.7727 7.47056 24.402 7.89673 24.0702C10.1826 22.2979 12.873 21.0417 15.4989 19.8277C17.647 18.8407 19.864 17.7944 21.8845 16.4642C23.2497 15.5813 24.5404 14.5331 25.7832 13.5301C27.396 12.2019 29.0866 10.8538 30.9087 9.83113C34.1394 8.06456 38.5766 6.95703 41.3001 9.13892L41.3525 9.15105C41.3525 9.15105 41.3665 9.17274 41.3837 9.17656C41.7805 9.39411 42.1927 9.54212 42.6169 9.63591C43.7653 9.89238 44.9787 9.77244 45.9587 9.61996L46.7281 9.49492C47.9441 9.28311 49.0631 9.08661 50.1962 9.24611C51.4428 9.39348 52.5771 9.96191 53.7963 10.5667C55.0193 11.1543 56.2876 11.7885 57.6931 11.9716C58.5263 12.0647 59.3505 12.0251 60.1442 11.9613C60.2935 11.9569 60.4421 11.9531 60.5914 11.9492C60.6367 11.9971 60.6858 12.0258 60.7311 12.073C61.4808 12.8705 62.1972 13.7343 62.8875 14.63C62.8875 14.63 62.8837 14.6479 62.8665 14.6441L62.7248 14.6122C59.986 14.17 57.1546 13.7254 54.4879 14.7085C53.5143 15.0843 52.593 15.64 51.6941 16.1816C50.2542 17.0665 48.8972 17.9144 47.338 17.9201C46.7236 17.9309 46.101 17.8116 45.4477 17.6655C45.1612 17.6209 44.8779 17.5577 44.5915 17.5124C43.2823 17.314 42.2884 17.4454 41.5464 17.9475C40.9843 18.3042 40.5741 18.8994 40.4459 19.5572C40.3457 20.0911 40.4478 20.6334 40.7304 21.0296C41.0092 21.4437 41.4233 21.6663 41.7844 21.8762C42.044 22.0453 42.3069 22.1965 42.4836 22.4025C42.913 22.8881 42.8849 23.6792 42.846 24.5232C42.8064 25.3679 42.8728 26.5692 43.7462 27.2276C44.3018 27.648 45.0808 27.7284 46.1061 27.456C47.9696 26.9986 49.6915 25.8432 50.8329 24.2986C50.9943 24.0741 51.155 23.8508 51.3024 23.6051C51.6661 23.0558 52.0214 22.5416 52.4731 22.1786C53.0409 21.711 53.9577 21.5075 54.4662 21.9725C54.678 22.1863 54.8094 22.5129 54.9332 22.874C55.0608 23.2172 55.1979 23.6007 55.4608 23.919C56.3871 25.0891 58.192 24.8971 59.5528 24.1991C60.2814 23.8418 60.9589 23.5477 61.3276 23.889C61.6517 24.1838 61.5082 24.7452 61.2607 25.5248L61.1682 25.8566C60.8083 27.056 60.9551 28.3128 61.075 29.5262C61.3213 31.7509 61.572 33.9577 61.8368 36.1868C61.8655 36.4713 61.891 36.7731 61.7774 36.9523C61.579 37.2598 60.9978 37.205 60.548 36.9753C59.4564 36.3801 58.7719 35.0409 58.9333 33.816C58.9429 33.6884 58.9703 33.564 58.9977 33.4409C59.0437 33.1544 59.11 32.8533 59.1024 32.5547C59.1119 31.927 58.8121 31.3592 58.3451 31.1257C57.864 30.8705 57.397 30.97 56.9862 31.0638C56.8331 31.0855 56.6583 31.1212 56.4873 31.1384C55.9476 31.148 55.4155 30.7888 54.8521 30.4035C54.1319 29.8912 53.3306 29.3234 52.3513 29.643C51.4753 29.9122 51.0096 30.5872 50.5694 31.2309C50.295 31.6335 49.9984 32.0495 49.5856 32.4029C47.8452 34.0559 45.9166 35.5545 44.0179 37.0053L39.1533 40.7815C37.6292 41.9624 36.0623 43.172 34.232 43.729C34.0099 43.8094 33.7745 43.868 33.5212 43.9229C32.274 44.2757 30.8347 44.6604 30.2669 45.9619C30.0053 46.5533 30.0136 47.1849 30.0111 47.7776C30.013 48.0194 30.0187 48.2433 30.0034 48.4807C29.9715 49.1231 29.6372 49.7904 29.1466 49.8294C28.656 49.8689 28.2139 49.2692 28.0493 48.6772C27.9925 48.5158 27.9434 48.3193 27.8904 48.1406C27.7335 47.5116 27.5765 46.8838 27.098 46.3689C26.5009 45.7169 25.6313 45.5421 24.8071 45.4139C23.0162 45.1268 20.9664 44.8378 18.944 45.0923C16.7334 45.3603 14.8207 46.2892 13.6181 47.6902C12.1687 49.3707 11.7833 51.7695 12.6854 53.5462C13.1901 54.5306 14.1636 55.3224 15.2967 55.6484C15.3847 55.6682 15.4696 55.7052 15.5576 55.7256C16.4942 55.9336 17.4129 55.8047 18.1829 55.3453C18.5242 55.1431 18.7992 54.907 19.0959 54.6582C19.3064 54.4643 19.5341 54.2735 19.7893 54.1268C20.204 53.8474 20.7929 53.7006 21.1425 53.9641C21.4149 54.1549 21.5266 54.5689 21.4366 54.9753C21.3575 55.3281 21.1259 55.7032 20.6978 56.1269C20.6506 56.1728 20.6564 56.2296 20.6449 56.2825C20.4605 56.4452 20.3418 56.6417 20.301 56.9109C20.2283 57.4877 20.5575 58.1729 21.0838 58.4759C21.4277 58.682 21.7983 58.7649 22.1518 58.8434C22.4835 58.9359 22.784 59.0022 23.029 59.1503C23.7831 59.5956 23.8399 60.5908 23.9177 61.7398C23.9726 62.8276 24.037 63.9549 24.7222 64.7932C25.7289 66.0188 27.625 66.1629 29.8407 65.2092L30.3313 65.0031C31.6335 64.4028 32.9924 63.7967 34.2077 64.2528C34.8629 64.4723 35.3816 64.9769 35.9309 65.5084C36.53 66.0672 37.1558 66.6708 37.9839 66.9477C38.5651 67.1697 39.1546 67.1894 39.7256 67.2054C40.3853 67.2405 41.0099 67.2686 41.5005 67.5633C42.1212 67.9423 42.4351 68.6983 42.7624 69.476C43.0827 70.2894 43.4336 71.1277 44.1424 71.6936C44.8409 72.2199 45.6792 72.3692 46.4997 72.5147C47.2991 72.6742 48.0666 72.8082 48.5495 73.3045C49.0006 73.776 49.1243 74.4707 49.2539 75.2229C49.3342 75.6114 49.3929 76.0146 49.5161 76.3764C50.2536 78.728 52.6626 79.988 54.047 80.5182C54.8674 80.8308 55.7077 81.0547 56.5262 81.2927C57.6274 81.5931 58.6724 81.9 59.6676 82.3441C61.6364 83.2455 62.9181 84.7365 63.0827 86.3308C63.2276 87.6795 62.5589 89.0148 61.9031 90.2965Z" fill="#5AE4A7"/>
<path d="M117.68 83.7391C117.452 84.097 117.26 84.462 117.032 84.8186C115.543 87.1766 113.873 89.5129 112.056 91.7598C107.98 96.8248 103.233 101.405 98.0112 105.454C98.1101 103.344 98.209 101.233 98.3041 99.14C98.3832 97.2841 98.4961 95.1954 97.9136 93.2297C97.7273 92.6511 97.5015 92.0814 97.2718 91.5295C96.7659 90.304 96.297 89.1613 96.4463 87.9894C96.5407 87.2314 96.9024 86.4397 97.2559 85.6843C97.8415 84.3867 98.4566 83.0399 97.8894 81.6714C97.4262 80.5856 96.3474 79.9368 95.548 79.4443C94.2503 78.6914 92.739 77.8174 91.0955 77.4518C90.5124 77.3217 89.9172 77.2451 89.299 77.2745C88.097 77.3408 86.9882 77.7434 85.9004 78.1313C84.7514 78.5428 83.6847 78.9179 82.5695 78.9294C80.7162 78.9249 78.8259 77.8365 77.4912 75.9998C76.1942 74.246 75.4841 72.1043 74.8506 70.2012C74.1833 68.1986 74.2586 66.8614 75.0714 66.2081C75.3642 65.9758 75.7298 65.8348 76.1304 65.7015C76.3696 65.6249 76.5917 65.5446 76.8175 65.4463C77.5244 65.1031 78.3136 64.3885 78.1783 63.4131C78.0845 62.8351 77.6845 62.4682 77.3285 62.1479C77.1486 61.9591 76.9642 61.7888 76.8405 61.5942C76.0889 60.3884 78.0546 58.8043 78.459 58.4866L83.5099 54.6223C84.2079 54.0724 84.9358 53.5486 85.6925 53.0682C86.5971 54.4188 87.2664 55.8294 87.6173 57.1685C87.6134 57.1857 87.6307 57.1902 87.6307 57.1902C87.6447 57.2113 87.6409 57.2291 87.6364 57.247C87.674 57.3293 87.7506 57.402 87.7914 57.4664C87.8367 57.5143 87.8425 57.5704 87.8916 57.5998C87.9956 57.7159 88.1468 57.7867 88.3063 57.8224C88.4294 57.8499 88.5787 57.846 88.7146 57.8205C88.7363 57.8071 88.758 57.7931 88.758 57.7931C88.7752 57.7969 88.7931 57.8007 88.7969 57.7829C93.553 56.0788 98.6639 55.0274 103.588 54.7327C103.628 54.7231 103.663 54.7308 103.702 54.7212C104.015 55.0689 104.33 55.3987 104.725 55.7088C106.396 56.9529 108.533 57.0945 110.601 57.2208C112.722 57.3586 114.732 57.4907 116.189 58.7794C117.519 59.966 117.978 61.9036 118.295 63.8105C119.313 70.3237 119.082 77.1896 117.68 83.7391Z" fill="#5AE4A7"/>
<path d="M94.9426 39.0854C94.6204 39.3655 94.2529 39.5996 93.8682 39.8293C93.3029 40.2038 92.6981 40.5885 92.2069 41.1282C91.7335 41.6724 91.4292 42.29 91.1249 42.9088C90.9201 43.3267 90.7415 43.714 90.4958 44.0674C89.7985 45.1175 88.6285 45.8773 87.3946 46.0847C86.1403 46.3061 84.4025 46.0305 83.6433 45.1934C83.1508 44.6575 82.7367 43.601 82.9 42.7844C82.9938 42.3608 83.2063 42.0737 83.5616 41.8932C84.0567 41.6699 84.7068 41.8332 85.3735 41.9997C86.1474 42.1905 87.0405 42.4265 87.8418 41.9933C88.4486 41.6826 88.7848 41.0906 89.0872 40.5636L89.1797 40.399C89.9988 38.9674 91.1612 37.7431 92.5342 36.8244C93.2474 36.3714 93.7776 36.1552 94.3071 36.1067C94.8162 36.0709 95.4619 36.2528 95.7605 36.7453C96.1962 37.4541 95.6514 38.4831 94.9426 39.0854ZM96.5343 36.2681C96.1024 35.5414 95.2092 35.1388 94.2491 35.2033C93.3419 35.2798 92.554 35.7347 92.0538 36.0684C90.5552 37.0515 89.2722 38.3983 88.3905 39.9454L88.298 40.11C88.0288 40.5693 87.7851 40.9974 87.408 41.192C86.9193 41.4721 86.2692 41.3088 85.5878 41.1199C84.8325 40.933 83.9744 40.7052 83.1673 41.0823C82.5645 41.3745 82.1734 41.881 82.0279 42.5343L82.012 42.6058C81.7919 43.7618 82.3316 45.0875 82.9696 45.804C83.5074 46.3871 84.2672 46.7239 85.0621 46.9007C85.963 47.101 86.8938 47.0857 87.5458 46.99C89.0323 46.7271 90.4186 45.8301 91.2557 44.5701C91.5306 44.1676 91.7393 43.7318 91.9472 43.2961C92.2222 42.7264 92.4934 42.1751 92.8902 41.726C93.287 41.2762 93.805 40.9464 94.3626 40.607C94.7518 40.3594 95.1448 40.0947 95.5276 39.7904C96.5547 38.9246 97.2367 37.4445 96.5343 36.2681Z" fill="#5AE4A7"/>
<path d="M94.9425 39.0854C94.6203 39.3655 94.2529 39.5996 93.8681 39.8293C93.3029 40.2038 92.6981 40.5885 92.2068 41.1282C91.7335 41.6724 91.4291 42.29 91.1248 42.9088C90.92 43.3267 90.7414 43.714 90.4958 44.0674C89.7985 45.1175 88.6284 45.8774 87.3946 46.0847C86.1403 46.3061 84.4024 46.0305 83.6432 45.1934C83.1507 44.6575 82.7367 43.601 82.9 42.7844C82.9938 42.3608 83.2062 42.0737 83.5616 41.8932C84.0566 41.6699 84.7067 41.8332 85.3734 41.9997C86.1473 42.1905 87.0405 42.4265 87.8418 41.9933C88.4485 41.6826 88.7847 41.0906 89.0871 40.5636L89.1796 40.399C89.9988 38.9674 91.1612 37.7431 92.5341 36.8244C93.2474 36.3714 93.7776 36.1552 94.3071 36.1067C94.8162 36.0709 95.4618 36.2528 95.7604 36.7453C96.1961 37.4541 95.6513 38.4832 94.9425 39.0854Z" fill="#5AE4A7"/>
<path d="M21.3725 99.6723C20.8525 99.9275 20.2592 99.9249 19.8573 99.6506C19.4368 99.3712 19.2033 98.8372 19.2448 98.2343C19.2824 97.6492 19.581 97.1408 20.0365 96.9271C20.4742 96.7089 21.0516 96.7822 21.5524 97.1159C22.0353 97.4464 22.3294 97.9568 22.2937 98.4499C22.2586 98.9424 21.9147 99.4037 21.3725 99.6723ZM22.0551 96.3567C21.2953 95.854 20.3708 95.7589 19.6244 96.1123C18.8958 96.469 18.4027 97.2684 18.3472 98.1832C18.2923 99.0987 18.661 99.9409 19.3367 100.406C19.5644 100.55 19.8037 100.64 20.0684 100.699C20.6165 100.821 21.2251 100.752 21.7846 100.488C22.5999 100.075 23.1378 99.3233 23.2086 98.5048C23.2583 97.6996 22.8105 96.8773 22.0551 96.3567Z" fill="#5AE4A7"/>
<path d="M22.2939 98.45C22.2582 98.9426 21.9143 99.4038 21.3726 99.6724C20.852 99.9276 20.2594 99.9257 19.8568 99.6507C19.4364 99.3713 19.2035 98.8373 19.245 98.2344C19.282 97.6494 19.5812 97.1409 20.0361 96.9272C20.4744 96.709 21.0517 96.7824 21.5519 97.116C22.0349 97.4465 22.3296 97.9569 22.2939 98.45Z" fill="#5AE4A7"/>
<path d="M90.0541 98.5466C90.019 98.5383 89.9794 98.5486 89.8991 98.4937C89.7555 98.3871 89.6126 98.1141 89.5832 97.8295C89.5673 97.7339 89.5558 97.6197 89.5443 97.5055C89.4914 96.9932 89.4499 96.4279 89.0084 95.9954C88.7692 95.7382 88.463 95.6145 88.1701 95.5124C87.966 95.4295 87.7797 95.351 87.6578 95.2317C87.4773 95.0428 87.4243 94.8642 87.5149 94.625C87.7369 94.0431 88.6952 93.4032 89.2643 93.3452C89.4352 93.3273 89.5986 93.3452 89.7396 93.3764C89.952 93.4237 90.1338 93.52 90.2838 93.6833C90.7801 94.2014 90.8286 95.2323 90.7425 95.9552C90.6436 96.5638 90.5415 97.1897 90.4254 97.7945C90.345 98.2404 90.2117 98.5071 90.0541 98.5466ZM91.6235 96.077C91.6905 95.6094 91.8423 94.0119 90.9434 93.0511C90.5058 92.6013 89.8895 92.371 89.1845 92.4552C88.299 92.5184 87.0205 93.3465 86.6549 94.3219C86.454 94.8897 86.5739 95.4352 87.0154 95.8678C87.2731 96.1287 87.5794 96.2518 87.8537 96.3507C88.0585 96.433 88.262 96.5153 88.3838 96.6352C88.5823 96.8279 88.6097 97.2043 88.6365 97.582C88.6448 97.7134 88.6569 97.827 88.6856 97.9457C88.7233 98.3616 88.9523 98.9128 89.3644 99.2274C89.508 99.3333 89.6451 99.383 89.7868 99.4137C89.9284 99.4456 90.0732 99.4596 90.2091 99.4341C90.7724 99.318 91.1591 98.8293 91.3166 97.9559C91.4366 97.3338 91.5393 96.7067 91.6235 96.077Z" fill="#5AE4A7"/>
<path d="M90.4251 97.7946C90.3447 98.2399 90.2113 98.5072 90.0538 98.5468C90.0187 98.5385 89.9791 98.5487 89.8987 98.4938C89.7552 98.3873 89.6123 98.1142 89.5829 97.8297C89.567 97.7333 89.5555 97.6198 89.544 97.5056C89.4911 96.9933 89.4496 96.4274 89.0081 95.9955C88.7689 95.7377 88.4626 95.6146 88.1698 95.5125C87.9656 95.4296 87.7793 95.3511 87.6575 95.2312C87.4769 95.043 87.424 94.8637 87.5146 94.6244C87.7366 94.0432 88.6949 93.4033 89.2639 93.3447C89.4349 93.3274 89.5982 93.3447 89.7392 93.3766C89.9517 93.4231 90.1335 93.5201 90.2834 93.6834C90.7798 94.2015 90.8283 95.2318 90.7421 95.9546C90.6432 96.5633 90.5412 97.1898 90.4251 97.7946Z" fill="#5AE4A7"/>
<path d="M73.268 46.4826C72.7889 46.8022 72.133 46.9157 71.4357 46.7977C70.7346 46.6976 70.0775 46.4028 69.4593 46.0979C69.072 45.9192 68.8819 45.6921 68.9055 45.5856C68.9253 45.4975 69.1199 45.3737 69.1843 45.3323C70.0347 44.7613 72.0118 43.7916 73.1608 44.048C73.231 44.0633 73.3197 44.0831 73.3867 44.1163C73.6081 44.203 73.899 44.397 73.9851 45.0095C74.0731 45.5307 73.7727 46.131 73.268 46.4826ZM74.8866 44.8768C74.7335 43.8968 74.1778 43.4764 73.7561 43.2901C71.8772 42.4818 68.7505 44.531 68.686 44.5724C68.5131 44.6828 68.1418 44.9335 68.0302 45.3533C67.8784 45.9505 68.2535 46.5164 69.0542 46.917C69.606 47.1875 70.2638 47.4823 70.9528 47.636C71.0587 47.6596 71.1825 47.6877 71.2922 47.6928C72.223 47.8446 73.0964 47.6679 73.7663 47.2424C74.5733 46.6988 75.0269 45.7425 74.8866 44.8768Z" fill="#5AE4A7"/>
<path d="M73.2678 46.4826C72.7887 46.8022 72.1328 46.9157 71.4355 46.7977C70.7344 46.6976 70.0772 46.4028 69.459 46.0979C69.0718 45.9192 68.8817 45.6921 68.9053 45.5856C68.9251 45.4975 69.1196 45.3737 69.1841 45.3323C70.0345 44.7613 72.0116 43.7916 73.1606 44.048C73.2308 44.0633 73.3195 44.0831 73.3865 44.1163C73.6078 44.203 73.8988 44.397 73.9849 45.0095C74.0729 45.5307 73.7724 46.131 73.2678 46.4826Z" fill="#5AE4A7"/>
<path d="M109.691 52.9969C109.186 52.9523 108.68 52.9261 108.156 52.8987L107.674 49.629C107.674 49.629 101.886 49.3981 97.278 49.8102C93.6543 50.1286 89.3313 52.0234 87.6783 52.7883C87.462 52.4151 87.2087 52.0566 86.9555 51.6993C86.9063 51.6061 86.8374 51.5302 86.752 51.4352C93.482 47.8714 101.459 46.8022 108.887 48.623C109.508 49.9053 109.789 51.4792 109.691 52.9969Z" fill="#5AE4A7"/>
</svg>
