<svg width="45" height="46" viewBox="0 0 45 46" fill="none" xmlns="http://www.w3.org/2000/svg">
<path d="M31.3541 19.0915C31.4021 23.7791 29.6062 28.4409 26.468 31.9232C25.3073 31.7537 24.1414 31.5157 23.0149 31.1973C19.7466 30.3121 16.6496 28.8038 13.9223 26.7289C12.4637 25.6383 10.7671 23.9194 11.0102 22.0568C11.1848 20.7813 12.3438 19.6308 13.7614 19.2799C15.0779 18.9683 16.5965 19.2508 18.0757 20.0879C19.358 20.819 20.4725 21.8821 21.4518 22.8837C21.5374 23.0532 21.6487 23.1679 21.8096 23.2415C22.1195 23.5308 22.592 23.5325 22.8865 23.2432C23.2015 22.9453 23.2169 22.4471 22.919 22.1321C22.8933 22.1201 22.8848 22.1013 22.8779 22.0807C22.5852 20.2181 22.9995 18.2698 24.0267 16.6981C24.3776 16.14 24.8108 15.6196 25.321 15.183C26.4663 14.1712 27.7863 13.7449 28.8392 14.0462C29.6455 14.2825 30.4005 14.9861 30.8268 15.9483C31.1761 16.7598 31.337 17.7305 31.3541 19.0915ZM29.2552 12.5225C27.699 12.074 25.826 12.6406 24.2732 14.0051C23.9394 14.3099 23.6312 14.6266 23.359 14.9741C22.0647 16.4893 21.3183 18.4495 21.2172 20.4594C20.5102 19.8277 19.7175 19.2045 18.8632 18.7183C17.0468 17.6945 15.1002 17.3453 13.395 17.7596C11.332 18.239 9.69875 19.9253 9.45565 21.8547C9.19884 23.9229 10.399 26.0526 12.9584 27.9855C15.7319 30.0656 18.8495 31.6338 22.1469 32.5977C23.5387 33.0188 24.97 33.3133 26.4115 33.5136C26.5519 33.529 26.6786 33.5033 26.7967 33.4605C26.896 33.4229 26.9782 33.3476 27.0621 33.2705C27.1271 33.2688 27.1939 33.2654 27.2727 33.2363C27.372 33.2003 27.4815 33.137 27.5774 33.0325C31.0169 29.2815 32.9651 24.1814 32.9412 19.0813C32.9326 18.0969 32.8522 16.6262 32.2461 15.3063C31.6383 13.9195 30.5375 12.8957 29.2552 12.5225Z" fill="#0A1C2D"/>
<path d="M29.0587 41.4902C24.3421 43.6799 18.7729 43.6559 13.7515 41.432C13.6146 41.3704 13.4537 41.2967 13.3372 41.2266C8.31758 38.8896 4.56312 34.6678 3.00518 29.6019C0.183762 20.4357 4.26865 7.4997 14.7051 3.46104L14.9003 3.38742C25.4036 -0.53825 37.1292 4.80498 41.0566 15.3065C45.4753 27.1246 41.5462 35.6779 29.0587 41.4902ZM14.1676 1.42202C13.7344 1.58295 13.3287 1.75758 12.9298 1.95103C2.00364 6.84229 -2.08124 20.2508 0.99355 30.22C2.61997 35.4622 6.33848 39.898 11.3273 42.5619C11.8341 42.8427 12.3545 43.0961 12.8955 43.3426C17.9991 45.6025 23.6145 45.8131 28.5708 43.9589C29.0416 43.7826 29.4867 43.5943 29.9456 43.3786C43.4329 37.1245 47.8328 27.4328 43.022 14.5704C38.6923 2.98852 25.7494 -2.9094 14.1676 1.42202Z" fill="#0A1C2D"/>
<path d="M27.2764 36.665C24.4362 37.9969 21.209 38.2383 18.0966 37.408C17.3313 37.2231 16.578 36.944 15.8281 36.6205C11.9401 34.9136 9.02627 31.6761 7.81587 27.7813C5.69467 20.9075 8.79686 11.1627 16.703 8.20603C17.3518 7.96292 17.9956 7.76775 18.6701 7.64962C25.9513 5.95814 33.5544 9.93003 36.2372 17.1085C39.5397 25.9374 36.5933 32.3284 27.2764 36.665ZM17.5111 6.29027C17.0642 6.41354 16.6054 6.56248 16.1517 6.73198C7.30226 10.0396 3.91931 20.5394 6.31271 28.2521C7.66521 32.5887 10.9026 36.1531 15.2032 38.0637C15.6878 38.2846 16.1877 38.4797 16.6978 38.6475C20.1013 39.774 23.6932 39.7312 26.9186 38.5242C27.2525 38.3993 27.6 38.2469 27.9475 38.0945C38.0091 33.4138 41.3082 26.1737 37.7129 16.5556C34.6467 8.35497 25.7921 3.97733 17.5111 6.29027Z" fill="#0A1C2D"/>
</svg>
