<svg width="141" height="20" viewBox="0 0 141 20" fill="none" xmlns="http://www.w3.org/2000/svg">
<g clip-path="url(#clip0_1_5373)">
<path d="M28.3757 17.1876V20.0001H21.8236V15.4688L15.3219 14.6876C14.8179 14.6355 14.3643 14.4793 13.9107 14.2709L0 7.65638L0.453608 7.03138C0.55441 6.87513 0.705612 6.71888 0.907216 6.6668C1.46163 6.40638 2.11684 6.3543 2.72165 6.56263L6.60252 7.76055L10.937 8.95846L12.449 9.32305C12.3482 10.1043 12.8018 10.7813 13.5578 10.9376L19.0011 12.1355L19.1523 11.3022L17.8923 11.0418L14.3139 10.2084C13.6586 10.0522 13.205 9.37513 13.3058 8.69804L13.3562 8.33346C13.4066 7.96888 13.7091 7.70846 14.0619 7.76055L15.4731 7.81263C17.8419 7.9168 20.1604 8.33346 22.4284 9.01055C22.9324 9.11471 23.4364 9.37513 23.9404 9.68763C26.0069 10.9897 27.4685 13.073 28.1237 15.4168C28.2749 16.0418 28.3757 16.6147 28.3757 17.1876Z" fill="#39D192"/>
<path d="M22.2771 0.625C20.1099 0.208334 17.2371 0 14.213 0C11.1889 0 8.31607 0.208333 6.14883 0.572917C3.52798 1.04167 2.31836 1.61458 2.31836 2.55208C2.31836 3.48958 3.47758 4.16667 6.14883 4.63541C8.31607 5.05208 11.1889 5.26042 14.213 5.26042C17.2371 5.26042 20.1099 5.05208 22.2771 4.6875C24.9484 4.21875 26.1076 3.59375 26.1076 2.60417C26.0572 1.66667 24.898 1.14583 22.2771 0.625ZM21.5715 3.54167C19.5555 3.85417 16.8842 4.0625 14.1626 4.0625C11.4409 4.0625 8.82008 3.85417 6.75364 3.54167C4.6872 3.22917 3.88079 2.8125 3.62879 2.65625C3.93119 2.44792 4.6872 1.875 6.75364 1.5625C9.22329 1.19792 11.693 0.989583 14.1626 0.989583C16.6322 0.989583 19.1019 1.19792 21.5715 1.51042C23.8396 1.82292 24.4444 2.5 24.6964 2.70833C24.4444 2.8125 23.638 3.17708 21.5715 3.54167Z" fill="#39D192"/>
<path d="M48.3755 18.9154V2.94775H58.2605V5.41256H51.2105V9.48484H57.4655V11.9496H51.2105V18.9154H48.3755Z" fill="#39D192"/>
<path d="M71.1011 12.8832C71.1161 13.7711 70.9811 14.6438 70.6961 15.4858C70.4561 16.2206 70.0511 16.9096 69.5411 17.4913C69.0311 18.0425 68.4311 18.4864 67.7411 18.7773C67.0061 19.0835 66.2261 19.2519 65.4311 19.2366C64.6361 19.2519 63.8561 19.0988 63.1211 18.7773C62.4461 18.4864 61.8311 18.0425 61.3361 17.4913C60.8261 16.9096 60.4211 16.2206 60.1661 15.4858C59.8811 14.6438 59.7311 13.7711 59.7461 12.8832C59.7311 11.9953 59.8811 11.1226 60.1661 10.2806C60.4211 9.54576 60.8261 8.87215 61.3361 8.2904C61.8461 7.73926 62.4461 7.29529 63.1361 7.01972C63.8561 6.71354 64.6361 6.56044 65.4161 6.57575C66.1961 6.56044 66.9761 6.71354 67.7111 7.01972C68.4011 7.3106 69.0161 7.73926 69.5111 8.2904C70.0211 8.87215 70.4111 9.54576 70.6811 10.2806C70.9661 11.1226 71.1161 11.9953 71.1011 12.8832ZM68.2961 12.8832C68.2961 11.6891 68.0411 10.7399 67.5461 10.0357C67.0511 9.33143 66.3461 8.97932 65.4311 8.99463C64.5311 8.99463 63.8261 9.34674 63.3161 10.0357C62.8061 10.7246 62.5511 11.6891 62.5511 12.8832C62.5511 14.0926 62.8061 15.0571 63.3011 15.7614C63.8111 16.4656 64.5161 16.8177 65.4161 16.8177C66.3161 16.8177 67.0211 16.4656 67.5311 15.7614C68.0411 15.0571 68.2961 14.0926 68.2961 12.8832Z" fill="#39D192"/>
<path d="M84.6011 12.8834C84.6161 13.7713 84.4811 14.6439 84.1961 15.486C83.9561 16.2208 83.5511 16.9097 83.0411 17.4915C82.5311 18.0426 81.9311 18.4866 81.2411 18.7775C80.5061 19.0837 79.7261 19.2521 78.9311 19.2368C78.1361 19.2521 77.3561 19.099 76.6211 18.7775C75.9461 18.4866 75.3311 18.0426 74.8361 17.4915C74.3261 16.9097 73.9211 16.2208 73.6661 15.486C73.3811 14.6439 73.2311 13.7713 73.2461 12.8834C73.2311 11.9954 73.3811 11.1228 73.6661 10.2808C73.9211 9.54594 74.3261 8.87233 74.8361 8.29057C75.3461 7.73944 75.9611 7.29546 76.6361 7.0199C77.3561 6.71371 78.1361 6.56062 78.9161 6.56062C79.6961 6.54531 80.4761 6.6984 81.2111 7.00459C81.9011 7.29546 82.5161 7.72413 83.0111 8.29057C83.5211 8.87233 83.9111 9.54594 84.1811 10.2808C84.4811 11.1228 84.6161 11.9954 84.6011 12.8834ZM81.7961 12.8834C81.7961 11.6892 81.5411 10.7401 81.0461 10.0358C80.5361 9.33161 79.8311 8.97949 78.9311 8.97949C78.0311 8.97949 77.3261 9.33161 76.8161 10.0205C76.3061 10.7094 76.0511 11.6739 76.0661 12.8681C76.0661 14.0775 76.3211 15.042 76.8161 15.7462C77.3111 16.4505 78.0161 16.8026 78.9311 16.8026C79.8311 16.8026 80.5361 16.4505 81.0461 15.7462C81.5561 15.0573 81.7961 14.0928 81.7961 12.8834Z" fill="#39D192"/>
<path d="M97.4102 18.5475C96.7352 18.7465 96.0602 18.8996 95.3702 19.0068C94.5152 19.1446 93.6452 19.2211 92.7752 19.2211C91.9202 19.2364 91.0652 19.0834 90.2702 18.7772C89.5652 18.5016 88.9202 18.0729 88.3802 17.5218C87.8402 16.9554 87.4352 16.2817 87.1802 15.5316C86.8952 14.6896 86.7602 13.8169 86.7752 12.929C86.7602 12.0564 86.8802 11.1837 87.1202 10.3417C87.3302 9.62223 87.6752 8.93331 88.1402 8.35155C88.5902 7.80041 89.1452 7.37175 89.7902 7.08088C90.4952 6.77469 91.2452 6.6216 92.0102 6.6216C92.5202 6.60629 93.0302 6.68283 93.5252 6.83593C93.9152 6.9584 94.2902 7.11149 94.6502 7.29521V1.49297L97.3802 1.03369L97.4102 18.5475ZM89.5652 12.8525C89.5652 14.0772 89.8502 15.0417 90.4202 15.7459C90.9902 16.4501 91.7852 16.8023 92.7902 16.787C93.1652 16.787 93.5402 16.7716 93.9152 16.7257C94.1702 16.6951 94.4102 16.6492 94.6652 16.6032V9.69877C94.3652 9.49975 94.0502 9.34666 93.7052 9.22418C93.3002 9.07109 92.8652 9.00985 92.4302 9.00985C91.4402 9.00985 90.7052 9.36197 90.2552 10.0508C89.8052 10.7398 89.5652 11.6736 89.5652 12.8525Z" fill="#39D192"/>
<path d="M100.231 12.9444C100.216 11.9952 100.365 11.046 100.695 10.1581C100.965 9.42322 101.385 8.7343 101.925 8.16785C102.42 7.64734 103.02 7.23398 103.695 6.97373C104.34 6.71347 105.03 6.57568 105.72 6.57568C107.34 6.57568 108.616 7.0962 109.531 8.12193C110.446 9.14765 110.896 10.6939 110.896 12.73C110.896 12.8831 110.896 13.0515 110.881 13.2506C110.866 13.4496 110.866 13.618 110.851 13.7711H103.05C103.125 14.7356 103.456 15.4857 104.056 16.0215C104.656 16.5574 105.511 16.8176 106.636 16.8176C107.251 16.8176 107.851 16.7564 108.451 16.6339C108.901 16.5421 109.336 16.4196 109.756 16.2359L110.115 18.517C109.92 18.6088 109.711 18.7007 109.501 18.7619C109.201 18.8538 108.901 18.9303 108.601 18.9916C108.256 19.0681 107.896 19.114 107.506 19.16C107.101 19.2059 106.711 19.2365 106.306 19.2212C105.376 19.2365 104.46 19.0834 103.59 18.7466C102.87 18.471 102.211 18.0118 101.686 17.43C101.176 16.8636 100.8 16.1746 100.575 15.4551C100.335 14.6437 100.216 13.8017 100.231 12.9444ZM108.151 11.7043C108.151 11.3369 108.106 10.9695 108.001 10.602C107.911 10.2805 107.746 9.97436 107.536 9.69879C107.326 9.43853 107.071 9.23951 106.786 9.10172C106.456 8.94863 106.096 8.87208 105.736 8.88739C105.361 8.87208 104.97 8.96394 104.625 9.13234C104.325 9.28544 104.041 9.49977 103.831 9.76003C103.606 10.0203 103.44 10.3265 103.32 10.6633C103.2 11.0001 103.11 11.3522 103.065 11.7043H108.151Z" fill="#39D192"/>
<path d="M117.721 6.56085C118.501 6.54554 119.266 6.66801 120.001 6.91296C120.571 7.11199 121.066 7.43348 121.486 7.87745C121.861 8.30611 122.131 8.82663 122.281 9.39308C122.446 10.0361 122.521 10.6791 122.521 11.3374V18.6399C122.101 18.7318 121.471 18.8389 120.616 18.9767C119.656 19.1145 118.696 19.1758 117.736 19.1758C117.076 19.1758 116.431 19.1145 115.786 18.9614C115.246 18.8389 114.736 18.6246 114.286 18.2878C113.866 17.9816 113.536 17.5683 113.311 17.0937C113.056 16.5272 112.936 15.8995 112.966 15.2719C112.951 14.6595 113.086 14.0624 113.356 13.5266C113.611 13.052 113.986 12.654 114.436 12.3631C114.916 12.0569 115.456 11.8273 116.011 11.7201C116.626 11.5823 117.241 11.5211 117.871 11.5211C118.186 11.5211 118.501 11.5364 118.816 11.5823C119.176 11.6282 119.521 11.6895 119.881 11.7813V11.3221C119.881 11.0159 119.851 10.7097 119.761 10.4035C119.611 9.80643 119.191 9.31653 118.621 9.11751C118.246 8.97973 117.856 8.91849 117.451 8.9338C116.866 8.9338 116.281 8.97973 115.711 9.07158C115.276 9.14813 114.841 9.25529 114.421 9.39308L114.076 7.11199C114.571 6.95889 115.081 6.83642 115.591 6.74456C116.296 6.62209 117.001 6.56085 117.721 6.56085ZM117.946 16.9559C118.591 16.9712 119.236 16.9253 119.866 16.8181V13.7256C119.656 13.6644 119.431 13.6185 119.206 13.5878C118.891 13.5419 118.576 13.5113 118.261 13.5266C117.961 13.5266 117.646 13.5572 117.346 13.5878C117.061 13.6338 116.776 13.7103 116.506 13.8481C116.266 13.9706 116.056 14.139 115.906 14.3686C115.741 14.6136 115.666 14.9198 115.681 15.2106C115.681 15.8689 115.891 16.3282 116.296 16.5885C116.701 16.8334 117.241 16.9712 117.946 16.9559Z" fill="#39D192"/>
<path d="M129.96 19.1446C129.27 19.1446 128.595 19.0527 127.935 18.869C127.455 18.7312 127.02 18.4863 126.66 18.1495C126.345 17.828 126.105 17.4146 126 16.9707C125.865 16.4501 125.805 15.9143 125.805 15.3632V1.49297L128.535 1.03369V14.8427C128.535 15.1335 128.55 15.4091 128.61 15.7C128.655 15.9143 128.76 16.1133 128.895 16.2817C129.045 16.4501 129.24 16.5726 129.45 16.6492C129.735 16.741 130.035 16.8176 130.335 16.8482L129.96 19.1446Z" fill="#39D192"/>
<path d="M135.511 16.91C136.231 16.91 136.756 16.8182 137.086 16.6498C137.416 16.4813 137.581 16.1752 137.581 15.7312C137.581 15.3331 137.386 14.9504 137.056 14.7361C136.696 14.4758 136.111 14.1849 135.301 13.8788C134.836 13.7104 134.386 13.5113 133.936 13.297C133.546 13.1133 133.186 12.8683 132.856 12.5622C132.556 12.2866 132.316 11.9345 132.151 11.5517C131.971 11.0925 131.881 10.6026 131.896 10.1127C131.896 9.01039 132.301 8.13776 133.096 7.49476C133.891 6.85177 134.986 6.54558 136.351 6.53027C137.011 6.53027 137.686 6.60682 138.331 6.7293C138.811 6.82115 139.291 6.94363 139.756 7.11203L139.261 9.3625C138.886 9.1941 138.496 9.07162 138.106 8.97977C137.566 8.85729 137.026 8.79606 136.486 8.81137C136.021 8.79606 135.556 8.88791 135.136 9.10224C134.806 9.27065 134.596 9.62276 134.611 9.99019C134.611 10.1739 134.641 10.3576 134.716 10.526C134.791 10.6944 134.911 10.8475 135.061 10.9547C135.271 11.1078 135.481 11.2456 135.721 11.3527C136.051 11.5058 136.381 11.6436 136.711 11.7508C137.281 11.9651 137.821 12.1947 138.361 12.4703C138.766 12.6846 139.156 12.9449 139.486 13.2817C139.771 13.5726 139.996 13.9247 140.131 14.3074C140.281 14.7514 140.341 15.2107 140.326 15.6853C140.326 16.8335 139.906 17.7061 139.066 18.3032C138.226 18.9002 137.041 19.1911 135.481 19.1911C134.641 19.2217 133.786 19.1299 132.961 18.9308C132.511 18.8084 132.061 18.6706 131.626 18.5022L132.106 16.1752C132.586 16.3742 133.066 16.5273 133.561 16.6651C134.206 16.8488 134.866 16.9253 135.511 16.91Z" fill="#39D192"/>
</g>
<defs>
<clipPath id="clip0_1_5373">
<rect width="141" height="20" fill="white"/>
</clipPath>
</defs>
</svg>
