<svg width="105" height="135" viewBox="0 0 105 135" fill="none" xmlns="http://www.w3.org/2000/svg">
<path d="M33.7007 23.1758C33.4236 24.7187 32.8646 26.7922 31.7483 28.3994C30.7535 29.8326 28.3774 30.4174 25.861 31.0372C23.6018 31.5937 21.2654 32.1695 20.2596 33.3847C18.8209 35.1243 10.0549 75.9254 2.33044 113.529C1.92092 115.524 3.06439 117.477 4.87977 117.882L73.8297 133.27C75.6451 133.675 77.5103 132.394 77.9873 130.414C86.9841 93.0962 96.3964 52.4419 95.8349 50.2513C95.4417 48.7239 93.5718 47.2092 91.763 45.7449C89.7494 44.1142 87.8475 42.5745 87.5563 40.8544C87.2294 38.925 87.605 36.8107 88.0097 35.2963L33.7007 23.1758ZM73.7214 133.755L4.77147 118.367C2.69308 117.903 1.37937 115.689 1.84333 113.429C5.59761 95.1532 17.993 35.3461 19.8769 33.0676C20.9869 31.7258 23.4041 31.1303 25.742 30.5547C28.0579 29.9839 30.4524 29.3945 31.3397 28.1167C32.4668 26.4925 33.0033 24.3488 33.255 22.8354L33.298 22.5765L88.6295 34.9251L88.5578 35.1776C88.1422 36.6544 87.7163 38.8228 88.0464 40.7722C88.3063 42.3061 90.2229 43.8576 92.0759 45.3588C93.9472 46.8738 95.8819 48.4405 96.3165 50.127C97.0531 52.9899 82.8432 112.393 78.4707 130.531C77.9301 132.773 75.7998 134.219 73.7214 133.755Z" fill="#1A2E35"/>
<path d="M36.2034 12.9574L90.4882 25.0724L92.2529 17.165C92.3835 16.5798 92.0133 15.9969 91.4276 15.8662L39.2674 4.22528C38.6817 4.09456 38.0988 4.46475 37.9682 5.04998L36.2034 12.9574ZM90.8651 25.666L35.6099 13.3344L37.4829 4.94168C37.6733 4.08858 38.5221 3.54952 39.3757 3.74002L91.5359 15.3809C92.3895 15.5714 92.9286 16.4202 92.7382 17.2733L90.8651 25.666Z" fill="#1A2E35"/>
<path d="M34.1395 13.0062C33.5999 12.8857 33.0628 13.2264 32.9424 13.766L31.3047 21.1042C31.1843 21.6438 31.5254 22.181 32.065 22.3014L90.5866 35.362C91.1262 35.4825 91.6634 35.1413 91.7839 34.6017L93.4216 27.2635C93.542 26.7239 93.2007 26.1872 92.6611 26.0668L34.1395 13.0062ZM90.4783 35.8473L31.9567 22.7867C31.1492 22.6065 30.6393 21.8029 30.8194 20.9959L32.4571 13.6577C32.6372 12.8507 33.4403 12.3407 34.2478 12.5209L92.7694 25.5815C93.5769 25.7617 94.0869 26.5648 93.9068 27.3718L92.2691 34.71C92.089 35.517 91.2858 36.0275 90.4783 35.8473Z" fill="#1A2E35"/>
<path d="M83.2846 89.3562L82.8002 89.244C82.8002 89.244 83.2829 87.1565 84.0061 84.0097L84.4908 84.1204C83.7673 87.2687 83.2846 89.3562 83.2846 89.3562Z" fill="#1A2E35"/>
<path d="M85.0711 81.5901L84.5865 81.4789C86.7037 72.2431 90.2815 56.5175 90.4511 54.968C90.6224 53.4015 88.4918 51.1832 86.2361 48.8341C85.6871 48.2628 85.1245 47.6767 84.5736 47.08L84.9388 46.7422C85.4877 47.3369 86.0482 47.9205 86.5947 48.4898C89.0349 51.0303 91.1418 53.2245 90.9456 55.0213C90.7818 56.5176 87.6606 70.2951 85.0711 81.5901Z" fill="#1A2E35"/>
<path d="M82.7376 44.6565C81.2072 41.566 82.0406 37.8136 82.3126 36.7958L48.6065 29.2734L48.7148 28.7882L82.9416 36.4268L82.8611 36.6844C82.8478 36.7283 81.5223 41.0831 83.1833 44.4355L82.7376 44.6565Z" fill="#1A2E35"/>
<path d="M45.7366 28.633L38.3921 26.9939L38.5004 26.5086L45.8449 28.1477L45.7366 28.633Z" fill="#1A2E35"/>
<path d="M32.5358 21.2083L32.5901 20.7141L91.9217 27.2212L91.8674 27.7154L32.5358 21.2083Z" fill="#1A2E35"/>
<path d="M65.0655 27.9353L65.1072 27.4403L91.8945 29.6971L91.8523 30.1921L65.0655 27.9353Z" fill="#1A2E35"/>
<path d="M21.2558 82.1814L25.7409 107.928C25.7409 107.928 39.8617 111.268 52.7321 108.266C65.6026 105.264 78.6361 95.6857 81.5154 92.0129C84.3944 88.3394 86.5697 85.5431 86.5697 85.5431L70.2276 61.0886C70.2276 61.0886 42.4723 85.3086 21.2558 82.1814Z" fill="#5AE4A7"/>
<path d="M21.5593 82.4749L25.9571 107.722C27.5508 108.073 40.7399 110.808 52.6757 108.024C65.5727 105.016 78.5996 95.3297 81.3196 91.8592C83.8188 88.6711 85.7874 86.1435 86.2631 85.5318L70.1766 61.4594C67.552 63.6847 41.6176 85.1465 21.5593 82.4749ZM25.7901 108.194C25.7261 108.18 25.6903 108.171 25.6835 108.17L25.5238 108.132L20.9523 81.885L21.2921 81.9353C42.1545 85.01 69.7877 61.1428 70.0642 60.9014L70.2773 60.7156L86.876 85.5545L86.766 85.696C86.766 85.696 84.5907 88.4923 81.7113 92.1657C78.5874 96.1512 65.5471 105.532 52.7889 108.508C40.596 111.353 27.1241 108.492 25.7901 108.194Z" fill="#1A2E35"/>
<path d="M25.0385 88.1149L27.7775 103.154C27.7775 103.154 29.19 102.862 30.3048 104.254L31.4191 105.646C31.4191 105.646 40.6579 107.115 50.8007 106.148C60.9429 105.181 75.5237 94.444 78.2169 92.0185C78.2169 92.0185 78.7438 89.2786 79.275 87.8455C79.8069 86.4119 82.5902 84.1828 82.5902 84.1828L71.2712 66.777C71.2712 66.777 70.129 67.6582 68.5524 67.0735L66.9753 66.4887C66.9753 66.4887 59.5065 74.3178 49.787 78.5405C40.0681 82.7634 29.7128 84.3042 29.7128 84.3042C29.7128 84.3042 28.1343 88.1216 25.0385 88.1149Z" fill="white"/>
<path d="M28.7261 102.948C29.2556 103.066 29.9148 103.37 30.4988 104.099L31.5527 105.415C32.555 105.564 41.3268 106.802 50.7773 105.901C60.4882 104.974 74.8438 94.687 77.9889 91.8891C78.0827 91.4118 78.5554 89.0721 79.0425 87.7594C79.5186 86.4754 81.6299 84.6552 82.2607 84.1317L71.1973 67.1192C70.7648 67.363 69.7494 67.7839 68.4662 67.3064L67.041 66.778C66.0571 67.7765 58.8909 74.8569 49.8863 78.769C40.8482 82.696 31.1439 84.3281 29.8857 84.5287C29.5795 85.2 28.0775 88.1568 25.3347 88.3532L27.9807 102.882C28.16 102.873 28.4214 102.88 28.7261 102.948ZM31.2856 105.876L30.1106 104.41C29.1031 103.151 27.8405 103.394 27.828 103.397L27.5787 103.449L24.7404 87.866L25.0393 87.8665C27.9296 87.8721 29.4685 84.2456 29.4832 84.2091L29.5373 84.0785L29.6764 84.0581C29.7801 84.0431 40.1128 82.4733 49.688 78.3126C59.2473 74.1596 66.7214 66.3954 66.7959 66.3173L66.9089 66.1988L68.6389 66.8406C70.0707 67.3711 71.1093 66.5886 71.1199 66.5803L71.3328 66.4159L82.9216 84.2359L82.746 84.377C82.7187 84.3989 80.0099 86.5795 79.5089 87.9318C78.9907 89.3292 78.4665 92.0385 78.4614 92.0659L78.4457 92.148L78.3834 92.2034C76.5005 93.8993 61.5636 105.371 50.8242 106.396C40.7668 107.355 31.473 105.906 31.3801 105.891L31.2856 105.876Z" fill="#1A2E35"/>
<path d="M62.6236 84.7882C64.342 87.2441 62.5384 91.4724 58.595 94.2312C54.6516 96.9905 50.0612 97.2366 48.3429 94.7802C46.6245 92.3243 48.428 88.0966 52.3714 85.3372C56.3154 82.578 60.9052 82.3323 62.6236 84.7882Z" fill="#5AE4A7"/>
<path d="M60.0969 83.4803C58.001 83.0125 55.1149 83.721 52.5142 85.5405C50.6444 86.8492 49.2054 88.5286 48.4627 90.2701C47.7365 91.9716 47.7663 93.5228 48.5465 94.6379C49.3267 95.7529 50.773 96.3121 52.6208 96.2135C54.5116 96.1118 56.5824 95.336 58.4521 94.0278C60.3219 92.7192 61.7609 91.0398 62.5036 89.2982C63.2298 87.5967 63.1995 86.0454 62.4198 84.9304C61.8956 84.1817 61.0839 83.7005 60.0969 83.4803ZM50.7507 96.5695C49.622 96.3176 48.723 95.7578 48.139 94.9229C47.2569 93.6618 47.2095 91.9406 48.005 90.0748C48.7844 88.2487 50.2845 86.4943 52.2292 85.133C56.2788 82.2996 61.0326 82.0818 62.8273 84.6454C63.7094 85.9065 63.7567 87.6277 62.9608 89.4935C62.1819 91.3197 60.6818 93.0741 58.7371 94.4353C56.7922 95.7955 54.6297 96.6033 52.6477 96.7096C51.9628 96.7468 51.3267 96.698 50.7507 96.5695Z" fill="#1A2E35"/>
<path d="M30.7529 75.2065L14.9468 96.0188C14.9468 96.0188 22.1137 108.637 33.0744 116.02C44.035 123.405 59.924 126.43 64.5749 126.039C69.2252 125.648 72.7541 125.337 72.7541 125.337L79.5419 96.7188C79.5419 96.7188 42.906 92.8763 30.7529 75.2065Z" fill="#5AE4A7"/>
<path d="M15.2457 96.0375C16.0731 97.4433 23.0482 108.967 33.2136 115.814C44.1956 123.212 60.1593 126.161 64.5542 125.791C68.5908 125.452 71.7821 125.172 72.5537 125.105L79.2355 96.9341C75.8196 96.5263 42.443 92.1407 30.7447 75.6284L15.2457 96.0375ZM54.7399 125.113C48.0141 123.612 39.5656 120.693 32.9356 116.227C22.0524 108.895 14.803 96.2683 14.7312 96.1422L14.65 95.9993L30.7628 74.7827L30.9579 75.0657C42.9064 92.4382 79.2034 96.4343 79.5681 96.4713L79.8493 96.501L72.9551 125.568L72.7763 125.584C72.7763 125.584 69.2469 125.895 64.5959 126.287C62.6287 126.452 59.0359 126.072 54.7399 125.113Z" fill="#1A2E35"/>
<path d="M28.982 82.0167L19.8304 94.2614C19.8304 94.2614 21.006 95.0974 20.7453 96.8615L20.4847 98.6251C20.4847 98.6251 25.6978 106.393 33.3111 113.164C40.9246 119.934 58.7147 123.306 62.3252 123.627C62.3252 123.627 64.6905 122.148 66.1025 121.562C67.5142 120.975 71.0418 121.496 71.0418 121.496L76.0859 101.356C76.0859 101.356 74.6629 101.119 74.0181 99.5661L73.3729 98.0125C73.3729 98.0125 62.5529 97.8713 52.8433 93.6269C43.1337 89.3825 34.9554 82.8465 34.9554 82.8465C34.9554 82.8465 31.0847 84.2889 28.982 82.0167Z" fill="white"/>
<path d="M20.7444 98.5656C21.3174 99.4016 26.3822 106.67 33.4763 112.978C40.7671 119.462 58.0742 122.972 62.2649 123.372C62.6781 123.116 64.7133 121.869 66.007 121.332C67.271 120.806 70.0424 121.114 70.8548 121.22L75.7846 101.534C75.3113 101.384 74.3139 100.927 73.7884 99.6612L73.2051 98.2575C71.8038 98.2158 61.7393 97.7868 52.7439 93.8551C43.7143 89.9076 35.9123 83.9111 34.9086 83.1262C34.2083 83.3586 31.0193 84.271 29.0093 82.396L20.168 94.225C20.5199 94.5679 21.2063 95.4414 20.9908 96.8977L20.7444 98.5656ZM55.3727 122.63C48.5261 121.102 38.5102 118.12 33.1457 113.35C25.5961 106.636 20.3302 98.842 20.2778 98.7641L20.2243 98.6844L20.4991 96.8251C20.733 95.2431 19.7284 94.4941 19.6854 94.4631L19.4815 94.3153L19.6313 94.1123L28.9616 81.6283L29.1648 81.8479C31.131 83.9739 34.8314 82.6275 34.8686 82.6139L35.0008 82.565L35.1111 82.6528C35.1924 82.7178 43.3763 89.2173 52.9429 93.3992C62.4914 97.5736 73.2686 97.7627 73.3758 97.7642L73.5393 97.7666L74.2472 99.4702C74.8331 100.881 76.1133 101.109 76.1268 101.11L76.3926 101.154L71.2286 121.775L71.0056 121.743C70.9711 121.738 67.5299 121.237 66.1979 121.791C64.8213 122.363 62.4804 123.823 62.4568 123.838L62.3859 123.882L62.3033 123.875C61.4588 123.799 58.8162 123.398 55.3727 122.63Z" fill="#1A2E35"/>
<path d="M57.0052 107.283C56.376 110.214 52.0515 111.77 47.3455 110.76C42.6396 109.75 39.3352 106.555 39.9643 103.625C40.5934 100.694 44.9181 99.1367 49.6239 100.147C54.3294 101.157 57.6343 104.352 57.0052 107.283Z" fill="#5AE4A7"/>
<path d="M49.6825 100.414C49.6456 100.406 49.6087 100.398 49.5717 100.39C45.0077 99.4105 40.807 100.885 40.2073 103.677C39.6127 106.446 42.7817 109.488 47.2869 110.493C47.3238 110.501 47.3607 110.51 47.3977 110.517C49.629 110.996 51.8387 110.906 53.6202 110.265C55.3612 109.638 56.4769 108.561 56.7621 107.23C57.3567 104.461 54.1882 101.42 49.6825 100.414ZM47.1801 110.979C42.408 109.914 39.0696 106.609 39.7212 103.572C40.378 100.513 44.8438 98.8666 49.6762 99.9038C49.7141 99.9117 49.752 99.9202 49.7893 99.9285C54.5614 100.994 57.8999 104.298 57.2483 107.334C56.9257 108.839 55.6965 110.046 53.7887 110.733C51.9209 111.405 49.6141 111.501 47.2932 111.003C47.2558 110.996 47.2174 110.987 47.1801 110.979Z" fill="#1A2E35"/>
<path d="M52.1522 43.4207L27.248 51.3434C27.248 51.3434 25.8463 65.7869 30.5603 78.1331C35.2735 90.4802 46.5253 102.099 50.5538 104.456C54.5822 106.813 57.6473 108.589 57.6473 108.589L79.6687 89.0929C79.6687 89.0929 51.9206 64.8652 52.1522 43.4207Z" fill="#5AE4A7"/>
<path d="M27.4817 51.5302C27.3489 53.1567 26.4213 66.5944 30.7921 78.0449C35.5157 90.4167 46.873 102.015 50.6793 104.242C54.176 106.287 56.9466 107.895 57.6168 108.284L79.2946 89.0926C76.7354 86.7929 51.9655 63.9966 51.9022 43.7614L27.4817 51.5302ZM57.6778 108.894L57.5226 108.805C57.5226 108.805 54.4576 107.027 50.4286 104.671C46.0573 102.114 35.0004 90.4612 30.3279 78.2215C25.6478 65.9628 26.9863 51.465 27.0008 51.32L27.0163 51.1568L52.4043 43.0798L52.4008 43.4239C52.1729 64.51 79.5557 88.6644 79.8324 88.906L80.0451 89.092L57.6778 108.894Z" fill="#1A2E35"/>
<path d="M46.7841 47.9708L32.2529 52.7168C32.2529 52.7168 32.7328 54.0771 31.5045 55.3695L30.2762 56.6619C30.2762 56.6619 30.0687 66.0146 32.3977 75.9335C34.7271 85.8525 47.335 98.8483 50.1021 101.189C50.1021 101.189 52.8879 101.341 54.3801 101.674C55.8723 102.007 58.4571 104.464 58.4571 104.464L74.1735 90.8963C74.1735 90.8963 73.1463 89.8835 73.5125 88.2424L73.8789 86.6007C73.8789 86.6007 65.1122 80.2585 59.6148 71.199C54.1174 62.1395 51.1915 52.0875 51.1915 52.0875C51.1915 52.0875 47.1957 51.0388 46.7841 47.9708Z" fill="white"/>
<path d="M54.4345 101.431C55.7705 101.729 57.8597 103.576 58.4632 104.129L73.8247 90.8694C73.5244 90.4733 72.9718 89.5252 73.2703 88.1878L73.6014 86.7043C72.4787 85.8639 64.4954 79.7209 59.4025 71.3279C54.2902 62.903 51.3613 53.508 50.9925 52.2891C50.2856 52.0758 47.153 50.9875 46.5881 48.2959L32.5497 52.8813C32.6406 53.3642 32.699 54.4741 31.6846 55.5406L30.5234 56.7629C30.5108 57.7759 30.4701 66.6346 32.6399 75.8765C34.8702 85.375 47.0025 98.2076 50.2001 100.945C50.6852 100.974 53.0675 101.126 54.4345 101.431ZM58.4492 104.799L58.2858 104.643C58.2606 104.619 55.734 102.231 54.3262 101.917C52.8709 101.592 50.1165 101.439 50.0888 101.437L50.0058 101.432L49.9418 101.379C48.0074 99.7427 34.622 86.4938 32.1561 75.9901C29.8462 66.1545 30.026 56.7502 30.0276 56.6563L30.0297 56.56L31.3244 55.1984C32.4263 54.0388 32.0354 52.8481 32.0185 52.7985L31.9367 52.5601L32.176 52.4806L46.9914 47.6416L47.0308 47.9373C47.4154 50.8021 51.2162 51.8367 51.2552 51.847L51.3909 51.8824L51.4301 52.0174C51.4595 52.1183 54.4115 62.1446 59.828 71.0693C65.2344 79.9796 73.9377 86.3362 74.025 86.3995L74.1574 86.4953L73.7555 88.2961C73.4255 89.7752 74.3112 90.682 74.3486 90.7199L74.5377 90.9088L74.3361 91.0844L58.4492 104.799Z" fill="#1A2E35"/>
<path d="M55.1594 84.7612C52.9579 86.7957 48.5252 85.5797 45.2583 82.0457C41.9915 78.5111 41.1279 73.9964 43.3293 71.9619C45.5303 69.9273 49.9631 71.1428 53.2299 74.6773C56.4967 78.2118 57.3608 82.7267 55.1594 84.7612Z" fill="#5AE4A7"/>
<path d="M47.4563 71.3779C45.8884 71.028 44.4623 71.2528 43.4977 72.144C41.4007 74.0826 42.2726 78.4484 45.4408 81.8769C48.6095 85.3055 52.8929 86.5172 54.9903 84.5787C55.9897 83.655 56.3484 82.1456 56.0011 80.3283C55.6453 78.469 54.5963 76.5221 53.0473 74.8458C51.3357 72.9941 49.2984 71.789 47.4563 71.3779ZM50.9191 85.8153C48.9727 85.3809 46.8504 84.1345 45.0756 82.2142C41.7215 78.5847 40.862 73.9033 43.1603 71.7793C45.4587 69.6549 50.0578 70.879 53.4124 74.5085C55.0234 76.2517 56.1161 78.2857 56.4895 80.2351C56.8702 82.2274 56.4578 83.8995 55.3281 84.9439C54.2454 85.9443 52.6519 86.202 50.9191 85.8153Z" fill="#1A2E35"/>
<path d="M41.2371 52.8477L16.333 60.7704C16.333 60.7704 14.9314 75.2134 19.6452 87.5601C24.3586 99.9067 35.6103 111.527 39.6387 113.883C43.6672 116.24 46.7322 118.016 46.7322 118.016L68.7537 98.5199C68.7537 98.5199 41.0056 74.2922 41.2371 52.8477Z" fill="#5AE4A7"/>
<path d="M16.5667 60.9568C16.434 62.5834 15.5063 76.0216 19.8771 87.472C24.6007 99.8438 35.9581 111.442 39.7644 113.668C43.261 115.714 46.0316 117.322 46.7018 117.711L68.3796 98.5197C65.8204 96.2201 41.0506 73.4232 40.9872 53.188L16.5667 60.9568ZM46.7628 118.322L46.6075 118.232C46.6075 118.232 43.5425 116.455 39.5136 114.098C35.1423 111.541 24.0854 99.8883 19.4128 87.6486C14.7328 75.3899 16.0713 60.8916 16.0859 60.7466L16.1014 60.5835L41.4893 52.5064L41.4859 52.8505C41.2581 73.9336 68.6407 98.0915 68.9174 98.3331L69.1301 98.5191L46.7628 118.322Z" fill="#1A2E35"/>
<path d="M35.8691 57.3977L21.3379 62.1437C21.3379 62.1437 21.8178 63.504 20.5895 64.7964L19.3611 66.0887C19.3611 66.0887 19.1536 75.4415 21.4826 85.3604C23.8121 95.2793 36.42 108.275 39.1871 110.616C39.1871 110.616 41.9729 110.768 43.4651 111.101C44.9573 111.434 47.542 113.89 47.542 113.89L63.2584 100.323C63.2584 100.323 62.2312 99.3104 62.5975 97.6692L62.9639 96.0276C62.9639 96.0276 54.1973 89.6849 48.6998 80.6259C43.2024 71.5664 40.2765 61.5144 40.2765 61.5144C40.2765 61.5144 36.2807 60.4657 35.8691 57.3977Z" fill="white"/>
<path d="M43.5195 110.858C44.8554 111.156 46.9447 113.003 47.5482 113.556L62.9097 100.296C62.6093 99.9 62.0567 98.9524 62.3551 97.615L62.6863 96.1311C61.5636 95.2906 53.5803 89.1477 48.4874 80.7546C43.3751 72.3298 40.4463 62.9347 40.0774 61.7159C39.3707 61.5021 36.2379 60.4143 35.6734 57.7233L21.6346 62.3081C21.7255 62.791 21.784 63.9008 20.7696 64.9674L19.6084 66.1897C19.5957 67.2027 19.5546 76.0612 21.7249 85.3033C23.9551 94.8017 36.0875 107.634 39.285 110.372C39.7702 110.401 42.1525 110.553 43.5195 110.858ZM47.5342 114.226L47.3708 114.07C47.3455 114.046 44.819 111.657 43.4112 111.343C41.9559 111.019 39.2014 110.865 39.1738 110.864L39.0908 110.859L39.0268 110.805C37.0923 109.169 23.7071 95.9201 21.2405 85.4168C18.9313 75.5808 19.1109 66.177 19.1125 66.0831L19.1147 65.9868L20.4094 64.6251C21.5113 63.4655 21.1204 62.2748 21.1035 62.2247L21.0216 61.9869L21.261 61.9073L36.0762 57.0689L36.1157 57.3645C36.5004 60.2288 40.3012 61.2635 40.3401 61.2737L40.4759 61.3091L40.515 61.4442C40.5445 61.545 43.4965 71.5713 48.9128 80.4966C54.3194 89.4063 63.0227 95.763 63.1099 95.8262L63.2424 95.922L62.8404 97.7233C62.5104 99.2019 63.3962 100.109 63.4336 100.147L63.6227 100.336L63.421 100.511L47.5342 114.226Z" fill="#1A2E35"/>
<path d="M44.2443 94.1881C42.0429 96.2226 37.6102 95.0066 34.3433 91.4726C31.0765 87.938 30.2129 83.4232 32.4143 81.3888C34.6152 79.3542 39.0481 80.5697 42.3149 84.1042C45.5817 87.6387 46.4457 92.1536 44.2443 94.1881Z" fill="#5AE4A7"/>
<path d="M36.541 80.8046C34.9731 80.4547 33.5473 80.6801 32.5828 81.5708C31.584 82.4946 31.2247 84.0039 31.5726 85.8212C31.9283 87.6811 32.9773 89.6279 34.5264 91.3038C37.6946 94.7323 41.978 95.9439 44.0755 94.0055C45.0748 93.0818 45.4336 91.5724 45.0861 89.7556C44.7303 87.8963 43.6813 85.9494 42.1323 84.2731C40.4207 82.4214 38.383 81.2157 36.541 80.8046ZM40.0042 95.2421C38.0578 94.8077 35.9355 93.5613 34.1608 91.6409C32.5497 89.8983 31.4574 87.8644 31.084 85.915C30.7029 83.9226 31.1153 82.2504 32.2455 81.2061C34.5436 79.0807 39.1427 80.3068 42.4974 83.9358C44.1084 85.679 45.2013 87.7125 45.5746 89.6624C45.9553 91.6542 45.5429 93.3263 44.4132 94.3707C43.3306 95.3711 41.7371 95.6288 40.0042 95.2421Z" fill="#1A2E35"/>
<path d="M6.98236 92.8198L11.4674 118.566C11.4674 118.566 25.5883 121.907 38.4587 118.905C51.3291 115.903 64.3626 106.324 67.242 102.651C70.1214 98.978 72.2962 96.1816 72.2962 96.1816L55.9541 71.727C55.9541 71.727 28.1988 95.947 6.98236 92.8198Z" fill="#5AE4A7"/>
<path d="M7.2854 93.1132L11.6832 118.36C13.2768 118.711 26.4665 121.446 38.4019 118.662C51.2987 115.654 64.3256 105.968 67.0462 102.498C69.5452 99.31 71.5134 96.7818 71.9892 96.1702L55.9031 72.0978C53.2786 74.3232 27.3437 95.7848 7.2854 93.1132ZM11.5162 118.832C11.4521 118.818 11.4163 118.81 11.41 118.808L11.2503 118.77L6.67836 92.5234L7.01813 92.5737C27.8775 95.6482 55.5138 71.7812 55.7908 71.5399L56.0039 71.3541L72.6016 96.1928L72.4921 96.3344C72.4921 96.3344 70.3167 99.1312 67.4372 102.805C64.3135 106.79 51.2731 116.17 38.5149 119.147C26.3221 121.991 12.8507 119.13 11.5162 118.832Z" fill="#1A2E35"/>
<path d="M10.7649 98.7532L13.504 113.792C13.504 113.792 14.9165 113.501 16.0312 114.893L17.1456 116.284C17.1456 116.284 26.3844 117.753 36.5271 116.786C46.6693 115.819 61.2502 105.082 63.9433 102.657C63.9433 102.657 64.4702 99.9169 65.0015 98.4838C65.5334 97.0502 68.3167 94.8211 68.3167 94.8211L56.9976 77.4154C56.9976 77.4154 55.8555 78.2965 54.2788 77.7118L52.7017 77.127C52.7017 77.127 45.233 84.9561 35.5135 89.1788C25.7945 93.4017 15.4392 94.9425 15.4392 94.9425C15.4392 94.9425 13.8608 98.7599 10.7649 98.7532Z" fill="white"/>
<path d="M14.4522 113.586C14.9812 113.704 15.6409 114.008 16.2249 114.737L17.2787 116.053C18.2801 116.202 27.0524 117.44 36.5034 116.539C46.2157 115.612 60.5699 105.325 63.715 102.527C63.8088 102.05 64.2814 99.7108 64.7681 98.3976C65.2441 97.1136 67.3564 95.2936 67.9868 94.77L56.9233 77.7575C56.4903 78.0017 55.4761 78.4238 54.1922 77.9447L52.7666 77.4162C51.7827 78.4147 44.6165 85.4951 35.6123 89.4073C26.5742 93.3343 16.8695 94.9663 15.6118 95.167C15.305 95.8382 13.8039 98.7957 11.0607 98.9915L13.7068 113.521C13.886 113.512 14.148 113.518 14.4522 113.586ZM17.0117 116.515L15.8367 115.048C14.8372 113.799 13.6049 114.025 13.553 114.036L13.3053 114.085L13.2592 113.837L10.4665 98.5043L10.7654 98.5048C13.656 98.511 15.1941 94.8838 15.2093 94.8474L15.2633 94.7173L15.4025 94.6964C15.5057 94.6813 25.8384 93.1115 35.4141 88.9509C44.9768 84.7961 52.4475 77.0337 52.522 76.9556L52.635 76.8371L54.365 77.479C55.789 78.0056 56.8037 77.2504 56.8461 77.2181L57.059 77.0562L57.2057 77.28L68.6477 94.8742L68.4721 95.0153C68.4446 95.0377 65.7359 97.2178 65.2345 98.57C64.7162 99.9678 64.1921 102.677 64.187 102.704L64.1712 102.786L64.1094 102.842C62.2267 104.537 47.2907 116.009 36.5503 117.034C26.4924 117.993 17.1991 116.545 17.1066 116.53L17.0117 116.515Z" fill="#1A2E35"/>
<path d="M48.3496 95.4266C50.068 97.8825 48.2644 102.111 44.3211 104.87C40.3776 107.629 35.7872 107.875 34.0689 105.419C32.3506 102.963 34.154 98.735 38.098 95.9758C42.0414 93.2164 46.6312 92.9708 48.3496 95.4266Z" fill="#5AE4A7"/>
<path d="M45.8309 94.1224C45.2996 94.0038 44.7093 93.9597 44.0714 93.9941C42.1808 94.0948 40.1099 94.8711 38.2408 96.1794C34.4157 98.8556 32.6358 102.937 34.2727 105.276C35.0529 106.391 36.4995 106.952 38.3475 106.852C40.2382 106.751 42.3091 105.974 44.1788 104.666C46.0485 103.358 47.4875 101.679 48.2303 99.9366C48.9564 98.2352 48.9261 96.6843 48.1459 95.5692C47.6353 94.8394 46.8388 94.3473 45.8309 94.1224ZM36.4774 107.208C35.3486 106.957 34.4496 106.396 33.8657 105.561C32.0712 102.997 33.9061 98.6054 37.9551 95.7723C39.9003 94.4112 42.0628 93.6034 44.0447 93.4975C46.071 93.3889 47.6716 94.0237 48.5533 95.2842C49.4356 96.5448 49.4834 98.2662 48.6875 100.132C47.9085 101.958 46.4085 103.713 44.4638 105.074C42.5188 106.434 40.3562 107.242 38.3737 107.348C37.6895 107.385 37.0534 107.336 36.4774 107.208Z" fill="#1A2E35"/>
<path d="M19.3442 73.0347L7.22048 96.1864C7.22048 96.1864 16.3865 107.437 28.4225 112.894C40.459 118.352 56.6299 118.693 61.1506 117.533C65.6713 116.374 69.0995 115.48 69.0995 115.48L71.0318 86.1316C71.0318 86.1316 34.2674 88.4368 19.3442 73.0347Z" fill="#5AE4A7"/>
<path d="M7.51753 96.1544C8.56737 97.4035 17.3625 107.606 28.525 112.668C40.5846 118.134 56.8167 118.387 61.0887 117.292C65.0124 116.286 68.1133 115.48 68.863 115.284L70.7654 86.3941C67.3292 86.561 33.6879 87.7879 19.4059 73.4525L7.51753 96.1544ZM38.9617 116.576C35.314 115.762 31.6565 114.633 28.3196 113.12C16.3687 107.702 7.11953 96.4563 7.02763 96.3431L6.92404 96.2161L19.2832 72.6146L19.5225 72.8616C24.897 78.4086 33.1977 81.6432 41.5724 83.5127C56.0627 86.7476 70.784 85.8975 71.016 85.883L71.2982 85.865L69.3352 115.675L69.1621 115.72C69.1621 115.72 65.7333 116.614 61.212 117.774C57.6786 118.68 48.3575 118.673 38.9617 116.576Z" fill="#1A2E35"/>
<path d="M18.7306 80.0447L11.7436 93.6411C11.7436 93.6411 13.0413 94.27 13.0779 96.053L13.1142 97.8355C13.1142 97.8355 19.547 104.628 28.1805 110.038C36.8144 115.448 54.9172 115.813 58.5308 115.529C58.5308 115.529 60.6172 113.677 61.9122 112.864C63.2069 112.05 66.7718 111.978 66.7718 111.978L68.3953 91.2789C68.3953 91.2789 66.9529 91.282 66.0583 89.8577L65.1637 88.4334C65.1637 88.4334 54.4714 90.0941 44.1909 87.5241C33.9105 84.9537 24.7592 79.8695 24.7592 79.8695C24.7592 79.8695 21.182 81.9352 18.7306 80.0447Z" fill="white"/>
<path d="M13.3607 97.7332C14.0646 98.4619 20.2678 104.786 28.3126 109.827C36.5783 115.006 54.2297 115.59 58.4284 115.287C58.7935 114.966 60.5937 113.398 61.7795 112.653C62.9388 111.925 65.7225 111.767 66.5415 111.736L68.1279 91.5046C67.6367 91.4342 66.5766 91.1513 65.8474 89.99L65.0388 88.7031C63.6501 88.895 53.6562 90.1425 44.1305 87.7654C34.5705 85.3751 25.879 80.7593 24.7587 80.1527C24.1064 80.4982 21.1145 81.9294 18.82 80.4137L12.0697 93.5494C12.474 93.8286 13.2961 94.576 13.3263 96.0474L13.3607 97.7332ZM38.0747 113.98C34.3309 113.144 30.7636 111.949 28.0483 110.249C19.4869 104.884 12.9982 98.0746 12.9334 98.0066L12.8675 97.9364L12.8289 96.0576C12.7963 94.4594 11.6808 93.888 11.6337 93.8642L11.408 93.7522L11.5219 93.5275L18.6456 79.6657L18.8821 79.8478C21.1754 81.6179 24.6001 79.6741 24.6342 79.6537L24.7563 79.5836L24.8791 79.6518C24.9707 79.7028 34.1225 84.7504 44.2509 87.2829C54.3541 89.8117 65.0191 88.205 65.1253 88.188L65.2872 88.163L66.2686 89.7259C67.0746 91.0082 68.3418 91.0302 68.3953 91.0299L68.6629 91.0316L68.6427 91.2981L67.0018 112.221L66.777 112.226C66.7423 112.226 63.2653 112.307 62.0441 113.074C60.782 113.867 58.7161 115.696 58.6956 115.715L58.6334 115.77L58.55 115.776C56.774 115.916 46.9367 115.957 38.0747 113.98Z" fill="#1A2E35"/>
<path d="M50.5666 100.297C50.4337 103.291 46.4281 105.546 41.6198 105.333C36.8119 105.12 33.0214 102.519 33.1542 99.5246C33.2872 96.5297 37.2927 94.2753 42.101 94.4885C46.9094 94.7017 50.6994 97.3025 50.5666 100.297Z" fill="#5AE4A7"/>
<path d="M44.4292 95.0439C43.6892 94.8787 42.9048 94.7729 42.0902 94.7368C37.426 94.5303 33.5294 96.6827 33.4027 99.5353C33.3423 100.895 34.1494 102.22 35.675 103.267C37.2362 104.338 39.3515 104.983 41.631 105.085C43.9106 105.186 46.075 104.73 47.7245 103.801C49.3367 102.894 50.2577 101.645 50.3181 100.286C50.4227 97.9317 47.9261 95.8243 44.4292 95.0439ZM39.1822 105.263C37.7535 104.944 36.4538 104.404 35.3935 103.677C33.7213 102.529 32.8378 101.051 32.9063 99.5131C33.0447 96.387 37.1743 94.0213 42.1118 94.2404C47.0496 94.458 50.9538 97.1816 50.8149 100.308C50.747 101.845 49.7357 103.24 47.9687 104.234C46.2389 105.208 43.9802 105.687 41.6094 105.581C40.7735 105.544 39.9591 105.436 39.1822 105.263Z" fill="#1A2E35"/>
<path d="M54.8548 49.0676C54.8548 49.0676 46.7615 63.2969 43.8847 65.6483C41.0083 67.9998 32.3163 68.6255 30.9341 70.0277C29.5524 71.4295 17.9714 87.8738 17.9714 87.8738L42.4896 106.388C42.4896 106.388 53.0324 86.9327 55.3873 85.9616C57.7421 84.9904 65.3702 84.3407 67.0467 82.5768C68.7231 80.8128 78.3114 65.6344 79.6496 62.5122L80.9877 59.39L54.8548 49.0676Z" fill="#5AE4A7"/>
<path d="M18.3132 87.8204L42.4089 106.016C43.7123 103.623 53.0051 86.6751 55.2921 85.7316C56.1932 85.3601 57.844 85.0347 59.5924 84.6902C62.3893 84.1397 65.8698 83.4544 66.8664 82.4063C68.6302 80.5497 78.1342 65.4157 79.4211 62.414L80.6583 59.527L54.9635 49.3778C53.9572 51.1385 46.775 63.6072 44.0422 65.8405C42.3991 67.1834 39.0074 67.9568 36.0148 68.64C33.783 69.1491 31.6747 69.6297 31.1109 70.2018C29.8404 71.4914 19.6286 85.9549 18.3132 87.8204ZM42.5702 106.761L17.6295 87.9276L17.7683 87.7303C18.2412 87.0585 29.3764 71.2538 30.7573 69.8528C31.4225 69.1776 33.4 68.7263 35.904 68.1552C38.8438 67.4848 42.1749 66.7248 43.7272 65.4558C46.5354 63.1605 54.5578 49.0865 54.6384 48.9445L54.7455 48.757L81.3172 59.2522L79.8777 62.6096C78.5828 65.6314 69.0056 80.8765 67.2267 82.748C66.1209 83.9113 62.7037 84.5843 59.6886 85.1789C57.965 85.5176 56.3372 85.838 55.4821 86.1907C53.6169 86.9604 45.6291 101.117 42.7085 106.507L42.5702 106.761Z" fill="#1A2E35"/>
<path d="M58.3032 53.1679C58.3032 53.1679 57.7105 53.7346 56.4526 54.1528C55.1943 54.5709 53.8632 54.2738 53.8632 54.2738C53.8632 54.2738 47.2926 65.9697 45.6143 67.2259C43.9361 68.482 33.7609 70.7543 32.5642 71.419C31.3674 72.0837 22.774 84.4932 22.774 84.4932C22.774 84.4932 23.4019 85.3323 23.2901 86.3558C23.1784 87.3792 22.8197 88.4638 22.8197 88.4638L39.5535 101.167C39.5535 101.167 40.4184 99.3803 42.2678 99.4436L44.1172 99.5069C44.1172 99.5069 52.256 85.4818 53.8848 84.4474C55.5135 83.413 62.7277 82.9267 64.7636 81.6337C66.799 80.3406 75.7533 64.7502 75.7533 64.7502C75.7533 64.7502 74.8549 63.0352 74.9297 61.6545C75.0051 60.2734 75.1289 59.7188 75.1289 59.7188L58.3032 53.1679Z" fill="white"/>
<path d="M23.109 88.3719L39.4786 100.799C39.8132 100.272 40.7155 99.1419 42.2762 99.1957L43.977 99.2534C44.8525 97.7503 52.1567 85.2507 53.7516 84.2378C54.5618 83.7232 56.596 83.3535 58.7502 82.9616C61.0218 82.5485 63.5965 82.0803 64.6299 81.424C66.188 80.4345 72.3624 70.1489 75.4712 64.7422C75.2631 64.3142 74.6146 62.8719 74.6815 61.6408C74.732 60.7137 74.8042 60.1526 74.8481 59.8761L58.3508 53.4535C58.1098 53.6458 57.5145 54.0621 56.5309 54.3882C55.4876 54.7351 54.4138 54.6182 53.9924 54.5502C53.1748 55.9994 47.3768 66.2172 45.7628 67.425C44.7084 68.2147 40.6972 69.3144 37.1581 70.2847C35.0868 70.8525 33.1301 71.3888 32.6847 71.6364C31.8518 72.0995 26.5191 79.527 23.0743 84.4965C23.2609 84.8015 23.6306 85.5279 23.5373 86.3823C23.4486 87.1904 23.2152 88.0216 23.109 88.3719ZM39.6448 101.549L22.5278 88.5544L22.5837 88.3861C22.5871 88.3751 22.9352 87.3132 23.0429 86.3285C23.1422 85.42 22.5801 84.6496 22.5747 84.6417L22.4685 84.4988L22.5696 84.3517C23.4523 83.0765 31.2309 71.8753 32.4435 71.2015C32.9413 70.9249 34.7443 70.4312 37.0267 69.805C40.3498 68.8941 44.4863 67.7601 45.4654 67.0275C46.7591 66.0584 51.3821 58.1817 53.6463 54.1515L53.7366 53.9913L53.9167 54.031C53.9298 54.0339 55.1995 54.3071 56.3743 53.9167C57.555 53.5246 58.126 52.9933 58.1318 52.9879L58.2461 52.8795L58.3934 52.9363L75.4175 59.564L75.3715 59.7723C75.3702 59.7781 75.2505 60.3327 75.1782 61.6681C75.1077 62.9631 75.965 64.6186 75.9736 64.6348L76.0367 64.7558L75.9691 64.8742C75.6018 65.5131 66.9608 80.533 64.8965 81.8436C63.7811 82.552 61.2685 83.0091 58.8387 83.451C56.8268 83.8166 54.7464 84.1949 54.0181 84.6575C52.724 85.4797 46.5877 95.7458 44.3322 99.6317L44.2576 99.7607L42.2596 99.6923C40.5907 99.6352 39.7849 101.26 39.7772 101.276L39.6448 101.549Z" fill="#1A2E35"/>
<path d="M39.8981 73.8413C39.4703 75.7581 42.9693 78.1702 47.7132 79.2289C52.4572 80.2876 56.6497 79.5921 57.0775 77.6753C57.5053 75.7585 54.0063 73.3464 49.2623 72.2877C44.5184 71.2289 40.3259 71.9245 39.8981 73.8413Z" fill="#5AE4A7"/>
<path d="M49.2076 72.5305C44.683 71.5207 40.5307 72.1457 40.1403 73.8951C39.7497 75.645 43.2422 77.9767 47.7668 78.9864C52.2914 79.9962 56.4438 79.3707 56.8344 77.6208C57.2248 75.8714 53.7322 73.5402 49.2076 72.5305ZM47.6585 79.4717C42.7059 78.3664 39.1903 75.8691 39.655 73.7868C40.1196 71.705 44.3633 70.9399 49.3159 72.0452C54.2685 73.1505 57.7842 75.6473 57.3196 77.7291C56.8549 79.8114 52.6111 80.577 47.6585 79.4717Z" fill="#1A2E35"/>
</svg>
