<svg width="11" height="14" viewBox="0 0 11 14" fill="none" xmlns="http://www.w3.org/2000/svg">
<path d="M7.48674 1.47333L6.10674 0.913335C5.56674 0.693335 4.94674 0.953335 4.72674 1.5L4.30674 2.52667C4.08674 3.06667 4.34674 3.68667 4.89341 3.91333L6.42008 4.53333C6.26008 5.3 6.01341 6.2 5.62674 7.17333C5.19341 8.27333 4.69341 9.18 4.24008 9.90667L2.71341 9.28667C2.16674 9.06667 1.54674 9.32667 1.32674 9.87334L0.906743 10.9C0.686743 11.4467 0.946743 12.0667 1.49341 12.2867L2.87341 12.8467L2.90008 12.86C4.38674 13.46 6.10008 12.88 6.87341 11.48C7.39341 10.54 7.90674 9.48667 8.38008 8.30667C8.80674 7.24 9.14008 6.22 9.39341 5.27333C9.81341 3.72 9.00008 2.1 7.51341 1.49333L7.48674 1.47333Z" stroke="white" stroke-opacity="0.6" stroke-width="1.2" stroke-miterlimit="10" stroke-linecap="round" stroke-linejoin="round"/>
</svg>
