<svg width="16" height="18" viewBox="0 0 16 18" fill="none" xmlns="http://www.w3.org/2000/svg">
<path d="M15.7783 12.7398C15.7783 13.0565 15.6033 13.3315 15.3367 13.4732L8.75332 17.1732C8.61999 17.2732 8.45332 17.3232 8.27832 17.3232C8.10332 17.3232 7.93666 17.2732 7.80332 17.1732L1.21999 13.4732C1.08639 13.403 0.974584 13.2975 0.896718 13.1682C0.818852 13.0389 0.777904 12.8908 0.778323 12.7398V5.23983C0.778323 4.92316 0.953323 4.64816 1.21999 4.50649L7.80332 0.806494C7.93666 0.706494 8.10332 0.656494 8.27832 0.656494C8.45332 0.656494 8.61999 0.706494 8.75332 0.806494L15.3367 4.50649C15.6033 4.64816 15.7783 4.92316 15.7783 5.23983V12.7398ZM2.44499 6.48983V11.4898H3.48666V9.82316H4.11166C4.55368 9.82316 4.97761 9.64757 5.29017 9.335C5.60273 9.02244 5.77832 8.59852 5.77832 8.15649C5.77832 7.71447 5.60273 7.29054 5.29017 6.97798C4.97761 6.66542 4.55368 6.48983 4.11166 6.48983H2.44499ZM3.48666 8.98983V7.32316H3.90332C4.12434 7.32316 4.3363 7.41096 4.49258 7.56724C4.64886 7.72352 4.73666 7.93548 4.73666 8.15649C4.73666 8.37751 4.64886 8.58947 4.49258 8.74575C4.3363 8.90203 4.12434 8.98983 3.90332 8.98983H3.48666ZM6.40332 6.48983V11.4898H7.44499V9.82316H8.06999L8.61999 11.4898H9.71999L9.06166 9.49816C9.46999 9.19816 9.73666 8.70649 9.73666 8.15649C9.73666 7.71447 9.56106 7.29054 9.2485 6.97798C8.93594 6.66542 8.51202 6.48983 8.06999 6.48983H6.40332V6.48983ZM7.44499 8.98983V7.32316H7.86166C8.08267 7.32316 8.29463 7.41096 8.45091 7.56724C8.60719 7.72352 8.69499 7.93548 8.69499 8.15649C8.69499 8.37751 8.60719 8.58947 8.45091 8.74575C8.29463 8.90203 8.08267 8.98983 7.86166 8.98983H7.44499ZM12.445 6.48983C11.295 6.48983 10.3617 7.60649 10.3617 8.98983C10.3617 10.3732 11.295 11.4898 12.445 11.4898C13.595 11.4898 14.5283 10.3732 14.5283 8.98983C14.5283 7.60649 13.595 6.48983 12.445 6.48983ZM12.445 7.53149C13.0783 7.53149 13.595 8.18149 13.595 8.98983C13.595 9.79816 13.0783 10.4482 12.445 10.4482C11.8117 10.4482 11.3033 9.79816 11.3033 8.98983C11.3033 8.18149 11.8117 7.53149 12.445 7.53149Z" fill="#39D192"/>
</svg>
