<svg width="125" height="130" viewBox="0 0 125 130" fill="none" xmlns="http://www.w3.org/2000/svg">
<path fill-rule="evenodd" clip-rule="evenodd" d="M65.3688 78.0153C64.8056 78.6478 63.2732 78.8333 62.8021 78.4791C61.7978 77.7362 61.46 76.4827 61.9754 75.3904C62.4174 74.4537 62.7164 73.3969 63.3658 72.6354C64.1044 71.7621 66.0352 69.2398 68.4764 70.1854C68.7395 70.2892 68.9569 70.7006 69.0504 71.013C69.6345 73.0571 66.7867 76.439 65.3688 78.0153ZM66.5219 69.2754C65.8955 69.5086 64.3158 70.0422 63.3528 71.22C62.2352 72.5921 61.9512 73.5976 61.2439 74.78C60.5883 75.8809 60.7049 77.7054 61.4868 78.7231C63.1232 80.8578 66.5265 78.5034 68.4376 75.4297C68.8701 74.731 69.4836 73.7134 69.8454 72.9339C70.9191 70.6089 69.4978 68.178 66.5219 69.2754ZM93.2071 77.3409C91.9752 79.6856 89.9149 78.09 90.815 76.5989C90.7836 76.6439 90.7763 76.6597 90.819 76.5888C90.817 76.5923 90.817 76.5954 90.815 76.5989C90.9699 76.3727 92.018 74.9899 93.3619 76.0083C93.9517 76.4557 93.4018 76.9683 93.2071 77.3409ZM83.9486 93.2222C83.0506 94.7359 82.0343 93.6909 81.3959 93.5649C79.9173 93.2718 80.9985 92.1569 82.4088 88.9242C82.8011 88.0256 83.0448 87.0535 83.4891 86.1847C84.8227 83.5692 87.8241 78.2276 89.4336 75.8957C90.3924 74.5169 91.763 73.8199 93.4813 74.4201C93.7623 74.5188 94.2806 74.888 94.5461 75.0978C94.6912 75.206 94.8893 75.3431 94.4795 75.3595C94.2197 75.3715 94.2499 75.1811 93.8591 75.0084C93.086 74.6725 92.5969 74.7755 91.9844 74.8382C90.5262 74.9878 89.4739 76.5867 89.6882 78.0318C89.8532 79.0945 91.808 79.7986 92.6009 79.1628C92.6968 79.0872 92.7946 79.0112 92.8995 78.9439C93.1737 78.7618 93.5194 79.0624 93.3762 79.36C90.7215 84.9672 86.8805 88.2819 83.9486 93.2222ZM88.1634 76.009C87.8567 76.4309 86.9575 75.5023 86.187 74.9679C83.9439 73.4131 87.991 69.7569 89.4517 70.8734C90.4253 71.6187 92.4275 73.1116 91.6883 73.3214C90.1251 73.7691 89.0609 74.7657 88.1634 76.009ZM93.9154 73.2176C92.6953 72.6581 89.697 69.0299 88.8117 69.4264C86.8913 70.2838 85.1531 71.3476 84.614 73.6205C84.1119 75.7254 87.6455 76.7862 87.1696 77.7015C85.9084 80.1171 85.1301 81.5399 84.5384 82.6131C83.2166 85.0152 81.2058 89.2471 80.0625 91.7242C79.0796 93.8539 79.3316 93.9653 83.1649 95.2542C84.1604 95.59 83.7703 94.1058 90.9618 84.7794C92.7274 82.4897 94.1862 80.0449 95.259 77.3731C95.9421 75.6755 95.8749 74.1167 93.9154 73.2176ZM75.3943 72.3165C74.1151 76.2234 74.2243 76.0631 72.7568 78.166C72.386 78.7004 71.1796 77.3657 70.7444 76.8919C70.4101 76.5301 71.2638 75.7216 71.8621 74.2337C72.7828 71.9282 72.2291 71.5894 73.9803 71.4792C75.1846 71.4049 75.745 71.246 75.3943 72.3165ZM67.0581 83.7173C66.4391 84.1891 66.2864 83.7363 66.0195 81.3931C65.9689 80.9518 66.797 80.5282 69.3357 78.1316C70.0134 77.4924 70.1362 77.7571 71.705 79.1053C72.4127 79.7142 67.4966 83.3839 67.0581 83.7173ZM64.8755 84.9349C63.377 85.4675 61.0033 85.1423 60.8732 84.9394C60.7326 84.7202 61.674 82.2451 61.7654 82.0008C61.8017 81.9034 62.0614 81.8468 62.2237 81.8447C64.6553 81.8186 65.0604 81.7551 65.2233 82.5442C65.4946 83.8483 66.1174 84.4931 64.8755 84.9349ZM58.8445 84.5067C57.1724 83.9797 54.9004 82.7977 54.8702 82.1924C54.8481 81.9104 57.195 79.8355 57.407 79.6512C57.9062 79.2185 59.7943 80.6844 60.2797 81.0762C60.934 81.6002 60.4964 82.638 60.1956 83.7323C59.9084 84.7654 59.8374 84.8231 58.8445 84.5067ZM56.1326 79.5879C53.943 81.5275 54.4503 82.5209 52.3325 79.1108C52.045 78.6466 51.6313 76.71 52.1716 76.2715C55.6867 75.4463 54.6797 75.4343 55.2657 76.7838C55.4937 77.3136 55.6888 77.9297 56.089 78.2953C56.6357 78.7946 56.6797 79.1013 56.1326 79.5879ZM52.2981 71.9782C52.7334 70.8735 52.2096 70.4744 53.9208 70.9261C54.8214 71.1634 56.467 71.4986 56.2773 71.9771C55.3381 74.3253 55.1429 75.281 52.4311 75.2688C51.8286 75.2662 51.7659 73.3147 52.2981 71.9782ZM53.0576 69.6814C52.9496 69.4408 54.3649 66.84 54.4923 66.6072C54.6031 66.4002 54.8048 66.3641 55.0538 66.512C57.6169 68.0218 58.2331 68.3951 57.9796 69.0461C57.7963 69.5252 57.1462 70.8481 56.5805 70.7159C56.325 70.6565 53.1666 69.9208 53.0576 69.6814ZM58.2538 62.3388C58.8341 61.7714 59.5727 63.4383 60.6359 65.3306C61.1666 66.2732 60.0154 66.3227 59.5258 67.127C58.9324 68.1115 58.3739 67.5669 57.4133 66.9599C57.0493 66.7226 55.9303 65.9167 55.851 65.8372C55.3219 65.3263 56.0094 64.5236 58.2538 62.3388ZM63.1921 59.7882C63.3999 59.7186 63.6484 59.8986 63.628 60.2546C63.3903 64.0918 63.3853 64.4721 62.0869 64.8753C61.4911 65.0553 60.2362 62.4864 59.6653 61.4822C59.375 60.9751 60.7078 60.627 63.1921 59.7882ZM68.4296 60.3546C68.9305 60.4677 69.1467 60.7614 68.8281 61.2888C66.8317 64.6011 67.1149 64.698 66.4074 64.386C65.8084 64.1226 64.3394 63.9214 64.3618 63.462C64.3751 63.2019 64.5487 59.8539 64.7567 59.6952C64.9523 59.5494 68.1917 60.2992 68.4296 60.3546ZM66.3355 66.4032C59.4687 68.9158 58.3295 77.0024 58.0253 77.4793C57.9057 77.664 57.4648 77.841 57.2904 77.7611C53.4884 75.9823 60.2347 65.3335 64.9962 64.9904C65.6044 64.9467 67.3724 66.0294 66.3355 66.4032ZM70.7685 61.3799C73.3241 64.1885 74.1499 64.7009 72.8611 65.6759C71.1733 66.9549 71.2299 67.0675 68.7615 65.9123C67.7176 65.4235 67.7809 65.1508 68.4496 63.8757C68.7947 63.2189 69.6195 61.6583 69.6967 61.5243C70.0806 60.8607 70.268 60.8316 70.7685 61.3799ZM67.0076 79.388C66.2289 80.135 65.1676 80.8029 64.1394 80.9968C62.6993 81.2704 57.9379 79.9755 59.4376 75.5183C60.9632 70.9934 64.5087 67.1407 67.715 67.0668C69.4075 67.0259 71.5253 68.4069 71.649 69.8383C71.8031 71.6749 71.4501 73.4225 70.6821 75.1589C70.0169 76.6606 68.1899 78.2532 67.0076 79.388ZM75.5225 70.1147C75.6124 70.5881 73.9868 70.6013 73.1621 70.6696C72.9819 70.6858 72.8253 70.5541 72.8066 70.3725C72.7168 69.4023 72.5173 68.5766 71.8096 67.9383C71.3774 67.5494 73.1244 66.4368 73.6164 66.1354C75.2291 65.1362 75.3984 69.4556 75.5225 70.1147ZM75.4615 65.8162C74.8128 64.538 72.7913 61.3061 71.0024 60.4422C57.3075 53.8317 51.4669 69.5287 51.2952 72.9945C51.0588 77.6633 49.1885 83.144 60.907 85.9775C63.3828 86.5755 65.604 85.7991 67.4668 84.2821C72.3792 80.2965 77.1655 75.3766 76.3387 69.1723C76.1851 68.0269 75.9738 66.822 75.4615 65.8162ZM112.763 57.4502C106.224 66.2889 109.768 61.3229 105.704 67.8954C105.077 68.9052 104.323 69.8421 103.738 70.8747C100.458 76.6293 94.4318 86.4298 94.1622 86.8638C70.2235 124.893 78.6948 123.127 54.8321 114.342C53.2401 113.759 53.068 114.21 47.6996 111.904C43.5182 110.11 39.0923 107.866 36.6462 106.752C36.0109 106.463 35.2777 106.393 34.6334 106.121C33.9152 105.815 28.7409 103.422 27.9042 102.89C26.8482 102.221 24.8931 100.256 24.5568 99.0074C23.8536 96.3931 25.3165 93.8921 27.2445 91.3559C27.9285 90.4541 28.9947 92.2898 30.0444 91.2217C30.4736 90.7903 30.8898 90.2564 31.0719 89.6887C32.2942 85.8628 35.9411 81.6732 36.9182 80.4189C37.0214 80.2825 37.1516 80.0564 37.1081 79.9376C36.8337 79.2254 36.6554 78.4039 36.1722 77.8642C35.389 76.998 35.5286 77.0122 39.0429 71.0815C38.8451 71.4135 53.4314 46.5763 53.8123 46.5325C53.9028 46.5247 53.9947 46.5529 54.0634 46.611C54.8873 47.3239 55.9282 47.1832 56.5554 46.2966C57.3153 45.0771 62.6607 36.5434 63.5612 35.4849C65.6917 32.9852 61.9864 33.2118 63.3658 31.1367C65.7772 27.5063 65.5352 25.8684 70.1521 24.9051C74.7237 23.9496 97.9774 35.1041 98.9244 35.5309C105.155 38.3201 113.273 40.502 116.209 46.3915C117.447 48.8787 117.293 49.2378 116.26 51.2601C114.566 54.5741 115.433 53.8407 112.763 57.4502ZM26.2387 88.1011C29.138 83.4889 28.8839 83.307 29.5784 83.7238C31.6503 84.9769 32.1577 84.9903 31.714 85.8809L29.652 90.0389C29.4206 90.4983 29.0539 90.6945 28.5597 90.41C26.3385 89.1249 25.717 88.93 26.2387 88.1011ZM32.6825 79.3718C33.916 80.1133 35.3953 80.4941 35.015 81.1033C33.788 83.0796 33.2599 83.9914 32.6195 84.1654C31.928 84.3549 29.4449 83.0266 30.0101 82.0827C31.6792 79.3188 31.1329 78.4411 32.6825 79.3718ZM32.722 77.3055C34.1049 76.8126 36.2078 79.0465 35.6595 79.5926C35.5275 79.7269 35.3615 79.7071 35.1929 79.6221C34.3207 79.1788 33.4451 78.7478 32.6028 78.246C32.191 77.998 32.2938 77.4593 32.722 77.3055ZM52.9715 43.0789C52.9841 43.057 54.9152 39.8378 54.9292 39.8135C55.7333 38.3995 55.707 38.9429 56.4344 39.3863C58.5759 40.6948 58.9351 40.6201 58.5625 41.2441C55.1241 46.9586 55.8746 46.1815 53.843 45.4301C52.4602 44.9154 52.3954 44.1304 52.9715 43.0789ZM59.1013 33.446C59.4772 33.0594 60.0951 33.2721 62.3243 34.7803C62.9503 35.2054 59.8602 39.1942 59.518 39.5849C58.721 40.4722 56.0031 38.4056 56.4301 37.6099C57.7749 35.1086 58.4086 34.1657 59.1013 33.446ZM62.1355 32.6438C62.1702 33.0637 62.5541 33.4094 62.3378 33.6619C62.0077 34.0472 60.0193 32.6607 60.2095 32.204C60.4031 31.7478 62.102 32.1906 62.1355 32.6438ZM117.425 46.6874C114.524 40.5748 109.648 39.3183 95.4036 33.1651C94.0352 32.571 92.4898 31.1133 77.515 25.8738C73.253 24.3797 72.2626 23.7094 70.1415 24.2282C68.9756 24.5184 66.7428 24.6836 65.3655 26.5722C61.8702 31.3555 63.1959 31.7543 60.6802 31.3072C58.7169 30.9491 58.6461 32.0499 52.1031 42.6204C50.3026 45.527 53.5875 45.2676 52.6691 46.5712L35.2625 76.1853C34.3887 77.7207 32.4685 74.7344 30.8761 77.9747C29.3335 81.1192 27.2843 84.5213 25.2873 87.5917C24.4697 88.8518 25.0073 89.1583 26.4543 90.193C26.8167 90.4496 26.4126 90.8572 25.8842 91.78C23.6444 95.7155 21.7135 97.9147 24.854 101.299C26.9544 103.568 26.4652 103.023 31.131 105.394C34.8173 107.27 36.1091 106.994 40.1032 109.375C43.2608 111.261 63.2392 118.542 63.7253 118.712C77.3769 123.512 75.348 119.08 98.8892 80.4728C99.9552 78.7249 101.161 77.0651 102.213 75.3154C104.267 71.8993 102.933 72.6098 112.798 58.7027C116.818 53.0365 115.792 53.5998 117.061 51.4643C117.992 49.9029 118.272 48.4845 117.425 46.6874ZM58.1207 4.3975C54.6146 3.99414 53.9983 5.08858 50.5598 6.57194C50.4025 6.64141 50.3477 6.94527 50.2505 7.16007C50.2155 7.23226 50.4294 7.37542 50.6314 7.28249C54.9322 5.25556 53.6898 5.64946 58.3408 4.89812C58.7894 4.82568 58.6921 4.46346 58.1207 4.3975ZM66.0933 14.4118C66.2971 14.4292 66.4646 14.2472 66.4243 14.0424C66.0171 13.5433 65.4542 13.4977 63.8333 14.2429C58.246 16.806 58.7164 19.7556 60.6076 17.5089C62.7032 15.0199 65.2583 14.3295 66.0933 14.4118ZM64.3716 12.088C64.2073 11.0549 59.0051 13.4982 57.9877 15.9111C57.903 16.1146 58.0384 16.348 58.2646 16.3675C59.0727 16.4359 58.9661 15.8298 59.5432 15.122C60.7371 13.6571 62.3195 12.865 64.1223 12.4553C64.2899 12.421 64.4005 12.257 64.3716 12.088ZM56.3861 3.06788C56.6857 2.98499 56.6914 2.55747 56.3946 2.47274C56.163 2.40093 55.793 2.45708 55.5516 2.47041C51.5226 2.62444 49.684 3.79363 48.0486 5.41056C47.8197 5.63572 48.0224 6.02479 48.2684 5.89718C48.5944 5.72027 48.9296 5.56093 49.2338 5.34988C49.7209 5.00416 50.1248 4.52597 50.6425 4.25014C53.0137 2.98456 54.526 3.59386 56.3861 3.06788ZM60.4389 20.0751C62.306 19.0424 63.3606 16.951 67.5425 16.428C67.7111 16.4097 67.8387 16.2539 67.8077 16.0853C67.5856 14.8157 60.7557 17.7527 60.1184 19.7059C60.038 19.9396 60.2416 20.183 60.4389 20.0751ZM60.6491 7.03813C61.2739 6.96554 61.4552 5.88988 56.7908 6.97816C54.4837 7.51443 51.6932 9.93711 52.999 9.99052C53.7228 10.0227 53.6931 9.58555 54.14 9.18125C55.9014 7.59073 58.2881 7.31103 60.6491 7.03813ZM62.7926 10.648C63.4875 10.5527 63.1774 9.65409 62.1687 9.8672C59.7349 10.3782 57.8806 11.8722 56.1199 13.5062C55.0723 14.4801 56.5544 14.8673 56.95 13.8596C57.2448 13.1046 59.8245 11.0544 62.7926 10.648ZM61.3825 8.79131C61.7014 8.70107 61.6771 8.23475 61.3471 8.17859C60.1013 7.96433 55.8964 8.85717 53.6671 12.5293C53.537 12.7405 53.6831 13.0277 53.8943 12.9385C54.3294 12.7568 54.9003 12.6255 55.0234 12.3179C56.007 9.87171 58.3347 9.67653 61.3825 8.79131ZM84.2 114.244C78.581 122.395 76.9146 125.821 71.3452 125.62C65.0556 125.389 36.421 113.946 26.1931 108.675C8.75508 99.6952 17.4771 98.2338 45.7443 48.475C50.1066 40.8138 51.6099 38.4838 51.6099 38.4838C52.4498 36.9334 52.7363 35.6675 55.2159 31.3041C58.25 25.963 60.0656 22.3557 65.0085 20.2139C69.1756 18.4054 73.9437 19.0323 77.4808 20.7676C82.6747 23.3137 120.337 36.86 123.11 43.8648C125.055 48.7772 121.823 51.9566 115.35 63.5292C110.534 72.1294 111.825 71.4093 106.52 78.9584C99.1596 89.4415 100.704 90.3107 84.2 114.244ZM68.8347 126.767C65.7458 129.21 65.4098 129.148 64.4 128.92C62.9976 128.597 62.994 128.572 62.8037 127.16C62.7664 126.878 62.445 124.775 62.6594 124.594C62.8673 124.419 68.4622 126.116 68.7244 126.193C68.9803 126.268 69.0454 126.601 68.8347 126.767ZM59.2701 125.74C58.5022 125.165 57.7363 125.752 57.9645 123.217C58.0064 122.758 58.16 122.637 58.5781 122.809C60.6327 123.654 61.4015 123.818 61.451 124.2C61.9808 128.35 62.2613 127.967 59.2701 125.74ZM33.0798 117.187C32.6317 117.494 30.4242 116.906 30.4282 115.955C30.4371 114.793 30.494 113.628 30.5872 112.467C30.6025 112.32 31.0053 112.038 31.108 112.082C31.3941 112.208 36.2888 114.273 36.3224 114.586C36.3552 114.9 33.3394 117.006 33.0798 117.187ZM25.7856 112.153C25.8276 111.871 26.1772 110.023 26.4332 109.907C26.667 109.802 29.2657 111.257 29.4936 111.376C29.7096 111.492 29.5103 115.182 29.5035 115.429C29.4729 116.419 25.7147 112.595 25.7856 112.153ZM15.299 97.4521C15.6208 95.8775 16.0763 94.332 16.474 92.773C16.6399 92.1131 15.8082 91.9744 15.399 93.3278C14.7289 95.5604 14.8143 95.9005 14.4042 95.8706C13.7669 95.8221 14.0655 93.2336 14.25 92.4707C14.3205 92.179 14.8826 90.2628 14.8351 89.9799C14.7931 89.7261 14.4865 89.6157 14.2929 89.7909C13.8923 90.1444 13.3092 93.1413 13.2032 95.8606C13.1971 95.9911 13.1139 96.1097 12.9887 96.1559C12.3741 96.3881 11.4196 94.6045 11.8651 92.21C12.1607 90.6049 12.4888 89.0027 12.7696 87.3921C12.9142 86.5522 12.1177 86.629 11.9897 87.2489C11.0298 91.8967 10.9278 94.3982 10.4075 93.2801C9.42765 91.1742 9.33157 92.1822 10.2327 85.9925C10.2979 85.536 10.7045 85.1733 10.6333 84.7249C10.5998 84.5086 10.3664 84.3878 10.169 84.4791C9.0648 85.0044 9.02257 90.3298 8.64101 90.4027C8.03759 90.5216 7.44949 87.9443 7.4517 87.1774C7.45711 84.9406 8.63405 82.7089 8.71502 82.1707C8.75553 81.8863 8.44279 81.6863 8.20578 81.8516C7.91006 82.0563 8.00869 82.0164 6.62746 86.6446C6.2953 87.7473 4.36513 85.3682 6.81872 80.6418C7.39597 79.5359 5.42903 79.3446 4.85019 84.8056C4.82656 85.0323 4.49718 85.047 4.45878 84.8205C4.06766 82.4719 4.06771 81.8319 5.02979 79.7686C5.15669 79.4972 5.85724 77.9893 5.81342 77.6938C5.76678 77.4084 5.38752 77.3481 5.25374 77.6023C3.61161 80.74 3.90687 80.6039 3.31113 82.5363C3.23786 82.7785 2.88308 82.7485 2.85277 82.4984C2.41711 78.8933 4.07337 77.1023 4.18139 76.5754C4.33292 75.8176 3.73074 75.7685 3.55168 76.1882C2.14987 79.4878 2.2711 79.6831 1.96054 79.586C1.55369 79.4594 2.88621 75.2081 3.0192 74.7998C5.01253 68.6453 16.0712 51.504 16.6634 50.5079C26.6596 33.7221 29.9614 26.3934 42.8296 8.64276C45.9666 4.31478 48.4019 3.1446 50.1029 2.01929C50.3873 1.82919 50.7939 1.8371 51.1108 1.68422C54.1566 0.202399 57.1935 0.744908 60.2143 1.71044C79.2442 7.80028 105.18 20.8668 111.833 25.5105C111.936 25.5835 112.195 25.9542 112.216 26.0645C112.308 26.5841 106.662 23.3423 106.145 23.0919C105.997 23.0224 105.693 23.0533 105.601 23.1602C105.512 23.2596 105.488 23.6323 105.638 23.7035C106.736 24.2183 106.864 24.3936 108.947 25.4207C115.852 28.8278 114.408 29.1797 113.552 28.8021C107.926 26.3315 108.327 26.3826 107.923 26.4637C107.704 26.5083 107.594 26.7577 107.702 26.9488C107.874 27.2539 108.984 27.6765 110.189 28.1596C112.22 28.972 113.245 29.8112 114.84 30.2542C115.179 30.351 115.478 30.5754 115.694 30.9952C116.273 32.103 113.326 30.7918 110.787 29.7267C110.277 29.5114 110.194 29.1626 109.473 29.3228C109.238 29.3718 109.135 29.6479 109.275 29.8394C109.662 30.3761 119.055 33.5215 117.9 34.8812C117.575 35.2621 112.726 32.6867 112.053 32.7607C109.582 33.0503 116.767 34.9566 119.007 36.7878C119.554 37.2351 120.273 38.4404 120.453 38.8915C120.705 39.5351 116.243 37.0492 115.644 36.695C114.162 35.8106 112.723 35.2451 111.308 34.5118C101.687 29.5305 91.1955 25.7292 87.8751 24.3835C74.852 19.1123 70.779 15.5699 61.956 21.0133C56.6066 24.3089 51.7093 36.4701 50.9564 37.8152C12.2701 103.132 20.1411 88.8793 15.902 99.1059C15.7104 99.5754 15.0689 98.5738 15.299 97.4521ZM9.55796 98.4326C8.48402 98.6327 7.48549 97.1658 7.71519 96.0299C8.31044 93.0924 8.20948 92.4098 9.10349 93.4416C9.37255 93.7454 9.77794 93.7284 10.1738 94.3102C10.3037 94.4957 11.952 96.8727 11.901 97.0959C11.8593 97.2822 10.4061 98.2737 9.55796 98.4326ZM6.49427 95.9376C6.1552 95.9888 4.16277 92.9831 3.97857 92.7028C3.5916 92.114 3.89983 91.4157 4.90219 87.9206C4.9524 87.7414 5.24374 87.7897 5.35389 87.9449C7.90322 91.564 7.83197 91.2554 7.58664 92.2712C7.53492 92.4842 6.71478 95.9095 6.49427 95.9376ZM103.049 85.5637C107.354 78.1727 109.868 76.0047 111.834 71.9762C118.185 58.9748 123.97 52.3869 124.715 46.3987C124.918 44.766 125.339 44.7898 116.55 30.9635C111.031 22.287 114.772 25.3488 88.1158 12.2487C80.7097 8.6088 69.2404 3.90923 58.7562 0.638494C47.7726 -2.78899 40.9006 9.39679 31.788 23.7618C24.8687 34.6602 26.7548 32.4276 15.7741 50.494C5.92565 66.6943 0.855793 74.5144 0.959811 80.4774C0.967854 81.0205 0.921692 81.6666 2.15835 83.4526C2.6931 84.2191 3.1598 85.0294 3.64686 85.8297C4.13925 86.635 3.82254 87.8709 3.50871 88.8429C2.92605 90.6291 1.80689 92.3755 2.81214 93.4393C5.9741 96.7781 6.08688 98.6509 8.28913 99.2718C10.3268 99.8465 9.33535 99.7877 12.7559 98.1758C12.881 98.1151 13.1644 98.2032 13.2678 98.318C20.3748 106.408 15.611 103.404 23.6693 108.179C25.8634 109.479 24.0627 112.592 24.8521 113.245C29.4135 117.02 29.085 117.673 31.7046 118.092C32.2948 118.187 32.8737 118.566 33.4747 118.042C36.5633 115.351 37.3681 114.805 38.3593 115.165C38.8411 115.34 56.8802 122.036 56.9343 122.599C57.1491 124.784 56.1803 124.915 57.587 125.971C59.6298 127.5 60.3624 128.217 61.8794 129.09C62.5258 129.462 63.3278 129.761 64.4546 129.932C65.4175 130.08 65.3412 130.273 69.7057 127.141C72.046 125.46 73.1014 127.413 76.9468 124.867C80.1019 122.779 85.476 113.294 88.2224 109.193C102.089 88.4573 95.4318 98.6541 103.049 85.5637Z" fill="#39D192"/>
</svg>
