<svg width="18" height="18" viewBox="0 0 18 18" fill="none" xmlns="http://www.w3.org/2000/svg">
<path d="M9 0.25C7.26942 0.25 5.57769 0.763179 4.13876 1.72464C2.69983 2.6861 1.57832 4.05267 0.916058 5.65152C0.253791 7.25037 0.0805121 9.00971 0.418133 10.707C0.755753 12.4044 1.58911 13.9635 2.81282 15.1872C4.03653 16.4109 5.59563 17.2443 7.29296 17.5819C8.9903 17.9195 10.7496 17.7462 12.3485 17.0839C13.9473 16.4217 15.3139 15.3002 16.2754 13.8612C17.2368 12.4223 17.75 10.7306 17.75 9C17.7474 6.68017 16.8246 4.45611 15.1843 2.81574C13.5439 1.17537 11.3198 0.252647 9 0.25V0.25ZM12.125 2.19125C12.7869 2.49633 13.4008 2.89615 13.9475 3.37813L13.6894 4H12.125V2.19125ZM7.36125 16.3144C6.00877 16.0139 4.76624 15.3439 3.77199 14.379C2.77775 13.4141 2.07081 12.1922 1.7299 10.8494C1.38898 9.50651 1.42747 8.09537 1.84107 6.77308C2.25467 5.4508 3.02715 4.26925 4.0725 3.36L4.91563 4.625H7.00438L6.06688 7.125H3.55L2.68625 9.7175L4.29063 12.125H7.41563L8.31063 13.4669L7.36125 16.3144ZM9 16.5C8.87313 16.5 8.74875 16.4875 8.62313 16.4812L9.49625 13.8625C9.55695 13.6821 9.57539 13.4901 9.55014 13.3015C9.52489 13.1128 9.45663 12.9325 9.35063 12.7744L8.45563 11.4319C8.34168 11.2605 8.18708 11.1199 8.00561 11.0227C7.82415 10.9256 7.62147 10.8748 7.41563 10.875H4.95938L4.06438 9.5325L4.45063 8.375H5.875V9.625H7.125V7.86312L8.96 2.96937L7.79 2.53063L7.47313 3.375H5.58438L5.08 2.61875C5.93496 2.08483 6.89033 1.73193 7.88707 1.58186C8.88381 1.43179 9.90074 1.48774 10.875 1.74625V4C10.8753 4.33142 11.0071 4.64917 11.2415 4.88352C11.4758 5.11787 11.7936 5.24967 12.125 5.25H13.7413C13.9055 5.25044 14.0681 5.2183 14.2198 5.15543C14.3715 5.09257 14.5092 5.00022 14.625 4.88375L14.7125 4.79625L14.8888 4.37125C15.3933 5.01217 15.7898 5.73122 16.0625 6.5H13.1244C12.8289 6.49908 12.5427 6.60324 12.3169 6.79387C12.0912 6.98449 11.9405 7.24917 11.8919 7.54062L11.5188 9.69125C11.4736 9.94599 11.509 10.2085 11.62 10.4422C11.731 10.6758 11.9121 10.8691 12.1381 10.995L13.4913 11.91L14.4025 14.1888C13.7049 14.919 12.8665 15.5004 11.9379 15.8976C11.0094 16.2948 10.01 16.4998 9 16.5V16.5ZM14.5094 11.09L12.8125 9.94313L12.75 9.90562L13.1244 7.75H16.3869C16.7143 9.59404 16.3243 11.4935 15.2969 13.0594L14.5094 11.09Z" fill="#0A1C2D"/>
</svg>
