<svg width="201" height="202" viewBox="0 0 201 202" fill="none" xmlns="http://www.w3.org/2000/svg">
<g filter="url(#filter0_d_1_6197)">
<circle cx="100.622" cy="101.333" r="82.3356" transform="rotate(102.816 100.622 101.333)" fill="white" stroke="url(#paint0_linear_1_6197)" stroke-width="3"/>
<mask id="mask0_1_6197" style="mask-type:alpha" maskUnits="userSpaceOnUse" x="28" y="28" width="146" height="146">
<circle cx="100.622" cy="101.333" r="72.5501" transform="rotate(102.816 100.622 101.333)" fill="#FFF4E7"/>
</mask>
<g mask="url(#mask0_1_6197)">
<circle cx="100.836" cy="100.836" r="72.5501" transform="rotate(102.816 100.836 100.836)" fill="#EBFCF5"/>
</g>
<path d="M88.3364 70.3479L88.7904 76.131L88.8008 76.2671C88.4409 76.2199 88.039 76.199 87.6002 76.1938C84.4637 76.1782 79.5781 77.227 76.0861 78.0886C73.6485 78.6939 71.8894 79.2107 71.8894 79.2107L71.3627 77.1282L69.3842 69.3142C67.7713 67.9311 65.3129 62.487 65.3129 62.487C63.3141 62.1792 60.824 60.363 60.2864 57.8261C59.7487 55.2892 62.8701 55.5346 62.8701 55.5346L64.8953 54.2924L67.4322 47.3763C67.4322 47.3763 65.2032 42.2245 69.588 40.1529C73.9667 38.0752 88.8741 45.2991 88.8741 45.2991L90.487 52.0638C92.5591 52.9093 90.3669 57.9774 90.3669 57.9774C90.3669 57.9774 90.565 58.0559 90.7948 61.0519C91.0247 64.048 88.3364 70.3479 88.3364 70.3479Z" fill="white"/>
<path d="M83.3574 54.2718C84.0175 56.7898 86.3516 58.5796 86.2655 59.2303C86.1558 60.0606 85.1273 61.1884 84.1996 61.2002" stroke="#263238" stroke-width="1.27067" stroke-miterlimit="10" stroke-linecap="round" stroke-linejoin="round"/>
<path d="M87.9468 50.2259C87.9468 50.2259 85.9026 48.559 84.3152 50.6987" stroke="#263238" stroke-width="2.54267" stroke-miterlimit="10" stroke-linecap="round" stroke-linejoin="round"/>
<path d="M76.2046 62.9344C76.2046 62.9344 77.2491 65.6528 81.3971 65.5597" stroke="#263238" stroke-width="1.27067" stroke-miterlimit="10" stroke-linecap="round" stroke-linejoin="round"/>
<path d="M78.8683 52.357C77.374 51.4349 75.3019 51.5162 74.2073 53.5562" stroke="#263238" stroke-width="2.54267" stroke-miterlimit="10" stroke-linecap="round" stroke-linejoin="round"/>
<path d="M78.6459 56.3225C78.7858 57.0583 78.5787 57.7156 78.1825 57.7912C77.7867 57.8669 77.3516 57.3316 77.2112 56.5963C77.0712 55.8605 77.2784 55.2028 77.6746 55.1276C78.0709 55.0519 78.5054 55.5872 78.6459 56.3225Z" fill="#263238"/>
<path d="M87.1715 54.6665C87.3115 55.4023 87.1044 56.0595 86.7081 56.1352C86.3123 56.2109 85.8773 55.6756 85.7368 54.9403C85.5969 54.204 85.804 53.5468 86.2002 53.4711C86.5965 53.3955 87.0311 53.9307 87.1715 54.6665Z" fill="#263238"/>
<path d="M65.119 57.3706C65.119 57.3706 61.6548 54.3636 60.5587 56.4419C59.4626 58.5201 63.0233 63.2846 66.3664 61.8244" stroke="#263238" stroke-width="1.27067" stroke-miterlimit="10" stroke-linecap="round" stroke-linejoin="round"/>
<path d="M88.3977 46.1166C88.3977 46.1166 88.6625 54.785 89.6195 56.7157C90.5771 58.6464 91.4022 59.6011 90.3927 64.6338C89.3826 69.6664 85.5203 75.5417 81.3875 75.9332C77.2552 76.3252 67.8566 70.0589 65.1675 62.2402" stroke="#263238" stroke-width="1.27067" stroke-miterlimit="10" stroke-linecap="round" stroke-linejoin="round"/>
<path d="M65.2117 57.7273C65.2117 57.7273 67.7254 56.4255 67.2691 54.1733C66.8123 51.921 67.1305 51.6458 68.9326 50.4883C70.7342 49.3307 69.6202 46.9357 67.8942 44.5794C66.1687 42.2227 69.4509 39.4073 72.1211 40.5913C74.7909 41.7758 90.0198 47.7613 94.1101 45.9829C98.1998 44.204 97.0257 38.5235 91.5188 35.344C91.5188 35.344 88.5454 31.7956 89.3441 28.5253C90.1423 25.2546 71.0647 15.3902 62.1248 35.4868C62.1248 35.4868 57.8823 37.1461 56.9962 42.8596C56.1247 48.48 62.2747 55.755 62.2747 55.755C62.2747 55.755 64.4508 56.8724 65.2117 57.7273Z" fill="#263238"/>
<path d="M67.7866 39.5659C69.1858 37.6825 71.7851 37.0012 74.1073 37.3331C76.43 37.665 78.5376 38.8472 80.5193 40.1031C82.5011 41.359 84.4493 42.7256 86.6637 43.5011C87.9215 43.9418 89.3032 44.1806 90.586 43.8193C91.6013 43.5328 92.5224 42.8457 92.9787 41.8948" stroke="white" stroke-width="1.27067" stroke-miterlimit="10" stroke-linecap="round" stroke-linejoin="round"/>
<path d="M63.818 38.0419C62.1166 38.1554 60.63 39.4335 59.9689 41.0048C59.3074 42.5761 59.3807 44.3811 59.8493 46.02C60.1789 47.1719 60.6919 48.258 61.265 49.313" stroke="white" stroke-width="1.27067" stroke-miterlimit="10" stroke-linecap="round" stroke-linejoin="round"/>
<path d="M88.6697 69.5722C88.3832 70.5293 88.3827 71.5479 88.4371 72.5456C88.5052 73.7835 88.5997 74.8215 88.8295 76.0396" stroke="#263238" stroke-width="1.27067" stroke-miterlimit="10" stroke-linecap="round" stroke-linejoin="round"/>
<path d="M69.3662 68.9932C70.1828 71.889 71.0907 75.3749 71.9263 79.249" stroke="#263238" stroke-width="1.27067" stroke-miterlimit="10" stroke-linecap="round" stroke-linejoin="round"/>
<path d="M88.9277 53.6146C88.9277 53.6146 89.6999 51.5085 91.1667 52.4424C92.6331 53.3753 90.3 58.1086 90.3 58.1086" stroke="#263238" stroke-width="1.27067" stroke-miterlimit="10" stroke-linecap="round" stroke-linejoin="round"/>
<path d="M91.0688 44.6604C91.0688 44.6604 91.8012 50.6231 90.0228 52.5061L88.6629 52.9246L87.9451 45.0079L91.0688 44.6604Z" fill="#263238"/>
<path d="M56.1037 37.1932C56.1037 37.1932 51.3108 36.8575 46.6763 31.3458C42.0408 25.8342 45.7873 21.9581 48.1081 19.8894C50.4293 17.8206 56.1103 12.1378 58.4902 9.50726C60.8706 6.87626 65.6342 3.49863 71.0205 4.37578C76.4073 5.25246 81.6372 8.48115 86.7729 9.98438C91.9091 11.4876 97.0004 17.0919 97.7523 20.7249C98.5036 24.3574 96.8864 30.0871 95.0073 31.465L91.7772 31.3643L93.2057 36.2598C93.2057 36.2598 74.0033 28.668 56.8494 42.9158L58.2987 37.8183L56.1037 37.1932Z" fill="white"/>
<path d="M64.9266 30.6699C64.9039 32.8474 64.9597 35.0259 65.094 37.2001L57.1292 43.1179L59.0773 33.5193L64.9266 30.6699Z" fill="#39D192"/>
<g opacity="0.600006">
<path d="M64.9266 30.6699C64.9039 32.8474 65.0226 35.2689 65.1569 37.4427L57.1292 43.1179L59.0773 33.5193L64.9266 30.6699Z" fill="#39D192"/>
</g>
<path d="M65.8718 4.49341C66.6223 4.20874 67.5131 4.54069 68.0333 5.15257C68.5529 5.76445 68.7473 6.59905 68.7397 7.4015C68.7156 10.0282 66.7636 12.2497 64.623 13.7723C62.4824 15.2945 60.0292 16.4043 58.1467 18.2357C56.0056 20.3186 54.7516 23.2844 54.7483 26.2715C54.7454 29.258 55.9933 32.2267 58.1302 34.3134C58.3406 34.5191 58.5614 34.7139 58.769 34.9224L58.1084 37.6121C58.1084 37.6121 49.5733 36.4975 46.6761 31.3457C43.7784 26.1939 44.6782 23.7965 47.2246 20.7508C49.7705 17.7051 53.0824 16.0813 56.3276 11.4624C59.5738 6.84352 65.8718 4.49341 65.8718 4.49341Z" fill="#39D192"/>
<g opacity="0.600006">
<path d="M65.8718 4.49341C66.6223 4.20874 67.5131 4.54069 68.0333 5.15257C68.5529 5.76445 68.7473 6.59905 68.7397 7.4015C68.7156 10.0282 66.7636 12.2497 64.623 13.7723C62.4824 15.2945 60.0292 16.4043 58.1467 18.2357C56.0056 20.3186 54.7516 23.2844 54.7483 26.2715C54.7454 29.258 55.9933 32.2267 58.1302 34.3134C58.3406 34.5191 58.5614 34.7139 58.769 34.9224L58.1084 37.6121C58.1084 37.6121 49.5733 36.4975 46.6761 31.3457C43.7784 26.1939 44.6782 23.7965 47.2246 20.7508C49.7705 17.7051 53.0824 16.0813 56.3276 11.4624C59.5738 6.84352 65.8718 4.49341 65.8718 4.49341Z" fill="#39D192"/>
</g>
<path d="M57.1292 43.1179C57.1292 43.1179 70.321 29.4452 93.1578 36.5201L90.349 28.7676C90.349 28.7676 74.4826 24.4083 59.0773 33.5198L57.1292 43.1179Z" stroke="#263238" stroke-width="1.27067" stroke-miterlimit="10" stroke-linecap="round" stroke-linejoin="round"/>
<path d="M91.866 32.9217C93.4913 32.6602 96.6519 30.8577 97.3706 29.3767C98.0898 27.8957 98.2572 26.2057 98.2279 24.5597C98.1858 22.2148 97.7517 19.8377 96.6353 17.7746C94.1878 13.2498 89.0312 11.0307 84.2492 9.13308C81.2674 7.94998 78.2855 6.76641 75.3036 5.58379C73.4931 4.86551 71.6456 4.13825 69.7021 4.01011C65.845 3.75618 62.2059 5.90486 59.3891 8.55193C56.5722 11.199 54.3058 14.3922 51.4445 16.9915C50.0491 18.2588 48.518 19.38 47.2247 20.7508C45.931 22.1221 44.8647 23.8083 44.676 25.6832C44.4037 28.3846 45.9925 30.9513 47.9416 32.8413C49.8685 34.7091 51.8039 36.9051 58.0721 37.6484" stroke="#263238" stroke-width="1.27067" stroke-miterlimit="10" stroke-linecap="round" stroke-linejoin="round"/>
<path d="M82.4546 27.7241C83.7493 26.9543 84.8931 25.932 85.8034 24.7319" stroke="#263238" stroke-width="1.27067" stroke-miterlimit="10" stroke-linecap="round" stroke-linejoin="round"/>
<path d="M63.4628 31.1768C61.1978 30.4069 59.3101 28.5973 58.4438 26.3678" stroke="#263238" stroke-width="1.27067" stroke-miterlimit="10" stroke-linecap="round" stroke-linejoin="round"/>
<path d="M65.1221 8.20938C63.0022 8.05617 61.1524 9.60999 59.7953 11.2456C58.4377 12.8812 57.2262 14.7642 55.3296 15.7227" stroke="#263238" stroke-width="1.27067" stroke-miterlimit="10" stroke-linecap="round" stroke-linejoin="round"/>
<path d="M63.2255 132.262L61.8107 130.848C59.3632 129.366 50.2261 127.642 50.2261 127.642L56.6589 118.349C56.6589 118.349 63.4444 128.849 63.7423 129.736C64.0397 130.629 63.2255 132.262 63.2255 132.262ZM141.534 101.3L122.013 116.536C122.013 116.536 114.518 92.1184 114.078 89.0746C112.88 86.1481 108.521 82.0602 108.521 82.0602C108.521 82.0602 92.5177 81.2672 91.364 80.6095C90.2107 79.9522 90.0802 76.1206 90.0802 76.1206C89.6626 76.1154 89.2295 76.1206 88.7907 76.131C88.3991 76.1471 88.0024 76.1679 87.6005 76.1939C83.785 76.4758 79.4999 77.4205 76.2533 78.2712C73.2156 79.0647 71.0863 79.7744 71.0863 79.7744L72.2656 84.9106L71.4097 86.1944C68.6066 88.293 53.2458 93.3819 49.2681 95.1774C47.1043 96.8026 44.2671 99.566 44.2671 99.566C44.2671 99.566 30.4884 126.599 28.3483 129.898C26.2081 133.192 26.3126 136.799 26.3126 136.799C27.8938 140.18 30.2222 140.4 32.6177 141.23C33.0092 141.365 33.406 141.517 33.8027 141.705C36.6058 143.02 61.3307 141.063 61.3307 141.063C61.3307 141.063 59.5509 149.868 67.6567 146.517C80.6272 141.157 111.637 144.868 111.637 144.868L110.896 125.023L117.921 133.061C117.921 133.061 121.209 134.997 125.161 132.529C131.174 128.645 148.597 107.204 148.597 107.204C146.911 103.205 141.534 101.3 141.534 101.3Z" fill="white"/>
<path d="M76.7543 153.453L78.2112 184.833C78.2112 184.833 73.4443 183.642 72.1203 181.656C70.7958 179.67 67.8433 149.924 67.8433 149.924C67.8433 149.924 70.6639 152.526 76.7543 153.453Z" fill="#39D192"/>
<g opacity="0.559998">
<path d="M76.7543 153.453L78.2112 184.833C78.2112 184.833 73.4443 183.642 72.1203 181.656C70.7958 179.67 67.8433 149.924 67.8433 149.924C67.8433 149.924 70.6639 152.526 76.7543 153.453Z" fill="white"/>
</g>
<path d="M63.9466 130.251L56.5061 118.648L62.746 110.396C62.746 110.396 63.2056 115.064 65.9836 117.231C70.4124 120.686 69.4384 131.314 69.4384 131.314L63.9466 130.251Z" fill="#39D192"/>
<g opacity="0.600006">
<path d="M63.9466 130.251L56.5061 118.648L62.746 110.396C62.746 110.396 63.2056 115.064 65.9836 117.231C70.4124 120.686 69.4384 131.314 69.4384 131.314L63.9466 130.251Z" fill="#39D192"/>
</g>
<path d="M109.264 100.022C109.264 100.022 114.675 124.089 117.808 127.934C120.941 131.778 121.011 116.815 122.116 116.607C123.22 116.399 125.071 125.37 124.359 128.076C124.359 128.076 124.786 129.5 126.352 128.076C127.918 126.652 147.428 108.566 147.428 108.566C147.428 108.566 127.384 133.927 121.653 133.772C116.805 134.441 111.574 125.782 111.574 125.782L109.264 100.022Z" fill="#39D192"/>
<g opacity="0.600006">
<path d="M109.264 100.022C109.264 100.022 114.675 124.089 117.808 127.934C120.941 131.778 121.011 116.815 122.116 116.607C123.22 116.399 125.071 125.37 124.359 128.076C124.359 128.076 124.786 129.5 126.352 128.076C127.918 126.652 147.428 108.566 147.428 108.566C147.428 108.566 127.384 133.927 121.653 133.772C116.805 134.441 111.574 125.782 111.574 125.782L109.264 100.022Z" fill="#39D192"/>
</g>
<path d="M51.1942 126.15L49.9936 127.758C49.9936 127.758 40.379 126.553 32.6175 141.23C30.2219 140.4 27.8941 140.18 26.3123 136.799C26.3123 136.799 26.2083 133.192 28.348 129.898C30.4882 126.599 44.4267 99.2535 44.4267 99.2535C44.4267 99.2535 46.5299 96.8598 49.2683 95.1774C59.2083 89.9291 68.6068 88.2926 71.4095 86.1945L72.2658 84.9107L71.0861 79.7745C71.0861 79.7745 73.2153 79.0647 76.2535 78.2712L77.8248 84.9736C78.3601 87.2565 77.1301 89.584 74.9427 90.4285L52.2695 99.1792C50.806 99.7443 49.6073 100.838 48.9113 102.244L36.4855 127.346C36.7044 127.121 41.6477 122.095 51.1942 126.15Z" fill="#39D192"/>
<g opacity="0.600006">
<path d="M51.1942 126.15L49.9936 127.758C49.9936 127.758 40.379 126.553 32.6175 141.23C30.2219 140.4 27.8941 140.18 26.3123 136.799C26.3123 136.799 26.2083 133.192 28.348 129.898C30.4882 126.599 44.4267 99.2535 44.4267 99.2535C44.4267 99.2535 47.4047 96.5544 49.2683 95.1774C58.6829 90.323 68.6068 88.2926 71.4095 86.1945L72.2658 84.9107L71.0861 79.7745C71.0861 79.7745 73.2153 79.0647 76.2535 78.2712L77.8248 84.9736C78.3601 87.2565 77.1301 89.584 74.9427 90.4285L52.2695 99.1792C50.806 99.7443 49.6073 100.838 48.9113 102.244L36.4855 127.346C36.7044 127.121 41.6477 122.095 51.1942 126.15Z" fill="#39D192"/>
</g>
<path d="M143.521 100.096L149.502 91.6341C149.502 91.6341 153.734 88.7889 155.266 88.0592C156.798 87.3296 157.017 85.8708 157.746 86.3815C158.476 86.8922 157.819 89.8831 156.287 90.8316C154.755 91.7797 153.004 92.7283 153.223 93.3851C153.442 94.0414 162.342 93.239 162.342 93.239C162.342 93.239 173.696 93.0848 173.855 93.9643C174.015 94.8438 166.792 96.157 166.792 96.157C166.792 96.157 174.562 96.0685 174.58 96.514C174.598 96.9594 170.148 98.4915 170.148 98.4915C170.148 98.4915 173.295 98.6551 173.144 99.3393C172.993 100.024 169.784 100.899 169.784 100.899C169.784 100.899 163.218 104.912 161.758 105.568C160.299 106.225 150.305 104.984 150.305 104.984L148.596 107.191C148.596 107.191 145.709 103.088 142.645 101.337L143.521 100.096Z" fill="white"/>
<path d="M121.461 126.115C121.916 122.97 122.045 119.859 122.071 116.682" stroke="#263238" stroke-width="1.27067" stroke-miterlimit="10" stroke-linecap="round" stroke-linejoin="round"/>
<path d="M88.8181 76.169C89.3052 76.1505 89.7993 76.1387 90.2986 76.1335L90.7791 79.1849C90.9379 80.1949 91.8056 80.9411 92.828 80.9477L108.218 81.9946C109.349 82.0017 113.639 87.8609 114.359 90.0725L122.116 116.607L141.534 101.189C141.534 101.189 145.339 101.704 148.597 107.191C148.597 107.191 136.094 123.834 124.745 132.715C123.087 134.012 119.37 134.301 117.888 132.807C115.393 130.293 113.134 128.041 111.39 125.732" stroke="#263238" stroke-width="1.27067" stroke-miterlimit="10" stroke-linecap="round" stroke-linejoin="round"/>
<path d="M59.73 118.01C61.027 117.173 62.3241 116.337 63.6211 115.5" stroke="#263238" stroke-width="1.27067" stroke-miterlimit="10" stroke-linecap="round" stroke-linejoin="round"/>
<path d="M61.1675 118.856C62.1955 118.525 63.2835 118.38 64.3626 118.432" stroke="#263238" stroke-width="1.27067" stroke-miterlimit="10" stroke-linecap="round" stroke-linejoin="round"/>
<path d="M56.6629 118.578C59.0277 121.873 61.2194 125.293 63.2248 128.818C63.6726 129.606 63.8031 130.536 63.6031 131.42L54.1562 173.211" stroke="#263238" stroke-width="1.27067" stroke-miterlimit="10" stroke-linecap="round" stroke-linejoin="round"/>
<path d="M108.218 93.4915L111.479 124.967C111.695 132.033 112.221 136.504 112.53 145.357" stroke="#263238" stroke-width="1.27067" stroke-miterlimit="10" stroke-linecap="round" stroke-linejoin="round"/>
<path d="M71.8729 85.9476L76.2554 114.008L82.1179 112.048C86.1533 110.7 90.4015 110.099 94.6525 110.276L100.638 110.524L93.423 80.6671H96.1599L111.573 125.781L112.526 145.787C112.526 145.787 83.8457 139.494 67.7789 147.983L69.0395 160.286C69.0395 160.286 69.8027 163.653 70.6113 173.455L57.8436 173.224L54.1562 173.212L63.4702 132.323C63.4702 132.323 71.5277 132.917 71.279 126.448C71.0303 119.979 68.8248 87.4716 68.8248 87.4716L71.8729 85.9476Z" fill="#263238"/>
<path d="M83.5461 85.6814C83.5461 86.4181 82.9488 87.0149 82.2121 87.0149C81.4759 87.0149 80.8782 86.4181 80.8782 85.6814C80.8782 84.9447 81.4759 84.3475 82.2121 84.3475C82.9488 84.3475 83.5461 84.9447 83.5461 85.6814Z" fill="#263238"/>
<path d="M85.07 92.1595C85.07 92.8962 84.4728 93.4929 83.7365 93.4929C82.9998 93.4929 82.4026 92.8962 82.4026 92.1595C82.4026 91.4227 82.9998 90.8255 83.7365 90.8255C84.4728 90.8255 85.07 91.4227 85.07 92.1595Z" fill="#263238"/>
<path d="M92.0698 127.784C96.8906 126.972 101.74 126.332 106.606 125.867" stroke="white" stroke-width="1.27067" stroke-miterlimit="10" stroke-linecap="round" stroke-linejoin="round"/>
<path d="M83.7405 129.364C85.7213 128.945 87.7082 128.556 89.7009 128.197" stroke="white" stroke-width="1.27067" stroke-miterlimit="10" stroke-linecap="round" stroke-linejoin="round"/>
<path d="M106.618 127.594C102.698 129.175 98.7446 130.672 94.7612 132.084" stroke="white" stroke-width="1.27067" stroke-miterlimit="10" stroke-linecap="round" stroke-linejoin="round"/>
<path d="M105.698 94.1191C106.106 96.6797 106.696 99.2109 107.462 101.688" stroke="#263238" stroke-width="1.27067" stroke-miterlimit="10" stroke-linecap="round" stroke-linejoin="round"/>
<path d="M162.426 96.855C162.426 96.855 173.796 94.982 173.856 93.9644C173.915 92.9472 165.685 93.4726 163.74 93.3241C161.796 93.1756 153.659 94.197 153.389 93.6887C153.12 93.1804 153.778 93.0603 155.572 91.5637C157.366 90.0666 158.681 87.4332 158.202 86.5958C157.723 85.7584 156.121 87.6157 154.905 88.2967C153.914 88.8513 150.186 90.9683 149.499 91.8961C148.811 92.8238 144.327 99.0268 142.623 101.391" stroke="#263238" stroke-width="1.27067" stroke-miterlimit="10" stroke-linecap="round" stroke-linejoin="round"/>
<path d="M162.675 96.7428C162.675 96.7428 174.626 95.6429 174.58 96.514C174.504 97.9642 166.491 99.1085 163.209 99.3374" stroke="#263238" stroke-width="1.27067" stroke-miterlimit="10" stroke-linecap="round" stroke-linejoin="round"/>
<path d="M163.133 99.4137C163.133 99.4137 173.293 97.9928 173.144 99.3395C172.995 100.685 161.442 102.869 161.442 102.869" stroke="#263238" stroke-width="1.27067" stroke-miterlimit="10" stroke-linecap="round" stroke-linejoin="round"/>
<path d="M148.174 107.731C149.316 106.094 150.075 104.969 150.075 104.969C150.075 104.969 159.86 106.041 161.266 105.771C162.671 105.501 169.273 101.269 169.273 101.269" stroke="#263238" stroke-width="1.27067" stroke-miterlimit="10" stroke-linecap="round" stroke-linejoin="round"/>
<path d="M152.496 96.7983C154.653 97.0356 156.627 98.519 157.457 100.524" stroke="#263238" stroke-width="1.27067" stroke-miterlimit="10" stroke-linecap="round" stroke-linejoin="round"/>
<path d="M123.622 117.638C124.724 119.326 124.845 121.449 124.933 123.463" stroke="#263238" stroke-width="1.27067" stroke-miterlimit="10" stroke-linecap="round" stroke-linejoin="round"/>
<path d="M67.8333 148.551L71.3362 178.46C71.3362 178.46 71.1721 181.609 73.814 183.201C76.4559 184.792 88.0424 187.352 94.5092 186.948C100.976 186.544 109.194 186.139 112.159 183.849C115.122 181.559 114.449 175.361 114.449 175.361L116.605 156.635C116.605 156.635 118.567 149.483 116.2 147.338C111.889 143.431 75.4652 140.469 67.8333 148.551Z" fill="white"/>
<path d="M67.8435 149.924C67.8435 149.924 69.8304 151.769 72.6685 152.62C75.5066 153.472 110.422 152.469 114.748 151.622C119.074 150.776 117.513 147.228 115.1 146.234C112.688 145.241 90.2878 141.981 80.3955 144.229C71.5999 146.228 66.1402 146.376 67.8435 149.924Z" fill="#39D192"/>
<g opacity="0.600006">
<path d="M67.8434 149.924C67.8434 149.924 69.8303 151.769 72.6684 152.62C75.5065 153.472 110.422 152.469 114.748 151.622C119.074 150.776 117.513 147.228 115.1 146.234C112.688 145.241 92.9296 142.374 81.0139 144.004C72.2154 145.991 66.1401 146.376 67.8434 149.924Z" fill="#39D192"/>
</g>
<path d="M117.54 149.064C117.54 149.988 116.533 150.86 114.748 151.622C110.583 153.417 102.189 154.639 92.5179 154.639C83.2843 154.639 75.2197 153.527 70.8878 151.867C68.7372 151.043 67.5002 150.087 67.5002 149.064C67.5002 145.98 78.7014 143.484 92.5179 143.484C106.334 143.484 117.54 145.98 117.54 149.064Z" stroke="#263238" stroke-width="1.27067" stroke-miterlimit="10" stroke-linecap="round" stroke-linejoin="round"/>
<path d="M114.748 151.622C110.582 153.417 102.189 154.639 92.5177 154.639C83.2842 154.639 75.22 153.527 70.8877 151.867C74.124 149.842 82.8142 148.386 93.0242 148.386C102.826 148.386 111.225 149.727 114.748 151.622Z" fill="#263238"/>
<path d="M67.5 149.064L71.4096 179.928C71.5921 181.363 72.5005 182.606 73.8155 183.2C78.738 185.424 91.9592 189.881 110.823 184.657C112.446 184.208 113.626 182.799 113.819 181.123L115.013 170.841L115.134 169.791L116.099 161.487L116.313 159.65L117.54 149.064" stroke="#263238" stroke-width="1.27067" stroke-miterlimit="10" stroke-linecap="round" stroke-linejoin="round"/>
<path d="M88.2095 187.013C88.2095 187.013 86.0415 184.477 87.0581 181.172C87.0581 181.172 84.1775 182.613 84.0923 185.154C84.0923 185.154 79.856 183.969 80.3643 177.783C80.3643 177.783 77.992 181.596 80.1104 185.748C82.2288 189.899 88.2095 187.013 88.2095 187.013Z" fill="#263238"/>
<path d="M99.238 187.032C99.238 187.032 102.329 184.24 103.127 179.254C103.127 179.254 104.124 182.146 103.028 185.636C103.028 185.636 105.919 184.539 106.617 181.149C106.617 181.149 107.215 184.938 105.42 187.032C103.625 189.126 99.238 187.032 99.238 187.032Z" fill="#263238"/>
<path d="M124.759 162.5C123.637 166.43 119.607 170.715 115.014 170.84L115.134 169.791C119.07 169.588 122.744 165.757 123.751 162.213C123.997 161.351 124.409 159.242 122.927 158.287C122.097 157.761 121.277 157.604 120.411 157.813C118.166 158.36 116.502 161.2 116.486 161.231C116.402 161.377 116.257 161.466 116.1 161.487L116.314 159.65C117.091 158.637 118.454 157.217 120.16 156.8C121.303 156.523 122.421 156.727 123.49 157.41C124.952 158.345 125.411 160.203 124.759 162.5Z" fill="#263238"/>
<path d="M88.752 150.746C91.3139 152.198 94.4717 152.278 97.3386 151.603C98.3335 151.369 99.3246 151.042 100.163 150.459" stroke="white" stroke-width="1.27067" stroke-miterlimit="10" stroke-linecap="round" stroke-linejoin="round"/>
<path d="M103.917 150.938C103.122 151.738 102.138 152.349 101.069 152.705" stroke="white" stroke-width="1.27067" stroke-miterlimit="10" stroke-linecap="round" stroke-linejoin="round"/>
<path d="M70.9117 171.729C61.5415 172.837 60.6119 162.023 63.1308 160.31C65.6502 158.597 70.6086 164.453 70.6086 164.453" stroke="white" stroke-width="2.54267" stroke-miterlimit="10" stroke-linecap="round" stroke-linejoin="round"/>
<path d="M95.6608 150.453L77.0637 116.653C77.0637 116.653 75.0275 115.431 75.1632 117.875C75.2989 120.318 92.4264 150.667 92.4264 150.667L95.6608 150.453Z" fill="white"/>
<path d="M95.6608 150.453L77.0637 116.653C77.0637 116.653 75.0275 115.431 75.1632 117.875C75.2989 120.318 92.4264 150.667 92.4264 150.667L95.6608 150.453Z" stroke="#263238" stroke-width="1.27067" stroke-miterlimit="10" stroke-linecap="round" stroke-linejoin="round"/>
<path d="M88.5981 157.772C94.2233 158.117 101.343 157.982 107.47 156.098" stroke="#263238" stroke-width="1.27067" stroke-miterlimit="10" stroke-linecap="round" stroke-linejoin="round"/>
<path d="M78.6912 156.573C78.6912 156.573 80.5821 156.956 83.5635 157.314" stroke="#263238" stroke-width="1.27067" stroke-miterlimit="10" stroke-linecap="round" stroke-linejoin="round"/>
<path d="M61.023 113.201C57.2108 117.5 53.7452 122.106 50.6711 126.96" stroke="#263238" stroke-width="1.27067" stroke-miterlimit="10" stroke-linecap="round" stroke-linejoin="round"/>
<path d="M48.525 126.777C46.2339 126.244 43.7959 126.357 41.5645 127.102" stroke="#263238" stroke-width="1.27067" stroke-miterlimit="10" stroke-linecap="round" stroke-linejoin="round"/>
<path d="M47.7698 98.5028C47.7698 98.5028 56.3011 103.378 59.4352 110.865" stroke="#263238" stroke-width="1.27067" stroke-miterlimit="10" stroke-linecap="round" stroke-linejoin="round"/>
<path d="M54.8162 128.958C54.976 135.066 58.7835 141.313 58.7835 141.313L72.7754 139.176L71.8472 136.465C72.3257 136.7 73.2932 136.62 73.9504 136.773C78.0705 137.734 84.8409 137.544 84.8409 137.544C86.3829 136.151 86.8799 135.314 87.3258 134.524C88.4635 132.509 87.3901 131.96 87.3901 131.96C89.0408 129.648 87.7736 127.978 87.7736 127.978C90.214 126.586 89.1732 125.822 89.1732 125.822C87.6019 123.371 78.34 124.429 78.34 124.429L70.2092 131.28L64.6994 130.317L54.8162 128.958Z" fill="white"/>
<path d="M69.4558 131.367L70.6767 130.968L78.3399 124.429C78.3399 124.429 88.3442 123.899 89.0606 125.695C89.7774 127.492 87.6917 128.324 85.8953 129.04" stroke="#263238" stroke-width="1.27067" stroke-miterlimit="10" stroke-linecap="round" stroke-linejoin="round"/>
<path d="M87.4482 128.403C87.4482 128.403 89.9203 129.485 86.5266 132.495" stroke="#263238" stroke-width="1.27067" stroke-miterlimit="10" stroke-linecap="round" stroke-linejoin="round"/>
<path d="M87.1214 132.036C88.2094 131.422 88.9239 134.194 85.1084 135.524" stroke="#263238" stroke-width="1.27067" stroke-miterlimit="10" stroke-linecap="round" stroke-linejoin="round"/>
<path d="M87.3993 134.705L84.6028 137.708C84.6028 137.708 78.3081 138.257 72.648 136.433L72.0276 136.613" stroke="#263238" stroke-width="1.27067" stroke-miterlimit="10" stroke-linecap="round" stroke-linejoin="round"/>
<path d="M39.6319 132.297C42.2766 129.453 46.1275 127.769 50.0111 127.759C50.8197 127.757 51.6184 127.915 52.3901 128.156C55.1261 129.007 66.3773 130.287 69.8112 131.492L72.7912 139.013C61.0122 141.994 45.309 142.235 35.8707 141.797C33.7892 141.7 31.3005 140.968 29.0989 139.846C26.5218 138.533 25.5354 135.35 26.8774 132.788L43.8195 100.175C44.2834 99.2894 47.5863 96.168 48.515 95.7992L57.1494 91.6323C57.7982 91.3113 59.2934 90.6767 59.9814 90.4521L69.5294 87.2489C70.2557 86.9605 72.3467 85.2842 72.1604 84.5252L70.9811 79.7191C70.9811 79.7191 78.4716 76.5542 88.8183 76.1689" stroke="#263238" stroke-width="1.27067" stroke-miterlimit="10" stroke-linecap="round" stroke-linejoin="round"/>
</g>
<defs>
<filter id="filter0_d_1_6197" x="12.7681" y="3.35425" width="175.708" height="192.635" filterUnits="userSpaceOnUse" color-interpolation-filters="sRGB">
<feFlood flood-opacity="0" result="BackgroundImageFix"/>
<feColorMatrix in="SourceAlpha" type="matrix" values="0 0 0 0 0 0 0 0 0 0 0 0 0 0 0 0 0 0 127 0" result="hardAlpha"/>
<feOffset dy="4"/>
<feGaussianBlur stdDeviation="2"/>
<feComposite in2="hardAlpha" operator="out"/>
<feColorMatrix type="matrix" values="0 0 0 0 0 0 0 0 0 0 0 0 0 0 0 0 0 0 0.25 0"/>
<feBlend mode="normal" in2="BackgroundImageFix" result="effect1_dropShadow_1_6197"/>
<feBlend mode="normal" in="SourceGraphic" in2="effect1_dropShadow_1_6197" result="shape"/>
</filter>
<linearGradient id="paint0_linear_1_6197" x1="155.438" y1="185.169" x2="105.781" y2="11.0488" gradientUnits="userSpaceOnUse">
<stop stop-color="#39D192"/>
<stop offset="1" stop-color="#39D192" stop-opacity="0"/>
</linearGradient>
</defs>
</svg>
