<svg width="198" height="205" viewBox="0 0 198 205" fill="none" xmlns="http://www.w3.org/2000/svg">
<g filter="url(#filter0_d_1_6672)">
<circle cx="99.0798" cy="106.188" r="82.3356" transform="rotate(-101.443 99.0798 106.188)" fill="white" stroke="url(#paint0_linear_1_6672)" stroke-width="3"/>
<mask id="mask0_1_6672" style="mask-type:alpha" maskUnits="userSpaceOnUse" x="26" y="33" width="146" height="146">
<circle cx="99.0798" cy="106.188" r="72.5501" transform="rotate(-101.443 99.0798 106.188)" fill="#FFF4E7"/>
</mask>
<g mask="url(#mask0_1_6672)">
<circle cx="99.0798" cy="106.188" r="72.5501" transform="rotate(-101.443 99.0798 106.188)" fill="#EBFCF5"/>
</g>
<mask id="mask1_1_6672" style="mask-type:alpha" maskUnits="userSpaceOnUse" x="7" y="0" width="190" height="190">
<circle cx="101.779" cy="95.4897" r="94.5" fill="#D9D9D9"/>
</mask>
<g mask="url(#mask1_1_6672)">
<path d="M121.064 121.387L139.834 126.15C139.834 126.15 142.044 124.663 144.697 125.156C147.351 125.651 154.007 131.094 153.748 131.884C153.487 132.676 145.463 136.377 144.313 136.076C140.177 134.996 135.917 130.185 135.917 130.185L119.135 126.733L121.064 121.387Z" fill="white"/>
<path d="M74.7173 53.8863C75.6982 52.8142 76.3688 51.4043 76.815 49.8273C77.3155 48.0586 77.5434 46.0461 77.5964 43.9872C77.6875 40.4514 77.2635 36.7282 76.7759 33.7688L87.2028 42.8471C87.0303 43.5316 86.8758 44.2322 86.7721 44.9324C86.5301 46.4482 86.4722 47.9765 86.8218 49.3889L86.8221 49.3898C86.8385 49.4555 86.8549 49.522 86.8716 49.589C87.1363 50.6566 87.4397 51.8802 88.1164 52.9481C88.7841 54.0016 89.799 54.885 91.4265 55.4012C91.0064 56.275 90.2648 56.7036 89.5504 56.9185C89.1308 57.0448 88.7302 57.0928 88.4328 57.1087C88.285 57.1165 88.1649 57.1163 88.0835 57.1143C88.0429 57.1133 88.0121 57.1118 87.9926 57.1107L87.9719 57.1094L87.9689 57.1091L87.9686 57.1091L87.9684 57.1091L87.9683 57.1091C87.9681 57.1091 87.968 57.1091 87.9682 57.1091L87.9394 57.1066L87.9094 57.1076L87.9093 57.1076L87.9093 57.1076L87.9083 57.1077L87.9036 57.1078L87.8835 57.1084C87.8654 57.1089 87.838 57.1096 87.8018 57.1103C87.7292 57.1118 87.6214 57.1135 87.4822 57.1143C87.2039 57.1158 86.8004 57.1135 86.3038 57.0981C85.3098 57.0675 83.9467 56.9848 82.4682 56.7774C80.9878 56.5697 79.4042 56.2386 77.9642 55.7158C76.6984 55.2562 75.5693 54.6576 74.7173 53.8863Z" fill="white" stroke="black"/>
<g opacity="0.199997">
<path d="M78.4537 38.5542C78.3568 46.0658 84.3348 48.6127 87.3071 49.2686C86.9797 47.9461 87.0293 46.4922 87.2662 45.0093L78.4537 38.5542Z" fill="black"/>
</g>
<path d="M77.9115 39.9638L77.9103 39.9618C75.2055 35.3858 76.0267 31.1892 77.4116 24.1125C77.537 23.4714 77.6671 22.8066 77.7996 22.1158L77.7997 22.1158L77.801 22.1086C78.1022 20.4042 78.7877 18.7952 79.8246 17.4243L79.8269 17.4212C83.4437 12.5623 90.3218 11.5671 95.1697 15.1843L95.1726 15.1864C98.5626 17.6784 99.8405 21.8875 99.7973 26.4114C99.7541 30.9281 98.3902 35.6547 96.6246 39.0236C96.4278 39.3867 96.2254 39.73 96.0066 40.048L96.0066 40.048L96.0032 40.0531C94.3373 42.5391 91.8393 44.1621 89.1643 44.7775L89.1636 44.7777C85.0054 45.741 80.4431 44.2949 77.9115 39.9638Z" fill="white" stroke="black"/>
<path d="M89.52 27.9462C89.3078 28.5913 89.562 29.2299 90.0024 29.3398C90.4418 29.4507 90.92 28.9962 91.0912 28.3382C91.2624 27.6802 91.0384 27.0513 90.6087 26.9436C90.179 26.837 89.6944 27.2775 89.52 27.9462Z" fill="#1A2E35"/>
<path d="M96.7873 29.478C96.5751 30.1231 96.8401 30.7649 97.2698 30.8715C97.6994 30.9803 98.1873 30.528 98.3585 29.87C98.5298 29.212 98.3058 28.5831 97.8761 28.4754C97.4474 28.3688 96.9478 28.8502 96.7873 29.478Z" fill="#1A2E35"/>
<path d="M93.9578 31.6612C94.1874 33.0036 94.5024 34.3082 95.0042 35.6236C94.7078 35.6353 94.3712 35.5832 94.0048 35.4767C93.5637 35.3486 93.1188 35.1534 92.7115 34.9479L93.9578 31.6612Z" stroke="black"/>
<path d="M87.3633 24.4084C87.5022 24.4655 87.6605 24.444 87.779 24.3524C88.5587 23.6966 89.6033 23.4478 90.5952 23.6804C90.8052 23.7504 91.0302 23.6374 91.0992 23.4284C91.1692 23.2195 91.0561 22.9944 90.8461 22.9244C90.8461 22.9244 90.8461 22.9244 90.845 22.9244C89.6561 22.6132 88.2884 22.8803 87.2825 23.7246C87.107 23.8571 87.0715 24.1069 87.2039 24.2824C87.2061 24.2846 87.2072 24.2878 87.2093 24.29C87.2545 24.3374 87.3062 24.3772 87.3633 24.4084Z" fill="#1A2E35"/>
<path d="M90.5467 38.4447C88.633 38.2573 86.771 37.0845 85.7899 35.3463C85.7404 35.2408 85.7845 35.1148 85.8879 35.062C85.9881 35.0093 86.1119 35.047 86.1658 35.146C86.1679 35.1503 86.1701 35.1557 86.1722 35.16C87.1167 36.7571 88.7579 37.8157 90.6027 38.0171C90.7147 38.0257 90.7998 38.1237 90.7911 38.2368C90.7911 38.2433 90.7901 38.2508 90.789 38.2594C90.7804 38.3714 90.6813 38.4565 90.5693 38.4479C90.5618 38.4468 90.5542 38.4457 90.5467 38.4447Z" fill="#1A2E35"/>
<path d="M100.451 27.5487C100.516 27.5961 100.595 27.622 100.676 27.623C100.892 27.5821 101.034 27.3732 100.992 27.1567C100.991 27.1535 100.991 27.1514 100.99 27.1481C100.758 25.8763 99.9198 24.7972 98.7459 24.2555C98.5413 24.1758 98.3098 24.276 98.229 24.4806V24.4817C98.1547 24.6874 98.2538 24.9146 98.4552 24.9986C99.3706 25.453 100.017 26.3135 100.198 27.3183C100.245 27.4281 100.338 27.5132 100.451 27.5487Z" fill="#1A2E35"/>
<path d="M72.0701 27.7874C72.5062 29.854 73.7447 31.6654 75.513 32.8209C77.865 34.3351 79.8648 32.4268 79.9068 29.7743C79.9219 27.4169 78.7481 23.7177 76.0418 23.2966C73.3365 22.8745 71.5671 25.2426 72.0701 27.7874Z" fill="white"/>
<path d="M117.316 74.4116L117.316 74.4117C118.317 77.5938 119.293 82.9772 120.137 88.6257C120.979 94.263 121.683 100.128 122.146 104.254C122.54 107.775 125.211 110.604 128.7 111.21L150.9 115.075L149.236 125.656L120.972 122.942L120.972 122.942C114.87 122.356 109.873 117.842 108.686 111.83C106.932 102.947 104.588 90.0865 103.525 79.9088C103.072 75.5779 102.852 72.0868 102.869 69.3145C102.885 66.5354 103.139 64.5129 103.615 63.1016C104.087 61.7002 104.756 60.9585 105.575 60.6272C106.399 60.2942 107.486 60.3292 108.907 60.7376C108.946 60.7728 109 60.8216 109.068 60.8839C109.226 61.0304 109.457 61.2517 109.745 61.5461C110.32 62.1351 111.119 63.0165 112.007 64.1784C113.784 66.5031 115.913 69.9452 117.316 74.4116Z" fill="#5AE4A7" stroke="black"/>
<g opacity="0.100006">
<path d="M109.153 60.2886C109.153 60.2886 114.944 65.194 117.793 74.2617C119.821 80.7103 121.717 95.9413 122.643 104.198C123.012 107.498 125.515 110.149 128.785 110.718L151.471 114.667L149.657 126.198L120.924 123.439C114.603 122.833 109.425 118.156 108.196 111.927C106.441 103.041 104.094 90.1625 103.027 79.9608C101.214 62.6029 103.102 58.4923 109.153 60.2886Z" fill="black"/>
</g>
<path d="M101.972 226.846L101.96 226.768L101.925 226.697L101.821 226.749C101.925 226.697 101.925 226.697 101.925 226.697L101.925 226.697L101.924 226.694L101.918 226.683L101.897 226.639C101.877 226.6 101.849 226.541 101.811 226.463C101.736 226.308 101.625 226.078 101.482 225.778C101.198 225.18 100.788 224.305 100.287 223.201C99.2845 220.995 97.9194 217.876 96.4685 214.23C93.5639 206.931 90.3261 197.544 88.9559 189.134L87.9624 189.219L88.4624 189.215C87.9624 189.219 87.9624 189.219 87.9624 189.219L87.9624 189.222L87.9625 189.232L87.9628 189.272L87.9638 189.432C87.9643 189.506 87.9648 189.6 87.9654 189.712C87.9659 189.813 87.9664 189.929 87.967 190.06C87.9693 190.613 87.9717 191.43 87.9721 192.483C87.9728 194.589 87.9652 197.642 87.932 201.428C87.8657 209.002 87.6972 219.507 87.2883 231.239C86.4762 254.538 84.7169 282.636 80.9361 302.198L68.077 301.207C68.0509 300.943 68.0128 300.556 67.9634 300.054C67.8627 299.028 67.7152 297.519 67.5284 295.592C67.1548 291.738 66.6239 286.206 65.9946 279.498C64.7359 266.083 63.0837 247.964 61.5096 229.148C59.9354 210.331 58.4395 190.82 57.4931 174.62C56.5723 158.857 56.1754 146.279 56.7212 140.509L108.757 145.05C108.769 145.111 108.783 145.178 108.798 145.252C108.834 145.428 108.878 145.645 108.929 145.899C109.09 146.695 109.326 147.868 109.626 149.375C110.227 152.39 111.087 156.743 112.12 162.095C114.188 172.8 116.952 187.501 119.741 203.488C125.291 235.306 130.927 272.169 131.366 292.772L117.59 298.937C117.502 298.591 117.377 298.095 117.217 297.462C116.884 296.139 116.404 294.218 115.816 291.832C114.64 287.06 113.031 280.425 111.302 272.973C107.842 258.064 103.902 239.902 101.972 226.846Z" fill="#878787" stroke="black"/>
<g opacity="0.600006">
<path d="M101.972 226.846L101.96 226.768L101.925 226.697L101.821 226.749C101.925 226.697 101.925 226.697 101.925 226.697L101.925 226.697L101.924 226.694L101.918 226.683L101.897 226.639C101.877 226.6 101.849 226.541 101.811 226.463C101.736 226.308 101.625 226.078 101.482 225.778C101.198 225.18 100.788 224.305 100.287 223.201C99.2845 220.995 97.9194 217.876 96.4685 214.23C93.5639 206.931 90.3261 197.544 88.9559 189.134L87.9624 189.219L88.4624 189.215C87.9624 189.219 87.9624 189.219 87.9624 189.219L87.9624 189.222L87.9625 189.232L87.9628 189.272L87.9638 189.432C87.9643 189.506 87.9648 189.6 87.9654 189.712C87.9659 189.813 87.9664 189.929 87.967 190.06C87.9693 190.613 87.9717 191.43 87.9721 192.483C87.9728 194.589 87.9652 197.642 87.932 201.428C87.8657 209.002 87.6972 219.507 87.2883 231.239C86.4762 254.538 84.7169 282.636 80.9361 302.198L68.077 301.207C68.0509 300.943 68.0128 300.556 67.9634 300.054C67.8627 299.028 67.7152 297.519 67.5284 295.592C67.1548 291.738 66.6239 286.206 65.9946 279.498C64.7359 266.083 63.0837 247.964 61.5096 229.148C59.9354 210.331 58.4395 190.82 57.4931 174.62C56.5723 158.857 56.1754 146.279 56.7212 140.509L108.757 145.05C108.769 145.111 108.783 145.178 108.798 145.252C108.834 145.428 108.878 145.645 108.929 145.899C109.09 146.695 109.326 147.868 109.626 149.375C110.227 152.39 111.087 156.743 112.12 162.095C114.188 172.8 116.952 187.501 119.741 203.488C125.291 235.306 130.927 272.169 131.366 292.772L117.59 298.937C117.502 298.591 117.377 298.095 117.217 297.462C116.884 296.139 116.404 294.218 115.816 291.832C114.64 287.06 113.031 280.425 111.302 272.973C107.842 258.064 103.902 239.902 101.972 226.846Z" fill="#868686" stroke="black"/>
</g>
<g opacity="0.199997">
<path d="M90.6985 169.526C90.7699 171.49 90.8341 173.724 90.8703 176.071C90.9706 182.572 90.8537 189.878 90.0945 194.73C89.6467 192.859 89.2626 191.005 88.9658 189.197L90.6985 169.526Z" fill="black" stroke="black"/>
</g>
<mask id="path-21-inside-1_1_6672" fill="white">
<path d="M109.153 60.2889C109.153 60.2889 106.825 55.6904 86.3885 54.5026C65.9518 53.3147 56.7958 56.3398 56.7958 56.3398C56.7958 56.3398 58.6481 99.6149 56.2745 139.968C56.2745 139.968 90.4636 152.143 109.173 144.585C109.173 144.585 123.199 92.3198 109.153 60.2889"/>
</mask>
<path d="M109.153 60.2889C109.153 60.2889 106.825 55.6904 86.3885 54.5026C65.9518 53.3147 56.7958 56.3398 56.7958 56.3398C56.7958 56.3398 58.6481 99.6149 56.2745 139.968C56.2745 139.968 90.4636 152.143 109.173 144.585C109.173 144.585 123.199 92.3198 109.153 60.2889" fill="#5AE4A7"/>
<path d="M56.7958 56.3398L56.482 55.3903L55.7643 55.6274L55.7967 56.3826L56.7958 56.3398ZM56.2745 139.968L55.2762 139.91L55.2322 140.659L55.9391 140.91L56.2745 139.968ZM109.173 144.585L109.548 145.512L110.01 145.326L110.139 144.844L109.173 144.585ZM109.153 60.2889C110.045 59.8373 110.044 59.8358 110.043 59.8343C110.043 59.8337 110.042 59.8322 110.042 59.8311C110.041 59.829 110.039 59.8268 110.038 59.8245C110.036 59.82 110.033 59.8152 110.031 59.8102C110.025 59.8001 110.019 59.789 110.012 59.7769C109.998 59.7527 109.981 59.7246 109.96 59.6927C109.919 59.629 109.864 59.5509 109.79 59.4602C109.643 59.2787 109.427 59.0486 109.111 58.7848C108.481 58.2579 107.46 57.5972 105.817 56.9172C102.539 55.5605 96.7257 54.1017 86.4465 53.5042L86.3305 55.5009C96.4881 56.0913 102.057 57.5256 105.052 58.7651C106.545 59.3832 107.383 59.9464 107.828 60.3188C108.05 60.5047 108.175 60.6431 108.235 60.7177C108.265 60.7551 108.28 60.7769 108.282 60.7811C108.284 60.7833 108.282 60.7811 108.278 60.7744C108.277 60.771 108.274 60.7665 108.271 60.7609C108.269 60.758 108.268 60.7549 108.266 60.7515C108.265 60.7498 108.264 60.748 108.263 60.7462C108.263 60.7453 108.262 60.7438 108.262 60.7434C108.261 60.7419 108.26 60.7404 109.153 60.2889ZM86.4465 53.5042C76.1702 52.907 68.7108 53.3678 63.8038 53.9835C61.3505 54.2914 59.5356 54.6379 58.3261 54.9101C57.7214 55.0462 57.2682 55.1637 56.9622 55.2484C56.8092 55.2908 56.693 55.325 56.6132 55.3492C56.5732 55.3613 56.5424 55.371 56.5206 55.3779C56.5096 55.3813 56.501 55.3841 56.4946 55.3862C56.4914 55.3872 56.4887 55.3881 56.4866 55.3888C56.4856 55.3891 56.4847 55.3894 56.4839 55.3897C56.4835 55.3898 56.4831 55.3899 56.4829 55.39C56.4824 55.3901 56.482 55.3903 56.7958 56.3398C57.1095 57.2893 57.1091 57.2894 57.1088 57.2895C57.1088 57.2895 57.1085 57.2896 57.1084 57.2896C57.1082 57.2897 57.1082 57.2897 57.1082 57.2897C57.1084 57.2897 57.1091 57.2894 57.1104 57.289C57.1129 57.2882 57.1177 57.2867 57.1247 57.2844C57.1388 57.28 57.1619 57.2728 57.194 57.263C57.2582 57.2435 57.3587 57.2139 57.496 57.1758C57.7706 57.0998 58.1923 56.9902 58.7653 56.8613C59.9112 56.6034 61.6626 56.2679 64.0529 55.968C68.8331 55.3681 76.1701 54.9103 86.3305 55.5009L86.4465 53.5042ZM56.7958 56.3398C55.7967 56.3826 55.7967 56.3827 55.7967 56.383C55.7967 56.3833 55.7967 56.3837 55.7967 56.3844C55.7968 56.3856 55.7969 56.3875 55.797 56.3901C55.7972 56.3952 55.7975 56.403 55.798 56.4133C55.7988 56.434 55.8001 56.4651 55.8018 56.5064C55.8053 56.589 55.8103 56.7125 55.8168 56.8754C55.8297 57.2011 55.8484 57.6846 55.8714 58.3145C55.9173 59.5744 55.9803 61.42 56.0485 63.7612C56.1849 68.4436 56.3422 75.1077 56.4253 83.032C56.5915 98.8832 56.4611 119.765 55.2762 139.91L57.2728 140.027C58.4615 119.818 58.5917 98.8857 58.4252 83.011C58.3419 75.0723 58.1844 68.3956 58.0477 63.7029C57.9793 61.3565 57.9161 59.506 57.87 58.2417C57.847 57.6095 57.8282 57.1238 57.8152 56.7959C57.8087 56.632 57.8036 56.5075 57.8001 56.4239C57.7984 56.3821 57.7971 56.3505 57.7962 56.3293C57.7958 56.3187 57.7954 56.3107 57.7952 56.3053C57.7951 56.3026 57.795 56.3006 57.7949 56.2992C57.7949 56.2985 57.7949 56.298 57.7949 56.2976C57.7948 56.2972 57.7948 56.297 56.7958 56.3398ZM56.2745 139.968C55.9391 140.91 55.9394 140.91 55.9398 140.911C55.9401 140.911 55.9407 140.911 55.9413 140.911C55.9426 140.912 55.9444 140.912 55.9467 140.913C55.9513 140.915 55.9579 140.917 55.9667 140.92C55.9841 140.926 56.0097 140.935 56.0433 140.947C56.1105 140.97 56.2095 141.005 56.339 141.049C56.598 141.138 56.9787 141.266 57.4689 141.427C58.4492 141.748 59.868 142.197 61.6281 142.712C65.147 143.742 70.0368 145.036 75.5184 146.093C86.4155 148.194 99.8988 149.41 109.548 145.512L108.798 143.658C99.7378 147.318 86.7718 146.226 75.8971 144.129C70.4927 143.087 65.6659 141.81 62.1897 140.793C60.4523 140.284 59.0539 139.842 58.0914 139.526C57.6102 139.369 57.238 139.243 56.9871 139.157C56.8616 139.114 56.7664 139.081 56.7031 139.059C56.6714 139.048 56.6477 139.04 56.6321 139.034C56.6243 139.031 56.6185 139.029 56.6149 139.028C56.613 139.027 56.6117 139.027 56.6109 139.027C56.6105 139.026 56.6102 139.026 56.61 139.026C56.6099 139.026 56.61 139.026 56.2745 139.968ZM109.173 144.585C110.139 144.844 110.139 144.844 110.139 144.843C110.139 144.843 110.139 144.842 110.14 144.841C110.14 144.839 110.141 144.837 110.142 144.833C110.144 144.826 110.146 144.816 110.15 144.803C110.157 144.777 110.167 144.738 110.18 144.687C110.207 144.585 110.246 144.434 110.296 144.237C110.397 143.842 110.542 143.26 110.721 142.509C111.079 141.007 111.575 138.829 112.125 136.117C113.225 130.693 114.545 123.126 115.425 114.551C117.179 97.4445 117.2 76.1512 110.068 59.8873L108.237 60.6905C115.151 76.4574 115.182 97.3122 113.435 114.347C112.564 122.842 111.256 130.342 110.165 135.719C109.62 138.407 109.129 140.563 108.776 142.045C108.599 142.785 108.456 143.358 108.358 143.744C108.309 143.937 108.271 144.083 108.245 144.181C108.233 144.23 108.223 144.267 108.216 144.291C108.213 144.303 108.211 144.312 108.209 144.318C108.209 144.321 108.208 144.323 108.208 144.324C108.207 144.325 108.207 144.325 108.207 144.326C108.207 144.326 108.207 144.326 109.173 144.585Z" fill="black" mask="url(#path-21-inside-1_1_6672)"/>
<g opacity="0.199997">
<path d="M79.0623 54.2389C81.3228 54.268 83.761 54.3498 86.3887 54.5027C87.9663 54.5943 89.4223 54.7084 90.79 54.8366C90.7739 54.8678 89.0476 58.1427 86.3887 58.1438C83.1299 58.1449 80.22 56.242 79.0623 54.2389Z" fill="black"/>
</g>
<g opacity="0.300003">
<path d="M57.3475 110.466L88.4619 126.198C88.4619 126.198 68.8501 126.802 57.1181 120.443C57.2161 117.076 57.2915 113.742 57.3475 110.466Z" fill="black"/>
</g>
<g opacity="0.100006">
<path d="M86.7847 66.6209L75.7236 115.819L78.1854 122.188L86.7847 66.6209Z" fill="black"/>
</g>
<path d="M135.908 130.615L78.7557 121.77L87.202 67.1911L144.355 76.0359L135.908 130.615Z" fill="#5AE4A7" stroke="black"/>
<g opacity="0.100006">
<path d="M135.908 130.615L78.7557 121.77L87.202 67.1911L144.355 76.0359L135.908 130.615Z" fill="white" stroke="black"/>
</g>
<path d="M166.636 135.37L122.566 128.55L131.013 73.9709L175.083 80.791L166.636 135.37Z" fill="#5AE4A7" stroke="black"/>
<g opacity="0.300003">
<path d="M166.636 135.37L122.566 128.55L131.013 73.9709L175.083 80.791L166.636 135.37Z" fill="#5FD09E" stroke="black"/>
</g>
<g opacity="0.300003">
<path d="M156.764 92.2641L145.006 90.4442L147.169 76.4717L158.927 78.2907L156.764 92.2641Z" fill="white" stroke="black"/>
</g>
<g opacity="0.100006">
<path d="M109.193 84.9021L97.435 83.0821L99.5975 69.1097L111.356 70.9286L109.193 84.9021Z" fill="black" stroke="black"/>
</g>
<g opacity="0.199997">
<path d="M125.299 126.345L139.23 128.501L140.542 120.021L126.611 117.865L125.299 126.345Z" fill="white"/>
</g>
<g opacity="0.199997">
<path d="M104.833 125.764L106.265 123.872L110.887 124.856C110.887 124.856 111.261 125.899 111.166 127.291L104.763 126.3L104.833 125.764Z" fill="#263237"/>
</g>
<path d="M78.1064 114.667L96.9202 119.254C96.9202 119.254 99.1161 117.745 101.774 118.214C104.432 118.683 111.14 124.063 110.887 124.856C110.635 125.649 104.402 130.527 103.27 130.166C102.137 129.805 94.8773 124.686 94.8773 124.686L76.9519 123.188L78.1064 114.667Z" fill="white"/>
<path d="M74.807 110.673L74.7907 110.665C67.6799 107.133 63.2486 99.8174 63.4252 91.8791C63.5514 86.2163 63.8015 79.397 64.2935 73.0068L74.807 110.673ZM74.807 110.673L74.8239 110.68M74.807 110.673L74.8239 110.68M74.8239 110.68L89.8836 116.837L88.063 125.656C87.9196 125.641 87.7432 125.623 87.5364 125.6C86.9107 125.532 86.0072 125.428 84.8979 125.283C82.6789 124.993 79.6391 124.541 76.355 123.893C73.0694 123.244 69.5479 122.401 66.3622 121.33C63.1678 120.256 60.3511 118.966 58.4458 117.442L58.4457 117.442M74.8239 110.68L58.4457 117.442M58.4457 117.442C54.6083 114.373 51.9898 109.537 50.4929 104.047C48.9973 98.5627 48.6344 92.4698 49.2706 86.9451C49.6159 83.9462 49.8727 80.9369 50.1193 78.0469C50.1922 77.1927 50.2642 76.349 50.3373 75.5191C50.6586 71.873 51.0016 68.4942 51.5369 65.6242C52.0742 62.7434 52.7953 60.4359 53.8386 58.8959C54.3557 58.1326 54.9421 57.573 55.6106 57.2197C56.2631 56.8748 57.0208 56.712 57.9186 56.7742C57.9255 56.7764 57.9332 56.7789 57.9418 56.7817M58.4457 117.442L57.9418 56.7817M57.9418 56.7817C57.9897 56.7975 58.064 56.8236 58.1606 56.8625M57.9418 56.7817L58.1606 56.8625M58.1606 56.8625C58.3538 56.9402 58.6357 57.0689 58.9742 57.2682M58.1606 56.8625L58.9742 57.2682M58.9742 57.2682C59.6506 57.6664 60.5541 58.3474 61.4291 59.4712M58.9742 57.2682L61.4291 59.4712M61.4291 59.4712C63.1726 61.7103 64.85 65.7699 64.2935 73.0068L61.4291 59.4712Z" fill="#5AE4A7" stroke="black"/>
<g opacity="0.100006">
<path d="M58.0096 56.2796C58.0096 56.2796 65.9196 58.3828 64.792 73.0451C64.301 79.4227 64.0511 86.2321 63.9251 91.8902C63.7528 99.6344 68.0756 106.771 75.0131 110.217L90.4573 116.531L88.4617 126.198C88.4617 126.198 66.0284 124.148 58.1334 117.832C50.2374 111.517 47.488 98.0534 48.7739 86.8879C50.5594 71.3824 49.9671 55.6485 58.0096 56.2796Z" fill="black"/>
</g>
<path d="M88.994 114.054L87.6802 127.535L91.3116 127.884L93.2339 115.266L88.994 114.054Z" fill="#5AE4A7"/>
<g opacity="0.600006">
<path d="M88.994 114.054L87.6802 127.535L91.3116 127.884L93.2339 115.266L88.994 114.054Z" fill="white"/>
</g>
<g opacity="0.399994">
<path d="M69.8286 79.0087L82.3456 80.1287L82.5244 78.131L70.0073 77.011L69.8286 79.0087Z" fill="white"/>
</g>
<path d="M86.3892 54.5028L82.3367 59.9014L73.7956 54.2701V53.7263C73.7956 52.8088 74.1629 51.8815 74.9167 51.3581C75.5919 50.8897 76.4664 50.7798 77.6607 51.1783L86.3892 54.5028Z" fill="#5AE4A7"/>
<path d="M92.0869 54.9303L91.08 53.2729C89.8275 51.7921 88.826 52.5514 88.826 52.5514L86.3889 54.5028L89.9406 59.9014L92.0869 54.9303Z" fill="#5AE4A7"/>
<g opacity="0.600006">
<path d="M77.4927 51.6493C76.4068 51.2892 75.7103 51.4162 75.2019 51.7689L77.4927 51.6493ZM77.4927 51.6493L85.5906 54.7337L82.2192 59.225L74.2956 54.0009V53.7263C74.2956 52.9268 74.6162 52.1755 75.2017 51.7689L77.4927 51.6493Z" fill="white" stroke="black"/>
</g>
<g opacity="0.600006">
<path d="M90.6736 53.5669L91.5255 54.9692L89.8489 58.8523L87.0569 54.6084L89.1241 52.9532C89.1254 52.9524 89.1268 52.9515 89.1284 52.9506C89.1408 52.9431 89.1641 52.9302 89.197 52.9163C89.2629 52.8884 89.3628 52.8583 89.4891 52.8568C89.7145 52.8542 90.1351 52.9424 90.6736 53.5669Z" fill="white" stroke="black"/>
</g>
<path d="M72.2757 27.5645C71.7082 23.8847 74.2627 23.3796 75.9459 23.8255C77.7024 24.2896 79.4459 26.9281 79.4459 26.9281C81.0774 24.2799 82.0079 17.5761 82.0079 17.5761C82.0079 17.5761 87.8125 21.3841 95.6902 18.1587C95.6902 18.1587 96.7197 21.4789 100.143 23.6165C100.143 23.6165 103.173 22.2295 101.487 15.2445C99.5736 7.31624 87.6445 -0.365451 75.626 7.54347C63.6076 15.4524 70.8919 30.1255 70.8919 30.1255C70.8919 30.1255 73.6111 34.9329 76.032 36.7432C76.032 36.7432 75.6734 34.2835 76.0407 32.4645C76.0407 32.4645 72.8293 31.1582 72.2757 27.5645" fill="#263237"/>
<path d="M97.1182 16.1878C96.4623 16.9987 95.6148 17.7773 94.7199 18.4203C93.8217 19.074 92.8331 19.6113 91.7885 20.0141C90.7471 20.4212 89.6454 20.7055 88.5179 20.8003C87.3914 20.9435 86.2499 20.8487 85.1148 20.712C86.2326 20.937 87.3785 21.1233 88.5351 21.0695C89.6917 21.062 90.8494 20.8606 91.964 20.5235C93.0829 20.1897 94.1642 19.7093 95.1668 19.0933C96.1769 18.4741 97.0966 17.7709 97.9539 16.8673L97.1182 16.1878Z" fill="#263237"/>
<path d="M91.3585 97.2258C91.0895 97.1851 90.9754 97.0302 91.0161 96.7613L91.5269 93.3857C91.5676 93.1168 91.7225 93.0027 91.9914 93.0434L93.1423 93.2175C93.8423 93.3235 94.3549 93.5851 94.6801 94.0025C95.0093 94.4205 95.123 94.9656 95.0213 95.638C94.9201 96.3063 94.6502 96.7934 94.2115 97.0992C93.7768 97.4056 93.2094 97.5059 92.5094 97.3999L91.3585 97.2258ZM91.8096 96.6508L92.5571 96.7639C93.5221 96.9099 94.0785 96.4945 94.2263 95.5176C94.3736 94.5447 93.9647 93.9852 92.9997 93.8392L92.2522 93.7261L91.8096 96.6508ZM97.3396 98.1916C96.9362 98.1305 96.5957 97.988 96.3181 97.7639C96.0444 97.5405 95.8488 97.256 95.7312 96.9105C95.6141 96.5611 95.5885 96.1688 95.6544 95.7338C95.7208 95.2948 95.8613 94.9277 96.0759 94.6324C96.2905 94.3372 96.5613 94.1253 96.8882 93.9968C97.2157 93.8643 97.5831 93.8289 97.9905 93.8906C98.3978 93.9522 98.7383 94.0948 99.012 94.3182C99.2862 94.5377 99.4822 94.8202 99.5998 95.1657C99.7174 95.5112 99.7433 95.9015 99.6775 96.3365C99.611 96.7755 99.4702 97.1446 99.255 97.4438C99.0405 97.739 98.7694 97.9528 98.4419 98.0853C98.1144 98.2178 97.747 98.2532 97.3396 98.1916ZM97.4383 97.539C97.822 97.5971 98.1406 97.5098 98.3943 97.2771C98.648 97.0444 98.8104 96.6928 98.8816 96.2222C98.9535 95.7476 98.9023 95.3636 98.7283 95.0702C98.5582 94.7775 98.2793 94.6018 97.8917 94.5431C97.5081 94.4851 97.1897 94.5704 96.9367 94.7991C96.6836 95.0278 96.5212 95.3795 96.4493 95.8541C96.3781 96.3247 96.4292 96.7087 96.6027 97.006C96.7762 97.3033 97.0547 97.481 97.4383 97.539ZM100.481 98.6548C100.243 98.6189 100.143 98.4783 100.18 98.2331L100.714 94.7033C100.733 94.5807 100.777 94.4922 100.846 94.4379C100.919 94.3803 101.005 94.3589 101.104 94.3739C101.195 94.3877 101.26 94.4156 101.298 94.4578C101.34 94.4966 101.387 94.5604 101.439 94.6491L103.141 97.7163L103.535 95.1119C103.572 94.8707 103.708 94.768 103.946 94.8039C104.179 94.8392 104.278 94.9775 104.241 95.2188L103.702 98.7783C103.686 98.889 103.645 98.9718 103.58 99.0267C103.515 99.0816 103.435 99.1019 103.34 99.0875C103.249 99.0738 103.179 99.0449 103.129 99.0009C103.083 98.9575 103.034 98.8915 102.983 98.8028L101.281 95.7297L100.886 98.3399C100.849 98.5852 100.714 98.6901 100.481 98.6548ZM104.604 99.2788C104.465 99.2578 104.374 99.1954 104.329 99.0915C104.284 98.9876 104.303 98.8732 104.387 98.7483L106.478 95.5149C106.547 95.4079 106.621 95.3361 106.699 95.2995C106.782 95.2594 106.871 95.2466 106.966 95.2609C107.057 95.2747 107.134 95.3127 107.197 95.3749C107.265 95.4337 107.316 95.5244 107.35 95.6468L108.397 99.3552C108.44 99.5032 108.426 99.6205 108.356 99.707C108.287 99.7896 108.185 99.8207 108.051 99.8004C107.94 99.7836 107.857 99.7448 107.801 99.6838C107.75 99.6194 107.71 99.5283 107.679 99.4104L107.486 98.6773L105.446 98.3685L105.051 99.0127C104.982 99.1196 104.916 99.1945 104.853 99.2376C104.79 99.2806 104.707 99.2943 104.604 99.2788ZM106.822 96.1312L105.798 97.8029L107.317 98.0327L106.834 96.133L106.822 96.1312ZM109.902 100.081C109.649 100.042 109.542 99.8925 109.581 99.6315L110.066 96.428L108.909 96.2529C108.692 96.22 108.599 96.0968 108.631 95.8832C108.663 95.6736 108.788 95.5852 109.005 95.6182L112.078 96.0832C112.296 96.1161 112.389 96.2374 112.357 96.447C112.325 96.6606 112.2 96.7509 111.982 96.718L110.825 96.5429L110.341 99.7464C110.301 100.007 110.155 100.119 109.902 100.081ZM112.609 100.442C112.34 100.401 112.226 100.246 112.266 99.9772L112.777 96.6016C112.818 96.3327 112.973 96.2186 113.242 96.2593L115.36 96.5798C115.565 96.6109 115.653 96.7253 115.623 96.9231C115.592 97.1287 115.474 97.216 115.268 97.1849L113.476 96.9137L113.302 98.0646L114.963 98.316C115.169 98.3471 115.256 98.4635 115.226 98.6653C115.195 98.867 115.077 98.9522 114.872 98.9211L113.211 98.6697L113.027 99.8859L114.818 100.157C115.024 100.188 115.111 100.305 115.081 100.506C115.05 100.708 114.932 100.793 114.727 100.762L112.609 100.442Z" fill="white"/>
<path d="M138.291 105.033C138.022 104.987 137.912 104.83 137.958 104.562L138.539 101.198C138.586 100.93 138.743 100.819 139.011 100.865L140.158 101.063C140.855 101.184 141.362 101.456 141.679 101.88C141.999 102.305 142.102 102.852 141.986 103.522C141.871 104.188 141.591 104.67 141.146 104.966C140.705 105.264 140.135 105.352 139.438 105.231L138.291 105.033ZM138.754 104.468L139.499 104.597C140.46 104.763 141.025 104.359 141.193 103.385C141.361 102.416 140.964 101.848 140.002 101.682L139.257 101.553L138.754 104.468ZM144.25 106.124C143.848 106.054 143.511 105.905 143.238 105.675C142.969 105.446 142.779 105.157 142.669 104.809C142.559 104.458 142.542 104.065 142.617 103.631C142.692 103.194 142.84 102.83 143.061 102.539C143.282 102.248 143.557 102.042 143.887 101.921C144.217 101.795 144.585 101.767 144.991 101.837C145.397 101.907 145.734 102.057 146.003 102.286C146.273 102.511 146.463 102.798 146.573 103.146C146.683 103.494 146.701 103.884 146.626 104.318C146.551 104.756 146.402 105.122 146.181 105.416C145.96 105.707 145.685 105.915 145.354 106.041C145.024 106.166 144.656 106.194 144.25 106.124ZM144.363 105.473C144.745 105.54 145.065 105.459 145.324 105.232C145.582 105.004 145.752 104.656 145.833 104.187C145.915 103.714 145.872 103.329 145.704 103.032C145.54 102.736 145.265 102.554 144.878 102.488C144.496 102.422 144.176 102.5 143.918 102.724C143.66 102.947 143.491 103.295 143.409 103.768C143.328 104.237 143.371 104.622 143.538 104.923C143.705 105.224 143.98 105.407 144.363 105.473ZM147.381 106.653C147.144 106.612 147.047 106.469 147.089 106.225L147.697 102.707C147.718 102.585 147.764 102.497 147.834 102.444C147.909 102.388 147.995 102.369 148.094 102.386C148.184 102.401 148.248 102.431 148.286 102.474C148.327 102.513 148.373 102.578 148.422 102.668L150.06 105.77L150.509 103.174C150.55 102.934 150.689 102.834 150.926 102.875C151.158 102.915 151.254 103.055 151.212 103.296L150.599 106.843C150.58 106.954 150.538 107.036 150.472 107.089C150.406 107.143 150.325 107.161 150.231 107.145C150.14 107.129 150.07 107.099 150.021 107.054C149.976 107.01 149.929 106.943 149.879 106.853L148.242 103.745L147.793 106.346C147.751 106.591 147.613 106.693 147.381 106.653ZM151.49 107.363C151.352 107.339 151.262 107.274 151.219 107.17C151.176 107.065 151.198 106.951 151.284 106.828L153.443 103.639C153.514 103.533 153.589 103.463 153.668 103.428C153.752 103.39 153.841 103.379 153.935 103.395C154.026 103.411 154.102 103.45 154.165 103.514C154.231 103.574 154.28 103.666 154.312 103.789L155.281 107.518C155.32 107.667 155.304 107.784 155.233 107.869C155.162 107.95 155.059 107.979 154.925 107.956C154.815 107.937 154.733 107.896 154.678 107.834C154.629 107.769 154.59 107.677 154.562 107.558L154.385 106.821L152.351 106.47L151.943 107.106C151.872 107.211 151.804 107.285 151.74 107.327C151.676 107.368 151.593 107.38 151.49 107.363ZM153.773 104.262L152.715 105.912L154.229 106.173L153.785 104.264L153.773 104.262ZM156.77 108.275C156.518 108.231 156.414 108.079 156.459 107.819L157.011 104.627L155.858 104.427C155.641 104.39 155.551 104.265 155.588 104.052C155.624 103.843 155.75 103.757 155.967 103.795L159.03 104.324C159.247 104.361 159.337 104.485 159.301 104.693C159.264 104.906 159.137 104.994 158.92 104.957L157.768 104.757L157.216 107.95C157.171 108.21 157.022 108.318 156.77 108.275ZM159.469 108.692C159.201 108.646 159.09 108.489 159.136 108.221L159.718 104.857C159.764 104.589 159.921 104.478 160.189 104.524L162.3 104.889C162.505 104.924 162.59 105.041 162.556 105.238C162.521 105.443 162.401 105.527 162.196 105.492L160.41 105.183L160.212 106.33L161.867 106.616C162.072 106.652 162.157 106.77 162.123 106.971C162.088 107.172 161.968 107.255 161.763 107.22L160.108 106.934L159.898 108.146L161.684 108.454C161.889 108.489 161.974 108.608 161.939 108.809C161.904 109.01 161.785 109.093 161.58 109.057L159.469 108.692Z" fill="white"/>
</g>
</g>
<defs>
<filter id="filter0_d_1_6672" x="11.2278" y="4.22021" width="175.704" height="193.82" filterUnits="userSpaceOnUse" color-interpolation-filters="sRGB">
<feFlood flood-opacity="0" result="BackgroundImageFix"/>
<feColorMatrix in="SourceAlpha" type="matrix" values="0 0 0 0 0 0 0 0 0 0 0 0 0 0 0 0 0 0 127 0" result="hardAlpha"/>
<feOffset dy="4"/>
<feGaussianBlur stdDeviation="2"/>
<feComposite in2="hardAlpha" operator="out"/>
<feColorMatrix type="matrix" values="0 0 0 0 0 0 0 0 0 0 0 0 0 0 0 0 0 0 0.25 0"/>
<feBlend mode="normal" in2="BackgroundImageFix" result="effect1_dropShadow_1_6672"/>
<feBlend mode="normal" in="SourceGraphic" in2="effect1_dropShadow_1_6672" result="shape"/>
</filter>
<linearGradient id="paint0_linear_1_6672" x1="153.895" y1="190.024" x2="104.239" y2="15.9038" gradientUnits="userSpaceOnUse">
<stop stop-color="#39D192"/>
<stop offset="1" stop-color="#39D192" stop-opacity="0"/>
</linearGradient>
</defs>
</svg>
