<svg width="20" height="17" viewBox="0 0 20 17" fill="none" xmlns="http://www.w3.org/2000/svg">
<path d="M11.0076 1.58488C10.5951 0.749049 9.4026 0.749049 8.9901 1.58488L7.0251 5.56655L2.63093 6.20488C1.70843 6.33822 1.33927 7.47322 2.0076 8.12405L5.18677 11.2232L4.43677 15.5982C4.27843 16.5182 5.24343 17.219 6.06927 16.7849L9.99844 14.7182L13.9284 16.7849C14.7534 17.2182 15.7184 16.5182 15.5618 15.599L14.8101 11.2232L17.9901 8.12322C18.6568 7.47322 18.2893 6.33905 17.3668 6.20488L12.9726 5.56655L11.0076 1.58488V1.58488ZM8.11677 6.17822L9.99844 2.36572L11.8809 6.17822C11.9616 6.34181 12.0808 6.48334 12.2283 6.59062C12.3758 6.69791 12.5471 6.76772 12.7276 6.79405L16.9359 7.40572L13.8909 10.374C13.7604 10.5014 13.6627 10.6586 13.6064 10.8321C13.55 11.0055 13.5367 11.1901 13.5676 11.3699L14.2859 15.5607L10.5226 13.5815C10.3611 13.4966 10.1813 13.4522 9.99885 13.4522C9.81636 13.4522 9.63661 13.4966 9.4751 13.5815L5.71177 15.5607L6.4301 11.369C6.46083 11.1894 6.44746 11.005 6.39114 10.8317C6.33481 10.6584 6.23723 10.5013 6.10677 10.374L3.06177 7.40572L7.2701 6.79405C7.63677 6.74072 7.95343 6.51072 8.11677 6.17822V6.17822ZM0.970101 2.15072C0.866678 2.28023 0.818937 2.44553 0.837377 2.61025C0.855818 2.77496 0.938931 2.92561 1.06843 3.02905L3.15177 4.69572C3.21564 4.74882 3.28945 4.78865 3.3689 4.8129C3.44834 4.83714 3.53182 4.84531 3.61446 4.83692C3.6971 4.82853 3.77723 4.80375 3.85018 4.76403C3.92313 4.72432 3.98744 4.67046 4.03933 4.6056C4.09123 4.54075 4.12967 4.4662 4.15243 4.38631C4.17518 4.30643 4.18178 4.22281 4.17184 4.14034C4.1619 4.05788 4.13563 3.97822 4.09455 3.90603C4.05347 3.83383 3.99842 3.77055 3.9326 3.71988L1.84927 2.05322C1.78516 2.00183 1.71156 1.96359 1.63266 1.94068C1.55377 1.91776 1.47113 1.91063 1.38947 1.91969C1.30781 1.92874 1.22875 1.95381 1.15679 1.99345C1.08483 2.03309 1.02139 2.08653 0.970101 2.15072V2.15072ZM19.0301 14.1815C19.1336 14.0521 19.1815 13.8869 19.1632 13.7222C19.1449 13.5575 19.062 13.4068 18.9326 13.3032L16.8493 11.6365C16.7852 11.5852 16.7116 11.547 16.6328 11.5241C16.554 11.5012 16.4714 11.4941 16.3898 11.5031C16.225 11.5213 16.0742 11.6042 15.9705 11.7336C15.9192 11.7977 15.881 11.8713 15.8581 11.9501C15.8352 12.0289 15.8281 12.1115 15.8371 12.1931C15.8553 12.3579 15.9382 12.5087 16.0676 12.6124L18.1509 14.279C18.215 14.3304 18.2886 14.3687 18.3675 14.3916C18.4464 14.4145 18.5291 14.4216 18.6107 14.4126C18.6924 14.4035 18.7715 14.3785 18.8434 14.3388C18.9154 14.2992 18.9788 14.2457 19.0301 14.1815V14.1815ZM1.06843 13.3032C1.00262 13.3539 0.947563 13.4172 0.906486 13.4894C0.865408 13.5616 0.839133 13.6412 0.829196 13.7237C0.819259 13.8061 0.825859 13.8898 0.848611 13.9696C0.871363 14.0495 0.90981 14.1241 0.961705 14.1889C1.0136 14.2538 1.0779 14.3076 1.15085 14.3474C1.2238 14.3871 1.30394 14.4119 1.38658 14.4203C1.46921 14.4286 1.55269 14.4205 1.63214 14.3962C1.71158 14.372 1.7854 14.3321 1.84927 14.279L3.9326 12.6124C4.0585 12.5077 4.13831 12.3578 4.15484 12.1949C4.17138 12.032 4.12334 11.8691 4.02104 11.7413C3.91875 11.6135 3.77037 11.5309 3.60781 11.5113C3.44526 11.4917 3.28151 11.5367 3.15177 11.6365L1.06843 13.3032ZM19.0301 2.14988C19.1336 2.2793 19.1815 2.44453 19.1632 2.60924C19.1449 2.77395 19.062 2.92465 18.9326 3.02822L16.8493 4.69488C16.7852 4.74621 16.7116 4.78441 16.6328 4.80731C16.554 4.83021 16.4714 4.83735 16.3898 4.82834C16.3082 4.81932 16.2292 4.79432 16.1572 4.75477C16.0853 4.71521 16.0218 4.66187 15.9705 4.5978C15.9192 4.53373 15.881 4.46017 15.8581 4.38133C15.8352 4.30249 15.8281 4.21992 15.8371 4.13832C15.8461 4.05672 15.8711 3.97769 15.9106 3.90576C15.9502 3.83382 16.0035 3.77037 16.0676 3.71905L18.1509 2.05238C18.215 2.001 18.2886 1.96276 18.3675 1.93984C18.4464 1.91693 18.5291 1.9098 18.6107 1.91886C18.6924 1.92791 18.7715 1.95298 18.8434 1.99262C18.9154 2.03226 18.9788 2.0857 19.0301 2.14988V2.14988Z" fill="#39D192"/>
</svg>
