<svg id="Layer_1" data-name="Layer 1" xmlns="http://www.w3.org/2000/svg" xmlns:xlink="http://www.w3.org/1999/xlink" viewBox="0 0 811.97 738.85"><defs><linearGradient id="linear-gradient" x1="509.06" y1="781.73" x2="459.4" y2="607.61" gradientTransform="translate(864.89 170.33) rotate(103.06)" gradientUnits="userSpaceOnUse"><stop offset="0" stop-color="#39d192"/><stop offset="1" stop-color="#39d192" stop-opacity="0"/></linearGradient><mask id="mask" x="11.29" y="412.79" width="145.1" height="145.1" maskUnits="userSpaceOnUse"><g transform="translate(-0.01 0)"><g id="mask-2" data-name="mask"><g id="mask0_960_200" data-name="mask0 960 200"><circle cx="83.85" cy="485.34" r="72.55" style="fill:#fff4e7"/></g></g></g></mask><linearGradient id="linear-gradient-2" x1="436.35" y1="294.81" x2="386.69" y2="120.69" gradientTransform="translate(-16.78 -102.99)" xlink:href="#linear-gradient"/><mask id="mask-3" x="320.78" y="27.28" width="145.11" height="145.11" maskUnits="userSpaceOnUse"><g transform="translate(-0.01 0)"><g id="mask-2-2" data-name="mask-2"><g id="mask1_960_200" data-name="mask1 960 200"><circle cx="393.34" cy="99.83" r="72.55" style="fill:#fff4e7"/></g></g></g></mask><mask id="mask-4" x="636.5" y="385" width="189" height="189" maskUnits="userSpaceOnUse"><g transform="translate(-0.01 0)"><g id="mask-3-2" data-name="mask-3"><g id="mask2_960_200" data-name="mask2 960 200"><circle cx="731.01" cy="479.5" r="94.5" style="fill:#d9d9d9"/></g></g></g></mask><linearGradient id="linear-gradient-3" x1="-202.76" y1="506.7" x2="-252.42" y2="332.58" gradientTransform="translate(276.18 350.02) rotate(-101.53)" xlink:href="#linear-gradient"/><mask id="mask-5" x="655.58" y="419.08" width="145.1" height="145.1" maskUnits="userSpaceOnUse"><g transform="translate(-0.01 0)"><g id="mask-4-2" data-name="mask-4"><g id="mask0_960_201" data-name="mask0 960 201"><circle cx="728.14" cy="491.63" r="72.55" style="fill:#fff4e7"/></g></g></g></mask><mask id="mask-6" x="636.33" y="386.43" width="189" height="301.85" maskUnits="userSpaceOnUse"><g transform="translate(-0.01 0)"><g id="mask-5-2" data-name="mask-5"><g id="mask1_960_201" data-name="mask1 960 201"><circle cx="730.84" cy="480.93" r="94.5" style="fill:#d9d9d9"/></g></g></g></mask><mask id="mask-7" x="684.33" y="438.63" width="61.11" height="94.81" maskUnits="userSpaceOnUse"><g transform="translate(-0.01 0)"><g id="mask-6-2" data-name="mask-6"><g id="path-21-inside-1_960_201" data-name="path-21-inside-1 960 201"><path d="M738.23,445.73s-2.33-4.6-22.77-5.79-29.59,1.84-29.59,1.84,1.85,43.27-.52,83.63c0,0,34.19,12.17,52.9,4.61,0,0,14-52.26,0-84.29" style="fill:#fff"/></g></g></g></mask></defs><path d="M200.33,174.72a3.28,3.28,0,0,1-.62.72c-11,7.57-21.38,15.76-31.39,24.18-16.32,13.74-30.79,29.13-42.22,46.16a155.17,155.17,0,0,0-23.39,53.92A109.72,109.72,0,0,0,100.29,324c0,1.41,0,2.82-.07,4.21a2.23,2.23,0,0,1-1.78,2.11,2,2,0,0,1-2.23-1.46,31,31,0,0,1-1.29-4.42,59.85,59.85,0,0,1-.55-16.69c1.14-13.39,5-26.75,10.57-39.74a181,181,0,0,1,28.14-44.61A217.92,217.92,0,0,1,164,193.52c9.07-7.23,19.12-13.23,29.29-19a20.13,20.13,0,0,1,4.14-1.76C199.23,172.15,199.82,172.63,200.33,174.72Z" transform="translate(-0.01 0)" style="fill:#39d192"/><path d="M241,158c-2.25-.91-4.3-.57-6.24-.47-10.44.58-20.93,1.74-31.43,3.25q-8.49,1.23-17,2.62a22.12,22.12,0,0,1-4.88,0c-.43,0-.81-.7-.9-1.17a1.5,1.5,0,0,1,.74-1.14,26.14,26.14,0,0,1,4.39-1.59,347.89,347.89,0,0,1,40.94-7.09c4.38-.49,8.75-.66,13.1-.78a26.13,26.13,0,0,1,5.45.21c4.07.72,5.69,3.56,4,6.91a23.17,23.17,0,0,1-3.68,5.21,218.27,218.27,0,0,1-18.94,17.55c-1.67,1.4-3.32,2.82-5,4.24a3.09,3.09,0,0,1-3.42.65,2.28,2.28,0,0,1-.92-2.92,14.28,14.28,0,0,1,1.37-2.32A57.31,57.31,0,0,1,227.43,171q4.89-4.5,10-9A13.9,13.9,0,0,0,241,158Z" transform="translate(-0.01 0)" style="fill:#39d192"/><path d="M684.05,292.55a4,4,0,0,1-.41-.86c-2.42-13.15-5.69-25.95-9.32-38.51-5.9-20.5-14.07-40-25-57.35a155.13,155.13,0,0,0-39.73-43.3,109.65,109.65,0,0,0-21.21-12.1c-1.29-.56-2.58-1.13-3.82-1.78a2.24,2.24,0,0,1-1.2-2.48,2,2,0,0,1,2.24-1.45,31.84,31.84,0,0,1,4.56.62,60.17,60.17,0,0,1,15.47,6.29c11.77,6.5,22.41,15.44,32,25.83a180.78,180.78,0,0,1,29.3,43.85,216.89,216.89,0,0,1,14.73,40.41c2.92,11.23,4.3,22.86,5.47,34.51a21.73,21.73,0,0,1-.08,4.49C686.84,292.61,686.17,292.93,684.05,292.55Z" transform="translate(-0.01 0)" style="fill:#39d192"/><path d="M682.73,336.51c1.75-1.67,2.27-3.69,3-5.51,3.72-9.76,6.93-19.82,9.82-30,1.56-5.5,3.06-11,4.54-16.6a20.94,20.94,0,0,1,1.94-4.48c.2-.38,1-.45,1.44-.34a1.51,1.51,0,0,1,.73,1.14,26,26,0,0,1-.32,4.66,348.7,348.7,0,0,1-10.19,40.28c-1.34,4.2-3,8.26-4.61,12.29a27.76,27.76,0,0,1-2.41,4.89c-2.32,3.43-5.57,3.74-7.94.82a22.44,22.44,0,0,1-3.26-5.47,217.25,217.25,0,0,1-8.33-24.45c-.6-2.09-1.23-4.17-1.85-6.25a3.08,3.08,0,0,1,.79-3.39,2.27,2.27,0,0,1,3,.35,14,14,0,0,1,1.56,2.19,56.72,56.72,0,0,1,5.76,12.2c1.43,4.21,2.8,8.47,4.15,12.76A13.8,13.8,0,0,0,682.73,336.51Z" transform="translate(-0.01 0)" style="fill:#39d192"/><path d="M351.12,712.45a3.7,3.7,0,0,1,.94.08c12.6,4.47,25.32,8,38,11.19,20.7,5.13,41.66,7.8,62.16,7s39.87-5,57.36-12.77a108.69,108.69,0,0,0,21.08-12.31c1.13-.84,2.27-1.67,3.46-2.41a2.21,2.21,0,0,1,2.74.19,2,2,0,0,1,.14,2.67,33.06,33.06,0,0,1-2.82,3.64A60.23,60.23,0,0,1,521,720c-11.5,6.94-24.57,11.69-38.37,14.8A181.28,181.28,0,0,1,430,738.26a218.21,218.21,0,0,1-42.36-7.45c-11.18-3.09-21.94-7.71-32.61-12.52a21.08,21.08,0,0,1-3.82-2.28C349.67,714.84,349.73,714.1,351.12,712.45Z" transform="translate(-0.01 0)" style="fill:#39d192"/><path d="M313.71,689.33c.57,2.35,2.06,3.81,3.28,5.32,6.6,8.1,13.71,15.91,21.1,23.52q6,6.15,12.12,12.23a22.2,22.2,0,0,1,2.9,3.92c.23.36-.09,1.07-.42,1.41a1.49,1.49,0,0,1-1.36.07,25.23,25.23,0,0,1-3.87-2.61,348.51,348.51,0,0,1-29.79-29c-3-3.26-5.67-6.69-8.34-10.14a27.36,27.36,0,0,1-3-4.53c-1.81-3.72-.47-6.7,3.25-7.29a22.66,22.66,0,0,1,6.37-.09,220.36,220.36,0,0,1,25.34,5c2.11.53,4.23,1,6.34,1.53a3.06,3.06,0,0,1,2.53,2.38,2.27,2.27,0,0,1-1.82,2.46,14.15,14.15,0,0,1-2.68.26,57.11,57.11,0,0,1-13.43-1.06c-4.36-.87-8.73-1.81-13.12-2.79A13.53,13.53,0,0,0,313.71,689.33Z" transform="translate(-0.01 0)" style="fill:#39d192"/><circle cx="83.84" cy="485.34" r="82.34" style="fill:#fff;stroke-width:2.999999948657187px;stroke:url(#linear-gradient)"/><g style="mask:url(#mask)"><circle cx="83.84" cy="485.34" r="72.55" style="fill:#ebfcf5"/></g><path d="M71.57,454.36l.45,5.78v.14a9.67,9.67,0,0,0-1.2-.08,54.9,54.9,0,0,0-11.51,1.9c-2.44.6-4.2,1.12-4.2,1.12l-.53-2.08-2-7.82c-1.61-1.38-4.07-6.82-4.07-6.82a6.44,6.44,0,0,1-5-4.66c-.54-2.54,2.58-2.29,2.58-2.29l2-1.25,2.53-6.91s-2.23-5.15,2.16-7.23,19.28,5.15,19.28,5.15l1.62,6.76c2.07.85-.12,5.92-.12,5.92s.2.08.42,3.07S71.57,454.36,71.57,454.36Z" transform="translate(-0.01 0)" style="fill:#fff"/><path d="M66.59,438.28c.66,2.52,3,4.31,2.91,5a2.57,2.57,0,0,1-2.07,2" transform="translate(-0.01 0)" style="fill:none;stroke:#263238;stroke-linecap:round;stroke-linejoin:round;stroke-width:1.2706700563430786px"/><path d="M71.23,434.24a2.45,2.45,0,0,0-3.46.24c-.06.08-.12.15-.17.23" transform="translate(-0.01 0)" style="fill:none;stroke:#263238;stroke-linecap:round;stroke-linejoin:round;stroke-width:2.5426700115203857px"/><path d="M59.43,446.94s1,2.72,5.2,2.63" transform="translate(-0.01 0)" style="fill:none;stroke:#263238;stroke-linecap:round;stroke-linejoin:round;stroke-width:1.2706700563430786px"/><path d="M62.1,436.37a3.14,3.14,0,0,0-4.39.75,3.35,3.35,0,0,0-.27.45" transform="translate(-0.01 0)" style="fill:none;stroke:#263238;stroke-linecap:round;stroke-linejoin:round;stroke-width:2.5426700115203857px"/><path d="M61.88,440.33c.14.74-.07,1.4-.47,1.47s-.83-.46-1-1.19.07-1.4.46-1.47S61.74,439.6,61.88,440.33Z" transform="translate(-0.01 0)" style="fill:#263238"/><path d="M70.4,438.68c.14.73-.07,1.39-.46,1.47s-.83-.46-1-1.2.06-1.39.46-1.47S70.23,437.94,70.4,438.68Z" transform="translate(-0.01 0)" style="fill:#263238"/><path d="M48.35,441.38s-3.47-3-4.56-.93,2.46,6.85,5.81,5.38" transform="translate(-0.01 0)" style="fill:none;stroke:#263238;stroke-linecap:round;stroke-linejoin:round;stroke-width:1.2706700563430786px"/><path d="M71.63,430.13s.26,8.67,1.22,10.6,1.78,2.88.77,7.91-4.87,10.91-9,11.3-13.53-5.87-16.22-13.69" transform="translate(-0.01 0)" style="fill:none;stroke:#263238;stroke-linecap:round;stroke-linejoin:round;stroke-width:1.2706700563430786px"/><path d="M48.44,441.74s2.52-1.3,2.06-3.56-.14-2.52,1.66-3.68.69-3.55-1-5.91,1.56-5.17,4.23-4,17.9,7.17,22,5.39,2.92-7.46-2.59-10.64c0,0-3-3.54-2.18-6.82s-18.28-13.13-27.22,7c0,0-4.24,1.66-5.12,7.37s5.27,12.9,5.27,12.9A13.71,13.71,0,0,1,48.44,441.74Z" transform="translate(-0.01 0)" style="fill:#263238"/><path d="M51,423.58a6.69,6.69,0,0,1,6.32-2.24,16.91,16.91,0,0,1,6.41,2.77,30.18,30.18,0,0,0,6.14,3.4,6.69,6.69,0,0,0,3.93.32,3.77,3.77,0,0,0,2.41-1.93" transform="translate(-0.01 0)" style="fill:none;stroke:#fff;stroke-linecap:round;stroke-linejoin:round;stroke-width:1.2706700563430786px"/><path d="M47.05,422a4.72,4.72,0,0,0-3.82,3,7.65,7.65,0,0,0-.12,5,16.48,16.48,0,0,0,1.41,3.29" transform="translate(-0.01 0)" style="fill:none;stroke:#fff;stroke-linecap:round;stroke-linejoin:round;stroke-width:1.2706700563430786px"/><path d="M71.9,453.58a8.66,8.66,0,0,0-.23,3,25.53,25.53,0,0,0,.39,3.49" transform="translate(-0.01 0)" style="fill:none;stroke:#263238;stroke-linecap:round;stroke-linejoin:round;stroke-width:1.2706700563430786px"/><path d="M52.6,453c.81,2.9,1.72,6.39,2.56,10.26" transform="translate(-0.01 0)" style="fill:none;stroke:#263238;stroke-linecap:round;stroke-linejoin:round;stroke-width:1.2706700563430786px"/><path d="M72.16,437.62s.77-2.1,2.24-1.17-.87,5.67-.87,5.67" transform="translate(-0.01 0)" style="fill:none;stroke:#263238;stroke-linecap:round;stroke-linejoin:round;stroke-width:1.2706700563430786px"/><path d="M74.3,428.67s.73,6-1,7.85l-1.36.41L71.23,429Z" transform="translate(-0.01 0)" style="fill:#263238"/><path d="M39.33,421.2s-4.79-.33-9.42-5.84S29,406,31.34,403.9s8-7.75,10.38-10.38,7.14-6,12.53-5.13S64.87,392.49,70,394s10.23,7.11,11,10.75-.86,9.36-2.74,10.73l-3.23-.1,1.43,4.9s-19.23-7.59-36.38,6.66l1.45-5.1Z" transform="translate(-0.01 0)" style="fill:#fff"/><path d="M48.16,414.68c0,2.18,0,4.36.16,6.53l-8,5.92,2-9.6Z" transform="translate(-0.01 0)" style="fill:#39d192"/><g style="opacity:0.6000059843063354"><path d="M48.16,414.68c0,2.18.09,4.6.23,6.77l-8,5.68,2-9.6Z" transform="translate(-0.01 0)" style="fill:#39d192"/></g><path d="M49.1,388.5a2,2,0,0,1,2.16.66,3.38,3.38,0,0,1,.71,2.25c0,2.63-2,4.85-4.12,6.37s-4.59,2.63-6.47,4.47a11.22,11.22,0,0,0-.2,15.87l.2.2.64.61-.66,2.69s-8.54-1.11-11.43-6.26-2-7.55.54-10.6,5.86-4.67,9.11-9.29S49.1,388.5,49.1,388.5Z" transform="translate(-0.01 0)" style="fill:#39d192"/><g style="opacity:0.6000059843063354"><path d="M49.1,388.5a2,2,0,0,1,2.16.66,3.38,3.38,0,0,1,.71,2.25c0,2.63-2,4.85-4.12,6.37s-4.59,2.63-6.47,4.47a11.22,11.22,0,0,0-.2,15.87l.2.2.64.61-.66,2.69s-8.54-1.11-11.43-6.26-2-7.55.54-10.6,5.86-4.67,9.11-9.29S49.1,388.5,49.1,388.5Z" transform="translate(-0.01 0)" style="fill:#39d192"/></g><path d="M40.36,427.13s13.19-13.67,36-6.6l-2.81-7.75a43.8,43.8,0,0,0-31.27,4.75Z" transform="translate(-0.01 0)" style="fill:none;stroke:#263238;stroke-linecap:round;stroke-linejoin:round;stroke-width:1.2706700563430786px"/><path d="M75.1,416.93c1.62-.26,4.78-2.06,5.5-3.54a10.51,10.51,0,0,0,.86-4.82,14.83,14.83,0,0,0-1.59-6.79c-2.45-4.52-7.61-6.74-12.39-8.64l-9-3.55A18.86,18.86,0,0,0,52.93,388c-3.85-.25-7.49,1.89-10.31,4.54s-5.08,5.84-8,8.44c-1.39,1.27-2.92,2.39-4.22,3.76a8.66,8.66,0,0,0-2.54,4.93c-.28,2.71,1.31,5.27,3.26,7.16s3.86,4.06,10.13,4.81" transform="translate(-0.01 0)" style="fill:none;stroke:#263238;stroke-linecap:round;stroke-linejoin:round;stroke-width:1.2706700563430786px"/><path d="M65.68,411.73a11.58,11.58,0,0,0,3.35-3" transform="translate(-0.01 0)" style="fill:none;stroke:#263238;stroke-linecap:round;stroke-linejoin:round;stroke-width:1.2706700563430786px"/><path d="M46.69,415.19a8.36,8.36,0,0,1-5-4.81" transform="translate(-0.01 0)" style="fill:none;stroke:#263238;stroke-linecap:round;stroke-linejoin:round;stroke-width:1.2706700563430786px"/><path d="M48.35,392.22c-2.12-.15-4,1.4-5.32,3s-2.57,3.51-4.47,4.47" transform="translate(-0.01 0)" style="fill:none;stroke:#263238;stroke-linecap:round;stroke-linejoin:round;stroke-width:1.2706700563430786px"/><path d="M46.46,516.27,45,514.86c-2.45-1.48-11.58-3.21-11.58-3.21l6.43-9.29s6.78,10.5,7.08,11.39A4.5,4.5,0,0,1,46.46,516.27Zm78.3-31-19.53,15.28s-7.49-24.42-7.93-27.46c-1.2-2.93-5.56-7-5.56-7s-16-.79-17.16-1.45-1.28-4.49-1.28-4.49H72l-1.19.06a68.28,68.28,0,0,0-11.35,2.08c-3,.8-5.16,1.5-5.16,1.5l1.18,5.14-.86,1.28c-2.8,2.1-18.16,7.19-22.14,9a63,63,0,0,0-5,4.39s-13.78,27-15.92,30.33a13.25,13.25,0,0,0-2,6.9c1.58,3.38,3.91,3.6,6.31,4.43a8.58,8.58,0,0,1,1.18.48c2.81,1.31,27.53-.65,27.53-.65s-1.78,8.81,6.33,5.46c13-5.36,44-1.65,44-1.65L94.13,509l7,8a7.2,7.2,0,0,0,7.24-.53c6-3.88,23.44-25.33,23.44-25.33-1.69-4-7.07-5.9-7.07-5.9" transform="translate(-0.01 0)" style="fill:#fff"/><path d="M60,537.46l1.46,31.38s-4.77-1.19-6.09-3.17-4.28-31.74-4.28-31.74,2.82,2.61,8.91,3.53" transform="translate(-0.01 0)" style="fill:#39d192"/><g style="opacity:0.5599979758262634"><path d="M60,537.46l1.46,31.38s-4.77-1.19-6.09-3.17-4.28-31.74-4.28-31.74,2.82,2.61,8.91,3.53" transform="translate(-0.01 0)" style="fill:#fff"/></g><path d="M47.23,514.26l-7.44-11.6L46,494.41s.46,4.66,3.23,6.83c4.43,3.46,3.46,14.08,3.46,14.08Z" transform="translate(-0.01 0)" style="fill:#39d192"/><g style="opacity:0.6000059843063354"><path d="M47.23,514.26l-7.44-11.6L46,494.41s.46,4.66,3.23,6.83c4.43,3.46,3.46,14.08,3.46,14.08Z" transform="translate(-0.01 0)" style="fill:#39d192"/></g><path d="M92.49,484s5.42,24.07,8.55,27.91,3.2-11.11,4.31-11.32,3,8.76,2.24,11.47c0,0,.43,1.42,2,0s21.08-19.51,21.08-19.51-20,25.36-25.78,25.2c-4.84.67-10.08-8-10.08-8Z" transform="translate(-0.01 0)" style="fill:#39d192"/><g style="opacity:0.6000059843063354"><path d="M92.49,484s5.42,24.07,8.55,27.91,3.2-11.11,4.31-11.32,3,8.76,2.24,11.47c0,0,.43,1.42,2,0s21.08-19.51,21.08-19.51-20,25.36-25.78,25.2c-4.84.67-10.08-8-10.08-8Z" transform="translate(-0.01 0)" style="fill:#39d192"/></g><path d="M34.42,510.16l-1.19,1.61s-9.61-1.21-17.37,13.47c-2.4-.83-4.73-1-6.31-4.43a13.25,13.25,0,0,1,2-6.9c2.14-3.3,16.08-30.65,16.08-30.65a24.2,24.2,0,0,1,4.84-4.07c9.94-5.25,19.34-6.89,22.14-9l.86-1.28-1.18-5.14s2.13-.7,5.16-1.5L61,469a4.69,4.69,0,0,1-2.88,5.46l-22.67,8.75a6.33,6.33,0,0,0-3.36,3.06L19.72,511.36C19.93,511.13,24.88,506.11,34.42,510.16Z" transform="translate(-0.01 0)" style="fill:#39d192"/><g style="opacity:0.6000059843063354"><path d="M34.42,510.16l-1.19,1.61s-9.61-1.21-17.37,13.47c-2.4-.83-4.73-1-6.31-4.43a13.25,13.25,0,0,1,2-6.9c2.14-3.3,16.08-30.65,16.08-30.65s3-2.7,4.84-4.07c9.41-4.86,19.34-6.89,22.14-9l.86-1.28-1.18-5.14s2.13-.7,5.16-1.5L61,469a4.69,4.69,0,0,1-2.88,5.46l-22.67,8.75a6.33,6.33,0,0,0-3.36,3.06L19.72,511.36C19.93,511.13,24.88,506.11,34.42,510.16Z" transform="translate(-0.01 0)" style="fill:#39d192"/></g><path d="M126.75,484.11l6-8.47s4.23-2.84,5.77-3.57,1.75-2.19,2.48-1.68.07,3.5-1.46,4.45-3.29,1.9-3.07,2.56,9.12-.15,9.12-.15,11.36-.16,11.51.72-7.06,2.2-7.06,2.2,7.77-.09,7.79.35-4.43,2-4.43,2,3.14.16,3,.85-3.36,1.56-3.36,1.56-6.56,4-8,4.67-11.51-.59-11.51-.59l-1.7,2.21s-2.89-4.1-6-5.85Z" transform="translate(-0.01 0)" style="fill:#fff"/><path d="M104.69,510.12a69.24,69.24,0,0,0,.61-9.43" transform="translate(-0.01 0)" style="fill:none;stroke:#263238;stroke-linecap:round;stroke-linejoin:round;stroke-width:1.2706700563430786px"/><path d="M72.05,460.18h1.48l.48,3.05A2.09,2.09,0,0,0,76,465l15.39,1c1.13,0,5.42,5.87,6.14,8.08l7.76,26.54,19.41-15.42s3.81.51,7.07,6c0,0-12.51,16.64-23.85,25.53-1.66,1.29-5.38,1.58-6.86.09a73.79,73.79,0,0,1-6.5-7.08" transform="translate(-0.01 0)" style="fill:none;stroke:#263238;stroke-linecap:round;stroke-linejoin:round;stroke-width:1.2706700563430786px"/><path d="M43,502l3.89-2.51" transform="translate(-0.01 0)" style="fill:none;stroke:#263238;stroke-linecap:round;stroke-linejoin:round;stroke-width:1.2706700563430786px"/><path d="M44.4,502.87a8.86,8.86,0,0,1,3.19-.43" transform="translate(-0.01 0)" style="fill:none;stroke:#263238;stroke-linecap:round;stroke-linejoin:round;stroke-width:1.2706700563430786px"/><path d="M39.89,502.59a111.86,111.86,0,0,1,6.56,10.24,3.63,3.63,0,0,1,.38,2.6l-9.44,41.79" transform="translate(-0.01 0)" style="fill:none;stroke:#263238;stroke-linecap:round;stroke-linejoin:round;stroke-width:1.2706700563430786px"/><path d="M91.45,477.5,94.71,509c.21,7.06.74,11.53,1,20.39" transform="translate(-0.01 0)" style="fill:none;stroke:#263238;stroke-linecap:round;stroke-linejoin:round;stroke-width:1.2706700563430786px"/><path d="M55.1,470l4.39,28,5.86-2a34.82,34.82,0,0,1,12.53-1.77l6,.24-7.22-29.85H79.4l15.41,45.11,1,20s-28.68-6.3-44.75,2.19l1.17,12.37a114.29,114.29,0,0,1,1.57,13.17L41,557.23H37.39l9.31-40.89s8.06.6,7.81-5.87-2.46-39-2.46-39Z" transform="translate(-0.01 0)" style="fill:#263238"/><path d="M66.78,469.69a1.34,1.34,0,1,1-1.35-1.33h0A1.34,1.34,0,0,1,66.78,469.69Z" transform="translate(-0.01 0)" style="fill:#263238"/><path d="M68.3,476.17A1.34,1.34,0,1,1,67,474.84h0A1.34,1.34,0,0,1,68.3,476.17Z" transform="translate(-0.01 0)" style="fill:#263238"/><path d="M75.3,511.79q7.23-1.21,14.54-1.91" transform="translate(-0.01 0)" style="fill:none;stroke:#fff;stroke-linecap:round;stroke-linejoin:round;stroke-width:1.2706700563430786px"/><path d="M67,513.37c2-.41,4-.79,6-1.16" transform="translate(-0.01 0)" style="fill:none;stroke:#fff;stroke-linecap:round;stroke-linejoin:round;stroke-width:1.2706700563430786px"/><path d="M89.85,511.6Q84,514,78,516.09" transform="translate(-0.01 0)" style="fill:none;stroke:#fff;stroke-linecap:round;stroke-linejoin:round;stroke-width:1.2706700563430786px"/><path d="M88.93,478.13a56.15,56.15,0,0,0,1.76,7.57" transform="translate(-0.01 0)" style="fill:none;stroke:#263238;stroke-linecap:round;stroke-linejoin:round;stroke-width:1.2706700563430786px"/><path d="M145.66,480.87S157,479,157.09,478s-8.18-.49-10.12-.64-10.08.88-10.35.37.39-.63,2.18-2.13,3.11-4.13,2.63-5-2.08,1-3.3,1.7c-1,.55-4.71,2.67-5.4,3.6s-5.17,7.13-6.88,9.49" transform="translate(-0.01 0)" style="fill:none;stroke:#263238;stroke-linecap:round;stroke-linejoin:round;stroke-width:1.2706700563430786px"/><path d="M145.91,480.75s12-1.1,11.9-.23c-.08,1.45-8.09,2.6-11.37,2.83" transform="translate(-0.01 0)" style="fill:none;stroke:#263238;stroke-linecap:round;stroke-linejoin:round;stroke-width:1.2706700563430786px"/><path d="M146.36,483.42s10.16-1.42,10-.07-11.7,3.53-11.7,3.53" transform="translate(-0.01 0)" style="fill:none;stroke:#263238;stroke-linecap:round;stroke-linejoin:round;stroke-width:1.2706700563430786px"/><path d="M131.4,491.74c1.15-1.64,1.9-2.76,1.9-2.76s9.79,1.07,11.2.8,8-4.5,8-4.5" transform="translate(-0.01 0)" style="fill:none;stroke:#263238;stroke-linecap:round;stroke-linejoin:round;stroke-width:1.2706700563430786px"/><path d="M135.73,480.81a6.24,6.24,0,0,1,5,3.72" transform="translate(-0.01 0)" style="fill:none;stroke:#263238;stroke-linecap:round;stroke-linejoin:round;stroke-width:1.2706700563430786px"/><path d="M106.85,501.65c1.1,1.69,1.23,3.81,1.31,5.82" transform="translate(-0.01 0)" style="fill:none;stroke:#263238;stroke-linecap:round;stroke-linejoin:round;stroke-width:1.2706700563430786px"/><path d="M51.06,532.56l3.51,29.91A5.5,5.5,0,0,0,57,567.21c2.65,1.59,14.23,4.15,20.7,3.75s14.68-.81,17.65-3.1,2.29-8.49,2.29-8.49l2.16-18.72s2-7.16-.41-9.3C95.12,527.44,58.7,524.48,51.06,532.56Z" transform="translate(-0.01 0)" style="fill:#fff"/><path d="M51.07,533.93a13.63,13.63,0,0,0,4.83,2.7c2.84.85,37.75-.15,42.08-1s2.76-4.39.35-5.39-24.81-4.25-34.7-2C54.83,530.24,49.37,530.39,51.07,533.93Z" transform="translate(-0.01 0)" style="fill:#39d192"/><g style="opacity:0.6000059843063354"><path d="M51.07,533.93a13.63,13.63,0,0,0,4.83,2.7c2.84.85,37.75-.15,42.08-1s2.76-4.39.35-5.39-22.17-3.86-34.1-2.23C55.45,530,49.37,530.39,51.07,533.93Z" transform="translate(-0.01 0)" style="fill:#39d192"/></g><path d="M100.77,533.07c0,.93-1,1.8-2.79,2.56-4.17,1.8-12.56,3-22.23,3-9.24,0-17.3-1.11-21.63-2.77-2.15-.83-3.39-1.78-3.39-2.81,0-3.08,11.2-5.58,25-5.58S100.77,530,100.77,533.07Z" transform="translate(-0.01 0)" style="fill:none;stroke:#263238;stroke-linecap:round;stroke-linejoin:round;stroke-width:1.2706700563430786px"/><path d="M98,535.63c-4.17,1.8-12.56,3-22.23,3-9.24,0-17.3-1.11-21.63-2.77,3.23-2,11.92-3.48,22.13-3.48C86.06,532.4,94.45,533.74,98,535.63Z" transform="translate(-0.01 0)" style="fill:#263238"/><path d="M50.73,533.07l3.91,30.87a4.15,4.15,0,0,0,2.41,3.27c4.92,2.22,18.14,6.68,37,1.46a4.14,4.14,0,0,0,3-3.54l1.18-10.28.12-1.05,1-8.3.21-1.84,1.23-10.59" transform="translate(-0.01 0)" style="fill:none;stroke:#263238;stroke-linecap:round;stroke-linejoin:round;stroke-width:1.2706700563430786px"/><path d="M71.44,571a6.52,6.52,0,0,1-1.15-5.84s-2.88,1.44-3,4c0,0-4.23-1.18-3.73-7.37a8.58,8.58,0,0,0-.25,8C65.46,573.91,71.44,571,71.44,571Z" transform="translate(-0.01 0)" style="fill:#263238"/><path d="M82.47,571a14.16,14.16,0,0,0,3.89-7.78,11.21,11.21,0,0,1-.1,6.39,6.28,6.28,0,0,0,3.59-4.49s.59,3.79-1.2,5.88S82.47,571,82.47,571Z" transform="translate(-0.01 0)" style="fill:#263238"/><path d="M108,546.51c-1.12,3.93-5.15,8.22-9.75,8.34l.12-1.05c3.94-.2,7.61-4,8.62-7.58.25-.86.66-3-.82-3.92a3.13,3.13,0,0,0-2.52-.48c-2.24.55-3.91,3.39-3.92,3.42a.53.53,0,0,1-.39.26l.21-1.84a7.58,7.58,0,0,1,3.85-2.85,4.13,4.13,0,0,1,3.33.61C108.23,542.35,108.64,544.21,108,546.51Z" transform="translate(-0.01 0)" style="fill:#263238"/><path d="M72,534.76a12,12,0,0,0,8.59.85,8.25,8.25,0,0,0,2.82-1.14" transform="translate(-0.01 0)" style="fill:none;stroke:#fff;stroke-linecap:round;stroke-linejoin:round;stroke-width:1.2706700563430786px"/><path d="M87.15,535a7.36,7.36,0,0,1-2.85,1.77" transform="translate(-0.01 0)" style="fill:none;stroke:#fff;stroke-linecap:round;stroke-linejoin:round;stroke-width:1.2706700563430786px"/><path d="M54.14,555.74c-9.37,1.11-10.3-9.71-7.78-11.42s7.48,4.14,7.48,4.14" transform="translate(-0.01 0)" style="fill:none;stroke:#fff;stroke-linecap:round;stroke-linejoin:round;stroke-width:2.5426700115203857px"/><path d="M78.89,534.46l-18.6-33.8s-2-1.22-1.9,1.23,17.27,32.79,17.27,32.79Z" transform="translate(-0.01 0)" style="fill:#fff"/><path d="M78.89,534.46l-18.6-33.8s-2-1.22-1.9,1.23,17.27,32.79,17.27,32.79Z" transform="translate(-0.01 0)" style="fill:none;stroke:#263238;stroke-linecap:round;stroke-linejoin:round;stroke-width:1.2706700563430786px"/><path d="M71.83,541.78c5.62.35,12.74.21,18.87-1.67" transform="translate(-0.01 0)" style="fill:none;stroke:#263238;stroke-linecap:round;stroke-linejoin:round;stroke-width:1.2706700563430786px"/><path d="M61.92,540.58s1.89.39,4.87.74" transform="translate(-0.01 0)" style="fill:none;stroke:#263238;stroke-linecap:round;stroke-linejoin:round;stroke-width:1.2706700563430786px"/><path d="M44.23,497.21A108.54,108.54,0,0,0,33.9,511" transform="translate(-0.01 0)" style="fill:none;stroke:#263238;stroke-linecap:round;stroke-linejoin:round;stroke-width:1.2706700563430786px"/><path d="M31.76,510.79a12.92,12.92,0,0,0-7,.32" transform="translate(-0.01 0)" style="fill:none;stroke:#263238;stroke-linecap:round;stroke-linejoin:round;stroke-width:1.2706700563430786px"/><path d="M31,482.51s8.53,4.88,11.67,12.36" transform="translate(-0.01 0)" style="fill:none;stroke:#263238;stroke-linecap:round;stroke-linejoin:round;stroke-width:1.2706700563430786px"/><path d="M38.05,513c.16,6.11,4,12.35,4,12.35l14-2.13-.93-2.71a14.75,14.75,0,0,0,2.1.3c4.12,1,10.89.77,10.89.77a10.73,10.73,0,0,0,2.49-3c1.13-2,.06-2.56.06-2.56,1.65-2.31.38-4,.38-4,2.44-1.39,1.4-2.16,1.4-2.16-1.57-2.45-10.83-1.39-10.83-1.39l-8.13,6.85-5.51-1Z" transform="translate(-0.01 0)" style="fill:#fff"/><path d="M52.69,515.38l1.22-.4,7.66-6.54s10-.53,10.72,1.27-1.37,2.62-3.16,3.34" transform="translate(-0.01 0)" style="fill:none;stroke:#263238;stroke-linecap:round;stroke-linejoin:round;stroke-width:1.2706700563430786px"/><path d="M70.68,512.41s2.47,1.08-.92,4.09" transform="translate(-0.01 0)" style="fill:none;stroke:#263238;stroke-linecap:round;stroke-linejoin:round;stroke-width:1.2706700563430786px"/><path d="M70.35,516c1.09-.62,1.8,2.15-2,3.48" transform="translate(-0.01 0)" style="fill:none;stroke:#263238;stroke-linecap:round;stroke-linejoin:round;stroke-width:1.2706700563430786px"/><path d="M70.63,518.72l-2.8,3a34.7,34.7,0,0,1-11.95-1.28l-.62.18" transform="translate(-0.01 0)" style="fill:none;stroke:#263238;stroke-linecap:round;stroke-linejoin:round;stroke-width:1.2706700563430786px"/><path d="M22.86,516.31a14.37,14.37,0,0,1,10.37-4.54,7.72,7.72,0,0,1,2.38.4c2.74.85,14,2.13,17.42,3.33L56,523c-11.78,3-27.48,3.22-36.92,2.79a17.66,17.66,0,0,1-6.77-1.95,5.21,5.21,0,0,1-2.24-7l0,0,16.94-32.62a20.09,20.09,0,0,1,4.69-4.37l8.64-4.17c.65-.32,2.14-.95,2.83-1.18l9.55-3.2c.73-.29,2.82-2,2.63-2.73l-1.17-4.8a55.3,55.3,0,0,1,17.84-3.55" transform="translate(-0.01 0)" style="fill:none;stroke:#263238;stroke-linecap:round;stroke-linejoin:round;stroke-width:1.2706700563430786px"/><circle cx="393.34" cy="99.84" r="82.34" style="fill:#fff;stroke-width:3px;stroke:url(#linear-gradient-2)"/><g style="mask:url(#mask-3)"><circle cx="393.34" cy="99.84" r="72.55" style="fill:#ebfcf5"/></g><path d="M429.51,154h-95l7.15-48.8a35.68,35.68,0,0,1,35.12-29.4h10.45a35.68,35.68,0,0,1,35.12,29.4Z" transform="translate(-0.01 0)" style="fill:#fff"/><g style="opacity:0.10000599920749664"><path d="M420,151.73h-76.1l5.72-39.07a28.57,28.57,0,0,1,28.12-23.54h8.45a28.57,28.57,0,0,1,28.12,23.54Z" transform="translate(-0.01 0)"/></g><path d="M429.51,154h-95l7.15-48.8a35.68,35.68,0,0,1,35.12-29.4h10.45a35.68,35.68,0,0,1,35.12,29.4Z" transform="translate(-0.01 0)" style="fill:none;stroke:#1a2e35;stroke-linecap:round;stroke-linejoin:round;stroke-width:1.3333300352096558px"/><path d="M452.85,146.76c18.06,39.69-41,36.92-67.79,37.05-29.05.14-85.9,4.48-72.55-37.16,4.41-13.77,12.64-16.18,25.22-11.45,15.52,5.83,30,13.89,47.16,13.5,16.57-.38,28.28-8.73,42.73-15.28C440.44,127.6,447.37,134.73,452.85,146.76Z" transform="translate(-0.01 0)" style="fill:#fff"/><g style="opacity:0.10000599920749664"><path d="M441.69,141.91c8.8,41.73-34,41.85-57.86,42.07-23.07.2-66.83,0-58.17-41.51,2.18-10.44,13-2.51,17.63-.14,13.49,6.92,26.44,12.89,40.42,12.82s26.84-6.13,40.34-13.21C428.43,139.64,439.52,131.61,441.69,141.91Z" transform="translate(-0.01 0)"/></g><path d="M452.85,146.76c18.06,39.69-41,36.92-67.79,37.05-29.05.14-85.9,4.48-72.55-37.16,4.41-13.77,12.64-16.18,25.22-11.45,15.52,5.83,30,13.89,47.16,13.5,16.57-.38,28.28-8.73,42.73-15.28C440.44,127.6,447.37,134.73,452.85,146.76Z" transform="translate(-0.01 0)" style="fill:none;stroke:#1a2e35;stroke-linecap:round;stroke-linejoin:round;stroke-width:1.3333300352096558px"/><path d="M332,119.34s6.59-1.92,17.36,4.67c11.65,7.13,12.26-5.1,16.12-10.77h37.14s4.79,13.62,8.06,12.48,18.58-4.82,23,4.72S425.34,147,425.34,147s-11.72,9.46-14.5,9.33-36.31-.59-36.31-.59l-39.08-24.63L331.16,124Z" transform="translate(-0.01 0)" style="fill:#868686"/><g style="opacity:0.3000029921531677"><path d="M435.8,127.7l-17.57,18.66-24.52-5.2,1.74-1.06S408.23,130,404.83,128c-2.65-1.59-12.23,6.73-23.36,6.85s-19.63-8.69-21.06-7c-.39.46-.11,1.57.5,2.94a.59.59,0,0,1-.29.77.62.62,0,0,1-.53,0c-6.58-3.69-14.86-7.47-14.86-7.47l-3.37,2.77,8.37,11.83,14.14,3.58-1.14,1.23,16,6,4.84,11.26h30.16L430,152.46l10.59-17.64Z" transform="translate(-0.01 0)"/></g><path d="M332,119.34s6.59-1.92,17.36,4.67c11.65,7.13,12.26-5.1,16.12-10.77h37.14s4.79,13.62,8.06,12.48,18.58-4.82,23,4.72S425.34,147,425.34,147s-11.72,9.46-14.5,9.33-36.31-.59-36.31-.59l-39.08-24.63L331.16,124Z" transform="translate(-0.01 0)" style="fill:none;stroke:#1a2e35;stroke-linecap:round;stroke-linejoin:round;stroke-width:1.3333300352096558px"/><path d="M378.57,46.79V67.16h15.37V51.37Z" transform="translate(-0.01 0)" style="fill:#fff"/><path d="M378.23,48.24a17.3,17.3,0,0,0,3.07,4.54c2.8,3,12.79,2.69,16.28,2.47A1.62,1.62,0,0,0,399.1,54a57.14,57.14,0,0,0,1-5.73Z" transform="translate(-0.01 0)" style="fill:#1a2e35"/><path d="M378.23,48.24a17.3,17.3,0,0,0,3.07,4.54c2.8,3,12.79,2.69,16.28,2.47A1.62,1.62,0,0,0,399.1,54a57.14,57.14,0,0,0,1-5.73Z" transform="translate(-0.01 0)" style="fill:none;stroke:#1a2e35;stroke-linecap:round;stroke-linejoin:round;stroke-width:1.3333300352096558px"/><path d="M378.57,46.79V67.16h15.37V51.37Z" transform="translate(-0.01 0)" style="fill:none;stroke:#1a2e35;stroke-linecap:round;stroke-linejoin:round;stroke-width:1.3333300352096558px"/><path d="M381.6,22.64S369.53,18.79,369,35.87,357.23,54.71,367.23,64s13.5-4.9,13.5-4.9-4.18-2-2.16-6.28,16.81,1.82,16.81,1.82,3.57,5,.43,8.74c0,0,10.58,2,8.94-4.89s-4.3-15.94-4.29-24.77S392.54,15.35,381.6,22.64Z" transform="translate(-0.01 0)" style="fill:#1a2e35"/><path d="M381.6,22.64S369.53,18.79,369,35.87,357.23,54.71,367.23,64s13.5-4.9,13.5-4.9-4.18-2-2.16-6.28,16.81,1.82,16.81,1.82,3.57,5,.43,8.74c0,0,10.58,2,8.94-4.89s-4.3-15.94-4.29-24.77S392.54,15.35,381.6,22.64Z" transform="translate(-0.01 0)" style="fill:none;stroke:#1a2e35;stroke-linecap:round;stroke-linejoin:round;stroke-width:1.3333300352096558px"/><path d="M358.35,64.7s6.5,25.37,4.77,46.29a3.61,3.61,0,0,0,2.15,3.63c3,1.3,9,2.87,19.14,1.35,0,0,19.6,3.06,20.51-2,2.18-12.27-1.18-33.28,6.89-48.41,0,0-9.08-6.22-25.22-6.39A71.11,71.11,0,0,0,358.35,64.7Z" transform="translate(-0.01 0)" style="fill:#39d192"/><g style="opacity:0.19999699294567108"><path d="M368.63,115.73s-2.8-1.36-1.67-4,5-10.55,5-10.55,4,1.27,6.9.38a25.22,25.22,0,0,0,5.19-2.27s4.26,2.4,11.63,0c0,0,2,11.37,7,16.72s5.12-1.21,5.12-1.21l-7.29-17.4-3.36-5.17-9.92,3.32L374,92.27,367.34,96l-5.42,9.75-2.52,4.88V115l6.11,3.18Z" transform="translate(-0.01 0)"/></g><g style="opacity:0.19999699294567108"><path d="M373.1,59.62s4.79,6.21,14.71,5.92,9.66-4.74,9.66-4.74L397,58.53h-5.93L375.23,57Z" transform="translate(-0.01 0)"/></g><path d="M394.41,112.24c.25-.15.49-.31.72-.47Z" transform="translate(-0.01 0)" style="fill:#39d192"/><path d="M394.41,112.24c.25-.15.49-.31.72-.47" transform="translate(-0.01 0)" style="fill:none;stroke:#1a2e35;stroke-linecap:round;stroke-linejoin:round"/><path d="M386.13,114.86a25.49,25.49,0,0,0,7.26-2.08Z" transform="translate(-0.01 0)" style="fill:#39d192"/><path d="M386.13,114.86a25.49,25.49,0,0,0,7.26-2.08" transform="translate(-0.01 0)" style="fill:none;stroke:#1a2e35;stroke-linecap:round;stroke-linejoin:round"/><path d="M358.35,64.7s6.5,25.37,4.77,46.29a3.61,3.61,0,0,0,2.15,3.63c3,1.3,9,2.87,19.14,1.35,0,0,19.6,3.06,20.51-2,2.18-12.27-1.18-33.28,6.89-48.41,0,0-9.08-6.22-25.22-6.39A71.11,71.11,0,0,0,358.35,64.7Z" transform="translate(-0.01 0)" style="fill:none;stroke:#1a2e35;stroke-linecap:round;stroke-linejoin:round;stroke-width:1.3333300352096558px"/><path d="M386.13,140.1l-20.81,12.48a13.61,13.61,0,0,0-6.66-.75c-3.17.63-13.13-2.9-17.29-.76s-5.29,14-1.39,15.51,23.33-2.27,27.61-3.66,25.85-10.08,25.85-10.08Z" transform="translate(-0.01 0)" style="fill:#fff"/><path d="M386.13,140.1l-20.81,12.48a13.61,13.61,0,0,0-6.66-.75c-3.17.63-13.13-2.9-17.29-.76s-5.29,14-1.39,15.51,23.33-2.27,27.61-3.66,25.85-10.08,25.85-10.08Z" transform="translate(-0.01 0)" style="fill:none;stroke:#1a2e35;stroke-linecap:round;stroke-linejoin:round;stroke-width:1.3333300352096558px"/><path d="M363.62,162.92a3.58,3.58,0,0,1,2.35.46c-6.23,1.6-22.45,4.57-26,3.2-3.9-1.52-2.77-13.36,1.39-15.51s14.12,1.39,17.29.76a13.61,13.61,0,0,1,6.66.75c-.25,1.33-3.46.19-3.15,1.2s3.6-.25,4.29,4.16S361.35,163.11,363.62,162.92Z" transform="translate(-0.01 0)" style="fill:#1a2e35"/><path d="M363.62,162.92a3.58,3.58,0,0,1,2.35.46c-6.23,1.6-22.45,4.57-26,3.2-3.9-1.52-2.77-13.36,1.39-15.51s14.12,1.39,17.29.76a13.61,13.61,0,0,1,6.66.75c-.25,1.33-3.46.19-3.15,1.2s3.6-.25,4.29,4.16S361.35,163.11,363.62,162.92Z" transform="translate(-0.01 0)" style="fill:none;stroke:#1a2e35;stroke-linecap:round;stroke-linejoin:round;stroke-width:1.3333300352096558px"/><path d="M343.82,150.43c-1.56,2.34-5.54,9.4-2.25,16.45a6.12,6.12,0,0,1-1.59-.3c-3.91-1.51-2.77-13.37,1.39-15.51A6.74,6.74,0,0,1,343.82,150.43Z" transform="translate(-0.01 0)" style="fill:#fff"/><path d="M343.82,150.43c-1.56,2.34-5.54,9.4-2.25,16.45a6.12,6.12,0,0,1-1.59-.3c-3.91-1.51-2.77-13.37,1.39-15.51A6.74,6.74,0,0,1,343.82,150.43Z" transform="translate(-0.01 0)" style="fill:none;stroke:#1a2e35;stroke-linecap:round;stroke-linejoin:round;stroke-width:1.3333300352096558px"/><path d="M396.42,30.43l.92,4.26a14.41,14.41,0,0,1,3.09,7.62c.19,3.23-.82,8.32-1.33,10.61a1.62,1.62,0,0,1-1.49,1.27c-3.49.22-13.48.56-16.28-2.47a14.83,14.83,0,0,1-3.92-7s3.54-7.45,2.46-10.81c0,0,4.78-3.73,4.31-6,0,0,9.86-3.87,12.24,2.59" transform="translate(-0.01 0)" style="fill:#fff"/><path d="M396.42,30.43l.92,4.26a14.41,14.41,0,0,1,3.09,7.62c.19,3.23-.82,8.32-1.33,10.61a1.62,1.62,0,0,1-1.49,1.27c-3.49.22-13.48.56-16.28-2.47a14.83,14.83,0,0,1-3.92-7s3.54-7.45,2.46-10.81c0,0,4.78-3.73,4.31-6,0,0,9.86-3.87,12.24,2.59Z" transform="translate(-0.01 0)" style="fill:none;stroke:#1a2e35;stroke-linecap:round;stroke-linejoin:round;stroke-width:1.3333300352096558px"/><path d="M393.23,34.3s.82,3.7,3.32,4.91a.8.8,0,0,1,.34,1.09l-.09.14-1.48,1.87" transform="translate(-0.01 0)" style="fill:none;stroke:#1a2e35;stroke-linecap:round;stroke-linejoin:round;stroke-width:1.3333300352096558px"/><path d="M389.35,46.07a7.55,7.55,0,0,0,4.72.16c2.53-.78,2.05-2.12,2.05-2.12" transform="translate(-0.01 0)" style="fill:none;stroke:#1a2e35;stroke-linecap:round;stroke-linejoin:round;stroke-width:1.3333300352096558px"/><path d="M383.82,35.87a3.93,3.93,0,0,1,5-2.38,3.85,3.85,0,0,1,.68.32" transform="translate(-0.01 0)" style="fill:none;stroke:#1a2e35;stroke-linecap:round;stroke-linejoin:round;stroke-width:2px"/><path d="M393.94,32.52s1.11-2.13,2.61-1.45" transform="translate(-0.01 0)" style="fill:none;stroke:#1a2e35;stroke-linecap:round;stroke-linejoin:round;stroke-width:2px"/><path d="M389.1,83.56V79.34a2,2,0,0,0-2-2h-6.62a2,2,0,0,0-2,2v4.22Z" transform="translate(-0.01 0)" style="fill:#1a2e35"/><path d="M389.1,83.56V79.34a2,2,0,0,0-2-2h-6.62a2,2,0,0,0-2,2v4.22Z" transform="translate(-0.01 0)" style="fill:none;stroke:#1a2e35;stroke-linecap:round;stroke-linejoin:round;stroke-width:1.3333300352096558px"/><path d="M387,97.45h-6.43a2.1,2.1,0,0,1-2.1-2.1h0V80.64a2.1,2.1,0,0,1,2.09-2.09H387a2.1,2.1,0,0,1,2.1,2.08h0V95.35a2.1,2.1,0,0,1-2.1,2.1Z" transform="translate(-0.01 0)" style="fill:#868686"/><path d="M387,97.45h-6.43a2.1,2.1,0,0,1-2.1-2.1h0V80.64a2.1,2.1,0,0,1,2.09-2.09H387a2.1,2.1,0,0,1,2.1,2.08h0V95.35a2.1,2.1,0,0,1-2.1,2.1Z" transform="translate(-0.01 0)" style="fill:none;stroke:#1a2e35;stroke-linecap:round;stroke-linejoin:round;stroke-width:1.3333300352096558px"/><path d="M382.35,81.23A1.28,1.28,0,1,1,381,80h.07A1.28,1.28,0,0,1,382.35,81.23Z" transform="translate(-0.01 0)" style="fill:#39d192"/><path d="M382.35,81.23A1.28,1.28,0,1,1,381,80h.07A1.28,1.28,0,0,1,382.35,81.23Z" transform="translate(-0.01 0)" style="fill:none;stroke:#1a2e35;stroke-linecap:round;stroke-linejoin:round;stroke-width:1.3333300352096558px"/><path d="M381.47,81.23a.4.4,0,1,1-.41-.39h0a.38.38,0,0,1,.39.39Z" transform="translate(-0.01 0)" style="fill:#1a2e35"/><path d="M389,36.56c.16.53,0,1-.37,1.15s-.79-.23-.95-.76,0-1.06.38-1.16S388.86,36,389,36.56Z" transform="translate(-0.01 0)" style="fill:#1a2e35"/><path d="M396.81,34.61a.9.9,0,0,1-.37,1.16c-.37.16-.79-.24-.94-.77s0-1,.37-1.16S396.65,34.08,396.81,34.61Z" transform="translate(-0.01 0)" style="fill:#1a2e35"/><path d="M376.61,60.92l1.07-3v-3.6a66.89,66.89,0,0,0,16.18.5,1.11,1.11,0,0,1,1.22,1,1.09,1.09,0,0,1,0,.36,5.79,5.79,0,0,0-.23,1A16,16,0,0,0,395.6,60a1.09,1.09,0,0,1-.6,1.3C393,62.3,387.23,64.07,376.61,60.92Z" transform="translate(-0.01 0)" style="fill:#39d192"/><path d="M376.61,60.92l1.07-3v-3.6a66.89,66.89,0,0,0,16.18.5,1.11,1.11,0,0,1,1.22,1,1.09,1.09,0,0,1,0,.36,5.79,5.79,0,0,0-.23,1A16,16,0,0,0,395.6,60a1.09,1.09,0,0,1-.6,1.3C393,62.3,387.23,64.07,376.61,60.92Z" transform="translate(-0.01 0)" style="fill:none;stroke:#1a2e35;stroke-linecap:round;stroke-linejoin:round;stroke-width:1.3333300352096558px"/><path d="M390.74,38.78l-3,.82a1.31,1.31,0,0,1-1.57-.64l-.94-2.24a1.14,1.14,0,0,1,.44-1.34,1.42,1.42,0,0,1,.65-.29l3.69-.66a1.22,1.22,0,0,1,1.48.89v0l.28,2.07A1.28,1.28,0,0,1,390.74,38.78Z" transform="translate(-0.01 0)" style="fill:none;stroke:#1a2e35;stroke-linecap:round;stroke-linejoin:round;stroke-width:1.3333300352096558px"/><path d="M396.59,37.19l3-.83a1.29,1.29,0,0,0,1-1.34l-.32-2.41a1.14,1.14,0,0,0-1.06-.93,1.56,1.56,0,0,0-.71.08l-3.5,1.3a1.22,1.22,0,0,0-.85,1.5s0,0,0,.06l.81,1.93A1.31,1.31,0,0,0,396.59,37.19Z" transform="translate(-0.01 0)" style="fill:none;stroke:#1a2e35;stroke-linecap:round;stroke-linejoin:round;stroke-width:1.3333300352096558px"/><path d="M391.69,35.24a1.1,1.1,0,0,1,.87-1.29h0a1.12,1.12,0,0,1,1.41.67" transform="translate(-0.01 0)" style="fill:none;stroke:#1a2e35;stroke-linecap:round;stroke-linejoin:round;stroke-width:1.3333300352096558px"/><path d="M385.23,36.72,377.41,41Z" transform="translate(-0.01 0)" style="fill:#fff"/><path d="M385.23,36.72,377.41,41" transform="translate(-0.01 0)" style="fill:none;stroke:#1a2e35;stroke-linecap:round;stroke-linejoin:round;stroke-width:1.3333300352096558px"/><path d="M366.67,92.13c1.68-2.72,8.64-7.21,11.52-3.44a22.83,22.83,0,0,0,2.85.45c1.61,0,5.28-1,5.89.51.32.81-1.23,1.13-2.84,1.56a14.18,14.18,0,0,1-4,.42,19.46,19.46,0,0,1-3.32-.25l3.49,1.34s3.4-.8,4.54-.92,5-.59,5,.92c0,.71-.91.59-2.06.93s-2.81.67-2.81.67-3.2,1.26-4.71,1.13a9.08,9.08,0,0,1-2.52-.54L376,94.32a7.29,7.29,0,0,0,4.2,1.51c2.73.17,3.61-1.22,5.76-1.43s3.07.21,3.1,1c.05,1-2,1-3.57,1.36s-2.27,1.22-3.61,1.31a13.21,13.21,0,0,1-4.58,1.42c-2.06.09-6.89-1-7.31-.42-.24.31-2.21,5-5.11,10.13-2.24,4-5.78,8.62-11.41,8.62,0,0-3.78-2-4.16-11.22a60.91,60.91,0,0,1,.52-6.33c.27-5.69.61-9.31.61-9.31l12.86-.06L362,98A41.23,41.23,0,0,0,366.67,92.13Z" transform="translate(-0.01 0)" style="fill:#fff"/><path d="M366.67,92.13c1.68-2.72,8.64-7.21,11.52-3.44a22.83,22.83,0,0,0,2.85.45c1.61,0,5.28-1,5.89.51.32.81-1.23,1.13-2.84,1.56a14.18,14.18,0,0,1-4,.42,19.46,19.46,0,0,1-3.32-.25l3.49,1.34s3.4-.8,4.54-.92,5-.59,5,.92c0,.71-.91.59-2.06.93s-2.81.67-2.81.67-3.2,1.26-4.71,1.13a9.08,9.08,0,0,1-2.52-.54L376,94.32a7.29,7.29,0,0,0,4.2,1.51c2.73.17,3.61-1.22,5.76-1.43s3.07.21,3.1,1c.05,1-2,1-3.57,1.36s-2.27,1.22-3.61,1.31a13.21,13.21,0,0,1-4.58,1.42c-2.06.09-6.89-1-7.31-.42-.24.31-2.21,5-5.11,10.13-2.24,4-5.78,8.62-11.41,8.62,0,0-3.78-2-4.16-11.22a60.91,60.91,0,0,1,.52-6.33c.27-5.69.61-9.31.61-9.31l12.86-.06L362,98A41.23,41.23,0,0,0,366.67,92.13Z" transform="translate(-0.01 0)" style="fill:none;stroke:#1a2e35;stroke-linecap:round;stroke-linejoin:round;stroke-width:1.3333300352096558px"/><path d="M382,98a8.67,8.67,0,0,1-5.8-.59Z" transform="translate(-0.01 0)" style="fill:#fff"/><path d="M382,98a8.67,8.67,0,0,1-5.8-.59" transform="translate(-0.01 0)" style="fill:none;stroke:#1a2e35;stroke-linecap:round;stroke-linejoin:round;stroke-width:1.3333300352096558px"/><path d="M378.23,88.69Z" transform="translate(-0.01 0)" style="fill:#fff"/><path d="M378.23,88.69h-3.39" transform="translate(-0.01 0)" style="fill:none;stroke:#1a2e35;stroke-linecap:round;stroke-linejoin:round;stroke-width:1.3333300352096558px"/><path d="M353.9,106.64q-.22.49-.42,1" transform="translate(-0.01 0)" style="fill:none;stroke:#1a2e35;stroke-linecap:round;stroke-linejoin:round;stroke-width:1.3333300352096558px"/><path d="M360.41,99.75c-1.55,2.06-4,2.93-5.8,5.62" transform="translate(-0.01 0)" style="fill:none;stroke:#1a2e35;stroke-linecap:round;stroke-linejoin:round;stroke-width:1.3333300352096558px"/><path d="M360.86,71.77a50.33,50.33,0,0,0-2.51-7.07s-7.62,7.54-8.12,24.91A2.75,2.75,0,0,0,352,92.25,34,34,0,0,0,362.55,94a1.69,1.69,0,0,0,1.76-1.63.74.74,0,0,0,0-.21c-.1-1.25-.27-3.06-.53-5.21" transform="translate(-0.01 0)" style="fill:#39d192"/><path d="M360.86,71.77a50.33,50.33,0,0,0-2.51-7.07s-7.62,7.54-8.12,24.91A2.75,2.75,0,0,0,352,92.25,34,34,0,0,0,362.55,94a1.69,1.69,0,0,0,1.76-1.63.74.74,0,0,0,0-.21c-.1-1.25-.27-3.06-.53-5.21" transform="translate(-0.01 0)" style="fill:none;stroke:#1a2e35;stroke-linecap:round;stroke-linejoin:round;stroke-width:1.3333300352096558px"/><path d="M378.23,53.69h-14.4c-1.3,3.34-1.22,6,3.43,10.33,10.06,9.31,13.47-4.91,13.47-4.91s-3.61-1.74-2.49-5.42" transform="translate(-0.01 0)" style="fill:#1a2e35"/><path d="M378.23,53.69h-14.4c-1.3,3.34-1.22,6,3.43,10.33,10.06,9.31,13.47-4.91,13.47-4.91s-3.61-1.74-2.49-5.42Z" transform="translate(-0.01 0)" style="fill:none;stroke:#1a2e35;stroke-linecap:round;stroke-linejoin:round;stroke-width:1.3333300352096558px"/><path d="M403.72,54.33h-9.16l.82.32s3.57,5,.43,8.74c0,0,10.58,2,8.94-4.89C404.43,57.18,404.08,55.78,403.72,54.33Z" transform="translate(-0.01 0)" style="fill:#1a2e35"/><path d="M403.72,54.33h-9.16l.82.32s3.57,5,.43,8.74c0,0,10.58,2,8.94-4.89C404.43,57.18,404.08,55.78,403.72,54.33Z" transform="translate(-0.01 0)" style="fill:none;stroke:#1a2e35;stroke-linecap:round;stroke-linejoin:round;stroke-width:1.3333300352096558px"/><path d="M401.38,90.13c-2.14-2.11-7.22-5.38-12-3.45l-2.36.46s-5.78-1.55-6.39,0c-.31.81,1.23,1.13,2.84,1.56a12.3,12.3,0,0,0,7.29.67l-3.53,1.35-4.54-.42c-1.28-.14-5-.59-5.05.92,0,.71.92.59,2.06.92,1.3.39,2.82.68,2.82.68a22,22,0,0,0,4.71.63,9.09,9.09,0,0,0,2.52-.55l1.17-.08a6.67,6.67,0,0,1-3.69,1c-2.69.16-3.62-.71-5.76-.92s-3.08.21-3.11,1c-.05,1,2,1,3.57,1.36a23.51,23.51,0,0,0,3.61.8,13.22,13.22,0,0,0,4.58,1.43c2.06.08,6.39-1,6.81-.42s5.68,21.52,15,22.78c0,0,5.8-2.53,6.17-11.73a71.51,71.51,0,0,0-.63-14.62l-11.85-1.08.38,5.17s-2.2-5-4.67-7.41" transform="translate(-0.01 0)" style="fill:#fff"/><path d="M401.38,90.13c-2.14-2.11-7.22-5.38-12-3.45l-2.36.46s-5.78-1.55-6.39,0c-.31.81,1.23,1.13,2.84,1.56a12.3,12.3,0,0,0,7.29.67l-3.53,1.35-4.54-.42c-1.28-.14-5-.59-5.05.92,0,.71.92.59,2.06.92,1.3.39,2.82.68,2.82.68a22,22,0,0,0,4.71.63,9.09,9.09,0,0,0,2.52-.55l1.17-.08a6.67,6.67,0,0,1-3.69,1c-2.69.16-3.62-.71-5.76-.92s-3.08.21-3.11,1c-.05,1,2,1,3.57,1.36a23.51,23.51,0,0,0,3.61.8,13.22,13.22,0,0,0,4.58,1.43c2.06.08,6.39-1,6.81-.42s5.68,21.52,15,22.78c0,0,5.8-2.53,6.17-11.73a71.51,71.51,0,0,0-.63-14.62l-11.85-1.08.38,5.17s-2.2-5-4.67-7.41Z" transform="translate(-0.01 0)" style="fill:none;stroke:#1a2e35;stroke-linecap:round;stroke-linejoin:round;stroke-width:1.3333300352096558px"/><path d="M408.09,101.18a20.48,20.48,0,0,0,1.75,2.19c1.92,2.07,4,4.5,4.41,7.77" transform="translate(-0.01 0)" style="fill:none;stroke:#1a2e35;stroke-linecap:round;stroke-linejoin:round"/><path d="M406.85,99.2s.19.36.53.91" transform="translate(-0.01 0)" style="fill:none;stroke:#1a2e35;stroke-linecap:round;stroke-linejoin:round"/><path d="M385.58,96s1.94.84,5.3-.59" transform="translate(-0.01 0)" style="fill:none;stroke:#1a2e35;stroke-linecap:round;stroke-linejoin:round;stroke-width:1.3333300352096558px"/><path d="M389.37,86.68h3.38" transform="translate(-0.01 0)" style="fill:none;stroke:#1a2e35;stroke-linecap:round;stroke-linejoin:round;stroke-width:1.3333300352096558px"/><path d="M433.07,129.09c-2.19-3.78-9.08-8.16-19.5-2-12.14,7.16-32.11,14-32.61,15.8,0,0,7.06,5.37,8.57,12.27,0,0,3.66,1.85,10.65-.84s41.8-9.8,32.89-25.22" transform="translate(-0.01 0)" style="fill:#868686"/><path d="M433.07,129.09c-2.19-3.78-9.08-8.16-19.5-2-12.14,7.16-32.11,14-32.61,15.8,0,0,7.06,5.37,8.57,12.27,0,0,3.66,1.85,10.65-.84s41.8-9.8,32.89-25.22Z" transform="translate(-0.01 0)" style="fill:none;stroke:#1a2e35;stroke-linecap:round;stroke-linejoin:round;stroke-width:1.3333300352096558px"/><path d="M370.5,142.11l20.8,12.48a13.61,13.61,0,0,1,6.66-.75c3.17.63,13.13-2.9,17.29-.76s5.3,14,1.39,15.51-23.32-2.27-27.61-3.66-25.8-10.08-25.8-10.08Z" transform="translate(-0.01 0)" style="fill:#fff"/><path d="M370.5,142.11l20.8,12.48a13.61,13.61,0,0,1,6.66-.75c3.17.63,13.13-2.9,17.29-.76s5.3,14,1.39,15.51-23.32-2.27-27.61-3.66-25.8-10.08-25.8-10.08Z" transform="translate(-0.01 0)" style="fill:none;stroke:#1a2e35;stroke-linecap:round;stroke-linejoin:round;stroke-width:1.3333300352096558px"/><path d="M393,164.93a3.58,3.58,0,0,0-2.35.46c6.24,1.6,22.46,4.57,26,3.2,3.91-1.51,2.77-13.37-1.39-15.51s-14.12,1.39-17.29.76a13.61,13.61,0,0,0-6.66.75c.25,1.33,3.47.19,3.15,1.2s-3.59-.25-4.29,4.16S395.23,165.12,393,164.93Z" transform="translate(-0.01 0)" style="fill:#1a2e35"/><path d="M393,164.93a3.58,3.58,0,0,0-2.35.46c6.24,1.6,22.46,4.57,26,3.2,3.91-1.51,2.77-13.37-1.39-15.51s-14.12,1.39-17.29.76a13.61,13.61,0,0,0-6.66.75c.25,1.33,3.47.19,3.15,1.2s-3.59-.25-4.29,4.16S395.23,165.12,393,164.93Z" transform="translate(-0.01 0)" style="fill:none;stroke:#1a2e35;stroke-linecap:round;stroke-linejoin:round;stroke-width:1.3333300352096558px"/><path d="M412.81,152.44c1.56,2.34,5.53,9.41,2.25,16.45a6,6,0,0,0,1.58-.3c3.91-1.51,2.77-13.37-1.39-15.51A6.89,6.89,0,0,0,412.81,152.44Z" transform="translate(-0.01 0)" style="fill:#fff"/><path d="M412.81,152.44c1.56,2.34,5.53,9.41,2.25,16.45a6,6,0,0,0,1.58-.3c3.91-1.51,2.77-13.37-1.39-15.51A6.89,6.89,0,0,0,412.81,152.44Z" transform="translate(-0.01 0)" style="fill:none;stroke:#1a2e35;stroke-linecap:round;stroke-linejoin:round;stroke-width:1.3333300352096558px"/><path d="M326.08,123c2.42-3.64,7.06-6.15,17.48,0,12.14,7.16,31.6,20,32.1,21.86,0,0-7.05,5.38-8.57,12.27,0,0-3.65.33-10.65-2.36S315.47,139,326.08,123Z" transform="translate(-0.01 0)" style="fill:#868686"/><g style="opacity:0.3000029921531677"><path d="M333.47,119.5a14.37,14.37,0,0,0,6.43,16c9.52,6.06,27,11.93,31.57,7,10,1-4,14.5-4,14.5l-12-1.5L331.3,141.77l-6.83-9.27L324,127l2.5-5,4.5-2Z" transform="translate(-0.01 0)"/></g><path d="M326.08,123c2.42-3.64,7.06-6.15,17.48,0,12.14,7.16,31.6,20,32.1,21.86,0,0-7.05,5.38-8.57,12.27,0,0-3.65.33-10.65-2.36S315.47,139,326.08,123Z" transform="translate(-0.01 0)" style="fill:none;stroke:#1a2e35;stroke-linecap:round;stroke-linejoin:round;stroke-width:1.3333300352096558px"/><path d="M405.81,81.63a53.28,53.28,0,0,1,3.67-11.54c.68-1.5,1.45-3,2.33-4.55a15.71,15.71,0,0,1,6.34,9.63c1.11,5.63.18,14.94.7,19.11a1.85,1.85,0,0,1-1.36,2,26.65,26.65,0,0,1-10.45.37,2.52,2.52,0,0,1-2.18-2.34,44.75,44.75,0,0,1,0-4.67" transform="translate(-0.01 0)" style="fill:#39d192"/><path d="M405.81,81.63a53.28,53.28,0,0,1,3.67-11.54c.68-1.5,1.45-3,2.33-4.55a15.71,15.71,0,0,1,6.34,9.63c1.11,5.63.18,14.94.7,19.11a1.85,1.85,0,0,1-1.36,2,26.65,26.65,0,0,1-10.45.37,2.52,2.52,0,0,1-2.18-2.34,44.75,44.75,0,0,1,0-4.67" transform="translate(-0.01 0)" style="fill:none;stroke:#1a2e35;stroke-linecap:round;stroke-linejoin:round;stroke-width:1.3333300352096558px"/><rect x="428.96" width="49" height="98" style="fill:none"/><g style="mask:url(#mask-4)"><path d="M720.59,481.24a.35.35,0,0,1-.34-.47l.51-3.37a.36.36,0,0,1,.31-.41.44.44,0,0,1,.16,0l1.15.18a2.28,2.28,0,0,1,1.54.78,2.41,2.41,0,0,1-.47,3.1,2.26,2.26,0,0,1-1.7.3Zm.45-.58.75.11a1.48,1.48,0,0,0,.44-2.92l-.75-.11Zm5.53,1.54a2,2,0,0,1-1-.43,1.75,1.75,0,0,1-.59-.85,2.71,2.71,0,0,1,.35-2.28,1.81,1.81,0,0,1,.81-.63,2,2,0,0,1,1.1-.11,2,2,0,0,1,1,.43,1.75,1.75,0,0,1,.59.85,2.45,2.45,0,0,1,.08,1.17,2.6,2.6,0,0,1-.42,1.1,1.84,1.84,0,0,1-.82.64,2,2,0,0,1-1.1.11Zm.1-.65a1.1,1.1,0,0,0,1-.26,2.1,2.1,0,0,0,.34-2.21,1.23,1.23,0,0,0-1.79-.27,1.67,1.67,0,0,0-.49,1.05,1.79,1.79,0,0,0,.15,1.16,1.12,1.12,0,0,0,.84.53Zm3,1.11q-.36,0-.3-.42l.53-3.53a.38.38,0,0,1,.14-.26.32.32,0,0,1,.25-.07.4.4,0,0,1,.2.09.85.85,0,0,1,.14.19l1.7,3.07.39-2.61a.33.33,0,0,1,.34-.32h.08a.33.33,0,0,1,.31.33s0,.06,0,.09l-.54,3.56a.33.33,0,0,1-.12.25.35.35,0,0,1-.24.06.4.4,0,0,1-.21-.09.75.75,0,0,1-.15-.2l-1.7-3.07-.39,2.61a.31.31,0,0,1-.33.31h-.08Zm4.12.63a.31.31,0,0,1-.21-.53l2.09-3.23a.58.58,0,0,1,.22-.22.42.42,0,0,1,.27,0,.35.35,0,0,1,.23.12.46.46,0,0,1,.15.27l1,3.71a.36.36,0,0,1,0,.35.33.33,0,0,1-.31.09.42.42,0,0,1-.25-.12.66.66,0,0,1-.12-.27l-.19-.73-2-.31-.4.64a.74.74,0,0,1-.2.23.33.33,0,0,1-.24,0Zm2.22-3.15-1,1.67,1.52.23-.49-1.9Zm3.08,3.95a.35.35,0,0,1-.33-.36.28.28,0,0,1,0-.09l.49-3.2-1.16-.18a.29.29,0,0,1-.29-.29.22.22,0,0,1,0-.08.29.29,0,0,1,.28-.28l.1,0,3.07.46a.32.32,0,0,1-.1.64l-1.15-.18-.49,3.21a.34.34,0,0,1-.34.34h-.1Zm2.71.36a.36.36,0,0,1-.36-.34.5.5,0,0,1,0-.12l.51-3.38a.36.36,0,0,1,.34-.36l.12,0,2.12.32a.31.31,0,0,1,.26.35.31.31,0,0,1-.35.25h0l-1.79-.27-.18,1.16,1.66.25a.26.26,0,0,1,.28.26.28.28,0,0,1,0,.09c0,.2-.15.28-.36.25l-1.66-.25-.18,1.22,1.79.27a.31.31,0,0,1,.26.35.31.31,0,0,1-.35.25Z" transform="translate(-0.01 0)" style="fill:#fff"/></g><circle cx="728.13" cy="491.63" r="82.34" style="fill:#fff;stroke-width:3px;stroke:url(#linear-gradient-3)"/><g style="mask:url(#mask-5)"><circle cx="728.13" cy="491.63" r="72.55" style="fill:#ebfcf5"/></g><g style="mask:url(#mask-6)"><path d="M750.13,506.83l18.77,4.76a7.15,7.15,0,0,1,4.86-1c2.65.49,9.31,5.93,9,6.72s-8.28,4.5-9.43,4.2c-4.14-1.08-8.4-5.9-8.4-5.9l-16.75-3.44Z" transform="translate(-0.01 0)" style="fill:#fff"/><path d="M703.78,439.33a10.11,10.11,0,0,0,2.1-4.06,24,24,0,0,0,.78-5.84,56.45,56.45,0,0,0-.82-10.22l10.39,9.08a18.27,18.27,0,0,0-.43,2.08,11.16,11.16,0,0,0,0,4.46h0v.2a11.26,11.26,0,0,0,1.25,3.36,5.84,5.84,0,0,0,3.31,2.45,2.93,2.93,0,0,1-1.88,1.52,5.85,5.85,0,0,1-1.11.19h-2.13a38,38,0,0,1-3.84-.32,23.19,23.19,0,0,1-4.5-1.06A9.74,9.74,0,0,1,703.78,439.33Z" transform="translate(-0.01 0)" style="fill:#fff;stroke:#000"/><g style="opacity:0.19999699294567108"><path d="M707.52,424c-.1,7.52,5.88,10.06,8.85,10.72a10.54,10.54,0,0,1,0-4.26Z" transform="translate(-0.01 0)"/></g><path d="M707,425.4h0c-2.7-4.57-1.88-8.77-.5-15.85.13-.64.26-1.3.39-2h0a11.07,11.07,0,0,1,2-4.69h0a11,11,0,0,1,15.37-2.24h0c3.39,2.49,4.66,6.7,4.62,11.22a29.27,29.27,0,0,1-3.17,12.61c-.19.34-.4.68-.62,1h0a11.3,11.3,0,0,1-6.84,4.73h0A10.1,10.1,0,0,1,707,425.4Z" transform="translate(-0.01 0)" style="fill:#fff;stroke:#000"/><path d="M718.58,413.39a1,1,0,0,0,.49,1.39c.43.11.91-.34,1.08-1s0-1.29-.48-1.4S718.76,412.72,718.58,413.39Z" transform="translate(-0.01 0)" style="fill:#1a2e35"/><path d="M725.85,414.92c-.21.64,0,1.28.48,1.39s.92-.34,1.09-1,0-1.29-.48-1.39S726,414.29,725.85,414.92Z" transform="translate(-0.01 0)" style="fill:#1a2e35"/><path d="M723,417.1a21.42,21.42,0,0,0,1.05,4,3.06,3.06,0,0,1-1-.14,8.64,8.64,0,0,1-1.3-.53Z" transform="translate(-0.01 0)" style="fill:none;stroke:#000"/><path d="M716.43,409.85a.41.41,0,0,0,.41-.06,3.27,3.27,0,0,1,2.82-.67.4.4,0,0,0,.5-.24h0a.4.4,0,0,0-.25-.51h0a4,4,0,0,0-3.56.8.38.38,0,0,0-.09.54v0h0A.65.65,0,0,0,716.43,409.85Z" transform="translate(-0.01 0)" style="fill:#1a2e35"/><path d="M719.61,423.88a6.26,6.26,0,0,1-4.76-3.09.22.22,0,0,1,.1-.29.21.21,0,0,1,.28.09h0a5.86,5.86,0,0,0,4.43,2.86.2.2,0,0,1,.18.22h0a.21.21,0,0,1-.22.19Z" transform="translate(-0.01 0)" style="fill:#1a2e35"/><path d="M729.51,413a.39.39,0,0,0,.23.07.4.4,0,0,0,.32-.46h0a4,4,0,0,0-2.24-2.89.41.41,0,0,0-.52.22h0a.42.42,0,0,0,.23.52,3.19,3.19,0,0,1,1.74,2.32A.43.43,0,0,0,729.51,413Z" transform="translate(-0.01 0)" style="fill:#1a2e35"/><path d="M701.13,413.23a8,8,0,0,0,3.45,5c2.35,1.51,4.35-.39,4.39-3.05,0-2.35-1.16-6.05-3.87-6.47S700.63,410.68,701.13,413.23Z" transform="translate(-0.01 0)" style="fill:#fff"/><path d="M746.38,459.85h0a107.48,107.48,0,0,1,2.85,14.22c.84,5.63,1.55,11.5,2,15.62a8,8,0,0,0,6.55,7l22.2,3.86-1.66,10.59-28.26-2.72h0a13.87,13.87,0,0,1-12.29-11.11c-1.75-8.88-4.1-21.74-5.16-31.92a104.35,104.35,0,0,1-.66-10.6,20.66,20.66,0,0,1,.75-6.21,3.62,3.62,0,0,1,2-2.47,5.07,5.07,0,0,1,3.33.11l.16.14c.16.15.39.37.68.67a28.24,28.24,0,0,1,2.26,2.63A33.34,33.34,0,0,1,746.38,459.85Z" transform="translate(-0.01 0)" style="fill:#5ae4a7;stroke:#000"/><g style="opacity:0.10000599920749664"><path d="M738.23,445.73a32.22,32.22,0,0,1,8.64,14c2,6.45,3.92,21.68,4.85,29.94a7.46,7.46,0,0,0,6.14,6.52l22.68,4-1.81,11.53L750,509a14.38,14.38,0,0,1-12.77-11.59c-1.76-8.89-4.1-21.77-5.17-32C730.28,448,732.17,443.93,738.23,445.73Z" transform="translate(-0.01 0)"/></g><path d="M731,612.29v-.15h0L731,612l-.32-.68c-.29-.6-.7-1.48-1.2-2.58-1-2.21-2.37-5.32-3.82-9-2.9-7.3-6.14-16.69-7.51-25.1l-1,.09h0v12.25c-.07,7.57-.24,18.08-.65,29.81-.81,23.3-2.57,51.4-6.35,71l-12.86-1c0-.27-.06-.65-.11-1.16l-.44-4.46c-.37-3.85-.9-9.38-1.53-16.09-1.26-13.42-2.91-31.54-4.49-50.35s-3.07-38.33-4-54.53c-.92-15.76-1.32-28.34-.78-34.11l52,4.54v.2c0,.07.08.39.13.65.16.79.4,2,.7,3.47.6,3,1.46,7.37,2.49,12.72,2.07,10.71,4.84,25.41,7.62,41.4,5.55,31.82,11.19,68.68,11.63,89.28l-13.78,6.17c-.08-.35-.21-.85-.37-1.48-.33-1.32-.81-3.24-1.4-5.63-1.18-4.77-2.79-11.41-4.51-18.86C736.91,643.5,733,625.34,731,612.29Z" transform="translate(-0.01 0)" style="fill:#878787;stroke:#000"/><g style="opacity:0.6000059843063354"><path d="M731,612.29v-.15h0L731,612l-.32-.68c-.29-.6-.7-1.48-1.2-2.58-1-2.21-2.37-5.32-3.82-9-2.9-7.3-6.14-16.69-7.51-25.1l-1,.09h0v12.25c-.07,7.57-.24,18.08-.65,29.81-.81,23.3-2.57,51.4-6.35,71l-12.86-1c0-.27-.06-.65-.11-1.16l-.44-4.46c-.37-3.85-.9-9.38-1.53-16.09-1.26-13.42-2.91-31.54-4.49-50.35s-3.07-38.33-4-54.53c-.92-15.76-1.32-28.34-.78-34.11l52,4.54v.2c0,.07.08.39.13.65.16.79.4,2,.7,3.47.6,3,1.46,7.37,2.49,12.72,2.07,10.71,4.84,25.41,7.62,41.4,5.55,31.82,11.19,68.68,11.63,89.28l-13.78,6.17c-.08-.35-.21-.85-.37-1.48-.33-1.32-.81-3.24-1.4-5.63-1.18-4.77-2.79-11.41-4.51-18.86C736.91,643.5,733,625.34,731,612.29Z" transform="translate(-0.01 0)" style="fill:#868686;stroke:#000"/></g><g style="opacity:0.19999699294567108"><path d="M719.76,555c.07,2,.14,4.19.17,6.54.1,6.5,0,13.81-.77,18.66-.45-1.87-.83-3.73-1.13-5.53Z" transform="translate(-0.01 0)" style="stroke:#000"/></g><path d="M738.23,445.73s-2.33-4.6-22.77-5.79-29.59,1.84-29.59,1.84,1.85,43.27-.52,83.63c0,0,34.19,12.17,52.9,4.61,0,0,14-52.26,0-84.29" transform="translate(-0.01 0)" style="fill:#5ae4a7"/><g style="mask:url(#mask-7)"><path d="M685.86,441.78l-.31-.95-.72.24v.75Zm-.52,83.63-1-.06v.75l.7.25Zm52.89,4.6.37.93.46-.18.13-.49Zm0-84.29.89-.46h0l-.06-.09a2,2,0,0,0-.17-.23,4.37,4.37,0,0,0-.68-.68,13,13,0,0,0-3.29-1.86c-3.28-1.36-9.09-2.82-19.37-3.42l-.12,2c10.16.59,15.73,2,18.73,3.26a10.8,10.8,0,0,1,2.77,1.56,2.59,2.59,0,0,1,.41.4v.06h0Zm-22.71-6.79a125.91,125.91,0,0,0-22.64.48c-2.46.31-4.27.66-5.48.93-.61.14-1.06.25-1.36.34l-.35.1h-.1l.31,1,.31,1h.07l.3-.08c.27-.08.7-.19,1.27-.32,1.14-.26,2.9-.59,5.29-.89a122.74,122.74,0,0,1,22.27-.47ZM685.35,525.4l-.34.94h.08l.29.1,1.13.38c1,.32,2.4.77,4.16,1.28,3.52,1,8.41,2.33,13.89,3.38,10.9,2.1,24.38,3.32,34-.58l-.75-1.85c-9.06,3.66-22,2.57-32.9.47a138.78,138.78,0,0,1-13.71-3.34c-1.73-.51-3.13-1-4.1-1.26l-1.1-.37-.28-.1h-.07ZM738.23,530l1,.26h0v-.11l.12-.45c.1-.4.25-1,.42-1.73.36-1.5.86-3.68,1.41-6.39,1.1-5.43,2.42-13,3.3-21.57,1.75-17.11,1.77-38.4-5.36-54.66l-1.83.8c6.91,15.77,7,36.62,5.2,53.66-.87,8.49-2.18,16-3.27,21.37-.55,2.69-1,4.84-1.39,6.32-.18.74-.32,1.32-.42,1.7,0,.2-.09.34-.11.44v.11h0Z" transform="translate(-0.01 0)"/></g><g style="opacity:0.19999699294567108"><path d="M708.13,439.68c2.26,0,4.69.11,7.32.26,1.58.09,3,.21,4.4.34,0,0-1.74,3.3-4.4,3.3A8.77,8.77,0,0,1,708.13,439.68Z" transform="translate(-0.01 0)"/></g><g style="opacity:0.10000599920749664"><path d="M715.85,452.06l-11.06,49.2,2.46,6.37Z" transform="translate(-0.01 0)"/></g><path d="M765,516l-57.15-8.84,8.41-54.54,57.15,8.85Z" transform="translate(-0.01 0)" style="fill:#5ae4a7;stroke:#000"/><g style="opacity:0.10000599920749664"><path d="M765,516l-57.15-8.84,8.41-54.54,57.15,8.85Z" transform="translate(-0.01 0)" style="fill:#fff;stroke:#000"/></g><path d="M795.7,520.81,751.63,514l8.45-54.58,44.07,6.82Z" transform="translate(-0.01 0)" style="fill:#5ae4a7;stroke:#000"/><g style="opacity:0.3000029921531677"><path d="M795.7,520.81,751.63,514l8.45-54.58,44.07,6.82Z" transform="translate(-0.01 0)" style="fill:#5fd09e;stroke:#000"/></g><g style="opacity:0.3000029921531677"><path d="M785.83,477.7l-11.76-1.82,2.16-14L788,463.7Z" transform="translate(-0.01 0)" style="fill:#fff;stroke:#000"/></g><g style="opacity:0.10000599920749664"><path d="M738.23,470.34l-11.76-1.82,2.16-14,11.76,1.82Z" transform="translate(-0.01 0)" style="stroke:#000"/></g><g style="opacity:0.19999699294567108"><path d="M754.36,511.78l13.93,2.16,1.32-8.48-13.94-2.16Z" transform="translate(-0.01 0)" style="fill:#fff"/></g><g style="opacity:0.19999699294567108"><path d="M733.9,511.2l1.43-1.89,4.62,1a6.67,6.67,0,0,1,.28,2.43l-6.4-1Z" transform="translate(-0.01 0)" style="fill:#263237"/></g><path d="M707.17,500.11,726,504.69a7.21,7.21,0,0,1,4.86-1c2.66.47,9.36,5.85,9.11,6.65s-6.48,5.67-7.62,5.31-8.39-5.48-8.39-5.48L706,508.67Z" transform="translate(-0.01 0)" style="fill:#fff"/><g style="opacity:0.3000029921531677"><path d="M686.41,495.91l31.12,15.73s-19.62.6-31.35-5.76C686.28,502.52,686.35,499.18,686.41,495.91Z" transform="translate(-0.01 0)"/></g><path d="M687,442.2a5.49,5.49,0,0,1,1.73.53,19.55,19.55,0,0,1,1.84,2.26c1.75,2.24,3.34,6.2,2.79,13.44,0,0-.68,13.24-.8,18.9-.18,7.93,2.63,14.53,9.75,18.05l1.83.82,14.84,6.07-1.82,8.82-.53-.06c-.63-.07-1.53-.17-2.64-.32-2.22-.29-5.26-.74-8.54-1.39a82.36,82.36,0,0,1-10-2.56,26.33,26.33,0,0,1-7.92-3.89h0m0,0c-3.84-3.07-6.46-7.9-8-13.39a46.55,46.55,0,0,1-1.23-17.11c.35-3,.61-6,.85-8.89.08-.86.15-1.7.22-2.53.32-3.65.66-7,1.2-9.9a18.45,18.45,0,0,1,2.3-6.72,5,5,0,0,1,1.77-1.68,4.2,4.2,0,0,1,2.31-.45h0m0,0,.22.08" transform="translate(-0.01 0)" style="fill:#5ae4a7;stroke:#000"/><g style="opacity:0.10000599920749664"><path d="M687.07,441.72s7.91,2.1,6.79,16.76c-.5,6.38-.75,13.19-.87,18.85a20,20,0,0,0,11.09,18.33L719.52,502l-2,9.67s-22.43-2.05-30.32-8.37-10.65-19.78-9.36-30.94C679.62,456.82,679,441.09,687.07,441.72Z" transform="translate(-0.01 0)"/></g><path d="M718.06,499.49,716.74,513l3.63.35,1.93-12.61Z" transform="translate(-0.01 0)" style="fill:#5ae4a7"/><g style="opacity:0.6000059843063354"><path d="M718.06,499.49,716.74,513l3.63.35,1.93-12.61Z" transform="translate(-0.01 0)" style="fill:#fff"/></g><g style="opacity:0.39999398589134216"><path d="M698.89,464.45l12.52,1.12.18-2-12.52-1.12Z" transform="translate(-0.01 0)" style="fill:#fff"/></g><path d="M715.45,439.94l-4.05,5.4-8.54-5.63v-.54A2.88,2.88,0,0,1,704,436.8a2.93,2.93,0,0,1,2.74-.18Z" transform="translate(-0.01 0)" style="fill:#5ae4a7"/><path d="M721.15,440.37l-1-1.66c-1.25-1.48-2.25-.72-2.25-.72l-2.44,1.95,3.55,5.4Z" transform="translate(-0.01 0)" style="fill:#5ae4a7"/><g style="opacity:0.6000059843063354"><path d="M706.56,437.09a2.45,2.45,0,0,0-2.29.12Zm0,0,8.09,3.08-3.37,4.49-7.92-5.22v-.27a2.39,2.39,0,0,1,.9-2Z" transform="translate(-0.01 0)" style="fill:#fff;stroke:#000"/></g><g style="opacity:0.6000059843063354"><path d="M719.74,439l.85,1.4-1.68,3.88L716.12,440l2.07-1.66h.07a.72.72,0,0,1,.29-.06A1.57,1.57,0,0,1,719.74,439Z" transform="translate(-0.01 0)" style="fill:#fff;stroke:#000"/></g><path d="M701.34,413c-.57-3.68,2-4.18,3.67-3.73s3.5,3.1,3.5,3.1c1.63-2.65,2.56-9.35,2.56-9.35a15.39,15.39,0,0,0,13.68.58,11,11,0,0,0,4.46,5.46s3-1.39,1.34-8.38c-1.91-7.92-13.84-15.61-25.86-7.7S700,415.58,700,415.58s2.71,4.8,5.14,6.61a15.34,15.34,0,0,1,0-4.28,6.58,6.58,0,0,1-3.76-4.9" transform="translate(-0.01 0)" style="fill:#263237"/><path d="M726.23,401.63a12.09,12.09,0,0,1-2.4,2.23,12.6,12.6,0,0,1-2.93,1.59,11.58,11.58,0,0,1-3.27.79,13.83,13.83,0,0,1-3.4-.09,14.05,14.05,0,0,0,3.42.36,12.11,12.11,0,0,0,3.43-.55,12.94,12.94,0,0,0,3.2-1.43,13.56,13.56,0,0,0,2.79-2.22Z" transform="translate(-0.01 0)" style="fill:#263237"/><path d="M720.42,482.67a.37.37,0,0,1-.35-.39.25.25,0,0,1,0-.08l.51-3.37a.36.36,0,0,1,.36-.36h.1l1.16.18a2.22,2.22,0,0,1,1.53.78,2.4,2.4,0,0,1-.47,3.1,2.26,2.26,0,0,1-1.7.3Zm.45-.58.75.11a1.48,1.48,0,0,0,.44-2.92l-.74-.11Zm5.53,1.54a2,2,0,0,1-1-.43,1.87,1.87,0,0,1-.59-.85,2.48,2.48,0,0,1-.07-1.18,2.32,2.32,0,0,1,.42-1.1,1.81,1.81,0,0,1,.81-.63,2,2,0,0,1,1.1-.11,2,2,0,0,1,1,.43,1.78,1.78,0,0,1,.58.85,2.45,2.45,0,0,1,.08,1.17,2.6,2.6,0,0,1-.42,1.1,2.05,2.05,0,0,1-.81.65,2.16,2.16,0,0,1-1.1.1Zm.1-.65a1.1,1.1,0,0,0,1-.26,1.82,1.82,0,0,0,.48-1.06,1.64,1.64,0,0,0-.15-1.15A1.09,1.09,0,0,0,727,480a1.08,1.08,0,0,0-1,.26,2.08,2.08,0,0,0-.33,2.21,1.11,1.11,0,0,0,.84.56Zm3,1.11q-.35,0-.3-.42l.54-3.53a.38.38,0,0,1,.13-.26.35.35,0,0,1,.26-.07.34.34,0,0,1,.19.09.85.85,0,0,1,.14.19l1.7,3.07.4-2.61a.33.33,0,0,1,.34-.32H733a.33.33,0,0,1,.31.33s0,.06,0,.09l-.53,3.56a.38.38,0,0,1-.13.25.35.35,0,0,1-.24.06.4.4,0,0,1-.21-.09,1.43,1.43,0,0,1-.14-.2l-1.71-3.07-.39,2.61a.28.28,0,0,1-.37.31Zm4.13.63a.34.34,0,0,1-.28-.19.38.38,0,0,1,.06-.34L735.5,481a.56.56,0,0,1,.22-.21.61.61,0,0,1,.27,0,.38.38,0,0,1,.23.11.48.48,0,0,1,.15.28l1,3.71a.36.36,0,0,1,0,.35.33.33,0,0,1-.31.09.42.42,0,0,1-.25-.12.66.66,0,0,1-.12-.27l-.19-.73-2-.31-.4.64a.71.71,0,0,1-.19.23.37.37,0,0,1-.29,0Zm2.22-3.15-1,1.67,1.52.23-.48-1.9Zm3.08,3.95a.34.34,0,0,1-.34-.36.28.28,0,0,1,0-.09l.49-3.2-1.16-.18a.31.31,0,0,1-.29-.34.32.32,0,0,1,.34-.3h0l3.07.46a.29.29,0,0,1,.29.29.22.22,0,0,1,0,.08.28.28,0,0,1-.3.28H741l-1.16-.18-.49,3.21q0,.39-.39.33Zm2.7.36a.36.36,0,0,1-.36-.34.5.5,0,0,1,0-.12l.51-3.38a.36.36,0,0,1,.36-.36l.11,0,2.11.32a.26.26,0,0,1,.27.34.28.28,0,0,1-.26.28l-.1,0-1.79-.27-.17,1.15,1.66.26a.31.31,0,0,1,.26.35.31.31,0,0,1-.35.25h0l-1.67-.25-.18,1.22,1.79.27a.27.27,0,0,1,.27.27.22.22,0,0,1,0,.08c0,.2-.14.28-.35.25Z" transform="translate(-0.01 0)" style="fill:#fff"/><path d="M767.35,490.47a.37.37,0,0,1-.35-.37.3.3,0,0,1,0-.1l.58-3.36a.37.37,0,0,1,.39-.35h.08l1.15.2a2.29,2.29,0,0,1,1.52.82,2,2,0,0,1,.31,1.64,2.12,2.12,0,0,1-.84,1.45,2.32,2.32,0,0,1-1.71.26Zm.47-.56.74.13a1.48,1.48,0,0,0,.51-2.92h0l-.75-.13Zm5.49,1.65a2.07,2.07,0,0,1-1-.45,1.74,1.74,0,0,1-.57-.86,2.61,2.61,0,0,1,0-1.18,2.54,2.54,0,0,1,.44-1.09,1.83,1.83,0,0,1,.83-.62,2,2,0,0,1,1.1-.08,2.07,2.07,0,0,1,1,.45,1.74,1.74,0,0,1,.57.86,2.77,2.77,0,0,1-.4,2.27,1.87,1.87,0,0,1-.82.62,2,2,0,0,1-1.15.08Zm.12-.65a1.1,1.1,0,0,0,1-.24,2.09,2.09,0,0,0,.38-2.2,1.24,1.24,0,0,0-1.73-.35l-.06,0a2.09,2.09,0,0,0-.38,2.2,1.08,1.08,0,0,0,.79.55Zm3,1.18a.32.32,0,0,1-.3-.35.19.19,0,0,1,0-.08l.61-3.51a.42.42,0,0,1,.14-.27.34.34,0,0,1,.26-.05.27.27,0,0,1,.19.08,1.43,1.43,0,0,1,.14.2l1.63,3.1.45-2.6a.32.32,0,0,1,.32-.32l.1,0a.32.32,0,0,1,.3.35.19.19,0,0,1,0,.08l-.62,3.54a.42.42,0,0,1-.12.25.31.31,0,0,1-.25.05.33.33,0,0,1-.21-.09,1.43,1.43,0,0,1-.14-.2l-1.63-3.11-.45,2.61a.33.33,0,0,1-.35.31h-.07Zm4.11.71a.34.34,0,0,1-.27-.19.35.35,0,0,1,.07-.34l2.16-3.19a.5.5,0,0,1,.22-.21.61.61,0,0,1,.27,0,.46.46,0,0,1,.23.12.76.76,0,0,1,.15.28l1,3.73a.36.36,0,0,1,0,.35.33.33,0,0,1-.31.09.38.38,0,0,1-.25-.13.54.54,0,0,1-.11-.27l-.18-.74-2-.35-.4.64a1.1,1.1,0,0,1-.21.22.34.34,0,0,1-.36,0Zm2.29-3.1-1.06,1.65,1.51.26-.44-1.91Zm3,4a.34.34,0,0,1-.33-.35.3.3,0,0,1,0-.1l.55-3.19-1.15-.2a.33.33,0,0,1-.27-.38.34.34,0,0,1,.38-.26h0l3.06.53c.22,0,.31.16.27.37a.3.3,0,0,1-.38.27l-1.15-.2-.55,3.19c0,.27-.19.38-.45.33Zm2.7.42a.35.35,0,0,1-.35-.35.5.5,0,0,1,0-.12l.58-3.36a.36.36,0,0,1,.44-.28h0l2.11.37a.27.27,0,0,1,.27.27.22.22,0,0,1,0,.08.28.28,0,0,1-.3.26h-.06l-1.79-.31-.19,1.15,1.65.29a.27.27,0,0,1,.27.27.22.22,0,0,1,0,.08.28.28,0,0,1-.3.26h-.06l-1.66-.29-.21,1.22,1.79.3a.28.28,0,0,1,.26.3.13.13,0,0,1,0,.06c0,.2-.15.28-.36.25Z" transform="translate(-0.01 0)" style="fill:#fff"/></g><path d="M688.27,442.84" transform="translate(-0.01 0)" style="fill:#5ae4a7;stroke:#000"/></svg>