<svg width="83" height="87" viewBox="0 0 83 87" fill="none" xmlns="http://www.w3.org/2000/svg">
<path fill-rule="evenodd" clip-rule="evenodd" d="M43.1939 51.6692C42.8215 52.0875 41.8081 52.2102 41.4966 51.976C40.8324 51.4846 40.609 50.6557 40.9498 49.9333C41.2421 49.3139 41.4399 48.615 41.8693 48.1114C42.3578 47.5339 43.6346 45.8658 45.249 46.4912C45.423 46.5599 45.5668 46.8319 45.6286 47.0385C46.0149 48.3903 44.1316 50.6268 43.1939 51.6692ZM43.9565 45.8894C43.5422 46.0436 42.4976 46.3965 41.8607 47.1754C41.1216 48.0827 40.9339 48.7477 40.4661 49.5296C40.0325 50.2577 40.1096 51.4642 40.6267 52.1373C41.7089 53.549 43.9595 51.992 45.2234 49.9593C45.5094 49.4972 45.9151 48.8243 46.1544 48.3088C46.8644 46.7712 45.9245 45.1637 43.9565 45.8894ZM61.6037 51.2232C60.7891 52.7738 59.4266 51.7186 60.0218 50.7325C60.0011 50.7623 59.9963 50.7727 60.0245 50.7259C60.0231 50.7282 60.0232 50.7302 60.0218 50.7325C60.1243 50.5829 60.8174 49.6685 61.7061 50.342C62.0962 50.6378 61.7325 50.9768 61.6037 51.2232ZM55.481 61.7257C54.8871 62.7267 54.215 62.0357 53.7928 61.9524C52.815 61.7586 53.5301 61.0212 54.4627 58.8834C54.7221 58.2891 54.8833 57.6463 55.1771 57.0718C56.0591 55.3421 58.0439 51.8096 59.1083 50.2675C59.7423 49.3557 60.6488 48.8947 61.7851 49.2916C61.9709 49.3569 62.3136 49.6011 62.4892 49.7398C62.5852 49.8114 62.7162 49.9021 62.4452 49.9129C62.2734 49.9208 62.2934 49.7949 62.0349 49.6807C61.5236 49.4585 61.2002 49.5267 60.7952 49.5682C59.8308 49.6671 59.135 50.7245 59.2767 51.6801C59.3858 52.3829 60.6785 52.8485 61.2029 52.428C61.2663 52.3781 61.3309 52.3278 61.4003 52.2833C61.5817 52.1629 61.8103 52.3617 61.7156 52.5584C59.96 56.2666 57.4199 58.4587 55.481 61.7257ZM58.2683 50.3424C58.0655 50.6214 57.4708 50.0073 56.9613 49.6539C55.4778 48.6257 58.1543 46.2079 59.1202 46.9462C59.7641 47.439 61.0882 48.4264 60.5994 48.5651C59.5656 48.8611 58.8618 49.5202 58.2683 50.3424ZM62.0722 48.4964C61.2653 48.1264 59.2825 45.7271 58.697 45.9893C57.427 46.5563 56.2775 47.2598 55.921 48.7629C55.589 50.1549 57.9258 50.8564 57.611 51.4617C56.7771 53.0592 56.2623 54 55.871 54.7098C54.9969 56.2983 53.6671 59.0969 52.9111 60.7351C52.2611 62.1435 52.4277 62.2171 54.9627 63.0695C55.621 63.2916 55.3631 62.3101 60.1189 56.1424C61.2865 54.6282 62.2513 53.0114 62.9607 51.2445C63.4124 50.1219 63.368 49.091 62.0722 48.4964ZM49.8239 47.9005C48.978 50.4842 49.0502 50.3782 48.0797 51.7689C47.8345 52.1223 47.0367 51.2396 46.7489 50.9263C46.5278 50.687 47.0924 50.1524 47.488 49.1684C48.0969 47.6438 47.7307 47.4197 48.8888 47.3468C49.6853 47.2977 50.0558 47.1926 49.8239 47.9005ZM44.3111 55.44C43.9017 55.752 43.8007 55.4526 43.6243 53.903C43.5908 53.6111 44.1384 53.331 45.8173 51.7461C46.2654 51.3234 46.3466 51.4985 47.3841 52.39C47.8522 52.7927 44.6011 55.2195 44.3111 55.44ZM42.8677 56.2452C41.8768 56.5974 40.307 56.3824 40.221 56.2482C40.128 56.1033 40.7505 54.4664 40.811 54.3049C40.8349 54.2404 41.0067 54.203 41.114 54.2016C42.7221 54.1844 42.99 54.1424 43.0977 54.6642C43.2771 55.5267 43.689 55.9531 42.8677 56.2452ZM38.8793 55.9621C37.7736 55.6135 36.271 54.8318 36.2511 54.4316C36.2365 54.2451 37.7885 52.873 37.9287 52.751C38.2588 52.4649 39.5074 53.4343 39.8284 53.6934C40.2611 54.04 39.9718 54.7263 39.7728 55.4499C39.5829 56.1331 39.5359 56.1713 38.8793 55.9621ZM37.0859 52.7092C35.6379 53.9919 35.9734 54.6489 34.5729 52.3937C34.3827 52.0867 34.1091 50.806 34.4665 50.516C36.7911 49.9703 36.1251 49.9624 36.5126 50.8548C36.6634 51.2052 36.7924 51.6126 37.057 51.8544C37.4186 52.1846 37.4477 52.3874 37.0859 52.7092ZM34.5501 47.6768C34.838 46.9462 34.4916 46.6824 35.6232 46.981C36.2188 47.138 37.3071 47.3597 37.1816 47.6761C36.5605 49.229 36.4314 49.861 34.6381 49.8529C34.2396 49.8512 34.1981 48.5607 34.5501 47.6768ZM35.0523 46.1579C34.981 45.9988 35.9169 44.2789 36.0012 44.1249C36.0744 43.988 36.2078 43.9641 36.3725 44.062C38.0675 45.0604 38.475 45.3072 38.3073 45.7378C38.1861 46.0546 37.7562 46.9295 37.3821 46.842C37.2131 46.8027 35.1245 46.3162 35.0523 46.1579ZM38.4887 41.3022C38.8725 40.9269 39.3609 42.0293 40.064 43.2807C40.4149 43.904 39.6536 43.9367 39.3299 44.4686C38.9374 45.1197 38.5681 44.7595 37.9329 44.3581C37.6922 44.2012 36.9521 43.6683 36.8997 43.6157C36.5498 43.2778 37.0044 42.747 38.4887 41.3022ZM41.7544 39.6154C41.8918 39.5693 42.0562 39.6884 42.0427 39.9238C41.8855 42.4615 41.8822 42.7129 41.0236 42.9796C40.6295 43.0986 39.7997 41.3998 39.4221 40.7357C39.2301 40.4003 40.1115 40.1701 41.7544 39.6154ZM45.2181 39.99C45.5493 40.0647 45.6923 40.259 45.4816 40.6077C44.1613 42.7982 44.3487 42.8623 43.8808 42.656C43.4847 42.4818 42.5132 42.3487 42.528 42.0449C42.5368 41.8729 42.6516 39.6588 42.7891 39.5539C42.9185 39.4574 45.0607 39.9533 45.2181 39.99ZM43.8332 43.99C39.2921 45.6516 38.5387 50.9993 38.3376 51.3147C38.2585 51.4369 37.9669 51.554 37.8516 51.5011C35.3373 50.3248 39.7987 43.2825 42.9475 43.0557C43.3497 43.0268 44.5189 43.7428 43.8332 43.99ZM46.7648 40.668C48.4548 42.5253 49.0009 42.8642 48.1487 43.509C47.0325 44.3548 47.0699 44.4293 45.4375 43.6653C44.7472 43.3421 44.7891 43.1617 45.2313 42.3185C45.4595 41.8842 46.005 40.8521 46.056 40.7635C46.3099 40.3246 46.4338 40.3054 46.7648 40.668ZM44.2777 52.577C43.7627 53.071 43.0609 53.5127 42.3809 53.6409C41.4285 53.8219 38.2798 52.9655 39.2715 50.0179C40.2805 47.0255 42.6252 44.4777 44.7455 44.4288C45.8648 44.4018 47.2653 45.3151 47.3471 46.2617C47.449 47.4762 47.2155 48.6319 46.7076 49.7802C46.2678 50.7734 45.0596 51.8265 44.2777 52.577ZM49.9087 46.4445C49.9681 46.7575 48.8931 46.7663 48.3477 46.8114C48.2286 46.8221 48.125 46.735 48.1126 46.615C48.0532 45.9733 47.9213 45.4273 47.4533 45.0052C47.1675 44.748 48.3228 44.0122 48.6482 43.8129C49.7147 43.1521 49.8267 46.0086 49.9087 46.4445ZM49.8683 43.6018C49.4394 42.7565 48.1025 40.6192 46.9195 40.0479C37.8629 35.6763 34.0004 46.0569 33.8869 48.3489C33.7305 51.4364 32.4937 55.0609 40.2433 56.9347C41.8805 57.3302 43.3494 56.8168 44.5814 55.8135C47.83 53.1778 50.9953 49.9242 50.4485 45.8212C50.3469 45.0637 50.2071 44.2669 49.8683 43.6018ZM74.5366 38.0693C70.2122 43.9144 72.5559 40.6303 69.8679 44.9768C69.4532 45.6446 68.9548 46.2642 68.5681 46.947C66.3986 50.7526 62.4137 57.2338 62.2353 57.5209C46.4044 82.6701 52.0066 81.502 36.2259 75.6925C35.1731 75.3073 35.0592 75.605 31.5091 74.0805C28.7439 72.8941 25.817 71.4102 24.1993 70.6731C23.7791 70.482 23.2943 70.4357 22.8682 70.2556C22.3933 70.0532 18.9714 68.4708 18.4181 68.1195C17.7197 67.6765 16.4268 66.3775 16.2044 65.5516C15.7394 63.8227 16.7068 62.1687 17.9818 60.4915C18.4342 59.8952 19.1393 61.1091 19.8335 60.4028C20.1173 60.1175 20.3925 59.7644 20.513 59.389C21.3212 56.8588 23.733 54.0882 24.3792 53.2588C24.4474 53.1685 24.5335 53.019 24.5048 52.9405C24.3233 52.4695 24.2054 51.9262 23.8858 51.5693C23.3679 50.9965 23.4602 51.0059 25.7842 47.0838C25.6534 47.3034 35.2995 30.8782 35.5514 30.8492C35.6113 30.844 35.6721 30.8627 35.7175 30.9011C36.2624 31.3726 36.9508 31.2796 37.3655 30.6932C37.8681 29.8867 41.403 24.2433 41.9985 23.5433C43.4074 21.8902 40.9571 22.0401 41.8693 20.6678C43.464 18.267 43.304 17.1838 46.3572 16.5467C49.3805 15.9148 64.7584 23.2915 65.3847 23.5738C69.505 25.4183 74.8733 26.8612 76.815 30.756C77.6341 32.4008 77.5324 32.6383 76.8493 33.9757C75.7288 36.1673 76.3019 35.6822 74.5366 38.0693ZM17.3167 58.3391C19.234 55.2889 19.066 55.1687 19.5253 55.4443C20.8955 56.273 21.231 56.2819 20.9376 56.8708L19.574 59.6206C19.4209 59.9244 19.1784 60.0542 18.8516 59.866C17.3827 59.0162 16.9717 58.8872 17.3167 58.3391ZM21.578 52.5663C22.3937 53.0567 23.3721 53.3085 23.1205 53.7113C22.3091 55.0183 21.9599 55.6213 21.5364 55.7363C21.0791 55.8617 19.437 54.9833 19.8108 54.3591C20.9146 52.5312 20.5533 51.9508 21.578 52.5663ZM21.6041 51.1998C22.5187 50.8739 23.9094 52.3512 23.5468 52.7123C23.4595 52.8011 23.3497 52.788 23.2382 52.7318C22.6614 52.4386 22.0824 52.1536 21.5254 51.8218C21.253 51.6578 21.321 51.3015 21.6041 51.1998ZM34.9954 28.5653C35.0038 28.5508 36.2808 26.4219 36.2901 26.4059C36.8218 25.4708 36.8045 25.8301 37.2855 26.1234C38.7017 26.9887 38.9392 26.9393 38.6929 27.352C36.419 31.131 36.9153 30.6171 35.5718 30.1202C34.6573 29.7798 34.6145 29.2607 34.9954 28.5653ZM39.0492 22.195C39.2978 21.9393 39.7064 22.0799 41.1805 23.0773C41.5946 23.3585 39.551 25.9963 39.3247 26.2547C38.7976 26.8415 37.0003 25.4748 37.2827 24.9486C38.172 23.2944 38.5911 22.6709 39.0492 22.195ZM41.0557 21.6644C41.0786 21.9422 41.3325 22.1708 41.1895 22.3377C40.9712 22.5926 39.6562 21.6756 39.782 21.3736C39.9101 21.0719 41.0335 21.3647 41.0557 21.6644ZM77.6196 30.9517C75.7009 26.9093 72.4766 26.0784 63.0563 22.0092C62.1514 21.6163 61.1294 20.6523 51.2263 17.1873C48.4079 16.1993 47.7529 15.756 46.3502 16.0991C45.5791 16.291 44.1025 16.4002 43.1917 17.6493C40.8802 20.8125 41.757 21.0762 40.0933 20.7806C38.7949 20.5437 38.7481 21.2717 34.4212 28.2621C33.2305 30.1843 35.4028 30.0127 34.7955 30.8748L23.2843 50.459C22.7064 51.4744 21.4365 49.4995 20.3835 51.6424C19.3633 53.7219 18.0082 55.9717 16.6875 58.0022C16.1468 58.8356 16.5023 59.0382 17.4593 59.7225C17.6989 59.8922 17.4317 60.1617 17.0822 60.772C15.6011 63.3746 14.3241 64.8289 16.401 67.067C17.79 68.5678 17.4665 68.2075 20.552 69.7748C22.9898 71.0155 23.8441 70.833 26.4854 72.4077C28.5736 73.655 41.7856 78.4699 42.107 78.5826C51.135 81.7566 49.7933 78.8258 65.3614 53.2944C66.0664 52.1385 66.8637 51.0409 67.5595 49.8837C68.9179 47.6246 68.0357 48.0945 74.5597 38.8975C77.2178 35.1504 76.5394 35.5229 77.3788 34.1107C77.9941 33.0781 78.1797 32.1401 77.6196 30.9517ZM38.4007 2.9848C36.0821 2.71806 35.6745 3.44183 33.4005 4.4228C33.2965 4.46873 33.2603 4.66968 33.196 4.81173C33.1729 4.85947 33.3143 4.95414 33.4479 4.89268C36.2921 3.55225 35.4704 3.81274 38.5462 3.31587C38.8429 3.26796 38.7786 3.02843 38.4007 2.9848ZM43.673 9.60742C43.8078 9.61891 43.9186 9.49852 43.8919 9.36312C43.6226 9.03302 43.2504 9.00286 42.1785 9.49569C38.4835 11.1907 38.7946 13.1413 40.0453 11.6556C41.4311 10.0096 43.1208 9.55299 43.673 9.60742ZM42.5345 8.07066C42.4258 7.38745 38.9855 9.00322 38.3127 10.5989C38.2567 10.7335 38.3463 10.8878 38.4958 10.9007C39.0302 10.9459 38.9597 10.5451 39.3414 10.0771C40.1309 9.10827 41.1774 8.58447 42.3696 8.31353C42.4804 8.29086 42.5536 8.18239 42.5345 8.07066ZM37.2536 2.10551C37.4517 2.0507 37.4555 1.76797 37.2592 1.71193C37.106 1.66444 36.8613 1.70159 36.7017 1.7104C34.0372 1.81226 32.8214 2.58546 31.7398 3.65476C31.5885 3.80365 31.7226 4.06096 31.8852 3.97656C32.1008 3.85957 32.3225 3.75419 32.5236 3.61463C32.8457 3.386 33.1129 3.06977 33.4552 2.88735C35.0233 2.05041 36.0235 2.45335 37.2536 2.10551ZM39.9337 13.3526C41.1685 12.6696 41.8659 11.2866 44.6314 10.9407C44.7429 10.9286 44.8273 10.8256 44.8068 10.7141C44.6599 9.87453 40.1432 11.8168 39.7218 13.1085C39.6686 13.263 39.8032 13.424 39.9337 13.3526ZM40.0727 4.73109C40.4859 4.68308 40.6058 3.97174 37.5212 4.69143C35.9955 5.04607 34.1501 6.64823 35.0136 6.68355C35.4923 6.70482 35.4727 6.41573 35.7682 6.14837C36.933 5.09653 38.5113 4.91156 40.0727 4.73109ZM41.4903 7.11835C41.9498 7.05534 41.7447 6.46106 41.0777 6.60199C39.4682 6.93993 38.2419 7.92791 37.0775 9.00853C36.3847 9.65253 37.3649 9.90861 37.6265 9.24222C37.8214 8.74295 39.5274 7.38713 41.4903 7.11835ZM40.5577 5.89049C40.7686 5.83082 40.7526 5.52243 40.5343 5.48529C39.7105 5.3436 36.9297 5.93404 35.4555 8.36246C35.3694 8.50216 35.466 8.69207 35.6057 8.63311C35.8934 8.5129 36.271 8.42608 36.3524 8.22266C37.0029 6.60498 38.5422 6.4759 40.5577 5.89049ZM55.6472 75.6275C51.9313 81.0183 50.8293 83.2836 47.1462 83.1509C42.9868 82.9982 24.0504 75.4307 17.2866 71.9449C5.75454 66.0064 11.5225 65.0399 30.216 32.1338C33.1008 27.0674 34.095 25.5265 34.095 25.5265C34.6504 24.5012 34.8399 23.6641 36.4797 20.7785C38.4862 17.2463 39.6869 14.8608 42.9556 13.4444C45.7114 12.2484 48.8646 12.663 51.2038 13.8105C54.6385 15.4943 79.5451 24.4527 81.3789 29.0851C82.6649 32.3337 80.5276 34.4363 76.2471 42.0894C73.0624 47.7768 73.9158 47.3005 70.4075 52.2929C65.5402 59.2255 66.5614 59.8003 55.6472 75.6275ZM45.486 83.9094C43.4432 85.5249 43.221 85.4837 42.5533 85.3332C41.6258 85.1195 41.6234 85.103 41.4976 84.1689C41.4729 83.9826 41.2604 82.5923 41.4021 82.4724C41.5396 82.3565 45.2396 83.4787 45.413 83.5296C45.5823 83.5793 45.6253 83.7993 45.486 83.9094ZM39.1608 83.2303C38.6529 82.85 38.1464 83.238 38.2973 81.5618C38.3251 81.2582 38.4266 81.1784 38.7031 81.2919C40.0619 81.8505 40.5703 81.9589 40.603 82.2118C40.9534 84.9565 41.1389 84.7028 39.1608 83.2303ZM21.8408 77.5741C21.5444 77.7767 20.0846 77.388 20.0872 76.7595C20.0932 75.9906 20.1308 75.2206 20.1924 74.4525C20.2025 74.3553 20.4689 74.1689 20.5368 74.198C20.726 74.2815 23.9629 75.6467 23.9852 75.8538C24.0068 76.0618 22.0125 77.454 21.8408 77.5741ZM17.017 74.2448C17.0448 74.0585 17.276 72.8363 17.4453 72.7597C17.5999 72.6901 19.3185 73.6523 19.4692 73.7308C19.612 73.8078 19.4803 76.2482 19.4758 76.4114C19.4555 77.0662 16.9701 74.5374 17.017 74.2448ZM10.0821 64.523C10.2949 63.4817 10.5962 62.4596 10.8591 61.4287C10.9689 60.9923 10.4189 60.9005 10.1483 61.7956C9.70509 63.272 9.76156 63.497 9.49041 63.4772C9.06892 63.4451 9.26636 61.7333 9.38838 61.2288C9.43505 61.0359 9.80672 59.7686 9.77534 59.5816C9.74754 59.4137 9.54477 59.3407 9.4168 59.4566C9.15185 59.6904 8.76624 61.6722 8.69611 63.4705C8.69209 63.5568 8.63707 63.6352 8.55426 63.6658C8.14787 63.8194 7.51664 62.6399 7.81125 61.0564C8.00675 59.9949 8.2237 58.9353 8.40938 57.8702C8.50504 57.3148 7.97826 57.3656 7.89361 57.7755C7.25882 60.8492 7.19136 62.5034 6.84731 61.764C6.19932 60.3713 6.13578 61.0379 6.73173 56.9447C6.77483 56.6428 7.04369 56.4029 6.99661 56.1064C6.9745 55.9633 6.82013 55.8835 6.68961 55.9438C5.95936 56.2912 5.93143 59.8129 5.6791 59.8612C5.28005 59.9398 4.89113 58.2354 4.89259 57.7282C4.89618 56.249 5.6745 54.7731 5.72805 54.4172C5.75484 54.2291 5.54802 54.0969 5.39128 54.2062C5.19572 54.3416 5.26094 54.3152 4.34752 57.3759C4.12786 58.1051 2.85141 56.5318 4.474 53.4061C4.85574 52.6748 3.55498 52.5483 3.17218 56.1597C3.15656 56.3097 2.93873 56.3193 2.91334 56.1696C2.65469 54.6164 2.65472 54.1932 3.29096 52.8287C3.37488 52.6492 3.83816 51.652 3.80918 51.4566C3.77834 51.2679 3.52753 51.228 3.43906 51.3961C2.3531 53.4711 2.54836 53.3811 2.15438 54.659C2.10593 54.8191 1.87131 54.7993 1.85126 54.6339C1.56316 52.2498 2.65847 51.0654 2.7299 50.717C2.83011 50.2159 2.43188 50.1833 2.31346 50.4609C1.38643 52.643 1.4666 52.7722 1.26122 52.7079C0.992167 52.6242 1.87338 49.8128 1.96133 49.5427C3.27954 45.4727 10.5928 34.137 10.9844 33.4782C17.595 22.3776 19.7786 17.531 28.2884 5.79225C30.363 2.9301 31.9735 2.15625 33.0984 1.41207C33.2865 1.28635 33.5553 1.29159 33.765 1.19048C35.7791 0.210531 37.7875 0.5693 39.7852 1.20782C52.3699 5.23511 69.5214 13.8762 73.9215 16.9471C73.9895 16.9954 74.1608 17.2406 74.1743 17.3135C74.2356 17.6571 70.5019 15.5132 70.1597 15.3477C70.0622 15.3017 69.8608 15.3221 69.7998 15.3928C69.7409 15.4586 69.7253 15.705 69.8247 15.7521C70.5503 16.0926 70.635 16.2085 72.0125 16.8877C76.5792 19.1409 75.6245 19.3736 75.0584 19.1239C71.3375 17.4901 71.6029 17.5239 71.3355 17.5775C71.1906 17.6069 71.1183 17.7719 71.1894 17.8983C71.303 18.1 72.0375 18.3795 72.8344 18.699C74.1773 19.2362 74.8549 19.7912 75.9096 20.0842C76.1339 20.1482 76.3315 20.2966 76.4744 20.5742C76.8578 21.3068 74.9084 20.4397 73.2293 19.7353C72.892 19.5929 72.8377 19.3623 72.3609 19.4683C72.2051 19.5006 72.1369 19.6832 72.2297 19.8099C72.4857 20.1648 78.6972 22.2449 77.9334 23.1441C77.7188 23.396 74.5119 21.6928 74.0668 21.7417C72.4327 21.9333 77.1842 23.1939 78.6653 24.4049C79.0271 24.7008 79.503 25.4978 79.6217 25.7961C79.7884 26.2217 76.838 24.5778 76.4419 24.3436C75.4614 23.7587 74.5099 23.3847 73.5741 22.8998C67.2118 19.6056 60.2734 17.0917 58.0776 16.2018C49.4653 12.7159 46.7718 10.3733 40.937 13.973C37.3994 16.1525 34.1607 24.1948 33.6628 25.0843C8.07906 68.279 13.2842 58.8537 10.4809 65.6167C10.3542 65.9272 9.92996 65.2648 10.0821 64.523ZM6.28549 65.1714C5.57529 65.3038 4.91494 64.3337 5.06684 63.5825C5.46049 61.6399 5.39373 61.1885 5.98495 61.8708C6.16288 62.0718 6.43097 62.0605 6.69273 62.4452C6.77869 62.5679 7.86869 64.1399 7.835 64.2874C7.8074 64.4106 6.8464 65.0663 6.28549 65.1714ZM4.25944 63.5215C4.03521 63.5553 2.71759 61.5676 2.59577 61.3823C2.33986 60.9928 2.5437 60.5311 3.20658 58.2197C3.23978 58.1012 3.43245 58.1331 3.50529 58.2358C5.1912 60.6292 5.14408 60.4251 4.98184 61.0968C4.94763 61.2377 4.40526 63.5029 4.25944 63.5215ZM68.1123 56.6611C70.9594 51.7733 72.6221 50.3396 73.922 47.6755C78.1218 39.0775 81.9477 34.7208 82.4406 30.7607C82.5746 29.681 82.8529 29.6968 77.0405 20.5532C73.3912 14.8153 75.8651 16.8402 58.2368 8.17692C53.3391 5.76979 45.7543 2.66191 38.8209 0.49893C31.5573 -1.76771 27.0128 6.2909 20.9865 15.7907C16.4107 22.998 17.658 21.5215 10.3963 33.469C3.8834 44.1825 0.530639 49.354 0.599428 53.2974C0.604746 53.6566 0.574219 54.0839 1.39204 55.265C1.74568 55.7718 2.05431 56.3077 2.37641 56.837C2.70203 57.3695 2.49259 58.1869 2.28504 58.8296C1.89972 60.0109 1.15961 61.1658 1.8244 61.8693C3.91544 64.0773 3.99002 65.3158 5.4464 65.7264C6.79397 66.1064 6.13828 66.0676 8.40032 65.0016C8.48307 64.9615 8.67051 65.0198 8.73884 65.0956C13.4388 70.4456 10.2885 68.4593 15.6175 71.6165C17.0685 72.4767 15.8777 74.5351 16.3997 74.9668C19.4162 77.4638 19.199 77.8955 20.9314 78.1725C21.3217 78.2355 21.7045 78.4857 22.1019 78.1394C24.1445 76.3598 24.6767 75.9989 25.3322 76.2368C25.6508 76.3523 37.5803 80.7805 37.6161 81.1532C37.7581 82.5982 37.1174 82.6844 38.0477 83.3826C39.3986 84.3938 39.8831 84.868 40.8863 85.4456C41.3138 85.6918 41.8442 85.8895 42.5893 86.0022C43.2261 86.1002 43.1757 86.2278 46.062 84.1564C47.6096 83.0453 48.3076 84.3367 50.8506 82.6528C52.9371 81.272 56.491 74.9993 58.3073 72.2876C67.4775 58.5747 63.075 65.3179 68.1123 56.6611Z" fill="#39D192"/>
</svg>
