<svg width="248" height="258" viewBox="0 0 248 258" fill="none" xmlns="http://www.w3.org/2000/svg">
<path fill-rule="evenodd" clip-rule="evenodd" d="M197.826 113.908C194.399 111.5 194.794 110.787 193.773 111.558C193.539 111.734 191.982 112.905 191.723 112.599C191.155 111.93 190.63 111.367 191.3 110.801C192.452 109.829 193.37 109.832 192.907 109.09C192.846 108.991 191.677 107.006 191.677 107.006C191.254 106.246 190.825 106.56 188.855 107.801C188.111 108.27 188.058 107.71 187.448 106.786C186.75 105.726 187.563 105.852 189.752 104.24C190.21 103.899 189.622 102.85 189.391 101.81C188.214 96.4735 189.936 93.1164 190.433 93.2463C194.603 94.3388 191.002 93.6169 192.573 101.27C192.932 103.021 193.659 100.948 204.285 94.3099C207.386 92.3744 207.889 91.508 214.028 87.8243C215.417 86.9913 213.606 87.0833 214.266 81.6494C215.196 74.02 222.542 72.2536 227.155 74.1695C231.112 75.8131 229.629 76.7478 232.199 74.4636C232.621 74.0847 232.824 74.1161 234.06 76.1883C234.304 76.5968 233.626 77.1601 232.733 77.8793C232.325 78.2059 232.488 78.1931 233.945 80.5766C234.187 80.9751 234.319 80.9071 235.997 79.6719C236.651 79.187 236.757 79.6947 237.675 81.0957C238.381 82.1727 234.934 82.5603 235.492 83.8578C236.287 85.7098 236.217 87.8691 235.658 89.5282C235.198 90.9027 235.201 90.9027 233.762 90.8445C230.788 90.7227 233.632 89.4602 232.787 86.0047C232.477 84.7403 232.722 85.0866 220.671 92.7971C219.301 93.6733 221.585 95.7993 220.715 101.34C218.794 113.552 205.547 119.333 197.826 113.908ZM191.451 109.852C189.825 110.307 192 108.268 192.159 108.907C192.287 109.415 191.988 109.5 191.643 109.747C191.629 109.758 191.471 109.846 191.451 109.852ZM187.027 104.654C187.84 103.076 191.222 102.841 187.47 105.018C187.104 105.23 186.881 104.94 187.027 104.654ZM188.36 96.8019C188.387 96.4458 188.303 95.509 188.839 93.7812C188.893 93.61 189.312 92.318 189.458 92.067C189.554 91.9053 189.942 92.1988 189.905 92.3181C189.683 93.0341 188.541 95.6206 188.525 96.7942C188.523 96.8907 188.347 96.9585 188.36 96.8019ZM192.439 92.6322C192.567 92.6951 192.553 92.8856 192.569 93.0443C192.624 93.6425 190.409 92.7334 190.337 92.4408C190.039 91.237 191.318 92.0734 192.439 92.6322ZM213.572 86.6104C214.073 86.5713 214.213 86.9029 213.721 87.376C213.721 87.376 204.754 93.4687 203.053 94.5861C192.723 101.355 193.312 101.545 193.081 100.663C192.949 100.157 193.074 99.9159 193.539 99.6051C194.017 99.2847 212.99 86.6575 213.572 86.6104ZM224.939 72.6769C230.607 73.619 229.976 74.8066 229.65 74.8298C228.786 74.8926 225.532 72.0202 220.647 73.5319C217.007 74.6589 221.183 72.0524 224.939 72.6769ZM232.408 72.6711C232.512 73.7032 232.037 73.9678 231.252 74.5354C231.054 74.6777 230.853 74.8298 230.75 74.851C230.448 74.914 230.383 74.0578 230.522 73.8811C230.712 73.6366 232.311 71.6986 232.408 72.6711ZM234.449 75.3521C234.209 75.7411 233.758 74.8683 233.606 74.6198C231.725 71.5061 235.131 74.2516 234.449 75.3521ZM236.042 78.0447C236.58 78.3609 235.256 79.2617 234.471 79.839C234.421 79.8758 234.141 79.7157 234.078 79.5922C233.876 79.1989 234.656 78.7341 235.312 78.2854C235.479 78.1723 235.784 77.8921 236.042 78.0447ZM237.149 78.2618C237.972 78.569 238.373 80.9255 237.734 80.4254C237.502 80.2438 237.497 80.0146 237.245 79.6933C237.084 79.4866 236.861 78.746 236.818 78.5017C236.807 78.4381 237.075 78.2332 237.149 78.2618ZM231.856 86.3204C231.92 85.8927 232.489 86.0372 232.258 87.6444C232.217 87.9301 231.923 89.7481 231.633 89.7235C231.275 89.6946 231.441 89.113 231.856 86.3204ZM221.418 97.1295C221.061 94.3909 220.643 93.4138 221.169 93.0797C225.118 90.5692 226.363 89.776 228.783 88.1247C230.68 86.8305 231.287 86.1941 231.216 86.8838C230.939 89.584 230.564 89.3383 230.943 89.9857C231.903 91.6283 231.303 90.9171 235.176 91.4516C235.886 91.5485 235.799 91.1149 236.12 89.9062C237.572 84.4478 234.964 84.187 237.091 82.7232C237.266 82.6015 237.743 82.1404 238.609 81.5233C238.889 81.325 238.697 80.4675 238.446 79.4309C238.294 78.8004 237.472 77.5686 237.088 77.0579C236.334 76.0576 234.036 79.3776 233.448 78.5896C232.85 77.794 234.77 77.3632 235.003 76.38C235.085 76.0328 235.058 75.6521 235.191 75.331C235.334 74.9832 235.321 74.7435 235.085 74.4525C233.044 71.9386 232.959 71.3774 232.353 71.7686C227.879 74.667 231.034 73.4233 225.143 72.418C217.731 71.1564 212.924 77.9752 213.593 85.0113C213.77 86.8606 203.085 92.312 193.281 99.0832C192.307 99.7547 192.914 95.1325 193.276 94.0014C193.452 93.4462 193.051 92.7097 192.902 92.0575C192.892 92.0176 192.784 91.9978 192.719 91.9764C189.609 90.898 189.351 90.6292 189.101 91.3006C187.995 94.2763 186.875 95.4893 188.832 102.254C189.125 103.272 186.588 103.616 186.472 104.247C186.113 106.238 186.532 106.314 187.811 108.404C188.285 109.177 188.274 108.915 190.77 107.463C191.256 107.182 191.441 107.608 191.643 107.878C191.888 108.205 191.53 108.315 191.344 108.448C190.334 109.17 189.804 108.919 190.133 110.484C190.404 111.777 190.797 111.937 191.498 113.238C192.233 114.596 193.71 111.184 195.089 112.405C206.924 122.899 223.167 110.489 221.418 97.1295ZM218.869 82.2907C218.977 82.1015 219.196 81.9703 219.382 81.836C220.786 80.8215 221.395 80.4573 223.605 78.8016C223.625 78.7875 225.386 77.7237 225.761 77.7192C226.336 77.7113 226.736 78.1241 226.023 78.5568C221.33 81.4215 217.875 84.0303 218.869 82.2907ZM219.191 80.7925C221.149 76.3691 225.147 77.0544 224.775 77.5931C224.615 77.826 223.821 78.2466 223.493 78.4331C222.305 79.1058 218.441 82.4907 219.191 80.7925ZM227.171 78.4252C227.569 78.2404 227.603 78.0358 227.226 77.8019C219.318 72.9175 216.332 85.7286 218.89 83.8073C219.123 83.6327 223.03 80.3472 227.171 78.4252ZM219.771 89.9081C219.209 89.2624 220.312 88.9266 228.616 83.0641C229.964 82.1137 230.384 81.9544 230.686 82.6137C230.857 82.9859 220.095 90.2789 219.771 89.9081ZM220.115 87.1288C221.702 85.8756 223.586 84.1842 228.676 81.0444C229.081 80.7964 229.398 80.8391 229.68 81.2516C229.963 81.6665 228.002 82.9336 225.821 84.4212C223.275 86.1579 220.398 88.1259 219.966 88.3992C219.652 88.5978 218.581 88.3403 220.115 87.1288ZM220.202 90.6771C230.13 83.2416 231.943 83.4762 231.272 82.5527C229.717 80.4064 229.508 80.0191 228.86 80.4483C229.105 80.2884 220.807 85.6171 219.1 86.9776C218.933 87.1124 218.793 87.4171 218.816 87.6251C219.178 91.0247 219.319 91.3387 220.202 90.6771ZM196.479 106.378C194.849 105.11 204.868 99.803 214.18 92.9632C214.738 92.5533 215.247 92.5551 215.284 92.6248C215.789 93.5866 216.094 92.9621 203.261 101.791C197.301 105.891 196.781 106.612 196.479 106.378ZM195.371 105.673C195.35 105.599 195.21 105.195 195.254 105.136C195.391 104.953 195.735 105.608 195.717 105.725C195.689 105.895 195.449 105.936 195.371 105.673ZM195.639 104.674C195.089 103.993 194.581 104.186 206.43 96.6884C212.19 93.0466 214.234 91.4883 214.753 91.6042C216.155 91.9236 200.21 101.663 196.4 104.729C196.093 104.977 195.871 104.961 195.639 104.674ZM215.48 91.0045C215.271 90.223 215.07 90.4914 211.997 92.5365C211.92 92.5895 206.173 96.3992 206.091 96.4389C204.892 97.0491 204.196 97.4401 203.061 98.2033C200.163 100.15 197.282 102.121 194.409 104.103C193.952 104.42 194.289 104.995 195.574 107.028C196.336 108.232 195.783 107.135 215.865 93.7728C216.51 93.3423 216.06 93.1489 215.48 91.0045ZM198.388 109.028C198.386 108.802 198.765 108.761 198.919 108.835C200.308 109.494 201.737 110.918 205.989 109.902C210.265 108.878 213.345 106.924 215.897 103.323C216.305 102.731 215.836 105.193 214.058 107.228C207.077 115.212 198.403 111.112 198.388 109.028ZM199.437 107.873C206.29 102.485 201.412 105.918 211.192 99.8071C216.373 96.5684 215.972 96.2599 216.378 97.7466C218.275 104.691 205.847 112.434 199.899 108.921C199.245 108.533 198.892 108.302 199.437 107.873ZM214.299 107.797C218.571 103.264 217.456 95.1146 215.871 96.1697C210.229 99.9214 196.121 108.306 197.667 109.468C199.889 111.132 200.987 112.433 203.771 112.462C208.578 112.509 211.652 110.613 214.299 107.797Z" fill="#0A1C2D"/>
<path d="M132.612 159.255C132.585 159.091 132.537 158.929 132.488 158.769C132.44 158.609 132.382 158.452 132.321 158.296C132.19 157.965 132.257 157.681 132.507 157.435C132.53 157.413 132.553 157.391 132.573 157.367C132.586 157.352 132.595 157.333 132.614 157.303C132.614 157.212 132.543 157.144 132.492 157.068C132.41 156.947 132.32 156.83 132.248 156.703C132.125 156.482 132.161 156.28 132.339 156.103C132.488 155.956 132.675 155.894 132.875 155.865C133.029 155.843 133.186 155.833 133.347 155.818C133.479 155.565 133.532 155.278 133.736 155.067C133.923 154.872 134.08 154.65 134.288 154.462C134.254 154.471 134.217 154.476 134.186 154.492C133.843 154.671 133.507 154.865 133.157 155.03C132.469 155.355 131.743 155.476 130.984 155.388C130.838 155.37 130.692 155.357 130.547 155.335C130.422 155.316 130.302 155.323 130.176 155.344C130.024 155.37 129.864 155.356 129.709 155.342C129.554 155.329 129.401 155.294 129.235 155.267C129.219 155.476 129.226 155.667 129.185 155.847C129.147 156.016 129.059 156.175 128.99 156.345C129.084 156.486 129.224 156.579 129.345 156.694C129.535 156.873 129.729 157.051 129.9 157.248C130.117 157.498 130.239 157.799 130.299 158.124C130.329 158.289 130.355 158.455 130.37 158.622C130.384 158.786 130.463 158.894 130.611 158.959C130.697 158.996 130.78 159.042 130.868 159.075C131.254 159.222 131.599 159.436 131.923 159.689C132.029 159.772 132.145 159.844 132.272 159.933C132.554 159.766 132.658 159.542 132.612 159.255ZM121.174 155.755C121.393 155.768 121.617 155.79 121.832 155.762C122.205 155.713 122.577 155.641 122.944 155.558C123.271 155.484 123.59 155.379 123.915 155.295C124.138 155.238 124.362 155.182 124.589 155.146C124.948 155.087 125.276 155.16 125.555 155.41C125.656 155.501 125.769 155.578 125.881 155.656C125.913 155.679 125.958 155.686 125.993 155.699C126.122 155.667 126.182 155.563 126.252 155.473C126.409 155.274 126.575 155.087 126.838 155.011C126.849 154.919 126.853 154.837 126.87 154.756C126.899 154.624 126.919 154.486 126.974 154.364C127.092 154.107 127.295 153.955 127.59 153.952C127.663 153.951 127.736 153.953 127.81 153.955C128.094 153.963 128.377 153.946 128.653 153.878C129.364 153.705 130.085 153.683 130.81 153.722C131.615 153.765 132.421 153.818 133.227 153.862C133.478 153.876 133.73 153.873 133.981 153.876C134.13 153.877 134.277 153.882 134.397 154.008C134.484 153.874 134.466 153.737 134.509 153.596C134.452 153.581 134.414 153.564 134.377 153.563C133.997 153.553 133.627 153.479 133.256 153.408C132.567 153.276 131.876 153.15 131.186 153.022C130.701 152.933 130.215 152.852 129.733 152.75C128.861 152.567 127.992 152.372 127.121 152.182C126.474 152.042 125.846 151.851 125.253 151.546C124.694 151.26 124.085 151.147 123.462 151.11C123.431 151.108 123.399 151.109 123.369 151.114C123.349 151.117 123.331 151.13 123.31 151.139C123.267 151.266 123.308 151.386 123.346 151.505C123.401 151.674 123.467 151.84 123.524 152.008C123.659 152.399 123.524 152.696 123.132 152.829C122.987 152.878 122.825 152.894 122.67 152.898C122.493 152.901 122.315 152.872 122.138 152.859C121.868 152.839 121.597 152.819 121.317 152.799C121.333 152.89 121.394 152.873 121.436 152.88C121.871 152.955 122.307 153.017 122.738 153.104C123.303 153.218 123.864 153.349 124.426 153.476C124.507 153.494 124.591 153.518 124.662 153.559C124.871 153.681 124.89 153.935 124.694 154.08C124.604 154.147 124.495 154.199 124.387 154.232C124.147 154.306 123.903 154.37 123.659 154.429C123.292 154.517 122.922 154.591 122.556 154.684C122.137 154.79 121.744 154.96 121.377 155.19C121.199 155.301 121.029 155.423 120.913 155.611C120.984 155.737 121.085 155.749 121.174 155.755ZM163.221 165.256C162.996 164.884 162.692 164.581 162.367 164.297C161.504 163.543 160.559 162.902 159.609 162.267C158.528 161.546 157.421 160.865 156.293 160.219C154.801 159.365 153.355 158.436 151.887 157.543C149.174 155.893 146.47 154.23 143.712 152.655C142.636 152.04 141.506 151.538 140.356 151.081C139.539 150.756 138.684 150.706 137.817 150.798C137.315 150.85 136.875 151.074 136.454 151.335C136.203 151.49 135.966 151.662 135.754 151.868C135.536 152.08 135.397 152.33 135.356 152.634C135.263 153.32 135.137 154.001 134.987 154.677C134.886 155.128 134.925 155.574 135.075 156.01C135.16 156.258 135.256 156.501 135.352 156.76C135.421 156.755 135.491 156.735 135.554 156.749C135.611 156.762 135.66 156.812 135.714 156.844C135.795 156.893 135.876 156.939 135.958 156.988C136.101 157.073 136.244 157.161 136.388 157.246C136.604 157.373 136.821 157.5 137.038 157.626C137.191 157.717 137.348 157.801 137.496 157.899C137.961 158.207 138.454 158.457 138.967 158.677C140.529 159.347 142.133 159.902 143.742 160.446C143.809 160.468 143.877 160.485 143.966 160.511C143.969 160.374 143.968 160.262 143.975 160.15C143.981 160.045 143.993 159.941 144.003 159.837C144.027 159.603 144.099 159.385 144.215 159.183C144.261 159.103 144.325 159.031 144.391 158.965C144.454 158.904 144.575 158.955 144.58 159.046C144.584 159.129 144.578 159.214 144.561 159.295C144.502 159.593 144.436 159.89 144.372 160.187C144.341 160.329 144.307 160.471 144.271 160.624C144.357 160.658 144.433 160.691 144.51 160.72C145.995 161.272 147.502 161.751 149.038 162.145C150.51 162.523 151.97 162.953 153.439 163.344C154.533 163.635 155.622 163.944 156.698 164.3C156.775 164.326 156.856 164.344 156.962 164.373C156.948 164.262 156.933 164.174 156.929 164.086C156.926 164.002 156.931 163.918 156.939 163.835C156.949 163.741 156.964 163.648 156.98 163.555C156.994 163.472 157.012 163.39 157.029 163.308C157.048 163.216 157.069 163.123 157.09 163.031C157.156 162.741 157.279 162.475 157.452 162.235C157.53 162.126 157.633 162.033 157.734 161.943C157.793 161.889 157.889 161.895 157.938 161.938C157.992 161.985 157.994 162.048 157.975 162.111C157.957 162.17 157.929 162.228 157.905 162.286C157.794 162.557 157.672 162.825 157.574 163.101C157.472 163.387 157.388 163.68 157.306 163.972C157.264 164.121 157.241 164.276 157.211 164.427C157.225 164.443 157.236 164.465 157.252 164.47C158.38 164.833 159.505 165.207 160.658 165.482C161.015 165.567 161.374 165.641 161.735 165.708C162.108 165.776 162.486 165.792 162.864 165.764C163.03 165.752 163.198 165.738 163.343 165.641C163.37 165.485 163.291 165.371 163.221 165.256ZM133.837 155.775C133.806 155.853 133.773 155.93 133.741 156.008C133.674 156.171 133.547 156.25 133.376 156.261C133.282 156.268 133.186 156.26 133.093 156.273C132.97 156.292 132.845 156.313 132.728 156.353C132.614 156.392 132.593 156.477 132.657 156.579C132.736 156.703 132.821 156.822 132.904 156.943C132.946 157.004 132.995 157.06 133.03 157.124C133.128 157.305 133.111 157.433 132.973 157.58C132.915 157.642 132.852 157.697 132.791 157.755C132.688 157.852 132.664 157.969 132.713 158.1C132.76 158.227 132.816 158.352 132.859 158.481C132.933 158.699 133.014 158.916 133.068 159.14C133.18 159.604 133.034 159.986 132.667 160.288C132.454 160.464 132.271 160.484 132.032 160.341C131.879 160.25 131.73 160.151 131.592 160.039C131.328 159.825 131.035 159.669 130.717 159.552C130.571 159.497 130.427 159.431 130.289 159.355C130.066 159.232 129.926 159.043 129.896 158.783C129.885 158.689 129.871 158.596 129.864 158.502C129.823 157.966 129.573 157.549 129.155 157.221C128.998 157.098 128.842 156.973 128.697 156.836C128.4 156.554 128.375 156.283 128.573 155.997C128.585 155.98 128.594 155.961 128.606 155.944C128.717 155.781 128.757 155.6 128.737 155.405C128.73 155.332 128.724 155.258 128.727 155.185C128.736 154.876 128.896 154.722 129.202 154.729C129.285 154.731 129.369 154.742 129.452 154.755C129.576 154.774 129.699 154.804 129.824 154.818C129.916 154.828 130.02 154.845 130.102 154.814C130.309 154.737 130.515 154.752 130.724 154.769C130.922 154.785 131.121 154.81 131.32 154.822C131.897 154.857 132.445 154.737 132.971 154.502C133.003 154.488 133.057 154.485 133.03 154.407C132.913 154.396 132.79 154.381 132.666 154.373C132.07 154.336 131.472 154.303 130.876 154.263C130.172 154.215 129.472 154.226 128.78 154.393C128.422 154.48 128.055 154.499 127.686 154.459C127.615 154.451 127.543 154.458 127.47 154.458C127.373 154.582 127.367 154.718 127.362 154.853C127.357 154.979 127.358 155.106 127.339 155.23C127.321 155.349 127.259 155.465 127.129 155.475C126.926 155.49 126.814 155.616 126.703 155.759C126.619 155.866 126.528 155.969 126.429 156.062C126.229 156.249 126.003 156.272 125.762 156.144C125.698 156.11 125.636 156.069 125.579 156.024C125.48 155.947 125.38 155.87 125.289 155.783C125.124 155.623 124.93 155.573 124.71 155.612C124.566 155.637 124.422 155.669 124.28 155.707C123.967 155.793 123.657 155.894 123.342 155.97C122.944 156.067 122.544 156.152 122.143 156.228C121.854 156.283 121.559 156.292 121.265 156.264C121.076 156.247 120.891 156.209 120.722 156.118C120.411 155.949 120.33 155.652 120.508 155.346C120.616 155.161 120.772 155.022 120.944 154.899C121.365 154.597 121.825 154.37 122.321 154.223C122.713 154.107 123.112 154.018 123.507 153.913C123.56 153.899 123.641 153.917 123.657 153.808C123.402 153.754 123.148 153.693 122.891 153.648C122.436 153.569 121.979 153.502 121.525 153.425C121.328 153.391 121.132 153.355 120.94 153.303C120.82 153.27 120.699 153.222 120.596 153.154C120.349 152.988 120.333 152.688 120.547 152.479C120.632 152.395 120.736 152.346 120.851 152.325C120.954 152.307 121.06 152.292 121.164 152.296C121.509 152.31 121.854 152.332 122.2 152.354C122.377 152.366 122.554 152.39 122.732 152.4C122.858 152.406 122.985 152.399 123.094 152.285C123.086 152.234 123.084 152.172 123.064 152.115C123.01 151.957 122.944 151.802 122.89 151.643C122.833 151.474 122.795 151.299 122.81 151.118C122.834 150.811 122.99 150.635 123.292 150.589C123.416 150.57 123.543 150.568 123.669 150.57C124.315 150.582 124.941 150.705 125.541 150.944C126.157 151.188 126.791 151.371 127.435 151.521C128.915 151.868 130.398 152.206 131.893 152.487C132.449 152.592 132.997 152.74 133.547 152.873C133.832 152.942 134.114 153.024 134.399 153.095C134.455 153.11 134.516 153.106 134.592 153.11C134.628 152.906 134.656 152.72 134.694 152.536C134.732 152.354 134.78 152.174 134.827 151.976C134.762 151.949 134.703 151.931 134.65 151.903C134.428 151.785 134.193 151.685 133.989 151.542C133.423 151.143 132.891 150.699 132.396 150.215C132.021 149.848 131.663 149.465 131.309 149.078C130.459 148.148 129.575 147.253 128.65 146.399C128.437 146.202 128.215 146.012 127.931 145.845C127.936 145.924 127.929 145.976 127.944 146.02C128.001 146.188 128.065 146.354 128.128 146.521C128.153 146.589 128.189 146.655 128.207 146.725C128.247 146.877 128.149 147 127.991 146.995C127.919 146.992 127.848 146.966 127.777 146.954C127.733 146.947 127.689 146.947 127.618 146.941C127.709 147.061 127.788 147.146 127.844 147.245C127.948 147.427 127.873 147.607 127.67 147.663C127.571 147.69 127.463 147.702 127.36 147.696C127.151 147.685 126.943 147.656 126.734 147.638C126.689 147.634 126.642 147.648 126.586 147.655C126.654 147.765 126.716 147.85 126.761 147.944C126.853 148.137 126.803 148.325 126.62 148.433C126.523 148.491 126.409 148.53 126.298 148.549C126.081 148.587 125.86 148.602 125.643 148.632C125.29 148.681 124.936 148.726 124.585 148.79C124.254 148.849 123.94 148.97 123.642 149.129C123.61 149.145 123.585 149.174 123.525 149.225C123.8 149.281 124.037 149.318 124.275 149.344C125.347 149.459 126.388 149.374 127.365 148.862C127.512 148.785 127.672 148.724 127.833 148.683C128.235 148.583 128.588 148.731 128.808 149.082C128.863 149.17 128.905 149.267 128.948 149.363C129.008 149.498 129.08 149.621 129.184 149.73C129.262 149.811 129.314 149.918 129.369 150.018C129.409 150.09 129.434 150.172 129.47 150.248C129.543 150.403 129.637 150.444 129.798 150.386C129.897 150.351 129.991 150.304 130.087 150.262C130.286 150.175 130.481 150.195 130.659 150.308C130.79 150.392 130.916 150.49 131.028 150.599C131.508 151.061 132.049 151.434 132.649 151.722C132.903 151.845 133.16 151.965 133.414 152.089C133.536 152.149 133.656 152.215 133.773 152.284C133.817 152.31 133.854 152.349 133.887 152.388C133.928 152.436 133.898 152.529 133.838 152.543C133.788 152.554 133.731 152.565 133.684 152.553C133.573 152.524 133.463 152.489 133.358 152.443C133.023 152.293 132.689 152.142 132.359 151.982C131.8 151.711 131.28 151.38 130.823 150.955C130.739 150.876 130.647 150.806 130.557 150.733C130.45 150.645 130.336 150.626 130.207 150.688C130.113 150.734 130.017 150.779 129.917 150.81C129.605 150.907 129.3 150.775 129.149 150.484C129.115 150.419 129.094 150.346 129.054 150.286C129.002 150.209 128.95 150.12 128.875 150.074C128.722 149.981 128.635 149.845 128.562 149.692C128.521 149.607 128.481 149.521 128.427 149.444C128.296 149.254 128.177 149.221 127.971 149.324C127.831 149.395 127.694 149.473 127.563 149.559C127.277 149.746 126.962 149.847 126.632 149.924C125.475 150.195 124.338 150.027 123.204 149.784C123.143 149.771 123.082 149.749 123.026 149.722C122.97 149.695 122.915 149.661 122.868 149.62C122.676 149.452 122.655 149.226 122.832 149.042C122.94 148.93 123.069 148.834 123.203 148.755C123.837 148.379 124.539 148.212 125.261 148.115C125.5 148.084 125.741 148.068 125.981 148.042C126.039 148.035 126.096 148.013 126.173 147.993C126.107 147.906 126.055 147.842 126.008 147.774C125.949 147.688 125.881 147.604 125.84 147.509C125.745 147.288 125.876 147.076 126.116 147.059C126.199 147.053 126.284 147.064 126.366 147.078C126.614 147.122 126.861 147.173 127.108 147.217C127.175 147.229 127.246 147.268 127.335 147.203C127.282 147.139 127.233 147.077 127.18 147.019C127.087 146.919 126.988 146.824 126.898 146.722C126.83 146.646 126.814 146.555 126.856 146.459C126.89 146.383 126.982 146.345 127.101 146.367C127.183 146.382 127.265 146.405 127.344 146.434C127.462 146.477 127.576 146.53 127.693 146.574C127.746 146.594 127.803 146.604 127.88 146.624C127.812 146.439 127.744 146.285 127.702 146.124C127.668 145.995 127.647 145.856 127.654 145.723C127.661 145.573 127.805 145.483 127.95 145.527C128.048 145.557 128.143 145.607 128.231 145.661C128.716 145.959 129.141 146.334 129.554 146.723C130.387 147.506 131.179 148.33 131.948 149.177C132.585 149.877 133.285 150.509 134.016 151.108C134.234 151.286 134.477 151.434 134.716 151.585C134.8 151.639 134.891 151.704 134.989 151.691C135.189 151.502 135.363 151.304 135.57 151.147C135.844 150.938 136.138 150.752 136.433 150.572C136.907 150.282 137.428 150.128 137.982 150.101C138.958 150.053 139.91 150.168 140.814 150.563C141.505 150.866 142.194 151.173 142.879 151.49C143.735 151.888 144.546 152.373 145.355 152.857C147.784 154.308 150.206 155.772 152.628 157.234C153.973 158.047 155.307 158.878 156.659 159.681C158.4 160.715 160.102 161.804 161.707 163.04C162.215 163.43 162.707 163.84 163.131 164.323C163.296 164.511 163.451 164.712 163.585 164.924C163.684 165.081 163.762 165.259 163.811 165.438C163.893 165.738 163.763 165.978 163.473 166.097C163.358 166.144 163.234 166.178 163.11 166.192C162.913 166.215 162.713 166.226 162.514 166.227C162.061 166.229 161.612 166.176 161.172 166.074C160.447 165.904 159.72 165.741 159.005 165.535C157.13 164.996 155.251 164.477 153.359 164.001C151.702 163.584 150.058 163.115 148.407 162.672C147.546 162.441 146.693 162.184 145.852 161.887C144.607 161.446 143.364 160.999 142.117 160.561C140.989 160.165 139.878 159.727 138.792 159.225C138.305 159.001 137.836 158.749 137.389 158.453C137.136 158.287 136.87 158.137 136.612 157.978C136.176 157.707 135.738 157.438 135.382 157.061C135.146 157.059 135.124 157.053 134.977 156.887C134.634 156.501 134.42 156.053 134.343 155.541C134.326 155.429 134.31 155.318 134.287 155.162C133.979 155.443 133.955 155.476 133.837 155.775Z" fill="#39D192"/>
<path d="M150.864 157.307C150.767 157.239 150.682 157.177 150.594 157.121C150.347 156.963 150.102 156.801 149.849 156.655C149.668 156.55 149.478 156.459 149.286 156.377C148.467 156.027 147.638 155.7 146.828 155.331C144.885 154.445 142.959 153.52 141.046 152.567C140.54 152.315 140.027 152.077 139.509 151.851C139.261 151.742 138.998 151.659 138.735 151.596C138.337 151.502 137.942 151.534 137.567 151.708C137.355 151.806 137.161 151.931 137.045 152.145C137.02 152.19 136.999 152.239 136.985 152.288C136.962 152.376 137.049 152.458 137.137 152.427C137.195 152.406 137.252 152.377 137.3 152.339C137.691 152.031 138.135 151.96 138.608 152.056C138.843 152.105 139.073 152.183 139.3 152.261C140.312 152.609 141.29 153.037 142.265 153.477C143.744 154.145 145.229 154.8 146.688 155.513C147.442 155.882 148.175 156.285 148.856 156.778C149.302 157.101 149.798 157.322 150.311 157.507C150.39 157.536 150.471 157.56 150.553 157.577C150.613 157.59 150.678 157.597 150.739 157.59C150.812 157.582 150.895 157.557 150.906 157.473C150.913 157.418 150.879 157.358 150.864 157.307Z" fill="#39D192"/>
<path d="M143.341 155.997C143.216 156.161 143.098 156.296 143.002 156.445C142.677 156.944 142.471 157.49 142.393 158.081C142.359 158.341 142.326 158.601 142.3 158.862C142.289 158.976 142.289 159.092 142.295 159.207C142.298 159.268 142.319 159.331 142.345 159.386C142.374 159.446 142.432 159.474 142.501 159.472C142.573 159.47 142.618 159.431 142.638 159.365C142.653 159.315 142.663 159.263 142.674 159.212C142.816 158.544 143.032 157.898 143.26 157.256C143.394 156.88 143.554 156.516 143.77 156.179C143.815 156.11 143.85 156.031 143.871 155.952C143.897 155.856 143.787 155.751 143.699 155.791C143.568 155.852 143.447 155.935 143.341 155.997Z" fill="#39D192"/>
<path d="M149.219 158.208C149.121 158.368 149.012 158.521 148.927 158.688C148.683 159.167 148.536 159.679 148.469 160.212C148.427 160.543 148.401 160.877 148.377 161.211C148.369 161.313 148.382 161.419 148.401 161.522C148.412 161.585 148.466 161.629 148.536 161.633C148.603 161.636 148.661 161.611 148.683 161.541C148.711 161.451 148.738 161.361 148.758 161.269C148.975 160.31 149.237 159.364 149.633 158.46C149.658 158.403 149.679 158.343 149.69 158.282C149.703 158.207 149.688 158.133 149.617 158.09C149.551 158.05 149.478 158.046 149.408 158.085C149.381 158.1 149.353 158.115 149.328 158.135C149.296 158.161 149.267 158.191 149.236 158.219C149.231 158.216 149.225 158.212 149.219 158.208Z" fill="#39D192"/>
<path d="M152.51 158.727C152.574 158.856 152.672 158.919 152.756 158.991C153.318 159.478 153.923 159.906 154.553 160.3C154.961 160.554 155.368 160.809 155.778 161.059C155.866 161.112 155.964 161.152 156.061 161.187C156.128 161.211 156.193 161.174 156.216 161.114C156.232 161.073 156.224 161.006 156.199 160.969C156.152 160.902 156.089 160.842 156.025 160.79C155.774 160.586 155.512 160.397 155.225 160.242C154.738 159.979 154.255 159.709 153.779 159.427C153.501 159.262 153.243 159.064 152.971 158.888C152.867 158.82 152.752 158.768 152.638 158.717C152.609 158.704 152.566 158.722 152.51 158.727Z" fill="#39D192"/>
<path d="M137.746 157.232C137.83 157.334 137.965 157.326 138.007 157.235C138.045 157.151 138.067 157.057 138.088 156.967C138.165 156.64 138.233 156.311 138.315 155.986C138.404 155.629 138.522 155.283 138.716 154.966C138.727 154.949 138.736 154.93 138.744 154.91C138.766 154.857 138.76 154.801 138.716 154.767C138.677 154.739 138.623 154.715 138.577 154.718C138.529 154.722 138.476 154.751 138.44 154.785C138.379 154.841 138.319 154.904 138.277 154.976C137.971 155.494 137.733 156.04 137.681 156.649C137.669 156.794 137.683 156.942 137.696 157.087C137.701 157.147 137.736 157.204 137.746 157.232Z" fill="#39D192"/>
<path d="M153.208 161.081C153.045 161.257 152.903 161.443 152.822 161.657C152.715 161.938 152.633 162.23 152.56 162.523C152.534 162.628 152.556 162.75 152.577 162.86C152.593 162.947 152.705 162.996 152.775 162.956C152.816 162.933 152.863 162.889 152.874 162.846C153 162.347 153.261 161.901 153.44 161.423C153.473 161.336 153.509 161.248 153.525 161.157C153.532 161.114 153.505 161.053 153.474 161.02C153.427 160.971 153.359 160.977 153.3 161.01C153.265 161.03 153.234 161.06 153.208 161.081Z" fill="#39D192"/>
<path d="M138.996 156.465C138.943 156.417 138.85 156.406 138.795 156.457C138.742 156.505 138.68 156.562 138.663 156.626C138.571 156.981 138.494 157.34 138.547 157.711C138.556 157.773 138.577 157.833 138.6 157.891C138.627 157.964 138.676 158.018 138.759 158.023C138.818 158.026 138.877 157.961 138.895 157.872C138.908 157.81 138.916 157.748 138.922 157.685C138.935 157.529 138.942 157.372 138.957 157.215C138.975 157.03 138.954 156.839 139.048 156.664C139.085 156.596 139.056 156.52 138.996 156.465Z" fill="#39D192"/>
<path d="M145.252 159.38C145.234 159.403 145.195 159.441 145.171 159.486C145.058 159.7 144.966 159.925 144.929 160.165C144.919 160.231 144.938 160.31 144.967 160.373C145.005 160.456 145.139 160.463 145.175 160.386C145.298 160.12 145.414 159.85 145.53 159.581C145.542 159.554 145.543 159.52 145.545 159.489C145.55 159.421 145.526 159.365 145.469 159.327C145.413 159.289 145.333 159.305 145.252 159.38Z" fill="#39D192"/>
<path d="M149.902 160.374C149.945 160.327 150.007 160.283 150.037 160.223C150.194 159.916 150.345 159.606 150.491 159.294C150.522 159.231 150.531 159.155 150.539 159.084C150.544 159.029 150.446 158.968 150.399 158.999C150.34 159.039 150.272 159.082 150.24 159.141C150.059 159.471 149.911 159.817 149.817 160.183C149.798 160.254 149.795 160.329 149.902 160.374Z" fill="#39D192"/>
<path d="M159.709 164.749C159.732 164.721 159.768 164.694 159.782 164.658C159.859 164.453 159.933 164.248 160.003 164.04C160.023 163.982 160.036 163.918 160.036 163.857C160.036 163.729 159.898 163.652 159.789 163.722C159.739 163.754 159.684 163.801 159.664 163.855C159.582 164.069 159.515 164.29 159.522 164.524C159.525 164.637 159.571 164.726 159.709 164.749Z" fill="#39D192"/>
<path d="M154.298 162.389C154.327 162.345 154.36 162.307 154.38 162.262C154.487 162.015 154.594 161.767 154.694 161.516C154.717 161.458 154.699 161.386 154.637 161.352C154.58 161.319 154.516 161.329 154.465 161.376C154.434 161.404 154.401 161.433 154.381 161.468C154.264 161.678 154.174 161.899 154.147 162.14C154.135 162.25 154.158 162.347 154.298 162.389Z" fill="#39D192"/>
<path d="M50.4926 144.226C48.0021 145.997 45.436 147.816 42.8472 149.549C40.8553 146.992 38.4094 143.913 36.4245 141.642C44.069 137.875 51.5082 133.537 58.5309 128.726C60.7688 130.236 62.6601 132.077 64.763 134.767C59.7868 137.613 55.0641 140.967 50.4926 144.226ZM62.307 159.452C55.8673 162.858 49.0566 166.31 41.5278 169.975L36.1313 142.623C38.1091 144.928 40.5004 147.95 42.4167 150.397C42.4447 150.439 42.4893 150.454 42.5255 150.479C42.5434 150.495 42.5531 150.512 42.5797 150.518C42.6422 150.55 42.7126 150.572 42.782 150.569C42.8598 150.564 42.9367 150.534 43.0036 150.495C45.7104 148.695 48.3928 146.783 50.9925 144.937C54.1346 142.695 57.3444 140.415 60.6582 138.286C61.5213 146.352 62.0426 153.099 62.307 159.452ZM14.2167 169.367L13.9825 168.746C11.1022 161.122 9.17675 155.999 7.36405 148.038C7.69748 148.106 8.03966 148.165 8.36523 148.234C15.4342 149.615 22.7501 151.043 29.8366 151.485C29.8545 151.493 29.872 151.491 29.8895 151.49C29.9153 151.489 29.9494 151.479 29.9752 151.468C30.0101 151.475 30.0363 151.482 30.0713 151.481C30.1924 151.474 30.3108 151.415 30.3921 151.315C32.0636 149.181 33.5075 146.226 34.7875 143.609C34.9426 143.279 35.0995 142.976 35.2559 142.663L40.6656 170.092C31.2836 170.56 21.6598 169.963 14.2167 169.367ZM6.85756 147.057C4.90808 146.679 2.95029 146.301 1.0113 145.957C2.03433 142.781 3.59619 139.767 5.67371 136.968C10.4974 137.787 15.3564 138.621 20.2234 139.455C25.0466 140.274 29.862 141.102 34.6498 141.914C34.4392 142.343 34.2285 142.78 34.0017 143.227C32.7768 145.745 31.3867 148.567 29.8235 150.617C22.8144 150.171 15.5522 148.757 8.53479 147.382C7.99028 147.273 7.43746 147.165 6.88378 147.057L6.85756 147.057ZM7.52487 136.032C7.53273 136.023 7.54147 136.022 7.54147 136.022C7.64504 136.164 7.74031 136.315 7.84344 136.457C7.45757 136.391 7.07213 136.326 6.68625 136.26C6.95894 136.167 7.24081 136.082 7.52487 136.032ZM6.74525 130.419C6.9974 129.328 7.76609 128.461 8.69823 128.2C9.31397 128.028 10.0307 128.101 10.6997 128.42C11.2884 128.691 11.8608 129.146 12.3988 129.768C12.5566 129.95 12.8358 129.97 13.0097 129.812C13.1006 129.729 13.1557 129.622 13.1574 129.509C13.1819 129.472 13.1972 129.437 13.2042 129.401C13.4013 128.418 13.9283 127.581 14.6437 127.159C15.4425 126.681 16.5862 126.626 17.312 127.029C18.3609 127.613 18.6729 128.552 18.8285 129.316C18.9709 130.003 19.0312 130.782 19.0216 131.555C17.6529 133.499 16.8986 135.573 16.7011 137.965C14.1315 137.525 11.5794 137.093 9.02773 136.661C9.00806 136.627 8.99757 136.584 8.97878 136.559C8.3106 135.632 7.62319 134.671 7.16521 133.61C6.81735 132.821 6.46425 131.625 6.74525 130.419ZM20.5629 130.984C21.0685 130.391 21.6384 129.856 22.2555 129.387C25.0816 129.596 27.9514 131.07 30.1325 133.434C30.1504 133.45 30.1604 133.467 30.1788 133.484C29.6579 133.964 28.8879 134.328 28.2014 134.488C26.9235 134.793 26.0032 134.792 25.1187 134.511C24.5794 134.341 24.0459 134.118 23.5306 133.912C23.0067 133.707 22.4648 133.493 21.9163 133.315C20.9077 132.981 20.0049 132.839 19.1912 132.884C19.581 132.237 20.0324 131.604 20.5629 130.984ZM26.8305 127.292C28.762 127.985 30.3055 129.341 30.7666 130.767C30.9567 131.373 30.9667 131.876 30.788 132.564C30.7522 132.705 30.6818 132.848 30.6023 132.982C28.4955 130.701 25.7733 129.228 23.0324 128.832C24.2067 128.072 25.498 127.549 26.8305 127.292ZM35.235 135.062C34.1796 134.826 33.2116 134.923 32.4005 135.333C32.2485 135.097 32.0964 134.863 31.9364 134.637C34.1084 133.223 36.1671 132.284 38.2236 131.77C38.6239 132.252 38.9906 132.752 39.2794 133.267C40.167 134.868 40.5249 136.629 40.3121 138.274L40.2151 138.566C40.1928 138.628 40.1875 138.689 40.191 138.75C39.9966 138.856 39.7947 138.963 39.5919 139.069L39.5338 138.96C38.3923 137.016 37.5668 135.603 35.235 135.062ZM32.7436 135.878C33.4122 135.563 34.1901 135.494 35.0877 135.696C37.1469 136.173 37.8758 137.418 38.97 139.295L39.0094 139.371C37.8347 139.974 36.6522 140.579 35.4679 141.157C35.4596 141.157 35.46 141.166 35.4513 141.167C35.2848 141.141 35.1178 141.115 34.9605 141.089C34.3841 139.149 33.6447 137.409 32.7436 135.878ZM30.9291 138.576C30.9689 137.879 31.3823 136.866 32.189 136.222C33.0137 137.618 33.7006 139.204 34.2412 140.964C33.268 140.801 32.3031 140.637 31.3299 140.473C31.0288 139.9 30.899 139.282 30.9291 138.576ZM31.3814 130.567C30.951 129.236 29.7081 127.967 28.0991 127.144C29.0859 127.081 30.0897 127.173 31.1018 127.403C31.1197 127.411 31.138 127.428 31.1638 127.426C31.1992 127.433 31.2342 127.44 31.26 127.438C32.6951 127.785 34.1101 128.393 35.4443 129.274C36.3192 129.851 37.0852 130.512 37.7587 131.222C35.7213 131.77 33.681 132.725 31.5514 134.12C31.3832 133.904 31.2154 133.695 31.0388 133.488C31.2167 133.244 31.35 132.993 31.4221 132.72C31.6292 131.909 31.6126 131.293 31.3814 130.567ZM24.9365 139.377C23.41 139.114 21.8932 138.859 20.3667 138.596C19.4289 138.439 18.4907 138.274 17.552 138.117C17.687 136.468 18.0908 134.986 18.7961 133.592C19.6395 133.459 20.5922 133.562 21.7158 133.926C22.2467 134.105 22.7707 134.311 23.2859 134.516C23.8103 134.73 24.3614 134.952 24.9186 135.13C25.5819 135.345 26.2357 135.387 26.8418 135.353C27.396 135.323 27.9038 135.225 28.3495 135.122C29.1387 134.94 29.9843 134.528 30.5966 133.973C30.736 134.139 30.8754 134.305 31.0069 134.48C28.8472 135.955 26.8584 137.689 24.9365 139.377ZM30.5489 140.334C28.953 140.067 27.3575 139.799 25.7607 139.522C27.5502 137.947 29.4084 136.358 31.4007 134.997C31.5514 135.215 31.6935 135.433 31.8368 135.659C30.8286 136.436 30.3318 137.662 30.285 138.542C30.2518 139.196 30.3366 139.79 30.5489 140.334ZM29.4376 119.781C29.491 119.804 29.5447 119.836 29.598 119.859C30.5883 120.326 31.7105 120.351 32.5858 120.32L32.9149 120.302C34.3789 120.22 35.8328 119.966 37.243 119.541C38.4216 119.18 39.3201 118.774 40.0639 118.247C40.2977 118.077 40.5634 117.854 40.8181 117.597C40.8452 117.604 40.8632 117.62 40.8889 117.619C42.9464 117.905 45.12 119.348 46.1828 121.131C46.2012 121.147 46.2191 121.155 46.2283 121.172C45.9621 121.847 45.7213 122.52 45.4897 123.202L44.0983 127.258C43.9519 126.97 43.8156 126.7 43.6884 126.446C43.1395 125.313 42.668 124.331 41.4011 123.42C41.2027 123.283 40.9357 123.324 40.7902 123.523C40.653 123.713 40.6945 123.988 40.8929 124.126C41.9788 124.908 42.3708 125.711 42.9097 126.82C43.0958 127.2 43.2916 127.598 43.5241 128.028C43.5822 128.129 43.6718 128.185 43.7688 128.214L41.1206 135.927C40.9409 134.877 40.5787 133.829 40.0381 132.851C39.1221 131.216 37.7023 129.731 35.9171 128.553C34.6096 127.687 33.2195 127.052 31.808 126.669C32.0011 126.068 32.2895 125.479 32.6697 124.971C32.8065 124.773 32.7659 124.506 32.5753 124.36C32.3844 124.214 32.1095 124.264 31.9723 124.454C31.5195 125.061 31.1844 125.757 30.9637 126.482C29.8489 126.265 28.7323 126.188 27.652 126.291C26.8488 126.371 26.0592 126.545 25.2913 126.796C25.8629 124.097 27.3479 121.574 29.4376 119.781ZM33.251 114.437C33.372 114.273 33.5652 114.15 33.7588 114.035C33.8431 113.995 33.9366 113.956 34.0214 113.916C34.0633 113.897 34.1066 113.885 34.1494 113.874C34.3793 113.792 34.5926 113.72 34.7765 113.753C34.9789 113.793 35.1974 113.973 35.1808 114.147C35.1698 114.261 35.0811 114.387 34.9238 114.526C34.7997 114.637 34.6568 114.723 34.5047 114.802C34.4523 114.796 34.3998 114.79 34.3487 114.81C34.2801 114.831 34.2307 114.878 34.1993 114.931C34.0201 114.993 33.8313 115.038 33.6408 115.049C33.4677 115.059 33.3279 115.04 33.2553 114.983C33.119 114.878 33.1386 114.608 33.251 114.437ZM33.6596 115.7L33.6858 115.698C33.8846 115.687 34.0821 115.641 34.2788 115.587L34.7014 116.789C34.7529 116.933 34.8875 117.013 35.0261 117.005C35.0606 117.003 35.0868 117.002 35.1205 116.983C35.2913 116.93 35.3765 116.742 35.3154 116.572L34.8814 115.336C35.0422 115.249 35.2096 115.145 35.3508 115.015C35.6492 114.764 35.8074 114.486 35.8262 114.198C35.8455 113.919 35.7366 113.673 35.5614 113.492C35.8988 113.465 36.2475 113.489 36.5844 113.609C37.2482 113.833 37.8618 114.399 38.3141 115.199C38.738 115.948 38.9849 116.803 39.2222 117.633C39.2323 117.667 39.251 117.692 39.2707 117.726C38.6576 118.107 37.9282 118.426 36.9887 118.712C35.5444 119.148 34.055 119.387 32.5557 119.453C32.3997 119.461 32.2432 119.461 32.0872 119.461C32.0776 119.453 32.0767 119.436 32.0675 119.428C31.3928 118.535 31.2739 117.178 31.7935 116.046C31.9714 115.645 32.2384 115.292 32.55 114.962C32.5876 115.168 32.6767 115.363 32.8576 115.501C33.0578 115.655 33.3217 115.718 33.6596 115.7ZM27.8247 116.535C27.1971 114.928 27.1753 113.113 27.7582 111.561C28.3491 109.999 29.5884 108.689 31.0642 108.042C32.5963 107.471 33.5337 107.15 35.1607 107.034C36.9279 106.945 38.4749 107.432 39.4341 108.439C40.2273 109.264 40.6394 110.44 40.9724 111.586C41.3391 112.877 41.6318 114.242 41.2128 115.455C40.9213 116.314 40.3296 116.929 39.8135 117.34C39.5766 116.51 39.3214 115.655 38.8787 114.881C38.3491 113.946 37.6171 113.274 36.8021 112.989C36.0316 112.728 35.1218 112.769 34.1774 113.126C32.8231 113.617 31.7394 114.59 31.1966 115.775C30.663 116.96 30.7058 118.365 31.2936 119.418C30.8396 119.374 30.3824 119.277 29.9629 119.075C29.0535 118.648 28.2914 117.751 27.8247 116.535ZM26.6391 112.379L26.6303 112.379C26.1116 112.582 25.1677 111.999 24.9116 111.458C24.6551 110.907 24.7534 110.164 25.1545 109.568C25.5238 109.027 26.1225 108.698 26.6246 108.662C27.1792 108.639 27.7311 109.034 27.8268 109.507C27.8373 109.541 27.8474 109.567 27.8574 109.592C27.486 110.108 27.1783 110.664 26.9506 111.258C26.8143 111.622 26.7133 111.992 26.6391 112.379ZM40.3353 105.879C41.1219 105.965 41.8263 106.613 41.9736 107.386C42.1191 108.134 41.7306 108.964 41.0659 109.348C40.8094 108.798 40.4856 108.285 40.0612 107.84C39.6374 107.403 39.1221 107.04 38.5431 106.777C38.9097 106.183 39.636 105.804 40.3353 105.879ZM48.3023 118.929C49.2794 117.432 50.5861 116.404 51.9653 116.051C53.5328 115.651 55.2323 116.217 56.0098 117.399C56.5879 118.27 56.6382 119.327 56.5735 120.052C56.4887 121.03 56.1859 121.993 55.8905 122.931L53.3519 130.907C53.3296 130.978 53.3335 131.047 53.3462 131.115C49.411 133.626 45.3722 135.996 41.2547 138.196L46.3131 123.478C46.8431 121.919 47.3973 120.317 48.3023 118.929ZM55.8144 128.303C56.3467 128.352 56.8707 128.401 57.3946 128.45C56.4066 129.122 55.4093 129.777 54.4112 130.422L55.1069 128.238L55.8144 128.303ZM65.6894 134.55C63.3392 131.483 61.2643 129.47 58.7319 127.812C58.6956 127.788 58.6515 127.773 58.6165 127.766C58.5527 127.718 58.481 127.678 58.3941 127.674C57.5817 127.589 56.7435 127.514 55.8966 127.439L55.3731 127.398L56.7125 123.189C57.0236 122.216 57.3492 121.199 57.4379 120.126C57.5118 119.262 57.4501 117.997 56.7396 116.924C55.7441 115.416 53.6893 114.713 51.7538 115.211C50.1604 115.62 48.6781 116.771 47.5812 118.456C47.2045 119.024 46.9078 119.631 46.6286 120.237C45.4425 118.583 43.4323 117.261 41.4461 116.85C41.6799 116.524 41.8941 116.156 42.0356 115.731C42.5295 114.297 42.2109 112.776 41.8014 111.34C41.6926 110.946 41.5576 110.546 41.4147 110.154C42.453 109.61 43.0447 108.378 42.824 107.218C42.6042 106.066 41.5973 105.14 40.4261 105.013C39.3341 104.9 38.2385 105.508 37.7272 106.475C36.9231 106.233 36.0404 106.134 35.1039 106.168C33.4078 106.288 32.3761 106.632 30.8863 107.183C30.8605 107.193 30.8435 107.194 30.8181 107.205C29.9437 107.574 29.1492 108.131 28.4845 108.836C28.1279 108.205 27.3916 107.768 26.6023 107.794L26.5508 107.797C25.7366 107.842 24.9548 108.319 24.4409 109.078C23.8545 109.935 23.7391 110.993 24.1237 111.823C24.4986 112.627 25.5627 113.333 26.4809 113.282C26.4892 113.282 26.4979 113.281 26.4979 113.281C26.3991 114.477 26.5718 115.71 27.0166 116.849C27.4117 117.861 27.9964 118.697 28.6978 119.284C26.4376 121.294 24.8469 124.11 24.3352 127.101L24.3378 127.153C22.6662 127.87 21.1302 128.989 19.9061 130.421L19.8567 130.476C19.8226 130.017 19.7632 129.56 19.6784 129.139C19.5006 128.271 19.102 127.034 17.739 126.266C16.7439 125.714 15.2533 125.779 14.194 126.419C13.4205 126.88 12.8397 127.684 12.5281 128.649C12.061 128.205 11.572 127.859 11.0642 127.626C10.1998 127.231 9.27376 127.135 8.46093 127.362C7.22901 127.708 6.22259 128.832 5.90008 130.223C5.63307 131.358 5.8 132.652 6.36724 133.959C6.55733 134.408 6.79856 134.838 7.04722 135.25C6.41269 135.398 5.80918 135.64 5.24588 135.984C5.12002 136.06 5.04967 136.203 5.04879 136.342C5.04049 136.351 5.03306 136.369 5.03393 136.387C2.75233 139.423 1.0668 142.722 0.0171091 146.202C-0.0480048 146.432 0.0778532 146.668 0.307718 146.743C0.360596 146.757 0.413035 146.763 0.456299 146.76C0.482519 146.759 0.48995 146.741 0.50743 146.74L0.516169 146.74C2.46434 147.092 4.45665 147.469 6.43279 147.854C8.2787 156.092 10.2334 161.274 13.174 169.051L13.3987 169.655C13.3917 169.682 13.3847 169.709 13.3772 169.735C13.3619 169.935 13.4935 170.11 13.6705 170.17C13.7526 170.236 13.8505 170.282 13.9628 170.275C14.0065 170.273 14.0494 170.271 14.0922 170.251C14.1009 170.251 14.1171 170.233 14.1258 170.232C21.7341 170.836 31.6021 171.454 41.2163 170.939C41.2696 170.954 41.3229 170.977 41.3749 170.974C41.4352 170.971 41.4868 170.959 41.5462 170.938C49.3197 167.147 56.3253 163.597 62.959 160.094C62.9761 160.084 62.9839 160.066 63.0006 160.057C63.0259 160.038 63.0596 160.019 63.0836 159.991C63.1006 159.973 63.1076 159.946 63.1233 159.919C63.1395 159.901 63.1561 159.874 63.1631 159.848C63.1701 159.821 63.1684 159.786 63.1749 159.752C63.1828 159.734 63.1907 159.716 63.1889 159.69C62.9206 153.12 62.3791 146.157 61.4715 137.763C62.7899 136.934 64.118 136.131 65.4653 135.362C65.575 135.304 65.6388 135.204 65.6676 135.09C65.7974 134.935 65.8201 134.716 65.6894 134.55Z" fill="#0A1C2D"/>
<path d="M7.84078 136.457C7.45491 136.392 7.06903 136.326 6.68359 136.261C6.95629 136.167 7.23815 136.082 7.52221 136.032C7.53007 136.022 7.53881 136.022 7.53881 136.022C7.64238 136.164 7.73765 136.315 7.84078 136.457Z" fill="#0A1C2D"/>
<path d="M57.3971 128.45C56.409 129.121 55.4117 129.776 54.4141 130.422L55.1098 128.238L55.8169 128.303C56.3496 128.352 56.8735 128.401 57.3971 128.45Z" fill="#0A1C2D"/>
<path d="M50.5807 123.937C50.509 124.054 50.3827 124.122 50.2525 124.129C50.1572 124.134 50.0602 124.105 49.9789 124.048C49.1932 123.509 48.1915 123.304 47.2546 123.478C47.0138 123.526 46.7962 123.364 46.7481 123.124C46.7097 122.891 46.8617 122.666 47.1025 122.618C48.2641 122.415 49.4943 122.668 50.4692 123.335C50.6676 123.472 50.7174 123.738 50.5807 123.937Z" fill="#0A1C2D"/>
<path d="M48.6373 128.649C48.5574 128.775 48.4223 128.843 48.2921 128.85C48.2056 128.855 48.1177 128.834 48.0369 128.786C47.3447 128.364 46.5174 128.175 45.7151 128.28C45.4826 128.311 45.2645 128.14 45.2339 127.898C45.2038 127.666 45.3738 127.448 45.6067 127.418C46.6162 127.292 47.6366 127.523 48.4909 128.049C48.6981 128.176 48.7649 128.442 48.6373 128.649Z" fill="#0A1C2D"/>
<path d="M47.147 132.831C47.0762 132.966 46.9333 133.052 46.7944 133.059C46.717 133.064 46.6287 133.042 46.5571 133.003C45.9479 132.672 45.2124 132.565 44.542 132.697C44.3013 132.746 44.0762 132.593 44.0281 132.361C43.9809 132.129 44.133 131.895 44.3651 131.847C45.2496 131.668 46.1782 131.808 46.9753 132.241C47.1816 132.36 47.2655 132.616 47.147 132.831Z" fill="#0A1C2D"/>
<path d="M36.9159 111.732C36.8648 111.752 36.8136 111.763 36.7529 111.767C36.5881 111.776 36.4181 111.69 36.3395 111.52L36.2315 111.292C36.1323 111.071 36.2224 110.814 36.4426 110.715C36.6629 110.617 36.9198 110.707 37.0186 110.927L37.127 111.155C37.2262 111.376 37.1361 111.633 36.9159 111.732Z" fill="#0A1C2D"/>
<path d="M30.8627 113.187C30.781 113.279 30.6705 113.328 30.5664 113.334C30.4537 113.34 30.3392 113.303 30.2479 113.221C30.0468 113.041 29.9529 112.76 30.0075 112.496C30.0468 112.26 30.2728 112.108 30.5101 112.156C30.7295 112.196 30.8793 112.396 30.8654 112.614C31.0043 112.771 31.0096 113.023 30.8627 113.187Z" fill="#0A1C2D"/>
<path d="M18.5667 116.362C18.898 118.214 18.4042 120.566 17.3344 122.279C15.9381 122.086 14.8177 121.787 13.8488 121.361C12.6117 120.826 11.6044 120.047 10.9353 119.12C10.5743 118.61 10.4078 118.175 10.4459 117.793C10.5166 117.039 11.3749 116.536 12.1056 116.546C12.828 116.559 13.584 116.909 14.4353 117.625C14.6048 117.771 14.8649 117.742 15.0104 117.572C15.0943 117.47 15.1144 117.34 15.0855 117.219C15.1896 116.575 15.3346 115.855 15.7196 115.305C16.0247 114.864 16.6277 114.45 17.2116 114.604C17.9624 114.781 18.4308 115.617 18.5667 116.362ZM17.4052 113.803C16.4394 113.567 15.5252 114.153 15.0497 114.834C14.6743 115.363 14.496 115.974 14.371 116.564C13.5945 116.021 12.8498 115.745 12.1275 115.732C11.0157 115.71 9.74621 116.467 9.63477 117.709C9.5749 118.31 9.79035 118.919 10.275 119.592C11.0275 120.644 12.1545 121.509 13.5215 122.107C14.6088 122.593 15.8525 122.915 17.4305 123.126C17.5031 123.133 17.5704 123.126 17.6311 123.102C17.6468 123.096 17.6512 123.085 17.6665 123.08C17.6822 123.074 17.7001 123.076 17.7154 123.07C17.7919 123.041 17.8597 122.989 17.9108 122.917C19.1785 120.987 19.751 118.361 19.3708 116.221C19.1982 115.289 18.5851 114.096 17.4052 113.803Z" fill="#0A1C2D"/>
<path d="M20.1597 157.589L19.7249 157.488L19.8162 159.135L20.251 159.235C20.3874 159.267 20.5053 159.272 20.605 159.249C20.7042 159.226 20.7859 159.183 20.8497 159.121C20.9139 159.059 20.9598 158.982 20.9882 158.892C21.0162 158.801 21.0271 158.705 21.0219 158.602C21.0162 158.5 20.9935 158.395 20.9546 158.289C20.9153 158.182 20.8598 158.082 20.7872 157.988C20.7147 157.894 20.6255 157.812 20.5215 157.742C20.4171 157.671 20.296 157.621 20.1597 157.589ZM19.5208 159.312L19.4023 157.167L20.1584 157.343C20.3458 157.386 20.5102 157.454 20.6522 157.547C20.7942 157.64 20.9144 157.749 21.0123 157.873C21.1106 157.997 21.1866 158.128 21.24 158.266C21.2928 158.404 21.3234 158.54 21.3308 158.674C21.3378 158.807 21.3221 158.932 21.2828 159.049C21.2434 159.166 21.181 159.265 21.094 159.346C21.007 159.426 20.8965 159.481 20.761 159.51C20.6251 159.539 20.4643 159.531 20.2777 159.488L19.5208 159.312Z" fill="#0A1C2D"/>
<path d="M22.8523 159.854C22.9848 159.884 23.0997 159.889 23.1985 159.865C23.2968 159.843 23.3776 159.799 23.4419 159.736C23.5052 159.673 23.5529 159.595 23.583 159.503C23.6127 159.411 23.625 159.31 23.6189 159.202C23.6132 159.096 23.5896 158.989 23.5485 158.881C23.507 158.773 23.4502 158.672 23.3772 158.576C23.3046 158.481 23.2168 158.399 23.1137 158.329C23.0097 158.259 22.8921 158.209 22.7597 158.178C22.6273 158.148 22.5119 158.144 22.4136 158.167C22.3153 158.19 22.234 158.233 22.1702 158.297C22.1064 158.36 22.0592 158.437 22.029 158.528C21.9989 158.62 21.9866 158.718 21.9923 158.825C21.9984 158.933 22.0225 159.041 22.0636 159.15C22.1046 159.259 22.1619 159.361 22.2344 159.456C22.307 159.551 22.3952 159.633 22.4984 159.703C22.6019 159.773 22.7199 159.823 22.8523 159.854ZM22.8668 160.118C22.6819 160.075 22.5172 160.006 22.373 159.91C22.2287 159.814 22.1064 159.703 22.0059 159.576C21.9058 159.449 21.8276 159.314 21.7721 159.171C21.7166 159.028 21.6851 158.888 21.6777 158.752C21.6698 158.614 21.6864 158.486 21.7279 158.367C21.769 158.247 21.8337 158.147 21.9224 158.064C22.0111 157.982 22.1243 157.926 22.2615 157.895C22.3992 157.865 22.56 157.872 22.7448 157.915C22.9301 157.958 23.0944 158.027 23.2387 158.122C23.3833 158.218 23.5052 158.329 23.6057 158.455C23.7058 158.581 23.784 158.716 23.8395 158.857C23.895 158.998 23.9265 159.138 23.9344 159.275C23.9418 159.412 23.9252 159.541 23.8837 159.661C23.843 159.782 23.7779 159.883 23.6892 159.967C23.6005 160.05 23.4878 160.107 23.3505 160.137C23.2129 160.167 23.0516 160.16 22.8668 160.118Z" fill="#0A1C2D"/>
<path d="M24.4196 160.449L24.3008 158.305L24.5783 158.369L25.8854 160.283L25.7945 158.652L26.1039 158.723L26.2227 160.868L25.9448 160.804L24.6381 158.892L24.7286 160.521L24.4196 160.449Z" fill="#0A1C2D"/>
<path d="M27.1888 160.335L27.989 160.521L27.5306 159.376L27.1888 160.335ZM26.6133 160.959L27.3173 159.006L27.7049 159.096L28.6497 161.432L28.322 161.356L28.0978 160.798L27.108 160.568L26.9415 161.036L26.6133 160.959Z" fill="#0A1C2D"/>
<path d="M29.3777 161.601L29.2728 159.705L28.5448 159.536L28.5312 159.287L30.2959 159.697L30.3099 159.946L29.5818 159.777L29.6867 161.673L29.3777 161.601Z" fill="#0A1C2D"/>
<path d="M30.8098 161.934L30.6914 159.789L31.0004 159.86L31.1188 162.005L30.8098 161.934Z" fill="#0A1C2D"/>
<path d="M32.6609 162.131C32.7934 162.162 32.9083 162.166 33.0066 162.143C33.1054 162.12 33.1862 162.077 33.25 162.013C33.3138 161.95 33.361 161.873 33.3912 161.78C33.4213 161.688 33.4336 161.588 33.4275 161.48C33.4213 161.373 33.3982 161.266 33.3571 161.158C33.3156 161.051 33.2583 160.949 33.1858 160.854C33.1132 160.759 33.025 160.676 32.9218 160.607C32.8183 160.537 32.7007 160.486 32.5679 160.456C32.4354 160.425 32.3205 160.421 32.2222 160.444C32.1239 160.467 32.0426 160.51 31.9788 160.574C31.915 160.637 31.8678 160.714 31.8376 160.806C31.8075 160.897 31.7952 160.995 31.8009 161.102C31.807 161.21 31.8306 161.319 31.8717 161.428C31.9132 161.536 31.97 161.638 32.043 161.733C32.1156 161.828 32.2038 161.911 32.307 161.98C32.4105 162.05 32.5281 162.101 32.6609 162.131ZM32.6754 162.395C32.4901 162.352 32.3258 162.283 32.1815 162.188C32.0373 162.092 31.915 161.98 31.8145 161.853C31.7144 161.726 31.6362 161.592 31.5807 161.449C31.5247 161.306 31.4933 161.166 31.4863 161.029C31.4784 160.891 31.495 160.763 31.5361 160.644C31.5776 160.525 31.6423 160.424 31.731 160.342C31.8197 160.26 31.9329 160.203 32.0701 160.173C32.2073 160.143 32.3686 160.149 32.5534 160.192C32.7383 160.235 32.903 160.304 33.0473 160.4C33.1915 160.496 33.3138 160.606 33.4143 160.733C33.5144 160.859 33.5926 160.993 33.6481 161.134C33.7036 161.276 33.7351 161.415 33.743 161.553C33.7504 161.69 33.7334 161.819 33.6923 161.939C33.6516 162.059 33.5865 162.161 33.4978 162.244C33.4091 162.327 33.2959 162.384 33.1587 162.414C33.0215 162.445 32.8602 162.438 32.6754 162.395Z" fill="#0A1C2D"/>
<path d="M34.2278 162.727L34.1094 160.582L34.3864 160.646L35.6935 162.561L35.6031 160.929L35.912 161.001L36.0309 163.146L35.7534 163.081L34.4467 161.17L34.5368 162.799L34.2278 162.727Z" fill="#0A1C2D"/>
<path d="M74.9384 53.3024C74.9754 53.3536 75.0045 53.4312 75.0512 53.4453C75.1006 53.4594 75.1676 53.4091 75.2267 53.3871C75.1861 53.3404 75.1535 53.2698 75.1033 53.2522C75.0592 53.2381 74.9939 53.2839 74.9384 53.3024ZM99.3452 54.6224C99.3823 54.618 99.4404 54.6251 99.4484 54.6074C99.5031 54.491 99.548 54.3694 99.5956 54.2494C99.563 54.238 99.5057 54.2089 99.4995 54.2168C99.4237 54.3226 99.3514 54.432 99.2861 54.5448C99.28 54.5563 99.3258 54.5986 99.3452 54.6224ZM84.888 57.9352C84.8298 57.8628 84.7893 57.8135 84.7487 57.7641C84.6905 57.8338 84.5927 57.8999 84.5856 57.9739C84.5803 58.0348 84.6835 58.1053 84.7373 58.1715C84.7893 58.0903 84.8404 58.0092 84.888 57.9352ZM104.24 45.909C104.211 45.9284 104.165 45.9416 104.156 45.968C104.111 46.0924 104.074 46.2211 104.041 46.3498C104.039 46.3595 104.12 46.4019 104.122 46.3992C104.197 46.2952 104.28 46.1929 104.333 46.0765C104.348 46.0412 104.274 45.9663 104.24 45.909ZM81.5912 61.7761C81.6679 61.6464 81.7481 61.5706 81.7525 61.4895C81.7622 61.3281 81.5753 61.1818 81.4889 61.2638C81.4245 61.3246 81.3831 61.4436 81.391 61.5318C81.399 61.6032 81.4959 61.665 81.5912 61.7761ZM53.9774 32.0231C53.9686 32.0884 53.9289 32.1739 53.9562 32.2171C54.0391 32.3476 54.1467 32.464 54.2446 32.5857C54.2842 32.5319 54.3689 32.4543 54.3548 32.4296C54.2772 32.285 54.1793 32.1519 54.0806 32.0196C54.0682 32.0046 54.0135 32.0214 53.9774 32.0231ZM79.0385 61.9533C78.647 62.0027 78.4019 62.0335 78.118 62.0688C78.7061 62.4259 78.7061 62.4259 79.0385 61.9533ZM67.2495 56.445C67.4523 56.8206 67.7909 57.0199 68.2961 57.2588C68.1374 56.9053 68.0537 56.6645 67.9267 56.4468C67.745 56.1364 67.5149 56.2034 67.2495 56.445ZM87.058 56.3418C87.1744 56.7651 87.3622 57.079 87.7537 57.3823C87.8287 56.9335 87.8384 56.6019 87.6523 56.2669C87.4434 56.2933 87.2723 56.3145 87.058 56.3418ZM79.7289 55.2299C79.9776 55.774 79.9776 55.774 80.3805 56.0764C80.3955 55.8472 80.4114 55.6285 80.4255 55.4186C80.2051 55.2652 80.0172 55.0589 79.7289 55.2299ZM86.6295 61.3537C86.4205 61.6764 86.1428 61.8898 86.3218 62.2601C86.5537 62.1808 86.7679 62.1076 87.0686 62.0053C86.8861 61.7346 86.7573 61.5442 86.6295 61.3537ZM48.3536 25.9488C48.5343 25.4224 48.5343 25.4224 48.0838 24.0451C48.1331 24.724 48.1772 25.2866 48.3536 25.9488ZM94.6525 58.5171C94.7963 58.4571 94.9329 58.4219 95.044 58.3469C95.3086 58.1688 95.5607 57.9713 95.8746 57.7403C95.7001 57.5586 95.581 57.4361 95.4638 57.3153C94.6226 58.0321 94.6226 58.0321 94.6525 58.5171ZM71.8663 59.6396C71.9113 59.3733 71.981 59.2366 71.9404 59.1617C71.7076 58.7402 71.4537 58.3302 71.1927 57.9255C71.1539 57.8655 71.0401 57.854 70.9229 57.8029C70.9008 58.272 70.8814 58.6741 70.862 59.1061C71.1768 59.2736 71.4651 59.4262 71.8663 59.6396ZM60.0571 39.7173C60.5182 41.8467 60.8462 42.6782 61.6063 43.6023C61.4846 43.2293 61.4 42.9877 61.3268 42.7417C61.1681 42.2056 60.9221 41.6739 60.885 41.1272C60.8436 40.5364 60.587 40.1555 60.0571 39.7173ZM71.5533 55.4398C71.3003 53.8853 70.9405 53.0785 70.3295 52.5565C70.1681 53.7654 70.8885 54.5836 71.5533 55.4398ZM63.7913 53.4955C64.3723 54.0361 64.912 54.5492 65.4666 55.0474C65.5803 55.1488 65.6923 55.3781 65.9189 55.1894C65.4375 54.4214 64.9622 53.6622 64.4861 52.9039C64.4464 52.8413 64.4032 52.7743 64.3459 52.7302C64.3018 52.6958 64.2321 52.6931 64.1404 52.6658C64.039 52.9083 63.9385 53.1455 63.7913 53.4955ZM67.2636 47.5305C67.5881 48.6115 68.0149 49.5717 68.7476 50.5364C68.7476 49.8645 68.7476 49.3575 68.7467 48.7993C68.267 48.3893 67.7653 47.9599 67.2636 47.5305ZM89.9634 58.9686C89.7421 59.83 89.7139 60.375 89.8514 61.1103C90.6018 60.8784 91.3037 60.5663 91.9791 60.1157C91.5911 59.9914 91.2155 59.9358 90.9122 59.7586C90.5683 59.5576 90.2888 59.2463 89.9634 58.9686ZM62.0745 51.516C61.9572 51.1421 61.8982 50.8988 61.8056 50.6704C60.9247 48.4766 60.2625 46.2114 59.6091 43.9444C59.2961 42.8555 58.8341 41.8379 58.2724 40.8618C58.2001 40.7357 58.0581 40.6493 57.9038 40.5012C57.8298 41.1969 58.1304 41.6924 58.3227 42.2144C58.9055 43.7945 59.5404 45.357 60.0756 46.9538C60.3807 47.8673 60.7554 48.7843 60.7131 49.7869C60.7069 49.9253 60.7448 50.0964 60.8277 50.2022C61.1689 50.6387 61.4829 51.1069 62.0745 51.516ZM55.5187 1.86287C55.2921 1.93164 55.0646 1.95986 54.8785 2.06302C53.6573 2.73139 52.5119 3.51086 51.4856 4.45698C50.871 5.02483 50.3851 5.68967 50.0316 6.44356C48.8826 8.89395 48.2998 11.4669 48.3465 14.18C48.3712 15.6138 48.6146 17.0149 48.8809 18.4177C49.3844 21.0586 50.2855 23.546 51.6284 25.8765C52.5869 27.5386 53.6926 29.0957 54.8803 30.5982C57.09 33.3943 59.2961 36.1938 61.5084 38.9872C62.0207 39.6335 62.5418 40.2746 63.0779 40.9024C66.1914 44.5484 69.7202 47.7236 73.7612 50.323C76.7698 52.2593 80.0807 53.4162 83.5425 54.1939C85.6102 54.6577 87.6453 54.4302 89.6468 53.7971C92.2418 52.9753 94.5802 51.6421 96.894 50.2348C100.045 48.3197 102.263 45.5986 103.945 42.382C104.509 41.3045 104.839 40.1599 104.886 38.937C104.995 36.1603 104.555 33.478 103.463 30.9165C102.56 28.8004 101.358 26.8561 99.9677 25.0291C96.0616 19.8956 91.3645 15.6261 85.8641 12.2605C82.629 10.2818 79.2537 8.55712 75.8333 6.91971C73.3874 5.74963 70.8444 4.8476 68.1912 4.28856C65.4781 3.71719 62.7561 3.17756 60.0306 2.66438C58.6436 2.40338 57.2496 2.08066 55.8643 2.41132C55.7726 2.29845 55.718 2.24731 55.6809 2.1847C55.628 2.09477 55.5857 1.99778 55.5187 1.86287ZM68.2124 53.5828C68.2168 53.5149 68.2221 53.4479 68.2265 53.38C68.2194 53.4462 68.2124 53.5123 68.2062 53.5784C68.5668 54.2865 68.7229 55.0942 69.1902 55.7713C69.2775 55.6999 69.3251 55.6796 69.326 55.6576C69.3728 54.775 68.9195 54.1313 68.3182 53.5608C68.305 53.5476 68.2494 53.5775 68.2124 53.5828ZM103.79 47.9652C103.247 48.1345 103.024 48.6159 102.758 49.0436C102.564 49.3566 102.559 49.5091 102.579 50.1378C102.87 49.6158 103.099 49.2032 103.332 48.7914C103.491 48.5092 103.653 48.2297 103.811 47.952C103.781 47.9335 103.743 47.922 103.726 47.8964C103.717 47.8806 103.741 47.8426 103.75 47.8135C103.764 47.8647 103.777 47.9149 103.79 47.9652ZM74.21 56.2043C74.2171 56.1152 74.2224 56.027 74.2118 56.1831C74.2003 56.0218 74.2065 56.1082 74.2127 56.1937C74.4675 56.6848 74.7179 57.1786 74.9869 57.6618C75.0177 57.7174 75.1517 57.7156 75.2699 57.7491C74.9586 56.8603 74.814 56.5967 74.412 56.221C74.374 56.1858 74.2735 56.2157 74.21 56.2043ZM57.2363 0.999634C59.6629 0.786247 62.0842 1.03931 64.4984 1.40965C66.1297 1.66183 67.7636 1.88932 69.3895 2.1706C71.3567 2.51007 73.2569 3.09908 75.0839 3.90059C79.6293 5.89158 84.0389 8.15416 88.1955 10.8655C93.8907 14.5821 98.6054 19.3348 102.517 24.8801C104.33 27.4495 105.611 30.2773 106.303 33.3572C106.741 35.3094 106.911 37.289 106.843 39.2852C106.822 39.8443 106.7 40.3998 106.623 40.957C106.552 41.4764 106.471 41.994 106.406 42.5142C106.021 45.5898 105.311 48.5666 103.756 51.2885C103.55 51.6474 103.347 52.0063 103.146 52.3669C101.318 55.6814 98.832 58.3945 95.7036 60.5249C92.9217 62.4189 89.9264 63.8411 86.6815 64.7652C84.2408 65.46 81.7922 65.4688 79.3233 65.0703C76.8959 64.6779 74.6007 63.8755 72.4121 62.761C68.4187 60.725 64.9631 57.9872 61.9061 54.7326C58.8614 51.4922 56.2153 47.9564 53.9924 44.0996C52.1557 40.9121 50.4063 37.6831 48.9629 34.2919C47.5239 30.9113 46.6562 27.3913 46.3361 23.74C46.1836 21.9835 46.1095 20.2192 46.054 18.4574C46.0055 16.8835 45.9667 15.3043 46.0434 13.7339C46.1148 12.3134 46.3097 10.8955 46.5204 9.48737C46.725 8.11007 47.0962 6.76981 47.687 5.50185C48.8553 2.99415 50.8013 1.32323 53.3293 0.281891C54.1961 -0.0752182 55.0954 -0.0293655 55.9931 0.0755615C56.4754 0.131989 56.6279 0.281883 57.2363 0.999634Z" fill="#5AE4A7"/>
<path d="M71.0498 27.8427C70.9599 28.6116 70.9705 29.3214 71.1309 30.0207C71.8857 33.3264 73.5505 36.1268 75.918 38.5225C76.2848 38.8937 76.7195 39.2023 77.1454 39.5057C80.2112 41.6818 83.6615 42.2585 87.3119 41.8494C88.8991 41.6721 90.354 41.0628 91.6255 40.0665C92.6218 39.287 93.404 38.3365 93.8043 37.1276C94.3571 35.4584 94.4709 33.7505 94.0688 32.0293C93.3228 28.8294 91.5311 26.3138 88.9881 24.2875C87.7052 23.2647 86.2768 22.5646 84.6676 22.2225C82.4844 21.7587 80.2853 21.6749 78.0721 21.9288C77.2106 22.0267 76.3773 22.2463 75.5776 22.5813C74.6588 22.9658 73.8573 23.5072 73.3459 24.3881C72.9509 25.067 72.5576 25.7512 72.2296 26.4637C71.9571 27.0527 71.7111 27.6302 71.0498 27.8427ZM88.2581 44.4558C85.2866 44.7935 82.726 44.5272 80.2694 43.5758C77.178 42.3784 74.6429 40.4491 72.8248 37.6425C71.5736 35.7124 70.5719 33.6623 69.9467 31.4403C69.6178 30.2729 69.4732 29.0834 69.6399 27.8754C69.7819 26.8534 70.0984 25.91 70.9131 25.1904C71.1256 25.0017 71.2632 24.7152 71.399 24.4542C71.7446 23.7885 72.0612 23.1086 72.4059 22.442C72.8133 21.6546 73.42 21.0524 74.1871 20.6124C75.2681 19.9908 76.4073 19.5128 77.6453 19.3197C80.3849 18.8921 83.1042 19.0094 85.8015 19.6469C87.0959 19.9537 88.2854 20.4925 89.3682 21.2614C91.2842 22.6201 92.971 24.2267 94.2601 26.1886C96.2882 29.2712 97.2466 32.6377 96.6259 36.3499C96.0148 40.0021 93.911 42.4525 90.5092 43.8042C89.6786 44.1349 88.7845 44.3068 88.2581 44.4558Z" fill="#5AE4A7"/>
<path d="M100.293 30.3769C100.385 30.4113 100.526 30.4192 100.559 30.4836C100.875 31.0788 101.222 31.6643 101.466 32.2886C102.122 33.97 102.592 35.7071 102.852 37.4962C103.108 39.2561 102.579 40.7542 101.316 41.9966C101.102 42.2065 100.882 42.4137 100.642 42.5927C99.3937 43.53 98.414 44.7089 97.5737 46.0086C96.9309 47.0006 96.1488 47.8514 95.1489 48.4784C94.6772 48.7738 94.1737 49.0586 93.6455 49.2173C92.3546 49.6088 91.0382 49.9103 89.7385 50.2727C88.728 50.5549 87.7193 50.8485 86.7238 51.1809C85.2768 51.665 83.8819 51.6006 82.4332 51.0954C81.1661 50.6528 79.8285 50.4094 78.5217 50.0814C77.9398 49.935 77.3525 49.8098 76.775 49.6502C75.5546 49.3134 74.5168 48.675 73.6236 47.773C72.0929 46.2264 70.5322 44.708 68.9944 43.1685C67.6665 41.8397 66.4038 40.4544 65.351 38.8902C64.5707 37.7316 63.636 36.7114 62.5956 35.7838C62.3434 35.559 62.0974 35.3253 61.8302 35.1199C60.0958 33.7814 58.6206 32.1889 57.2222 30.5136C56.5229 29.675 55.8731 28.803 55.367 27.8366C54.0796 25.3792 52.8028 22.9155 51.5543 20.4378C51.1848 19.7042 50.8991 18.9247 50.6179 18.1514C50.0659 16.634 49.961 15.0777 50.3145 13.4984C50.5605 12.4007 50.8101 11.3038 51.0764 10.2113C51.1363 9.96175 51.2386 9.70868 51.3823 9.49794C51.4635 9.37979 51.668 9.34364 51.8938 9.23254C51.9246 9.47326 51.9687 9.61257 51.9555 9.7466C51.7694 11.5357 51.5702 13.323 51.385 15.112C51.2421 16.4929 51.5322 17.8164 52.0895 19.057C52.779 20.5948 53.562 22.092 54.3265 23.5963C54.8873 24.6984 55.4869 25.7812 56.0627 26.8764C56.6067 27.9098 57.2504 28.8753 58.0272 29.7482C58.0528 29.7764 58.0775 29.8055 58.0995 29.8346C59.4715 31.6316 61.0578 33.2188 62.7728 34.6896C64.0601 35.7935 65.1324 37.0879 66.0353 38.5366C66.9911 40.0691 68.1929 41.4138 69.4618 42.6994C70.9634 44.2204 72.4615 45.7485 73.9119 47.3189C74.9436 48.4343 76.1578 49.1626 77.6426 49.4747C78.8885 49.7375 80.1292 50.0294 81.3671 50.3283C81.8027 50.4332 82.2401 50.5611 82.6483 50.7436C83.9992 51.3485 85.358 51.2859 86.7079 50.8044C87.945 50.3636 89.2015 49.9967 90.4553 49.6123C92.1368 49.0965 93.7716 48.4334 95.1657 47.2933C95.722 46.8366 96.237 46.3542 96.6364 45.7546C97.6037 44.3033 98.7703 43.0468 100.226 42.0698C100.381 41.9666 100.52 41.8379 100.667 41.7215C102.058 40.6255 102.59 39.1777 102.381 37.4459C102.101 35.1216 101.521 32.8802 100.454 30.7816C100.387 30.6503 100.357 30.4986 100.312 30.3549C100.313 30.3531 100.293 30.3769 100.293 30.3769Z" fill="#5AE4A7"/>
<path d="M84.115 46.3587C83.9818 46.8313 83.5912 46.961 83.175 47.035C81.9494 47.2511 80.7044 47.3824 79.4805 47.1699C75.8556 46.5404 72.706 45.0255 70.4029 42.039C69.3642 40.6917 68.5583 39.2192 68.0292 37.5994C67.8511 37.0527 67.7797 36.4981 67.9119 35.9391C67.9507 35.7742 68.0786 35.5846 68.2206 35.5026C68.4419 35.3765 68.6658 35.5114 68.8096 35.6939C69.0635 36.0167 69.3033 36.3517 69.5238 36.6983C70.1057 37.6162 70.6551 38.5543 71.252 39.4625C72.7369 41.7198 74.7217 43.3837 77.247 44.3668C79.1728 45.1181 81.1391 45.7203 83.2209 45.8499C83.7305 45.8817 83.7297 45.8949 84.115 46.3587Z" fill="#5AE4A7"/>
<path d="M94.6932 22.5341C94.561 22.5165 94.3828 22.5482 94.3035 22.4742C93.8908 22.0915 93.5002 21.685 93.1069 21.2838C92.0259 20.1843 90.8638 19.187 89.6038 18.2912C88.6885 17.6413 87.8473 16.8848 87.0035 16.1414C86.2725 15.4969 85.5821 14.8047 84.8785 14.1293C83.9473 13.2343 82.8795 12.5545 81.7068 12.021C79.8639 11.1825 78.0325 10.314 76.1835 9.48952C75.5363 9.20118 74.8582 8.96664 74.1758 8.7753C71.6848 8.07166 69.1604 7.51704 66.6033 7.10702C66.0883 7.02414 65.5831 6.86278 65.084 6.70407C63.9404 6.34167 62.8144 5.92195 61.6602 5.59659C60.7255 5.33206 59.7688 5.08605 58.806 4.99082C58.1147 4.92381 57.3599 5.00493 56.7003 5.22272C55.2402 5.70416 53.8796 6.42014 52.6275 7.35921C52.4336 7.19785 52.6381 7.06735 52.7342 6.94126C52.8251 6.82486 52.9353 6.70583 53.0622 6.63793C54.511 5.86464 55.8248 4.82241 57.4851 4.475C58.0424 4.35773 58.5908 4.26338 59.1551 4.37007C60.3693 4.60021 61.5835 4.82417 62.795 5.06489C64.4483 5.39555 66.1007 5.7262 67.7487 6.07802C70.5421 6.67408 73.279 7.44385 75.8432 8.74444C76.9797 9.3211 78.1445 9.84045 79.3014 10.3774C80.3216 10.8509 81.347 11.3147 82.3725 11.7777C83.5153 12.2926 84.5161 13.0077 85.4101 13.8824C86.3739 14.8276 87.3368 15.7764 88.3182 16.7049C88.7802 17.1431 89.2502 17.5858 89.7739 17.9429C91.6521 19.2258 93.2295 20.8191 94.6676 22.5632L94.6932 22.5341Z" fill="#5AE4A7"/>
<path d="M70.9475 20.2204C71.1645 20.2204 71.2844 20.1949 71.3867 20.2257C71.5577 20.2769 71.7834 20.3218 71.8672 20.4479C72.0171 20.6754 71.8275 20.8588 71.6521 21.0105C70.2836 22.1929 69.4186 23.6884 68.7652 25.3646C68.1392 26.9764 67.5008 28.5697 67.3068 30.3041C67.2865 30.4866 67.2089 30.6639 67.1428 30.8376C67.1181 30.9028 67.0626 30.9875 67.0044 31.0034C66.9065 31.0289 66.7883 31.028 66.6931 30.9963C66.6384 30.9778 66.5979 30.8808 66.5776 30.8111C66.5159 30.596 66.4162 30.3773 66.418 30.1595C66.4356 27.8696 66.4921 25.5859 67.5096 23.4547C68.0563 22.3075 68.8313 21.3667 69.9238 20.7107C70.273 20.4999 70.6619 20.3553 70.9475 20.2204Z" fill="#5AE4A7"/>
<path d="M93.2198 43.0314C93.4208 43.2572 93.4331 43.5331 93.2877 43.7615C92.4235 45.1159 91.2852 46.0779 89.6064 46.2207C89.5693 46.2242 89.5243 46.2322 89.4944 46.2154C89.3409 46.1281 89.1232 46.0673 89.0526 45.9324C88.9574 45.749 89.1099 45.5814 89.2986 45.5003C89.5737 45.3822 89.8568 45.279 90.1319 45.1609C91.108 44.7411 91.9915 44.1918 92.6845 43.3647C92.7974 43.2298 92.9632 43.1364 93.1087 43.0305C93.1325 43.0129 93.1801 43.0297 93.2198 43.0314Z" fill="#5AE4A7"/>
<path d="M84.3808 25.4437C82.903 27.2081 82.9506 28.9866 83.858 30.8012C84.9196 32.9245 87.4908 33.6184 89.5364 32.399C90.0655 32.0815 90.3838 31.6354 90.3961 31.0393C90.4349 29.2811 89.8909 27.7953 88.2932 26.8501C87.4511 26.351 86.564 25.9542 85.6188 25.6976C85.2282 25.5918 84.8243 25.5336 84.3808 25.4437ZM83.0088 24.9323C83.8359 24.5434 84.6621 24.6334 85.4733 24.7656C86.8189 24.9861 88.0648 25.4975 89.2349 26.1897C89.965 26.6208 90.4993 27.2398 90.8829 27.9884C91.3722 28.9451 91.5539 29.9777 91.5309 31.0366C91.5089 32.1362 91.0019 32.9677 90.002 33.4712C88.6053 34.1748 87.1478 34.3564 85.6426 33.912C85.2185 33.7859 84.8041 33.5752 84.4355 33.3301C82.635 32.138 81.4278 28.9795 82.1888 26.8298C82.3122 26.4798 82.493 26.1491 82.6429 25.807C82.7593 25.5407 82.8669 25.2726 83.0088 24.9323Z" fill="#5AE4A7"/>
<path d="M106.752 204.549C106.621 205.277 106.357 206.256 105.83 207.015C105.36 207.692 104.238 207.968 103.05 208.261C101.984 208.523 100.881 208.795 100.406 209.369C99.7264 210.19 95.5876 229.454 91.9405 247.209C91.7472 248.151 92.2871 249.073 93.1442 249.264L125.699 256.529C126.556 256.721 127.436 256.116 127.661 255.181C131.909 237.561 136.353 218.367 136.088 217.333C135.902 216.611 135.02 215.896 134.166 215.205C133.215 214.435 132.317 213.708 132.179 212.896C132.025 211.985 132.202 210.987 132.394 210.272L106.752 204.549ZM125.647 256.758L93.0931 249.493C92.1118 249.274 91.4915 248.228 91.7106 247.162C93.4831 238.533 99.3355 210.295 100.225 209.219C100.749 208.586 101.89 208.305 102.994 208.033C104.088 207.763 105.218 207.485 105.637 206.882C106.169 206.115 106.423 205.103 106.541 204.388L106.562 204.266L132.686 210.096L132.652 210.216C132.456 210.913 132.255 211.937 132.411 212.857C132.534 213.581 133.438 214.314 134.313 215.023C135.197 215.738 136.11 216.478 136.316 217.274C136.663 218.626 129.954 246.672 127.89 255.236C127.634 256.295 126.629 256.977 125.647 256.758Z" fill="#1A2E35"/>
<path d="M107.933 199.724L133.563 205.445L134.396 201.711C134.458 201.435 134.283 201.16 134.006 201.098L109.379 195.602C109.103 195.54 108.827 195.715 108.766 195.991L107.933 199.724ZM133.741 205.725L107.652 199.902L108.537 195.94C108.627 195.537 109.027 195.283 109.43 195.373L134.058 200.869C134.461 200.959 134.715 201.359 134.625 201.762L133.741 205.725Z" fill="#1A2E35"/>
<path d="M106.956 199.748C106.701 199.691 106.448 199.851 106.391 200.106L105.618 203.571C105.561 203.826 105.722 204.079 105.977 204.136L133.607 210.303C133.862 210.36 134.116 210.198 134.173 209.944L134.946 206.479C135.003 206.224 134.842 205.971 134.587 205.914L106.956 199.748ZM133.556 210.532L105.926 204.365C105.544 204.28 105.304 203.901 105.389 203.52L106.162 200.055C106.247 199.674 106.626 199.433 107.007 199.518L134.638 205.685C135.019 205.77 135.26 206.149 135.175 206.53L134.402 209.995C134.317 210.376 133.938 210.617 133.556 210.532Z" fill="#1A2E35"/>
<path d="M130.163 235.796L129.934 235.743C129.934 235.743 130.162 234.757 130.503 233.271L130.732 233.324C130.391 234.81 130.163 235.796 130.163 235.796Z" fill="#1A2E35"/>
<path d="M131.008 232.129L130.779 232.077C131.779 227.716 133.468 220.291 133.548 219.56C133.629 218.82 132.623 217.773 131.558 216.663C131.299 216.394 131.033 216.117 130.773 215.835L130.945 215.676C131.205 215.957 131.469 216.232 131.727 216.501C132.879 217.7 133.874 218.736 133.782 219.585C133.704 220.291 132.231 226.796 131.008 232.129Z" fill="#1A2E35"/>
<path d="M129.902 214.691C129.18 213.232 129.573 211.46 129.701 210.98L113.787 207.428L113.838 207.199L129.998 210.805L129.96 210.927C129.954 210.948 129.328 213.004 130.113 214.587L129.902 214.691Z" fill="#1A2E35"/>
<path d="M112.436 207.126L108.969 206.352L109.02 206.123L112.488 206.897L112.436 207.126Z" fill="#1A2E35"/>
<path d="M106.205 203.62L106.231 203.387L134.244 206.459L134.218 206.692L106.205 203.62Z" fill="#1A2E35"/>
<path d="M121.558 206.796L121.578 206.562L134.225 207.628L134.206 207.862L121.558 206.796Z" fill="#1A2E35"/>
<path d="M100.871 232.408L102.988 244.564C102.988 244.564 109.655 246.141 115.732 244.724C121.809 243.307 127.962 238.784 129.322 237.05C130.681 235.316 131.708 233.996 131.708 233.996L123.992 222.449C123.992 222.449 110.888 233.885 100.871 232.408Z" fill="#5AE4A7"/>
<path d="M101.018 232.547L103.095 244.467C103.847 244.633 110.074 245.924 115.71 244.61C121.799 243.189 127.949 238.616 129.234 236.978C130.414 235.472 131.343 234.279 131.568 233.99L123.973 222.624C122.733 223.675 110.489 233.808 101.018 232.547ZM103.016 244.69C102.985 244.683 102.969 244.679 102.965 244.678L102.89 244.661L100.732 232.268L100.892 232.292C110.742 233.744 123.789 222.475 123.919 222.361L124.02 222.273L131.857 234.001L131.805 234.068C131.805 234.068 130.778 235.388 129.419 237.122C127.944 239.004 121.787 243.433 115.763 244.838C110.006 246.181 103.646 244.83 103.016 244.69Z" fill="#1A2E35"/>
<path d="M102.664 235.21L103.957 242.31C103.957 242.31 104.624 242.173 105.15 242.83L105.676 243.487C105.676 243.487 110.038 244.181 114.827 243.724C119.616 243.267 126.5 238.198 127.771 237.053C127.771 237.053 128.02 235.759 128.271 235.082C128.522 234.406 129.836 233.353 129.836 233.353L124.492 225.135C124.492 225.135 123.953 225.551 123.208 225.275L122.464 224.999C122.464 224.999 118.937 228.695 114.348 230.689C109.76 232.683 104.871 233.41 104.871 233.41C104.871 233.41 104.125 235.213 102.664 235.21Z" fill="white"/>
<path d="M104.398 242.213C104.648 242.269 104.96 242.412 105.235 242.756L105.733 243.378C106.206 243.448 110.348 244.033 114.81 243.607C119.395 243.169 126.173 238.313 127.658 236.992C127.702 236.766 127.925 235.662 128.155 235.042C128.38 234.436 129.377 233.576 129.674 233.329L124.451 225.297C124.247 225.412 123.767 225.611 123.161 225.385L122.489 225.136C122.024 225.607 118.641 228.95 114.389 230.797C110.122 232.651 105.54 233.422 104.946 233.516C104.801 233.833 104.092 235.229 102.797 235.322L104.046 242.182C104.131 242.178 104.255 242.181 104.398 242.213ZM105.607 243.596L105.052 242.903C104.576 242.309 103.98 242.424 103.974 242.425L103.857 242.45L102.517 235.092L102.658 235.092C104.022 235.095 104.749 233.383 104.756 233.366L104.781 233.304L104.847 233.294C104.896 233.287 109.775 232.546 114.295 230.582C118.809 228.621 122.338 224.955 122.373 224.918L122.426 224.862L123.243 225.165C123.919 225.416 124.409 225.046 124.414 225.042L124.515 224.965L129.987 233.378L129.904 233.445C129.891 233.455 128.612 234.485 128.375 235.123C128.131 235.783 127.883 237.062 127.881 237.075L127.873 237.114L127.844 237.14C126.955 237.941 119.902 243.357 114.832 243.841C110.083 244.294 105.695 243.61 105.651 243.603L105.607 243.596Z" fill="#1A2E35"/>
<path d="M120.404 233.639C121.215 234.799 120.364 236.795 118.502 238.098C116.64 239.4 114.473 239.517 113.661 238.357C112.85 237.197 113.701 235.201 115.563 233.898C117.425 232.596 119.592 232.48 120.404 233.639Z" fill="#5AE4A7"/>
<path d="M119.211 233.021C118.222 232.801 116.859 233.135 115.631 233.994C114.748 234.612 114.069 235.405 113.718 236.227C113.375 237.031 113.389 237.763 113.758 238.29C114.126 238.816 114.809 239.08 115.682 239.033C116.574 238.985 117.552 238.619 118.435 238.001C119.318 237.384 119.997 236.591 120.348 235.768C120.69 234.965 120.676 234.233 120.308 233.706C120.061 233.353 119.677 233.125 119.211 233.021ZM114.799 239.201C114.266 239.083 113.841 238.818 113.565 238.424C113.149 237.829 113.127 237.016 113.502 236.135C113.87 235.273 114.578 234.445 115.497 233.802C117.409 232.464 119.653 232.361 120.5 233.572C120.917 234.167 120.939 234.98 120.564 235.861C120.196 236.723 119.487 237.551 118.569 238.194C117.651 238.836 116.63 239.217 115.694 239.268C115.371 239.285 115.071 239.262 114.799 239.201Z" fill="#1A2E35"/>
<path d="M105.358 229.115L97.8952 238.942C97.8952 238.942 101.279 244.899 106.454 248.385C111.629 251.872 119.131 253.3 121.327 253.115C123.522 252.931 125.189 252.784 125.189 252.784L128.393 239.272C128.393 239.272 111.096 237.458 105.358 229.115Z" fill="#5AE4A7"/>
<path d="M98.032 238.95C98.4227 239.614 101.716 245.055 106.515 248.288C111.701 251.781 119.238 253.173 121.313 252.998C123.219 252.838 124.725 252.706 125.09 252.674L128.244 239.374C126.632 239.181 110.873 237.11 105.35 229.314L98.032 238.95ZM116.679 252.678C113.503 251.97 109.515 250.591 106.384 248.483C101.246 245.021 97.823 239.059 97.7891 239L97.7508 238.932L105.358 228.915L105.45 229.049C111.092 237.251 128.229 239.138 128.401 239.155L128.534 239.169L125.279 252.893L125.195 252.901C125.195 252.901 123.528 253.047 121.332 253.232C120.404 253.31 118.707 253.131 116.679 252.678Z" fill="#1A2E35"/>
<path d="M104.52 232.331L100.199 238.112C100.199 238.112 100.754 238.507 100.631 239.339L100.508 240.172C100.508 240.172 102.969 243.84 106.564 247.036C110.158 250.233 118.558 251.825 120.262 251.977C120.262 251.977 121.379 251.278 122.046 251.001C122.712 250.724 124.378 250.971 124.378 250.971L126.759 241.461C126.759 241.461 126.088 241.35 125.783 240.616L125.479 239.883C125.479 239.883 120.37 239.816 115.786 237.812C111.201 235.808 107.34 232.722 107.34 232.722C107.34 232.722 105.512 233.403 104.52 232.331Z" fill="white"/>
<path d="M100.63 240.144C100.901 240.539 103.292 243.97 106.642 246.949C110.084 250.01 118.255 251.668 120.234 251.856C120.429 251.735 121.39 251.147 122.001 250.893C122.598 250.645 123.906 250.79 124.29 250.84L126.617 241.546C126.394 241.475 125.923 241.259 125.675 240.661L125.399 239.998C124.738 239.979 119.986 239.776 115.739 237.92C111.475 236.056 107.792 233.225 107.318 232.854C106.987 232.964 105.482 233.395 104.533 232.51L100.358 238.095C100.524 238.256 100.848 238.669 100.747 239.356L100.63 240.144ZM116.98 251.506C113.747 250.784 109.018 249.377 106.486 247.124C102.921 243.954 100.435 240.274 100.41 240.238L100.385 240.2L100.515 239.322C100.625 238.575 100.151 238.222 100.13 238.207L100.034 238.137L100.105 238.041L104.51 232.147L104.606 232.251C105.534 233.255 107.281 232.619 107.299 232.612L107.361 232.589L107.414 232.631C107.452 232.662 111.316 235.73 115.833 237.705C120.341 239.676 125.429 239.765 125.48 239.766L125.557 239.767L125.891 240.571C126.168 241.237 126.772 241.345 126.779 241.345L126.904 241.366L124.466 251.102L124.361 251.087C124.345 251.084 122.72 250.848 122.091 251.11C121.441 251.38 120.336 252.069 120.325 252.076L120.291 252.097L120.252 252.094C119.853 252.058 118.606 251.869 116.98 251.506Z" fill="#1A2E35"/>
<path d="M117.753 244.26C117.456 245.644 115.414 246.378 113.192 245.902C110.97 245.425 109.41 243.916 109.707 242.533C110.004 241.149 112.046 240.414 114.268 240.891C116.49 241.368 118.05 242.876 117.753 244.26Z" fill="#5AE4A7"/>
<path d="M114.295 241.017C114.278 241.013 114.26 241.009 114.243 241.005C112.088 240.543 110.105 241.239 109.821 242.557C109.541 243.865 111.037 245.301 113.164 245.775C113.181 245.779 113.199 245.783 113.216 245.787C114.27 246.013 115.313 245.971 116.154 245.668C116.976 245.372 117.503 244.863 117.638 244.235C117.918 242.927 116.422 241.492 114.295 241.017ZM113.114 246.005C110.861 245.502 109.284 243.941 109.592 242.508C109.902 241.063 112.011 240.286 114.292 240.776C114.31 240.78 114.328 240.784 114.346 240.787C116.599 241.29 118.175 242.851 117.867 244.284C117.715 244.995 117.135 245.565 116.234 245.889C115.352 246.206 114.263 246.252 113.167 246.016C113.149 246.013 113.131 246.009 113.114 246.005Z" fill="#1A2E35"/>
<path d="M115.464 214.108L103.706 217.848C103.706 217.848 103.044 224.668 105.269 230.497C107.495 236.326 112.807 241.812 114.709 242.925C116.611 244.038 118.058 244.877 118.058 244.877L128.456 235.671C128.456 235.671 115.355 224.232 115.464 214.108Z" fill="#5AE4A7"/>
<path d="M103.812 217.936C103.75 218.704 103.312 225.049 105.375 230.455C107.606 236.297 112.968 241.773 114.765 242.824C116.416 243.79 117.724 244.549 118.041 244.733L128.276 235.671C127.067 234.586 115.372 223.822 115.342 214.269L103.812 217.936ZM118.069 245.021L117.996 244.978C117.996 244.978 116.549 244.139 114.647 243.027C112.583 241.819 107.362 236.318 105.156 230.539C102.947 224.751 103.579 217.906 103.585 217.837L103.593 217.76L115.58 213.947L115.578 214.109C115.47 224.065 128.399 235.469 128.53 235.583L128.63 235.671L118.069 245.021Z" fill="#1A2E35"/>
<path d="M112.93 216.256L106.069 218.497C106.069 218.497 106.295 219.139 105.715 219.749L105.135 220.359C105.135 220.359 105.037 224.775 106.137 229.458C107.237 234.142 113.19 240.277 114.496 241.382C114.496 241.382 115.811 241.454 116.516 241.612C117.22 241.769 118.441 242.929 118.441 242.929L125.861 236.523C125.861 236.523 125.376 236.045 125.549 235.27L125.722 234.495C125.722 234.495 121.583 231.5 118.988 227.223C116.392 222.946 115.01 218.2 115.01 218.2C115.01 218.2 113.124 217.704 112.93 216.256Z" fill="white"/>
<path d="M116.54 241.497C117.171 241.638 118.158 242.509 118.442 242.771L125.695 236.51C125.553 236.323 125.293 235.876 125.434 235.244L125.59 234.544C125.06 234.147 121.29 231.247 118.886 227.284C116.472 223.306 115.089 218.87 114.915 218.295C114.581 218.194 113.102 217.68 112.836 216.409L106.208 218.574C106.25 218.802 106.278 219.326 105.799 219.83L105.251 220.407C105.245 220.885 105.226 225.068 106.25 229.431C107.303 233.916 113.031 239.975 114.541 241.267C114.77 241.281 115.895 241.353 116.54 241.497ZM118.436 243.087L118.359 243.014C118.347 243.002 117.154 241.874 116.489 241.726C115.802 241.573 114.502 241.5 114.489 241.5L114.449 241.497L114.419 241.472C113.506 240.7 107.186 234.444 106.022 229.485C104.931 224.841 105.016 220.401 105.017 220.357L105.018 220.311L105.629 219.668C106.149 219.121 105.965 218.559 105.957 218.535L105.918 218.423L106.031 218.385L113.026 216.1L113.045 216.24C113.226 217.593 115.021 218.081 115.039 218.086L115.103 218.103L115.122 218.166C115.136 218.214 116.529 222.948 119.087 227.162C121.639 231.369 125.749 234.37 125.79 234.4L125.852 234.445L125.663 235.295C125.507 235.994 125.925 236.422 125.943 236.44L126.032 236.529L125.937 236.612L118.436 243.087Z" fill="#1A2E35"/>
<path d="M116.88 233.626C115.841 234.587 113.748 234.013 112.206 232.344C110.663 230.675 110.256 228.544 111.295 227.583C112.334 226.623 114.427 227.196 115.97 228.865C117.512 230.534 117.92 232.666 116.88 233.626Z" fill="#5AE4A7"/>
<path d="M113.243 227.307C112.503 227.142 111.829 227.248 111.374 227.669C110.384 228.584 110.795 230.646 112.291 232.264C113.787 233.883 115.81 234.455 116.8 233.54C117.272 233.104 117.441 232.391 117.277 231.533C117.109 230.655 116.614 229.736 115.883 228.945C115.074 228.07 114.113 227.502 113.243 227.307ZM114.878 234.124C113.959 233.919 112.957 233.33 112.119 232.424C110.535 230.71 110.129 228.5 111.215 227.497C112.3 226.494 114.471 227.072 116.055 228.786C116.816 229.609 117.332 230.569 117.508 231.489C117.688 232.43 117.493 233.219 116.959 233.713C116.448 234.185 115.696 234.307 114.878 234.124Z" fill="#1A2E35"/>
<path d="M110.308 218.559L98.5493 222.299C98.5493 222.299 97.8876 229.118 100.113 234.948C102.339 240.777 107.651 246.263 109.553 247.376C111.455 248.489 112.902 249.328 112.902 249.328L123.299 240.122C123.299 240.122 110.198 228.683 110.308 218.559Z" fill="#5AE4A7"/>
<path d="M98.6563 222.387C98.5936 223.155 98.1556 229.5 100.219 234.906C102.449 240.747 107.812 246.223 109.609 247.275C111.26 248.241 112.568 249 112.884 249.184L123.119 240.122C121.911 239.037 110.216 228.273 110.186 218.719L98.6563 222.387ZM112.913 249.472L112.84 249.429C112.84 249.429 111.393 248.59 109.491 247.477C107.427 246.27 102.206 240.768 100 234.99C97.7904 229.202 98.4224 222.356 98.4292 222.288L98.4366 222.211L110.423 218.397L110.422 218.56C110.314 228.514 123.243 239.92 123.373 240.034L123.474 240.122L112.913 249.472Z" fill="#1A2E35"/>
<path d="M107.773 220.707L100.912 222.948C100.912 222.948 101.139 223.59 100.559 224.2L99.9792 224.81C99.9792 224.81 99.8812 229.226 100.981 233.909C102.081 238.592 108.033 244.728 109.34 245.833C109.34 245.833 110.655 245.905 111.36 246.062C112.064 246.22 113.285 247.38 113.285 247.38L120.705 240.974C120.705 240.974 120.22 240.496 120.393 239.721L120.566 238.946C120.566 238.946 116.427 235.951 113.831 231.674C111.236 227.396 109.854 222.65 109.854 222.65C109.854 222.65 107.968 222.155 107.773 220.707Z" fill="white"/>
<path d="M111.384 245.948C112.015 246.089 113.001 246.96 113.286 247.222L120.539 240.961C120.397 240.774 120.136 240.327 120.277 239.695L120.434 238.995C119.904 238.598 116.134 235.697 113.73 231.735C111.316 227.757 109.933 223.321 109.759 222.746C109.425 222.645 107.946 222.131 107.68 220.86L101.051 223.025C101.094 223.253 101.122 223.777 100.643 224.281L100.095 224.858C100.089 225.336 100.069 229.519 101.094 233.882C102.147 238.367 107.875 244.426 109.385 245.718C109.614 245.732 110.739 245.804 111.384 245.948ZM113.28 247.538L113.202 247.464C113.191 247.453 111.998 246.325 111.333 246.177C110.646 246.024 109.345 245.951 109.332 245.95L109.293 245.948L109.263 245.923C108.35 245.151 102.03 238.895 100.865 233.936C99.7749 229.292 99.8597 224.852 99.8605 224.808L99.8615 224.762L100.473 224.119C100.993 223.572 100.808 223.009 100.801 222.986L100.762 222.874L100.875 222.836L107.87 220.552L107.888 220.691C108.07 222.043 109.865 222.532 109.883 222.537L109.947 222.554L109.966 222.617C109.979 222.665 111.373 227.399 113.931 231.613C116.483 235.819 120.592 238.821 120.634 238.851L120.696 238.896L120.506 239.746C120.351 240.444 120.769 240.873 120.786 240.89L120.876 240.98L120.78 241.063L113.28 247.538Z" fill="#1A2E35"/>
<path d="M111.728 238.077C110.689 239.038 108.596 238.464 107.053 236.795C105.511 235.126 105.103 232.995 106.143 232.034C107.182 231.073 109.275 231.647 110.817 233.316C112.36 234.985 112.768 237.117 111.728 238.077Z" fill="#5AE4A7"/>
<path d="M108.091 231.758C107.351 231.593 106.677 231.699 106.222 232.12C105.75 232.556 105.581 233.269 105.745 234.127C105.913 235.005 106.408 235.924 107.14 236.715C108.635 238.334 110.658 238.906 111.648 237.991C112.12 237.555 112.289 236.842 112.125 235.984C111.957 235.107 111.462 234.187 110.731 233.396C109.923 232.522 108.961 231.952 108.091 231.758ZM109.726 238.575C108.807 238.37 107.805 237.781 106.967 236.875C106.206 236.052 105.691 235.092 105.514 234.171C105.334 233.23 105.529 232.441 106.063 231.948C107.148 230.944 109.319 231.523 110.903 233.237C111.664 234.06 112.18 235.02 112.356 235.94C112.536 236.881 112.341 237.67 111.808 238.163C111.296 238.636 110.544 238.757 109.726 238.575Z" fill="#1A2E35"/>
<path d="M94.1361 237.431L96.2537 249.587C96.2537 249.587 102.921 251.164 108.998 249.747C115.074 248.33 121.228 243.807 122.587 242.073C123.947 240.339 124.974 239.018 124.974 239.018L117.258 227.472C117.258 227.472 104.153 238.908 94.1361 237.431Z" fill="#5AE4A7"/>
<path d="M94.2759 237.57L96.3524 249.49C97.1048 249.656 103.332 250.947 108.967 249.633C115.057 248.212 121.207 243.639 122.492 242.001C123.672 240.496 124.601 239.302 124.825 239.013L117.231 227.647C115.991 228.698 103.746 238.831 94.2759 237.57ZM96.2735 249.713C96.2433 249.706 96.2264 249.702 96.2234 249.701L96.148 249.684L93.9893 237.291L94.1498 237.315C103.998 238.767 117.047 227.498 117.177 227.384L117.278 227.296L125.115 239.024L125.063 239.091C125.063 239.091 124.036 240.411 122.676 242.145C121.201 244.027 115.045 248.456 109.021 249.861C103.264 251.204 96.9036 249.853 96.2735 249.713Z" fill="#1A2E35"/>
<path d="M95.9214 240.233L97.2146 247.333C97.2146 247.333 97.8815 247.196 98.4078 247.853L98.934 248.51C98.934 248.51 103.296 249.203 108.085 248.747C112.873 248.29 119.758 243.221 121.029 242.076C121.029 242.076 121.278 240.782 121.529 240.105C121.78 239.429 123.094 238.376 123.094 238.376L117.75 230.158C117.75 230.158 117.211 230.574 116.466 230.298L115.722 230.022C115.722 230.022 112.195 233.718 107.606 235.712C103.017 237.706 98.1283 238.433 98.1283 238.433C98.1283 238.433 97.3831 240.236 95.9214 240.233Z" fill="white"/>
<path d="M97.6601 247.236C97.9099 247.292 98.2214 247.435 98.4971 247.779L98.9947 248.401C99.4675 248.471 103.609 249.055 108.071 248.63C112.657 248.192 119.434 243.336 120.919 242.015C120.964 241.789 121.187 240.685 121.416 240.065C121.641 239.458 122.639 238.599 122.936 238.352L117.713 230.32C117.508 230.435 117.029 230.634 116.423 230.408L115.75 230.158C115.286 230.63 111.902 233.973 107.651 235.82C103.383 237.674 98.8015 238.445 98.2076 238.539C98.0628 238.856 97.3541 240.253 96.0589 240.345L97.3082 247.205C97.3928 247.201 97.5165 247.204 97.6601 247.236ZM98.8686 248.618L98.3138 247.926C97.8419 247.336 97.2601 247.443 97.2356 247.448L97.1186 247.471L97.0969 247.354L95.7783 240.115L95.9194 240.115C97.2842 240.118 98.0104 238.406 98.0176 238.388L98.0431 238.327L98.1088 238.317C98.1575 238.31 103.036 237.569 107.557 235.604C112.072 233.643 115.599 229.978 115.635 229.941L115.688 229.885L116.505 230.188C117.177 230.437 117.656 230.08 117.676 230.065L117.777 229.988L117.846 230.094L123.248 238.401L123.165 238.468C123.152 238.478 121.873 239.508 121.637 240.146C121.392 240.806 121.145 242.085 121.142 242.098L121.135 242.137L121.106 242.163C120.217 242.963 113.165 248.38 108.094 248.864C103.345 249.317 98.9571 248.633 98.9134 248.626L98.8686 248.618Z" fill="#1A2E35"/>
<path d="M113.666 238.662C114.477 239.821 113.625 241.818 111.763 243.12C109.902 244.423 107.734 244.539 106.923 243.38C106.112 242.22 106.963 240.224 108.825 238.921C110.687 237.618 112.854 237.502 113.666 238.662Z" fill="#5AE4A7"/>
<path d="M112.475 238.046C112.225 237.99 111.946 237.969 111.645 237.986C110.752 238.033 109.774 238.4 108.892 239.017C107.086 240.281 106.245 242.208 107.018 243.312C107.387 243.839 108.07 244.103 108.942 244.056C109.835 244.009 110.813 243.642 111.695 243.024C112.578 242.407 113.258 241.614 113.608 240.791C113.951 239.988 113.937 239.256 113.568 238.729C113.327 238.385 112.951 238.152 112.475 238.046ZM108.059 244.224C107.526 244.106 107.102 243.841 106.826 243.447C105.979 242.236 106.845 240.163 108.757 238.825C109.675 238.183 110.696 237.801 111.632 237.751C112.589 237.7 113.344 238 113.761 238.595C114.177 239.19 114.2 240.003 113.824 240.884C113.456 241.746 112.748 242.574 111.83 243.217C110.912 243.859 109.891 244.241 108.955 244.291C108.631 244.308 108.331 244.285 108.059 244.224Z" fill="#1A2E35"/>
<path d="M99.9706 228.09L94.2464 239.021C94.2464 239.021 98.5741 244.332 104.257 246.909C109.94 249.486 117.575 249.647 119.709 249.099C121.844 248.552 123.462 248.13 123.462 248.13L124.375 234.273C124.375 234.273 107.016 235.362 99.9706 228.09Z" fill="#5AE4A7"/>
<path d="M94.3874 239.006C94.8831 239.595 99.0356 244.412 104.306 246.802C110 249.383 117.664 249.503 119.681 248.986C121.533 248.51 122.997 248.13 123.351 248.038L124.25 234.397C122.627 234.476 106.744 235.055 100 228.287L94.3874 239.006ZM109.234 248.648C107.511 248.263 105.784 247.73 104.209 247.016C98.5664 244.457 94.1995 239.148 94.1561 239.095L94.1072 239.035L99.9425 227.891L100.055 228.008C102.593 230.627 106.512 232.154 110.466 233.037C117.308 234.564 124.258 234.163 124.368 234.156L124.501 234.147L123.574 248.222L123.493 248.243C123.493 248.243 121.874 248.665 119.739 249.213C118.071 249.641 113.67 249.637 109.234 248.648Z" fill="#1A2E35"/>
<path d="M99.6806 231.399L96.3817 237.819C96.3817 237.819 96.9945 238.116 97.0117 238.958L97.0289 239.799C97.0289 239.799 100.066 243.006 104.142 245.56C108.219 248.115 116.766 248.287 118.472 248.153C118.472 248.153 119.457 247.279 120.069 246.895C120.68 246.511 122.363 246.476 122.363 246.476L123.13 236.704C123.13 236.704 122.448 236.705 122.026 236.033L121.604 235.36C121.604 235.36 116.555 236.144 111.702 234.931C106.848 233.717 102.527 231.317 102.527 231.317C102.527 231.317 100.838 232.292 99.6806 231.399Z" fill="white"/>
<path d="M97.144 239.751C97.4763 240.095 100.405 243.081 104.203 245.461C108.106 247.906 116.44 248.182 118.422 248.039C118.595 247.887 119.445 247.147 120.005 246.795C120.552 246.452 121.866 246.377 122.253 246.362L123.002 236.81C122.77 236.777 122.27 236.643 121.925 236.095L121.544 235.487C120.888 235.578 116.169 236.167 111.672 235.045C107.158 233.916 103.054 231.737 102.525 231.45C102.217 231.614 100.805 232.289 99.7215 231.574L96.5344 237.776C96.7253 237.907 97.1134 238.26 97.1277 238.955L97.144 239.751ZM108.813 247.422C107.045 247.027 105.361 246.463 104.079 245.66C100.036 243.127 96.9728 239.912 96.9422 239.88L96.9111 239.847L96.8929 238.96C96.8775 238.205 96.3508 237.935 96.3286 237.924L96.222 237.871L96.2758 237.765L99.6392 231.22L99.7509 231.306C100.834 232.142 102.451 231.224 102.467 231.215L102.524 231.182L102.582 231.214C102.626 231.238 106.947 233.621 111.729 234.817C116.499 236.011 121.534 235.252 121.584 235.244L121.661 235.232L122.124 235.97C122.505 236.576 123.103 236.586 123.128 236.586L123.255 236.587L123.245 236.713L122.47 246.591L122.364 246.594C122.348 246.594 120.706 246.632 120.13 246.994C119.534 247.369 118.558 248.232 118.549 248.241L118.519 248.267L118.48 248.27C117.641 248.336 112.997 248.355 108.813 247.422Z" fill="#1A2E35"/>
<path d="M114.712 240.961C114.649 242.375 112.758 243.44 110.487 243.339C108.217 243.239 106.428 242.011 106.49 240.597C106.553 239.183 108.444 238.118 110.715 238.219C112.985 238.32 114.774 239.548 114.712 240.961Z" fill="#5AE4A7"/>
<path d="M111.813 238.481C111.463 238.403 111.093 238.353 110.709 238.336C108.506 238.239 106.667 239.255 106.607 240.602C106.578 241.244 106.959 241.869 107.68 242.364C108.417 242.869 109.415 243.174 110.492 243.222C111.568 243.27 112.59 243.055 113.369 242.616C114.13 242.187 114.565 241.598 114.593 240.956C114.643 239.845 113.464 238.85 111.813 238.481ZM109.336 243.306C108.661 243.155 108.047 242.9 107.547 242.557C106.757 242.015 106.34 241.317 106.372 240.591C106.438 239.115 108.388 237.998 110.719 238.102C113.05 238.205 114.893 239.491 114.828 240.967C114.796 241.692 114.318 242.351 113.484 242.82C112.667 243.28 111.601 243.506 110.482 243.456C110.087 243.439 109.702 243.388 109.336 243.306Z" fill="#1A2E35"/>
<path d="M116.739 216.774C116.739 216.774 112.918 223.492 111.56 224.602C110.201 225.713 106.098 226.008 105.445 226.67C104.793 227.332 99.3247 235.096 99.3247 235.096L110.901 243.837C110.901 243.837 115.879 234.652 116.99 234.193C118.102 233.735 121.704 233.428 122.495 232.595C123.287 231.762 127.814 224.596 128.446 223.122L129.078 221.647L116.739 216.774Z" fill="#5AE4A7"/>
<path d="M99.4826 235.071L110.859 243.662C111.475 242.532 115.862 234.53 116.942 234.084C117.367 233.909 118.147 233.755 118.972 233.593C120.293 233.333 121.936 233.009 122.407 232.514C123.239 231.638 127.727 224.492 128.334 223.075L128.918 221.712L116.787 216.92C116.312 217.752 112.921 223.639 111.63 224.693C110.855 225.327 109.253 225.692 107.84 226.015C106.787 226.255 105.791 226.482 105.525 226.752C104.925 227.361 100.104 234.19 99.4826 235.071ZM110.935 244.013L99.1598 235.121L99.2253 235.028C99.4486 234.711 104.706 227.249 105.358 226.587C105.672 226.269 106.606 226.056 107.788 225.786C109.176 225.469 110.749 225.111 111.482 224.511C112.808 223.428 116.595 216.783 116.633 216.716L116.684 216.627L129.23 221.582L128.55 223.168C127.939 224.594 123.417 231.792 122.577 232.676C122.055 233.225 120.441 233.543 119.018 233.823C118.204 233.983 117.435 234.135 117.032 234.301C116.151 234.665 112.38 241.349 111.001 243.893L110.935 244.013Z" fill="#1A2E35"/>
<path d="M118.362 218.71C118.362 218.71 118.082 218.977 117.488 219.175C116.894 219.372 116.265 219.232 116.265 219.232C116.265 219.232 113.163 224.754 112.371 225.347C111.578 225.94 106.774 227.013 106.209 227.327C105.644 227.641 101.587 233.5 101.587 233.5C101.587 233.5 101.883 233.896 101.83 234.379C101.778 234.862 101.608 235.374 101.608 235.374L109.509 241.372C109.509 241.372 109.918 240.529 110.791 240.559L111.664 240.588C111.664 240.588 115.507 233.967 116.276 233.478C117.045 232.99 120.451 232.76 121.412 232.15C122.373 231.539 126.601 224.178 126.601 224.178C126.601 224.178 126.176 223.369 126.212 222.717C126.247 222.065 126.306 221.803 126.306 221.803L118.362 218.71Z" fill="white"/>
<path d="M101.75 235.331L109.479 241.199C109.637 240.95 110.063 240.416 110.8 240.442L111.603 240.469C112.016 239.759 115.465 233.858 116.218 233.379C116.6 233.136 117.561 232.962 118.578 232.777C119.65 232.582 120.866 232.361 121.354 232.051C122.09 231.584 125.005 226.727 126.473 224.175C126.374 223.973 126.068 223.292 126.1 222.71C126.124 222.273 126.158 222.008 126.178 221.877L118.389 218.845C118.276 218.935 117.995 219.132 117.53 219.286C117.038 219.45 116.531 219.395 116.332 219.362C115.946 220.047 113.208 224.871 112.446 225.441C111.948 225.814 110.054 226.333 108.383 226.791C107.405 227.06 106.482 227.313 106.271 227.43C105.878 227.648 103.36 231.155 101.734 233.501C101.822 233.645 101.996 233.988 101.952 234.392C101.91 234.773 101.8 235.166 101.75 235.331ZM109.557 241.553L101.476 235.417L101.502 235.338C101.504 235.333 101.668 234.831 101.719 234.366C101.766 233.937 101.5 233.574 101.498 233.57L101.448 233.503L101.495 233.433C101.912 232.831 105.585 227.542 106.157 227.224C106.392 227.094 107.244 226.861 108.321 226.565C109.89 226.135 111.843 225.599 112.306 225.254C112.916 224.796 115.099 221.077 116.168 219.174L116.211 219.099L116.296 219.117C116.302 219.119 116.901 219.248 117.456 219.063C118.014 218.878 118.283 218.627 118.286 218.625L118.34 218.574L118.409 218.6L126.447 221.73L126.426 221.828C126.425 221.831 126.368 222.093 126.334 222.723C126.301 223.335 126.706 224.116 126.71 224.124L126.74 224.181L126.708 224.237C126.534 224.539 122.455 231.63 121.48 232.249C120.953 232.583 119.767 232.799 118.62 233.008C117.67 233.18 116.688 233.359 116.344 233.577C115.733 233.966 112.835 238.813 111.771 240.647L111.735 240.708L110.792 240.676C110.004 240.649 109.624 241.416 109.62 241.424L109.557 241.553Z" fill="#1A2E35"/>
<path d="M109.674 228.471C109.472 229.376 111.124 230.514 113.364 231.014C115.604 231.514 117.583 231.186 117.785 230.281C117.987 229.376 116.335 228.237 114.096 227.737C111.856 227.237 109.876 227.566 109.674 228.471Z" fill="#5AE4A7"/>
<path d="M114.07 227.852C111.933 227.375 109.973 227.67 109.788 228.496C109.604 229.322 111.253 230.423 113.389 230.9C115.526 231.377 117.486 231.081 117.67 230.255C117.855 229.429 116.206 228.328 114.07 227.852ZM113.338 231.129C111 230.607 109.34 229.428 109.559 228.445C109.779 227.462 111.782 227.101 114.121 227.622C116.459 228.144 118.119 229.323 117.9 230.306C117.68 231.289 115.676 231.651 113.338 231.129Z" fill="#1A2E35"/>
</svg>
