<svg width="156" height="54" viewBox="0 0 156 54" fill="none" xmlns="http://www.w3.org/2000/svg">
<path d="M24.0969 11.4181C25.8194 11.5735 27.507 12.04 29.0381 12.8346C33.4747 15.1666 34.9014 19.0878 34.9014 24.2874V25.3238C34.9014 25.5311 34.7448 25.6866 34.536 25.6866H26.9503C26.7415 25.6866 26.5849 25.5311 26.5849 25.3238V21.6962C26.5849 21.4544 26.4109 21.2471 26.1674 21.1953L17.8335 19.6751C17.2071 19.5542 16.6156 19.3642 16.0588 19.0706L0 10.8826C0 9.58702 1.25269 8.63694 2.52278 8.98242L15.9892 13.301C15.9892 14.061 16.4764 14.752 17.2071 14.9938L23.1922 16.6522C23.314 16.6867 23.4532 16.6003 23.4532 16.4621V16.203C23.4532 15.8748 23.227 15.5812 22.8964 15.4948L18.425 14.3374C17.6943 14.0956 17.2071 13.4046 17.2071 12.6445C17.2071 11.6081 18.1118 10.8135 19.1558 10.9517L24.0969 11.4181Z" fill="#28B3DD"/>
<path d="M27.4026 0.811887C24.5841 0.276387 20.8608 0 16.9287 0C12.9967 0 9.2734 0.276387 6.47225 0.811887C3.07954 1.46831 1.58327 2.142 1.51367 3.35119C1.51367 4.62948 3.00994 5.4241 6.47225 6.02869C9.2734 6.4951 13.0141 6.77148 16.9287 6.77148C20.8434 6.77148 24.5841 6.4951 27.3852 6.02869C30.8475 5.4241 32.3438 4.62948 32.3438 3.35119C32.2916 2.142 30.7954 1.46831 27.4026 0.811887ZM30.2212 3.35119C29.8558 3.61031 28.5857 3.92124 26.5501 4.26672C23.9403 4.66403 20.4606 4.94042 16.9461 4.94042C13.4316 4.94042 9.93455 4.73313 7.34217 4.26672C5.28915 3.92124 4.03645 3.62758 3.65369 3.35119C3.5319 3.26482 3.4971 3.09208 3.65369 3.02298C4.87158 2.48748 9.06462 1.36466 16.9461 1.36466C24.8277 1.36466 29.6471 2.66023 30.2386 3.02298C30.3604 3.10935 30.343 3.26482 30.2212 3.35119Z" fill="#28B3DD"/>
<path d="M50.2116 11.3489V16.462H58.3715V19.105H50.2116V25.531H47.0625V8.74048H59.4154V11.3489H50.2116Z" fill="#28B3DD"/>
<path d="M64.0788 24.8571C63.0349 24.3043 62.2172 23.5097 61.6256 22.5251C61.0341 21.5232 60.7383 20.4003 60.7383 19.1221C60.7383 17.861 61.0341 16.7382 61.6256 15.7363C62.2172 14.7517 63.0349 13.9743 64.0788 13.4043C65.1227 12.8515 66.3058 12.5579 67.6107 12.5579C68.933 12.5579 70.1161 12.8342 71.16 13.4043C72.2039 13.9571 73.0216 14.7344 73.6132 15.7363C74.2047 16.7209 74.5005 17.861 74.5005 19.1221C74.5005 20.3831 74.2047 21.5232 73.6132 22.5251C73.0216 23.527 72.2039 24.3043 71.16 24.8571C70.1161 25.4099 68.933 25.7035 67.6107 25.7035C66.3058 25.7035 65.1227 25.4099 64.0788 24.8571ZM70.3596 22.0241C71.0904 21.2813 71.4558 20.314 71.4558 19.1221C71.4558 17.9301 71.0904 16.9628 70.3596 16.22C69.6289 15.4772 68.7242 15.1144 67.6107 15.1144C66.4972 15.1144 65.5925 15.4772 64.8617 16.22C64.1484 16.9628 63.783 17.9301 63.783 19.1221C63.783 20.314 64.1484 21.2813 64.8617 22.0241C65.5751 22.7669 66.4972 23.1297 67.6107 23.1297C68.7068 23.1297 69.6289 22.7669 70.3596 22.0241Z" fill="#28B3DD"/>
<path d="M79.6667 24.8573C78.6228 24.3046 77.805 23.5099 77.2135 22.5253C76.6219 21.5234 76.3262 20.4006 76.3262 19.1223C76.3262 17.8613 76.6219 16.7385 77.2135 15.7366C77.805 14.7519 78.6228 13.9746 79.6667 13.4045C80.7106 12.8518 81.8937 12.5581 83.1986 12.5581C84.5209 12.5581 85.704 12.8345 86.7479 13.4045C87.7918 13.9573 88.6095 14.7347 89.2011 15.7366C89.7926 16.7212 90.0884 17.8613 90.0884 19.1223C90.0884 20.3833 89.7926 21.5234 89.2011 22.5253C88.6095 23.5272 87.7918 24.3046 86.7479 24.8573C85.704 25.4101 84.5209 25.7038 83.1986 25.7038C81.8763 25.7038 80.7106 25.4101 79.6667 24.8573ZM85.9475 22.0244C86.6783 21.2816 87.0436 20.3142 87.0436 19.1223C87.0436 17.9304 86.6783 16.963 85.9475 16.2202C85.2168 15.4774 84.3121 15.1147 83.1986 15.1147C82.0851 15.1147 81.1804 15.4774 80.4496 16.2202C79.7363 16.963 79.3709 17.9304 79.3709 19.1223C79.3709 20.3142 79.7363 21.2816 80.4496 22.0244C81.163 22.7672 82.0851 23.1299 83.1986 23.1299C84.3121 23.1299 85.2168 22.7672 85.9475 22.0244Z" fill="#28B3DD"/>
<path d="M105.608 7.72119V25.5309H102.703V23.8726C102.198 24.4772 101.589 24.9436 100.859 25.2372C100.128 25.5482 99.3102 25.6863 98.4229 25.6863C97.1876 25.6863 96.0741 25.41 95.0824 24.8745C94.0906 24.339 93.3077 23.5616 92.751 22.5597C92.1942 21.5578 91.8984 20.4177 91.8984 19.1222C91.8984 17.8266 92.1768 16.6865 92.751 15.6846C93.3077 14.7 94.0906 13.9226 95.0824 13.3871C96.0741 12.8516 97.1876 12.5752 98.4229 12.5752C99.2754 12.5752 100.058 12.7134 100.772 13.0071C101.485 13.3008 102.077 13.7326 102.581 14.3027V7.72119H105.608ZM100.754 22.6461C101.328 22.3179 101.798 21.8515 102.129 21.2469C102.459 20.6423 102.633 19.934 102.633 19.1394C102.633 18.3448 102.459 17.6366 102.129 17.032C101.798 16.4274 101.328 15.961 100.754 15.6328C100.18 15.3046 99.519 15.1491 98.7882 15.1491C98.0575 15.1491 97.4138 15.3218 96.8222 15.6328C96.2481 15.961 95.7783 16.4274 95.4477 17.032C95.1172 17.6366 94.9432 18.3448 94.9432 19.1394C94.9432 19.934 95.1172 20.6423 95.4477 21.2469C95.7783 21.8515 96.2481 22.3179 96.8222 22.6461C97.3964 22.9743 98.0575 23.1298 98.7882 23.1298C99.519 23.1298 100.18 22.9743 100.754 22.6461Z" fill="#28B3DD"/>
<path d="M121.667 20.09H111.541C111.715 21.04 112.185 21.7828 112.933 22.3356C113.681 22.8884 114.621 23.1648 115.717 23.1648C117.126 23.1648 118.309 22.6984 119.214 21.7656L120.832 23.6139C120.258 24.3049 119.527 24.8231 118.64 25.1686C117.752 25.514 116.761 25.7041 115.647 25.7041C114.238 25.7041 112.985 25.4277 111.906 24.8576C110.828 24.3049 109.993 23.5102 109.401 22.5256C108.809 21.5237 108.514 20.4009 108.514 19.1226C108.514 17.8789 108.792 16.756 109.366 15.7541C109.94 14.7522 110.723 13.9749 111.75 13.4221C112.759 12.8693 113.907 12.5757 115.177 12.5757C116.43 12.5757 117.561 12.8521 118.553 13.4048C119.544 13.9576 120.31 14.735 120.867 15.7369C121.423 16.7388 121.702 17.8961 121.702 19.209C121.702 19.399 121.684 19.6926 121.667 20.09ZM112.724 15.8232C112.063 16.3933 111.645 17.1533 111.506 18.0861H118.831C118.709 17.1533 118.309 16.4106 117.648 15.8232C116.987 15.2532 116.169 14.9595 115.177 14.9595C114.22 14.9768 113.403 15.2532 112.724 15.8232Z" fill="#28B3DD"/>
<path d="M133.533 13.9228C134.542 14.8211 135.047 16.1857 135.047 18.0168V25.5311H132.194V23.9764C131.828 24.5292 131.289 24.961 130.61 25.2547C129.932 25.5484 129.097 25.7038 128.14 25.7038C127.165 25.7038 126.33 25.5484 125.6 25.2201C124.869 24.8919 124.312 24.4428 123.912 23.8555C123.512 23.2682 123.32 22.6117 123.32 21.869C123.32 20.7116 123.755 19.796 124.608 19.1051C125.478 18.4141 126.835 18.0686 128.679 18.0686H132.02V17.8786C132.02 16.9804 131.741 16.2894 131.202 15.823C130.662 15.3393 129.862 15.0975 128.801 15.0975C128.07 15.0975 127.357 15.2011 126.661 15.4257C125.965 15.6502 125.373 15.9612 124.886 16.3585L123.72 14.1647C124.399 13.6464 125.217 13.2664 126.156 12.99C127.113 12.7136 128.122 12.5754 129.184 12.5754C131.08 12.5754 132.524 13.0246 133.533 13.9228ZM130.784 22.9918C131.376 22.6463 131.793 22.1626 132.037 21.5235V20.0379H128.923C127.183 20.0379 126.313 20.6079 126.313 21.748C126.313 22.2835 126.522 22.7154 126.974 23.0436C127.409 23.3718 128.018 23.5273 128.783 23.5273C129.514 23.51 130.193 23.3373 130.784 22.9918Z" fill="#28B3DD"/>
<path d="M138.91 7.72119H141.938V25.5309H138.91V7.72119Z" fill="#28B3DD"/>
<path d="M146.809 25.2892C145.817 25.0128 145.017 24.6673 144.408 24.2527L145.574 21.9725C146.148 22.3526 146.844 22.6635 147.662 22.8881C148.479 23.1126 149.28 23.2336 150.063 23.2336C151.872 23.2336 152.777 22.7672 152.777 21.8171C152.777 21.3679 152.551 21.057 152.081 20.8843C151.629 20.7115 150.88 20.5388 149.871 20.3833C148.81 20.2278 147.94 20.0378 147.279 19.8305C146.618 19.6233 146.026 19.2605 145.539 18.7423C145.052 18.224 144.808 17.4985 144.808 16.5657C144.808 15.3565 145.313 14.3719 146.339 13.6464C147.366 12.9209 148.74 12.5581 150.48 12.5581C151.368 12.5581 152.255 12.6618 153.142 12.8518C154.03 13.0591 154.76 13.3182 155.317 13.6637L154.151 15.9438C153.055 15.3047 151.82 14.9765 150.445 14.9765C149.558 14.9765 148.88 15.1147 148.427 15.3738C147.975 15.6329 147.731 15.9784 147.731 16.4103C147.731 16.8939 147.975 17.2221 148.462 17.4294C148.949 17.6367 149.715 17.8095 150.741 17.9995C151.768 18.1549 152.62 18.345 153.281 18.5522C153.943 18.7595 154.517 19.105 154.987 19.606C155.456 20.1069 155.7 20.7979 155.7 21.7134C155.7 22.9053 155.178 23.8727 154.134 24.5982C153.09 25.3237 151.663 25.6692 149.854 25.6692C148.845 25.7038 147.818 25.5656 146.809 25.2892Z" fill="#28B3DD"/>
<path d="M123.477 34.583C123.477 32.6828 122.694 31.0418 121.128 29.6598C119.301 28.2779 117.387 27.5869 115.386 27.5869H114.76C113.299 27.5869 111.611 27.9497 109.714 28.6925C108.636 29.1416 107.54 29.7807 106.409 30.5926C105.939 30.8517 105.052 31.6636 103.764 33.0283C102.738 34.3411 102.059 35.4121 101.729 36.2758V36.3622C101.729 36.4658 101.763 36.5695 101.816 36.6731C102.337 37.3123 102.877 37.6405 103.434 37.6405H103.59C103.747 37.6405 103.886 37.5714 104.008 37.4505C104.338 36.7422 104.756 36.034 105.26 35.2739C105.887 34.3584 106.826 33.3738 108.096 32.3373C110.932 30.2817 113.629 29.2452 116.221 29.2452H116.465C117.265 29.2452 117.961 29.3834 118.588 29.6425C120.467 30.4372 121.389 31.9055 121.389 34.0647V34.2029C121.389 35.1876 121.215 36.2931 120.849 37.5368C120.258 39.5925 118.814 42.0972 116.552 45.0338C112.898 49.4388 109.819 51.6326 107.331 51.6326C107.157 51.6326 106.913 51.6153 106.583 51.5808C106.27 51.5808 106.061 51.0453 105.991 49.957C105.991 48.9896 106.339 47.815 107.052 46.4676C107.644 45.3793 108.288 44.412 109.018 43.5483C108.514 45.8457 108.27 47.0722 108.27 47.2104V47.2622C108.41 47.6595 108.705 47.8495 109.175 47.8495H109.349C109.627 47.8495 109.854 47.7286 110.028 47.5041C110.758 44.8957 111.472 42.4254 112.185 40.128C112.185 40.0416 112.603 39.627 113.438 38.867C114.882 37.6405 116.204 36.6559 117.405 35.8958C118.257 35.4812 118.692 35.2394 118.709 35.1703V35.0148C118.535 34.5484 118.24 34.3066 117.857 34.3066C116.97 34.4275 115.352 35.4467 113.02 37.3814C113.838 34.7039 114.238 33.3392 114.238 33.2701L114.203 33.0801C113.82 32.5273 113.246 32.2337 112.516 32.2337H112.342C112.168 32.2337 112.011 32.32 111.837 32.4755C111.385 33.9784 110.776 36.2067 110.01 39.1606C109.836 40.1798 109.68 40.6808 109.54 40.6808C105.869 44.7402 104.025 47.8668 104.025 50.0606V50.1816C104.025 50.5961 104.112 50.9762 104.303 51.3217C105.086 52.5481 106.217 53.1527 107.679 53.1527H107.922C109.506 53.1527 111.35 52.3927 113.49 50.8552C114.221 50.4061 115.404 49.3524 117.039 47.6941C118.675 45.9148 119.927 44.3429 120.78 42.9609C122.572 39.938 123.459 37.3123 123.459 35.0839V34.583H123.477Z" fill="white"/>
<path d="M147.121 45.7939C146.965 45.6557 146.878 45.3448 146.878 44.8438V44.7575C146.878 42.5636 147.504 39.3161 148.74 35.0148C150.149 34.8421 151.262 34.7557 152.115 34.7557H152.393C152.759 34.7557 153.124 34.7903 153.454 34.8594C153.75 34.963 153.924 35.0321 153.959 35.0321H154.011C154.255 35.0321 154.498 34.963 154.777 34.8248C155.073 34.6693 155.212 34.5139 155.212 34.393V34.3411C155.212 34.3239 155.212 34.2893 155.194 34.2548C154.533 33.7711 153.211 33.5292 151.227 33.5292C150.358 33.5465 149.662 33.5811 149.174 33.6156H149.157C149.435 32.7692 149.592 32.3373 149.592 32.32L149.557 32.1819C149.296 31.9055 148.983 31.75 148.583 31.75H148.444C148.218 31.75 148.044 31.8018 147.922 31.9227C147.887 31.9227 147.678 32.5273 147.295 33.7538C147.295 33.8229 147.174 33.8402 146.93 33.8402C144.807 34.1511 143.433 34.4275 142.789 34.6693C142.424 34.7557 142.25 34.8421 142.25 34.9457V34.963C142.25 35.0321 142.267 35.1185 142.319 35.2394C142.702 35.7922 143.05 36.0858 143.346 36.0858C144.233 35.8094 145.399 35.5503 146.826 35.3258H146.843C146.199 37.5714 145.764 39.4716 145.503 41.0262C145.312 41.3717 144.999 41.9763 144.546 42.8228C144.094 43.6519 143.677 44.2392 143.294 44.5847H143.155C143.085 44.3256 143.05 44.0665 143.05 43.8247V43.6692C143.05 42.3736 143.45 40.698 144.268 38.6079V38.5906C144.268 38.2969 143.938 38.1069 143.276 38.0033H143.033C142.65 38.0033 142.372 38.2105 142.163 38.6251C142.163 38.6424 142.163 38.6597 142.145 38.6597C141.693 38.3142 141.258 38.1415 140.806 38.1415C139.866 38.1415 139.066 38.6597 138.422 39.6789C138.266 39.9552 138.144 40.2144 138.022 40.4735C138.005 40.4907 137.987 40.4907 137.97 40.508C137.465 41.1644 136.648 42.3218 135.534 43.9629C135.308 44.2738 135.151 44.4465 135.029 44.5156C135.029 44.5156 135.012 44.4984 135.012 44.4811C135.099 43.7728 135.238 42.9782 135.447 42.1491C135.952 40.1625 136.213 39.0224 136.213 38.746C136.213 38.6079 136.178 38.5042 136.126 38.4351C135.899 38.2105 135.621 38.1069 135.29 38.1069H135.151C134.612 38.1069 134.003 38.4697 133.324 39.1952C132.768 39.8861 132.281 40.5598 131.88 41.2335H131.863C131.933 40.9053 132.089 40.2835 132.35 39.3852V39.3334L132.315 39.247C132.072 38.9533 131.724 38.7979 131.254 38.7979C130.958 38.7979 130.749 38.867 130.628 39.0224C130.506 39.3679 130.349 40.0416 130.141 41.0435C130.123 41.0781 130.088 41.1126 130.071 41.1472C129.793 41.4235 129.601 41.5963 129.497 41.6481C129.236 41.8381 128.801 42.0627 128.192 42.3045H128.174C128.366 41.6308 128.453 41.0608 128.453 40.5598V40.508C128.453 40.0589 128.383 39.6789 128.227 39.3506C127.861 38.6424 127.235 38.2969 126.33 38.2969H126.191C126 38.2969 125.773 38.3315 125.53 38.4006C124.921 38.6424 124.451 39.057 124.103 39.6443C123.86 40.1453 123.755 40.5598 123.755 40.9226C123.338 41.4926 123.129 42.1318 123.129 42.84V43.0128C123.129 43.5483 123.285 44.0838 123.581 44.6193C123.947 45.1202 124.382 45.3793 124.886 45.3793H125.025C125.686 45.3793 126.365 45.0339 127.044 44.3602C127.409 43.9456 127.687 43.5656 127.861 43.2028C127.861 43.1164 127.948 43.0646 128.105 43.0301C128.714 42.8228 129.253 42.5636 129.74 42.2354C129.793 42.2009 129.845 42.1663 129.897 42.1318C129.688 43.0991 129.549 43.9283 129.462 44.602V44.7402C129.462 44.7747 129.462 44.8438 129.479 44.9475C129.653 45.3102 130.001 45.5003 130.506 45.5003C130.61 45.5003 130.715 45.483 130.819 45.4312C130.889 45.3793 131.063 45.0511 131.376 44.4293C132.176 43.0301 133.116 41.5617 134.194 40.0071H134.212V40.0243C133.742 41.6654 133.516 42.8573 133.516 43.5828V43.8592C133.516 44.222 133.585 44.5675 133.725 44.8784C133.986 45.3275 134.316 45.5521 134.682 45.5521H134.786C135.064 45.5521 135.412 45.3102 135.812 44.8438C136.195 44.3256 136.7 43.6174 137.309 42.7018C137.291 42.8746 137.274 43.0473 137.274 43.2201V43.4619C137.274 43.721 137.326 43.9974 137.448 44.2738C137.778 44.9302 138.37 45.2584 139.223 45.2584C139.692 45.2584 140.336 44.6711 141.154 43.5137H141.171V43.7037C141.171 43.911 141.206 44.1356 141.258 44.3774C141.519 45.2411 141.937 45.6557 142.511 45.6557H142.65C143.363 45.6557 144.216 44.792 145.225 43.0819C145.208 43.3583 145.19 43.6174 145.19 43.8419C145.19 44.5156 145.277 45.103 145.434 45.6039C145.695 46.2603 146.13 46.5885 146.739 46.5885H146.878C147.243 46.5885 147.435 46.4676 147.487 46.2431C147.504 46.053 147.382 45.9148 147.121 45.7939ZM125.373 44.3947C125.304 44.3947 125.252 44.3774 125.182 44.3256C124.973 44.0147 124.869 43.6174 124.869 43.0991C124.869 42.9782 124.886 42.8919 124.886 42.8573H124.904L125.095 42.961C125.408 43.1337 125.791 43.2373 126.278 43.3064C125.895 44.0147 125.599 44.3947 125.373 44.3947ZM127.044 40.3871C127.044 40.9917 126.887 41.7172 126.574 42.5809C125.913 42.5809 125.46 42.27 125.234 41.6481C125.286 41.5445 125.373 41.4235 125.513 41.2681C125.721 41.1472 125.826 41.0262 125.826 40.9226V40.9053C125.826 40.7326 125.652 40.5771 125.286 40.4389C125.286 40.4044 125.304 40.3353 125.321 40.2489C125.408 40.0416 125.547 39.817 125.721 39.5925C126.087 39.1952 126.382 38.9879 126.609 38.9879C126.643 39.0052 126.678 39.0224 126.713 39.0397C126.922 39.3679 127.026 39.748 127.026 40.1971V40.3871H127.044ZM140.336 43.0301C140.058 43.5656 139.744 43.9283 139.379 44.1356C139.223 44.1356 139.136 43.9801 139.136 43.6692V43.4965C139.136 43.341 139.17 43.0991 139.275 42.7709C140.058 40.4216 140.701 39.247 141.206 39.247C141.467 39.247 141.676 39.6616 141.797 40.508C141.206 41.6308 140.719 42.4773 140.336 43.0301Z" fill="white"/>
<path d="M155.49 40.3698H155.438C155.229 40.3698 155.003 40.4907 154.777 40.7153C154.533 41.0953 154.202 41.5617 153.767 42.1145C152.41 43.7728 151.419 44.602 150.792 44.602C150.723 44.602 150.653 44.5847 150.549 44.5501C150.236 44.3774 150.079 43.9628 150.079 43.3064V42.9436C150.253 42.9436 150.427 42.9091 150.618 42.8745C150.931 42.8054 151.227 42.7018 151.506 42.5982C151.854 42.4427 152.167 42.2354 152.497 41.9417C153.176 41.2853 153.524 40.5253 153.524 39.6443C153.524 39.247 153.437 38.9188 153.245 38.6596C152.88 38.2796 152.445 38.0896 151.958 38.0896H151.819C150.984 38.0896 150.183 38.5733 149.435 39.5579C148.652 40.6116 148.27 41.7345 148.27 42.8745V43.0818C148.27 43.5655 148.374 44.0146 148.565 44.4292C149.07 45.2411 149.644 45.6384 150.305 45.6384H150.41C151.123 45.6384 151.975 45.1547 152.95 44.2047C153.402 43.7383 153.75 43.3582 153.976 43.0646C154.55 42.3218 155.02 41.6481 155.386 41.0262C155.559 40.7671 155.646 40.5771 155.646 40.508V40.4907C155.681 40.4389 155.629 40.3871 155.49 40.3698ZM150.392 41.8035C151.071 40.2316 151.54 39.437 151.801 39.437H151.819C151.958 39.437 152.045 39.6788 152.08 40.1798C152.08 40.4389 152.028 40.7153 151.941 40.9917C151.68 41.6999 151.175 42.0627 150.375 42.0627H150.34H150.288L150.392 41.8035Z" fill="white"/>
</svg>
