<svg width="11" height="14" viewBox="0 0 11 14" fill="none" xmlns="http://www.w3.org/2000/svg">
<path d="M7.48656 1.39082L6.10656 0.830815C5.56656 0.610815 4.94656 0.870815 4.72656 1.41748L4.30656 2.44415C4.08656 2.98415 4.34656 3.60415 4.89323 3.83082L6.41989 4.45082C6.25989 5.21748 6.01323 6.11748 5.62656 7.09082C5.19323 8.19082 4.69323 9.09748 4.23989 9.82415L2.71323 9.20415C2.16656 8.98415 1.54656 9.24415 1.32656 9.79082L0.90656 10.8175C0.68656 11.3641 0.94656 11.9841 1.49323 12.2041L2.87323 12.7641L2.89989 12.7775C4.38656 13.3775 6.09989 12.7975 6.87323 11.3975C7.39323 10.4575 7.90656 9.40415 8.37989 8.22415C8.80656 7.15748 9.13989 6.13748 9.39323 5.19082C9.81323 3.63748 8.99989 2.01748 7.51323 1.41082L7.48656 1.39082Z" stroke="white" stroke-opacity="0.6" stroke-width="1.2" stroke-miterlimit="10" stroke-linecap="round" stroke-linejoin="round"/>
</svg>
