<svg width="374" height="351" viewBox="0 0 374 351" fill="none" xmlns="http://www.w3.org/2000/svg">
<path d="M353.523 68.2769C352.297 66.1964 351.01 64.1569 349.663 62.16C331.718 35.5762 300.845 17.3934 270.473 9.17349C257.173 5.57361 243.437 3.68661 229.674 3.21988C139.415 0.160278 103.464 71.2971 73.6327 89.6548C43.8012 108.013 -2.09314 139.374 0.965709 205.156C4.0261 270.939 51.4506 332.897 143.239 336.721C235.029 340.546 241.148 299.24 292.397 283.943C326.314 273.818 350.41 239.623 362.21 208.022C378.29 164.955 377.533 109.015 353.523 68.2769Z" fill="#39D192"/>
<g opacity="0.699997">
<path d="M353.523 68.2769C352.297 66.1964 351.01 64.1569 349.663 62.16C331.718 35.5762 300.845 17.3934 270.473 9.17349C257.173 5.57361 243.437 3.68661 229.674 3.21988C139.415 0.160278 103.464 71.2971 73.6327 89.6548C43.8012 108.013 -2.09314 139.374 0.965709 205.156C4.0261 270.939 51.4506 332.897 143.239 336.721C235.029 340.546 241.148 299.24 292.397 283.943C326.314 273.818 350.41 239.623 362.21 208.022C378.29 164.955 377.533 109.015 353.523 68.2769Z" fill="white"/>
</g>
<path d="M371.139 344.188H30.3789" stroke="#1A2E35" stroke-width="1.33333" stroke-miterlimit="10" stroke-linecap="round" stroke-linejoin="round"/>
<g opacity="0.300003">
<path d="M228.445 68.9922H266.696V110.426H228.445V68.9922ZM266.696 290.957H184.05V117.612H266.696V290.957ZM184.05 68.9922H222.729V110.426H184.05V68.9922ZM222.729 62.3691H184.05V20.6095H222.729V62.3691ZM266.696 62.3691H228.445V20.6095H266.696V62.3691ZM179.422 297.244H271.324V14.3223H179.422V297.244Z" stroke="black" stroke-width="1.33333" stroke-miterlimit="10" stroke-linecap="round" stroke-linejoin="round"/>
<path d="M319.992 68.9922H358.243V110.426H319.992V68.9922ZM358.243 290.957H275.597V117.612H358.243V290.957ZM275.596 68.9922H314.275V110.426H275.596V68.9922ZM314.275 62.3691H275.596V20.6095H314.275V62.3691ZM358.243 62.3691H319.992V20.6095H358.243V62.3691ZM270.969 297.244H362.87V14.3223H270.969V297.244Z" stroke="black" stroke-width="1.33333" stroke-miterlimit="10" stroke-linecap="round" stroke-linejoin="round"/>
<path d="M246.123 164.572L223.051 193.288" stroke="black" stroke-width="1.33333" stroke-miterlimit="10" stroke-linecap="round" stroke-linejoin="round"/>
<path d="M251.851 157.443L248.184 162.008" stroke="black" stroke-width="1.33333" stroke-miterlimit="10" stroke-linecap="round" stroke-linejoin="round"/>
<path d="M197.968 214.228L193.242 219.781" stroke="black" stroke-width="1.33333" stroke-miterlimit="10" stroke-linecap="round" stroke-linejoin="round"/>
<path d="M228.609 178.223L201.504 210.072" stroke="black" stroke-width="1.33333" stroke-miterlimit="10" stroke-linecap="round" stroke-linejoin="round"/>
<path d="M339.088 173.34L316.016 202.056" stroke="black" stroke-width="1.33333" stroke-miterlimit="10" stroke-linecap="round" stroke-linejoin="round"/>
<path d="M344.815 166.211L341.148 170.776" stroke="black" stroke-width="1.33333" stroke-miterlimit="10" stroke-linecap="round" stroke-linejoin="round"/>
<path d="M290.933 222.996L286.207 228.549" stroke="black" stroke-width="1.33333" stroke-miterlimit="10" stroke-linecap="round" stroke-linejoin="round"/>
<path d="M321.574 186.991L294.469 218.84" stroke="black" stroke-width="1.33333" stroke-miterlimit="10" stroke-linecap="round" stroke-linejoin="round"/>
<path d="M349.747 27.1733L338.703 40.918" stroke="black" stroke-width="1.33333" stroke-miterlimit="10" stroke-linecap="round" stroke-linejoin="round"/>
<path d="M352.487 23.7609L350.73 25.9459" stroke="black" stroke-width="1.33333" stroke-miterlimit="10" stroke-linecap="round" stroke-linejoin="round"/>
<path d="M326.695 50.9412L324.434 53.5999" stroke="black" stroke-width="1.33333" stroke-miterlimit="10" stroke-linecap="round" stroke-linejoin="round"/>
<path d="M341.361 33.7072L328.387 48.9519" stroke="black" stroke-width="1.33333" stroke-miterlimit="10" stroke-linecap="round" stroke-linejoin="round"/>
<path d="M306.65 27.1733L295.605 40.918" stroke="black" stroke-width="1.33333" stroke-miterlimit="10" stroke-linecap="round" stroke-linejoin="round"/>
<path d="M309.392 23.7609L307.637 25.9459" stroke="black" stroke-width="1.33333" stroke-miterlimit="10" stroke-linecap="round" stroke-linejoin="round"/>
<path d="M283.598 50.9412L281.336 53.5999" stroke="black" stroke-width="1.33333" stroke-miterlimit="10" stroke-linecap="round" stroke-linejoin="round"/>
<path d="M298.267 33.7072L285.293 48.9519" stroke="black" stroke-width="1.33333" stroke-miterlimit="10" stroke-linecap="round" stroke-linejoin="round"/>
<path d="M306.65 78.668L295.605 92.4127" stroke="black" stroke-width="1.33333" stroke-miterlimit="10" stroke-linecap="round" stroke-linejoin="round"/>
<path d="M309.392 75.2557L307.637 77.4407" stroke="black" stroke-width="1.33333" stroke-miterlimit="10" stroke-linecap="round" stroke-linejoin="round"/>
<path d="M283.598 102.436L281.336 105.094" stroke="black" stroke-width="1.33333" stroke-miterlimit="10" stroke-linecap="round" stroke-linejoin="round"/>
<path d="M298.267 85.2017L285.293 100.446" stroke="black" stroke-width="1.33333" stroke-miterlimit="10" stroke-linecap="round" stroke-linejoin="round"/>
<path d="M345.087 78.668L334.043 92.4127" stroke="black" stroke-width="1.33333" stroke-miterlimit="10" stroke-linecap="round" stroke-linejoin="round"/>
<path d="M347.83 75.2557L346.074 77.4407" stroke="black" stroke-width="1.33333" stroke-miterlimit="10" stroke-linecap="round" stroke-linejoin="round"/>
<path d="M322.036 102.436L319.773 105.094" stroke="black" stroke-width="1.33333" stroke-miterlimit="10" stroke-linecap="round" stroke-linejoin="round"/>
<path d="M336.705 85.2017L323.73 100.446" stroke="black" stroke-width="1.33333" stroke-miterlimit="10" stroke-linecap="round" stroke-linejoin="round"/>
<path d="M258.896 27.1733L247.852 40.918" stroke="black" stroke-width="1.33333" stroke-miterlimit="10" stroke-linecap="round" stroke-linejoin="round"/>
<path d="M261.639 23.7609L259.883 25.9459" stroke="black" stroke-width="1.33333" stroke-miterlimit="10" stroke-linecap="round" stroke-linejoin="round"/>
<path d="M235.844 50.9412L233.582 53.5999" stroke="black" stroke-width="1.33333" stroke-miterlimit="10" stroke-linecap="round" stroke-linejoin="round"/>
<path d="M250.514 33.7072L237.539 48.9519" stroke="black" stroke-width="1.33333" stroke-miterlimit="10" stroke-linecap="round" stroke-linejoin="round"/>
<path d="M258.896 77.4704L247.852 91.2151" stroke="black" stroke-width="1.33333" stroke-miterlimit="10" stroke-linecap="round" stroke-linejoin="round"/>
<path d="M261.639 74.058L259.883 76.243" stroke="black" stroke-width="1.33333" stroke-miterlimit="10" stroke-linecap="round" stroke-linejoin="round"/>
<path d="M235.844 101.238L233.582 103.897" stroke="black" stroke-width="1.33333" stroke-miterlimit="10" stroke-linecap="round" stroke-linejoin="round"/>
<path d="M250.514 84.0044L237.539 99.2491" stroke="black" stroke-width="1.33333" stroke-miterlimit="10" stroke-linecap="round" stroke-linejoin="round"/>
<path d="M216.966 77.4704L205.922 91.2151" stroke="black" stroke-width="1.33333" stroke-miterlimit="10" stroke-linecap="round" stroke-linejoin="round"/>
<path d="M219.705 74.058L217.949 76.243" stroke="black" stroke-width="1.33333" stroke-miterlimit="10" stroke-linecap="round" stroke-linejoin="round"/>
<path d="M193.915 101.238L191.652 103.897" stroke="black" stroke-width="1.33333" stroke-miterlimit="10" stroke-linecap="round" stroke-linejoin="round"/>
<path d="M208.58 84.0044L195.605 99.2491" stroke="black" stroke-width="1.33333" stroke-miterlimit="10" stroke-linecap="round" stroke-linejoin="round"/>
<path d="M214.051 27.1733L203.008 40.918" stroke="black" stroke-width="1.33333" stroke-miterlimit="10" stroke-linecap="round" stroke-linejoin="round"/>
<path d="M216.794 23.7609L215.039 25.9459" stroke="black" stroke-width="1.33333" stroke-miterlimit="10" stroke-linecap="round" stroke-linejoin="round"/>
<path d="M191.001 50.9412L188.738 53.5999" stroke="black" stroke-width="1.33333" stroke-miterlimit="10" stroke-linecap="round" stroke-linejoin="round"/>
<path d="M205.669 33.7072L192.695 48.9519" stroke="black" stroke-width="1.33333" stroke-miterlimit="10" stroke-linecap="round" stroke-linejoin="round"/>
</g>
<path d="M72.6806 249.041C72.6806 249.041 64.1868 244.322 63.5575 255.019C62.9282 265.715 61.3555 335.237 61.3555 335.237" stroke="#1A2E35" stroke-width="1.33333" stroke-miterlimit="10" stroke-linecap="round"/>
<path d="M59.1445 255.961C59.1445 255.961 66.0726 271.377 62.9263 334.294" stroke="#1A2E35" stroke-width="1.33333" stroke-miterlimit="10" stroke-linecap="round"/>
<path d="M65.9506 251.195C65.9506 251.195 62.7013 253.276 60.853 250.894C59.004 248.511 62.1038 244.147 59.3716 242.28C56.6402 240.414 51.9242 243.262 51.9242 243.262C51.9242 243.262 55.5566 244.329 55.4389 246.311C55.3228 248.294 53.5728 249.044 53.3398 248.177C53.1068 247.31 51.3746 242.946 48.4257 244.761C45.4768 246.576 45.0263 249.391 45.0263 249.391C45.0263 249.391 51.8901 248.66 52.3065 251.243C52.7229 253.824 49.4907 250.792 46.6594 250.625C43.8274 250.458 41.2445 250.874 41.4272 252.59C41.6106 254.306 41.1602 257.121 41.1602 257.121C41.1602 257.121 43.5596 254.989 46.6749 255.173C49.7903 255.357 49.6734 257.339 46.8413 257.172C44.0093 257.005 41.5766 259.703 41.5766 259.703C41.5766 259.703 44.1579 264.118 47.4388 266.302C50.7206 268.484 51.904 267.701 52.2872 266.018C52.6703 264.337 51.7887 260.022 53.7709 260.139C55.7539 260.255 50.4876 267.618 53.0202 268.052C55.5519 268.485 57.5844 267.753 58.2516 266.087L58.918 264.421C58.918 264.421 58.0357 260.106 58.4196 258.423C58.8027 256.741 59.2687 258.474 59.7184 260.49C60.168 262.505 60.4506 267.354 61.3167 267.12C62.1828 266.887 64.949 263.356 65.5992 261.974C66.2486 260.59 61.9513 256.358 62.0017 255.508C62.052 254.659 65.367 256.275 65.8833 257.159C66.3995 258.042 66.8987 259.208 66.8987 259.208C66.8987 259.208 68.9653 257.909 68.9158 253.927C68.8663 249.946 65.9506 251.195 65.9506 251.195Z" fill="#39D192"/>
<g opacity="0.300003">
<path d="M65.9506 251.195C65.9506 251.195 62.7013 253.276 60.853 250.894C59.004 248.511 62.1038 244.147 59.3716 242.28C56.6402 240.414 51.9242 243.262 51.9242 243.262C51.9242 243.262 55.5566 244.329 55.4389 246.311C55.3228 248.294 53.5728 249.044 53.3398 248.177C53.1068 247.31 51.3746 242.946 48.4257 244.761C45.4768 246.576 45.0263 249.391 45.0263 249.391C45.0263 249.391 51.8901 248.66 52.3065 251.243C52.7229 253.824 49.4907 250.792 46.6594 250.625C43.8274 250.458 41.2445 250.874 41.4272 252.59C41.6106 254.306 41.1602 257.121 41.1602 257.121C41.1602 257.121 43.5596 254.989 46.6749 255.173C49.7903 255.357 49.6734 257.339 46.8413 257.172C44.0093 257.005 41.5766 259.703 41.5766 259.703C41.5766 259.703 44.1579 264.118 47.4388 266.302C50.7206 268.484 51.904 267.701 52.2872 266.018C52.6703 264.337 51.7887 260.022 53.7709 260.139C55.7539 260.255 50.4876 267.618 53.0202 268.052C55.5519 268.485 57.5844 267.753 58.2516 266.087L58.918 264.421C58.918 264.421 58.0357 260.106 58.4196 258.423C58.8027 256.741 59.2687 258.474 59.7184 260.49C60.168 262.505 60.4506 267.354 61.3167 267.12C62.1828 266.887 64.949 263.356 65.5992 261.974C66.2486 260.59 61.9513 256.358 62.0017 255.508C62.052 254.659 65.367 256.275 65.8833 257.159C66.3995 258.042 66.8987 259.208 66.8987 259.208C66.8987 259.208 68.9653 257.909 68.9158 253.927C68.8663 249.946 65.9506 251.195 65.9506 251.195Z" fill="#1A2E35"/>
</g>
<path d="M49.4805 260.531C51.5989 257.911 54.7212 254.367 57.3389 252.676" stroke="#1A2E35" stroke-width="1.33333" stroke-miterlimit="10" stroke-linecap="round"/>
<path d="M47.0234 263.719C47.0234 263.719 47.5676 262.963 48.4491 261.83" stroke="#1A2E35" stroke-width="1.33333" stroke-miterlimit="10" stroke-linecap="round"/>
<path d="M58.7227 253.326C58.7227 253.326 61.8705 257.775 62.4526 262.356" stroke="#1A2E35" stroke-width="1.33333" stroke-miterlimit="10" stroke-linecap="round"/>
<path d="M55.1562 255.958C55.1562 255.958 56.0394 255.441 55.705 261.105" stroke="#1A2E35" stroke-width="1.33333" stroke-miterlimit="10" stroke-linecap="round"/>
<path d="M57.457 250.693C57.457 250.693 59.2566 249.095 58.3077 245.912" stroke="#1A2E35" stroke-width="1.33333" stroke-miterlimit="10" stroke-linecap="round"/>
<path d="M55.0247 253.391L53.7422 251.042" stroke="#1A2E35" stroke-width="1.33333" stroke-miterlimit="10" stroke-linecap="round"/>
<path d="M52.3254 255.791C52.3254 255.791 48.2441 252.708 45.6953 252.557" stroke="#1A2E35" stroke-width="1.33333" stroke-miterlimit="10" stroke-linecap="round"/>
<path d="M77.5336 242.801C77.5336 242.801 77.4036 247.472 73.7581 247.7C70.1125 247.926 67.8555 241.849 64.1249 243.312C60.3934 244.775 60.0312 251.437 60.0312 251.437C60.0312 251.437 63.5745 248.528 65.4801 249.996C67.385 251.464 66.943 253.727 65.9167 253.369C64.8903 253.012 59.34 251.772 59.1473 255.961C58.9545 260.151 61.4662 262.522 61.4662 262.522C61.4662 262.522 65.412 255.15 68.2812 256.493C71.1505 257.838 65.9113 259.006 63.8137 261.727C61.7162 264.449 60.3725 267.318 62.2146 268.304C64.0575 269.291 66.5699 271.66 66.5699 271.66C66.5699 271.66 66.0707 267.805 68.378 264.811C70.6853 261.817 72.5909 263.286 70.4933 266.007C68.395 268.729 69.4391 273.004 69.4391 273.004C69.4391 273.004 75.6188 273.429 80.0414 271.632C84.464 269.835 84.4865 268.116 83.0631 266.585C81.6397 265.054 76.7186 262.997 78.1869 261.091C79.6552 259.187 83.4369 269.477 85.5972 267.237C87.7574 264.998 88.4099 262.463 87.1963 260.66L85.9826 258.857C85.9826 258.857 81.0615 256.8 79.6381 255.268C78.2148 253.738 80.2674 254.452 82.5917 255.376C84.9168 256.3 89.9633 259.322 90.3201 258.296C90.6769 257.269 89.0268 252.093 88.0856 250.499C87.1444 248.907 79.9779 250.324 79.1614 249.695C78.3448 249.066 82.2233 246.848 83.4586 246.933C84.6947 247.019 86.2032 247.313 86.2032 247.313C86.2032 247.313 86.3108 244.36 82.2906 241.694C78.2705 239.03 77.5336 242.801 77.5336 242.801Z" fill="#39D192"/>
<g opacity="0.199997">
<path d="M77.5336 242.801C77.5336 242.801 77.4036 247.472 73.7581 247.7C70.1125 247.926 67.8555 241.849 64.1249 243.312C60.3934 244.775 60.0312 251.437 60.0312 251.437C60.0312 251.437 63.5745 248.528 65.4801 249.996C67.385 251.464 66.943 253.727 65.9167 253.369C64.8903 253.012 59.34 251.772 59.1473 255.961C58.9545 260.151 61.4662 262.522 61.4662 262.522C61.4662 262.522 65.412 255.15 68.2812 256.493C71.1505 257.838 65.9113 259.006 63.8137 261.727C61.7162 264.449 60.3725 267.318 62.2146 268.304C64.0575 269.291 66.5699 271.66 66.5699 271.66C66.5699 271.66 66.0707 267.805 68.378 264.811C70.6853 261.817 72.5909 263.286 70.4933 266.007C68.395 268.729 69.4391 273.004 69.4391 273.004C69.4391 273.004 75.6188 273.429 80.0414 271.632C84.464 269.835 84.4865 268.116 83.0631 266.585C81.6397 265.054 76.7186 262.997 78.1869 261.091C79.6552 259.187 83.4369 269.477 85.5972 267.237C87.7574 264.998 88.4099 262.463 87.1963 260.66L85.9826 258.857C85.9826 258.857 81.0615 256.8 79.6381 255.268C78.2148 253.738 80.2674 254.452 82.5917 255.376C84.9168 256.3 89.9633 259.322 90.3201 258.296C90.6769 257.269 89.0268 252.093 88.0856 250.499C87.1444 248.907 79.9779 250.324 79.1614 249.695C78.3448 249.066 82.2233 246.848 83.4586 246.933C84.6947 247.019 86.2032 247.313 86.2032 247.313C86.2032 247.313 86.3108 244.36 82.2906 241.694C78.2705 239.03 77.5336 242.801 77.5336 242.801Z" fill="#1A2E35"/>
</g>
<path d="M75.6532 265.655C74.4752 261.749 73.0549 256.207 73.1447 252.434" stroke="#1A2E35" stroke-width="1.33333" stroke-miterlimit="10" stroke-linecap="round"/>
<path d="M77.1703 270.288C77.1703 270.288 76.7833 269.227 76.25 267.572" stroke="#1A2E35" stroke-width="1.33333" stroke-miterlimit="10" stroke-linecap="round"/>
<path d="M74.7383 251.493C74.7383 251.493 81.3382 251.373 86.322 253.913" stroke="#1A2E35" stroke-width="1.33333" stroke-miterlimit="10" stroke-linecap="round"/>
<path d="M74.9414 256.856C74.9414 256.856 75.0265 255.62 80.4701 259.815" stroke="#1A2E35" stroke-width="1.33333" stroke-miterlimit="10" stroke-linecap="round"/>
<path d="M71.2387 250.966C71.2387 250.966 70.8641 248.074 67.0312 246.855" stroke="#1A2E35" stroke-width="1.33333" stroke-miterlimit="10" stroke-linecap="round"/>
<path d="M72.2807 255.24L69.0547 254.924" stroke="#1A2E35" stroke-width="1.33333" stroke-miterlimit="10" stroke-linecap="round"/>
<path d="M72.8461 259.578C72.8461 259.578 66.9776 261.563 65.0898 264.012" stroke="#1A2E35" stroke-width="1.33333" stroke-miterlimit="10" stroke-linecap="round"/>
<path d="M38.3906 273.894C38.3906 273.894 56.9511 286.163 56.6361 333.665" stroke="#1A2E35" stroke-width="1.33333" stroke-miterlimit="10" stroke-linecap="round"/>
<path d="M61.2742 270.653C61.2742 270.653 60.6829 276.031 56.4545 275.949C52.2269 275.867 50.1959 268.641 45.7524 269.976C41.3096 271.313 40.2632 278.966 40.2632 278.966C40.2632 278.966 44.6262 275.944 46.6859 277.819C48.7455 279.692 48.0218 282.261 46.8716 281.752C45.7214 281.244 39.4327 279.286 38.815 284.103C38.1982 288.921 40.8723 291.891 40.8723 291.891C40.8723 291.891 46.1216 283.759 49.3051 285.58C52.4885 287.401 46.3337 288.254 43.6556 291.197C40.9784 294.14 39.1572 297.323 41.1905 298.635C43.2238 299.949 45.8987 302.919 45.8987 302.919C45.8987 302.919 45.6866 298.424 48.6317 295.187C51.5768 291.95 53.6364 293.824 50.9591 296.767C48.2818 299.71 49.0829 304.741 49.0829 304.741C49.0829 304.741 56.1735 305.815 61.4468 304.158C66.7193 302.501 66.9074 300.521 65.4097 298.62C63.912 296.72 58.4267 293.88 60.3013 291.82C62.1759 289.761 65.5684 301.992 68.2727 299.611C70.9763 297.231 71.9678 294.368 70.7379 292.173L69.508 289.978C69.508 289.978 64.0235 287.139 62.525 285.238C61.0273 283.337 63.3284 284.355 65.9236 285.641C68.5188 286.926 74.0568 290.89 74.5661 289.739C75.0754 288.589 73.659 282.459 72.7232 280.533C71.7874 278.605 63.3841 279.566 62.501 278.762C61.6186 277.959 66.3029 275.766 67.7216 275.981C69.1396 276.196 70.8525 276.678 70.8525 276.678C70.8525 276.678 71.2549 273.28 66.8679 269.825C62.4801 266.372 61.2742 270.653 61.2742 270.653Z" fill="#39D192"/>
<g opacity="0.300003">
<path d="M61.2742 270.653C61.2742 270.653 60.6829 276.031 56.4545 275.949C52.2269 275.867 50.1959 268.641 45.7524 269.976C41.3096 271.313 40.2632 278.966 40.2632 278.966C40.2632 278.966 44.6262 275.944 46.6859 277.819C48.7455 279.692 48.0218 282.261 46.8716 281.752C45.7214 281.244 39.4327 279.286 38.815 284.103C38.1982 288.921 40.8723 291.891 40.8723 291.891C40.8723 291.891 46.1216 283.759 49.3051 285.58C52.4885 287.401 46.3337 288.254 43.6556 291.197C40.9784 294.14 39.1572 297.323 41.1905 298.635C43.2238 299.949 45.8987 302.919 45.8987 302.919C45.8987 302.919 45.6866 298.424 48.6317 295.187C51.5768 291.95 53.6364 293.824 50.9591 296.767C48.2818 299.71 49.0829 304.741 49.0829 304.741C49.0829 304.741 56.1735 305.815 61.4468 304.158C66.7193 302.501 66.9074 300.521 65.4097 298.62C63.912 296.72 58.4267 293.88 60.3013 291.82C62.1759 289.761 65.5684 301.992 68.2727 299.611C70.9763 297.231 71.9678 294.368 70.7379 292.173L69.508 289.978C69.508 289.978 64.0235 287.139 62.525 285.238C61.0273 283.337 63.3284 284.355 65.9236 285.641C68.5188 286.926 74.0568 290.89 74.5661 289.739C75.0754 288.589 73.659 282.459 72.7232 280.533C71.7874 278.605 63.3841 279.566 62.501 278.762C61.6186 277.959 66.3029 275.766 67.7216 275.981C69.1396 276.196 70.8525 276.678 70.8525 276.678C70.8525 276.678 71.2549 273.28 66.8679 269.825C62.4801 266.372 61.2742 270.653 61.2742 270.653Z" fill="#1A2E35"/>
</g>
<path d="M56.9486 296.848C55.9571 292.229 54.8418 285.7 55.3023 281.354" stroke="#1A2E35" stroke-width="1.33333" stroke-miterlimit="10" stroke-linecap="round"/>
<path d="M58.2628 302.337C58.2628 302.337 57.9168 301.077 57.457 299.116" stroke="#1A2E35" stroke-width="1.33333" stroke-miterlimit="10" stroke-linecap="round"/>
<path d="M57.2305 280.419C57.2305 280.419 64.8575 280.904 70.3683 284.305" stroke="#1A2E35" stroke-width="1.33333" stroke-miterlimit="10" stroke-linecap="round"/>
<path d="M56.957 286.627C56.957 286.627 57.1722 285.209 63.0569 290.564" stroke="#1A2E35" stroke-width="1.33333" stroke-miterlimit="10" stroke-linecap="round"/>
<path d="M53.2402 279.48C53.2402 279.48 53.0807 276.108 48.7734 274.34" stroke="#1A2E35" stroke-width="1.33333" stroke-miterlimit="10" stroke-linecap="round"/>
<path d="M54.0443 284.512L50.3516 283.841" stroke="#1A2E35" stroke-width="1.33333" stroke-miterlimit="10" stroke-linecap="round"/>
<path d="M54.2826 289.57C54.2826 289.57 47.3235 291.306 44.9141 293.955" stroke="#1A2E35" stroke-width="1.33333" stroke-miterlimit="10" stroke-linecap="round"/>
<path d="M45.625 311.329C45.625 311.329 57.5794 320.452 58.8372 333.979L56.3209 288.679" stroke="#1A2E35" stroke-width="1.33333" stroke-miterlimit="10" stroke-linecap="round"/>
<path d="M74.5691 304.723C58.8398 301.892 58.8398 333.979 58.8398 333.979" stroke="#1A2E35" stroke-width="1.33333" stroke-miterlimit="10" stroke-linecap="round"/>
<path d="M60.7252 333.664C60.7252 333.664 51.6021 267.288 78.0272 267.288" stroke="#1A2E35" stroke-width="1.33333" stroke-miterlimit="10" stroke-linecap="round"/>
<path d="M68.5734 302.815C66.4248 300.398 61.8598 300.398 59.1732 306.574C56.4882 312.752 58.9054 311.677 58.9054 311.677C58.9054 311.677 64.0084 310.066 67.2305 308.991C70.4535 307.918 74.7507 305.232 75.0193 306.843C75.2879 308.455 72.8707 310.066 69.9163 310.604C66.962 311.141 59.1732 313.289 59.9789 314.9C60.7847 316.511 62.6647 321.346 62.6647 321.346C62.6647 321.346 66.4248 318.123 69.9163 315.974C73.4078 313.826 75.5565 314.632 73.6764 317.049C71.7964 319.467 66.4248 322.152 67.4991 325.374C68.5734 328.597 75.0193 332.626 75.0193 332.626C75.0193 332.626 75.825 325.912 77.7051 323.763C79.5851 321.614 79.5851 324.032 79.048 327.792C78.5108 331.552 78.5108 332.626 78.5108 332.626L86.0302 335.311C86.0302 335.311 88.716 331.282 90.0589 329.94L91.4018 328.597C91.4018 328.597 85.4931 323.494 85.2253 320.272C84.9567 317.049 89.2532 320.272 90.5961 320.809C91.9389 321.346 94.0876 325.106 94.0876 325.106C94.0876 325.106 95.4305 318.929 95.699 316.78L95.9676 314.632C95.9676 314.632 90.3275 312.483 88.1796 312.483C86.0302 312.483 84.9567 314.094 84.9567 311.946C84.9567 309.797 87.1045 308.455 89.5217 308.723C91.9389 308.991 95.9676 310.335 95.9676 310.335C95.9676 310.335 97.5791 308.991 97.0419 304.963C96.5048 300.935 95.1619 300.935 91.9389 302.009C88.716 303.083 86.5682 305.501 84.1502 305.501C81.733 305.501 83.0759 302.546 84.6873 301.74C86.2988 300.935 90.3275 299.323 91.1332 299.055C91.9389 298.786 86.836 295.026 84.1502 294.489C81.4652 293.952 77.9876 295.844 78.2422 298.518C78.7794 304.158 70.7221 305.232 68.5734 302.815Z" fill="#39D192"/>
<path d="M85.8633 330.467C85.9438 331.276 86.0003 332.086 86.0312 332.894" stroke="#1A2E35" stroke-width="1.33333" stroke-miterlimit="10" stroke-linecap="round"/>
<path d="M80.4688 311.187C82.355 315.547 84.5361 321.557 85.5237 327.829" stroke="#1A2E35" stroke-width="1.33333" stroke-miterlimit="10" stroke-linecap="round"/>
<path d="M79.5 309.032C78.1695 306.17 77.168 304.426 77.168 304.426C77.168 304.426 79.5852 303.352 80.6603 301.204C81.7338 299.055 83.3453 297.981 83.3453 297.981" stroke="#1A2E35" stroke-width="1.33333" stroke-miterlimit="10" stroke-linecap="round"/>
<path d="M67.7695 313.558C67.7695 313.558 77.4376 309.529 77.4376 310.335" stroke="#1A2E35" stroke-width="1.33333" stroke-miterlimit="10" stroke-linecap="round"/>
<path d="M82.8086 308.455C82.8086 308.455 87.1058 306.306 90.8659 306.306" stroke="#1A2E35" stroke-width="1.33333" stroke-miterlimit="10" stroke-linecap="round"/>
<path d="M81.1951 314.9C81.1951 314.9 78.7779 316.78 76.0921 320.003C73.4063 323.226 72.332 326.18 72.332 326.18" stroke="#1A2E35" stroke-width="1.33333" stroke-miterlimit="10" stroke-linecap="round"/>
<path d="M84.1523 315.974C84.1523 315.974 89.7925 314.364 92.7468 317.049" stroke="#1A2E35" stroke-width="1.33333" stroke-miterlimit="10" stroke-linecap="round"/>
<path d="M72.5664 278.255C71.65 277.797 74.3984 276.881 74.3984 276.881C78.3667 277.645 73.482 278.714 72.5664 278.255ZM68.9479 288.282C66.8001 287.207 71.9023 285.059 71.9023 285.059C73.7823 284.79 71.0973 289.356 68.9479 288.282ZM94.3653 279.686C91.4412 277.956 88.2074 277.918 86.623 276.093C85.0379 274.268 88.1493 273.345 89.8142 274.034C91.4791 274.723 95.3367 276.708 96.0674 277.141C96.7988 277.573 96.2926 271.254 94.9373 268.874C93.5828 266.494 89.8738 265.109 88.0224 267.053C84.1152 271.156 78.0223 265.777 78.4387 262.569C78.8551 259.363 75.8621 255.915 69.4371 257.936C63.0121 259.957 65.4077 261.079 65.4077 261.079C65.4077 261.079 69.9704 263.876 72.8938 265.605C75.818 267.335 80.6632 268.819 79.6222 270.078C78.5811 271.337 75.78 270.568 73.4379 268.689C71.0958 266.811 64.3674 262.338 63.6786 264.003C62.9897 265.667 60.5717 270.256 60.5717 270.256C60.5717 270.256 65.4704 270.983 69.3814 272.21C73.2924 273.439 74.0935 275.59 71.0354 275.755C67.9773 275.919 62.4285 273.624 60.6987 276.548C58.9695 279.471 60.153 286.98 60.153 286.98C60.153 286.98 65.7513 283.186 68.6058 283.198C71.4611 283.209 69.636 284.793 66.4441 286.853C63.2529 288.913 62.4417 289.617 62.4417 289.617L65.3434 297.056C65.3434 297.056 70.1469 296.443 72.0408 296.577L73.9348 296.711C73.9348 296.711 73.9147 288.903 76.1725 286.588C78.4302 284.272 78.8133 289.629 79.2886 290.996C79.763 292.362 78.3319 296.45 78.3319 296.45C78.3319 296.45 83.8769 293.414 85.6756 292.208L87.4744 291.003C87.4744 291.003 85.3993 285.335 83.9906 283.713C82.582 282.09 80.6609 282.335 82.2832 280.926C83.9055 279.518 86.3281 280.261 87.7105 282.262C89.0921 284.263 90.719 288.186 90.719 288.186C90.719 288.186 92.7895 288.522 95.4791 285.475C98.1695 282.43 97.2887 281.415 94.3653 279.686Z" fill="#39D192"/>
<path d="M68.894 293.753C68.336 294.344 67.7617 294.918 67.1719 295.472" stroke="#1A2E35" stroke-width="1.33333" stroke-miterlimit="10" stroke-linecap="round"/>
<path d="M79.9172 277.039C77.8615 281.321 74.7531 286.909 70.6641 291.767" stroke="#1A2E35" stroke-width="1.33333" stroke-miterlimit="10" stroke-linecap="round"/>
<path d="M80.9102 274.896C82.1989 272.015 82.8591 270.115 82.8591 270.115C82.8591 270.115 85.2554 271.236 87.582 270.639C89.9087 270.042 91.7763 270.555 91.7763 270.555" stroke="#1A2E35" stroke-width="1.33333" stroke-miterlimit="10" stroke-linecap="round"/>
<path d="M69.8008 269.004C69.8008 269.004 79.1817 273.664 78.5725 274.192" stroke="#1A2E35" stroke-width="1.33333" stroke-miterlimit="10" stroke-linecap="round"/>
<path d="M83.5117 277.016C83.5117 277.016 87.9514 278.852 90.4158 281.692" stroke="#1A2E35" stroke-width="1.33333" stroke-miterlimit="10" stroke-linecap="round"/>
<path d="M77.59 280.024C77.59 280.024 74.5861 279.431 70.3918 279.516C66.1975 279.601 63.2617 280.726 63.2617 280.726" stroke="#1A2E35" stroke-width="1.33333" stroke-miterlimit="10" stroke-linecap="round"/>
<path d="M78.7148 282.96C78.7148 282.96 83.629 286.162 83.5376 290.153" stroke="#1A2E35" stroke-width="1.33333" stroke-miterlimit="10" stroke-linecap="round"/>
<path d="M35.0926 315.748C34.3558 315.38 36.5671 314.642 36.5671 314.642C39.7606 315.257 35.8303 316.117 35.0926 315.748ZM32.1809 323.817C30.4517 322.953 34.5586 321.224 34.5586 321.224C36.0717 321.008 33.91 324.682 32.1809 323.817ZM52.6354 316.899C50.2824 315.507 47.6794 315.477 46.4046 314.008C45.1291 312.539 47.633 311.797 48.9728 312.35C50.3126 312.905 53.4171 314.504 54.0053 314.851C54.5936 315.199 54.1864 310.114 53.0959 308.199C52.0053 306.283 49.0215 305.168 47.5308 306.734C44.3868 310.035 39.4835 305.706 39.8187 303.125C40.1538 300.544 37.7451 297.77 32.5748 299.397C27.4037 301.024 29.3318 301.926 29.3318 301.926C29.3318 301.926 33.0036 304.176 35.3566 305.569C37.7095 306.96 41.6082 308.154 40.7707 309.168C39.9332 310.181 37.6793 309.562 35.7939 308.05C33.9092 306.538 28.4943 302.939 27.9401 304.279C27.3859 305.618 25.4401 309.312 25.4401 309.312C25.4401 309.312 29.3828 309.895 32.5299 310.884C35.6778 311.872 36.321 313.604 33.8612 313.735C31.3999 313.868 26.9339 312.021 25.5423 314.374C24.1506 316.727 25.1034 322.769 25.1034 322.769C25.1034 322.769 29.6089 319.717 31.9061 319.727C34.2033 319.734 32.7343 321.01 30.1661 322.667C27.598 324.324 26.9455 324.892 26.9455 324.892L29.2799 330.878C29.2799 330.878 33.1453 330.385 34.67 330.492L36.194 330.6C36.194 330.6 36.1778 324.317 37.9951 322.453C39.8117 320.59 40.1205 324.902 40.5021 326.001C40.8837 327.101 39.7328 330.39 39.7328 330.39C39.7328 330.39 44.1949 327.947 45.6423 326.977L47.0896 326.007C47.0896 326.007 45.4201 321.446 44.2862 320.14C43.1531 318.834 41.6074 319.032 42.9131 317.898C44.2181 316.765 46.1678 317.362 47.28 318.973C48.3915 320.583 49.7011 323.74 49.7011 323.74C49.7011 323.74 51.3668 324.011 53.5316 321.559C55.6965 319.107 54.9883 318.291 52.6354 316.899Z" fill="#39D192"/>
<path d="M32.1323 328.22C31.6834 328.695 31.2213 329.157 30.7461 329.602" stroke="#1A2E35" stroke-width="1.33333" stroke-miterlimit="10" stroke-linecap="round"/>
<path d="M41.0052 314.77C39.3512 318.215 36.8489 322.712 33.5586 326.623" stroke="#1A2E35" stroke-width="1.33333" stroke-miterlimit="10" stroke-linecap="round"/>
<path d="M41.8047 313.045C42.8411 310.726 43.3728 309.198 43.3728 309.198C43.3728 309.198 45.3008 310.099 47.1739 309.62C49.0455 309.139 50.5486 309.551 50.5486 309.551" stroke="#1A2E35" stroke-width="1.33333" stroke-miterlimit="10" stroke-linecap="round"/>
<path d="M32.8633 308.303C32.8633 308.303 40.4121 312.054 39.9222 312.479" stroke="#1A2E35" stroke-width="1.33333" stroke-miterlimit="10" stroke-linecap="round"/>
<path d="M43.8984 314.751C43.8984 314.751 47.4712 316.228 49.455 318.513" stroke="#1A2E35" stroke-width="1.33333" stroke-miterlimit="10" stroke-linecap="round"/>
<path d="M39.1318 317.172C39.1318 317.172 36.7139 316.695 33.3385 316.764C29.963 316.832 27.6016 317.737 27.6016 317.737" stroke="#1A2E35" stroke-width="1.33333" stroke-miterlimit="10" stroke-linecap="round"/>
<path d="M40.0391 319.534C40.0391 319.534 43.9934 322.111 43.9207 325.323" stroke="#1A2E35" stroke-width="1.33333" stroke-miterlimit="10" stroke-linecap="round"/>
<path d="M43.0392 272.55C43.0392 272.55 40.0848 274.699 38.2048 272.55C36.3255 270.401 39.0105 266.104 36.3255 264.493C33.6389 262.882 29.3425 265.836 29.3425 265.836C29.3425 265.836 32.8332 266.641 32.8332 268.521C32.8332 270.401 31.2225 271.207 30.9539 270.401C30.6853 269.596 28.8053 265.568 26.1195 267.447C23.4337 269.327 23.1652 272.013 23.1652 272.013C23.1652 272.013 29.611 270.939 30.1482 273.356C30.6853 275.773 27.4624 273.087 24.7766 273.087C22.0908 273.087 19.6744 273.624 19.9422 275.236C20.2108 276.847 19.9422 279.532 19.9422 279.532C19.9422 279.532 22.0908 277.384 25.0452 277.384C27.9996 277.384 27.9996 279.265 25.3138 279.265C22.628 279.265 20.4802 281.95 20.4802 281.95C20.4802 281.95 23.1652 285.979 26.3881 287.858C29.611 289.738 30.6853 288.933 30.9539 287.321C31.2225 285.71 30.1482 281.682 32.0282 281.682C33.9083 281.682 29.3425 288.933 31.7597 289.202C34.1769 289.47 36.0569 288.664 36.5933 287.053L37.1312 285.441C37.1312 285.441 36.0569 281.412 36.3255 279.801C36.5933 278.19 37.1312 279.801 37.6684 281.682C38.2048 283.562 38.7419 288.127 39.5476 287.858C40.3534 287.59 42.7706 284.099 43.3077 282.756C43.8449 281.412 39.5476 277.653 39.5476 276.847C39.5476 276.042 42.7706 277.384 43.3077 278.19C43.8449 278.996 44.382 280.07 44.382 280.07C44.382 280.07 46.2621 278.727 45.9935 274.967C45.7249 271.207 43.0392 272.55 43.0392 272.55Z" fill="#39D192"/>
<path d="M27.9961 282.291C29.8521 279.697 32.606 276.175 34.9845 274.43" stroke="#1A2E35" stroke-width="1.33333" stroke-miterlimit="10" stroke-linecap="round"/>
<path d="M25.8516 285.441C25.8516 285.441 26.3237 284.696 27.0938 283.576" stroke="#1A2E35" stroke-width="1.33333" stroke-miterlimit="10" stroke-linecap="round"/>
<path d="M36.3242 274.967C36.3242 274.967 39.5472 278.996 40.3529 283.293" stroke="#1A2E35" stroke-width="1.33333" stroke-miterlimit="10" stroke-linecap="round"/>
<path d="M33.1016 277.653C33.1016 277.653 33.9073 277.116 33.9073 282.487" stroke="#1A2E35" stroke-width="1.33333" stroke-miterlimit="10" stroke-linecap="round"/>
<path d="M34.9844 272.55C34.9844 272.55 36.5958 270.939 35.5215 267.985" stroke="#1A2E35" stroke-width="1.33333" stroke-miterlimit="10" stroke-linecap="round"/>
<path d="M32.8351 275.236L31.4922 273.088" stroke="#1A2E35" stroke-width="1.33333" stroke-miterlimit="10" stroke-linecap="round"/>
<path d="M30.4185 277.653C30.4185 277.653 26.3899 274.967 23.9727 274.967" stroke="#1A2E35" stroke-width="1.33333" stroke-miterlimit="10" stroke-linecap="round"/>
<path d="M70.161 332.721H49.3984V343.684H70.161V332.721Z" fill="#1A2E35" stroke="#1A2E35" stroke-width="2.66667" stroke-miterlimit="10" stroke-linecap="round"/>
<g opacity="0.199997">
<path d="M241.87 259.545H45.877C41.3886 259.545 37.75 255.907 37.75 251.418V13.8818C37.75 9.39342 41.3886 5.75484 45.877 5.75484H241.87C246.359 5.75484 249.997 9.39342 249.997 13.8818V251.418C249.997 255.907 246.359 259.545 241.87 259.545Z" fill="black"/>
</g>
<path d="M235.679 254.901H39.6856C35.1972 254.901 31.5586 251.263 31.5586 246.774V9.23779C31.5586 4.74937 35.1972 1.11079 39.6856 1.11079H235.679C240.168 1.11079 243.806 4.74937 243.806 9.23779V246.774C243.806 251.263 240.168 254.901 235.679 254.901Z" fill="#E4E4E4"/>
<path d="M235.679 254.901H39.6856C35.1972 254.901 31.5586 251.263 31.5586 246.774V9.23779C31.5586 4.74937 35.1972 1.11079 39.6856 1.11079H235.679C240.168 1.11079 243.806 4.74937 243.806 9.23779V246.774C243.806 251.263 240.168 254.901 235.679 254.901Z" stroke="#1A2E35" stroke-width="1.33333" stroke-miterlimit="10" stroke-linecap="round" stroke-linejoin="round"/>
<path d="M54.5938 254.901H212.791V1.11079H54.5938V254.901Z" fill="white" stroke="#1A2E35" stroke-width="1.33333" stroke-miterlimit="10" stroke-linecap="round" stroke-linejoin="round"/>
<path d="M236.758 1.70953V255.396C240.722 254.958 243.807 251.599 243.807 247.517V9.58884C243.807 5.50676 240.722 2.14839 236.758 1.70953Z" fill="#B3B3B3"/>
<path d="M236.758 1.70953V255.396C240.722 254.958 243.807 251.599 243.807 247.517V9.58884C243.807 5.50677 240.722 2.14839 236.758 1.70953Z" stroke="#1A2E35" stroke-width="1.33333" stroke-miterlimit="10" stroke-linecap="round" stroke-linejoin="round"/>
<path d="M243.807 100.102H236.758V139.883H243.807V100.102Z" fill="#818181" stroke="#1A2E35" stroke-width="1.33333" stroke-miterlimit="10" stroke-linecap="round" stroke-linejoin="round"/>
<path d="M243.806 34.4359V9.58819C243.806 5.20813 240.255 1.65779 235.875 1.65779H39.4898C35.1097 1.65779 31.5586 5.20813 31.5586 9.58819V34.4359H243.806Z" fill="#B3B3B3"/>
<path d="M243.806 34.4359V9.58819C243.806 5.20813 240.255 1.65779 235.875 1.65779H39.4898C35.1097 1.65779 31.5586 5.20813 31.5586 9.58819V34.4359H243.806Z" stroke="#1A2E35" stroke-width="1.33333" stroke-miterlimit="10" stroke-linecap="round" stroke-linejoin="round"/>
<path d="M133.5 20.5066H43.1992V14.5027H133.5V20.5066Z" fill="white" stroke="#1A2E35" stroke-width="1.33333" stroke-miterlimit="10" stroke-linecap="round" stroke-linejoin="round"/>
<path d="M31.5586 34.4362H243.806V23.7387H31.5586V34.4362Z" fill="#1A2E35" stroke="#1A2E35" stroke-width="1.33333" stroke-miterlimit="10" stroke-linecap="round" stroke-linejoin="round"/>
<path d="M36.4766 26.5106H42.0006" stroke="white" stroke-width="1.33333" stroke-miterlimit="10" stroke-linecap="round" stroke-linejoin="round"/>
<path d="M36.4766 28.9121H42.0006" stroke="white" stroke-width="1.33333" stroke-miterlimit="10" stroke-linecap="round" stroke-linejoin="round"/>
<path d="M36.4766 31.3138H42.0006" stroke="white" stroke-width="1.33333" stroke-miterlimit="10" stroke-linecap="round" stroke-linejoin="round"/>
<path d="M65.0312 26.4121V32.6505" stroke="white" stroke-width="1.33333" stroke-miterlimit="10" stroke-linecap="round" stroke-linejoin="round"/>
<path d="M97.5625 26.4121V32.6505" stroke="white" stroke-width="1.33333" stroke-miterlimit="10" stroke-linecap="round" stroke-linejoin="round"/>
<path d="M130.09 26.4121V32.6505" stroke="white" stroke-width="1.33333" stroke-miterlimit="10" stroke-linecap="round" stroke-linejoin="round"/>
<path d="M162.617 26.4121V32.6505" stroke="white" stroke-width="1.33333" stroke-miterlimit="10" stroke-linecap="round" stroke-linejoin="round"/>
<path d="M195.148 26.4121V32.6505" stroke="white" stroke-width="1.33333" stroke-miterlimit="10" stroke-linecap="round" stroke-linejoin="round"/>
<path d="M243.806 10.9011V9.58842C243.806 5.20835 240.255 1.65802 235.875 1.65802H39.4898C35.1097 1.65802 31.5586 5.20835 31.5586 9.58842V10.9011H243.806Z" fill="#1A2E35"/>
<path d="M243.806 10.9011V9.58842C243.806 5.20835 240.255 1.65802 235.875 1.65802H39.4898C35.1097 1.65802 31.5586 5.20835 31.5586 9.58842V10.9011H243.806Z" stroke="#1A2E35" stroke-width="1.33333" stroke-miterlimit="10" stroke-linecap="round" stroke-linejoin="round"/>
<path d="M215.82 6.30547C215.82 4.99741 214.759 3.93625 213.45 3.93625C212.142 3.93625 211.082 4.99741 211.082 6.30547C211.082 7.61353 212.142 8.67468 213.45 8.67468C214.759 8.67468 215.82 7.61353 215.82 6.30547Z" fill="white"/>
<path d="M215.82 6.30547C215.82 4.99741 214.759 3.93625 213.45 3.93625C212.142 3.93625 211.082 4.99741 211.082 6.30547C211.082 7.61353 212.142 8.67468 213.45 8.67468C214.759 8.67468 215.82 7.61353 215.82 6.30547Z" stroke="#1A2E35" stroke-width="1.33333" stroke-miterlimit="10" stroke-linecap="round" stroke-linejoin="round"/>
<path d="M223.288 6.30547C223.288 4.99741 222.227 3.93625 220.919 3.93625C219.611 3.93625 218.551 4.99741 218.551 6.30547C218.551 7.61353 219.611 8.67468 220.919 8.67468C222.227 8.67468 223.288 7.61353 223.288 6.30547Z" fill="white"/>
<path d="M223.288 6.30547C223.288 4.99741 222.227 3.93625 220.919 3.93625C219.611 3.93625 218.551 4.99741 218.551 6.30547C218.551 7.61353 219.611 8.67468 220.919 8.67468C222.227 8.67468 223.288 7.61353 223.288 6.30547Z" stroke="#1A2E35" stroke-width="1.33333" stroke-miterlimit="10" stroke-linecap="round" stroke-linejoin="round"/>
<path d="M230.761 6.30547C230.761 4.99741 229.701 3.93625 228.392 3.93625C227.084 3.93625 226.023 4.99741 226.023 6.30547C226.023 7.61353 227.084 8.67468 228.392 8.67468C229.701 8.67468 230.761 7.61353 230.761 6.30547Z" fill="white"/>
<path d="M230.761 6.30547C230.761 4.99741 229.701 3.93625 228.392 3.93625C227.084 3.93625 226.023 4.99741 226.023 6.30547C226.023 7.61353 227.084 8.67468 228.392 8.67468C229.701 8.67468 230.761 7.61353 230.761 6.30547Z" stroke="#1A2E35" stroke-width="1.33333" stroke-miterlimit="10" stroke-linecap="round" stroke-linejoin="round"/>
<path d="M31.5586 240.09V247.517C31.5586 251.897 35.1089 255.448 39.4898 255.448H235.875C240.255 255.448 243.806 251.897 243.806 247.517V240.09H31.5586Z" fill="#B3B3B3"/>
<path d="M31.5586 240.09V247.517C31.5586 251.897 35.1089 255.448 39.4898 255.448H235.875C240.255 255.448 243.806 251.897 243.806 247.517V240.09H31.5586Z" stroke="#1A2E35" stroke-width="1.33333" stroke-miterlimit="10" stroke-linecap="round" stroke-linejoin="round"/>
<path d="M187.571 136.474H69.9336V70.5262H187.571V136.474Z" fill="#39D192" stroke="#1A2E35" stroke-width="1.33333" stroke-miterlimit="10" stroke-linecap="round" stroke-linejoin="round"/>
<path d="M187.571 107.511L161.28 90.5785L134.545 117.314L115.829 95.4795L71.1751 135.727L69.9336 136.474H187.571V107.511Z" fill="white"/>
<path d="M187.571 107.511L161.28 90.5785L134.545 117.314L115.829 95.4795L71.1751 135.727L69.9336 136.474H187.571V107.511Z" stroke="#1A2E35" stroke-width="1.33333" stroke-miterlimit="10" stroke-linecap="round" stroke-linejoin="round"/>
<path d="M97.563 85.6763C97.563 80.5083 93.3733 76.3186 88.2053 76.3186C83.0373 76.3186 78.8477 80.5083 78.8477 85.6763C78.8477 90.8443 83.0373 95.0339 88.2053 95.0339C93.3733 95.0339 97.563 90.8443 97.563 85.6763Z" fill="white"/>
<path d="M97.563 85.6763C97.563 80.5083 93.3733 76.3186 88.2053 76.3186C83.0373 76.3186 78.8477 80.5083 78.8477 85.6763C78.8477 90.8443 83.0373 95.0339 88.2053 95.0339C93.3733 95.0339 97.563 90.8443 97.563 85.6763Z" stroke="#1A2E35" stroke-width="1.33333" stroke-miterlimit="10" stroke-linecap="round" stroke-linejoin="round"/>
<path d="M70.3789 140.93H187.124" stroke="#1A2E35" stroke-width="1.33333" stroke-miterlimit="10"/>
<path d="M70.3789 146.277H140.338" stroke="#1A2E35" stroke-width="1.33333" stroke-miterlimit="10"/>
<path d="M172.57 156.285H187.57" stroke="#1A2E35" stroke-width="1.33333" stroke-miterlimit="10"/>
<path d="M154.719 156.285H170.839" stroke="#1A2E35" stroke-width="1.33333" stroke-miterlimit="10"/>
<path d="M148.305 156.285H152.984" stroke="#1A2E35" stroke-width="1.33333" stroke-miterlimit="10"/>
<path d="M126.293 156.285H147.093" stroke="#1A2E35" stroke-width="1.33333" stroke-miterlimit="10"/>
<path d="M99.2539 156.285H124.04" stroke="#1A2E35" stroke-width="1.33333" stroke-miterlimit="10"/>
<path d="M79.4922 156.285H96.6518" stroke="#1A2E35" stroke-width="1.33333" stroke-miterlimit="10"/>
<path d="M70.1016 156.285H77.2378" stroke="#1A2E35" stroke-width="1.33333" stroke-miterlimit="10"/>
<path d="M85.1017 162.483H70.1016" stroke="#1A2E35" stroke-width="1.33333" stroke-miterlimit="10"/>
<path d="M102.956 162.483H86.8359" stroke="#1A2E35" stroke-width="1.33333" stroke-miterlimit="10"/>
<path d="M109.371 162.483H104.691" stroke="#1A2E35" stroke-width="1.33333" stroke-miterlimit="10"/>
<path d="M131.383 162.483H110.582" stroke="#1A2E35" stroke-width="1.33333" stroke-miterlimit="10"/>
<path d="M158.423 162.483H133.637" stroke="#1A2E35" stroke-width="1.33333" stroke-miterlimit="10"/>
<path d="M178.183 162.483H161.023" stroke="#1A2E35" stroke-width="1.33333" stroke-miterlimit="10"/>
<path d="M187.57 162.483H180.434" stroke="#1A2E35" stroke-width="1.33333" stroke-miterlimit="10"/>
<path d="M172.57 168.412H187.57" stroke="#1A2E35" stroke-width="1.33333" stroke-miterlimit="10"/>
<path d="M154.719 168.412H170.839" stroke="#1A2E35" stroke-width="1.33333" stroke-miterlimit="10"/>
<path d="M148.305 168.412H152.984" stroke="#1A2E35" stroke-width="1.33333" stroke-miterlimit="10"/>
<path d="M126.293 168.412H147.093" stroke="#1A2E35" stroke-width="1.33333" stroke-miterlimit="10"/>
<path d="M99.2539 168.412H124.04" stroke="#1A2E35" stroke-width="1.33333" stroke-miterlimit="10"/>
<path d="M79.4922 168.412H96.6518" stroke="#1A2E35" stroke-width="1.33333" stroke-miterlimit="10"/>
<path d="M70.1016 168.412H77.2378" stroke="#1A2E35" stroke-width="1.33333" stroke-miterlimit="10"/>
<path d="M85.1017 174.611H70.1016" stroke="#1A2E35" stroke-width="1.33333" stroke-miterlimit="10"/>
<path d="M102.956 174.611H86.8359" stroke="#1A2E35" stroke-width="1.33333" stroke-miterlimit="10"/>
<path d="M109.371 174.611H104.691" stroke="#1A2E35" stroke-width="1.33333" stroke-miterlimit="10"/>
<path d="M131.383 174.611H110.582" stroke="#1A2E35" stroke-width="1.33333" stroke-miterlimit="10"/>
<path d="M158.423 174.611H133.637" stroke="#1A2E35" stroke-width="1.33333" stroke-miterlimit="10"/>
<path d="M178.183 174.611H161.023" stroke="#1A2E35" stroke-width="1.33333" stroke-miterlimit="10"/>
<path d="M187.57 174.611H180.434" stroke="#1A2E35" stroke-width="1.33333" stroke-miterlimit="10"/>
<path d="M172.57 180.54H187.57" stroke="#1A2E35" stroke-width="1.33333" stroke-miterlimit="10"/>
<path d="M154.719 180.54H170.839" stroke="#1A2E35" stroke-width="1.33333" stroke-miterlimit="10"/>
<path d="M148.305 180.54H152.984" stroke="#1A2E35" stroke-width="1.33333" stroke-miterlimit="10"/>
<path d="M126.293 180.54H147.093" stroke="#1A2E35" stroke-width="1.33333" stroke-miterlimit="10"/>
<path d="M99.2539 180.54H124.04" stroke="#1A2E35" stroke-width="1.33333" stroke-miterlimit="10"/>
<path d="M79.4922 180.54H96.6518" stroke="#1A2E35" stroke-width="1.33333" stroke-miterlimit="10"/>
<path d="M70.1016 180.54H77.2378" stroke="#1A2E35" stroke-width="1.33333" stroke-miterlimit="10"/>
<path d="M85.1017 186.738H70.1016" stroke="#1A2E35" stroke-width="1.33333" stroke-miterlimit="10"/>
<path d="M102.956 186.738H86.8359" stroke="#1A2E35" stroke-width="1.33333" stroke-miterlimit="10"/>
<path d="M109.371 186.738H104.691" stroke="#1A2E35" stroke-width="1.33333" stroke-miterlimit="10"/>
<path d="M131.383 186.738H110.582" stroke="#1A2E35" stroke-width="1.33333" stroke-miterlimit="10"/>
<path d="M158.423 186.738H133.637" stroke="#1A2E35" stroke-width="1.33333" stroke-miterlimit="10"/>
<path d="M178.183 186.738H161.023" stroke="#1A2E35" stroke-width="1.33333" stroke-miterlimit="10"/>
<path d="M187.57 186.738H180.434" stroke="#1A2E35" stroke-width="1.33333" stroke-miterlimit="10"/>
<path d="M172.57 192.667H187.57" stroke="#1A2E35" stroke-width="1.33333" stroke-miterlimit="10"/>
<path d="M154.719 192.667H170.839" stroke="#1A2E35" stroke-width="1.33333" stroke-miterlimit="10"/>
<path d="M148.305 192.667H152.984" stroke="#1A2E35" stroke-width="1.33333" stroke-miterlimit="10"/>
<path d="M126.293 192.667H147.093" stroke="#1A2E35" stroke-width="1.33333" stroke-miterlimit="10"/>
<path d="M99.2539 192.667H124.04" stroke="#1A2E35" stroke-width="1.33333" stroke-miterlimit="10"/>
<path d="M79.4922 192.667H96.6518" stroke="#1A2E35" stroke-width="1.33333" stroke-miterlimit="10"/>
<path d="M70.1016 192.667H77.2378" stroke="#1A2E35" stroke-width="1.33333" stroke-miterlimit="10"/>
<path d="M85.1017 198.866H70.1016" stroke="#1A2E35" stroke-width="1.33333" stroke-miterlimit="10"/>
<path d="M102.956 198.866H86.8359" stroke="#1A2E35" stroke-width="1.33333" stroke-miterlimit="10"/>
<path d="M109.371 198.866H104.691" stroke="#1A2E35" stroke-width="1.33333" stroke-miterlimit="10"/>
<path d="M131.383 198.866H110.582" stroke="#1A2E35" stroke-width="1.33333" stroke-miterlimit="10"/>
<path d="M158.423 198.866H133.637" stroke="#1A2E35" stroke-width="1.33333" stroke-miterlimit="10"/>
<path d="M178.183 198.866H161.023" stroke="#1A2E35" stroke-width="1.33333" stroke-miterlimit="10"/>
<path d="M187.57 198.866H180.434" stroke="#1A2E35" stroke-width="1.33333" stroke-miterlimit="10"/>
<path d="M172.57 204.795H187.57" stroke="#1A2E35" stroke-width="1.33333" stroke-miterlimit="10"/>
<path d="M154.719 204.795H170.839" stroke="#1A2E35" stroke-width="1.33333" stroke-miterlimit="10"/>
<path d="M148.305 204.795H152.984" stroke="#1A2E35" stroke-width="1.33333" stroke-miterlimit="10"/>
<path d="M126.293 204.795H147.093" stroke="#1A2E35" stroke-width="1.33333" stroke-miterlimit="10"/>
<path d="M99.2539 204.795H124.04" stroke="#1A2E35" stroke-width="1.33333" stroke-miterlimit="10"/>
<path d="M79.4922 204.795H96.6518" stroke="#1A2E35" stroke-width="1.33333" stroke-miterlimit="10"/>
<path d="M70.1016 204.795H77.2378" stroke="#1A2E35" stroke-width="1.33333" stroke-miterlimit="10"/>
<path d="M85.1017 210.994H70.1016" stroke="#1A2E35" stroke-width="1.33333" stroke-miterlimit="10"/>
<path d="M102.956 210.994H86.8359" stroke="#1A2E35" stroke-width="1.33333" stroke-miterlimit="10"/>
<path d="M109.371 210.994H104.691" stroke="#1A2E35" stroke-width="1.33333" stroke-miterlimit="10"/>
<path d="M131.383 210.994H110.582" stroke="#1A2E35" stroke-width="1.33333" stroke-miterlimit="10"/>
<path d="M158.423 210.994H133.637" stroke="#1A2E35" stroke-width="1.33333" stroke-miterlimit="10"/>
<path d="M178.183 210.994H161.023" stroke="#1A2E35" stroke-width="1.33333" stroke-miterlimit="10"/>
<path d="M187.57 210.994H180.434" stroke="#1A2E35" stroke-width="1.33333" stroke-miterlimit="10"/>
<path d="M172.57 216.923H187.57" stroke="#1A2E35" stroke-width="1.33333" stroke-miterlimit="10"/>
<path d="M154.719 216.923H170.839" stroke="#1A2E35" stroke-width="1.33333" stroke-miterlimit="10"/>
<path d="M148.305 216.923H152.984" stroke="#1A2E35" stroke-width="1.33333" stroke-miterlimit="10"/>
<path d="M126.293 216.923H147.093" stroke="#1A2E35" stroke-width="1.33333" stroke-miterlimit="10"/>
<path d="M99.2539 216.923H124.04" stroke="#1A2E35" stroke-width="1.33333" stroke-miterlimit="10"/>
<path d="M79.4922 216.923H96.6518" stroke="#1A2E35" stroke-width="1.33333" stroke-miterlimit="10"/>
<path d="M70.1016 216.923H77.2378" stroke="#1A2E35" stroke-width="1.33333" stroke-miterlimit="10"/>
<path d="M85.1017 223.121H70.1016" stroke="#1A2E35" stroke-width="1.33333" stroke-miterlimit="10"/>
<path d="M102.956 223.121H86.8359" stroke="#1A2E35" stroke-width="1.33333" stroke-miterlimit="10"/>
<path d="M109.371 223.121H104.691" stroke="#1A2E35" stroke-width="1.33333" stroke-miterlimit="10"/>
<path d="M131.383 223.121H110.582" stroke="#1A2E35" stroke-width="1.33333" stroke-miterlimit="10"/>
<path d="M158.423 223.121H133.637" stroke="#1A2E35" stroke-width="1.33333" stroke-miterlimit="10"/>
<path d="M178.183 223.121H161.023" stroke="#1A2E35" stroke-width="1.33333" stroke-miterlimit="10"/>
<path d="M187.57 223.121H180.434" stroke="#1A2E35" stroke-width="1.33333" stroke-miterlimit="10"/>
<path d="M172.57 229.05H187.57" stroke="#1A2E35" stroke-width="1.33333" stroke-miterlimit="10"/>
<path d="M154.719 229.05H170.839" stroke="#1A2E35" stroke-width="1.33333" stroke-miterlimit="10"/>
<path d="M148.305 229.05H152.984" stroke="#1A2E35" stroke-width="1.33333" stroke-miterlimit="10"/>
<path d="M126.293 229.05H147.093" stroke="#1A2E35" stroke-width="1.33333" stroke-miterlimit="10"/>
<path d="M99.2539 229.05H124.04" stroke="#1A2E35" stroke-width="1.33333" stroke-miterlimit="10"/>
<path d="M79.4922 229.05H96.6518" stroke="#1A2E35" stroke-width="1.33333" stroke-miterlimit="10"/>
<path d="M70.1016 229.05H77.2378" stroke="#1A2E35" stroke-width="1.33333" stroke-miterlimit="10"/>
<path d="M85.1017 235.248H70.1016" stroke="#1A2E35" stroke-width="1.33333" stroke-miterlimit="10"/>
<path d="M102.956 235.248H86.8359" stroke="#1A2E35" stroke-width="1.33333" stroke-miterlimit="10"/>
<path d="M109.371 235.248H104.691" stroke="#1A2E35" stroke-width="1.33333" stroke-miterlimit="10"/>
<path d="M131.383 235.248H110.582" stroke="#1A2E35" stroke-width="1.33333" stroke-miterlimit="10"/>
<path d="M158.423 235.248H133.637" stroke="#1A2E35" stroke-width="1.33333" stroke-miterlimit="10"/>
<path d="M178.183 235.248H161.023" stroke="#1A2E35" stroke-width="1.33333" stroke-miterlimit="10"/>
<path d="M187.57 235.248H180.434" stroke="#1A2E35" stroke-width="1.33333" stroke-miterlimit="10"/>
<path d="M74.5463 59.8895H79.2871L76.8861 47.6123L74.5463 59.8895ZM74.2421 61.9251L73.4217 66.21H71.2344L75.3064 44.9389H78.7399L82.8119 66.21H80.4419L79.6214 61.9251H74.2421Z" fill="#1A2E35"/>
<path d="M88.8004 54.9666C90.685 54.9666 91.8089 54.359 91.8089 52.0494V50.013C91.8089 48.0989 91.11 47.0958 89.3476 47.0958H87.038V54.9666H88.8004ZM89.4087 44.9387C92.7508 44.9387 94.1487 46.6399 94.1487 49.8009V51.5324C94.1487 53.8722 93.3283 55.3311 91.5055 55.9086C93.4498 56.486 94.1789 58.0657 94.1789 60.3451V63.6578C94.1789 64.599 94.2098 65.4806 94.6046 66.2097H92.2036C91.9304 65.6021 91.8089 65.0557 91.8089 63.6269V60.2847C91.8089 57.8838 90.685 57.1245 88.709 57.1245H87.038V66.2097H84.668V44.9387H89.4087Z" fill="#1A2E35"/>
<path d="M99.7086 66.21V47.096H95.7891V44.9389H105.969V47.096H102.048V66.21H99.7086Z" fill="#1A2E35"/>
<path d="M109.953 66.2097H107.582V44.9386H109.953V66.2097Z" fill="#1A2E35"/>
<path d="M121.771 50.0739V51.9888H119.523V49.9524C119.523 48.0383 118.763 46.8835 117.031 46.8835C115.329 46.8835 114.539 48.0383 114.539 49.9524V61.1963C114.539 63.1104 115.329 64.2652 117.031 64.2652C118.763 64.2652 119.523 63.1104 119.523 61.1963V58.4308H121.771V61.074C121.771 64.2954 120.252 66.4231 116.97 66.4231C113.719 66.4231 112.199 64.2954 112.199 61.074V50.0739C112.199 46.8525 113.719 44.7256 116.97 44.7256C120.252 44.7256 121.771 46.8525 121.771 50.0739Z" fill="#1A2E35"/>
<path d="M123.93 66.21V44.9389H126.3V64.052H132.378V66.21H123.93Z" fill="#1A2E35"/>
<path d="M141.738 54.3588V56.4858H136.543V64.0524H142.923V66.2103H134.172V44.9385H142.923V47.0956H136.543V54.3588H141.738Z" fill="#1A2E35"/>
<path d="M236.011 235.425C236.011 235.425 218.209 239.682 212.017 248.583C205.825 257.484 191.119 285.348 187.249 290.766C183.379 296.184 170.221 303.924 167.899 315.147C165.577 326.37 168.286 334.11 180.283 340.302C192.28 346.494 208.147 333.723 217.435 330.24L217.822 344.172H314.572L318.055 327.531C318.055 327.531 339.34 329.466 345.145 327.531C350.95 325.596 358.69 330.24 359.464 325.596C360.238 320.952 356.755 311.277 352.111 303.15C347.467 295.023 347.467 297.345 342.823 286.122C338.179 274.899 334.696 264.45 330.826 254.775C326.956 245.1 318.879 236.882 311.39 234.385C303.901 231.89 286.708 233.49 280.129 232.716C273.55 231.942 236.011 235.425 236.011 235.425Z" fill="#39D192"/>
<path d="M236.011 235.425C236.011 235.425 218.209 239.682 212.017 248.583C205.825 257.484 191.119 285.348 187.249 290.766C183.379 296.184 170.221 303.924 167.899 315.147C165.577 326.37 168.286 334.11 180.283 340.302C192.28 346.494 208.147 333.723 217.435 330.24L217.822 344.172H314.572L318.055 327.531C318.055 327.531 339.34 329.466 345.145 327.531C350.95 325.596 358.69 330.24 359.464 325.596C360.238 320.952 356.755 311.277 352.111 303.15C347.467 295.023 347.467 297.345 342.823 286.122C338.179 274.899 334.696 264.45 330.826 254.775C326.956 245.1 318.879 236.882 311.39 234.385C303.901 231.89 286.708 233.49 280.129 232.716C273.55 231.942 236.011 235.425 236.011 235.425Z" stroke="#1A2E35" stroke-width="1.33333" stroke-miterlimit="10" stroke-linecap="round" stroke-linejoin="round"/>
<path d="M315.988 316.695C315.988 316.695 322.697 306.117 334.823 302.763" stroke="#1A2E35" stroke-width="1.33333" stroke-miterlimit="10" stroke-linecap="round" stroke-linejoin="round"/>
<path d="M334.488 293.334C335.52 292.808 336.578 292.336 337.661 291.928" stroke="#1A2E35" stroke-width="1.33333" stroke-miterlimit="10" stroke-linecap="round" stroke-linejoin="round"/>
<path d="M314.184 312.567C314.184 312.567 321.078 301.681 331.369 295.123" stroke="#1A2E35" stroke-width="1.33333" stroke-miterlimit="10" stroke-linecap="round" stroke-linejoin="round"/>
<path d="M318.827 273.763C314.965 283.488 309.278 300.12 310.316 311.535" stroke="#1A2E35" stroke-width="1.33333" stroke-miterlimit="10" stroke-linecap="round" stroke-linejoin="round"/>
<path d="M322.184 265.869C322.184 265.869 321.479 267.375 320.41 269.902" stroke="#1A2E35" stroke-width="1.33333" stroke-miterlimit="10" stroke-linecap="round" stroke-linejoin="round"/>
<path d="M187.777 305.039C191.865 306.138 196.832 308.532 201.438 313.6" stroke="#1A2E35" stroke-width="1.33333" stroke-miterlimit="10" stroke-linecap="round" stroke-linejoin="round"/>
<path d="M178.992 304.311C178.992 304.311 181.083 303.955 184.265 304.352" stroke="#1A2E35" stroke-width="1.33333" stroke-miterlimit="10" stroke-linecap="round" stroke-linejoin="round"/>
<path d="M193.395 297.927C197.939 301.161 203.731 306.503 206.083 313.857" stroke="#1A2E35" stroke-width="1.33333" stroke-miterlimit="10" stroke-linecap="round" stroke-linejoin="round"/>
<path d="M187.25 294.249C187.25 294.249 188.852 294.979 191.147 296.423" stroke="#1A2E35" stroke-width="1.33333" stroke-miterlimit="10" stroke-linecap="round" stroke-linejoin="round"/>
<path d="M252.587 254.911C252.587 254.911 257.58 263.232 270.061 262.955C282.543 262.677 287.814 249.086 287.814 242.152C287.814 235.218 283.375 230.503 271.726 233.276C260.077 236.05 247.04 236.327 252.587 254.911Z" fill="white"/>
<path d="M252.587 254.911C252.587 254.911 257.58 263.232 270.061 262.955C282.543 262.677 287.814 249.086 287.814 242.152C287.814 235.218 283.375 230.503 271.726 233.276C260.077 236.05 247.04 236.327 252.587 254.911Z" stroke="#1A2E35" stroke-width="1.33333" stroke-miterlimit="10" stroke-linecap="round" stroke-linejoin="round"/>
<path d="M254.53 238.546C254.53 238.546 251.201 249.918 252.588 254.911C253.975 259.904 256.748 264.341 256.748 264.341C256.748 264.341 266.18 255.465 267.567 254.356C268.953 253.247 277.551 262.954 278.661 264.064C279.77 265.173 286.15 261.29 288.091 252.138C290.033 242.984 288.646 232.167 286.704 229.393C284.763 226.619 282.543 226.341 282.543 226.341C282.543 226.341 261.741 224.123 254.53 238.546Z" fill="white"/>
<path d="M254.53 238.546C254.53 238.546 251.201 249.918 252.588 254.911C253.975 259.904 256.748 264.341 256.748 264.341C256.748 264.341 266.18 255.465 267.567 254.356C268.953 253.247 277.551 262.954 278.661 264.064C279.77 265.173 286.15 261.29 288.091 252.138C290.033 242.984 288.646 232.167 286.704 229.393C284.763 226.619 282.543 226.341 282.543 226.341C282.543 226.341 261.741 224.123 254.53 238.546Z" stroke="#1A2E35" stroke-width="1.33333" stroke-miterlimit="10" stroke-linecap="round" stroke-linejoin="round"/>
<path d="M256.473 239.656C256.473 239.656 264.517 253.247 267.013 253.525C269.509 253.801 280.604 244.648 283.655 237.159C286.707 229.671 284.21 221.626 284.21 221.626C284.21 221.626 274.779 233.553 268.4 237.437C262.02 241.319 256.473 239.656 256.473 239.656Z" fill="white"/>
<path d="M256.473 239.656C256.473 239.656 264.517 253.247 267.013 253.525C269.509 253.801 280.604 244.648 283.655 237.159C286.707 229.671 284.21 221.626 284.21 221.626C284.21 221.626 274.779 233.553 268.4 237.437C262.02 241.319 256.473 239.656 256.473 239.656Z" stroke="#1A2E35" stroke-width="1.33333" stroke-miterlimit="10" stroke-linecap="round" stroke-linejoin="round"/>
<path d="M268.397 237.437C263.026 240.706 258.258 240.044 256.881 239.753L256.609 239.888C257.135 240.766 259.133 244.068 261.298 247.209C262.756 247.585 264.496 247.439 266.542 246.359C274.541 242.137 280.764 227.916 280.764 227.916L277.207 229.68C274.356 232.696 271.103 235.79 268.397 237.437Z" fill="#1A2E35"/>
<path d="M268.397 237.437C263.026 240.706 258.258 240.044 256.881 239.753L256.609 239.888C257.135 240.766 259.133 244.068 261.298 247.209C262.756 247.585 264.496 247.439 266.542 246.359C274.541 242.137 280.764 227.916 280.764 227.916L277.207 229.68C274.356 232.696 271.103 235.79 268.397 237.437Z" stroke="#1A2E35" stroke-width="1.33333" stroke-miterlimit="10" stroke-linecap="round" stroke-linejoin="round"/>
<path d="M228.735 165.875C228.735 165.875 210.882 194.347 214.21 210.711C217.539 227.076 232.896 246.59 228.18 251.86C223.465 257.13 220.969 255.188 223.188 258.239C225.407 261.29 238.999 264.619 248.983 261.29C258.969 257.962 260.078 243.816 254.808 236.327C249.538 228.838 239.831 200.269 243.991 193.612C248.151 186.955 264.794 190.838 270.618 193.612C276.443 196.386 283.932 212.751 283.1 220.24C282.267 227.729 285.596 244.925 296.968 245.203C308.341 245.48 311.392 234.385 311.392 234.385C311.392 234.385 303.902 236.05 303.902 231.89C303.902 227.729 310.005 222.459 307.231 210.809C304.457 199.16 298.078 196.941 297.246 184.737C296.413 172.533 291.699 160.605 282.267 153.671C272.837 146.737 247.875 136.751 228.735 165.875Z" fill="#1A2E35"/>
<path d="M228.735 165.875C228.735 165.875 210.882 194.347 214.21 210.711C217.539 227.076 232.896 246.59 228.18 251.86C223.465 257.13 220.969 255.188 223.188 258.239C225.407 261.29 238.999 264.619 248.983 261.29C258.969 257.962 260.078 243.816 254.808 236.327C249.538 228.838 239.831 200.269 243.991 193.612C248.151 186.955 264.794 190.838 270.618 193.612C276.443 196.386 283.932 212.751 283.1 220.24C282.267 227.729 285.596 244.925 296.968 245.203C308.341 245.48 311.392 234.385 311.392 234.385C311.392 234.385 303.902 236.05 303.902 231.89C303.902 227.729 310.005 222.459 307.231 210.809C304.457 199.16 298.078 196.941 297.246 184.737C296.413 172.533 291.699 160.605 282.267 153.671C272.837 146.737 247.875 136.751 228.735 165.875Z" stroke="#1A2E35" stroke-width="1.33333" stroke-miterlimit="10" stroke-linecap="round" stroke-linejoin="round"/>
<path d="M230.327 204.574C229.52 207.396 229.216 211.123 230.146 215.941C232.885 230.133 245.832 244.325 243.342 253.039C240.853 261.754 233.134 261.007 228.652 257.272" stroke="#6B6B6B" stroke-width="1.33333" stroke-miterlimit="10" stroke-linecap="round" stroke-linejoin="round"/>
<path d="M235.375 197.017C235.375 197.017 233.479 198.143 231.855 200.941" stroke="#6B6B6B" stroke-width="1.33333" stroke-miterlimit="10" stroke-linecap="round" stroke-linejoin="round"/>
<path d="M238.828 242.104C240.368 244.446 241.349 246.863 241.349 249.553" stroke="#6B6B6B" stroke-width="1.33333" stroke-miterlimit="10" stroke-linecap="round" stroke-linejoin="round"/>
<path d="M243.295 169.96C237.625 174.584 230.805 181.09 225.91 188.8C215.951 204.487 216.946 208.47 222.424 220.919C225.931 228.889 232.702 234.308 237.121 239.788" stroke="#6B6B6B" stroke-width="1.33333" stroke-miterlimit="10" stroke-linecap="round" stroke-linejoin="round"/>
<path d="M253.797 162.408C253.797 162.408 250.968 164.098 246.934 167.117" stroke="#6B6B6B" stroke-width="1.33333" stroke-miterlimit="10" stroke-linecap="round" stroke-linejoin="round"/>
<path d="M257.283 153.444C257.283 153.444 252.552 168.383 253.299 171.372" stroke="#6B6B6B" stroke-width="1.33333" stroke-miterlimit="10" stroke-linecap="round" stroke-linejoin="round"/>
<path d="M296.98 239.276C298.086 240.138 299.419 240.814 300.856 241.337" stroke="#6B6B6B" stroke-width="1.33333" stroke-miterlimit="10" stroke-linecap="round" stroke-linejoin="round"/>
<path d="M287.293 188.469C290.601 190.776 294.435 194.441 298.116 200.254C307.577 215.193 300.357 218.678 295.875 226.895C293.395 231.442 293.507 234.768 295.03 237.171" stroke="#6B6B6B" stroke-width="1.33333" stroke-miterlimit="10" stroke-linecap="round" stroke-linejoin="round"/>
<path d="M278.199 184.567C278.199 184.567 280.394 184.725 283.683 186.331" stroke="#6B6B6B" stroke-width="1.33333" stroke-miterlimit="10" stroke-linecap="round" stroke-linejoin="round"/>
<path d="M292.152 181.895C293.491 183.471 294.474 184.947 295.13 186.062" stroke="#6B6B6B" stroke-width="1.33333" stroke-miterlimit="10" stroke-linecap="round" stroke-linejoin="round"/>
<path d="M257.035 166.392C257.035 166.392 258.53 171.869 271.975 172.118C280.331 172.273 286.282 175.986 290.189 179.791" stroke="#6B6B6B" stroke-width="1.33333" stroke-miterlimit="10" stroke-linecap="round" stroke-linejoin="round"/>
<path d="M254.251 172.81C254.251 172.81 238.995 186.4 235.944 194.999C232.893 203.598 242.879 223.846 243.989 226.898C245.172 230.148 248.416 233.175 250.647 235.715C254.265 239.832 259.691 245.289 265.703 244.474C273.203 243.459 280.901 231.847 284.206 225.788C287.535 219.685 288.09 210.532 288.09 210.532C288.09 210.532 291.973 210.809 291.973 205.54C291.973 200.269 292.528 192.225 289.754 192.225C286.98 192.225 284.761 194.167 284.761 194.167C284.761 194.167 275.331 190.838 266.178 183.627C257.024 176.416 254.251 172.81 254.251 172.81Z" fill="white"/>
<path d="M254.251 172.81C254.251 172.81 238.995 186.4 235.944 194.999C232.893 203.598 242.879 223.846 243.989 226.898C245.172 230.148 248.416 233.175 250.647 235.715C254.265 239.832 259.691 245.289 265.703 244.474C273.203 243.459 280.901 231.847 284.206 225.788C287.535 219.685 288.09 210.532 288.09 210.532C288.09 210.532 291.973 210.809 291.973 205.54C291.973 200.269 292.528 192.225 289.754 192.225C286.98 192.225 284.761 194.167 284.761 194.167C284.761 194.167 275.331 190.838 266.178 183.627C257.024 176.416 254.251 172.81 254.251 172.81Z" stroke="#1A2E35" stroke-width="1.33333" stroke-miterlimit="10" stroke-linecap="round" stroke-linejoin="round"/>
<path d="M255.082 221.904C255.082 221.904 255.914 225.788 260.075 224.678C264.235 223.568 264.79 222.181 264.79 222.181" stroke="#1A2E35" stroke-width="1.33333" stroke-miterlimit="10" stroke-linecap="round" stroke-linejoin="round"/>
<path d="M254.805 227.729C254.805 227.729 263.958 231.057 269.228 225.51" stroke="#1A2E35" stroke-width="1.33333" stroke-miterlimit="10" stroke-linecap="round" stroke-linejoin="round"/>
<path d="M262.574 199.437C262.574 199.437 266.18 195.276 274.502 197.773" stroke="#1A2E35" stroke-width="2.66667" stroke-miterlimit="10" stroke-linecap="round" stroke-linejoin="round"/>
<path d="M250.368 202.488C250.368 202.488 244.821 200.546 240.105 200.546" stroke="#1A2E35" stroke-width="2.66667" stroke-miterlimit="10" stroke-linecap="round" stroke-linejoin="round"/>
<path d="M255.915 205.817C255.915 205.817 250.09 203.043 242.878 202.766C235.667 202.488 234.557 203.598 234.835 204.707C235.112 205.817 235.389 217.466 241.769 218.575C248.148 219.685 254.251 218.576 255.36 215.524C256.47 212.474 255.915 205.817 255.915 205.817Z" stroke="#1A2E35" stroke-width="1.33333" stroke-miterlimit="10" stroke-linecap="round" stroke-linejoin="round"/>
<path d="M259.797 205.295C259.797 205.295 265.118 201.647 272.198 200.248C279.278 198.849 280.547 199.772 280.446 200.911C280.345 202.051 281.888 213.6 275.76 215.692C269.632 217.783 263.431 217.638 261.86 214.798C260.288 211.957 259.797 205.295 259.797 205.295Z" stroke="#1A2E35" stroke-width="1.33333" stroke-miterlimit="10" stroke-linecap="round" stroke-linejoin="round"/>
<path d="M255.914 205.817C255.914 205.817 257.574 204.22 259.795 205.295" stroke="#1A2E35" stroke-width="1.33333" stroke-miterlimit="10" stroke-linecap="round" stroke-linejoin="round"/>
<path d="M250.356 210.611C250.575 212.128 250.138 213.445 249.379 213.555C248.622 213.663 247.83 212.524 247.611 211.008C247.393 209.491 247.83 208.173 248.588 208.064C249.346 207.954 250.138 209.095 250.356 210.611Z" fill="#1A2E35"/>
<path d="M270.048 209.224C270.267 210.741 269.829 212.058 269.071 212.168C268.313 212.277 267.521 211.137 267.302 209.621C267.084 208.104 267.521 206.787 268.28 206.677C269.038 206.567 269.829 207.708 270.048 209.224Z" fill="#1A2E35"/>
<path d="M280.324 199.714L284.762 194.167" stroke="#1A2E35" stroke-width="1.33333" stroke-miterlimit="10" stroke-linecap="round" stroke-linejoin="round"/>
<path d="M286.322 306.633C286.322 306.633 285.548 303.537 281.678 300.441C277.808 297.345 268.52 295.023 268.52 297.732C268.52 300.441 277.808 308.568 280.517 312.438C283.226 316.308 285.935 324.822 291.74 329.079C297.545 333.336 326.57 342.624 338.954 343.398C351.338 344.172 359.465 336.045 359.078 327.531C358.691 319.017 352.499 311.277 342.437 309.729C332.375 308.181 327.731 313.212 321.926 314.76C316.121 316.308 311.477 317.856 311.477 317.856C311.477 317.856 314.573 307.407 313.799 304.311C313.025 301.215 307.762 299.259 307.762 299.259L303.737 295.41C303.737 295.41 295.61 288.831 294.449 288.831C293.288 288.831 288.644 283.413 282.839 283.413C277.034 283.413 269.681 287.67 272.003 289.992C274.325 292.314 279.356 290.766 282.065 290.766C284.774 290.766 287.483 296.571 287.483 296.571C287.483 296.571 284 298.893 285.161 300.441C286.322 301.989 287.096 303.15 287.096 303.15L286.322 306.633Z" fill="white"/>
<path d="M286.322 306.633C286.322 306.633 285.548 303.537 281.678 300.441C277.808 297.345 268.52 295.023 268.52 297.732C268.52 300.441 277.808 308.568 280.517 312.438C283.226 316.308 285.935 324.822 291.74 329.079C297.545 333.336 326.57 342.624 338.954 343.398C351.338 344.172 359.465 336.045 359.078 327.531C358.691 319.017 352.499 311.277 342.437 309.729C332.375 308.181 327.731 313.212 321.926 314.76C316.121 316.308 311.477 317.856 311.477 317.856C311.477 317.856 314.573 307.407 313.799 304.311C313.025 301.215 307.762 299.259 307.762 299.259L303.737 295.41C303.737 295.41 295.61 288.831 294.449 288.831C293.288 288.831 288.644 283.413 282.839 283.413C277.034 283.413 269.681 287.67 272.003 289.992C274.325 292.314 279.356 290.766 282.065 290.766C284.774 290.766 287.483 296.571 287.483 296.571C287.483 296.571 284 298.893 285.161 300.441C286.322 301.989 287.096 303.15 287.096 303.15L286.322 306.633Z" stroke="#1A2E35" stroke-width="1.33333" stroke-miterlimit="10" stroke-linecap="round" stroke-linejoin="round"/>
<path d="M286.891 302.644C286.891 302.644 287.455 305.746 289.852 305.746C292.249 305.746 291.262 302.221 292.108 301.093C292.954 299.964 295.21 295.875 295.21 295.875" stroke="#1A2E35" stroke-width="1.33333" stroke-miterlimit="10" stroke-linecap="round" stroke-linejoin="round"/>
<path d="M306.491 299.823C306.491 299.823 300.992 305.041 300.568 305.323C300.145 305.606 298.875 308.567 297.889 310.118C296.901 311.669 294.505 312.092 293.8 310.118C293.094 308.144 294.081 305.041 294.927 303.631C295.773 302.221 298.453 297.99 298.453 297.99C298.453 297.99 300.286 295.311 302.824 295.311" stroke="#1A2E35" stroke-width="1.33333" stroke-miterlimit="10" stroke-linecap="round" stroke-linejoin="round"/>
<path d="M303.53 302.926C303.53 302.926 300.569 307.015 300.569 308.567C300.569 310.118 299.582 314.067 300.851 314.63C302.12 315.195 303.812 315.195 304.659 313.361C305.505 311.528 306.492 309.413 306.492 309.413C306.492 309.413 308.466 309.272 309.312 307.862" stroke="#1A2E35" stroke-width="1.33333" stroke-miterlimit="10" stroke-linecap="round" stroke-linejoin="round"/>
<path d="M306.492 309.413C306.492 309.413 306.916 310.682 308.608 311.528" stroke="#1A2E35" stroke-width="1.33333" stroke-miterlimit="10" stroke-linecap="round" stroke-linejoin="round"/>
<path d="M293.518 288.683C293.518 288.683 291.966 288.401 291.261 290.234C290.556 292.067 287.48 296.571 287.48 296.571" stroke="#1A2E35" stroke-width="1.33333" stroke-miterlimit="10" stroke-linecap="round" stroke-linejoin="round"/>
<path d="M290.98 298.554C290.98 298.554 291.404 300.247 291.545 301.657" stroke="#1A2E35" stroke-width="1.33333" stroke-miterlimit="10" stroke-linecap="round" stroke-linejoin="round"/>
<path d="M294.223 297.85C294.223 297.85 294.646 299.682 296.197 300.528" stroke="#1A2E35" stroke-width="1.33333" stroke-miterlimit="10" stroke-linecap="round" stroke-linejoin="round"/>
<path d="M311.476 317.856C311.476 317.856 308.509 327.789 306.188 330.369" stroke="#1A2E35" stroke-width="1.33333" stroke-miterlimit="10" stroke-linecap="round" stroke-linejoin="round"/>
<path d="M205.013 283.573L226.949 343.555C227.51 345.088 228.968 346.107 230.601 346.107H288.092C290.799 346.107 292.677 343.412 291.739 340.872L270.353 282.965C269.251 279.982 266.401 278.008 263.22 278.026L208.641 278.349C205.95 278.365 204.089 281.045 205.013 283.573Z" fill="#1A2E35"/>
<path d="M205.013 283.573L226.949 343.555C227.51 345.088 228.968 346.107 230.601 346.107H288.092C290.799 346.107 292.677 343.412 291.739 340.872L270.353 282.965C269.251 279.982 266.401 278.008 263.22 278.026L208.641 278.349C205.95 278.365 204.089 281.045 205.013 283.573Z" stroke="#1A2E35" stroke-width="1.33333" stroke-miterlimit="10" stroke-linecap="round" stroke-linejoin="round"/>
<path d="M198.859 317.856L200.02 308.568C200.02 308.568 203.89 307.407 201.955 300.828C200.02 294.249 198.859 293.475 201.181 293.475C203.503 293.475 208.147 294.636 209.308 298.506C210.469 302.376 210.856 309.342 210.856 309.342C210.856 309.342 238.333 305.472 240.268 305.472C242.203 305.472 244.138 307.407 241.042 308.955C237.946 310.503 222.466 317.469 222.466 317.469C222.466 317.469 242.203 313.212 243.364 313.212C244.525 313.212 248.395 313.212 246.46 315.147C244.525 317.082 239.494 319.404 239.494 319.404C239.494 319.404 248.395 317.856 248.008 320.565C247.621 323.274 238.333 325.983 238.333 325.983C238.333 325.983 242.59 325.983 241.429 327.918C240.268 329.853 223.24 336.045 219.757 337.593C216.274 339.141 205.825 339.141 205.825 339.141C205.825 339.141 199.633 343.011 191.119 344.559C182.605 346.107 173.704 345.72 169.834 336.819C165.964 327.918 169.06 315.534 176.8 311.664C184.54 307.794 189.958 308.955 193.054 311.277C196.15 313.599 198.859 317.856 198.859 317.856Z" fill="white"/>
<path d="M198.859 317.856L200.02 308.568C200.02 308.568 203.89 307.407 201.955 300.828C200.02 294.249 198.859 293.475 201.181 293.475C203.503 293.475 208.147 294.636 209.308 298.506C210.469 302.376 210.856 309.342 210.856 309.342C210.856 309.342 238.333 305.472 240.268 305.472C242.203 305.472 244.138 307.407 241.042 308.955C237.946 310.503 222.466 317.469 222.466 317.469C222.466 317.469 242.203 313.212 243.364 313.212C244.525 313.212 248.395 313.212 246.46 315.147C244.525 317.082 239.494 319.404 239.494 319.404C239.494 319.404 248.395 317.856 248.008 320.565C247.621 323.274 238.333 325.983 238.333 325.983C238.333 325.983 242.59 325.983 241.429 327.918C240.268 329.853 223.24 336.045 219.757 337.593C216.274 339.141 205.825 339.141 205.825 339.141C205.825 339.141 199.633 343.011 191.119 344.559C182.605 346.107 173.704 345.72 169.834 336.819C165.964 327.918 169.06 315.534 176.8 311.664C184.54 307.794 189.958 308.955 193.054 311.277C196.15 313.599 198.859 317.856 198.859 317.856Z" stroke="#1A2E35" stroke-width="1.33333" stroke-miterlimit="10" stroke-linecap="round" stroke-linejoin="round"/>
<path d="M222.467 317.469L214.727 319.791" stroke="#1A2E35" stroke-width="1.33333" stroke-miterlimit="10" stroke-linecap="round" stroke-linejoin="round"/>
<path d="M239.493 319.404L217.047 326.37" stroke="#1A2E35" stroke-width="1.33333" stroke-miterlimit="10" stroke-linecap="round" stroke-linejoin="round"/>
<path d="M238.334 325.983L219.371 332.562" stroke="#1A2E35" stroke-width="1.33333" stroke-miterlimit="10" stroke-linecap="round" stroke-linejoin="round"/>
<path d="M198.86 317.856C198.86 317.856 197.312 320.952 192.668 317.856" stroke="#1A2E35" stroke-width="1.33333" stroke-miterlimit="10" stroke-linecap="round" stroke-linejoin="round"/>
<path d="M205.823 339.141L196.922 337.206" stroke="#1A2E35" stroke-width="1.33333" stroke-miterlimit="10" stroke-linecap="round" stroke-linejoin="round"/>
<path d="M210.854 309.342L202.727 310.89" stroke="#1A2E35" stroke-width="1.33333" stroke-miterlimit="10" stroke-linecap="round" stroke-linejoin="round"/>
<path d="M123.659 293.202C123.603 294.446 123.756 295.778 124.282 297.092C126.189 301.86 126.745 303.823 125.971 307.693" stroke="#1A2E35" stroke-width="1.33333" stroke-miterlimit="10" stroke-linecap="round"/>
<path d="M125.499 287.113C125.499 287.113 124.681 288.434 124.133 290.372" stroke="#1A2E35" stroke-width="1.33333" stroke-miterlimit="10" stroke-linecap="round"/>
<path d="M132.311 287.113C132.311 287.113 129.147 292.224 131.094 297.093C133.001 301.86 133.557 303.823 132.783 307.693" stroke="#1A2E35" stroke-width="1.33333" stroke-miterlimit="10" stroke-linecap="round"/>
<path d="M139.934 304.882C139.919 305.742 139.807 306.648 139.598 307.693" stroke="#1A2E35" stroke-width="1.33333" stroke-miterlimit="10" stroke-linecap="round"/>
<path d="M139.128 287.113C139.128 287.113 135.963 292.224 137.911 297.092C138.607 298.832 139.123 300.199 139.46 301.42" stroke="#1A2E35" stroke-width="1.33333" stroke-miterlimit="10" stroke-linecap="round"/>
<path d="M144.976 318.008C144.976 318.008 148.134 314.85 150.43 317.434C152.728 320.018 151.866 332.937 149.857 336.956C147.847 340.977 143.238 337.165 143.238 337.165L143.253 334.373C143.253 334.373 145.312 336.278 147.608 333.982C149.906 331.686 149.282 322.602 148.421 321.166C147.56 319.731 144.114 321.74 144.114 321.74L144.976 318.008Z" fill="white"/>
<path d="M144.976 318.008C144.976 318.008 148.134 314.85 150.43 317.434C152.728 320.018 151.866 332.937 149.857 336.956C147.847 340.977 143.238 337.165 143.238 337.165L143.253 334.373C143.253 334.373 145.312 336.278 147.608 333.982C149.906 331.686 149.282 322.602 148.421 321.166C147.56 319.731 144.114 321.74 144.114 321.74L144.976 318.008Z" stroke="#1A2E35" stroke-width="1.33333" stroke-miterlimit="10" stroke-linecap="round" stroke-linejoin="round"/>
<path d="M143.197 349.426H121.379L118.652 311.141H145.924L143.197 349.426Z" fill="white"/>
<path d="M143.197 349.426H121.379L118.652 311.141H145.924L143.197 349.426Z" stroke="#1A2E35" stroke-width="1.33333" stroke-miterlimit="10" stroke-linecap="round" stroke-linejoin="round"/>
</svg>
