<svg width="680" height="467" viewBox="0 0 680 467" fill="none" xmlns="http://www.w3.org/2000/svg">
<circle cx="597" cy="13.5" r="13" fill="#0A1C2D"/>
<path d="M625.468 197.642C589.34 166.23 546.11 144.913 503.245 124.319C455.191 101.233 405.033 78.1906 353.554 63.968C336.404 59.2321 318.963 55.5017 301.322 53.1477C223.755 42.7959 149.528 95.2927 95.8284 145.345C74.4055 165.311 54.4084 186.902 36.292 209.918C23.0635 226.726 7.27096 244.699 1.68997 266.225C-4.86572 291.514 8.83315 312.703 22.4914 332.826C33.4395 348.956 44.799 364.163 58.524 378.112C90.1806 410.28 129.416 434.954 172.107 449.563C251.598 476.764 339.85 466.446 421.503 456.589C426.107 456.033 430.709 455.454 435.309 454.854C485.723 448.28 535.814 443.828 583.822 425.456C653.49 398.794 700.454 320.508 665.576 248.362C656.025 228.606 642 212.015 625.468 197.642Z" fill="#39D192"/>
<g opacity="0.699997">
<path d="M625.468 197.642C589.34 166.23 546.11 144.913 503.245 124.319C455.191 101.233 405.033 78.1906 353.554 63.968C336.404 59.2321 318.963 55.5017 301.322 53.1477C223.755 42.7959 149.528 95.2927 95.8284 145.345C74.4055 165.311 54.4084 186.902 36.292 209.918C23.0635 226.726 7.27096 244.699 1.68997 266.225C-4.86572 291.514 8.83315 312.703 22.4914 332.826C33.4395 348.956 44.799 364.163 58.524 378.112C90.1806 410.28 129.416 434.954 172.107 449.563C251.598 476.764 339.85 466.446 421.503 456.589C426.107 456.033 430.709 455.454 435.309 454.854C485.723 448.28 535.814 443.828 583.822 425.456C653.49 398.794 700.454 320.508 665.576 248.362C656.025 228.606 642 212.015 625.468 197.642Z" fill="white"/>
</g>
<path d="M14.3633 442.044H679.002" stroke="#1A2E35" stroke-width="1.33333" stroke-miterlimit="10" stroke-linecap="round" stroke-linejoin="round"/>
<path d="M111.77 121.58C111.77 103.485 97.1013 88.8164 79.0061 88.8164C60.9109 88.8164 46.2422 103.485 46.2422 121.58C46.2422 139.675 60.9109 154.344 79.0061 154.344C97.1013 154.344 111.77 139.675 111.77 121.58Z" stroke="#1A2E35" stroke-width="1.33333" stroke-miterlimit="10" stroke-linecap="round" stroke-linejoin="round"/>
<path d="M107.988 121.58C107.988 105.574 95.0121 92.598 79.0057 92.598C62.9993 92.598 50.0234 105.574 50.0234 121.58C50.0234 137.587 62.9993 150.562 79.0057 150.562C95.0121 150.562 107.988 137.587 107.988 121.58Z" stroke="#1A2E35" stroke-width="1.33333" stroke-miterlimit="10" stroke-linecap="round" stroke-linejoin="round"/>
<path d="M81.7748 121.58C81.7748 120.051 80.5358 118.812 79.0065 118.812C77.4782 118.812 76.2383 120.051 76.2383 121.58C76.2383 123.11 77.4782 124.349 79.0065 124.349C80.5358 124.349 81.7748 123.11 81.7748 121.58Z" fill="#1A2E35"/>
<path d="M81.7748 121.58C81.7748 120.051 80.5358 118.812 79.0065 118.812C77.4782 118.812 76.2383 120.051 76.2383 121.58C76.2383 123.11 77.4782 124.349 79.0065 124.349C80.5358 124.349 81.7748 123.11 81.7748 121.58Z" stroke="#1A2E35" stroke-width="1.33333" stroke-miterlimit="10" stroke-linecap="round" stroke-linejoin="round"/>
<path d="M89.0995 126.512L79.0119 121.58L62.1953 139.964" stroke="#1A2E35" stroke-width="1.33333" stroke-miterlimit="10" stroke-linecap="round" stroke-linejoin="round"/>
<path d="M663.174 189.681H581.324V87.7191H663.174V189.681Z" stroke="#1A2E35" stroke-width="1.33333" stroke-miterlimit="10" stroke-linecap="round" stroke-linejoin="round"/>
<path d="M660.495 186.349H583.996V91.0516H660.495V186.349Z" stroke="#1A2E35" stroke-width="1.33333" stroke-miterlimit="10" stroke-linecap="round" stroke-linejoin="round"/>
<path d="M637.973 158.291H606.52V119.109H637.973V158.291Z" stroke="#1A2E35" stroke-width="1.33333" stroke-miterlimit="10" stroke-linecap="round" stroke-linejoin="round"/>
<path d="M352.219 32.6128V2.00733" stroke="#1A2E35" stroke-width="1.33333" stroke-miterlimit="10" stroke-linecap="round" stroke-linejoin="round"/>
<path d="M377.494 48.9824H326.961L342.12 29.7654H362.334L377.494 48.9824Z" fill="#1A2E35"/>
<path d="M627.574 32.6128V2.00733" stroke="#1A2E35" stroke-width="1.33333" stroke-miterlimit="10" stroke-linecap="round" stroke-linejoin="round"/>
<path d="M652.846 48.9824H602.312L617.472 29.7654H637.686L652.846 48.9824Z" fill="#1A2E35"/>
<path d="M76.8672 32.6128V2.00733" stroke="#1A2E35" stroke-width="1.33333" stroke-miterlimit="10" stroke-linecap="round" stroke-linejoin="round"/>
<path d="M102.134 48.9824H51.6016L66.761 29.7654H86.974L102.134 48.9824Z" fill="#1A2E35"/>
<path d="M69.3938 305.711L69.3958 305.704C69.4142 305.658 69.3929 305.604 69.3464 305.584C69.298 305.564 69.2428 305.585 69.2216 305.633C66.3691 312.221 64.3646 319.135 62.6891 326.111C61.0736 333.106 59.9034 340.2 59.0856 347.34L58.5745 352.706C58.4951 353.601 58.3983 354.495 58.3344 355.391L58.1873 358.083C58.1099 359.878 58.0005 361.674 57.9492 363.471L57.9986 368.863L58.0586 371.558C58.0983 372.456 58.1622 373.353 58.2231 374.25C58.3596 376.041 58.468 377.835 58.6326 379.622C58.9762 383.197 59.5134 386.753 60.067 390.293C60.0738 390.339 60.1135 390.373 60.1599 390.373C60.2132 390.373 60.2548 390.331 60.2548 390.278V390.273C60.2451 388.476 60.1696 386.687 60.129 384.899C60.0777 383.112 59.9218 381.333 59.947 379.545C59.9547 377.758 59.9083 375.976 59.888 374.193L59.8386 371.519L59.886 368.847L59.9102 363.504L60.0554 358.163L60.1106 355.492C60.1444 354.601 60.2112 353.713 60.2606 352.823L60.5887 347.486C61.213 340.383 62.1897 333.307 63.6115 326.312C65.0305 319.324 66.7863 312.364 69.3938 305.711Z" fill="#1A2E35"/>
<path d="M70.1642 333.652C70.1777 333.603 70.1526 333.55 70.1051 333.534C70.0558 333.516 70.0025 333.542 69.9851 333.592C68.4481 338.031 67.2198 342.573 66.1822 347.162C65.1901 351.759 64.4109 356.417 63.9356 361.109C63.4623 365.784 62.9387 370.466 62.8748 375.168C62.8032 379.867 62.8777 384.572 63.3743 389.267C63.3791 389.31 63.413 389.346 63.4585 389.351C63.5107 389.357 63.5572 389.319 63.563 389.267C64.106 384.585 64.437 379.916 64.7613 375.249C65.0923 370.582 65.1368 365.903 65.4417 361.235C65.7234 356.581 66.307 351.947 67.1085 347.344C67.8925 342.738 68.872 338.15 70.1642 333.652Z" fill="#1A2E35"/>
<path d="M85.6528 343.48C85.6247 343.436 85.5666 343.423 85.5231 343.451C81.6456 345.906 78.1872 348.998 75.1654 352.481C73.6796 354.249 72.2994 356.1 71.1156 358.112L70.2832 359.682L69.6318 361.315C69.3976 361.855 69.233 362.413 69.0637 362.969C68.8962 363.526 68.7094 364.08 68.5584 364.64C67.395 369.129 66.6245 373.705 66.4154 378.304C66.2286 382.9 66.3158 387.501 66.9304 392.065C66.9372 392.108 66.972 392.143 67.0175 392.146C67.0698 392.15 67.1152 392.111 67.1191 392.059L68.299 378.437C68.7704 373.933 69.0579 369.402 70.0248 365.004C70.1477 364.457 70.3055 363.921 70.4439 363.378C70.5843 362.835 70.7207 362.291 70.9221 361.773L71.4747 360.198L72.1862 358.712C73.2354 356.744 74.5188 354.861 75.8971 353.076C78.6634 349.508 81.9185 346.253 85.6227 343.611L85.6286 343.607C85.6682 343.579 85.6799 343.523 85.6528 343.48Z" fill="#1A2E35"/>
<path d="M78.1527 360.982C76.0417 362.344 74.6305 364.488 73.4429 366.643C72.3114 368.847 71.4199 371.184 70.8043 373.58C70.6185 374.174 70.4723 374.775 70.3436 375.379L69.9167 377.191C69.699 378.407 69.5276 379.636 69.4589 380.87C69.4425 382.105 69.4076 383.34 69.4909 384.571C69.5935 385.803 69.7328 387.033 69.9758 388.25C69.9845 388.285 70.0135 388.318 70.0513 388.326C70.1036 388.336 70.1549 388.302 70.1645 388.25C70.4636 387.035 70.6591 385.83 70.8169 384.629C71.0086 383.429 71.1954 382.238 71.3386 381.046C71.5138 379.857 71.6706 378.673 71.7635 377.476C71.929 376.295 72.0171 375.088 72.2756 373.922C72.6889 371.561 73.3732 369.256 74.2956 367.051C75.2141 364.864 76.4105 362.685 78.2495 361.144L78.264 361.132C78.2999 361.102 78.3086 361.05 78.2824 361.009C78.2544 360.966 78.1963 360.954 78.1527 360.982Z" fill="#1A2E35"/>
<path d="M56.4299 374.627C55.9207 368.58 54.9228 362.592 53.9801 356.608C53.0354 350.623 51.9929 344.657 50.8973 338.701C49.7638 332.752 48.5791 326.815 47.2956 320.898C47.285 320.849 47.2366 320.816 47.1872 320.826C47.135 320.835 47.1021 320.885 47.1108 320.935C48.1455 326.896 49.0824 332.874 49.9661 338.858C50.874 344.839 51.7287 350.824 52.4856 356.821C53.2241 362.821 53.8 368.836 54.5531 374.825L56.7648 392.827C56.7706 392.872 56.8073 392.909 56.8538 392.911C56.9061 392.914 56.9506 392.873 56.9535 392.82C57.0222 391.303 57.0242 389.787 57.0609 388.266C57.0755 386.746 56.999 385.233 56.9729 383.714C56.9167 380.675 56.6573 377.653 56.4299 374.627Z" fill="#1A2E35"/>
<path d="M52.8014 374.54C52.4791 372.144 52.0378 369.763 51.5809 367.39L50.732 363.86C50.4543 362.682 50.19 361.502 49.8454 360.34C48.6384 355.655 47.0966 351.05 45.2236 346.588L44.4977 344.924L43.6924 343.296C43.1804 342.2 42.5599 341.155 41.9724 340.099C40.7074 338.039 39.3958 335.981 37.6071 334.311C37.5713 334.278 37.5142 334.278 37.4774 334.312C37.4406 334.35 37.4397 334.409 37.4755 334.446L37.4842 334.455C39.1374 336.168 40.3424 338.284 41.4778 340.374C42.0034 341.449 42.559 342.506 43.0091 343.618L43.7195 345.263L44.3486 346.942C46.0241 351.42 47.3676 356.021 48.3781 360.699C48.9298 363.025 49.2947 365.398 49.7457 367.744L50.312 371.287C50.5172 372.465 50.7688 373.635 50.9343 374.822C51.3118 377.186 51.7474 379.545 52.1597 381.91C52.5256 384.283 52.9602 386.651 53.4596 389.02C53.4683 389.064 53.5071 389.099 53.5525 389.099C53.6048 389.099 53.6474 389.057 53.6474 389.004C53.6581 386.588 53.6019 384.17 53.479 381.757C53.3386 379.345 53.0531 376.945 52.8014 374.54Z" fill="#1A2E35"/>
<path d="M47.8009 374.848C46.6801 371.676 45.384 368.57 43.9709 365.523C42.521 362.495 40.9558 359.524 39.1546 356.693C39.1265 356.654 39.0694 356.638 39.0268 356.663C38.9823 356.689 38.9668 356.747 38.9939 356.793C40.5667 359.731 41.8986 362.798 43.1046 365.899C44.3329 368.991 45.4383 372.129 46.3655 375.318C47.3112 378.503 47.9887 381.751 48.8366 384.95C49.7271 388.146 50.4482 391.376 51.4306 394.614C51.4422 394.653 51.479 394.684 51.5216 394.685C51.5739 394.685 51.6174 394.643 51.6184 394.59C51.6658 391.213 51.3338 387.837 50.6776 384.529C50.0842 381.203 48.915 378.018 47.8009 374.848Z" fill="#1A2E35"/>
<path d="M47.5943 385.417C47.0213 383.43 46.0427 381.579 44.9325 379.834C43.8417 378.082 42.5747 376.424 41.0579 375.021C40.2759 374.344 39.4764 373.692 38.5927 373.162C37.7225 372.618 36.7991 372.159 35.7973 371.897C35.7538 371.887 35.7073 371.908 35.688 371.951C35.6667 371.998 35.688 372.053 35.7354 372.076L35.747 372.08C37.5589 372.886 39.0902 374.221 40.3843 375.682C41.6958 377.145 42.7421 378.825 43.6152 380.574C44.5318 382.311 45.007 384.231 45.8046 386.02C46.1569 386.937 46.5073 387.861 46.9138 388.778C47.2594 389.712 47.6427 390.644 48.1295 391.571L48.1324 391.576C48.1479 391.607 48.1789 391.626 48.2147 391.628C48.2679 391.63 48.3125 391.59 48.3154 391.535C48.3589 390.501 48.2979 389.471 48.1992 388.445C48.0521 387.429 47.8372 386.42 47.5943 385.417Z" fill="#1A2E35"/>
<path d="M47.9667 329.556C47.9667 329.556 38.0572 327.27 35.77 316.597C33.4838 305.926 40.8516 310.5 34.2456 293.73C27.6396 276.959 29.164 273.149 31.4512 268.321C33.7374 263.493 35.0083 265.017 37.0409 271.371C39.0735 277.722 46.4423 287.632 49.2366 306.181C52.032 324.729 47.9667 329.556 47.9667 329.556Z" fill="#39D192"/>
<path d="M67.53 311.516C67.53 311.516 60.924 309.229 60.6694 296.778C60.4148 284.329 65.4974 286.869 66.2601 271.37C67.0218 255.871 68.0381 244.945 70.8335 244.691C73.6278 244.436 80.9966 252.314 83.5374 269.592C86.0781 286.869 80.2339 298.303 75.1523 303.386C70.0708 308.467 67.53 311.516 67.53 311.516Z" fill="#39D192"/>
<path d="M44.4041 344.547C44.4041 344.547 42.8797 335.401 39.8307 331.081C36.7818 326.761 30.1748 322.95 25.855 314.564C21.5362 306.18 16.7082 302.114 16.9628 314.056C17.2164 325.999 22.5525 332.097 29.1595 336.162C35.7655 340.228 44.4041 344.547 44.4041 344.547Z" fill="#39D192"/>
<path d="M41.6154 360.3C41.6154 360.3 35.5175 348.613 26.6243 339.973C17.7311 331.334 10.617 327.015 13.1578 331.334C15.6985 335.653 18.7475 335.4 23.0673 343.022C27.3861 350.644 26.1162 356.235 32.2141 360.555C38.3119 364.875 41.6154 360.3 41.6154 360.3Z" fill="#39D192"/>
<path d="M40.854 375.292C40.6004 374.53 40.3458 368.94 31.7072 364.366C23.0686 359.793 14.9371 361.571 15.9534 363.858C16.9697 366.145 22.3058 369.956 27.642 372.243C32.9771 374.53 40.854 375.292 40.854 375.292Z" fill="#39D192"/>
<path d="M67.0199 345.054C67.0199 345.054 63.2082 340.227 65.2418 330.064C67.2744 319.9 71.8478 322.441 76.9294 317.105C82.0109 311.769 80.9946 311.007 86.0762 305.417C91.1577 299.827 95.7321 296.778 97.7647 299.065C99.7973 301.352 96.7484 308.466 93.6995 312.532C90.6505 316.598 85.8226 318.629 83.5354 323.711C81.2492 328.793 82.2655 336.924 76.4212 340.736C70.5769 344.547 67.0199 345.054 67.0199 345.054Z" fill="#39D192"/>
<path d="M79.7266 347.851C79.7266 347.851 88.8743 337.432 95.4803 329.81C102.086 322.188 104.627 316.344 104.882 321.425C105.135 326.507 107.169 330.572 101.833 337.179C96.4967 343.786 79.7266 347.851 79.7266 347.851Z" fill="#39D192"/>
<path d="M74.8948 364.62C74.8948 364.62 74.6412 360.555 89.1241 351.154C103.607 341.752 109.705 339.973 108.18 343.786C106.656 347.597 100.304 351.408 93.4439 358.269C86.5834 365.129 74.8948 364.62 74.8948 364.62Z" fill="#39D192"/>
<path d="M48.5702 328.472C48.5702 328.472 45.1709 310.245 41.6138 297.286C38.0567 284.329 35.7695 276.451 35.7695 276.451" stroke="#1A2E35" stroke-width="0.666667" stroke-miterlimit="10" stroke-linecap="round" stroke-linejoin="round"/>
<path d="M66.9414 311.707C66.9414 311.707 73.1167 291.951 75.1493 280.009C77.1819 268.067 74.8948 259.174 73.8785 253.838" stroke="#1A2E35" stroke-width="0.666667" stroke-miterlimit="10" stroke-linecap="round" stroke-linejoin="round"/>
<path d="M43.6059 344.165C43.6059 344.165 39.8339 337.432 34.2433 330.826C28.6535 324.22 24.3337 320.663 21.793 314.31" stroke="#1A2E35" stroke-width="0.666667" stroke-miterlimit="10" stroke-linecap="round" stroke-linejoin="round"/>
<path d="M67.0195 345.054C67.0195 345.054 69.0522 332.858 73.8801 326.506C78.7081 320.154 88.363 310.244 92.1747 303.893" stroke="#1A2E35" stroke-width="0.666667" stroke-miterlimit="10" stroke-linecap="round" stroke-linejoin="round"/>
<path d="M40.2539 375.015C40.2539 375.015 31.7043 369.447 25.6055 366.399" stroke="#1A2E35" stroke-width="0.666667" stroke-miterlimit="10" stroke-linecap="round" stroke-linejoin="round"/>
<path d="M70.8166 442.044H46.8888L41.7617 385.234H75.9446L70.8166 442.044Z" fill="#1A2E35"/>
<path d="M70.8166 442.044H46.8888L41.7617 385.234H75.9446L70.8166 442.044Z" stroke="#1A2E35" stroke-width="1.33333" stroke-miterlimit="10" stroke-linecap="round" stroke-linejoin="round"/>
<path d="M272.414 117.64V250.265" stroke="#1A2E35" stroke-width="1.33333" stroke-miterlimit="10" stroke-linecap="round" stroke-linejoin="round"/>
<path d="M626.352 342.656H636.683V324.319H626.352V342.656Z" fill="#1A2E35" stroke="#1A2E35" stroke-width="1.33333" stroke-miterlimit="10" stroke-linecap="round" stroke-linejoin="round"/>
<path d="M621.716 329.896H642.917C651.273 329.896 658.047 323.122 658.047 314.766V266.301C658.047 257.945 651.273 251.171 642.917 251.171H621.716C613.36 251.171 606.586 257.945 606.586 266.301V314.766C606.586 323.122 613.36 329.896 621.716 329.896Z" fill="#959595"/>
<path d="M621.716 329.896H642.917C651.273 329.896 658.047 323.122 658.047 314.766V266.301C658.047 257.945 651.273 251.171 642.917 251.171H621.716C613.36 251.171 606.586 257.945 606.586 266.301V314.766C606.586 323.122 613.36 329.896 621.716 329.896Z" stroke="#1A2E35" stroke-width="1.33333" stroke-miterlimit="10" stroke-linecap="round" stroke-linejoin="round"/>
<path d="M647.742 438.754C647.742 436.341 649.698 434.384 652.112 434.384C654.525 434.384 656.481 436.341 656.481 438.754C656.481 441.168 654.525 443.124 652.112 443.124C649.698 443.124 647.742 441.168 647.742 438.754Z" fill="#1A2E35"/>
<path d="M647.742 438.754C647.742 436.341 649.698 434.384 652.112 434.384C654.525 434.384 656.481 436.341 656.481 438.754C656.481 441.168 654.525 443.124 652.112 443.124C649.698 443.124 647.742 441.168 647.742 438.754Z" stroke="#1A2E35" stroke-width="1.33333" stroke-miterlimit="10" stroke-linecap="round" stroke-linejoin="round"/>
<path d="M562.363 438.754C562.363 436.341 564.319 434.384 566.733 434.384C569.146 434.384 571.103 436.341 571.103 438.754C571.103 441.168 569.146 443.124 566.733 443.124C564.319 443.124 562.363 441.168 562.363 438.754Z" fill="#1A2E35"/>
<path d="M562.363 438.754C562.363 436.341 564.319 434.384 566.733 434.384C569.146 434.384 571.103 436.341 571.103 438.754C571.103 441.168 569.146 443.124 566.733 443.124C564.319 443.124 562.363 441.168 562.363 438.754Z" stroke="#1A2E35" stroke-width="1.33333" stroke-miterlimit="10" stroke-linecap="round" stroke-linejoin="round"/>
<path d="M607.297 438.754C607.297 436.341 608.206 434.384 609.328 434.384C610.449 434.384 611.358 436.341 611.358 438.754C611.358 441.168 610.449 443.124 609.328 443.124C608.206 443.124 607.297 441.168 607.297 438.754Z" fill="#1A2E35"/>
<path d="M607.297 438.754C607.297 436.341 608.206 434.384 609.328 434.384C610.449 434.384 611.358 436.341 611.358 438.754C611.358 441.168 610.449 443.124 609.328 443.124C608.206 443.124 607.297 441.168 607.297 438.754Z" stroke="#1A2E35" stroke-width="1.33333" stroke-miterlimit="10" stroke-linecap="round" stroke-linejoin="round"/>
<path d="M605.351 415.037V352.391H613.929V415.293L656.263 432.036V436.245H650.111V432.684L609.317 424.266L568.522 432.684V436.245H562.371V432.036L605.351 415.037Z" fill="#1A2E35"/>
<path d="M605.351 415.037V352.391H613.929V415.293L656.263 432.036V436.245H650.111V432.684L609.317 424.266L568.522 432.684V436.245H562.371V432.036L605.351 415.037Z" stroke="#1A2E35" stroke-width="1.33333" stroke-miterlimit="10" stroke-linecap="round" stroke-linejoin="round"/>
<path d="M611.476 436.233H607.184L606.266 415.897H612.395L611.476 436.233Z" fill="#1A2E35"/>
<path d="M611.476 436.233H607.184L606.266 415.897H612.395L611.476 436.233Z" stroke="#1A2E35" stroke-width="1.33333" stroke-miterlimit="10" stroke-linecap="round" stroke-linejoin="round"/>
<path d="M598.746 362.954H620.557V350.004H598.746V362.954Z" fill="#1A2E35" stroke="#1A2E35" stroke-width="1.33333" stroke-miterlimit="10" stroke-linecap="round" stroke-linejoin="round"/>
<path d="M577.203 354.774H644.143C647.303 354.774 649.865 352.213 649.865 349.052V343.798C649.865 340.638 647.303 338.075 644.143 338.075H577.203C574.043 338.075 571.48 340.638 571.48 343.798V349.052C571.48 352.213 574.043 354.774 577.203 354.774Z" fill="#959595"/>
<path d="M577.203 354.774H644.143C647.303 354.774 649.865 352.213 649.865 349.052V343.798C649.865 340.638 647.303 338.075 644.143 338.075H577.203C574.043 338.075 571.48 340.638 571.48 343.798V349.052C571.48 352.213 574.043 354.774 577.203 354.774Z" stroke="#1A2E35" stroke-width="1.33333" stroke-miterlimit="10" stroke-linecap="round" stroke-linejoin="round"/>
<path d="M543.989 421.251C543.989 421.251 540.206 426.715 534.74 429.869C529.275 433.021 520.867 434.283 520.867 435.964C520.867 437.645 521.499 440.588 527.804 441.43C534.11 442.27 561.434 442.69 565.008 441.85C568.582 441.009 565.219 423.353 565.219 423.353C565.219 423.353 548.612 424.194 543.989 421.251Z" fill="white"/>
<path d="M543.989 421.251C543.989 421.251 540.206 426.715 534.74 429.869C529.275 433.021 520.867 434.283 520.867 435.964C520.867 437.645 521.499 440.588 527.804 441.43C534.11 442.27 561.434 442.69 565.008 441.85C568.582 441.009 565.219 423.353 565.219 423.353C565.219 423.353 548.612 424.194 543.989 421.251V421.251Z" stroke="#1A2E35" stroke-width="1.33333" stroke-miterlimit="10" stroke-linecap="round" stroke-linejoin="round"/>
<path d="M527.804 441.429C534.11 442.269 561.434 442.69 565.008 441.85C565.92 441.635 566.379 440.323 566.558 438.492C558.939 438.727 544.081 438.955 535.161 438.487C523.181 437.857 520.867 435.964 520.867 435.964C520.867 437.646 521.498 440.588 527.804 441.429Z" fill="white"/>
<path d="M527.804 441.429C534.11 442.269 561.434 442.69 565.008 441.85C565.92 441.635 566.379 440.323 566.558 438.492C558.939 438.727 544.081 438.955 535.161 438.487C523.181 437.857 520.867 435.964 520.867 435.964C520.867 437.646 521.498 440.588 527.804 441.429Z" stroke="#1A2E35" stroke-width="1.33333" stroke-miterlimit="10" stroke-linecap="round" stroke-linejoin="round"/>
<path d="M525.066 256.881C525.066 256.881 526.748 281.683 528.219 292.193C529.69 302.703 535.156 345.582 538.729 356.722C542.302 367.862 546.086 415.786 546.086 415.786C546.086 415.786 542.092 417.256 542.302 418.939C542.512 420.62 542.722 423.142 542.722 423.142C542.722 423.142 550.919 427.557 555.754 427.557C560.589 427.557 566.684 425.455 566.684 425.455C566.684 425.455 565.423 406.748 564.793 392.034C564.162 377.321 558.066 314.684 558.066 314.684L556.805 252.257L525.066 256.881Z" fill="#1A2E35"/>
<path d="M525.066 256.881C525.066 256.881 526.748 281.683 528.219 292.193C529.69 302.703 535.156 345.582 538.729 356.722C542.302 367.862 546.086 415.786 546.086 415.786C546.086 415.786 542.092 417.256 542.302 418.939C542.512 420.62 542.722 423.142 542.722 423.142C542.722 423.142 550.919 427.557 555.754 427.557C560.589 427.557 566.684 425.455 566.684 425.455C566.684 425.455 565.423 406.748 564.793 392.034C564.162 377.321 558.066 314.684 558.066 314.684L556.805 252.257L525.066 256.881Z" stroke="#1A2E35" stroke-width="1.33333" stroke-miterlimit="10" stroke-linecap="round" stroke-linejoin="round"/>
<path d="M560.593 425.875C560.593 425.875 561.013 429.869 550.504 433.442C539.994 437.015 538.733 440.799 539.994 443.951C541.255 447.105 563.115 447.105 571.313 445.843C579.51 444.582 583.714 444.162 584.344 442.48C584.975 440.799 582.663 427.977 582.663 427.977L560.593 425.875Z" fill="white"/>
<path d="M560.593 425.875C560.593 425.875 561.013 429.869 550.504 433.442C539.994 437.015 538.733 440.799 539.994 443.951C541.255 447.105 563.115 447.105 571.313 445.843C579.51 444.582 583.714 444.162 584.344 442.48C584.975 440.799 582.663 427.977 582.663 427.977L560.593 425.875Z" stroke="#1A2E35" stroke-width="1.33333" stroke-miterlimit="10" stroke-linecap="round" stroke-linejoin="round"/>
<path d="M584.344 442.48C584.474 442.135 584.478 441.311 584.404 440.229C581.529 440.76 577.674 441.489 572.574 442.48C561.343 444.664 546.534 443.376 539.637 442.566C539.694 443.038 539.814 443.503 539.994 443.952C541.254 447.104 563.114 447.104 571.313 445.844C579.51 444.583 583.714 444.162 584.344 442.48Z" fill="white"/>
<path d="M584.344 442.48C584.474 442.135 584.478 441.311 584.404 440.229C581.529 440.76 577.674 441.489 572.574 442.48C561.343 444.664 546.534 443.376 539.637 442.566C539.694 443.038 539.814 443.503 539.994 443.952C541.254 447.104 563.114 447.104 571.313 445.844C579.51 444.583 583.714 444.162 584.344 442.48Z" stroke="#1A2E35" stroke-width="1.33333" stroke-miterlimit="10" stroke-linecap="round" stroke-linejoin="round"/>
<path d="M532.641 262.976L538.737 270.333C538.737 270.333 543.36 321.199 545.043 334.441C546.724 347.684 554.711 394.977 554.711 394.977L559.756 420.201C559.756 420.201 558.916 422.301 558.495 423.352C558.074 424.403 558.284 426.716 558.495 427.557C558.705 428.397 558.284 429.028 566.272 430.288C574.259 431.55 582.246 430.288 582.246 430.288C582.246 430.288 583.297 427.767 583.297 424.403C583.297 421.041 583.297 419.569 582.666 416.207C582.035 412.843 582.666 394.977 578.042 375.849C573.418 356.723 570.054 334.652 570.054 327.295C570.054 319.939 570.265 276.849 570.475 276.008C570.685 275.168 574.679 272.435 574.889 264.658C575.099 256.88 574.048 253.938 574.048 253.938H533.062" fill="#1A2E35"/>
<path d="M532.641 262.976L538.737 270.333C538.737 270.333 543.36 321.199 545.043 334.441C546.724 347.684 554.711 394.977 554.711 394.977L559.756 420.201C559.756 420.201 558.916 422.301 558.495 423.352C558.074 424.403 558.284 426.716 558.495 427.557C558.705 428.397 558.284 429.028 566.272 430.288C574.259 431.55 582.246 430.288 582.246 430.288C582.246 430.288 583.297 427.767 583.297 424.403C583.297 421.041 583.297 419.569 582.666 416.207C582.035 412.843 582.666 394.977 578.042 375.849C573.418 356.723 570.054 334.652 570.054 327.295C570.054 319.939 570.265 276.849 570.475 276.008C570.685 275.168 574.679 272.435 574.889 264.658C575.099 256.88 574.048 253.938 574.048 253.938H533.062" stroke="#1A2E35" stroke-width="1.33333" stroke-miterlimit="10" stroke-linecap="round" stroke-linejoin="round"/>
<path d="M532.425 158.932C532.425 158.932 522.967 182.473 522.336 198.028C521.706 213.581 522.336 235.651 522.546 236.493C522.757 237.333 520.234 254.989 521.706 257.722C523.177 260.454 525.699 259.613 525.699 259.613C525.699 259.613 571.731 260.243 573.833 259.824C575.935 259.403 576.355 256.671 576.775 254.568C577.196 252.467 575.515 227.454 575.515 223.671C575.515 219.887 576.775 177.639 571.521 165.869C566.267 154.097 553.235 144.428 551.553 144.008C549.871 143.587 536.209 148.212 532.425 158.932Z" fill="#39D192"/>
<path d="M532.425 158.932C532.425 158.932 522.967 182.473 522.336 198.028C521.706 213.581 522.336 235.651 522.546 236.493C522.757 237.333 520.234 254.989 521.706 257.722C523.177 260.454 525.699 259.613 525.699 259.613C525.699 259.613 571.731 260.243 573.833 259.824C575.935 259.403 576.355 256.671 576.775 254.568C577.196 252.467 575.515 227.454 575.515 223.671C575.515 219.887 576.775 177.639 571.521 165.869C566.267 154.097 553.235 144.428 551.553 144.008C549.871 143.587 536.209 148.212 532.425 158.932Z" stroke="#1A2E35" stroke-width="1.33333" stroke-miterlimit="10" stroke-linecap="round" stroke-linejoin="round"/>
<path d="M509.43 112.64C509.43 112.64 507.823 120.359 508.305 121.002C508.788 121.645 510.395 124.7 510.395 124.7L506.215 136.117L511.199 137.565L518.275 149.785L529.21 146.731L532.426 161.364C532.426 161.364 531.943 166.671 534.355 165.224C536.767 163.777 538.858 162.168 543.521 154.127C548.185 146.088 552.848 144.802 552.848 144.802C552.848 144.802 547.059 137.082 545.933 134.67C544.808 132.258 545.451 128.238 543.521 118.429C541.592 108.619 534.999 106.529 525.993 106.529C516.989 106.529 510.235 108.298 509.43 112.64Z" fill="white"/>
<path d="M509.43 112.64C509.43 112.64 507.823 120.359 508.305 121.002C508.788 121.645 510.395 124.7 510.395 124.7L506.215 136.117L511.199 137.565L518.275 149.785L529.21 146.731L532.426 161.364C532.426 161.364 531.943 166.671 534.355 165.224C536.767 163.777 538.858 162.168 543.521 154.127C548.185 146.088 552.848 144.802 552.848 144.802C552.848 144.802 547.059 137.082 545.933 134.67C544.808 132.258 545.451 128.238 543.521 118.429C541.592 108.619 534.999 106.529 525.993 106.529C516.989 106.529 510.235 108.298 509.43 112.64Z" stroke="#1A2E35" stroke-width="1.33333" stroke-miterlimit="10" stroke-linecap="round" stroke-linejoin="round"/>
<path d="M513.938 103.473C513.938 103.473 506.701 105.081 505.415 106.528C504.128 107.975 506.057 112.478 507.828 113.443C509.596 114.408 521.013 111.835 520.853 112.639C520.692 113.443 518.922 115.533 520.853 116.337C522.782 117.142 530.5 119.232 530.5 119.232L528.571 134.026C528.571 134.026 519.082 133.544 516.832 134.026C514.581 134.509 511.204 137.564 511.204 137.564C511.204 137.564 515.385 150.267 516.188 151.554C516.993 152.84 519.244 152.519 521.818 151.554C524.39 150.59 534.843 143.031 535.969 142.066C537.093 141.101 534.682 131.614 534.682 131.614C534.682 131.614 535.004 123.735 535.004 122.126C535.004 120.519 537.093 120.519 538.541 121.644C539.988 122.77 540.47 127.111 540.149 128.72C539.828 130.327 538.058 131.936 538.058 131.936C538.058 131.936 544.169 136.6 545.456 136.6C546.743 136.6 547.064 135.795 547.225 135.313C547.385 134.83 547.064 121.001 547.064 121.001C547.064 121.001 547.385 107.815 545.617 103.634C543.847 99.4529 535.486 98.3272 530.179 99.1316C524.872 99.9349 513.938 103.473 513.938 103.473Z" fill="#1A2E35"/>
<path d="M513.938 103.473C513.938 103.473 506.701 105.081 505.415 106.528C504.128 107.975 506.057 112.478 507.828 113.443C509.596 114.408 521.013 111.835 520.853 112.639C520.692 113.443 518.922 115.533 520.853 116.337C522.782 117.142 530.5 119.232 530.5 119.232L528.571 134.026C528.571 134.026 519.082 133.544 516.832 134.026C514.581 134.509 511.204 137.564 511.204 137.564C511.204 137.564 515.385 150.267 516.188 151.554C516.993 152.84 519.244 152.519 521.818 151.554C524.39 150.59 534.843 143.031 535.969 142.066C537.093 141.101 534.682 131.614 534.682 131.614C534.682 131.614 535.004 123.735 535.004 122.126C535.004 120.519 537.093 120.519 538.541 121.644C539.988 122.77 540.47 127.111 540.149 128.72C539.828 130.327 538.058 131.936 538.058 131.936C538.058 131.936 544.169 136.6 545.456 136.6C546.743 136.6 547.064 135.795 547.225 135.313C547.385 134.83 547.064 121.001 547.064 121.001C547.064 121.001 547.385 107.815 545.617 103.634C543.847 99.4529 535.486 98.3272 530.179 99.1316C524.872 99.9349 513.938 103.473 513.938 103.473Z" stroke="#1A2E35" stroke-width="1.33333" stroke-miterlimit="10" stroke-linecap="round" stroke-linejoin="round"/>
<path d="M515.208 125.35C515.363 126.225 515.098 127.003 514.618 127.087C514.136 127.172 513.621 126.533 513.466 125.658C513.312 124.783 513.576 124.005 514.058 123.92C514.539 123.835 515.054 124.476 515.208 125.35Z" stroke="#1A2E35" stroke-width="1.33333" stroke-miterlimit="10" stroke-linecap="round" stroke-linejoin="round"/>
<path d="M511.684 122.127C511.684 122.127 513.773 119.876 516.185 121.805" stroke="#1A2E35" stroke-width="1.33333" stroke-miterlimit="10" stroke-linecap="round" stroke-linejoin="round"/>
<path d="M516.348 139.815C516.348 139.815 520.046 138.69 521.172 136.117" stroke="white" stroke-width="1.33333" stroke-miterlimit="10" stroke-linecap="round" stroke-linejoin="round"/>
<path d="M559.544 212.531C559.544 212.531 550.506 252.678 549.665 254.779C548.825 256.88 545.25 265.289 545.25 265.289L555.13 273.906C555.13 273.906 556.601 271.594 557.863 266.13C559.123 260.664 559.333 255.41 559.333 255.41C559.333 255.41 573.627 224.932 575.939 220.728C578.251 216.524 576.57 213.372 576.57 212.32C576.57 211.269 559.544 212.531 559.544 212.531Z" fill="white"/>
<path d="M559.544 212.531C559.544 212.531 550.506 252.678 549.665 254.779C548.825 256.88 545.25 265.289 545.25 265.289L555.13 273.906C555.13 273.906 556.601 271.594 557.863 266.13C559.123 260.664 559.333 255.41 559.333 255.41C559.333 255.41 573.627 224.932 575.939 220.728C578.251 216.524 576.57 213.372 576.57 212.32C576.57 211.269 559.544 212.531 559.544 212.531Z" stroke="#1A2E35" stroke-width="1.33333" stroke-miterlimit="10" stroke-linecap="round" stroke-linejoin="round"/>
<path d="M553.026 166.709C553.026 166.709 550.714 174.066 550.924 177.638C551.135 181.212 555.968 202.651 555.968 202.651C555.968 202.651 553.447 204.964 554.287 205.805C555.128 206.645 556.389 208.747 556.389 208.747C556.389 208.747 554.498 210.218 556.389 212.321C558.281 214.422 557.441 215.473 566.269 215.263C575.096 215.052 577.829 214.632 578.88 212.951C579.931 211.27 581.192 210.007 580.141 208.326L579.09 206.645C579.09 206.645 580.141 204.754 579.931 202.441C579.72 200.129 578.25 197.396 578.25 196.345C578.25 195.295 578.039 181.002 575.307 169.861C572.574 158.721 561.013 152.626 558.912 152.416" fill="#39D192"/>
<path d="M553.026 166.709C553.026 166.709 550.714 174.066 550.924 177.638C551.135 181.212 555.968 202.651 555.968 202.651C555.968 202.651 553.447 204.964 554.287 205.805C555.128 206.645 556.389 208.747 556.389 208.747C556.389 208.747 554.498 210.218 556.389 212.321C558.281 214.422 557.441 215.473 566.269 215.263C575.096 215.052 577.829 214.632 578.88 212.951C579.931 211.27 581.192 210.007 580.141 208.326L579.09 206.645C579.09 206.645 580.141 204.754 579.931 202.441C579.72 200.129 578.25 197.396 578.25 196.345C578.25 195.295 578.039 181.002 575.307 169.861C572.574 158.721 561.013 152.626 558.912 152.416" stroke="#1A2E35" stroke-width="1.33333" stroke-miterlimit="10" stroke-linecap="round" stroke-linejoin="round"/>
<path d="M429.174 272.662C429.174 272.662 429.504 285.85 429.504 286.345C429.504 286.839 427.856 296.235 428.68 300.686C429.504 305.136 436.097 311.236 436.097 311.236L436.757 271.51L429.174 272.662Z" fill="white"/>
<path d="M429.174 272.662C429.174 272.662 429.504 285.85 429.504 286.345C429.504 286.839 427.856 296.235 428.68 300.686C429.504 305.136 436.097 311.236 436.097 311.236L436.757 271.51L429.174 272.662Z" stroke="#1A2E35" stroke-width="1.33333" stroke-miterlimit="10" stroke-linecap="round" stroke-linejoin="round"/>
<path d="M449.064 181.752C449.064 181.752 429.723 205.324 429.119 207.943C428.515 210.563 423.477 274.429 423.477 275.034C423.477 275.639 431.335 278.661 434.558 278.661H439.192C439.192 278.661 433.752 234.74 436.17 218.42C438.588 202.1 444.43 197.467 448.863 191.221C453.295 184.976 453.295 180.14 449.064 181.752Z" fill="#39D192"/>
<path d="M449.064 181.752C449.064 181.752 429.723 205.324 429.119 207.943C428.515 210.563 423.477 274.429 423.477 275.034C423.477 275.639 431.335 278.661 434.558 278.661H439.192C439.192 278.661 433.752 234.74 436.17 218.42C438.588 202.1 444.43 197.467 448.863 191.221C453.295 184.976 453.295 180.14 449.064 181.752Z" stroke="#1A2E35" stroke-width="1.33333" stroke-miterlimit="10" stroke-linecap="round" stroke-linejoin="round"/>
<path d="M450.075 422.313C450.075 422.313 445.038 429.566 442.217 431.178C439.397 432.79 430.129 436.618 429.725 437.625C429.323 438.632 429.323 441.05 430.129 441.251C430.934 441.453 444.836 441.05 453.298 441.05C461.759 441.05 467.4 441.453 468.408 440.445C469.416 439.439 468.609 426.343 467.603 423.724L466.595 421.104L451.485 420.702L450.075 422.313Z" fill="#1A2E35"/>
<path d="M450.075 422.313C450.075 422.313 445.038 429.566 442.217 431.178C439.397 432.79 430.129 436.618 429.725 437.625C429.323 438.632 429.323 441.05 430.129 441.251C430.934 441.453 444.836 441.05 453.298 441.05C461.759 441.05 467.4 441.453 468.408 440.445C469.416 439.439 468.609 426.343 467.603 423.724L466.595 421.104L451.485 420.702L450.075 422.313Z" stroke="#1A2E35" stroke-width="1.33333" stroke-miterlimit="10" stroke-linecap="round" stroke-linejoin="round"/>
<path d="M468.743 439.237H429.462C429.445 440.185 429.635 441.129 430.126 441.251C430.931 441.453 444.833 441.05 453.295 441.05C461.756 441.05 467.397 441.453 468.405 440.446C468.558 440.294 468.668 439.863 468.743 439.237Z" fill="white"/>
<path d="M468.743 439.237H429.462C429.445 440.185 429.635 441.129 430.126 441.251C430.931 441.453 444.833 441.05 453.295 441.05C461.756 441.05 467.397 441.453 468.405 440.446C468.558 440.294 468.668 439.863 468.743 439.237Z" stroke="#1A2E35" stroke-width="1.33333" stroke-miterlimit="10" stroke-linecap="round" stroke-linejoin="round"/>
<path d="M430.729 270.4L433.348 282.69C433.348 282.69 432.946 314.725 436.169 328.627C439.393 342.529 439.393 356.028 439.393 356.028C439.393 356.028 443.825 377.988 445.436 384.234C447.048 390.48 448.862 416.873 448.862 416.873C448.862 416.873 447.25 418.082 447.452 418.888C447.653 419.694 448.257 424.731 448.257 424.731C448.257 424.731 449.063 424.731 455.511 425.335C461.958 425.939 465.383 425.536 465.383 425.536L467.6 423.723C467.6 423.723 467.801 420.902 467.6 417.276C467.397 413.65 466.189 410.828 466.189 408.411C466.189 405.994 464.778 352.804 464.778 352.804L465.383 269.394L430.125 267.379L430.729 270.4Z" fill="white"/>
<path d="M430.729 270.4L433.348 282.69C433.348 282.69 432.946 314.725 436.169 328.627C439.393 342.529 439.393 356.028 439.393 356.028C439.393 356.028 443.825 377.988 445.436 384.234C447.048 390.48 448.862 416.873 448.862 416.873C448.862 416.873 447.25 418.082 447.452 418.888C447.653 419.694 448.257 424.731 448.257 424.731C448.257 424.731 449.063 424.731 455.511 425.335C461.958 425.939 465.383 425.536 465.383 425.536L467.6 423.723C467.6 423.723 467.801 420.902 467.6 417.276C467.397 413.65 466.189 410.828 466.189 408.411C466.189 405.994 464.778 352.804 464.778 352.804L465.383 269.394L430.125 267.379L430.729 270.4Z" stroke="#1A2E35" stroke-width="1.33333" stroke-miterlimit="10" stroke-linecap="round" stroke-linejoin="round"/>
<path d="M469.813 421.91C469.813 421.91 468 426.342 466.186 428.76C464.374 431.178 456.92 435.409 453.897 437.02C450.875 438.632 450.875 442.057 450.875 442.057C450.875 442.057 457.725 442.259 480.29 441.452L489.96 441.05C489.96 441.05 490.162 438.43 489.759 435.409C489.356 432.387 488.953 424.731 488.953 424.731L469.813 421.91Z" fill="#1A2E35"/>
<path d="M469.813 421.91C469.813 421.91 468 426.342 466.186 428.76C464.374 431.178 456.92 435.409 453.897 437.02C450.875 438.632 450.875 442.057 450.875 442.057C450.875 442.057 457.725 442.259 480.29 441.452L489.96 441.05C489.96 441.05 490.162 438.43 489.759 435.409C489.356 432.387 488.953 424.731 488.953 424.731L469.813 421.91Z" stroke="#1A2E35" stroke-width="1.33333" stroke-miterlimit="10" stroke-linecap="round" stroke-linejoin="round"/>
<path d="M480.291 441.453L489.961 441.05C489.961 441.05 490.066 439.683 489.973 437.788L451.407 439.752C450.876 440.982 450.875 442.058 450.875 442.058C450.875 442.058 457.726 442.259 480.291 441.453Z" fill="white"/>
<path d="M480.291 441.453L489.961 441.05C489.961 441.05 490.066 439.683 489.973 437.788L451.407 439.752C450.876 440.982 450.875 442.058 450.875 442.058C450.875 442.058 457.726 442.259 480.291 441.453V441.453Z" stroke="#1A2E35" stroke-width="1.33333" stroke-miterlimit="10" stroke-linecap="round" stroke-linejoin="round"/>
<path d="M443.623 284.705L451.278 292.159C451.278 292.159 454.301 321.173 457.323 338.298C460.345 355.423 468.203 399.546 468.203 403.173C468.203 406.8 469.815 416.067 469.815 416.067C469.815 416.067 469.211 416.269 469.009 417.679C468.807 419.09 468.807 424.529 468.807 424.529C468.807 424.529 473.844 426.946 478.276 427.35C482.709 427.753 489.559 427.149 489.559 427.149C489.559 427.149 490.364 422.514 490.364 420.903C490.364 419.291 489.76 412.24 490.163 409.419C490.567 406.598 493.387 392.293 492.581 376.578C491.776 360.863 486.94 336.484 486.94 336.484L488.552 301.024C488.552 301.024 491.573 292.159 490.567 281.28C489.559 270.401 487.141 266.17 487.141 266.17L439.996 266.371" fill="white"/>
<path d="M443.623 284.705L451.278 292.159C451.278 292.159 454.301 321.173 457.323 338.298C460.345 355.423 468.203 399.546 468.203 403.173C468.203 406.8 469.815 416.067 469.815 416.067C469.815 416.067 469.211 416.269 469.009 417.679C468.807 419.09 468.807 424.529 468.807 424.529C468.807 424.529 473.844 426.946 478.276 427.35C482.709 427.753 489.559 427.149 489.559 427.149C489.559 427.149 490.364 422.514 490.364 420.903C490.364 419.291 489.76 412.24 490.163 409.419C490.567 406.598 493.387 392.293 492.581 376.578C491.776 360.863 486.94 336.484 486.94 336.484L488.552 301.024C488.552 301.024 491.573 292.159 490.567 281.28C489.559 270.401 487.141 266.17 487.141 266.17L439.996 266.371" stroke="#1A2E35" stroke-width="1.33333" stroke-miterlimit="10" stroke-linecap="round" stroke-linejoin="round"/>
<path d="M449.061 181.752C449.061 181.752 432.944 201.697 431.332 210.563C429.719 219.428 427.504 269.595 427.504 271.609C427.504 273.624 430.727 274.429 434.555 275.034C438.383 275.639 444.427 276.244 451.076 276.042C457.724 275.841 464.574 273.624 465.582 272.415C466.589 271.206 464.574 235.545 468 216.002C471.424 196.459 474.85 185.982 472.835 182.155C470.82 178.326 455.911 177.722 449.061 181.752Z" fill="#1A2E35"/>
<path d="M449.061 181.752C449.061 181.752 432.944 201.697 431.332 210.563C429.719 219.428 427.504 269.595 427.504 271.609C427.504 273.624 430.727 274.429 434.555 275.034C438.383 275.639 444.427 276.244 451.076 276.042C457.724 275.841 464.574 273.624 465.582 272.415C466.589 271.206 464.574 235.545 468 216.002C471.424 196.459 474.85 185.982 472.835 182.155C470.82 178.326 455.911 177.722 449.061 181.752Z" stroke="#1A2E35" stroke-width="1.33333" stroke-miterlimit="10" stroke-linecap="round" stroke-linejoin="round"/>
<path d="M465.385 180.745C465.385 180.745 453.297 201.899 451.08 216.808C448.865 231.718 450.476 281.482 450.476 281.482C450.476 281.482 450.476 283.497 459.744 283.295C469.012 283.094 481.503 280.676 484.927 278.863C488.353 277.049 492.182 275.639 492.383 274.631C492.584 273.625 490.57 269.998 490.57 266.976C490.57 263.954 489.159 251.462 489.159 251.462C489.159 251.462 488.756 196.46 485.733 188.602C482.712 180.745 470.825 178.528 465.385 180.745Z" fill="#39D192"/>
<path d="M465.385 180.745C465.385 180.745 453.297 201.899 451.08 216.808C448.865 231.718 450.476 281.482 450.476 281.482C450.476 281.482 450.476 283.497 459.744 283.295C469.012 283.094 481.503 280.676 484.927 278.863C488.353 277.049 492.182 275.639 492.383 274.631C492.584 273.625 490.57 269.998 490.57 266.976C490.57 263.954 489.159 251.462 489.159 251.462C489.159 251.462 488.756 196.46 485.733 188.602C482.712 180.745 470.825 178.528 465.385 180.745Z" stroke="#1A2E35" stroke-width="1.33333" stroke-miterlimit="10" stroke-linecap="round" stroke-linejoin="round"/>
<path d="M435.968 143.068C435.968 143.068 434.356 149.516 434.96 151.53C435.565 153.545 435.766 155.761 435.565 156.567C435.364 157.373 430.729 162.612 431.737 163.618C432.745 164.626 435.161 166.237 435.161 166.237C435.161 166.237 436.169 176.916 437.983 177.52C439.796 178.125 446.444 176.916 446.444 176.916C446.444 176.916 448.66 185.177 448.66 186.587C448.66 187.997 441.81 203.108 445.638 201.899C449.466 200.69 464.779 178.528 464.779 178.528C464.779 178.528 464.577 150.12 460.145 142.867C455.712 135.614 442.415 136.822 435.968 143.068Z" fill="white"/>
<path d="M435.968 143.068C435.968 143.068 434.356 149.516 434.96 151.53C435.565 153.545 435.766 155.761 435.565 156.567C435.364 157.373 430.729 162.612 431.737 163.618C432.745 164.626 435.161 166.237 435.161 166.237C435.161 166.237 436.169 176.916 437.983 177.52C439.796 178.125 446.444 176.916 446.444 176.916C446.444 176.916 448.66 185.177 448.66 186.587C448.66 187.997 441.81 203.108 445.638 201.899C449.466 200.69 464.779 178.528 464.779 178.528C464.779 178.528 464.577 150.12 460.145 142.867C455.712 135.614 442.415 136.822 435.968 143.068Z" stroke="#1A2E35" stroke-width="1.33333" stroke-miterlimit="10" stroke-linecap="round" stroke-linejoin="round"/>
<path d="M440.607 156.466C440.607 157.523 440.2 158.381 439.7 158.381C439.199 158.381 438.793 157.523 438.793 156.466C438.793 155.409 439.199 154.553 439.7 154.553C440.2 154.553 440.607 155.409 440.607 156.466Z" fill="#1A2E35"/>
<path d="M437.578 152.336C437.578 152.336 439.996 150.321 441.809 152.941" stroke="#1A2E35" stroke-width="1.33333" stroke-miterlimit="10" stroke-linecap="round" stroke-linejoin="round"/>
<path d="M437.988 167.85C437.988 167.85 441.413 167.648 443.831 165.834" stroke="#1A2E35" stroke-width="1.33333" stroke-miterlimit="10" stroke-linecap="round" stroke-linejoin="round"/>
<path d="M443.224 128.361C443.224 128.361 433.352 132.189 432.344 135.816C431.338 139.442 430.531 143.674 430.531 143.674L439.396 145.487L447.052 146.091C447.052 146.091 446.85 147.904 449.067 152.135C451.282 156.366 452.29 158.985 452.29 158.985C452.29 158.985 451.686 170.872 451.081 174.298C450.477 177.723 449.067 181.752 449.067 181.752C449.067 181.752 454.104 182.76 463.371 183.767C472.639 184.774 484.124 182.558 484.124 182.558C484.124 182.558 486.542 178.528 486.339 170.469C486.138 162.411 482.31 150.926 481.907 146.292C481.505 141.659 482.713 138.435 475.46 132.793C468.207 127.152 455.312 125.137 443.224 128.361Z" fill="#1A2E35"/>
<path d="M443.224 128.361C443.224 128.361 433.352 132.189 432.344 135.816C431.338 139.442 430.531 143.674 430.531 143.674L439.396 145.487L447.052 146.091C447.052 146.091 446.85 147.904 449.067 152.135C451.282 156.366 452.29 158.985 452.29 158.985C452.29 158.985 451.686 170.872 451.081 174.298C450.477 177.723 449.067 181.752 449.067 181.752C449.067 181.752 454.104 182.76 463.371 183.767C472.639 184.774 484.124 182.558 484.124 182.558C484.124 182.558 486.542 178.528 486.339 170.469C486.138 162.411 482.31 150.926 481.907 146.292C481.505 141.659 482.713 138.435 475.46 132.793C468.207 127.152 455.312 125.137 443.224 128.361Z" stroke="#1A2E35" stroke-width="1.33333" stroke-miterlimit="10" stroke-linecap="round" stroke-linejoin="round"/>
<path d="M425.374 247.968C424.599 247.968 424.016 247.884 423.856 247.859L424.308 244.991C425.265 245.135 427.465 245.132 428.131 244.182C429.042 242.881 428.33 235.689 427.406 234.469C427.058 234.064 425.4 234.065 424.21 234.34L423.547 231.513C424.264 231.345 427.919 230.605 429.617 232.586C431.198 234.431 432.33 243.247 430.51 245.848C429.258 247.636 426.929 247.968 425.374 247.968Z" fill="white"/>
<path d="M425.374 247.968C424.599 247.968 424.016 247.884 423.856 247.859L424.308 244.991C425.265 245.135 427.465 245.132 428.131 244.182C429.042 242.881 428.33 235.689 427.406 234.469C427.058 234.064 425.4 234.065 424.21 234.34L423.547 231.513C424.264 231.345 427.919 230.605 429.617 232.586C431.198 234.431 432.33 243.247 430.51 245.848C429.258 247.636 426.929 247.968 425.374 247.968Z" stroke="#1A2E35" stroke-width="1.33333" stroke-miterlimit="10" stroke-linecap="round" stroke-linejoin="round"/>
<path d="M425.491 251.462H408.164V228.897H425.491V251.462Z" fill="white" stroke="#1A2E35" stroke-width="1.33333" stroke-miterlimit="10" stroke-linecap="round" stroke-linejoin="round"/>
<path d="M470.821 193.437C470.821 193.437 467.396 201.093 467.195 204.921C466.993 208.749 471.425 234.74 471.425 234.74C471.425 234.74 456.92 238.367 452.891 238.367C448.861 238.367 446.241 237.963 446.241 237.963C446.241 237.963 440.802 234.336 439.189 233.329C437.577 232.322 436.369 232.926 433.548 230.71C430.728 228.494 428.512 228.292 428.31 229.501C428.108 230.71 428.108 231.516 430.124 232.523C432.138 233.531 433.749 234.941 433.749 234.941C433.749 234.941 428.915 235.948 427.504 236.15C426.094 236.351 425.69 238.367 426.497 239.373C427.303 240.381 428.713 241.791 428.713 241.791C428.713 241.791 428.512 246.627 431.131 247.633C433.749 248.641 441.003 248.44 441.003 248.44C441.003 248.44 448.659 249.044 449.868 249.044C451.077 249.044 466.389 252.872 477.269 252.872C488.148 252.872 491.371 253.477 491.976 251.059C492.58 248.641 491.573 212.98 489.558 202.101C487.543 191.22 482.91 185.177 479.686 184.773" fill="#39D192"/>
<path d="M470.821 193.437C470.821 193.437 467.396 201.093 467.195 204.921C466.993 208.749 471.425 234.74 471.425 234.74C471.425 234.74 456.92 238.367 452.891 238.367C448.861 238.367 446.241 237.963 446.241 237.963C446.241 237.963 440.802 234.336 439.189 233.329C437.577 232.322 436.369 232.926 433.548 230.71C430.728 228.494 428.512 228.292 428.31 229.501C428.108 230.71 428.108 231.516 430.124 232.523C432.138 233.531 433.749 234.941 433.749 234.941C433.749 234.941 428.915 235.948 427.504 236.15C426.094 236.351 425.69 238.367 426.497 239.373C427.303 240.381 428.713 241.791 428.713 241.791C428.713 241.791 428.512 246.627 431.131 247.633C433.749 248.641 441.003 248.44 441.003 248.44C441.003 248.44 448.659 249.044 449.868 249.044C451.077 249.044 466.389 252.872 477.269 252.872C488.148 252.872 491.371 253.477 491.976 251.059C492.58 248.641 491.573 212.98 489.558 202.101C487.543 191.22 482.91 185.177 479.686 184.773" stroke="#1A2E35" stroke-width="1.33333" stroke-miterlimit="10" stroke-linecap="round" stroke-linejoin="round"/>
<path d="M459.591 237.405C456.804 237.952 454.249 238.365 452.89 238.365C448.86 238.365 446.241 237.963 446.241 237.963C446.241 237.963 440.802 234.337 439.189 233.329C437.577 232.322 436.369 232.927 433.548 230.71C430.728 228.494 428.511 228.292 428.31 229.501C428.108 230.71 428.108 231.516 430.124 232.523C432.138 233.531 433.749 234.941 433.749 234.941C433.749 234.941 428.915 235.948 427.504 236.15C426.094 236.351 425.69 238.365 426.497 239.373C427.303 240.381 428.713 241.791 428.713 241.791C428.713 241.791 428.511 246.627 431.13 247.633C433.749 248.641 441.003 248.439 441.003 248.439C441.003 248.439 448.658 249.043 449.867 249.043C450.504 249.043 455.058 250.107 460.816 251.113C458.74 246.229 459.011 240.936 459.591 237.405Z" fill="white"/>
<path d="M459.591 237.405C456.804 237.952 454.249 238.365 452.89 238.365C448.86 238.365 446.241 237.963 446.241 237.963C446.241 237.963 440.802 234.337 439.189 233.329C437.577 232.322 436.369 232.927 433.548 230.71C430.728 228.494 428.511 228.292 428.31 229.501C428.108 230.71 428.108 231.516 430.124 232.523C432.138 233.531 433.749 234.941 433.749 234.941C433.749 234.941 428.915 235.948 427.504 236.15C426.094 236.351 425.69 238.365 426.497 239.373C427.303 240.381 428.713 241.791 428.713 241.791C428.713 241.791 428.511 246.627 431.13 247.633C433.749 248.641 441.003 248.439 441.003 248.439C441.003 248.439 448.658 249.043 449.867 249.043C450.504 249.043 455.058 250.107 460.816 251.113C458.74 246.229 459.011 240.936 459.591 237.405Z" stroke="#1A2E35" stroke-width="1.33333" stroke-miterlimit="10" stroke-linecap="round" stroke-linejoin="round"/>
<path d="M229.3 426.794C229.3 426.794 228.336 432.968 225.442 439.142C222.548 445.315 222.355 447.63 228.914 448.594C235.473 449.56 238.753 448.016 240.104 444.543C241.454 441.071 242.033 432.775 242.419 430.846C242.804 428.916 237.596 422.936 229.3 426.794Z" fill="white"/>
<path d="M229.3 426.794C229.3 426.794 228.336 432.968 225.442 439.142C222.548 445.315 222.355 447.63 228.914 448.594C235.473 449.56 238.753 448.016 240.104 444.543C241.454 441.071 242.033 432.775 242.419 430.846C242.804 428.916 237.596 422.936 229.3 426.794Z" stroke="#1A2E35" stroke-width="1.33333" stroke-miterlimit="10" stroke-linecap="round" stroke-linejoin="round"/>
<path d="M240.105 441.649C238.755 444.157 237.018 447.244 230.073 446.665C226.127 446.336 224.488 444.638 223.806 443.233C222.917 446.428 224.072 447.882 228.916 448.594C235.475 449.559 238.755 448.015 240.105 444.542C240.584 443.312 240.963 441.473 241.274 439.53C240.921 440.157 240.525 440.868 240.105 441.649Z" fill="white"/>
<path d="M240.105 441.649C238.755 444.157 237.018 447.244 230.073 446.665C226.127 446.336 224.488 444.638 223.806 443.233C222.917 446.428 224.072 447.882 228.916 448.594C235.475 449.559 238.755 448.015 240.105 444.542C240.584 443.312 240.963 441.473 241.274 439.53C240.921 440.157 240.525 440.868 240.105 441.649Z" stroke="#1A2E35" stroke-width="1.33333" stroke-miterlimit="10" stroke-linecap="round" stroke-linejoin="round"/>
<path d="M283.892 425.058C283.892 425.058 287.943 428.916 294.116 431.617C300.289 434.318 304.727 435.862 304.727 437.213C304.727 438.562 303.376 441.071 303.376 441.071C303.376 441.071 296.817 442.999 290.258 442.999C283.698 442.999 278.297 442.42 273.474 442.228C268.651 442.035 263.056 442.614 262.67 439.142C262.285 435.669 263.056 429.109 263.056 429.109C263.056 429.109 280.034 423.901 283.892 425.058Z" fill="white"/>
<path d="M283.892 425.058C283.892 425.058 287.943 428.916 294.116 431.617C300.289 434.318 304.727 435.862 304.727 437.213C304.727 438.562 303.376 441.071 303.376 441.071C303.376 441.071 296.817 442.999 290.258 442.999C283.698 442.999 278.297 442.42 273.474 442.228C268.651 442.035 263.056 442.614 262.67 439.142C262.285 435.669 263.056 429.109 263.056 429.109C263.056 429.109 280.034 423.901 283.892 425.058V425.058Z" stroke="#1A2E35" stroke-width="1.33333" stroke-miterlimit="10" stroke-linecap="round" stroke-linejoin="round"/>
<path d="M303.376 441.07C303.376 441.07 303.714 440.444 304.051 439.647C301.446 440.106 297.974 440.588 294.502 440.685C287.557 440.877 285.049 439.913 277.139 438.948C271.187 438.223 265.238 438.699 262.656 438.978C262.661 439.032 262.664 439.09 262.67 439.142C263.056 442.614 268.651 442.035 273.474 442.228C278.297 442.421 283.698 442.999 290.257 442.999C296.817 442.999 303.376 441.07 303.376 441.07Z" fill="white"/>
<path d="M303.376 441.07C303.376 441.07 303.714 440.444 304.051 439.647C301.446 440.106 297.974 440.588 294.502 440.685C287.557 440.877 285.049 439.913 277.139 438.948C271.187 438.223 265.238 438.699 262.656 438.978C262.661 439.032 262.664 439.09 262.67 439.142C263.056 442.614 268.651 442.035 273.474 442.228C278.297 442.421 283.698 442.999 290.257 442.999C296.817 442.999 303.376 441.07 303.376 441.07Z" stroke="#1A2E35" stroke-width="1.33333" stroke-miterlimit="10" stroke-linecap="round" stroke-linejoin="round"/>
<path d="M285.059 273.778C285.059 273.778 286.051 302.957 284.265 328.765C282.478 354.57 280.097 392.486 281.089 397.846C282.081 403.205 282.876 420.476 282.876 420.476L284.662 422.658L285.654 426.232C285.654 426.232 284.662 427.224 278.508 429.011C272.354 430.798 263.421 431.194 263.421 431.194C263.421 431.194 263.025 425.239 263.025 423.651C263.025 422.063 263.421 418.491 263.421 418.491C263.421 418.491 260.047 376.604 260.643 368.069C261.238 359.534 260.047 325.39 260.047 325.39L259.054 313.082C259.054 313.082 251.114 345.042 250.718 349.013C250.32 352.982 244.762 393.478 244.762 395.86C244.762 398.243 242.38 420.873 242.38 420.873C242.38 420.873 243.769 423.056 243.967 425.239C244.166 427.422 242.578 432.98 242.578 432.98C242.578 432.98 239.601 430.996 236.822 430.798C234.042 430.599 228.683 430.201 228.683 430.201C228.683 430.201 227.095 418.689 227.095 416.307V403.999C227.095 403.999 226.3 375.612 227.69 364.695C229.08 353.776 228.286 320.029 227.491 305.738C226.698 291.445 224.713 278.74 226.102 275.564C227.491 272.388 228.286 268.418 228.286 268.418C228.286 268.418 242.578 271.594 259.054 272.587C275.531 273.579 283.868 270.602 283.868 270.602L285.059 273.778Z" fill="#1A2E35"/>
<path d="M285.059 273.778C285.059 273.778 286.051 302.957 284.265 328.765C282.478 354.57 280.097 392.486 281.089 397.846C282.081 403.205 282.876 420.476 282.876 420.476L284.662 422.658L285.654 426.232C285.654 426.232 284.662 427.224 278.508 429.011C272.354 430.798 263.421 431.194 263.421 431.194C263.421 431.194 263.025 425.239 263.025 423.651C263.025 422.063 263.421 418.491 263.421 418.491C263.421 418.491 260.047 376.604 260.643 368.069C261.238 359.534 260.047 325.39 260.047 325.39L259.054 313.082C259.054 313.082 251.114 345.042 250.718 349.013C250.32 352.982 244.762 393.478 244.762 395.86C244.762 398.243 242.38 420.873 242.38 420.873C242.38 420.873 243.769 423.056 243.967 425.239C244.166 427.422 242.578 432.98 242.578 432.98C242.578 432.98 239.601 430.996 236.822 430.798C234.042 430.599 228.683 430.201 228.683 430.201C228.683 430.201 227.095 418.689 227.095 416.307V403.999C227.095 403.999 226.3 375.612 227.69 364.695C229.08 353.776 228.286 320.029 227.491 305.738C226.698 291.445 224.713 278.74 226.102 275.564C227.491 272.388 228.286 268.418 228.286 268.418C228.286 268.418 242.578 271.594 259.054 272.587C275.531 273.579 283.868 270.602 283.868 270.602L285.059 273.778Z" stroke="#1A2E35" stroke-width="1.33333" stroke-miterlimit="10" stroke-linecap="round" stroke-linejoin="round"/>
<path d="M259.055 313.082L263.442 300.239" stroke="white" stroke-width="1.33333" stroke-miterlimit="10" stroke-linecap="round" stroke-linejoin="round"/>
<path d="M258.701 279.073C258.701 279.073 262.251 279.446 269.912 278.326C277.573 277.204 280.749 275.522 280.749 275.522C280.749 275.522 275.704 178.172 275.704 177.238C275.704 176.303 275.704 171.912 270.472 170.978C265.241 170.044 258.327 172.286 256.832 178.079C255.337 183.871 258.701 279.073 258.701 279.073Z" fill="white"/>
<path d="M258.701 279.073C258.701 279.073 262.251 279.446 269.912 278.326C277.573 277.204 280.749 275.522 280.749 275.522C280.749 275.522 275.704 178.172 275.704 177.238C275.704 176.303 275.704 171.912 270.472 170.978C265.241 170.044 258.327 172.286 256.832 178.079C255.337 183.871 258.701 279.073 258.701 279.073Z" stroke="#1A2E35" stroke-width="1.33333" stroke-miterlimit="10" stroke-linecap="round" stroke-linejoin="round"/>
<path d="M280.562 284.117C280.562 284.117 280.001 289.909 280.562 290.283C281.122 290.657 286.541 288.602 290.092 287.107C293.641 285.612 292.463 286.202 293.613 282.824C294.762 279.446 294.389 279.446 290.839 280.38C287.289 281.314 280.562 284.117 280.562 284.117Z" fill="white"/>
<path d="M280.562 284.117C280.562 284.117 280.001 289.909 280.562 290.283C281.122 290.657 286.541 288.602 290.092 287.107C293.641 285.612 292.463 286.202 293.613 282.824C294.762 279.446 294.389 279.446 290.839 280.38C287.289 281.314 280.562 284.117 280.562 284.117Z" stroke="#1A2E35" stroke-width="1.33333" stroke-miterlimit="10" stroke-linecap="round" stroke-linejoin="round"/>
<path d="M273.152 188.873L277.331 245.214L279.492 285.85C279.492 285.85 280.213 287.147 281.366 286.859C282.519 286.57 292.461 284.265 293.614 282.824C294.767 281.383 295.2 277.637 295.2 277.06C295.2 276.483 292.173 241.036 292.173 241.036L299.954 230.66C299.954 230.66 294.046 198.239 292.605 191.755C291.164 185.27 291.166 181.816 288.861 178.934C286.555 176.052 273.297 169.564 273.297 169.564L273.152 188.873Z" fill="#39D192"/>
<path d="M273.152 188.873L277.331 245.214L279.492 285.85C279.492 285.85 280.213 287.147 281.366 286.859C282.519 286.57 292.461 284.265 293.614 282.824C294.767 281.383 295.2 277.637 295.2 277.06C295.2 276.483 292.173 241.036 292.173 241.036L299.954 230.66C299.954 230.66 294.046 198.239 292.605 191.755C291.164 185.27 291.166 181.816 288.861 178.934C286.555 176.052 273.297 169.564 273.297 169.564L273.152 188.873Z" stroke="#1A2E35" stroke-width="1.33333" stroke-miterlimit="10" stroke-linecap="round" stroke-linejoin="round"/>
<path d="M271.566 166.105C271.566 166.105 276.898 171.725 276.754 174.607C276.609 177.489 273.152 188.873 273.152 188.873L270.99 172.158C270.99 172.158 269.837 167.979 271.566 166.105Z" fill="white"/>
<path d="M271.566 166.105C271.566 166.105 276.898 171.725 276.754 174.607C276.609 177.489 273.152 188.873 273.152 188.873L270.99 172.158C270.99 172.158 269.837 167.979 271.566 166.105V166.105Z" stroke="#1A2E35" stroke-width="1.33333" stroke-miterlimit="10" stroke-linecap="round" stroke-linejoin="round"/>
<path d="M254.006 154.105L253.555 165.89C253.555 165.89 257.446 175.544 259.895 178.426C262.344 181.307 266.811 186.207 266.811 186.207L271.711 175.976L271.855 170.356L274.016 165.025C274.016 165.025 269.261 164.16 264.65 160.558C260.039 156.956 255.283 152.633 254.852 152.489C254.419 152.345 254.006 154.105 254.006 154.105Z" fill="white"/>
<path d="M254.006 154.105L253.555 165.89C253.555 165.89 257.446 175.544 259.895 178.426C262.344 181.307 266.811 186.207 266.811 186.207L271.711 175.976L271.855 170.356L274.016 165.025C274.016 165.025 269.261 164.16 264.65 160.558C260.039 156.956 255.283 152.633 254.852 152.489C254.419 152.345 254.006 154.105 254.006 154.105Z" stroke="#1A2E35" stroke-width="1.33333" stroke-miterlimit="10" stroke-linecap="round" stroke-linejoin="round"/>
<path d="M256.902 158.277C256.902 158.277 258.152 162.856 266.061 168.268C268.314 169.81 270.229 170.718 271.83 171.248L271.854 170.356L274.015 165.025C274.015 165.025 269.261 164.16 264.649 160.558C263.479 159.644 262.302 158.685 261.187 157.758L259.678 157.305L256.902 158.277Z" fill="#1A2E35"/>
<path d="M256.902 158.277C256.902 158.277 258.152 162.856 266.061 168.268C268.314 169.81 270.229 170.718 271.83 171.248L271.854 170.356L274.015 165.025C274.015 165.025 269.261 164.16 264.649 160.558C263.479 159.644 262.302 158.685 261.187 157.758L259.678 157.305L256.902 158.277Z" stroke="#1A2E35" stroke-width="1.33333" stroke-miterlimit="10" stroke-linecap="round" stroke-linejoin="round"/>
<path d="M285.95 128.899C285.95 128.899 285.432 140.985 285.087 145.128C284.741 149.271 284.569 152.897 282.67 156.695C280.771 160.493 278.7 166.363 275.419 166.881C272.139 167.399 267.304 167.053 263.334 164.637C259.364 162.22 254.184 155.486 254.011 154.106C253.839 152.724 253.493 151.861 253.493 151.861C253.493 151.861 251.422 139.43 251.422 133.906C251.422 128.381 251.94 123.72 260.744 120.612C269.549 117.505 285.95 128.899 285.95 128.899Z" fill="white"/>
<path d="M285.95 128.899C285.95 128.899 285.432 140.985 285.087 145.128C284.741 149.271 284.569 152.897 282.67 156.695C280.771 160.493 278.7 166.363 275.419 166.881C272.139 167.399 267.304 167.053 263.334 164.637C259.364 162.22 254.184 155.486 254.011 154.106C253.839 152.724 253.493 151.861 253.493 151.861C253.493 151.861 251.422 139.43 251.422 133.906C251.422 128.381 251.94 123.72 260.744 120.612C269.549 117.505 285.95 128.899 285.95 128.899Z" stroke="#1A2E35" stroke-width="1.33333" stroke-miterlimit="10" stroke-linecap="round" stroke-linejoin="round"/>
<path d="M257.12 128.899C257.12 128.899 262.471 130.281 259.709 132.697C256.948 135.114 254.357 137.877 254.357 137.877C254.357 137.877 255.221 141.329 254.875 142.711C254.531 144.092 252.804 145.128 251.595 143.746C250.387 142.366 249.351 141.329 249.351 141.329C249.351 141.329 246.07 130.972 245.38 128.036C244.69 125.101 243.999 121.994 248.315 119.059C252.631 116.124 253.494 115.778 253.494 115.778C253.494 115.778 260.746 110.944 270.759 111.808C280.772 112.671 285.261 118.368 285.261 118.368C285.261 118.368 293.202 116.296 292.685 121.994C292.166 127.69 286.469 131.489 283.362 131.144C280.254 130.798 263.854 122.511 260.572 123.893C257.292 125.274 254.875 128.381 257.12 128.899Z" fill="#1A2E35"/>
<path d="M257.12 128.899C257.12 128.899 262.471 130.281 259.709 132.697C256.948 135.114 254.357 137.877 254.357 137.877C254.357 137.877 255.221 141.329 254.875 142.711C254.531 144.092 252.804 145.128 251.595 143.746C250.387 142.366 249.351 141.329 249.351 141.329C249.351 141.329 246.07 130.972 245.38 128.036C244.69 125.101 243.999 121.994 248.315 119.059C252.631 116.124 253.494 115.778 253.494 115.778C253.494 115.778 260.746 110.944 270.759 111.808C280.772 112.671 285.261 118.368 285.261 118.368C285.261 118.368 293.202 116.296 292.685 121.994C292.166 127.69 286.469 131.489 283.362 131.144C280.254 130.798 263.854 122.511 260.572 123.893C257.292 125.274 254.875 128.381 257.12 128.899Z" stroke="#1A2E35" stroke-width="1.33333" stroke-miterlimit="10" stroke-linecap="round" stroke-linejoin="round"/>
<path d="M276.969 141.675C276.969 141.675 279.386 149.443 278.696 150.134C278.005 150.824 275.242 151.342 275.242 151.342" stroke="#1A2E35" stroke-width="1.33333" stroke-miterlimit="10" stroke-linecap="round" stroke-linejoin="round"/>
<path d="M278.519 154.624C278.519 154.624 272.994 156.177 268.852 153.588" stroke="#1A2E35" stroke-width="1.33333" stroke-miterlimit="10" stroke-linecap="round" stroke-linejoin="round"/>
<path d="M274.755 136.841C274.755 136.841 267.475 136.151 263.677 136.151C259.879 136.151 258.498 135.806 258.325 136.841C258.152 137.877 257.807 143.402 260.741 145.301C263.677 147.2 269.029 146.337 271.273 145.819C273.518 145.301 274.208 141.503 274.38 140.294C274.554 139.085 274.755 136.841 274.755 136.841Z" stroke="#1A2E35" stroke-width="1.33333" stroke-miterlimit="10" stroke-linecap="round" stroke-linejoin="round"/>
<path d="M276.891 136.859C276.891 136.859 282.671 136.491 285.686 136.647C288.702 136.802 289.798 136.526 289.935 137.531C290.073 138.536 290.347 143.87 288.017 145.578C285.686 147.287 281.437 146.236 279.655 145.647C277.873 145.055 277.325 141.371 277.188 140.199C277.051 139.028 276.891 136.859 276.891 136.859Z" stroke="#1A2E35" stroke-width="1.33333" stroke-miterlimit="10" stroke-linecap="round" stroke-linejoin="round"/>
<path d="M258.325 136.841L249.348 141.329" stroke="#1A2E35" stroke-width="1.33333" stroke-miterlimit="10" stroke-linecap="round" stroke-linejoin="round"/>
<path d="M274.758 136.841H277.079" stroke="#1A2E35" stroke-width="1.33333" stroke-miterlimit="10" stroke-linecap="round" stroke-linejoin="round"/>
<path d="M254.348 145.646C254.348 145.646 250.378 140.639 247.615 141.33C244.853 142.02 247.27 149.272 249.514 150.48C251.759 151.689 254.176 150.134 254.176 150.134" fill="white"/>
<path d="M254.348 145.646C254.348 145.646 250.378 140.639 247.615 141.33C244.853 142.02 247.27 149.272 249.514 150.48C251.759 151.689 254.176 150.134 254.176 150.134" stroke="#1A2E35" stroke-width="1.33333" stroke-miterlimit="10" stroke-linecap="round" stroke-linejoin="round"/>
<path d="M268.252 141.465C268.252 142.46 267.833 143.266 267.316 143.266C266.798 143.266 266.379 142.46 266.379 141.465C266.379 140.47 266.798 139.664 267.316 139.664C267.833 139.664 268.252 140.47 268.252 141.465Z" fill="#1A2E35"/>
<path d="M282.088 141.465C282.088 142.46 281.669 143.266 281.151 143.266C280.634 143.266 280.215 142.46 280.215 141.465C280.215 140.47 280.634 139.664 281.151 139.664C281.669 139.664 282.088 140.47 282.088 141.465Z" fill="#1A2E35"/>
<path d="M263.211 135.052C263.211 135.052 267.109 133.822 272.002 135.341" stroke="#1A2E35" stroke-width="1.33333" stroke-miterlimit="10" stroke-linecap="round" stroke-linejoin="round"/>
<path d="M279.062 135.485C279.062 135.485 281.08 134.332 284.394 134.908" stroke="#1A2E35" stroke-width="1.33333" stroke-miterlimit="10" stroke-linecap="round" stroke-linejoin="round"/>
<path d="M263.353 288.227L263.558 291.779C263.558 291.779 255.338 293.46 243.939 290.844C232.541 288.228 222.264 281.128 221.143 279.633C220.022 278.138 222.077 271.786 222.077 271.786C222.077 271.786 220.583 271.412 223.199 272.346C225.814 273.28 236.092 282.249 250.105 284.678C264.12 287.108 263.52 286.173 263.353 288.227Z" fill="white"/>
<path d="M263.353 288.227L263.558 291.779C263.558 291.779 255.338 293.46 243.939 290.844C232.541 288.228 222.264 281.128 221.143 279.633C220.022 278.138 222.077 271.786 222.077 271.786C222.077 271.786 220.583 271.412 223.199 272.346C225.814 273.28 236.092 282.249 250.105 284.678C264.12 287.108 263.52 286.173 263.353 288.227Z" stroke="#1A2E35" stroke-width="1.33333" stroke-miterlimit="10" stroke-linecap="round" stroke-linejoin="round"/>
<path d="M252.692 162.287C252.692 162.287 259.753 172.086 263.067 176.552C266.381 181.02 265.517 186.496 265.084 187.937C264.652 189.377 264.076 191.827 264.076 191.827V282.896C264.076 282.896 265.373 287.796 263.356 288.227C261.339 288.66 246.64 287.94 235.833 282.32C225.025 276.7 221.278 272.81 221.278 272.81L224.017 250.619L225.169 238.226L207.305 238.318C207.305 238.318 217.821 187.793 218.974 185.054C220.126 182.316 248.514 167.907 248.514 167.907C248.514 167.907 248.945 163.224 252.692 162.287Z" fill="#39D192"/>
<path d="M252.692 162.287C252.692 162.287 259.753 172.086 263.067 176.552C266.381 181.02 265.517 186.496 265.084 187.937C264.652 189.377 264.076 191.827 264.076 191.827V282.896C264.076 282.896 265.373 287.796 263.356 288.227C261.339 288.66 246.64 287.94 235.833 282.32C225.025 276.7 221.278 272.81 221.278 272.81L224.017 250.619L225.169 238.226L207.305 238.318C207.305 238.318 217.821 187.793 218.974 185.054C220.126 182.316 248.514 167.907 248.514 167.907C248.514 167.907 248.945 163.224 252.692 162.287V162.287Z" stroke="#1A2E35" stroke-width="1.33333" stroke-miterlimit="10" stroke-linecap="round" stroke-linejoin="round"/>
<path d="M288.444 203.16L288.207 200.752" stroke="#1A2E35" stroke-width="1.33333" stroke-miterlimit="10" stroke-linecap="round" stroke-linejoin="round"/>
<path d="M292.175 241.036L288.797 206.73" stroke="#1A2E35" stroke-width="1.33333" stroke-miterlimit="10" stroke-linecap="round" stroke-linejoin="round"/>
<path d="M225.168 238.226L228.529 206.045L225.168 238.226Z" fill="white"/>
<path d="M225.168 238.226L228.529 206.045" stroke="#1A2E35" stroke-width="1.33333" stroke-miterlimit="10" stroke-linecap="round" stroke-linejoin="round"/>
<path d="M220.328 231.557C220.328 231.557 217.117 230.787 212.75 231.557C208.383 232.328 206.328 240.42 206.071 243.246C205.814 246.071 207.612 250.952 210.951 252.365C214.291 253.778 215.96 253.649 219.428 251.594C222.896 249.539 222.511 240.034 222.382 236.823C222.255 233.612 220.328 231.557 220.328 231.557Z" fill="white"/>
<path d="M220.328 231.557C220.328 231.557 217.117 230.787 212.75 231.557C208.383 232.328 206.328 240.42 206.071 243.246C205.814 246.071 207.612 250.952 210.951 252.365C214.291 253.778 215.96 253.649 219.428 251.594C222.896 249.539 222.511 240.034 222.382 236.823C222.255 233.612 220.328 231.557 220.328 231.557Z" stroke="#1A2E35" stroke-width="1.33333" stroke-miterlimit="10" stroke-linecap="round" stroke-linejoin="round"/>
<path d="M228.856 222.261C228.856 222.261 230.14 213.655 230.268 210.83C230.397 208.005 230.011 204.537 230.525 203.381C231.038 202.224 232.837 203.252 233.479 204.023C234.121 204.793 234.635 208.775 234.506 210.316C234.379 211.857 234.506 213.142 234.506 213.142C234.506 213.142 244.397 205.821 245.552 204.279C246.708 202.738 249.02 201.582 249.791 202.609C250.561 203.637 249.663 204.537 248.763 205.436C247.865 206.334 243.241 211.6 242.469 212.242C241.7 212.885 241.443 213.913 241.443 213.913C241.443 213.913 242.213 214.04 243.369 213.655C244.524 213.27 252.488 209.289 253.259 209.289C254.029 209.289 254.671 210.316 254.415 211.087C254.158 211.857 244.397 217.765 244.011 217.894C243.626 218.022 243.241 218.922 243.883 219.05C244.524 219.178 252.488 217.894 253.515 218.408C254.543 218.922 254.286 220.077 253.773 220.463C253.259 220.848 243.755 222.517 243.755 222.517C243.755 222.517 246.837 223.16 248.121 223.417C249.406 223.673 251.589 223.673 251.589 224.445C251.589 225.215 251.075 225.6 250.176 225.6H243.497C242.084 225.6 239.259 226.756 236.947 227.784C234.635 228.811 233.608 229.197 233.608 229.197C233.608 229.197 227.314 240.628 225.002 244.738C222.69 248.848 219.223 250.389 215.884 250.645C212.543 250.903 209.075 244.866 209.718 241.912C210.361 238.958 215.755 232.408 220.507 229.967C225.259 227.526 226.672 225.086 228.856 222.261Z" fill="white"/>
<path d="M228.856 222.261C228.856 222.261 230.14 213.655 230.268 210.83C230.397 208.005 230.011 204.537 230.525 203.381C231.038 202.224 232.837 203.252 233.479 204.023C234.121 204.793 234.635 208.775 234.506 210.316C234.379 211.857 234.506 213.142 234.506 213.142C234.506 213.142 244.397 205.821 245.552 204.279C246.708 202.738 249.02 201.582 249.791 202.609C250.561 203.637 249.663 204.537 248.763 205.436C247.865 206.334 243.241 211.6 242.469 212.242C241.7 212.885 241.443 213.913 241.443 213.913C241.443 213.913 242.213 214.04 243.369 213.655C244.524 213.27 252.488 209.289 253.259 209.289C254.029 209.289 254.671 210.316 254.415 211.087C254.158 211.857 244.397 217.765 244.011 217.894C243.626 218.022 243.241 218.922 243.883 219.05C244.524 219.178 252.488 217.894 253.515 218.408C254.543 218.922 254.286 220.077 253.773 220.463C253.259 220.848 243.755 222.517 243.755 222.517C243.755 222.517 246.837 223.16 248.121 223.417C249.406 223.673 251.589 223.673 251.589 224.445C251.589 225.215 251.075 225.6 250.176 225.6H243.497C242.084 225.6 239.259 226.756 236.947 227.784C234.635 228.811 233.608 229.197 233.608 229.197C233.608 229.197 227.314 240.628 225.002 244.738C222.69 248.848 219.223 250.389 215.884 250.645C212.543 250.903 209.075 244.866 209.718 241.912C210.361 238.958 215.755 232.408 220.507 229.967C225.259 227.526 226.672 225.086 228.856 222.261Z" stroke="#1A2E35" stroke-width="1.33333" stroke-miterlimit="10" stroke-linecap="round" stroke-linejoin="round"/>
<path d="M305.422 233.047C305.422 233.047 301.749 228.272 299.178 228.088C296.607 227.905 292.016 236.169 292.016 239.658C292.016 243.148 292.2 249.759 293.669 250.678C295.138 251.595 297.893 249.942 299.545 247.739C301.198 245.535 305.422 233.047 305.422 233.047Z" fill="white"/>
<path d="M305.422 233.047C305.422 233.047 301.749 228.272 299.178 228.088C296.607 227.905 292.016 236.169 292.016 239.658C292.016 243.148 292.2 249.759 293.669 250.678C295.138 251.595 297.893 249.942 299.545 247.739C301.198 245.535 305.422 233.047 305.422 233.047Z" stroke="#1A2E35" stroke-width="1.33333" stroke-miterlimit="10" stroke-linecap="round" stroke-linejoin="round"/>
<path d="M347.522 210.394C347.522 210.394 347.735 206.467 346.992 206.679C346.248 206.891 345.718 207.422 345.929 209.227C346.142 211.031 345.293 214.959 345.293 214.959L347.522 210.394Z" fill="white"/>
<path d="M347.522 210.394C347.522 210.394 347.735 206.467 346.992 206.679C346.248 206.891 345.718 207.422 345.929 209.227C346.142 211.031 345.293 214.959 345.293 214.959L347.522 210.394Z" stroke="#1A2E35" stroke-width="1.33333" stroke-miterlimit="10" stroke-linecap="round" stroke-linejoin="round"/>
<path d="M301.662 231.732C301.662 231.732 295.824 242.347 296.037 245.213C296.249 248.079 298.69 249.034 303.148 247.761C307.607 246.487 338.71 229.503 340.196 228.122C341.682 226.742 346.778 216.127 348.477 214.216C350.175 212.306 349.962 207.529 349.962 206.679C349.962 205.83 348.477 206.149 348.477 207.21C348.477 208.271 344.866 215.172 344.336 215.384C343.805 215.596 339.029 217.932 339.029 217.932C339.029 217.932 341.47 213.154 342.319 211.562C343.169 209.97 343.912 208.166 342.108 208.803C340.302 209.44 337.436 214.323 336.375 216.976C335.313 219.63 333.509 223.134 333.826 224.831L334.146 226.53C334.146 226.53 323.424 228.971 317.054 229.291C310.685 229.609 301.981 230.67 301.662 231.732Z" fill="white"/>
<path d="M301.662 231.732C301.662 231.732 295.824 242.347 296.037 245.213C296.249 248.079 298.69 249.034 303.148 247.761C307.607 246.487 338.71 229.503 340.196 228.122C341.682 226.742 346.778 216.127 348.477 214.216C350.175 212.306 349.962 207.529 349.962 206.679C349.962 205.83 348.477 206.149 348.477 207.21C348.477 208.271 344.866 215.172 344.336 215.384C343.805 215.596 339.029 217.932 339.029 217.932C339.029 217.932 341.47 213.154 342.319 211.562C343.169 209.97 343.912 208.166 342.108 208.803C340.302 209.44 337.436 214.323 336.375 216.976C335.313 219.63 333.509 223.134 333.826 224.831L334.146 226.53C334.146 226.53 323.424 228.971 317.054 229.291C310.685 229.609 301.981 230.67 301.662 231.732Z" stroke="#1A2E35" stroke-width="1.33333" stroke-miterlimit="10" stroke-linecap="round" stroke-linejoin="round"/>
<path d="M344.66 220.479C344.66 220.479 350.286 214.004 351.029 212.836C351.772 211.668 352.728 209.864 352.515 208.484C352.303 207.104 351.347 208.802 350.605 209.97C349.862 211.138 348.376 212.199 347.526 214.11C346.677 216.021 344.66 216.551 344.66 216.551V220.479Z" fill="white"/>
<path d="M344.66 220.479C344.66 220.479 350.286 214.004 351.029 212.836C351.772 211.668 352.728 209.864 352.515 208.484C352.303 207.104 351.347 208.802 350.605 209.97C349.862 211.138 348.376 212.199 347.526 214.11C346.677 216.021 344.66 216.551 344.66 216.551V220.479Z" stroke="#1A2E35" stroke-width="1.33333" stroke-miterlimit="10" stroke-linecap="round" stroke-linejoin="round"/>
<path d="M342.641 224.407C342.641 224.407 345.825 217.825 346.675 216.021C347.524 214.216 347.737 211.138 347.843 209.227C347.948 207.316 346.357 208.59 346.144 210.182C345.931 211.775 344.658 216.551 344.658 216.551C344.658 216.551 337.758 221.434 337.758 222.708C337.758 223.982 337.971 225.681 337.971 225.681" fill="white"/>
<path d="M342.641 224.407C342.641 224.407 345.825 217.825 346.675 216.021C347.524 214.216 347.737 211.138 347.843 209.227C347.948 207.316 346.357 208.59 346.144 210.182C345.931 211.775 344.658 216.551 344.658 216.551C344.658 216.551 337.758 221.434 337.758 222.708C337.758 223.982 337.971 225.681 337.971 225.681" stroke="#1A2E35" stroke-width="1.33333" stroke-miterlimit="10" stroke-linecap="round" stroke-linejoin="round"/>
<path d="M126.272 342.656H115.941V324.319H126.272V342.656Z" fill="#1A2E35" stroke="#1A2E35" stroke-width="1.33333" stroke-miterlimit="10" stroke-linecap="round" stroke-linejoin="round"/>
<path d="M130.924 329.896H109.724C101.368 329.896 94.5938 323.122 94.5938 314.766V266.301C94.5938 257.945 101.368 251.171 109.724 251.171H130.924C139.28 251.171 146.055 257.945 146.055 266.301V314.766C146.055 323.122 139.28 329.896 130.924 329.896Z" fill="#959595"/>
<path d="M130.924 329.896H109.724C101.368 329.896 94.5938 323.122 94.5938 314.766V266.301C94.5938 257.945 101.368 251.171 109.724 251.171H130.924C139.28 251.171 146.055 257.945 146.055 266.301V314.766C146.055 323.122 139.28 329.896 130.924 329.896Z" stroke="#1A2E35" stroke-width="1.33333" stroke-miterlimit="10" stroke-linecap="round" stroke-linejoin="round"/>
<path d="M104.899 438.754C104.899 436.341 102.943 434.384 100.529 434.384C98.1163 434.384 96.1602 436.341 96.1602 438.754C96.1602 441.168 98.1163 443.124 100.529 443.124C102.943 443.124 104.899 441.168 104.899 438.754Z" fill="#1A2E35"/>
<path d="M104.899 438.754C104.899 436.341 102.943 434.384 100.529 434.384C98.1163 434.384 96.1602 436.341 96.1602 438.754C96.1602 441.168 98.1163 443.124 100.529 443.124C102.943 443.124 104.899 441.168 104.899 438.754Z" stroke="#1A2E35" stroke-width="1.33333" stroke-miterlimit="10" stroke-linecap="round" stroke-linejoin="round"/>
<path d="M190.278 438.754C190.278 436.341 188.322 434.384 185.908 434.384C183.495 434.384 181.539 436.341 181.539 438.754C181.539 441.168 183.495 443.124 185.908 443.124C188.322 443.124 190.278 441.168 190.278 438.754Z" fill="#1A2E35"/>
<path d="M190.278 438.754C190.278 436.341 188.322 434.384 185.908 434.384C183.495 434.384 181.539 436.341 181.539 438.754C181.539 441.168 183.495 443.124 185.908 443.124C188.322 443.124 190.278 441.168 190.278 438.754Z" stroke="#1A2E35" stroke-width="1.33333" stroke-miterlimit="10" stroke-linecap="round" stroke-linejoin="round"/>
<path d="M145.339 438.754C145.339 436.341 144.43 434.384 143.308 434.384C142.186 434.384 141.277 436.341 141.277 438.754C141.277 441.168 142.186 443.124 143.308 443.124C144.43 443.124 145.339 441.168 145.339 438.754Z" fill="#1A2E35"/>
<path d="M145.339 438.754C145.339 436.341 144.43 434.384 143.308 434.384C142.186 434.384 141.277 436.341 141.277 438.754C141.277 441.168 142.186 443.124 143.308 443.124C144.43 443.124 145.339 441.168 145.339 438.754Z" stroke="#1A2E35" stroke-width="1.33333" stroke-miterlimit="10" stroke-linecap="round" stroke-linejoin="round"/>
<path d="M147.282 415.037V352.391H138.705V415.293L96.3711 432.036V436.245H102.523V432.684L143.317 424.266L184.112 432.684V436.245H190.263V432.036L147.282 415.037Z" fill="#1A2E35"/>
<path d="M147.282 415.037V352.391H138.705V415.293L96.3711 432.036V436.245H102.523V432.684L143.317 424.266L184.112 432.684V436.245H190.263V432.036L147.282 415.037Z" stroke="#1A2E35" stroke-width="1.33333" stroke-miterlimit="10" stroke-linecap="round" stroke-linejoin="round"/>
<path d="M141.166 436.233H145.457L146.376 415.897H140.246L141.166 436.233Z" fill="#1A2E35"/>
<path d="M141.166 436.233H145.457L146.376 415.897H140.246L141.166 436.233Z" stroke="#1A2E35" stroke-width="1.33333" stroke-miterlimit="10" stroke-linecap="round" stroke-linejoin="round"/>
<path d="M153.89 362.954H132.078V350.004H153.89V362.954Z" fill="#1A2E35" stroke="#1A2E35" stroke-width="1.33333" stroke-miterlimit="10" stroke-linecap="round" stroke-linejoin="round"/>
<path d="M175.432 354.774H108.492C105.332 354.774 102.77 352.213 102.77 349.052V343.798C102.77 340.638 105.332 338.075 108.492 338.075H175.432C178.592 338.075 181.154 340.638 181.154 343.798V349.052C181.154 352.213 178.592 354.774 175.432 354.774Z" fill="#959595"/>
<path d="M175.432 354.774H108.492C105.332 354.774 102.77 352.213 102.77 349.052V343.798C102.77 340.638 105.332 338.075 108.492 338.075H175.432C178.592 338.075 181.154 340.638 181.154 343.798V349.052C181.154 352.213 178.592 354.774 175.432 354.774Z" stroke="#1A2E35" stroke-width="1.33333" stroke-miterlimit="10" stroke-linecap="round" stroke-linejoin="round"/>
<path d="M238.295 384.337L244.967 394.221L252.874 393.727C252.874 393.727 267.949 391.01 269.925 390.515C271.903 390.021 272.644 391.75 271.655 393.727C270.667 395.704 261.524 404.6 257.075 407.318C252.628 410.037 240.024 414.485 238.789 414.732C237.553 414.979 236.07 412.507 233.352 404.847C230.634 397.186 225.691 389.526 225.691 389.526L238.295 384.337Z" fill="white"/>
<path d="M238.295 384.337L244.967 394.221L252.874 393.727C252.874 393.727 267.949 391.01 269.925 390.515C271.903 390.021 272.644 391.75 271.655 393.727C270.667 395.704 261.524 404.6 257.075 407.318C252.628 410.037 240.024 414.485 238.789 414.732C237.553 414.979 236.07 412.507 233.352 404.847C230.634 397.186 225.691 389.526 225.691 389.526L238.295 384.337Z" stroke="#1A2E35" stroke-width="1.33333" stroke-miterlimit="10" stroke-linecap="round" stroke-linejoin="round"/>
<path d="M271.658 393.727C272.646 391.751 271.905 390.021 269.928 390.516C267.952 391.009 252.877 393.727 252.877 393.727L244.969 394.222C245.217 398.67 246.206 400.894 246.206 400.894C246.206 400.894 235.085 403.613 233.355 404.848C236.073 412.508 237.556 414.98 238.791 414.732C240.027 414.485 252.631 410.038 257.078 407.319C261.527 404.6 270.67 395.705 271.658 393.727Z" fill="white"/>
<path d="M271.658 393.727C272.646 391.751 271.905 390.021 269.928 390.516C267.952 391.009 252.877 393.727 252.877 393.727L244.969 394.222C245.217 398.67 246.206 400.894 246.206 400.894C246.206 400.894 235.085 403.613 233.355 404.848C236.073 412.508 237.556 414.98 238.791 414.732C240.027 414.485 252.631 410.038 257.078 407.319C261.527 404.6 270.67 395.705 271.658 393.727Z" stroke="#1A2E35" stroke-width="1.33333" stroke-miterlimit="10" stroke-linecap="round" stroke-linejoin="round"/>
<path d="M271.663 393.727C272.082 392.89 272.173 392.108 272.008 391.51C267.494 395.312 258.036 403.112 254.246 405.007C250.642 406.81 241.271 410.106 236.168 411.856C237.262 414.077 238.073 414.877 238.797 414.732C240.032 414.485 252.635 410.038 257.084 407.319C261.531 404.6 270.675 395.705 271.663 393.727Z" fill="white"/>
<path d="M271.663 393.727C272.082 392.89 272.173 392.108 272.008 391.51C267.494 395.312 258.036 403.112 254.246 405.007C250.642 406.81 241.271 410.106 236.168 411.856C237.262 414.077 238.073 414.877 238.797 414.732C240.032 414.485 252.635 410.038 257.084 407.319C261.531 404.6 270.675 395.705 271.663 393.727Z" stroke="#1A2E35" stroke-width="1.33333" stroke-miterlimit="10" stroke-linecap="round" stroke-linejoin="round"/>
<path d="M213.683 302.708C213.683 302.708 224.562 334.641 230.885 356.165C235.88 373.164 242.253 386.314 242.253 386.314C242.253 386.314 237.063 389.28 233.604 391.01C230.145 392.74 224.213 394.963 224.213 394.963C224.213 394.963 219.518 387.549 214.576 377.912C209.634 368.275 201.232 344.798 197.278 337.633C193.324 330.466 187.888 319.593 187.888 319.593C187.888 319.593 185.416 307.237 194.807 304.025C204.197 300.812 210.966 299.249 213.683 302.708Z" fill="#39D192"/>
<path d="M213.683 302.708C213.683 302.708 224.562 334.641 230.885 356.165C235.88 373.164 242.253 386.314 242.253 386.314C242.253 386.314 237.063 389.28 233.604 391.01C230.145 392.74 224.213 394.963 224.213 394.963C224.213 394.963 219.518 387.549 214.576 377.912C209.634 368.275 201.232 344.798 197.278 337.633C193.324 330.466 187.888 319.593 187.888 319.593C187.888 319.593 185.416 307.237 194.807 304.025C204.197 300.812 210.966 299.249 213.683 302.708Z" stroke="#1A2E35" stroke-width="1.33333" stroke-miterlimit="10" stroke-linecap="round" stroke-linejoin="round"/>
<path d="M176.184 297.363C176.184 297.363 180.437 300.199 180.555 300.67C180.673 301.143 180.437 301.497 179.492 301.852C178.547 302.206 174.176 303.033 174.176 303.033L176.184 297.363Z" fill="white"/>
<path d="M176.184 297.363C176.184 297.363 180.437 300.199 180.555 300.67C180.673 301.143 180.437 301.497 179.492 301.852C178.547 302.206 174.176 303.033 174.176 303.033L176.184 297.363Z" stroke="#1A2E35" stroke-width="1.33333" stroke-miterlimit="10" stroke-linecap="round" stroke-linejoin="round"/>
<path d="M191.992 404.631C191.992 404.631 190.284 415.224 189.132 419.089C187.98 422.954 184.795 429.985 185.798 431.736C186.8 433.486 192.071 435.274 194.762 435.497C197.453 435.719 200.894 440.118 205.902 441.938C210.91 443.757 217.517 443.26 217.364 441.945C217.212 440.63 202.549 424.468 201.83 420.552C201.109 416.637 203.687 404.345 203.687 404.345L191.992 404.631Z" fill="white"/>
<path d="M191.992 404.631C191.992 404.631 190.284 415.224 189.132 419.089C187.98 422.954 184.795 429.985 185.798 431.736C186.8 433.486 192.071 435.274 194.762 435.497C197.453 435.719 200.894 440.118 205.902 441.938C210.91 443.757 217.517 443.26 217.364 441.945C217.212 440.63 202.549 424.468 201.83 420.552C201.109 416.637 203.687 404.345 203.687 404.345L191.992 404.631Z" stroke="#1A2E35" stroke-width="1.33333" stroke-miterlimit="10" stroke-linecap="round" stroke-linejoin="round"/>
<path d="M199.995 423.164L199.592 424.276C199.592 424.276 192.808 423.526 188.152 421.974C186.788 425.764 185.01 430.366 185.794 431.735C186.796 433.485 192.067 435.275 194.758 435.497C197.45 435.719 200.889 440.118 205.898 441.937C210.906 443.757 217.512 443.26 217.361 441.945C217.209 440.631 202.545 424.467 201.825 420.553C201.825 420.553 200.4 422.05 199.995 423.164Z" fill="white"/>
<path d="M199.995 423.164L199.592 424.276C199.592 424.276 192.808 423.526 188.152 421.974C186.788 425.764 185.01 430.366 185.794 431.735C186.796 433.485 192.067 435.275 194.758 435.497C197.45 435.719 200.889 440.118 205.898 441.937C210.906 443.757 217.512 443.26 217.361 441.945C217.209 440.631 202.545 424.467 201.825 420.553C201.825 420.553 200.4 422.05 199.995 423.164Z" stroke="#1A2E35" stroke-width="1.33333" stroke-miterlimit="10" stroke-linecap="round" stroke-linejoin="round"/>
<path d="M205.594 439.308C201.638 437.366 198.055 434.048 192.785 432.26C189.351 431.094 186.967 430.15 185.718 429.632C185.554 430.566 185.55 431.308 185.794 431.736C186.796 433.485 192.067 435.275 194.758 435.496C197.449 435.719 200.89 440.118 205.898 441.938C210.674 443.673 216.887 443.3 217.324 442.121C214.026 441.633 208.316 440.644 205.594 439.308Z" fill="white"/>
<path d="M205.594 439.308C201.638 437.366 198.055 434.048 192.785 432.26C189.351 431.094 186.967 430.15 185.718 429.632C185.554 430.566 185.55 431.308 185.794 431.736C186.796 433.485 192.067 435.275 194.758 435.496C197.449 435.719 200.89 440.118 205.898 441.938C210.674 443.673 216.887 443.3 217.324 442.121C214.026 441.633 208.316 440.644 205.594 439.308Z" stroke="#1A2E35" stroke-width="1.33333" stroke-miterlimit="10" stroke-linecap="round" stroke-linejoin="round"/>
<path d="M189.375 325.03C189.375 325.03 208.897 327.254 210.379 337.138C211.862 347.023 208.403 408.554 208.403 408.554C208.403 408.554 203.708 408.802 199.754 408.06C195.8 407.319 189.128 405.836 189.128 405.836C189.128 405.836 188.14 384.831 186.904 376.43C185.668 368.027 184.679 343.562 184.679 343.562C184.679 343.562 152.061 340.844 149.095 338.868C146.13 336.892 189.375 325.03 189.375 325.03Z" fill="#39D192"/>
<path d="M189.375 325.03C189.375 325.03 208.897 327.254 210.379 337.138C211.862 347.023 208.403 408.554 208.403 408.554C208.403 408.554 203.708 408.802 199.754 408.06C195.8 407.319 189.128 405.836 189.128 405.836C189.128 405.836 188.14 384.831 186.904 376.43C185.668 368.027 184.679 343.562 184.679 343.562C184.679 343.562 152.061 340.844 149.095 338.868C146.13 336.892 189.375 325.03 189.375 325.03Z" stroke="#1A2E35" stroke-width="1.33333" stroke-miterlimit="10" stroke-linecap="round" stroke-linejoin="round"/>
<path d="M210.625 320.087C210.625 320.087 166.886 337.138 155.766 340.844C144.646 344.551 132.537 343.563 124.877 341.092C117.216 338.62 113.457 328.785 113.457 328.785C113.457 328.785 111.532 326.512 112.52 324.288C113.51 322.064 129.324 307.978 138.962 305.507C148.599 303.036 166.032 304.116 166.032 304.116C166.032 304.116 203.707 295.376 208.896 296.116C214.085 296.858 218.209 315.326 218.95 317.798" fill="#39D192"/>
<path d="M210.625 320.087C210.625 320.087 166.886 337.138 155.766 340.844C144.646 344.551 132.537 343.563 124.877 341.092C117.216 338.62 113.457 328.785 113.457 328.785C113.457 328.785 111.532 326.512 112.52 324.288C113.51 322.064 129.324 307.978 138.962 305.507C148.599 303.036 166.032 304.116 166.032 304.116C166.032 304.116 203.707 295.376 208.896 296.116C214.085 296.858 218.209 315.326 218.95 317.798" stroke="#1A2E35" stroke-width="1.33333" stroke-miterlimit="10" stroke-linecap="round" stroke-linejoin="round"/>
<path d="M124.625 330.713C124.625 330.713 128.084 317.122 137.228 311.438" stroke="#1A2E35" stroke-width="1.33333" stroke-miterlimit="10" stroke-linecap="round" stroke-linejoin="round"/>
<path d="M122.648 321.571C122.648 321.571 126.356 315.887 131.298 314.651" stroke="#1A2E35" stroke-width="1.33333" stroke-miterlimit="10" stroke-linecap="round" stroke-linejoin="round"/>
<path d="M149.848 219.797C149.848 219.797 153.69 220.403 156.117 224.448C158.543 228.492 162.587 243.657 162.587 243.657C162.587 243.657 169.058 262.463 167.845 266.91C166.631 271.359 161.779 277.83 161.779 277.83C161.779 277.83 162.183 292.389 163.396 295.219C164.609 298.05 166.025 304.117 166.025 304.117C166.025 304.117 162.587 306.543 151.263 308.16C139.941 309.777 130.639 310.586 126.797 313.62C122.955 316.653 114.462 328.178 113.451 328.785C112.44 329.392 110.823 330.605 110.014 328.987C109.206 327.37 107.79 323.932 109.609 316.653C111.43 309.374 114.665 280.66 115.878 267.113C117.091 253.565 114.462 239.815 116.081 230.311C117.698 220.807 132.054 215.146 135.29 214.539C138.525 213.932 149.848 219.797 149.848 219.797Z" fill="#1A2E35"/>
<path d="M149.848 219.797C149.848 219.797 153.69 220.403 156.117 224.448C158.543 228.492 162.587 243.657 162.587 243.657C162.587 243.657 169.058 262.463 167.845 266.91C166.631 271.359 161.779 277.83 161.779 277.83C161.779 277.83 162.183 292.389 163.396 295.219C164.609 298.05 166.025 304.117 166.025 304.117C166.025 304.117 162.587 306.543 151.263 308.16C139.941 309.777 130.639 310.586 126.797 313.62C122.955 316.653 114.462 328.178 113.451 328.785C112.44 329.392 110.823 330.605 110.014 328.987C109.206 327.37 107.79 323.932 109.609 316.653C111.43 309.374 114.665 280.66 115.878 267.113C117.091 253.565 114.462 239.815 116.081 230.311C117.698 220.807 132.054 215.146 135.29 214.539C138.525 213.932 149.848 219.797 149.848 219.797Z" stroke="#1A2E35" stroke-width="1.33333" stroke-miterlimit="10" stroke-linecap="round" stroke-linejoin="round"/>
<path d="M115.73 316.627C115.73 316.627 121.908 309.461 124.873 308.225C127.839 306.99 148.597 306.99 148.597 306.99" stroke="white" stroke-width="1.33333" stroke-miterlimit="10" stroke-linecap="round" stroke-linejoin="round"/>
<path d="M120.176 307.484C120.176 307.484 123.635 305.507 126.354 305.013C129.072 304.52 136.238 305.013 136.238 305.013" stroke="white" stroke-width="1.33333" stroke-miterlimit="10" stroke-linecap="round" stroke-linejoin="round"/>
<path d="M131.051 282.772C131.051 282.772 140.441 279.561 149.091 271.158" stroke="white" stroke-width="1.33333" stroke-miterlimit="10" stroke-linecap="round" stroke-linejoin="round"/>
<path d="M153.289 162.371C153.289 162.371 156.322 168.841 157.333 170.863C158.345 172.885 157.94 176.323 158.748 179.153C159.558 181.984 164.208 183.805 164.208 185.422C164.208 187.04 162.388 190.276 162.388 190.276C162.388 190.276 161.377 202.812 159.76 204.227C158.143 205.643 151.47 206.047 151.47 206.047L148.032 219.19L151.47 221.212C151.47 221.212 152.076 233.143 151.47 237.389C150.863 241.635 151.267 245.679 145.201 244.062C139.135 242.444 129.834 226.267 129.025 224.246C128.216 222.224 131.653 213.529 127.61 200.588C123.566 187.647 132.462 175.919 138.326 170.459C144.19 164.999 147.02 161.36 153.289 162.371Z" fill="white"/>
<path d="M153.289 162.371C153.289 162.371 156.322 168.841 157.333 170.863C158.345 172.885 157.94 176.323 158.748 179.153C159.558 181.984 164.208 183.805 164.208 185.421C164.208 187.04 162.388 190.276 162.388 190.276C162.388 190.276 161.377 202.812 159.76 204.227C158.143 205.643 151.47 206.047 151.47 206.047L148.032 219.19L151.47 221.212C151.47 221.212 152.076 233.143 151.47 237.389C150.863 241.635 151.267 245.679 145.201 244.062C139.135 242.444 129.834 226.267 129.025 224.246C128.216 222.224 131.653 213.529 127.61 200.588C123.566 187.647 132.462 175.919 138.326 170.459C144.19 164.999 147.02 161.36 153.289 162.371Z" stroke="#1A2E35" stroke-width="1.33333" stroke-miterlimit="10" stroke-linecap="round" stroke-linejoin="round"/>
<path d="M153.285 162.37C153.083 158.731 152.678 157.315 145.197 156.507C137.715 155.697 121.741 155.091 115.473 166.212C109.205 177.333 109.205 201.598 109.205 201.598C109.205 201.598 95.8589 213.528 94.8475 220.808C93.837 228.087 98.6901 234.962 106.373 237.389C106.52 237.434 106.672 237.47 106.824 237.509C107.497 234.605 108.741 230.923 111.023 228.186C115.395 222.939 119.184 223.522 124.722 222.065C130.348 220.585 133.787 220.23 134.606 213.908C135.43 207.547 136.634 200.763 136.098 194.318C135.896 191.892 138.525 188.252 138.525 188.252C138.525 188.252 144.793 189.871 148.837 178.952C152.881 168.033 153.487 166.011 153.285 162.37Z" fill="#1A2E35"/>
<path d="M153.285 162.37C153.083 158.731 152.678 157.315 145.197 156.507C137.715 155.697 121.741 155.091 115.473 166.212C109.205 177.333 109.205 201.598 109.205 201.598C109.205 201.598 95.8589 213.528 94.8475 220.808C93.837 228.087 98.6901 234.962 106.373 237.389C106.52 237.434 106.672 237.47 106.824 237.509C107.497 234.605 108.741 230.923 111.023 228.186C115.395 222.939 119.184 223.522 124.722 222.065C130.348 220.585 133.787 220.23 134.606 213.908C135.43 207.547 136.634 200.763 136.098 194.318C135.896 191.892 138.525 188.252 138.525 188.252C138.525 188.252 144.793 189.871 148.837 178.952C152.881 168.033 153.487 166.011 153.285 162.37Z" stroke="#1A2E35" stroke-width="1.33333" stroke-miterlimit="10" stroke-linecap="round" stroke-linejoin="round"/>
<path d="M141.154 191.286C141.154 191.286 139.132 181.984 133.874 185.623C128.618 189.264 136.503 199.576 137.717 199.778C138.93 199.981 140.952 198.767 140.952 198.767" fill="white"/>
<path d="M141.154 191.286C141.154 191.286 139.132 181.984 133.874 185.623C128.618 189.264 136.503 199.576 137.717 199.778C138.93 199.981 140.952 198.767 140.952 198.767" stroke="#1A2E35" stroke-width="1.33333" stroke-miterlimit="10" stroke-linecap="round" stroke-linejoin="round"/>
<path d="M151.464 206.047L145.195 205.238L149.644 211.102L151.464 206.047Z" fill="#1A2E35"/>
<path d="M151.464 206.047L145.195 205.238L149.644 211.102L151.464 206.047Z" stroke="#1A2E35" stroke-width="1.33333" stroke-miterlimit="10" stroke-linecap="round" stroke-linejoin="round"/>
<path d="M158.12 181.471C158.384 182.842 158.109 184.047 157.506 184.163C156.902 184.279 156.2 183.262 155.936 181.891C155.672 180.521 155.947 179.315 156.55 179.2C157.153 179.083 157.857 180.1 158.12 181.471Z" fill="#1A2E35"/>
<path d="M170.887 291.687C171.676 291.687 172.269 291.602 172.432 291.577L171.972 288.66C170.998 288.807 168.761 288.803 168.084 287.837C167.158 286.514 167.882 279.201 168.822 277.961C169.175 277.55 170.861 277.551 172.072 277.831L172.744 274.955C172.017 274.784 168.301 274.032 166.574 276.047C164.966 277.922 163.814 286.887 165.665 289.531C166.939 291.349 169.306 291.687 170.887 291.687Z" fill="white"/>
<path d="M170.887 291.687C171.676 291.687 172.269 291.602 172.432 291.577L171.972 288.66C170.998 288.807 168.761 288.803 168.084 287.837C167.158 286.514 167.882 279.201 168.822 277.961C169.175 277.55 170.861 277.551 172.072 277.831L172.744 274.955C172.017 274.784 168.301 274.032 166.574 276.047C164.966 277.922 163.814 286.887 165.665 289.531C166.939 291.349 169.306 291.687 170.887 291.687Z" stroke="#1A2E35" stroke-width="1.33333" stroke-miterlimit="10" stroke-linecap="round" stroke-linejoin="round"/>
<path d="M170.77 295.241H188.388V272.296H170.77V295.241Z" fill="white" stroke="#1A2E35" stroke-width="1.33333" stroke-miterlimit="10" stroke-linecap="round" stroke-linejoin="round"/>
<path d="M119.769 223.814C119.769 223.814 110.443 220.899 106.175 238.946C104.756 244.942 99.0016 305.711 100.203 306.135C104.553 307.671 150.442 293.4 150.442 293.4C150.442 293.4 164.648 292.428 165.886 292.133C167.126 291.838 169.073 289.607 168.987 288.353C168.901 287.1 168.938 284.578 168.938 284.578C168.938 284.578 171.079 282.124 170.338 280.496C169.596 278.867 168.092 278.34 168.092 278.34L165.153 278.331L163.425 277.609C163.425 277.609 165.58 275.364 165.228 273.289C164.877 271.214 163.119 270.075 162.384 271.595C161.648 273.114 161.511 274.172 160.134 275.526C158.758 276.88 156.783 278.693 155.839 280.228C154.894 281.761 152.226 285.721 152.226 285.721L119.157 287.524L124.182 249.415" fill="#1A2E35"/>
<path d="M119.769 223.814C119.769 223.814 110.443 220.899 106.175 238.946C104.756 244.942 99.0016 305.711 100.203 306.135C104.553 307.671 150.442 293.4 150.442 293.4C150.442 293.4 164.648 292.428 165.886 292.133C167.126 291.838 169.073 289.607 168.987 288.353C168.901 287.1 168.938 284.578 168.938 284.578C168.938 284.578 171.079 282.124 170.338 280.496C169.596 278.867 168.092 278.34 168.092 278.34L165.153 278.331L163.425 277.609C163.425 277.609 165.58 275.364 165.228 273.289C164.877 271.214 163.119 270.075 162.384 271.595C161.648 273.114 161.511 274.172 160.134 275.526C158.758 276.88 156.783 278.693 155.839 280.228C154.894 281.761 152.226 285.721 152.226 285.721L119.157 287.524L124.182 249.415" stroke="#1A2E35" stroke-width="1.33333" stroke-miterlimit="10" stroke-linecap="round" stroke-linejoin="round"/>
<path d="M170.339 280.495C169.598 278.866 168.093 278.34 168.093 278.34L165.154 278.332L163.425 277.61C163.425 277.61 165.581 275.364 165.229 273.289C164.877 271.214 163.12 270.075 162.385 271.596C161.649 273.114 161.512 274.173 160.135 275.526C158.759 276.88 156.784 278.694 155.84 280.228C154.894 281.762 152.227 285.721 152.227 285.721L119.158 287.524L121.348 270.917L102.786 270.499C101.092 287.885 99.5515 305.904 100.204 306.135C104.554 307.671 150.443 293.399 150.443 293.399C150.443 293.399 164.649 292.428 165.887 292.133C167.127 291.838 169.073 289.606 168.988 288.353C168.902 287.1 168.939 284.579 168.939 284.579C168.939 284.579 171.08 282.124 170.339 280.495Z" fill="white"/>
<path d="M170.339 280.495C169.598 278.866 168.093 278.34 168.093 278.34L165.154 278.332L163.425 277.61C163.425 277.61 165.581 275.364 165.229 273.289C164.877 271.214 163.12 270.075 162.385 271.596C161.649 273.114 161.512 274.173 160.135 275.526C158.759 276.88 156.784 278.694 155.84 280.228C154.894 281.762 152.227 285.721 152.227 285.721L119.158 287.524L121.348 270.917L102.786 270.499C101.092 287.885 99.5515 305.904 100.204 306.135C104.554 307.671 150.443 293.399 150.443 293.399C150.443 293.399 164.649 292.428 165.887 292.133C167.127 291.838 169.073 289.606 168.988 288.353C168.902 287.1 168.939 284.579 168.939 284.579C168.939 284.579 171.08 282.124 170.339 280.495V280.495Z" stroke="#1A2E35" stroke-width="1.33333" stroke-miterlimit="10" stroke-linecap="round" stroke-linejoin="round"/>
<path d="M168.855 297.106C168.855 297.106 165.148 297.847 164.16 299.082C163.171 300.317 160.7 306.99 161.936 307.237C163.171 307.485 165.643 302.047 165.643 302.047C165.643 302.047 172.562 298.588 168.855 297.106Z" fill="white"/>
<path d="M168.855 297.106C168.855 297.106 165.148 297.847 164.16 299.082C163.171 300.317 160.7 306.99 161.936 307.237C163.171 307.485 165.643 302.047 165.643 302.047C165.643 302.047 172.562 298.588 168.855 297.106V297.106Z" stroke="#1A2E35" stroke-width="1.33333" stroke-miterlimit="10" stroke-linecap="round" stroke-linejoin="round"/>
<path d="M170.509 297.126C170.509 297.126 169.091 297.008 168.028 297.599C166.964 298.19 164.719 303.27 164.365 304.688C164.011 306.105 164.365 307.523 165.31 307.169C166.256 306.814 169.563 301.734 170.509 301.142C171.454 300.553 172.163 297.147 170.509 297.126Z" fill="white"/>
<path d="M170.509 297.126C170.509 297.126 169.091 297.008 168.028 297.599C166.964 298.19 164.719 303.27 164.365 304.688C164.011 306.105 164.365 307.523 165.31 307.169C166.256 306.814 169.563 301.734 170.509 301.142C171.454 300.553 172.163 297.147 170.509 297.126Z" stroke="#1A2E35" stroke-width="1.33333" stroke-miterlimit="10" stroke-linecap="round" stroke-linejoin="round"/>
<path d="M173.109 297.127C173.109 297.127 171.927 295.118 170.509 297.127C169.092 299.135 166.729 305.279 167.319 305.751C167.91 306.223 169.328 304.688 170.273 303.624C171.218 302.561 173.817 299.845 173.109 297.127Z" fill="white"/>
<path d="M173.109 297.127C173.109 297.127 171.927 295.118 170.509 297.127C169.092 299.135 166.729 305.279 167.319 305.751C167.91 306.223 169.328 304.688 170.273 303.624C171.218 302.561 173.817 299.845 173.109 297.127Z" stroke="#1A2E35" stroke-width="1.33333" stroke-miterlimit="10" stroke-linecap="round" stroke-linejoin="round"/>
<path d="M176.184 297.363C176.184 297.363 174.058 296.063 173.112 297.127C172.167 298.189 171.458 303.86 171.694 304.451C171.93 305.042 173.822 303.624 174.176 303.033C174.53 302.442 176.184 297.363 176.184 297.363Z" fill="white"/>
<path d="M176.184 297.363C176.184 297.363 174.058 296.063 173.112 297.127C172.167 298.189 171.458 303.86 171.694 304.451C171.93 305.042 173.822 303.624 174.176 303.033C174.53 302.442 176.184 297.363 176.184 297.363Z" stroke="#1A2E35" stroke-width="1.33333" stroke-miterlimit="10" stroke-linecap="round" stroke-linejoin="round"/>
</svg>
