<svg width="262" height="256" viewBox="0 0 262 256" fill="none" xmlns="http://www.w3.org/2000/svg">
<path d="M166.213 224.312C194.908 218.683 220.621 205.578 238.574 182.804C267.165 146.536 272.719 78.5224 234.291 38.95C216.682 20.8163 190.473 10.8531 167.07 5.27254C141.913 -0.72699 113.456 -2.61952 90.8737 7.52997C54.4915 23.8833 38.2005 82.7991 14.8512 107.451C-8.49878 132.103 -5.24073 184.582 37.1154 203.975C59.5133 214.229 83.2351 221.698 107.025 225.35C118.045 227.041 129.155 227.906 140.069 227.401C148.963 226.988 157.718 225.978 166.213 224.312Z" fill="#39D192"/>
<g opacity="0.699997">
<path d="M166.206 224.311C194.9 218.683 220.613 205.577 238.566 182.804C267.157 146.536 272.711 78.5221 234.283 38.9497C216.674 20.8161 190.465 10.8529 167.062 5.27229C141.906 -0.727234 113.448 -2.61977 90.8659 7.52972C54.4837 23.883 38.1927 82.7988 14.8434 107.451C-8.50659 132.102 -5.24854 184.582 37.1076 203.974C59.5054 214.228 83.2273 221.698 107.017 225.35C118.037 227.041 129.148 227.906 140.061 227.4C148.955 226.988 157.71 225.977 166.206 224.311Z" fill="white"/>
</g>
<path d="M214.802 201.052H105.051V38.481H214.802V201.052Z" fill="white" stroke="#1A2E35" stroke-width="1.33333" stroke-miterlimit="10" stroke-linecap="round" stroke-linejoin="round"/>
<path d="M214.803 201.052H211.332V38.481H214.803V201.052Z" fill="#39D192" stroke="#1A2E35" stroke-width="1.33333" stroke-miterlimit="10" stroke-linecap="round" stroke-linejoin="round"/>
<path d="M214.803 137.422H211.332V105.551H214.803V137.422Z" fill="white" stroke="#1A2E35" stroke-width="1.33333" stroke-miterlimit="10" stroke-linecap="round" stroke-linejoin="round"/>
<path d="M214.802 51.0215H105.051V38.4816H214.802V51.0215Z" fill="#39D192" stroke="#1A2E35" stroke-width="1.33333" stroke-miterlimit="10" stroke-linecap="round" stroke-linejoin="round"/>
<path d="M206.15 47.573H116.312C115.117 47.573 114.148 46.6042 114.148 45.409V44.3253C114.148 43.1301 115.117 42.1614 116.312 42.1614H206.15C207.345 42.1614 208.314 43.1301 208.314 44.3253V45.409C208.314 46.6042 207.345 47.573 206.15 47.573Z" fill="white"/>
<path d="M206.15 47.573H116.312C115.117 47.573 114.148 46.6042 114.148 45.409V44.3253C114.148 43.1301 115.117 42.1614 116.312 42.1614H206.15C207.345 42.1614 208.314 43.1301 208.314 44.3253V45.409C208.314 46.6042 207.345 47.573 206.15 47.573Z" stroke="#1A2E35" stroke-width="1.33333" stroke-miterlimit="10" stroke-linecap="round" stroke-linejoin="round"/>
<path d="M157.219 129.832H110.895V79.8269H157.219V129.832Z" fill="#39D192" stroke="#1A2E35" stroke-width="1.33333" stroke-miterlimit="10" stroke-linecap="round" stroke-linejoin="round"/>
<path d="M157.219 192.176H110.895V142.17H157.219V192.176Z" fill="#39D192" stroke="#1A2E35" stroke-width="1.33333" stroke-miterlimit="10" stroke-linecap="round" stroke-linejoin="round"/>
<path d="M166.527 79.8271H199.215" stroke="#1A2E35" stroke-width="1.33333" stroke-miterlimit="10" stroke-linecap="round" stroke-linejoin="round"/>
<path d="M166.527 93.2483H199.215" stroke="#1A2E35" stroke-width="1.33333" stroke-miterlimit="10" stroke-linecap="round" stroke-linejoin="round"/>
<path d="M166.527 96.9285H199.215" stroke="#1A2E35" stroke-width="1.33333" stroke-miterlimit="10" stroke-linecap="round" stroke-linejoin="round"/>
<path d="M166.527 100.609H199.215" stroke="#1A2E35" stroke-width="1.33333" stroke-miterlimit="10" stroke-linecap="round" stroke-linejoin="round"/>
<path d="M166.527 104.288H199.215" stroke="#1A2E35" stroke-width="1.33333" stroke-miterlimit="10" stroke-linecap="round" stroke-linejoin="round"/>
<path d="M166.527 107.968H199.215" stroke="#1A2E35" stroke-width="1.33333" stroke-miterlimit="10" stroke-linecap="round" stroke-linejoin="round"/>
<path d="M166.527 111.648H199.215" stroke="#1A2E35" stroke-width="1.33333" stroke-miterlimit="10" stroke-linecap="round" stroke-linejoin="round"/>
<path d="M166.527 115.328H199.215" stroke="#1A2E35" stroke-width="1.33333" stroke-miterlimit="10" stroke-linecap="round" stroke-linejoin="round"/>
<path d="M166.527 119.008H199.215" stroke="#1A2E35" stroke-width="1.33333" stroke-miterlimit="10" stroke-linecap="round" stroke-linejoin="round"/>
<path d="M166.527 122.689H199.215" stroke="#1A2E35" stroke-width="1.33333" stroke-miterlimit="10" stroke-linecap="round" stroke-linejoin="round"/>
<path d="M166.527 126.368H199.215" stroke="#1A2E35" stroke-width="1.33333" stroke-miterlimit="10" stroke-linecap="round" stroke-linejoin="round"/>
<path d="M166.527 83.5073H185.36" stroke="#1A2E35" stroke-width="1.33333" stroke-miterlimit="10" stroke-linecap="round" stroke-linejoin="round"/>
<path d="M166.527 142.171H199.215" stroke="#1A2E35" stroke-width="1.33333" stroke-miterlimit="10" stroke-linecap="round" stroke-linejoin="round"/>
<path d="M166.527 155.592H199.215" stroke="#1A2E35" stroke-width="1.33333" stroke-miterlimit="10" stroke-linecap="round" stroke-linejoin="round"/>
<path d="M166.527 159.272H199.215" stroke="#1A2E35" stroke-width="1.33333" stroke-miterlimit="10" stroke-linecap="round" stroke-linejoin="round"/>
<path d="M166.527 162.952H199.215" stroke="#1A2E35" stroke-width="1.33333" stroke-miterlimit="10" stroke-linecap="round" stroke-linejoin="round"/>
<path d="M166.527 166.632H199.215" stroke="#1A2E35" stroke-width="1.33333" stroke-miterlimit="10" stroke-linecap="round" stroke-linejoin="round"/>
<path d="M166.527 170.313H199.215" stroke="#1A2E35" stroke-width="1.33333" stroke-miterlimit="10" stroke-linecap="round" stroke-linejoin="round"/>
<path d="M166.527 173.993H199.215" stroke="#1A2E35" stroke-width="1.33333" stroke-miterlimit="10" stroke-linecap="round" stroke-linejoin="round"/>
<path d="M166.527 177.673H199.215" stroke="#1A2E35" stroke-width="1.33333" stroke-miterlimit="10" stroke-linecap="round" stroke-linejoin="round"/>
<path d="M166.527 181.352H199.215" stroke="#1A2E35" stroke-width="1.33333" stroke-miterlimit="10" stroke-linecap="round" stroke-linejoin="round"/>
<path d="M166.527 185.032H199.215" stroke="#1A2E35" stroke-width="1.33333" stroke-miterlimit="10" stroke-linecap="round" stroke-linejoin="round"/>
<path d="M166.527 188.712H199.215" stroke="#1A2E35" stroke-width="1.33333" stroke-miterlimit="10" stroke-linecap="round" stroke-linejoin="round"/>
<path d="M166.527 145.851H185.36" stroke="#1A2E35" stroke-width="1.33333" stroke-miterlimit="10" stroke-linecap="round" stroke-linejoin="round"/>
<path d="M111.758 56.1278H115.257L117.97 66.7519H118.021V56.1278H120.506V73.8769H117.64L114.293 60.9201H114.243V73.8769H111.758V56.1278Z" fill="#1A2E35"/>
<path d="M122.579 56.1278H130.185V58.6634H125.368V63.3542H129.196V65.8898H125.368V71.3413H130.185V73.8769H122.579V56.1278Z" fill="#1A2E35"/>
<path d="M131.131 56.1278H133.818L135.061 69.7692H135.111L136.43 56.1278H139.473L140.791 69.7692H140.842L142.084 56.1278H144.493L142.693 73.8769H139.219L137.951 61.9089H137.901L136.633 73.8769H132.931L131.131 56.1278Z" fill="#1A2E35"/>
<path d="M149.53 74.1304C148.177 74.1304 147.155 73.7501 146.462 72.9894C145.769 72.2118 145.422 71.1046 145.422 69.6678V68.6536H148.059V69.8707C148.059 71.0201 148.541 71.5948 149.504 71.5948C149.978 71.5948 150.333 71.4596 150.569 71.1892C150.823 70.9018 150.95 70.4454 150.95 69.8199C150.95 69.0762 150.781 68.4254 150.443 67.8675C150.105 67.2928 149.479 66.6082 148.566 65.8137C147.417 64.7995 146.614 63.8867 146.157 63.0753C145.701 62.247 145.473 61.3173 145.473 60.2862C145.473 58.8832 145.828 57.8013 146.538 57.0406C147.248 56.2631 148.279 55.8743 149.631 55.8743C150.967 55.8743 151.972 56.2631 152.649 57.0406C153.342 57.8013 153.688 58.9001 153.688 60.3369V61.0722H151.051V60.1594C151.051 59.5509 150.933 59.1114 150.696 58.8409C150.46 58.5535 150.113 58.4098 149.657 58.4098C148.727 58.4098 148.262 58.9761 148.262 60.1087C148.262 60.751 148.431 61.3511 148.769 61.9089C149.124 62.4668 149.758 63.1429 150.671 63.9374C151.837 64.9516 152.64 65.8729 153.08 66.7012C153.519 67.5295 153.739 68.5014 153.739 69.6171C153.739 71.0708 153.375 72.1865 152.649 72.9641C151.939 73.7416 150.899 74.1304 149.53 74.1304Z" fill="#1A2E35"/>
<path d="M199.937 70.0603H156.035V72.7561H199.937V70.0603Z" fill="#39D192"/>
<path d="M243.897 239.348C243.897 242.178 235.295 244.471 224.685 244.471C214.074 244.471 205.473 242.178 205.473 239.348C205.473 236.519 214.074 234.225 224.685 234.225C235.295 234.225 243.897 236.519 243.897 239.348Z" fill="#39D192"/>
<g opacity="0.5">
<path d="M243.874 239.349C243.874 242.179 235.272 244.471 224.662 244.471C214.051 244.471 205.449 242.179 205.449 239.349C205.449 236.519 214.051 234.226 224.662 234.226C235.272 234.226 243.874 236.519 243.874 239.349Z" fill="white"/>
</g>
<path d="M241.586 133.195C241.622 133.218 242.342 130.428 242.368 130.246C242.66 128.148 241.991 123.922 239.855 122.89C238.316 122.147 236.596 123.041 236.035 124.582C235.462 126.156 236.188 128.087 237.048 129.415C238.057 130.974 241.583 133.194 241.586 133.195ZM229.157 178.481C228.754 178.286 225.643 176.747 224.428 175.432C223.034 176.211 221.461 176.847 221.184 176.957C221.46 178.179 221.718 179.372 221.937 180.492C222.642 184.035 223.094 187.012 223.381 189.101C223.442 189.547 223.494 189.943 223.541 190.307H223.698C223.857 190.001 224.028 189.67 224.218 189.294C225.16 187.436 226.472 184.757 227.898 181.477C228.311 180.531 228.733 179.522 229.157 178.481ZM256.361 121.562C256.015 123.2 254.377 124.455 252.945 125.128C251.477 125.816 248.121 125.919 247.287 125.933C246.834 126.469 246.357 127.047 245.841 127.697C244.946 128.848 243.945 130.155 242.953 131.65C242.687 132.047 242.418 132.486 242.149 132.906C242.75 132.291 243.584 131.46 243.675 131.389C245.33 130.068 249.307 128.491 251.284 129.803C252.708 130.748 252.815 132.685 251.775 133.953C250.712 135.247 248.681 135.605 247.1 135.542C245.45 135.477 242.355 133.973 241.682 133.637C241.101 134.577 240.526 135.556 239.986 136.612C239.051 138.432 238.15 140.422 237.498 142.56C237.564 142.595 237.552 142.588 237.618 142.623C238.103 141.989 239.15 140.681 239.249 140.582C240.75 139.089 244.531 137.083 246.639 138.171C248.158 138.954 248.477 140.867 247.582 142.241C246.668 143.644 244.688 144.225 243.11 144.335C241.291 144.463 237.53 143.043 237.388 142.989C236.803 144.993 236.355 147.093 236.02 149.254C235.775 150.82 235.592 152.415 235.423 154.017C235.751 153.563 237.125 151.844 237.238 151.732C238.74 150.237 242.52 148.233 244.628 149.32C246.147 150.104 246.466 152.016 245.571 153.39C244.658 154.793 242.678 155.373 241.099 155.484C239.323 155.609 235.713 154.265 235.409 154.15C235.333 154.878 235.253 155.605 235.182 156.334C234.95 158.718 234.728 161.108 234.436 163.46C234.335 164.275 234.205 165.074 234.079 165.875C234.592 165.21 235.549 164.017 235.643 163.923C237.144 162.429 240.924 160.424 243.033 161.512C244.551 162.295 244.871 164.208 243.975 165.582C243.062 166.985 241.081 167.566 239.504 167.676C237.918 167.787 234.858 166.723 234 166.411C233.781 167.742 233.533 169.059 233.227 170.342C233.084 170.893 232.973 171.465 232.804 171.986C232.646 172.514 232.49 173.037 232.336 173.555C231.977 174.616 231.647 175.603 231.289 176.581C231.111 177.077 230.931 177.541 230.752 178.02C231.172 177.268 231.854 176.087 231.929 175.987C233.186 174.282 236.618 171.728 238.868 172.483C240.488 173.027 241.093 174.87 240.417 176.363C239.726 177.889 237.857 178.762 236.314 179.111C234.612 179.495 230.96 178.754 230.514 178.66C230.071 179.832 229.627 180.968 229.193 182.024C227.826 185.368 226.56 188.1 225.647 190.001C225.595 190.109 225.549 190.204 225.5 190.307H232.151L229.856 235.099C229.681 238.503 226.87 241.175 223.462 241.175C220.053 241.175 217.242 238.503 217.067 235.099L214.771 190.307H221.911C221.877 189.997 221.841 189.668 221.799 189.3C221.56 187.23 221.176 184.273 220.555 180.75C220.379 179.733 220.174 178.659 219.954 177.556C219.493 177.618 215.805 178.083 214.138 177.574C212.626 177.112 210.827 176.102 210.251 174.528C209.688 172.989 210.429 171.198 212.085 170.775C214.385 170.189 217.617 172.992 218.745 174.786C218.817 174.901 219.517 176.353 219.859 177.103C219.723 176.437 219.589 175.776 219.437 175.086C219.224 174.091 218.967 173.046 218.724 172.033C218.578 171.512 218.432 170.986 218.284 170.455C218.145 169.914 217.948 169.418 217.78 168.89C217.518 168.122 217.209 167.344 216.903 166.566C215.903 166.845 212.954 167.607 211.438 167.386C209.873 167.158 207.941 166.432 207.135 164.965C206.345 163.528 206.805 161.644 208.379 160.976C210.562 160.049 214.183 162.33 215.568 163.932C215.613 163.984 215.871 164.353 216.173 164.794C215.85 164.044 215.531 163.294 215.178 162.544C214.18 160.419 213.097 158.285 212.021 156.143C211.796 155.697 211.58 155.247 211.357 154.8C210.517 155.037 207.33 155.892 205.741 155.661C204.176 155.433 202.244 154.707 201.438 153.239C200.648 151.802 201.109 149.919 202.681 149.251C204.865 148.324 208.485 150.605 209.871 152.207C209.92 152.263 210.228 152.705 210.566 153.202C209.999 152.029 209.447 150.854 208.936 149.67C208.04 147.601 207.268 145.514 206.682 143.434C206.387 143.52 202.67 144.599 200.905 144.341C199.339 144.113 197.408 143.387 196.601 141.919C195.811 140.482 196.272 138.599 197.845 137.931C200.029 137.004 203.649 139.285 205.034 140.886C205.133 141 206.231 142.604 206.604 143.191C206.598 143.166 206.588 143.141 206.581 143.116C205.985 140.927 205.686 138.763 205.503 136.697C205.317 134.636 205.318 132.68 205.364 130.88C205.407 129.08 205.556 127.434 205.701 125.98C205.785 125.194 205.876 124.475 205.969 123.806C205.962 123.811 205.928 123.834 205.928 123.834C205.892 123.858 205.096 121.089 205.066 120.909C204.717 118.819 205.271 114.576 207.379 113.487C208.897 112.702 210.641 113.55 211.244 115.074C211.858 116.633 211.185 118.582 210.361 119.933C209.517 121.318 206.774 123.255 206.086 123.726C206.005 124.423 205.924 125.169 205.854 125.995C205.741 127.449 205.628 129.091 205.624 130.886C205.622 131.363 205.64 131.878 205.648 132.376C205.809 131.534 206.047 130.379 206.082 130.269C206.736 128.255 209.182 124.745 211.555 124.75C213.264 124.752 214.421 126.308 214.253 127.939C214.081 129.605 212.584 131.025 211.231 131.845C209.819 132.7 206.408 133.153 205.661 133.245C205.695 134.349 205.756 135.483 205.887 136.661C206.112 138.695 206.458 140.853 207.094 142.996C207.169 142.989 207.155 142.99 207.229 142.982C207.283 142.186 207.436 140.515 207.464 140.379C207.891 138.305 209.938 134.547 212.297 134.291C213.996 134.106 215.317 135.526 215.329 137.165C215.341 138.84 214.01 140.416 212.754 141.379C211.307 142.489 207.386 143.38 207.238 143.414C207.856 145.407 208.642 147.406 209.554 149.394C210.213 150.834 210.941 152.266 211.683 153.695C211.707 153.136 211.905 150.944 211.937 150.788C212.365 148.713 214.412 144.956 216.77 144.7C218.469 144.515 219.79 145.934 219.802 147.574C219.814 149.249 218.483 150.824 217.227 151.788C215.815 152.871 212.062 153.743 211.745 153.814C212.084 154.463 212.417 155.113 212.762 155.761C213.883 157.877 215.016 159.993 216.07 162.117C216.435 162.851 216.768 163.59 217.104 164.328C217.165 163.489 217.306 161.966 217.332 161.837C217.76 159.761 219.807 156.005 222.165 155.749C223.864 155.564 225.185 156.983 225.197 158.623C225.209 160.297 223.878 161.873 222.622 162.837C221.361 163.804 218.222 164.605 217.335 164.817C217.885 166.049 218.405 167.284 218.859 168.523C219.042 169.062 219.265 169.599 219.412 170.127C219.572 170.655 219.73 171.177 219.886 171.695C220.173 172.777 220.443 173.782 220.683 174.796C220.808 175.308 220.914 175.793 221.03 176.292C220.965 175.433 220.883 174.072 220.888 173.947C220.998 171.832 222.451 167.807 224.744 167.198C226.395 166.757 227.917 167.96 228.177 169.579C228.21 169.785 228.222 169.992 228.215 170.199C229.21 171.808 229.71 174.096 229.678 175.503C229.674 175.638 229.456 177.237 229.328 178.05C229.582 177.42 229.836 176.795 230.089 176.135C230.461 175.188 230.823 174.175 231.179 173.196C231.345 172.68 231.513 172.161 231.683 171.636C231.865 171.11 231.973 170.586 232.126 170.054C232.331 169.269 232.502 168.449 232.676 167.631C231.688 167.312 228.808 166.321 227.665 165.301C226.486 164.247 225.275 162.576 225.412 160.908C225.546 159.273 226.97 157.956 228.65 158.266C230.982 158.698 232.743 162.597 233.016 164.698C233.025 164.766 233.036 165.216 233.045 165.75C233.189 164.947 233.337 164.145 233.457 163.326C233.796 161.002 234.07 158.626 234.355 156.244C234.414 155.749 234.48 155.254 234.541 154.758C233.709 154.493 230.579 153.448 229.382 152.378C228.202 151.324 226.992 149.654 227.128 147.984C227.263 146.35 228.686 145.034 230.367 145.344C232.699 145.776 234.46 149.675 234.733 151.775C234.743 151.85 234.755 152.388 234.763 152.989C234.936 151.698 235.125 150.412 235.351 149.143C235.745 146.923 236.254 144.757 236.912 142.699C236.618 142.608 232.923 141.457 231.593 140.269C230.413 139.214 229.203 137.544 229.339 135.874C229.474 134.24 230.897 132.924 232.577 133.234C234.91 133.666 236.671 137.565 236.943 139.665C236.963 139.815 236.993 141.759 236.982 142.453C236.989 142.429 236.994 142.403 237.003 142.378C237.713 140.223 238.658 138.254 239.645 136.429C240.627 134.608 241.707 132.977 242.739 131.502C243.767 130.023 244.8 128.734 245.722 127.6C246.226 126.99 246.699 126.442 247.145 125.935C247.136 125.935 247.096 125.936 247.096 125.936C247.052 125.936 247.916 123.187 247.99 123.019C248.852 121.084 251.655 117.852 254.013 118.105C255.713 118.288 256.7 119.957 256.361 121.562ZM195.955 128.807C195.574 127.213 196.515 125.518 198.209 125.289C200.56 124.971 203.449 128.127 204.363 130.037C204.442 130.204 205.38 132.928 205.336 132.929C205.334 132.929 201.17 133.023 199.467 132.28C198.017 131.646 196.347 130.436 195.955 128.807Z" fill="#1A2E35"/>
<path d="M165.109 243.191C165.109 250.266 134.702 256 97.1913 256C59.6817 256 29.2734 250.266 29.2734 243.191C29.2734 236.118 59.6817 230.384 97.1913 230.384C134.702 230.384 165.109 236.118 165.109 243.191Z" fill="#39D192"/>
<g opacity="0.5">
<path d="M165.109 243.191C165.109 250.265 134.702 256 97.1913 256C59.6817 256 29.2734 250.265 29.2734 243.191C29.2734 236.118 59.6817 230.383 97.1913 230.383C134.702 230.383 165.109 236.118 165.109 243.191Z" fill="white"/>
</g>
<path d="M71.9385 209.71H67.7539V189.506H71.9385V209.71Z" fill="#1A2E35"/>
<g opacity="0.399994">
<path d="M71.9424 209.71H67.7578V189.506H71.9424V209.71Z" fill="white"/>
</g>
<path d="M71.9229 209.71H67.7383V189.506H71.9229V209.71Z" stroke="#1A2E35" stroke-width="1.33333" stroke-miterlimit="10" stroke-linecap="round" stroke-linejoin="round"/>
<path d="M67.0157 100.609C67.0157 100.609 36.1323 102.773 34.6892 104.793C33.2461 106.814 34.2564 111.288 35.4108 115.04C36.5651 118.792 47.6771 187.197 50.7081 190.228C53.739 193.259 59.2227 192.536 65.7166 192.536C72.2106 192.536 106.702 191.238 106.702 191.238C106.702 191.238 109.444 191.815 113.484 190.372C117.526 188.929 122.72 186.62 123.442 184.455C124.164 182.291 123.587 178.538 122.865 178.538C122.144 178.538 78.9933 175.363 78.9933 175.363L67.0157 100.609Z" fill="#1A2E35"/>
<g opacity="0.399994">
<path d="M67.0235 100.608C67.0235 100.608 36.1402 102.772 34.6971 104.792C33.2539 106.813 34.2643 111.287 35.4186 115.039C36.5729 118.791 47.685 187.196 50.7159 190.227C53.7468 193.258 59.2305 192.535 65.7244 192.535C72.2184 192.535 106.71 191.237 106.71 191.237C106.71 191.237 109.452 191.814 113.492 190.371C117.533 188.928 122.728 186.619 123.45 184.454C124.171 182.29 123.595 178.537 122.873 178.537C122.151 178.537 79.0011 175.362 79.0011 175.362L67.0235 100.608Z" fill="white"/>
</g>
<path d="M67.0157 100.609C67.0157 100.609 36.1323 102.774 34.6892 104.794C33.2461 106.814 34.2564 111.288 35.4108 115.04C36.5651 118.793 47.6772 187.197 50.7081 190.228C53.739 193.259 59.2227 192.537 65.7166 192.537C72.2106 192.537 106.702 191.238 106.702 191.238C106.702 191.238 109.444 191.815 113.484 190.372C117.526 188.929 122.72 186.62 123.442 184.456C124.164 182.291 123.587 178.539 122.865 178.539C122.144 178.539 78.9933 175.364 78.9933 175.364L67.0157 100.609Z" stroke="#1A2E35" stroke-width="1.33333" stroke-miterlimit="10" stroke-linecap="round" stroke-linejoin="round"/>
<path d="M66.5813 187.486C59.7985 187.486 54.8917 187.919 53.7374 184.744C52.583 181.57 42.1919 125.72 40.4607 117.638C38.7288 109.556 38.4401 105.949 36.4195 104.938C35.7152 104.587 34.9951 104.888 34.3538 105.424C33.4405 107.646 34.3622 111.637 35.4092 115.04C36.5642 118.793 47.6762 187.197 50.7064 190.228C53.7374 193.259 59.2217 192.537 65.7157 192.537C72.2096 192.537 106.701 191.238 106.701 191.238C106.701 191.238 108.806 191.682 112.045 190.82C113.458 189.496 113.695 187.618 113.051 185.899C112.184 183.589 73.364 187.486 66.5813 187.486Z" fill="#1A2E35"/>
<path d="M66.5813 187.486C59.7985 187.486 54.8917 187.919 53.7374 184.744C52.583 181.57 42.1919 125.72 40.4607 117.638C38.7288 109.556 38.4401 105.949 36.4195 104.938C35.7152 104.587 34.9951 104.888 34.3538 105.424C33.4405 107.646 34.3622 111.637 35.4092 115.04C36.5642 118.793 47.6762 187.197 50.7065 190.228C53.7374 193.259 59.2217 192.537 65.7157 192.537C72.2096 192.537 106.701 191.238 106.701 191.238C106.701 191.238 108.806 191.682 112.045 190.82C113.458 189.496 113.695 187.618 113.051 185.899C112.184 183.589 73.364 187.486 66.5813 187.486Z" stroke="#1A2E35" stroke-width="1.33333" stroke-miterlimit="10" stroke-linecap="round" stroke-linejoin="round"/>
<path d="M104.191 79.6205C101.943 72.2631 95.4875 63.6336 86.9805 63.4937C79.639 63.3739 75.9087 64.6972 72.1777 74.8072C68.4466 84.9165 55.6879 107.103 55.6879 107.103C55.6879 107.103 56.1041 107.174 56.8139 107.266C55.9566 108.262 55.4712 108.834 55.4712 108.834C55.4712 108.834 51.1419 117.494 47.4614 125.07C43.7817 132.646 45.9463 143.903 51.3579 150.83C56.7703 157.757 61.5324 156.242 66.7272 149.747C71.9228 143.254 90.3231 96.2792 90.3231 96.2792L96.3891 84.7247C96.8599 85.2718 97.2373 85.5792 97.4513 85.5183C98.294 85.2773 105.515 83.9533 104.191 79.6205Z" fill="#1A2E35"/>
<path d="M104.191 79.6205C101.943 72.2631 95.4875 63.6336 86.9805 63.4937C79.639 63.3739 75.9087 64.6972 72.1777 74.8072C68.4466 84.9165 55.6879 107.103 55.6879 107.103C55.6879 107.103 56.1041 107.174 56.8139 107.266C55.9566 108.262 55.4712 108.834 55.4712 108.834C55.4712 108.834 51.1419 117.494 47.4614 125.07C43.7817 132.646 45.9463 143.903 51.3579 150.83C56.7703 157.757 61.5324 156.242 66.7272 149.747C71.9228 143.254 90.3231 96.2792 90.3231 96.2792L96.3891 84.7247C96.8599 85.2718 97.2373 85.5792 97.4513 85.5183C98.294 85.2773 105.515 83.9533 104.191 79.6205Z" stroke="#1A2E35" stroke-width="1.33333" stroke-miterlimit="10" stroke-linecap="round" stroke-linejoin="round"/>
<path d="M88.375 64.639C88.375 64.639 98.3071 71.5914 96.1223 74.3723" stroke="white" stroke-miterlimit="10" stroke-linecap="round" stroke-linejoin="round"/>
<path d="M92.336 73.3977C90.8916 75.6586 88.4222 79.0752 84.4011 83.5091C76.6544 92.0507 60.9624 99.996 59.9688 104.167" stroke="white" stroke-miterlimit="10" stroke-linecap="round" stroke-linejoin="round"/>
<path d="M94.1334 70.2001C94.1334 70.2001 93.8903 70.7839 93.2422 71.9084" stroke="white" stroke-miterlimit="10" stroke-linecap="round" stroke-linejoin="round"/>
<path d="M60.7355 100.244C58.9725 102.28 57.7808 104.167 57.582 105.557" stroke="white" stroke-miterlimit="10" stroke-linecap="round" stroke-linejoin="round"/>
<path d="M84.0056 65.4337C84.0056 65.4337 82.6151 64.6394 80.4304 71.7899C78.2457 78.941 72.2863 90.0641 67.3206 94.0367C65.7854 95.2652 64.3063 96.5698 62.9844 97.8682" stroke="white" stroke-miterlimit="10" stroke-linecap="round" stroke-linejoin="round"/>
<path d="M51.446 128.427C50.2985 133.619 49.3713 140.529 51.0298 145.284C54.0095 153.825 57.7834 152.435 58.3796 148.462C58.9758 144.489 55.5987 144.29 54.6057 145.681C53.612 147.071 55.9962 148.859 55.9962 148.859" stroke="white" stroke-miterlimit="10" stroke-linecap="round" stroke-linejoin="round"/>
<path d="M53.4189 121.249C53.4189 121.249 52.8559 122.876 52.1953 125.366" stroke="white" stroke-miterlimit="10" stroke-linecap="round" stroke-linejoin="round"/>
<path d="M107.203 154.841C107.203 154.841 119.96 152.314 122.006 153.999C124.052 155.684 123.09 166.515 117.553 169.404C112.017 172.292 99.5 168.441 99.5 168.441L107.203 154.841Z" fill="white"/>
<path d="M107.203 154.841C107.203 154.841 119.96 152.314 122.006 153.999C124.052 155.684 123.09 166.515 117.553 169.404C112.017 172.292 99.5 168.441 99.5 168.441L107.203 154.841Z" stroke="#1A2E35" stroke-width="1.33333" stroke-miterlimit="10" stroke-linecap="round" stroke-linejoin="round"/>
<path d="M99.862 166.858C99.862 166.858 113.462 171.551 115.387 174.439C117.313 177.328 116.23 193.094 115.749 199.954C115.267 206.814 115.147 227.876 117.073 234.255C118.998 240.633 120.202 244.244 121.405 245.808C122.609 247.373 128.746 250.622 128.265 251.585C127.784 252.548 122.488 252.548 119.599 251.705C116.711 250.863 113.702 247.493 111.175 245.326C108.648 243.16 108.046 243.16 108.046 243.16L109.009 250.743L107.565 250.502C107.565 250.502 107.324 245.567 106.361 242.92C105.398 240.272 104.074 239.911 105.038 237.745C106 235.579 109.971 233.051 109.971 233.051C109.971 233.051 109.731 225.71 107.565 217.165C105.398 208.62 102.51 204.287 102.149 194.418C101.788 184.549 103.954 181.42 103.954 181.42L89.5117 181.661L99.862 166.858Z" fill="white"/>
<path d="M99.862 166.858C99.862 166.858 113.462 171.551 115.387 174.439C117.313 177.328 116.23 193.094 115.749 199.954C115.267 206.814 115.147 227.876 117.073 234.255C118.998 240.633 120.202 244.244 121.405 245.808C122.609 247.373 128.746 250.622 128.265 251.585C127.784 252.548 122.488 252.548 119.599 251.705C116.711 250.863 113.702 247.493 111.175 245.326C108.648 243.16 108.046 243.16 108.046 243.16L109.009 250.743L107.565 250.502C107.565 250.502 107.324 245.567 106.361 242.92C105.398 240.272 104.074 239.911 105.038 237.745C106 235.579 109.971 233.051 109.971 233.051C109.971 233.051 109.731 225.71 107.565 217.165C105.398 208.62 102.51 204.287 102.149 194.418C101.788 184.549 103.954 181.42 103.954 181.42L89.5117 181.661L99.862 166.858Z" stroke="#1A2E35" stroke-width="1.33333" stroke-miterlimit="10" stroke-linecap="round" stroke-linejoin="round"/>
<path d="M119.6 251.706C122.489 252.548 127.785 252.548 128.266 251.585C128.685 250.747 124.096 248.18 122.102 246.496C121.661 246.586 121.151 246.651 120.564 246.651C118.397 246.651 114.545 244.604 110.333 240.031C108.216 237.732 107.681 235.951 107.671 234.748C106.612 235.626 105.491 236.724 105.038 237.745C104.075 239.912 105.399 240.272 106.362 242.92C107.324 245.568 107.565 250.502 107.565 250.502L109.01 250.743L108.047 243.161C108.047 243.161 108.648 243.161 111.176 245.327C113.703 247.493 116.712 250.863 119.6 251.706Z" fill="#1A2E35"/>
<path d="M119.6 251.706C122.489 252.548 127.785 252.548 128.266 251.585C128.685 250.747 124.096 248.18 122.102 246.496C121.661 246.586 121.151 246.651 120.564 246.651C118.397 246.651 114.545 244.604 110.333 240.031C108.216 237.732 107.681 235.951 107.671 234.748C106.612 235.626 105.491 236.724 105.038 237.745C104.075 239.912 105.399 240.272 106.362 242.92C107.324 245.568 107.565 250.502 107.565 250.502L109.01 250.743L108.047 243.161C108.047 243.161 108.648 243.161 111.176 245.327C113.703 247.493 116.712 250.863 119.6 251.706Z" stroke="#1A2E35" stroke-width="1.33333" stroke-miterlimit="10" stroke-linecap="round" stroke-linejoin="round"/>
<path d="M114.301 153.999C120.198 152.916 122.484 153.397 123.567 154.962C124.651 156.526 126.577 172.653 126.696 181.319C126.817 189.984 131.029 200.816 131.872 207.676C132.715 214.536 135.241 220.193 136.686 223.202C138.13 226.21 140.417 226.21 141.26 227.534C142.102 228.857 138.13 229.098 135.964 229.098C133.797 229.098 129.103 225.849 127.779 223.202C126.456 220.553 124.169 220.072 124.169 220.072C124.169 220.072 123.808 226.331 123.327 226.572C122.846 226.812 122.484 226.21 122.484 226.21C122.484 226.21 122.484 222.239 122.364 220.433C122.244 218.628 121.16 215.739 121.04 214.296C120.92 212.851 125.132 210.925 125.132 210.925C125.132 210.925 123.087 200.696 121.401 196.363C119.716 192.031 114.301 183.485 111.532 176.866C108.764 170.246 110.81 160.498 110.81 160.498" fill="white"/>
<path d="M114.301 153.999C120.198 152.916 122.484 153.397 123.567 154.962C124.651 156.526 126.577 172.653 126.696 181.319C126.817 189.984 131.029 200.816 131.872 207.676C132.715 214.536 135.241 220.193 136.686 223.202C138.13 226.21 140.417 226.21 141.26 227.534C142.102 228.857 138.13 229.098 135.964 229.098C133.797 229.098 129.103 225.849 127.779 223.202C126.456 220.553 124.169 220.072 124.169 220.072C124.169 220.072 123.808 226.331 123.327 226.572C122.846 226.812 122.484 226.21 122.484 226.21C122.484 226.21 122.484 222.239 122.364 220.433C122.244 218.628 121.16 215.739 121.04 214.296C120.92 212.851 125.132 210.925 125.132 210.925C125.132 210.925 123.087 200.696 121.401 196.363C119.716 192.031 114.301 183.485 111.532 176.866C108.764 170.246 110.81 160.498 110.81 160.498" stroke="#1A2E35" stroke-width="1.33333" stroke-miterlimit="10" stroke-linecap="round" stroke-linejoin="round"/>
<path d="M137.766 224.824C137.201 225.277 136.503 225.673 135.721 225.729C134.035 225.849 130.666 223.923 127.176 218.749C124.63 214.973 124.327 212.423 124.348 211.314C123.138 211.95 120.95 213.247 121.038 214.296C121.158 215.739 122.241 218.628 122.362 220.433C122.482 222.239 122.482 226.21 122.482 226.21C122.482 226.21 122.843 226.812 123.324 226.571C123.805 226.331 124.167 220.072 124.167 220.072C124.167 220.072 126.453 220.553 127.777 223.201C129.101 225.849 133.795 229.098 135.962 229.098C138.127 229.098 142.1 228.857 141.257 227.534C140.605 226.509 139.088 226.272 137.766 224.824Z" fill="#1A2E35"/>
<path d="M137.766 224.824C137.201 225.277 136.503 225.673 135.721 225.729C134.035 225.849 130.666 223.923 127.176 218.749C124.63 214.973 124.327 212.423 124.348 211.314C123.138 211.95 120.95 213.247 121.038 214.296C121.158 215.739 122.241 218.628 122.362 220.433C122.482 222.239 122.482 226.21 122.482 226.21C122.482 226.21 122.843 226.812 123.324 226.571C123.805 226.331 124.167 220.072 124.167 220.072C124.167 220.072 126.453 220.553 127.777 223.201C129.101 225.849 133.795 229.098 135.962 229.098C138.127 229.098 142.1 228.857 141.257 227.534C140.605 226.509 139.088 226.272 137.766 224.824Z" stroke="#1A2E35" stroke-width="1.33333" stroke-miterlimit="10" stroke-linecap="round" stroke-linejoin="round"/>
<path d="M90.5967 106.339C90.5967 106.339 93.1242 107.543 93.726 110.551C94.3278 113.56 95.5313 144.25 95.892 144.852C96.2535 145.454 104.919 152.554 104.919 152.554L102.151 155.804C102.151 155.804 93.2447 151.471 90.4763 149.185C87.7085 146.898 86.6254 145.935 87.1067 141.964C87.588 137.992 88.912 118.254 88.912 115.245C88.912 112.237 88.7915 104.895 90.5967 106.339Z" fill="#39D192"/>
<path d="M90.5967 106.339C90.5967 106.339 93.1242 107.543 93.726 110.551C94.3278 113.56 95.5313 144.25 95.892 144.852C96.2535 145.454 104.919 152.554 104.919 152.554L102.151 155.804C102.151 155.804 93.2447 151.471 90.4763 149.185C87.7085 146.898 86.6254 145.935 87.1067 141.964C87.588 137.992 88.912 118.254 88.912 115.245C88.912 112.237 88.7915 104.895 90.5967 106.339Z" stroke="#1A2E35" stroke-width="1.33333" stroke-miterlimit="10" stroke-linecap="round" stroke-linejoin="round"/>
<path d="M77.5952 100.081C77.5952 100.081 66.1619 104.293 61.8291 105.858C57.4963 107.422 53.1636 107.062 52.9233 108.386C52.6823 109.709 55.8116 126.679 58.0981 133.78C60.3846 140.88 61.8291 145.334 61.4676 147.619C61.1069 149.907 51.3583 162.302 54.1261 173.616C56.8946 184.929 75.0677 184.448 85.8993 184.327C96.7308 184.207 96.2496 183.725 96.2496 183.725L109.969 154.48L91.797 157.128C91.797 157.128 84.335 151.592 85.0572 148.583C85.7788 145.574 89.2695 139.436 90.1115 136.187C90.9543 132.937 92.2783 125.596 91.0748 120.902C89.8712 116.208 92.7595 107.663 90.5935 106.339C88.4268 105.015 80.0022 100.081 77.5952 100.081Z" fill="#39D192"/>
<path d="M77.5952 100.081C77.5952 100.081 66.1619 104.293 61.8291 105.858C57.4963 107.422 53.1636 107.062 52.9233 108.386C52.6823 109.709 55.8116 126.679 58.0981 133.78C60.3846 140.88 61.8291 145.334 61.4676 147.619C61.1069 149.907 51.3583 162.302 54.1261 173.616C56.8946 184.929 75.0677 184.448 85.8993 184.327C96.7308 184.207 96.2496 183.725 96.2496 183.725L109.969 154.48L91.797 157.128C91.797 157.128 84.335 151.592 85.0572 148.583C85.7788 145.574 89.2695 139.436 90.1115 136.187C90.9543 132.937 92.2783 125.596 91.0748 120.902C89.8712 116.208 92.7595 107.663 90.5935 106.339C88.4268 105.015 80.0022 100.081 77.5952 100.081Z" stroke="#1A2E35" stroke-width="1.33333" stroke-miterlimit="10" stroke-linecap="round" stroke-linejoin="round"/>
<path d="M61.2422 163.674C61.2422 163.674 66.5818 159.633 73.0758 160.499C79.5704 161.365 95.3005 166.705 95.3005 166.705" stroke="#1A2E35" stroke-width="1.33333" stroke-miterlimit="10" stroke-linecap="round" stroke-linejoin="round"/>
<path d="M57.9258 163.53C57.9258 163.53 59.3689 160.355 64.131 159.056" stroke="#1A2E35" stroke-width="1.33333" stroke-miterlimit="10" stroke-linecap="round" stroke-linejoin="round"/>
<path d="M104.911 152.554C104.911 152.554 107.495 151.927 109.583 152.057C112.33 152.231 114.69 153.242 116.752 155.643C116.752 155.643 117.352 157.187 116.356 157.288C115.361 157.387 113.295 156.206 111.403 156.107C109.511 156.007 107.69 155.543 107.69 155.543C107.69 155.543 109.981 157.436 109.283 157.635C108.587 157.834 106.496 156.739 105.699 156.439C104.902 156.141 103.109 155.842 102.312 155.045C101.516 154.248 104.911 152.554 104.911 152.554Z" fill="white"/>
<path d="M104.911 152.554C104.911 152.554 107.495 151.927 109.583 152.057C112.33 152.231 114.69 153.242 116.752 155.643C116.752 155.643 117.352 157.187 116.356 157.288C115.361 157.387 113.295 156.206 111.403 156.107C109.511 156.007 107.69 155.543 107.69 155.543C107.69 155.543 109.981 157.436 109.283 157.635C108.587 157.834 106.496 156.739 105.699 156.439C104.902 156.141 103.109 155.842 102.312 155.045C101.516 154.248 104.911 152.554 104.911 152.554Z" stroke="#1A2E35" stroke-width="1.33333" stroke-miterlimit="10" stroke-linecap="round" stroke-linejoin="round"/>
<path d="M116.308 156.866C116.308 156.866 114.544 155.653 113.661 155.323C112.779 154.992 109.973 154.48 109.973 154.48" stroke="#1A2E35" stroke-width="0.666667" stroke-miterlimit="10" stroke-linecap="round" stroke-linejoin="round"/>
<path d="M111.234 153.558C111.234 153.558 113.66 154.33 114.652 154.771C115.645 155.213 116.748 156.535 116.748 156.535" stroke="#1A2E35" stroke-width="0.666667" stroke-miterlimit="10" stroke-linecap="round" stroke-linejoin="round"/>
<path d="M73.2079 101.545C73.2079 101.545 70.4172 103.538 73.5036 113.56C75.2624 119.271 82.0486 137.03 82.1691 136.066C82.2896 135.103 83.9744 123.911 83.8539 117.773C83.7334 111.635 82.6504 106.339 81.4469 103.09C80.2434 99.8406 75.6149 99.1377 73.2079 101.545Z" fill="white"/>
<path d="M73.2079 101.545C73.2079 101.545 70.4172 103.538 73.5036 113.56C75.2624 119.271 82.0486 137.03 82.1691 136.066C82.2896 135.103 83.9744 123.911 83.8539 117.773C83.7334 111.635 82.6504 106.339 81.4469 103.09C80.2434 99.8406 75.6149 99.1377 73.2079 101.545Z" stroke="#1A2E35" stroke-width="1.33333" stroke-miterlimit="10" stroke-linecap="round" stroke-linejoin="round"/>
<path d="M71.8242 104.534C71.8242 104.534 72.0645 108.144 72.9072 110.672C73.75 113.199 74.9535 115.846 74.9535 115.846C74.9535 115.846 79.0453 112.477 79.406 112.477C79.7675 112.477 83.8593 114.644 83.8593 114.162C83.8593 113.68 83.1371 108.625 81.6926 104.052C80.2488 99.4793 76.4222 98.1941 74.2555 99.8788C72.0894 101.564 71.8242 104.534 71.8242 104.534Z" fill="white"/>
<path d="M71.8242 104.534C71.8242 104.534 72.0645 108.144 72.9072 110.672C73.75 113.199 74.9535 115.846 74.9535 115.846C74.9535 115.846 79.0453 112.477 79.406 112.477C79.7675 112.477 83.8593 114.644 83.8593 114.162C83.8593 113.68 83.1371 108.625 81.6926 104.052C80.2488 99.4793 76.4222 98.1941 74.2555 99.8788C72.0894 101.564 71.8242 104.534 71.8242 104.534Z" stroke="#1A2E35" stroke-width="1.33333" stroke-miterlimit="10" stroke-linecap="round" stroke-linejoin="round"/>
<path d="M78.6896 94.1916L75.7812 102.512C75.9793 103.163 76.2272 103.964 76.5076 105.016C77.4709 108.626 79.3966 113.44 79.9984 113.681C80.6001 113.921 79.6369 109.589 80.6001 105.978C81.5627 102.368 83.6089 97.0723 83.7287 96.7115L79.756 94.0137L78.6896 94.1916Z" fill="white"/>
<path d="M78.6896 94.1916L75.7812 102.512C75.9793 103.163 76.2272 103.964 76.5076 105.016C77.4709 108.626 79.3966 113.44 79.9984 113.681C80.6001 113.921 79.6369 109.589 80.6001 105.978C81.5627 102.368 83.6089 97.0723 83.7287 96.7115L79.756 94.0137L78.6896 94.1916Z" stroke="#1A2E35" stroke-width="1.33333" stroke-miterlimit="10" stroke-linecap="round" stroke-linejoin="round"/>
<path d="M94.8356 75.5597C92.153 79.0075 88.5196 83.4926 85.2997 86.8421C79.2821 93.1006 78.1624 93.7474 79.2288 94.3692C80.7841 95.7396 85.5033 99.9927 87.2254 100.803C89.271 101.765 90.1137 99.8397 93.243 96.9521C96.3722 94.0631 99.2605 85.2778 98.6587 82.5093C98.0743 79.8232 96.4699 77.1462 94.8356 75.5597Z" fill="white"/>
<path d="M94.8356 75.5597C92.153 79.0075 88.5196 83.4926 85.2997 86.8421C79.2821 93.1006 78.1624 93.7474 79.2288 94.3692C80.7841 95.7396 85.5033 99.9927 87.2254 100.803C89.271 101.765 90.1137 99.8397 93.243 96.9521C96.3722 94.0631 99.2605 85.2778 98.6587 82.5093C98.0743 79.8232 96.4699 77.1462 94.8356 75.5597Z" stroke="#1A2E35" stroke-width="1.33333" stroke-miterlimit="10" stroke-linecap="round" stroke-linejoin="round"/>
<path d="M94.5683 87.0827C94.5683 87.0827 93.2444 89.971 93.2444 91.6558C93.2444 93.3412 93.6058 93.2207 93.2444 93.3412C92.8836 93.461 90.4766 92.2582 90.4766 92.2582" stroke="#1A2E35" stroke-width="1.33333" stroke-miterlimit="10" stroke-linecap="round" stroke-linejoin="round"/>
<path d="M88.7997 94.906C88.7997 94.906 86.3927 94.5452 86.0312 92.258" stroke="#1A2E35" stroke-width="1.33333" stroke-miterlimit="10" stroke-linecap="round" stroke-linejoin="round"/>
<path d="M90.6841 87.6023C90.4846 88.0954 90.1481 88.4243 89.9327 88.337C89.7167 88.2498 89.7035 87.7789 89.9036 87.2859C90.1031 86.7935 90.4389 86.4646 90.655 86.5519C90.871 86.6391 90.8835 87.11 90.6841 87.6023Z" fill="#1A2E35"/>
<path d="M95.9186 89.1666C95.7192 89.6589 95.3826 89.9885 95.1666 89.9013C94.9512 89.814 94.9381 89.3432 95.1375 88.8501C95.3369 88.3578 95.6735 88.0289 95.8895 88.1161C96.1049 88.2034 96.118 88.6735 95.9186 89.1666Z" fill="#1A2E35"/>
<path d="M88.6719 83.9534C88.6719 83.9534 91.0789 82.0276 92.6432 82.9908" stroke="#1A2E35" stroke-width="1.33333" stroke-miterlimit="10" stroke-linecap="round" stroke-linejoin="round"/>
<path d="M96.125 84.315C96.125 84.315 97.9303 84.074 98.0508 86.2407" stroke="#1A2E35" stroke-width="1.33333" stroke-miterlimit="10" stroke-linecap="round" stroke-linejoin="round"/>
<path d="M112.148 120.375L114.435 109.423L120.092 108.58L117.933 118.77L112.148 120.375Z" fill="#1A2E35"/>
<path d="M112.148 120.375L114.435 109.423L120.092 108.58L117.933 118.77L112.148 120.375Z" stroke="#1A2E35" stroke-width="1.33333" stroke-miterlimit="10" stroke-linecap="round" stroke-linejoin="round"/>
<path d="M98.1758 131.252L106.865 126.349L109.658 118.839C109.658 118.839 110.909 118.165 111.871 118.55C112.835 118.935 113.798 118.935 113.798 118.935L119.093 117.394C119.093 117.394 119.574 117.106 119.574 118.068C119.574 119.031 119.286 119.416 118.611 120.283C117.937 121.15 117.937 122.401 117.649 123.749C117.36 125.097 115.723 126.06 114.472 126.445C113.22 126.83 109.079 129.429 108.502 129.815C107.924 130.199 99.2588 135.104 99.2588 135.104L98.1758 131.252Z" fill="white"/>
<path d="M98.1758 131.252L106.865 126.349L109.658 118.839C109.658 118.839 110.909 118.165 111.871 118.55C112.835 118.935 113.798 118.935 113.798 118.935L119.093 117.394C119.093 117.394 119.574 117.106 119.574 118.068C119.574 119.031 119.286 119.416 118.611 120.283C117.937 121.15 117.937 122.401 117.649 123.749C117.36 125.097 115.723 126.06 114.472 126.445C113.22 126.83 109.079 129.429 108.502 129.815C107.924 130.199 99.2588 135.104 99.2588 135.104L98.1758 131.252Z" stroke="#1A2E35" stroke-width="1.33333" stroke-miterlimit="10" stroke-linecap="round" stroke-linejoin="round"/>
<path d="M113.794 118.935L110.52 120.283L113.794 118.935Z" fill="white"/>
<path d="M113.794 118.935L110.52 120.283" stroke="#1A2E35" stroke-width="1.33333" stroke-miterlimit="10" stroke-linecap="round" stroke-linejoin="round"/>
<path d="M55.4531 116.93C55.4531 116.93 69.0532 150.147 70.3765 151.351C71.7005 152.554 100.946 135.343 100.946 135.343L97.9374 129.687L75.9128 137.029L65.0812 111.875" fill="#39D192"/>
<path d="M55.4531 116.93C55.4531 116.93 69.0532 150.147 70.3765 151.351C71.7005 152.554 100.946 135.343 100.946 135.343L97.9374 129.687L75.9128 137.029L65.0812 111.875" stroke="#1A2E35" stroke-width="1.33333" stroke-miterlimit="10" stroke-linecap="round" stroke-linejoin="round"/>
<path d="M99.6412 244.202L80.1011 236.941C84.4644 236.074 95.9109 233.811 96.6109 233.811C97.4765 233.811 96.755 231.502 96.755 231.502L73.8087 232.961V208.556H65.5829V232.761L45.3788 232.368L45.0907 234.1L60.3021 237.163L37.7305 246.655V248.82L71.2113 240.594L99.7852 246.8L99.6412 244.202Z" fill="#1A2E35"/>
<path d="M99.6412 244.202L80.1011 236.941C84.4644 236.074 95.9109 233.811 96.6109 233.811C97.4765 233.811 96.755 231.502 96.755 231.502L73.8087 232.961V208.556H65.5829V232.761L45.3788 232.368L45.0907 234.1L60.3021 237.163L37.7305 246.655V248.82L71.2112 240.594L99.7852 246.8L99.6412 244.202Z" stroke="#1A2E35" stroke-width="1.33333" stroke-miterlimit="10" stroke-linecap="round" stroke-linejoin="round"/>
<path d="M42.0528 250.046C42.0528 251.123 41.1803 251.994 40.1049 251.994C39.0281 251.994 38.1562 251.123 38.1562 250.046C38.1562 248.97 39.0281 248.098 40.1049 248.098C41.1803 248.098 42.0528 248.97 42.0528 250.046Z" fill="#1A2E35"/>
<path d="M42.0528 250.046C42.0528 251.123 41.1803 251.994 40.1049 251.994C39.0281 251.994 38.1562 251.123 38.1562 250.046C38.1562 248.97 39.0281 248.098 40.1049 248.098C41.1803 248.098 42.0528 248.97 42.0528 250.046Z" stroke="#1A2E35" stroke-width="1.33333" stroke-miterlimit="10" stroke-linecap="round" stroke-linejoin="round"/>
<path d="M100.068 248.17C100.068 249.246 99.1959 250.118 98.1205 250.118C97.0444 250.118 96.1719 249.246 96.1719 248.17C96.1719 247.094 97.0444 246.222 98.1205 246.222C99.1959 246.222 100.068 247.094 100.068 248.17Z" fill="#1A2E35"/>
<path d="M100.068 248.17C100.068 249.246 99.1959 250.118 98.1205 250.118C97.0444 250.118 96.1719 249.246 96.1719 248.17C96.1719 247.094 97.0444 246.222 98.1205 246.222C99.1959 246.222 100.068 247.094 100.068 248.17Z" stroke="#1A2E35" stroke-width="1.33333" stroke-miterlimit="10" stroke-linecap="round" stroke-linejoin="round"/>
<path d="M48.4018 235.687C48.4018 236.484 47.7558 237.13 46.9587 237.13C46.1617 237.13 45.5156 236.484 45.5156 235.687C45.5156 234.89 46.1617 234.244 46.9587 234.244C47.7558 234.244 48.4018 234.89 48.4018 235.687Z" fill="#1A2E35"/>
<path d="M48.4018 235.687C48.4018 236.484 47.7558 237.13 46.9587 237.13C46.1617 237.13 45.5156 236.484 45.5156 235.687C45.5156 234.89 46.1617 234.244 46.9587 234.244C47.7558 234.244 48.4018 234.89 48.4018 235.687Z" stroke="#1A2E35" stroke-width="1.33333" stroke-miterlimit="10" stroke-linecap="round" stroke-linejoin="round"/>
<path d="M97.0425 235.254C97.0425 236.051 96.3964 236.697 95.5994 236.697C94.8023 236.697 94.1562 236.051 94.1562 235.254C94.1562 234.458 94.8023 233.811 95.5994 233.811C96.3964 233.811 97.0425 234.458 97.0425 235.254Z" fill="#1A2E35"/>
<path d="M97.0425 235.254C97.0425 236.051 96.3964 236.697 95.5994 236.697C94.8023 236.697 94.1562 236.051 94.1562 235.254C94.1562 234.458 94.8023 233.811 95.5994 233.811C96.3964 233.811 97.0425 234.458 97.0425 235.254Z" stroke="#1A2E35" stroke-width="1.33333" stroke-miterlimit="10" stroke-linecap="round" stroke-linejoin="round"/>
</svg>
