<svg width="265" height="255" viewBox="0 0 265 255" fill="none" xmlns="http://www.w3.org/2000/svg">
<g opacity="0.25">
<path d="M225.68 121.092C277.307 151.725 277.307 201.392 225.679 232.025C174.051 262.658 90.347 262.658 38.72 232.025C-12.907 201.392 -12.9065 151.726 38.7205 121.092C90.3481 90.4594 174.053 90.4594 225.68 121.092Z" fill="white"/>
</g>
<g opacity="0.0500031">
<path d="M194.345 209.171C207.802 216.94 207.802 229.537 194.345 237.307C180.888 245.076 159.069 245.076 145.612 237.307C132.155 229.537 132.155 216.94 145.612 209.171C159.069 201.401 180.889 201.401 194.345 209.171Z" fill="black"/>
</g>
<g opacity="0.0500031">
<path d="M249.431 157.619C239.734 153.427 224.275 153.427 214.901 157.619C205.528 161.81 205.528 168.606 214.901 172.797C224.275 176.989 239.734 176.988 249.431 172.797C259.127 168.605 259.127 161.81 249.431 157.619Z" fill="black"/>
</g>
<g opacity="0.0500031">
<path d="M191.104 175.389L133.513 142.16L157.91 128.075C159.137 127.366 159.137 126.217 157.91 125.509L136.144 112.944C134.918 112.235 132.928 112.235 131.701 112.944L5.10781 186.033C3.88073 186.741 3.88073 187.89 5.10781 188.598L26.8722 201.164C28.0987 201.872 30.0884 201.872 31.3154 201.164L42.149 194.929L99.7404 228.159L191.104 175.389Z" fill="black"/>
</g>
<path d="M106.185 175.858L124.894 165.04C126.823 163.927 127.787 162.467 127.788 161.008C127.788 159.548 127.796 158.406 127.796 158.406L108.383 147.459C107.355 146.865 106.521 145.421 106.521 144.233V121.059L73.8415 139.943L73.8398 163.117C73.8398 164.305 74.6739 165.749 75.7026 166.343L92.2159 175.858C96.0733 178.085 102.327 178.085 106.185 175.858Z" fill="#39D192"/>
<g opacity="0.399994">
<path d="M106.185 175.858L124.894 165.04C126.823 163.927 127.787 162.467 127.788 161.008C127.788 159.548 127.796 158.406 127.796 158.406L108.383 147.459C107.355 146.865 106.521 145.421 106.521 144.233V121.059L73.8415 139.943L73.8398 163.117C73.8398 164.305 74.6739 165.749 75.7026 166.343L92.2159 175.858C96.0733 178.085 102.327 178.085 106.185 175.858Z" fill="black"/>
</g>
<g opacity="0.199997">
<path d="M81.6898 167.202V169.793L75.7003 166.342C74.679 165.75 73.8398 164.31 73.8398 163.116V139.944L80.0664 136.353C80.195 137.934 80.3353 139.568 80.4639 141.159L76.0984 143.686V161.815C76.0984 163.008 76.9263 164.449 77.9588 165.041L81.6898 167.202Z" fill="black"/>
</g>
<path d="M76.0898 161.819C76.0898 163.006 76.9234 164.45 77.9526 165.045L92.2085 173.256C96.0659 175.484 102.32 175.484 106.178 173.258L124.898 162.441C128.756 160.215 128.756 156.605 124.899 154.378L110.633 146.16C109.604 145.566 108.77 144.122 108.77 142.934V124.803L76.0898 143.687V161.819Z" fill="#39D192"/>
<g opacity="0.300003">
<path d="M76.0938 161.819C76.0938 163.007 76.9273 164.451 77.9565 165.045L92.2124 173.257C96.0698 175.484 102.324 175.484 106.182 173.258L124.902 162.441C128.759 160.215 128.759 156.605 124.903 154.378L110.637 146.16C109.608 145.566 108.774 144.122 108.774 142.934V124.803L76.0938 143.687V161.819Z" fill="black"/>
</g>
<g opacity="0.100006">
<path d="M114.431 148.352V148.35L110.637 146.16C109.609 145.565 108.774 144.122 108.774 142.934V124.803L76.0938 143.687V161.818C76.0938 163.006 76.9278 164.45 77.9565 165.044L81.6847 167.196L114.431 148.352Z" fill="black"/>
</g>
<path d="M127.788 158.407V161.009C127.788 162.472 126.821 163.923 124.896 165.042L106.183 175.853C104.333 176.929 101.935 177.467 99.5156 177.509V174.918C101.935 174.886 104.333 174.327 106.183 173.262L124.896 162.439C126.821 161.332 127.788 159.869 127.788 158.407Z" fill="#39D192"/>
<g opacity="0.199997">
<path d="M127.792 158.407V161.009C127.792 162.472 126.825 163.923 124.9 165.041L106.187 175.853C104.337 176.929 101.939 177.467 99.5195 177.509V174.918C101.939 174.885 104.337 174.326 106.187 173.262L124.9 162.439C126.825 161.332 127.792 159.869 127.792 158.407Z" fill="black"/>
</g>
<path d="M23.6172 183.686C24.8236 184.382 26.8434 184.881 28.1297 184.139C44.1959 174.863 138.449 120.447 154.513 111.173C155.799 110.431 156.841 105.946 156.841 104.461V4.4482C156.841 2.96339 155.863 1.19572 154.656 0.499176C153.45 -0.197388 151.43 -0.159943 150.144 0.582458L23.7631 73.5484C22.4773 74.2908 21.4353 76.096 21.4353 77.5808L21.4336 179.737C21.4336 181.222 22.4113 182.99 23.6172 183.686Z" fill="#455A64"/>
<path d="M27.7982 186.781C26.508 187.352 24.7151 187.339 23.6166 186.708C21.8238 185.677 21.4336 183.709 21.4336 182.215V173.335L25.7997 175.862L25.8013 185.278C25.8013 186.632 26.6695 187.233 27.7982 186.781Z" fill="#39D192"/>
<g opacity="0.399994">
<path d="M27.7982 186.782C26.508 187.352 24.7151 187.34 23.6166 186.708C21.8238 185.678 21.4336 183.709 21.4336 182.215V173.335L25.7997 175.862L25.8013 185.278C25.8013 186.632 26.6695 187.233 27.7982 186.782Z" fill="black"/>
</g>
<path d="M28.1342 184.136L154.517 111.171C155.803 110.428 156.845 105.943 156.845 104.458V4.44554C156.845 2.96074 155.803 2.35864 154.517 3.10161L28.1359 76.0676C26.8501 76.8094 25.8047 78.614 25.8047 80.0982L25.8058 182.256C25.8058 183.741 26.8484 184.878 28.1342 184.136Z" fill="#37474F"/>
<path d="M25.8008 175.862L25.8025 185.274C25.8025 186.759 26.8473 187.36 28.1325 186.618L154.516 113.652C155.801 112.91 156.843 111.105 156.843 109.62V100.188L25.8008 175.862Z" fill="#39D192"/>
<g opacity="0.300003">
<path d="M25.7969 175.862L25.7986 185.274C25.7986 186.759 26.8434 187.361 28.1286 186.618L154.512 113.653C155.797 112.91 156.839 111.105 156.839 109.62V100.188L25.7969 175.862Z" fill="black"/>
</g>
<path d="M30.168 164.182L30.1685 81.5496C30.1685 80.6585 30.7941 79.5751 31.5656 79.1295L151.072 10.1327C151.844 9.68713 152.469 10.0483 152.469 10.9388L152.473 93.5739C152.473 94.465 151.848 95.5484 151.076 95.9934L31.565 164.989C30.7935 165.435 30.168 165.073 30.168 164.182Z" fill="#39D192"/>
<path d="M30.168 164.182L30.1685 81.5496C30.1685 80.6585 30.7941 79.5751 31.5656 79.1295L151.072 10.1327C151.844 9.68713 152.469 10.0483 152.469 10.9388L152.473 93.5739C152.473 94.465 151.848 95.5484 151.076 95.9934L31.565 164.989C30.7935 165.435 30.168 165.073 30.168 164.182Z" fill="#39D192"/>
<g opacity="0.5">
<path d="M30.1641 164.182L30.1646 81.5496C30.1646 80.6585 30.7902 79.5751 31.5617 79.1295L151.068 10.1327C151.84 9.68713 152.465 10.0483 152.465 10.9388L152.469 93.5739C152.469 94.465 151.844 95.5484 151.072 95.9934L31.5611 164.989C30.7896 165.435 30.1641 165.073 30.1641 164.182Z" fill="white"/>
</g>
<path d="M91.3243 141.381C90.261 141.995 89.3984 143.489 89.3984 144.716C89.3984 145.945 90.261 146.442 91.3243 145.828C92.3882 145.214 93.2502 143.721 93.2502 142.493C93.2502 141.265 92.3876 140.767 91.3243 141.381Z" fill="#455A64"/>
<path d="M26.4878 77.7962C26.0686 78.5275 25.8131 79.3565 25.8025 80.0983L25.7997 175.862L21.4336 173.334L21.4364 77.581C21.4364 76.8392 21.7025 76.0112 22.1218 75.28L26.4878 77.7962Z" fill="#263238"/>
<path d="M133.527 31.6378L44.3398 83.1346V157.616L44.0401 157.787L43.5152 158.087L42.2031 158.848V81.903L131.39 30.4063L133.019 31.3432L133.527 31.6378Z" fill="#EBEBEB"/>
<path d="M133.527 31.6379V106.125L47.5375 155.769L45.4059 157L44.8754 157.305L44.351 157.606L44.3398 157.616V83.1347L133.527 31.6379Z" fill="#F0F0F0"/>
<path d="M131.391 30.4076L133.527 31.6397L44.3386 83.1326L42.2031 81.9005L131.391 30.4076Z" fill="#FAFAFA"/>
<path d="M134.294 31.2097L133.528 31.6541L44.3402 83.1452L44.0406 83.3163V157.787L43.5156 158.087V83.0167L43.8264 82.84L133.019 31.3433L133.774 30.9095L134.294 31.2097Z" fill="#39D192"/>
<g opacity="0.100006">
<path d="M134.29 31.2094L133.524 31.6538L44.3363 83.145L44.0367 83.3161V157.787L43.5117 158.087V83.0164L43.8225 82.8398L133.015 31.343L133.77 30.9092L134.29 31.2094Z" fill="black"/>
</g>
<path d="M133.53 31.6537L44.3426 83.1449V83.1505L44.043 83.3216V157.787L44.3426 157.616L44.3538 157.605L44.8782 157.306L45.4087 157L47.5403 155.768L133.53 106.125L134.296 105.685V31.2093L133.53 31.6537Z" fill="#39D192"/>
<g opacity="0.0500031">
<path d="M133.534 31.6535L44.3465 83.1447V83.1502L44.0469 83.3213V157.787L44.3465 157.616L44.3577 157.605L44.8821 157.305L45.4126 156.999L47.5442 155.768L133.534 106.124L134.3 105.685V31.2091L133.534 31.6535Z" fill="black"/>
</g>
<path d="M133.77 30.9102L134.294 31.2109L44.0383 83.3198L43.5156 83.0185L133.77 30.9102Z" fill="#39D192"/>
<g opacity="0.399994">
<path d="M133.774 30.9097L134.298 31.2104L44.0422 83.3193L43.5195 83.018L133.774 30.9097Z" fill="white"/>
</g>
<path d="M135.125 31.6916L134.29 32.1735L133.524 32.6179L107.465 47.661L44.872 83.7982V157.305L44.3477 157.605V83.4986L133.524 32.018L134.29 31.5736L134.605 31.3914L135.125 31.6916Z" fill="#39D192"/>
<g opacity="0.100006">
<path d="M135.121 31.6916L134.286 32.1735L133.52 32.6179L107.461 47.661L44.8681 83.7982V157.305L44.3438 157.605V83.4986L133.52 32.018L134.286 31.5736L134.601 31.3914L135.121 31.6916Z" fill="black"/>
</g>
<path d="M134.293 32.1735L133.527 32.618L107.468 47.6611L44.875 83.8039V157.305L45.4055 157L47.5371 155.769L133.527 106.125L134.293 105.686L135.128 105.204V31.6917L134.293 32.1735Z" fill="#39D192"/>
<path d="M134.61 31.392L135.133 31.6928L44.8782 83.8022L44.3555 83.5009L134.61 31.392Z" fill="#39D192"/>
<g opacity="0.399994">
<path d="M134.614 31.3923L135.137 31.693L44.8821 83.8025L44.3594 83.5012L134.614 31.3923Z" fill="white"/>
</g>
<path d="M136.727 33.491L135.125 34.4173L134.29 34.8992L133.524 35.3386L47.534 84.9821V155.768L45.4023 157V83.7506L133.524 32.8749L134.29 32.4305L134.59 32.2589L135.125 32.5697L136.727 33.491Z" fill="#EBEBEB"/>
<path d="M134.59 32.2567L136.725 33.4889L47.5379 84.9817L45.4023 83.7496L134.59 32.2567Z" fill="#FAFAFA"/>
<path d="M47.5391 84.9819V155.759L136.728 104.266L136.728 33.4891L47.5391 84.9819Z" fill="#E0E0E0"/>
<path d="M143.045 86.6345L136.722 33.4892L47.5312 84.9815L54.0345 138.575C58.1004 172.077 74.2482 202.944 99.4506 225.389L99.7397 225.647L188.931 174.154V174.154C163.403 151.609 147.069 120.455 143.045 86.6345Z" fill="#F5F5F5"/>
<path d="M51.8262 85.3383C52.4423 84.9822 52.9409 85.2701 52.9409 85.9818C52.9409 86.6934 52.4423 87.5588 51.8262 87.9138C51.2102 88.2699 50.7109 87.9814 50.7109 87.2704C50.7109 86.5593 51.2102 85.6944 51.8262 85.3383Z" fill="#37474F"/>
<path d="M48.6836 76.4406C47.4699 75.7401 46.306 75.6383 45.4076 76.1577C44.5098 76.6737 44.0156 77.7336 44.0156 79.1368C44.0156 79.6478 44.0844 80.18 44.2107 80.7183L44.9548 80.2873C44.8777 79.8976 44.8396 79.5102 44.8396 79.1368C44.8396 78.0383 45.1885 77.2338 45.8196 76.8688C46.4513 76.5037 47.3218 76.6049 48.2716 77.1545C50.3914 78.3759 52.1161 81.364 52.1161 83.8131C52.1161 84.4253 52.0059 84.9469 51.803 85.3505C51.6381 85.6691 51.4128 85.9162 51.1355 86.0783C51.1137 86.0923 51.0919 86.1029 51.0695 86.1141C50.8828 86.416 50.7537 86.7593 50.7185 87.0835C51.012 87.0365 51.292 86.9376 51.5475 86.7922C52.0831 86.482 52.4755 85.9822 52.7036 85.3287C52.8601 84.8893 52.9395 84.3789 52.9395 83.8131C52.9395 81.1029 51.031 77.794 48.6836 76.4406Z" fill="#39D192"/>
<path d="M57.2403 82.2106C57.8563 81.8545 58.355 82.1424 58.355 82.854C58.355 83.5657 57.8563 84.4311 57.2403 84.7866C56.6242 85.1422 56.125 84.8543 56.125 84.1432C56.125 83.4321 56.6242 82.5667 57.2403 82.2106Z" fill="#37474F"/>
<path d="M54.1015 73.3126C52.8879 72.6127 51.724 72.511 50.8256 73.0298C49.9278 73.5458 49.4336 74.6057 49.4336 76.0089C49.4336 76.5198 49.5024 77.0526 49.6287 77.5904L50.3728 77.1594C50.2956 76.7697 50.2576 76.3823 50.2576 76.0089C50.2576 74.9104 50.6059 74.1059 51.2376 73.7409C51.8693 73.3758 52.7392 73.477 53.6895 74.0265C55.8094 75.2486 57.534 78.2361 57.534 80.6852C57.534 81.2973 57.4261 81.8206 57.221 82.2226C57.0577 82.5423 56.8285 82.7844 56.5535 82.9504C56.5311 82.9638 56.5099 82.975 56.4881 82.9862C56.3008 83.2881 56.1722 83.6313 56.1364 83.9556C56.4299 83.9086 56.7106 83.8108 56.9655 83.6643C57.5022 83.3563 57.8913 82.8537 58.1216 82.2008C58.2764 81.7608 58.3575 81.2509 58.3575 80.6852C58.3575 77.975 56.4489 74.6661 54.1015 73.3126Z" fill="#39D192"/>
<path d="M62.6577 79.0824C63.2737 78.7263 63.7724 79.0148 63.7724 79.7258C63.7724 80.4375 63.2737 81.3029 62.6577 81.6584C62.0416 82.014 61.543 81.7261 61.543 81.015C61.543 80.3039 62.0416 79.4385 62.6577 79.0824Z" fill="#37474F"/>
<path d="M59.5195 70.1849C58.3058 69.485 57.1419 69.3833 56.2441 69.9021C55.3458 70.4181 54.8516 71.478 54.8516 72.8812C54.8516 73.3921 54.9203 73.9249 55.0467 74.4627L55.7907 74.0317C55.7136 73.642 55.6756 73.2546 55.6756 72.8812C55.6756 71.7832 56.0244 70.9782 56.6556 70.6132C57.2873 70.2481 58.1577 70.3499 59.1075 70.8988C61.2274 72.1209 62.952 75.1084 62.952 77.5575C62.952 78.1697 62.8441 78.6929 62.6389 79.0949C62.4757 79.4146 62.2465 79.6567 61.9714 79.8227C61.9496 79.8362 61.9278 79.8473 61.906 79.8585C61.7188 80.1604 61.5902 80.5036 61.5544 80.8279C61.8479 80.7815 62.1285 80.6831 62.3835 80.5366C62.9201 80.2286 63.3092 79.726 63.5395 79.0731C63.6944 78.6331 63.7755 78.1233 63.7755 77.5575C63.7755 74.8473 61.8675 71.5384 59.5195 70.1849Z" fill="#39D192"/>
<path d="M68.0757 75.9548C68.6917 75.5987 69.1904 75.8866 69.1904 76.5982C69.1904 77.3099 68.6917 78.1753 68.0757 78.5303C67.4596 78.8864 66.9609 78.5979 66.9609 77.8868C66.9609 77.1763 67.4596 76.3109 68.0757 75.9548Z" fill="#37474F"/>
<path d="M64.9375 67.0568C63.7238 66.3569 62.5599 66.2551 61.6615 66.7739C60.7637 67.2905 60.2695 68.3498 60.2695 69.7536C60.2695 70.264 60.3383 70.7967 60.4646 71.3351L61.2087 70.9035C61.1316 70.5139 61.0936 70.127 61.0936 69.7536C61.0936 68.6551 61.4424 67.8506 62.0735 67.4856C62.7053 67.1199 63.5757 67.2217 64.5255 67.7707C66.6453 68.9927 68.37 71.9802 68.37 74.4293C68.37 75.042 68.2621 75.5647 68.0569 75.9673C67.8937 76.2865 67.6645 76.5285 67.3894 76.6946C67.3676 76.708 67.3458 76.7197 67.324 76.7303C67.1367 77.0328 67.0082 77.3755 66.9724 77.6997C67.2659 77.6533 67.5465 77.5549 67.8014 77.409C68.3381 77.1004 68.7272 76.5978 68.9575 75.9449C69.1124 75.5055 69.1934 74.9951 69.1934 74.4293C69.1934 71.7191 67.2854 68.4108 64.9375 67.0568Z" fill="#39D192"/>
<path d="M73.4936 72.8268C74.1097 72.4707 74.6089 72.7586 74.6089 73.4702C74.6089 74.1819 74.1097 75.0473 73.4936 75.4028C72.8776 75.7584 72.3789 75.4705 72.3789 74.7594C72.3789 74.0483 72.8776 73.1829 73.4936 72.8268Z" fill="#37474F"/>
<path d="M70.3555 63.9291C69.1418 63.2292 67.9779 63.1269 67.0801 63.6462C66.1817 64.1622 65.6875 65.2221 65.6875 66.6253C65.6875 67.1363 65.7563 67.6685 65.8826 68.2068L66.6267 67.7758C66.5495 67.3862 66.5115 66.9988 66.5115 66.6253C66.5115 65.5268 66.8604 64.7224 67.4915 64.3573C68.1232 63.9923 68.9936 64.0934 69.9434 64.643C72.0633 65.865 73.7879 68.8525 73.7879 71.3017C73.7879 71.9138 73.68 72.4365 73.4749 72.839C73.3116 73.1588 73.0824 73.4008 72.8074 73.5669C72.7856 73.5803 72.7638 73.5915 72.742 73.6027C72.5547 73.9045 72.4261 74.2478 72.3903 74.572C72.6844 74.5251 72.9645 74.4272 73.2194 74.2808C73.7561 73.9722 74.1452 73.4702 74.3755 72.8172C74.5303 72.3772 74.6114 71.8674 74.6114 71.3017C74.6114 68.5915 72.7034 65.2825 70.3555 63.9291Z" fill="#39D192"/>
<path d="M78.9116 69.6991C79.5277 69.343 80.0263 69.6315 80.0263 70.3425C80.0263 71.0542 79.5277 71.9196 78.9116 72.2751C78.2955 72.6307 77.7969 72.3428 77.7969 71.6317C77.7969 70.9206 78.2955 70.0552 78.9116 69.6991Z" fill="#37474F"/>
<path d="M75.7695 60.8012C74.5558 60.1012 73.3919 59.9995 72.4941 60.5183C71.5958 61.0343 71.1016 62.0942 71.1016 63.4974C71.1016 64.0084 71.1703 64.5411 71.2967 65.0789L72.0407 64.6479C71.9636 64.2582 71.9256 63.8708 71.9256 63.4974C71.9256 62.3994 72.2744 61.5944 72.9056 61.2294C73.5373 60.8643 74.4077 60.9661 75.3575 61.515C77.4774 62.7371 79.202 65.7246 79.202 68.1737C79.202 68.7859 79.0941 69.3091 78.8889 69.7111C78.7257 70.0308 78.4965 70.2729 78.2214 70.4389C78.1996 70.4524 78.1778 70.4635 78.156 70.4747C77.9693 70.7766 77.8402 71.1199 77.8044 71.4441C78.0985 71.3977 78.3785 71.2993 78.6335 71.1528C79.1701 70.8448 79.5592 70.3422 79.7895 69.6893C79.9444 69.2493 80.0255 68.7395 80.0255 68.1737C80.0255 65.4635 78.1175 62.1546 75.7695 60.8012Z" fill="#39D192"/>
<path d="M84.3257 66.5712C84.9417 66.2151 85.4409 66.503 85.4409 67.2147C85.4409 67.9263 84.9417 68.7917 84.3257 69.1467C83.7096 69.5028 83.2109 69.2144 83.2109 68.5033C83.2109 67.7922 83.7096 66.9273 84.3257 66.5712Z" fill="#37474F"/>
<path d="M81.1875 57.6735C79.9738 56.973 78.8099 56.8713 77.9121 57.3906C77.0137 57.9066 76.5195 58.9665 76.5195 60.3697C76.5195 60.8807 76.5883 61.4129 76.7146 61.9512L77.4587 61.5202C77.3816 61.1306 77.3436 60.7431 77.3436 60.3697C77.3436 59.2712 77.6924 58.4667 78.3235 58.1017C78.9553 57.7366 79.8257 57.8378 80.7755 58.3874C82.8953 59.6089 84.62 62.5969 84.62 65.046C84.62 65.6582 84.5121 66.1809 84.3069 66.5834C84.1437 66.9032 83.9145 67.1452 83.6394 67.3113C83.6176 67.3247 83.5958 67.3359 83.574 67.347C83.3873 67.6489 83.2582 67.9922 83.2224 68.3164C83.5164 68.2694 83.7965 68.1716 84.0514 68.0251C84.5881 67.7166 84.9772 67.214 85.2075 66.5616C85.3624 66.1216 85.4434 65.6118 85.4434 65.046C85.4434 62.3358 83.5354 59.0269 81.1875 57.6735Z" fill="#39D192"/>
<path d="M89.7436 63.4433C90.3597 63.0872 90.8589 63.3751 90.8589 64.0868C90.8589 64.7984 90.3597 65.6638 89.7436 66.0194C89.1281 66.3749 88.6289 66.0865 88.6289 65.3759C88.6289 64.6648 89.1281 63.7994 89.7436 63.4433Z" fill="#37474F"/>
<path d="M86.6055 54.5458C85.3918 53.8459 84.2279 53.7436 83.3301 54.2629C82.4317 54.7789 81.9375 55.8388 81.9375 57.242C81.9375 57.753 82.0063 58.2852 82.1326 58.8235L82.8767 58.3925C82.7995 58.0029 82.7615 57.6155 82.7615 57.242C82.7615 56.1435 83.1104 55.3391 83.7415 54.974C84.3732 54.609 85.2436 54.7101 86.194 55.2597C88.3133 56.4812 90.0379 59.4692 90.0379 61.9184C90.0379 62.5305 89.9278 63.0521 89.7249 63.4557C89.56 63.7744 89.3347 64.0215 89.0574 64.1836C89.0356 64.1975 89.0138 64.2082 88.992 64.2194C88.8053 64.5212 88.6761 64.8645 88.6403 65.1887C88.9344 65.1418 89.2139 65.0428 89.4694 64.8975C90.005 64.5872 90.3974 64.0874 90.6255 63.4339C90.782 62.9945 90.8614 62.4841 90.8614 61.9184C90.8614 59.2082 88.9534 55.8992 86.6055 54.5458Z" fill="#39D192"/>
<path d="M95.1616 60.3154C95.7777 59.9593 96.2769 60.2472 96.2769 60.9589C96.2769 61.6705 95.7777 62.5359 95.1616 62.8914C94.5461 63.247 94.0469 62.9585 94.0469 62.248C94.0469 61.5369 94.5461 60.6715 95.1616 60.3154Z" fill="#37474F"/>
<path d="M92.0234 51.4179C90.8098 50.7179 89.6458 50.6162 88.748 51.135C87.8497 51.651 87.3555 52.7109 87.3555 54.1141C87.3555 54.625 87.4242 55.1573 87.5506 55.6956L88.2946 55.2646C88.2181 54.8749 88.1795 54.4875 88.1795 54.1141C88.1795 53.0156 88.5283 52.2111 89.1595 51.8461C89.7912 51.481 90.6616 51.5822 91.612 52.1317C93.7313 53.3532 95.4559 56.3413 95.4559 58.7904C95.4559 59.4026 95.348 59.9253 95.1428 60.3278C94.9802 60.6475 94.7504 60.8896 94.4754 61.0556C94.4536 61.0691 94.4317 61.0802 94.4099 61.0914C94.2232 61.3933 94.0941 61.7366 94.0583 62.0608C94.3524 62.0138 94.6324 61.916 94.8874 61.7695C95.424 61.4609 95.8131 60.9589 96.0435 60.306C96.1983 59.866 96.2794 59.3562 96.2794 58.7904C96.2794 56.0802 94.3714 52.7713 92.0234 51.4179Z" fill="#39D192"/>
<path d="M100.58 57.1876C101.196 56.8315 101.695 57.1194 101.695 57.8311C101.695 58.5427 101.196 59.4081 100.58 59.7637C99.9641 60.1192 99.4648 59.8313 99.4648 59.1202C99.4648 58.4091 99.9641 57.5437 100.58 57.1876Z" fill="#37474F"/>
<path d="M97.4414 48.2899C96.2277 47.59 95.0633 47.4883 94.1654 48.0071C93.2676 48.523 92.7734 49.583 92.7734 50.9862C92.7734 51.4971 92.8416 52.0299 92.9685 52.5677L93.7126 52.1367C93.6355 51.747 93.5975 51.3596 93.5975 50.9862C93.5975 49.8882 93.9457 49.0832 94.5774 48.7182C95.2086 48.3531 96.079 48.4548 97.0294 49.0038C99.1492 50.2259 100.873 53.2134 100.873 55.6625C100.873 56.2746 100.766 56.7979 100.561 57.1998C100.398 57.5196 100.168 57.7617 99.8933 57.9277C99.871 57.9411 99.8497 57.9529 99.8274 57.9635C99.6406 58.2654 99.5115 58.6086 99.4757 58.9329C99.7698 58.8865 100.05 58.7881 100.305 58.6416C100.842 58.3336 101.231 57.831 101.461 57.178C101.616 56.7381 101.697 56.2282 101.697 55.6625C101.697 52.9523 99.7888 49.6434 97.4414 48.2899Z" fill="#39D192"/>
<path d="M105.994 54.0598C106.61 53.7037 107.109 53.9916 107.109 54.7032C107.109 55.4149 106.61 56.2803 105.994 56.6352C105.378 56.9913 104.879 56.7029 104.879 55.9918C104.879 55.2807 105.378 54.4159 105.994 54.0598Z" fill="#37474F"/>
<path d="M102.859 45.1622C101.646 44.4618 100.482 44.36 99.5834 44.8794C98.6856 45.3954 98.1914 46.4553 98.1914 47.8585C98.1914 48.3694 98.2596 48.9016 98.3865 49.44L99.1306 49.009C99.0534 48.6193 99.0154 48.2319 99.0154 47.8585C99.0154 46.76 99.3637 45.9555 99.9954 45.5905C100.627 45.2254 101.497 45.3266 102.447 45.8761C104.567 47.0976 106.292 50.0857 106.292 52.5348C106.292 53.147 106.182 53.6685 105.979 54.0722C105.814 54.3908 105.589 54.6379 105.311 54.8C105.289 54.8134 105.267 54.8246 105.245 54.8358C105.059 55.1377 104.929 55.4809 104.894 55.8052C105.188 55.7582 105.468 55.6593 105.723 55.5139C106.259 55.2037 106.651 54.7039 106.879 54.0504C107.036 53.611 107.115 53.1006 107.115 52.5348C107.115 49.8246 105.207 46.5157 102.859 45.1622Z" fill="#39D192"/>
<path d="M111.408 50.9332C112.024 50.5771 112.523 50.865 112.523 51.5767C112.523 52.2883 112.024 53.1537 111.408 53.5093C110.792 53.8648 110.293 53.5769 110.293 52.8658C110.293 52.1547 110.792 51.2893 111.408 50.9332Z" fill="#37474F"/>
<path d="M108.27 42.0355C107.056 41.3356 105.892 41.2339 104.994 41.7527C104.096 42.2687 103.602 43.3286 103.602 44.7318C103.602 45.2427 103.67 45.7755 103.797 46.3133L104.541 45.8823C104.464 45.4926 104.426 45.1052 104.426 44.7318C104.426 43.6338 104.774 42.8288 105.406 42.4638C106.037 42.0987 106.907 42.1999 107.858 42.7494C109.977 43.9715 111.702 46.959 111.702 49.4081C111.702 50.0202 111.594 50.5435 111.389 50.9455C111.226 51.2652 110.996 51.5073 110.721 51.6733C110.699 51.6867 110.677 51.6979 110.655 51.7091C110.469 52.011 110.34 52.3542 110.304 52.6785C110.598 52.6315 110.879 52.5337 111.133 52.3872C111.67 52.0792 112.059 51.5766 112.289 50.9237C112.444 50.4837 112.525 49.9738 112.525 49.4081C112.525 46.6979 110.617 43.389 108.27 42.0355Z" fill="#39D192"/>
<path d="M116.826 47.8056C117.442 47.4495 117.941 47.7374 117.941 48.4491C117.941 49.1607 117.442 50.0261 116.826 50.3811C116.21 50.7372 115.711 50.4487 115.711 49.7376C115.711 49.0265 116.21 48.1617 116.826 47.8056Z" fill="#37474F"/>
<path d="M113.687 38.9078C112.474 38.2079 111.31 38.1062 110.412 38.625C109.514 39.141 109.02 40.2009 109.02 41.6041C109.02 42.115 109.088 42.6478 109.215 43.1856L109.959 42.7546C109.882 42.3649 109.844 41.9781 109.844 41.6041C109.844 40.5061 110.192 39.7011 110.824 39.3366C111.455 38.971 112.325 39.0728 113.275 39.6217C115.395 40.8438 117.12 43.8313 117.12 46.2804C117.12 46.8926 117.01 47.4147 116.807 47.8178C116.642 48.1364 116.417 48.3841 116.139 48.5456C116.118 48.5596 116.096 48.5708 116.073 48.5814C115.887 48.8833 115.758 49.2265 115.722 49.5508C116.016 49.5044 116.296 49.4054 116.551 49.2595C117.087 48.9493 117.479 48.4495 117.707 47.796C117.864 47.3566 117.943 46.8462 117.943 46.2804C117.943 43.5702 116.035 40.2618 113.687 38.9078Z" fill="#39D192"/>
<path d="M122.244 44.6777C122.86 44.3216 123.359 44.6095 123.359 45.3211C123.359 46.0328 122.86 46.8982 122.244 47.2532C121.628 47.6093 121.129 47.3208 121.129 46.6097C121.129 45.8986 121.628 45.0338 122.244 44.6777Z" fill="#37474F"/>
<path d="M119.105 35.7797C117.892 35.0798 116.728 34.978 115.83 35.4968C114.932 36.0128 114.438 37.0727 114.438 38.4765C114.438 38.9869 114.506 39.5196 114.633 40.058L115.377 39.6264C115.3 39.2368 115.262 38.8499 115.262 38.4765C115.262 37.378 115.61 36.5735 116.242 36.2085C116.873 35.8428 117.743 35.9446 118.693 36.4936C120.813 37.7156 122.538 40.7031 122.538 43.1522C122.538 43.7649 122.43 44.2876 122.225 44.6896C122.062 45.0094 121.832 45.2514 121.557 45.4175C121.536 45.4309 121.514 45.4426 121.492 45.4532C121.305 45.7551 121.176 46.0984 121.14 46.4226C121.434 46.3762 121.714 46.2778 121.969 46.1319C122.506 45.8233 122.895 45.3207 123.125 44.6678C123.28 44.2284 123.361 43.718 123.361 43.1522C123.361 40.442 121.453 37.1337 119.105 35.7797Z" fill="#39D192"/>
<path d="M127.662 41.5498C128.278 41.1937 128.776 41.4816 128.776 42.1932C128.776 42.9049 128.278 43.7703 127.662 44.1258C127.046 44.4814 126.547 44.1929 126.547 43.4818C126.547 42.7713 127.046 41.9059 127.662 41.5498Z" fill="#37474F"/>
<path d="M124.523 32.652C123.31 31.9515 122.146 31.8498 121.247 32.3691C120.35 32.8851 119.855 33.945 119.855 35.3482C119.855 35.8592 119.924 36.3914 120.051 36.9297L120.795 36.4987C120.718 36.1091 120.679 35.7217 120.679 35.3482C120.679 34.2497 121.028 33.4453 121.659 33.0802C122.291 32.7152 123.162 32.8163 124.111 33.3659C126.231 34.5874 127.956 37.5754 127.956 40.0246C127.956 40.6367 127.848 41.1594 127.643 41.5619C127.48 41.8817 127.25 42.1237 126.975 42.2898C126.954 42.3032 126.932 42.3144 126.91 42.3256C126.723 42.6274 126.594 42.9707 126.558 43.2949C126.852 43.248 127.132 43.1501 127.387 43.0037C127.924 42.6951 128.313 42.1931 128.543 41.5401C128.698 41.1001 128.779 40.5903 128.779 40.0246C128.779 37.3144 126.871 34.0054 124.523 32.652Z" fill="#39D192"/>
<path d="M133.08 38.422C133.695 38.0659 134.195 38.3538 134.195 39.0654C134.195 39.7771 133.695 40.6425 133.08 40.998C132.464 41.3536 131.965 41.0657 131.965 40.3546C131.965 39.6435 132.464 38.7781 133.08 38.422Z" fill="#37474F"/>
<path d="M129.937 29.5241C128.724 28.8241 127.56 28.7224 126.662 29.2412C125.764 29.7572 125.27 30.8171 125.27 32.2203C125.27 32.7313 125.338 33.264 125.465 33.8018L126.209 33.3708C126.132 32.9811 126.094 32.5937 126.094 32.2203C126.094 31.1218 126.442 30.3173 127.074 29.9523C127.705 29.5872 128.576 29.689 129.525 30.2379C131.645 31.46 133.37 34.4475 133.37 36.8966C133.37 37.5088 133.26 38.0304 133.057 38.434C132.892 38.7526 132.667 38.9997 132.389 39.1618C132.368 39.1758 132.346 39.1864 132.324 39.1976C132.137 39.4995 132.008 39.8428 131.972 40.167C132.266 40.12 132.546 40.0211 132.801 39.8757C133.337 39.5655 133.729 39.0657 133.958 38.4122C134.114 37.9728 134.193 37.4624 134.193 36.8966C134.193 34.1864 132.285 30.8775 129.937 29.5241Z" fill="#39D192"/>
<g opacity="0.399994">
<path d="M129.937 29.5241C128.724 28.8242 127.56 28.7224 126.662 29.2412C125.763 29.7572 125.269 30.8171 125.269 32.2203C125.269 32.5507 125.307 32.8911 125.362 33.235C125.09 33.0147 124.808 32.8179 124.52 32.6519C123.307 31.952 122.142 31.8502 121.244 32.369C120.346 32.8856 119.852 33.9455 119.852 35.3481C119.852 35.6779 119.89 36.019 119.944 36.3628C119.672 36.1419 119.391 35.9457 119.103 35.7797C117.889 35.0798 116.725 34.978 115.827 35.4968C114.929 36.0128 114.435 37.0727 114.435 38.4759C114.435 38.8063 114.473 39.1468 114.527 39.4906C114.255 39.2703 113.973 39.0741 113.686 38.9075C112.472 38.2076 111.307 38.1058 110.41 38.6246C109.512 39.1412 109.018 40.2011 109.018 41.6037C109.018 41.9341 109.056 42.2746 109.11 42.6184C108.838 42.3981 108.556 42.2019 108.268 42.0353C107.054 41.3354 105.89 41.2336 104.992 41.753C104.094 42.269 103.6 43.3289 103.6 44.7321C103.6 45.0597 103.637 45.3979 103.691 45.7395C103.421 45.5215 103.142 45.3269 102.857 45.162C101.643 44.4615 100.479 44.3603 99.581 44.8791C98.6832 45.3951 98.1885 46.455 98.1885 47.8582C98.1885 48.1881 98.2265 48.5291 98.2813 48.8729C98.009 48.6521 97.7273 48.4558 97.4394 48.2898C96.2257 47.5893 95.0612 47.4881 94.1634 48.0069C93.2656 48.5229 92.7714 49.5829 92.7714 50.986C92.7714 51.3159 92.8094 51.6569 92.8637 52.0007C92.5914 51.7804 92.3102 51.5836 92.0217 51.4176C90.8081 50.7177 89.6442 50.616 88.7464 51.1347C87.848 51.6513 87.3544 52.7112 87.3544 54.1138C87.3544 54.4442 87.3924 54.7847 87.4466 55.1285C87.1743 54.9082 86.8926 54.712 86.6047 54.5454C85.391 53.8455 84.2265 53.7438 83.3287 54.2625C82.4309 54.7791 81.9367 55.8385 81.9367 57.2422C81.9367 57.5715 81.9747 57.9125 82.029 58.2563C81.7567 58.036 81.4755 57.8393 81.1871 57.6738C79.9734 56.9733 78.8095 56.8716 77.9117 57.3904C77.0139 57.9069 76.5197 58.9668 76.5197 60.37C76.5197 60.6998 76.5577 61.0403 76.6119 61.3841C76.3397 61.1638 76.0585 60.9676 75.77 60.801C74.5563 60.1011 73.3924 59.9994 72.4941 60.5182C71.5962 61.0347 71.102 62.0946 71.102 63.4973C71.102 63.8277 71.1401 64.1681 71.1943 64.5119C70.9226 64.2917 70.6408 64.0954 70.3529 63.9288C69.1393 63.2289 67.9748 63.1272 67.077 63.6465C66.1792 64.1625 65.6844 65.2225 65.6844 66.6256C65.6844 66.9555 65.723 67.2959 65.7772 67.6397C65.505 67.4195 65.2238 67.2232 64.9353 67.0567C63.7217 66.3567 62.5577 66.255 61.6599 66.7738C60.7616 67.2903 60.2674 68.3503 60.2674 69.7534C60.2674 70.0833 60.3054 70.4237 60.3602 70.7675C60.0874 70.5473 59.8062 70.3511 59.5183 70.1845C58.3046 69.4845 57.1401 69.3828 56.2423 69.9021C55.3445 70.4181 54.8503 71.4781 54.8503 72.8812C54.8503 73.2111 54.8883 73.5515 54.9426 73.8953C54.6703 73.6751 54.3891 73.4789 54.1006 73.3128C52.887 72.6124 51.7231 72.5112 50.8247 73.03C49.9269 73.5459 49.4327 74.6059 49.4327 76.0091C49.4327 76.3389 49.4713 76.6799 49.5255 77.0232C49.2527 76.8029 48.9715 76.6067 48.6836 76.4406C47.4699 75.7402 46.3054 75.6384 45.4076 76.1572C44.5098 76.6738 44.0156 77.7337 44.0156 79.1369C44.0156 79.6478 44.0844 80.18 44.2102 80.7184L44.9548 80.2874C44.8777 79.8972 44.8391 79.5103 44.8391 79.1369C44.8391 78.0384 45.1879 77.2339 45.8196 76.8689C46.4513 76.5038 47.3212 76.605 48.2716 77.1545C50.3914 78.376 52.1155 81.3635 52.1155 83.8126C52.1155 84.4253 52.0059 84.9469 51.8024 85.3506C51.6381 85.6692 51.4128 85.9163 51.1355 86.0784C51.1131 86.0918 51.0913 86.103 51.0695 86.1142C50.8828 86.4161 50.7537 86.7593 50.7179 87.083C51.012 87.0366 51.292 86.9377 51.5475 86.7923C52.0825 86.482 52.4755 85.9823 52.7036 85.3288C52.8601 84.8893 52.9395 84.379 52.9395 83.8126C52.9395 81.6145 51.6839 79.0228 49.9565 77.3999L50.3719 77.1596C50.2953 76.7693 50.2567 76.3825 50.2567 76.0091C50.2567 74.9106 50.6055 74.1061 51.2367 73.741C51.8684 73.3754 52.7388 73.4772 53.6886 74.0262C55.8085 75.2488 57.5331 78.2357 57.5331 80.6854C57.5331 81.2975 57.4258 81.8202 57.2201 82.2227C57.0568 82.542 56.8276 82.784 56.5526 82.9506C56.5302 82.964 56.509 82.9752 56.4866 82.9858C56.2999 83.2883 56.1713 83.6315 56.1355 83.9552C56.429 83.9088 56.7097 83.811 56.9646 83.6645C57.5013 83.3559 57.8909 82.8539 58.1207 82.2009C58.2761 81.761 58.3571 81.2506 58.3571 80.6854C58.3571 78.4867 57.101 75.8956 55.3741 74.2721L55.7895 74.0317C55.7123 73.6415 55.6738 73.2547 55.6738 72.8812C55.6738 71.7827 56.0226 70.9783 56.6543 70.6132C57.286 70.2482 58.1559 70.3494 59.1062 70.8989C61.2261 72.1204 62.9502 75.1079 62.9502 77.557C62.9502 78.1697 62.8428 78.6924 62.6371 79.0949C62.4744 79.4147 62.2452 79.6568 61.9702 79.8228C61.9478 79.8362 61.926 79.8474 61.9042 79.8586C61.7175 80.1605 61.5884 80.5032 61.5526 80.8274C61.8466 80.781 62.1273 80.6832 62.3822 80.5361C62.9183 80.2281 63.308 79.7255 63.5383 79.0731C63.6931 78.6332 63.7742 78.1228 63.7742 77.557C63.7742 75.3589 62.518 72.7678 60.7912 71.1443L61.2065 70.9039C61.1294 70.5137 61.0914 70.1269 61.0914 69.7534C61.0914 68.6549 61.4402 67.8505 62.0714 67.4854C62.7031 67.1198 63.5735 67.2216 64.5233 67.7711C66.6432 68.9926 68.3678 71.9801 68.3678 74.4298C68.3678 75.0419 68.2599 75.5646 68.0547 75.9671C67.8915 76.2863 67.6623 76.529 67.3873 76.6944C67.3654 76.7079 67.3437 76.7196 67.3218 76.7302C67.1346 77.0321 67.006 77.3759 66.9702 77.6996C67.2637 77.6532 67.5443 77.5548 67.7993 77.4089C68.3359 77.1003 68.725 76.5977 68.9554 75.9453C69.1102 75.5054 69.1913 74.995 69.1913 74.4298C69.1913 72.2317 67.9357 69.6394 66.2088 68.0165L66.6242 67.7761C66.547 67.3859 66.5084 66.9991 66.5084 66.6256C66.5084 65.5271 66.8573 64.7227 67.4884 64.3576C68.1201 63.992 68.9906 64.0938 69.9409 64.6427C72.0608 65.8648 73.7849 68.8523 73.7849 71.3014C73.7849 71.9141 73.6775 72.4368 73.4718 72.8393C73.3091 73.1585 73.0794 73.4006 72.8049 73.5666C72.7825 73.5806 72.7607 73.5918 72.7389 73.6024C72.5522 73.9048 72.4231 74.2475 72.3873 74.5718C72.6813 74.5254 72.962 74.4275 73.2169 74.2811C73.753 73.9725 74.1426 73.4699 74.3724 72.817C74.5278 72.3776 74.6089 71.8672 74.6089 71.3014C74.6089 69.1033 73.3533 66.5116 71.6259 64.8887L72.0412 64.6483C71.9641 64.2581 71.9255 63.8707 71.9255 63.4973C71.9255 62.3993 72.2749 61.5949 72.9061 61.2293C73.5378 60.8648 74.4082 60.966 75.358 61.5149C77.4779 62.737 79.2025 65.7245 79.2025 68.1736C79.2025 68.7858 79.0946 69.309 78.8894 69.7115C78.7262 70.0307 78.497 70.2728 78.2219 70.4388C78.2001 70.4522 78.1783 70.4634 78.1565 70.4746C77.9698 70.7765 77.8407 71.1203 77.8049 71.444C78.0984 71.397 78.379 71.2997 78.6339 71.1527C79.1706 70.8447 79.5597 70.3421 79.79 69.6897C79.9449 69.2498 80.0259 68.7394 80.0259 68.1736C80.0259 65.9755 78.7704 63.3838 77.0435 61.7609L77.4583 61.52C77.3817 61.1303 77.3431 60.7435 77.3431 60.37C77.3431 59.2715 77.692 58.4671 78.3231 58.102C78.9548 57.7364 79.8252 57.8381 80.7756 58.3871C82.8955 59.6092 84.6195 62.5967 84.6195 65.0458C84.6195 65.6585 84.5122 66.1812 84.3065 66.5837C84.1432 66.9029 83.914 67.145 83.6396 67.311C83.6172 67.3244 83.5954 67.3362 83.5736 67.3468C83.3869 67.6487 83.2577 67.9925 83.222 68.3162C83.5154 68.2698 83.7961 68.1714 84.051 68.0255C84.5877 67.7169 84.9773 67.2143 85.2071 66.5613C85.3625 66.1219 85.4436 65.6115 85.4436 65.0458C85.4436 62.8477 84.188 60.256 82.4605 58.6331L82.8759 58.3927C82.7988 58.0025 82.7602 57.6156 82.7602 57.2422C82.7602 56.1437 83.109 55.3392 83.7407 54.9736C84.3725 54.6086 85.2429 54.7103 86.1927 55.2593C88.3125 56.4814 90.0366 59.4689 90.0366 61.918C90.0366 62.5307 89.927 63.0523 89.7241 63.4559C89.5592 63.7745 89.3339 64.0211 89.0566 64.1832C89.0348 64.1972 89.0125 64.2078 88.9907 64.219C88.8039 64.5214 88.6748 64.8641 88.639 65.1884C88.9331 65.1414 89.2131 65.043 89.4686 64.8971C90.0042 64.5868 90.3966 64.0871 90.6247 63.4335C90.7812 62.9947 90.8606 62.4837 90.8606 61.918C90.8606 59.7199 89.605 57.1282 87.8782 55.5053L88.293 55.2643C88.2164 54.8747 88.1778 54.4873 88.1778 54.1138C88.1778 53.0153 88.5266 52.2114 89.1584 51.8458C89.7895 51.4808 90.6599 51.5825 91.6097 52.1315C93.7296 53.353 95.4542 56.341 95.4542 58.7902C95.4542 59.4023 95.3469 59.925 95.1412 60.3281C94.9785 60.6473 94.7493 60.8894 94.4737 61.0554C94.4519 61.0688 94.4301 61.08 94.4083 61.0912C94.2216 61.3931 94.0924 61.7363 94.0566 62.0605C94.3507 62.0136 94.6313 61.9158 94.8857 61.7693C95.4224 61.4607 95.812 60.9587 96.0418 60.3057C96.1972 59.8658 96.2782 59.3559 96.2782 58.7902C96.2782 56.5921 95.0221 54.0004 93.2952 52.3769L93.7106 52.1365C93.634 51.7469 93.5954 51.3595 93.5954 50.986C93.5954 49.8881 93.9437 49.0831 94.5754 48.718C95.2071 48.353 96.0776 48.4547 97.0274 49.0037C99.1472 50.2257 100.872 53.2132 100.872 55.6624C100.872 56.2745 100.764 56.7978 100.559 57.1997C100.396 57.5195 100.166 57.7616 99.8913 57.9276C99.8689 57.941 99.8471 57.9522 99.8253 57.9634C99.6386 58.2652 99.5095 58.6085 99.4737 58.9327C99.7678 58.8858 100.048 58.7879 100.303 58.6415C100.84 58.3334 101.229 57.8309 101.459 57.1779C101.614 56.738 101.695 56.2281 101.695 55.6624C101.695 53.4642 100.44 50.8725 98.7128 49.2491L99.1282 49.0087C99.0511 48.6191 99.0125 48.2317 99.0125 47.8582C99.0125 46.7603 99.3613 45.9553 99.993 45.5902C100.624 45.2252 101.495 45.3269 102.445 45.8759C104.564 47.0979 106.289 50.0854 106.289 52.5346C106.289 53.1467 106.179 53.6683 105.976 54.0719C105.811 54.3906 105.586 54.6377 105.309 54.7998C105.287 54.8132 105.265 54.8244 105.243 54.8356C105.056 55.1374 104.927 55.4807 104.891 55.8049C105.185 55.758 105.465 55.659 105.72 55.5137C106.256 55.2034 106.648 54.7036 106.876 54.0501C107.033 53.6107 107.113 53.1003 107.113 52.5346C107.113 50.3359 105.856 47.7431 104.129 46.1202L104.539 45.8826C104.463 45.4924 104.424 45.1055 104.424 44.7321C104.424 43.6336 104.772 42.8291 105.404 42.4635C106.036 42.0985 106.906 42.2002 107.856 42.7492C109.976 43.9712 111.7 46.9587 111.7 49.4079C111.7 50.0206 111.593 50.5433 111.387 50.9458C111.224 51.265 110.995 51.5071 110.72 51.6736C110.697 51.6871 110.676 51.6982 110.654 51.7089C110.467 52.0113 110.338 52.354 110.303 52.6782C110.596 52.6313 110.877 52.5334 111.132 52.387C111.669 52.0789 112.058 51.5764 112.288 50.924C112.443 50.484 112.524 49.9736 112.524 49.4079C112.524 47.2097 111.268 44.618 109.541 42.9952L109.956 42.7548C109.88 42.3646 109.841 41.9777 109.841 41.6037C109.841 40.5058 110.19 39.7013 110.822 39.3363C111.453 38.9707 112.323 39.0724 113.274 39.6214C115.393 40.8434 117.117 43.8309 117.117 46.2801C117.117 46.8922 117.008 47.4143 116.804 47.818C116.64 48.1361 116.415 48.3837 116.137 48.5453C116.115 48.5593 116.093 48.5704 116.071 48.5811C115.885 48.8829 115.756 49.2267 115.72 49.5504C116.014 49.504 116.294 49.4051 116.549 49.2592C117.084 48.9495 117.477 48.4497 117.705 47.7962C117.862 47.3562 117.941 46.8458 117.941 46.2801C117.941 44.0819 116.685 41.4902 114.958 39.8674L115.374 39.6264C115.297 39.2368 115.259 38.8499 115.259 38.4759C115.259 37.378 115.607 36.5735 116.239 36.2085C116.87 35.8429 117.741 35.9446 118.691 36.4936C120.81 37.7156 122.535 40.7031 122.535 43.1523C122.535 43.7644 122.427 44.2877 122.222 44.6896C122.059 45.0094 121.83 45.2514 121.555 45.4175C121.533 45.4309 121.511 45.4426 121.489 45.4533C121.302 45.7551 121.173 46.0984 121.137 46.4226C121.431 46.3762 121.712 46.2778 121.967 46.1314C122.503 45.8233 122.892 45.3208 123.123 44.6678C123.277 44.2284 123.359 43.718 123.359 43.1523C123.359 40.9541 122.103 38.3624 120.376 36.7396L120.791 36.4992C120.714 36.109 120.676 35.7215 120.676 35.3481C120.676 34.2502 121.025 33.4457 121.656 33.0801C122.287 32.715 123.158 32.8168 124.108 33.3658C126.228 34.5878 127.952 37.5753 127.952 40.0245C127.952 40.6366 127.845 41.1593 127.639 41.5624C127.476 41.8816 127.247 42.1236 126.972 42.2897C126.95 42.3031 126.928 42.3143 126.906 42.3254C126.719 42.6273 126.59 42.9706 126.555 43.2948C126.849 43.2479 127.129 43.15 127.384 43.0036C127.921 42.6955 128.31 42.193 128.54 41.54C128.695 41.1006 128.776 40.5902 128.776 40.0245C128.776 37.8263 127.521 35.2346 125.793 33.6117L126.208 33.3708C126.131 32.9811 126.093 32.5937 126.093 32.2203C126.093 31.1218 126.442 30.3173 127.073 29.9523C127.705 29.5872 128.575 29.689 129.525 30.238C131.645 31.46 133.37 34.4475 133.37 36.8966C133.37 37.5088 133.26 38.0304 133.057 38.434C132.892 38.7526 132.666 38.9997 132.389 39.1619C132.367 39.1758 132.346 39.1865 132.324 39.1976C132.137 39.4995 132.007 39.8428 131.972 40.167C132.266 40.12 132.546 40.0211 132.801 39.8757C133.337 39.5655 133.729 39.0657 133.957 38.4122C134.114 37.9728 134.193 37.4624 134.193 36.8966C134.193 34.1864 132.285 30.8775 129.937 29.5241Z" fill="black"/>
</g>
<path d="M56.8256 92.0377L130.215 49.6694C131.496 48.9298 132.676 49.5207 132.852 50.9893L134.067 61.0285C134.242 62.4971 133.346 64.2865 132.065 65.0256L58.7029 107.356C57.4221 108.095 56.2386 107.504 56.0586 106.036L54.8315 96.0342C54.6521 94.5662 55.5449 92.7773 56.8256 92.0377Z" fill="#39D192"/>
<path d="M63.3736 100.018L62.4048 100.779L61.0681 94.2977L60.7757 100.761L61.46 100.532L61.4136 101.221L59.4844 102.335L59.5302 101.645L60.1614 101.116L60.4683 94.3245L59.8226 94.4956L59.869 93.8303L61.8597 92.6815L63.0505 98.6196L64.3726 91.2308L66.3477 90.0898L66.3018 90.7791L65.7484 91.2644L65.9021 97.8135L66.578 97.5764L66.5321 98.2657L64.2653 99.575L64.3111 98.8857L64.9411 98.368L64.8109 91.9939L63.3736 100.018Z" fill="#FAFAFA"/>
<path d="M67.7789 100.257C67.3479 100.505 67.0561 100.331 67.0561 99.8218C67.0561 99.1823 67.3026 98.7093 67.709 98.427L67.8091 98.7596C67.8862 98.9872 67.9634 99.18 68.1551 99.0688C68.3469 98.9581 68.4626 98.607 68.5856 98.1223L68.9009 96.8992L68.7007 97.0143C68.3933 97.1921 68.1937 97.082 68.0014 96.7203C67.7403 96.2082 67.5866 95.0432 67.5866 93.5287L67.5939 92.6242C67.5939 92.3766 67.5402 92.324 67.425 92.3911C67.3099 92.4576 67.1483 92.6455 67.0331 92.7707L66.9102 92.1915C67.0795 91.9517 67.5094 91.4664 67.8862 91.2495C68.4084 90.9477 68.5705 91.3155 68.5705 91.9427C68.5705 92.2156 68.5548 92.4839 68.5548 92.8389C68.5548 94.2236 68.6622 95.0722 68.8388 95.6212C68.9316 95.9113 69.0311 95.9007 69.1385 95.8387L69.1698 95.8208L69.9921 92.2698C70.1531 91.5732 70.0687 91.4558 69.8149 91.4614L69.546 91.4625C69.4543 90.7464 69.7696 90.1622 70.1453 89.9447C70.5221 89.7278 70.7681 89.9403 70.7681 90.6022C70.7681 91.325 70.5299 92.3022 70.2538 93.4443L69.2844 97.352C68.9467 98.73 68.6163 99.7732 67.7789 100.257Z" fill="#FAFAFA"/>
<path d="M75.0914 90.9203L74.7996 92.6029C74.9069 92.6354 75.0685 92.6728 75.3759 92.4956C76.0909 92.083 76.3677 90.4557 76.3677 89.024C76.3677 88.3023 76.3677 87.4028 76.0138 87.6068C75.5984 87.8467 75.4754 88.6746 75.0914 90.9203ZM73.724 93.7216L73.9157 85.8129L73.3008 85.9197L73.3472 85.2544L74.6995 84.4729L74.823 84.5316L74.7302 88.5019L74.4999 91.4156L74.5614 91.4038L74.8454 89.6065C75.1378 87.7701 75.4603 86.8734 76.1983 86.448C77.0284 85.9689 77.3974 86.7845 77.3974 88.3464C77.3974 90.8073 76.5823 92.627 75.3838 93.3196C74.8683 93.6165 74.0544 93.8267 73.724 93.7216Z" fill="#FAFAFA"/>
<path d="M78.1172 83.1374L78.1787 82.4626L79.5623 81.6638L79.6853 81.723L79.5159 89.5121C79.5086 89.8352 79.5472 89.9906 79.716 89.8928C79.8463 89.8179 79.9849 89.62 80.123 89.398L80.3008 89.8637C80.1459 90.165 79.7088 90.8208 79.2783 91.069C78.802 91.3446 78.5326 91.1092 78.556 90.2561L78.7478 83.0211L78.1172 83.1374Z" fill="#FAFAFA"/>
<path d="M83.3718 85.2888C83.3718 83.9991 83.2488 83.1588 82.6719 83.4914C81.9652 83.9001 81.8501 85.3273 81.8501 86.6522C81.8501 87.919 82.0111 88.7011 82.5645 88.3813C83.241 87.9911 83.3718 86.7204 83.3718 85.2888ZM82.7188 82.6842C83.8788 82.015 84.4015 82.9436 84.4015 84.7062C84.4015 86.5052 83.8481 88.4333 82.4958 89.2137C81.404 89.8443 80.8125 89.0259 80.8125 87.2392C80.8125 85.4643 81.3045 83.501 82.7188 82.6842Z" fill="#FAFAFA"/>
<path d="M87.5813 82.3728L87.8424 80.7896C87.6506 80.7465 87.5204 80.751 87.2895 80.884C86.5672 81.3011 86.2827 82.8261 86.2827 84.4473C86.2827 85.5 86.3291 86.0294 86.6667 85.8343C87.02 85.6297 87.1587 84.9471 87.5813 82.3728ZM87.9424 82.7786L87.7809 83.7592C87.4505 85.7493 87.1659 86.504 86.4979 86.8903C85.6213 87.3963 85.2451 86.4308 85.2451 85.022C85.2451 82.8099 85.9752 80.8024 87.0972 80.1551C87.3661 79.9996 87.7429 79.8772 88.0425 79.8929L88.5574 79.3003L88.8648 79.241L88.7419 84.482C88.696 86.4733 87.9503 88.6194 86.4286 89.4982C85.8215 89.8487 85.1836 89.8387 85.1836 88.975C85.1836 88.4422 85.4145 87.9424 85.7527 87.7468C85.9137 87.6534 86.1675 87.6495 86.2597 87.7853L86.1904 88.1325C86.0674 88.7245 86.1513 88.9118 86.5516 88.6815C87.3504 88.2197 87.7736 86.911 87.8731 85.0433L87.9967 82.7596L87.9424 82.7786Z" fill="#FAFAFA"/>
<path d="M130.277 57.5671L130.291 57.684C130.414 58.712 129.788 59.9648 128.891 60.4819L94.3827 80.3859C93.486 80.903 92.6586 80.4893 92.5356 79.4618L92.5234 79.3595C92.3998 78.332 93.0265 77.0792 93.9232 76.562L128.431 56.643C129.327 56.1254 130.154 56.539 130.277 57.5671Z" fill="#FAFAFA"/>
<path d="M126.028 62.1338L128.893 60.4818C129.789 59.9647 130.416 58.7119 130.293 57.6844L130.279 57.567C130.156 56.539 129.329 56.1253 128.433 56.6429L125.57 58.2949L126.028 62.1338Z" fill="#455A64"/>
<g opacity="0.399994">
<path d="M73.6752 103.815C73.7608 104.532 73.3113 105.411 72.6712 105.781L58.2816 114.087C57.641 114.457 57.0512 114.177 56.964 113.463C56.8768 112.749 57.3251 111.87 57.9652 111.5L72.3604 103.189C73.0005 102.819 73.5897 103.1 73.6752 103.815Z" fill="#455A64"/>
</g>
<g opacity="0.399994">
<path d="M107.079 84.5229C107.165 85.2373 106.715 86.1161 106.075 86.4857L77.7512 102.841C77.1105 103.21 76.5219 102.93 76.4363 102.214C76.3503 101.499 76.7997 100.619 77.4404 100.249L105.765 83.899C106.405 83.5295 106.993 83.809 107.079 84.5229Z" fill="#455A64"/>
</g>
<g opacity="0.399994">
<path d="M133.915 70.415L111.165 83.5462C110.525 83.9163 109.936 83.6368 109.85 82.9224C109.765 82.2085 110.214 81.3297 110.854 80.9596L133.614 67.8178C134.254 67.4482 134.841 67.73 134.924 68.4472C135.006 69.1645 134.555 70.0455 133.915 70.415Z" fill="#455A64"/>
</g>
<g opacity="0.399994">
<path d="M68.8932 113.215C68.9793 113.931 68.5293 114.81 67.8892 115.18L59.0637 120.273C58.4236 120.643 57.8176 120.372 57.7113 119.667C57.6051 118.964 58.0378 118.094 58.6785 117.724L67.5783 112.588C68.219 112.218 68.8077 112.499 68.8932 113.215Z" fill="#455A64"/>
</g>
<g opacity="0.399994">
<path d="M96.6936 97.1564C96.7809 97.8708 96.3325 98.7496 95.6919 99.1192L72.9693 112.24C72.3292 112.609 71.7405 112.329 71.655 111.613C71.5694 110.898 72.0189 110.018 72.659 109.647L95.376 96.5325C96.0167 96.163 96.6064 96.4425 96.6936 97.1564Z" fill="#455A64"/>
</g>
<g opacity="0.399994">
<path d="M134.709 76.5997L100.794 96.1789C100.153 96.5484 99.5653 96.2683 99.4792 95.5522C99.3937 94.8366 99.8431 93.9567 100.483 93.5872L134.34 74.0455C134.98 73.676 135.582 73.9477 135.683 74.6532C135.786 75.3587 135.35 76.2302 134.709 76.5997Z" fill="#455A64"/>
</g>
<g opacity="0.399994">
<path d="M80.71 112.877C80.7961 113.593 80.3466 114.473 79.706 114.843L59.811 126.329C59.1709 126.699 58.5487 126.438 58.4212 125.746C58.2943 125.054 58.7102 124.193 59.3503 123.823L79.3951 112.25C80.0358 111.881 80.6245 112.161 80.71 112.877Z" fill="#455A64"/>
</g>
<g opacity="0.399994">
<path d="M116.897 91.9918C116.984 92.7073 116.535 93.5872 115.895 93.9573L85.1607 111.699C84.5206 112.069 83.9319 111.788 83.8464 111.073C83.7608 110.357 84.2103 109.477 84.8504 109.107L115.579 91.3651C116.22 90.9956 116.809 91.2762 116.897 91.9918Z" fill="#455A64"/>
</g>
<g opacity="0.399994">
<path d="M135.469 82.6568L120.989 91.0166C120.349 91.3861 119.758 91.1055 119.671 90.3899C119.584 89.6744 120.032 88.7944 120.673 88.4244L135.025 80.14C135.666 79.7699 136.284 80.0338 136.406 80.7287C136.529 81.4241 136.11 82.2873 135.469 82.6568Z" fill="#455A64"/>
</g>
<g opacity="0.399994">
<path d="M92.5688 112.414C92.6561 113.128 92.2077 114.007 91.5671 114.376L60.5601 132.279C59.92 132.649 59.2821 132.398 59.1357 131.717C58.9892 131.037 59.3895 130.185 60.0301 129.816L91.2518 111.79C91.8918 111.42 92.4816 111.7 92.5688 112.414Z" fill="#455A64"/>
</g>
<g opacity="0.399994">
<path d="M109.267 102.777C109.355 103.493 108.906 104.373 108.266 104.742L96.6612 111.437C96.0211 111.807 95.4319 111.527 95.3464 110.813C95.2608 110.099 95.7103 109.22 96.3504 108.85L107.95 102.151C108.591 101.781 109.18 102.062 109.267 102.777Z" fill="#455A64"/>
</g>
<g opacity="0.399994">
<path d="M136.21 88.6066L113.707 101.599C113.067 101.968 112.477 101.688 112.39 100.972C112.302 100.256 112.751 99.3765 113.391 99.0069L135.696 86.1323C136.336 85.7628 136.97 86.0172 137.112 86.7003C137.254 87.3835 136.851 88.2366 136.21 88.6066Z" fill="#455A64"/>
</g>
<g opacity="0.399994">
<path d="M65.531 134.797C65.6294 135.507 65.1945 136.381 64.5544 136.751L61.4271 138.556C60.787 138.925 60.1324 138.682 59.9647 138.012C59.7981 137.342 60.1816 136.499 60.8217 136.13L64.1961 134.18C64.8361 133.811 65.4321 134.087 65.531 134.797Z" fill="#455A64"/>
</g>
<g opacity="0.399994">
<path d="M80.7168 126.028C80.8157 126.737 80.3842 127.609 79.7441 127.979L69.6708 133.795C69.0307 134.164 68.4258 133.892 68.3235 133.185C68.2206 132.478 68.6612 131.605 69.3013 131.235L79.3852 125.414C80.0258 125.044 80.6184 125.32 80.7168 126.028Z" fill="#455A64"/>
</g>
<g opacity="0.399994">
<path d="M101.622 113.962C101.732 114.664 101.304 115.534 100.664 115.903L84.8654 125.023C84.2253 125.393 83.621 125.12 83.5187 124.413C83.4164 123.707 83.8558 122.833 84.4959 122.463L100.267 113.359C100.908 112.989 101.512 113.26 101.622 113.962Z" fill="#455A64"/>
</g>
<g opacity="0.399994">
<path d="M74.8791 136.65C75.0099 137.339 74.5995 138.197 73.9594 138.566L62.5685 145.143C61.9284 145.512 61.2581 145.28 61.072 144.624C60.8853 143.967 61.2537 143.135 61.8938 142.765L73.4882 136.071C74.1283 135.701 74.7482 135.961 74.8791 136.65Z" fill="#455A64"/>
</g>
<g opacity="0.399994">
<path d="M91.5873 127.01C91.7175 127.7 91.3106 128.557 90.6699 128.927L83.5718 133.024L79.1722 135.562C78.5321 135.932 77.8982 135.675 77.7662 134.988C77.6349 134.3 78.0553 133.442 78.6954 133.072L90.1936 126.431C90.8337 126.062 91.457 126.321 91.5873 127.01Z" fill="#455A64"/>
</g>
<g opacity="0.399994">
<path d="M102.743 120.568C102.872 121.257 102.462 122.114 101.822 122.484L95.8662 125.922C95.2261 126.292 94.5955 126.034 94.4653 125.345C94.3345 124.656 94.7549 123.796 95.395 123.427L101.355 119.988C101.996 119.619 102.614 119.879 102.743 120.568Z" fill="#455A64"/>
</g>
<g opacity="0.399994">
<path d="M84.6979 138.161C84.8584 138.835 84.4754 139.68 83.8353 140.05L63.9884 151.505C63.3483 151.875 62.6613 151.65 62.4539 151.004C62.247 150.358 62.5981 149.534 63.2388 149.165L83.2567 137.608C83.8968 137.238 84.5369 137.487 84.6979 138.161Z" fill="#455A64"/>
</g>
<g opacity="0.399994">
<path d="M104.082 126.976C104.237 127.651 103.85 128.498 103.21 128.868L88.9275 137.115C88.2868 137.485 87.6339 137.239 87.4734 136.565C87.3124 135.891 87.7082 135.043 88.3489 134.673L102.647 126.42C103.288 126.051 103.927 126.3 104.082 126.976Z" fill="#455A64"/>
</g>
<g opacity="0.399994">
<path d="M75.2016 150.743C75.3911 151.399 75.0305 152.228 74.3899 152.597L65.6555 157.642C65.0148 158.011 64.3127 157.797 64.0863 157.163C63.8598 156.528 64.1958 155.714 64.8359 155.344L73.7045 150.225C74.3446 149.855 75.0121 150.088 75.2016 150.743Z" fill="#455A64"/>
</g>
<g opacity="0.399994">
<path d="M91.094 142.953L79.4783 149.662C78.8377 150.032 78.1546 149.804 77.9639 149.149C77.7733 148.494 78.1467 147.66 78.7874 147.29L90.4137 140.575C91.0543 140.205 91.7212 140.438 91.9085 141.095C92.0958 141.752 91.7347 142.583 91.094 142.953Z" fill="#455A64"/>
</g>
<g opacity="0.399994">
<path d="M105.647 133.168C105.833 133.826 105.471 134.658 104.831 135.027L96.1872 140.018C95.5471 140.388 94.8678 140.157 94.6783 139.501C94.4888 138.845 94.8617 138.01 95.5023 137.641L104.161 132.644C104.801 132.274 105.462 132.51 105.647 133.168Z" fill="#455A64"/>
</g>
<g opacity="0.399994">
<path d="M88.2239 150.233C88.4414 150.873 88.0982 151.692 87.4581 152.061L67.5418 163.559C66.9012 163.929 66.1823 163.723 65.9352 163.099C65.6881 162.474 66.0073 161.669 66.6474 161.299L86.6709 149.742C87.311 149.373 88.0065 149.592 88.2239 150.233Z" fill="#455A64"/>
</g>
<g opacity="0.399994">
<path d="M107.503 139.1C107.726 139.736 107.397 140.547 106.756 140.917L92.5434 149.121C91.9034 149.491 91.2068 149.273 90.9882 148.634C90.7691 147.995 91.1106 147.178 91.7513 146.808L105.948 138.614C106.588 138.245 107.28 138.463 107.503 139.1Z" fill="#455A64"/>
</g>
<path d="M101.458 149.513C101.701 150.136 101.378 150.943 100.738 151.312L69.6557 169.258C69.0156 169.627 68.2805 169.432 68.0144 168.821C67.7483 168.21 68.0519 167.416 68.692 167.046L99.8599 149.052C100.5 148.682 101.216 148.889 101.458 149.513Z" fill="#39D192"/>
<g opacity="0.399994">
<path d="M123.734 136.649C123.978 137.273 123.657 138.079 123.016 138.449L105.6 148.505C104.96 148.875 104.242 148.669 103.997 148.045C103.751 147.421 104.071 146.616 104.712 146.246L122.133 136.189C122.773 135.819 123.489 136.025 123.734 136.649Z" fill="#455A64"/>
</g>
<g opacity="0.399994">
<path d="M145.301 125.585L127.886 135.637C127.245 136.007 126.527 135.802 126.282 135.179C126.036 134.556 126.356 133.752 126.997 133.382L144.353 123.363C144.994 122.993 145.725 123.191 145.987 123.805C146.248 124.418 145.942 125.216 145.301 125.585Z" fill="#455A64"/>
</g>
<g opacity="0.399994">
<path d="M81.4111 167.9C81.6794 168.512 81.3826 169.305 80.7419 169.675L71.9544 174.747C71.3138 175.117 70.5624 174.929 70.2756 174.329C69.9883 173.728 70.2751 172.942 70.9157 172.572L79.7731 167.458C80.4132 167.088 81.1428 167.288 81.4111 167.9Z" fill="#455A64"/>
</g>
<g opacity="0.399994">
<path d="M112.081 150.2C112.344 150.813 112.043 151.606 111.403 151.976L85.9004 166.703C85.2603 167.073 84.5174 166.88 84.249 166.27C83.9807 165.659 84.291 164.861 84.9316 164.492L110.449 149.759C111.089 149.389 111.818 149.588 112.081 150.2Z" fill="#455A64"/>
</g>
<g opacity="0.399994">
<path d="M135.815 136.499C136.077 137.113 135.775 137.908 135.134 138.278L116.546 149.009C115.906 149.379 115.166 149.184 114.902 148.571C114.638 147.957 114.952 147.157 115.593 146.787L134.186 136.055C134.826 135.685 135.552 135.885 135.815 136.499Z" fill="#455A64"/>
</g>
<g opacity="0.399994">
<path d="M147.606 131.075L140.28 135.305C139.639 135.675 138.897 135.483 138.633 134.87C138.369 134.257 138.681 133.458 139.321 133.088L146.583 128.895C147.223 128.525 147.971 128.713 148.254 129.315C148.536 129.917 148.247 130.705 147.606 131.075Z" fill="#455A64"/>
</g>
<g opacity="0.399994">
<path d="M95.0661 166.754C95.3608 167.35 95.0801 168.133 94.4395 168.502L74.4645 180.032C73.8239 180.403 73.0569 180.225 72.7511 179.636C72.4447 179.048 72.7159 178.271 73.356 177.901L93.3739 166.344C94.0146 165.975 94.7721 166.158 95.0661 166.754Z" fill="#455A64"/>
</g>
<g opacity="0.399994">
<path d="M122.944 150.661C123.238 151.257 122.957 152.039 122.317 152.409L99.5358 165.557C98.8952 165.926 98.1377 165.744 97.8436 165.149C97.549 164.555 97.8297 163.774 98.4703 163.403L121.252 150.251C121.892 149.881 122.65 150.065 122.944 150.661Z" fill="#455A64"/>
</g>
<g opacity="0.399994">
<path d="M150.104 136.36L127.403 149.464C126.763 149.834 126.005 149.65 125.71 149.054C125.416 148.458 125.697 147.676 126.337 147.306L149.011 134.218C149.651 133.848 150.415 134.028 150.717 134.62C151.019 135.211 150.745 135.99 150.104 136.36Z" fill="#455A64"/>
</g>
<g opacity="0.399994">
<path d="M80.9705 181.508C81.2869 182.092 81.0247 182.865 80.3841 183.235L77.1282 185.115C76.4876 185.484 75.7038 185.315 75.3768 184.737C75.0503 184.159 75.3041 183.391 75.9448 183.021L79.238 181.119C79.8781 180.75 80.6541 180.924 80.9705 181.508Z" fill="#455A64"/>
</g>
<g opacity="0.399994">
<path d="M108.809 165.439C109.125 166.022 108.863 166.794 108.222 167.164L85.5264 180.273C84.8863 180.643 84.1093 180.469 83.7917 179.885C83.4736 179.301 83.7347 178.528 84.3754 178.158L107.076 165.053C107.716 164.684 108.492 164.857 108.809 165.439Z" fill="#455A64"/>
</g>
<g opacity="0.399994">
<path d="M136.671 149.355C136.987 149.939 136.725 150.712 136.084 151.081L113.351 164.203C112.711 164.572 111.935 164.399 111.619 163.817C111.302 163.234 111.564 162.462 112.205 162.092L134.938 148.967C135.578 148.597 136.354 148.77 136.671 149.355Z" fill="#455A64"/>
</g>
<g opacity="0.399994">
<path d="M152.78 141.442L141.218 148.115C140.578 148.485 139.802 148.312 139.486 147.73C139.169 147.147 139.432 146.375 140.072 146.005L151.613 139.343C152.253 138.973 153.034 139.143 153.356 139.723C153.678 140.303 153.421 141.073 152.78 141.442Z" fill="#455A64"/>
</g>
<g opacity="0.399994">
<path d="M94.8884 179.993C95.2272 180.563 94.9823 181.323 94.3422 181.693L79.9526 189.999C79.312 190.369 78.5125 190.21 78.1665 189.646C77.8205 189.081 78.0592 188.323 78.6998 187.954L93.1157 179.631C93.7563 179.262 94.5502 179.423 94.8884 179.993Z" fill="#455A64"/>
</g>
<g opacity="0.399994">
<path d="M122.757 163.899C123.094 164.469 122.848 165.23 122.208 165.6L99.5227 178.699C98.882 179.068 98.091 178.906 97.7556 178.335C97.4196 177.763 97.6667 177.002 98.3073 176.631L120.986 163.538C121.627 163.168 122.419 163.33 122.757 163.899Z" fill="#455A64"/>
</g>
<g opacity="0.399994">
<path d="M155.604 146.326L127.398 162.611C126.757 162.981 125.966 162.817 125.63 162.244C125.295 161.672 125.542 160.908 126.183 160.539L154.367 144.269C155.008 143.9 155.803 144.06 156.145 144.628C156.487 145.196 156.245 145.956 155.604 146.326Z" fill="#455A64"/>
</g>
<g opacity="0.399994">
<path d="M108.981 178.268C109.342 178.825 109.115 179.577 108.475 179.946L82.9297 194.695C82.2896 195.065 81.4734 194.915 81.1067 194.361C80.74 193.806 80.9613 193.057 81.602 192.687L107.168 177.928C107.809 177.558 108.62 177.71 108.981 178.268Z" fill="#455A64"/>
</g>
<g opacity="0.399994">
<path d="M136.81 162.202C137.169 162.759 136.941 163.511 136.301 163.88L113.621 176.974C112.981 177.344 112.169 177.192 111.808 176.634C111.447 176.076 111.674 175.325 112.314 174.955L135 161.862C135.64 161.492 136.45 161.644 136.81 162.202Z" fill="#455A64"/>
</g>
<g opacity="0.399994">
<path d="M158.579 151.022L141.453 160.908C140.813 161.279 140.002 161.125 139.643 160.566C139.284 160.007 139.512 159.254 140.152 158.884L157.267 149.004C157.908 148.634 158.721 148.786 159.082 149.344C159.445 149.901 159.22 150.653 158.579 151.022Z" fill="#455A64"/>
</g>
<path d="M144.546 119.973L111.118 139.263C110.952 138.824 110.796 138.385 110.641 137.945C110.598 137.822 110.555 137.694 110.513 137.571L110.063 136.247C109.913 135.803 109.763 135.359 109.623 134.909C107.321 127.679 105.65 119.78 104.316 110.858L137.707 91.59C138.73 99.232 140.288 106.312 142.275 113.001C142.478 113.692 142.688 114.371 142.907 115.052C143.084 115.625 143.26 116.187 143.453 116.754C143.807 117.836 144.165 118.913 144.546 119.973Z" fill="#39D192"/>
<g opacity="0.5">
<path d="M144.554 119.973L111.125 139.263C110.959 138.824 110.804 138.385 110.649 137.946C110.606 137.823 110.563 137.694 110.521 137.571L110.071 136.248C109.921 135.803 109.771 135.359 109.631 134.909C107.328 127.679 105.658 119.78 104.324 110.859L137.715 91.5902C138.738 99.2323 140.296 106.312 142.283 113.001C142.486 113.692 142.695 114.372 142.914 115.052C143.092 115.625 143.268 116.187 143.461 116.755C143.815 117.836 144.173 118.913 144.554 119.973Z" fill="black"/>
</g>
<path d="M144.547 119.973L111.119 139.263C110.953 138.824 110.798 138.385 110.643 137.945C110.6 137.822 110.557 137.694 110.514 137.571L110.064 136.247C109.915 135.803 109.765 135.359 109.625 134.909C110.873 129.709 115.125 112.427 115.125 112.427L133.81 122.956L129.997 119.132L133.012 109.337L142.277 113.001L142.287 113.006C142.491 113.692 142.699 114.371 142.908 115.052C143.091 115.619 143.267 116.192 143.455 116.754C143.808 117.836 144.167 118.913 144.547 119.973Z" fill="#39D192"/>
<path d="M126.382 102.264C127.623 101.543 128.858 102.283 129.184 103.908C129.511 105.532 128.812 107.419 127.574 108.133C126.336 108.847 125.014 108.125 124.685 106.507C124.355 104.888 125.141 102.984 126.382 102.264Z" fill="#39D192"/>
<path d="M248.425 120.283C239.301 116.923 224.753 116.923 215.932 120.283C207.111 123.642 207.111 129.09 215.932 132.45C224.753 135.81 239.301 135.81 248.425 132.45C257.55 129.09 257.55 123.643 248.425 120.283Z" fill="#007243"/>
<path d="M255.696 109.227L208.891 109.277L212.438 164.423H212.482C212.704 166.432 214.579 168.413 218.156 169.946C225.778 173.216 238.348 173.216 246.233 169.946C249.932 168.413 251.873 166.432 252.101 164.423H252.146L255.696 109.227Z" fill="#FAFAFA"/>
<path d="M208.891 109.277L209.612 120.477C210.687 121.222 211.97 121.931 213.521 122.573C223.642 126.765 240.333 126.764 250.803 122.573C251.255 122.392 251.633 122.194 252.043 122.003C253.712 121.216 254.98 120.351 254.98 120.351L255.696 109.227L208.891 109.277Z" fill="#EBEBEB"/>
<path d="M258.654 110.857V102.426H253.2C252.471 102.043 251.677 101.673 250.802 101.324C240.333 97.1319 223.641 97.1319 213.52 101.323C212.678 101.672 211.932 102.044 211.229 102.426H205.93V110.857C205.93 113.604 208.46 116.352 213.52 118.447C223.641 122.638 240.333 122.638 250.802 118.447C256.037 116.35 258.655 113.604 258.654 110.857Z" fill="#39D192"/>
<g opacity="0.5">
<path d="M258.65 110.857V102.426H253.196C252.467 102.043 251.673 101.673 250.799 101.324C240.329 97.1319 223.637 97.1319 213.516 101.323C212.674 101.672 211.928 102.044 211.225 102.426H205.926V110.857C205.926 113.604 208.456 116.352 213.516 118.447C223.637 122.638 240.329 122.638 250.799 118.447C256.033 116.35 258.651 113.604 258.65 110.857Z" fill="black"/>
</g>
<path d="M250.802 94.8372C240.333 90.6461 223.641 90.6456 213.52 94.8372C203.4 99.0283 203.399 105.825 213.52 110.016C223.641 114.207 240.333 114.207 250.802 110.016C261.272 105.824 261.272 99.0289 250.802 94.8372Z" fill="#39D192"/>
<g opacity="0.199997">
<path d="M250.798 94.8372C240.329 90.6461 223.637 90.6456 213.517 94.8372C203.396 99.0283 203.395 105.825 213.517 110.016C223.637 114.207 240.329 114.207 250.798 110.016C261.268 105.824 261.268 99.0289 250.798 94.8372Z" fill="black"/>
</g>
<path d="M247.549 95.5185C238.919 92.2062 225.159 92.2062 216.815 95.5179C208.473 98.8297 208.473 104.2 216.815 107.512C225.159 110.823 238.919 110.823 247.549 107.511C256.179 104.2 256.179 98.8302 247.549 95.5185Z" fill="#39D192"/>
<g opacity="0.5">
<path d="M247.545 95.5187C238.915 92.2064 225.155 92.2064 216.812 95.5182C208.469 98.8299 208.469 104.2 216.812 107.512C225.155 110.823 238.915 110.823 247.545 107.512C256.176 104.2 256.176 98.8305 247.545 95.5187Z" fill="black"/>
</g>
<path d="M253.828 100.399L252.139 93.4478H212.442L210.746 100.399H253.828Z" fill="#39D192"/>
<g opacity="0.5">
<path d="M253.824 100.4L252.135 93.448H212.438L210.742 100.4H253.824Z" fill="black"/>
</g>
<path d="M246.302 89.0055C238.375 86.1231 225.738 86.1231 218.076 89.0049C210.412 91.8873 210.412 96.5608 218.076 99.4432C225.738 102.326 238.375 102.326 246.302 99.4432C254.229 96.5608 254.229 91.8878 246.302 89.0055Z" fill="#39D192"/>
<g opacity="0.199997">
<path d="M246.302 89.0057C238.375 86.1233 225.738 86.1233 218.076 89.0051C210.412 91.8875 210.412 96.5611 218.076 99.4435C225.738 102.326 238.375 102.326 246.302 99.4435C254.229 96.5611 254.229 91.8881 246.302 89.0057Z" fill="black"/>
</g>
<path d="M249.502 94.2324C249.489 94.342 249.283 94.712 248.625 95.2196C248.008 95.6859 246.978 96.2757 245.374 96.8655C241.876 98.1278 237.034 98.8679 232.096 98.8679C227.158 98.8679 222.399 98.1412 219.038 96.8794C217.461 96.2896 216.473 95.6859 215.897 95.2196C215.253 94.6981 215.074 94.3146 215.074 94.2184C215.074 94.0261 215.76 92.8057 219.038 91.5714C222.399 90.3091 227.158 89.5823 232.096 89.5823C237.034 89.5823 241.876 90.3091 245.374 91.5848C248.666 92.7783 249.489 93.9853 249.502 94.2324Z" fill="#39D192"/>
<g opacity="0.5">
<path d="M249.502 94.2324C249.489 94.342 249.283 94.712 248.625 95.2196C248.008 95.6859 246.978 96.2757 245.374 96.8655C241.876 98.1278 237.034 98.8679 232.096 98.8679C227.158 98.8679 222.399 98.1412 219.038 96.8794C217.461 96.2896 216.473 95.6859 215.897 95.2196C215.253 94.6981 215.074 94.3146 215.074 94.2184C215.074 94.0261 215.76 92.8057 219.038 91.5714C222.399 90.3091 227.158 89.5823 232.096 89.5823C237.034 89.5823 241.876 90.3091 245.374 91.5848C248.666 92.7783 249.489 93.9853 249.502 94.2324Z" fill="black"/>
</g>
<path d="M248.622 95.2199C248.005 95.6861 246.976 96.2759 245.372 96.8657C241.874 98.128 237.032 98.8682 232.094 98.8682C227.156 98.8682 222.397 98.1414 219.036 96.8797C217.459 96.2899 216.471 95.6861 215.895 95.2199C216.471 94.7537 217.459 94.1499 219.036 93.5601C222.397 92.2984 227.156 91.5716 232.094 91.5716C237.032 91.5716 241.874 92.2984 245.372 93.5741C246.976 94.1633 248.005 94.7397 248.622 95.2199Z" fill="#39D192"/>
<g opacity="0.5">
<path d="M240.675 95.3989C241.829 94.7449 243.233 94.4776 243.81 94.8019C244.388 95.1267 243.92 95.9272 242.765 96.5902C241.611 97.2527 240.207 97.5199 239.63 97.1873C239.053 96.8535 239.521 96.053 240.675 95.3989Z" fill="black"/>
</g>
<path d="M210.647 146.602C210.647 148.676 212.724 150.751 216.879 152.333C225.19 155.499 238.894 155.499 247.491 152.333C251.782 150.753 253.931 148.683 253.938 146.612L255.268 126.367C255.268 128.569 252.987 130.771 248.425 132.45C239.301 135.81 224.753 135.811 215.932 132.451C211.521 130.77 209.316 128.568 209.316 126.366L210.647 146.602Z" fill="#39D192"/>
<path d="M224.931 147.798C224.159 146.761 223.733 145.486 223.109 144.363C221.865 142.125 220.087 140.604 217.814 139.7C217.51 139.579 217.134 139.705 216.99 139.999C215.838 142.342 216.545 145.623 218.928 148.006C221.286 150.365 224.535 151.094 226.874 149.994C227.007 149.931 227.043 149.673 226.936 149.61C226.182 149.171 225.51 148.578 224.931 147.798Z" fill="#007243"/>
<path d="M219.081 139.058C220.308 139.526 221.455 140.265 222.42 141.112C223.451 142.018 224.251 143.176 224.835 144.418C225.724 146.306 226.572 147.474 227.875 148.445C228.159 148.657 228.593 148.6 228.787 148.305C230.344 145.95 229.726 142.342 227.158 139.774C224.726 137.341 221.349 136.642 218.996 137.896C218.524 138.148 218.58 138.867 219.081 139.058Z" fill="#007243"/>
<path d="M188.254 26.2988V20.5832L183.43 20.1629C183.354 20.1561 183.286 20.1724 183.23 20.2037C183.042 20.306 178.475 22.9195 178.415 22.9547C178.237 23.0615 178.173 23.3214 178.337 23.4992L183.452 29.0437L188.254 26.2988Z" fill="#39D192"/>
<path d="M183.452 29.0435L178.337 23.4989C178.118 23.2619 178.306 22.8795 178.627 22.9075L183.452 23.3279V29.0435Z" fill="#39D192"/>
<path d="M188.258 20.5813L183.457 23.3301L178.631 22.9074C178.571 22.9035 178.513 22.9114 178.465 22.932C178.851 22.7045 183.058 20.2967 183.233 20.2034C183.29 20.171 183.359 20.1548 183.436 20.1626L188.258 20.5813Z" fill="#39D192"/>
<g opacity="0.5">
<path d="M188.262 20.5813L183.461 23.3301L178.635 22.9074C178.574 22.9035 178.517 22.9114 178.469 22.932C178.855 22.7045 183.062 20.2967 183.237 20.2034C183.294 20.171 183.363 20.1548 183.44 20.1626L188.262 20.5813Z" fill="white"/>
</g>
<path d="M183.465 16.8797C183.465 15.7705 184.244 14.4222 185.203 13.867L186.62 13.0497C187.58 12.4952 189.137 12.4952 190.098 13.0497L205.192 21.7651C206.153 22.3197 206.932 23.6681 206.932 24.7772V42.2141C206.932 43.3232 206.152 44.6716 205.192 45.2267L203.776 46.044C202.815 46.5986 201.258 46.5986 200.297 46.044L195.841 43.4714L190.049 40.1255L185.203 37.3287C184.244 36.7741 183.465 35.4257 183.465 34.3166V16.8797Z" fill="#39D192"/>
<path d="M197.933 32.1599C197.938 31.1425 197.693 30.0741 197.29 29.1288L197.292 29.1271L197.283 29.107C196.811 28.0113 196.119 27.0866 195.349 26.6338C194.027 25.854 192.925 27.4366 192.751 29.301C192.594 27.2421 191.512 24.3759 190.189 23.6016C189.42 23.1494 188.723 23.2572 188.244 23.7939L188.235 23.804L188.237 23.8079C187.827 24.2753 187.575 25.0518 187.57 26.0692C187.556 29.2227 189.453 32.0833 191.04 35.0898L192.712 38.2478L194.403 37.0666C196.008 35.9356 197.92 35.3134 197.933 32.1599Z" fill="#FAFAFA"/>
<g opacity="0.199997">
<path d="M206.923 42.2138C206.923 43.323 206.143 44.6714 205.183 45.2265L203.767 46.0438C202.899 46.5452 201.548 46.5889 200.586 46.1841C201.405 46.4933 202.028 46.0321 202.028 45.0398L202.028 27.6029C202.028 27.0483 201.833 26.4339 201.519 25.8889L206.413 23.0635C206.728 23.608 206.923 24.2224 206.923 24.7775V42.2138Z" fill="black"/>
</g>
<g opacity="0.5">
<path d="M183.52 16.3851C183.722 15.6466 184.396 15.4112 185.199 15.8741L200.297 24.5923C200.775 24.8679 201.213 25.3386 201.522 25.8904L206.414 23.0667C206.098 22.5149 205.667 22.0442 205.189 21.7686L190.1 13.0504C189.134 12.4987 187.576 12.4987 186.619 13.0504L185.199 13.87C184.379 14.3407 183.69 15.395 183.52 16.3851Z" fill="white"/>
</g>
<path d="M188.254 63.8635V58.1479L183.43 57.727C183.354 57.7208 183.286 57.7371 183.23 57.7678C183.042 57.8701 178.475 60.4836 178.415 60.5194C178.237 60.6262 178.173 60.8855 178.337 61.0639L183.452 66.6084L188.254 63.8635Z" fill="#39D192"/>
<path d="M183.452 66.6084L178.337 61.0639C178.118 60.8268 178.306 60.4445 178.627 60.4724L183.452 60.8928V66.6084Z" fill="#39D192"/>
<path d="M188.258 58.1462L183.457 60.895L178.631 60.4729C178.571 60.4685 178.513 60.4763 178.465 60.497C178.851 60.2695 183.058 57.8622 183.233 57.7683C183.29 57.7359 183.359 57.7197 183.436 57.7281L188.258 58.1462Z" fill="#39D192"/>
<g opacity="0.5">
<path d="M188.262 58.146L183.461 60.8948L178.635 60.4727C178.574 60.4682 178.517 60.4761 178.469 60.4967C178.855 60.2692 183.062 57.862 183.237 57.7681C183.294 57.7357 183.363 57.7194 183.44 57.7278L188.262 58.146Z" fill="white"/>
</g>
<path d="M183.465 54.4446C183.465 53.3355 184.244 51.9871 185.203 51.432L186.62 50.6147C187.58 50.0601 189.137 50.0601 190.098 50.6147L205.192 59.3295C206.153 59.884 206.932 61.233 206.932 62.3421V79.779C206.932 80.8882 206.152 82.2365 205.192 82.7917L203.776 83.609C202.815 84.1635 201.258 84.1635 200.297 83.609L195.841 81.0363L190.049 77.6899L185.203 74.8936C184.244 74.339 183.465 72.9906 183.465 71.881V54.4446Z" fill="#39D192"/>
<path d="M192.2 61.2145L190.871 64.0376C190.788 64.216 190.625 64.2791 190.438 64.2076L187.466 63.0671C186.994 62.8866 186.806 63.5513 187.147 64.1919L189.298 68.2287C189.434 68.4831 189.495 68.7727 189.463 69.0035L188.956 72.6568C188.875 73.2371 189.369 74.0002 189.79 73.9477L192.448 73.6189C192.616 73.5983 192.817 73.714 192.984 73.9281L195.642 77.3259C196.064 77.8659 196.558 77.6725 196.477 76.9994L195.97 72.7597C195.938 72.4925 195.999 72.2745 196.135 72.1761L198.286 70.6231C198.627 70.376 198.439 69.4938 197.967 69.1299L194.995 66.8384C194.808 66.6936 194.645 66.4432 194.562 66.1681L193.233 61.8104C193.021 61.1183 192.412 60.7661 192.2 61.2145Z" fill="#FAFAFA"/>
<g opacity="0.199997">
<path d="M206.923 79.7785C206.923 80.8877 206.143 82.2361 205.183 82.7912L203.767 83.6085C202.899 84.1099 201.548 84.1535 200.586 83.7488C201.405 84.058 202.028 83.5962 202.028 82.6045L202.028 65.1676C202.028 64.613 201.833 63.9986 201.519 63.4536L206.413 60.6276C206.728 61.1727 206.923 61.7871 206.923 62.3416V79.7785Z" fill="black"/>
</g>
<g opacity="0.5">
<path d="M183.52 53.9508C183.722 53.2123 184.396 52.9769 185.199 53.4392L200.297 62.158C200.775 62.4336 201.213 62.9043 201.522 63.4561L206.414 60.6324C206.098 60.0806 205.667 59.6099 205.189 59.3337L190.1 50.6161C189.134 50.0643 187.576 50.0643 186.619 50.6161L185.199 51.4351C184.379 51.9064 183.69 52.9607 183.52 53.9508Z" fill="white"/>
</g>
<path d="M128.762 172.758L115.24 176.345L112.541 177.063H112.535C112.15 177.165 111.834 176.956 111.689 176.661C111.577 176.437 111.582 176.158 111.754 175.917C111.759 175.912 111.764 175.901 111.769 175.896L113.681 173.422L122.084 162.534L124.767 166.642L128.762 172.758Z" fill="#39D192"/>
<path d="M124.767 166.642L113.784 175.061L111.689 176.662C111.577 176.437 111.582 176.158 111.754 175.918C111.759 175.913 111.764 175.901 111.769 175.896L113.681 173.422L122.084 162.535L124.767 166.642Z" fill="#1FAA70"/>
<path d="M115.24 176.346L112.541 177.063H112.535C112.15 177.165 111.834 176.956 111.689 176.662C111.577 176.437 111.582 176.158 111.754 175.917C111.759 175.912 111.764 175.901 111.769 175.896L113.681 173.422C113.563 174.064 113.601 174.611 113.784 175.061C114.019 175.655 114.517 176.083 115.24 176.346Z" fill="#37474F"/>
<path d="M183.195 121.913L181.855 122.805L180.233 123.875L122.086 162.533C121.577 164.425 122.017 166.431 122.934 168.151C124.32 170.775 126.807 172.754 128.759 172.75L186.476 134.377L189.568 132.32C187.492 133.541 181.129 123.166 183.195 121.913Z" fill="#263238"/>
<path d="M181.855 122.805L180.233 123.875L122.086 162.533C121.577 164.426 122.018 166.431 122.934 168.151L182.768 127.865L181.855 122.805Z" fill="#37474F"/>
<path d="M178.078 125.29L175.088 127.286C174.202 127.836 174.877 130.055 176.106 132.317C177.731 135.325 180.326 138.404 181.503 137.677L183.704 136.2L184.495 135.674C183.318 136.4 180.715 133.32 179.09 130.312C177.916 128.144 177.251 126.003 177.991 125.361L177.999 125.354C178.019 125.327 178.045 125.308 178.078 125.29Z" fill="#F0F0F0"/>
<path d="M179.09 130.312C177.915 128.144 177.251 126.003 177.99 125.361L177.999 125.354C178.019 125.327 178.045 125.308 178.078 125.29L175.088 127.286C174.202 127.836 174.877 130.056 176.106 132.317L179.09 130.312H179.09Z" fill="#FAFAFA"/>
<path d="M177.336 125.795C175.276 127.067 181.691 137.454 183.752 136.181L186.752 134.193C184.691 135.466 178.277 125.08 180.337 123.808L177.336 125.795Z" fill="#39D192"/>
<path d="M183.195 121.913L180.233 123.875C178.201 125.11 184.295 135.197 186.476 134.376C186.516 134.368 186.558 134.343 186.6 134.32L189.568 132.32C187.493 133.541 181.13 123.166 183.195 121.913Z" fill="#F0F0F0"/>
<path d="M195.756 113.579L183.193 121.913C182.309 122.447 182.965 124.648 184.172 126.899C185.788 129.913 188.38 133.022 189.567 132.32C189.574 132.322 189.574 132.322 189.583 132.315L201.665 124.297C204.637 122.659 202.313 116.521 199.245 114.189C198.103 113.308 196.868 112.965 195.756 113.579Z" fill="#39D192"/>
<path d="M195.756 113.579L183.193 121.913C182.309 122.447 182.965 124.648 184.172 126.899L196.833 118.901C196.833 118.901 195.335 115.785 195.995 114.539C196.655 113.285 197.903 113.407 199.245 114.189C198.103 113.308 196.868 112.966 195.756 113.579Z" fill="#1FAA70"/>
<g opacity="0.399994">
<path d="M180.341 123.807L177.34 125.795C176.457 126.339 177.131 128.556 178.349 130.812L181.339 128.804C180.128 126.555 179.461 124.351 180.341 123.807Z" fill="white"/>
</g>
<path d="M183.195 121.913L180.233 123.875C179.348 124.413 180.005 126.629 181.207 128.892L184.174 126.899C182.971 124.649 182.312 122.448 183.195 121.913Z" fill="#FAFAFA"/>
<path d="M164.569 224.981C164.569 224.981 164.952 226.193 165.152 227.251C165.312 228.091 165.538 229.496 165.236 230.123C164.934 230.75 163.784 231.143 162.008 231.106C160.858 231.082 159.056 231.84 157.819 232.509C156.543 233.2 155.167 233.184 153.829 233.01C152.251 232.803 150.626 231.866 150.379 231.209C150.132 230.551 150.464 230.241 154.209 228.702C154.242 228.688 158.158 226.981 159.985 225.016L164.569 224.981Z" fill="#263238"/>
<path d="M164.524 220.432L160.673 220.748L160.464 223.728L160.464 223.728C160.383 224.883 159.802 225.952 158.863 226.638C156.918 228.058 154.495 229.123 154.397 229.165L154.397 229.165C154.038 229.312 153.714 229.447 153.418 229.572C153.563 229.686 153.898 229.85 154.616 229.97L154.616 229.97C155.114 230.053 155.849 229.916 156.735 229.599C157.603 229.289 158.544 228.833 159.42 228.356C160.293 227.881 161.091 227.392 161.671 227.021C161.961 226.835 162.195 226.68 162.357 226.571C162.369 226.564 162.38 226.556 162.391 226.548V226.536L162.625 226.389C163.081 226.101 163.464 225.789 163.726 225.506C163.857 225.365 163.948 225.24 164.005 225.138C164.033 225.088 164.049 225.049 164.058 225.02C164.068 224.991 164.067 224.979 164.067 224.981C164.067 223.961 164.21 222.658 164.349 221.626C164.412 221.162 164.474 220.749 164.524 220.432Z" fill="white" stroke="black"/>
<path d="M188.371 215.449L188.353 215.418L188.339 215.386L186.792 211.643L183.907 213.245L185.222 216.308C185.733 217.328 186.046 218.434 186.144 219.573C186.165 219.819 186.188 220.073 186.211 220.33C186.266 220.952 186.323 221.593 186.365 222.181C186.424 223.002 186.457 223.771 186.405 224.267L186.404 224.283L186.401 224.298C186.361 224.536 186.201 224.696 186.11 224.777C186.001 224.873 185.87 224.959 185.744 225.035C185.564 225.142 185.343 225.257 185.137 225.364C185.058 225.404 184.982 225.444 184.91 225.481C184.731 225.576 184.583 225.66 184.47 225.733C184.573 225.799 184.706 225.876 184.869 225.956C185.211 226.125 185.634 226.285 186.074 226.375C186.974 226.561 187.778 226.434 188.244 225.743C188.516 225.339 188.801 224.618 189.067 223.704C189.328 222.805 189.559 221.767 189.739 220.767C189.92 219.766 190.048 218.813 190.109 218.085C190.139 217.719 190.151 217.421 190.146 217.205C190.143 217.101 190.137 217.027 190.13 216.98C190.085 216.931 190.023 216.88 189.932 216.82C189.854 216.767 189.781 216.724 189.696 216.673C189.635 216.637 189.568 216.598 189.488 216.548C189.131 216.327 188.707 216.02 188.371 215.449ZM184.273 225.889C184.273 225.889 184.273 225.889 184.273 225.888L184.273 225.889ZM190.121 216.94C190.121 216.94 190.122 216.942 190.123 216.946C190.122 216.941 190.121 216.94 190.121 216.94Z" fill="white" stroke="black"/>
<path d="M189.5 215.9C189.104 216.559 189.088 217.874 188.883 219.738C188.679 221.601 188.492 224.578 187.435 225.362C186.204 226.276 183.804 225.631 185.059 224.912C185.408 224.713 185.459 224.637 185.651 224.519C186.075 224.26 185.923 224.041 185.923 224.041C185.923 224.041 185.332 224.495 184.144 225.014C183.117 225.464 182.803 226.001 182.75 227.046C182.881 227.57 183.274 227.848 183.71 228.074C184.144 228.3 185.79 228.385 186.985 228.127C189.257 227.636 190.55 226.698 190.826 224.868C191.162 222.648 192.221 220.047 192.559 218.748C192.967 217.175 190.938 215.78 189.5 215.9Z" fill="#263238"/>
<path d="M184.824 215.546L185.055 215.984C186.174 215.825 186.899 215.382 187.349 214.979C187.598 214.757 187.766 214.543 187.871 214.389C187.894 214.354 187.914 214.323 187.931 214.296L187.817 213.817C187.717 213.392 187.572 212.782 187.395 212.041C187.042 210.558 186.562 208.553 186.057 206.461C185.042 202.267 183.929 197.754 183.512 196.385L183.512 196.385C183.054 194.877 182.433 193.761 181.931 193.026C181.68 192.658 181.459 192.386 181.303 192.208C181.225 192.12 181.164 192.054 181.123 192.013C181.103 191.992 181.088 191.977 181.079 191.968L181.069 191.959L181.069 191.958L181.068 191.958L181.068 191.958L181.068 191.957L181.068 191.957L180.93 191.829L180.912 191.64L179.268 174.384C179.268 174.383 179.268 174.383 179.268 174.382C179.109 172.836 178.931 171.543 178.364 169.904C177.795 168.262 176.828 166.255 175.071 163.304L173.165 160.86L164.245 166.51L164.463 167.125C164.688 167.757 165.009 168.663 165.397 169.757C166.172 171.947 167.214 174.892 168.279 177.915C170.403 183.95 172.63 190.327 173 191.591C173.725 194.065 174.235 195.466 175.316 197.487L175.316 197.487C175.754 198.306 178.229 203.008 180.593 207.501C181.776 209.748 182.931 211.945 183.79 213.579L184.824 215.546ZM188.006 214.161C188.006 214.161 188.006 214.161 188.006 214.161L188.006 214.161Z" fill="white" stroke="black"/>
<path d="M166.811 195.832L166.811 195.832L166.812 195.833L166.813 195.837L166.82 195.859C166.826 195.879 166.835 195.909 166.847 195.95C166.871 196.031 166.906 196.152 166.946 196.308C167.026 196.62 167.129 197.071 167.218 197.62C167.397 198.72 167.516 200.194 167.295 201.719L167.295 201.719C167.129 202.861 166.378 207.946 165.669 212.748C165.315 215.148 164.97 217.477 164.715 219.206L164.408 221.283L164.33 221.807C164.28 221.83 164.221 221.857 164.155 221.885C163.9 221.993 163.54 222.124 163.12 222.217C162.34 222.39 161.405 222.422 160.547 221.991L160.546 221.974C160.535 221.783 160.52 221.502 160.5 221.139C160.46 220.415 160.404 219.369 160.336 218.083C160.202 215.51 160.024 211.975 159.85 208.128C159.503 200.427 159.175 191.493 159.249 186.504L166.811 195.832ZM166.811 195.832L166.811 195.832L166.811 195.832L166.773 195.715L166.793 195.594C167.141 193.496 167.889 190.89 168.678 188.141C168.945 187.212 169.216 186.266 169.479 185.318C170.528 181.529 171.437 177.681 171.421 174.498C171.405 171.495 169.965 169.008 168.333 166.191C168.13 165.841 167.924 165.485 167.718 165.123L160.672 163.068M166.811 195.832L160.672 163.068M160.672 163.068C160.671 163.075 160.671 163.081 160.67 163.088C160.633 163.491 160.581 164.079 160.517 164.816C160.39 166.289 160.219 168.358 160.043 170.74C159.692 175.505 159.322 181.513 159.249 186.504L160.672 163.068Z" fill="white" stroke="black"/>
<path d="M168.738 137.925L164.341 138.903L164.885 143.685L169.412 144.208L168.738 137.925Z" fill="white" stroke="black"/>
<path d="M160.658 138.241C160.658 138.241 160.658 138.241 160.658 138.241C160.659 138.24 160.686 138.263 160.766 138.301C160.854 138.343 160.976 138.388 161.129 138.435C161.435 138.527 161.831 138.61 162.261 138.672C163.138 138.798 164.058 138.82 164.586 138.694L164.586 138.694C165.319 138.519 166.52 138.09 167.746 137.406C168.975 136.721 170.189 135.803 170.99 134.668C171.958 133.295 172.59 131.667 172.744 130.199C172.899 128.72 172.564 127.503 171.741 126.802L171.741 126.802C170.43 125.686 168.852 125.199 167.45 125.054C166.031 124.908 164.86 125.118 164.393 125.321L164.393 125.321C164.192 125.408 163.978 125.473 163.777 125.531C163.72 125.547 163.665 125.562 163.61 125.578C163.46 125.619 163.315 125.66 163.162 125.709C162.758 125.839 162.357 126.012 161.972 126.331C161.207 126.965 160.391 128.276 159.961 131.35L159.961 131.35C159.28 136.204 160.177 137.709 160.658 138.241ZM160.658 138.241C160.66 138.242 160.661 138.244 160.662 138.245L160.292 138.582L160.662 138.245C160.66 138.243 160.659 138.241 160.658 138.241Z" fill="white" stroke="black"/>
<mask id="path-190-inside-1_1347_480" fill="white">
<path d="M164.83 138.373C163.614 138.693 161.814 138.856 160.863 138.842C161.611 139.092 162.886 139.276 163.884 139.244C164.904 138.74 164.83 138.373 164.83 138.373Z"/>
</mask>
<path d="M164.83 138.373C163.614 138.693 161.814 138.856 160.863 138.842C161.611 139.092 162.886 139.276 163.884 139.244C164.904 138.74 164.83 138.373 164.83 138.373Z" fill="white"/>
<path d="M164.83 138.373L164.575 137.406L165.599 137.136L165.81 138.174L164.83 138.373ZM160.863 138.842L160.546 139.791L160.877 137.842L160.863 138.842ZM163.884 139.244L164.327 140.141L164.132 140.237L163.915 140.244L163.884 139.244ZM165.084 139.34C163.765 139.687 161.873 139.857 160.849 139.842L160.877 137.842C161.755 137.855 163.462 137.699 164.575 137.406L165.084 139.34ZM161.18 137.894C161.803 138.102 162.959 138.273 163.852 138.245L163.915 140.244C162.813 140.278 161.419 140.082 160.546 139.791L161.18 137.894ZM163.44 138.348C163.87 138.135 163.945 138.01 163.922 138.044C163.906 138.066 163.869 138.128 163.847 138.23C163.837 138.28 163.831 138.335 163.831 138.393C163.831 138.422 163.833 138.452 163.836 138.482C163.837 138.497 163.839 138.511 163.842 138.526C163.843 138.534 163.844 138.541 163.845 138.549C163.846 138.553 163.847 138.556 163.847 138.56C163.848 138.562 163.848 138.564 163.848 138.566C163.849 138.567 163.849 138.568 163.849 138.569C163.849 138.57 163.85 138.571 164.83 138.373C165.81 138.174 165.81 138.175 165.81 138.177C165.81 138.177 165.811 138.179 165.811 138.18C165.811 138.182 165.812 138.184 165.812 138.185C165.813 138.189 165.813 138.193 165.814 138.197C165.816 138.205 165.817 138.213 165.818 138.221C165.821 138.238 165.823 138.255 165.825 138.272C165.828 138.308 165.831 138.346 165.831 138.386C165.831 138.466 165.823 138.554 165.804 138.646C165.764 138.832 165.682 139.017 165.557 139.195C165.316 139.538 164.918 139.848 164.327 140.141L163.44 138.348Z" fill="black" mask="url(#path-190-inside-1_1347_480)"/>
<mask id="path-192-inside-2_1347_480" fill="white">
<path d="M159.554 131.011C159.554 131.011 158.079 132.947 158.239 133.173C158.4 133.399 159.237 133.684 159.237 133.684L159.554 131.011Z"/>
</mask>
<path d="M159.554 131.011C159.554 131.011 158.079 132.947 158.239 133.173C158.4 133.399 159.237 133.684 159.237 133.684L159.554 131.011Z" fill="white"/>
<path d="M159.554 131.011L158.759 130.405L160.979 127.49L160.547 131.129L159.554 131.011ZM158.239 133.173L157.425 133.755L157.422 133.751L158.239 133.173ZM159.237 133.684L160.23 133.802L160.084 135.029L158.914 134.631L159.237 133.684ZM159.554 131.011C160.35 131.617 160.35 131.617 160.35 131.617C160.35 131.617 160.35 131.617 160.35 131.617C160.35 131.617 160.35 131.617 160.35 131.617C160.349 131.617 160.349 131.617 160.349 131.617C160.348 131.618 160.348 131.619 160.346 131.621C160.344 131.624 160.34 131.629 160.335 131.636C160.325 131.649 160.31 131.669 160.291 131.694C160.253 131.745 160.198 131.819 160.132 131.908C160 132.088 159.829 132.327 159.663 132.57C159.494 132.819 159.347 133.049 159.256 133.217C159.207 133.306 159.195 133.341 159.197 133.334C159.198 133.332 159.217 133.277 159.224 133.187C159.229 133.121 159.242 132.86 159.055 132.595L157.422 133.751C157.215 133.458 157.221 133.156 157.23 133.036C157.241 132.893 157.276 132.773 157.301 132.697C157.354 132.541 157.431 132.387 157.498 132.263C157.638 132.005 157.83 131.708 158.01 131.444C158.193 131.175 158.38 130.916 158.52 130.725C158.59 130.63 158.649 130.55 158.691 130.495C158.712 130.467 158.728 130.445 158.74 130.429C158.746 130.422 158.75 130.416 158.753 130.412C158.755 130.41 158.756 130.408 158.757 130.407C158.757 130.406 158.758 130.406 158.758 130.405C158.758 130.405 158.758 130.405 158.758 130.405C158.758 130.405 158.759 130.405 158.759 130.405C158.759 130.405 158.759 130.405 159.554 131.011ZM159.052 132.591C159.019 132.545 158.988 132.513 158.971 132.497C158.954 132.48 158.941 132.47 158.937 132.467C158.93 132.461 158.936 132.467 158.963 132.483C159.018 132.514 159.099 132.554 159.196 132.596C159.29 132.637 159.383 132.673 159.454 132.699C159.488 132.712 159.516 132.722 159.535 132.729C159.544 132.732 159.551 132.735 159.556 132.736C159.558 132.737 159.559 132.737 159.56 132.738C159.56 132.738 159.56 132.738 159.56 132.738C159.56 132.738 159.56 132.738 159.56 132.738C159.56 132.738 159.56 132.738 159.56 132.738C159.559 132.738 159.559 132.738 159.559 132.738C159.559 132.738 159.559 132.738 159.237 133.684C158.914 134.631 158.914 134.631 158.914 134.631C158.914 134.631 158.914 134.63 158.914 134.63C158.913 134.63 158.913 134.63 158.913 134.63C158.913 134.63 158.912 134.63 158.912 134.63C158.911 134.63 158.91 134.629 158.909 134.629C158.906 134.628 158.903 134.627 158.899 134.625C158.891 134.623 158.879 134.619 158.866 134.614C158.838 134.604 158.799 134.59 158.753 134.573C158.662 134.538 158.535 134.489 158.4 134.431C158.269 134.374 158.11 134.299 157.962 134.214C157.854 134.151 157.602 134.001 157.425 133.755L159.052 132.591ZM158.244 133.566L158.561 130.893L160.547 131.129L160.23 133.802L158.244 133.566Z" fill="black" mask="url(#path-192-inside-2_1347_480)"/>
<path d="M160.876 122.824C162.785 121.128 166.725 120.421 170.159 122.617C170.159 122.617 171.795 122.644 173.102 124.372C173.049 124.148 173.07 123.904 173.166 123.669C173.426 123.058 174.139 122.771 174.75 123.032L174.134 124.488C174.24 124.409 174.368 124.345 174.506 124.307C175.149 124.127 175.814 124.499 175.995 125.142L174.192 125.647C175.03 126.341 175.995 129.15 175.718 130.92C175.074 135.035 173.028 136.011 169.347 138.902L168.192 139.082C166.45 139.082 165.069 137.294 164.69 136.686C164.228 135.946 164.231 135.129 164.231 135.129C164.231 135.129 164.561 135.643 165.215 135.463C165.613 135.356 166.044 135.149 166.379 134.772C167.442 133.602 167.091 131.555 166.044 131.273C165.242 131.049 164.699 131.379 164.369 131.741L164.023 132.283L163.779 133.421L163.689 133.852C163.034 133.714 162.62 133.07 162.763 132.421C162.785 132.315 162.821 132.214 162.87 132.124L162.731 131.927C158.324 129.715 158.903 124.579 160.876 122.824Z" fill="#39D192"/>
<g opacity="0.5">
<path d="M160.872 122.824C162.781 121.128 166.721 120.421 170.155 122.617C170.155 122.617 171.791 122.644 173.098 124.371C173.045 124.148 173.066 123.903 173.162 123.669C173.422 123.058 174.135 122.771 174.746 123.031L174.13 124.488C174.236 124.408 174.364 124.345 174.502 124.307C175.145 124.127 175.81 124.499 175.991 125.142L174.188 125.647C175.026 126.34 175.991 129.149 175.714 130.92C175.07 135.035 173.024 136.011 169.343 138.901L168.188 139.081C166.446 139.081 165.065 137.294 164.686 136.686C164.224 135.946 164.227 135.129 164.227 135.129C164.227 135.129 164.557 135.643 165.211 135.463C165.609 135.356 166.04 135.149 166.375 134.772C167.439 133.602 167.087 131.554 166.04 131.273C165.238 131.049 164.695 131.379 164.365 131.741L164.019 132.283L163.775 133.421L163.685 133.852C163.031 133.713 162.616 133.07 162.759 132.421C162.781 132.315 162.818 132.214 162.866 132.124L162.728 131.927C158.32 129.715 158.899 124.579 160.872 122.824Z" fill="black"/>
</g>
<path d="M175.494 146.733C175.699 145.891 175.806 145.218 175.783 144.827L175.783 144.827C175.735 144.014 175.348 143.217 174.771 142.608C174.358 142.171 173.867 141.852 173.369 141.69L174.314 150.607C174.448 150.22 174.59 149.8 174.731 149.365C175.015 148.487 175.294 147.556 175.494 146.733Z" fill="white" stroke="black"/>
<path d="M173.279 158.489C173.918 156.169 175.483 153.649 175.483 149.467C175.483 144.41 172.781 141.054 172.781 141.054L169.586 141.102C169.586 141.102 169.525 141.88 167.915 142.193C165.695 142.625 164.193 142.028 164.193 142.028C163.89 142.059 162.192 142.12 162.192 142.12L158.147 149.197C157.156 150.582 157.001 152.456 158.033 154.114C158.542 154.933 159.152 155.484 159.64 155.833C160.017 157.55 160.616 159.302 160.616 159.302C166.996 160.967 170.587 161.267 173.279 158.489Z" fill="#39D192"/>
<g opacity="0.300003">
<path d="M173.275 158.489C173.914 156.169 175.479 153.649 175.479 149.467C175.479 144.41 172.777 141.054 172.777 141.054L169.582 141.102C169.582 141.102 169.521 141.88 167.911 142.193C165.691 142.625 164.189 142.028 164.189 142.028C163.886 142.059 162.188 142.12 162.188 142.12L158.143 149.197C157.152 150.582 156.997 152.456 158.029 154.114C158.538 154.933 159.148 155.484 159.636 155.833C160.013 157.55 160.612 159.302 160.612 159.302C166.992 160.967 170.583 161.267 173.275 158.489Z" fill="black"/>
</g>
<path d="M160.615 159.302V161.182C160.615 161.182 154.355 169.84 153.199 180.439C153.199 180.439 158.228 186.793 170.065 185.071C183.721 183.084 185.277 175.351 185.277 175.351C185.277 175.351 182.001 165.8 173.278 160.195V158.489L160.615 159.302Z" fill="#39D192"/>
<g opacity="0.300003">
<path d="M160.611 159.302V161.182C160.611 161.182 154.351 169.841 153.195 180.439C153.195 180.439 158.224 186.793 170.061 185.071C183.717 183.084 185.273 175.352 185.273 175.352C185.273 175.352 181.997 165.801 173.274 160.195V158.489L160.611 159.302Z" fill="black"/>
</g>
<path d="M173.28 158.489C173.28 158.489 172.538 160.142 167.692 160.438C165.743 160.557 161.975 160.195 160.617 159.302V161.182C160.617 161.182 162.499 162.651 168.114 162.345C173.267 162.064 173.28 160.195 173.28 160.195V158.489Z" fill="#39D192"/>
<path d="M135.869 156.937C135.707 157.41 135.707 157.41 135.707 157.41L135.707 157.41L135.706 157.41L135.705 157.409L135.701 157.408L135.688 157.403C135.677 157.399 135.662 157.394 135.642 157.387C135.604 157.372 135.55 157.351 135.481 157.323C135.343 157.267 135.148 157.183 134.91 157.066C134.434 156.833 133.785 156.47 133.08 155.948L133.079 155.948C132.634 155.618 132.261 155.391 131.959 155.267C131.648 155.14 131.492 155.154 131.425 155.181C131.379 155.199 131.272 155.263 131.18 155.569C131.088 155.879 131.039 156.36 131.066 157.066L131.066 157.066C131.095 157.851 131.357 158.526 132.065 159.156C132.799 159.809 134.033 160.429 136.047 161.014L135.869 156.937ZM135.869 156.937L135.707 157.41M135.869 156.937L135.707 157.41M159.93 151.848L159.501 151.592L159.572 151.473L159.694 151.408C161.156 150.623 161.85 149.011 162.083 147.178C162.291 145.549 162.119 143.845 161.875 142.657C159.729 142.756 158.858 143.067 158.21 143.711C157.845 144.075 157.527 144.569 157.119 145.284C157.004 145.485 156.882 145.704 156.751 145.94C156.426 146.522 156.045 147.206 155.569 147.988C154.35 149.989 152.628 153.409 151.398 155.853C151.139 156.368 150.901 156.84 150.694 157.246L150.612 157.408L150.445 157.479C149.123 158.043 147.041 158.447 145.034 158.646C143.034 158.844 141.006 158.849 139.799 158.561L159.93 151.848ZM159.93 151.848L159.501 151.592M159.93 151.848L159.501 151.592M138.413 157.625L138.413 157.625C138.745 158.111 139.251 158.43 139.799 158.561L138.413 157.625ZM138.413 157.625C138.108 157.176 137.807 156.922 137.469 156.684C137.382 156.623 137.286 156.559 137.184 156.491C136.902 156.304 136.573 156.085 136.241 155.796C135.937 155.532 135.722 155.279 135.573 155.095C135.541 155.193 135.528 155.341 135.603 155.553L135.603 155.554M138.413 157.625L135.603 155.554M135.603 155.554C135.706 155.84 135.847 156.04 136.266 156.633L136.277 156.648L137.169 157.909M135.603 155.554L137.169 157.909M137.169 157.909L135.707 157.41M137.169 157.909L135.707 157.41M152.144 161.575L152.143 161.575C149.561 162.105 144.195 162.535 140.541 162.069C139.047 161.879 137.23 161.357 136.047 161.014L152.144 161.575ZM152.144 161.575C152.189 161.566 152.303 161.521 152.575 161.29C152.838 161.067 153.189 160.726 153.71 160.211L153.71 160.211M152.144 161.575L153.71 160.211M153.71 160.211C154.077 159.849 154.622 159.14 155.249 158.246M153.71 160.211L155.249 158.246M155.249 158.246C155.869 157.363 156.548 156.329 157.179 155.342M155.249 158.246L157.179 155.342M157.179 155.342C157.809 154.355 158.39 153.417 158.813 152.726M157.179 155.342L158.813 152.726M158.813 152.726C159.025 152.38 159.197 152.097 159.316 151.899M158.813 152.726L159.316 151.899M159.316 151.899C159.376 151.801 159.422 151.724 159.453 151.672M159.316 151.899L159.453 151.672M159.453 151.672L159.489 151.612M159.453 151.672L159.489 151.612M159.489 151.612L159.498 151.597M159.489 151.612L159.498 151.597M159.498 151.597L159.5 151.593M159.498 151.597L159.5 151.593M159.5 151.593L159.501 151.592M159.5 151.593L159.501 151.592M159.501 151.592L159.501 151.592M159.501 151.592L159.501 151.592" fill="white" stroke="black"/>
</svg>
