<svg width="338" height="300" viewBox="0 0 338 300" fill="none" xmlns="http://www.w3.org/2000/svg">
<path d="M322.184 79.7917C322.257 79.3286 322.306 78.8575 322.306 78.3735C322.306 73.3739 318.253 69.3214 313.253 69.3214C312.752 69.3214 312.265 69.372 311.786 69.4506C309.981 66.4432 306.689 64.4294 302.926 64.4294C298.19 64.4294 294.202 67.619 292.985 71.9669C292.354 71.7702 291.684 71.6651 290.99 71.6651C287.285 71.6651 284.281 74.6685 284.281 78.3735C284.281 78.8607 284.336 79.3342 284.435 79.7917H322.184Z" fill="#F0F0F0"/>
<path d="M85.968 44.0623C86.0932 43.266 86.1775 42.4562 86.1775 41.6247C86.1775 33.0309 79.2107 26.0648 70.6169 26.0648C69.7565 26.0648 68.9185 26.1523 68.095 26.2872C64.9928 21.1182 59.3351 17.6573 52.8675 17.6573C44.7272 17.6573 37.8711 23.14 35.7786 30.6125C34.6959 30.2754 33.5441 30.094 32.3498 30.094C25.9809 30.094 20.8184 35.2566 20.8184 41.6247C20.8184 42.4618 20.9123 43.2765 21.0816 44.0623H85.968Z" fill="#F0F0F0"/>
<path d="M304.098 276.534H330.682V276.734H304.098V276.534Z" fill="#ECECEC"/>
<path d="M228.447 278.712H235.425V278.913H228.447V278.712Z" fill="#ECECEC"/>
<path d="M287.889 269.081H303.293V269.281H287.889V269.081Z" fill="#ECECEC"/>
<path d="M11.6816 270.43H46.3497V270.63H11.6816V270.43Z" fill="#ECECEC"/>
<path d="M53.4961 270.43H58.5792V270.63H53.4961V270.43Z" fill="#ECECEC"/>
<path d="M75.0996 273.818H150.287V274.018H75.0996V273.818Z" fill="#ECECEC"/>
<path d="M4.82361 0.997086C2.40769 0.997086 0.442846 2.96194 0.442846 5.37787V223.237C0.442846 225.653 2.40769 227.618 4.82361 227.618H159.811C162.225 227.618 164.191 225.653 164.191 223.237V5.37787C164.191 2.96194 162.225 0.997086 159.811 0.997086H4.82361ZM159.811 227.819H4.82361C2.29773 227.819 0.242188 225.764 0.242188 223.237V5.37787C0.242188 2.85199 2.29773 0.796432 4.82361 0.796432H159.811C162.336 0.796432 164.392 2.85199 164.392 5.37787V223.237C164.392 225.764 162.336 227.819 159.811 227.819Z" fill="#ECECEC"/>
<path d="M178.43 0.997086C176.015 0.997086 174.05 2.96194 174.05 5.37787V223.237C174.05 225.653 176.015 227.618 178.43 227.618H333.418C335.833 227.618 337.799 225.653 337.799 223.237V5.37787C337.799 2.96194 335.833 0.997086 333.418 0.997086H178.43ZM333.418 227.819H178.43C175.905 227.819 173.85 225.764 173.85 223.237V5.37787C173.85 2.85199 175.905 0.796432 178.43 0.796432H333.418C335.944 0.796432 337.999 2.85199 337.999 5.37787V223.237C337.999 225.764 335.944 227.819 333.418 227.819Z" fill="#ECECEC"/>
<path d="M0 240.389V187.025H25.7027V172.437H38.0087V129.554L53.9056 113.657H86.1642V159.608H130.432V168.691H161.73V156.763H195.353V147.773H221.607V94.5376H268.082V128.46H278.783V140.752H303.654V160.9H316.946L327.175 171.129V181.533H337.356V240.389H0Z" fill="#F0F0F0"/>
<path d="M31.3075 187.025H26.1458L25.7027 186.728V187.025H0V240.389H31.3075V187.025Z" fill="#E7E7E7"/>
<path d="M162.174 160.643V168.691H160.911L159.561 177.294L163.371 240.389H205.776V156.762H195.798H162.783L162.174 160.643Z" fill="#E7E7E7"/>
<path d="M260.893 140.753V240.389H337.802V181.533H327.621V171.129L317.392 160.9H304.1V140.753H281.527H279.229H260.893Z" fill="#E7E7E7"/>
<path d="M317.436 170.958H312.789V166.312H317.436V170.958Z" fill="white"/>
<path d="M309.225 170.958H304.578V166.312H309.225V170.958Z" fill="white"/>
<path d="M317.436 179.617H312.789V174.97H317.436V179.617Z" fill="white"/>
<path d="M309.225 179.617H304.578V174.97H309.225V179.617Z" fill="white"/>
<path d="M292.059 149.146H287.412V144.499H292.059V149.146Z" fill="white"/>
<path d="M283.848 149.146H279.201V144.499H283.848V149.146Z" fill="white"/>
<path d="M25.914 199.197H21.2676V194.551H25.914V199.197Z" fill="white"/>
<path d="M17.7031 199.197H13.0566V194.551H17.7031V199.197Z" fill="white"/>
<path d="M195.771 170.417H200.418V175.063H195.771V170.417Z" fill="white"/>
<path d="M195.771 162.206H200.418V166.853H195.771V162.206Z" fill="white"/>
<path d="M282.616 33.8023C235.665 11.1801 196.363 45.0063 186.797 73.8978C177.231 102.789 159.187 114.84 137.424 104.542C115.662 94.2438 78.5948 51.4016 31.8053 86.6998C-14.9842 121.997 54.5672 201.953 151.823 223.912C204.976 235.914 279.833 244.87 308.06 174.645C324.879 132.803 320.434 52.0245 282.616 33.8023Z" fill="#28B3DD"/>
<g opacity="0.800003">
<path d="M282.618 33.8023C235.667 11.1801 196.365 45.0063 186.799 73.8978C177.233 102.789 159.189 114.84 137.426 104.542C115.664 94.2438 78.5967 51.4016 31.8073 86.6998C-14.9822 121.997 54.5691 201.953 151.825 223.912C204.978 235.914 279.835 244.87 308.062 174.645C324.88 132.803 320.436 52.0245 282.618 33.8023Z" fill="white"/>
</g>
<path d="M324.3 290.776C324.3 295.796 254.626 299.864 168.678 299.864C82.73 299.864 13.0566 295.796 13.0566 290.776C13.0566 285.756 82.73 281.688 168.678 281.688C254.626 281.688 324.3 285.756 324.3 290.776Z" fill="#F5F5F5"/>
<path d="M325.57 287.475H281.723V251.21H325.57V287.475Z" fill="#28B3DD"/>
<g opacity="0.300003">
<path d="M325.565 287.476H281.717V251.21H325.565V287.476Z" fill="white"/>
</g>
<path d="M292.531 287.475H258.549V251.21H292.531V287.475Z" fill="#28B3DD"/>
<g opacity="0.100006">
<path d="M292.527 287.476H258.545V251.21H292.527V287.476Z" fill="white"/>
</g>
<g opacity="0.300003">
<path d="M280.344 262.493H270.73V251.21H280.344V262.493Z" fill="white"/>
</g>
<g opacity="0.100006">
<path d="M316.219 262.494H306.605V251.21H316.219V262.494Z" fill="black"/>
</g>
<path d="M307.134 272.55C306.709 272.539 306.284 272.527 305.861 272.516C305.852 272.147 305.834 271.774 305.862 271.406C305.906 270.834 306.308 269.721 307.108 270.222C307.354 270.376 307.648 270.025 307.399 269.868C306.563 269.344 305.734 269.905 305.49 270.781C305.336 271.332 305.395 271.938 305.405 272.503C305.161 272.498 304.917 272.491 304.673 272.484C304.383 272.477 304.307 272.929 304.6 272.935C304.871 272.943 305.141 272.95 305.412 272.958L305.445 275.078C305.45 275.373 305.905 275.321 305.9 275.029C305.889 274.342 305.879 273.656 305.868 272.97C306.265 272.98 306.663 272.991 307.06 273.001C307.351 273.009 307.427 272.558 307.134 272.55Z" fill="white"/>
<path d="M309.551 274.273C308.049 274.665 307.568 271.893 309.109 272.037C309.162 272.043 309.21 272.031 309.248 272.009C309.259 272.009 309.27 272.009 309.283 272.008C310.712 271.816 310.713 273.969 309.551 274.273ZM309.233 271.553C309.198 271.557 309.167 271.569 309.142 271.584C307.059 271.433 307.39 274.839 309.384 274.763C310.292 274.729 310.834 273.81 310.863 272.978C310.895 272.067 310.107 271.436 309.233 271.553Z" fill="white"/>
<path d="M311.714 273.548C311.289 272.324 313.352 271.146 313.773 272.584C313.79 272.641 313.822 272.68 313.861 272.703C313.864 272.711 313.867 272.72 313.871 272.728C314.646 274.107 312.153 274.813 311.714 273.548ZM314.193 272.4C313.58 270.388 310.465 272.039 311.354 273.866C311.742 274.667 312.81 274.81 313.571 274.519C314.434 274.188 314.672 273.224 314.242 272.461C314.229 272.434 314.211 272.416 314.193 272.4Z" fill="white"/>
<path d="M315.258 273.149C315.135 272.249 316.08 271.633 316.881 271.894C316.933 271.91 316.981 271.909 317.023 271.896C317.075 272.605 317.126 273.314 317.177 274.023C316.475 274.118 315.371 273.969 315.258 273.149ZM317.678 274.609C317.545 272.766 317.411 270.924 317.278 269.082C317.256 268.788 316.801 268.838 316.823 269.131C316.879 269.906 316.935 270.681 316.991 271.457C315.954 271.17 314.853 271.813 314.797 272.954C314.737 274.197 316.181 274.619 317.211 274.481C317.215 274.54 317.219 274.6 317.224 274.658C317.245 274.951 317.7 274.903 317.678 274.609Z" fill="white"/>
<path d="M170.215 33.3526H61.8969C55.2479 33.3526 49.8574 38.7431 49.8574 45.3921V271.362C49.8574 278.011 55.2479 283.401 61.8969 283.401H170.215C176.864 283.401 182.254 278.011 182.254 271.362V45.3921C182.254 38.7431 176.864 33.3526 170.215 33.3526Z" fill="#1A2E35"/>
<path d="M173.691 251.122H58.4199V50.0159H173.691V251.122Z" fill="#28B3DD"/>
<g opacity="0.300003">
<path d="M58.4199 251.122H173.691V231.192H58.4199V251.122Z" fill="white"/>
</g>
<g opacity="0.100006">
<path d="M173.693 132.769C144.389 161.918 90.1259 216.432 58.4219 248.314V251.122H122.833L173.693 200.263V132.769Z" fill="white"/>
</g>
<g opacity="0.100006">
<path d="M58.4219 151.153L159.558 50.0161H112.261C99.7398 62.4408 78.348 83.8767 58.4219 103.881V151.153Z" fill="white"/>
</g>
<g opacity="0.100006">
<path d="M58.4219 193.426L173.693 78.1553V53.4856L58.4219 168.757V193.426Z" fill="white"/>
</g>
<g opacity="0.199997">
<path d="M173.691 59.0879H58.4199V50.0157H173.691V59.0879Z" fill="black"/>
</g>
<path d="M123.914 264.934C123.914 260.595 120.396 257.076 116.056 257.076C111.715 257.076 108.197 260.595 108.197 264.934C108.197 269.274 111.715 272.793 116.056 272.793C120.396 272.793 123.914 269.274 123.914 264.934Z" fill="#28B3DD"/>
<g opacity="0.600006">
<g opacity="0.600006">
<path d="M70.8848 56.6335H72.6297V54.3075H70.8848V56.6335Z" fill="white"/>
</g>
<g opacity="0.600006">
<path d="M68.0391 56.6335H69.784V53.5314H68.0391V56.6335Z" fill="white"/>
</g>
<g opacity="0.600006">
<path d="M65.1992 56.6335H66.9441V52.7552H65.1992V56.6335Z" fill="white"/>
</g>
<g opacity="0.600006">
<path d="M62.3555 56.6335H64.1004V51.9791H62.3555V56.6335Z" fill="white"/>
</g>
</g>
<g opacity="0.600006">
<path d="M161.46 55.7844H160.426V53.4584H161.46V55.7844Z" fill="white"/>
</g>
<g opacity="0.600006">
<path d="M162.172 56.6335H170.412V52.6092H162.172V56.6335Z" fill="white"/>
</g>
<path d="M149.068 187.025H83.0431C78.8862 187.025 75.5176 190.394 75.5176 194.55C75.5176 198.707 78.8862 202.077 83.0431 202.077H149.068C153.224 202.077 156.594 198.707 156.594 194.55C156.594 190.394 153.224 187.025 149.068 187.025Z" fill="white"/>
<g opacity="0.300003">
<path d="M182.259 104.687L158.076 108.132L164.394 153.058L182.259 151.245V104.687Z" fill="#1A2E35"/>
</g>
<g opacity="0.699997">
<path d="M161.686 116.385C161.686 91.8007 141.756 71.8706 117.171 71.8706C92.5864 71.8706 72.6562 91.8007 72.6562 116.385C72.6562 140.97 92.5864 160.9 117.171 160.9C141.756 160.9 161.686 140.97 161.686 116.385Z" fill="white"/>
</g>
<path d="M133.137 89.1659C133.137 89.1659 142.233 102.614 147.335 103.162C152.437 103.71 172.406 86.5285 172.406 86.5285L175.799 89.4573C175.799 89.4573 156.799 110.357 148.869 111.546C140.94 112.735 125.865 97.0526 125.865 97.0526L133.137 89.1659Z" fill="white"/>
<path d="M130.969 90.1713C130.969 90.1713 134.173 87.0234 138.593 92.4845C143.013 97.9464 144.821 99.0693 144.821 99.0693L133.558 110.04C133.558 110.04 126.977 93.0921 130.969 90.1713Z" fill="#28B3DD"/>
<path d="M170.823 85.2909C170.823 85.2909 171.217 80.2407 172.395 79.9148C173.573 79.589 173.148 83.326 173.148 83.326C173.148 83.326 179.33 79.5577 180.574 79.8948C181.819 80.2319 181.611 82.6751 181.391 83.326C179.5 88.9115 172.759 91.2737 172.759 91.2737L170.039 88.7101L170.823 85.2909Z" fill="white"/>
<path d="M124.484 75.8057C124.484 75.8057 130.688 86.1444 128.781 92.6201C126.874 99.0957 117.1 93.2847 117.1 93.2847L117.217 80.4602L124.484 75.8057Z" fill="#1A2E35"/>
<path d="M107.844 57.9897C107.844 57.9897 98.6722 62.6385 102.274 78.9849C108.311 106.396 117.218 95.032 117.218 95.032C117.218 95.032 116.825 84.2261 113.167 78.9849C109.508 73.743 110.297 66.2512 110.297 66.2512L107.844 57.9897Z" fill="#1A2E35"/>
<path d="M134.454 130.401L106.945 132.776C106.511 125.942 106.078 120.726 104.02 112.576C103.362 109.942 102.536 107 101.478 103.6C100.911 101.783 100.287 99.8331 99.586 97.7334C99.061 96.141 98.4944 94.4498 97.8691 92.6664C101.611 91.4745 105.42 90.5498 109.287 89.9077C113.362 89.1829 117.495 88.7495 121.637 88.6083C126.987 88.5657 133.137 89.1661 133.137 89.1661C133.137 89.1661 134.012 89.3748 134.562 95.0502C135.062 100.375 135.554 111.025 134.454 130.401Z" fill="#28B3DD"/>
<g opacity="0.199997">
<path d="M134.456 130.401L106.946 132.776C106.513 125.942 106.08 120.726 104.022 112.576C103.364 109.942 102.538 107 101.48 103.6C100.913 101.783 100.289 99.8331 99.5879 97.7334C99.063 96.141 98.4963 94.4498 97.8711 92.6664C101.613 91.4745 105.421 90.5498 109.289 89.9077C113.364 89.1829 117.497 88.7495 121.639 88.6083C126.989 88.5657 133.139 89.1661 133.139 89.1661C133.139 89.1661 134.014 89.3748 134.564 95.0502C135.064 100.375 135.555 111.025 134.456 130.401Z" fill="white"/>
</g>
<g opacity="0.199997">
<path d="M106.811 130.714C111.216 129.002 125.743 121.873 125.743 121.873L106.443 126.223C106.589 127.695 106.705 129.175 106.811 130.714Z" fill="black"/>
</g>
<path d="M119.365 94.6821C112.586 93.8145 110.549 90.9186 110.549 90.9186C114.85 86.8605 111.277 79.8278 111.277 79.8278L119.436 81.352C119.222 82.6996 119.131 83.8313 119.118 84.7865C119.056 89.7395 121.295 89.7877 121.295 89.7877C122.727 92.4709 119.365 94.6821 119.365 94.6821Z" fill="white"/>
<g opacity="0.199997">
<path d="M119.437 81.3517C119.223 82.7001 119.131 83.8311 119.118 84.787C113.607 84.787 111.277 79.8283 111.277 79.8283L119.437 81.3517Z" fill="black"/>
</g>
<path d="M115.777 58.5087C122.87 58.1203 124.473 61.5234 125.393 68.8049C126.543 77.9044 124.911 84.8006 115.935 83.3358C106.083 81.7273 103.328 66.1362 109.248 60.1766C110.652 58.7616 113.519 58.6324 115.777 58.5087Z" fill="white"/>
<path d="M120.822 69.7229C120.822 69.7229 121.907 71.5224 123.047 72.5522C123.047 72.5522 122.493 73.5499 121.222 73.4568L120.822 69.7229Z" fill="white"/>
<path d="M116.525 68.9058C116.934 68.7718 117.217 68.2075 117.217 68.2075L115.99 68.8031C115.999 68.8095 116.006 68.8095 116.014 68.8151C115.704 68.9395 115.49 69.3633 115.53 69.8714C115.575 70.4533 115.927 70.9004 116.314 70.8699C116.703 70.8394 116.981 70.3433 116.935 69.7606C116.905 69.3818 116.74 69.076 116.525 68.9058Z" fill="#1A2E35"/>
<path d="M123.417 68.2698C123.827 68.1366 124.11 67.5715 124.11 67.5715L122.883 68.1671C122.892 68.1735 122.899 68.1735 122.908 68.1791C122.596 68.3035 122.383 68.7265 122.423 69.2354C122.469 69.8173 122.819 70.2635 123.208 70.2338C123.595 70.2033 123.873 69.7073 123.827 69.1246C123.798 68.7457 123.632 68.4399 123.417 68.2698Z" fill="#1A2E35"/>
<path d="M116.519 65.6329C116.519 65.6329 114.512 65.4828 113.502 66.8738" stroke="#1A2E35" stroke-width="0.942667" stroke-miterlimit="10" stroke-linecap="round" stroke-linejoin="round"/>
<path d="M120.836 65.3452C120.836 65.3452 121.922 64.5635 123.721 65.1558" stroke="#1A2E35" stroke-width="0.942667" stroke-miterlimit="10" stroke-linecap="round" stroke-linejoin="round"/>
<path d="M104.266 91.6704C104.266 91.6704 112.225 98.1292 119.635 98.0249C127.046 97.9205 129.65 89.5868 129.65 89.5868C129.65 89.5868 118.157 86.1844 104.266 91.6704Z" fill="white"/>
<path d="M92.551 107.799C92.551 107.799 90.0492 122.573 90.3445 126.775C90.6407 130.979 97 131.113 100.577 130.686C104.699 130.194 126.166 121.705 126.166 121.705L125.176 117.461C125.176 117.461 108.363 121.99 101.22 122.814C99.7715 122.982 98.5619 121.73 98.7818 120.288L100.447 109.327L92.551 107.799Z" fill="white"/>
<path d="M97.8696 92.6663C97.8696 92.6663 102.254 91.6935 103.11 98.6667C103.966 105.641 101.471 111.135 101.471 111.135L90.3457 109.127C90.3457 109.127 92.9366 93.029 97.8696 92.6663Z" fill="#28B3DD"/>
<path d="M130.655 113.233C130.301 113.062 129.985 112.984 129.743 113.047C128.427 113.39 124.422 117.344 124.189 117.876L125.221 121.624C125.221 121.624 127.326 122.747 128.339 122.413C129.351 122.079 134.531 118.283 134.536 117.372C134.537 117.328 134.523 117.274 134.507 117.218C134.688 117.082 134.844 116.967 134.951 116.901C135.856 116.337 132.624 113.917 130.655 113.233Z" fill="white"/>
<path d="M115.358 58.5319C115.358 58.5319 116.263 67.4315 108.846 67.7469C101.429 68.0624 107.628 59.7808 107.628 59.7808L115.358 58.5319Z" fill="#1A2E35"/>
<path d="M113.768 55.7929C101.578 56.1774 102.588 74.0143 109.176 78.985C109.176 78.985 105.98 74.6724 107.831 70.9153C107.831 70.9153 110.202 65.1043 109.453 60.6328C109.453 60.6328 112.183 59.359 115.386 59.0974C116.757 60.7644 120.177 65.8371 124.714 65.7351C124.898 66.4631 125.217 67.2641 125.309 68.1478C125.309 68.1478 125.976 55.4077 113.768 55.7929Z" fill="#1A2E35"/>
<path d="M122.671 76.8797C121.33 77.6061 119.587 77.6615 118.172 76.9535C118.092 76.9062 118.064 76.8042 118.11 76.724C118.152 76.6445 118.25 76.614 118.329 76.6558C118.332 76.6582 118.336 76.6606 118.34 76.6622C119.669 77.2922 121.217 77.2601 122.518 76.5739C122.596 76.5289 122.695 76.5562 122.74 76.6341C122.742 76.6397 122.745 76.6445 122.748 76.6501C122.792 76.728 122.765 76.8275 122.687 76.8717C122.682 76.8749 122.677 76.8773 122.671 76.8797Z" fill="#1A2E35"/>
<path d="M109.071 72.3491C108.961 71.2094 107.677 69.3408 105.565 69.6892C103.38 70.0495 102.58 74.6197 108.107 75.4047C108.9 75.5171 109.3 74.7265 109.071 72.3491Z" fill="white"/>
<path d="M108.242 104.786L115.626 103.737C115.626 103.737 118.052 111.61 113.658 112.459C108.86 113.385 108.242 104.786 108.242 104.786Z" fill="#28B3DD"/>
<path d="M136.061 147.212C135.693 143.567 135.12 138.604 134.378 134.705L134.452 130.4L106.943 132.776L106.698 136.776C106.052 137.964 103.248 143.845 101.975 158.236C106.717 159.958 111.833 160.9 117.169 160.9C124.404 160.9 131.23 159.163 137.269 156.1L136.061 147.212Z" fill="#1A2E35"/>
<path d="M205.827 133.925L191.838 137.475C191.838 137.475 190.191 136.367 188.214 136.735C186.236 137.103 181.275 141.159 181.468 141.749C181.663 142.338 187.643 145.097 188.5 144.873C191.582 144.068 194.758 140.482 194.758 140.482L207.265 137.91L205.827 133.925Z" fill="white"/>
<path d="M240.898 83.6208C238.054 86.6476 230.525 86.3899 230.525 86.3899C230.525 86.3899 228.045 86.6034 227.424 84.4973C230.149 83.8231 230.565 81.8671 230.987 80.1751C231.231 79.1895 231.194 78.1052 231.017 76.9999C230.931 76.4196 230.796 75.8345 230.646 75.259L239.384 67.6517C238.527 72.2837 237.637 80.57 240.898 83.6208Z" fill="white"/>
<g opacity="0.199997">
<path d="M237.587 72.1895C237.659 77.7879 233.204 79.6861 230.988 80.1749C231.232 79.1893 231.195 78.1057 231.019 77.0005L237.587 72.1895Z" fill="black"/>
</g>
<path d="M238.311 73.4283C236.333 76.813 232.759 77.9415 229.519 77.1911C227.436 76.7119 225.493 75.4486 224.196 73.5142C224.023 73.2622 223.865 72.9933 223.714 72.7148C221.031 67.5972 219.578 58.3886 224.904 54.4734C228.682 51.6545 234.042 52.4299 236.861 56.2167C237.671 57.2874 238.205 58.5419 238.439 59.8679C239.616 66.0064 240.598 69.5596 238.311 73.4283Z" fill="white"/>
<path d="M229.337 64.2836C229.495 64.7643 229.306 65.2403 228.978 65.3222C228.65 65.4048 228.294 65.0661 228.166 64.5757C228.038 64.0853 228.205 63.6166 228.526 63.5363C228.846 63.4568 229.207 63.7851 229.337 64.2836Z" fill="#1A2E35"/>
<path d="M223.917 65.4252C224.075 65.906 223.878 66.3843 223.558 66.4638C223.237 66.5449 222.874 66.2078 222.746 65.7173C222.619 65.2269 222.785 64.7582 223.106 64.6779C223.425 64.5985 223.798 64.9572 223.917 65.4252Z" fill="#1A2E35"/>
<path d="M225.865 65.572C225.66 67.2294 225.386 68.7408 224.736 70.2794C225.547 70.5964 226.658 70.0948 227.422 69.6782L225.865 65.572Z" fill="white"/>
<path d="M230.942 61.6468C230.839 61.6893 230.721 61.6733 230.633 61.6051C230.051 61.1163 229.273 60.9309 228.534 61.1042C228.377 61.1564 228.209 61.0721 228.158 60.9164C228.106 60.7607 228.19 60.593 228.347 60.5408C228.347 60.5408 228.347 60.5408 228.347 60.5408C229.234 60.3088 230.253 60.5079 231.003 61.1371C231.133 61.2359 231.16 61.4221 231.061 61.5529C231.06 61.5545 231.059 61.5569 231.057 61.5585C231.023 61.5938 230.985 61.6235 230.942 61.6468Z" fill="#1A2E35"/>
<path d="M228.571 72.1081C229.998 71.9684 231.385 71.0944 232.117 69.7989C232.153 69.7203 232.121 69.6264 232.044 69.587C231.969 69.5477 231.877 69.5758 231.836 69.6496C231.835 69.6529 231.833 69.6569 231.832 69.6601C231.128 70.8504 229.904 71.6394 228.53 71.7895C228.446 71.7959 228.383 71.8689 228.389 71.9532C228.389 71.958 228.39 71.9636 228.391 71.9701C228.397 72.0535 228.471 72.1169 228.554 72.1105C228.56 72.1097 228.566 72.1089 228.571 72.1081Z" fill="#1A2E35"/>
<path d="M221.19 63.9873C221.141 64.0226 221.083 64.0419 221.023 64.0427C220.861 64.0122 220.755 63.8565 220.787 63.6951C220.788 63.6927 220.788 63.6911 220.788 63.6887C220.962 62.7408 221.586 61.9366 222.461 61.5328C222.614 61.4734 222.786 61.5481 222.846 61.7006V61.7014C222.902 61.8547 222.828 62.024 222.678 62.0866C221.995 62.4254 221.514 63.0667 221.379 63.8155C221.344 63.8974 221.275 63.9608 221.19 63.9873Z" fill="#1A2E35"/>
<path d="M242.343 64.1652C242.018 65.7054 241.095 67.0555 239.777 67.9167C238.024 69.0452 236.533 67.6229 236.502 65.646C236.491 63.8891 237.366 61.132 239.383 60.8182C241.399 60.5036 242.718 62.2686 242.343 64.1652Z" fill="white"/>
<path d="M214.705 88.3884C214.705 88.3884 210.39 92.0444 208.266 98.8026C206.755 103.609 205.341 114.96 204.652 121.114C204.376 123.573 202.511 125.549 200.073 125.973L183.166 128.917L184.518 137.511L205.933 135.455C210.643 135.003 214.502 131.517 215.419 126.875C216.726 120.252 218.476 110.653 219.271 103.05C220.622 90.1133 219.215 87.0496 214.705 88.3884Z" fill="#28B3DD"/>
<g opacity="0.100006">
<path d="M214.705 88.3885C214.705 88.3885 210.39 92.0445 208.266 98.8027C206.755 103.609 205.341 114.96 204.652 121.114C204.376 123.574 202.511 125.55 200.073 125.973L183.166 128.917L184.518 137.511L205.933 135.455C210.643 135.003 214.502 131.517 215.419 126.875C216.726 120.252 218.476 110.654 219.271 103.05C220.622 90.1134 219.215 87.0497 214.705 88.3885Z" fill="black"/>
</g>
<path d="M202.832 279.43L196.475 277.865L200.094 264.241L206.453 265.805L202.832 279.43Z" fill="white"/>
<path d="M196.536 275.662L203.745 278.265C203.988 278.354 204.137 278.6 204.104 278.856L203.365 284.564C203.295 285.072 202.824 285.428 202.315 285.357C202.247 285.348 202.181 285.331 202.115 285.307C199.797 284.426 198.15 283.67 195.221 282.612C193.417 281.961 187.906 280.184 185.414 279.284C182.923 278.384 183.487 275.806 184.588 275.947C189.523 276.603 193.464 276.464 195.403 275.679C195.764 275.529 196.17 275.523 196.536 275.662Z" fill="#263237"/>
<path d="M193.758 274.446C193.697 274.418 193.63 274.408 193.563 274.419C193.525 274.404 193.461 274.441 193.413 274.552C193.321 274.732 193.323 274.947 193.419 275.126C193.976 275.667 194.717 275.978 195.495 275.995C195.02 275.372 194.431 274.846 193.758 274.446ZM194.197 275.996C193.782 275.882 193.418 275.631 193.166 275.281C193.01 275.018 193.002 274.692 193.144 274.421C193.2 274.252 193.351 274.132 193.528 274.115C194.307 274.012 195.799 275.883 195.962 276.095C196.002 276.139 196.01 276.203 195.98 276.256C195.952 276.31 195.893 276.343 195.831 276.338C195.276 276.285 194.728 276.169 194.197 275.996Z" fill="#28B3DD"/>
<path d="M195.468 273.493L195.401 273.469C195.219 273.404 195.166 273.503 195.145 273.538C194.93 273.896 195.328 275.157 195.773 275.839C195.978 275.149 195.967 274.413 195.742 273.728C195.683 273.62 195.585 273.536 195.468 273.493ZM195.792 276.332L195.723 276.308C195.232 275.754 194.518 274.02 194.865 273.437C194.987 273.237 195.232 273.151 195.451 273.231C195.678 273.28 195.871 273.425 195.983 273.628C196.468 274.434 195.996 276.192 195.973 276.278C195.955 276.33 195.912 276.369 195.858 276.382C195.832 276.373 195.808 276.355 195.792 276.332Z" fill="#28B3DD"/>
<g opacity="0.199997">
<path d="M206.452 265.806L200.095 264.242L198.232 271.27L204.59 272.835L206.452 265.806Z" fill="black"/>
</g>
<path d="M244.925 279.366L238.423 280.138L237.02 266.111L243.522 265.339L244.925 279.366Z" fill="white"/>
<path d="M237.708 278.054L245.372 277.954C245.631 277.952 245.856 278.129 245.916 278.38L247.233 283.983C247.345 284.485 247.031 284.983 246.529 285.095C246.462 285.111 246.393 285.119 246.324 285.119C243.844 285.111 242.036 284.981 238.922 285.021C237.004 285.046 231.22 285.322 228.572 285.356C225.923 285.391 225.544 282.779 226.625 282.524C231.474 281.402 235.115 279.885 236.654 278.469C236.939 278.201 237.316 278.051 237.708 278.054Z" fill="#263237"/>
<path d="M234.678 277.892C234.612 277.887 234.544 277.903 234.486 277.935C234.445 277.936 234.398 277.992 234.392 278.112C234.369 278.314 234.446 278.513 234.6 278.648C235.311 278.959 236.116 278.989 236.848 278.731C236.185 278.315 235.448 278.03 234.678 277.892ZM235.634 279.188C235.205 279.228 234.777 279.12 234.418 278.883C234.179 278.691 234.057 278.388 234.095 278.084C234.088 277.907 234.186 277.742 234.346 277.663C235.039 277.293 237.094 278.519 237.32 278.66C237.374 278.687 237.404 278.745 237.395 278.804C237.388 278.866 237.345 278.917 237.284 278.934C236.745 279.079 236.192 279.164 235.634 279.188Z" fill="#28B3DD"/>
<path d="M235.941 276.399L235.869 276.4C235.676 276.402 235.662 276.516 235.654 276.555C235.579 276.965 236.395 278.006 237.052 278.488C237 277.769 236.731 277.085 236.28 276.523C236.186 276.443 236.065 276.398 235.941 276.399ZM237.243 278.943L237.17 278.944C236.516 278.598 235.238 277.227 235.357 276.559C235.4 276.329 235.6 276.162 235.833 276.159C236.062 276.126 236.294 276.194 236.47 276.344C237.208 276.928 237.384 278.741 237.394 278.828C237.395 278.883 237.368 278.935 237.323 278.965C237.294 278.966 237.266 278.958 237.243 278.943Z" fill="#28B3DD"/>
<g opacity="0.199997">
<path d="M243.526 265.339L237.023 266.112L237.753 273.347L244.255 272.574L243.526 265.339Z" fill="black"/>
</g>
<path d="M214.689 151.214C214.689 151.214 198.345 231.217 197.771 261.898L208.668 266.774C208.668 266.774 217.543 232.072 220.425 212.578C220.425 212.578 228.069 197.094 230.125 184.477C230.125 184.477 229.696 239.832 235.432 269.081L245.658 268.293C245.658 268.293 255.975 164.406 254.115 147.773L214.689 151.214Z" fill="#28B3DD"/>
<g opacity="0.600006">
<path d="M214.689 151.214C214.689 151.214 198.345 231.217 197.771 261.898L208.668 266.774C208.668 266.774 217.543 232.072 220.425 212.578C220.425 212.578 228.069 197.094 230.125 184.477C230.125 184.477 229.696 239.832 235.432 269.081L245.658 268.293C245.658 268.293 255.975 164.406 254.115 147.774L214.689 151.214Z" fill="white"/>
</g>
<g opacity="0.199997">
<path d="M228.342 164.295C228.342 164.295 227.131 183.311 228.859 190.294C229.374 188.331 229.811 186.372 230.12 184.478L228.342 164.295Z" fill="black"/>
</g>
<path d="M234.138 271.409L248.17 269.321L247.741 265.435L233.145 267.351L234.138 271.409Z" fill="#28B3DD"/>
<path d="M195.924 264.89L209.481 269.068L210.773 265.378L196.78 260.8L195.924 264.89Z" fill="#28B3DD"/>
<path d="M214.706 88.3884C214.706 88.3884 216.44 84.9612 231.672 84.0759C246.903 83.1906 253.727 85.4452 253.727 85.4452C253.727 85.4452 252.347 117.698 254.116 147.774C254.116 147.774 228.634 156.847 214.69 151.214C214.69 151.214 204.237 112.261 214.706 88.3884Z" fill="#28B3DD"/>
<g opacity="0.199997">
<path d="M237.129 83.8794C235.445 83.9011 233.627 83.9621 231.669 84.0761C230.493 84.1443 229.408 84.2294 228.389 84.3249C228.401 84.3482 229.687 86.789 231.669 86.7898C234.098 86.7906 236.267 85.3723 237.129 83.8794Z" fill="black"/>
</g>
<g opacity="0.300003">
<path d="M253.311 125.786L230.121 137.511C230.121 137.511 244.738 137.961 253.482 133.221C253.409 130.712 253.352 128.227 253.311 125.786Z" fill="black"/>
</g>
<g opacity="0.100006">
<path d="M231.375 93.1076L239.619 129.775L237.784 134.522L231.375 93.1076Z" fill="black"/>
</g>
<path d="M237.785 134.522L194.452 141.228L188.043 99.8136L231.375 93.1076L237.785 134.522Z" fill="#28B3DD"/>
<g opacity="0.100006">
<path d="M237.783 134.522L194.45 141.228L188.041 99.8136L231.374 93.1076L237.783 134.522Z" fill="white"/>
</g>
<path d="M205.134 139.575L171.552 144.772L165.143 103.357L198.725 98.1603L205.134 139.575Z" fill="#28B3DD"/>
<g opacity="0.300003">
<path d="M205.136 139.574L171.554 144.771L165.145 103.357L198.727 98.1602L205.136 139.574Z" fill="white"/>
</g>
<g opacity="0.300003">
<path d="M188.411 111.174L178.911 112.645L177.186 101.494L186.686 100.024L188.411 111.174Z" fill="white"/>
</g>
<g opacity="0.100006">
<path d="M223.862 105.688L214.362 107.158L212.637 96.0071L222.137 94.5375L223.862 105.688Z" fill="black"/>
</g>
<g opacity="0.199997">
<path d="M202.673 137.62L192.29 139.227L191.312 132.907L201.695 131.3L202.673 137.62Z" fill="white"/>
</g>
<g opacity="0.199997">
<path d="M217.923 137.187L216.856 135.777L213.411 136.51C213.411 136.51 213.132 137.287 213.203 138.325L217.975 137.587L217.923 137.187Z" fill="#263237"/>
</g>
<path d="M237.845 128.917L223.823 132.335C223.823 132.335 222.186 131.211 220.205 131.56C218.224 131.91 213.225 135.92 213.413 136.51C213.601 137.102 218.247 140.737 219.09 140.468C219.935 140.199 225.345 136.384 225.345 136.384L238.705 135.267L237.845 128.917Z" fill="white"/>
<path d="M252.822 85.4005C252.822 85.4005 246.927 86.968 247.767 97.8959C248.133 102.649 248.319 107.724 248.413 111.941C248.542 117.713 245.32 123.032 240.149 125.6L228.639 130.306L230.126 137.511C230.126 137.511 246.846 135.983 252.73 131.276C258.615 126.569 260.664 116.535 259.705 108.213C258.375 96.6566 258.816 84.9302 252.822 85.4005Z" fill="#28B3DD"/>
<g opacity="0.100006">
<path d="M252.822 85.4004C252.822 85.4004 246.927 86.968 247.767 97.8958C248.133 102.649 248.319 107.724 248.413 111.941C248.542 117.713 245.32 123.032 240.149 125.6L228.639 130.306L230.126 137.511C230.126 137.511 246.846 135.983 252.73 131.276C258.615 126.569 260.664 116.535 259.705 108.213C258.375 96.6566 258.816 84.9301 252.822 85.4004Z" fill="black"/>
</g>
<path d="M229.726 128.46L230.706 138.507L227.999 138.767L226.566 129.363L229.726 128.46Z" fill="#28B3DD"/>
<g opacity="0.600006">
<path d="M229.726 128.46L230.706 138.507L227.999 138.767L226.566 129.363L229.726 128.46Z" fill="white"/>
</g>
<g opacity="0.399994">
<path d="M244.015 102.34L234.686 103.175L234.553 101.686L243.882 100.851L244.015 102.34Z" fill="white"/>
</g>
<path d="M231.668 84.0763L234.688 88.0999L241.054 83.9029V83.4976C241.054 82.8137 240.78 82.1227 240.218 81.7326C239.715 81.3834 239.063 81.3016 238.173 81.5985L231.668 84.0763Z" fill="#28B3DD"/>
<path d="M227.424 84.3949L228.174 83.1597C229.108 82.056 229.854 82.6219 229.854 82.6219L231.671 84.0763L229.023 88.0999L227.424 84.3949Z" fill="#28B3DD"/>
<g opacity="0.600006">
<path d="M231.666 84.0764L234.686 88.1L241.052 83.903V83.4977C241.052 82.8138 240.778 82.1228 240.216 81.7327C239.713 81.3835 239.061 81.3017 238.171 81.5987L231.666 84.0764Z" fill="white"/>
</g>
<g opacity="0.600006">
<path d="M227.424 84.395L228.174 83.1598C229.108 82.0562 229.854 82.622 229.854 82.622L231.671 84.0764L229.023 88.1L227.424 84.395Z" fill="white"/>
</g>
<path d="M242.189 63.9991C242.612 61.2565 240.708 60.8801 239.453 61.2124C238.144 61.5583 236.845 63.5248 236.845 63.5248C235.629 61.5511 234.935 56.5547 234.935 56.5547C234.935 56.5547 230.609 59.3928 224.738 56.9889C224.738 56.9889 223.971 59.4635 221.419 61.0567C221.419 61.0567 219.161 60.0229 220.417 54.817C221.844 48.908 230.734 43.1829 239.692 49.0774C248.649 54.9719 243.22 65.9078 243.22 65.9078C243.22 65.9078 241.194 69.4907 239.389 70.84C239.389 70.84 239.657 69.0068 239.383 67.6511C239.383 67.6511 241.776 66.6775 242.189 63.9991Z" fill="#263237"/>
<path d="M223.674 55.52C224.162 56.1244 224.794 56.7047 225.461 57.1838C226.13 57.671 226.867 58.0715 227.646 58.3717C228.422 58.6751 229.243 58.887 230.083 58.9576C230.923 59.0644 231.774 58.9938 232.62 58.8918C231.787 59.0596 230.933 59.1984 230.071 59.1583C229.209 59.1527 228.346 59.0026 227.515 58.7514C226.681 58.5026 225.875 58.1446 225.128 57.6855C224.375 57.224 223.69 56.6998 223.051 56.0264L223.674 55.52Z" fill="#263237"/>
</svg>
