<svg width="338" height="327" viewBox="0 0 338 327" fill="none" xmlns="http://www.w3.org/2000/svg">
<g clip-path="url(#clip0_525_1655)">
<path d="M303.403 49.7802C282.684 2.83008 232.955 -14.846 193.718 16.6635C178.402 28.9634 168.837 48.5355 150.077 56.3862C132.479 63.7502 110.177 61.5761 91.1403 65.566C50.608 74.0598 -3.94018 106.123 0.224965 155.435C2.0519 177.054 16.7282 201.067 23.9726 221.289C32.3121 244.568 37.3216 273.678 59.3397 287.592C97.1307 311.475 142.713 291.95 176.791 272.685C195.101 262.335 205.195 255.969 224.919 259.517C243.186 262.803 259.63 274.414 277.476 260.671C290.874 250.353 291.978 229.433 303.227 217.154C315.901 203.318 328.755 202.315 335.337 181.515C343.32 156.285 331.56 140.518 323.603 117.972C315.688 95.5436 313.164 71.8997 303.403 49.7802Z" fill="#28B3DD"/>
<g opacity="0.699997">
<path d="M303.403 49.7802C282.684 2.83008 232.955 -14.846 193.718 16.6635C178.402 28.9634 168.837 48.5355 150.077 56.3862C132.479 63.7502 110.177 61.5761 91.1403 65.566C50.608 74.0598 -3.94018 106.123 0.224965 155.435C2.0519 177.054 16.7282 201.067 23.9726 221.289C32.3121 244.568 37.3216 273.678 59.3397 287.592C97.1307 311.475 142.713 291.95 176.791 272.685C195.101 262.335 205.195 255.969 224.919 259.517C243.186 262.803 259.63 274.414 277.476 260.671C290.874 250.353 291.978 229.433 303.227 217.154C315.901 203.318 328.755 202.315 335.337 181.515C343.32 156.285 331.56 140.518 323.603 117.972C315.688 95.5436 313.164 71.8997 303.403 49.7802Z" fill="white"/>
</g>
<path d="M17.041 318.828C17.041 323.229 74.6702 326.796 145.758 326.796C216.846 326.796 274.475 323.229 274.475 318.828C274.475 314.428 216.846 310.86 145.758 310.86C74.6702 310.86 17.041 314.428 17.041 318.828Z" fill="#28B3DD"/>
<g opacity="0.800003">
<path d="M17.041 318.828C17.041 323.229 74.6702 326.796 145.758 326.796C216.846 326.796 274.475 323.229 274.475 318.828C274.475 314.428 216.846 310.86 145.758 310.86C74.6702 310.86 17.041 314.428 17.041 318.828Z" fill="white"/>
</g>
<path d="M242.487 319.497H113.057C104.122 319.497 96.8789 312.298 96.8789 303.417V31.8451C96.8789 22.9649 104.122 15.7655 113.057 15.7655H242.487C251.422 15.7655 258.667 22.9649 258.667 31.8451V303.417C258.667 312.298 251.422 319.497 242.487 319.497Z" fill="#1A2E35"/>
<path d="M251.477 286.145H104.07V49.1161H251.477V286.145Z" fill="white" stroke="#1A2E35" stroke-width="1.78267" stroke-miterlimit="10"/>
<path d="M209.724 122.643C209.724 105.104 195.418 90.8859 177.772 90.8859C160.126 90.8859 145.82 105.104 145.82 122.643C145.82 140.181 160.126 154.4 177.772 154.4C195.418 154.4 209.724 140.181 209.724 122.643Z" fill="#28B3DD"/>
<path d="M219.715 271.236H135.828C135.037 271.236 134.395 270.598 134.395 269.811C134.395 269.024 135.037 268.386 135.828 268.386H219.715C220.507 268.386 221.149 269.024 221.149 269.811C221.149 270.598 220.507 271.236 219.715 271.236Z" fill="#28B3DD"/>
<path d="M222.455 189.347H133.09C131.247 189.347 129.754 187.863 129.754 186.032V175.559C129.754 173.728 131.247 172.243 133.09 172.243H222.455C224.298 172.243 225.791 173.728 225.791 175.559V186.032C225.791 187.863 224.298 189.347 222.455 189.347Z" fill="#28B3DD"/>
<path d="M222.455 221.348H133.09C131.247 221.348 129.754 219.864 129.754 218.033V207.56C129.754 205.729 131.247 204.244 133.09 204.244H222.455C224.298 204.244 225.791 205.729 225.791 207.56V218.033C225.791 219.864 224.298 221.348 222.455 221.348Z" fill="#28B3DD"/>
<path d="M193.68 138.481L184.282 133.102V128.656C185.565 127.167 186.562 125.242 187.17 123.056C187.457 123.154 187.792 123.228 188.18 123.228C189.347 123.228 190.086 119.635 190.207 117.074C191.565 114.217 189.715 112.548 189.715 112.548C189.715 112.548 190.483 111.784 190.994 108.733C191.506 105.682 189.204 106.953 187.413 104.156C185.622 101.358 184.342 98.3069 178.458 98.3069C172.572 98.3069 170.781 103.138 170.781 103.138C170.781 103.138 168.223 103.138 166.432 103.647C164.641 104.156 164.13 110.004 165.664 112.293C166.357 113.326 166.632 114.929 166.726 116.377C166.319 115.879 165.891 115.745 165.664 116.87C165.153 119.413 167.2 122.974 167.2 122.974L168.263 122.672C168.857 125.02 169.906 127.08 171.266 128.656V133.102L161.866 138.481C159.629 139.761 158.25 142.132 158.25 144.698V147.773C163.65 151.923 170.419 154.4 177.773 154.4C185.128 154.4 191.897 151.923 197.298 147.773V144.698C197.298 142.132 195.919 139.761 193.68 138.481Z" fill="#1A2E35"/>
<path d="M141.922 217.096C141.706 217.096 141.513 217.015 141.343 216.855C141.173 216.693 141.087 216.501 141.087 216.279C141.087 216.129 141.129 215.99 141.212 215.857L142.708 213.467L139.791 213.566C139.534 213.566 139.333 213.491 139.187 213.337C139.042 213.183 138.969 213.001 138.969 212.786C138.969 212.579 139.042 212.398 139.187 212.241C139.333 212.084 139.534 212.005 139.791 212.005L142.67 212.117L141.187 209.739C141.104 209.597 141.062 209.455 141.062 209.306C141.062 209.083 141.147 208.891 141.318 208.73C141.488 208.569 141.681 208.488 141.897 208.488C142.18 208.488 142.404 208.632 142.57 208.922L143.991 211.473L145.399 208.935C145.59 208.629 145.831 208.476 146.122 208.476C146.337 208.476 146.525 208.559 146.682 208.724C146.84 208.889 146.919 209.083 146.919 209.306C146.919 209.438 146.882 209.573 146.807 209.714L145.299 212.117L148.227 212.005C148.485 212.005 148.685 212.082 148.826 212.235C148.967 212.388 149.038 212.571 149.038 212.786C149.038 213.001 148.967 213.183 148.826 213.337C148.685 213.491 148.485 213.566 148.227 213.566L145.287 213.467L146.745 215.833C146.828 215.973 146.869 216.117 146.869 216.266C146.869 216.49 146.784 216.683 146.614 216.848C146.444 217.013 146.255 217.096 146.047 217.096C145.764 217.096 145.545 216.947 145.386 216.65L143.991 214.161L142.608 216.65C142.433 216.947 142.205 217.096 141.922 217.096Z" fill="#1A2E35"/>
<path d="M155.43 217.096C155.214 217.096 155.02 217.015 154.851 216.855C154.681 216.693 154.595 216.501 154.595 216.279C154.595 216.129 154.637 215.99 154.72 215.857L156.215 213.467L153.299 213.566C153.042 213.566 152.84 213.491 152.695 213.337C152.55 213.183 152.477 213.001 152.477 212.786C152.477 212.579 152.55 212.398 152.695 212.241C152.84 212.084 153.042 212.005 153.299 212.005L156.178 212.117L154.695 209.739C154.612 209.597 154.57 209.455 154.57 209.306C154.57 209.083 154.655 208.891 154.826 208.73C154.996 208.569 155.189 208.488 155.405 208.488C155.687 208.488 155.912 208.632 156.078 208.922L157.499 211.473L158.907 208.935C159.097 208.629 159.339 208.476 159.629 208.476C159.845 208.476 160.032 208.559 160.19 208.724C160.348 208.889 160.427 209.083 160.427 209.306C160.427 209.438 160.39 209.573 160.316 209.714L158.807 212.117L161.735 212.005C161.993 212.005 162.192 212.082 162.334 212.235C162.474 212.388 162.545 212.571 162.545 212.786C162.545 213.001 162.474 213.183 162.334 213.337C162.192 213.491 161.993 213.566 161.735 213.566L158.795 213.467L160.253 215.833C160.336 215.973 160.377 216.117 160.377 216.266C160.377 216.49 160.291 216.683 160.122 216.848C159.952 217.013 159.763 217.096 159.554 217.096C159.272 217.096 159.052 216.947 158.894 216.65L157.499 214.161L156.115 216.65C155.941 216.947 155.712 217.096 155.43 217.096Z" fill="#1A2E35"/>
<path d="M168.937 217.096C168.721 217.096 168.528 217.015 168.358 216.855C168.188 216.693 168.103 216.501 168.103 216.279C168.103 216.129 168.144 215.99 168.227 215.857L169.722 213.467L166.806 213.566C166.549 213.566 166.347 213.491 166.203 213.337C166.057 213.183 165.984 213.001 165.984 212.786C165.984 212.579 166.057 212.398 166.203 212.241C166.347 212.084 166.549 212.005 166.806 212.005L169.685 212.117L168.202 209.739C168.119 209.597 168.078 209.455 168.078 209.306C168.078 209.083 168.163 208.891 168.333 208.73C168.503 208.569 168.696 208.488 168.913 208.488C169.195 208.488 169.419 208.632 169.585 208.922L171.006 211.473L172.414 208.935C172.605 208.629 172.846 208.476 173.137 208.476C173.353 208.476 173.539 208.559 173.698 208.724C173.855 208.889 173.934 209.083 173.934 209.306C173.934 209.438 173.897 209.573 173.822 209.714L172.315 212.117L175.242 212.005C175.5 212.005 175.699 212.082 175.841 212.235C175.982 212.388 176.052 212.571 176.052 212.786C176.052 213.001 175.982 213.183 175.841 213.337C175.699 213.491 175.5 213.566 175.242 213.566L172.302 213.467L173.76 215.833C173.843 215.973 173.884 216.117 173.884 216.266C173.884 216.49 173.799 216.683 173.629 216.848C173.459 217.013 173.27 217.096 173.062 217.096C172.779 217.096 172.559 216.947 172.401 216.65L171.006 214.161L169.622 216.65C169.448 216.947 169.22 217.096 168.937 217.096Z" fill="#1A2E35"/>
<path d="M182.445 217.096C182.229 217.096 182.036 217.015 181.866 216.855C181.695 216.693 181.611 216.501 181.611 216.279C181.611 216.129 181.652 215.99 181.735 215.857L183.23 213.467L180.314 213.566C180.057 213.566 179.855 213.491 179.71 213.337C179.565 213.183 179.492 213.001 179.492 212.786C179.492 212.579 179.565 212.398 179.71 212.241C179.855 212.084 180.057 212.005 180.314 212.005L183.193 212.117L181.71 209.739C181.627 209.597 181.586 209.455 181.586 209.306C181.586 209.083 181.671 208.891 181.84 208.73C182.011 208.569 182.204 208.488 182.421 208.488C182.703 208.488 182.927 208.632 183.093 208.922L184.513 211.473L185.922 208.935C186.113 208.629 186.354 208.476 186.645 208.476C186.861 208.476 187.047 208.559 187.205 208.724C187.363 208.889 187.442 209.083 187.442 209.306C187.442 209.438 187.404 209.573 187.33 209.714L185.822 212.117L188.75 212.005C189.008 212.005 189.207 212.082 189.349 212.235C189.49 212.388 189.56 212.571 189.56 212.786C189.56 213.001 189.49 213.183 189.349 213.337C189.207 213.491 189.008 213.566 188.75 213.566L185.81 213.467L187.268 215.833C187.351 215.973 187.392 216.117 187.392 216.266C187.392 216.49 187.307 216.683 187.137 216.848C186.966 217.013 186.777 217.096 186.57 217.096C186.287 217.096 186.067 216.947 185.909 216.65L184.513 214.161L183.13 216.65C182.956 216.947 182.728 217.096 182.445 217.096Z" fill="#1A2E35"/>
<path d="M195.953 217.096C195.737 217.096 195.544 217.015 195.374 216.855C195.203 216.693 195.118 216.501 195.118 216.279C195.118 216.129 195.16 215.99 195.242 215.857L196.738 213.467L193.822 213.566C193.565 213.566 193.363 213.491 193.218 213.337C193.072 213.183 193 213.001 193 212.786C193 212.579 193.072 212.398 193.218 212.241C193.363 212.084 193.565 212.005 193.822 212.005L196.7 212.117L195.217 209.739C195.135 209.597 195.093 209.455 195.093 209.306C195.093 209.083 195.178 208.891 195.348 208.73C195.519 208.569 195.712 208.488 195.929 208.488C196.211 208.488 196.435 208.632 196.601 208.922L198.021 211.473L199.43 208.935C199.621 208.629 199.861 208.476 200.153 208.476C200.369 208.476 200.555 208.559 200.713 208.724C200.871 208.889 200.95 209.083 200.95 209.306C200.95 209.438 200.912 209.573 200.837 209.714L199.33 212.117L202.258 212.005C202.516 212.005 202.715 212.082 202.857 212.235C202.997 212.388 203.068 212.571 203.068 212.786C203.068 213.001 202.997 213.183 202.857 213.337C202.715 213.491 202.516 213.566 202.258 213.566L199.318 213.467L200.776 215.833C200.859 215.973 200.9 216.117 200.9 216.266C200.9 216.49 200.815 216.683 200.645 216.848C200.474 217.013 200.285 217.096 200.078 217.096C199.795 217.096 199.575 216.947 199.417 216.65L198.021 214.161L196.638 216.65C196.464 216.947 196.236 217.096 195.953 217.096Z" fill="#1A2E35"/>
<path d="M209.461 217.096C209.245 217.096 209.052 217.015 208.882 216.855C208.711 216.693 208.626 216.501 208.626 216.279C208.626 216.129 208.668 215.99 208.75 215.857L210.246 213.467L207.33 213.566C207.072 213.566 206.871 213.491 206.726 213.337C206.58 213.183 206.508 213.001 206.508 212.786C206.508 212.579 206.58 212.398 206.726 212.241C206.871 212.084 207.072 212.005 207.33 212.005L210.208 212.117L208.725 209.739C208.643 209.597 208.601 209.455 208.601 209.306C208.601 209.083 208.686 208.891 208.856 208.73C209.027 208.569 209.22 208.488 209.436 208.488C209.719 208.488 209.943 208.632 210.108 208.922L211.529 211.473L212.938 208.935C213.129 208.629 213.369 208.476 213.661 208.476C213.876 208.476 214.063 208.559 214.221 208.724C214.378 208.889 214.458 209.083 214.458 209.306C214.458 209.438 214.42 209.573 214.345 209.714L212.838 212.117L215.766 212.005C216.024 212.005 216.223 212.082 216.364 212.235C216.505 212.388 216.576 212.571 216.576 212.786C216.576 213.001 216.505 213.183 216.364 213.337C216.223 213.491 216.024 213.566 215.766 213.566L212.825 213.467L214.284 215.833C214.367 215.973 214.408 216.117 214.408 216.266C214.408 216.49 214.323 216.683 214.153 216.848C213.982 217.013 213.793 217.096 213.586 217.096C213.303 217.096 213.083 216.947 212.925 216.65L211.529 214.161L210.146 216.65C209.972 216.947 209.744 217.096 209.461 217.096Z" fill="#1A2E35"/>
<path d="M104.07 58.6105H251.477V49.4282H104.07V58.6105Z" fill="#28B3DD"/>
<path d="M193.797 32.5262H161.749C160.542 32.5262 159.564 31.5546 159.564 30.3546C159.564 29.1554 160.542 28.183 161.749 28.183H193.797C195.004 28.183 195.982 29.1554 195.982 30.3546C195.982 31.5546 195.004 32.5262 193.797 32.5262Z" fill="#28B3DD"/>
<path d="M193.797 32.5262H161.749C160.542 32.5262 159.564 31.5546 159.564 30.3546C159.564 29.1554 160.542 28.183 161.749 28.183H193.797C195.004 28.183 195.982 29.1554 195.982 30.3546C195.982 31.5546 195.004 32.5262 193.797 32.5262Z" stroke="#1A2E35" stroke-width="1.78267" stroke-miterlimit="10" stroke-linecap="round" stroke-linejoin="round"/>
<path d="M186.514 299.53C186.514 294.732 182.601 290.843 177.773 290.843C172.946 290.843 169.033 294.732 169.033 299.53C169.033 304.327 172.946 308.217 177.773 308.217C182.601 308.217 186.514 304.327 186.514 299.53Z" fill="#28B3DD"/>
<path d="M182.202 303.933H173.342V295.127H182.202V303.933Z" fill="#28B3DD" stroke="#1A2E35" stroke-width="1.78267" stroke-miterlimit="10" stroke-linecap="round" stroke-linejoin="round"/>
<path d="M270.447 283.426C267.802 284.961 270.394 285.557 282.506 283.159C288.183 282.034 299.735 279.551 295.813 274.656C292.044 269.954 276.558 279.915 276.558 279.915L270.447 283.426ZM294.891 202.078C292.359 207.634 297.583 206.793 315.219 191.495C323.484 184.326 340.049 169.307 326.93 161.833C314.325 154.652 300.783 189.316 300.783 189.316L294.891 202.078ZM269.793 263.669C265.51 264.759 268.549 266.876 285.61 268.896C293.606 269.843 309.984 271.474 307.589 262.22C305.287 253.331 279.671 261.199 279.671 261.199L269.793 263.669ZM274.497 248.468C270.121 249.1 272.917 251.524 289.666 255.334C297.515 257.118 313.628 260.467 312.234 251.015C310.894 241.932 284.584 247.054 284.584 247.054L274.497 248.468ZM280.708 232.033C275.558 232.922 278.939 235.696 298.854 239.658C308.187 241.515 327.336 244.956 325.381 233.83C323.502 223.141 292.579 230.038 292.579 230.038L280.708 232.033ZM286.246 218.591C281.376 220.477 285.245 222.529 305.555 222.478C315.075 222.454 334.528 222.042 330.386 211.525C326.408 201.42 297.482 214.289 297.482 214.289L286.246 218.591ZM267.006 259.263C270.046 261.95 270.106 258.558 262.882 244.587C259.497 238.039 252.323 224.786 246.455 231.361C240.819 237.678 260.03 253.047 260.03 253.047L267.006 259.263ZM273.642 239.282C276.681 241.967 276.743 238.577 269.519 224.606C266.132 218.058 258.96 204.804 253.092 211.379C247.455 217.697 266.667 233.065 266.667 233.065L273.642 239.282ZM279.807 222.484C282.998 226.598 283.892 222.331 278.134 202.974C275.436 193.901 269.57 175.461 260.579 182.367C251.94 189.002 272.496 212.976 272.496 212.976L279.807 222.484ZM283.291 199.613C283.291 199.613 271.682 170.305 282.021 166.818C292.782 163.188 292.303 182.523 291.891 191.974C291.01 212.141 288.771 215.888 287.098 210.967L283.291 199.613Z" fill="#28B3DD"/>
<g opacity="0.300003">
<path d="M270.447 283.426C267.802 284.961 270.394 285.557 282.506 283.159C288.183 282.034 299.735 279.551 295.813 274.656C292.044 269.954 276.558 279.915 276.558 279.915L270.447 283.426ZM294.891 202.078C292.359 207.634 297.583 206.793 315.219 191.495C323.484 184.326 340.049 169.307 326.93 161.833C314.325 154.652 300.783 189.316 300.783 189.316L294.891 202.078ZM269.793 263.669C265.51 264.759 268.549 266.876 285.61 268.896C293.606 269.843 309.984 271.474 307.589 262.22C305.287 253.331 279.671 261.199 279.671 261.199L269.793 263.669ZM274.497 248.468C270.121 249.1 272.917 251.524 289.666 255.334C297.515 257.118 313.628 260.467 312.234 251.015C310.894 241.932 284.584 247.054 284.584 247.054L274.497 248.468ZM280.708 232.033C275.558 232.922 278.939 235.696 298.854 239.658C308.187 241.515 327.336 244.956 325.381 233.83C323.502 223.141 292.579 230.038 292.579 230.038L280.708 232.033ZM286.246 218.591C281.376 220.477 285.245 222.529 305.555 222.478C315.075 222.454 334.528 222.042 330.386 211.525C326.408 201.42 297.482 214.289 297.482 214.289L286.246 218.591ZM267.006 259.263C270.046 261.95 270.106 258.558 262.882 244.587C259.497 238.039 252.323 224.786 246.455 231.361C240.819 237.678 260.03 253.047 260.03 253.047L267.006 259.263ZM273.642 239.282C276.681 241.967 276.743 238.577 269.519 224.606C266.132 218.058 258.96 204.804 253.092 211.379C247.455 217.697 266.667 233.065 266.667 233.065L273.642 239.282ZM279.807 222.484C282.998 226.598 283.892 222.331 278.134 202.974C275.436 193.901 269.57 175.461 260.579 182.367C251.94 189.002 272.496 212.976 272.496 212.976L279.807 222.484ZM283.291 199.613C283.291 199.613 271.682 170.305 282.021 166.818C292.782 163.188 292.303 182.523 291.891 191.974C291.01 212.141 288.771 215.888 287.098 210.967L283.291 199.613Z" fill="white"/>
</g>
<path d="M261.215 295.191C261.25 295.095 264.761 285.497 275.3 283.205C275.581 283.144 275.759 282.867 275.698 282.588C275.636 282.308 275.354 282.134 275.076 282.193C263.956 284.612 260.267 294.746 260.231 294.848C260.136 295.118 260.28 295.413 260.551 295.508C260.608 295.527 260.667 295.537 260.723 295.537C260.938 295.537 261.14 295.404 261.215 295.191ZM288.797 264.637C288.799 264.351 288.569 264.116 288.281 264.114L267.721 263.923H267.717C267.432 263.923 267.198 264.151 267.196 264.436C267.193 264.722 267.424 264.956 267.712 264.959L288.271 265.15H288.276C288.561 265.15 288.794 264.922 288.797 264.637ZM268.966 260.29C269.206 260.132 269.272 259.81 269.113 259.572L260.467 246.586C260.307 246.348 259.985 246.281 259.743 246.44C259.503 246.598 259.438 246.92 259.597 247.159L268.243 260.144C268.344 260.294 268.51 260.376 268.679 260.376C268.777 260.376 268.877 260.348 268.966 260.29ZM290.908 251.315C290.936 251.031 290.726 250.777 290.441 250.749L272.956 249.031C272.677 249.003 272.414 249.209 272.386 249.495C272.358 249.78 272.568 250.034 272.854 250.062L290.338 251.78C290.355 251.782 290.373 251.783 290.39 251.783C290.655 251.783 290.881 251.583 290.908 251.315ZM301.669 234.486C301.684 234.201 301.462 233.957 301.174 233.943L278.31 232.796C278.022 232.769 277.779 233.002 277.764 233.288C277.749 233.573 277.97 233.817 278.258 233.831L301.122 234.977C301.132 234.978 301.14 234.978 301.149 234.978C301.425 234.978 301.654 234.763 301.669 234.486ZM275.723 240.216C275.949 240.04 275.99 239.715 275.813 239.488L259.214 218.289C259.036 218.065 258.71 218.024 258.483 218.199C258.255 218.375 258.214 218.7 258.391 218.926L274.991 240.126C275.094 240.256 275.247 240.325 275.402 240.325C275.514 240.325 275.628 240.29 275.723 240.216ZM284.463 220.794L315.099 216.444C315.384 216.402 315.582 216.14 315.541 215.857C315.501 215.574 315.237 215.38 314.951 215.417L284.314 219.767C284.03 219.809 283.831 220.07 283.872 220.354C283.91 220.612 284.132 220.799 284.388 220.799C284.412 220.799 284.438 220.797 284.463 220.794ZM282.243 224.769C282.506 224.654 282.625 224.348 282.508 224.087L269.716 195.31C269.599 195.048 269.291 194.929 269.029 195.046C268.765 195.162 268.646 195.467 268.762 195.729L281.556 224.505C281.641 224.699 281.832 224.814 282.032 224.814C282.103 224.814 282.174 224.8 282.243 224.769ZM288.46 213.771C288.747 213.754 288.966 213.508 288.949 213.223L286.929 179.762C286.911 179.477 286.654 179.248 286.378 179.276C286.09 179.293 285.871 179.539 285.888 179.825L287.908 213.284C287.925 213.559 288.155 213.771 288.428 213.771C288.438 213.771 288.449 213.771 288.46 213.771ZM263.551 302.776C263.838 302.757 264.055 302.51 264.037 302.224C262.727 282.705 270.322 250.75 282.505 224.514C290.292 207.745 320.824 174.788 321.131 174.457C321.326 174.246 321.314 173.919 321.102 173.724C320.892 173.531 320.562 173.543 320.365 173.754C320.057 174.086 289.415 207.163 281.559 224.078C269.115 250.875 261.655 282.307 262.996 302.293C263.014 302.566 263.244 302.776 263.515 302.776C263.527 302.776 263.539 302.776 263.551 302.776ZM261.215 295.191C261.25 295.095 264.761 285.497 275.3 283.205C275.581 283.144 275.759 282.867 275.698 282.588C275.636 282.308 275.354 282.134 275.076 282.193C263.956 284.612 260.267 294.746 260.231 294.848C260.136 295.118 260.28 295.413 260.551 295.508C260.608 295.527 260.667 295.537 260.723 295.537C260.938 295.537 261.14 295.404 261.215 295.191ZM288.797 264.637C288.799 264.351 288.569 264.116 288.281 264.114L267.721 263.923H267.717C267.432 263.923 267.198 264.151 267.196 264.436C267.193 264.722 267.424 264.956 267.712 264.959L288.271 265.15H288.276C288.561 265.15 288.794 264.922 288.797 264.637ZM268.966 260.29C269.206 260.132 269.272 259.81 269.113 259.572L260.467 246.586C260.307 246.348 259.985 246.281 259.743 246.44C259.503 246.598 259.438 246.92 259.597 247.159L268.243 260.144C268.344 260.294 268.51 260.376 268.679 260.376C268.777 260.376 268.877 260.348 268.966 260.29ZM290.908 251.315C290.936 251.031 290.726 250.777 290.441 250.749L272.956 249.031C272.677 249.003 272.414 249.209 272.386 249.495C272.358 249.78 272.568 250.034 272.854 250.062L290.338 251.78C290.355 251.782 290.373 251.783 290.39 251.783C290.655 251.783 290.881 251.583 290.908 251.315ZM301.669 234.486C301.684 234.201 301.462 233.957 301.174 233.943L278.31 232.796C278.022 232.769 277.779 233.002 277.764 233.288C277.749 233.573 277.97 233.817 278.258 233.831L301.122 234.977C301.132 234.978 301.14 234.978 301.149 234.978C301.425 234.978 301.654 234.763 301.669 234.486ZM275.723 240.216C275.949 240.04 275.99 239.715 275.813 239.488L259.214 218.289C259.036 218.065 258.71 218.024 258.483 218.199C258.255 218.375 258.214 218.7 258.391 218.926L274.991 240.126C275.094 240.256 275.247 240.325 275.402 240.325C275.514 240.325 275.628 240.29 275.723 240.216ZM284.463 220.794L315.099 216.444C315.384 216.402 315.582 216.14 315.541 215.857C315.501 215.574 315.237 215.38 314.951 215.417L284.314 219.767C284.03 219.809 283.831 220.07 283.872 220.354C283.91 220.612 284.132 220.799 284.388 220.799C284.412 220.799 284.438 220.797 284.463 220.794ZM282.243 224.769C282.506 224.654 282.625 224.348 282.508 224.087L269.716 195.31C269.599 195.048 269.291 194.929 269.029 195.046C268.765 195.162 268.646 195.467 268.762 195.729L281.556 224.505C281.641 224.699 281.832 224.814 282.032 224.814C282.103 224.814 282.174 224.8 282.243 224.769ZM288.46 213.771C288.747 213.754 288.966 213.508 288.949 213.223L286.929 179.762C286.911 179.477 286.654 179.248 286.378 179.276C286.09 179.293 285.871 179.539 285.888 179.825L287.908 213.284C287.925 213.559 288.155 213.771 288.428 213.771C288.438 213.771 288.449 213.771 288.46 213.771ZM263.551 302.776C263.838 302.757 264.055 302.51 264.037 302.224C262.727 282.705 270.322 250.75 282.505 224.514C290.292 207.745 320.824 174.788 321.131 174.457C321.326 174.246 321.314 173.919 321.102 173.724C320.892 173.531 320.562 173.543 320.365 173.754C320.057 174.086 289.415 207.163 281.559 224.078C269.115 250.875 261.655 282.307 262.996 302.293C263.014 302.566 263.244 302.776 263.515 302.776C263.527 302.776 263.539 302.776 263.551 302.776ZM267.717 264.441L288.276 264.632L267.717 264.441ZM268.678 259.858L260.031 246.872L268.678 259.858ZM272.905 249.546L290.389 251.264L272.905 249.546ZM278.284 233.314L301.148 234.46L278.284 233.314ZM275.402 239.807L258.803 218.608L275.402 239.807ZM315.025 215.93L284.389 220.28L315.025 215.93ZM282.032 224.296L269.239 195.519L282.032 224.296ZM288.429 213.253L286.409 179.793L288.429 213.253Z" fill="#28B3DD"/>
<g opacity="0.199997">
<path d="M261.215 295.191C261.25 295.095 264.761 285.497 275.3 283.205C275.581 283.144 275.759 282.867 275.698 282.588C275.636 282.308 275.354 282.134 275.076 282.193C263.956 284.612 260.267 294.746 260.231 294.848C260.136 295.118 260.28 295.413 260.551 295.508C260.608 295.527 260.667 295.537 260.723 295.537C260.938 295.537 261.14 295.404 261.215 295.191ZM288.797 264.637C288.799 264.351 288.569 264.116 288.281 264.114L267.721 263.923H267.717C267.432 263.923 267.198 264.151 267.196 264.436C267.193 264.722 267.424 264.956 267.712 264.959L288.271 265.15H288.276C288.561 265.15 288.794 264.922 288.797 264.637ZM268.966 260.29C269.206 260.132 269.272 259.81 269.113 259.572L260.467 246.586C260.307 246.348 259.985 246.281 259.743 246.44C259.503 246.598 259.438 246.92 259.597 247.159L268.243 260.144C268.344 260.294 268.51 260.376 268.679 260.376C268.777 260.376 268.877 260.348 268.966 260.29ZM290.908 251.315C290.936 251.031 290.726 250.777 290.441 250.749L272.956 249.031C272.677 249.003 272.414 249.209 272.386 249.495C272.358 249.78 272.568 250.034 272.854 250.062L290.338 251.78C290.355 251.782 290.373 251.783 290.39 251.783C290.655 251.783 290.881 251.583 290.908 251.315ZM301.669 234.486C301.684 234.201 301.462 233.957 301.174 233.943L278.31 232.796C278.022 232.769 277.779 233.002 277.764 233.288C277.749 233.573 277.97 233.817 278.258 233.831L301.122 234.977C301.132 234.978 301.14 234.978 301.149 234.978C301.425 234.978 301.654 234.763 301.669 234.486ZM275.723 240.216C275.949 240.04 275.99 239.715 275.813 239.488L259.214 218.289C259.036 218.065 258.71 218.024 258.483 218.199C258.255 218.375 258.214 218.7 258.391 218.926L274.991 240.126C275.094 240.256 275.247 240.325 275.402 240.325C275.514 240.325 275.628 240.29 275.723 240.216ZM284.463 220.794L315.099 216.444C315.384 216.402 315.582 216.14 315.541 215.857C315.501 215.574 315.237 215.38 314.951 215.417L284.314 219.767C284.03 219.809 283.831 220.07 283.872 220.354C283.91 220.612 284.132 220.799 284.388 220.799C284.412 220.799 284.438 220.797 284.463 220.794ZM282.243 224.769C282.506 224.654 282.625 224.348 282.508 224.087L269.716 195.31C269.599 195.048 269.291 194.929 269.029 195.046C268.765 195.162 268.646 195.467 268.762 195.729L281.556 224.505C281.641 224.699 281.832 224.814 282.032 224.814C282.103 224.814 282.174 224.8 282.243 224.769ZM288.46 213.771C288.747 213.754 288.966 213.508 288.949 213.223L286.929 179.762C286.911 179.477 286.654 179.248 286.378 179.276C286.09 179.293 285.871 179.539 285.888 179.825L287.908 213.284C287.925 213.559 288.155 213.771 288.428 213.771C288.438 213.771 288.449 213.771 288.46 213.771ZM263.551 302.776C263.838 302.757 264.055 302.51 264.037 302.224C262.727 282.705 270.322 250.75 282.505 224.514C290.292 207.745 320.824 174.788 321.131 174.457C321.326 174.246 321.314 173.919 321.102 173.724C320.892 173.531 320.562 173.543 320.365 173.754C320.057 174.086 289.415 207.163 281.559 224.078C269.115 250.875 261.655 282.307 262.996 302.293C263.014 302.566 263.244 302.776 263.515 302.776C263.527 302.776 263.539 302.776 263.551 302.776ZM261.215 295.191C261.25 295.095 264.761 285.497 275.3 283.205C275.581 283.144 275.759 282.867 275.698 282.588C275.636 282.308 275.354 282.134 275.076 282.193C263.956 284.612 260.267 294.746 260.231 294.848C260.136 295.118 260.28 295.413 260.551 295.508C260.608 295.527 260.667 295.537 260.723 295.537C260.938 295.537 261.14 295.404 261.215 295.191ZM288.797 264.637C288.799 264.351 288.569 264.116 288.281 264.114L267.721 263.923H267.717C267.432 263.923 267.198 264.151 267.196 264.436C267.193 264.722 267.424 264.956 267.712 264.959L288.271 265.15H288.276C288.561 265.15 288.794 264.922 288.797 264.637ZM268.966 260.29C269.206 260.132 269.272 259.81 269.113 259.572L260.467 246.586C260.307 246.348 259.985 246.281 259.743 246.44C259.503 246.598 259.438 246.92 259.597 247.159L268.243 260.144C268.344 260.294 268.51 260.376 268.679 260.376C268.777 260.376 268.877 260.348 268.966 260.29ZM290.908 251.315C290.936 251.031 290.726 250.777 290.441 250.749L272.956 249.031C272.677 249.003 272.414 249.209 272.386 249.495C272.358 249.78 272.568 250.034 272.854 250.062L290.338 251.78C290.355 251.782 290.373 251.783 290.39 251.783C290.655 251.783 290.881 251.583 290.908 251.315ZM301.669 234.486C301.684 234.201 301.462 233.957 301.174 233.943L278.31 232.796C278.022 232.769 277.779 233.002 277.764 233.288C277.749 233.573 277.97 233.817 278.258 233.831L301.122 234.977C301.132 234.978 301.14 234.978 301.149 234.978C301.425 234.978 301.654 234.763 301.669 234.486ZM275.723 240.216C275.949 240.04 275.99 239.715 275.813 239.488L259.214 218.289C259.036 218.065 258.71 218.024 258.483 218.199C258.255 218.375 258.214 218.7 258.391 218.926L274.991 240.126C275.094 240.256 275.247 240.325 275.402 240.325C275.514 240.325 275.628 240.29 275.723 240.216ZM284.463 220.794L315.099 216.444C315.384 216.402 315.582 216.14 315.541 215.857C315.501 215.574 315.237 215.38 314.951 215.417L284.314 219.767C284.03 219.809 283.831 220.07 283.872 220.354C283.91 220.612 284.132 220.799 284.388 220.799C284.412 220.799 284.438 220.797 284.463 220.794ZM282.243 224.769C282.506 224.654 282.625 224.348 282.508 224.087L269.716 195.31C269.599 195.048 269.291 194.929 269.029 195.046C268.765 195.162 268.646 195.467 268.762 195.729L281.556 224.505C281.641 224.699 281.832 224.814 282.032 224.814C282.103 224.814 282.174 224.8 282.243 224.769ZM288.46 213.771C288.747 213.754 288.966 213.508 288.949 213.223L286.929 179.762C286.911 179.477 286.654 179.248 286.378 179.276C286.09 179.293 285.871 179.539 285.888 179.825L287.908 213.284C287.925 213.559 288.155 213.771 288.428 213.771C288.438 213.771 288.449 213.771 288.46 213.771ZM263.551 302.776C263.838 302.757 264.055 302.51 264.037 302.224C262.727 282.705 270.322 250.75 282.505 224.514C290.292 207.745 320.824 174.788 321.131 174.457C321.326 174.246 321.314 173.919 321.102 173.724C320.892 173.531 320.562 173.543 320.365 173.754C320.057 174.086 289.415 207.163 281.559 224.078C269.115 250.875 261.655 282.307 262.996 302.293C263.014 302.566 263.244 302.776 263.515 302.776C263.527 302.776 263.539 302.776 263.551 302.776ZM267.717 264.441L288.276 264.632L267.717 264.441ZM268.678 259.858L260.031 246.872L268.678 259.858ZM272.905 249.546L290.389 251.264L272.905 249.546ZM278.284 233.314L301.148 234.46L278.284 233.314ZM275.402 239.807L258.803 218.608L275.402 239.807ZM315.025 215.93L284.389 220.28L315.025 215.93ZM282.032 224.296L269.239 195.519L282.032 224.296ZM288.429 213.253L286.409 179.793L288.429 213.253Z" fill="black"/>
</g>
<path d="M277.115 288.188H253.543V293.035H255.596L259.854 319.497H270.803L275.061 293.035H277.115V288.188Z" fill="#28B3DD"/>
<g opacity="0.300003">
<path d="M277.115 288.188H253.543V293.035H255.596L259.854 319.497H270.803L275.061 293.035H277.115V288.188Z" fill="white"/>
</g>
<path d="M64.8788 141.535L37.4598 132.639L35.02 126.232L29.4443 126.059L19.3379 124.154L20.5578 126.232L33.278 135.411L36.414 136.969L65.0995 151.854L64.8788 141.535Z" fill="white"/>
<path d="M64.8788 141.535L37.4598 132.639L35.02 126.232L29.4443 126.059L19.3379 124.154L20.5578 126.232L33.278 135.411L36.414 136.969L65.0995 151.854L64.8788 141.535Z" stroke="#1A2E35" stroke-width="1.33867" stroke-miterlimit="10"/>
<path d="M35.0212 126.232L32.4074 124.673L27.1797 126.578L28.0515 127.617L35.0212 126.232Z" fill="white"/>
<path d="M35.0212 126.232L32.4074 124.673L27.1797 126.578L28.0515 127.617L35.0212 126.232Z" stroke="#1A2E35" stroke-width="1.33867" stroke-miterlimit="10" stroke-linejoin="round"/>
<path d="M64.8788 141.535L37.4598 132.639L35.02 126.232L29.4443 126.059L19.3379 124.154L20.5578 126.232L33.278 135.411L36.414 136.969L65.0995 151.854L64.8788 141.535Z" fill="white"/>
<g opacity="0.5">
<path d="M64.8788 141.535L37.4598 132.639L35.02 126.232L29.4443 126.059L19.3379 124.154L20.5578 126.232L33.278 135.411L36.414 136.969L65.0995 151.854L64.8788 141.535Z" fill="#28B3DD"/>
<path d="M64.8788 141.535L37.4598 132.639L35.02 126.232L29.4443 126.059L19.3379 124.154L20.5578 126.232L33.278 135.411L36.414 136.969L65.0995 151.854L64.8788 141.535Z" stroke="#1A2E35" stroke-width="1.33867" stroke-miterlimit="10"/>
</g>
<path d="M64.8788 141.535L37.4598 132.639L35.02 126.232L29.4443 126.059L19.3379 124.154L20.5578 126.232L33.278 135.411L36.414 136.969L65.0995 151.854L64.8788 141.535Z" stroke="#1A2E35" stroke-width="1.33867" stroke-miterlimit="10"/>
<path d="M35.0212 126.232L32.4074 124.673L27.1797 126.578L28.0515 127.617L35.0212 126.232Z" fill="white"/>
<g opacity="0.5">
<path d="M35.0212 126.232L32.4074 124.673L27.1797 126.578L28.0515 127.617L35.0212 126.232Z" fill="#28B3DD"/>
<path d="M35.0212 126.232L32.4074 124.673L27.1797 126.578L28.0515 127.617L35.0212 126.232Z" stroke="#1A2E35" stroke-width="1.33867" stroke-miterlimit="10" stroke-linejoin="round"/>
</g>
<path d="M35.0212 126.232L32.4074 124.673L27.1797 126.578L28.0515 127.617L35.0212 126.232Z" stroke="#1A2E35" stroke-width="1.33867" stroke-miterlimit="10" stroke-linejoin="round"/>
<path d="M70.6997 83.7889C70.6997 83.7889 70.2758 87.5131 71.3325 89.9074C72.3892 92.3017 78.2639 100.4 78.2639 100.4L67.2973 109.138C67.2973 109.138 62.7549 100.009 61.8864 98.5609C61.0171 97.1134 59.9829 90.7449 62.804 86.2039C65.6244 81.662 69.6904 80.4611 70.6997 83.7889Z" fill="white"/>
<g opacity="0.5">
<path d="M65.0673 95.761L69.8261 105.558L67.2981 109.138L62.5176 100.66L65.0673 95.761Z" fill="#28B3DD"/>
</g>
<path d="M70.6997 83.7889C70.6997 83.7889 70.2758 87.5131 71.3325 89.9074C72.3892 92.3017 78.2639 100.4 78.2639 100.4L67.2973 109.138C67.2973 109.138 62.7549 100.009 61.8864 98.5609C61.0171 97.1134 59.9829 90.7449 62.804 86.2039C65.6244 81.662 69.6904 80.4611 70.6997 83.7889Z" stroke="#1A2E35" stroke-width="1.33867" stroke-miterlimit="10"/>
<path d="M74.0928 76.9753C73.4192 72.8497 68.6512 64.4147 61.0811 64.7441C56.1666 64.9584 53.8733 65.9449 51.7358 67.1417C50.6466 67.7508 47.7131 69.7842 46.912 70.7368C43.2082 75.1421 41.9366 76.3554 42.627 79.7287C42.4737 80.7583 42.8734 82.6701 43.2556 83.6839C44.3906 86.6914 45.1608 88.6545 46.1401 90.0838C45.8395 91.4849 45.0626 95.1727 45.0193 96.0177C44.9801 96.799 47.5049 96.2734 48.7972 95.954C51.1804 101.247 55.5421 104.921 56.9035 105.344C59.265 106.077 63.008 102.215 64.9865 99.2214C66.9641 96.2279 65.4728 92.8529 65.4786 91.5147C65.4844 90.1765 69.9369 87.2293 71.5781 86.2958C73.2202 85.3623 74.7665 81.1009 74.0928 76.9753Z" fill="white"/>
<g opacity="0.5">
<path d="M42.627 79.7289C42.4729 80.7584 42.8726 82.6702 43.2556 83.684C44.3906 86.6915 45.1608 88.6546 46.1401 90.0839C45.8395 91.485 45.0618 95.1728 45.0193 96.0178C44.9802 96.7991 47.5041 96.2736 48.7972 95.9541C51.1804 101.247 55.5421 104.921 56.9035 105.344C59.265 106.077 63.008 102.215 64.9865 99.2215C65.5252 98.4063 65.8009 97.5638 65.9249 96.7412C65.8175 96.3497 65.7442 96.108 65.7442 96.108C65.7442 96.108 64.6243 100.373 62.386 99.8165C60.1469 99.2604 56.7886 94.8095 54.9225 93.3264C53.0565 91.8425 53.8026 89.8025 53.4303 87.5771C53.0565 85.3516 47.4591 83.3124 47.086 82.0139C46.713 80.7162 48.0195 75.3384 48.0195 75.3384C48.0195 75.3384 50.1362 72.5229 49.6982 73.6691C49.261 74.8154 48.9521 77.1931 50.2578 79.7884C51.5643 82.3847 54.1764 82.1993 54.1764 82.1993L56.2282 72.186L51.9373 68.6621L46.912 70.7369C43.2082 75.1423 41.9366 76.3555 42.627 79.7289Z" fill="#28B3DD"/>
</g>
<path d="M74.0928 76.9754C73.4192 72.8497 68.6512 64.4148 61.0811 64.7441C56.1666 64.9585 53.8733 65.945 51.7358 67.1417C50.6466 67.7508 47.7131 69.7843 46.912 70.7368C43.2082 75.1422 41.9366 76.3555 42.627 79.7288C42.4737 80.7583 42.8734 82.6701 43.2556 83.6839C44.3906 86.6915 45.1608 88.6545 46.1401 90.0838C45.8395 91.485 45.0626 95.1728 45.0193 96.0178C44.9801 96.799 47.5049 96.2735 48.7972 95.954C51.1804 101.247 55.5421 104.921 56.9035 105.344C59.265 106.077 63.008 102.215 64.9865 99.2214C66.9641 96.228 65.4728 92.853 65.4786 91.5148C65.4844 90.1765 69.9369 87.2294 71.5781 86.2959C73.2202 85.3623 74.7665 81.101 74.0928 76.9754Z" stroke="#1A2E35" stroke-width="1.33333" stroke-miterlimit="10"/>
<path d="M47.1719 87.5799L47.9663 89.9485C47.9663 89.9485 49.7532 90.5402 51.9382 88.1716" stroke="#1A2E35" stroke-width="1.33333" stroke-miterlimit="10" stroke-linecap="round"/>
<path d="M53.3281 98.6329C53.3281 98.6329 55.3141 98.436 56.1085 95.6718" stroke="#1A2E35" stroke-width="1.33333" stroke-miterlimit="10" stroke-linecap="round"/>
<path d="M45.7812 85.6058C45.7812 85.6058 46.3775 83.8298 49.9522 83.8298" stroke="#1A2E35" stroke-width="1.33333" stroke-miterlimit="10" stroke-linecap="round"/>
<path d="M64.096 61.4487C60.6528 60.8802 56.2579 60.8496 56.2579 60.8496C56.2579 60.8496 48.4197 56.3548 40.883 61.1491C33.3463 65.9426 36.9643 74.3321 36.9643 76.4301C36.9643 78.5272 34.5528 78.5272 36.06 81.2236C37.5672 83.9199 42.6275 82.4352 42.6275 82.4352C42.6275 82.4352 42.6391 79.2771 45.3529 77.1799C48.0658 75.0827 50.2283 74.6317 51.1335 75.2309C51.1335 75.2309 50.5298 79.7256 51.4341 81.5232C51.4341 81.5232 54.4493 83.0212 55.3536 83.0212C56.2579 83.0212 54.7632 84.2924 57.765 85.4187C59.0624 85.9054 60.1382 85.523 61.0642 85.0298C61.503 83.2082 62.4748 80.4688 64.2709 81.1044C66.9147 82.038 69.3162 88.4974 65.7473 90.6931C70.0456 91.4702 75.2508 83.9199 75.5514 77.0293C75.8529 70.1378 68.5568 62.1845 64.096 61.4487Z" fill="#1A2E35"/>
<path d="M51.3008 72.2817C51.3008 72.2817 53.5099 71.0991 56.2295 73.6332C58.9491 76.1665 64.2176 79.5448 71.1856 77.6868" stroke="white" stroke-width="0.666667" stroke-miterlimit="10" stroke-linecap="round" stroke-linejoin="round"/>
<path d="M50.9609 70.2546C50.9609 70.2546 52.4906 67.8901 55.0395 67.8901C57.5892 67.8901 63.538 71.4373 68.296 71.4373" stroke="white" stroke-width="0.666667" stroke-miterlimit="10" stroke-linecap="round" stroke-linejoin="round"/>
<path d="M49.2606 74.8154C49.2606 74.8154 46.3712 71.2683 43.6524 74.14C40.9329 77.011 42.6266 79.7289 42.6266 79.7289" stroke="white" stroke-width="0.666667" stroke-miterlimit="10" stroke-linecap="round" stroke-linejoin="round"/>
<path d="M37.7031 77.1802C37.7031 77.1802 40.2528 75.1534 40.5926 71.4374C40.9323 67.7206 46.0309 64.5112 49.2601 67.5518" stroke="white" stroke-width="0.666667" stroke-miterlimit="10" stroke-linecap="round" stroke-linejoin="round"/>
<path d="M42.9727 63.6669C42.9727 63.6669 48.0713 58.7683 52.3205 65.0184" stroke="white" stroke-width="0.666667" stroke-miterlimit="10" stroke-linecap="round" stroke-linejoin="round"/>
<path d="M84.5156 304.558C84.5156 304.558 87.6549 309.41 87.306 312.53L86.9571 315.65C86.9571 315.65 75.4475 318.77 73.0061 318.77C70.5646 318.77 57.6637 317.565 57.6637 317.565L57.1116 315.369C57.0275 315.033 57.1932 314.686 57.5088 314.54L69.0241 309.202L72.6572 305.25L84.5156 304.558Z" fill="white"/>
<path d="M84.5156 304.558C84.5156 304.558 87.6549 309.41 87.306 312.53L86.9571 315.65C86.9571 315.65 75.4475 318.77 73.0061 318.77C70.5646 318.77 57.6637 317.565 57.6637 317.565L57.1116 315.369C57.0275 315.033 57.1932 314.686 57.5088 314.54L69.0241 309.202L72.6572 305.25L84.5156 304.558Z" stroke="#1A2E35" stroke-width="1.33867" stroke-miterlimit="10"/>
<path d="M74.7495 316.343C77.8721 316.582 83.8067 314.683 87.1999 313.478C86.9576 315.645 86.9568 315.65 86.9568 315.65C86.9568 315.65 75.4473 318.77 73.0058 318.77C70.5643 318.77 57.6634 317.565 57.6634 317.565L57.2695 315.997C59.2713 316 70.6218 316.028 74.7495 316.343Z" fill="#28B3DD"/>
<path d="M74.7495 316.343C77.8721 316.582 83.8067 314.683 87.1999 313.478C86.9576 315.645 86.9568 315.65 86.9568 315.65C86.9568 315.65 75.4473 318.77 73.0058 318.77C70.5643 318.77 57.6634 317.565 57.6634 317.565L57.2695 315.997C59.2713 316 70.6218 316.028 74.7495 316.343Z" stroke="#1A2E35" stroke-width="1.33867" stroke-miterlimit="10"/>
<path d="M69.0252 309.203L52.263 316.448C52.263 316.448 50.8275 320.014 52.263 320.729C53.6986 321.441 84.9197 320.729 84.9197 320.729C84.9197 320.729 87.0822 315.091 83.6681 311.311C80.2549 307.531 69.0252 309.203 69.0252 309.203Z" fill="white"/>
<path d="M69.0252 309.203L52.263 316.448C52.263 316.448 50.8275 320.014 52.263 320.729C53.6986 321.441 84.9197 320.729 84.9197 320.729C84.9197 320.729 87.0822 315.091 83.6681 311.311C80.2549 307.531 69.0252 309.203 69.0252 309.203Z" stroke="#1A2E35" stroke-width="1.33867" stroke-miterlimit="10"/>
<path d="M84.9211 320.728C84.9211 320.728 53.6992 321.441 52.2636 320.728C51.5725 320.385 51.5483 319.38 51.7082 318.43H85.4698C85.275 319.789 84.9211 320.728 84.9211 320.728Z" fill="#28B3DD"/>
<path d="M84.9211 320.728C84.9211 320.728 53.6992 321.441 52.2636 320.728C51.5725 320.385 51.5483 319.38 51.7082 318.43H85.4698C85.275 319.789 84.9211 320.728 84.9211 320.728Z" stroke="#1A2E35" stroke-width="1.33867" stroke-miterlimit="10"/>
<path d="M61.1021 183.227C61.1021 183.227 56.7179 202.519 55.06 214.584C53.4021 226.65 52.4287 250.827 52.7776 253.6C53.1265 256.373 70.5657 302.824 70.5657 302.824L72.3093 306.984L84.5166 304.557C84.5166 304.557 78.9359 286.878 76.8433 277.173C74.7508 267.466 70.2168 251.52 70.2168 248.747C70.2168 245.973 81.0768 193.025 81.8195 189.542C82.5631 186.061 86.1071 180.732 86.1071 180.732L62.7325 180.259L61.1021 183.227Z" fill="#28B3DD"/>
<path d="M61.1021 183.227C61.1021 183.227 56.7179 202.519 55.06 214.584C53.4021 226.65 52.4287 250.827 52.7776 253.6C53.1265 256.373 70.5657 302.824 70.5657 302.824L72.3093 306.984L84.5166 304.557C84.5166 304.557 78.9359 286.878 76.8433 277.173C74.7508 267.466 70.2168 251.52 70.2168 248.747C70.2168 245.973 81.0768 193.025 81.8195 189.542C82.5631 186.061 86.1071 180.732 86.1071 180.732L62.7325 180.259L61.1021 183.227Z" stroke="#1A2E35" stroke-width="1.33867" stroke-miterlimit="10"/>
<path d="M61.101 183.227C61.101 183.227 58.5355 200.847 59.5905 213.101C60.6439 225.355 62.9404 251.427 62.9404 255.306C62.9404 259.182 69.2431 282.373 69.6286 289.649C70.1857 300.174 69.3963 305.387 69.3963 305.387L69.0249 309.203C69.0249 309.203 76.381 310.24 77.9881 310.697C80.6877 311.467 83.6679 311.311 83.6679 311.311C83.6679 311.311 86.3483 299.619 86.3483 289.649C86.3483 279.678 84.1192 259.182 83.0042 250.874C81.8892 242.565 85.3907 210.508 87.3684 204.505C89.346 198.504 93.6835 185.85 90.7666 179.383C87.8505 172.916 61.101 183.227 61.101 183.227Z" fill="#28B3DD"/>
<path d="M61.101 183.227C61.101 183.227 58.5355 200.847 59.5905 213.101C60.6439 225.355 62.9404 251.427 62.9404 255.306C62.9404 259.182 69.2431 282.373 69.6286 289.649C70.1857 300.174 69.3963 305.387 69.3963 305.387L69.0249 309.203C69.0249 309.203 76.381 310.24 77.9881 310.697C80.6877 311.467 83.6679 311.311 83.6679 311.311C83.6679 311.311 86.3483 299.619 86.3483 289.649C86.3483 279.678 84.1192 259.182 83.0042 250.874C81.8892 242.565 85.3907 210.508 87.3684 204.505C89.346 198.504 93.6835 185.85 90.7666 179.383C87.8505 172.916 61.101 183.227 61.101 183.227Z" stroke="#1A2E35" stroke-width="1.33867" stroke-miterlimit="10"/>
<path d="M93.9748 176.145L93.7058 184.024C93.7058 184.024 88.9569 184.957 82.5627 186.06C77.2842 186.971 64.0285 185.821 59.562 185.392C58.7268 185.312 58.1064 184.588 58.1572 183.756L58.5927 176.638L93.9748 176.145Z" fill="#1A2E35"/>
<path d="M75.4187 97.6038C75.4187 97.6038 67.9444 105.659 65.0999 110.668C62.2546 115.675 61.1605 123.347 60.1487 129.384C59.1362 135.42 61.9524 149.608 61.1513 156.124L58.5924 176.639C58.5924 176.639 58.0437 178.036 59.8798 179.554C61.7159 181.072 70.714 181.637 78.8228 182.041C81.7888 182.19 90.6445 180.291 92.0884 180.201C93.8379 180.093 93.9004 177.885 93.9745 176.145C94.3226 167.974 95.8073 146.204 96.7748 136.715C98.7475 117.376 87.7584 98.707 75.4187 97.6038Z" fill="white"/>
<path d="M75.4187 97.6038C75.4187 97.6038 67.9444 105.659 65.0999 110.668C62.2546 115.675 61.1605 123.347 60.1487 129.384C59.1362 135.42 61.9524 149.608 61.1513 156.124L58.5924 176.639C58.5924 176.639 58.0437 178.036 59.8798 179.554C61.7159 181.072 70.714 181.637 78.8228 182.041C81.7888 182.19 90.6445 180.291 92.0884 180.201C93.8379 180.093 93.9004 177.885 93.9745 176.145C94.3226 167.974 95.8073 146.204 96.7748 136.715C98.7475 117.376 87.7584 98.707 75.4187 97.6038Z" stroke="#1A2E35" stroke-width="1.33867" stroke-miterlimit="10"/>
<path d="M95.821 147.717C96.1549 143.422 96.4879 139.527 96.7744 136.715C96.8602 135.875 96.9126 135.039 96.9501 134.203L77.0403 137.538L59.9434 131.718C59.851 134.608 60.1816 138.397 60.5397 142.249L77.3176 146.917L95.821 147.717Z" fill="#28B3DD"/>
<path d="M74.6754 98.4188C73.5454 99.6709 71.2979 102.207 69.1562 104.907L81.7599 117.676L85.9234 116.02L74.6754 98.4188Z" fill="#28B3DD"/>
<path d="M75.4192 97.6037C75.4192 97.6037 67.9449 105.659 65.1005 110.667C64.2977 112.081 63.6374 113.711 63.0762 115.453L78.1488 98.1474C77.2495 97.8768 76.3385 97.6856 75.4192 97.6037Z" fill="#1A2E35"/>
<path d="M60.6895 126.126L77.0403 131.469L96.905 129.206C96.5761 124.11 95.4145 119.225 93.6459 114.88L77.5957 121.262L63.2825 114.816C62.0776 118.329 61.3215 122.376 60.6895 126.126Z" fill="#28B3DD"/>
<path d="M88.8469 167.973C80.5524 169.363 72.0398 168.671 64.0817 165.963L60.0931 164.605L58.8516 174.562L63.3964 175.828C72.0381 178.232 81.0712 178.925 89.9819 177.866L93.6549 177.429C93.8398 177.037 93.9547 176.604 93.9747 176.146C94.0688 173.934 94.2461 170.721 94.4743 167.03L88.8469 167.973Z" fill="#28B3DD"/>
<path d="M91.0691 154.456C82.7746 155.845 74.2611 155.154 66.3039 152.445L61.227 150.717C61.3285 152.789 61.3335 154.653 61.1529 156.124L60.5566 160.901L65.6186 162.31C74.2595 164.715 83.2934 165.407 92.2032 164.349L94.663 164.056C94.8762 160.761 95.1185 157.219 95.3708 153.735L91.0691 154.456Z" fill="#28B3DD"/>
<path d="M12.9531 119.454L29.055 132.323L29.7494 131.465L13.6468 118.596L12.9531 119.454Z" fill="#1A2E35"/>
<path d="M83.1717 106.533C83.1717 106.533 89.073 110.532 89.2088 119.979C89.267 124.082 88.8374 127.979 87.8806 134.76C86.9238 141.541 80.9717 163.605 76.3486 166.285C71.7263 168.966 64.5285 163.902 64.5285 163.902L29.7685 140.97L21.3707 134.186L17.248 126.37L18.4888 123.928L28.7659 131.769L23.2476 126.7L24.3301 125.328L26.3244 126.712L32.1625 128.877L33.439 137.182L35.2359 138.408L68.4488 150.431C68.4488 150.431 68.0366 132.65 68.3439 129.244C68.6512 125.838 69.0758 117.293 72.743 111.097" fill="white"/>
<g opacity="0.5">
<path d="M68.239 136.989C68.2798 143.131 68.4488 150.431 68.4488 150.431L35.2359 138.408L33.439 137.181L32.1625 128.877L26.3244 126.713L24.3301 125.328L23.2476 126.7L28.7659 131.768L18.4888 123.928L17.248 126.37L21.3707 134.186L29.7685 140.971L31.886 142.368L77.8133 157.077L68.239 136.989Z" fill="#28B3DD"/>
</g>
<path d="M83.1717 106.533C83.1717 106.533 89.073 110.532 89.2088 119.979C89.267 124.082 88.8374 127.979 87.8806 134.76C86.9238 141.541 80.9717 163.604 76.3486 166.285C71.7263 168.966 64.5285 163.902 64.5285 163.902L29.7685 140.97L21.3707 134.186L17.248 126.37L18.4888 123.928L28.7659 131.769L23.2476 126.7L24.3301 125.328L26.3244 126.712L32.1625 128.877L33.439 137.181L35.2359 138.408L68.4488 150.431C68.4488 150.431 68.0366 132.649 68.3439 129.244C68.6512 125.838 69.0758 117.293 72.743 111.097" stroke="#1A2E35" stroke-width="1.33867" stroke-miterlimit="10"/>
<path d="M68.4499 150.431L81.1452 159.523L84.4335 153.734C84.4335 153.734 86.7018 151.952 87.0415 150.616C87.3812 149.281 86.9474 147.094 87.2871 145.758C87.6269 144.422 89.3248 143.153 89.4888 139.914C89.652 136.675 89.5171 133.962 89.5171 133.962C89.5171 133.962 92.2642 122.734 91.9661 117.847C91.6688 112.961 86.9316 104.336 83.1295 104.145C79.3274 103.955 74.3979 104.521 70.5666 110.283C66.7354 116.046 67.5181 132.863 66.9202 133.915C66.3224 134.968 67.1492 140.151 67.1492 140.151C67.1492 140.151 66.0218 140.907 65.9535 142.256C65.8852 143.606 67.3516 146.927 67.3516 146.927L68.4499 150.431Z" fill="white"/>
<path d="M68.4499 150.431L81.1452 159.523L84.4335 153.734C84.4335 153.734 86.7018 151.952 87.0415 150.616C87.3812 149.281 86.9474 147.094 87.2871 145.758C87.6269 144.422 89.3248 143.153 89.4888 139.914C89.652 136.675 89.5171 133.962 89.5171 133.962C89.5171 133.962 92.2642 122.734 91.9661 117.847C91.6688 112.961 86.9316 104.336 83.1295 104.145C79.3274 103.955 74.3978 104.521 70.5666 110.283C66.7354 116.046 67.5181 132.863 66.9202 133.915C66.3224 134.968 67.1492 140.151 67.1492 140.151C67.1492 140.151 66.0218 140.907 65.9535 142.256C65.8852 143.606 67.3516 146.927 67.3516 146.927L68.4499 150.431Z" stroke="#1A2E35" stroke-width="1.33867" stroke-miterlimit="10"/>
<path d="M67.241 129.601C67.1528 131.941 67.0953 133.607 66.9205 133.915C66.3842 134.86 66.9929 139.117 67.1236 139.985C76.2092 142.787 84.1348 142.456 89.2051 141.673C89.3449 141.153 89.4549 140.584 89.4882 139.914C89.6522 136.675 89.5173 133.962 89.5173 133.962C89.5173 133.962 89.7613 132.962 90.096 131.434C80.6858 132.153 71.9166 130.648 67.241 129.601Z" fill="#28B3DD"/>
<path d="M70.0419 111.208C68.8503 113.585 68.1891 117.155 67.8027 120.775C77.3554 124.365 85.8831 124.357 91.5454 123.645C91.861 121.453 92.0575 119.35 91.9667 117.847C91.8868 116.547 91.4913 114.98 90.8842 113.38C82.0027 113.666 74.0388 112.149 70.0419 111.208Z" fill="#28B3DD"/>
<path d="M67.377 147.012L68.4486 150.431L81.1439 159.523L84.4322 153.734C84.4322 153.734 86.7005 151.953 87.0402 150.616C87.0952 150.4 87.1252 150.157 87.146 149.904C79.4535 149.858 72.2924 148.362 67.377 147.012Z" fill="#1A2E35"/>
<path d="M76.5638 310.586C76.5638 310.586 76.841 303.418 78.2283 292.941C79.6148 282.465 76.2865 267.576 75.7311 265.095C75.1765 262.614 76.0083 257.099 75.4538 255.169C74.8992 253.239 72.1963 244.978 73.7917 235.395C75.3872 225.813 76.6687 200.481 76.6687 200.481C76.6687 200.481 72.6667 197.244 71.4901 193.045C70.3135 188.845 71.2145 187.51 71.2145 187.51" stroke="#1A2E35" stroke-width="1.33867" stroke-miterlimit="10"/>
<path d="M78.4174 187.871L76.877 196.351" stroke="#1A2E35" stroke-width="1.33867" stroke-miterlimit="10"/>
</g>
<defs>
<clipPath id="clip0_525_1655">
<rect width="338" height="326" fill="white" transform="translate(0 0.796387)"/>
</clipPath>
</defs>
</svg>
