<svg width="327" height="339" viewBox="0 0 327 339" fill="none" xmlns="http://www.w3.org/2000/svg">
<g clip-path="url(#clip0_525_1272)">
<path d="M302.77 73.2374C292.725 59.1945 280.013 46.9743 265.557 38.03C215.728 7.20105 148.085 14.3169 102.796 50.3157C75.0167 72.3969 43.6757 69.5477 19.4575 93.7658C-4.76058 117.984 -3.33598 157.16 7.34777 181.378C15.6966 200.301 33.7811 206.857 52.6613 210.858C74.0744 215.396 91.2265 220.266 109.22 233.255C130.05 248.292 151.366 263.558 175.897 271.861C200.161 280.074 222.749 279.398 242.323 262.046C258.574 247.641 269.786 227.824 287.993 215.569C339.637 180.809 334.666 117.834 302.77 73.2374Z" fill="#28B3DD"/>
<g opacity="0.699997">
<path d="M302.77 73.2374C292.725 59.1945 280.013 46.9743 265.557 38.03C215.728 7.20105 148.085 14.3169 102.796 50.3157C75.0167 72.3969 43.6757 69.5477 19.4575 93.7658C-4.76058 117.984 -3.33598 157.16 7.34777 181.378C15.6966 200.301 33.7811 206.857 52.6613 210.858C74.0744 215.396 91.2265 220.266 109.22 233.255C130.05 248.292 151.366 263.558 175.897 271.861C200.161 280.074 222.749 279.398 242.323 262.046C258.574 247.641 269.786 227.824 287.993 215.569C339.637 180.809 334.666 117.834 302.77 73.2374Z" fill="white"/>
</g>
<path d="M10.0667 259.101C11.8631 259.886 16.258 259.786 16.2616 259.786C16.3064 259.786 15.3163 256.91 15.233 256.736C14.2693 254.718 11.2199 251.388 8.73898 251.723C6.95183 251.965 5.95746 253.753 6.36062 255.436C6.77304 257.156 8.53669 258.432 10.0667 259.101Z" fill="#28B3DD"/>
<path d="M11.5836 271.83C13.4477 272.102 17.3696 270.965 17.6809 270.873C18.3006 273.068 19.1133 275.27 20.0599 277.454C20.5991 278.703 21.1811 279.945 21.7808 281.182C21.4226 280.658 21.0992 280.192 21.0472 280.131C19.5841 278.44 15.7633 276.033 13.4598 277.012C11.7987 277.718 11.3129 279.705 12.147 281.222C12.9975 282.77 15.0361 283.537 16.6886 283.777C18.3654 284.022 21.7281 283.119 22.6149 282.868C22.85 283.341 23.0794 283.814 23.3166 284.286C24.452 286.547 25.5945 288.799 26.648 291.042C27.0198 291.832 27.3567 292.623 27.6972 293.415C27.3788 292.95 27.1067 292.561 27.0597 292.505C25.5966 290.815 21.7766 288.408 19.4716 289.386C17.8112 290.092 17.3254 292.08 18.1588 293.596C19.0107 295.145 21.0486 295.911 22.7004 296.152C24.3009 296.385 27.4123 295.58 28.4679 295.287C28.7913 296.107 29.1175 296.929 29.3939 297.738C29.5705 298.295 29.7792 298.82 29.9252 299.39C30.082 299.951 30.2365 300.506 30.3897 301.056C30.6468 302.125 30.9182 303.227 31.1419 304.277C31.3035 305.006 31.4439 305.704 31.587 306.406C31.2266 305.616 30.488 304.081 30.411 303.96C29.2222 302.068 25.8103 299.11 23.3835 299.728C21.6355 300.174 20.8541 302.064 21.4489 303.69C22.0558 305.35 23.9541 306.416 25.5503 306.904C27.309 307.441 31.2017 306.951 31.6875 306.886C31.9204 308.049 32.1362 309.182 32.3228 310.255C32.7402 312.623 33.0558 314.745 33.2944 316.542H34.9363C34.6499 314.683 34.2752 312.469 33.7809 309.983C33.5487 308.8 33.2773 307.542 32.986 306.252C33.2787 306.136 34.9391 305.465 36.41 304.643C37.6914 306.031 40.9751 307.655 41.4004 307.861C40.953 308.961 40.5079 310.025 40.0712 311.022C39.1637 313.112 38.3012 314.965 37.5397 316.542H39.3148C39.9694 315.088 40.6881 313.433 41.4388 311.6C41.8968 310.486 42.3648 309.286 42.8335 308.05C43.3043 308.149 47.1572 308.931 48.9536 308.526C50.5819 308.158 52.5549 307.236 53.2843 305.626C53.9981 304.049 53.3591 302.105 51.6489 301.531C49.2762 300.734 45.6528 303.429 44.3258 305.228C44.2467 305.334 43.5259 306.581 43.0842 307.374C43.273 306.868 43.4618 306.379 43.6498 305.856C44.0295 304.823 44.3763 303.782 44.7546 302.663C44.9177 302.116 45.0829 301.563 45.2503 301.006C45.4277 300.456 45.5445 299.853 45.6962 299.271C46.0189 297.916 46.2796 296.527 46.5118 295.122C47.4171 295.451 50.6467 296.575 52.3199 296.458C53.9859 296.34 56.0751 295.729 57.0396 294.247C57.9848 292.798 57.6472 290.779 56.0445 289.952C53.8193 288.804 49.8297 290.92 48.2455 292.497C48.1465 292.595 47.1365 293.855 46.5951 294.557C46.7283 293.712 46.8651 292.868 46.9712 292.008C47.2797 289.526 47.514 287.003 47.7598 284.488C47.8345 283.718 47.9179 282.95 47.9991 282.183C48.3196 282.304 52.1297 283.722 54.0045 283.591C55.6698 283.474 57.7597 282.861 58.7242 281.38C59.6679 279.93 59.331 277.912 57.7284 277.085C55.5031 275.938 51.5143 278.053 49.9294 279.63C49.8105 279.749 48.3595 281.564 48.0133 282.043C48.1921 280.351 48.3859 278.668 48.6444 277.016C48.997 274.736 49.47 272.519 50.0875 270.404C50.2364 270.46 54.2068 271.959 56.1264 271.824C57.7925 271.707 59.8816 271.095 60.8461 269.614C61.7906 268.165 61.4537 266.146 59.8503 265.318C57.6251 264.171 53.6369 266.287 52.0513 267.864C51.9274 267.987 50.3675 269.94 50.1103 270.314C50.1474 270.189 50.1716 270.055 50.2101 269.93C50.8974 267.681 51.8455 265.588 52.8292 263.673C53.399 262.559 54.0059 261.526 54.6185 260.534C55.3293 260.889 58.5959 262.475 60.3368 262.544C62.0057 262.611 64.149 262.232 65.2709 260.866C66.3685 259.529 66.2553 257.485 64.753 256.488C62.6667 255.103 58.4699 256.768 56.7219 258.161C56.6264 258.237 55.7453 259.113 55.1128 259.762C55.3963 259.318 55.6798 258.855 55.9604 258.436C57.0075 256.859 58.0639 255.479 59.0091 254.265C59.5526 253.579 60.0569 252.969 60.5355 252.404C61.4145 252.388 64.9568 252.28 66.506 251.553C68.0168 250.843 69.7455 249.519 70.1109 247.79C70.4685 246.097 69.4271 244.335 67.6336 244.142C65.1448 243.874 62.1866 247.286 61.277 249.328C61.1987 249.504 60.2869 252.406 60.3318 252.406C60.3318 252.406 60.3753 252.405 60.3852 252.405C59.9144 252.94 59.4151 253.519 58.883 254.162C57.9093 255.359 56.8195 256.719 55.7346 258.28C54.6455 259.837 53.5059 261.559 52.4695 263.48C51.4281 265.406 50.4316 267.484 49.6808 269.759C49.6723 269.785 49.6666 269.813 49.658 269.838C49.6716 269.105 49.6388 267.053 49.6181 266.896C49.3311 264.679 47.4727 260.564 45.0103 260.108C43.2367 259.781 41.7344 261.17 41.5927 262.895C41.4488 264.657 42.7259 266.419 43.9718 267.532C45.3757 268.787 49.2748 270.002 49.5854 270.097C48.8902 272.269 48.3538 274.556 47.9385 276.899C47.6992 278.239 47.4998 279.595 47.3174 280.957C47.3082 280.323 47.2953 279.756 47.2854 279.677C46.9976 277.459 45.1392 273.344 42.6768 272.889C40.9032 272.561 39.4009 273.951 39.2599 275.676C39.1153 277.437 40.3932 279.201 41.6383 280.313C42.9019 281.441 46.2048 282.544 47.0824 282.824C47.0183 283.348 46.9477 283.87 46.8858 284.394C46.5852 286.906 46.2967 289.414 45.9377 291.867C45.8123 292.731 45.6563 293.577 45.5039 294.425C45.4946 293.861 45.4825 293.387 45.4733 293.314C45.1855 291.097 43.3271 286.982 40.8654 286.527C39.0918 286.199 37.5896 287.589 37.4478 289.314C37.3032 291.075 38.5811 292.838 39.8269 293.951C41.0321 295.027 44.0722 296.073 45.1136 296.411C44.9312 297.274 44.7496 298.139 44.5338 298.967C44.3735 299.529 44.2581 300.081 44.0658 300.637C43.887 301.191 43.7103 301.739 43.5344 302.283C43.1583 303.316 42.7765 304.386 42.3848 305.384C42.1176 306.082 41.8491 306.741 41.5813 307.406C41.7166 306.547 41.9467 304.861 41.9495 304.717C41.9844 303.233 41.4566 300.818 40.4067 299.12C40.4138 298.902 40.401 298.683 40.3661 298.466C40.0912 296.757 38.4864 295.488 36.7434 295.952C34.3237 296.597 32.7894 300.843 32.6747 303.076C32.6683 303.207 32.7545 304.644 32.8236 305.551C32.7011 305.024 32.59 304.512 32.4575 303.972C32.2039 302.902 31.919 301.842 31.617 300.699C31.4524 300.153 31.285 299.601 31.1162 299.043C30.9609 298.488 30.7259 297.92 30.5321 297.352C30.0535 296.043 29.505 294.74 28.923 293.44C29.8597 293.216 33.1733 292.371 34.5039 291.35C35.8295 290.334 37.2341 288.671 37.2213 286.904C37.2092 285.172 35.8152 283.675 34.0217 283.869C31.5322 284.14 29.3725 288.105 28.9202 290.295C28.8924 290.432 28.745 292.039 28.6809 292.923C28.3254 292.145 27.9736 291.366 27.5882 290.59C26.4763 288.349 25.2804 286.116 24.0972 283.883C23.7347 283.199 23.3814 282.514 23.0245 281.829C23.3593 281.752 27.3197 280.833 28.8105 279.689C30.1354 278.673 31.5407 277.009 31.5279 275.243C31.5151 273.512 30.1211 272.014 28.3283 272.209C25.8388 272.48 23.6784 276.445 23.2268 278.635C23.1926 278.799 22.9839 281.112 22.9597 281.703C22.1762 280.195 21.4083 278.683 20.7124 277.162C19.7494 275.066 18.921 272.955 18.2685 270.852C18.4245 270.816 22.5629 269.875 24.0894 268.704C25.4143 267.688 26.8196 266.025 26.8068 264.258C26.7947 262.527 25.4 261.029 23.6065 261.224C21.1177 261.495 18.958 265.46 18.5057 267.65C18.4701 267.821 18.2471 270.31 18.2393 270.764C18.2008 270.639 18.1467 270.514 18.1097 270.389C17.4429 268.133 17.079 265.865 16.8432 263.725C16.7029 262.482 16.6395 261.285 16.6031 260.121C17.3917 260.024 20.9916 259.545 22.4817 258.642C23.9106 257.777 25.4898 256.278 25.6714 254.52C25.8488 252.799 24.6272 251.158 22.8244 251.154C20.3206 251.149 17.7378 254.853 17.0483 256.979C17.0106 257.095 16.7599 258.313 16.5896 259.203C16.5818 258.677 16.5625 258.134 16.5654 257.63C16.569 255.736 16.6886 254.003 16.8069 252.468C16.8809 251.596 16.9657 250.809 17.0533 250.074C17.7777 249.576 20.6732 247.532 21.5636 246.071C22.4326 244.645 23.1435 242.587 22.4946 240.944C21.8592 239.334 20.0186 238.44 18.4167 239.267C16.1922 240.417 15.6074 244.895 15.9749 247.1C16.007 247.291 16.8475 250.213 16.8852 250.188C16.8852 250.188 16.9208 250.164 16.9287 250.158C16.8311 250.864 16.7342 251.623 16.6452 252.453C16.4927 253.988 16.3346 255.724 16.2904 257.625C16.2413 259.524 16.2413 261.589 16.4365 263.763C16.6302 265.943 16.9451 268.227 17.574 270.539C17.5811 270.564 17.5925 270.591 17.5997 270.616C17.2058 269.998 16.0461 268.305 15.9421 268.184C14.4798 266.493 10.6597 264.087 8.35474 265.065C6.69509 265.77 6.20859 267.758 7.04198 269.275C7.89389 270.824 9.93177 271.589 11.5836 271.83Z" fill="#28B3DD"/>
<path d="M54.5167 260.067C54.5552 260.092 55.3159 257.146 55.343 256.956C55.6507 254.741 54.9448 250.282 52.6904 249.192C51.0663 248.408 49.2507 249.352 48.6588 250.978C48.0547 252.638 48.8204 254.677 49.7279 256.078C50.7935 257.724 54.5138 260.065 54.5167 260.067Z" fill="#28B3DD"/>
<path d="M266.494 259.101C268.29 259.886 272.685 259.786 272.689 259.786C272.734 259.786 271.744 256.91 271.661 256.736C270.697 254.718 267.647 251.388 265.167 251.723C263.379 251.965 262.385 253.753 262.789 255.436C263.201 257.156 264.965 258.432 266.494 259.101Z" fill="#28B3DD"/>
<path d="M268.01 271.83C269.873 272.102 273.795 270.965 274.108 270.873C274.727 273.068 275.539 275.27 276.485 277.454C277.025 278.703 277.608 279.945 278.206 281.182C277.849 280.658 277.525 280.192 277.473 280.131C276.009 278.44 272.189 276.033 269.886 277.012C268.225 277.718 267.739 279.705 268.572 281.222C269.423 282.77 271.462 283.537 273.114 283.777C274.791 284.022 278.154 283.119 279.041 282.868C279.276 283.341 279.505 283.814 279.743 284.286C280.877 286.547 282.021 288.799 283.074 291.042C283.446 291.832 283.784 292.623 284.123 293.415C283.805 292.95 283.533 292.561 283.486 292.505C282.023 290.815 278.203 288.408 275.898 289.386C274.237 290.092 273.752 292.08 274.584 293.596C275.437 295.145 277.474 295.911 279.127 296.152C280.727 296.385 283.839 295.58 284.893 295.287C285.217 296.107 285.543 296.929 285.82 297.738C285.997 298.295 286.206 298.82 286.351 299.39C286.508 299.951 286.663 300.506 286.816 301.056C287.073 302.125 287.344 303.227 287.568 304.277C287.73 305.006 287.87 305.704 288.013 306.406C287.653 305.616 286.913 304.081 286.838 303.96C285.648 302.068 282.236 299.11 279.81 299.728C278.062 300.174 277.28 302.064 277.875 303.69C278.481 305.35 280.379 306.416 281.976 306.904C283.735 307.441 287.628 306.951 288.114 306.886C288.346 308.049 288.562 309.182 288.749 310.255C289.166 312.623 289.482 314.745 289.721 316.542H291.362C291.076 314.683 290.701 312.469 290.207 309.983C289.976 308.8 289.703 307.542 289.412 306.252C289.705 306.136 291.365 305.465 292.836 304.643C294.118 306.031 297.401 307.655 297.826 307.861C297.379 308.961 296.934 310.025 296.497 311.022C295.59 313.112 294.727 314.965 293.966 316.542H295.741C296.395 315.088 297.114 313.433 297.864 311.6C298.323 310.486 298.791 309.286 299.259 308.05C299.73 308.149 303.583 308.931 305.38 308.526C307.008 308.158 308.981 307.236 309.71 305.626C310.424 304.049 309.785 302.105 308.075 301.531C305.702 300.734 302.079 303.429 300.752 305.228C300.673 305.334 299.953 306.581 299.511 307.374C299.699 306.868 299.889 306.379 300.077 305.856C300.456 304.823 300.802 303.782 301.18 302.663C301.344 302.116 301.509 301.563 301.676 301.006C301.854 300.456 301.971 299.853 302.122 299.271C302.446 297.916 302.706 296.527 302.938 295.122C303.843 295.451 307.074 296.575 308.746 296.458C310.412 296.34 312.501 295.729 313.466 294.247C314.411 292.798 314.073 290.779 312.471 289.952C310.245 288.804 306.256 290.92 304.672 292.497C304.573 292.595 303.563 293.855 303.021 294.557C303.154 293.712 303.29 292.868 303.398 292.008C303.706 289.526 303.94 287.003 304.186 284.488C304.261 283.718 304.344 282.95 304.425 282.183C304.746 282.304 308.556 283.722 310.431 283.591C312.096 283.474 314.186 282.861 315.15 281.38C316.095 279.93 315.757 277.912 314.154 277.085C311.929 275.938 307.94 278.053 306.356 279.63C306.237 279.749 304.786 281.564 304.439 282.043C304.618 280.351 304.812 278.668 305.07 277.016C305.423 274.736 305.896 272.519 306.514 270.404C306.663 270.46 310.633 271.959 312.552 271.824C314.219 271.707 316.308 271.095 317.272 269.614C318.217 268.165 317.88 266.146 316.276 265.318C314.051 264.171 310.062 266.287 308.477 267.864C308.354 267.987 306.794 269.94 306.536 270.314C306.573 270.189 306.598 270.055 306.637 269.93C307.324 267.681 308.272 265.588 309.255 263.673C309.825 262.559 310.432 261.526 311.045 260.534C311.755 260.889 315.022 262.475 316.763 262.544C318.431 262.611 320.576 262.232 321.696 260.866C322.795 259.529 322.681 257.485 321.179 256.488C319.093 255.103 314.896 256.768 313.147 258.161C313.053 258.237 312.171 259.113 311.539 259.762C311.822 259.318 312.106 258.855 312.387 258.436C313.434 256.859 314.49 255.479 315.435 254.265C315.979 253.579 316.483 252.969 316.962 252.404C317.84 252.388 321.384 252.28 322.931 251.553C324.444 250.843 326.172 249.519 326.538 247.79C326.895 246.097 325.853 244.335 324.06 244.142C321.571 243.874 318.613 247.286 317.703 249.328C317.625 249.504 316.712 252.406 316.758 252.406C316.758 252.406 316.801 252.405 316.812 252.405C316.34 252.94 315.841 253.519 315.309 254.162C314.335 255.359 313.246 256.719 312.161 258.28C311.072 259.837 309.932 261.559 308.896 263.48C307.854 265.406 306.857 267.484 306.107 269.759C306.098 269.785 306.093 269.813 306.084 269.838C306.098 269.105 306.065 267.053 306.044 266.896C305.756 264.679 303.899 260.564 301.436 260.108C299.663 259.781 298.161 261.17 298.019 262.895C297.876 264.657 299.152 266.419 300.398 267.532C301.802 268.787 305.701 270.002 306.011 270.097C305.316 272.269 304.78 274.556 304.364 276.899C304.125 278.239 303.927 279.595 303.744 280.957C303.734 280.323 303.722 279.756 303.711 279.677C303.424 277.459 301.565 273.344 299.103 272.889C297.329 272.561 295.828 273.951 295.686 275.676C295.541 277.437 296.819 279.201 298.064 280.313C299.328 281.441 302.631 282.544 303.509 282.824C303.444 283.348 303.374 283.87 303.312 284.394C303.011 286.906 302.723 289.414 302.364 291.867C302.238 292.731 302.082 293.577 301.929 294.425C301.921 293.861 301.909 293.387 301.899 293.314C301.612 291.097 299.753 286.982 297.292 286.527C295.518 286.199 294.016 287.589 293.875 289.314C293.729 291.075 295.007 292.838 296.252 293.951C297.458 295.027 300.498 296.073 301.54 296.411C301.357 297.274 301.176 298.139 300.96 298.967C300.8 299.529 300.684 300.081 300.493 300.637C300.313 301.191 300.136 301.739 299.961 302.283C299.584 303.316 299.203 304.386 298.811 305.384C298.543 306.082 298.275 306.741 298.007 307.406C298.143 306.547 298.373 304.861 298.376 304.717C298.411 303.233 297.883 300.818 296.834 299.12C296.84 298.902 296.827 298.683 296.792 298.466C296.517 296.757 294.912 295.488 293.169 295.952C290.75 296.597 289.215 300.843 289.101 303.076C289.094 303.207 289.181 304.644 289.25 305.551C289.127 305.024 289.015 304.512 288.884 303.972C288.63 302.902 288.345 301.842 288.043 300.699C287.879 300.153 287.711 299.601 287.542 299.043C287.387 298.488 287.152 297.92 286.958 297.352C286.48 296.043 285.93 294.74 285.349 293.44C286.286 293.216 289.6 292.371 290.931 291.35C292.255 290.334 293.66 288.671 293.647 286.904C293.635 285.172 292.241 283.675 290.448 283.869C287.959 284.14 285.799 288.105 285.346 290.295C285.319 290.432 285.171 292.039 285.107 292.923C284.752 292.145 284.4 291.366 284.014 290.59C282.902 288.349 281.706 286.116 280.523 283.883C280.161 283.199 279.807 282.514 279.451 281.829C279.785 281.752 283.746 280.833 285.237 279.689C286.561 278.673 287.967 277.009 287.954 275.243C287.941 273.512 286.547 272.014 284.754 272.209C282.265 272.48 280.104 276.445 279.653 278.635C279.619 278.799 279.41 281.112 279.387 281.703C278.602 280.195 277.835 278.683 277.138 277.162C276.176 275.066 275.347 272.955 274.695 270.852C274.851 270.816 278.989 269.875 280.516 268.704C281.84 267.688 283.246 266.025 283.233 264.258C283.22 262.527 281.826 261.029 280.033 261.224C277.544 261.495 275.384 265.46 274.933 267.65C274.897 267.821 274.673 270.31 274.665 270.764C274.626 270.639 274.573 270.514 274.536 270.389C273.869 268.133 273.505 265.865 273.269 263.725C273.129 262.482 273.066 261.285 273.029 260.121C273.818 260.024 277.418 259.545 278.909 258.642C280.337 257.777 281.916 256.278 282.098 254.52C282.275 252.799 281.053 251.158 279.25 251.154C276.747 251.149 274.164 254.853 273.474 256.979C273.437 257.095 273.186 258.313 273.016 259.203C273.008 258.677 272.989 258.134 272.991 257.63C272.995 255.736 273.114 254.003 273.233 252.468C273.307 251.596 273.393 250.809 273.479 250.074C274.203 249.576 277.099 247.532 277.99 246.071C278.859 244.645 279.57 242.587 278.921 240.944C278.285 239.334 276.445 238.44 274.843 239.267C272.618 240.417 272.033 244.895 272.401 247.1C272.433 247.291 273.274 250.213 273.311 250.188C273.311 250.188 273.346 250.164 273.355 250.158C273.256 250.864 273.16 251.623 273.071 252.453C272.92 253.988 272.761 255.724 272.717 257.625C272.667 259.524 272.667 261.589 272.863 263.763C273.057 265.943 273.371 268.227 274 270.539C274.007 270.564 274.019 270.591 274.026 270.616C273.632 269.998 272.472 268.305 272.368 268.184C270.905 266.493 267.085 264.087 264.781 265.065C263.121 265.77 262.634 267.758 263.468 269.275C264.319 270.824 266.358 271.589 268.01 271.83Z" fill="#28B3DD"/>
<path d="M310.944 260.067C310.983 260.092 311.743 257.146 311.77 256.956C312.079 254.741 311.373 250.282 309.118 249.192C307.494 248.408 305.678 249.352 305.086 250.978C304.483 252.638 305.248 254.677 306.156 256.078C307.221 257.724 310.941 260.065 310.944 260.067Z" fill="#28B3DD"/>
<path d="M59.6174 159.943C59.1672 158.035 56.4519 154.578 56.4498 154.575C56.422 154.539 54.7146 157.057 54.6256 157.228C53.5899 159.209 52.7544 163.647 54.5109 165.431C55.7759 166.716 57.8039 166.438 58.9079 165.106C60.0362 163.745 59.9999 161.568 59.6174 159.943Z" fill="#28B3DD"/>
<path d="M68.8921 151.093C67.991 149.439 64.7287 146.983 64.4687 146.79C65.8534 144.977 67.1277 143.005 68.3073 140.938C68.9832 139.757 69.6271 138.547 70.2575 137.325C70.0524 137.925 69.8743 138.464 69.8565 138.542C69.3814 140.727 69.7475 145.228 71.9129 146.483C73.4736 147.389 75.3547 146.586 76.0685 145.009C76.7971 143.4 76.1874 141.309 75.3889 139.843C74.5783 138.354 71.8388 136.205 71.1059 135.646C71.3431 135.174 71.5853 134.707 71.8196 134.235C72.9479 131.969 74.0641 129.704 75.2265 127.516C75.6354 126.744 76.067 126 76.4958 125.253C76.3149 125.787 76.1668 126.237 76.1511 126.309C75.676 128.493 76.0414 132.994 78.2075 134.25C79.7674 135.156 81.6493 134.353 82.3623 132.776C83.091 131.165 82.4813 129.076 81.6828 127.609C80.9099 126.189 78.3984 124.182 77.5315 123.514C77.9938 122.762 78.4554 122.009 78.9376 121.302C79.2774 120.826 79.5715 120.345 79.9398 119.886C80.2945 119.425 80.6457 118.968 80.994 118.515C81.6956 117.668 82.415 116.79 83.1202 115.981C83.6067 115.414 84.0811 114.884 84.5569 114.347C84.1402 115.11 83.3567 116.622 83.3054 116.756C82.5041 118.843 82.185 123.347 84.1345 124.917C85.5399 126.048 87.5215 125.54 88.4653 124.089C89.4297 122.608 89.1434 120.45 88.5764 118.879C87.9517 117.15 85.2236 114.33 84.8803 113.98C85.6709 113.096 86.4481 112.243 87.1953 111.45C88.8392 109.695 90.3486 108.17 91.6414 106.902L90.6577 105.588C89.3421 106.932 87.795 108.56 86.1026 110.447C85.2956 111.342 84.4522 112.314 83.5953 113.32C83.3261 113.156 81.7932 112.23 80.2525 111.547C80.5944 109.689 79.9241 106.088 79.8344 105.624C80.9819 105.322 82.1009 105.04 83.1608 104.791C85.3775 104.263 87.3776 103.842 89.095 103.505L88.0308 102.085C86.4758 102.434 84.72 102.85 82.8025 103.35C81.6365 103.652 80.3957 103.997 79.1264 104.364C78.9226 103.928 77.2366 100.375 75.8355 99.1812C74.5634 98.0992 72.643 97.0735 70.9171 97.456C69.2283 97.8307 68.0558 99.5081 68.6221 101.22C69.4078 103.597 73.7371 104.88 75.973 104.862C76.1048 104.862 77.5344 104.69 78.4347 104.568C77.9162 104.72 77.4118 104.863 76.8805 105.026C75.827 105.343 74.7849 105.689 73.663 106.058C73.1274 106.255 72.5868 106.454 72.0397 106.655C71.4934 106.843 70.9406 107.111 70.385 107.339C69.1065 107.894 67.8386 108.518 66.5757 109.175C66.2964 108.254 65.2579 104.995 64.1596 103.727C63.0669 102.464 61.3239 101.159 59.5602 101.277C57.8336 101.391 56.4204 102.872 56.7203 104.649C57.1377 107.119 61.2228 109.042 63.4352 109.363C63.5733 109.383 65.1867 109.436 66.0735 109.448C65.317 109.849 64.5606 110.245 63.8084 110.676C61.6373 111.918 59.479 113.243 57.3186 114.556C56.6576 114.959 55.9938 115.352 55.3306 115.747C55.2352 115.418 54.0848 111.519 52.8547 110.098C51.7627 108.835 50.019 107.531 48.2554 107.648C46.5288 107.762 45.1156 109.242 45.4162 111.021C45.8321 113.49 49.9179 115.412 52.1303 115.734C52.297 115.758 54.619 115.83 55.2103 115.82C53.7493 116.692 52.287 117.546 50.8097 118.331C48.7732 119.415 46.7154 120.367 44.654 121.142C44.6098 120.989 43.4267 116.914 42.1674 115.459C41.0747 114.196 39.3317 112.891 37.5681 113.008C35.8415 113.122 34.4283 114.602 34.7288 116.381C35.1455 118.85 39.2306 120.772 41.443 121.094C41.6168 121.119 44.1148 121.196 44.5685 121.177C44.446 121.223 44.3235 121.284 44.2003 121.328C41.9886 122.127 39.7463 122.624 37.6236 122.986C36.3906 123.198 35.1997 123.332 34.0386 123.438C33.8962 122.656 33.206 119.091 32.2173 117.656C31.2699 116.281 29.6808 114.793 27.915 114.716C26.1855 114.639 24.6192 115.955 24.7218 117.756C24.8649 120.256 28.7149 122.616 30.8782 123.178C30.9957 123.209 32.2265 123.388 33.1248 123.505C32.5998 123.545 32.0592 123.595 31.5556 123.622C29.6651 123.731 27.9278 123.713 26.3886 123.685C25.5146 123.662 24.7239 123.624 23.9838 123.581C23.4446 122.886 21.2329 120.117 19.7222 119.314C18.2477 118.531 16.1514 117.942 14.5487 118.686C12.9788 119.415 12.1953 121.306 13.1163 122.857C14.3949 125.009 18.8987 125.33 21.0791 124.832C21.2671 124.789 24.1356 123.778 24.1078 123.742C24.1078 123.742 24.0821 123.708 24.0757 123.7C24.7866 123.756 25.5488 123.807 26.3829 123.847C27.9243 123.909 29.6658 123.964 31.5662 123.896C33.4652 123.834 35.5259 123.713 37.6856 123.389C39.851 123.067 42.1118 122.618 44.3819 121.854C44.4068 121.846 44.4332 121.833 44.4588 121.825C43.8641 122.255 42.2414 123.511 42.1282 123.622C40.5269 125.181 38.3487 129.137 39.4621 131.381C40.2634 132.996 42.2764 133.364 43.7408 132.443C45.2374 131.501 45.8813 129.422 46.0245 127.758C46.1862 125.882 44.8193 122.034 44.7096 121.728C46.865 120.981 49.0154 120.038 51.1395 118.966C52.3546 118.353 53.5591 117.699 54.7594 117.027C54.2572 117.415 53.8106 117.766 53.7543 117.822C52.1524 119.382 49.9749 123.337 51.0875 125.58C51.8888 127.197 53.9025 127.564 55.367 126.642C56.8628 125.701 57.5074 123.622 57.6506 121.958C57.7952 120.27 56.6961 116.966 56.3941 116.095C56.8514 115.833 57.3115 115.576 57.7674 115.312C59.9584 114.045 62.1381 112.771 64.3148 111.587C65.082 111.169 65.8527 110.787 66.622 110.401C66.1768 110.745 65.805 111.04 65.7523 111.091C64.151 112.651 61.9728 116.606 63.0854 118.848C63.8875 120.465 65.9004 120.834 67.3656 119.912C68.8614 118.971 69.5053 116.89 69.6485 115.226C69.7874 113.616 68.8002 110.557 68.4454 109.521C69.2454 109.149 70.046 108.776 70.8381 108.452C71.3844 108.243 71.8951 108.004 72.455 107.824C73.0056 107.635 73.5512 107.447 74.0904 107.261C75.1432 106.943 76.2273 106.607 77.2623 106.321C77.981 106.117 78.6691 105.937 79.3614 105.751C78.5936 106.158 77.1056 106.987 76.9895 107.069C75.7807 107.932 74.1652 109.803 73.4372 111.661C73.2577 111.787 73.0903 111.928 72.9372 112.087C71.7348 113.332 71.6828 115.377 73.0996 116.494C75.0663 118.043 79.3849 116.723 81.2397 115.475C81.3494 115.402 82.4471 114.471 83.1309 113.872C82.7826 114.285 82.44 114.681 82.0867 115.112C81.3829 115.956 80.7055 116.821 79.9726 117.747C79.6349 118.207 79.2937 118.672 78.949 119.141C78.5971 119.598 78.2837 120.127 77.9454 120.623C77.1861 121.792 76.4723 123.012 75.7814 124.257C75.0399 123.641 72.3759 121.497 70.7604 121.045C69.1528 120.595 66.9788 120.469 65.5728 121.539C64.1952 122.587 63.8333 124.6 65.0649 125.919C66.7744 127.749 71.2426 127.098 73.2656 126.146C73.3916 126.087 74.7664 125.241 75.5129 124.76C75.1033 125.512 74.6909 126.261 74.3012 127.035C73.1751 129.269 72.1059 131.565 71.0289 133.851C70.6992 134.552 70.3622 135.246 70.0282 135.942C69.7668 135.72 66.6554 133.102 64.8462 132.596C63.2386 132.146 61.0646 132.019 59.6578 133.089C58.2817 134.137 57.9191 136.151 59.1507 137.469C60.8602 139.298 65.3284 138.648 67.3514 137.696C67.5038 137.625 69.4797 136.404 69.9669 136.069C69.2304 137.601 68.4811 139.122 67.6819 140.591C66.5821 142.619 65.3911 144.548 64.099 146.332C63.9772 146.228 60.742 143.481 58.8893 142.963C57.2809 142.512 55.1077 142.386 53.7009 143.456C52.324 144.504 51.9622 146.518 53.1937 147.836C54.9032 149.665 59.3715 149.015 61.3944 148.063C61.5533 147.988 63.6788 146.674 64.0463 146.408C63.9694 146.514 63.9017 146.632 63.8241 146.737C62.4194 148.623 60.8224 150.275 59.2518 151.747C58.3408 152.606 57.4219 153.373 56.5116 154.101C55.961 153.528 53.4188 150.935 51.8026 150.285C50.2534 149.66 48.1072 149.296 46.5914 150.205C45.1077 151.096 44.5265 153.058 45.6063 154.503C47.1043 156.509 51.6174 156.353 53.7322 155.629C53.8469 155.589 54.9723 155.06 55.7865 154.663C55.3698 154.985 54.9467 155.325 54.5421 155.626C53.0256 156.759 51.5661 157.703 50.2676 158.528C49.5254 158.992 48.8444 159.397 48.2041 159.768C47.3707 159.487 43.9987 158.397 42.2956 158.56C40.6331 158.721 38.5603 159.386 37.6343 160.891C36.7276 162.366 37.1165 164.375 38.7398 165.16C40.9935 166.25 44.9275 164.032 46.4711 162.415C46.6043 162.275 48.4391 159.849 48.3964 159.834L48.3458 159.817C48.9698 159.472 49.6344 159.094 50.3517 158.667C51.6716 157.869 53.1546 156.953 54.7024 155.849C56.2509 154.75 57.9034 153.511 59.5268 152.049C61.1544 150.587 62.7927 148.965 64.2643 147.075C64.2806 147.054 64.2956 147.03 64.312 147.008C64.0534 147.695 63.3938 149.638 63.3604 149.793C62.8845 151.977 63.2507 156.478 65.416 157.735C66.976 158.64 68.8586 157.837 69.5716 156.26C70.3003 154.65 69.6905 152.56 68.8921 151.093Z" fill="#28B3DD"/>
<path d="M33.7275 123.798C33.7239 123.753 30.9111 124.911 30.7423 125.004C28.7863 126.085 25.6408 129.326 26.1216 131.783C26.4685 133.553 28.3126 134.44 29.9687 133.937C31.6597 133.425 32.8307 131.589 33.4077 130.022C34.0858 128.183 33.7275 123.802 33.7275 123.798Z" fill="#28B3DD"/>
<path d="M272.875 166.325C273.514 164.471 276.559 161.303 276.562 161.3C276.593 161.267 278.041 163.942 278.114 164.122C278.945 166.196 279.334 170.695 277.409 172.294C276.022 173.448 274.032 172.969 273.066 171.533C272.079 170.066 272.332 167.905 272.875 166.325Z" fill="#28B3DD"/>
<path d="M264.529 156.595C265.59 155.039 269.082 152.921 269.359 152.753C268.162 150.812 267.091 148.722 266.123 146.548C265.569 145.306 265.048 144.037 264.544 142.759C264.687 143.377 264.811 143.931 264.82 144.01C265.076 146.231 264.262 150.673 261.983 151.707C260.34 152.453 258.548 151.466 257.995 149.826C257.43 148.152 258.245 146.132 259.186 144.753C260.141 143.352 263.081 141.487 263.866 141.003C263.677 140.511 263.483 140.022 263.297 139.529C262.4 137.162 261.516 134.796 260.577 132.503C260.246 131.695 259.891 130.911 259.539 130.125C259.667 130.674 259.768 131.138 259.777 131.21C260.033 133.431 259.219 137.873 256.94 138.907C255.297 139.653 253.504 138.666 252.952 137.026C252.388 135.35 253.202 133.332 254.143 131.953C255.054 130.616 257.753 128.87 258.682 128.291C258.297 127.497 257.913 126.702 257.504 125.95C257.213 125.443 256.968 124.934 256.648 124.442C256.341 123.947 256.037 123.458 255.735 122.973C255.122 122.06 254.494 121.114 253.872 120.239C253.445 119.627 253.026 119.051 252.606 118.47C252.944 119.272 253.574 120.853 253.611 120.991C254.2 123.147 254.069 127.661 251.972 129.029C250.461 130.015 248.54 129.311 247.746 127.774C246.934 126.204 247.434 124.085 248.155 122.578C248.949 120.921 251.944 118.386 252.32 118.072C251.622 117.113 250.934 116.187 250.269 115.324C248.809 113.414 247.459 111.747 246.299 110.355L247.409 109.147C248.584 110.615 249.961 112.389 251.457 114.435C252.17 115.405 252.913 116.457 253.665 117.544C253.949 117.408 255.567 116.64 257.168 116.113C257.012 114.23 258.039 110.713 258.174 110.261C257.063 109.846 255.978 109.454 254.948 109.1C252.795 108.354 250.847 107.735 249.171 107.229L250.372 105.922C251.885 106.424 253.591 107.014 255.448 107.702C256.579 108.119 257.778 108.586 259.005 109.078C259.251 108.664 261.282 105.297 262.796 104.249C264.169 103.3 266.183 102.471 267.862 103.023C269.505 103.564 270.505 105.35 269.77 106.998C268.752 109.284 264.316 110.129 262.093 109.888C261.962 109.874 260.556 109.562 259.673 109.35C260.173 109.553 260.661 109.745 261.174 109.961C262.19 110.381 263.192 110.829 264.272 111.308C264.785 111.558 265.304 111.81 265.827 112.065C266.352 112.306 266.876 112.628 267.406 112.909C268.623 113.589 269.822 114.337 271.013 115.117C271.383 114.228 272.741 111.089 273.96 109.936C275.173 108.789 277.038 107.665 278.781 107.957C280.488 108.242 281.746 109.856 281.271 111.597C280.609 114.011 276.353 115.517 274.119 115.617C273.98 115.623 272.37 115.514 271.486 115.437C272.199 115.912 272.912 116.382 273.617 116.885C275.653 118.338 277.669 119.872 279.687 121.394C280.305 121.86 280.926 122.317 281.547 122.777C281.674 122.459 283.209 118.694 284.574 117.403C285.786 116.256 287.651 115.131 289.394 115.424C291.102 115.709 292.36 117.323 291.883 119.063C291.223 121.478 286.966 122.983 284.732 123.083C284.564 123.09 282.247 122.931 281.659 122.862C283.026 123.874 284.397 124.871 285.788 125.798C287.705 127.081 289.659 128.233 291.633 129.21C291.692 129.061 293.275 125.125 294.673 123.802C295.886 122.655 297.752 121.53 299.495 121.822C301.201 122.108 302.459 123.722 301.983 125.462C301.322 127.878 297.066 129.383 294.832 129.482C294.657 129.49 292.164 129.317 291.714 129.253C291.832 129.311 291.947 129.384 292.065 129.44C294.186 130.456 296.368 131.173 298.444 131.745C299.65 132.08 300.821 132.332 301.966 132.552C302.186 131.788 303.228 128.31 304.355 126.981C305.435 125.707 307.164 124.385 308.929 124.484C310.657 124.58 312.085 126.047 311.802 127.828C311.411 130.301 307.345 132.265 305.137 132.609C305.016 132.628 303.774 132.683 302.869 132.711C303.387 132.802 303.92 132.906 304.418 132.984C306.289 133.28 308.019 133.436 309.553 133.562C310.426 133.626 311.216 133.667 311.956 133.697C312.562 133.06 315.039 130.524 316.623 129.876C318.168 129.244 320.312 128.867 321.832 129.768C323.322 130.651 323.913 132.609 322.842 134.06C321.355 136.075 316.841 135.944 314.723 135.232C314.539 135.17 311.786 133.878 311.817 133.845C311.817 133.845 311.847 133.814 311.853 133.806C311.14 133.791 310.376 133.767 309.542 133.723C308.002 133.631 306.264 133.513 304.38 133.255C302.498 133.004 300.458 132.678 298.342 132.14C296.219 131.604 294.015 130.932 291.832 129.945C291.808 129.935 291.784 129.92 291.759 129.908C292.308 130.395 293.796 131.807 293.897 131.929C295.336 133.641 297.108 137.793 295.778 139.915C294.818 141.443 292.78 141.608 291.414 140.545C290.019 139.459 289.585 137.326 289.609 135.656C289.636 133.773 291.379 130.081 291.519 129.787C289.448 128.828 287.403 127.677 285.396 126.397C284.249 125.667 283.115 124.896 281.988 124.108C282.449 124.544 282.858 124.938 282.909 124.999C284.347 126.711 286.12 130.864 284.789 132.985C283.83 134.513 281.79 134.678 280.424 133.614C279.03 132.529 278.596 130.396 278.619 128.727C278.644 127.032 280.066 123.854 280.454 123.018C280.025 122.711 279.593 122.409 279.166 122.101C277.112 120.622 275.07 119.137 273.022 117.742C272.301 117.25 271.572 116.792 270.845 116.331C271.253 116.719 271.595 117.049 271.641 117.105C273.08 118.816 274.852 122.969 273.521 125.09C272.562 126.618 270.523 126.783 269.156 125.721C267.762 124.635 267.329 122.501 267.352 120.832C267.375 119.215 268.662 116.27 269.118 115.274C268.359 114.825 267.6 114.373 266.844 113.971C266.322 113.709 265.837 113.421 265.297 113.186C264.769 112.944 264.245 112.702 263.727 112.463C262.71 112.041 261.665 111.599 260.664 111.211C259.97 110.936 259.303 110.688 258.633 110.435C259.356 110.916 260.753 111.889 260.862 111.983C261.978 112.963 263.399 114.984 263.938 116.906C264.103 117.049 264.257 117.207 264.393 117.379C265.465 118.738 265.314 120.779 263.792 121.748C261.681 123.093 257.515 121.349 255.794 119.923C255.693 119.839 254.693 118.803 254.072 118.139C254.378 118.585 254.679 119.014 254.987 119.477C255.604 120.388 256.191 121.314 256.828 122.31C257.119 122.801 257.412 123.297 257.708 123.799C258.013 124.29 258.272 124.847 258.559 125.375C259.199 126.612 259.786 127.898 260.35 129.205C261.149 128.668 264.013 126.799 265.666 126.511C267.31 126.222 269.486 126.313 270.778 127.519C272.044 128.699 272.204 130.739 270.847 131.928C268.964 133.577 264.582 132.485 262.665 131.336C262.545 131.264 261.261 130.284 260.567 129.734C260.899 130.522 261.235 131.308 261.546 132.117C262.443 134.452 263.278 136.843 264.122 139.226C264.38 139.956 264.645 140.68 264.909 141.406C265.192 141.211 268.548 138.917 270.399 138.593C272.043 138.305 274.219 138.396 275.512 139.601C276.777 140.781 276.937 142.822 275.58 144.01C273.697 145.659 269.316 144.567 267.397 143.418C267.253 143.332 265.408 141.92 264.957 141.538C265.537 143.136 266.131 144.723 266.78 146.266C267.672 148.393 268.665 150.431 269.773 152.335C269.904 152.244 273.397 149.833 275.292 149.502C276.938 149.214 279.113 149.305 280.405 150.511C281.671 151.69 281.83 153.73 280.473 154.919C278.59 156.569 274.209 155.476 272.291 154.327C272.141 154.237 270.157 152.717 269.817 152.416C269.884 152.529 269.939 152.653 270.006 152.765C271.216 154.783 272.64 156.585 274.056 158.207C274.876 159.151 275.714 160.008 276.548 160.823C277.153 160.307 279.941 157.981 281.613 157.494C283.217 157.028 285.389 156.879 286.806 157.934C288.194 158.969 288.577 160.979 287.359 162.309C285.668 164.156 281.194 163.551 279.161 162.62C279.05 162.569 277.984 161.93 277.214 161.453C277.596 161.816 277.983 162.196 278.355 162.536C279.752 163.814 281.109 164.899 282.319 165.85C283.011 166.386 283.649 166.856 284.249 167.289C285.106 167.093 288.57 166.344 290.248 166.676C291.887 167.001 293.882 167.87 294.654 169.461C295.41 171.018 294.821 172.978 293.128 173.598C290.777 174.458 287.084 171.858 285.709 170.095C285.591 169.943 284.007 167.347 284.051 167.335C284.051 167.335 284.093 167.326 284.103 167.324C283.516 166.919 282.892 166.476 282.221 165.98C280.988 165.054 279.603 163.995 278.173 162.742C276.742 161.493 275.222 160.096 273.752 158.48C272.278 156.862 270.81 155.085 269.533 153.059C269.52 153.035 269.507 153.01 269.493 152.987C269.682 153.695 270.144 155.695 270.162 155.853C270.418 158.074 269.605 162.515 267.326 163.55C265.683 164.295 263.89 163.308 263.337 161.668C262.773 159.993 263.588 157.975 264.529 156.595Z" fill="#28B3DD"/>
<path d="M302.24 132.942C302.249 132.897 304.931 134.33 305.091 134.44C306.929 135.711 309.735 139.249 309.012 141.646C308.491 143.373 306.568 144.071 304.97 143.406C303.338 142.727 302.356 140.784 301.938 139.167C301.447 137.27 302.24 132.946 302.24 132.942Z" fill="#28B3DD"/>
<path d="M319.334 315.991H326.457" stroke="#1A2E35" stroke-width="1.33333" stroke-miterlimit="10" stroke-linecap="round" stroke-linejoin="round"/>
<path d="M12.334 315.991H310.787" stroke="#1A2E35" stroke-width="1.33333" stroke-miterlimit="10" stroke-linecap="round" stroke-linejoin="round"/>
<path d="M304.376 123.683C304.376 122.109 303.1 120.833 301.527 120.833C299.953 120.833 298.678 122.109 298.678 123.683C298.678 125.256 299.953 126.532 301.527 126.532C303.1 126.532 304.376 125.256 304.376 123.683Z" stroke="#747474" stroke-width="1.33333" stroke-miterlimit="10" stroke-linecap="round"/>
<path d="M144.821 221.98C144.821 220.406 143.546 219.13 141.972 219.13C140.399 219.13 139.123 220.406 139.123 221.98C139.123 223.553 140.399 224.829 141.972 224.829C143.546 224.829 144.821 223.553 144.821 221.98Z" stroke="#747474" stroke-width="1.33333" stroke-miterlimit="10" stroke-linecap="round"/>
<path d="M207.503 165.708C207.503 164.135 206.227 162.859 204.654 162.859C203.08 162.859 201.805 164.135 201.805 165.708C201.805 167.282 203.08 168.557 204.654 168.557C206.227 168.557 207.503 167.282 207.503 165.708Z" stroke="#747474" stroke-width="1.33333" stroke-miterlimit="10" stroke-linecap="round"/>
<path d="M299.39 225.541C299.39 223.968 298.114 222.692 296.541 222.692C294.967 222.692 293.691 223.968 293.691 225.541C293.691 227.115 294.967 228.39 296.541 228.39C298.114 228.39 299.39 227.115 299.39 225.541Z" stroke="#747474" stroke-width="1.33333" stroke-miterlimit="10" stroke-linecap="round"/>
<path d="M45.1007 192.775C45.1007 191.202 43.825 189.926 42.2515 189.926C40.6781 189.926 39.4023 191.202 39.4023 192.775C39.4023 194.349 40.6781 195.625 42.2515 195.625C43.825 195.625 45.1007 194.349 45.1007 192.775Z" stroke="#747474" stroke-width="1.33333" stroke-miterlimit="10" stroke-linecap="round"/>
<path d="M28.005 155.736C28.005 154.162 26.7293 152.887 25.1558 152.887C23.5824 152.887 22.3066 154.162 22.3066 155.736C22.3066 157.309 23.5824 158.585 25.1558 158.585C26.7293 158.585 28.005 157.309 28.005 155.736Z" stroke="#747474" stroke-width="1.33333" stroke-miterlimit="10" stroke-linecap="round"/>
<path d="M250.241 36.7822C250.241 35.2087 248.966 33.933 247.392 33.933C245.819 33.933 244.543 35.2087 244.543 36.7822C244.543 38.3556 245.819 39.6313 247.392 39.6313C248.966 39.6313 250.241 38.3556 250.241 36.7822Z" stroke="#747474" stroke-width="1.33333" stroke-miterlimit="10" stroke-linecap="round"/>
<path d="M304.376 69.5479C304.376 67.9744 303.1 66.6987 301.527 66.6987C299.953 66.6987 298.678 67.9744 298.678 69.5479C298.678 71.1214 299.953 72.3971 301.527 72.3971C303.1 72.3971 304.376 71.1214 304.376 69.5479Z" stroke="#747474" stroke-width="1.33333" stroke-miterlimit="10" stroke-linecap="round"/>
<path d="M104.933 18.2625C104.933 16.689 103.657 15.4133 102.084 15.4133C100.51 15.4133 99.2344 16.689 99.2344 18.2625C99.2344 19.836 100.51 21.1117 102.084 21.1117C103.657 21.1117 104.933 19.836 104.933 18.2625Z" stroke="#747474" stroke-width="1.33333" stroke-miterlimit="10" stroke-linecap="round"/>
<path d="M151.944 169.982C151.944 168.408 150.669 167.133 149.095 167.133C147.522 167.133 146.246 168.408 146.246 169.982C146.246 171.555 147.522 172.831 149.095 172.831C150.669 172.831 151.944 171.555 151.944 169.982Z" stroke="#747474" stroke-width="1.33333" stroke-miterlimit="10" stroke-linecap="round"/>
<path d="M45.1007 57.4389C45.1007 55.8654 43.825 54.5897 42.2515 54.5897C40.6781 54.5897 39.4023 55.8654 39.4023 57.4389C39.4023 59.0124 40.6781 60.2881 42.2515 60.2881C43.825 60.2881 45.1007 59.0124 45.1007 57.4389Z" stroke="#747474" stroke-width="1.33333" stroke-miterlimit="10" stroke-linecap="round"/>
<path d="M301.828 179.096L296.688 184.528" stroke="#747474" stroke-width="1.33333" stroke-miterlimit="10" stroke-linecap="round"/>
<path d="M301.974 184.382L296.541 179.242" stroke="#747474" stroke-width="1.33333" stroke-miterlimit="10" stroke-linecap="round"/>
<path d="M68.9063 40.9099L63.7656 46.3426" stroke="#747474" stroke-width="1.33333" stroke-miterlimit="10" stroke-linecap="round"/>
<path d="M69.0518 46.1965L63.6191 41.0559" stroke="#747474" stroke-width="1.33333" stroke-miterlimit="10" stroke-linecap="round"/>
<path d="M117.342 163.425L112.201 168.858" stroke="#747474" stroke-width="1.33333" stroke-miterlimit="10" stroke-linecap="round"/>
<path d="M117.489 168.712L112.057 163.571" stroke="#747474" stroke-width="1.33333" stroke-miterlimit="10" stroke-linecap="round"/>
<path d="M177.029 258.572L171.889 264.005" stroke="#747474" stroke-width="1.33333" stroke-miterlimit="10" stroke-linecap="round"/>
<path d="M177.175 263.859L171.742 258.718" stroke="#747474" stroke-width="1.33333" stroke-miterlimit="10" stroke-linecap="round"/>
<path d="M284.586 29.2127L279.445 34.6454" stroke="#747474" stroke-width="1.33333" stroke-miterlimit="10" stroke-linecap="round"/>
<path d="M284.733 34.4993L279.301 29.3586" stroke="#747474" stroke-width="1.33333" stroke-miterlimit="10" stroke-linecap="round"/>
<path d="M35.1289 94.4783L29.9883 99.911" stroke="#747474" stroke-width="1.33333" stroke-miterlimit="10" stroke-linecap="round"/>
<path d="M35.2745 99.7649L29.8418 94.6242" stroke="#747474" stroke-width="1.33333" stroke-miterlimit="10" stroke-linecap="round"/>
<path d="M215.018 37.8093C207.195 48.8848 189.532 56.5135 183.97 52.5838C179.198 49.2132 179.696 29.4583 187.519 18.3835C193.092 10.4941 204.177 7.86505 211.771 13.2294C219.365 18.5937 220.591 29.9199 215.018 37.8093Z" fill="#28B3DD"/>
<path d="M215.018 37.8093C207.195 48.8848 189.532 56.5135 183.97 52.5838C179.198 49.2132 179.696 29.4583 187.519 18.3835C193.092 10.4941 204.177 7.86505 211.771 13.2294C219.365 18.5937 220.591 29.9199 215.018 37.8093Z" stroke="#1A2E35" stroke-width="1.33333" stroke-miterlimit="10" stroke-linecap="round" stroke-linejoin="round"/>
<path d="M193.937 50.7281C192.487 51.2217 191.088 51.5878 189.783 51.8108" stroke="#1A2E35" stroke-width="1.33333" stroke-miterlimit="10" stroke-linecap="round" stroke-linejoin="round"/>
<path d="M211.952 38.7943C208.011 43.2654 202.593 46.9935 197.404 49.3484" stroke="#1A2E35" stroke-width="1.33333" stroke-miterlimit="10" stroke-linecap="round" stroke-linejoin="round"/>
<path d="M217.262 27.8246C216.971 30.0099 216.298 32.1732 215.236 34.1847" stroke="#1A2E35" stroke-width="1.33333" stroke-miterlimit="10" stroke-linecap="round" stroke-linejoin="round"/>
<path d="M200.976 21.7722C198.554 23.4639 195.555 23.3499 194.276 21.5193C192.997 19.688 193.924 16.8324 196.345 15.1414C198.767 13.4504 201.766 13.5637 203.045 15.395C204.324 17.2256 203.397 20.0812 200.976 21.7722Z" fill="white"/>
<path d="M183.97 52.5839L165.168 79.2181L183.97 52.5839Z" fill="white"/>
<path d="M183.97 52.5839L165.168 79.2181" stroke="#1A2E35" stroke-width="1.33333" stroke-miterlimit="10" stroke-linecap="round" stroke-linejoin="round"/>
<path d="M183.385 52.3109C183.385 52.3109 181.078 53.9585 181.078 54.6181C181.078 55.2777 183.385 56.9252 183.934 56.4857C184.484 56.0462 183.934 52.5303 183.934 52.5303L183.385 52.3109Z" fill="#28B3DD"/>
<path d="M183.385 52.3109C183.385 52.3109 181.078 53.9585 181.078 54.6181C181.078 55.2777 183.385 56.9252 183.934 56.4857C184.484 56.0462 183.934 52.5303 183.934 52.5303L183.385 52.3109Z" stroke="#1A2E35" stroke-width="1.33333" stroke-miterlimit="10" stroke-linecap="round" stroke-linejoin="round"/>
<path d="M149.089 20.5851C157.405 31.2959 159.558 50.414 154.179 54.5909C149.564 58.1738 130.81 51.9433 122.495 41.2332C116.571 33.6031 117.285 22.2334 124.629 16.5321C131.972 10.8302 143.165 12.9557 149.089 20.5851Z" fill="#A5A4A5"/>
<path d="M149.089 20.5851C157.405 31.2959 159.558 50.414 154.179 54.5909C149.564 58.1738 130.81 51.9433 122.495 41.2332C116.571 33.6031 117.285 22.2334 124.629 16.5321C131.972 10.8302 143.165 12.9557 149.089 20.5851Z" stroke="#1A2E35" stroke-width="1.33333" stroke-miterlimit="10" stroke-linecap="round" stroke-linejoin="round"/>
<path d="M155.307 44.5143C155.357 46.045 155.299 47.4895 155.133 48.8037" stroke="#1A2E35" stroke-width="1.33333" stroke-miterlimit="10" stroke-linecap="round" stroke-linejoin="round"/>
<path d="M149.139 23.8048C152.269 28.8777 154.257 35.1452 154.998 40.7959" stroke="#1A2E35" stroke-width="1.33333" stroke-miterlimit="10" stroke-linecap="round" stroke-linejoin="round"/>
<path d="M140.191 15.5287C142.197 16.4447 144.071 17.7183 145.685 19.3196" stroke="#1A2E35" stroke-width="1.33333" stroke-miterlimit="10" stroke-linecap="round" stroke-linejoin="round"/>
<path d="M129.656 29.347C130.569 32.1563 129.586 34.9927 127.462 35.6829C125.338 36.3724 122.876 34.6543 121.964 31.845C121.052 29.0357 122.034 26.1993 124.158 25.5098C126.282 24.8196 128.744 26.5377 129.656 29.347Z" fill="white"/>
<path d="M154.18 54.5908L174.182 80.3353L154.18 54.5908Z" fill="white"/>
<path d="M154.18 54.5908L174.182 80.3353" stroke="#1A2E35" stroke-width="1.33333" stroke-miterlimit="10" stroke-linecap="round" stroke-linejoin="round"/>
<path d="M153.67 54.7135C153.67 54.7135 154.381 56.5626 154.933 56.6574C155.485 56.7514 156.242 56.2913 156.218 55.4123C156.193 54.534 153.628 53.1757 153.67 54.7135Z" fill="#A5A4A5"/>
<path d="M153.67 54.7135C153.67 54.7135 154.381 56.5626 154.933 56.6574C155.485 56.7514 156.242 56.2913 156.218 55.4123C156.193 54.534 153.628 53.1757 153.67 54.7135Z" stroke="#1A2E35" stroke-width="1.33333" stroke-miterlimit="10" stroke-linecap="round" stroke-linejoin="round"/>
<path d="M168.225 49.454C168.225 49.454 167.017 51.9813 167.346 52.4208C167.676 52.8602 169.653 52.4208 170.422 52.4208C171.192 52.4208 169.433 49.0146 169.433 49.0146L168.225 49.454Z" fill="#1A2E35"/>
<path d="M168.225 49.454C168.225 49.454 167.017 51.9813 167.346 52.4208C167.676 52.8602 169.653 52.4208 170.422 52.4208C171.192 52.4208 169.433 49.0146 169.433 49.0146L168.225 49.454Z" stroke="#1A2E35" stroke-width="1.33333" stroke-miterlimit="10" stroke-linecap="round" stroke-linejoin="round"/>
<path d="M185.69 19.3546C185.69 32.9146 175.666 49.3359 168.856 49.3359C163.014 49.3359 152.021 32.9146 152.021 19.3546C152.021 9.69516 159.558 1.15257 168.856 1.15257C178.154 1.15257 185.69 9.69516 185.69 19.3546Z" fill="#1A2E35"/>
<path d="M185.69 19.3546C185.69 32.9146 175.666 49.3359 168.856 49.3359C163.014 49.3359 152.021 32.9146 152.021 19.3546C152.021 9.69516 159.558 1.15257 168.856 1.15257C178.154 1.15257 185.69 9.69516 185.69 19.3546Z" stroke="#1A2E35" stroke-width="1.33333" stroke-miterlimit="10" stroke-linecap="round" stroke-linejoin="round"/>
<path d="M165.298 12.9544C163.886 15.5493 161.151 16.7866 159.19 15.7195C157.228 14.6525 156.782 11.6837 158.193 9.08947C159.605 6.49457 162.34 5.2566 164.302 6.32362C166.263 7.39135 166.709 10.3595 165.298 12.9544Z" fill="white"/>
<path d="M168.857 49.3362V73.6569V49.3362Z" fill="white"/>
<path d="M168.857 49.3362V73.6569" stroke="#1A2E35" stroke-width="1.33333" stroke-miterlimit="10" stroke-linecap="round" stroke-linejoin="round"/>
<path d="M276.899 139.221L62.2039 145.153L60 65.4066L274.695 59.4739L276.899 139.221Z" fill="white"/>
<path d="M276.778 139.221L62.0828 145.153L59.8789 65.4066L274.574 59.4739L276.778 139.221Z" stroke="#1A2E35" stroke-width="1.33333" stroke-miterlimit="10" stroke-linecap="round" stroke-linejoin="round"/>
<path d="M91.5203 108.165L86.2824 108.311L85.5118 110.814L81.9332 110.913L86.6198 96.7371L90.5783 96.6267L96.0477 110.52L92.4291 110.621L91.5203 108.165ZM90.5671 105.551L88.6844 100.461L87.1084 105.647L90.5671 105.551ZM110.148 110.126L106.73 110.222L100.77 101.725L101.012 110.381L97.5932 110.477L97.2018 96.442L100.62 96.3467L106.581 104.884L106.338 96.1872L109.757 96.0918L110.148 110.126ZM125.182 109.707L121.763 109.802L115.804 101.305L116.045 109.962L112.626 110.057L112.235 96.0227L115.654 95.9274L121.614 104.465L121.371 95.7679L124.79 95.6726L125.182 109.707ZM134.301 109.593C132.982 109.63 131.76 109.357 130.637 108.775C129.527 108.192 128.63 107.363 127.946 106.289C127.276 105.2 126.921 103.97 126.883 102.597C126.845 101.224 127.13 99.9823 127.74 98.8716C128.362 97.7604 129.211 96.8831 130.287 96.2395C131.376 95.5956 132.581 95.2552 133.9 95.2184C135.22 95.1816 136.434 95.4545 137.544 96.0371C138.668 96.6194 139.558 97.4482 140.215 98.5236C140.885 99.5987 141.239 100.823 141.277 102.195C141.316 103.568 141.03 104.817 140.422 105.941C139.812 107.052 138.97 107.929 137.894 108.572C136.818 109.216 135.62 109.556 134.301 109.593ZM134.214 106.474C135.334 106.443 136.216 106.045 136.862 105.28C137.521 104.514 137.833 103.519 137.799 102.292C137.764 101.053 137.397 100.076 136.697 99.362C136.009 98.6342 135.106 98.286 133.987 98.3172C132.854 98.3488 131.958 98.7406 131.298 99.4926C130.652 100.244 130.347 101.246 130.382 102.499C130.416 103.739 130.777 104.722 131.464 105.45C132.165 106.164 133.081 106.506 134.214 106.474ZM146.343 95.0714L146.578 103.468C146.601 104.308 146.826 104.948 147.252 105.39C147.677 105.832 148.29 106.041 149.09 106.019C149.889 105.997 150.496 105.753 150.91 105.288C151.324 104.823 151.519 104.171 151.496 103.331L151.262 94.9343L154.68 94.8389L154.914 103.216C154.949 104.468 154.712 105.536 154.203 106.417C153.694 107.298 152.992 107.971 152.098 108.436C151.218 108.901 150.224 109.149 149.118 109.18C148.012 109.21 147.013 109.025 146.121 108.623C145.243 108.207 144.538 107.573 144.007 106.721C143.476 105.856 143.193 104.796 143.158 103.544L142.925 95.1668L146.343 95.0714ZM170.027 108.456L166.609 108.552L160.65 100.055L160.891 108.711L157.472 108.806L157.081 94.772L160.5 94.6766L166.46 103.214L166.217 94.5171L169.636 94.4218L170.027 108.456ZM171.729 101.366C171.691 99.98 171.956 98.7388 172.526 97.6425C173.095 96.5328 173.905 95.6633 174.954 95.0338C176.017 94.3905 177.228 94.05 178.587 94.0121C180.253 93.9656 181.691 94.3657 182.902 95.2122C184.113 96.0588 184.939 97.2362 185.382 98.7445L181.623 98.8493C181.327 98.2707 180.915 97.8353 180.386 97.5433C179.871 97.2509 179.287 97.1138 178.634 97.132C177.581 97.1613 176.738 97.5517 176.106 98.3029C175.473 99.0542 175.174 100.043 175.208 101.269C175.242 102.495 175.596 103.466 176.27 104.181C176.943 104.895 177.806 105.238 178.859 105.209C179.512 105.191 180.088 105.021 180.586 104.701C181.097 104.379 181.485 103.922 181.748 103.328L185.507 103.223C185.149 104.753 184.39 105.975 183.228 106.888C182.066 107.787 180.652 108.26 178.986 108.307C177.626 108.344 176.398 108.079 175.302 107.509C174.219 106.926 173.362 106.102 172.732 105.04C172.102 103.977 171.768 102.752 171.729 101.366ZM190.838 96.5715L190.917 99.4104L195.495 99.2827L195.569 101.922L190.99 102.049L191.076 105.128L196.254 104.984L196.331 107.723L187.734 107.962L187.343 93.9279L195.939 93.6882L196.016 96.4271L190.838 96.5715ZM214.052 93.183L214.444 107.218L211.025 107.313L210.79 98.8962L207.886 107.4L205.128 107.477L201.733 99.1287L201.969 107.565L198.55 107.661L198.159 93.6263L202.197 93.5136L206.407 103.12L210.034 93.2951L214.052 93.183ZM220.006 95.758L220.085 98.5969L224.663 98.4692L224.737 101.108L220.159 101.236L220.245 104.315L225.423 104.17L225.499 106.909L216.902 107.149L216.511 93.1144L225.108 92.8747L225.184 95.6136L220.006 95.758ZM240.274 106.497L236.855 106.592L230.896 98.0953L231.137 106.752L227.718 106.847L227.327 92.8128L230.746 92.7174L236.706 101.255L236.463 92.5579L239.882 92.4626L240.274 106.497ZM252.456 92.1119L252.533 94.8508L248.814 94.9545L249.129 106.25L245.71 106.345L245.395 95.0499L241.677 95.1536L241.6 92.4147L252.456 92.1119Z" fill="#28B3DD"/>
<path d="M278.734 330.249C278.734 334.969 258.643 338.796 233.859 338.796C209.075 338.796 188.984 334.969 188.984 330.249C188.984 325.528 209.075 321.701 233.859 321.701C258.643 321.701 278.734 325.528 278.734 330.249Z" fill="#28B3DD"/>
<g opacity="0.699997">
<path d="M278.734 330.249C278.734 334.969 258.643 338.796 233.859 338.796C209.075 338.796 188.984 334.969 188.984 330.249C188.984 325.528 209.075 321.701 233.859 321.701C258.643 321.701 278.734 325.528 278.734 330.249Z" fill="white"/>
</g>
<path d="M218.172 240.742L212.188 315.358L220.167 315.159L235.529 250.718L240.119 250.518L254.682 315.956L261.266 316.555L260.468 279.248L255.68 238.149L218.572 239.545L218.172 240.742Z" fill="#1A2E35"/>
<path d="M218.172 240.742L212.188 315.358L220.167 315.159L235.529 250.718L240.119 250.518L254.682 315.956L261.266 316.555L260.468 279.248L255.68 238.149L218.572 239.545L218.172 240.742Z" stroke="#1A2E35" stroke-width="1.33333" stroke-miterlimit="10" stroke-linecap="round" stroke-linejoin="round"/>
<path d="M225.795 281.329C225.681 282.531 223.441 283.301 220.793 283.049C218.145 282.797 216.09 281.619 216.204 280.419C216.318 279.217 218.557 278.448 221.206 278.699C223.855 278.951 225.909 280.128 225.795 281.329Z" fill="white"/>
<path d="M225.795 281.329C225.681 282.531 223.441 283.301 220.793 283.049C218.145 282.797 216.09 281.619 216.204 280.419C216.318 279.217 218.557 278.448 221.206 278.699C223.855 278.951 225.909 280.128 225.795 281.329Z" stroke="#1A2E35" stroke-width="1.33333" stroke-miterlimit="10" stroke-linecap="round" stroke-linejoin="round"/>
<path d="M259.986 280.93C260.126 282.129 258.098 283.351 255.457 283.661C252.814 283.971 250.558 283.251 250.417 282.052C250.277 280.854 252.305 279.632 254.947 279.321C257.59 279.012 259.846 279.731 259.986 280.93Z" fill="white"/>
<path d="M259.986 280.93C260.126 282.129 258.098 283.351 255.457 283.661C252.814 283.971 250.558 283.251 250.417 282.052C250.277 280.854 252.305 279.632 254.947 279.321C257.59 279.012 259.846 279.731 259.986 280.93Z" stroke="#1A2E35" stroke-width="1.33333" stroke-miterlimit="10" stroke-linecap="round" stroke-linejoin="round"/>
<path d="M212.58 317.58C212.58 317.58 211.618 320.947 209.983 322.871C208.349 324.795 204.693 328.449 205.27 330.854C205.847 333.259 208.252 333.066 210.945 332.296C213.638 331.527 216.428 329.122 217.197 328.738C217.967 328.353 219.217 327.776 219.217 326.237V317.773L212.58 317.58Z" fill="white"/>
<path d="M212.58 317.58C212.58 317.58 211.618 320.947 209.983 322.871C208.349 324.795 204.693 328.449 205.27 330.854C205.847 333.259 208.252 333.066 210.945 332.296C213.638 331.527 216.428 329.122 217.197 328.738C217.967 328.353 219.217 327.776 219.217 326.237V317.773L212.58 317.58Z" stroke="#1A2E35" stroke-width="1.33333" stroke-miterlimit="10" stroke-linecap="round" stroke-linejoin="round"/>
<path d="M216.716 327.68C215.369 328.738 213.06 330.373 209.79 331.239C207.817 331.761 206.198 331.093 205.221 330.481C205.229 330.608 205.241 330.734 205.27 330.854C205.846 333.259 208.251 333.066 210.944 332.296C213.638 331.527 216.427 329.122 217.197 328.738C217.939 328.367 219.116 327.809 219.2 326.391C218.449 326.666 217.454 327.101 216.716 327.68Z" fill="white"/>
<path d="M216.716 327.68C215.369 328.738 213.06 330.373 209.79 331.239C207.817 331.761 206.198 331.093 205.221 330.481C205.229 330.608 205.241 330.734 205.27 330.854C205.846 333.259 208.251 333.066 210.944 332.296C213.638 331.527 216.427 329.122 217.197 328.738C217.939 328.367 219.116 327.809 219.2 326.391C218.449 326.666 217.454 327.101 216.716 327.68Z" stroke="#1A2E35" stroke-width="1.33333" stroke-miterlimit="10" stroke-linecap="round" stroke-linejoin="round"/>
<path d="M260.709 317.58C260.709 317.58 261.671 320.947 263.306 322.871C264.941 324.795 268.596 328.449 268.019 330.854C267.442 333.259 265.037 333.067 262.344 332.297C259.651 331.527 256.862 329.123 256.092 328.738C255.322 328.353 254.072 327.776 254.072 326.237V317.773L260.709 317.58Z" fill="white"/>
<path d="M260.709 317.58C260.709 317.58 261.671 320.947 263.306 322.871C264.941 324.795 268.596 328.449 268.019 330.854C267.442 333.259 265.037 333.067 262.344 332.297C259.651 331.527 256.862 329.123 256.092 328.738C255.322 328.353 254.072 327.776 254.072 326.237V317.773L260.709 317.58Z" stroke="#1A2E35" stroke-width="1.33333" stroke-miterlimit="10" stroke-linecap="round" stroke-linejoin="round"/>
<path d="M256.572 327.68C257.919 328.738 260.228 330.373 263.498 331.239C265.471 331.761 267.09 331.093 268.067 330.481C268.059 330.608 268.047 330.734 268.018 330.854C267.442 333.259 265.037 333.066 262.344 332.296C259.65 331.527 256.861 329.122 256.092 328.738C255.349 328.367 254.173 327.809 254.088 326.391C254.839 326.666 255.835 327.101 256.572 327.68Z" fill="white"/>
<path d="M256.572 327.68C257.919 328.738 260.228 330.373 263.498 331.239C265.471 331.761 267.09 331.093 268.067 330.481C268.059 330.608 268.047 330.734 268.018 330.854C267.442 333.259 265.037 333.066 262.344 332.296C259.65 331.527 256.861 329.122 256.092 328.738C255.349 328.367 254.173 327.809 254.088 326.391C254.839 326.666 255.835 327.101 256.572 327.68Z" stroke="#1A2E35" stroke-width="1.33333" stroke-miterlimit="10" stroke-linecap="round" stroke-linejoin="round"/>
<path d="M210.99 312.764L211.589 318.351L220.767 318.749L221.963 312.166L210.99 312.764Z" fill="white"/>
<path d="M210.99 312.764L211.589 318.351L220.767 318.749L221.963 312.166L210.99 312.764Z" stroke="#1A2E35" stroke-width="1.33333" stroke-miterlimit="10" stroke-linecap="round" stroke-linejoin="round"/>
<path d="M251.889 314.161L253.684 319.547L261.067 319.348L262.662 313.962L251.889 314.161Z" fill="white"/>
<path d="M251.889 314.161L253.684 319.547L261.067 319.348L262.662 313.962L251.889 314.161Z" stroke="#1A2E35" stroke-width="1.33333" stroke-miterlimit="10" stroke-linecap="round" stroke-linejoin="round"/>
<path d="M224.458 170.669L223.048 164.767C223.048 164.767 221.287 164.151 221.023 163.094C220.759 162.037 221.992 160.54 221.992 160.54C221.992 160.54 218.38 158.954 218.645 157.809C218.909 156.664 224.634 153.229 224.634 153.229C224.634 153.229 217.852 152.084 220.054 150.234C222.255 148.385 229.831 147.24 232.473 148.209C235.116 149.177 237.758 151.467 237.758 151.467C237.758 151.467 235.644 148.913 237.67 148.825C239.696 148.737 243.131 153.406 243.219 156.4C243.307 159.395 241.633 163.359 241.633 163.359L241.545 167.322L240.4 170.669L238.11 159.836L230.711 159.571L225.338 163.975L226.219 171.638L224.634 171.286L224.458 170.669Z" fill="#1A2E35"/>
<path d="M224.458 170.669L223.048 164.767C223.048 164.767 221.287 164.151 221.023 163.094C220.759 162.037 221.992 160.54 221.992 160.54C221.992 160.54 218.38 158.954 218.645 157.809C218.909 156.664 224.634 153.229 224.634 153.229C224.634 153.229 217.852 152.084 220.054 150.234C222.255 148.385 229.831 147.24 232.473 148.209C235.116 149.177 237.758 151.467 237.758 151.467C237.758 151.467 235.644 148.913 237.67 148.825C239.696 148.737 243.131 153.406 243.219 156.4C243.307 159.395 241.633 163.359 241.633 163.359L241.545 167.322L240.4 170.669L238.11 159.836L230.711 159.571L225.338 163.975L226.219 171.638L224.634 171.286L224.458 170.669Z" stroke="#1A2E35" stroke-width="1.33333" stroke-miterlimit="10"/>
<path d="M225.25 171.021C225.25 171.021 223.223 168.995 222.519 170.757C221.814 172.519 223.752 174.72 224.457 175.073C225.162 175.425 226.395 175.161 226.395 175.161L225.25 171.021Z" stroke="#1A2E35" stroke-width="1.33333" stroke-miterlimit="10"/>
<path d="M240.84 168.643C240.84 168.643 241.544 166.265 243.042 167.586C244.539 168.907 243.307 170.757 242.954 171.726C242.601 172.695 241.633 173.663 241.633 173.663L240.84 168.643Z" stroke="#1A2E35" stroke-width="1.33333" stroke-miterlimit="10"/>
<path d="M229.843 184.232L220.417 185.729L216.676 240.792C216.676 240.792 224.158 245.431 233.584 246.329C243.01 247.226 256.777 242.588 256.777 242.588L248.996 186.028C248.996 186.028 235.379 183.933 229.843 184.232Z" fill="white"/>
<path d="M229.843 184.232L220.417 185.729L216.676 240.792C216.676 240.792 224.158 245.431 233.584 246.329C243.01 247.226 256.777 242.588 256.777 242.588L248.996 186.028C248.996 186.028 235.379 183.933 229.843 184.232Z" stroke="#1A2E35" stroke-width="1.33333" stroke-miterlimit="10" stroke-linecap="round" stroke-linejoin="round"/>
<path d="M237.979 241.153C237.507 241.566 237.023 241.933 236.531 242.244L237.979 241.153Z" fill="white"/>
<path d="M237.979 241.153C237.507 241.566 237.023 241.933 236.531 242.244" stroke="#1A2E35" stroke-width="1.33333" stroke-miterlimit="10" stroke-linecap="round" stroke-linejoin="round"/>
<path d="M247.759 224.552C247.759 224.552 244.706 233.278 240.17 238.851L247.759 224.552Z" fill="white"/>
<path d="M247.759 224.552C247.759 224.552 244.706 233.278 240.17 238.851" stroke="#1A2E35" stroke-width="1.33333" stroke-miterlimit="10" stroke-linecap="round" stroke-linejoin="round"/>
<path d="M222.582 224.041C222.582 224.041 227.855 233.398 232.449 237.48L222.582 224.041Z" fill="white"/>
<path d="M222.582 224.041C222.582 224.041 227.855 233.398 232.449 237.48" stroke="#1A2E35" stroke-width="1.33333" stroke-miterlimit="10" stroke-linecap="round" stroke-linejoin="round"/>
<path d="M182.335 154.058C182.335 154.058 181.963 150.803 182.242 150.244C182.521 149.686 184.661 146.895 185.033 145.592C185.406 144.29 186.522 140.754 185.591 141.22C184.661 141.684 184.01 143.266 184.01 143.638C184.01 144.011 182.242 145.313 182.242 145.313C182.242 145.313 179.451 138.614 179.172 138.522C178.892 138.429 177.962 138.243 177.962 138.987C177.962 139.731 179.264 144.011 179.264 144.011L178.521 144.476L176.381 138.243C176.381 138.243 175.171 138.149 175.171 138.708C175.171 139.265 176.474 145.22 176.474 145.22L175.543 145.499L173.775 140.01C173.775 140.01 172.659 140.196 172.659 140.94C172.659 141.684 173.962 146.43 173.962 146.43C173.962 146.43 172.566 144.662 172.38 144.29C172.194 143.917 171.636 143.452 171.636 143.452C171.636 143.452 170.892 143.638 170.985 144.383C171.077 145.127 173.59 149.035 174.148 150.058C174.706 151.081 175.637 152.384 176.008 152.849C176.381 153.314 176.939 155.454 176.939 155.454L182.335 154.058Z" fill="white"/>
<path d="M182.335 154.058C182.335 154.058 181.963 150.803 182.242 150.244C182.521 149.686 184.661 146.895 185.033 145.592C185.406 144.29 186.522 140.754 185.591 141.22C184.661 141.684 184.01 143.266 184.01 143.638C184.01 144.011 182.242 145.313 182.242 145.313C182.242 145.313 179.451 138.614 179.172 138.522C178.892 138.429 177.962 138.243 177.962 138.987C177.962 139.731 179.264 144.011 179.264 144.011L178.521 144.476L176.381 138.243C176.381 138.243 175.171 138.149 175.171 138.708C175.171 139.265 176.474 145.22 176.474 145.22L175.543 145.499L173.775 140.01C173.775 140.01 172.659 140.196 172.659 140.94C172.659 141.684 173.962 146.43 173.962 146.43C173.962 146.43 172.566 144.662 172.38 144.29C172.194 143.917 171.636 143.452 171.636 143.452C171.636 143.452 170.892 143.638 170.985 144.383C171.077 145.127 173.59 149.035 174.148 150.058C174.706 151.081 175.637 152.384 176.008 152.849C176.381 153.314 176.939 155.454 176.939 155.454L182.335 154.058Z" stroke="#1A2E35" stroke-width="1.33333" stroke-miterlimit="10" stroke-linecap="round" stroke-linejoin="round"/>
<path d="M182.243 145.313C182.243 145.313 179.172 146.708 179.172 147.639V149.872" fill="white"/>
<path d="M182.243 145.313C182.243 145.313 179.172 146.708 179.172 147.639V149.872" stroke="#1A2E35" stroke-width="1.33333" stroke-miterlimit="10" stroke-linecap="round" stroke-linejoin="round"/>
<path d="M220.565 184.232C220.565 184.232 209.642 184.981 208.894 185.28L208.145 185.579L190.639 177.799L182.26 153.259L175.377 154.905C175.377 154.905 184.953 188.272 184.953 188.871C184.953 189.47 211.587 205.629 211.587 205.629L208.745 236.752C208.745 236.752 217.722 240.044 221.014 240.942C224.306 241.84 229.244 240.942 229.244 240.942L227.448 186.925L226.999 184.082L220.565 184.232Z" fill="#797979"/>
<path d="M220.565 184.232C220.565 184.232 209.642 184.981 208.894 185.28L208.145 185.579L190.639 177.799L182.26 153.259L175.377 154.905C175.377 154.905 184.953 188.272 184.953 188.871C184.953 189.47 211.587 205.629 211.587 205.629L208.745 236.752C208.745 236.752 217.722 240.044 221.014 240.942C224.306 241.84 229.244 240.942 229.244 240.942L227.448 186.925L226.999 184.082L220.565 184.232Z" stroke="#1A2E35" stroke-width="1.33333" stroke-miterlimit="10" stroke-linecap="round" stroke-linejoin="round"/>
<path d="M221.763 187.075C221.763 187.075 220.566 194.407 221.613 195.006C222.661 195.604 225.654 194.257 226.252 194.557C226.851 194.856 227.001 199.345 227.001 199.345" stroke="#1A2E35" stroke-width="1.33333" stroke-miterlimit="10" stroke-linecap="round" stroke-linejoin="round"/>
<path d="M209.759 196.867L209.494 195.454L209.759 196.867Z" fill="white"/>
<path d="M209.759 196.867L209.494 195.454" stroke="#1A2E35" stroke-width="1.33333" stroke-miterlimit="10" stroke-linecap="round" stroke-linejoin="round"/>
<path d="M211.29 205.031L210.078 198.566L211.29 205.031Z" fill="white"/>
<path d="M211.29 205.031L210.078 198.566" stroke="#1A2E35" stroke-width="1.33333" stroke-miterlimit="10" stroke-linecap="round" stroke-linejoin="round"/>
<path d="M211.588 205.629L206.949 196.652L211.588 205.629Z" fill="white"/>
<path d="M211.588 205.629L206.949 196.652" stroke="#1A2E35" stroke-width="1.33333" stroke-miterlimit="10" stroke-linecap="round" stroke-linejoin="round"/>
<path d="M242.412 187.225L247.05 241.69C247.05 241.69 250.193 242.139 254.532 240.493C258.871 238.848 265.903 233.311 265.903 233.311L257.824 203.983L266.053 215.654L271.889 209.67C271.889 209.67 260.966 189.768 257.973 186.776C254.981 183.783 241.963 183.484 241.963 183.484L242.412 187.225Z" fill="#797979"/>
<path d="M242.412 187.225L247.05 241.69C247.05 241.69 250.193 242.139 254.532 240.493C258.871 238.848 265.903 233.311 265.903 233.311L257.824 203.983L266.053 215.654L271.889 209.67C271.889 209.67 260.966 189.768 257.973 186.776C254.981 183.783 241.963 183.484 241.963 183.484L242.412 187.225Z" stroke="#1A2E35" stroke-width="1.33333" stroke-miterlimit="10" stroke-linecap="round" stroke-linejoin="round"/>
<path d="M243.76 197.848L244.508 194.407C244.508 194.407 249.595 194.706 249.894 193.509C250.194 192.312 246.303 184.382 246.303 184.382" stroke="#1A2E35" stroke-width="1.33333" stroke-miterlimit="10" stroke-linecap="round" stroke-linejoin="round"/>
<path d="M228.686 178.508C228.686 178.508 226.043 178.684 225.251 179.653C224.458 180.622 217.676 183.969 217.676 184.938C217.676 185.907 223.929 190.135 226.043 191.808C228.157 193.481 234.939 195.067 235.557 194.979C236.173 194.891 244.804 189.166 245.773 188.197C246.743 187.228 249.825 181.591 249.825 181.591C249.825 181.591 239.783 177.979 238.551 177.803C237.317 177.628 228.686 178.508 228.686 178.508Z" fill="white"/>
<path d="M228.686 178.508C228.686 178.508 226.043 178.684 225.251 179.653C224.458 180.622 217.676 183.969 217.676 184.938C217.676 185.907 223.929 190.135 226.043 191.808C228.157 193.481 234.939 195.067 235.557 194.979C236.173 194.891 244.804 189.166 245.773 188.197C246.743 187.228 249.825 181.591 249.825 181.591C249.825 181.591 239.783 177.979 238.551 177.803C237.317 177.628 228.686 178.508 228.686 178.508Z" stroke="#1A2E35" stroke-width="1.33333" stroke-miterlimit="10" stroke-linecap="round" stroke-linejoin="round"/>
<path d="M227.805 177.539C227.805 177.539 228.773 186.347 229.037 187.933C229.302 189.518 234.675 194.45 235.468 194.274C236.26 194.098 239.431 188.02 239.783 186.259C240.136 184.498 240.047 178.508 240.047 178.508C240.047 178.508 237.141 180.622 235.292 180.622C233.442 180.622 227.805 177.539 227.805 177.539Z" fill="white"/>
<path d="M227.805 177.539C227.805 177.539 228.773 186.347 229.037 187.933C229.302 189.518 234.675 194.45 235.468 194.274C236.26 194.098 239.431 188.02 239.783 186.259C240.136 184.498 240.047 178.508 240.047 178.508C240.047 178.508 237.141 180.622 235.292 180.622C233.442 180.622 227.805 177.539 227.805 177.539Z" stroke="#1A2E35" stroke-width="1.33333" stroke-miterlimit="10" stroke-linecap="round" stroke-linejoin="round"/>
<path d="M235.538 183.344L228.727 185.387L228.045 178.848L235.538 183.344Z" fill="#1A2E35"/>
<path d="M235.538 183.344L228.727 185.387L228.045 178.848L235.538 183.344Z" stroke="#1A2E35" stroke-width="1.33333" stroke-miterlimit="10"/>
<path d="M223.873 163.695C223.873 163.695 226.293 176.064 226.966 177.543C227.638 179.022 231.443 183.473 233.057 184.279C234.67 185.086 237.09 184.683 237.494 184.145C237.897 183.607 241.722 176.942 241.722 175.865C241.722 174.79 239.604 159.392 239.201 158.99C238.797 158.586 233.688 157.107 230.73 157.913C227.772 158.72 224.007 162.082 223.873 163.695Z" fill="white"/>
<path d="M223.873 163.695C223.873 163.695 226.293 176.064 226.966 177.543C227.638 179.022 231.443 183.473 233.057 184.279C234.67 185.086 237.09 184.683 237.494 184.145C237.897 183.607 241.722 176.942 241.722 175.865C241.722 174.79 239.604 159.392 239.201 158.99C238.797 158.586 233.688 157.107 230.73 157.913C227.772 158.72 224.007 162.082 223.873 163.695Z" stroke="#1A2E35" stroke-width="1.33333" stroke-miterlimit="10"/>
<path d="M230.182 168.599C230.182 169.013 229.926 169.348 229.61 169.348C229.294 169.348 229.037 169.013 229.037 168.599C229.037 168.185 229.294 167.85 229.61 167.85C229.926 167.85 230.182 168.185 230.182 168.599Z" fill="#1A2E35"/>
<path d="M237.274 167.85C237.274 168.264 237.017 168.599 236.701 168.599C236.385 168.599 236.129 168.264 236.129 167.85C236.129 167.436 236.385 167.102 236.701 167.102C237.017 167.102 237.274 167.436 237.274 167.85Z" fill="#1A2E35"/>
<path d="M231.768 172.606C231.768 172.606 232.208 173.311 233.441 173.311C234.674 173.311 235.202 172.166 235.202 172.166" stroke="#1A2E35" stroke-width="1.33333" stroke-miterlimit="10" stroke-linecap="round" stroke-linejoin="round"/>
<path d="M227.1 166.089C227.1 166.089 227.716 164.591 230.006 164.591" stroke="#1A2E35" stroke-width="1.33333" stroke-miterlimit="10" stroke-linecap="round" stroke-linejoin="round"/>
<path d="M234.41 164.151C234.41 164.151 236.261 163.358 237.581 164.68" stroke="#1A2E35" stroke-width="1.33333" stroke-miterlimit="10" stroke-linecap="round" stroke-linejoin="round"/>
<path d="M229.213 174.897C229.213 174.897 231.855 176.483 234.321 176.129C236.787 175.777 238.373 174.016 238.373 174.016C238.373 174.016 237.316 177.451 236.083 178.948C234.85 180.446 233.793 180.534 232.383 179.389C230.974 178.243 229.213 174.897 229.213 174.897Z" stroke="#1A2E35" stroke-width="1.33333" stroke-miterlimit="10" stroke-linecap="round" stroke-linejoin="round"/>
<path d="M246.584 187.435L245.219 188.072C245.219 188.072 246.128 191.53 246.22 191.895C246.311 192.258 248.131 192.258 248.131 192.258L248.223 188.8L246.584 187.435Z" fill="white"/>
<path d="M246.584 187.435L245.219 188.072C245.219 188.072 246.128 191.53 246.22 191.895C246.311 192.258 248.131 192.258 248.131 192.258L248.223 188.8L246.584 187.435Z" stroke="#1A2E35" stroke-width="1.33333" stroke-miterlimit="10" stroke-linecap="round" stroke-linejoin="round"/>
<path d="M253.635 187.823L246.603 185.429L246.453 188.422L247.95 189.17L248.547 195.305H250.493C250.493 195.305 251.092 196.95 251.989 197.4C252.887 197.848 254.982 197.25 254.982 196.352C254.982 195.454 253.635 187.823 253.635 187.823Z" fill="white"/>
<path d="M253.635 187.823L246.603 185.429L246.453 188.422L247.95 189.17L248.547 195.305H250.493C250.493 195.305 251.092 196.95 251.989 197.4C252.887 197.848 254.982 197.25 254.982 196.352C254.982 195.454 253.635 187.823 253.635 187.823Z" stroke="#1A2E35" stroke-width="1.33333" stroke-miterlimit="10" stroke-linecap="round" stroke-linejoin="round"/>
<path d="M254.383 194.856L251.24 199.195C251.24 199.195 264.557 218.199 265.006 218.348C265.456 218.497 264.408 218.049 265.904 218.497C267.4 218.946 271.141 217.45 272.338 215.056C273.535 212.662 272.937 209.37 272.338 208.472C271.739 207.574 254.383 194.856 254.383 194.856Z" fill="#797979"/>
<path d="M254.383 194.856L251.24 199.195C251.24 199.195 264.557 218.199 265.006 218.348C265.456 218.497 264.408 218.049 265.904 218.497C267.4 218.946 271.141 217.45 272.338 215.056C273.535 212.662 272.937 209.37 272.338 208.472C271.739 207.574 254.383 194.856 254.383 194.856Z" stroke="#1A2E35" stroke-width="1.33333" stroke-miterlimit="10" stroke-linecap="round" stroke-linejoin="round"/>
<path d="M240.218 174.83C238.374 175.337 237.125 176.617 237.125 178.821C237.125 181.024 238.251 182.188 240.218 182.81L261 191.394V167.406L240.218 174.83Z" fill="#28B3DD"/>
<path d="M240.218 174.83C238.374 175.337 237.125 176.617 237.125 178.821C237.125 181.024 238.251 182.188 240.218 182.81L261 191.394V167.406L240.218 174.83Z" stroke="#1A2E35" stroke-width="1.33333" stroke-miterlimit="10" stroke-linecap="round" stroke-linejoin="round"/>
<path d="M274.807 179.419C274.807 186.581 270.308 192.386 264.758 192.386C259.207 192.386 254.707 186.581 254.707 179.419C254.707 172.257 259.207 166.451 264.758 166.451C270.308 166.451 274.807 172.257 274.807 179.419Z" fill="#28B3DD"/>
<g opacity="0.199997">
<path d="M274.807 179.419C274.807 186.581 270.308 192.386 264.758 192.386C259.207 192.386 254.707 186.581 254.707 179.419C254.707 172.257 259.207 166.451 264.758 166.451C270.308 166.451 274.807 172.257 274.807 179.419Z" fill="#1A2E35"/>
</g>
<path d="M274.807 179.419C274.807 186.581 270.308 192.386 264.758 192.386C259.207 192.386 254.707 186.581 254.707 179.419C254.707 172.257 259.207 166.451 264.758 166.451C270.308 166.451 274.807 172.257 274.807 179.419Z" stroke="#1A2E35" stroke-width="1.33333" stroke-miterlimit="10" stroke-linecap="round" stroke-linejoin="round"/>
<path d="M121.315 330.249C121.315 334.182 105.689 337.372 86.4123 337.372C67.1361 337.372 51.5098 334.182 51.5098 330.249C51.5098 326.316 67.1361 323.126 86.4123 323.126C105.689 323.126 121.315 326.316 121.315 330.249Z" fill="#28B3DD"/>
<g opacity="0.699997">
<path d="M121.315 330.249C121.315 334.182 105.689 337.372 86.4123 337.372C67.1361 337.372 51.5098 334.182 51.5098 330.249C51.5098 326.316 67.1361 323.126 86.4123 323.126C105.689 323.126 121.315 326.316 121.315 330.249Z" fill="white"/>
</g>
<path d="M94.043 190.614C94.043 190.614 100.644 194.409 103.779 195.234C106.913 196.06 120.94 199.856 121.6 202.495C122.26 205.136 121.105 208.271 117.639 208.271C114.175 208.271 98.4984 204.805 98.4984 204.805C98.4984 204.805 94.2075 193.915 94.043 190.614" fill="white"/>
<path d="M94.043 190.614C94.043 190.614 100.644 194.409 103.779 195.234C106.913 196.06 120.94 199.856 121.6 202.495C122.26 205.136 121.105 208.271 117.639 208.271C114.175 208.271 98.4984 204.805 98.4984 204.805C98.4984 204.805 94.2075 193.915 94.043 190.614V190.614Z" stroke="#1A2E35" stroke-width="1.33333" stroke-miterlimit="10" stroke-linecap="round" stroke-linejoin="round"/>
<path d="M102.859 198.911L103.344 198.185" stroke="#1A2E35" stroke-width="1.33333" stroke-miterlimit="10" stroke-linecap="round" stroke-linejoin="round"/>
<path d="M98.498 204.805L102.14 199.828" stroke="#1A2E35" stroke-width="1.33333" stroke-miterlimit="10" stroke-linecap="round" stroke-linejoin="round"/>
<path d="M99.4707 203.993L103.343 202.057" stroke="#1A2E35" stroke-width="1.33333" stroke-miterlimit="10" stroke-linecap="round" stroke-linejoin="round"/>
<path d="M103.944 186.984C103.944 186.984 115.66 207.28 117.64 208.271C119.62 209.26 122.921 208.271 122.921 205.301C122.921 202.33 118.796 197.38 117.31 195.729C115.825 194.08 105.429 183.849 105.429 183.849C105.429 183.849 103.879 177.221 103.473 176.309C103.067 175.396 98.7067 174.281 97.592 173.875C96.4765 173.469 96.2735 174.585 96.7806 174.99C97.2878 175.396 97.9972 176.917 97.9972 176.917L98.2003 177.626C98.2003 177.626 97.1859 177.526 97.1859 178.134C97.1859 178.743 97.8961 179.655 98.3014 181.379C98.7067 183.103 100.228 184.015 101.141 184.623C102.053 185.232 103.169 185.536 103.169 185.536L103.944 186.984Z" fill="white"/>
<path d="M103.944 186.984C103.944 186.984 115.66 207.28 117.64 208.271C119.62 209.26 122.921 208.271 122.921 205.301C122.921 202.33 118.796 197.38 117.31 195.729C115.825 194.08 105.429 183.849 105.429 183.849C105.429 183.849 103.879 177.221 103.473 176.309C103.067 175.396 98.7067 174.281 97.592 173.875C96.4765 173.469 96.2735 174.585 96.7806 174.99C97.2878 175.396 97.9972 176.917 97.9972 176.917L98.2003 177.626C98.2003 177.626 97.1859 177.526 97.1859 178.134C97.1859 178.743 97.8961 179.655 98.3014 181.379C98.7067 183.103 100.228 184.015 101.141 184.623C102.053 185.232 103.169 185.536 103.169 185.536L103.944 186.984Z" stroke="#1A2E35" stroke-width="1.33333" stroke-miterlimit="10" stroke-linecap="round" stroke-linejoin="round"/>
<path d="M103.066 184.217C103.066 184.217 102.053 183.305 102.053 181.886C102.053 180.466 102.154 178.742 102.154 178.742" stroke="#1A2E35" stroke-width="1.33333" stroke-miterlimit="10" stroke-linecap="round" stroke-linejoin="round"/>
<path d="M98.1992 177.627L99.72 179.452" stroke="#1A2E35" stroke-width="1.33333" stroke-miterlimit="10" stroke-linecap="round" stroke-linejoin="round"/>
<path d="M112.522 190.872C110.657 192.38 108.76 193.064 107.691 193.353C111.302 199.396 116.394 207.648 117.639 208.271C119.619 209.26 122.919 208.271 122.919 205.301C122.919 202.33 118.794 197.38 117.309 195.729C116.718 195.073 114.718 193.059 112.522 190.872Z" fill="white"/>
<path d="M112.522 190.872C110.657 192.38 108.76 193.064 107.691 193.353C111.302 199.396 116.394 207.648 117.639 208.271C119.619 209.26 122.919 208.271 122.919 205.301C122.919 202.33 118.794 197.38 117.309 195.729C116.718 195.073 114.718 193.059 112.522 190.872Z" stroke="#1A2E35" stroke-width="1.33333" stroke-miterlimit="10" stroke-linecap="round" stroke-linejoin="round"/>
<path d="M90.0253 156.835C90.0253 156.835 92.5938 160.104 93.5284 162.323C94.4622 164.542 95.5036 165.676 96.9146 165.592C97.8021 165.54 99.2502 165.243 99.1334 166.06C99.0166 166.877 97.7323 168.278 97.7323 168.278C97.7323 168.278 98.4325 174.935 98.1989 175.752C97.9653 176.57 95.6303 177.503 93.762 177.97C91.8936 178.438 90.1421 178.788 90.1421 178.788C90.1421 178.788 90.1421 181.473 90.0253 183.693C89.9085 185.911 89.9085 187.078 89.9085 187.078C89.9085 187.078 86.1717 186.961 85.2372 186.844C84.3034 186.728 82.7848 186.144 82.7848 186.144L80.4499 185.444C80.4499 185.444 83.9529 182.524 83.0191 178.788C82.0846 175.052 78.6983 172.95 79.0488 167.694C79.3992 162.44 81.0332 156.134 90.0253 156.835Z" fill="white"/>
<path d="M90.0253 156.835C90.0253 156.835 92.5938 160.104 93.5284 162.323C94.4622 164.542 95.5036 165.676 96.9146 165.592C97.8021 165.54 99.2502 165.243 99.1334 166.06C99.0166 166.877 97.7323 168.278 97.7323 168.278C97.7323 168.278 98.4325 174.935 98.1989 175.752C97.9653 176.57 95.6303 177.503 93.762 177.97C91.8936 178.438 90.1421 178.788 90.1421 178.788C90.1421 178.788 90.1421 181.473 90.0253 183.693C89.9085 185.911 89.9085 187.078 89.9085 187.078C89.9085 187.078 86.1717 186.961 85.2372 186.844C84.3034 186.728 82.7848 186.144 82.7848 186.144L80.4499 185.444C80.4499 185.444 83.9529 182.524 83.0191 178.788C82.0846 175.052 78.6983 172.95 79.0488 167.694C79.3992 162.44 81.0332 156.134 90.0253 156.835Z" stroke="#1A2E35" stroke-width="1.33333" stroke-miterlimit="10" stroke-linecap="round" stroke-linejoin="round"/>
<path d="M95.2798 170.03L92.5938 169.913C92.5938 169.913 92.7113 172.365 93.8787 172.598L95.0462 172.833L95.2798 170.03Z" fill="#1A2E35"/>
<path d="M95.2798 170.03L92.5938 169.913C92.5938 169.913 92.7113 172.365 93.8787 172.598L95.0462 172.833L95.2798 170.03Z" stroke="#1A2E35" stroke-width="1.33333" stroke-miterlimit="10" stroke-linecap="round" stroke-linejoin="round"/>
<path d="M92.5935 165.303C92.8 165.982 92.6911 166.616 92.352 166.719C92.0122 166.822 91.5699 166.355 91.3641 165.676C91.1582 164.997 91.2665 164.364 91.6062 164.26C91.9453 164.158 92.3876 164.624 92.5935 165.303Z" fill="#1A2E35"/>
<path d="M89.8401 163.539C89.8401 163.539 89.7866 162.15 91.3893 162.15" stroke="#1A2E35" stroke-width="1.33333" stroke-miterlimit="10" stroke-linecap="round" stroke-linejoin="round"/>
<path d="M89.7733 158.498C89.7733 158.498 87.6899 163.024 86.5829 167.507C85.7139 171.025 87.8964 175.577 88.2718 177.454C88.6472 179.331 90.1487 181.582 85.8322 184.211C81.5157 186.838 75.6976 186.274 71.7565 183.835C67.8146 181.395 65.375 176.703 65.375 176.703C65.375 176.703 71.5684 174.638 71.0057 172.011C70.4423 169.384 66.8765 165.442 68.9408 160.75C71.0057 156.059 78.1372 154.37 78.1372 154.37C78.1372 154.37 77.0111 149.302 82.6418 149.114C88.2718 148.926 92.5883 152.305 89.7733 158.498Z" fill="#1A2E35"/>
<path d="M89.7733 158.498C89.7733 158.498 87.6899 163.024 86.5829 167.507C85.7139 171.025 87.8964 175.577 88.2718 177.454C88.6472 179.331 90.1487 181.582 85.8322 184.211C81.5157 186.838 75.6976 186.274 71.7565 183.835C67.8146 181.395 65.375 176.703 65.375 176.703C65.375 176.703 71.5684 174.638 71.0057 172.011C70.4423 169.384 66.8765 165.442 68.9408 160.75C71.0057 156.059 78.1372 154.37 78.1372 154.37C78.1372 154.37 77.0111 149.302 82.6418 149.114C88.2718 148.926 92.5883 152.305 89.7733 158.498Z" stroke="#1A2E35" stroke-width="1.33333" stroke-miterlimit="10" stroke-linecap="round" stroke-linejoin="round"/>
<path d="M81.5702 217.679L83.3952 224.827C83.3952 224.827 78.0722 236.234 81.8744 247.337C85.6766 258.44 88.414 270.151 88.414 270.151C88.414 270.151 83.8517 280.95 83.3952 287.794C82.9386 294.638 82.6351 304.677 82.4827 306.958C82.3303 309.24 81.4185 314.563 81.4185 314.563C81.4185 314.563 75.9431 318.213 76.2465 319.734C76.5514 321.255 81.722 325.666 82.4827 327.643C83.2434 329.62 86.1332 332.205 87.654 332.51C89.1747 332.815 90.2396 333.118 89.9355 332.205C89.6313 331.293 89.023 330.533 88.7189 329.164C88.414 327.796 85.8291 315.019 85.8291 313.347C85.8291 311.673 93.2811 288.859 94.6502 285.056C96.0192 281.254 99.0614 273.041 99.3649 271.368C99.6697 269.695 102.255 254.638 102.255 243.839C102.255 233.04 99.3649 224.371 99.3649 224.371L99.8214 214.485L81.5702 217.679Z" fill="white"/>
<path d="M81.5702 217.679L83.3952 224.827C83.3952 224.827 78.0722 236.234 81.8744 247.337C85.6766 258.44 88.414 270.151 88.414 270.151C88.414 270.151 83.8517 280.95 83.3952 287.794C82.9386 294.638 82.6351 304.677 82.4827 306.958C82.3303 309.24 81.4185 314.563 81.4185 314.563C81.4185 314.563 75.9431 318.213 76.2465 319.734C76.5514 321.255 81.722 325.666 82.4827 327.643C83.2434 329.62 86.1332 332.205 87.654 332.51C89.1747 332.815 90.2396 333.118 89.9355 332.205C89.6313 331.293 89.023 330.533 88.7189 329.164C88.414 327.796 85.8291 315.019 85.8291 313.347C85.8291 311.673 93.2811 288.859 94.6502 285.056C96.0192 281.254 99.0614 273.041 99.3649 271.368C99.6697 269.695 102.255 254.638 102.255 243.839C102.255 233.04 99.3649 224.371 99.3649 224.371L99.8214 214.485L81.5702 217.679Z" stroke="#1A2E35" stroke-width="1.33333" stroke-miterlimit="10" stroke-linecap="round" stroke-linejoin="round"/>
<path d="M89.9355 332.206C89.6314 331.293 89.0231 330.532 88.7189 329.163C88.5444 328.382 87.627 323.879 86.8712 319.847C84.2656 320.23 83.1523 321.633 83.1523 321.633C83.1523 321.633 81.6672 320.973 81.0069 318.663C80.3466 316.353 81.4179 314.563 81.4179 314.563C81.4179 314.563 75.9424 318.213 76.2466 319.734C76.5507 321.255 81.722 325.665 82.4828 327.643C83.2428 329.62 86.1333 332.206 87.654 332.51C89.1748 332.814 90.2397 333.118 89.9355 332.206Z" fill="white"/>
<path d="M89.9355 332.206C89.6314 331.293 89.0231 330.532 88.7189 329.163C88.5444 328.382 87.627 323.879 86.8712 319.847C84.2656 320.23 83.1523 321.633 83.1523 321.633C83.1523 321.633 81.6672 320.973 81.0069 318.663C80.3466 316.353 81.4179 314.563 81.4179 314.563C81.4179 314.563 75.9424 318.213 76.2466 319.734C76.5507 321.255 81.722 325.665 82.4828 327.643C83.2428 329.62 86.1333 332.206 87.654 332.51C89.1748 332.814 90.2397 333.118 89.9355 332.206Z" stroke="#1A2E35" stroke-width="1.33333" stroke-miterlimit="10" stroke-linecap="round" stroke-linejoin="round"/>
<path d="M99.3648 271.368C99.669 269.695 102.255 254.638 102.255 243.839C102.255 233.04 99.3648 224.371 99.3648 224.371L99.3919 223.792C94.1636 225.272 87.1518 225.202 83.3111 225.016C82.6558 226.517 78.3521 237.054 81.8737 247.337C85.6766 258.44 88.414 270.151 88.414 270.151C88.414 270.151 83.851 280.95 83.3951 287.794C82.9962 293.779 82.7135 302.206 82.5468 305.753C84.1815 306.727 85.9024 307.117 87.4816 307.197C89.7595 299.675 93.6928 287.717 94.6501 285.056C96.0192 281.254 99.0607 273.041 99.3648 271.368Z" fill="#1A2E35"/>
<path d="M99.3648 271.368C99.669 269.695 102.255 254.638 102.255 243.839C102.255 233.04 99.3648 224.371 99.3648 224.371L99.3919 223.792C94.1636 225.272 87.1518 225.202 83.3111 225.016C82.6558 226.517 78.3521 237.054 81.8737 247.337C85.6766 258.44 88.414 270.151 88.414 270.151C88.414 270.151 83.851 280.95 83.3951 287.794C82.9962 293.779 82.7135 302.206 82.5468 305.753C84.1815 306.727 85.9024 307.117 87.4816 307.197C89.7595 299.675 93.6928 287.717 94.6501 285.056C96.0192 281.254 99.0607 273.041 99.3648 271.368Z" stroke="#1A2E35" stroke-width="1.33333" stroke-miterlimit="10" stroke-linecap="round" stroke-linejoin="round"/>
<path d="M93.1303 189.085C93.1303 189.085 91.7612 187.411 87.3507 186.195C82.9394 184.978 79.4421 186.803 77.3123 189.237C75.1832 191.67 72.141 200.795 73.2059 204.903C74.2701 209.01 79.5938 218.439 79.5938 218.439C79.5938 218.439 85.2209 219.656 90.8488 219.656C96.4759 219.656 101.343 216.462 101.343 216.462C101.343 216.462 101.04 205.055 100.735 200.795C100.431 196.537 94.4993 190.149 93.1303 189.085Z" fill="white"/>
<path d="M93.1303 189.085C93.1303 189.085 91.7612 187.411 87.3507 186.195C82.9394 184.978 79.4421 186.803 77.3123 189.237C75.1832 191.67 72.141 200.795 73.2059 204.903C74.2701 209.01 79.5938 218.439 79.5938 218.439C79.5938 218.439 85.2209 219.656 90.8488 219.656C96.4759 219.656 101.343 216.462 101.343 216.462C101.343 216.462 101.04 205.055 100.735 200.795C100.431 196.537 94.4993 190.149 93.1303 189.085Z" stroke="#1A2E35" stroke-width="1.33333" stroke-miterlimit="10" stroke-linecap="round" stroke-linejoin="round"/>
<path d="M89.1953 198.44C89.4703 198.306 89.7124 198.181 89.9112 198.064" stroke="#1A2E35" stroke-width="1.33333" stroke-miterlimit="10" stroke-linecap="round" stroke-linejoin="round"/>
<path d="M81.1992 201.452C81.1992 201.452 85.3177 200.104 88.0765 198.94" stroke="#1A2E35" stroke-width="1.33333" stroke-miterlimit="10" stroke-linecap="round" stroke-linejoin="round"/>
<path d="M84.7012 202.135C85.6215 202.093 86.5631 201.999 87.3709 201.815" stroke="#1A2E35" stroke-width="1.33333" stroke-miterlimit="10" stroke-linecap="round" stroke-linejoin="round"/>
<path d="M80.5938 202.057C80.5938 202.057 81.638 202.149 83.0148 202.163" stroke="#1A2E35" stroke-width="1.33333" stroke-miterlimit="10" stroke-linecap="round" stroke-linejoin="round"/>
<path d="M85.3725 189.845C85.3725 189.845 82.5005 185.361 78.5287 187.868C75.7522 189.62 54.2137 218.687 54.2137 218.687L42.3504 231.007C42.3504 231.007 37.1791 230.55 35.3535 231.159C33.5286 231.767 31.3995 236.178 31.8554 236.938C32.312 237.699 36.7225 235.569 36.7225 235.569C36.7225 235.569 33.5286 237.091 36.1142 237.091C38.6999 237.091 41.2855 235.417 42.0463 235.417C42.8063 235.417 44.4795 234.353 45.3919 233.136C46.3044 231.92 86.2849 196.841 86.2849 196.841" fill="white"/>
<path d="M85.3725 189.845C85.3725 189.845 82.5005 185.361 78.5287 187.868C75.7522 189.62 54.2137 218.687 54.2137 218.687L42.3504 231.007C42.3504 231.007 37.1791 230.55 35.3535 231.159C33.5286 231.767 31.3995 236.178 31.8554 236.938C32.312 237.699 36.7225 235.569 36.7225 235.569C36.7225 235.569 33.5286 237.091 36.1142 237.091C38.6999 237.091 41.2855 235.417 42.0463 235.417C42.8063 235.417 44.4795 234.353 45.3919 233.136C46.3044 231.92 86.2849 196.841 86.2849 196.841" stroke="#1A2E35" stroke-width="1.33333" stroke-miterlimit="10" stroke-linecap="round" stroke-linejoin="round"/>
<path d="M53.8882 219.025L42.3497 231.007C42.3497 231.007 37.1791 230.551 35.3535 231.159C33.5286 231.768 31.3995 236.178 31.8554 236.938C32.3113 237.699 36.7225 235.57 36.7225 235.57C36.7225 235.57 33.5286 237.091 36.1142 237.091C38.6999 237.091 41.2855 235.418 42.0463 235.418C42.8063 235.418 44.4795 234.353 45.3919 233.137C45.716 232.704 50.6629 228.321 56.9069 222.848C55.2836 221.683 54.3847 220.205 53.8882 219.025Z" fill="white"/>
<path d="M53.8882 219.025L42.3497 231.007C42.3497 231.007 37.1791 230.551 35.3535 231.159C33.5286 231.768 31.3995 236.178 31.8554 236.938C32.3113 237.699 36.7225 235.57 36.7225 235.57C36.7225 235.57 33.5286 237.091 36.1142 237.091C38.6999 237.091 41.2855 235.418 42.0462 235.418C42.8063 235.418 44.4795 234.353 45.3919 233.137C45.716 232.704 50.6629 228.321 56.9069 222.848C55.2836 221.683 54.3847 220.205 53.8882 219.025Z" stroke="#1A2E35" stroke-width="1.33333" stroke-miterlimit="10" stroke-linecap="round" stroke-linejoin="round"/>
<path d="M36.7227 235.57L38.7 234.505" stroke="#1A2E35" stroke-width="1.33333" stroke-miterlimit="10" stroke-linecap="round" stroke-linejoin="round"/>
<path d="M32.6152 237.243C32.6152 237.243 34.7443 233.744 37.0258 233.136" stroke="#1A2E35" stroke-width="1.33333" stroke-miterlimit="10" stroke-linecap="round" stroke-linejoin="round"/>
<path d="M32.1602 234.962C32.1602 234.962 34.5941 232.375 36.2666 231.919" stroke="#1A2E35" stroke-width="1.33333" stroke-miterlimit="10" stroke-linecap="round" stroke-linejoin="round"/>
<path d="M83.8511 226.652C83.8511 226.652 78.2239 229.238 76.2466 238.363C74.2693 247.489 80.9613 255.094 85.6767 258.592C90.3914 262.09 102.103 273.649 102.103 273.649C102.103 273.649 94.9544 278.821 93.2812 284.144C91.608 289.467 86.4367 303.612 86.4367 303.612C86.4367 303.612 80.8089 305.741 80.8089 306.502C80.8089 307.262 82.1779 312.89 82.9386 314.563C83.6994 316.236 87.045 320.647 87.6533 320.951C88.2616 321.254 88.5665 320.951 88.5665 320.038C88.5665 319.125 87.8058 312.129 87.9582 310.304C88.1099 308.479 89.9355 304.676 91.7604 302.547C93.5853 300.418 101.951 290.685 104.536 285.818C107.122 280.95 111.532 274.562 112.445 271.52C112.668 270.777 110.316 267.565 110.316 267.565C110.316 267.565 97.9959 240.493 90.0873 236.082" fill="white"/>
<path d="M83.8511 226.652C83.8511 226.652 78.2239 229.238 76.2466 238.363C74.2693 247.489 80.9613 255.094 85.6767 258.592C90.3914 262.09 102.103 273.649 102.103 273.649C102.103 273.649 94.9544 278.821 93.2812 284.144C91.608 289.467 86.4367 303.612 86.4367 303.612C86.4367 303.612 80.8089 305.741 80.8089 306.502C80.8089 307.262 82.1779 312.89 82.9386 314.563C83.6994 316.236 87.045 320.647 87.6533 320.951C88.2616 321.254 88.5665 320.951 88.5665 320.038C88.5665 319.125 87.8058 312.129 87.9582 310.304C88.1099 308.479 89.9355 304.676 91.7604 302.547C93.5853 300.418 101.951 290.685 104.536 285.818C107.122 280.95 111.532 274.562 112.445 271.52C112.668 270.777 110.316 267.565 110.316 267.565C110.316 267.565 97.9959 240.493 90.0873 236.082" stroke="#1A2E35" stroke-width="1.33333" stroke-miterlimit="10" stroke-linecap="round" stroke-linejoin="round"/>
<path d="M84.0697 226.357C84.0697 226.357 78.2239 229.238 76.2466 238.363C74.2692 247.489 80.962 255.094 85.6767 258.592C90.3914 262.09 102.103 273.65 102.103 273.65C102.103 273.65 94.9544 278.821 93.2812 284.144C92.5539 286.458 91.1656 290.44 89.8279 294.201C90.8921 295.765 92.6472 297.548 95.3661 298.276C98.5707 294.406 102.822 289.043 104.536 285.818C107.122 280.95 113.625 274.468 112.445 271.52C111.699 269.655 110.316 267.566 110.316 267.566C110.316 267.566 97.9716 240.052 90.063 235.641" fill="#1A2E35"/>
<path d="M84.0697 226.357C84.0697 226.357 78.2239 229.238 76.2466 238.363C74.2692 247.489 80.962 255.094 85.6767 258.592C90.3914 262.09 102.103 273.65 102.103 273.65C102.103 273.65 94.9544 278.821 93.2812 284.144C92.5539 286.458 91.1656 290.44 89.8279 294.201C90.8921 295.765 92.6472 297.548 95.3661 298.276C98.5707 294.406 102.822 289.043 104.536 285.818C107.122 280.95 113.625 274.468 112.445 271.52C111.699 269.655 110.316 267.566 110.316 267.566C110.316 267.566 97.9716 240.052 90.063 235.641" stroke="#1A2E35" stroke-width="1.33333" stroke-miterlimit="10" stroke-linecap="round" stroke-linejoin="round"/>
<path d="M87.655 320.951C88.2633 321.255 88.5675 320.951 88.5675 320.038C88.5675 319.125 87.8067 312.129 87.9592 310.305C87.9748 310.114 88.0133 309.897 88.0639 309.668C86.0808 310.176 85.4633 311.567 85.4633 311.567C85.4633 311.567 85.1328 309.092 85.1328 307.607C85.1328 306.122 86.4384 303.612 86.4384 303.612C86.4384 303.612 80.8105 305.741 80.8105 306.502C80.8105 307.262 82.1796 312.89 82.9396 314.563C83.7003 316.236 87.0467 320.647 87.655 320.951Z" fill="white"/>
<path d="M87.655 320.951C88.2633 321.255 88.5675 320.951 88.5675 320.038C88.5675 319.125 87.8067 312.129 87.9592 310.305C87.9748 310.114 88.0133 309.897 88.0639 309.668C86.0808 310.176 85.4633 311.567 85.4633 311.567C85.4633 311.567 85.1328 309.092 85.1328 307.607C85.1328 306.122 86.4384 303.612 86.4384 303.612C86.4384 303.612 80.8105 305.741 80.8105 306.502C80.8105 307.262 82.1796 312.89 82.9396 314.563C83.7003 316.236 87.0467 320.647 87.655 320.951Z" stroke="#1A2E35" stroke-width="1.33333" stroke-miterlimit="10" stroke-linecap="round" stroke-linejoin="round"/>
</g>
<defs>
<clipPath id="clip0_525_1272">
<rect width="326.817" height="338" fill="white" transform="translate(0 0.796387)"/>
</clipPath>
</defs>
</svg>
