<svg width="143" height="109" viewBox="0 0 143 109" fill="none" xmlns="http://www.w3.org/2000/svg">
<path d="M28.902 97.1945H110.772H110.772C112.316 97.1945 113.556 95.9538 113.534 94.3874V55.877C113.534 55.219 113.001 54.6867 112.343 54.6867C111.685 54.6867 111.153 55.219 111.153 55.877V94.3886C111.153 94.6115 110.959 94.7918 110.75 94.7918H28.88C28.657 94.7918 28.4768 94.5972 28.4768 94.3886V55.877C28.4768 55.219 27.9445 54.6867 27.2864 54.6867C26.6284 54.6867 26.0961 55.219 26.0961 55.877V94.3886C26.0961 95.9322 27.3584 97.1945 28.902 97.1945Z" fill="#26B3DD" stroke="#26B3DD" stroke-width="0.3"/>
<path d="M26.1466 39.831L26.1467 39.831C26.2982 39.3261 26.7542 38.9713 27.3087 38.9713H112.366C112.897 38.9713 113.376 39.3235 113.528 39.831L113.529 39.8333L117.978 55.5692C117.978 55.5693 117.978 55.5694 117.978 55.5694L117.978 55.5697L26.1466 39.831ZM26.1466 39.831L26.146 39.8333L21.6973 55.5692C21.6972 55.5693 21.6972 55.5694 21.6972 55.5695C21.5949 55.9264 21.672 56.3069 21.8982 56.608C22.1254 56.9115 22.4795 57.0885 22.859 57.0885H116.814H116.814C117.193 57.0885 117.546 56.9114 117.775 56.6108L26.1466 39.831ZM115.221 54.7078H24.429L28.2165 41.3732L111.454 41.374L115.221 54.7078Z" fill="#26B3DD" stroke="#26B3DD" stroke-width="0.3"/>
<mask id="path-3-outside-1_1234_284" maskUnits="userSpaceOnUse" x="34.1855" y="3.0188" width="23" height="10" fill="black">
<rect fill="white" x="34.1855" y="3.0188" width="23" height="10"/>
<path fill-rule="evenodd" clip-rule="evenodd" d="M37.2663 10.2822H54.5743V6.80669C54.5743 6.4083 54.242 6.07595 53.8436 6.07595H37.9964C37.598 6.07595 37.2657 6.4083 37.2657 6.80669L37.2663 10.2822ZM55.6146 12.3848H36.2259C35.6507 12.3848 35.1855 11.9196 35.1855 11.3445V6.82951C35.1855 5.28 36.4475 4.0188 37.9963 4.0188H53.8434C55.3929 4.0188 56.6541 5.28072 56.6541 6.82951V11.3445C56.6769 11.9196 56.2118 12.3848 55.6145 12.3848H55.6146Z"/>
</mask>
<path fill-rule="evenodd" clip-rule="evenodd" d="M37.2663 10.2822H54.5743V6.80669C54.5743 6.4083 54.242 6.07595 53.8436 6.07595H37.9964C37.598 6.07595 37.2657 6.4083 37.2657 6.80669L37.2663 10.2822ZM55.6146 12.3848H36.2259C35.6507 12.3848 35.1855 11.9196 35.1855 11.3445V6.82951C35.1855 5.28 36.4475 4.0188 37.9963 4.0188H53.8434C55.3929 4.0188 56.6541 5.28072 56.6541 6.82951V11.3445C56.6769 11.9196 56.2118 12.3848 55.6145 12.3848H55.6146Z" fill="#26B3DD"/>
<path d="M37.2663 10.2822L36.9663 10.2822L36.9664 10.5822H37.2663V10.2822ZM54.5743 10.2822V10.5822H54.8743V10.2822H54.5743ZM37.2657 6.80669H36.9657V6.80675L37.2657 6.80669ZM56.6541 11.3445H56.3539L56.3544 11.3563L56.6541 11.3445ZM37.2663 10.5822H54.5743V9.98215H37.2663V10.5822ZM54.8743 10.2822V6.80669H54.2743V10.2822H54.8743ZM54.8743 6.80669C54.8743 6.24262 54.4076 5.77595 53.8436 5.77595V6.37595C54.0763 6.37595 54.2743 6.57399 54.2743 6.80669H54.8743ZM53.8436 5.77595H37.9964V6.37595H53.8436V5.77595ZM37.9964 5.77595C37.4323 5.77595 36.9657 6.24262 36.9657 6.80669H37.5657C37.5657 6.57399 37.7637 6.37595 37.9964 6.37595V5.77595ZM36.9657 6.80675L36.9663 10.2822L37.5663 10.2821L37.5657 6.80663L36.9657 6.80675ZM55.6146 12.0848H36.2259V12.6848H55.6146V12.0848ZM36.2259 12.0848C35.8164 12.0848 35.4855 11.754 35.4855 11.3445H34.8855C34.8855 12.0853 35.485 12.6848 36.2259 12.6848V12.0848ZM35.4855 11.3445V6.82951H34.8855V11.3445H35.4855ZM35.4855 6.82951C35.4855 5.44573 36.6131 4.3188 37.9963 4.3188V3.7188C36.2818 3.7188 34.8855 5.11426 34.8855 6.82951H35.4855ZM37.9963 4.3188H53.8434V3.7188H37.9963V4.3188ZM53.8434 4.3188C55.2272 4.3188 56.3541 5.44635 56.3541 6.82951H56.9541C56.9541 5.11508 55.5587 3.7188 53.8434 3.7188V4.3188ZM56.3541 6.82951V11.3445H56.9541V6.82951H56.3541ZM56.3544 11.3563C56.37 11.7501 56.0528 12.0848 55.6145 12.0848V12.6848C56.3707 12.6848 56.9838 12.0891 56.9539 11.3326L56.3544 11.3563ZM55.6145 12.6848H55.6146V12.0848H55.6145V12.6848Z" fill="#26B3DD" mask="url(#path-3-outside-1_1234_284)"/>
<path d="M30.8866 41.3708L30.8885 41.3747H30.9818C31.6357 41.3747 32.1942 40.8473 32.1942 40.1844V21.3427L37.2884 11.9041C37.6168 11.321 37.3894 10.5878 36.8082 10.2831C36.2249 9.95523 35.4917 10.1832 35.1875 10.7649L29.9431 20.457C29.8411 20.6356 29.7914 20.8385 29.7914 21.0391V40.1842C29.7914 40.8102 30.2732 41.3224 30.8866 41.3708Z" fill="#26B3DD" stroke="#26B3DD" stroke-width="0.3"/>
<path d="M60.8619 41.3747H60.9548L60.9566 41.3711C61.5897 41.3245 62.0743 40.814 62.0743 40.1842V21.0392C62.0743 20.8385 62.0246 20.6356 61.9226 20.457L56.6782 10.765C56.3711 10.1776 55.6363 9.9812 55.0597 10.282C54.4715 10.5888 54.2747 11.3241 54.5757 11.9011L54.5757 11.9011L54.5767 11.9029L59.6715 21.3428V40.1844C59.6715 40.8424 60.2039 41.3747 60.8619 41.3747Z" fill="#26B3DD" stroke="#26B3DD" stroke-width="0.3"/>
<path d="M51.6062 40.1901L51.6063 40.1901V40.1844V21.3427L56.7005 11.9041C57.0289 11.321 56.8016 10.5878 56.2204 10.2831C55.637 9.95523 54.9038 10.1832 54.5996 10.7649L49.3552 20.457C49.2532 20.6356 49.2035 20.8385 49.2035 21.0391V40.1842C49.2035 40.8097 49.6845 41.3216 50.2971 41.3707L50.299 41.3747H50.3939C51.0529 41.3747 51.5812 40.8433 51.6062 40.1901Z" fill="#26B3DD" stroke="#26B3DD" stroke-width="0.3"/>
<path d="M30.9818 22.2285H60.8625C61.539 22.2285 62.0766 21.7004 62.0528 21.0353C62.0513 20.3786 61.5196 19.8478 60.8625 19.8478H30.9818C30.3237 19.8478 29.7914 20.3801 29.7914 21.0381C29.7914 21.6962 30.3237 22.2285 30.9818 22.2285Z" fill="#26B3DD" stroke="#26B3DD" stroke-width="0.3"/>
<path d="M89.4886 41.3748L89.5259 41.3348C89.0172 41.1994 88.643 40.7361 88.643 40.1844V20.5527C88.643 19.5606 89.0187 18.7062 89.5642 17.9373C90.1078 17.1711 90.8267 16.4809 91.5219 15.8188M89.4886 41.3748L91.5222 15.8185C91.5221 15.8186 91.522 15.8187 91.5219 15.8188M89.4886 41.3748H89.8333C90.4919 41.3748 91.0236 40.8434 91.0229 40.1852C91.0229 40.1851 91.0229 40.1851 91.0229 40.185L91.0229 20.5535C91.0229 20.0956 91.2627 19.6198 91.6631 19.1105C92.0618 18.6033 92.601 18.0855 93.1674 17.5415L93.1679 17.5411L93.1682 17.5408M89.4886 41.3748L93.1682 17.5408M91.5219 15.8188C91.5437 15.7977 91.5656 15.7766 91.5873 15.7556C92.1856 15.1788 92.753 14.6317 93.1773 14.0766C93.6165 13.5018 93.8879 12.9362 93.8879 12.3417V7.84867C93.8879 7.19066 94.4202 6.65833 95.0783 6.65833C95.7363 6.65833 96.2686 7.19063 96.2686 7.84867V12.3417C96.2686 14.5829 94.5994 16.1754 93.1725 17.5366L93.1682 17.5408M91.5219 15.8188L93.1682 17.5408M107.5 40.1844C107.5 40.7812 107.938 41.2745 108.51 41.3612L109.73 40.1625H109.88V40.1623V20.5308C109.88 19.5387 109.505 18.6844 108.959 17.9155C108.416 17.1493 107.697 16.459 107.001 15.7968C106.98 15.7757 106.958 15.7547 106.936 15.7337C106.338 15.1569 105.77 14.6098 105.346 14.0547C104.907 13.4799 104.635 12.9143 104.635 12.3197V7.82672C104.635 7.16868 104.103 6.63638 103.445 6.63638C102.787 6.63638 102.255 7.1687 102.255 7.82672V12.3409C102.255 14.5835 103.925 16.176 105.352 17.5368L105.355 17.5399L105.355 17.5403L105.361 17.5461C105.926 18.0885 106.463 18.6045 106.86 19.11C107.26 19.6193 107.5 20.0948 107.5 20.5527V40.1844Z" fill="#26B3DD" stroke="#26B3DD" stroke-width="0.3"/>
<path d="M104.226 6.61294H94.3003V3.2607H104.226V6.61294ZM94.1495 9.01559H104.375C105.608 9.01559 106.628 8.01995 106.628 6.76294V3.1107C106.628 1.87677 105.609 0.858057 104.375 0.858057H94.1495C92.9156 0.858057 91.8969 1.87673 91.8969 3.1107V6.76294C91.8969 7.99688 92.9155 9.01559 94.1495 9.01559Z" fill="#26B3DD" stroke="#26B3DD" stroke-width="0.3"/>
<path d="M83.083 41.3292C83.1437 41.3412 83.2096 41.3543 83.2783 41.3634L83.2775 41.3756H83.4383C83.9207 41.3756 84.4007 41.049 84.5545 40.564C84.8429 39.6978 85.1092 38.8108 85.3533 37.9234L85.3535 37.9225C86.9404 31.9963 87.2315 26.4061 86.399 22.0959C85.5683 17.7948 83.6063 14.7204 80.6439 13.9228L80.605 14.0676L80.6439 13.9228C77.6805 13.1249 74.3492 14.775 71.3041 18.4428C68.4315 21.8941 66.0551 26.8285 64.5683 32.3546C63.8581 34.952 63.392 37.551 63.1916 40.084L63.1916 40.0842C63.1407 40.7387 63.6189 41.3223 64.2783 41.3743C64.9419 41.4496 65.521 40.9397 65.5714 40.2854C65.7701 37.9042 66.2108 35.457 66.8727 32.9858C68.2633 27.8002 70.5124 23.1729 73.1513 19.9843C74.3711 18.5222 75.6128 17.4578 76.7917 16.8249C77.9706 16.192 79.0762 15.9957 80.035 16.2484C81.0058 16.5126 81.8689 17.2337 82.572 18.3684C83.2753 19.5036 83.8124 21.0439 84.1313 22.9237C84.8128 26.992 84.4405 32.1045 83.0499 37.3131L83.0497 37.3136C82.8293 38.15 82.5648 38.9882 82.2994 39.8066L82.2992 39.8072C82.0986 40.4346 82.4237 41.1202 83.0604 41.3237L83.0685 41.3263L83.0768 41.3279L83.083 41.3292Z" fill="#26B3DD" stroke="#26B3DD" stroke-width="0.3"/>
<path d="M80.8292 27.1368L80.8292 27.1368L80.8317 27.1375L80.8404 27.1396C80.8837 27.1503 80.932 27.1624 80.9834 27.1714V27.1859H81.1334C81.667 27.1859 82.1458 26.8295 82.2963 26.2791C82.4737 25.6444 82.0924 24.9873 81.4614 24.8107L81.4614 24.8107L81.4597 24.8102L74.4876 22.9511L74.4876 22.9511L74.4839 22.9502C73.8531 22.7988 73.1973 23.1767 73.0205 23.8084C72.8429 24.4432 73.2242 25.1006 73.8553 25.2772L73.8553 25.2772L73.8571 25.2777L80.8292 27.1368Z" fill="#26B3DD" stroke="#26B3DD" stroke-width="0.3"/>
<path d="M80.5875 33.8659L80.5875 33.8659L80.5904 33.8666L80.5991 33.8688C80.6423 33.8795 80.6907 33.8915 80.7421 33.9006V33.9151H80.8921C81.4253 33.9151 81.9007 33.56 82.0747 33.0377L82.0753 33.0379L82.0783 33.0253C82.2297 32.3945 81.8518 31.7387 81.2201 31.5619L81.2201 31.5619L81.2187 31.5615L71.3487 28.906C71.3485 28.906 71.3482 28.9059 71.348 28.9058C70.7134 28.7287 70.0565 29.1099 69.8799 29.7408C69.7023 30.3756 70.0836 31.033 70.7147 31.2096L70.7147 31.2096L70.7161 31.21L80.5875 33.8659Z" fill="#26B3DD" stroke="#26B3DD" stroke-width="0.3"/>
<path d="M79.9647 88.1055C79.9994 88.1414 80.0339 88.1776 80.0683 88.214C81.4694 86.7639 83.1614 85.7233 84.8031 84.7137C84.8504 84.6846 84.8976 84.6556 84.9448 84.6265C88.0211 82.7674 90.655 81.1518 90.7438 77.345M79.9647 88.1055C81.3784 86.6436 83.0827 85.5955 84.7186 84.5896C84.7679 84.5593 84.8171 84.529 84.8662 84.4988L84.8672 84.4982C87.9527 82.6335 90.5044 81.0574 90.5937 77.3478M79.9647 88.1055C79.9299 88.1414 79.8953 88.1776 79.8609 88.214C78.4204 86.7222 76.6916 85.6639 74.9845 84.6265M79.9647 88.1055C78.5093 86.5998 76.7657 85.5334 75.0624 84.4983M90.5937 77.3478C90.5938 77.3499 90.594 77.352 90.5941 77.354L90.7438 77.345M90.5937 77.3478C90.5938 77.3457 90.5938 77.3436 90.5938 77.3415L90.7438 77.345M90.5937 77.3478C90.4189 74.5047 88.417 72.7859 86.4838 72.3564L86.4837 72.3564C84.2817 71.8645 82.2404 72.904 80.9823 75.2027M90.7438 77.345C90.567 74.4235 88.5083 72.6525 86.5164 72.21C84.2369 71.7008 82.1341 72.7852 80.8503 75.1314M80.9823 75.2027C80.9824 75.2024 80.9825 75.2021 80.9827 75.2019L80.8503 75.1314M80.9823 75.2027C80.9821 75.2029 80.982 75.2032 80.9818 75.2034L80.8503 75.1314M80.9823 75.2027C80.7794 75.5832 80.3746 75.8346 79.9207 75.8346C79.4854 75.8346 79.0851 75.5798 78.8625 75.2085L78.8589 75.2025L78.859 75.2025C77.6227 72.9037 75.56 71.8432 73.3591 72.3561L73.359 72.3561C71.5118 72.786 69.4882 74.4835 69.3356 77.3486M80.8503 75.1314C80.6735 75.4638 80.3191 75.6846 79.9207 75.6846C79.5443 75.6846 79.19 75.463 78.9911 75.1314M78.9911 75.1314L69.3354 77.3415C69.3355 77.3439 69.3355 77.3462 69.3356 77.3486M78.9911 75.1314C77.7292 72.7852 75.6044 71.6789 73.325 72.21L78.9911 75.1314ZM69.3356 77.3486C69.4254 81.0577 71.9982 82.6333 75.0624 84.4983M69.3356 77.3486L75.0624 84.4983M75.0624 84.4983L74.9845 84.6265M75.0624 84.4983L69.1903 77.495C69.3446 81.1938 71.969 82.7912 74.9818 84.6249L74.9845 84.6265M75.0624 84.4983C75.0624 84.4984 75.0624 84.4984 75.0624 84.4984L74.9845 84.6265M79.025 90.671L79.0245 90.6704C77.7379 88.9331 75.815 87.762 73.9127 86.6035C73.8822 86.5849 73.8518 86.5664 73.8213 86.5478L73.8211 86.5477L73.776 86.5201C70.4992 84.5193 67.022 82.3961 66.9321 77.3476L66.932 77.345H66.932V77.2782V77.2706L66.9322 77.2706C67.1122 73.7096 69.503 70.7732 72.8924 70.027C75.5711 69.4289 78.1629 70.3724 79.9629 72.5263C81.7629 70.3722 84.3548 69.4297 87.0335 70.027L87.034 70.0271V70.0271C90.4221 70.7953 92.8135 73.7088 92.9935 77.2706L92.9939 77.2782H92.9937V77.345V77.3476L92.9937 77.3476C92.9041 82.3965 89.4559 84.5017 86.1917 86.4946L86.1046 86.5477L86.1045 86.5478L86.088 86.5579C84.1649 87.7293 82.2314 88.907 80.9058 90.6644C80.7194 90.9794 80.3579 91.1514 79.9858 91.1515L79.025 90.671ZM79.025 90.671C79.2521 90.9744 79.6061 91.1514 79.9854 91.1515L79.025 90.671Z" fill="#26B3DD" stroke="#26B3DD" stroke-width="0.3"/>
<path d="M62.9541 87.2564H62.9413C62.5619 87.2564 62.2078 87.0795 61.9806 86.7761C60.2652 84.4956 57.7703 82.9666 55.3261 81.4687L55.272 81.4355L55.2717 81.4353L55.1993 81.3912C51.0906 78.8866 46.7684 76.2519 46.6567 69.9779L46.6566 69.9752H46.6566V69.9084V69.9008L46.6568 69.9008C46.8817 65.4986 49.8259 61.8981 54.0113 60.9529C57.4432 60.1779 60.7204 61.4725 62.9637 64.3276C65.187 61.472 68.4859 60.1781 71.9172 60.9529L71.9174 60.953C76.0801 61.898 79.0467 65.4983 79.2716 69.9008L79.272 69.9084H79.2718V69.9752V69.9792L79.2717 69.9792C79.2495 70.8063 79.1598 71.5901 79.003 72.3306L79.0024 72.3332C78.852 72.9847 78.2213 73.3952 77.5827 73.2423C76.9318 73.0917 76.5217 72.4616 76.6741 71.8234C76.8038 71.2389 76.8697 70.6318 76.8917 69.9778C76.6717 66.1614 73.9853 63.8679 71.4095 63.2831L62.9541 87.2564ZM62.9541 87.2564L62.955 87.2563M62.9541 87.2564L62.955 87.2563M62.955 87.2563C63.3306 87.2522 63.6756 87.0752 63.9215 86.7833L63.9217 86.7835L63.9265 86.7771C65.4786 84.7211 67.6479 83.2729 69.7496 81.9895C70.3274 81.6382 70.5086 80.904 70.1534 80.3435C69.8018 79.7666 69.0683 79.5859 68.5082 79.9408C66.688 81.0463 64.6643 82.371 62.9881 84.1842C61.1498 82.1949 58.8913 80.8134 56.7047 79.4759C56.6562 79.4463 56.6078 79.4167 56.5594 79.3871L56.5588 79.3867C54.5627 78.1781 52.7225 77.0597 51.3641 75.622C50.0137 74.1928 49.1397 72.4475 49.084 69.9786C49.3028 66.1617 51.9901 63.8679 54.5664 63.2831C57.5215 62.6138 60.27 64.0085 61.9263 67.0811L61.9261 67.0811L61.9296 67.087C62.1522 67.4583 62.5526 67.7131 62.9879 67.7131C63.4418 67.7131 63.8467 67.4616 64.0495 67.0809C65.7061 64.0304 68.455 62.6147 71.4094 63.2831L62.955 87.2563Z" fill="#26B3DD" stroke="#26B3DD" stroke-width="0.3"/>
<path d="M11.2627 31.389L12.4527 29.8881C13.4727 28.7114 21.8027 18.7813 21.8027 13.0778C21.8027 6.85795 17.0427 1.97095 11.2627 1.97095C5.48266 1.97095 0.722656 7.01405 0.722656 13.0778C0.722656 18.7813 9.05569 28.7114 10.0757 29.8881L11.2627 31.389ZM11.2627 5.33302C15.3427 5.33302 18.5727 8.86319 18.5727 13.2339C18.5727 16.2597 14.4927 22.3115 11.2627 26.3459C8.03266 22.3115 3.95266 16.2597 3.95266 13.2339C4.12266 8.86319 7.35266 5.33302 11.2627 5.33302Z" fill="#26B3DD"/>
<path d="M11.0745 17.8337C12.2679 17.8337 13.4124 17.3649 14.2563 16.5304C15.1001 15.696 15.5742 14.5642 15.5742 13.3841C15.5742 12.204 15.1001 11.0723 14.2563 10.2378C13.4124 9.40337 12.2679 8.93457 11.0745 8.93457C10.4811 8.92578 9.89197 9.03487 9.34202 9.25537C8.79207 9.47586 8.29248 9.80329 7.87285 10.2182C7.45323 10.6332 7.12211 11.1272 6.89913 11.671C6.67614 12.2148 6.56583 12.7974 6.57472 13.3841C6.69009 15.8941 8.65977 17.8337 11.0745 17.8337ZM11.0745 11.2164C11.6559 11.2164 12.2135 11.4448 12.6246 11.8513C13.0357 12.2578 13.2667 12.8092 13.2667 13.3841C13.2667 13.959 13.0357 14.5104 12.6246 14.9169C12.2135 15.3235 11.6559 15.5519 11.0745 15.5519C10.4931 15.5519 9.93547 15.3235 9.52436 14.9169C9.11324 14.5104 8.88228 13.959 8.88228 13.3841C8.88228 12.8092 9.11324 12.2578 9.52436 11.8513C9.93547 11.4448 10.4931 11.2164 11.0745 11.2164Z" fill="#26B3DD"/>
<path d="M132.106 105.359L133.296 103.858C134.316 102.681 142.646 92.7508 142.646 87.0473C142.646 80.8274 137.886 75.9404 132.106 75.9404C126.326 75.9404 121.566 80.9835 121.566 87.0473C121.566 92.7508 129.899 102.681 130.919 103.858L132.106 105.359ZM132.106 79.1344C136.186 79.1344 139.416 82.6646 139.416 87.0353C139.416 90.0611 135.336 96.1128 132.106 100.147C128.876 96.1128 124.796 90.0611 124.796 87.0353C124.796 82.8327 128.026 79.1224 132.106 79.1224V79.1344Z" fill="#26B3DD"/>
<path d="M132.108 90.8814C133.301 90.8814 134.446 90.4126 135.289 89.5781C136.133 88.7437 136.607 87.6119 136.607 86.4318C136.607 85.2517 136.133 84.1199 135.289 83.2854C134.446 82.451 133.301 81.9822 132.108 81.9822C131.515 81.9734 130.926 82.0822 130.377 82.3022C129.828 82.5222 129.328 82.8489 128.909 83.263C128.489 83.6771 128.158 84.1701 127.935 84.713C127.711 85.2559 127.6 85.8376 127.608 86.4236C127.607 87.6047 128.081 88.7376 128.925 89.5735C129.768 90.4093 130.913 90.8798 132.108 90.8814ZM132.108 84.264C132.542 84.264 132.966 84.3914 133.326 84.6299C133.687 84.8685 133.968 85.2075 134.134 85.6041C134.299 86.0007 134.342 86.437 134.257 86.8577C134.172 87.2784 133.962 87.6647 133.655 87.9675C133.347 88.2703 132.956 88.4762 132.53 88.5589C132.104 88.6416 131.663 88.5975 131.263 88.4322C130.863 88.2669 130.521 87.9877 130.281 87.6302C130.041 87.2726 129.914 86.8527 129.915 86.4236C129.8 85.1768 130.838 84.264 132.108 84.264Z" fill="#26B3DD"/>
<line x1="11.1172" y1="30.0076" x2="11.1172" y2="108.347" stroke="#26B3DD" stroke-dasharray="2 2"/>
<line x1="10.6174" y1="107.847" x2="132.106" y2="107.896" stroke="#26B3DD" stroke-dasharray="2 2"/>
</svg>
