<svg width="98" height="97" viewBox="0 0 98 97" fill="none" xmlns="http://www.w3.org/2000/svg">
<path d="M23.0646 90.9777L26.2607 80.6314C26.3927 80.2475 26.3632 79.8269 26.179 79.4644C25.9948 79.1027 25.6719 78.8307 25.284 78.7108C24.8962 78.5916 24.4761 78.6338 24.1204 78.8287C23.764 79.0237 23.5028 79.3553 23.3949 79.7465L18.811 94.579H18.8103C18.6154 95.204 18.8485 95.8833 19.3851 96.2578C19.9223 96.6315 20.6404 96.6141 21.159 96.2149L43.8249 78.8909L42.6392 76.0171L23.0646 90.9777Z" fill="#26B3DD"/>
<path d="M95.5124 36.0204H81.5426C80.7133 36.0204 80.0421 36.6923 80.0421 37.521C80.0421 38.3496 80.7133 39.0215 81.5426 39.0215H91.0783L71.002 54.3572L72.1877 57.231L96.421 38.7512C96.9669 38.3714 97.1973 37.6774 96.9877 37.0464C96.7773 36.416 96.1778 35.998 95.5133 36.0201L95.5124 36.0204Z" fill="#26B3DD"/>
<path d="M76.2827 85.2073L73.4921 86.3474L74.925 90.9843L70.4683 87.578L67.2422 88.891L76.8309 96.2135V96.2141C77.3494 96.6134 78.0675 96.6308 78.6048 96.257C79.1414 95.8825 79.3745 95.2033 79.1796 94.5783L76.2827 85.2073Z" fill="#26B3DD"/>
<path d="M71.1281 84.0684L77.3105 81.5476C77.6783 81.3962 77.9717 81.1049 78.1251 80.7377C78.2785 80.3706 78.2792 79.9573 78.1284 79.5896L65.7717 49.5787H65.771C65.5654 49.083 65.2083 48.6657 64.7508 48.3857L50.1432 39.1501C49.4412 38.708 48.569 38.6323 47.8021 38.9471L44.7487 40.1924C44.4258 40.3291 44.1344 40.5307 43.8932 40.7853C44.0198 41.5215 44.2208 42.2429 44.4935 42.939C44.7815 43.6497 45.1432 44.329 45.574 44.9646L46.0617 42.8786L48.7023 41.7981L63.0323 50.8463L74.7594 79.3566L71.3383 80.7519L65.7407 67.0447C65.4259 66.2783 64.5496 65.9119 63.7826 66.2268C63.0163 66.5423 62.6498 67.4185 62.9647 68.1855L68.599 81.8552L59.1309 85.7191L53.4965 72.0413C53.1817 71.275 52.3048 70.9085 51.5385 71.2241C50.7714 71.5389 50.4057 72.4151 50.7205 73.1821L56.3549 86.8518L53.9989 87.8124L42.2424 59.333L43.2553 54.9815C42.3214 54.4181 41.4512 53.7569 40.6594 53.008L39.3089 58.8151C39.1877 59.3329 39.2326 59.8762 39.4362 60.3679L51.7929 90.3787H51.7936C52.0348 90.9247 52.5774 91.2751 53.1736 91.2717C53.3672 91.271 53.5581 91.2328 53.7363 91.1592L71.1117 84.069L71.1281 84.0684Z" fill="#26B3DD"/>
<path d="M42.8189 27.0617L48.9939 7.06763L58.5451 38.0011C58.7387 38.6294 59.3201 39.0588 59.978 39.0588H71.4123C72.2409 39.0588 72.9128 38.3869 72.9128 37.5583C72.9128 36.7296 72.2409 36.0577 71.4123 36.0577H61.0807L50.4268 1.54529C50.2319 0.917606 49.6511 0.490234 48.9939 0.490234C48.3368 0.490234 47.756 0.917623 47.561 1.54529L39.0977 28.922C40.1909 28.025 41.4737 27.3887 42.849 27.061L42.8189 27.0617Z" fill="#26B3DD"/>
<path d="M26.4871 69.7077C26.3551 70.0916 26.3846 70.5129 26.5688 70.8747C26.753 71.2364 27.0759 71.5084 27.4638 71.6283C27.8516 71.7482 28.2716 71.706 28.6274 71.5104C28.9837 71.3155 29.245 70.9845 29.3529 70.5933L32.6467 59.9321C32.8322 59.3305 32.6226 58.6774 32.1215 58.2962L6.91239 39.0224H34.7401C34.7428 38.0149 34.8413 37.0102 35.0329 36.0213H2.47885C1.81433 35.9992 1.21478 36.4172 1.00443 37.0476C0.79475 37.6786 1.0252 38.3727 1.57115 38.7525L29.4881 60.0447L26.4871 69.7077Z" fill="#26B3DD"/>
<path d="M38.9639 45.1968C40.1522 48.3198 42.3669 50.9463 45.2433 52.6465C45.2855 53.303 45.4376 53.9467 45.6935 54.5523C46.1825 55.6643 46.987 56.6081 48.0072 57.2666C49.0275 57.9258 50.2186 58.2708 51.4331 58.2587C52.2242 58.2607 53.008 58.1127 53.7443 57.8233C54.5093 57.5151 54.8817 56.6476 54.5789 55.88C54.2755 55.1129 53.41 54.7345 52.6409 55.0326C51.9349 55.3193 51.1504 55.3487 50.4249 55.1156C49.6995 54.8825 49.0791 54.4015 48.6718 53.7571H49.3323C50.2387 53.7584 51.1364 53.5796 51.9729 53.2319C52.7399 52.915 53.1044 52.0368 52.7875 51.2699C52.47 50.5035 51.5917 50.1391 50.8255 50.456C50.1569 50.7246 49.4288 50.8077 48.7173 50.6958C49.0751 50.1411 49.6009 49.7157 50.2179 49.4806C50.9916 49.1624 51.8584 49.1571 52.6362 49.4652C53.414 49.7727 54.0423 50.3702 54.3894 51.1312C54.7143 51.8935 55.5965 52.2479 56.3588 51.923C56.7245 51.7663 57.0139 51.4715 57.162 51.1017C57.3107 50.7326 57.3067 50.3193 57.1499 49.9535C56.4921 48.4785 55.2889 47.3148 53.7925 46.7065C52.2966 46.0983 50.6233 46.0923 49.1221 46.6898C47.7562 47.2197 46.6288 48.2272 45.9489 49.5254C44.0638 48.1387 42.6154 46.241 41.7775 44.0557C39.8644 39.3291 40.7948 34.3022 43.8179 33.0268C44.9581 32.6061 46.2195 32.6571 47.3215 33.1695C49.5723 34.1221 51.6878 36.4633 52.8882 39.4195H52.8889C53.1997 40.1878 54.0746 40.5589 54.843 40.2481C55.612 39.9373 55.9831 39.0624 55.6723 38.294C54.1718 34.6104 51.4936 31.6614 48.4845 30.4015V30.4008C46.6476 29.5628 44.5483 29.5085 42.6699 30.2508C37.9733 32.2015 36.3603 38.7515 38.9642 45.1965L38.9639 45.1968Z" fill="#26B3DD"/>
</svg>
