<svg width="100" height="97" viewBox="0 0 100 97" fill="none" xmlns="http://www.w3.org/2000/svg">
<path d="M86.6347 8.77303V8.77093H86.4847C83.3065 8.77093 80.7206 11.3484 80.7206 14.5184C80.7206 15.1793 80.8334 15.8149 81.0411 16.4068L66.3435 25.3181C65.2928 24.212 63.8056 23.5202 62.1597 23.5202C60.9606 23.5202 59.847 23.8882 58.9235 24.5157L42.7424 9.09685C43.2843 8.22149 43.5989 7.19123 43.5989 6.08843C43.5989 2.91775 41.0129 0.340234 37.8348 0.340234C34.6566 0.340234 32.0707 2.91774 32.0707 6.08772C32.0707 6.87261 32.2309 7.62137 32.5182 8.30364L17.4437 18.752C16.4133 17.7909 15.0295 17.2005 13.5106 17.2005C10.3324 17.2005 7.74648 19.778 7.74648 22.948C7.74648 26.1179 10.3324 28.6954 13.5106 28.6954C16.6887 28.6954 19.2747 26.1179 19.2747 22.948C19.2747 22.1632 19.1151 21.4144 18.8273 20.732L33.9017 10.2831C34.9321 11.2443 36.3159 11.8347 37.8348 11.8347C39.0339 11.8347 40.1475 11.4667 41.071 10.8391L57.2521 26.258C56.7102 27.1334 56.3956 28.1636 56.3956 29.2664C56.3956 32.4364 58.9816 35.0139 62.1597 35.0139C65.3379 35.0139 67.9238 32.4364 67.9238 29.2664C67.9238 28.6055 67.811 27.97 67.6033 27.378L82.3009 18.4667C83.3516 19.5729 84.8388 20.2647 86.4847 20.2647C89.6628 20.2647 92.2488 17.6872 92.2488 14.5172C92.2481 11.3979 89.7431 8.85259 86.6347 8.77303ZM16.8592 22.9486V22.9486C16.8598 24.784 15.3581 26.2802 13.5109 26.2802C11.6637 26.2802 10.1627 24.7847 10.1627 22.9486C10.1627 21.1117 11.6644 19.6162 13.5109 19.6162C15.3581 19.6162 16.8592 21.1117 16.8592 22.9486ZM34.4871 6.08843C34.4871 4.25232 35.9888 2.75679 37.8353 2.75679C39.6825 2.75679 41.1836 4.25228 41.1836 6.08843C41.1836 7.92453 39.6818 9.42006 37.8353 9.42006C35.9888 9.42006 34.4871 7.92455 34.4871 6.08843ZM62.1601 32.6C60.3129 32.6 58.8118 31.1045 58.8118 29.2684C58.8118 27.4323 60.3136 25.9367 62.1601 25.9367C64.0072 25.9367 65.5083 27.4322 65.5083 29.2684C65.5083 31.1045 64.0066 32.6 62.1601 32.6ZM86.4847 17.8508C84.6375 17.8508 83.1364 16.3553 83.1364 14.5191C83.1364 12.683 84.6382 11.1875 86.4847 11.1875C88.3318 11.1875 89.8329 12.683 89.8329 14.5191C89.8329 16.3552 88.3312 17.8508 86.4847 17.8508Z" fill="#26B3DD" stroke="#26B3DD" stroke-width="0.3"/>
<path d="M99.6489 95.4684C99.6482 94.8368 99.1631 94.3182 98.545 94.2652L98.5427 94.2592H98.4398H95.239C96.8794 90.8822 97.7403 87.1593 97.7403 83.3751C97.7403 78.2591 96.1899 73.498 93.5336 69.5346L93.5343 35.9254C93.5343 35.2584 92.9934 34.7175 92.3264 34.7175H80.6467C79.9796 34.7175 79.4388 35.2584 79.4388 35.9254V59.327C77.3037 58.733 75.0553 58.4154 72.7338 58.4154C67.019 58.4154 61.7459 60.3392 57.5298 63.5714V47.6606H66.7939V50.5745C66.7939 51.2415 67.3347 51.7824 68.0018 51.7824C68.6688 51.7824 69.2097 51.2415 69.2097 50.5745V46.4527C69.2097 45.7857 68.6688 45.2448 68.0018 45.2448L56.3228 45.2455C55.6557 45.2455 55.1149 45.7864 55.1149 46.4534V65.6826C50.5556 70.2063 47.7275 76.4678 47.7275 83.3766C47.7275 87.1601 48.5891 90.8831 50.2289 94.2607H44.8855V27.4969C44.8855 26.8298 44.3446 26.289 43.6776 26.289H31.9979C31.3308 26.289 30.79 26.8298 30.79 27.4969L30.7907 94.2607H8.88033V45.565H18.1443V84.8576C18.1443 85.5247 18.6852 86.0656 19.3523 86.0656C20.0193 86.0656 20.5602 85.5247 20.5602 84.8576V44.3579C20.5602 43.6909 20.0193 43.15 19.3523 43.15H7.67256C7.00552 43.15 6.46465 43.6909 6.46465 44.3579L6.46534 94.2607H1.55986C0.892823 94.2607 0.351953 94.8016 0.351953 95.4686C0.351953 96.1356 0.892821 96.6765 1.55986 96.6765H98.441C99.1081 96.6765 99.6489 96.1356 99.6489 95.4686V95.4684ZM33.2051 28.7026H42.4691L42.4698 94.2592H33.2057L33.2051 28.7026ZM81.8542 37.1332H91.1188V66.476C88.5712 63.7174 85.411 61.5307 81.8548 60.1358L81.8542 37.1332ZM92.5186 94.2594H52.9495C51.1128 90.9392 50.1433 87.1921 50.1433 83.3753C50.1433 70.9445 60.2779 60.8289 72.734 60.8289C85.191 60.8289 95.3247 70.9433 95.3247 83.3753C95.3247 87.1921 94.3553 90.9399 92.5186 94.2594Z" fill="#26B3DD" stroke="#26B3DD" stroke-width="0.3"/>
</svg>
