<svg width="112" height="112" viewBox="0 0 112 112" fill="none" xmlns="http://www.w3.org/2000/svg">
<rect width="112" height="112" rx="16" fill="#FFCB02"/>
<path d="M55.7616 44C62.5212 44 68.0016 49.3724 68.0016 56C68.0016 62.6276 62.5212 68 55.7616 68C52.6272 68 49.7676 66.8444 47.6016 64.9448" stroke="white" stroke-width="4" stroke-linecap="round" stroke-linejoin="round"/>
<path d="M56 32C69.2552 32 80 42.7448 80 56C80 69.2552 69.2552 80 56 80C49.7587 80.0083 43.7612 77.577 39.2876 73.2248C36.9786 70.9901 35.1432 68.3133 33.8912 65.3539C32.6391 62.3945 31.9959 59.2133 32 56C31.9919 49.8127 34.3816 43.863 38.6672 39.4004" stroke="white" stroke-width="4" stroke-linecap="round" stroke-linejoin="round"/>
<path d="M38.668 39.4004L56.0008 56L39.2884 73.2248" stroke="white" stroke-width="4" stroke-linecap="round" stroke-linejoin="round"/>
</svg>
