<svg width="112" height="112" viewBox="0 0 112 112" fill="none" xmlns="http://www.w3.org/2000/svg">
<rect width="112" height="112" rx="16" fill="#FFFCEE"/>
<path d="M83.8587 40.1906C83.8072 39.6697 83.6243 39.1704 83.3273 38.7394C83.0302 38.3084 82.6286 37.9599 82.1601 37.7264L57.3627 25.3277C56.932 25.1122 56.4571 25 55.9756 25C55.494 25 55.0191 25.1122 54.5885 25.3277L29.7911 37.7264C29.3239 37.9612 28.9235 38.3102 28.6271 38.741C28.3307 39.1717 28.1479 39.6704 28.0955 40.1906C28.0614 40.5223 25.1167 73.5648 54.7187 86.7292C55.1142 86.9077 55.5432 87 55.9771 87C56.4111 87 56.8401 86.9077 57.2356 86.7292C86.8375 73.5648 83.8928 40.5254 83.8587 40.1906ZM55.9771 80.4771C34.9954 70.335 34.0035 48.6899 34.174 42.4689L55.9771 31.5673L77.7648 42.4627C77.8794 48.628 76.7481 70.4156 55.9771 80.4771Z" fill="#FFCB02"/>
<path d="M52.8753 57.8155L45.7677 50.7079L41.3848 55.0908L52.8753 66.5813L70.5651 48.8915L66.1822 44.5085L52.8753 57.8155Z" fill="#FFCB02"/>
</svg>
