<svg width="112" height="112" viewBox="0 0 112 112" fill="none" xmlns="http://www.w3.org/2000/svg">
<path d="M65.051 89.7593C65.051 89.0387 64.6626 88.4164 63.8856 87.8923C62.9791 87.3682 62.0294 87.1062 61.0366 87.1062H60.7258C60.0006 87.1062 59.1632 87.2438 58.2222 87.5255C57.6869 87.6958 57.1431 87.9382 56.5819 88.2461C56.3488 88.3443 55.9085 88.6522 55.2697 89.1698C54.7603 89.6676 54.4236 90.0738 54.2596 90.4013V90.4341C54.2596 90.4734 54.2768 90.5127 54.3027 90.552C54.5617 90.7944 54.8294 90.9189 55.1056 90.9189H55.1833C55.261 90.9189 55.3301 90.8927 55.3905 90.8468C55.5546 90.5782 55.7618 90.3096 56.0121 90.0214C56.3229 89.6742 56.7891 89.3008 57.4193 88.9077C58.8265 88.1282 60.1647 87.7351 61.451 87.7351H61.5719C61.969 87.7351 62.3143 87.7875 62.6251 87.8858C63.5575 88.1871 64.0151 88.7439 64.0151 89.5628V89.6152C64.0151 89.9886 63.9287 90.4079 63.7474 90.8796C63.4539 91.6591 62.7374 92.609 61.615 93.7227C59.8021 95.3932 58.274 96.2251 57.0395 96.2251C56.9531 96.2251 56.8323 96.2186 56.6682 96.2055C56.5128 96.2055 56.4092 96.0024 56.3747 95.5897C56.3747 95.2228 56.5474 94.7774 56.9013 94.2664C57.1949 93.8537 57.5143 93.4868 57.8769 93.1593C57.6265 94.0306 57.5057 94.4957 57.5057 94.5481V94.5677C57.5747 94.7184 57.7215 94.7905 57.9546 94.7905H58.0409C58.179 94.7905 58.2913 94.7446 58.3776 94.6595C58.7402 93.6703 59.0942 92.7335 59.4481 91.8622C59.4481 91.8294 59.6553 91.6722 60.0697 91.384C60.7863 90.9189 61.4424 90.5455 62.0381 90.2572C62.4611 90.1 62.6769 90.0083 62.6856 89.9821V89.9231C62.5992 89.7462 62.4525 89.6545 62.2625 89.6545C61.8222 89.7004 61.0194 90.0869 59.8625 90.8206C60.2683 89.8052 60.4668 89.2877 60.4668 89.2615L60.4496 89.1894C60.2596 88.9798 59.9747 88.8684 59.6121 88.8684H59.5258C59.4395 88.8684 59.3618 88.9012 59.2755 88.9601C59.051 89.5301 58.7488 90.3751 58.369 91.4953C58.2826 91.8818 58.2049 92.0718 58.1359 92.0718C56.3143 93.6113 55.3992 94.797 55.3992 95.629V95.6749C55.3992 95.8321 55.4423 95.9762 55.5373 96.1072C55.9258 96.5723 56.4869 96.8016 57.2121 96.8016H57.333C58.1186 96.8016 59.0337 96.5134 60.0956 95.9303C60.4582 95.76 61.0453 95.3604 61.8568 94.7315C62.6683 94.0568 63.2899 93.4606 63.7129 92.9366C64.6021 91.7901 65.0424 90.7944 65.0424 89.9493V89.7593H65.051Z" fill="black"/>
<path d="M76.7836 94.011C76.7059 93.9586 76.6627 93.8407 76.6627 93.6507V93.6179C76.6627 92.786 76.9735 91.5544 77.5864 89.9232C78.2857 89.8577 78.8382 89.8249 79.2613 89.8249H79.3994C79.5807 89.8249 79.762 89.838 79.926 89.8642C80.0728 89.9035 80.1591 89.9297 80.1764 89.9297H80.2023C80.3232 89.9297 80.444 89.9035 80.5821 89.8511C80.7289 89.7922 80.798 89.7332 80.798 89.6874V89.6677C80.798 89.6612 80.798 89.648 80.7893 89.6349C80.4613 89.4515 79.8052 89.3598 78.821 89.3598C78.3893 89.3664 78.044 89.3795 77.8023 89.3926H77.7936C77.9318 89.0716 78.0095 88.9078 78.0095 88.9012L77.9922 88.8488C77.8627 88.744 77.7073 88.6851 77.5087 88.6851H77.4397C77.3274 88.6851 77.2411 88.7047 77.1807 88.7506C77.1634 88.7506 77.0598 88.9799 76.8699 89.445C76.8699 89.4712 76.8095 89.4777 76.6886 89.4777C75.6353 89.5956 74.9533 89.7005 74.6339 89.7922C74.4526 89.8249 74.3663 89.8577 74.3663 89.897V89.9035C74.3663 89.9297 74.3749 89.9625 74.4008 90.0084C74.5907 90.218 74.7634 90.3293 74.9102 90.3293C75.3505 90.2245 75.9289 90.1263 76.6368 90.0411H76.6454C76.326 90.8927 76.1102 91.6133 75.9807 92.2029C75.8857 92.3339 75.7303 92.5632 75.5058 92.8842C75.2814 93.1987 75.0742 93.4214 74.8843 93.5524H74.8152C74.7807 93.4542 74.7634 93.3559 74.7634 93.2642V93.2052C74.7634 92.7139 74.962 92.0785 75.3677 91.2858V91.2792C75.3677 91.1679 75.2037 91.0958 74.8756 91.0565H74.7548C74.5648 91.0565 74.4267 91.1351 74.3231 91.2923C74.3231 91.2989 74.3231 91.3054 74.3145 91.3054C74.09 91.1744 73.8742 91.1089 73.6497 91.1089C73.1835 91.1089 72.7864 91.3054 72.467 91.6919C72.3893 91.7968 72.3288 91.895 72.2684 91.9933C72.2598 91.9998 72.2511 91.9998 72.2425 92.0064C71.9921 92.2553 71.5864 92.6942 71.0339 93.3166C70.9216 93.4345 70.8439 93.5 70.7835 93.5262C70.7835 93.5262 70.7749 93.5197 70.7749 93.5131C70.818 93.2445 70.8871 92.9432 70.9907 92.6287C71.2411 91.8754 71.3706 91.443 71.3706 91.3382C71.3706 91.2858 71.3533 91.2465 71.3274 91.2203C71.2152 91.1351 71.077 91.0958 70.913 91.0958H70.8439C70.5763 91.0958 70.2741 91.2334 69.9375 91.5085C69.6612 91.7706 69.4195 92.026 69.2209 92.2815H69.2123C69.2468 92.1571 69.3245 91.9212 69.454 91.5806V91.5609L69.4367 91.5282C69.3159 91.4168 69.1432 91.3579 68.9101 91.3579C68.7633 91.3579 68.6597 91.3841 68.5993 91.443C68.5389 91.574 68.4612 91.8295 68.3576 92.2095C68.3489 92.2226 68.3317 92.2357 68.323 92.2488C68.1849 92.3536 68.09 92.4191 68.0382 92.4388C67.9087 92.5108 67.6928 92.596 67.3907 92.6877H67.382C67.477 92.4322 67.5202 92.216 67.5202 92.026V92.0064C67.5202 91.8361 67.4856 91.6919 67.4079 91.5675C67.2266 91.2989 66.9158 91.1679 66.4669 91.1679H66.3979C66.3029 91.1679 66.1907 91.181 66.0698 91.2072C65.7676 91.2989 65.5345 91.4561 65.3619 91.6788C65.241 91.8688 65.1892 92.026 65.1892 92.1636C64.982 92.3798 64.8784 92.6222 64.8784 92.8908V92.9563C64.8784 93.1594 64.9561 93.3624 65.1029 93.5655C65.2842 93.7555 65.5 93.8538 65.7504 93.8538H65.8194C66.1475 93.8538 66.4842 93.7227 66.8209 93.4673C67.0022 93.31 67.1403 93.1659 67.2266 93.0283C67.2266 92.9956 67.2698 92.9759 67.3475 92.9628C67.6497 92.8842 67.9173 92.786 68.159 92.6615C68.1849 92.6484 68.2108 92.6353 68.2367 92.6222C68.1331 92.989 68.0641 93.3035 68.0209 93.559V93.6114C68.0209 93.6245 68.0209 93.6507 68.0295 93.69C68.1159 93.8276 68.2885 93.8996 68.5389 93.8996C68.5907 93.8996 68.6425 93.8931 68.6943 93.8734C68.7288 93.8538 68.8151 93.7293 68.9705 93.4935C69.3677 92.9628 69.8339 92.406 70.3691 91.8164H70.3777V91.823C70.1447 92.4453 70.0324 92.8973 70.0324 93.1725V93.2773C70.0324 93.4149 70.0669 93.5459 70.136 93.6638C70.2655 93.8341 70.4295 93.9193 70.6108 93.9193H70.6626C70.8008 93.9193 70.9734 93.8276 71.172 93.6507C71.3619 93.4542 71.6123 93.1856 71.9144 92.8384C71.9058 92.9039 71.8972 92.9694 71.8972 93.0349V93.1266C71.8972 93.2249 71.9231 93.3297 71.9835 93.4345C72.1475 93.6834 72.4411 93.8079 72.8641 93.8079C73.0972 93.8079 73.4166 93.5852 73.8224 93.1463H73.831V93.2183C73.831 93.2969 73.8483 93.3821 73.8742 93.4738C74.0037 93.8014 74.2109 93.9586 74.4958 93.9586H74.5648C74.9188 93.9586 75.3418 93.631 75.8425 92.9825C75.8339 93.0873 75.8253 93.1856 75.8253 93.2707C75.8253 93.5262 75.8684 93.749 75.9461 93.9389C76.0756 94.1879 76.2915 94.3123 76.5936 94.3123H76.6627C76.844 94.3123 76.939 94.2665 76.9649 94.1813C76.9735 94.1093 76.913 94.0568 76.7836 94.011ZM65.9921 93.4804C65.9576 93.4804 65.9317 93.4738 65.8971 93.4542C65.7935 93.3362 65.7417 93.1856 65.7417 92.989C65.7417 92.9432 65.7504 92.9104 65.7504 92.8973H65.759L65.854 92.9366C66.0094 93.0021 66.1993 93.0414 66.441 93.0677C66.2511 93.3362 66.1043 93.4804 65.9921 93.4804ZM66.8209 91.9605C66.8209 92.1898 66.7432 92.465 66.5878 92.7925C66.2597 92.7925 66.0353 92.6746 65.923 92.4388C65.9489 92.3995 65.9921 92.3536 66.0612 92.2946C66.1648 92.2488 66.2166 92.2029 66.2166 92.1636V92.1571C66.2166 92.0916 66.1302 92.0326 65.9489 91.9802C65.9489 91.9671 65.9576 91.9409 65.9662 91.9081C66.0094 91.8295 66.0784 91.7444 66.1648 91.6592C66.3461 91.5085 66.4928 91.4299 66.6051 91.4299C66.6223 91.4365 66.6396 91.443 66.6568 91.4496C66.7604 91.574 66.8122 91.7182 66.8122 91.8885V91.9605H66.8209ZM73.4166 92.9628C73.2785 93.1659 73.1231 93.3035 72.9418 93.3821C72.8641 93.3821 72.8209 93.3231 72.8209 93.2052V93.1397C72.8209 93.0808 72.8382 92.989 72.89 92.8646C73.2785 91.9736 73.5979 91.5282 73.8483 91.5282C73.9778 91.5282 74.0814 91.6854 74.1418 92.0064C73.8483 92.4322 73.6065 92.7532 73.4166 92.9628Z" fill="black"/>
<path d="M80.9362 91.9538H80.9103C80.8067 91.9538 80.6944 91.9997 80.5822 92.0849C80.4613 92.229 80.2973 92.4059 80.0815 92.6155C79.4081 93.2444 78.916 93.5588 78.6052 93.5588C78.5707 93.5588 78.5361 93.5523 78.4843 93.5392C78.3289 93.4737 78.2512 93.3164 78.2512 93.0675V92.9299C78.3376 92.9299 78.4239 92.9168 78.5189 92.9037C78.6743 92.8775 78.821 92.8382 78.9592 92.7989C79.1318 92.74 79.2872 92.6613 79.4513 92.55C79.7879 92.301 79.9606 92.0128 79.9606 91.6787C79.9606 91.528 79.9174 91.4036 79.8225 91.3053C79.6412 91.1612 79.4254 91.0891 79.1836 91.0891H79.1146C78.7002 91.0891 78.303 91.2725 77.9318 91.6459C77.5433 92.0456 77.3534 92.4714 77.3534 92.9037V92.9823C77.3534 93.1658 77.4052 93.3361 77.5002 93.4933C77.7505 93.8012 78.0354 93.9519 78.3635 93.9519H78.4153C78.7692 93.9519 79.1923 93.7685 79.6757 93.4081C79.9002 93.2313 80.0728 93.0872 80.1851 92.9758C80.47 92.6941 80.7031 92.4386 80.8844 92.2028C80.9707 92.1045 81.0139 92.0324 81.0139 92.0062V91.9997C81.0311 91.98 81.0052 91.9604 80.9362 91.9538ZM78.4066 92.4976C78.7433 91.9014 78.9764 91.6001 79.1059 91.6001H79.1146C79.1836 91.6001 79.2268 91.6918 79.2441 91.8818C79.2441 91.98 79.2182 92.0849 79.175 92.1897C79.0455 92.4583 78.7951 92.5958 78.398 92.5958H78.3807H78.3548L78.4066 92.4976Z" fill="black"/>
<rect x="36.8078" y="27.3824" width="38.3939" height="36.4548" fill="white"/>
<path d="M43.0186 35.328C43.3727 35.5976 44.5532 35.8765 46.4693 36.2204C48.9211 36.6666 52.1992 36.8711 55.5137 36.8711C58.8282 36.8711 62.1064 36.6108 64.5582 36.2204C66.4651 35.8765 67.6729 35.579 68.0089 35.328C68.1269 35.235 68.1451 35.0956 68.0179 35.0119C67.464 34.6587 62.9327 33.3944 55.5137 33.3944C48.0947 33.3944 44.1537 34.4913 43.0095 35.0119C42.8733 35.0677 42.9005 35.235 43.0186 35.328Z" fill="#28B3DD"/>
<path d="M68.3998 15.3601H43.6093C34.7101 15.3601 27.5 22.7412 27.5 31.8513V57.2203C27.5 66.3305 34.7101 73.7116 43.6093 73.7116H68.3907C77.2899 73.7116 84.5 66.3305 84.5 57.2203V31.8513C84.5091 22.7412 77.2989 15.3601 68.3998 15.3601ZM45.6706 32.8553C48.3131 32.3347 51.8274 32.0745 55.5142 32.0745C59.201 32.0745 62.7152 32.3347 65.3577 32.8553C68.5542 33.506 69.9617 34.1568 70.0252 35.3281C70.0252 36.5645 68.6086 37.3453 65.3577 37.931C62.7152 38.3865 59.201 38.6468 55.5142 38.6468C51.8274 38.6468 48.3131 38.3865 45.6706 37.931C42.4106 37.3453 41.0031 36.5645 41.0031 35.3281C41.0667 34.1475 42.4833 33.4967 45.6706 32.8553ZM72.4316 56.6533C72.4316 56.8485 72.2773 57.0065 72.0866 57.0065H64.9491C64.7584 57.0065 64.604 56.8485 64.604 56.6533V53.1394C64.604 52.907 64.4406 52.7024 64.2135 52.656L56.3768 51.1872C55.7957 51.0756 55.2327 50.8804 54.706 50.6108L39.5774 42.6348C39.5774 41.3612 40.7579 40.4409 41.9566 40.7756L54.6333 44.9681C54.6333 45.7118 55.0874 46.3718 55.7775 46.6135L61.4076 48.231C61.5256 48.2682 61.6437 48.1753 61.6437 48.0451V47.7848C61.6437 47.4595 61.4348 47.1806 61.1261 47.0969L56.9217 45.9814C56.2406 45.7397 55.7775 45.0797 55.7775 44.336C55.7775 43.3413 56.6402 42.5697 57.6027 42.6999L62.2612 43.1461C63.8866 43.3041 65.4758 43.741 66.9105 44.5312C71.0877 46.7994 72.4226 50.6015 72.4226 55.64V56.6533H72.4316Z" fill="#28B3DD"/>
<rect width="112" height="112" rx="24" fill="#39D192" fill-opacity="0.2"/>
<path d="M36.2085 78.1414V80.264H39.688V81.3612H36.2085V84.0288H34.8685V77.0514H40.1248V78.1342H36.2085V78.1414Z" fill="#28B3DD"/>
<path d="M42.1088 83.7488C41.6646 83.5193 41.3167 83.1894 41.0649 82.7807C40.8132 82.3647 40.6874 81.8986 40.6874 81.368C40.6874 80.8445 40.8132 80.3712 41.0649 79.9624C41.3167 79.5537 41.6646 79.231 42.1088 78.9943C42.553 78.7649 43.0564 78.6429 43.6117 78.6429C44.1743 78.6429 44.6777 78.7577 45.1219 78.9943C45.5661 79.2238 45.9141 79.5465 46.1658 79.9624C46.4175 80.3712 46.5434 80.8445 46.5434 81.368C46.5434 81.8914 46.4175 82.3647 46.1658 82.7807C45.9141 83.1966 45.5661 83.5193 45.1219 83.7488C44.6777 83.9782 44.1743 84.1001 43.6117 84.1001C43.0564 84.1001 42.5604 83.9854 42.1088 83.7488ZM44.7888 82.5727C45.0997 82.2643 45.2552 81.8628 45.2552 81.368C45.2552 80.8732 45.0997 80.4644 44.7888 80.1632C44.4778 79.8549 44.0855 79.7043 43.6191 79.7043C43.1453 79.7043 42.7529 79.8549 42.4494 80.1632C42.1458 80.4716 41.9904 80.8732 41.9904 81.368C41.9904 81.8628 42.1458 82.2715 42.4494 82.5727C42.7529 82.8811 43.1453 83.0317 43.6191 83.0317C44.0855 83.0317 44.4778 82.8811 44.7888 82.5727Z" fill="#28B3DD"/>
<path d="M48.7497 83.7488C48.3055 83.5193 47.9576 83.1894 47.7059 82.7807C47.4542 82.3647 47.3283 81.8986 47.3283 81.368C47.3283 80.8445 47.4542 80.3712 47.7059 79.9624C47.9576 79.5537 48.3055 79.231 48.7497 78.9943C49.1939 78.7649 49.6974 78.6429 50.2526 78.6429C50.8152 78.6429 51.3187 78.7577 51.7629 78.9943C52.2071 79.2238 52.555 79.5465 52.8067 79.9624C53.0584 80.3712 53.1843 80.8445 53.1843 81.368C53.1843 81.8914 53.0584 82.3647 52.8067 82.7807C52.555 83.1966 52.2071 83.5193 51.7629 83.7488C51.3187 83.9782 50.8152 84.1001 50.2526 84.1001C49.6974 84.1001 49.1939 83.9854 48.7497 83.7488ZM51.4223 82.5727C51.7333 82.2643 51.8887 81.8628 51.8887 81.368C51.8887 80.8732 51.7333 80.4644 51.4223 80.1632C51.1114 79.8549 50.719 79.7043 50.2526 79.7043C49.7788 79.7043 49.3864 79.8549 49.0829 80.1632C48.7793 80.4716 48.6239 80.8732 48.6239 81.368C48.6239 81.8628 48.7793 82.2715 49.0829 82.5727C49.3864 82.8811 49.7788 83.0317 50.2526 83.0317C50.7264 83.0317 51.1114 82.8811 51.4223 82.5727Z" fill="#28B3DD"/>
<path d="M59.8025 76.6353V84.0286H58.5662V83.3402C58.3515 83.5912 58.0924 83.7848 57.7814 83.9067C57.4705 84.0358 57.1225 84.0932 56.745 84.0932C56.2193 84.0932 55.7381 83.9784 55.3235 83.7561C54.9016 83.5338 54.5684 83.2111 54.3315 82.7952C54.0946 82.3793 53.9688 81.906 53.9688 81.3682C53.9688 80.8303 54.0872 80.357 54.3315 79.9411C54.5684 79.5324 54.9016 79.2097 55.3235 78.9874C55.7455 78.7651 56.2193 78.6503 56.745 78.6503C57.1077 78.6503 57.4409 78.7077 57.7444 78.8296C58.0479 78.9515 58.3071 79.1308 58.5143 79.3674V76.6353H59.8025ZM57.7296 82.8311C57.9739 82.6948 58.1738 82.5012 58.3145 82.2502C58.4551 81.9992 58.5292 81.7052 58.5292 81.3753C58.5292 81.0455 58.4551 80.7514 58.3145 80.5005C58.1738 80.2495 57.9739 80.0559 57.7296 79.9196C57.4853 79.7834 57.204 79.7188 56.893 79.7188C56.5821 79.7188 56.3082 79.7905 56.0565 79.9196C55.8122 80.0559 55.6123 80.2495 55.4716 80.5005C55.3309 80.7514 55.2569 81.0455 55.2569 81.3753C55.2569 81.7052 55.3309 81.9992 55.4716 82.2502C55.6123 82.5012 55.8122 82.6948 56.0565 82.8311C56.3008 82.9673 56.5821 83.0318 56.893 83.0318C57.204 83.0318 57.4853 82.9673 57.7296 82.8311Z" fill="#28B3DD"/>
<path d="M66.6286 81.7697H62.3199C62.394 82.1641 62.5939 82.4724 62.9122 82.7019C63.2305 82.9314 63.6303 83.0461 64.1041 83.0461C64.7112 83.0461 65.2072 82.8525 65.5996 82.4653L66.2881 83.2326C66.0438 83.5194 65.7254 83.7346 65.3553 83.878C64.9777 84.0214 64.5557 84.1003 64.0819 84.1003C63.4748 84.1003 62.9492 83.9855 62.4902 83.7489C62.0312 83.5194 61.6758 83.1896 61.4241 82.7808C61.1724 82.3649 61.0466 81.8988 61.0466 81.3681C61.0466 80.8518 61.165 80.3857 61.4093 79.9697C61.6536 79.5538 61.9942 79.2311 62.4236 79.0016C62.853 78.7722 63.3416 78.6503 63.882 78.6503C64.4151 78.6503 64.8963 78.765 65.3183 78.9945C65.7402 79.224 66.066 79.5467 66.3029 79.9626C66.5398 80.3785 66.6582 80.859 66.6582 81.404C66.6508 81.4828 66.6434 81.6047 66.6286 81.7697ZM62.8308 79.9984C62.5494 80.2351 62.3718 80.5506 62.3125 80.9378H65.4293C65.3775 80.5506 65.2072 80.2422 64.9259 79.9984C64.6446 79.7618 64.2966 79.6399 63.8746 79.6399C63.46 79.647 63.1121 79.7618 62.8308 79.9984Z" fill="#28B3DD"/>
<path d="M71.6851 79.2095C72.1145 79.5824 72.3292 80.1489 72.3292 80.909V84.0284H71.1151V83.383C70.9596 83.6125 70.7301 83.7918 70.4414 83.9137C70.1527 84.0356 69.7973 84.1001 69.3901 84.1001C68.9829 84.1001 68.6202 84.0284 68.3092 83.8994C67.9983 83.7631 67.7614 83.5767 67.5911 83.3328C67.4209 83.089 67.3394 82.8165 67.3394 82.5082C67.3394 82.0277 67.5245 81.6476 67.8873 81.3536C68.2574 81.0668 68.8349 80.9234 69.6196 80.9234H71.041V80.8445C71.041 80.4716 70.9226 80.1847 70.6931 79.9839C70.4636 79.7831 70.123 79.6828 69.6714 79.6828C69.3605 79.6828 69.057 79.7258 68.7608 79.819C68.4647 79.9122 68.213 80.0413 68.0057 80.2062L67.5023 79.3027C67.791 79.0876 68.139 78.9298 68.5387 78.8151C68.9459 78.7003 69.3753 78.6429 69.8269 78.6429C70.6413 78.6501 71.2631 78.8366 71.6851 79.2095ZM70.5154 82.9815C70.7671 82.838 70.9448 82.6372 71.0485 82.3719V81.7552H69.7233C68.9829 81.7552 68.6128 81.9918 68.6128 82.4651C68.6128 82.6946 68.709 82.8739 68.8941 83.003C69.0792 83.1392 69.3383 83.2038 69.664 83.2038C69.9824 83.1894 70.2637 83.1177 70.5154 82.9815Z" fill="#28B3DD"/>
<path d="M73.9804 76.6353H75.2611V84.0286H73.973V76.6353H73.9804Z" fill="#28B3DD"/>
<path d="M77.3409 83.9282C76.9189 83.8134 76.5783 83.67 76.3192 83.4979L76.8152 82.5513C77.0595 82.7091 77.3557 82.8382 77.7036 82.9386C78.0516 83.0318 78.3921 83.082 78.7253 83.082C79.4952 83.082 79.8802 82.8884 79.8802 82.494C79.8802 82.3075 79.7839 82.1784 79.584 82.1067C79.3916 82.035 79.0732 81.9633 78.6438 81.8988C78.1922 81.8342 77.8221 81.7553 77.5407 81.6693C77.2594 81.5832 77.0077 81.4326 76.8004 81.2175C76.5931 81.0024 76.4895 80.7012 76.4895 80.314C76.4895 79.812 76.7042 79.4032 77.141 79.102C77.5778 78.8009 78.1626 78.6503 78.9029 78.6503C79.2805 78.6503 79.6581 78.6933 80.0356 78.7722C80.4132 78.8582 80.7241 78.9658 80.9611 79.1092L80.465 80.0558C79.9986 79.7905 79.473 79.6542 78.8881 79.6542C78.5106 79.6542 78.2219 79.7116 78.0294 79.8192C77.8369 79.9267 77.7332 80.0701 77.7332 80.2494C77.7332 80.4502 77.8369 80.5865 78.0442 80.6725C78.2515 80.7586 78.5772 80.8303 79.014 80.9092C79.4508 80.9737 79.8135 81.0526 80.0949 81.1386C80.3762 81.2247 80.6205 81.3681 80.8204 81.5761C81.0203 81.784 81.1239 82.0709 81.1239 82.4509C81.1239 82.9457 80.9018 83.3473 80.4576 83.6485C80.0134 83.9497 79.4064 84.1003 78.6364 84.1003C78.1996 84.1003 77.7702 84.0429 77.3409 83.9282Z" fill="#28B3DD"/>
</svg>
