<svg width="327" height="338" viewBox="0 0 327 338" fill="none" xmlns="http://www.w3.org/2000/svg">
<path d="M260.085 249.266V266.239H257.266V268.066H260.103V279.426H313.103V269.107H309.174V266.856H313.103V263.477H314.835V261.942H312.76V249.266H260.085Z" fill="#F5F5F5"/>
<path d="M299.012 249.317V279.258H313.089V268.92H309.164V266.856L313.089 266.924V263.55H314.871L314.835 261.805L312.765 261.755V249.266L299.012 249.317Z" fill="#E1E1E1"/>
<path d="M300.018 267.837C300.018 267.942 290.423 268.025 278.598 268.025C266.774 268.025 257.174 267.942 257.174 267.837C257.174 267.732 266.769 267.65 278.598 267.65C290.427 267.65 300.018 267.737 300.018 267.837Z" fill="#E1E1E1"/>
<path d="M300.018 266.116C300.018 266.216 290.423 266.303 278.598 266.303C266.774 266.303 257.174 266.216 257.174 266.116C257.174 266.015 266.769 265.924 278.598 265.924C290.427 265.924 300.018 266.011 300.018 266.116Z" fill="#E1E1E1"/>
<path d="M302.772 261.472C302.772 261.577 293.177 261.664 281.348 261.664C269.519 261.664 259.924 261.577 259.924 261.472C259.924 261.367 269.519 261.285 281.348 261.285C293.177 261.285 302.772 261.371 302.772 261.472Z" fill="#E1E1E1"/>
<path d="M303.037 274.12C303.037 274.221 293.442 274.308 281.613 274.308C269.784 274.308 260.189 274.221 260.189 274.12C260.189 274.02 269.784 273.933 281.613 273.933C293.442 273.933 303.037 274.015 303.037 274.12Z" fill="#E1E1E1"/>
<path d="M264.082 278.604V295.577H261.25V297.404H264.082V308.765H317.082V298.431H313.158V296.194H317.082V292.815H318.828V291.28H316.753V278.604H264.082Z" fill="#F5F5F5"/>
<path d="M303.015 278.655V308.596H317.092V298.258H313.162V296.194L317.092 296.262V292.888H318.869L318.832 291.143L316.763 291.093V278.604L303.015 278.655Z" fill="#E1E1E1"/>
<path d="M304.02 297.175C304.02 297.281 294.425 297.367 282.596 297.367C270.767 297.367 261.172 297.281 261.172 297.175C261.172 297.07 270.767 296.988 282.596 296.988C294.425 296.988 304.02 297.061 304.02 297.175Z" fill="#E1E1E1"/>
<path d="M304.02 295.454C304.02 295.555 294.425 295.641 282.596 295.641C270.767 295.641 261.172 295.555 261.172 295.454C261.172 295.354 270.767 295.267 282.596 295.267C294.425 295.267 304.02 295.349 304.02 295.454Z" fill="#E1E1E1"/>
<path d="M306.771 290.81C306.771 290.915 297.176 291.002 285.347 291.002C273.518 291.002 263.927 290.915 263.927 290.81C263.927 290.705 273.522 290.623 285.347 290.623C297.171 290.623 306.771 290.71 306.771 290.81Z" fill="#E1E1E1"/>
<path d="M307.035 303.454C307.035 303.559 297.44 303.641 285.611 303.641C273.782 303.641 264.188 303.559 264.188 303.454C264.188 303.349 273.782 303.267 285.611 303.267C297.44 303.267 307.035 303.354 307.035 303.454Z" fill="#E1E1E1"/>
<path d="M259.435 307.564V324.541H256.603V326.368H259.435V337.728H312.435V327.386H308.511V325.135H312.435V321.756H314.181V320.221H312.111V307.564H259.435Z" fill="#F5F5F5"/>
<path d="M298.368 307.596V337.537H312.445V327.199H308.515V325.139L312.445 325.208V321.829L314.222 321.833L314.19 320.084L312.116 320.034V307.55L298.368 307.596Z" fill="#E1E1E1"/>
<path d="M299.373 326.121C299.373 326.222 289.778 326.308 277.949 326.308C266.12 326.308 256.525 326.222 256.525 326.121C256.525 326.021 266.12 325.934 277.949 325.934C289.778 325.934 299.373 326.016 299.373 326.121Z" fill="#E1E1E1"/>
<path d="M299.373 324.395C299.373 324.5 289.778 324.582 277.949 324.582C266.12 324.582 256.525 324.5 256.525 324.395C256.525 324.29 266.12 324.208 277.949 324.208C289.778 324.208 299.373 324.29 299.373 324.395Z" fill="#E1E1E1"/>
<path d="M302.124 319.756C302.124 319.861 292.529 319.943 280.704 319.943C268.88 319.943 259.28 319.861 259.28 319.756C259.28 319.651 268.875 319.568 280.704 319.568C292.533 319.568 302.124 319.651 302.124 319.756Z" fill="#E1E1E1"/>
<path d="M302.389 332.4C302.389 332.505 292.794 332.587 280.965 332.587C269.136 332.587 259.545 332.505 259.545 332.4C259.545 332.295 269.14 332.212 280.965 332.212C292.789 332.212 302.389 332.295 302.389 332.4Z" fill="#E1E1E1"/>
<path d="M13.6474 249.266V266.239H10.8101V268.066H13.6474V279.426H66.6475V269.107H62.7182V266.856H66.6475V263.477H68.3929V261.942H66.3185V249.266H13.6474Z" fill="#F5F5F5"/>
<path d="M52.5752 249.317V279.258H66.6522V268.92H62.7274V266.856L66.6522 266.924V263.55H68.4341L68.3976 261.805L66.3278 261.755V249.266L52.5752 249.317Z" fill="#E1E1E1"/>
<path d="M53.5806 267.837C53.5806 267.942 43.9857 268.025 32.1612 268.025C20.3367 268.025 10.7373 267.942 10.7373 267.837C10.7373 267.732 20.3321 267.65 32.1612 267.65C43.9902 267.65 53.5806 267.737 53.5806 267.837Z" fill="#E1E1E1"/>
<path d="M53.5806 266.116C53.5806 266.216 43.9857 266.303 32.1612 266.303C20.3367 266.303 10.7373 266.216 10.7373 266.116C10.7373 266.015 20.3321 265.924 32.1612 265.924C43.9902 265.924 53.5806 266.011 53.5806 266.116Z" fill="#E1E1E1"/>
<path d="M56.3357 261.472C56.3357 261.577 46.7408 261.664 34.9117 261.664C23.0826 261.664 13.4878 261.577 13.4878 261.472C13.4878 261.367 23.0826 261.285 34.9117 261.285C46.7408 261.285 56.3357 261.371 56.3357 261.472Z" fill="#E1E1E1"/>
<path d="M56.6008 274.12C56.6008 274.221 47.0059 274.308 35.1769 274.308C23.3478 274.308 13.7529 274.221 13.7529 274.12C13.7529 274.02 23.3478 273.933 35.1769 273.933C47.0059 273.933 56.6008 274.015 56.6008 274.12Z" fill="#E1E1E1"/>
<path d="M269.09 223.229V240.202H266.252V242.029H269.09V253.408H322.09V243.07H318.161V240.819H322.09V237.44H323.835V235.905H321.761V223.229H269.09Z" fill="#F5F5F5"/>
<path d="M308.018 223.28V253.221H322.095V242.883H318.17V240.819L322.095 240.892V237.513H323.876L323.84 235.768L321.77 235.718V223.229L308.018 223.28Z" fill="#E1E1E1"/>
<path d="M309.022 241.81C309.022 241.915 299.428 242.001 287.603 242.001C275.779 242.001 266.179 241.915 266.179 241.81C266.179 241.704 275.774 241.622 287.603 241.622C299.432 241.622 309.022 241.7 309.022 241.81Z" fill="#E1E1E1"/>
<path d="M309.022 240.079C309.022 240.184 299.428 240.266 287.603 240.266C275.779 240.266 266.179 240.184 266.179 240.079C266.179 239.974 275.774 239.892 287.603 239.892C299.432 239.892 309.022 239.983 309.022 240.079Z" fill="#E1E1E1"/>
<path d="M311.773 235.44C311.773 235.54 302.178 235.627 290.354 235.627C278.529 235.627 268.93 235.54 268.93 235.44C268.93 235.339 278.525 235.248 290.354 235.248C302.183 235.248 311.773 235.335 311.773 235.44Z" fill="#E1E1E1"/>
<path d="M312.039 248.083C312.039 248.188 302.444 248.271 290.619 248.271C278.795 248.271 269.195 248.188 269.195 248.083C269.195 247.978 278.79 247.896 290.619 247.896C302.448 247.896 312.039 247.978 312.039 248.083Z" fill="#E1E1E1"/>
<path d="M16.4804 278.604V295.577H13.6431V297.404H16.4804V308.765H69.4805V298.431H65.5512V296.194H69.4805V292.815H71.2258V291.28H69.1515V278.604H16.4804Z" fill="#F5F5F5"/>
<path d="M55.3896 278.655V308.596H69.4666V298.258H65.5419V296.194L69.4666 296.262V292.888H71.2485L71.212 291.143L69.1423 291.093V278.604L55.3896 278.655Z" fill="#E1E1E1"/>
<path d="M56.395 297.175C56.395 297.281 46.8002 297.367 34.9757 297.367C23.1512 297.367 13.5518 297.281 13.5518 297.175C13.5518 297.07 23.1466 296.988 34.9757 296.988C46.8048 296.988 56.395 297.061 56.395 297.175Z" fill="#E1E1E1"/>
<path d="M56.395 295.454C56.395 295.555 46.8002 295.641 34.9757 295.641C23.1512 295.641 13.5518 295.555 13.5518 295.454C13.5518 295.354 23.1466 295.267 34.9757 295.267C46.8048 295.267 56.395 295.349 56.395 295.454Z" fill="#E1E1E1"/>
<path d="M59.1501 290.81C59.1501 290.915 49.5553 291.002 37.7262 291.002C25.8971 291.002 16.3022 290.915 16.3022 290.81C16.3022 290.705 25.8971 290.623 37.7262 290.623C49.5553 290.623 59.1501 290.71 59.1501 290.81Z" fill="#E1E1E1"/>
<path d="M59.4289 303.454C59.4289 303.559 49.8341 303.641 38.005 303.641C26.1759 303.641 16.5811 303.559 16.5811 303.454C16.5811 303.349 26.1759 303.267 38.005 303.267C49.8341 303.267 59.4289 303.354 59.4289 303.454Z" fill="#E1E1E1"/>
<path d="M22.7856 307.564V324.541H19.9482V326.368H22.7856V337.728H75.7857V327.386H71.8564V325.135H75.7857V321.756H77.531V320.221H75.4567V307.564H22.7856Z" fill="#F5F5F5"/>
<path d="M61.7134 307.596V337.537H75.7904V327.199H71.8656V325.139L75.7904 325.208V321.829L77.5723 321.833L77.5357 320.084L75.466 320.034V307.55L61.7134 307.596Z" fill="#E1E1E1"/>
<path d="M62.7183 326.121C62.7183 326.222 53.1234 326.308 41.2989 326.308C29.4744 326.308 19.875 326.222 19.875 326.121C19.875 326.021 29.4698 325.934 41.2989 325.934C53.128 325.934 62.7183 326.016 62.7183 326.121Z" fill="#E1E1E1"/>
<path d="M62.7183 324.395C62.7183 324.5 53.1234 324.582 41.2989 324.582C29.4744 324.582 19.875 324.5 19.875 324.395C19.875 324.29 29.4698 324.208 41.2989 324.208C53.128 324.208 62.7183 324.29 62.7183 324.395Z" fill="#E1E1E1"/>
<path d="M65.4733 319.756C65.4733 319.861 55.8785 319.943 44.0494 319.943C32.2204 319.943 22.6255 319.861 22.6255 319.756C22.6255 319.651 32.2204 319.568 44.0494 319.568C55.8785 319.568 65.4733 319.651 65.4733 319.756Z" fill="#E1E1E1"/>
<path d="M65.7385 332.4C65.7385 332.505 56.1436 332.587 44.3145 332.587C32.4855 332.587 22.8906 332.505 22.8906 332.4C22.8906 332.295 32.4855 332.212 44.3145 332.212C56.1436 332.212 65.7385 332.295 65.7385 332.4Z" fill="#E1E1E1"/>
<path d="M197.905 307.915V324.354H195.164V326.139H197.905V337.148H249.279V327.144H245.473V324.966H249.279V321.692H250.969V320.203H248.964V307.915H197.905Z" fill="#F5F5F5"/>
<path d="M235.636 307.966V336.984H249.279V326.966H245.473V324.966L249.279 325.034V321.76H251.001L250.969 320.071L248.963 320.021V307.92L235.636 307.966Z" fill="#E1E1E1"/>
<path d="M236.609 325.915C236.609 326.02 227.316 326.098 215.848 326.098C204.38 326.098 195.086 326.02 195.086 325.915C195.086 325.81 204.38 325.737 215.848 325.737C227.316 325.737 236.609 325.829 236.609 325.915Z" fill="#E1E1E1"/>
<path d="M236.609 324.249C236.609 324.349 227.316 324.427 215.848 324.427C204.38 324.427 195.086 324.349 195.086 324.249C195.086 324.148 204.38 324.066 215.848 324.066C227.316 324.066 236.609 324.148 236.609 324.249Z" fill="#E1E1E1"/>
<path d="M239.277 319.751C239.277 319.851 229.979 319.934 218.516 319.934C207.052 319.934 197.754 319.851 197.754 319.751C197.754 319.651 207.048 319.568 218.516 319.568C229.984 319.568 239.277 319.651 239.277 319.751Z" fill="#E1E1E1"/>
<path d="M239.533 332.007C239.533 332.107 230.235 332.185 218.772 332.185C207.308 332.185 198.01 332.107 198.01 332.007C198.01 331.906 207.304 331.824 218.772 331.824C230.24 331.824 239.533 331.902 239.533 332.007Z" fill="#E1E1E1"/>
<path d="M102.875 278.604V295.577H100.042V297.404H102.875V308.765H155.875V298.431H151.951V296.194H155.875V292.815H157.621V291.28H155.546V278.604H102.875Z" fill="#F5F5F5"/>
<path d="M141.808 278.655V308.596H155.885V298.258H151.955V296.194L155.885 296.262V292.888H157.662L157.625 291.143L155.556 291.093V278.604L141.808 278.655Z" fill="#E1E1E1"/>
<path d="M142.812 297.175C142.812 297.281 133.217 297.367 121.388 297.367C109.559 297.367 99.9644 297.281 99.9644 297.175C99.9644 297.07 109.559 296.988 121.388 296.988C133.217 296.988 142.812 297.061 142.812 297.175Z" fill="#E1E1E1"/>
<path d="M142.812 295.454C142.812 295.555 133.217 295.641 121.388 295.641C109.559 295.641 99.9644 295.555 99.9644 295.454C99.9644 295.354 109.559 295.267 121.388 295.267C133.217 295.267 142.812 295.349 142.812 295.454Z" fill="#E1E1E1"/>
<path d="M145.563 290.81C145.563 290.915 135.968 291.002 124.139 291.002C112.31 291.002 102.715 290.915 102.715 290.81C102.715 290.705 112.31 290.623 124.139 290.623C135.968 290.623 145.563 290.71 145.563 290.81Z" fill="#E1E1E1"/>
<path d="M145.828 303.454C145.828 303.559 136.233 303.641 124.404 303.641C112.575 303.641 102.98 303.559 102.98 303.454C102.98 303.349 112.575 303.267 124.404 303.267C136.233 303.267 145.828 303.354 145.828 303.454Z" fill="#E1E1E1"/>
<path d="M98.2283 307.564V324.541H95.3955V326.368H98.2283V337.728H151.228V327.386H147.304V325.135H151.228V321.756H152.974V320.221H150.899V307.564H98.2283Z" fill="#F5F5F5"/>
<path d="M137.161 307.596V337.537H151.238V327.199H147.308V325.139L151.238 325.208V321.829L153.015 321.833L152.978 320.084L150.909 320.034V307.55L137.161 307.596Z" fill="#E1E1E1"/>
<path d="M138.166 326.121C138.166 326.222 128.571 326.308 116.742 326.308C104.913 326.308 95.3184 326.222 95.3184 326.121C95.3184 326.021 104.913 325.934 116.742 325.934C128.571 325.934 138.166 326.016 138.166 326.121Z" fill="#E1E1E1"/>
<path d="M138.166 324.395C138.166 324.5 128.571 324.582 116.742 324.582C104.913 324.582 95.3184 324.5 95.3184 324.395C95.3184 324.29 104.913 324.208 116.742 324.208C128.571 324.208 138.166 324.29 138.166 324.395Z" fill="#E1E1E1"/>
<path d="M140.916 319.756C140.916 319.861 131.322 319.943 119.493 319.943C107.664 319.943 98.0732 319.861 98.0732 319.756C98.0732 319.651 107.668 319.568 119.493 319.568C131.317 319.568 140.916 319.651 140.916 319.756Z" fill="#E1E1E1"/>
<path d="M141.181 332.4C141.181 332.505 131.586 332.587 119.757 332.587C107.928 332.587 98.3335 332.505 98.3335 332.4C98.3335 332.295 107.928 332.212 119.757 332.212C131.586 332.212 141.181 332.295 141.181 332.4Z" fill="#E1E1E1"/>
<path d="M0 276.39C0.575691 280.993 4.11208 284.792 8.22415 286.952C12.3362 289.111 16.992 289.915 21.5564 290.751C26.1208 291.586 30.7766 292.527 34.7607 294.906L42.6696 272.924C42.6696 272.924 32.9149 268.413 22.822 268.814C14.6527 269.139 8.16933 258.312 8.16933 258.312L0 276.39Z" fill="#E1E1E1"/>
<path d="M35.0805 332.249C42.4549 324.655 50.7156 320.505 61.2654 319.587C58.7707 315.706 54.3479 308.144 51.8533 304.267C38.6032 304.336 28.3002 311.806 21.3325 322.943C26.2305 326.473 30.1872 328.719 35.0805 332.249Z" fill="#E1E1E1"/>
<path d="M285.794 93.2874C287.183 92.4486 288.678 91.799 290.24 91.3559L291.154 86.9586L298.587 86.8262L299.656 91.1915C301.233 91.5785 302.752 92.1743 304.171 92.9632L307.926 90.502L313.281 95.6893L310.951 99.5295C311.791 100.917 312.441 102.412 312.884 103.972L317.288 104.886L317.416 112.32L313.053 113.388C312.663 114.964 312.065 116.481 311.275 117.9L313.738 121.653L308.575 127L304.733 124.671C303.343 125.51 301.848 126.159 300.287 126.603L299.373 131L291.939 131.133L290.866 126.767C289.29 126.38 287.774 125.784 286.356 124.996L282.596 127.457L277.246 122.292L279.576 118.457C278.737 117.067 278.087 115.571 277.643 114.009L273.243 113.096L273.115 105.662L277.479 104.593C277.867 103.019 278.465 101.503 279.256 100.087L276.793 96.3286L281.956 90.9815L285.799 93.3103L285.794 93.2874ZM289.76 103.187C289.032 103.94 288.46 104.829 288.076 105.803C287.692 106.778 287.503 107.818 287.522 108.865C287.54 109.912 287.764 110.945 288.182 111.905C288.6 112.865 289.203 113.734 289.956 114.461C291.479 115.929 293.522 116.733 295.638 116.696C297.753 116.659 299.767 115.785 301.237 114.265C302.706 112.743 303.511 110.701 303.474 108.587C303.437 106.473 302.562 104.46 301.041 102.991C300.287 102.263 299.398 101.691 298.423 101.308C297.448 100.924 296.407 100.736 295.36 100.754C294.312 100.772 293.278 100.996 292.318 101.414C291.357 101.831 290.488 102.434 289.76 103.187Z" fill="#ECECEC"/>
<path d="M28.757 166.087C30.4323 165.077 32.2345 164.294 34.1164 163.759L35.2221 158.457L44.1864 158.302L45.4749 163.562C47.3762 164.028 49.2064 164.747 50.9165 165.699L55.449 162.731L61.9003 168.955L59.0904 173.585C60.1022 175.261 60.8858 177.064 61.4206 178.946L66.7252 180.047L66.8851 189.01L61.6216 190.298C61.151 192.197 60.4304 194.026 59.4788 195.736L62.4486 200.261L56.2303 206.709L51.5973 203.905C49.9228 204.916 48.1203 205.698 46.2379 206.229L45.1322 211.535L36.1679 211.691L34.8749 206.43C32.975 205.964 31.1463 205.246 29.4378 204.293L24.9053 207.261L18.4539 201.038L21.2639 196.407C20.2484 194.734 19.4646 192.931 18.9337 191.047L13.6246 189.946L13.4692 180.983L18.7327 179.695C19.2013 177.795 19.922 175.966 20.8755 174.257L17.9057 169.727L24.1332 163.284L28.7662 166.087H28.757ZM33.5361 178.024C32.6557 178.93 31.9631 180.002 31.4983 181.177C31.0335 182.352 30.8056 183.607 30.8277 184.87C30.8498 186.133 31.1214 187.38 31.627 188.537C32.1326 189.695 32.8621 190.742 33.7737 191.617C34.6808 192.497 35.753 193.19 36.9286 193.654C38.1042 194.119 39.3601 194.346 40.6241 194.324C41.888 194.302 43.1352 194.031 44.2938 193.525C45.4525 193.02 46.4998 192.291 47.3756 191.38C49.1471 189.545 50.1172 187.083 50.0727 184.534C50.0281 181.985 48.9725 179.558 47.138 177.786C46.2294 176.909 45.1568 176.219 43.9814 175.757C42.8061 175.294 41.551 175.067 40.2879 175.089C39.0248 175.111 37.7783 175.381 36.6199 175.885C35.4614 176.389 34.4135 177.115 33.5361 178.024Z" fill="#ECECEC"/>
<path d="M87.9599 34.4088L5.40332 49.3286L17.2555 114.833L99.8121 99.9134L87.9599 34.4088Z" fill="white"/>
<path d="M87.958 34.4093L5.40137 49.3291L8.50304 66.4714L91.0597 51.5516L87.958 34.4093Z" fill="#ECECEC"/>
<path d="M26.5321 78.3787C26.4379 78.0894 26.3661 77.7932 26.3174 77.4929C26.1894 76.8673 26.0203 76.0636 25.8193 75.0819C25.4035 73.0179 24.8233 70.1047 24.1699 66.6206L24.4349 66.8033L12.6378 68.9722C12.5876 69.0362 13.0354 68.3969 12.848 68.6709V68.7165V68.7667V68.8672L12.8846 69.0727L12.9577 69.4745L13.0993 70.2736C13.1952 70.8033 13.2912 71.3284 13.3826 71.8535C13.5699 72.8901 13.7527 73.9129 13.9309 74.9038C14.2781 76.881 14.607 78.7486 14.9132 80.4746L14.6482 80.292C18.1434 79.6801 21.0722 79.2007 23.1556 78.8719L25.5908 78.4883C25.8929 78.4328 26.1981 78.3962 26.5046 78.3787C26.2461 78.468 25.98 78.5337 25.7096 78.5751L23.3475 79.0637C21.2961 79.4746 18.3216 80.0637 14.7395 80.7349L14.5157 80.776L14.4746 80.5523C14.1547 78.8354 13.8075 76.9678 13.442 74.9906L12.88 71.9449C12.7886 71.4243 12.6927 70.8992 12.5967 70.3649L12.4505 69.5658L12.3774 69.164L12.3408 68.9631V68.8626V68.8124V68.7713L12.551 68.4654L24.3618 66.3649L24.5903 66.3284L24.6268 66.5475C25.2527 70.1412 25.7416 73.1275 26.0752 75.196L26.4453 77.5751C26.497 77.84 26.5261 78.1089 26.5321 78.3787Z" fill="#E1E1E1"/>
<path d="M41.9844 75.5977C41.8958 75.3084 41.8241 75.0141 41.7696 74.7165L41.2762 72.3009C40.8558 70.237 40.2801 67.3283 39.6268 63.8396L39.8918 64.0223L28.0901 66.1913L28.3003 65.8899V65.9264V65.9812V66.0817L28.3368 66.2826L28.4099 66.6844L28.5562 67.4835C28.6521 68.0178 28.7435 68.5429 28.8394 69.0634C29.0268 70.1045 29.2049 71.1228 29.3831 72.1137C29.7304 74.0909 30.0639 75.9631 30.3655 77.6845L30.1005 77.5019C33.5957 76.89 36.529 76.4151 38.6079 76.0818L41.0431 75.7028C41.345 75.6452 41.6502 75.6071 41.9569 75.5886C41.6984 75.6779 41.4323 75.7436 41.1619 75.785L38.7998 76.2736C36.7483 76.6891 33.7739 77.2781 30.1918 77.9494L29.968 77.9905L29.9268 77.7667L28.8943 72.205C28.7115 71.2141 28.5287 70.1959 28.3368 69.1548C28.2393 68.6342 28.1434 68.1091 28.049 67.5794L27.9028 66.7803L27.8297 66.3739L27.7931 66.173V66.0725V66.0223V65.9766C27.6058 66.2506 28.0535 65.6068 28.0078 65.6707L39.8186 63.5748L40.0425 63.5337L40.0837 63.7574C40.7096 67.3465 41.1985 70.3374 41.5275 72.4014L41.8975 74.785C41.9499 75.0529 41.979 75.3248 41.9844 75.5977Z" fill="#E1E1E1"/>
<path d="M57.4369 72.794C57.3492 72.5032 57.279 72.2074 57.2267 71.9082C57.0942 71.278 56.9297 70.4789 56.7287 69.4972C56.3129 67.4332 55.7326 64.52 55.0793 61.0359L55.3443 61.2186L43.5472 63.3875C43.4969 63.4515 43.9447 62.8122 43.7574 63.0816V63.1227V63.1729V63.2734L43.7939 63.4743L43.867 63.8761L44.0087 64.6798C44.1046 65.2095 44.2005 65.7346 44.2919 66.2551L44.8402 69.3054L45.818 74.8762L45.5575 74.6936C49.0528 74.0863 51.9815 73.6068 54.065 73.2735L56.4957 72.8945C56.7978 72.8395 57.1029 72.8029 57.4095 72.7849C57.1518 72.8719 56.8874 72.9375 56.619 72.9813L54.2569 73.4653C52.2054 73.8808 49.231 74.4699 45.6444 75.1411L45.425 75.1822L45.3839 74.9584C45.0641 73.237 44.7168 71.3739 44.3513 69.3967L43.7893 66.3465C43.6934 65.8259 43.602 65.3008 43.5015 64.7711L43.3599 63.972L43.2867 63.5702L43.2502 63.3647V63.2643V63.214V63.1775C43.0583 63.4469 43.5061 62.8031 43.4604 62.8716L55.2712 60.7711L55.4951 60.73L55.5362 60.9537C56.1621 64.5474 56.651 67.5337 56.9845 69.5977L57.3546 71.9812C57.4075 72.249 57.435 72.5211 57.4369 72.794Z" fill="#E1E1E1"/>
<path d="M72.8934 69.9993C72.7992 69.71 72.7274 69.4138 72.6787 69.1135C72.5507 68.4864 72.3847 67.6827 72.1806 66.7025C71.7649 64.6385 71.1892 61.7253 70.5358 58.2412L70.7962 58.4239L58.9991 60.5928L59.2093 60.2915V60.3371V60.3874V60.4878L59.2459 60.6933L59.319 61.0951L59.4652 61.8942C59.5566 62.4239 59.6525 62.949 59.7485 63.4696C59.9312 64.5107 60.1125 65.529 60.2922 66.5244C60.6394 68.5016 60.9684 70.3692 61.2745 72.0952L61.0095 71.9126C64.5048 71.3007 67.4381 70.8213 69.5169 70.4925L71.9522 70.1089C72.2542 70.0537 72.5594 70.0171 72.866 69.9993C72.6074 70.0886 72.3414 70.1543 72.071 70.1957L69.7088 70.6843C67.6574 71.0952 64.6829 71.6843 61.1009 72.3555L60.877 72.3966L60.8359 72.1729C60.5161 70.456 60.1688 68.5884 59.8033 66.6112C59.6205 65.6203 59.4332 64.602 59.2459 63.5655C59.1499 63.0449 59.054 62.5198 58.958 61.9855L58.8118 61.1865L58.7387 60.7846L58.7022 60.5837V60.4832V60.433V60.3919C58.5148 60.6659 58.958 60.0175 58.9169 60.086L70.7277 57.9855L70.9516 57.949L70.9881 58.1682C71.6187 61.7618 72.1075 64.7481 72.4365 66.8166L72.8066 69.1957C72.8583 69.4606 72.8874 69.7295 72.8934 69.9993Z" fill="#E1E1E1"/>
<path d="M88.346 67.2048C88.258 66.9156 88.1878 66.6213 88.1359 66.3235C88.0019 65.6934 87.8359 64.8882 87.6379 63.9079C87.2221 61.844 86.6418 58.9353 85.9885 55.4467L86.2535 55.6293L74.4518 57.7892C74.4061 57.8577 74.8539 57.2138 74.6665 57.4878V57.5243V57.5791V57.6796L74.7031 57.8805L74.7762 58.2823L74.9224 59.0814C75.0183 59.6157 75.1143 60.1408 75.2057 60.6613C75.3915 61.7024 75.5727 62.7192 75.7494 63.7116C76.1012 65.6888 76.4302 67.561 76.7317 69.2824L76.4667 69.0998C79.9666 68.4879 82.8953 68.013 84.9787 67.6797L87.4094 67.3007C87.7112 67.2431 88.0165 67.205 88.3232 67.1865C88.0647 67.2758 87.7986 67.3415 87.5282 67.3829L85.1661 67.8715C83.1146 68.287 80.1402 68.876 76.5581 69.5473L76.3342 69.5884L76.2931 69.3646C75.9733 67.6431 75.6306 65.7755 75.2605 63.8029C75.0808 62.8105 74.895 61.7938 74.7031 60.7527C74.6056 60.2321 74.5097 59.707 74.4153 59.1773L74.269 58.3736L74.1959 57.9718L74.1594 57.7709V57.6704V57.6202V57.5745C73.9675 57.8485 74.4153 57.2047 74.3696 57.2686L86.1804 55.1727L86.4042 55.1316L86.4454 55.3553C87.0713 58.9444 87.5602 61.9353 87.8892 63.9993C88.0414 64.9673 88.1663 65.7618 88.2638 66.3829C88.3142 66.654 88.3417 66.929 88.346 67.2048Z" fill="#E1E1E1"/>
<path d="M29.2735 93.5522C29.18 93.2627 29.1082 92.9666 29.0588 92.6664C28.9308 92.0362 28.7617 91.2371 28.5607 90.2554C28.1449 88.1914 27.5647 85.2782 26.9113 81.7941L27.1764 81.9768L15.3792 84.1457C15.329 84.2097 15.7768 83.5704 15.5894 83.8444V83.89V83.9403V84.0407L15.626 84.2416L15.6991 84.648L15.8407 85.4471C15.9367 85.9768 16.0326 86.5019 16.124 87.0225L16.6723 90.0773C17.0195 92.0545 17.3485 93.9221 17.6501 95.6436L17.3896 95.4609C20.8849 94.8536 23.8136 94.3742 25.897 94.0408L28.3323 93.6618C28.6343 93.6063 28.9395 93.5697 29.2461 93.5522C28.9873 93.6406 28.7213 93.7063 28.4511 93.7486L26.0889 94.2372C24.0375 94.6481 21.0631 95.2372 17.4764 95.9084L17.2571 95.9495L17.216 95.7258C16.8961 94.0043 16.5489 92.1413 16.1834 90.1641L15.6214 87.1184C15.53 86.5978 15.4341 86.0681 15.3381 85.5384L15.1919 84.7393L15.1188 84.3375L15.0822 84.1366V84.0316V83.9813V83.9448C14.8903 84.2142 15.3381 83.5704 15.2925 83.6389L27.1032 81.5384L27.3317 81.4973L27.3682 81.7211C27.9942 85.3147 28.4831 88.301 28.8166 90.365L29.1867 92.7486C29.2354 93.014 29.2644 93.2826 29.2735 93.5522Z" fill="#E1E1E1"/>
<path d="M44.7308 90.7576C44.6419 90.4668 44.5702 90.171 44.516 89.8717L44.0226 87.4608C43.6023 85.3968 43.0265 82.4881 42.3732 78.9995L42.6336 79.1821L30.8366 81.3511L31.0467 81.0497V81.0771V81.1273V81.2278L31.0832 81.4333L31.1564 81.8351L31.3025 82.6342C31.3985 83.1639 31.4899 83.6936 31.5859 84.2141C31.7686 85.2552 31.9498 86.272 32.1296 87.2644C32.4768 89.2416 32.8058 91.1092 33.1119 92.8352L32.8469 92.6526C36.3421 92.0407 39.2754 91.5658 41.3543 91.2325L43.7896 90.8535C44.0914 90.7959 44.3966 90.7578 44.7034 90.7393C44.4448 90.8286 44.1788 90.8943 43.9084 90.9357L41.5462 91.4243C39.4947 91.8398 36.5203 92.4288 32.9383 93.0955L32.7144 93.1412L32.6732 92.9129C32.3534 91.196 32.0062 89.3283 31.6407 87.3557C31.4579 86.3633 31.2721 85.3466 31.0832 84.3055C30.9858 83.7849 30.8898 83.2598 30.7954 82.7301L30.6492 81.9264L30.5761 81.5246L30.5396 81.3237V81.2232V81.173V81.1319C30.3522 81.4059 30.7954 80.762 30.7543 80.826L42.5651 78.7301L42.789 78.689L42.8255 78.9127C43.456 82.5018 43.9449 85.4927 44.2739 87.5566L44.644 89.9402C44.6966 90.2096 44.7257 90.4831 44.7308 90.7576Z" fill="#E1E1E1"/>
<path d="M60.1825 87.9676C60.0948 87.6768 60.0247 87.381 59.9723 87.0818C59.8383 86.4516 59.6723 85.648 59.4743 84.6708C59.0585 82.6023 58.4783 79.6936 57.8249 76.2095L58.0899 76.3922L46.2928 78.5566C46.2426 78.6251 46.6903 77.9812 46.503 78.2552V78.2963V78.3465V78.447L46.5395 78.6479L46.6081 79.0497L46.7543 79.8488C46.8502 80.3831 46.9462 80.9082 47.0376 81.4288C47.2264 82.4699 47.4076 83.4866 47.5813 84.479C47.9331 86.4562 48.262 88.3284 48.5636 90.0499L48.3032 89.8672C51.7984 89.2599 54.7271 88.7804 56.8106 88.4471L59.2413 88.0681C59.5429 88.0102 59.8483 87.9736 60.1551 87.9585C59.8974 88.0455 59.633 88.1112 59.3646 88.1549L57.0025 88.6389C54.951 89.0544 51.9766 89.6435 48.39 90.3147L48.1707 90.3558L48.125 90.132C47.8097 88.4106 47.4625 86.543 47.0924 84.5703C46.9127 83.5779 46.7269 82.5612 46.535 81.5201C46.4375 80.9995 46.3416 80.4744 46.2471 79.9447L46.1055 79.1456L46.0324 78.7392L45.9958 78.5383V78.4379V78.3876V78.3374C45.8039 78.6068 46.2517 77.963 46.206 78.0269L58.0168 75.931L58.2407 75.8899L58.2818 76.1136C58.9077 79.7027 59.3966 82.6936 59.7302 84.7576L60.1002 87.1412C60.154 87.4134 60.1815 87.6902 60.1825 87.9676Z" fill="#E1E1E1"/>
<path d="M75.6392 85.1868C75.5428 84.8885 75.4695 84.5831 75.4199 84.2736C75.2919 83.6434 75.1274 82.8443 74.9218 81.8626C74.5061 79.7986 73.9258 76.8854 73.277 73.4013L73.5374 73.584L61.7404 75.7529C61.6947 75.8169 62.1379 75.1776 61.9505 75.4515V75.4972V75.5474V75.6479L61.9871 75.8488L62.0602 76.2552L62.2018 77.0543L62.4897 78.6297C62.6724 79.6708 62.8537 80.6875 63.0334 81.6799C63.3806 83.6617 63.7096 85.5293 64.0157 87.2508L63.7507 87.0681C67.246 86.4608 70.1793 85.9813 72.2581 85.648L74.6934 85.269C74.9954 85.2135 75.3006 85.1769 75.6072 85.1594C75.3486 85.2487 75.0826 85.3144 74.8122 85.3558L72.45 85.8444C70.3986 86.2553 67.4241 86.8444 63.8421 87.5156L63.6182 87.5567L63.5771 87.333C63.2573 85.6115 62.91 83.7484 62.5445 81.7712C62.3617 80.7804 62.1744 79.7621 61.9871 78.7256C61.8911 78.205 61.7952 77.6753 61.6992 77.1456L61.553 76.3465L61.4799 75.9447L61.4434 75.7438V75.6388V75.5885V75.552L61.6535 75.2461L73.4643 73.1456L73.6928 73.1045L73.7293 73.3282C74.3599 76.9219 74.8487 79.9082 75.1777 81.9722L75.5478 84.3558C75.6027 84.6295 75.6332 84.9076 75.6392 85.1868Z" fill="#E1E1E1"/>
<path d="M91.0918 82.3788C91.0029 82.088 90.9312 81.7922 90.877 81.493L90.3836 79.082C89.9678 77.018 89.3876 74.1048 88.7342 70.6207L88.9992 70.8034L77.1975 72.9723L77.4077 72.671V72.7075V72.7577V72.8582L77.4442 73.0637L77.5174 73.4655L77.6635 74.2646C77.7595 74.7943 77.8509 75.324 77.9469 75.8445C78.1342 76.8856 78.3123 77.9039 78.4905 78.8948C78.8423 80.872 79.1713 82.7396 79.4729 84.4656L79.2079 84.2829C82.7031 83.6711 85.6364 83.1962 87.7153 82.8628L90.1506 82.4838C90.4524 82.4263 90.7576 82.3881 91.0644 82.3697C90.8058 82.459 90.5397 82.5247 90.2694 82.566L87.9072 83.0546C85.8557 83.4702 82.8813 84.0592 79.2992 84.7259L79.0754 84.7715L79.0342 84.5432C78.7144 82.8263 78.3672 80.9587 78.0017 78.9861C77.8189 77.9952 77.6361 76.9769 77.4442 75.9358C77.3468 75.4153 77.2508 74.8902 77.1564 74.3605L77.0102 73.5568L76.9371 73.155L76.9005 72.9541V72.8536V72.8034V72.7623C76.7132 73.0363 77.161 72.3924 77.1153 72.4563L88.9261 70.3559L89.15 70.3193L89.1911 70.5431C89.817 74.1322 90.3059 77.1231 90.6349 79.187L91.005 81.5706C91.0571 81.837 91.0861 82.1074 91.0918 82.3788Z" fill="#E1E1E1"/>
<path d="M29.7019 95.9138L17.8945 98.0476L20.0297 109.848L31.837 107.714L29.7019 95.9138Z" fill="#E1E1E1"/>
<path d="M47.2933 104.918C47.1991 104.629 47.1273 104.332 47.0785 104.032C46.9506 103.405 46.7846 102.601 46.5805 101.621C46.1648 99.5571 45.5845 96.6484 44.9357 93.1598L45.1961 93.3424L33.3991 95.5114C33.3534 95.5799 33.7965 94.9361 33.6092 95.21V95.2466V95.2968V95.4018L33.6457 95.6027L33.7189 96.0046L33.8605 96.8037C33.9565 97.3333 34.0524 97.863 34.1484 98.3836C34.3311 99.4247 34.5123 100.441 34.6921 101.434C35.0393 103.411 35.3683 105.279 35.6744 107.005L35.4094 106.822C38.9047 106.21 41.8379 105.735 43.9168 105.402L46.3521 105.023C46.6538 104.965 46.9591 104.927 47.2659 104.909C47.0073 104.998 46.7413 105.064 46.4709 105.105L44.1087 105.594C42.0572 106.009 39.0828 106.598 35.5008 107.265L35.2769 107.311L35.2358 107.082C34.916 105.365 34.5687 103.498 34.2032 101.525C34.0204 100.533 33.8346 99.516 33.6457 98.4749L33.3579 96.8995L33.2117 96.0959L33.1386 95.6941L33.1021 95.4931V95.3927V95.3424V95.3013C32.9147 95.5753 33.3579 94.9315 33.3168 94.9954L45.1276 92.8995L45.3515 92.8584L45.388 93.0822C46.0186 96.6712 46.5074 99.6621 46.8364 101.726L47.2065 104.11C47.2586 104.376 47.2876 104.646 47.2933 104.918Z" fill="#E1E1E1"/>
<path d="M62.7456 102.128C62.6575 101.837 62.5858 101.541 62.5308 101.242C62.4029 100.612 62.2385 99.8081 62.0374 98.8309C61.6216 96.7624 61.0414 93.8537 60.388 90.3696L60.653 90.5523L48.8513 92.7167L49.0615 92.4153V92.4564V92.5066V92.6071L49.0981 92.808L49.1712 93.2098L49.3174 94.0089C49.4133 94.5432 49.5047 95.0683 49.6007 95.5888C49.788 96.6299 49.9662 97.6482 50.1444 98.6391C50.4962 100.616 50.8252 102.488 51.1267 104.21L50.8617 104.027C54.4027 103.452 57.3268 102.95 59.4285 102.616L61.8638 102.237C62.1654 102.179 62.4708 102.143 62.7776 102.128C62.5182 102.214 62.2524 102.28 61.9826 102.324L59.6204 102.808C57.5689 103.224 54.5946 103.813 51.0125 104.484L50.7886 104.525L50.7475 104.301L49.7149 98.7396C49.5321 97.7487 49.3494 96.7304 49.1575 95.6893C49.06 95.1687 48.9641 94.6436 48.8696 94.1139L48.7234 93.3148L48.6503 92.913L48.6138 92.7075V92.6071V92.5569V92.4929L48.8285 92.1824L60.6393 90.0865L60.8632 90.0454L60.9043 90.2692C61.5302 93.8582 62.0191 96.8491 62.3481 98.9131L62.7182 101.297C62.7516 101.572 62.7608 101.85 62.7456 102.128Z" fill="#E1E1E1"/>
<path d="M78.1979 99.3423C78.1103 99.0514 78.0401 98.7556 77.9878 98.4564C77.8553 97.8263 77.6908 97.0272 77.4898 96.0454C77.074 93.9815 76.4937 91.0682 75.8403 87.5842L76.1054 87.7668L64.3083 89.9358C64.258 89.9997 64.7058 89.3604 64.5184 89.6344V89.6801V89.7303V89.8308L64.555 90.0317L64.6281 90.4381L64.7697 91.2372C64.8657 91.7669 64.9616 92.292 65.053 92.8125L65.6013 95.8674C65.9485 97.8445 66.2775 99.7121 66.5791 101.434L66.3186 101.251C69.8139 100.644 72.7426 100.164 74.826 99.8309L77.2613 99.4519C77.5634 99.3966 77.8685 99.36 78.1751 99.3423C77.9183 99.4321 77.6537 99.4978 77.3847 99.5386L75.0225 100.027C72.971 100.438 69.9966 101.027 66.41 101.698L66.1907 101.74L66.1496 101.516C65.8297 99.7943 65.4825 97.9313 65.117 95.9541L64.555 92.9084C64.4636 92.3879 64.3677 91.8582 64.2672 91.3285L64.1255 90.5294L64.0524 90.1276L64.0158 89.9267V89.8216V89.7714V89.7349C63.8239 90.0043 64.2717 89.3604 64.226 89.4289L76.0368 87.3284L76.2653 87.2874L76.3018 87.5111C76.9278 91.1047 77.4166 94.0911 77.7502 96.155L78.1203 98.5386C78.171 98.8035 78.1971 99.0726 78.1979 99.3423Z" fill="#E1E1E1"/>
<path d="M93.6551 96.5387C93.5636 96.2486 93.4918 95.9527 93.4404 95.6529C93.3124 95.0258 93.1464 94.2221 92.9423 93.2419C92.5266 91.178 91.9509 88.2692 91.2975 84.7806L91.558 84.9633L79.7609 87.1322L79.9711 86.8309V86.8674V86.9176V87.0181L80.0076 87.2236L80.0807 87.6254L80.2269 88.4245C80.3229 88.9542 80.4142 89.4839 80.5102 90.0044C80.6929 91.0455 80.8742 92.0623 81.0539 93.0547C81.4011 95.0319 81.7301 96.8995 82.0362 98.6255L81.7712 98.4429C85.2665 97.831 88.1998 97.3561 90.2787 97.0228L92.7139 96.6438C93.0157 96.5859 93.3209 96.5477 93.6277 96.5296C93.3692 96.6189 93.1031 96.6846 92.8327 96.7259L90.4705 97.2145C88.4191 97.6301 85.4447 98.2191 81.8626 98.8858L81.6387 98.9315L81.5976 98.7031C81.2778 96.9862 80.9305 95.1186 80.565 93.146C80.3823 92.1536 80.1964 91.1368 80.0076 90.0957C79.9101 89.5752 79.8142 89.0501 79.7197 88.5204L79.5736 87.7167L79.5004 87.3149L79.4639 87.114V87.0135V86.9633V86.9222C79.2765 87.1962 79.7198 86.5523 79.6786 86.6163L91.4894 84.5158L91.7133 84.4792L91.7499 84.703C92.3804 88.2921 92.8692 91.283 93.1982 93.3469L93.5683 95.7305C93.6204 95.9969 93.6495 96.2673 93.6551 96.5387Z" fill="#E1E1E1"/>
<path d="M22.7873 40.6411L20.4628 41.0612C20.0977 41.1272 19.8553 41.4764 19.9213 41.8412L21.6409 51.3453C21.7069 51.7102 22.0564 51.9524 22.4214 51.8864L24.746 51.4663C25.1111 51.4004 25.3535 51.0512 25.2874 50.6863L23.5678 41.1822C23.5018 40.8174 23.1524 40.5751 22.7873 40.6411Z" fill="#E1E1E1"/>
<path d="M46.5002 36.3401L44.1756 36.7602C43.8106 36.8262 43.5682 37.1754 43.6342 37.5402L45.3538 47.0443C45.4198 47.4091 45.7692 47.6514 46.1343 47.5854L48.4589 47.1653C48.8239 47.0994 49.0663 46.7501 49.0003 46.3853L47.2807 36.8812C47.2147 36.5164 46.8653 36.2741 46.5002 36.3401Z" fill="#E1E1E1"/>
<path d="M70.2208 32.0434L67.8963 32.4639C67.5313 32.53 67.2889 32.8792 67.355 33.244L69.0763 42.7478C69.1424 43.1127 69.4919 43.3549 69.8569 43.2888L72.1814 42.8683C72.5464 42.8023 72.7888 42.453 72.7227 42.0882L71.0014 32.5844C70.9354 32.2196 70.5859 31.9774 70.2208 32.0434Z" fill="#E1E1E1"/>
<path d="M100.028 101.086C100.028 101.086 99.9369 100.657 99.7815 99.849L99.1099 96.2873C98.5296 93.1595 97.6844 88.5932 96.6106 82.7804C94.4769 71.141 91.4249 54.5106 87.7468 34.4511L88.0027 34.6292L5.4596 49.57L5.67433 49.264L17.709 115.931L17.4349 115.744L77.0783 105.082L93.9835 102.091L98.4748 101.31L99.6353 101.169C99.8957 101.123 100.037 101.109 100.037 101.109L99.6673 101.187L98.5342 101.406L94.1023 102.237L77.2656 105.342L17.5126 116.237L17.2795 116.278L17.2384 116.05C13.6426 96.2326 9.51682 73.4743 5.14888 49.3827L5.09863 49.127L5.3591 49.0814L87.9204 34.2045L88.1352 34.168L88.1763 34.3826C91.7675 54.5152 94.7511 71.2049 96.8574 82.8854C97.8854 88.6891 98.685 93.2462 99.2424 96.365C99.5074 97.9053 99.7114 99.0834 99.8546 99.8993C99.9734 100.685 100.028 101.086 100.028 101.086Z" fill="#E1E1E1"/>
<path d="M238.451 39.4098C240.657 38.0748 243.031 37.0384 245.51 36.3276L246.967 29.3458L258.773 29.1357L260.473 36.0673C262.976 36.6829 265.386 37.6305 267.637 38.8847L273.604 34.9714L282.098 43.1907L278.402 49.2866C279.738 51.4905 280.774 53.8632 281.481 56.3415L288.472 57.7936L288.677 69.5928L281.746 71.2914C281.128 73.7924 280.18 76.2001 278.927 78.4513L282.838 84.4149L274.628 92.9081L268.528 89.2094C266.321 90.541 263.945 91.5714 261.465 92.2734L260.012 99.2598L248.205 99.4653L246.506 92.5382C244.003 91.9222 241.593 90.9747 239.342 89.7209L233.374 93.6296L224.876 85.4332L228.577 79.3372C227.241 77.1323 226.209 74.7579 225.507 72.2778L218.521 70.8257L218.311 59.0265L225.246 57.3278C225.861 54.826 226.81 52.4178 228.065 50.1679L224.15 44.2044L232.374 35.7112L238.473 39.4098H238.451ZM244.747 55.1315C243.591 56.3271 242.682 57.7387 242.072 59.2855C241.462 60.8324 241.163 62.4843 241.192 64.1466C241.222 65.809 241.579 67.4493 242.243 68.9737C242.906 70.4982 243.864 71.877 245.062 73.0312C246.258 74.1865 247.671 75.0949 249.218 75.7044C250.766 76.3139 252.419 76.6125 254.082 76.5832C255.746 76.554 257.387 76.1974 258.912 75.5338C260.438 74.8703 261.817 73.9128 262.972 72.7161C264.128 71.5205 265.037 70.1089 265.647 68.562C266.257 67.0151 266.556 65.3633 266.526 63.701C266.497 62.0386 266.14 60.3983 265.476 58.8738C264.812 57.3494 263.854 55.9706 262.657 54.8164C261.461 53.6611 260.048 52.7527 258.5 52.1432C256.953 51.5337 255.3 51.2351 253.636 51.2643C251.973 51.2936 250.332 51.6502 248.807 52.3137C247.281 52.9773 245.902 53.9348 244.747 55.1315Z" fill="#ECECEC"/>
<path d="M299.185 337.313C299.185 337.413 236.814 337.495 159.891 337.495C82.9678 337.495 20.583 337.413 20.583 337.313C20.583 337.212 82.9404 337.125 159.891 337.125C236.842 337.125 299.185 337.208 299.185 337.313Z" fill="#1A2E35"/>
<path d="M176.756 35.2637H163.053V56.6383H176.756V35.2637Z" fill="#1A2E35"/>
<path d="M184.102 41.6569H155.88V18.6201C165.758 16.1863 175.198 16.0356 184.102 18.6201V41.6569Z" fill="#00D18F"/>
<path d="M184.436 18.716C184.109 18.9253 183.759 19.0983 183.394 19.232C182.426 19.6551 181.432 20.0196 180.42 20.3233C178.924 20.7902 177.397 21.1534 175.851 21.4101C173.951 21.7147 172.032 21.878 170.108 21.8987C168.183 21.8875 166.262 21.7348 164.36 21.4421C162.815 21.198 161.289 20.8502 159.791 20.401C158.776 20.1068 157.78 19.7515 156.808 19.337C156.441 19.2074 156.09 19.0374 155.761 18.8302C155.793 18.748 157.319 19.3872 159.873 20.0722C161.377 20.4652 162.903 20.7702 164.442 20.9854C166.325 21.242 168.222 21.3732 170.122 21.3781C172.023 21.351 173.92 21.1985 175.801 20.9215C177.341 20.6859 178.867 20.3612 180.37 19.9489C182.883 19.2868 184.4 18.6338 184.436 18.716Z" fill="#1A2E35"/>
<path d="M165.205 41.5929C165.073 41.5929 164.963 37.1682 164.963 31.7161C164.963 26.264 165.073 21.8347 165.205 21.8347C165.338 21.8347 165.443 26.2594 165.443 31.7161C165.443 37.1728 165.338 41.5929 165.205 41.5929Z" fill="#1A2E35"/>
<path d="M170.574 41.7251C170.441 41.7251 170.332 37.2821 170.332 31.8026C170.332 26.3231 170.441 21.8801 170.574 21.8801C170.706 21.8801 170.816 26.3231 170.816 31.8026C170.816 37.2821 170.706 41.7251 170.574 41.7251Z" fill="#1A2E35"/>
<path d="M175.938 41.6341C175.805 41.6341 175.7 37.1911 175.7 31.7162C175.7 26.2412 175.805 21.7937 175.938 21.7937C176.07 21.7937 176.18 26.2321 176.18 31.7162C176.18 37.2003 176.075 41.6341 175.938 41.6341Z" fill="#1A2E35"/>
<path d="M180.415 41.6338C180.282 41.6338 180.173 36.8346 180.173 30.9122C180.173 24.9897 180.282 20.186 180.415 20.186C180.547 20.186 180.657 24.9897 180.657 30.9122C180.657 36.8346 180.547 41.6338 180.415 41.6338Z" fill="#1A2E35"/>
<path d="M160.124 41.497C159.992 41.497 159.887 36.6979 159.887 30.7755C159.887 24.853 159.992 20.0493 160.124 20.0493C160.257 20.0493 160.366 24.853 160.366 30.7755C160.366 36.6979 160.257 41.497 160.124 41.497Z" fill="#1A2E35"/>
<path d="M254.78 69.9241L247.934 62.7637L236.752 73.4425L243.599 80.6029L254.78 69.9241Z" fill="#1A2E35"/>
<path d="M255.113 76.9677L241.009 62.2232L253.062 50.7117C259.271 54.6615 264.064 59.5154 267.162 65.4607L255.113 76.9677Z" fill="#00D18F"/>
<path d="M243.371 64.6714C243.294 64.5892 246.026 61.8219 249.471 58.4929C252.916 55.1639 255.781 52.5244 255.868 52.6066C255.955 52.6888 253.218 55.4561 249.768 58.7897C246.318 62.1233 243.449 64.7536 243.371 64.6714Z" fill="#1A2E35"/>
<path d="M246.058 67.4842C246.618 66.8197 247.229 66.1999 247.885 65.6302C249.055 64.5206 250.686 63.0136 252.496 61.3559C254.305 59.6983 255.877 58.3009 257.156 57.141L258.577 55.8761C258.92 55.5701 259.085 55.4194 259.103 55.4194C259.258 55.5656 256.398 58.3557 252.774 61.6665C250.947 63.3241 249.302 64.7991 248.082 65.8494C247.454 66.4496 246.777 66.9964 246.058 67.4842Z" fill="#1A2E35"/>
<path d="M249.635 71.2241C250.207 70.5567 250.829 69.9339 251.495 69.361C252.678 68.2468 254.332 66.7261 256.174 65.0639L260.912 60.8398L262.365 59.5795C262.539 59.4146 262.723 59.262 262.918 59.1228C262.987 59.173 262.278 59.9265 261.09 61.0453C259.902 62.1641 258.271 63.6985 256.43 65.3607C254.588 67.0229 252.907 68.5071 251.673 69.5665C251.041 70.1749 250.36 70.7294 249.635 71.2241Z" fill="#1A2E35"/>
<path d="M252.984 74.6304C252.906 74.5482 255.671 71.7992 259.166 68.493C262.662 65.1868 265.563 62.5565 265.627 62.6478C265.691 62.7391 262.94 65.4791 259.45 68.7898C255.959 72.1006 253.062 74.7126 252.984 74.6304Z" fill="#1A2E35"/>
<path d="M82.1402 68.8948L74.71 75.4485L84.9439 87.0374L92.3741 80.4838L82.1402 68.8948Z" fill="#1A2E35"/>
<path d="M89.1635 68.8261L73.8575 82.324L62.8325 69.8353C67.0223 63.7895 72.071 59.1959 78.134 56.3374L89.1635 68.8261Z" fill="#00D18F"/>
<path d="M76.4216 80.0643C76.3394 80.142 73.6801 77.3244 70.4816 73.726C67.2831 70.1275 64.7655 67.1912 64.8523 67.1136C64.9391 67.036 67.5938 69.8764 70.7923 73.452C73.9908 77.0276 76.5085 79.9913 76.4216 80.0643Z" fill="#1A2E35"/>
<path d="M79.3409 77.4933C78.6963 76.9078 78.1003 76.271 77.5588 75.5891C76.4988 74.3789 75.0503 72.6939 73.4693 70.817C71.8884 68.9402 70.545 67.3236 69.4392 65.9948L68.2284 64.5289C67.9405 64.1727 67.7715 64.0037 67.7715 63.9855C67.9223 63.8348 70.6044 66.7985 73.7664 70.5522C75.3519 72.4245 76.7592 74.146 77.7645 75.4018C78.3438 76.0568 78.8709 76.7561 79.3409 77.4933Z" fill="#1A2E35"/>
<path d="M83.2193 74.068C82.5736 73.471 81.9749 72.8253 81.4283 72.1365C80.3637 70.9127 78.9108 69.2004 77.3162 67.2963L73.2818 62.3966L72.0756 60.8944C71.9229 60.7153 71.7824 60.5261 71.6553 60.3281C71.7055 60.2596 72.4274 60.9948 73.4829 62.2094C74.5383 63.4241 76.0278 65.1273 77.5949 67.0314C79.1621 68.9355 80.6059 70.6844 81.6111 71.9493C82.2043 72.6103 82.7423 73.3189 83.2193 74.068Z" fill="#1A2E35"/>
<path d="M86.7609 70.8635C86.6741 70.9366 84.0194 68.0642 80.8666 64.4703C77.7138 60.8765 75.1961 57.858 75.2829 57.7803C75.3698 57.7027 78.0245 60.5796 81.1773 64.1735C84.3301 67.7674 86.8432 70.7859 86.7609 70.8635Z" fill="#1A2E35"/>
<path d="M247.123 239.489C291.238 195.4 291.238 123.918 247.123 79.8295C203.008 35.7408 131.483 35.7408 87.3683 79.8295C43.2534 123.918 43.2534 195.4 87.3683 239.489C131.483 283.578 203.008 283.578 247.123 239.489Z" fill="#00D18F"/>
<path d="M240.633 233.002C281.163 192.496 281.163 126.822 240.633 86.3163C200.103 45.8101 134.39 45.8101 93.8597 86.3163C53.3294 126.822 53.3294 192.496 93.8597 233.002C134.39 273.508 200.102 273.508 240.633 233.002Z" fill="white"/>
<path d="M167.257 263.728C109.838 263.728 63.1206 217.042 63.1206 159.653C63.1206 102.265 109.829 55.5837 167.257 55.5837C224.684 55.5837 271.384 102.269 271.384 159.658C271.384 217.047 224.67 263.728 167.257 263.728ZM167.257 56.2869C110.227 56.2869 63.8288 102.657 63.8288 159.653C63.8288 216.649 110.218 263.024 167.257 263.024C224.296 263.024 270.685 216.654 270.685 159.658C270.685 102.662 224.277 56.2915 167.257 56.2915V56.2869Z" fill="#1A2E35"/>
<path d="M102.121 118.237C106.443 104.822 115.307 95.7485 127.049 87.9265C138.792 80.1045 154.797 77.1866 168.851 78.3784V161.987L102.121 118.237Z" fill="#00D18F"/>
<g opacity="0.8">
<path d="M102.121 118.237C106.443 104.822 115.307 95.7485 127.049 87.9265C138.792 80.1045 154.797 77.1866 168.851 78.3784V161.987L102.121 118.237Z" fill="white"/>
</g>
<path d="M159.86 161.526L113.174 125.283L167.846 150.476L169.454 160.051L159.86 161.526Z" fill="#00D18F"/>
<g opacity="0.4">
<path d="M113.174 125.283L161.925 153.932L167.846 150.476L113.174 125.283Z" fill="black"/>
</g>
<path d="M173.149 169.174C178.112 167.139 180.486 161.469 178.45 156.508C176.415 151.548 170.741 149.176 165.777 151.21C160.814 153.245 158.44 158.915 160.476 163.876C162.512 168.836 168.186 171.208 173.149 169.174Z" fill="#FAFAFA"/>
<path d="M169.482 150.484C168.692 150.57 167.908 150.701 167.133 150.877C165.038 151.438 163.193 152.686 161.893 154.42C161.001 155.604 160.398 156.98 160.134 158.439C159.83 160.109 159.978 161.831 160.563 163.425C160.87 164.286 161.308 165.094 161.861 165.822C162.42 166.597 163.1 167.277 163.876 167.836C165.503 169.02 167.464 169.66 169.477 169.663C171.492 169.66 173.454 169.021 175.083 167.836C175.858 167.281 176.538 166.606 177.098 165.836C177.652 165.109 178.09 164.3 178.396 163.439C178.987 161.846 179.145 160.126 178.853 158.452C178.585 156.994 177.982 155.618 177.089 154.434C175.782 152.696 173.928 151.448 171.826 150.891C171.051 150.715 170.267 150.584 169.477 150.498C170.282 150.442 171.09 150.514 171.871 150.713C174.043 151.219 175.973 152.461 177.331 154.229C178.277 155.445 178.922 156.867 179.214 158.379C179.546 160.121 179.406 161.92 178.807 163.589C178.491 164.492 178.038 165.341 177.464 166.105C176.879 166.917 176.168 167.629 175.357 168.215C173.651 169.469 171.59 170.148 169.473 170.156C167.359 170.145 165.304 169.466 163.601 168.215C162.791 167.629 162.079 166.917 161.495 166.105C160.919 165.342 160.466 164.493 160.152 163.589C159.551 161.921 159.411 160.121 159.745 158.379C160.036 156.867 160.679 155.445 161.623 154.229C162.988 152.457 164.926 151.214 167.106 150.713C167.881 150.512 168.683 150.435 169.482 150.484Z" fill="#1A2E35"/>
<path d="M169.481 152.982C171.398 152.982 173.237 153.743 174.592 155.098C175.948 156.453 176.71 158.29 176.71 160.206C176.71 161.155 176.524 162.095 176.161 162.972C175.798 163.849 175.265 164.646 174.594 165.317C173.923 165.988 173.126 166.521 172.249 166.884C171.371 167.247 170.431 167.434 169.481 167.434C168.53 167.437 167.588 167.252 166.708 166.889C165.828 166.527 165.029 165.995 164.355 165.324C163.682 164.652 163.147 163.855 162.783 162.976C162.418 162.098 162.23 161.157 162.23 160.206C162.23 159.255 162.418 158.314 162.783 157.436C163.148 156.558 163.682 155.761 164.356 155.09C165.029 154.419 165.829 153.887 166.708 153.526C167.588 153.164 168.53 152.979 169.481 152.982Z" fill="#1A2E35"/>
<path d="M169.002 157.361C169.002 157.361 167.01 94.8447 169.916 81.6619C169.907 81.6619 174.745 119.557 169.002 157.361Z" fill="#1A2E35"/>
<path d="M163.346 255.54H163.222L163.501 247.746H163.72L163.346 255.54ZM202.287 249.221L199.376 241.988L199.591 241.901L202.392 249.18L202.287 249.221ZM125.071 245.499L124.957 245.44L128.425 238.458L128.617 238.554L125.071 245.499ZM235.394 227.563L229.829 222.083L229.975 221.937L235.49 227.449L235.394 227.563ZM94.2124 220.777L94.0936 220.636L100.143 215.704L100.243 215.832L94.2124 220.777ZM256.868 194.325L249.557 191.608L249.631 191.407L256.918 194.206L256.868 194.325ZM76.0461 185.649L75.9913 185.448L83.5347 183.444L83.5713 183.581L76.0461 185.649ZM255.15 155.672V155.548L262.917 155.092V155.316L255.15 155.672ZM255.15 155.53V155.361L262.917 154.905V155.078L255.15 155.53ZM81.5015 147.311L73.7891 146.142L73.8119 145.968L81.5289 147.142L81.5015 147.311ZM245.601 120.47L245.528 120.324L252.459 116.744L252.541 116.909L245.601 120.47ZM94.3358 113.352L87.7747 109.132L87.8569 109L94.4363 113.196L94.3358 113.352ZM222.541 92.3971L222.404 92.2875L227.279 86.1961L227.416 86.3057L222.541 92.3971ZM119.803 87.534L115.527 81.0088L115.645 80.9358L119.972 87.4244L119.803 87.534ZM190.101 76.0271L189.955 75.986L191.915 68.4379L192.107 68.4882L190.101 76.0271ZM153.655 74.3238L152.389 66.6297L152.563 66.6023L153.824 74.2964L153.655 74.3238Z" fill="#1A2E35"/>
<path d="M293.818 251.988C293.818 252.088 284.195 252.17 272.343 252.17C260.491 252.17 250.869 252.088 250.869 251.988C250.869 251.887 260.491 251.805 272.343 251.805C284.195 251.805 293.818 251.887 293.818 251.988Z" fill="#1A2E35"/>
<path d="M307.346 247.179C307.346 247.28 297.724 247.367 285.872 247.367C274.02 247.367 264.397 247.28 264.397 247.179C264.397 247.079 274.02 246.997 285.872 246.997C297.724 246.997 307.346 247.079 307.346 247.179Z" fill="#1A2E35"/>
<path d="M48.6185 220.17C48.6185 220.275 39.6953 220.357 28.6887 220.357C17.682 220.357 8.75879 220.275 8.75879 220.17C8.75879 220.065 17.682 219.987 28.6887 219.987C39.6953 219.987 48.6185 220.069 48.6185 220.17Z" fill="#1A2E35"/>
<path d="M61.1605 215.366C61.1605 215.467 52.2373 215.549 41.2306 215.549C30.224 215.549 21.3008 215.467 21.3008 215.366C21.3008 215.266 30.2194 215.179 41.2306 215.179C52.2418 215.179 61.1605 215.261 61.1605 215.366Z" fill="#1A2E35"/>
<path d="M213.7 124.48C214.216 124.048 214.853 123.787 215.523 123.733C216.194 123.679 216.864 123.835 217.442 124.178C218.393 123.919 219.404 123.984 220.314 124.363C221.224 124.742 221.982 125.413 222.468 126.27C223.144 126.17 223.833 126.244 224.472 126.483C225.112 126.723 225.68 127.121 226.123 127.64C226.556 128.165 226.847 128.792 226.971 129.462C227.095 130.131 227.047 130.821 226.831 131.466C227.502 131.627 228.108 131.988 228.568 132.502C229.028 133.016 229.319 133.659 229.404 134.343C229.462 135.029 229.309 135.717 228.965 136.315C228.621 136.912 228.103 137.39 227.48 137.685C228.067 138.198 228.452 138.903 228.566 139.673C228.681 140.444 228.518 141.23 228.106 141.891C227.654 142.521 226.993 142.972 226.24 143.162C225.488 143.353 224.692 143.271 223.994 142.932L212.891 128.156C212.626 127.535 212.561 126.847 212.706 126.188C212.851 125.529 213.199 124.932 213.7 124.48Z" fill="#1A2E35"/>
<path d="M224.268 143.498C225.248 140.265 224.973 136.781 223.499 133.741C222.025 130.701 219.46 128.327 216.314 127.091L215.669 126.84C208.519 124.502 202.538 129.26 200.395 136.471L192.258 160.128L192.062 163.43L199.322 174.366L205.499 171.535L209.04 164.914C209.04 164.914 216.167 166.507 218.891 159.827C220.206 156.599 222.377 149.736 224.268 143.498Z" fill="#FFC19D"/>
<path d="M209.1 164.923C205.979 163.698 203.276 161.605 201.309 158.891C201.309 158.891 201.026 164.887 207.967 166.914L209.1 164.923Z" fill="#FF9C6A"/>
<path d="M219.873 148.955C219.779 149.208 219.59 149.414 219.345 149.529C219.101 149.645 218.821 149.66 218.566 149.571C218.44 149.532 218.324 149.469 218.223 149.384C218.122 149.3 218.039 149.196 217.979 149.079C217.919 148.962 217.883 148.834 217.873 148.703C217.864 148.572 217.88 148.44 217.922 148.315C218.017 148.065 218.207 147.862 218.45 147.749C218.694 147.637 218.971 147.623 219.224 147.712C219.349 147.751 219.464 147.814 219.564 147.897C219.665 147.98 219.747 148.083 219.807 148.198C219.868 148.314 219.905 148.44 219.916 148.57C219.927 148.7 219.912 148.83 219.873 148.955Z" fill="#1A2E35"/>
<path d="M221.471 146.589C221.302 146.667 220.786 145.845 219.754 145.439C218.721 145.032 217.762 145.256 217.698 145.087C217.666 145.009 217.876 144.831 218.301 144.722C218.868 144.586 219.464 144.63 220.005 144.85C220.544 145.057 221.002 145.431 221.311 145.918C221.531 146.288 221.553 146.552 221.471 146.589Z" fill="#1A2E35"/>
<path d="M210.854 145.918C210.756 146.168 210.566 146.37 210.322 146.483C210.078 146.595 209.801 146.609 209.547 146.521C209.421 146.483 209.304 146.42 209.203 146.336C209.102 146.253 209.018 146.149 208.958 146.032C208.897 145.916 208.861 145.788 208.851 145.657C208.84 145.526 208.857 145.394 208.898 145.27C208.994 145.018 209.184 144.814 209.428 144.7C209.672 144.587 209.951 144.573 210.205 144.662C210.331 144.701 210.448 144.764 210.55 144.848C210.651 144.933 210.734 145.036 210.795 145.153C210.855 145.27 210.892 145.398 210.902 145.53C210.912 145.661 210.896 145.793 210.854 145.918Z" fill="#1A2E35"/>
<path d="M211.652 142.562C211.483 142.639 210.967 141.818 209.935 141.416C208.902 141.014 207.943 141.233 207.879 141.06C207.847 140.982 208.057 140.804 208.482 140.694C209.05 140.561 209.645 140.605 210.186 140.822C210.724 141.033 211.181 141.409 211.493 141.895C211.712 142.265 211.73 142.53 211.652 142.562Z" fill="#1A2E35"/>
<path d="M212.032 151.544C212.643 151.589 213.246 151.709 213.828 151.901C214.102 151.978 214.376 152.024 214.49 151.864C214.619 151.599 214.665 151.302 214.623 151.01C214.623 150.279 214.623 149.508 214.623 148.699C214.664 145.416 214.801 142.763 214.934 142.763C215.066 142.763 215.139 145.43 215.098 148.699C215.098 149.503 215.071 150.275 215.053 151.01C215.092 151.393 214.997 151.777 214.783 152.097C214.708 152.175 214.617 152.235 214.515 152.272C214.414 152.309 214.305 152.323 214.198 152.312C214.041 152.294 213.888 152.256 213.741 152.197C212.676 151.855 212.032 151.608 212.032 151.544Z" fill="#1A2E35"/>
<path d="M212.489 139.525C212.288 139.771 211.429 139.283 210.301 139.009C209.172 138.735 208.177 138.726 208.131 138.415C208.131 138.269 208.368 138.069 208.825 137.932C209.409 137.775 210.023 137.775 210.607 137.932C211.185 138.073 211.715 138.366 212.142 138.781C212.461 139.068 212.576 139.383 212.489 139.525Z" fill="#1A2E35"/>
<path d="M219.092 141.548C219.352 141.37 220.006 141.859 220.864 142.155C221.723 142.452 222.532 142.53 222.619 142.835C222.65 142.982 222.454 143.182 222.057 143.292C221.535 143.426 220.984 143.396 220.481 143.205C219.971 143.026 219.53 142.694 219.215 142.256C218.991 141.918 218.969 141.639 219.092 141.548Z" fill="#1A2E35"/>
<path d="M224.825 140.169C224.825 140.169 224.711 135.265 223.066 133.489C221.079 131.334 218.954 133.612 216.88 132.041C214.805 130.471 212.9 128.388 209.798 129.274C206.399 130.224 207.056 132.096 205.745 135.009C200.34 146.831 196.79 149.379 198.398 143.443C198.576 142.79 197.028 141.617 197.818 138.877C198.828 135.334 200.331 131.137 202.044 129.014C203.493 127.224 205.211 126.274 207.915 125.534C212.178 124.375 216.729 126.101 219.685 127.621C222.641 129.142 227.183 135.014 224.825 140.169Z" fill="#1A2E35"/>
<path d="M198.906 143.43C198.995 143.18 199.032 142.915 199.015 142.651C198.998 142.386 198.928 142.128 198.808 141.891C198.689 141.655 198.522 141.445 198.319 141.275C198.116 141.104 197.881 140.977 197.627 140.9C196.325 140.526 194.652 140.69 193.716 143.307C192.057 147.955 197.07 148.663 197.124 148.531C197.179 148.398 198.226 145.38 198.906 143.43Z" fill="#FFC19D"/>
<path d="M196.736 146.42C196.736 146.397 196.635 146.447 196.475 146.461C196.254 146.476 196.036 146.404 195.868 146.26C195.438 145.904 195.306 144.977 195.58 144.132C195.712 143.731 195.93 143.363 196.219 143.055C196.314 142.925 196.44 142.82 196.585 142.749C196.73 142.678 196.89 142.644 197.051 142.649C197.152 142.66 197.247 142.705 197.319 142.776C197.392 142.847 197.439 142.94 197.453 143.041C197.453 143.192 197.403 143.274 197.425 143.292C197.448 143.311 197.553 143.251 197.585 143.046C197.601 142.922 197.574 142.796 197.508 142.69C197.414 142.547 197.268 142.447 197.101 142.411C196.896 142.38 196.687 142.402 196.493 142.476C196.299 142.549 196.128 142.672 195.996 142.831C195.655 143.162 195.401 143.571 195.256 144.023C194.949 144.972 195.119 146.018 195.712 146.452C195.824 146.533 195.953 146.588 196.089 146.613C196.225 146.637 196.365 146.63 196.498 146.593C196.69 146.529 196.749 146.433 196.736 146.42Z" fill="#FF9C6A"/>
<path d="M202.492 134.571C202.876 135.248 203.423 135.819 204.082 136.233C204.777 136.585 205.759 136.498 206.161 135.831C206.339 135.535 206.408 135.133 206.714 134.968C207.02 134.804 207.509 135.046 207.879 135.238C208.53 135.553 209.27 135.635 209.974 135.469C210.678 135.302 211.304 134.898 211.744 134.325C211.886 134.968 212.69 135.261 213.334 135.128C213.963 134.931 214.562 134.647 215.112 134.283C215.696 133.982 216.427 133.79 216.999 134.115C217.318 134.297 217.556 134.621 217.912 134.726C218.534 134.909 219.109 134.32 219.434 133.758C219.758 133.197 220.105 132.525 220.745 132.389C221.385 132.252 221.883 132.69 222.404 132.987C222.924 133.283 223.697 133.443 224.053 132.95C224.135 132.814 224.187 132.663 224.208 132.506C224.228 132.349 224.216 132.189 224.172 132.037C224.016 131.336 223.629 130.709 223.073 130.255C222.517 129.801 221.824 129.547 221.106 129.535C221.166 128.684 220.98 127.834 220.569 127.086C220.158 126.339 219.54 125.725 218.79 125.32C218.026 124.938 217.169 124.784 216.321 124.877C215.473 124.969 214.669 125.304 214.006 125.84C213.686 125.211 213.223 124.667 212.653 124.251C212.083 123.835 211.422 123.56 210.725 123.448C210.026 123.347 209.312 123.414 208.643 123.643C207.975 123.871 207.37 124.255 206.878 124.763C206.37 124.404 205.77 124.198 205.148 124.168C204.527 124.138 203.91 124.286 203.369 124.594C202.839 124.921 202.413 125.392 202.142 125.953C201.87 126.513 201.765 127.14 201.839 127.758C200.829 127.909 199.796 128.448 199.408 129.393C199.02 130.338 199.572 131.644 200.587 131.758C200.265 132.067 200.067 132.482 200.03 132.926C199.993 133.37 200.119 133.812 200.386 134.169C200.675 134.509 201.078 134.732 201.52 134.795C201.962 134.858 202.412 134.757 202.784 134.512" fill="#1A2E35"/>
<path d="M200.254 131.635C200.172 131.786 200.125 131.954 200.114 132.126C200.104 132.298 200.131 132.47 200.194 132.63C200.306 133.012 200.557 133.338 200.898 133.544C201.116 133.672 201.36 133.75 201.612 133.773C201.864 133.796 202.118 133.763 202.356 133.676L202.173 133.571C202.245 134.093 202.399 134.6 202.63 135.073C202.785 135.394 203.001 135.683 203.265 135.923C203.515 136.153 203.823 136.311 204.156 136.379C204.428 136.46 204.714 136.481 204.994 136.439C205.274 136.397 205.542 136.294 205.778 136.137C206.087 135.92 206.349 135.644 206.55 135.325C206.634 135.219 206.694 135.098 206.728 134.968C206.728 134.968 206.623 135.069 206.459 135.261C206.241 135.535 205.982 135.773 205.691 135.968C204.997 136.452 203.448 136.233 202.909 134.946C202.683 134.5 202.529 134.023 202.452 133.53L202.424 133.361L202.269 133.425C202.067 133.501 201.851 133.534 201.636 133.519C201.421 133.505 201.211 133.445 201.021 133.343C200.716 133.175 200.482 132.903 200.363 132.575C200.265 132.272 200.228 131.952 200.254 131.635Z" fill="#375A64"/>
<path d="M213.056 124.566C213.056 124.566 213.161 124.644 213.335 124.813C213.573 125.056 213.732 125.364 213.792 125.699V125.808L213.892 125.744C214.774 125.197 215.78 124.883 216.817 124.831C217.486 124.797 218.156 124.904 218.781 125.146C219.468 125.418 220.066 125.875 220.509 126.466C220.857 126.927 221.105 127.456 221.235 128.019C221.35 128.541 221.336 129.083 221.194 129.599L221.153 129.749H221.308C222.021 129.83 222.675 130.182 223.136 130.731C223.489 131.167 223.699 131.701 223.739 132.261C223.757 132.763 223.672 133.264 223.488 133.731C223.581 133.63 223.651 133.51 223.693 133.38C223.838 133.022 223.908 132.638 223.899 132.252C223.883 131.65 223.675 131.069 223.305 130.594C222.824 129.981 222.119 129.583 221.345 129.489L221.454 129.653C221.616 129.096 221.638 128.508 221.518 127.941C221.382 127.337 221.119 126.769 220.746 126.274C220.271 125.643 219.628 125.158 218.891 124.872C218.229 124.62 217.519 124.516 216.812 124.566C215.738 124.64 214.703 124.999 213.815 125.607L213.933 125.658C213.848 125.299 213.648 124.978 213.362 124.744C213.193 124.594 213.061 124.553 213.056 124.566Z" fill="#375A64"/>
<path d="M211.887 155.462C211.786 155.503 211.379 154.64 210.516 153.909C209.652 153.179 208.738 152.909 208.766 152.804C208.793 152.699 209.812 152.804 210.758 153.631C211.704 154.457 211.978 155.444 211.887 155.462Z" fill="#1A2E35"/>
<path d="M261.094 190.211C261.884 189.992 269.565 191.248 269.565 191.248C269.615 191.457 269.614 191.676 269.56 191.885C269.507 192.094 269.403 192.287 269.258 192.447C269.113 192.606 268.931 192.728 268.728 192.802C268.525 192.875 268.307 192.898 268.094 192.869C266.316 192.814 260.496 192.348 260.496 192.348L256.744 193.996L255.511 193.458L261.094 190.211Z" fill="#FF9C6A"/>
<path d="M245.34 191.667L256.251 192.699L257.955 192.909C257.955 192.909 261.976 191.453 262.712 191.32C263.447 191.188 270.223 194.846 270.223 194.846C270.223 194.846 270.479 196.412 268.592 196.005C267.147 195.635 265.745 195.111 264.411 194.444C264.411 194.444 258.289 197.307 257.064 197.859C255.84 198.412 248.552 198.366 248.552 198.366L245.975 200.051L245.34 191.667Z" fill="#FFC19D"/>
<path d="M249.63 208.398L254.081 205.576L269.387 200.133C269.387 200.133 270.725 198.909 270.035 198.416C269.346 197.923 253.053 200.371 253.053 200.371L249.63 202.298V208.398Z" fill="#FFC19D"/>
<path d="M206.436 197.544C206.436 198.398 193.131 220.33 189.348 225.809C183.746 233.928 178.126 234.942 178.126 234.942L170.665 228.709L201.369 195.448L210.506 188.804L206.436 197.544Z" fill="#375A64"/>
<path d="M199.554 207.49C199.554 207.49 211.502 212.878 215.975 213.645C221.243 214.558 250.124 212.517 250.124 212.517L249.575 201.024L207.372 200.065L202.346 198.731L199.554 207.49Z" fill="#375A64"/>
<g opacity="0.3">
<path d="M203.497 198.43C202.625 198.823 202.127 201.129 201.469 201.818C194.474 209.156 189.352 217.44 182.128 224.079C179.017 226.942 175.489 229.39 171.263 229.175L175.576 232.828C179.168 232.755 181.553 231.065 184.257 228.718C186.962 226.371 188.118 222.969 190.197 220.042C194.958 213.389 199.623 205.946 204.361 199.293C204.164 198.353 204.37 198.019 203.497 198.43Z" fill="black"/>
</g>
<path d="M172.506 229.083C172.506 229.083 178.739 229.54 181.092 228.102C183.906 226.357 208.825 193.709 208.825 193.709L209.045 168.201L194.986 154.79L193.533 157L163.634 191.124L144.444 209.321L167.444 221.672L172.506 229.083Z" fill="#E1E1E1"/>
<path d="M203.196 192.951C202.447 193.864 203.653 206.704 186.889 208.476C172.726 209.987 143.256 208.417 134.401 207.887C132.149 207.755 130.289 205.86 130.453 203.613C130.485 203.108 130.623 202.616 130.859 202.169C131.096 201.721 131.425 201.33 131.824 201.019C134.968 198.458 138.257 199.252 140.199 193.996C142.141 188.741 141.259 186.786 144.69 184.704C149.538 181.759 161.399 187.156 161.399 187.156C164.383 182.649 165.968 178.677 170.14 173.293C173.525 168.941 178.122 162.987 181.841 160.877C182.755 160.361 187.666 158.334 188.694 158.174L190.979 157.772L192.505 155.759C194.766 158.042 203.205 165.804 204.695 168.544L206.399 178.462L203.196 192.951Z" fill="#375A64"/>
<g opacity="0.3">
<path d="M242.58 203.028C231.478 202.252 219.932 201.48 206.22 198.608L205.371 200.435C213.284 205.375 218.758 205.553 224.757 205.987C230.756 206.421 236.321 205.494 242.119 205.494C242.559 204.752 242.723 203.879 242.58 203.028Z" fill="black"/>
</g>
<g opacity="0.3">
<path d="M181.251 177.051L176.746 177.334C178.615 183.434 181.639 185.503 186.798 189.284C191.956 193.065 192.769 194.179 198.599 196.791C199.152 197.037 203.557 199.791 203.694 199.197C193.683 193.06 187.913 186.699 181.251 177.051Z" fill="black"/>
</g>
<path d="M176.851 173.055C175.215 177.622 178.176 179.69 178.176 179.69C178.176 179.69 202.3 201.585 212.037 202.695C221.773 203.805 247.309 202.448 247.309 202.448V190.576L216.208 187.238C216.208 187.238 203.689 172.498 196.767 165.105" fill="#375A64"/>
<path d="M196.759 165.096C196.759 165.096 196.891 165.219 197.133 165.471L198.193 166.585C199.107 167.576 200.478 169.037 202.173 170.941C205.59 174.745 210.447 180.279 216.309 187.138L216.213 187.087L247.323 190.389H247.483V190.549C247.483 194.357 247.483 198.352 247.483 202.421V202.594H247.305L241.722 202.85C233.831 203.156 226.187 203.366 219.01 203.224L216.337 203.138C215.45 203.083 214.573 203.051 213.705 202.982C212.837 202.925 211.972 202.821 211.114 202.672C210.694 202.571 210.278 202.462 209.872 202.334C209.465 202.206 209.063 202.065 208.675 201.905C205.71 200.629 202.876 199.069 200.213 197.247C195.663 194.189 191.272 190.903 187.054 187.402C183.372 184.384 180.37 181.758 178.113 179.713C177.294 179.033 176.715 178.11 176.459 177.078C176.277 176.331 176.241 175.556 176.354 174.795C176.413 174.329 176.518 173.87 176.669 173.425C176.769 173.128 176.829 172.968 176.829 172.968C176.829 172.968 176.792 173.124 176.71 173.425C176.576 173.872 176.484 174.331 176.436 174.795C176.34 175.54 176.387 176.296 176.573 177.023C176.833 178.02 177.403 178.909 178.199 179.562C180.484 181.585 183.495 184.183 187.187 187.179C190.878 190.174 195.242 193.571 200.364 196.95C203.017 198.778 205.842 200.344 208.798 201.626C209.182 201.786 209.584 201.905 209.977 202.046C210.37 202.188 210.785 202.275 211.192 202.375C212.035 202.518 212.884 202.615 213.737 202.667C214.6 202.736 215.473 202.768 216.355 202.823L219.023 202.9C226.201 203.033 233.822 202.823 241.713 202.512L247.292 202.256L247.118 202.444C247.118 198.361 247.118 194.366 247.118 190.571L247.278 190.749L216.177 187.375H216.145L216.108 187.329C210.274 180.457 205.449 174.891 202.072 171.06L198.152 166.653L197.12 165.507C196.868 165.233 196.759 165.096 196.759 165.096Z" fill="#1A2E35"/>
<path d="M205.462 200.257C205.269 200.63 205.045 200.987 204.795 201.325L202.927 204.193C201.355 206.617 199.239 210.01 196.909 213.754C194.579 217.499 192.464 220.896 190.897 223.344C190.115 224.563 189.471 225.54 189.014 226.207C188.795 226.557 188.548 226.888 188.274 227.198C188.454 226.819 188.662 226.454 188.895 226.106L190.677 223.179C192.222 220.663 194.296 217.284 196.617 213.549C198.938 209.814 201.104 206.43 202.73 204.033C203.543 202.837 204.22 201.882 204.704 201.229C204.934 200.888 205.187 200.563 205.462 200.257Z" fill="#1A2E35"/>
<path d="M277.693 197.375L248.525 201.841C248.256 201.88 247.984 201.812 247.765 201.651C247.547 201.491 247.401 201.25 247.36 200.983L247.314 200.686C247.293 200.553 247.299 200.417 247.331 200.286C247.363 200.156 247.421 200.033 247.501 199.925C247.58 199.816 247.681 199.725 247.796 199.656C247.912 199.587 248.04 199.541 248.173 199.521L279.1 194.955L278.721 196.444C278.66 196.682 278.53 196.898 278.347 197.063C278.164 197.229 277.937 197.337 277.693 197.375Z" fill="#E1E1E1"/>
<path d="M277.693 197.375C277.94 197.312 278.165 197.184 278.347 197.005C278.555 196.777 278.687 196.49 278.726 196.183C278.813 195.814 278.913 195.393 279.027 194.919L279.11 195.014C273.96 195.841 262.332 197.608 248.822 199.608C248.549 199.637 248.279 199.686 248.013 199.754C247.908 199.802 247.813 199.87 247.735 199.955C247.656 200.039 247.596 200.139 247.556 200.247C247.519 200.359 247.503 200.477 247.511 200.594C247.511 200.704 247.552 200.878 247.575 200.996C247.596 201.111 247.642 201.219 247.709 201.314C247.776 201.409 247.863 201.489 247.963 201.549C248.067 201.608 248.182 201.646 248.302 201.661C248.421 201.676 248.542 201.667 248.657 201.636L249.489 201.512L251.129 201.261L257.375 200.316L267.957 198.741L275.094 197.704L277.035 197.444L277.543 197.384C277.6 197.379 277.658 197.379 277.716 197.384C277.716 197.384 277.661 197.384 277.552 197.43L277.049 197.526L275.116 197.859L267.993 199.005L257.425 200.663L251.161 201.626L249.521 201.882L248.694 202.01C248.374 202.084 248.038 202.035 247.753 201.873C247.609 201.787 247.484 201.672 247.388 201.535C247.291 201.398 247.224 201.243 247.191 201.078C247.159 200.914 247.141 200.804 247.122 200.622C247.109 200.453 247.131 200.284 247.186 200.124C247.245 199.964 247.336 199.818 247.454 199.696C247.572 199.573 247.714 199.476 247.872 199.412C248.171 199.33 248.477 199.274 248.785 199.243C262.296 197.243 273.938 195.562 279.105 194.864H279.219L279.192 194.973C279.064 195.43 278.954 195.859 278.854 196.225C278.804 196.547 278.652 196.845 278.42 197.074C278.277 197.211 278.103 197.311 277.913 197.366C277.841 197.386 277.766 197.389 277.693 197.375Z" fill="#1A2E35"/>
<path d="M276.853 195.234L285.593 165.832C285.674 165.568 285.856 165.348 286.099 165.218C286.342 165.088 286.626 165.059 286.891 165.137L287.151 165.215C287.415 165.297 287.635 165.48 287.765 165.723C287.895 165.967 287.924 166.252 287.845 166.516L278.634 196.654L276.853 195.234Z" fill="#E1E1E1"/>
<path d="M276.853 195.233C276.853 195.233 276.903 195.233 276.98 195.316L277.332 195.576L278.676 196.599L278.575 196.631C279.882 192.064 283.505 180.147 287.713 166.302C287.723 166.181 287.708 166.059 287.669 165.944C287.63 165.829 287.567 165.724 287.485 165.635C287.296 165.463 287.061 165.35 286.808 165.311C286.69 165.284 286.568 165.281 286.448 165.304C286.329 165.326 286.216 165.373 286.115 165.441C286.015 165.509 285.93 165.597 285.865 165.7C285.8 165.802 285.757 165.917 285.739 166.037L284.78 169.261C284.145 171.37 283.532 173.407 282.952 175.352C281.782 179.229 280.722 182.726 279.832 185.676C278.941 188.626 278.21 190.973 277.698 192.654C277.442 193.457 277.241 194.096 277.099 194.558C277.031 194.759 276.976 194.923 276.935 195.06C276.894 195.197 276.871 195.229 276.866 195.233C276.87 195.178 276.881 195.122 276.898 195.069C276.935 194.937 276.976 194.777 277.026 194.58C277.159 194.124 277.332 193.489 277.556 192.69C278.04 191.01 278.73 188.631 279.576 185.704L282.614 175.315C283.19 173.361 283.797 171.306 284.442 169.178C284.761 168.114 285.081 167.028 285.406 165.932C285.474 165.606 285.663 165.319 285.936 165.128C286.078 165.033 286.238 164.969 286.406 164.939C286.575 164.909 286.747 164.914 286.913 164.955C287.078 165 287.178 165.028 287.37 165.092C287.528 165.161 287.671 165.26 287.791 165.384C287.908 165.511 287.997 165.661 288.053 165.825C288.109 165.988 288.13 166.161 288.115 166.334C288.068 166.569 288.006 166.801 287.928 167.028L287.731 167.672C287.599 168.105 287.466 168.53 287.338 168.959L286.507 171.489C286 173.151 285.502 174.777 285.017 176.343C284.049 179.48 283.149 182.407 282.331 185.046L278.676 196.672L278.648 196.763L278.57 196.704L277.25 195.608C277.111 195.49 276.979 195.365 276.853 195.233Z" fill="#1A2E35"/>
<path d="M202.923 170.421C202.872 170.453 202.329 169.645 201.378 168.394C200.142 166.768 198.818 165.21 197.412 163.727C195.772 161.987 194.186 160.503 193.035 159.43C192.389 158.882 191.778 158.293 191.207 157.667C191.414 157.768 191.604 157.899 191.774 158.055C192.125 158.325 192.619 158.726 193.222 159.238C194.787 160.57 196.28 161.985 197.695 163.476C199.117 164.966 200.426 166.559 201.611 168.243C202.068 168.887 202.406 169.426 202.626 169.809C202.753 169.999 202.853 170.205 202.923 170.421Z" fill="#1A2E35"/>
<g opacity="0.3">
<path d="M192.464 207.316C190.403 207.86 174.083 206.759 165.891 204.12C160.02 202.248 154.313 199.782 150.406 196.864C147.384 194.657 144.783 191.924 142.731 188.795C141.785 188.257 141.168 191.079 140.789 192.261C140.409 193.444 139.642 196.499 137.472 197.905C134.817 199.622 130.746 200.188 130.381 203.713C130.152 205.923 132.162 207.75 134.383 207.86C141.364 208.202 160.65 209.124 165.79 209.12C172.1 209.134 185.624 209.494 192.464 207.316Z" fill="black"/>
</g>
<path d="M195.073 206.083C194.932 206.225 194.779 206.355 194.616 206.471C194.126 206.779 193.593 207.013 193.035 207.165C191.582 207.558 189.38 207.713 186.725 207.567C184.07 207.421 180.9 207.037 177.409 206.544C173.612 206.043 169.849 205.311 166.142 204.352C162.424 203.391 158.826 202.012 155.418 200.243C152.641 198.781 150.064 196.967 147.752 194.845C146.194 193.418 144.8 191.82 143.598 190.083C143.178 189.466 142.867 188.973 142.685 188.631C142.578 188.461 142.483 188.284 142.401 188.101C142.531 188.254 142.647 188.417 142.749 188.59C142.959 188.923 143.283 189.398 143.722 190.001C144.961 191.693 146.373 193.253 147.934 194.654C150.251 196.731 152.821 198.508 155.583 199.941C158.976 201.68 162.551 203.04 166.242 203.996C169.936 204.944 173.681 205.677 177.459 206.193C180.945 206.704 184.084 207.133 186.743 207.293C188.831 207.492 190.937 207.397 192.998 207.01C193.549 206.877 194.08 206.67 194.574 206.394C194.732 206.277 194.899 206.173 195.073 206.083Z" fill="#1A2E35"/>
<path d="M198.385 202.083C198.312 202.152 197.823 201.745 197.298 201.17C196.772 200.594 196.384 200.088 196.48 200.019C196.576 199.951 197.042 200.352 197.567 200.932C198.093 201.512 198.458 202.015 198.385 202.083Z" fill="#1A2E35"/>
<path d="M193.679 164.334C193.652 164.402 192.669 163.95 190.979 163.672C188.774 163.31 186.514 163.512 184.409 164.261C182.316 165.04 180.455 166.336 178.999 168.028C177.879 169.325 177.418 170.311 177.354 170.27C177.423 170.026 177.524 169.792 177.656 169.576C177.983 168.97 178.365 168.395 178.798 167.859C180.234 166.071 182.129 164.708 184.281 163.914C186.439 163.14 188.767 162.968 191.015 163.416C191.691 163.549 192.353 163.743 192.994 163.996C193.236 164.078 193.466 164.191 193.679 164.334Z" fill="#1A2E35"/>
<path d="M187.063 197.252C187.063 197.252 186.972 197.307 186.794 197.371C186.534 197.471 186.268 197.555 185.999 197.622C184.999 197.876 183.968 197.988 182.937 197.955C181.408 197.904 179.894 197.633 178.441 197.152C176.67 196.566 174.969 195.785 173.37 194.823C171.666 193.809 170.121 192.732 168.719 191.759C167.316 190.786 166.046 189.932 164.949 189.252C163.853 188.572 162.939 188.074 162.295 187.75C161.951 187.601 161.619 187.426 161.303 187.225C161.303 187.225 161.404 187.225 161.582 187.307C161.76 187.389 162.039 187.471 162.354 187.622C163.296 188.035 164.211 188.504 165.095 189.028C167.38 190.302 170.213 192.476 173.571 194.508C175.15 195.455 176.824 196.235 178.565 196.837C179.984 197.321 181.463 197.612 182.96 197.7C185.533 197.814 187.045 197.156 187.063 197.252Z" fill="#1A2E35"/>
<path d="M193.679 206.115C193.498 206.131 193.316 206.131 193.135 206.115L191.591 206.029C190.919 205.992 190.097 205.937 189.147 205.837C188.196 205.736 187.109 205.663 185.921 205.494C184.733 205.325 183.417 205.179 182.024 204.928C180.63 204.677 179.145 204.417 177.587 204.097C174.21 203.382 170.878 202.467 167.608 201.357C164.348 200.205 161.17 198.832 158.096 197.248C156.702 196.481 155.354 195.782 154.171 195.01C153.568 194.631 152.974 194.293 152.435 193.923L150.881 192.846C149.876 192.184 149.054 191.476 148.282 190.896C147.907 190.599 147.551 190.334 147.24 190.07L146.399 189.33L145.243 188.298C145.107 188.187 144.981 188.063 144.869 187.928C145.024 188.021 145.169 188.13 145.303 188.252L146.5 189.229L147.359 189.942C147.674 190.202 148.04 190.458 148.419 190.745C149.186 191.307 150.027 191.992 151.037 192.64L152.599 193.691C153.143 194.056 153.737 194.389 154.336 194.759C155.528 195.513 156.867 196.202 158.26 196.955C161.321 198.501 164.478 199.847 167.714 200.983C170.968 202.092 174.281 203.02 177.637 203.764C179.191 204.088 180.667 204.403 182.06 204.622C183.454 204.841 184.747 205.079 185.935 205.23C187.123 205.38 188.219 205.513 189.133 205.627C190.047 205.741 190.897 205.823 191.564 205.883L193.103 206.038C193.297 206.043 193.49 206.069 193.679 206.115Z" fill="#1A2E35"/>
<path d="M185.076 318.377L183.915 337.587L213.029 337.806C212.882 335.025 197.86 329.331 197.86 329.331L198.316 318.911L185.076 318.377Z" fill="#00D18F"/>
<path d="M188.863 328.002C188.578 328.085 188.334 328.271 188.18 328.525C188.026 328.779 187.973 329.081 188.032 329.372C188.104 329.655 188.282 329.9 188.53 330.056C188.777 330.212 189.074 330.268 189.361 330.212C189.659 330.122 189.913 329.926 190.074 329.66C190.236 329.395 190.295 329.079 190.239 328.774C190.047 328.226 189.27 327.787 188.754 328.061" fill="#E1E1E1"/>
<path d="M183.911 337.587V335.13L211.896 336.409C211.896 336.409 213.184 336.989 213.024 337.902L183.911 337.587Z" fill="#1A2E35"/>
<path d="M198.326 329.185C198.326 329.327 197.608 329.386 196.905 329.838C196.201 330.29 195.826 330.884 195.694 330.825C195.561 330.765 195.781 329.952 196.644 329.418C197.508 328.884 198.362 329.057 198.326 329.185Z" fill="#E1E1E1"/>
<path d="M201.373 330.468C201.405 330.61 200.788 330.847 200.299 331.441C199.81 332.034 199.669 332.674 199.527 332.669C199.385 332.665 199.303 331.856 199.92 331.126C200.537 330.395 201.373 330.336 201.373 330.468Z" fill="#E1E1E1"/>
<path d="M203.082 334.135C202.949 334.167 202.757 333.454 203.127 332.678C203.497 331.902 204.169 331.6 204.228 331.719C204.288 331.838 203.872 332.249 203.575 332.888C203.278 333.527 203.223 334.121 203.082 334.135Z" fill="#E1E1E1"/>
<path d="M198.097 325.756C198.038 325.884 197.389 325.683 196.585 325.733C195.78 325.783 195.15 326.03 195.077 325.906C195.004 325.783 195.611 325.281 196.557 325.235C197.503 325.189 198.17 325.642 198.097 325.756Z" fill="#E1E1E1"/>
<path d="M197.411 322.294C197.411 322.353 196.849 322.44 195.954 322.294C195.429 322.198 194.918 322.037 194.433 321.815C194.145 321.682 193.867 321.53 193.601 321.358C193.431 321.268 193.277 321.151 193.144 321.011C193.053 320.909 192.997 320.779 192.986 320.642C192.976 320.505 193.01 320.368 193.085 320.253C193.158 320.155 193.252 320.076 193.361 320.02C193.469 319.965 193.589 319.935 193.711 319.934C193.895 319.934 194.078 319.962 194.254 320.016C194.569 320.09 194.875 320.196 195.168 320.331C195.66 320.561 196.112 320.87 196.507 321.244C197.178 321.874 197.42 322.403 197.356 322.431C197.292 322.458 196.963 322.029 196.283 321.518C195.884 321.216 195.448 320.968 194.985 320.778C194.714 320.668 194.435 320.58 194.149 320.513C193.843 320.431 193.583 320.427 193.501 320.564C193.473 320.614 193.469 320.632 193.533 320.723C193.625 320.825 193.733 320.911 193.852 320.979C194.099 321.146 194.356 321.298 194.62 321.436C195.071 321.663 195.542 321.848 196.027 321.988C196.495 322.059 196.957 322.161 197.411 322.294Z" fill="#E1E1E1"/>
<path d="M197.243 322.5C197.193 322.5 196.914 322.012 196.873 321.089C196.849 320.55 196.921 320.01 197.083 319.496C197.179 319.19 197.304 318.895 197.458 318.614C197.536 318.425 197.66 318.259 197.82 318.131C197.98 318.003 198.17 317.918 198.372 317.884C198.502 317.888 198.627 317.929 198.735 318.002C198.842 318.074 198.927 318.176 198.98 318.295C199.054 318.464 199.104 318.644 199.126 318.829C199.176 319.154 199.176 319.485 199.126 319.811C199.042 320.355 198.825 320.871 198.495 321.313C197.919 322.062 197.325 322.226 197.312 322.181C197.298 322.135 197.769 321.838 198.226 321.117C198.476 320.699 198.632 320.231 198.683 319.747C198.723 319.467 198.723 319.182 198.683 318.902C198.641 318.591 198.527 318.345 198.408 318.372C198.29 318.4 198.015 318.6 197.897 318.829C197.751 319.08 197.627 319.342 197.527 319.614C197.362 320.082 197.264 320.571 197.234 321.066C197.175 321.943 197.321 322.478 197.243 322.5Z" fill="#E1E1E1"/>
<path d="M86.1301 272.486L67.3517 268.225L62.4126 296.901C65.186 297.207 73.241 283.317 73.241 283.317L83.4527 285.454L86.1301 272.486Z" fill="#00D18F"/>
<path d="M76.0097 274.687C75.9737 274.396 75.8315 274.129 75.6106 273.937C75.3896 273.745 75.1054 273.641 74.8125 273.645C74.5209 273.671 74.2502 273.807 74.0564 274.027C73.8625 274.246 73.7603 274.531 73.7708 274.824C73.8112 275.131 73.9635 275.413 74.1987 275.615C74.4339 275.817 74.7354 275.926 75.0456 275.92C75.6213 275.819 76.1787 275.125 75.9914 274.572" fill="#E1E1E1"/>
<path d="M67.3512 268.225L69.7774 268.618L63.9748 296.016C63.9748 296.016 63.1935 297.189 62.3208 296.888L67.3512 268.225Z" fill="#1A2E35"/>
<path d="M73.3047 283.819C73.1677 283.792 73.2225 283.08 72.8935 282.312C72.5645 281.545 72.0345 281.079 72.1122 280.942C72.1898 280.805 72.962 281.171 73.3504 282.107C73.7388 283.043 73.4281 283.86 73.3047 283.819Z" fill="#E1E1E1"/>
<path d="M71.5458 286.6C71.4042 286.6 71.2671 285.961 70.7599 285.386C70.2527 284.81 69.645 284.559 69.677 284.422C69.709 284.285 70.5132 284.331 71.1346 285.061C71.756 285.792 71.6783 286.618 71.5458 286.6Z" fill="#E1E1E1"/>
<path d="M67.6528 287.687C67.6528 287.554 68.3793 287.481 69.083 287.974C69.7867 288.468 69.9969 289.171 69.8552 289.212C69.7136 289.253 69.3983 288.755 68.8043 288.381C68.2103 288.006 67.6528 287.828 67.6528 287.687Z" fill="#E1E1E1"/>
<path d="M76.7316 284.134C76.6128 284.057 76.919 283.445 77.0012 282.646C77.0835 281.846 76.9418 281.184 77.0743 281.13C77.2068 281.075 77.6044 281.76 77.4947 282.7C77.385 283.641 76.8322 284.221 76.7316 284.134Z" fill="#E1E1E1"/>
<path d="M80.2542 284.038C80.1948 284.038 80.2039 283.462 80.51 282.604C80.6896 282.102 80.9305 281.623 81.2272 281.18C81.4035 280.917 81.5973 280.667 81.8073 280.431C81.9253 280.285 82.0656 280.159 82.223 280.057C82.3377 279.981 82.4743 279.947 82.6109 279.958C82.7476 279.97 82.8764 280.027 82.9767 280.121C83.0629 280.207 83.1273 280.312 83.1647 280.428C83.202 280.544 83.2112 280.667 83.1915 280.787C83.1628 280.969 83.1074 281.146 83.027 281.312C82.9006 281.605 82.7477 281.887 82.5702 282.152C82.2692 282.599 81.8991 282.995 81.4738 283.325C80.7429 283.887 80.1765 284.024 80.1582 283.969C80.14 283.914 80.615 283.65 81.2454 283.056C81.6069 282.713 81.9231 282.324 82.1865 281.901C82.3398 281.652 82.4727 281.391 82.5839 281.12C82.7164 280.828 82.762 280.572 82.6387 280.472C82.593 280.435 82.5748 280.426 82.4743 280.472C82.3604 280.547 82.2587 280.64 82.1728 280.746C81.9708 280.963 81.7816 281.192 81.6063 281.431C81.3104 281.839 81.052 282.273 80.8343 282.727C80.67 283.176 80.4762 283.614 80.2542 284.038Z" fill="#E1E1E1"/>
<path d="M80.085 283.819C80.085 283.769 80.6194 283.577 81.5376 283.682C82.0734 283.744 82.5944 283.898 83.0771 284.139C83.3644 284.281 83.6355 284.454 83.8856 284.655C84.0627 284.764 84.2081 284.917 84.3075 285.1C84.4069 285.282 84.4567 285.488 84.4521 285.696C84.4284 285.823 84.3683 285.941 84.2792 286.035C84.19 286.129 84.0755 286.195 83.9496 286.225C83.7687 286.269 83.5827 286.287 83.3968 286.28C83.0674 286.276 82.7407 286.22 82.4284 286.116C81.9068 285.944 81.4359 285.646 81.058 285.248C80.4093 284.559 80.3408 283.947 80.391 283.943C80.4413 283.938 80.656 284.445 81.3046 284.997C81.675 285.315 82.1098 285.548 82.5791 285.682C82.8493 285.76 83.1294 285.798 83.4105 285.796C83.7257 285.796 83.9907 285.732 83.9816 285.613C83.9724 285.495 83.8171 285.189 83.5933 285.029C83.3696 284.845 83.1296 284.681 82.8761 284.541C82.4467 284.301 81.9852 284.124 81.5056 284.016C80.6423 283.842 80.0941 283.901 80.085 283.819Z" fill="#E1E1E1"/>
<path d="M141.597 211.672C140.56 213.334 129.786 219.006 130.047 235.874L123.02 272.751L80.9851 268.815L77.0923 285.678L130.431 294.468C130.431 294.468 137.96 296.294 142.369 287.463C146.778 278.632 158.589 246.508 158.85 245.728C159.11 244.947 166.375 226.015 166.375 226.015L141.597 211.672Z" fill="#1A2E35"/>
<path d="M133.812 224.252C133.72 224.755 130.929 235.435 141.944 243.394C152.96 251.353 185.162 271.846 185.162 271.846L186.008 275.235L183.129 325.23L201.373 325.587C201.373 325.587 206.687 276.422 206.856 271.339C207.025 266.257 206.454 259.303 199.952 253.686C193.45 248.07 165.84 224.252 165.84 224.252C165.84 224.252 142.881 211.553 143.109 211.695C143.338 211.837 135.169 216.8 133.812 224.252Z" fill="#1A2E35"/>
<path d="M141.597 211.672L144.046 208.403C144.046 208.403 154.706 212.745 161.623 217.75C166.023 220.946 172.465 225.202 171.889 229.723L141.597 211.672Z" fill="#1A2E35"/>
<path d="M185.162 271.847C185.162 271.847 185.094 271.819 184.975 271.751L184.45 271.431C183.965 271.134 183.294 270.714 182.439 270.18L175.097 265.509C168.911 261.536 160.362 256.056 151.023 249.842C148.679 248.289 146.481 246.645 144.293 245.175C142.173 243.759 140.17 242.176 138.303 240.44C136.587 238.862 135.233 236.932 134.333 234.782C133.625 232.884 133.273 230.872 133.295 228.846C133.286 225.916 133.974 223.025 135.301 220.412C135.665 219.709 136.092 219.039 136.576 218.412L136.969 217.956C137.01 217.898 137.057 217.846 137.111 217.8C137.08 217.864 137.042 217.924 136.996 217.978L136.635 218.476C136.179 219.115 135.776 219.79 135.429 220.494C134.165 223.102 133.524 225.967 133.556 228.864C133.549 230.854 133.91 232.828 134.62 234.686C135.515 236.788 136.852 238.673 138.541 240.211C140.393 241.932 142.379 243.504 144.48 244.91C146.673 246.39 148.876 248.02 151.21 249.568C160.54 255.778 169.07 261.289 175.22 265.321L182.499 270.093L184.468 271.404L184.98 271.751C185.043 271.777 185.104 271.81 185.162 271.847Z" fill="#375A64"/>
<path d="M186.849 242.376C186.734 242.315 186.628 242.24 186.533 242.152L185.674 241.458L182.563 238.86L172.392 230.184C169.077 227.203 165.526 224.496 161.774 222.088C160.344 221.175 159.17 220.412 158.366 219.901L157.452 219.307C157.339 219.246 157.235 219.171 157.141 219.083C157.264 219.119 157.381 219.173 157.488 219.243C157.712 219.362 158.041 219.54 158.457 219.777C159.289 220.234 160.481 220.955 161.934 221.869C165.74 224.215 169.326 226.9 172.648 229.892L182.741 238.659L185.775 241.348L186.588 242.097C186.684 242.181 186.771 242.274 186.849 242.376Z" fill="#375A64"/>
<path d="M129.431 283.313C129.344 283.368 127.809 281.107 125.999 278.29C124.19 275.472 122.801 273.102 122.879 273.047C122.956 272.993 124.501 275.253 126.31 278.071C128.12 280.888 129.518 283.258 129.431 283.313Z" fill="#375A64"/>
<path d="M132.442 280.052C132.378 280.13 130.441 278.655 128.115 276.76C125.789 274.865 123.952 273.257 124.002 273.18C124.053 273.102 126.008 274.55 128.334 276.472C130.66 278.395 132.506 279.97 132.442 280.052Z" fill="#375A64"/>
<path d="M194.077 268.604C194.104 268.705 191.971 269.303 189.371 270.134C186.771 270.965 184.683 271.7 184.646 271.604C185.053 271.335 185.494 271.122 185.957 270.97C186.789 270.627 187.954 270.198 189.261 269.782C190.568 269.367 191.765 269.047 192.642 268.842C193.107 268.696 193.59 268.616 194.077 268.604Z" fill="#375A64"/>
<path d="M195.228 274.586C195.228 274.691 193.218 274.746 190.746 274.906C188.274 275.065 186.268 275.262 186.254 275.157C186.241 275.052 188.228 274.7 190.719 274.54C193.209 274.38 195.233 274.49 195.228 274.586Z" fill="#375A64"/>
</svg>
