<svg width="113" height="112" viewBox="0 0 113 112" fill="none" xmlns="http://www.w3.org/2000/svg">
<rect x="0.5" width="112" height="112" rx="24" fill="#39D192" fill-opacity="0.2"/>
<path fill-rule="evenodd" clip-rule="evenodd" d="M37.5325 29.5143C41.7592 27.4458 48.6935 25 56.2822 25C63.7125 25 70.4642 27.3441 74.6685 29.3851L74.9061 29.5005C76.1738 30.1275 77.1969 30.72 77.9168 31.2005L71.5544 40.5013C86.2221 55.4962 97.5518 87 56.2822 87C15.0126 87 26.0375 56.068 40.8326 40.5013L34.5115 31.2005C34.9989 30.8819 35.6173 30.5116 36.3544 30.1189C36.7196 29.9225 37.1123 29.721 37.5325 29.516V29.5143ZM67.4655 40.3773L72.5586 32.9315C67.8221 33.2725 62.1865 34.3852 56.761 35.956C52.8857 37.0755 48.5798 36.905 44.5925 36.1695C43.5877 35.9833 42.5899 35.7615 41.6008 35.5047L44.9077 40.3738C51.9952 42.8971 60.3763 42.8971 67.4655 40.3773ZM42.9184 43.3087C51.2116 46.5123 61.1789 46.5123 69.4721 43.3053C72.9338 46.9545 75.8296 51.1014 78.0632 55.6082C80.3919 60.3584 81.6595 65.107 81.4529 69.1993C81.2531 73.1487 79.6995 76.5228 76.1514 79.0306C72.4535 81.6434 66.234 83.5553 56.2805 83.5553C46.3166 83.5553 40.0679 81.6762 36.3355 79.0926C32.7616 76.6158 31.1925 73.2882 30.9703 69.3923C30.7378 65.3447 31.9779 60.6202 34.2979 55.8372C36.5112 51.2764 39.5994 46.8861 42.9184 43.3087ZM40.9376 31.7448C42.3155 32.1547 43.7554 32.5112 45.216 32.7816C48.9191 33.4637 52.6325 33.5636 55.8017 32.6456C59.4948 31.5697 63.251 30.7235 67.0487 30.112C63.8796 29.1578 60.173 28.4447 56.2805 28.4447C50.3469 28.4447 44.813 30.0999 40.9376 31.7448Z" fill="#4CD79D"/>
</svg>
