<svg width="112" height="112" viewBox="0 0 112 112" fill="none" xmlns="http://www.w3.org/2000/svg">
<rect width="112" height="112" rx="16" fill="#FFCB02"/>
<path d="M50.4377 60.3021C48.1325 58.2479 45.1882 57.1752 42.1297 57.1067V63.954L33 54.8243L42.1297 45.6946V52.5418C45.9414 52.5418 49.6617 53.8428 52.6973 56.1709C51.7683 57.4443 51.0088 58.833 50.4377 60.3021ZM69.5188 63.954V57.1067C68.3776 57.1067 59.2479 57.4719 58.2208 66.6929C61.7814 67.9482 63.653 71.874 62.3977 75.4346C61.79 77.146 60.5287 78.5467 58.89 79.3296C57.2514 80.1126 55.3692 80.2139 53.656 79.6114C50.1182 78.3333 48.2238 74.4303 49.4791 70.8697C50.1182 68.9069 51.7159 67.3776 53.656 66.6929C53.9752 62.7477 55.8011 59.0769 58.7547 56.442C61.7083 53.8071 65.5629 52.4105 69.5188 52.5418V45.6946L78.6485 54.8243L69.5188 63.954ZM58.1067 73.0837C58.1067 72.4784 57.8662 71.8978 57.4382 71.4698C57.0102 71.0417 56.4296 70.8013 55.8243 70.8013C55.2189 70.8013 54.6384 71.0417 54.2104 71.4698C53.7823 71.8978 53.5418 72.4784 53.5418 73.0837C53.5418 73.689 53.7823 74.2696 54.2104 74.6976C54.6384 75.1257 55.2189 75.3661 55.8243 75.3661C56.4296 75.3661 57.0102 75.1257 57.4382 74.6976C57.8662 74.2696 58.1067 73.689 58.1067 73.0837ZM53.5418 55.0982C54.8657 53.5918 56.3949 52.2908 58.1067 51.2409V41.1297H64.954L55.8243 32L46.6946 41.1297H53.5418V55.0982Z" fill="white"/>
</svg>
