<svg width="647" height="378" viewBox="0 0 647 378" fill="none" xmlns="http://www.w3.org/2000/svg">
<g clip-path="url(#clip0_554_762)">
<path d="M195.441 70.6761C251.303 79.8067 279.38 91.9407 322.804 47.1261C354.759 14.1422 393.504 -10.2203 441.81 4.27936C484.803 17.1886 492.029 55.9448 505.892 93.657C523.706 142.122 543.143 161.229 586.369 186.05C636.413 214.794 645.773 261.417 626.892 314.681C621.915 328.732 609.558 352.903 593.927 375.037H46.9869C28.0948 346.481 14.4235 314.904 11.6296 277.378C3.82721 172.706 78.4202 51.5569 195.441 70.6761Z" fill="#BEE8F5"/>
<path d="M394.363 79.1513C395.936 79.1493 397.486 79.5366 398.872 80.2784C399.762 77.0725 401.698 74.2535 404.373 72.2664C407.049 70.2793 410.312 69.2373 413.647 69.3048C416.982 69.3724 420.2 70.5457 422.792 72.6395C425.384 74.7333 427.203 77.6283 427.962 80.8676C430.213 79.7777 432.805 79.6169 435.174 80.4202C437.543 81.2234 439.499 82.9259 440.618 85.1583C441.691 84.1431 443.04 83.4642 444.496 83.2057C445.952 82.9471 447.453 83.1202 448.812 83.7036C450.17 84.287 451.328 85.255 452.14 86.4877C452.953 87.7204 453.385 89.1637 453.383 90.6389C453.382 90.9305 453.364 91.2219 453.328 91.5114H385.256C384.809 90.0864 384.706 88.5768 384.952 87.1045C385.199 85.6321 385.789 84.2383 386.676 83.0353C387.562 81.8324 388.72 80.8541 390.055 80.1794C391.39 79.5047 392.866 79.1526 394.363 79.1513Z" fill="white"/>
<path d="M191.167 100.219C189.107 100.216 187.078 100.724 185.264 101.698C184.099 97.5012 181.566 93.811 178.065 91.2096C174.563 88.6082 170.292 87.2437 165.927 87.3316C161.561 87.4195 157.349 88.9547 153.956 91.695C150.563 94.4352 148.181 98.2243 147.187 102.464C144.24 101.039 140.848 100.829 137.747 101.88C134.646 102.931 132.085 105.159 130.619 108.079C129.214 106.75 127.449 105.861 125.542 105.522C123.635 105.183 121.671 105.409 119.892 106.173C118.113 106.937 116.598 108.204 115.535 109.818C114.471 111.432 113.906 113.322 113.909 115.253C113.913 115.636 113.937 116.018 113.981 116.398H203.092C203.677 114.532 203.814 112.555 203.492 110.627C203.17 108.699 202.397 106.874 201.236 105.299C200.075 103.724 198.559 102.443 196.809 101.56C195.06 100.678 193.127 100.218 191.167 100.219Z" fill="white"/>
<path d="M494.504 198.618C492.443 198.616 490.414 199.124 488.598 200.097C487.433 195.901 484.9 192.21 481.399 189.609C477.897 187.008 473.626 185.643 469.261 185.731C464.895 185.819 460.683 187.354 457.29 190.094C453.896 192.835 451.515 196.624 450.521 200.864C447.574 199.437 444.181 199.226 441.079 200.277C437.977 201.328 435.415 203.557 433.95 206.479C432.544 205.151 430.78 204.263 428.873 203.924C426.967 203.586 425.003 203.813 423.225 204.577C421.447 205.34 419.932 206.607 418.868 208.22C417.805 209.833 417.239 211.722 417.241 213.653C417.241 214.035 417.265 214.417 417.312 214.797H506.426C507.011 212.932 507.148 210.955 506.826 209.027C506.504 207.099 505.731 205.274 504.571 203.699C503.41 202.124 501.894 200.844 500.145 199.961C498.397 199.078 496.464 198.618 494.504 198.618Z" fill="white"/>
<path d="M151.44 287.372H159.664V304.801H151.44V287.372Z" fill="#253D47"/>
<path d="M279.274 324.607L303.332 333.46L302.383 341.772L246.642 324.607H279.274Z" fill="#253D47"/>
<path d="M181.463 324.607L157.401 333.46L158.357 341.772L214.098 324.607H181.463Z" fill="#253D47"/>
<path d="M150.093 310.488C156.138 310.487 162.048 312.274 167.075 315.623C172.101 318.972 176.019 323.732 178.333 329.301C180.647 334.87 181.252 340.999 180.073 346.911C178.894 352.823 175.983 358.254 171.708 362.517C167.434 366.78 161.987 369.682 156.058 370.858C150.129 372.034 143.983 371.43 138.398 369.123C132.813 366.816 128.04 362.909 124.682 357.897C121.324 352.884 119.531 346.991 119.532 340.963C119.533 332.881 122.753 325.129 128.484 319.414C134.215 313.699 141.988 310.488 150.093 310.488Z" fill="#253D47"/>
<path d="M358.252 310.488C364.297 310.488 370.207 312.275 375.233 315.624C380.259 318.973 384.177 323.734 386.49 329.303C388.803 334.872 389.408 341 388.229 346.913C387.049 352.825 384.138 358.256 379.863 362.518C375.589 366.78 370.142 369.683 364.213 370.858C358.284 372.034 352.139 371.43 346.554 369.123C340.969 366.816 336.196 362.909 332.838 357.896C329.48 352.884 327.688 346.991 327.688 340.963C327.689 332.88 330.91 325.128 336.641 319.413C342.373 313.698 350.147 310.488 358.252 310.488Z" fill="#253D47"/>
<path d="M74.0602 300.888H167.422V348.718H74.0602V300.888Z" fill="#253D47"/>
<path d="M163.502 135.646H442.684V308.574H163.502V135.646Z" fill="#26B3DD"/>
<path d="M171.899 300.264H434.293C434.457 300.264 434.614 300.2 434.73 300.084C434.845 299.969 434.91 299.812 434.91 299.649V144.567C434.91 144.404 434.845 144.248 434.73 144.132C434.614 144.017 434.457 143.952 434.293 143.952H171.899C171.818 143.952 171.738 143.968 171.663 143.999C171.588 144.03 171.521 144.075 171.464 144.132C171.406 144.19 171.361 144.257 171.331 144.332C171.3 144.407 171.284 144.487 171.285 144.567V299.658C171.286 299.819 171.352 299.974 171.467 300.087C171.582 300.201 171.737 300.264 171.899 300.264ZM433.662 299.043H172.507V145.182H433.662V299.043Z" fill="#015B71"/>
<path d="M163.502 308.574H419.102V327.813H163.502V308.574Z" fill="#ABB2B8"/>
<path d="M224.634 337.078H311.717V348.72H224.634V337.078Z" fill="#ABB2B8"/>
<path d="M224.633 321.641H227.969V348.718H224.633V321.641Z" fill="#ABB2B8"/>
<path d="M419.103 324.607L432.441 340.408L431.489 348.718L408.386 324.607H419.103Z" fill="#ABB2B8"/>
<path d="M24.0648 265.762C24.9254 256.625 27.9919 252.275 45.2259 222.251C62.46 192.228 73.5869 190.927 83.185 187.88C90.8496 185.449 137.449 183.155 155.928 182.328V308.606C94.9373 308.411 87.8779 306.354 87.8779 331.461H24.0648C24.0648 331.461 23.1785 274.901 24.0648 265.762Z" fill="#26B3DD"/>
<path d="M33.2178 327.29H81.4405C81.6041 327.29 81.7609 327.225 81.8766 327.11C81.9923 326.995 82.0572 326.838 82.0572 326.675C82.0572 305.016 82.0572 301.111 148.05 301.111C148.131 301.112 148.212 301.096 148.287 301.065C148.362 301.035 148.43 300.99 148.487 300.933C148.545 300.876 148.591 300.809 148.622 300.734C148.653 300.66 148.67 300.58 148.67 300.499V197.523C148.67 190.618 145.228 187.116 138.481 187.116C119.242 187.148 93.973 190.383 85.8609 191.627C75.2904 193.246 67.6515 194.416 51.3382 222.835C35.1512 251.03 33.4186 256.548 32.6011 265.121C31.7893 273.608 32.5638 324.518 32.6011 326.681C32.6026 326.843 32.6683 326.998 32.7838 327.112C32.8993 327.226 33.0552 327.29 33.2178 327.29ZM80.8352 326.057H33.8374C33.7485 320.156 33.0858 273.17 33.8374 265.241C34.6377 256.863 36.3502 251.437 52.4168 223.45C68.4375 195.546 75.4453 194.471 86.0559 192.843C94.1451 191.605 119.331 188.381 138.467 188.349C144.513 188.349 147.442 191.35 147.442 197.526V299.881C83.2562 299.907 80.861 303.697 80.8209 326.057H80.8352Z" fill="#015B71"/>
<path d="M56.5692 226.179C64.4232 208.124 70.4212 203.555 75.2145 199.639C80.0078 195.723 123.32 191.481 131.501 191.481C139.682 191.481 139.682 199.639 139.682 199.639V229.225C139.682 238.361 132.918 239.883 132.918 239.883L69.2222 263.365H39.9892C39.9892 263.365 48.7066 244.225 56.5692 226.179Z" fill="#395B65"/>
<path d="M75.2202 199.628C75.8542 199.108 77.1623 198.59 78.9637 198.072L75.3293 245.819L136.107 238.133C135.187 238.938 134.1 239.532 132.923 239.872L69.2222 263.365H68.0576C68.0576 263.365 73.0889 201.364 75.2202 199.628Z" fill="#253D47"/>
<path d="M39.9899 264.672H69.2229L69.6762 264.594L133.329 241.113C134.307 240.827 140.996 238.59 140.996 229.214V199.628C140.996 196.353 139.014 190.166 131.507 190.166C124.889 190.166 79.7905 194.21 74.392 198.618L74.0133 198.927C69.1684 202.866 63.1416 207.777 55.368 225.649C47.5943 243.522 38.8855 262.635 38.7965 262.835C38.7057 263.034 38.6665 263.253 38.6824 263.471C38.6983 263.689 38.7689 263.899 38.8877 264.083C39.0065 264.267 39.1697 264.418 39.3623 264.522C39.5548 264.626 39.7707 264.681 39.9899 264.68V264.672ZM68.9877 262.063H42.0236C44.3959 256.825 51.4066 241.319 57.7747 226.685C65.2931 209.399 71.0473 204.714 75.6713 200.941L76.0529 200.629C80.1807 197.265 121.975 192.769 131.51 192.769C138.305 192.769 138.38 199.348 138.38 199.619V229.205C138.38 237.123 132.867 238.536 132.643 238.593L132.482 238.639L68.9877 262.063Z" fill="#253D47"/>
<path d="M49.5889 242.412C49.5889 244.162 50.2861 245.841 51.5272 247.078C52.7682 248.316 54.4514 249.011 56.2065 249.011C57.9616 249.011 59.6449 248.316 60.8859 247.078C62.127 245.841 62.8242 244.162 62.8242 242.412V221.09C62.8242 219.34 62.127 217.661 60.8859 216.424C59.6449 215.186 57.9616 214.491 56.2065 214.491C54.4514 214.491 52.7682 215.186 51.5272 216.424C50.2861 217.661 49.5889 219.34 49.5889 221.09V242.412Z" fill="#253D47"/>
<path d="M100.249 344.836C100.248 349.752 101.709 354.558 104.448 358.645C107.186 362.733 111.079 365.919 115.634 367.801C120.188 369.682 125.2 370.175 130.035 369.216C134.87 368.257 139.311 365.89 142.797 362.414C146.283 358.937 148.657 354.509 149.619 349.687C150.58 344.865 150.087 339.868 148.2 335.326C146.313 330.784 143.118 326.903 139.019 324.172C134.919 321.441 130.1 319.984 125.17 319.984C118.561 319.984 112.222 322.603 107.548 327.263C102.874 331.924 100.249 338.245 100.249 344.836Z" fill="#ABB2B8"/>
<path d="M125.171 314.361C131.216 314.361 137.125 316.149 142.151 319.499C147.177 322.848 151.094 327.609 153.407 333.178C155.72 338.747 156.324 344.875 155.145 350.787C153.965 356.7 151.053 362.13 146.778 366.392C142.504 370.654 137.057 373.556 131.128 374.732C125.199 375.907 119.054 375.303 113.469 372.996C107.885 370.688 103.112 366.781 99.7537 361.769C96.3957 356.757 94.6037 350.864 94.6043 344.836C94.6058 336.753 97.8269 329.001 103.559 323.286C109.291 317.571 117.065 314.361 125.171 314.361ZM125.171 366.876C129.54 366.876 133.81 365.584 137.442 363.164C141.075 360.743 143.906 357.304 145.578 353.279C147.249 349.254 147.687 344.826 146.834 340.553C145.982 336.281 143.879 332.356 140.79 329.276C137.701 326.195 133.765 324.098 129.48 323.248C125.196 322.398 120.755 322.834 116.719 324.501C112.683 326.168 109.233 328.991 106.806 332.613C104.379 336.235 103.084 340.494 103.084 344.85C103.084 350.692 105.411 356.294 109.553 360.425C113.695 364.555 119.313 366.876 125.171 366.876Z" fill="#253D47"/>
<path d="M125.171 330.394C128.036 330.394 130.837 331.242 133.219 332.83C135.601 334.417 137.457 336.674 138.553 339.314C139.649 341.953 139.935 344.858 139.375 347.66C138.816 350.462 137.436 353.035 135.409 355.055C133.383 357.075 130.802 358.45 127.992 359.007C125.181 359.564 122.269 359.277 119.622 358.183C116.975 357.09 114.713 355.238 113.122 352.862C111.531 350.486 110.682 347.693 110.682 344.836C110.682 342.939 111.057 341.06 111.785 339.308C112.513 337.555 113.581 335.963 114.926 334.622C116.272 333.28 117.869 332.217 119.627 331.491C121.385 330.766 123.269 330.393 125.171 330.394ZM125.171 353.48C126.885 353.481 128.561 352.975 129.986 352.026C131.411 351.076 132.523 349.727 133.179 348.148C133.835 346.57 134.008 344.832 133.674 343.156C133.34 341.479 132.515 339.939 131.304 338.73C130.092 337.522 128.548 336.698 126.867 336.364C125.187 336.03 123.444 336.201 121.86 336.854C120.277 337.508 118.923 338.615 117.97 340.036C117.018 341.456 116.509 343.127 116.508 344.836C116.511 347.126 117.425 349.321 119.049 350.939C120.673 352.557 122.875 353.467 125.171 353.469V353.48Z" fill="#253D47"/>
<path d="M91.5566 344.836H98.7021C98.7747 337.883 101.595 331.24 106.551 326.349C111.508 321.458 118.199 318.714 125.171 318.714C132.144 318.714 138.835 321.458 143.791 326.349C148.747 331.24 151.568 337.883 151.641 344.836H158.783C158.783 340.434 157.914 336.076 156.225 332.009C154.535 327.942 152.059 324.247 148.938 321.135C145.817 318.022 142.111 315.553 138.033 313.869C133.955 312.184 129.584 311.317 125.17 311.317C120.756 311.317 116.385 312.184 112.307 313.869C108.229 315.553 104.523 318.022 101.402 321.135C98.2804 324.247 95.8045 327.942 94.1153 332.009C92.4261 336.076 91.5566 340.434 91.5566 344.836Z" fill="#ABB2B8"/>
<path d="M24.0619 331.458H88.1016V357.591H24.0619V331.458Z" fill="#253D47"/>
<path d="M121.765 263.982H136.328C136.855 263.997 137.379 263.905 137.87 263.714C138.361 263.523 138.808 263.236 139.186 262.869C139.563 262.503 139.864 262.064 140.068 261.58C140.273 261.096 140.379 260.576 140.379 260.051C140.379 259.525 140.273 259.005 140.068 258.521C139.864 258.037 139.563 257.599 139.186 257.232C138.808 256.866 138.361 256.579 137.87 256.387C137.379 256.196 136.855 256.105 136.328 256.119H121.765C120.738 256.147 119.762 256.573 119.045 257.307C118.328 258.042 117.927 259.026 117.927 260.051C117.927 261.076 118.328 262.06 119.045 262.794C119.762 263.528 120.738 263.955 121.765 263.982ZM136.328 257.358C136.692 257.346 137.053 257.407 137.392 257.537C137.731 257.668 138.041 257.865 138.302 258.117C138.563 258.369 138.771 258.671 138.912 259.005C139.054 259.338 139.127 259.697 139.127 260.059C139.127 260.422 139.054 260.78 138.912 261.114C138.771 261.448 138.563 261.75 138.302 262.002C138.041 262.254 137.731 262.451 137.392 262.581C137.053 262.712 136.692 262.773 136.328 262.761H121.765C121.062 262.738 120.395 262.444 119.905 261.939C119.416 261.435 119.142 260.761 119.142 260.059C119.142 259.358 119.416 258.683 119.905 258.179C120.395 257.675 121.062 257.38 121.765 257.358H136.328Z" fill="#015B71"/>
<path d="M180.2 159.018H425.989C426.07 159.018 426.15 159.002 426.225 158.971C426.3 158.94 426.368 158.895 426.425 158.838C426.482 158.781 426.528 158.713 426.559 158.638C426.59 158.564 426.605 158.484 426.605 158.403C426.605 158.322 426.59 158.242 426.559 158.168C426.528 158.093 426.482 158.025 426.425 157.968C426.368 157.911 426.3 157.866 426.225 157.835C426.15 157.804 426.07 157.788 425.989 157.788H180.2C180.119 157.788 180.039 157.804 179.964 157.835C179.889 157.866 179.821 157.911 179.764 157.968C179.706 158.025 179.661 158.093 179.63 158.168C179.599 158.242 179.583 158.322 179.583 158.403C179.583 158.484 179.599 158.564 179.63 158.638C179.661 158.713 179.706 158.781 179.764 158.838C179.821 158.895 179.889 158.94 179.964 158.971C180.039 159.002 180.119 159.018 180.2 159.018Z" fill="#015B71"/>
<path d="M180.201 173.177H425.99C426.074 173.183 426.159 173.171 426.238 173.143C426.318 173.115 426.391 173.071 426.453 173.013C426.514 172.956 426.564 172.886 426.597 172.809C426.631 172.731 426.648 172.648 426.648 172.564C426.648 172.479 426.631 172.396 426.597 172.319C426.564 172.241 426.514 172.172 426.453 172.114C426.391 172.057 426.318 172.012 426.238 171.984C426.159 171.956 426.074 171.944 425.99 171.95H180.201C180.116 171.944 180.032 171.956 179.952 171.984C179.872 172.012 179.799 172.057 179.738 172.114C179.676 172.172 179.627 172.241 179.593 172.319C179.559 172.396 179.542 172.479 179.542 172.564C179.542 172.648 179.559 172.731 179.593 172.809C179.627 172.886 179.676 172.956 179.738 173.013C179.799 173.071 179.872 173.115 179.952 173.143C180.032 173.171 180.116 173.183 180.201 173.177Z" fill="#015B71"/>
<path d="M180.201 187.334H425.99C426.074 187.34 426.159 187.328 426.238 187.3C426.318 187.271 426.391 187.227 426.453 187.17C426.514 187.112 426.564 187.043 426.597 186.965C426.631 186.888 426.648 186.805 426.648 186.72C426.648 186.636 426.631 186.553 426.597 186.475C426.564 186.398 426.514 186.328 426.453 186.271C426.391 186.213 426.318 186.169 426.238 186.141C426.159 186.113 426.074 186.101 425.99 186.107H180.201C180.116 186.101 180.032 186.113 179.952 186.141C179.872 186.169 179.799 186.213 179.738 186.271C179.676 186.328 179.627 186.398 179.593 186.475C179.559 186.553 179.542 186.636 179.542 186.72C179.542 186.805 179.559 186.888 179.593 186.965C179.627 187.043 179.676 187.112 179.738 187.17C179.799 187.227 179.872 187.271 179.952 187.3C180.032 187.328 180.116 187.34 180.201 187.334Z" fill="#015B71"/>
<path d="M180.2 258.118H425.989C426.152 258.118 426.309 258.054 426.425 257.938C426.54 257.823 426.605 257.667 426.605 257.503C426.605 257.34 426.54 257.184 426.425 257.069C426.309 256.953 426.152 256.888 425.989 256.888H180.2C180.036 256.888 179.879 256.953 179.764 257.069C179.648 257.184 179.583 257.34 179.583 257.503C179.583 257.667 179.648 257.823 179.764 257.938C179.879 258.054 180.036 258.118 180.2 258.118Z" fill="#015B71"/>
<path d="M180.2 272.278H425.989C426.152 272.278 426.309 272.213 426.425 272.098C426.54 271.982 426.605 271.826 426.605 271.663C426.605 271.5 426.54 271.343 426.425 271.228C426.309 271.113 426.152 271.048 425.989 271.048H180.2C180.036 271.048 179.879 271.113 179.764 271.228C179.648 271.343 179.583 271.5 179.583 271.663C179.583 271.826 179.648 271.982 179.764 272.098C179.879 272.213 180.036 272.278 180.2 272.278Z" fill="#015B71"/>
<path d="M180.2 286.434H425.989C426.152 286.434 426.309 286.369 426.425 286.254C426.54 286.139 426.605 285.982 426.605 285.819C426.605 285.656 426.54 285.5 426.425 285.384C426.309 285.269 426.152 285.204 425.989 285.204H180.2C180.036 285.204 179.879 285.269 179.764 285.384C179.648 285.5 179.583 285.656 179.583 285.819C179.583 285.982 179.648 286.139 179.764 286.254C179.879 286.369 180.036 286.434 180.2 286.434Z" fill="#015B71"/>
<path d="M429.584 329.719H435.301V351.098H429.584V329.719Z" fill="#253D47"/>
<path d="M160.588 308.574H442.684V314.358H160.588V308.574Z" fill="#253D47"/>
<path d="M305.528 344.836C305.527 349.752 306.989 354.557 309.727 358.645C312.465 362.733 316.358 365.919 320.912 367.801C325.466 369.682 330.478 370.175 335.313 369.216C340.148 368.257 344.59 365.89 348.076 362.415C351.562 358.939 353.936 354.51 354.898 349.689C355.86 344.867 355.366 339.87 353.48 335.328C351.594 330.786 348.399 326.905 344.3 324.173C340.201 321.442 335.382 319.984 330.452 319.984C323.842 319.984 317.503 322.603 312.829 327.263C308.155 331.924 305.529 338.245 305.528 344.836Z" fill="#ABB2B8"/>
<path d="M330.452 314.361C336.497 314.361 342.407 316.149 347.432 319.499C352.458 322.848 356.375 327.609 358.688 333.178C361.001 338.747 361.606 344.875 360.426 350.787C359.246 356.7 356.334 362.13 352.06 366.392C347.785 370.654 342.338 373.556 336.41 374.732C330.481 375.907 324.335 375.303 318.751 372.996C313.166 370.688 308.393 366.781 305.035 361.769C301.677 356.757 299.885 350.864 299.886 344.836C299.887 336.753 303.108 329.001 308.84 323.286C314.573 317.571 322.347 314.361 330.452 314.361ZM330.452 366.876C334.821 366.876 339.091 365.584 342.724 363.164C346.356 360.743 349.187 357.304 350.859 353.279C352.531 349.254 352.968 344.826 352.116 340.553C351.263 336.281 349.16 332.356 346.071 329.276C342.982 326.195 339.046 324.098 334.762 323.248C330.477 322.398 326.036 322.834 322 324.501C317.964 326.168 314.514 328.991 312.087 332.613C309.66 336.235 308.365 340.494 308.365 344.85C308.365 350.692 310.692 356.294 314.834 360.425C318.976 364.555 324.594 366.876 330.452 366.876Z" fill="#253D47"/>
<path d="M330.453 330.394C333.319 330.394 336.119 331.241 338.502 332.828C340.884 334.416 342.741 336.672 343.837 339.312C344.933 341.951 345.22 344.856 344.661 347.658C344.102 350.46 342.722 353.034 340.696 355.054C338.669 357.074 336.088 358.45 333.278 359.007C330.468 359.564 327.555 359.277 324.908 358.184C322.261 357.09 319.999 355.238 318.407 352.862C316.816 350.486 315.967 347.693 315.967 344.836C315.968 341.005 317.495 337.332 320.211 334.623C322.928 331.915 326.612 330.394 330.453 330.394ZM330.453 353.48C332.167 353.48 333.843 352.974 335.268 352.024C336.693 351.075 337.803 349.725 338.459 348.146C339.115 346.568 339.287 344.83 338.953 343.154C338.619 341.478 337.794 339.938 336.582 338.729C335.37 337.521 333.827 336.698 332.146 336.364C330.465 336.03 328.723 336.201 327.139 336.854C325.556 337.508 324.202 338.615 323.249 340.036C322.297 341.457 321.788 343.127 321.788 344.836C321.791 347.126 322.705 349.321 324.33 350.94C325.954 352.559 328.157 353.468 330.453 353.469V353.48Z" fill="#253D47"/>
<path d="M296.835 344.836H303.983C303.947 341.347 304.605 337.886 305.918 334.652C307.232 331.418 309.176 328.476 311.637 325.996C314.098 323.516 317.028 321.547 320.257 320.203C323.486 318.86 326.951 318.168 330.45 318.168C333.949 318.168 337.413 318.86 340.642 320.203C343.871 321.547 346.801 323.516 349.262 325.996C351.724 328.476 353.667 331.418 354.981 334.652C356.295 337.886 356.953 341.347 356.916 344.836H364.064C363.983 336 360.405 327.553 354.11 321.333C347.815 315.113 339.312 311.624 330.45 311.624C321.588 311.624 313.085 315.113 306.79 321.333C300.494 327.553 296.917 336 296.835 344.836Z" fill="#ABB2B8"/>
<path d="M125.822 220.91C125.904 220.91 125.984 220.895 126.06 220.864C126.135 220.833 126.203 220.787 126.261 220.73C126.372 220.614 126.434 220.46 126.434 220.301C126.434 220.141 126.372 219.987 126.261 219.871L108.574 202.234C108.458 202.123 108.304 202.062 108.143 202.062C107.983 202.062 107.829 202.123 107.713 202.234C107.6 202.348 107.537 202.502 107.537 202.663C107.537 202.824 107.6 202.978 107.713 203.092L125.386 220.744L125.822 220.91Z" fill="#5D747D"/>
<path d="M115.042 232.246C115.123 232.246 115.204 232.231 115.279 232.2C115.354 232.169 115.422 232.123 115.478 232.065C115.591 231.951 115.654 231.797 115.654 231.636C115.654 231.476 115.591 231.322 115.478 231.207L92.4555 208.246C92.4034 208.174 92.3361 208.114 92.2582 208.07C92.1803 208.026 92.0938 207.999 92.0046 207.992C91.9154 207.985 91.8258 207.997 91.7418 208.027C91.6578 208.058 91.5814 208.107 91.5182 208.17C91.4549 208.233 91.4061 208.309 91.3753 208.393C91.3445 208.477 91.3323 208.566 91.3396 208.655C91.3469 208.744 91.3736 208.83 91.4177 208.908C91.4618 208.985 91.5223 209.053 91.595 209.105L114.618 232.063L115.042 232.246Z" fill="#5D747D"/>
<path d="M128.004 234.474L128.44 234.294C128.552 234.179 128.615 234.025 128.615 233.865C128.615 233.705 128.552 233.551 128.44 233.436L94.6033 199.697C94.4857 199.599 94.3361 199.549 94.1834 199.555C94.0307 199.562 93.8859 199.625 93.7769 199.731C93.668 199.838 93.6027 199.982 93.5937 200.134C93.5848 200.286 93.6327 200.436 93.7284 200.555L127.56 234.285C127.617 234.346 127.686 234.394 127.762 234.426C127.839 234.459 127.921 234.475 128.004 234.474Z" fill="#5D747D"/>
<path d="M108.781 238.479C108.943 238.478 109.1 238.415 109.217 238.301C109.329 238.187 109.393 238.033 109.393 237.872C109.393 237.712 109.329 237.558 109.217 237.443L84.1801 212.449C84.0609 212.353 83.9105 212.305 83.7579 212.314C83.6054 212.323 83.4616 212.388 83.3544 212.497C83.2472 212.606 83.1844 212.75 83.1779 212.902C83.1715 213.055 83.2219 213.204 83.3195 213.321L108.356 238.284L108.781 238.479Z" fill="#5D747D"/>
<path d="M534.308 243.573C534.559 243.574 534.807 243.62 535.042 243.708C535.985 243.914 536.946 244.022 537.911 244.031C537.722 243.77 537.604 243.791 537.288 243.745L536.456 243.659C536.034 243.617 535.617 243.532 535.212 243.404C534.89 243.296 534.566 243.196 534.245 243.093C533.924 242.99 533.7 242.889 533.424 242.781C533.149 242.672 532.564 242.566 532.441 242.294C532.191 241.722 533.046 241.994 533.227 242.043C533.599 242.14 533.972 242.252 534.345 242.329C534.774 242.45 535.213 242.531 535.656 242.569C536.115 242.611 536.576 242.619 537.036 242.595C537.323 242.595 537.449 242.686 537.466 242.38C536.936 242.344 536.408 242.276 535.886 242.177C534.883 241.961 533.921 241.588 533.034 241.073L532.661 240.819C532.626 240.79 532.597 240.754 532.578 240.713C532.56 240.672 532.551 240.627 532.553 240.582C532.555 240.536 532.567 240.492 532.59 240.453C532.612 240.414 532.644 240.38 532.682 240.355L533.1 240.432C533.737 240.776 534.42 241.026 535.128 241.173C535.625 241.277 536.13 241.341 536.637 241.365C536.99 241.391 537.653 241.508 537.845 241.193C536.853 241.058 535.891 240.753 535.002 240.292C534.575 240.078 533.855 239.852 533.548 239.483C533.501 239.438 533.472 239.379 533.463 239.315C533.455 239.251 533.468 239.186 533.502 239.131C533.535 239.075 533.586 239.033 533.646 239.01C533.707 238.987 533.773 238.985 533.835 239.005L534.322 239.265C535.234 239.653 536.181 239.951 537.151 240.158C538.568 240.407 539.879 239.983 541.258 239.754C540.55 239.397 539.712 239.468 539.007 239.088C538.681 238.898 538.386 238.66 538.132 238.381C537.905 238.158 538.132 237.738 538.439 237.909C538.748 237.987 538.989 238.276 539.316 238.336C539.505 238.384 539.697 238.422 539.89 238.447C540.771 238.432 541.641 238.643 542.417 239.059C543.278 239.514 544.055 240.04 545.039 240.012C545.328 240.002 545.616 239.97 545.9 239.917C548.966 239.345 560.01 234.588 562.97 233.793C565.031 233.267 567.155 233.029 569.281 233.087C569.281 233.087 575.434 233.444 572.055 237.254C568.854 240.87 552.144 242.918 547.512 243.873C546.904 244.031 546.333 244.128 546.106 244.16C544.349 244.568 542.562 244.841 540.762 244.975C539.213 245.048 537.661 244.932 536.141 244.629C535.537 244.497 534.944 244.322 534.365 244.105C534.099 244.031 533.964 243.659 534.308 243.573ZM532.461 242.315L532.604 242.446L532.461 242.315Z" fill="#EA8859"/>
<path d="M569.1 239.051C569.1 239.051 577.103 235.741 582.149 227.349C587.195 218.956 591.988 209.354 587.86 207.612C583.733 205.869 580.976 207.509 579.562 211.902C578.148 216.296 574.789 219.339 572.104 223.744C569.419 228.15 565.672 232.246 565.265 233.722C564.858 235.198 569.1 239.051 569.1 239.051Z" fill="#EA8859"/>
<path d="M590.089 208.85C589.948 208.389 589.707 207.964 589.383 207.606C589.058 207.248 588.659 206.966 588.213 206.779C587.162 206.306 586.026 206.048 584.874 206.021C582.88 206.021 580.192 206.991 578.704 211.622C577.843 214.291 576.185 216.51 574.427 218.859C573.953 219.485 573.48 220.12 572.992 220.778L572.571 221.37L573.058 221.908C575.493 224.552 578.391 226.731 581.609 228.338L582.392 228.653L582.906 227.809C588.827 217.987 591.104 211.962 590.089 208.85Z" fill="#015B71"/>
<path d="M467.563 353.757L470.338 354.271L468.046 366.581L465.27 366.067L467.563 353.757Z" fill="#1C3039"/>
<path d="M463.55 354.856L516.139 364.582C516.595 364.665 517.065 364.565 517.447 364.304C517.828 364.042 518.091 363.64 518.176 363.186L539.512 248.539L549.609 241.871C549.809 241.749 549.982 241.588 550.117 241.397C550.253 241.207 550.35 240.991 550.4 240.763C550.451 240.535 550.455 240.299 550.412 240.069C550.369 239.839 550.28 239.62 550.151 239.425C550.022 239.23 549.854 239.063 549.659 238.934C549.463 238.805 549.244 238.717 549.013 238.674C548.783 238.631 548.546 238.635 548.317 238.686C548.088 238.736 547.872 238.832 547.681 238.968L536.964 246.042C536.767 246.171 536.599 246.339 536.469 246.536C536.34 246.733 536.253 246.954 536.213 247.186L515.052 360.854L464.184 351.438C463.728 351.353 463.256 351.453 462.874 351.715C462.491 351.977 462.228 352.38 462.143 352.835C462.059 353.29 462.159 353.761 462.421 354.142C462.684 354.524 463.088 354.786 463.545 354.87L463.55 354.856Z" fill="#1C3039"/>
<path d="M455.955 354.856L508.543 364.582C508.999 364.665 509.469 364.565 509.851 364.303C510.233 364.042 510.495 363.64 510.58 363.186L531.921 248.53L542.022 241.862C542.217 241.738 542.385 241.576 542.517 241.386C542.648 241.195 542.741 240.981 542.789 240.755C542.836 240.529 542.839 240.296 542.795 240.069C542.752 239.842 542.663 239.626 542.535 239.433C542.407 239.24 542.242 239.075 542.049 238.947C541.856 238.818 541.64 238.73 541.413 238.686C541.185 238.641 540.951 238.643 540.724 238.69C540.497 238.737 540.282 238.828 540.091 238.959L529.374 246.033C529.177 246.163 529.009 246.331 528.88 246.528C528.75 246.725 528.662 246.946 528.62 247.177L507.462 360.846L456.591 351.429C456.365 351.387 456.133 351.391 455.908 351.438C455.684 351.486 455.47 351.577 455.281 351.707C455.092 351.837 454.93 352.003 454.805 352.195C454.68 352.388 454.594 352.603 454.552 352.828C454.51 353.053 454.513 353.285 454.561 353.509C454.609 353.733 454.701 353.946 454.831 354.135C454.961 354.323 455.127 354.485 455.32 354.61C455.513 354.734 455.728 354.82 455.955 354.862V354.856Z" fill="#1C3039"/>
<path d="M518.763 350.483C521.206 350.934 523.459 352.097 525.238 353.826C527.017 355.555 528.242 357.771 528.758 360.194C529.273 362.617 529.057 365.138 528.135 367.438C527.213 369.739 525.628 371.715 523.58 373.116C521.532 374.518 519.113 375.282 516.629 375.312C514.145 375.343 511.708 374.638 509.626 373.286C507.545 371.935 505.911 369.998 504.934 367.721C503.956 365.444 503.678 362.929 504.134 360.494C504.745 357.233 506.628 354.347 509.371 352.47C512.114 350.593 515.492 349.878 518.763 350.483Z" fill="#394445"/>
<path d="M517.63 356.572C518.864 356.8 520.002 357.388 520.901 358.262C521.8 359.135 522.419 360.255 522.68 361.479C522.941 362.703 522.832 363.977 522.366 365.139C521.901 366.302 521.1 367.3 520.066 368.009C519.032 368.718 517.81 369.104 516.555 369.12C515.3 369.137 514.068 368.781 513.016 368.099C511.963 367.417 511.137 366.439 510.642 365.289C510.147 364.139 510.006 362.869 510.235 361.638C510.543 359.989 511.494 358.529 512.881 357.579C514.268 356.63 515.976 356.267 517.63 356.572Z" fill="#ABB2B8"/>
<path d="M578.368 363.252L578.873 367.354C578.873 367.354 575.95 369.642 572.889 367.714C573.406 365.998 573.007 362.634 573.007 362.634L578.368 363.252Z" fill="#F39A69"/>
<path d="M578.721 372.382C578.721 372.382 578.638 374.51 576.027 374.353C574.816 374.249 573.599 374.465 572.499 374.979C571.727 375.337 561.599 376.358 562.155 371.45C562.712 366.541 578.721 372.382 578.721 372.382Z" fill="#E7E7E7"/>
<path d="M571.768 365.46C571.768 365.46 572.184 364.084 574.063 364.862C575.942 365.64 576.226 366.449 575.621 367.94C575.621 367.94 577.439 368.578 578.885 367.368C578.885 367.368 580.136 368.306 578.733 372.396C578.733 372.396 576.823 373.163 575.466 373.003C574.109 372.843 573.137 372.771 572.213 373.532C571.289 374.293 561.794 374.542 562.141 371.678C562.397 369.55 564.129 368.223 565.569 368.732C565.558 368.718 570.001 367.002 571.768 365.46Z" fill="white"/>
<path d="M579.197 367.863C579.051 369.247 578.609 370.68 577.407 371.338L577.12 371.266C576.79 370.846 576.333 370.543 575.816 370.402C575.299 370.262 574.75 370.292 574.252 370.488C573.56 370.792 573.001 371.298 572.321 371.633C571.214 372.219 569.984 372.538 568.73 372.565C567.582 372.545 566.412 372.279 565.534 371.515C565.067 371.149 564.685 370.687 564.413 370.159C564.253 369.716 564.138 369.256 564.071 368.789C563.57 369.011 563.139 369.366 562.826 369.816C563.41 369.944 563.926 370.28 564.278 370.76C564.935 371.668 565.37 372.716 565.549 373.821C567.343 374.072 569.163 374.086 570.962 373.864L570.976 373.838C571.948 372.634 572.929 371.467 574.602 371.575C575.04 371.576 575.468 371.707 575.832 371.95C576.196 372.193 576.48 372.539 576.647 372.943C577.353 372.823 578.045 372.631 578.712 372.371C579.602 369.819 579.441 368.495 579.197 367.863Z" fill="#26B3DD"/>
<path d="M567.299 370.963C568.366 371.584 569.419 371.158 570.532 370.86C572.583 370.311 574.723 369.696 576.148 368.063C575.965 368.038 575.785 367.996 575.609 367.94C576.214 366.449 575.919 365.651 574.052 364.862C572.184 364.072 571.757 365.46 571.757 365.46C570.104 366.89 566.137 368.483 565.607 368.692C565.849 369.642 566.457 370.458 567.299 370.963Z" fill="white"/>
<path d="M575.77 367.988C574.353 369.381 572.376 369.962 570.466 370.474C569.353 370.76 568.3 371.195 567.233 370.577C566.511 370.137 565.957 369.468 565.661 368.678H565.618C565.857 369.626 566.461 370.442 567.299 370.949C568.366 371.57 569.419 371.143 570.532 370.846C572.583 370.297 574.723 369.682 576.148 368.048L575.77 367.988Z" fill="#26B3DD"/>
<path d="M572.389 365.32C572.389 365.32 573.947 365.669 575.089 367.697C575.089 367.697 575.505 367.145 575.344 366.633C575.344 366.633 574.644 365.202 572.659 364.971C572.659 364.971 572.412 364.911 572.389 365.32Z" fill="#26B3DD"/>
<path d="M568.37 370.86L568.238 370.755C567.794 369.896 567.062 368.861 566.093 368.684L565.926 368.443L566.164 368.277C567.082 368.443 567.9 369.21 568.611 370.566L568.52 370.852L568.37 370.86Z" fill="#26B3DD"/>
<path d="M569.214 370.48L569.057 370.311C568.933 369.533 567.74 368.389 566.96 368.309L566.776 368.086L567.006 367.903C567.984 368.008 569.318 369.278 569.467 370.254L569.292 370.488L569.214 370.48Z" fill="#26B3DD"/>
<path d="M570.161 370.228L570 370.036C569.969 369.258 568.735 368.02 567.992 367.831L567.84 367.582L568.09 367.428C569.019 367.665 570.384 369.044 570.416 370.022L570.218 370.237L570.161 370.228Z" fill="#26B3DD"/>
<path d="M570.99 370.039L570.838 369.893C570.699 369.349 570.436 368.845 570.07 368.419C569.703 367.993 569.242 367.658 568.724 367.439L568.615 367.167L568.902 367.062C569.475 367.306 569.984 367.679 570.391 368.15C570.798 368.622 571.091 369.18 571.248 369.782L571.11 370.036L570.99 370.039Z" fill="#26B3DD"/>
<path d="M571.805 369.81L571.662 369.685C571.303 368.738 570.698 367.433 569.547 367.056L569.413 366.793L569.674 366.661C570.993 367.093 571.662 368.509 572.049 369.536L571.925 369.805L571.805 369.81Z" fill="#26B3DD"/>
<path d="M572.716 369.427L572.556 369.258C572.455 368.658 572.193 368.097 571.799 367.633C571.405 367.169 570.892 366.819 570.315 366.621L570.172 366.366L570.43 366.226C571.085 366.444 571.668 366.837 572.115 367.361C572.563 367.885 572.858 368.522 572.969 369.201L572.791 369.433L572.716 369.427Z" fill="#26B3DD"/>
<path d="M573.557 369.038L573.405 368.895C572.995 367.522 572.197 366.607 571.027 366.192L570.901 365.926L571.165 365.8C572.467 366.275 573.353 367.273 573.801 368.781L573.66 369.035L573.557 369.038Z" fill="#26B3DD"/>
<path d="M574.374 368.572L574.228 368.437C573.976 367.72 573.215 366.023 571.569 365.846L571.385 365.614L571.612 365.431C573.494 365.637 574.34 367.508 574.615 368.292L574.489 368.555L574.374 368.572Z" fill="#26B3DD"/>
<path d="M619.138 358.878L621.264 362.416C621.264 362.416 619.543 365.703 615.954 365.188C615.725 363.42 613.975 360.5 613.975 360.5L619.138 358.878Z" fill="#F39A69"/>
<path d="M623.203 367.067C623.203 367.067 624.003 369.044 621.554 369.962C620.408 370.357 619.387 371.048 618.596 371.964C618.037 372.605 609.222 377.662 607.696 372.957C606.17 368.252 623.203 367.067 623.203 367.067Z" fill="#E7E7E7"/>
<path d="M614.018 363.586C614.018 363.586 613.837 362.156 615.86 362.11C617.882 362.064 618.482 362.682 618.542 364.281C618.542 364.281 620.461 364.124 621.278 362.416C621.278 362.416 622.807 362.762 623.203 367.067C623.203 367.067 621.769 368.546 620.469 368.952C619.17 369.359 618.249 369.69 617.719 370.76C617.188 371.83 608.625 375.932 607.77 373.175C607.128 371.132 608.163 369.21 609.687 369.09C609.687 369.09 613.037 365.712 614.018 363.586Z" fill="white"/>
<path d="M621.779 362.751C622.215 364.075 622.399 365.56 621.573 366.65L621.286 366.701C620.813 366.453 620.271 366.363 619.743 366.445C619.214 366.528 618.726 366.778 618.352 367.159C617.844 367.714 617.543 368.406 617.061 368.987C616.289 369.973 615.297 370.765 614.164 371.301C613.116 371.744 611.935 371.99 610.816 371.644C610.24 371.502 609.702 371.237 609.238 370.869C608.909 370.527 608.615 370.153 608.36 369.753C607.995 370.163 607.749 370.664 607.649 371.204C608.236 371.079 608.849 371.173 609.37 371.47C610.342 372.035 611.168 372.818 611.783 373.758C613.524 373.257 615.191 372.528 616.739 371.59V371.561C617.132 370.068 617.551 368.603 619.12 368.014C619.522 367.838 619.966 367.784 620.398 367.859C620.83 367.935 621.23 368.136 621.547 368.438C622.145 368.043 622.7 367.589 623.205 367.082C622.956 364.37 622.267 363.229 621.779 362.751Z" fill="#26B3DD"/>
<path d="M612.197 370.431C613.427 370.563 614.205 369.742 615.108 369.018C616.752 367.679 618.453 366.246 619.084 364.172C618.907 364.227 618.726 364.263 618.542 364.281C618.482 362.674 617.879 362.061 615.86 362.11C613.84 362.159 614.018 363.586 614.018 363.586C613.1 365.568 610.131 368.635 609.733 369.044C610.339 369.811 611.224 370.31 612.197 370.431Z" fill="white"/>
<path d="M618.708 364.261C617.985 366.112 616.413 367.445 614.884 368.692C613.992 369.416 613.204 370.237 611.979 370.105C611.14 369.998 610.361 369.613 609.767 369.012L609.733 369.044C610.339 369.811 611.224 370.31 612.197 370.431C613.427 370.563 614.205 369.742 615.108 369.018C616.752 367.68 618.453 366.246 619.084 364.173L618.708 364.261Z" fill="#26B3DD"/>
<path d="M614.532 363.194C614.532 363.194 616.092 362.874 617.974 364.261C617.974 364.261 618.129 363.586 617.773 363.183C617.773 363.183 616.549 362.167 614.641 362.768C614.632 362.78 614.38 362.825 614.532 363.194Z" fill="#26B3DD"/>
<path d="M613.135 369.899L612.971 369.856C612.217 369.261 611.121 368.609 610.163 368.841L609.91 368.689L610.062 368.443C610.963 368.214 612.027 368.581 613.232 369.533L613.264 369.819L613.135 369.899Z" fill="#26B3DD"/>
<path d="M613.745 369.201L613.533 369.113C613.103 368.449 611.545 367.894 610.799 368.134L610.541 368.006L610.673 367.745C611.608 367.459 613.344 368.063 613.883 368.89L613.82 369.176L613.745 369.201Z" fill="#26B3DD"/>
<path d="M614.508 368.592L614.281 368.483C613.934 367.785 612.299 367.159 611.542 367.288L611.301 367.122L611.467 366.884C612.411 366.721 614.218 367.425 614.654 368.297L614.56 368.583L614.508 368.592Z" fill="#26B3DD"/>
<path d="M615.186 368.083L614.988 368.014C614.639 367.573 614.192 367.219 613.682 366.979C613.173 366.739 612.614 366.621 612.051 366.633L611.844 366.43L612.048 366.218C612.672 366.21 613.289 366.344 613.853 366.608C614.418 366.873 614.915 367.262 615.307 367.745L615.281 368.031L615.186 368.083Z" fill="#26B3DD"/>
<path d="M615.836 367.539L615.653 367.485C614.938 366.764 613.848 365.82 612.647 365.949L612.414 365.76L612.601 365.54C613.98 365.391 615.182 366.398 615.945 367.19V367.476L615.836 367.539Z" fill="#26B3DD"/>
<path d="M616.514 366.819L616.296 366.733C615.958 366.226 615.489 365.819 614.939 365.555C614.388 365.292 613.777 365.182 613.169 365.237L612.937 365.062L613.112 364.828C613.799 364.76 614.492 364.881 615.115 365.177C615.738 365.474 616.269 365.934 616.648 366.51L616.582 366.796L616.514 366.819Z" fill="#26B3DD"/>
<path d="M617.119 366.123L616.921 366.055C615.989 364.968 614.884 364.467 613.642 364.553L613.418 364.364L613.608 364.138C614.99 364.047 616.212 364.596 617.236 365.786L617.213 366.072L617.119 366.123Z" fill="#26B3DD"/>
<path d="M617.671 365.362L617.485 365.3C616.96 364.747 615.569 363.509 613.991 364.018L613.733 363.884L613.862 363.623C615.669 363.051 617.204 364.404 617.783 365.016V365.302L617.671 365.362Z" fill="#26B3DD"/>
<path d="M581.355 256.605C595.786 252.749 602.008 257.177 602.605 265.247C603.804 281.491 600.126 302.415 599.702 310.359C599.392 316.197 588.606 313.434 587.545 310.611C584.998 303.811 582.795 292.381 582.338 287.066C581.409 276.185 578.81 257.28 581.355 256.605Z" fill="#263239"/>
<path d="M587.369 308.703C587.988 324.266 601.734 341.984 612.945 362.05C615.004 361.61 618.791 360.783 621.289 358.866C621.289 358.866 605.527 308.354 595.977 303.66C591.035 301.254 587.245 305.659 587.369 308.703Z" fill="#263239"/>
<path d="M581.089 255.836C595.816 258.345 602.153 236.545 603.662 260.175C604.7 276.431 584.947 297.361 581.233 304.404C578.508 309.578 568.996 306.692 568.996 303.66C568.996 294.635 572.515 281.657 573.852 276.486C576.543 266.108 578.502 255.395 581.089 255.836Z" fill="#263239"/>
<path d="M570.724 297.761C564.775 312.164 569.66 340.551 571.424 363.457C573.478 363.915 576.013 364.519 579.091 363.815C579.091 363.815 586.98 305.648 580.27 297.404C576.802 293.153 571.891 294.947 570.724 297.761Z" fill="#263239"/>
<path d="M594.071 192.068C593.981 194.827 594.413 197.578 595.344 200.177C596.52 203.292 584.292 202.268 584.292 202.268C584.292 202.268 584.254 198.635 582.089 196.813C578.36 193.678 594.071 192.068 594.071 192.068Z" fill="#F39A69"/>
<path d="M577.175 257.526C578.437 258.971 581.228 259.446 583.279 258.539C585.958 257.355 590.083 260.052 593.319 258.676C595.539 257.73 597.091 257.735 600.55 258.962C601.898 259.446 603.731 258.997 604.342 257.435C605.002 255.744 605.008 253.874 605.315 252.103C605.656 250.101 606.043 248.098 606.267 246.096C606.95 239.943 607.145 233.685 606.348 227.529C605.88 223.782 605.014 220.095 603.766 216.53C595.129 192.403 580.996 202.986 577.981 211.096C577.246 213.069 577.221 215.386 577.046 217.454C576.759 221.01 576.635 224.605 576.569 228.158C576.492 232.223 576.372 236.29 576.36 240.355C576.36 243.811 576.297 247.266 576.36 250.719C576.389 252.149 576.389 253.579 576.403 255.029C576.415 256.191 576.699 256.989 577.175 257.526Z" fill="#26B3DD"/>
<path d="M595.344 200.177C596.082 201.577 596.492 203.125 596.543 204.705C596.543 204.705 588.193 200.269 582.089 205.109L583.537 201.479C583.537 201.479 591.523 198.146 595.344 200.177Z" fill="#015B71"/>
<path d="M599.66 271.465L599.947 271.251C599.959 271.212 599.963 271.172 599.96 271.132C599.956 271.091 599.944 271.053 599.925 271.017C599.906 270.981 599.881 270.95 599.849 270.924C599.818 270.898 599.782 270.879 599.744 270.867C597.845 270.295 595.111 267.881 595.154 265.433C595.155 265.351 595.123 265.273 595.066 265.214C595.009 265.156 594.932 265.122 594.85 265.121C594.81 265.117 594.77 265.122 594.732 265.135C594.694 265.147 594.66 265.168 594.63 265.195C594.601 265.222 594.577 265.255 594.561 265.291C594.545 265.328 594.537 265.367 594.537 265.407C594.488 268.164 597.432 270.77 599.563 271.414L599.66 271.465Z" fill="#202956"/>
<path d="M580.735 199.167C579.034 199.167 577.984 198.046 577.442 196.776C576.765 195.186 576.713 193.22 576.768 191.21C575.683 190.975 574.711 189.742 575.844 188.667C576.495 188.046 575.723 187.159 576.515 185.978C578.096 183.555 577.126 180.566 577.502 177.917C578.397 171.232 587.094 171.106 591.718 173.586C594.653 175.188 595.571 178.309 595.416 181.444C595.238 184.204 595.416 186.813 595.562 189.551C595.705 192.411 592.26 195.034 589.905 196.264C588.58 196.982 583.93 199.19 580.735 199.167Z" fill="#F39A69"/>
<path d="M586.029 179.805C581.643 177.491 577.447 182.397 573.193 179.719C569.94 177.671 572.877 175.223 572.519 175.52C572.449 176.058 572.573 176.604 572.869 177.059C572.582 175.946 573.35 174.221 574.504 173.212C574.102 174.545 573.586 177.837 575.705 177.823C576.489 177.823 581.296 176.902 582.102 176.876L586.029 179.805Z" fill="#260E0B"/>
<path d="M580.549 183.916C580.56 184.074 580.523 184.232 580.444 184.37C580.365 184.508 580.247 184.62 580.104 184.69C579.961 184.761 579.801 184.788 579.643 184.768C579.484 184.748 579.336 184.682 579.216 184.577C579.095 184.473 579.009 184.335 578.967 184.182C578.925 184.029 578.93 183.866 578.98 183.716C579.031 183.565 579.125 183.433 579.251 183.335C579.377 183.238 579.529 183.18 579.688 183.169C579.794 183.162 579.9 183.175 580.001 183.209C580.101 183.242 580.194 183.295 580.274 183.364C580.354 183.434 580.419 183.518 580.466 183.613C580.514 183.707 580.542 183.81 580.549 183.916Z" fill="#260E0B"/>
<path d="M578.681 183.558L578.882 183.295C578.999 183.178 579.141 183.089 579.298 183.035L579.562 182.963L579.849 182.932L580.136 182.983L580.391 183.078C580.543 183.143 580.678 183.24 580.787 183.364L580.959 183.635L581.008 183.747L580.91 183.673L580.652 183.492L580.489 183.398L580.285 183.335L579.837 183.252H579.599L579.376 183.289L579.175 183.338L578.997 183.421L578.739 183.581L578.636 183.647L578.681 183.558Z" fill="#260E0B"/>
<path d="M578.508 181.556C578.757 180.984 579.446 180.789 580.034 180.806C581.021 180.852 581.95 181.288 582.615 182.016L582.489 182.222L581.915 181.936C581.479 181.739 580.791 181.43 580.295 181.536C579.89 181.546 579.495 181.66 579.147 181.867C578.737 182.128 578.278 182.062 578.508 181.556Z" fill="#260E0B"/>
<path d="M577.251 193.813H577.274C578.003 193.761 579.939 193.624 579.784 191.427C579.782 191.387 579.772 191.347 579.755 191.31C579.737 191.274 579.712 191.241 579.682 191.214C579.651 191.188 579.616 191.167 579.577 191.155C579.538 191.142 579.498 191.138 579.457 191.141C579.417 191.144 579.377 191.154 579.341 191.172C579.305 191.19 579.272 191.214 579.246 191.245C579.219 191.275 579.199 191.31 579.186 191.348C579.173 191.387 579.168 191.427 579.17 191.467C579.262 192.783 578.462 193.112 577.231 193.198C577.191 193.199 577.151 193.208 577.115 193.225C577.078 193.241 577.045 193.265 577.017 193.294C576.99 193.324 576.968 193.358 576.954 193.396C576.94 193.434 576.933 193.474 576.934 193.514C576.936 193.554 576.945 193.593 576.962 193.63C576.978 193.667 577.002 193.7 577.031 193.727C577.061 193.755 577.095 193.776 577.133 193.79C577.171 193.805 577.211 193.811 577.251 193.81V193.813Z" fill="#44312A"/>
<path d="M584.548 189.94C584.548 189.94 588.09 188.118 591.145 184.024L591.951 182.777C591.951 182.777 585.276 187.511 583.455 188.344C583.44 188.344 583.019 189.176 584.548 189.94Z" fill="white"/>
<path d="M585.068 197.357C585.068 197.357 591.092 192.397 593.814 187.631L592.572 188.278C592.572 188.278 589.388 193.833 585.355 195.028C585.355 195.037 583.823 196.181 585.068 197.357Z" fill="white"/>
<path d="M574.739 192.926C574.414 189.96 574.145 187.491 576.709 185.36C576.957 185.314 577.209 185.292 577.461 185.294C579.377 185.317 581.17 186.49 582.911 187.354C583.563 187.634 584.142 188.061 584.601 188.601C585.628 189.943 585.808 192.125 585.771 193.841C585.734 195.558 585.739 197.755 584.265 198.636C583.118 199.319 581.548 199.454 580.281 199.399C579.271 199.384 578.264 199.276 577.274 199.076C575.499 197.634 574.962 194.966 574.739 192.926Z" fill="white"/>
<path d="M574.739 192.926C574.47 190.437 574.24 188.292 575.683 186.418C576.126 186.235 576.601 186.138 577.08 186.132H577.218C578.632 186.195 580.02 186.933 581.369 187.648C581.687 187.82 582.008 187.986 582.324 188.143C582.904 188.39 583.421 188.765 583.836 189.239C584.561 190.194 584.917 191.862 584.871 194.064V194.233C584.84 195.832 584.802 197.666 583.646 198.344C582.49 199.022 580.801 199.084 579.917 199.044H579.88C578.877 199.032 577.878 198.922 576.897 198.718C575.431 197.234 574.946 194.811 574.739 192.926Z" fill="#253D47"/>
<path d="M575.421 191.187C575.139 191.144 574.862 191.077 574.592 190.987H574.561L574.54 190.529L574.675 190.555C574.939 190.607 575.205 190.646 575.473 190.669C575.76 190.706 576.046 190.715 576.333 190.726C576.62 190.738 576.93 190.726 577.231 190.726C577.532 190.726 577.836 190.726 578.132 190.706L578.992 190.655L580.547 190.523L582.07 190.38C582.07 190.38 581.93 190.443 581.669 190.537C581.408 190.632 581.046 190.752 580.596 190.866C580.146 190.981 579.615 191.092 579.044 191.184C578.442 191.269 577.836 191.319 577.228 191.333C576.623 191.341 576.017 191.293 575.421 191.187Z" fill="#485862"/>
<path d="M575.596 193.026C575.345 192.986 575.097 192.924 574.856 192.84L574.721 192.797L574.676 192.342C574.995 192.416 575.319 192.467 575.645 192.497C575.899 192.526 576.155 192.54 576.411 192.54C576.669 192.563 576.936 192.54 577.2 192.54C577.733 192.54 578.267 192.503 578.766 192.48C579.265 192.457 579.733 192.405 580.137 192.374L581.488 192.268C581.488 192.268 581.365 192.328 581.135 192.414C580.906 192.5 580.582 192.614 580.186 192.7C579.735 192.824 579.277 192.92 578.815 192.986C578.284 193.069 577.748 193.115 577.211 193.126C576.671 193.144 576.13 193.111 575.596 193.026Z" fill="#485862"/>
<path d="M575.916 194.531C575.721 194.494 575.529 194.443 575.342 194.376L574.929 194.207L574.861 193.81L574.941 193.836C575.475 193.956 576.02 194.021 576.567 194.03C576.774 194.047 576.98 194.03 577.187 194.03C577.597 194.03 578.016 194.007 578.406 193.99C578.796 193.973 579.169 193.947 579.485 193.927C580.113 193.893 580.549 193.881 580.549 193.881C580.222 194.04 579.882 194.17 579.533 194.27C579.18 194.376 578.821 194.459 578.458 194.519C578.042 194.587 577.622 194.625 577.201 194.634C576.77 194.645 576.34 194.61 575.916 194.531Z" fill="#485862"/>
<path d="M590.78 187.54C590.493 186.716 590.258 185.861 590.493 184.997C590.583 184.581 590.794 184.202 591.101 183.906C591.407 183.611 591.795 183.413 592.214 183.338C592.652 183.278 593.097 183.346 593.497 183.533C593.897 183.72 594.235 184.017 594.469 184.39C594.692 184.832 594.774 185.331 594.704 185.821C594.64 186.457 594.47 187.079 594.202 187.66C593.938 188.232 593.563 188.85 592.975 189.142C592.447 189.408 591.859 189.333 591.299 189.253L590.78 187.54Z" fill="#F39A69"/>
<path d="M575.654 172.382C576.107 171.455 576.729 170.619 577.487 169.917C578.089 169.342 578.727 168.807 579.398 168.315C579.923 167.93 580.474 167.582 581.047 167.273C581.651 166.948 582.284 166.679 582.937 166.47C584.269 166.049 585.652 165.814 587.048 165.772C588.706 165.732 590.714 166.247 592.269 166.759C593.889 167.282 595.379 168.143 596.64 169.284C599.397 171.804 600.628 175.311 600.51 178.887C600.395 182.262 599.853 185.846 597.957 188.778C597.028 190.209 595.375 191.996 593.367 191.676C592.487 191.536 591.204 190.849 590.685 190.151C589.498 188.584 589.65 186.51 589.409 184.682C589.156 182.431 588.009 180.391 585.68 179.453C583.672 178.609 581.859 178.612 579.679 178.612C576.598 178.612 575.304 178.175 575.115 177.276C574.902 176.215 574.892 175.123 575.086 174.058C575.204 173.478 575.395 172.915 575.654 172.382Z" fill="#26B3DD"/>
<path d="M575.06 176.659C575.136 176.647 575.214 176.651 575.288 176.671C575.363 176.69 575.432 176.724 575.493 176.771C575.554 176.817 575.605 176.876 575.643 176.943C575.681 177.009 575.705 177.083 575.714 177.159L575.771 177.299C575.91 177.472 576.098 177.6 576.311 177.665C576.769 177.824 577.245 177.926 577.728 177.969C578.324 178.034 578.987 178.063 579.736 178.072C580.484 178.08 581.333 178.072 582.234 178.146C583.196 178.208 584.146 178.39 585.063 178.687C585.295 178.764 585.51 178.855 585.74 178.941C585.969 179.027 586.216 179.164 586.454 179.279C586.696 179.39 586.925 179.53 587.134 179.696C587.362 179.841 587.573 180.009 587.765 180.2C588.559 180.947 589.151 181.883 589.486 182.92L589.701 183.724C589.753 183.978 589.784 184.224 589.827 184.473C589.899 185.008 589.936 185.506 589.971 186.006C589.997 186.947 590.148 187.88 590.418 188.781C590.498 188.973 590.576 189.164 590.656 189.353L591.006 189.925C591.258 190.234 591.564 190.494 591.91 190.692C592.238 190.901 592.59 191.069 592.96 191.192C593.294 191.314 593.649 191.367 594.004 191.347C594.627 191.295 595.224 191.069 595.725 190.695C596.141 190.406 596.519 190.065 596.849 189.682C597.136 189.362 597.331 189.09 597.463 188.907L597.667 188.621L598.117 188.532L598.209 188.981L598.028 189.279C597.885 189.485 597.675 189.777 597.38 190.137C597.017 190.566 596.604 190.95 596.149 191.281C595.541 191.74 594.815 192.02 594.055 192.088C593.617 192.12 593.176 192.064 592.759 191.925C592.32 191.789 591.9 191.596 591.511 191.353C591.073 191.11 590.684 190.788 590.364 190.403C590.235 190.203 590.105 189.997 589.973 189.797C589.842 189.596 589.755 189.316 589.646 189.073C589.346 188.1 589.174 187.092 589.136 186.075C589.096 185.583 589.047 185.08 588.978 184.616C588.932 184.37 588.895 184.116 588.84 183.875L588.651 183.212C588.349 182.328 587.827 181.534 587.134 180.906C586.972 180.748 586.792 180.609 586.597 180.492C586.42 180.354 586.228 180.238 586.024 180.145C585.817 180.057 585.622 179.937 585.415 179.859C585.209 179.782 584.959 179.691 584.741 179.619C583.909 179.372 583.05 179.225 582.183 179.181C581.322 179.133 580.519 179.141 579.759 179.147C578.999 179.153 578.267 179.133 577.627 179.073C577.042 179.026 576.464 178.91 575.906 178.727C575.46 178.582 575.07 178.301 574.793 177.923L574.613 177.534L574.572 177.397L574.558 177.311C574.547 177.235 574.551 177.157 574.57 177.083C574.59 177.009 574.624 176.939 574.67 176.879C574.717 176.818 574.776 176.767 574.843 176.729C574.91 176.691 574.984 176.667 575.06 176.659Z" fill="#015B71"/>
<path d="M592.12 187.131C592.148 188.249 592.926 189.133 593.864 189.116C594.802 189.099 595.539 188.172 595.513 187.054C595.487 185.935 594.707 185.051 593.772 185.051C592.837 185.051 592.094 186.01 592.12 187.131Z" fill="#260E0B"/>
<path d="M598.835 180.898L599.142 180.635C599.606 177.265 598.697 172.422 595.605 169.765L595.169 169.796L595.2 170.231C597.991 172.628 598.987 177.239 598.528 180.549C598.517 180.63 598.539 180.711 598.588 180.776C598.638 180.841 598.711 180.884 598.792 180.895L598.835 180.898Z" fill="#015B71"/>
<path d="M598.263 184.485L598.533 184.328C598.878 183.704 599.033 182.993 598.977 182.282C598.975 182.242 598.965 182.202 598.947 182.165C598.929 182.129 598.904 182.096 598.873 182.07C598.842 182.043 598.806 182.023 598.768 182.01C598.729 181.997 598.688 181.993 598.647 181.996C598.607 181.999 598.567 182.009 598.531 182.027C598.494 182.045 598.462 182.07 598.435 182.101C598.408 182.132 598.388 182.167 598.375 182.206C598.362 182.244 598.357 182.285 598.361 182.325C598.407 182.916 598.279 183.508 597.99 184.027L598.111 184.445L598.263 184.485Z" fill="#015B71"/>
<path d="M590.322 262.764C590.362 262.764 590.402 262.757 590.44 262.741C590.477 262.726 590.512 262.704 590.54 262.675C590.569 262.647 590.592 262.613 590.608 262.576C590.623 262.538 590.631 262.498 590.631 262.458V260.476C590.636 260.433 590.631 260.389 590.617 260.349C590.603 260.308 590.581 260.27 590.552 260.238C590.523 260.206 590.488 260.181 590.448 260.163C590.409 260.146 590.366 260.137 590.323 260.137C590.28 260.137 590.237 260.146 590.198 260.163C590.158 260.181 590.123 260.206 590.094 260.238C590.065 260.27 590.043 260.308 590.029 260.349C590.015 260.389 590.01 260.433 590.015 260.476V262.458C590.014 262.498 590.022 262.538 590.037 262.575C590.053 262.613 590.075 262.647 590.104 262.675C590.132 262.704 590.166 262.726 590.204 262.741C590.241 262.757 590.281 262.764 590.322 262.764Z" fill="#202956"/>
<path d="M585.515 262.329C585.597 262.329 585.675 262.297 585.732 262.24C585.79 262.182 585.822 262.104 585.822 262.023V260.287C585.815 260.21 585.779 260.139 585.722 260.088C585.665 260.036 585.591 260.008 585.514 260.008C585.437 260.008 585.363 260.036 585.306 260.088C585.249 260.139 585.213 260.21 585.206 260.287V262.023C585.206 262.064 585.214 262.104 585.229 262.141C585.245 262.178 585.268 262.212 585.296 262.241C585.325 262.269 585.359 262.291 585.397 262.307C585.435 262.322 585.475 262.33 585.515 262.329Z" fill="#202956"/>
<path d="M599.988 262.329C600.069 262.329 600.147 262.297 600.205 262.239C600.263 262.182 600.295 262.104 600.295 262.023V260.287C600.295 260.206 600.263 260.128 600.205 260.07C600.147 260.013 600.069 259.981 599.988 259.981C599.907 259.981 599.829 260.013 599.771 260.07C599.713 260.128 599.681 260.206 599.681 260.287V262.023C599.681 262.104 599.713 262.182 599.771 262.239C599.829 262.297 599.907 262.329 599.988 262.329Z" fill="#202956"/>
<path d="M594.853 262.329C594.935 262.329 595.013 262.297 595.07 262.239C595.128 262.182 595.16 262.104 595.16 262.023V260.287C595.16 260.247 595.152 260.207 595.137 260.17C595.121 260.133 595.099 260.099 595.07 260.07C595.042 260.042 595.008 260.019 594.971 260.004C594.933 259.989 594.894 259.981 594.853 259.981C594.813 259.981 594.773 259.989 594.736 260.004C594.699 260.019 594.665 260.042 594.636 260.07C594.608 260.099 594.585 260.133 594.57 260.17C594.554 260.207 594.546 260.247 594.546 260.287V262.023C594.546 262.104 594.579 262.182 594.636 262.239C594.694 262.297 594.772 262.329 594.853 262.329Z" fill="#202956"/>
<path d="M580.065 262.269L580.352 262.069C580.548 261.524 580.679 260.959 580.742 260.384C580.751 260.342 580.75 260.299 580.74 260.257C580.731 260.215 580.713 260.176 580.687 260.142C580.662 260.107 580.63 260.079 580.592 260.057C580.555 260.036 580.514 260.023 580.471 260.018C580.429 260.014 580.386 260.018 580.345 260.031C580.304 260.044 580.266 260.065 580.234 260.093C580.202 260.121 580.176 260.156 580.157 260.195C580.139 260.233 580.13 260.275 580.129 260.318C580.069 260.843 579.951 261.359 579.776 261.857C579.762 261.895 579.755 261.935 579.757 261.976C579.758 262.016 579.768 262.056 579.785 262.093C579.802 262.129 579.826 262.162 579.856 262.19C579.886 262.217 579.921 262.238 579.959 262.252L580.065 262.269Z" fill="#202956"/>
<path d="M540.449 243.573C540.7 243.574 540.948 243.62 541.183 243.707C542.125 243.914 543.087 244.022 544.052 244.031C543.862 243.77 543.742 243.79 543.426 243.745L542.594 243.659C542.172 243.617 541.755 243.531 541.349 243.404C541.028 243.296 540.704 243.195 540.383 243.092C540.096 243.004 539.838 242.889 539.565 242.781C539.293 242.672 538.705 242.566 538.578 242.294C538.332 241.722 539.187 241.994 539.364 242.043C539.74 242.14 540.11 242.251 540.486 242.329C540.913 242.451 541.351 242.531 541.794 242.569C542.254 242.61 542.716 242.619 543.177 242.595C543.464 242.595 543.587 242.686 543.604 242.38C543.074 242.344 542.546 242.276 542.024 242.177C541.021 241.96 540.059 241.588 539.172 241.073L538.799 240.818C538.764 240.79 538.736 240.754 538.717 240.713C538.698 240.671 538.69 240.626 538.692 240.581C538.694 240.536 538.707 240.492 538.73 240.452C538.752 240.413 538.784 240.38 538.822 240.355L539.238 240.432C539.875 240.775 540.558 241.025 541.266 241.173C541.764 241.277 542.27 241.341 542.778 241.365C543.128 241.39 543.793 241.508 543.986 241.193C542.992 241.057 542.03 240.752 541.14 240.292C540.715 240.078 540.007 239.852 539.686 239.483C539.639 239.438 539.61 239.378 539.601 239.315C539.593 239.251 539.606 239.186 539.64 239.131C539.673 239.075 539.724 239.033 539.784 239.01C539.845 238.987 539.911 238.985 539.973 239.005L540.463 239.265C541.374 239.652 542.32 239.951 543.289 240.158C544.706 240.406 546.019 239.983 547.396 239.754C546.691 239.397 545.85 239.468 545.147 239.088C544.821 238.898 544.525 238.66 544.27 238.381C544.046 238.158 544.27 237.738 544.576 237.909C544.886 237.987 545.13 238.275 545.454 238.336C545.643 238.384 545.835 238.421 546.028 238.447C546.91 238.432 547.781 238.643 548.558 239.059C549.419 239.514 550.196 240.04 551.18 240.012C551.469 240.001 551.756 239.97 552.04 239.917C555.104 239.345 566.148 234.588 569.108 233.793C571.169 233.268 573.293 233.03 575.419 233.087C575.419 233.087 581.569 233.444 578.193 237.254C574.989 240.87 558.282 242.918 553.647 243.873C553.041 244.031 552.471 244.128 552.244 244.159C550.486 244.567 548.7 244.84 546.9 244.975C545.35 245.049 543.797 244.932 542.276 244.629C541.672 244.496 541.079 244.322 540.5 244.105C540.242 244.031 540.107 243.659 540.449 243.573ZM538.604 242.314L538.745 242.446L538.604 242.314Z" fill="#F39A69"/>
<path d="M575.241 239.051C575.241 239.051 583.244 235.741 588.29 227.349C593.335 218.956 598.129 209.354 594.001 207.612C589.873 205.869 587.117 207.509 585.705 211.902C584.294 216.296 580.929 219.339 578.247 223.744C575.565 228.15 571.816 232.246 571.411 233.722C571.007 235.198 575.241 239.051 575.241 239.051Z" fill="#F39A69"/>
<path d="M596.232 208.85C596.091 208.389 595.85 207.964 595.525 207.607C595.201 207.249 594.802 206.966 594.356 206.779C593.304 206.306 592.168 206.049 591.014 206.021C589.024 206.021 586.336 206.991 584.847 211.622C583.987 214.291 582.326 216.51 580.567 218.859C580.097 219.485 579.621 220.12 579.15 220.778L578.726 221.37L579.213 221.908C581.648 224.553 584.547 226.732 587.767 228.338L588.548 228.653L589.064 227.809C594.967 217.987 597.245 211.962 596.232 208.85Z" fill="#26B3DD"/>
<path d="M581.653 217.552L581.877 217.454C583.055 216.187 583.97 214.699 584.57 213.078C584.594 213.039 584.608 212.995 584.612 212.949C584.616 212.904 584.61 212.858 584.594 212.815C584.579 212.772 584.554 212.733 584.521 212.701C584.488 212.669 584.449 212.645 584.406 212.63C584.363 212.615 584.317 212.609 584.271 212.614C584.226 212.619 584.182 212.634 584.143 212.657C584.103 212.681 584.07 212.713 584.045 212.751C584.02 212.789 584.003 212.832 583.997 212.878C583.424 214.416 582.55 215.826 581.427 217.025L581.441 217.46L581.653 217.552Z" fill="#015B71"/>
<path d="M588.562 228.335L588.82 228.195L589.047 227.855C591.215 224.617 593.923 220.587 594.784 216.699C594.793 216.66 594.793 216.619 594.786 216.579C594.779 216.539 594.764 216.502 594.742 216.468C594.72 216.434 594.692 216.404 594.659 216.381C594.626 216.358 594.588 216.342 594.549 216.333C594.509 216.324 594.468 216.324 594.428 216.331C594.389 216.338 594.35 216.353 594.316 216.375C594.282 216.396 594.253 216.425 594.23 216.458C594.207 216.491 594.19 216.528 594.181 216.568C593.321 220.329 590.665 224.291 588.525 227.5L588.295 227.841L588.381 228.27L588.562 228.335Z" fill="#015B71"/>
<path d="M580.752 256.648C581.206 256.644 581.653 256.538 582.06 256.339C585.603 254.674 587.975 246.356 587.967 243.971C587.967 243.93 587.959 243.89 587.943 243.853C587.928 243.816 587.905 243.782 587.876 243.753C587.847 243.725 587.813 243.702 587.775 243.687C587.738 243.672 587.698 243.664 587.657 243.665C587.576 243.665 587.498 243.698 587.441 243.755C587.383 243.812 587.351 243.89 587.35 243.971C587.35 246.193 585.055 254.245 581.797 255.784C580.833 256.239 579.892 256.07 578.928 255.267L578.495 255.304L578.538 255.739C579.145 256.294 579.929 256.616 580.752 256.648Z" fill="#015B71"/>
<path d="M587.416 257.378L587.631 257.295C588.623 256.328 589.326 256.502 590.299 256.746C590.826 256.899 591.37 256.987 591.919 257.006H592.005C594.587 257.006 596.612 255.29 597.418 252.429C597.429 252.39 597.432 252.35 597.428 252.31C597.423 252.27 597.41 252.232 597.39 252.197C597.371 252.161 597.344 252.131 597.313 252.106C597.281 252.081 597.245 252.062 597.206 252.052C597.127 252.031 597.043 252.042 596.972 252.082C596.901 252.122 596.848 252.188 596.824 252.266C596.099 254.841 594.3 256.385 592.002 256.385H591.945C591.445 256.364 590.949 256.285 590.468 256.148C589.435 255.887 588.46 255.641 587.221 256.849V257.283L587.416 257.378Z" fill="#015B71"/>
<path d="M484.671 298.544L520.904 305.358L516.584 328.199L480.351 321.385L484.671 298.544Z" fill="#D29854"/>
<path d="M485.355 299.54L519.928 306.042L515.921 327.228L481.348 320.726L485.355 299.54Z" fill="#FABF6D"/>
<path d="M499.286 302.136L505.941 303.387L505.445 306.013L498.79 304.761L499.286 302.136Z" fill="#D29854"/>
<path d="M490.772 315.654L508.972 319.08L510.332 311.904L492.128 308.477L490.772 315.654Z" fill="white"/>
<path d="M503.978 312.487L504.282 312.238C504.289 312.198 504.289 312.157 504.28 312.118C504.272 312.078 504.255 312.041 504.232 312.007C504.209 311.974 504.179 311.946 504.145 311.924C504.111 311.902 504.072 311.888 504.032 311.881L494.853 310.164C494.813 310.155 494.771 310.153 494.73 310.16C494.689 310.167 494.65 310.183 494.615 310.205C494.58 310.228 494.55 310.257 494.527 310.291C494.504 310.326 494.488 310.364 494.48 310.405C494.473 310.445 494.473 310.487 494.482 310.528C494.491 310.568 494.508 310.606 494.532 310.64C494.556 310.674 494.587 310.702 494.622 310.724C494.658 310.745 494.697 310.759 494.738 310.765L503.918 312.481L503.978 312.487Z" fill="#D29854"/>
<path d="M507.116 313.079L507.403 312.828C507.418 312.748 507.401 312.666 507.355 312.599C507.309 312.531 507.239 312.485 507.159 312.47L504.781 312.021C504.701 312.007 504.618 312.025 504.551 312.071C504.484 312.117 504.438 312.187 504.422 312.267C504.415 312.306 504.415 312.347 504.423 312.386C504.431 312.426 504.447 312.463 504.469 312.497C504.492 312.53 504.521 312.558 504.555 312.58C504.589 312.602 504.627 312.617 504.666 312.624L507.041 313.071L507.116 313.079Z" fill="#D29854"/>
<path d="M472.196 354.27L512.174 361.793L518.459 328.551L478.48 321.034L472.196 354.27Z" fill="#D29854"/>
<path d="M479.213 322.111L517.363 329.285L511.422 360.7L473.272 353.525L479.213 322.111Z" fill="#FABF6D"/>
<path d="M494.596 324.993L501.941 326.376L501.394 329.269L494.048 327.886L494.596 324.993Z" fill="#D29854"/>
<path d="M496.057 333.413L510.389 336.184L508.974 343.458L494.643 340.687L496.057 333.413Z" fill="white"/>
<path d="M507.228 339.101L507.532 338.849C507.547 338.769 507.529 338.686 507.483 338.619C507.437 338.551 507.366 338.504 507.286 338.489L498.106 336.772C498.066 336.763 498.024 336.761 497.983 336.768C497.942 336.775 497.903 336.791 497.868 336.813C497.834 336.835 497.804 336.865 497.78 336.899C497.757 336.933 497.741 336.972 497.734 337.013C497.726 337.053 497.726 337.095 497.735 337.136C497.744 337.176 497.761 337.214 497.785 337.248C497.809 337.281 497.84 337.31 497.876 337.331C497.911 337.353 497.951 337.367 497.992 337.373L507.171 339.089L507.228 339.101Z" fill="#D29854"/>
<path d="M510.367 339.687L510.671 339.438C510.685 339.358 510.667 339.276 510.621 339.209C510.575 339.142 510.504 339.096 510.424 339.081L508.046 338.632C507.967 338.621 507.888 338.64 507.823 338.687C507.758 338.733 507.714 338.802 507.699 338.88C507.685 338.958 507.701 339.039 507.744 339.105C507.787 339.172 507.854 339.219 507.932 339.238L510.31 339.684L510.367 339.687Z" fill="#D29854"/>
<path d="M506.81 341.229L507.114 340.98C507.129 340.9 507.111 340.817 507.065 340.749C507.019 340.681 506.948 340.635 506.867 340.62L497.688 338.903C497.648 338.894 497.606 338.892 497.565 338.899C497.524 338.906 497.485 338.922 497.45 338.944C497.415 338.967 497.385 338.996 497.362 339.03C497.339 339.065 497.323 339.103 497.315 339.144C497.307 339.184 497.308 339.226 497.317 339.267C497.326 339.307 497.343 339.345 497.367 339.379C497.391 339.413 497.422 339.441 497.457 339.463C497.493 339.484 497.532 339.498 497.573 339.504L506.752 341.22L506.81 341.229Z" fill="#D29854"/>
<path d="M509.965 341.821L510.252 341.569C510.26 341.53 510.26 341.489 510.252 341.45C510.244 341.41 510.228 341.373 510.205 341.34C510.182 341.306 510.153 341.278 510.12 341.256C510.086 341.234 510.048 341.219 510.008 341.212L507.63 340.766C507.591 340.758 507.55 340.758 507.51 340.766C507.471 340.774 507.433 340.79 507.4 340.812C507.366 340.835 507.338 340.864 507.316 340.898C507.294 340.931 507.279 340.969 507.272 341.009C507.257 341.088 507.275 341.17 507.32 341.237C507.366 341.304 507.436 341.35 507.515 341.366L509.893 341.813L509.965 341.821Z" fill="#D29854"/>
<path d="M479.536 326.821L487.23 328.271L487.832 325.085L480.139 323.637L479.536 326.821Z" fill="white"/>
<path d="M491.031 265.401L527.266 272.215L531.586 249.374L495.351 242.561L491.031 265.401Z" fill="#D29854"/>
<path d="M492.016 264.729L526.587 271.234L530.598 250.044L496.023 243.542L492.016 264.729Z" fill="#FABF6D"/>
<path d="M509.976 246.159L516.631 247.41L516.135 250.033L509.48 248.781L509.976 246.159Z" fill="#D29854"/>
<path d="M501.449 259.669L519.653 263.093L521.01 255.916L502.806 252.492L501.449 259.669Z" fill="white"/>
<path d="M514.654 256.5L514.941 256.251C514.949 256.211 514.949 256.17 514.941 256.13C514.933 256.09 514.918 256.052 514.895 256.019C514.872 255.985 514.843 255.956 514.809 255.933C514.775 255.911 514.737 255.895 514.698 255.887L505.518 254.171C505.479 254.164 505.438 254.164 505.398 254.172C505.358 254.18 505.321 254.196 505.287 254.219C505.254 254.242 505.225 254.271 505.203 254.305C505.181 254.338 505.166 254.376 505.158 254.416C505.151 254.455 505.151 254.496 505.159 254.536C505.168 254.575 505.184 254.613 505.206 254.646C505.229 254.679 505.258 254.708 505.292 254.73C505.326 254.752 505.364 254.767 505.403 254.775L514.583 256.491L514.654 256.5Z" fill="#D29854"/>
<path d="M517.793 257.092L518.097 256.843C518.111 256.762 518.093 256.68 518.047 256.612C518.001 256.545 517.93 256.498 517.85 256.482L515.472 256.036C515.392 256.021 515.309 256.038 515.241 256.084C515.174 256.13 515.127 256.201 515.112 256.281C515.097 256.361 515.114 256.444 515.16 256.511C515.206 256.578 515.277 256.625 515.357 256.64L517.735 257.086L517.793 257.092Z" fill="#D29854"/>
<path d="M482.868 298.282L522.85 305.805L529.135 272.567L489.156 265.046L482.868 298.282Z" fill="#D29854"/>
<path d="M489.891 266.125L528.041 273.3L522.1 304.714L483.95 297.54L489.891 266.125Z" fill="#FABF6D"/>
<path d="M504.753 271.926L512.097 273.305L512.645 270.41L505.301 269.028L504.753 271.926Z" fill="#D29854"/>
<path d="M507.972 279.351L522.342 282.056L520.96 289.353L506.591 286.648L507.972 279.351Z" fill="white"/>
<path d="M517.906 283.102L518.21 282.85C518.224 282.77 518.206 282.688 518.16 282.621C518.114 282.554 518.043 282.508 517.963 282.492L508.784 280.776C508.704 280.761 508.621 280.778 508.553 280.824C508.486 280.87 508.439 280.941 508.424 281.021C508.409 281.101 508.426 281.184 508.472 281.251C508.518 281.318 508.589 281.365 508.669 281.38L517.849 283.096L517.906 283.102Z" fill="#D29854"/>
<path d="M521.043 283.702L521.347 283.451C521.361 283.371 521.343 283.288 521.297 283.221C521.251 283.154 521.18 283.108 521.1 283.093L518.722 282.647C518.642 282.633 518.559 282.65 518.492 282.696C518.425 282.743 518.379 282.813 518.364 282.893C518.356 282.932 518.356 282.973 518.364 283.012C518.372 283.052 518.388 283.089 518.41 283.123C518.433 283.156 518.462 283.184 518.496 283.206C518.53 283.228 518.568 283.243 518.607 283.25L520.988 283.694L521.043 283.702Z" fill="#D29854"/>
<path d="M517.503 285.244L517.805 284.995C517.813 284.956 517.813 284.915 517.805 284.875C517.797 284.836 517.781 284.798 517.758 284.765C517.735 284.731 517.706 284.702 517.672 284.68C517.639 284.658 517.601 284.643 517.561 284.635L508.382 282.919C508.302 282.904 508.22 282.922 508.153 282.967C508.085 283.013 508.039 283.083 508.023 283.162C508.015 283.201 508.015 283.242 508.023 283.282C508.031 283.322 508.047 283.359 508.07 283.393C508.092 283.426 508.121 283.455 508.155 283.477C508.189 283.499 508.227 283.515 508.267 283.522L517.446 285.239L517.503 285.244Z" fill="#D29854"/>
<path d="M520.64 285.833L520.944 285.584C520.959 285.504 520.942 285.421 520.895 285.353C520.849 285.286 520.778 285.239 520.697 285.224L518.319 284.778C518.239 284.763 518.156 284.781 518.089 284.827C518.022 284.873 517.975 284.944 517.961 285.024C517.946 285.104 517.963 285.186 518.01 285.254C518.056 285.321 518.127 285.367 518.207 285.381L520.585 285.828L520.64 285.833Z" fill="#D29854"/>
<path d="M490.805 267.641L498.5 269.089L497.897 272.274L490.202 270.825L490.805 267.641Z" fill="white"/>
<path d="M647 375.314L619.201 374.793L587.292 374.319C574.972 374.127 561.071 373.91 545.908 373.807L496.939 373.36C479.565 373.209 461.24 372.994 442.285 372.986L323.511 372.634L204.729 372.986C185.774 372.986 167.438 373.197 150.075 373.36C132.712 373.523 116.272 373.666 101.107 373.807C85.9408 373.947 72.0428 374.124 59.7225 374.319L27.8131 374.796L0.0143433 375.32L27.8131 375.843C36.6596 375.978 47.4022 376.129 59.7225 376.324C72.0428 376.518 85.9437 376.727 101.107 376.833L150.075 377.282C167.45 377.439 185.774 377.64 204.729 377.654L323.511 378L442.297 377.645C461.252 377.645 479.588 377.419 496.951 377.268L545.919 376.821C561.082 376.719 574.983 376.501 587.303 376.312L619.213 375.835L647 375.314Z" fill="#253D47"/>
<path d="M248.038 210.811C249.517 210.945 250.965 211.345 252.28 212.027C256.088 214.029 257.313 217.396 257.313 221.859V222.749C257.313 222.927 257.179 223.06 256.999 223.06H250.487C250.308 223.06 250.174 222.927 250.174 222.749V219.635C250.174 219.427 250.024 219.249 249.815 219.205L242.661 217.9C242.123 217.796 241.615 217.633 241.137 217.381L227.352 210.352C227.352 209.239 228.427 208.424 229.517 208.72L241.078 212.428C241.078 213.08 241.496 213.673 242.123 213.881L247.261 215.305C247.366 215.334 247.485 215.26 247.485 215.141V214.919C247.485 214.637 247.291 214.385 247.007 214.311L243.169 213.317C242.541 213.11 242.123 212.517 242.123 211.864C242.123 210.974 242.9 210.292 243.796 210.411L248.038 210.811Z" fill="white"/>
<path d="M250.875 201.706C248.455 201.247 245.259 201.009 241.884 201.009C238.508 201.009 235.312 201.247 232.907 201.706C229.995 202.27 228.71 202.848 228.65 203.886C228.65 204.984 229.935 205.666 232.907 206.185C235.312 206.585 238.523 206.822 241.884 206.822C245.244 206.822 248.455 206.585 250.86 206.185C253.832 205.666 255.117 204.984 255.117 203.886C255.072 202.848 253.788 202.27 250.875 201.706ZM253.295 203.886C252.981 204.109 251.891 204.376 250.143 204.672C247.903 205.013 244.916 205.25 241.899 205.25C238.882 205.25 235.879 205.073 233.654 204.672C231.891 204.376 230.816 204.123 230.488 203.886C230.383 203.812 230.353 203.664 230.488 203.604C231.533 203.145 235.133 202.181 241.899 202.181C248.665 202.181 252.802 203.293 253.31 203.604C253.414 203.679 253.399 203.812 253.295 203.886Z" fill="white"/>
<path d="M270.455 210.752V215.141H277.46V217.41H270.455V222.927H267.752V208.513H278.356V210.752H270.455Z" fill="white"/>
<path d="M282.36 222.348C281.464 221.874 280.762 221.192 280.254 220.346C279.746 219.486 279.492 218.522 279.492 217.425C279.492 216.342 279.746 215.379 280.254 214.518C280.762 213.673 281.464 213.006 282.36 212.516C283.256 212.042 284.272 211.79 285.392 211.79C286.527 211.79 287.543 212.027 288.439 212.516C289.335 212.991 290.037 213.658 290.545 214.518C291.053 215.364 291.307 216.342 291.307 217.425C291.307 218.507 291.053 219.486 290.545 220.346C290.037 221.206 289.335 221.874 288.439 222.348C287.543 222.823 286.527 223.075 285.392 223.075C284.272 223.075 283.256 222.823 282.36 222.348ZM287.752 219.916C288.379 219.279 288.693 218.448 288.693 217.425C288.693 216.402 288.379 215.571 287.752 214.934C287.124 214.296 286.348 213.985 285.392 213.985C284.436 213.985 283.659 214.296 283.032 214.934C282.42 215.571 282.106 216.402 282.106 217.425C282.106 218.448 282.42 219.279 283.032 219.916C283.644 220.554 284.436 220.865 285.392 220.865C286.333 220.865 287.124 220.554 287.752 219.916Z" fill="white"/>
<path d="M295.741 222.349C294.845 221.874 294.143 221.192 293.635 220.347C293.127 219.486 292.873 218.523 292.873 217.425C292.873 216.343 293.127 215.379 293.635 214.519C294.143 213.673 294.845 213.006 295.741 212.517C296.637 212.042 297.653 211.79 298.773 211.79C299.908 211.79 300.924 212.027 301.82 212.517C302.716 212.991 303.418 213.659 303.926 214.519C304.433 215.364 304.687 216.343 304.687 217.425C304.687 218.508 304.433 219.486 303.926 220.347C303.418 221.207 302.716 221.874 301.82 222.349C300.924 222.823 299.908 223.075 298.773 223.075C297.638 223.075 296.637 222.823 295.741 222.349ZM301.133 219.917C301.76 219.279 302.074 218.448 302.074 217.425C302.074 216.402 301.76 215.572 301.133 214.934C300.505 214.296 299.729 213.985 298.773 213.985C297.817 213.985 297.04 214.296 296.413 214.934C295.8 215.572 295.487 216.402 295.487 217.425C295.487 218.448 295.8 219.279 296.413 219.917C297.025 220.554 297.817 220.866 298.773 220.866C299.729 220.866 300.505 220.554 301.133 219.917Z" fill="white"/>
<path d="M318.012 207.638V222.927H315.517V221.503C315.084 222.022 314.562 222.423 313.934 222.675C313.307 222.942 312.605 223.06 311.843 223.06C310.783 223.06 309.827 222.823 308.975 222.363C308.124 221.904 307.452 221.236 306.974 220.376C306.496 219.516 306.242 218.537 306.242 217.425C306.242 216.313 306.481 215.334 306.974 214.474C307.452 213.629 308.124 212.961 308.975 212.502C309.827 212.042 310.783 211.805 311.843 211.805C312.575 211.805 313.247 211.923 313.86 212.175C314.472 212.428 314.98 212.798 315.413 213.288V207.638H318.012ZM313.845 220.45C314.337 220.169 314.741 219.768 315.025 219.249C315.308 218.73 315.458 218.122 315.458 217.44C315.458 216.758 315.308 216.15 315.025 215.631C314.741 215.112 314.337 214.711 313.845 214.43C313.352 214.148 312.784 214.014 312.157 214.014C311.53 214.014 310.977 214.163 310.469 214.43C309.976 214.711 309.573 215.112 309.289 215.631C309.005 216.15 308.856 216.758 308.856 217.44C308.856 218.122 309.005 218.73 309.289 219.249C309.573 219.768 309.976 220.169 310.469 220.45C310.962 220.732 311.53 220.865 312.157 220.865C312.784 220.865 313.352 220.732 313.845 220.45Z" fill="white"/>
<path d="M331.797 218.256H323.105C323.254 219.072 323.657 219.709 324.3 220.184C324.942 220.658 325.748 220.896 326.689 220.896C327.899 220.896 328.915 220.495 329.691 219.694L331.081 221.281C330.588 221.874 329.96 222.319 329.199 222.616C328.437 222.912 327.585 223.075 326.63 223.075C325.42 223.075 324.344 222.838 323.418 222.349C322.492 221.874 321.775 221.192 321.268 220.347C320.76 219.487 320.506 218.523 320.506 217.426C320.506 216.358 320.745 215.394 321.238 214.534C321.731 213.674 322.403 213.006 323.284 212.532C324.15 212.057 325.136 211.805 326.226 211.805C327.302 211.805 328.273 212.042 329.124 212.517C329.975 212.992 330.632 213.659 331.11 214.519C331.588 215.379 331.827 216.373 331.827 217.5C331.827 217.663 331.812 217.915 331.797 218.256ZM324.12 214.593C323.553 215.082 323.194 215.735 323.075 216.536H329.363C329.258 215.735 328.915 215.097 328.347 214.593C327.78 214.104 327.078 213.852 326.226 213.852C325.405 213.866 324.703 214.104 324.12 214.593Z" fill="white"/>
<path d="M341.984 212.962C342.851 213.733 343.284 214.904 343.284 216.476V222.927H340.834V221.592C340.52 222.067 340.057 222.438 339.475 222.69C338.892 222.942 338.176 223.075 337.354 223.075C336.518 223.075 335.801 222.942 335.173 222.66C334.546 222.378 334.068 221.993 333.725 221.489C333.381 220.984 333.217 220.421 333.217 219.783C333.217 218.79 333.59 218.004 334.322 217.41C335.069 216.817 336.234 216.521 337.817 216.521H340.685V216.358C340.685 215.586 340.446 214.993 339.983 214.593C339.52 214.178 338.833 213.97 337.922 213.97C337.294 213.97 336.682 214.059 336.085 214.252C335.487 214.445 334.979 214.711 334.561 215.053L333.56 213.169C334.143 212.724 334.845 212.398 335.651 212.161C336.473 211.924 337.339 211.805 338.25 211.805C339.878 211.805 341.118 212.19 341.984 212.962ZM339.624 220.747C340.132 220.45 340.491 220.035 340.7 219.487V218.211H338.026C336.533 218.211 335.786 218.701 335.786 219.679C335.786 220.139 335.965 220.51 336.353 220.792C336.727 221.073 337.25 221.207 337.907 221.207C338.534 221.192 339.117 221.044 339.624 220.747Z" fill="white"/>
<path d="M346.6 207.638H349.198V222.927H346.6V207.638Z" fill="white"/>
<path d="M353.381 222.719C352.53 222.482 351.843 222.185 351.32 221.83L352.321 219.872C352.814 220.198 353.411 220.465 354.113 220.658C354.815 220.851 355.502 220.955 356.175 220.955C357.728 220.955 358.505 220.554 358.505 219.739C358.505 219.353 358.31 219.086 357.907 218.938C357.519 218.79 356.876 218.641 356.01 218.508C355.099 218.374 354.352 218.211 353.785 218.033C353.217 217.855 352.709 217.544 352.291 217.099C351.873 216.654 351.664 216.031 351.664 215.23C351.664 214.192 352.097 213.347 352.978 212.724C353.859 212.101 355.039 211.79 356.533 211.79C357.295 211.79 358.056 211.879 358.818 212.042C359.58 212.22 360.207 212.443 360.685 212.739L359.684 214.697C358.743 214.148 357.683 213.866 356.503 213.866C355.741 213.866 355.159 213.985 354.771 214.207C354.382 214.43 354.173 214.726 354.173 215.097C354.173 215.512 354.382 215.794 354.8 215.972C355.219 216.15 355.876 216.298 356.757 216.461C357.638 216.595 358.37 216.758 358.938 216.936C359.505 217.114 359.998 217.41 360.401 217.84C360.805 218.27 361.014 218.864 361.014 219.65C361.014 220.673 360.566 221.503 359.67 222.126C358.773 222.749 357.549 223.046 355.995 223.046C355.129 223.075 354.248 222.957 353.381 222.719Z" fill="white"/>
<path d="M333.352 230.698C333.352 229.067 332.679 227.658 331.335 226.471C329.767 225.285 328.124 224.692 326.406 224.692H325.869C324.614 224.692 323.165 225.003 321.537 225.641C320.611 226.027 319.67 226.575 318.699 227.272C318.296 227.495 317.534 228.192 316.429 229.363C315.548 230.49 314.965 231.41 314.682 232.151V232.225C314.682 232.314 314.712 232.403 314.756 232.492C315.204 233.041 315.667 233.323 316.145 233.323H316.28C316.414 233.323 316.534 233.263 316.638 233.159C316.922 232.551 317.28 231.943 317.714 231.291C318.251 230.505 319.058 229.66 320.148 228.77C322.583 227.005 324.898 226.116 327.123 226.116H327.332C328.019 226.116 328.617 226.234 329.155 226.457C330.768 227.139 331.559 228.399 331.559 230.253V230.372C331.559 231.217 331.41 232.166 331.096 233.234C330.588 234.998 329.349 237.149 327.407 239.67C324.271 243.451 321.627 245.334 319.491 245.334C319.342 245.334 319.133 245.32 318.849 245.29C318.58 245.29 318.401 244.83 318.341 243.896C318.341 243.065 318.64 242.057 319.252 240.9C319.76 239.966 320.312 239.136 320.94 238.394C320.507 240.367 320.298 241.419 320.298 241.538V241.583C320.417 241.924 320.671 242.087 321.074 242.087H321.224C321.463 242.087 321.657 241.983 321.806 241.79C322.433 239.551 323.046 237.43 323.658 235.458C323.658 235.384 324.017 235.028 324.734 234.375C325.973 233.323 327.108 232.477 328.139 231.825C328.871 231.469 329.244 231.261 329.259 231.202V231.069C329.11 230.668 328.856 230.461 328.527 230.461C327.766 230.564 326.376 231.439 324.375 233.1C325.077 230.802 325.421 229.63 325.421 229.571L325.391 229.408C325.062 228.933 324.569 228.681 323.942 228.681H323.793C323.643 228.681 323.509 228.755 323.359 228.889C322.971 230.179 322.448 232.092 321.791 234.628C321.642 235.503 321.507 235.933 321.388 235.933C318.236 239.417 316.653 242.102 316.653 243.985V244.089C316.653 244.445 316.728 244.771 316.892 245.067C317.564 246.12 318.535 246.639 319.79 246.639H319.999C321.358 246.639 322.941 245.987 324.778 244.667C325.406 244.281 326.421 243.377 327.825 241.953C329.229 240.426 330.305 239.076 331.037 237.89C332.575 235.295 333.337 233.041 333.337 231.128V230.698H333.352Z" fill="white"/>
<path d="M353.649 240.322C353.515 240.204 353.44 239.937 353.44 239.507V239.432C353.44 237.549 353.978 234.761 355.038 231.069C356.248 230.92 357.204 230.846 357.936 230.846H358.175C358.489 230.846 358.802 230.876 359.086 230.935C359.34 231.024 359.489 231.083 359.519 231.083H359.564C359.773 231.083 359.982 231.024 360.221 230.905C360.475 230.772 360.595 230.639 360.595 230.535V230.49C360.595 230.475 360.595 230.446 360.58 230.416C360.012 230.001 358.877 229.793 357.174 229.793C356.427 229.808 355.83 229.838 355.412 229.867H355.397C355.636 229.141 355.77 228.77 355.77 228.755L355.74 228.637C355.516 228.399 355.248 228.266 354.904 228.266H354.785C354.59 228.266 354.441 228.31 354.336 228.414C354.307 228.414 354.127 228.933 353.799 229.986C353.799 230.045 353.694 230.06 353.485 230.06C351.663 230.327 350.483 230.564 349.93 230.772C349.617 230.846 349.467 230.92 349.467 231.009V231.024C349.467 231.083 349.482 231.158 349.527 231.261C349.856 231.736 350.154 231.988 350.408 231.988C351.17 231.751 352.171 231.528 353.395 231.336H353.41C352.858 233.263 352.484 234.895 352.26 236.229C352.096 236.526 351.827 237.045 351.439 237.771C351.051 238.483 350.692 238.988 350.363 239.284H350.244C350.184 239.062 350.154 238.839 350.154 238.632V238.498C350.154 237.386 350.498 235.947 351.2 234.153V234.138C351.2 233.886 350.916 233.723 350.349 233.634H350.139C349.811 233.634 349.572 233.812 349.393 234.168C349.393 234.183 349.393 234.198 349.378 234.198C348.989 233.901 348.616 233.753 348.228 233.753C347.421 233.753 346.734 234.198 346.181 235.073C346.047 235.31 345.942 235.532 345.838 235.755C345.823 235.77 345.808 235.77 345.793 235.784C345.36 236.348 344.658 237.341 343.702 238.75C343.508 239.017 343.373 239.165 343.269 239.225C343.269 239.225 343.254 239.21 343.254 239.195C343.329 238.587 343.448 237.905 343.627 237.193C344.061 235.488 344.285 234.509 344.285 234.272C344.285 234.153 344.255 234.064 344.21 234.005C344.016 233.812 343.777 233.723 343.493 233.723H343.373C342.91 233.723 342.388 234.034 341.805 234.657C341.327 235.251 340.909 235.829 340.566 236.407H340.551C340.61 236.125 340.745 235.592 340.969 234.82V234.776L340.939 234.702C340.73 234.45 340.431 234.316 340.028 234.316C339.774 234.316 339.595 234.376 339.49 234.509C339.386 234.806 339.251 235.384 339.072 236.244C339.057 236.274 339.027 236.303 339.012 236.333C338.773 236.57 338.609 236.719 338.519 236.763C338.295 236.926 337.922 237.119 337.399 237.327H337.384C337.548 236.748 337.623 236.259 337.623 235.829V235.784C337.623 235.399 337.563 235.073 337.429 234.791C337.115 234.183 336.578 233.886 335.801 233.886H335.681C335.517 233.886 335.323 233.916 335.114 233.975C334.591 234.183 334.188 234.539 333.889 235.043C333.68 235.473 333.59 235.829 333.59 236.14C333.232 236.63 333.053 237.178 333.053 237.786V237.935C333.053 238.394 333.187 238.854 333.441 239.314C333.755 239.744 334.128 239.966 334.561 239.966H334.681C335.248 239.966 335.831 239.67 336.413 239.091C336.727 238.735 336.966 238.409 337.115 238.098C337.115 238.024 337.19 237.979 337.324 237.949C337.847 237.771 338.31 237.549 338.728 237.267C338.773 237.238 338.818 237.208 338.863 237.178C338.684 238.009 338.564 238.721 338.489 239.299V239.418C338.489 239.447 338.489 239.507 338.504 239.596C338.654 239.907 338.952 240.07 339.386 240.07C339.475 240.07 339.565 240.055 339.654 240.011C339.714 239.966 339.864 239.684 340.132 239.151C340.819 237.949 341.626 236.689 342.552 235.354H342.567V235.369C342.164 236.778 341.969 237.801 341.969 238.424V238.661C341.969 238.973 342.029 239.269 342.149 239.536C342.373 239.922 342.657 240.115 342.97 240.115H343.06C343.299 240.115 343.598 239.907 343.941 239.507C344.27 239.062 344.703 238.454 345.226 237.668C345.211 237.816 345.196 237.964 345.196 238.113V238.32C345.196 238.543 345.24 238.78 345.345 239.017C345.629 239.581 346.137 239.862 346.868 239.862C347.272 239.862 347.824 239.358 348.526 238.365H348.541V238.528C348.541 238.706 348.571 238.899 348.616 239.106C348.84 239.848 349.198 240.204 349.691 240.204H349.811C350.423 240.204 351.155 239.462 352.021 237.994C352.006 238.231 351.992 238.454 351.992 238.646C351.992 239.225 352.066 239.729 352.201 240.159C352.425 240.723 352.798 241.004 353.321 241.004H353.44C353.754 241.004 353.918 240.9 353.963 240.708C353.978 240.545 353.873 240.426 353.649 240.322ZM334.979 239.121C334.92 239.121 334.875 239.106 334.815 239.062C334.636 238.795 334.546 238.454 334.546 238.009C334.546 237.905 334.561 237.831 334.561 237.801H334.576L334.74 237.89C335.009 238.038 335.338 238.127 335.756 238.187C335.428 238.795 335.174 239.121 334.979 239.121ZM336.413 235.681C336.413 236.2 336.279 236.822 336.01 237.564C335.442 237.564 335.054 237.297 334.86 236.763C334.905 236.674 334.979 236.57 335.099 236.437C335.278 236.333 335.368 236.229 335.368 236.14V236.125C335.368 235.977 335.218 235.844 334.905 235.725C334.905 235.695 334.92 235.636 334.935 235.562C335.009 235.384 335.129 235.191 335.278 234.998C335.592 234.657 335.846 234.479 336.04 234.479C336.07 234.494 336.1 234.509 336.13 234.524C336.309 234.806 336.398 235.132 336.398 235.517V235.681H336.413ZM347.824 237.949C347.585 238.409 347.317 238.721 347.003 238.899C346.868 238.899 346.794 238.765 346.794 238.498V238.35C346.794 238.216 346.824 238.009 346.913 237.727C347.585 235.71 348.138 234.702 348.571 234.702C348.795 234.702 348.974 235.058 349.079 235.784C348.571 236.748 348.153 237.475 347.824 237.949Z" fill="white"/>
<path d="M360.833 235.666H360.788C360.609 235.666 360.415 235.77 360.221 235.962C360.012 236.289 359.728 236.689 359.355 237.163C358.19 238.587 357.338 239.299 356.8 239.299C356.741 239.299 356.681 239.284 356.591 239.254C356.323 239.106 356.188 238.75 356.188 238.187V237.875C356.337 237.875 356.487 237.846 356.651 237.816C356.92 237.757 357.174 237.668 357.413 237.579C357.712 237.445 357.98 237.267 358.264 237.015C358.847 236.452 359.145 235.799 359.145 235.043C359.145 234.702 359.071 234.42 358.906 234.198C358.593 233.871 358.219 233.708 357.801 233.708H357.682C356.965 233.708 356.278 234.123 355.635 234.969C354.963 235.873 354.635 236.837 354.635 237.816V237.994C354.635 238.409 354.724 238.795 354.889 239.151C355.322 239.848 355.815 240.189 356.382 240.189H356.472C357.084 240.189 357.816 239.773 358.653 238.958C359.041 238.557 359.34 238.231 359.534 237.979C360.027 237.341 360.43 236.763 360.744 236.229C360.893 236.007 360.968 235.844 360.968 235.784V235.77C360.997 235.725 360.953 235.681 360.833 235.666ZM356.457 236.897C357.039 235.547 357.443 234.865 357.667 234.865H357.682C357.801 234.865 357.876 235.073 357.906 235.503C357.906 235.725 357.861 235.962 357.786 236.2C357.562 236.808 357.129 237.119 356.442 237.119H356.412H356.367L356.457 236.897Z" fill="white"/>
</g>
<defs>
<clipPath id="clip0_554_762">
<rect width="647" height="378" fill="white" transform="matrix(-1 0 0 1 647 0)"/>
</clipPath>
</defs>
</svg>
