<svg width="544" height="552" viewBox="0 0 544 552" fill="none" xmlns="http://www.w3.org/2000/svg">
<path d="M529.337 171.251C526.037 162.128 522.247 153.239 518.05 144.695C480.846 68.9246 411.515 17.5433 326.158 4.0343C322.479 3.45257 318.789 2.94019 315.089 2.49597C245.424 -5.88444 147.884 4.57254 108.121 68.974C87.4677 102.42 95.9422 144.596 74.0398 177.14C45.6856 219.27 9.22941 240.337 2.47667 306.165C-2.49094 354.598 -0.168716 406.931 34.0721 445.568C74.4288 491.104 143.683 506.781 202.838 498.044C260.259 489.563 311.662 461.214 361.887 434.58C409.552 409.303 464.076 390.946 502.696 352.274C551.4 303.504 551.359 232.159 529.337 171.251Z" fill="#5AE4A7"/>
<g opacity="0.699997">
<path d="M529.337 171.251C526.037 162.128 522.247 153.239 518.05 144.695C480.846 68.9246 411.515 17.5433 326.158 4.0343C322.479 3.45257 318.789 2.94019 315.089 2.49597C245.424 -5.88444 147.884 4.57254 108.121 68.974C87.4677 102.42 95.9422 144.596 74.0398 177.14C45.6856 219.27 9.22941 240.337 2.47667 306.165C-2.49094 354.598 -0.168716 406.931 34.0721 445.568C74.4288 491.104 143.683 506.781 202.838 498.044C260.259 489.563 311.662 461.214 361.887 434.58C409.552 409.303 464.076 390.946 502.696 352.274C551.4 303.504 551.359 232.159 529.337 171.251Z" fill="white"/>
</g>
<path d="M536.447 535.329C536.447 544.091 422.27 551.194 281.426 551.194C140.582 551.194 26.4062 544.091 26.4062 535.329C26.4062 526.566 140.582 519.463 281.426 519.463C422.27 519.463 536.447 526.566 536.447 535.329Z" fill="#1A2E35"/>
<path d="M137.367 140.889C142.034 142.928 153.452 142.672 153.46 142.672C153.579 142.668 151.007 135.197 150.79 134.744C148.285 129.503 140.363 120.851 133.917 121.722C129.273 122.35 126.692 126.998 127.74 131.368C128.81 135.835 133.391 139.152 137.367 140.889Z" fill="#5AE4A7"/>
<path d="M245.949 161.795C246.049 161.858 248.026 154.208 248.095 153.711C248.897 147.958 247.062 136.371 241.205 133.542C236.987 131.504 232.269 133.955 230.732 138.18C229.162 142.496 231.152 147.79 233.51 151.432C236.278 155.706 245.942 161.791 245.949 161.795Z" fill="#5AE4A7"/>
<path d="M274.111 105.06C268.248 104.429 261.282 112.464 259.138 117.276C258.953 117.692 256.805 124.524 256.913 124.524C256.913 124.524 257.014 124.523 257.039 124.523C255.928 125.783 254.753 127.146 253.499 128.662C251.207 131.479 248.641 134.684 246.084 138.36C243.519 142.027 240.835 146.083 238.394 150.61C235.942 155.145 233.592 160.04 231.826 165.397C231.805 165.458 231.792 165.524 231.773 165.584C231.803 163.857 231.726 159.024 231.678 158.653C231.001 153.432 226.625 143.739 220.825 142.666C216.648 141.895 213.11 145.167 212.776 149.229C212.438 153.379 215.445 157.531 218.378 160.152C221.686 163.107 230.868 165.969 231.601 166.194C229.965 171.312 228.7 176.695 227.721 182.214C227.158 185.368 226.689 188.564 226.259 191.773C226.238 190.278 226.206 188.943 226.183 188.756C225.506 183.534 221.128 173.842 215.33 172.77C211.152 171.998 207.615 175.271 207.281 179.332C206.94 183.482 209.95 187.635 212.883 190.256C215.86 192.913 223.638 195.51 225.707 196.171C225.555 197.404 225.39 198.633 225.243 199.866C224.534 205.784 223.855 211.693 223.01 217.468C222.714 219.503 222.347 221.498 221.986 223.493C221.965 222.165 221.937 221.048 221.916 220.878C221.239 215.656 216.861 205.964 211.063 204.892C206.885 204.12 203.346 207.393 203.014 211.456C202.673 215.604 205.682 219.757 208.616 222.378C211.456 224.914 218.614 227.376 221.068 228.172C220.638 230.204 220.212 232.241 219.703 234.191C219.324 235.516 219.053 236.817 218.6 238.126C218.18 239.43 217.762 240.723 217.35 242.002C216.464 244.437 215.565 246.955 214.641 249.308C214.011 250.951 213.38 252.502 212.749 254.069C213.069 252.047 213.609 248.074 213.616 247.737C213.697 244.239 212.455 238.552 209.984 234.554C209.998 234.038 209.968 233.524 209.886 233.011C209.24 228.987 205.459 225.998 201.353 227.092C195.654 228.609 192.041 238.611 191.77 243.87C191.754 244.179 191.957 247.565 192.121 249.699C191.834 248.459 191.571 247.254 191.259 245.981C190.661 243.46 189.99 240.963 189.279 238.273C188.89 236.986 188.496 235.686 188.099 234.373C187.734 233.063 187.18 231.726 186.723 230.387C185.596 227.306 184.304 224.238 182.934 221.176C185.14 220.647 192.946 218.657 196.08 216.252C199.2 213.858 202.509 209.941 202.479 205.778C202.449 201.701 199.167 198.175 194.942 198.633C189.08 199.27 183.992 208.609 182.928 213.767C182.861 214.088 182.514 217.875 182.364 219.958C181.525 218.124 180.699 216.289 179.79 214.461C177.171 209.184 174.354 203.924 171.567 198.663C170.713 197.053 169.882 195.439 169.042 193.824C169.829 193.645 179.159 191.481 182.668 188.787C185.79 186.393 189.099 182.475 189.07 178.312C189.039 174.237 185.756 170.709 181.532 171.167C175.669 171.804 170.581 181.145 169.518 186.3C169.438 186.689 168.945 192.139 168.888 193.53C167.043 189.975 165.234 186.417 163.596 182.835C161.328 177.896 159.375 172.926 157.84 167.971C158.206 167.887 167.954 165.672 171.55 162.914C174.67 160.52 177.979 156.602 177.949 152.439C177.921 148.363 174.636 144.835 170.412 145.294C164.549 145.931 159.462 155.271 158.398 160.427C158.329 160.766 157.949 164.92 157.815 166.898C157.631 166.918 157.665 166.914 157.48 166.933C155.899 161.603 155.039 156.243 154.481 151.185C154.152 148.255 154.002 145.438 153.917 142.693C155.774 142.467 164.253 141.338 167.763 139.213C171.128 137.175 174.847 133.646 175.275 129.505C175.694 125.45 172.817 121.583 168.568 121.576C162.671 121.565 156.589 130.289 154.964 135.297C154.877 135.57 154.286 138.439 153.884 140.534C153.865 139.295 153.822 138.017 153.826 136.829C153.835 132.369 154.117 128.286 154.396 124.671C154.571 122.618 154.771 120.765 154.975 119.032C156.682 117.858 163.502 113.044 165.601 109.604C167.647 106.245 169.322 101.398 167.794 97.5262C166.295 93.735 161.96 91.629 158.186 93.5786C152.947 96.2875 151.57 106.833 152.436 112.027C152.511 112.476 154.49 119.362 154.581 119.302C154.581 119.302 154.663 119.244 154.683 119.231C154.453 120.893 154.225 122.679 154.016 124.635C153.657 128.25 153.285 132.338 153.18 136.816C153.064 141.289 153.063 146.152 153.524 151.274C153.98 156.41 154.722 161.789 156.203 167.231C156.22 167.294 156.245 167.355 156.261 167.417C155.335 165.959 152.604 161.971 152.36 161.688C148.914 157.706 139.917 152.037 134.488 154.342C130.578 156.002 129.433 160.684 131.396 164.257C133.401 167.905 138.202 169.707 142.094 170.275C146.483 170.916 155.721 168.236 156.455 168.02C157.913 173.192 159.829 178.379 162.058 183.522C163.328 186.465 164.698 189.388 166.111 192.302C165.268 191.068 164.506 189.97 164.383 189.828C160.938 185.845 151.939 180.176 146.512 182.481C142.601 184.143 141.456 188.823 143.419 192.395C145.424 196.044 150.224 197.848 154.117 198.415C158.065 198.99 165.987 196.865 168.076 196.274C168.629 197.387 169.17 198.504 169.727 199.613C172.403 204.939 175.095 210.243 177.576 215.525C178.452 217.388 179.245 219.252 180.046 221.116C179.297 220.02 178.656 219.104 178.545 218.975C175.099 214.992 166.1 209.323 160.673 211.627C156.762 213.288 155.616 217.97 157.58 221.542C159.586 225.19 164.386 226.994 168.278 227.561C172.047 228.111 179.375 226.214 181.861 225.524C182.623 227.456 183.391 229.392 184.042 231.299C184.458 232.612 184.949 233.846 185.294 235.188C185.663 236.509 186.027 237.815 186.389 239.111C186.993 241.63 187.632 244.226 188.16 246.7C188.541 248.416 188.871 250.06 189.208 251.715C188.36 249.852 186.618 246.239 186.438 245.954C183.638 241.496 175.602 234.53 169.887 235.985C165.77 237.034 163.928 241.488 165.328 245.317C166.757 249.226 171.23 251.737 174.991 252.888C179.132 254.153 188.3 252.996 189.445 252.844C189.993 255.583 190.502 258.254 190.942 260.78C192.471 269.453 193.419 276.742 194.015 281.881H198.012C197.995 281.765 197.983 281.66 197.966 281.539C197.25 276.347 196.127 268.946 194.377 260.139C193.829 257.354 193.19 254.389 192.505 251.353C193.194 251.079 197.103 249.497 200.568 247.561C203.587 250.83 211.321 254.655 212.322 255.142C211.269 257.729 210.22 260.237 209.193 262.587C205.682 270.665 202.453 277.267 200.116 281.881H204.503C206.668 277.304 209.443 271.206 212.412 263.946C213.492 261.322 214.593 258.498 215.696 255.585C216.806 255.817 225.883 257.661 230.113 256.706C233.949 255.84 238.595 253.669 240.312 249.877C241.993 246.163 240.489 241.584 236.461 240.232C230.872 238.354 222.339 244.702 219.213 248.939C219.028 249.19 217.33 252.125 216.289 253.995C216.734 252.803 217.178 251.65 217.621 250.418C218.513 247.987 219.333 245.533 220.223 242.897C220.609 241.609 220.998 240.307 221.39 238.993C221.807 237.699 222.084 236.278 222.441 234.909C223.2 231.717 223.816 228.446 224.361 225.136C226.493 225.912 234.101 228.558 238.043 228.282C241.966 228.006 246.888 226.565 249.159 223.076C251.384 219.661 250.59 214.906 246.814 212.959C241.573 210.256 232.178 215.239 228.445 218.953C228.211 219.185 225.833 222.151 224.557 223.806C224.871 221.814 225.193 219.828 225.444 217.802C226.171 211.955 226.722 206.013 227.3 200.089C227.476 198.274 227.673 196.469 227.865 194.659C228.619 194.944 237.595 198.286 242.009 197.976C245.932 197.701 250.854 196.259 253.126 192.77C255.349 189.355 254.556 184.601 250.78 182.652C245.54 179.951 236.143 184.932 232.411 188.647C232.129 188.927 228.714 193.201 227.897 194.329C228.319 190.346 228.775 186.38 229.384 182.49C230.216 177.118 231.33 171.896 232.783 166.915C233.134 167.049 242.486 170.578 247.007 170.261C250.932 169.986 255.852 168.545 258.124 165.056C260.348 161.641 259.555 156.886 255.779 154.939C250.538 152.236 241.142 157.219 237.411 160.932C237.165 161.177 234.56 164.428 233.356 166.004C233.192 165.92 233.222 165.935 233.057 165.85C234.677 160.534 236.917 155.589 239.242 151.063C240.584 148.439 242.012 146.005 243.456 143.67C245.129 144.505 252.824 148.241 256.924 148.404C260.855 148.562 265.905 147.67 268.546 144.452C271.132 141.3 270.864 136.488 267.326 134.139C262.413 130.876 252.527 134.797 248.41 138.079C248.185 138.258 246.11 140.324 244.619 141.85C245.287 140.807 245.957 139.716 246.616 138.728C249.083 135.013 251.57 131.764 253.797 128.903C255.076 127.286 256.265 125.85 257.392 124.518C259.462 124.481 267.806 124.228 271.454 122.516C275.015 120.843 279.085 117.724 279.946 113.652C280.79 109.664 278.336 105.515 274.111 105.06Z" fill="#5AE4A7"/>
<path d="M408.543 218.235C410.457 220.999 416.957 224.815 416.962 224.818C417.03 224.857 418.176 219.77 418.214 219.441C418.622 215.629 417.177 208.023 413.255 206.276C410.429 205.017 407.368 206.731 406.439 209.549C405.492 212.429 406.913 215.88 408.543 218.235Z" fill="#5AE4A7"/>
<path d="M472.516 259.703C472.55 259.773 476.313 256.163 476.525 255.908C478.97 252.955 481.96 245.813 479.652 242.192C477.99 239.584 474.492 239.325 472.162 241.164C469.784 243.042 469.065 246.705 469.125 249.568C469.197 252.929 472.513 259.698 472.516 259.703Z" fill="#5AE4A7"/>
<path d="M506.004 248.292C502.614 245.658 495.224 247.969 492.057 250.129C491.783 250.316 487.838 253.726 487.906 253.767C487.906 253.767 487.967 253.805 487.983 253.814C486.814 254.169 485.564 254.565 484.208 255.023C481.709 255.891 478.894 256.894 475.903 258.193C472.913 259.482 469.697 260.968 466.455 262.837C463.199 264.708 459.872 266.841 456.728 269.483C456.692 269.513 456.659 269.549 456.623 269.578C457.303 268.521 459.105 265.498 459.216 265.25C460.795 261.757 461.793 254.079 458.613 251.196C456.32 249.119 452.876 249.793 451.115 252.182C449.318 254.622 449.592 258.345 450.406 261.09C451.324 264.185 455.917 269.47 456.283 269.89C453.312 272.433 450.47 275.285 447.751 278.329C446.195 280.067 444.683 281.866 443.189 283.689C443.746 282.756 444.239 281.916 444.295 281.792C445.875 278.298 446.872 270.621 443.691 267.738C441.397 265.661 437.955 266.335 436.194 268.723C434.395 271.163 434.67 274.886 435.485 277.632C436.311 280.417 440.135 285.002 441.163 286.202C440.598 286.907 440.024 287.605 439.463 288.314C436.76 291.708 434.078 295.107 431.345 298.36C430.382 299.509 429.392 300.603 428.406 301.7C428.901 300.871 429.31 300.168 429.362 300.055C430.941 296.56 431.939 288.882 428.756 286.001C426.465 283.923 423.021 284.598 421.261 286.987C419.462 289.425 419.737 293.15 420.551 295.894C421.34 298.552 424.832 302.816 426.048 304.247C425.003 305.341 423.959 306.44 422.897 307.453C422.157 308.129 421.491 308.83 420.71 309.468C419.949 310.115 419.197 310.755 418.452 311.39C416.972 312.559 415.451 313.776 413.978 314.879C412.961 315.655 411.975 316.375 410.985 317.104C411.957 315.974 413.813 313.72 413.945 313.514C415.334 311.379 416.74 307.38 416.739 303.959C416.946 303.645 417.124 303.314 417.269 302.966C418.409 300.225 417.21 296.929 414.25 296.035C410.14 294.794 404.075 299.606 401.894 302.76C401.765 302.946 400.597 305.12 399.88 306.505C400.178 305.627 400.476 304.778 400.77 303.872C401.365 302.082 401.904 300.278 402.493 298.34C402.744 297.394 402.998 296.439 403.253 295.473C403.529 294.523 403.698 293.482 403.928 292.478C404.409 290.137 404.781 287.744 405.105 285.324C406.673 285.84 412.268 287.594 415.131 287.303C417.98 287.015 421.528 285.855 423.101 283.265C424.643 280.73 423.959 277.288 421.168 275.956C417.294 274.108 410.568 277.945 407.937 280.732C407.772 280.906 406.108 283.118 405.217 284.352C405.4 282.893 405.591 281.442 405.727 279.961C406.123 275.691 406.391 271.355 406.678 267.032C406.765 265.707 406.868 264.389 406.966 263.068C407.522 263.258 414.128 265.486 417.333 265.161C420.182 264.873 423.73 263.713 425.305 261.123C426.847 258.588 426.163 255.147 423.371 253.814C419.496 251.966 412.771 255.804 410.139 258.59C409.94 258.799 407.551 261.987 406.982 262.827C407.2 259.919 407.442 257.022 407.798 254.177C408.282 250.251 408.974 246.426 409.919 242.768C410.179 242.858 417.062 245.215 420.346 244.883C423.194 244.593 426.743 243.434 428.318 240.843C429.859 238.308 429.174 234.866 426.383 233.535C422.508 231.686 415.782 235.524 413.151 238.311C412.978 238.494 411.154 240.921 410.314 242.095C410.193 242.036 410.215 242.048 410.094 241.989C411.153 238.083 412.671 234.434 414.263 231.087C415.179 229.148 416.163 227.345 417.161 225.613C418.398 226.184 424.082 228.728 427.069 228.754C429.933 228.78 433.587 228.017 435.435 225.616C437.246 223.265 436.944 219.768 434.315 218.138C430.667 215.876 423.562 218.952 420.639 221.434C420.482 221.568 419.016 223.119 417.967 224.262C418.429 223.488 418.892 222.679 419.35 221.946C421.061 219.187 422.797 216.766 424.353 214.634C425.247 213.428 426.079 212.358 426.869 211.362C428.376 211.289 434.441 210.917 437.058 209.588C439.611 208.291 442.503 205.93 443.038 202.948C443.559 200.026 441.681 197.063 438.598 196.827C434.316 196.5 429.429 202.505 427.977 206.053C427.853 206.359 426.444 211.381 426.522 211.377C426.522 211.377 426.596 211.375 426.613 211.374C425.834 212.315 425.01 213.334 424.132 214.466C422.527 216.567 420.731 218.957 418.954 221.69C417.17 224.416 415.309 227.428 413.635 230.777C411.952 234.133 410.353 237.747 409.188 241.685C409.174 241.729 409.168 241.778 409.154 241.822C409.138 240.565 408.973 237.05 408.928 236.782C408.318 232.997 404.915 226.043 400.671 225.393C397.615 224.925 395.114 227.386 394.962 230.351C394.809 233.377 397.092 236.332 399.285 238.172C401.758 240.248 408.505 242.122 409.042 242.27C407.967 246.031 407.169 249.977 406.581 254.015C406.242 256.323 405.973 258.658 405.733 261.003C405.684 259.917 405.631 258.945 405.61 258.81C405 255.025 401.594 248.072 397.351 247.422C394.294 246.954 391.793 249.415 391.642 252.379C391.488 255.407 393.772 258.36 395.965 260.2C398.192 262.068 403.91 263.782 405.43 264.216C405.348 265.116 405.255 266.015 405.175 266.915C404.794 271.238 404.432 275.553 403.948 279.773C403.779 281.262 403.555 282.721 403.339 284.182C403.294 283.217 403.247 282.402 403.229 282.28C402.618 278.496 399.214 271.541 394.97 270.892C391.913 270.425 389.412 272.885 389.261 275.85C389.107 278.875 391.391 281.83 393.585 283.67C395.708 285.453 400.973 287.083 402.776 287.606C402.509 289.095 402.245 290.586 401.918 292.018C401.674 292.99 401.506 293.943 401.205 294.904C400.929 295.863 400.654 296.813 400.382 297.754C399.792 299.545 399.195 301.397 398.576 303.132C398.154 304.34 397.73 305.485 397.307 306.639C397.494 305.16 397.797 302.257 397.796 302.012C397.765 298.178 395.455 290.789 391.358 289.503C388.407 288.578 385.562 290.632 384.965 293.54C384.354 296.507 386.162 299.774 388.052 301.925C390.132 304.293 396.254 307.084 397.021 307.428C396.313 309.334 395.606 311.184 394.912 312.917C392.54 318.875 390.338 323.752 388.741 327.161L391.216 328.691C391.251 328.613 391.283 328.542 391.319 328.462C392.863 324.972 394.999 319.957 397.283 313.834C398.011 311.9 398.748 309.819 399.486 307.675C400.017 307.769 403.045 308.286 405.932 308.412C406.55 311.591 409.877 316.919 410.31 317.604C408.669 318.804 407.06 319.956 405.524 321.02C400.26 324.679 395.733 327.533 392.52 329.496L395.236 331.175C398.329 329.168 402.381 326.453 406.998 323.091C408.671 321.88 410.434 320.552 412.231 319.171C412.83 319.74 417.745 324.355 420.73 325.381C423.439 326.312 427.146 326.745 429.661 325.053C432.123 323.397 432.944 319.985 430.966 317.606C428.222 314.304 420.509 314.971 416.952 316.4C416.741 316.483 414.566 317.653 413.206 318.412C413.938 317.844 414.655 317.301 415.4 316.707C416.883 315.542 418.329 314.335 419.89 313.045C420.621 312.394 421.36 311.737 422.105 311.073C422.859 310.431 423.574 309.658 424.319 308.944C426.011 307.259 427.644 305.468 429.248 303.628C430.271 304.923 433.971 309.474 436.518 310.809C439.052 312.14 442.653 313.13 445.395 311.839C448.079 310.574 449.407 307.326 447.812 304.676C445.602 300.996 437.875 300.488 434.142 301.36C433.909 301.414 431.302 302.341 429.879 302.878C430.834 301.765 431.794 300.658 432.725 299.498C435.412 296.156 438.027 292.686 440.652 289.24C441.455 288.181 442.268 287.14 443.078 286.091C443.437 286.557 447.717 292.06 450.57 293.557C453.104 294.888 456.705 295.877 459.447 294.587C462.131 293.321 463.459 290.074 461.864 287.423C459.654 283.743 451.927 283.234 448.196 284.107C447.914 284.173 444.162 285.513 443.224 285.9C445.011 283.594 446.81 281.313 448.676 279.135C451.246 276.128 453.934 273.318 456.739 270.79C456.906 271.007 461.349 276.772 464.269 278.304C466.806 279.636 470.405 280.625 473.146 279.334C475.831 278.069 477.159 274.821 475.566 272.17C473.353 268.49 465.627 267.982 461.895 268.856C461.651 268.912 458.791 269.93 457.443 270.446C457.374 270.329 457.387 270.35 457.316 270.234C460.354 267.562 463.634 265.356 466.806 263.443C468.641 262.33 470.456 261.37 472.244 260.475C472.962 261.634 476.298 266.892 478.775 268.562C481.15 270.162 484.618 271.542 487.484 270.56C490.292 269.598 491.969 266.515 490.675 263.706C488.881 259.805 481.257 258.452 477.451 258.909C477.244 258.933 475.169 259.419 473.661 259.795C474.474 259.403 475.306 258.984 476.093 258.624C479.042 257.267 481.825 256.206 484.299 255.287C485.709 254.775 486.995 254.339 488.203 253.946C489.499 254.716 494.766 257.751 497.68 258.086C500.524 258.413 504.239 258.039 506.33 255.846C508.379 253.699 508.446 250.19 506.004 248.292Z" fill="#5AE4A7"/>
<path d="M137.688 347.64C141.142 348.592 149.068 347.266 149.074 347.265C149.156 347.251 146.615 342.307 146.419 342.013C144.147 338.615 137.762 333.386 133.361 334.639C130.19 335.542 128.859 339.039 130.028 341.978C131.222 344.979 134.746 346.83 137.688 347.64Z" fill="#5AE4A7"/>
<path d="M218.356 337.791C218.431 337.824 219.04 332.298 219.039 331.944C219.018 327.859 216.578 319.975 212.214 318.593C209.072 317.596 206.033 319.779 205.387 322.874C204.726 326.037 206.645 329.524 208.652 331.823C211.009 334.523 218.35 337.789 218.356 337.791Z" fill="#5AE4A7"/>
<path d="M237.93 305.558C233.356 305.722 228.896 312.665 227.782 316.599C227.686 316.939 226.793 322.426 226.877 322.413C226.877 322.413 226.953 322.401 226.972 322.397C226.26 323.488 225.508 324.667 224.712 325.969C223.263 328.387 221.648 331.134 220.091 334.24C218.527 337.34 216.914 340.753 215.542 344.502C214.16 348.255 212.899 352.276 212.134 356.587C212.126 356.635 212.123 356.688 212.114 356.736C211.946 355.405 211.352 351.702 211.274 351.423C210.176 347.487 205.739 340.527 201.167 340.346C197.873 340.216 195.517 343.121 195.711 346.278C195.91 349.504 198.681 352.359 201.224 354.048C204.093 355.951 211.463 357.132 212.05 357.223C211.359 361.336 210.986 365.611 210.845 369.958C210.761 372.444 210.755 374.95 210.781 377.463C210.599 376.317 210.427 375.295 210.387 375.154C209.289 371.218 204.853 364.257 200.281 364.077C196.986 363.947 194.631 366.852 194.825 370.01C195.024 373.235 197.795 376.091 200.338 377.778C202.919 379.49 209.182 380.624 210.843 380.9C210.863 381.865 210.873 382.828 210.896 383.791C211.008 388.416 211.141 393.03 211.131 397.559C211.129 399.156 211.068 400.726 211.013 402.3C210.85 401.283 210.704 400.428 210.668 400.3C209.571 396.364 205.134 389.403 200.561 389.222C197.266 389.092 194.912 391.998 195.106 395.156C195.304 398.379 198.076 401.236 200.619 402.925C203.081 404.557 208.854 405.656 210.827 405.995C210.72 407.603 210.618 409.216 210.444 410.769C210.3 411.83 210.236 412.859 210.034 413.913C209.854 414.963 209.676 416.003 209.501 417.031C209.09 418.998 208.679 421.033 208.231 422.942C207.929 424.274 207.616 425.536 207.305 426.809C207.326 425.22 207.301 422.109 207.27 421.848C206.944 419.152 205.36 414.924 203.018 412.127C202.973 411.728 202.893 411.335 202.773 410.952C201.831 407.931 198.595 406.056 195.563 407.35C191.354 409.147 189.686 417.228 190.061 421.298C190.083 421.538 190.615 424.116 190.975 425.738C190.618 424.817 190.282 423.92 189.901 422.976C189.163 421.107 188.372 419.263 187.527 417.275C187.087 416.331 186.64 415.375 186.19 414.411C185.763 413.445 185.19 412.479 184.69 411.5C183.483 409.259 182.152 407.045 180.76 404.845C182.395 404.195 188.17 401.803 190.311 399.607C192.443 397.424 194.55 394.047 194.067 390.853C193.592 387.726 190.68 385.38 187.486 386.201C183.054 387.339 180.18 395.077 179.934 399.156C179.919 399.41 180.072 402.356 180.187 403.974C179.34 402.658 178.502 401.341 177.601 400.037C175.004 396.273 172.259 392.547 169.536 388.814C168.7 387.672 167.882 386.524 167.059 385.377C167.644 385.152 174.571 382.455 176.968 379.998C179.1 377.812 181.208 374.437 180.724 371.244C180.249 368.115 177.336 365.77 174.143 366.591C169.71 367.729 166.838 375.466 166.591 379.545C166.572 379.852 166.799 384.092 166.908 385.168C165.097 382.642 163.314 380.108 161.659 377.539C159.369 373.996 157.319 370.395 155.591 366.759C155.862 366.655 163.104 363.874 165.56 361.356C167.692 359.172 169.8 355.796 169.316 352.601C168.843 349.474 165.929 347.128 162.736 347.949C158.303 349.088 155.43 356.825 155.184 360.904C155.168 361.171 155.337 364.404 155.452 365.938C155.314 365.973 155.339 365.967 155.2 366.003C153.394 362.084 152.139 358.061 151.151 354.238C150.574 352.024 150.146 349.877 149.777 347.778C151.179 347.4 157.566 345.592 160.027 343.571C162.386 341.633 164.852 338.511 164.722 335.282C164.594 332.122 161.956 329.47 158.691 329.935C154.161 330.58 150.455 337.955 149.763 341.982C149.725 342.201 149.589 344.469 149.513 346.124C149.361 345.174 149.186 344.197 149.058 343.284C148.57 339.859 148.335 336.69 148.148 333.884C148.056 332.286 148.004 330.841 147.969 329.486C149.151 328.397 153.855 323.944 155.086 321.067C156.286 318.262 157.035 314.353 155.432 311.549C153.862 308.803 150.299 307.665 147.616 309.581C143.892 312.241 144.002 320.494 145.243 324.387C145.351 324.724 147.634 329.794 147.696 329.738C147.696 329.738 147.753 329.685 147.766 329.672C147.775 330.975 147.797 332.371 147.853 333.897C147.978 336.714 148.145 339.895 148.561 343.345C148.966 346.795 149.505 350.531 150.426 354.412C151.346 358.307 152.511 362.357 154.251 366.374C154.271 366.418 154.298 366.463 154.318 366.509C153.444 365.492 150.905 362.73 150.686 362.54C147.598 359.864 140.059 356.507 136.145 358.877C133.325 360.586 132.963 364.309 134.869 366.837C136.812 369.416 140.7 370.268 143.752 370.274C147.194 370.279 153.993 367.197 154.533 366.951C156.226 370.761 158.272 374.533 160.554 378.237C161.855 380.355 163.232 382.45 164.64 384.532C163.856 383.677 163.149 382.918 163.038 382.823C159.95 380.146 152.411 376.788 148.497 379.16C145.677 380.869 145.316 384.592 147.22 387.117C149.164 389.698 153.051 390.551 156.105 390.556C159.201 390.561 165.05 388.05 166.589 387.365C167.137 388.158 167.676 388.956 168.227 389.747C170.872 393.541 173.528 397.317 176.018 401.1C176.897 402.434 177.713 403.777 178.535 405.12C177.838 404.361 177.244 403.728 177.144 403.642C174.056 400.965 166.517 397.606 162.603 399.979C159.783 401.687 159.422 405.409 161.326 407.936C163.271 410.517 167.157 411.37 170.209 411.374C173.166 411.378 178.585 409.11 180.417 408.305C181.218 409.705 182.021 411.107 182.734 412.498C183.198 413.461 183.711 414.355 184.125 415.347C184.554 416.321 184.979 417.285 185.4 418.24C186.144 420.109 186.922 422.03 187.601 423.873C188.084 425.149 188.52 426.375 188.962 427.608C188.104 426.272 186.367 423.69 186.197 423.491C183.552 420.376 176.607 415.915 172.379 417.667C169.333 418.929 168.411 422.553 169.912 425.339C171.442 428.184 175.155 429.616 178.171 430.084C181.493 430.596 188.406 428.693 189.269 428.448C189.994 430.493 190.68 432.487 191.297 434.379C193.434 440.872 194.97 446.365 195.996 450.247L199.067 449.804C199.041 449.716 199.02 449.637 198.993 449.545C197.869 445.636 196.185 440.077 193.865 433.506C193.137 431.427 192.316 429.223 191.455 426.965C191.953 426.678 194.781 425.029 197.227 423.159C199.908 425.335 206.273 427.416 207.096 427.68C206.574 429.784 206.046 431.826 205.516 433.745C203.716 440.339 201.966 445.768 200.683 449.571L204.051 449.085C205.208 445.33 206.664 440.338 208.139 434.432C208.679 432.298 209.212 430.006 209.738 427.647C210.614 427.703 217.791 428.112 220.934 426.911C223.785 425.819 227.113 423.638 228.012 420.535C228.892 417.496 227.229 414.146 223.985 413.554C219.483 412.73 213.633 418.551 211.701 422.153C211.587 422.365 210.607 424.807 210.016 426.36C210.225 425.395 210.439 424.461 210.642 423.464C211.058 421.498 211.416 419.524 211.807 417.399C211.961 416.367 212.116 415.325 212.271 414.272C212.449 413.232 212.504 412.109 212.626 411.017C212.857 408.483 212.966 405.902 213.02 403.299C214.743 403.659 220.88 404.849 223.876 404.2C226.859 403.554 230.48 401.9 231.837 398.969C233.168 396.099 232.031 392.536 228.916 391.458C224.591 389.962 217.926 394.831 215.47 398.097C215.317 398.301 213.818 400.842 213.022 402.255C213.042 400.69 213.07 399.129 213.037 397.545C212.948 392.974 212.714 388.349 212.502 383.734C212.436 382.321 212.388 380.912 212.334 379.502C212.945 379.637 220.209 381.208 223.565 380.482C226.548 379.836 230.168 378.183 231.527 375.252C232.857 372.381 231.721 368.818 228.604 367.74C224.28 366.246 217.615 371.113 215.16 374.38C214.974 374.626 212.824 378.287 212.322 379.245C212.204 376.138 212.116 373.042 212.153 369.985C212.197 365.767 212.473 361.633 213.037 357.647C213.323 357.71 220.897 359.386 224.335 358.641C227.317 357.994 230.938 356.342 232.297 353.411C233.626 350.54 232.491 346.977 229.374 345.899C225.049 344.404 218.385 349.272 215.93 352.539C215.767 352.753 214.127 355.539 213.377 356.884C213.241 356.837 213.267 356.845 213.129 356.798C213.786 352.536 214.959 348.488 216.242 344.755C216.983 342.591 217.81 340.563 218.661 338.608C220.038 339.065 226.362 341.083 229.53 340.754C232.567 340.439 236.347 339.195 238.018 336.432C239.656 333.724 238.918 330.057 235.939 328.644C231.804 326.682 224.645 330.79 221.846 333.766C221.694 333.928 220.328 335.745 219.352 337.083C219.75 336.206 220.143 335.295 220.54 334.463C222.023 331.337 223.574 328.565 224.967 326.12C225.771 324.737 226.524 323.503 227.242 322.355C228.829 322.096 235.21 320.978 237.823 319.258C240.372 317.58 243.153 314.734 243.364 311.509C243.569 308.354 241.225 305.438 237.93 305.558Z" fill="#5AE4A7"/>
<path d="M396.806 493.194H208.723C199.297 493.194 191.656 485.553 191.656 476.128V76.6077C191.656 67.1825 199.297 59.5425 208.723 59.5425H396.806C406.233 59.5425 413.872 67.1825 413.872 76.6077V476.128C413.872 485.553 406.233 493.194 396.806 493.194Z" fill="#1A2E35"/>
<path d="M309.512 479.092C309.512 474.921 306.132 471.54 301.961 471.54C297.79 471.54 294.41 474.921 294.41 479.092C294.41 483.262 297.79 486.643 301.961 486.643C306.132 486.643 309.512 483.262 309.512 479.092Z" stroke="white" stroke-width="1.33333" stroke-miterlimit="10" stroke-linecap="round" stroke-linejoin="round"/>
<g opacity="0.300003">
<path d="M331.53 59.5415H208.725C199.298 59.5415 191.658 67.1827 191.658 76.6079V416.262L331.53 59.5415Z" fill="white"/>
</g>
<path d="M403.988 467.454H201.537V88.991H403.988V467.454Z" fill="#4CD79D" stroke="#1A2E35" stroke-width="1.33333" stroke-miterlimit="10" stroke-linecap="round" stroke-linejoin="round"/>
<g clip-path="url(#clip0_502_2489)">
<path d="M264.712 281.897V284.426H258.821V280.352L252.975 279.649C252.521 279.602 252.114 279.462 251.706 279.274L239.197 273.327L239.605 272.765C239.696 272.624 239.832 272.484 240.013 272.437C240.512 272.203 241.101 272.156 241.645 272.343L245.134 273.42L249.032 274.498L250.391 274.825C250.301 275.528 250.709 276.137 251.388 276.277L256.283 277.354L256.419 276.605L255.286 276.371L252.068 275.622C251.479 275.481 251.071 274.872 251.162 274.263L251.207 273.936C251.252 273.608 251.524 273.374 251.842 273.42L253.111 273.467C255.241 273.561 257.325 273.936 259.365 274.544C259.818 274.638 260.271 274.872 260.724 275.153C262.582 276.324 263.897 278.197 264.486 280.305C264.622 280.867 264.712 281.382 264.712 281.897Z" fill="white"/>
<path d="M259.228 267.004C257.279 266.63 254.696 266.442 251.977 266.442C249.258 266.442 246.674 266.63 244.726 266.958C242.369 267.379 241.281 267.894 241.281 268.737C241.281 269.58 242.324 270.189 244.726 270.611C246.674 270.985 249.258 271.173 251.977 271.173C254.696 271.173 257.279 270.985 259.228 270.657C261.63 270.236 262.672 269.674 262.672 268.784C262.627 267.941 261.585 267.473 259.228 267.004ZM258.593 269.627C256.781 269.908 254.379 270.095 251.931 270.095C249.484 270.095 247.128 269.908 245.269 269.627C243.411 269.346 242.686 268.971 242.46 268.831C242.731 268.644 243.411 268.128 245.269 267.847C247.49 267.52 249.711 267.332 251.931 267.332C254.152 267.332 256.373 267.52 258.593 267.801C260.633 268.082 261.177 268.69 261.403 268.878C261.177 268.971 260.452 269.299 258.593 269.627Z" fill="white"/>
<path d="M282.695 283.451V269.093H291.584V271.309H285.245V274.971H290.869V277.187H285.245V283.451H282.695Z" fill="white"/>
<path d="M303.131 278.027C303.145 278.825 303.023 279.61 302.767 280.367C302.551 281.028 302.187 281.647 301.728 282.17C301.27 282.666 300.73 283.065 300.11 283.327C299.449 283.602 298.748 283.753 298.033 283.74C297.318 283.753 296.617 283.616 295.956 283.327C295.349 283.065 294.796 282.666 294.351 282.17C293.892 281.647 293.528 281.028 293.299 280.367C293.042 279.61 292.907 278.825 292.921 278.027C292.907 277.228 293.042 276.444 293.299 275.687C293.528 275.026 293.892 274.42 294.351 273.897C294.809 273.401 295.349 273.002 295.969 272.754C296.617 272.479 297.318 272.341 298.019 272.355C298.721 272.341 299.422 272.479 300.083 272.754C300.703 273.016 301.256 273.401 301.701 273.897C302.16 274.42 302.511 275.026 302.754 275.687C303.01 276.444 303.145 277.228 303.131 278.027ZM300.609 278.027C300.609 276.953 300.38 276.1 299.935 275.466C299.489 274.833 298.856 274.516 298.033 274.53C297.223 274.53 296.59 274.847 296.131 275.466C295.672 276.086 295.443 276.953 295.443 278.027C295.443 279.114 295.672 279.982 296.117 280.615C296.576 281.248 297.21 281.565 298.019 281.565C298.829 281.565 299.462 281.248 299.921 280.615C300.38 279.982 300.609 279.114 300.609 278.027Z" fill="white"/>
<path d="M315.27 278.027C315.283 278.825 315.162 279.61 314.906 280.367C314.69 281.028 314.326 281.647 313.867 282.17C313.409 282.666 312.869 283.065 312.249 283.327C311.588 283.602 310.886 283.754 310.171 283.74C309.457 283.754 308.755 283.616 308.094 283.327C307.487 283.065 306.934 282.666 306.489 282.17C306.031 281.647 305.666 281.028 305.437 280.367C305.181 279.61 305.046 278.825 305.06 278.027C305.046 277.228 305.181 276.444 305.437 275.687C305.666 275.026 306.031 274.42 306.489 273.897C306.948 273.402 307.501 273.002 308.108 272.754C308.755 272.479 309.457 272.342 310.158 272.342C310.859 272.328 311.561 272.465 312.222 272.741C312.842 273.002 313.395 273.388 313.84 273.897C314.299 274.42 314.649 275.026 314.892 275.687C315.162 276.444 315.283 277.228 315.27 278.027ZM312.748 278.027C312.748 276.953 312.518 276.1 312.073 275.466C311.615 274.833 310.981 274.517 310.171 274.517C309.362 274.517 308.728 274.833 308.27 275.453C307.811 276.072 307.582 276.939 307.595 278.013C307.595 279.101 307.825 279.968 308.27 280.601C308.715 281.234 309.349 281.551 310.171 281.551C310.981 281.551 311.615 281.234 312.073 280.601C312.532 279.982 312.748 279.114 312.748 278.027Z" fill="white"/>
<path d="M326.787 283.12C326.18 283.299 325.573 283.437 324.952 283.533C324.184 283.657 323.401 283.726 322.619 283.726C321.85 283.74 321.081 283.602 320.366 283.327C319.733 283.079 319.153 282.693 318.667 282.198C318.181 281.689 317.817 281.083 317.588 280.408C317.332 279.651 317.21 278.866 317.224 278.068C317.21 277.283 317.318 276.499 317.534 275.742C317.723 275.095 318.033 274.475 318.451 273.952C318.856 273.456 319.355 273.071 319.935 272.809C320.569 272.534 321.243 272.396 321.931 272.396C322.39 272.383 322.848 272.451 323.293 272.589C323.644 272.699 323.981 272.837 324.305 273.002V267.785L326.76 267.372L326.787 283.12ZM319.733 277.999C319.733 279.1 319.989 279.968 320.501 280.601C321.014 281.234 321.729 281.551 322.632 281.537C322.97 281.537 323.307 281.523 323.644 281.482C323.873 281.454 324.089 281.413 324.318 281.372V275.163C324.049 274.984 323.765 274.847 323.455 274.737C323.091 274.599 322.7 274.544 322.309 274.544C321.419 274.544 320.758 274.861 320.353 275.48C319.948 276.1 319.733 276.939 319.733 277.999Z" fill="white"/>
<path d="M329.325 278.082C329.312 277.228 329.446 276.375 329.743 275.577C329.985 274.916 330.363 274.296 330.849 273.787C331.294 273.319 331.833 272.947 332.44 272.713C333.02 272.479 333.641 272.355 334.261 272.355C335.718 272.355 336.865 272.823 337.688 273.746C338.511 274.668 338.915 276.058 338.915 277.889C338.915 278.027 338.915 278.178 338.902 278.357C338.888 278.536 338.888 278.688 338.875 278.825H331.86C331.928 279.693 332.225 280.367 332.765 280.849C333.304 281.331 334.073 281.565 335.085 281.565C335.638 281.565 336.177 281.51 336.717 281.399C337.121 281.317 337.512 281.207 337.89 281.042L338.213 283.093C338.038 283.175 337.85 283.258 337.661 283.313C337.391 283.396 337.121 283.464 336.852 283.52C336.541 283.588 336.218 283.63 335.867 283.671C335.503 283.712 335.152 283.74 334.788 283.726C333.952 283.74 333.128 283.602 332.346 283.299C331.698 283.051 331.106 282.638 330.634 282.115C330.175 281.606 329.837 280.986 329.635 280.34C329.419 279.61 329.312 278.853 329.325 278.082ZM336.447 276.967C336.447 276.636 336.406 276.306 336.312 275.976C336.231 275.687 336.083 275.411 335.894 275.163C335.705 274.929 335.476 274.751 335.22 274.627C334.923 274.489 334.599 274.42 334.275 274.434C333.938 274.42 333.587 274.503 333.276 274.654C333.007 274.792 332.751 274.985 332.562 275.219C332.36 275.453 332.211 275.728 332.103 276.031C331.995 276.334 331.914 276.65 331.874 276.967H336.447Z" fill="white"/>
<path d="M345.051 272.342C345.753 272.328 346.44 272.438 347.101 272.658C347.614 272.837 348.059 273.126 348.437 273.526C348.774 273.911 349.017 274.379 349.152 274.888C349.3 275.467 349.367 276.045 349.367 276.637V283.203C348.99 283.286 348.423 283.382 347.654 283.506C346.791 283.63 345.928 283.685 345.065 283.685C344.471 283.685 343.891 283.63 343.311 283.492C342.826 283.382 342.367 283.189 341.962 282.886C341.585 282.611 341.288 282.24 341.086 281.813C340.856 281.303 340.749 280.739 340.776 280.175C340.762 279.624 340.883 279.087 341.126 278.605C341.356 278.179 341.693 277.821 342.097 277.559C342.529 277.284 343.015 277.077 343.514 276.981C344.067 276.857 344.62 276.802 345.186 276.802C345.469 276.802 345.753 276.816 346.036 276.857C346.36 276.898 346.67 276.953 346.993 277.036V276.623C346.993 276.348 346.966 276.072 346.886 275.797C346.751 275.26 346.373 274.82 345.86 274.641C345.523 274.517 345.173 274.462 344.808 274.475C344.282 274.475 343.756 274.517 343.244 274.599C342.853 274.668 342.462 274.765 342.084 274.888L341.774 272.837C342.219 272.7 342.677 272.59 343.136 272.507C343.77 272.397 344.404 272.342 345.051 272.342ZM345.254 281.689C345.833 281.703 346.413 281.661 346.98 281.565V278.784C346.791 278.729 346.589 278.688 346.386 278.66C346.103 278.619 345.82 278.592 345.537 278.605C345.267 278.605 344.984 278.633 344.714 278.66C344.458 278.702 344.201 278.77 343.959 278.894C343.743 279.005 343.554 279.156 343.419 279.362C343.271 279.583 343.203 279.858 343.217 280.12C343.217 280.711 343.406 281.124 343.77 281.358C344.134 281.579 344.62 281.703 345.254 281.689Z" fill="white"/>
<path d="M356.056 283.657C355.436 283.657 354.829 283.574 354.236 283.409C353.804 283.285 353.413 283.065 353.089 282.762C352.806 282.473 352.59 282.101 352.496 281.702C352.374 281.234 352.32 280.752 352.32 280.257V267.785L354.775 267.372V279.789C354.775 280.05 354.789 280.298 354.843 280.56C354.883 280.752 354.977 280.931 355.099 281.083C355.234 281.234 355.409 281.344 355.598 281.413C355.854 281.496 356.124 281.565 356.394 281.592L356.056 283.657Z" fill="white"/>
<path d="M361.048 281.648C361.695 281.648 362.168 281.565 362.464 281.414C362.761 281.262 362.909 280.987 362.909 280.588C362.909 280.23 362.734 279.886 362.437 279.693C362.114 279.459 361.588 279.197 360.859 278.922C360.441 278.771 360.036 278.592 359.632 278.399C359.281 278.234 358.957 278.014 358.661 277.738C358.391 277.49 358.175 277.174 358.027 276.83C357.865 276.417 357.784 275.976 357.797 275.536C357.797 274.545 358.162 273.76 358.876 273.182C359.591 272.604 360.576 272.328 361.803 272.314C362.397 272.314 363.004 272.383 363.584 272.493C364.015 272.576 364.447 272.686 364.865 272.838L364.42 274.861C364.083 274.71 363.732 274.6 363.381 274.517C362.896 274.407 362.41 274.352 361.925 274.366C361.507 274.352 361.089 274.434 360.711 274.627C360.414 274.779 360.225 275.095 360.239 275.426C360.239 275.591 360.266 275.756 360.333 275.907C360.401 276.059 360.509 276.196 360.643 276.293C360.832 276.431 361.021 276.554 361.237 276.651C361.534 276.788 361.83 276.912 362.127 277.009C362.64 277.201 363.125 277.408 363.611 277.656C363.975 277.848 364.326 278.082 364.622 278.385C364.879 278.647 365.081 278.963 365.202 279.308C365.337 279.707 365.391 280.12 365.378 280.547C365.378 281.579 365 282.364 364.245 282.901C363.489 283.437 362.424 283.699 361.021 283.699C360.266 283.726 359.497 283.644 358.755 283.465C358.35 283.355 357.946 283.231 357.555 283.08L357.986 280.987C358.418 281.166 358.85 281.304 359.295 281.428C359.875 281.593 360.468 281.662 361.048 281.648Z" fill="white"/>
</g>
<defs>
<clipPath id="clip0_502_2489">
<rect width="126.786" height="17.9838" fill="white" transform="translate(239.197 266.442)"/>
</clipPath>
</defs>
</svg>
