<svg width="489" height="488" viewBox="0 0 489 488" fill="none" xmlns="http://www.w3.org/2000/svg">
<path d="M35.1628 210.224C35.1628 210.224 27.064 288.33 84.7358 353.047C142.407 417.764 231.605 439.471 303.555 458.96C375.504 478.447 436.902 448.503 453.804 388.003C470.705 327.502 417.707 298.111 397.27 221.28C376.831 144.449 382.689 121.718 324.932 65.3946C267.176 9.07156 163.87 15.8059 101.432 79.9077C38.9956 144.008 35.1628 210.224 35.1628 210.224Z" fill="#4CD79D"/>
<g opacity="0.699997">
<path d="M35.1628 210.224C35.1628 210.224 27.064 288.33 84.7358 353.047C142.407 417.764 231.605 439.471 303.555 458.96C375.504 478.447 436.902 448.503 453.804 388.003C470.705 327.502 417.707 298.111 397.27 221.28C376.831 144.449 382.689 121.718 324.932 65.3946C267.176 9.07156 163.87 15.8059 101.432 79.9077C38.9956 144.008 35.1628 210.224 35.1628 210.224Z" fill="white"/>
</g>
<path d="M124.184 73.1256L246.96 273.708L396.147 132.373" stroke="#1A2E35" stroke-width="1.33333" stroke-miterlimit="10" stroke-linecap="round" stroke-linejoin="round"/>
<path d="M59.6289 282.834L246.959 273.708L110.621 215.889" stroke="#1A2E35" stroke-width="1.33333" stroke-miterlimit="10" stroke-linecap="round" stroke-linejoin="round"/>
<path d="M277.028 49.3652L249.158 278.434L420.13 312.354" stroke="#1A2E35" stroke-width="1.33333" stroke-miterlimit="10" stroke-linecap="round" stroke-linejoin="round"/>
<path d="M113.477 416.471L246.96 273.708L385.44 378.638" stroke="#1A2E35" stroke-width="1.33333" stroke-miterlimit="10" stroke-linecap="round" stroke-linejoin="round"/>
<path d="M322.288 443.676H166.086C158.258 443.676 151.912 437.331 151.912 429.503V97.7053C151.912 89.8777 158.258 83.5318 166.086 83.5318H322.288C330.116 83.5318 336.46 89.8777 336.46 97.7053V429.503C336.46 437.331 330.116 443.676 322.288 443.676Z" fill="#1A2E35"/>
<g opacity="0.199997">
<path d="M167.819 83.5323C159.034 83.5323 151.912 90.6542 151.912 99.4392V427.769C151.912 432.671 154.133 437.05 157.618 439.969L265.284 83.5323H167.819Z" fill="white"/>
</g>
<path d="M250.458 433.261C250.458 429.797 247.65 426.99 244.187 426.99C240.723 426.99 237.916 429.797 237.916 433.261C237.916 436.725 240.723 439.532 244.187 439.532C247.65 439.532 250.458 436.725 250.458 433.261Z" stroke="white" stroke-width="1.33333" stroke-miterlimit="10" stroke-linecap="round" stroke-linejoin="round"/>
<path d="M322.288 443.676H166.086C158.258 443.676 151.912 437.331 151.912 429.503V97.7053C151.912 89.8778 158.258 83.5318 166.086 83.5318H322.288C330.116 83.5318 336.46 89.8778 336.46 97.7053V429.503C336.46 437.331 330.116 443.676 322.288 443.676Z" stroke="#1A2E35" stroke-width="1.33333" stroke-miterlimit="10" stroke-linecap="round" stroke-linejoin="round"/>
<path d="M328.253 422.301H160.119V107.991H328.253V422.301Z" fill="#4CD79D" stroke="#1A2E35" stroke-width="1.33333" stroke-miterlimit="10" stroke-linecap="round" stroke-linejoin="round"/>
<path d="M318.639 281.597C318.639 324.177 284.12 358.694 241.541 358.694C198.961 358.694 164.443 324.177 164.443 281.597C164.443 239.017 198.961 204.499 241.541 204.499C284.12 204.499 318.639 239.017 318.639 281.597Z" fill="#1A2E35"/>
<path d="M323.113 181.51H165.932V145.716H323.113V181.51Z" fill="white"/>
<path d="M323.113 416.503H165.932V380.709H323.113V416.503Z" fill="white"/>
<path d="M323.113 369.815H165.932V368.259H323.113V369.815Z" fill="white"/>
<path d="M323.113 376.819H165.932V375.262H323.113V376.819Z" fill="white"/>
<path d="M322.534 118.895H308.594V111.25H322.534V118.895Z" stroke="#1A2E35" stroke-width="1.09467" stroke-miterlimit="10" stroke-linecap="round" stroke-linejoin="round"/>
<path d="M319.465 118.895H308.594V111.25H319.465V118.895Z" fill="#1A2E35" stroke="#1A2E35" stroke-width="0.966667" stroke-miterlimit="10" stroke-linecap="round" stroke-linejoin="round"/>
<path d="M324.469 116.756H322.504V113.389H324.469V116.756Z" fill="#1A2E35" stroke="#1A2E35" stroke-width="0.966667" stroke-miterlimit="10" stroke-linecap="round" stroke-linejoin="round"/>
<path d="M166.46 113.622H163.904V118.004H166.46V113.622Z" fill="#1A2E35" stroke="#1A2E35" stroke-width="1.17733" stroke-miterlimit="10" stroke-linecap="round" stroke-linejoin="round"/>
<path d="M170.478 112.083H167.922V118.003H170.478V112.083Z" fill="#1A2E35" stroke="#1A2E35" stroke-width="1.17733" stroke-miterlimit="10" stroke-linecap="round" stroke-linejoin="round"/>
<path d="M174.494 110.266H171.938V118.004H174.494V110.266Z" fill="#1A2E35" stroke="#1A2E35" stroke-width="1.17733" stroke-miterlimit="10" stroke-linecap="round" stroke-linejoin="round"/>
<path d="M324.285 135.283H162.83V123.147H324.285V135.283Z" fill="#1A2E35"/>
<path d="M160.535 354.269C160.535 354.269 181.109 282.635 184.999 267.32C188.888 252.007 194.722 242.04 206.876 239.61C219.031 237.178 241.38 234.923 241.38 234.923C241.38 234.923 260.827 232.979 274.926 233.951C289.025 234.923 301.909 242.458 308.714 247.563C315.521 252.667 335.211 270.413 335.211 270.413L332.779 229.575L350.524 231.033C350.524 231.033 363.407 287.916 365.109 298.368C366.812 308.821 366.812 313.438 365.109 314.654C363.407 315.869 366.326 316.598 350.767 311.494C335.211 306.388 316.979 299.34 307.012 296.422C297.046 293.505 295.831 293.019 295.831 293.019C295.831 293.019 271.445 329.73 263.666 340.669C255.886 351.607 249.5 365.035 249.5 365.035" fill="white"/>
<g opacity="0.199997">
<path d="M365.109 314.654C366.811 313.438 366.811 308.82 365.109 298.368C364.094 292.131 359.099 269.372 355.234 252.022C356.774 272.489 357.361 292.548 354.211 296.289C347.405 304.37 337.397 293.748 337.397 293.748L335.495 277.999C335.495 277.999 301.468 252.903 288.707 248.649C275.947 244.396 262.335 243.546 249.149 247.799C235.964 252.052 224.905 256.306 216.823 264.387C208.742 272.469 180.669 337.122 180.669 337.122L177.498 356.322L249.5 365.035C249.5 365.035 255.886 351.608 263.665 340.67C271.444 329.731 295.831 293.019 295.831 293.019C295.831 293.019 297.046 293.505 307.012 296.423C316.979 299.34 335.21 306.389 350.767 311.494C366.325 316.598 363.407 315.869 365.109 314.654Z" fill="black"/>
</g>
<path d="M160.535 354.269C160.535 354.269 181.109 282.635 184.999 267.32C188.888 252.007 194.722 242.04 206.876 239.61C219.031 237.178 241.38 234.923 241.38 234.923C241.38 234.923 260.827 232.979 274.926 233.951C289.025 234.923 301.909 242.458 308.714 247.563C315.521 252.667 335.211 270.413 335.211 270.413L332.779 229.575L350.524 231.033C350.524 231.033 363.407 287.916 365.109 298.368C366.812 308.821 366.812 313.438 365.109 314.654C363.407 315.869 366.326 316.598 350.767 311.494C335.211 306.388 316.979 299.34 307.012 296.422C297.046 293.505 295.831 293.019 295.831 293.019C295.831 293.019 271.445 329.73 263.666 340.669C255.886 351.607 249.5 365.035 249.5 365.035" stroke="#1A2E35" stroke-width="1.33333" stroke-miterlimit="10" stroke-linecap="round" stroke-linejoin="round"/>
<path d="M302.764 281.738L295.83 293.02L316.364 281.738" stroke="#1A2E35" stroke-width="1.33333" stroke-miterlimit="10" stroke-linecap="round" stroke-linejoin="round"/>
<path d="M335.211 270.413C335.211 270.413 336.183 290.589 337.398 293.748C338.613 296.909 343.962 298.368 343.962 298.368" fill="white"/>
<path d="M335.211 270.413C335.211 270.413 336.183 290.589 337.398 293.748C338.613 296.909 343.962 298.368 343.962 298.368" stroke="#1A2E35" stroke-width="1.33333" stroke-miterlimit="10" stroke-linecap="round" stroke-linejoin="round"/>
<path d="M228.094 269.795C228.094 269.795 225.441 276.095 226.768 276.095C228.094 276.095 236.714 272.779 240.692 272.779C244.671 272.779 248.981 279.741 248.981 279.741C248.981 279.741 260.584 271.121 264.232 272.116C265.968 272.59 267.705 273.816 269.048 274.97C270.08 275.856 271.676 275.161 271.728 273.802C271.797 272.02 271.856 269.579 271.856 266.48C271.856 259.186 265.557 239.294 253.954 238.299C242.35 237.304 240.361 245.594 235.388 255.54C230.414 265.485 228.094 269.795 228.094 269.795Z" fill="#1A2E35"/>
<path d="M253.049 226.901C253.049 226.901 241.867 228.36 236.762 233.222C231.658 238.083 233.36 245.862 230.685 252.91C228.011 259.96 223.393 274.301 225.823 274.058C228.254 273.815 236.762 267.01 239.193 268.712C241.624 270.413 247.214 277.463 248.188 277.949C249.16 278.435 261.557 269.441 263.258 268.469C264.96 267.496 273.224 278.192 273.467 275.275C273.71 272.357 274.197 255.1 272.495 244.647C270.794 234.194 258.64 227.145 253.049 226.901Z" fill="white"/>
<path d="M253.049 226.901C253.049 226.901 241.867 228.36 236.762 233.222C231.658 238.083 233.36 245.862 230.685 252.91C228.011 259.96 223.393 274.301 225.823 274.058C228.254 273.815 236.762 267.01 239.193 268.712C241.624 270.413 247.214 277.463 248.188 277.949C249.16 278.435 261.557 269.441 263.258 268.469C264.96 267.496 273.224 278.192 273.467 275.275C273.71 272.357 274.197 255.1 272.495 244.647C270.794 234.194 258.64 227.145 253.049 226.901Z" stroke="#1A2E35" stroke-width="1.33333" stroke-miterlimit="10" stroke-linecap="round" stroke-linejoin="round"/>
<path d="M256.939 213.288C256.939 213.288 252.806 225.929 249.403 230.305C246 234.679 244.542 235.409 243.327 245.618C242.11 255.828 247.458 278.921 249.16 278.434C250.861 277.948 267.634 251.21 273.225 246.834C278.816 242.458 284.65 237.84 284.65 237.84C284.65 237.84 271.037 233.707 266.419 227.874C261.8 222.039 256.939 213.288 256.939 213.288Z" fill="white"/>
<g opacity="0.199997">
<path d="M275.645 244.937C280.378 241.22 284.649 237.841 284.649 237.841C284.649 237.841 271.036 233.707 266.417 227.874C261.799 222.04 256.938 213.288 256.938 213.288C256.938 213.288 254.597 220.447 251.988 225.854C254.042 231.66 259.785 241.072 275.645 244.937Z" fill="black"/>
</g>
<path d="M266.417 227.874C261.799 222.039 256.937 213.288 256.937 213.288C256.937 213.288 255.548 217.533 253.719 221.954C255.239 226.333 258.275 232.854 263.707 236.701C268.279 239.94 273.847 241.879 278.115 242.994C281.767 240.122 284.648 237.84 284.648 237.84C284.648 237.84 271.035 233.708 266.417 227.874Z" fill="#1A2E35"/>
<path d="M256.939 213.288C256.939 213.288 252.806 225.929 249.403 230.305C246 234.679 244.542 235.409 243.327 245.618C242.11 255.828 247.458 278.921 249.16 278.434C250.861 277.948 267.634 251.21 273.225 246.834C278.816 242.458 284.65 237.84 284.65 237.84C284.65 237.84 271.037 233.707 266.419 227.874C261.8 222.039 256.939 213.288 256.939 213.288Z" stroke="#1A2E35" stroke-width="1.33333" stroke-miterlimit="10" stroke-linecap="round" stroke-linejoin="round"/>
<path d="M308.715 180.959C308.715 180.959 307.986 197.245 308.472 202.593C308.958 207.941 310.902 217.178 306.527 225.929C302.151 234.68 298.505 240.271 294.373 241.73C290.24 243.188 276.871 240.271 266.175 232.249C255.48 224.228 253.535 207.697 251.834 202.35C250.132 197.001 252.077 178.771 263.016 172.937C273.954 167.103 285.865 168.319 291.698 170.263C297.533 172.208 308.715 180.959 308.715 180.959Z" fill="white"/>
<g opacity="0.199997">
<path d="M263.014 172.937C261.433 173.78 260.046 174.888 258.824 176.172L264.462 180.169C264.462 180.169 271.693 172.938 287.855 183.146C296.203 188.418 303.411 189.262 308.434 188.85C308.554 184.515 308.713 180.959 308.713 180.959C308.713 180.959 297.531 172.208 291.698 170.263C285.863 168.319 273.952 167.102 263.014 172.937Z" fill="black"/>
</g>
<path d="M308.715 180.959C308.715 180.959 307.986 197.245 308.472 202.593C308.958 207.941 310.902 217.178 306.527 225.929C302.151 234.68 298.505 240.271 294.373 241.73C290.24 243.188 276.871 240.271 266.175 232.249C255.48 224.228 253.535 207.697 251.834 202.35C250.132 197.001 252.077 178.771 263.016 172.937C273.954 167.103 285.865 168.319 291.698 170.263C297.533 172.208 308.715 180.959 308.715 180.959Z" stroke="#1A2E35" stroke-width="1.33333" stroke-miterlimit="10" stroke-linecap="round" stroke-linejoin="round"/>
<path d="M285.756 202.925C285.756 204.66 285.085 206.067 284.254 206.067C283.423 206.067 282.752 204.66 282.752 202.925C282.752 201.191 283.423 199.783 284.254 199.783C285.085 199.783 285.756 201.191 285.756 202.925Z" fill="#1A2E35"/>
<path d="M303.513 204.565C303.513 206.3 302.84 207.706 302.01 207.706C301.18 207.706 300.508 206.3 300.508 204.565C300.508 202.829 301.18 201.423 302.01 201.423C302.84 201.423 303.513 202.829 303.513 204.565Z" fill="#1A2E35"/>
<path d="M298.748 199.919C298.748 199.919 294.131 204.537 295.346 206.483C296.561 208.427 299.379 209.523 298.505 212.316C297.593 215.232 291.213 216.206 289.025 212.316" stroke="#1A2E35" stroke-width="1.33333" stroke-miterlimit="10" stroke-linecap="round" stroke-linejoin="round"/>
<path d="M275.169 214.99C275.169 214.99 280.03 221.797 289.997 222.283C289.997 222.283 280.03 228.846 275.655 228.117C271.28 227.387 275.169 214.99 275.169 214.99Z" fill="#1A2E35"/>
<path d="M275.169 214.99C275.169 214.99 280.03 221.797 289.997 222.283C289.997 222.283 280.03 228.846 275.655 228.117C271.28 227.387 275.169 214.99 275.169 214.99Z" stroke="#1A2E35" stroke-width="1.33333" stroke-miterlimit="10" stroke-linecap="round" stroke-linejoin="round"/>
<path d="M277.494 193.659C277.494 193.659 281.736 187.759 290.217 191.446" stroke="#1A2E35" stroke-width="1.33333" stroke-miterlimit="10" stroke-linecap="round" stroke-linejoin="round"/>
<path d="M300.449 193.842C300.449 193.842 305.79 192.61 307.734 197.716" stroke="#1A2E35" stroke-width="1.33333" stroke-miterlimit="10" stroke-linecap="round" stroke-linejoin="round"/>
<path d="M253.535 208.913C253.535 208.913 255.723 199.433 261.071 196.03C266.418 192.627 271.523 193.356 268.363 188.737C265.203 184.119 263.502 179.5 270.308 177.312C277.114 175.125 290.483 178.771 298.262 181.688C306.041 184.605 321.112 185.577 325.001 174.638C327.404 167.88 320.377 162.506 315.218 159.74C309.537 156.694 303.148 155.183 296.732 156.314C292.866 156.994 289.108 158.521 285.196 158.917C278.596 159.584 272.768 156.517 266.175 158.112C260.744 159.426 255.598 162.493 252.077 166.86C245.999 174.396 244.298 188.008 253.535 208.913Z" fill="#1A2E35"/>
<path d="M309.826 155.857C309.826 155.857 322.456 162.677 313.615 174.044C304.774 185.411 296.438 177.581 275.473 173.539C254.507 169.498 242.129 179.854 242.129 179.854" stroke="#818181" stroke-width="1.33333" stroke-miterlimit="10" stroke-linecap="round" stroke-linejoin="round"/>
<path d="M243.896 192.231C243.896 192.231 247.938 184.401 261.073 182.127C274.209 179.854 274.966 181.875 274.966 181.875" stroke="#818181" stroke-width="1.33333" stroke-miterlimit="10" stroke-linecap="round" stroke-linejoin="round"/>
<path d="M253.533 208.913C253.533 208.913 255.721 199.433 261.069 196.03C266.416 192.627 271.522 193.356 268.361 188.737C265.201 184.119 263.5 179.5 270.306 177.312C277.112 175.125 290.481 178.771 298.26 181.688C306.039 184.605 321.11 185.577 325 174.638C327.402 167.88 320.375 162.506 315.216 159.74C309.535 156.694 303.146 155.183 296.73 156.314C292.864 156.994 289.106 158.521 285.194 158.917C278.594 159.584 272.766 156.517 266.173 158.112C260.742 159.426 255.596 162.493 252.075 166.86C245.997 174.396 244.296 188.008 253.533 208.913Z" stroke="#1A2E35" stroke-width="1.33333" stroke-miterlimit="10" stroke-linecap="round" stroke-linejoin="round"/>
<path d="M259.033 205.462C259.033 205.462 252.726 191.025 247.171 198.538C241.613 206.052 251.684 215.559 259.234 213.71" fill="white"/>
<path d="M259.033 205.462C259.033 205.462 252.726 191.025 247.171 198.538C241.613 206.052 251.684 215.559 259.234 213.71" stroke="#1A2E35" stroke-width="1.33333" stroke-miterlimit="10" stroke-linecap="round" stroke-linejoin="round"/>
<path d="M327.675 203.808C327.675 203.808 323.542 203.322 322.813 206.725C322.083 210.129 321.354 215.476 322.813 215.476C324.271 215.476 326.946 214.747 327.918 212.559C328.89 210.372 329.862 203.565 329.862 203.565L327.675 203.808Z" fill="white"/>
<path d="M327.675 203.808C327.675 203.808 323.542 203.322 322.813 206.725C322.083 210.129 321.354 215.476 322.813 215.476C324.271 215.476 326.946 214.747 327.918 212.559C328.89 210.372 329.862 203.565 329.862 203.565L327.675 203.808Z" stroke="#1A2E35" stroke-width="1.33333" stroke-miterlimit="10" stroke-linecap="round" stroke-linejoin="round"/>
<path d="M334.238 202.593C334.238 202.593 328.404 201.621 327.674 203.808C326.945 205.996 325.972 213.532 326.701 213.775C327.431 214.018 331.807 212.073 331.807 212.073L334.238 202.593Z" fill="white"/>
<path d="M334.238 202.593C334.238 202.593 328.404 201.621 327.674 203.808C326.945 205.996 325.972 213.532 326.701 213.775C327.431 214.018 331.807 212.073 331.807 212.073L334.238 202.593Z" stroke="#1A2E35" stroke-width="1.33333" stroke-miterlimit="10" stroke-linecap="round" stroke-linejoin="round"/>
<path d="M342.017 203.079C342.017 203.079 335.21 198.704 333.509 200.892C331.807 203.079 331.807 212.073 331.807 212.073C331.807 212.073 333.995 212.559 335.21 211.101C336.425 209.643 337.884 207.697 337.884 207.697C337.884 207.697 342.746 208.914 343.475 208.671C344.204 208.427 345.905 208.671 345.419 206.239C344.933 203.808 342.017 203.079 342.017 203.079Z" fill="white"/>
<path d="M342.017 203.079C342.017 203.079 335.21 198.704 333.509 200.892C331.807 203.079 331.807 212.073 331.807 212.073C331.807 212.073 333.995 212.559 335.21 211.101C336.425 209.643 337.884 207.697 337.884 207.697C337.884 207.697 342.746 208.914 343.475 208.671C344.204 208.427 345.905 208.671 345.419 206.239C344.933 203.808 342.017 203.079 342.017 203.079Z" stroke="#1A2E35" stroke-width="1.33333" stroke-miterlimit="10" stroke-linecap="round" stroke-linejoin="round"/>
<path d="M351.253 207.455C351.253 207.455 346.391 204.295 343.96 199.19C341.53 194.086 340.315 194.329 339.098 196.516C337.883 198.704 339.342 200.891 340.315 202.836C341.287 204.781 345.418 209.399 345.418 209.399L351.253 207.455Z" fill="white"/>
<path d="M351.253 207.455C351.253 207.455 346.391 204.295 343.96 199.19C341.53 194.086 340.315 194.329 339.098 196.516C337.883 198.704 339.342 200.891 340.315 202.836C341.287 204.781 345.418 209.399 345.418 209.399L351.253 207.455Z" stroke="#1A2E35" stroke-width="1.33333" stroke-miterlimit="10" stroke-linecap="round" stroke-linejoin="round"/>
<path d="M307.53 241.467C307.53 241.467 304.007 271.555 304.549 273.181C305.091 274.808 311.054 276.706 312.41 275.621C313.765 274.536 312.952 272.368 312.41 271.013C311.868 269.657 317.018 244.449 317.018 244.449L307.53 241.467Z" fill="#4CD79D"/>
<path d="M307.53 241.467C307.53 241.467 304.007 271.555 304.549 273.181C305.091 274.808 311.054 276.706 312.41 275.621C313.765 274.536 312.952 272.368 312.41 271.013C311.868 269.657 317.018 244.449 317.018 244.449L307.53 241.467Z" stroke="#1A2E35" stroke-width="1.33333" stroke-miterlimit="10" stroke-linecap="round" stroke-linejoin="round"/>
<path d="M218.763 251.888L236.602 307.606C236.602 307.606 277.607 283.734 287.201 271.284C296.795 258.833 302.353 244.778 305.717 243.46C309.082 242.143 321.098 245.427 322.857 247.318C324.617 249.212 324.197 251.413 322.069 253.422C319.942 255.433 318.734 255.712 318.734 255.712C318.734 255.712 318.623 260.093 317.674 260.852C316.724 261.61 316.937 260.631 316.724 261.61C316.51 262.589 316.297 263.569 315.597 264.562C314.898 265.556 314.67 266.05 313.948 266.314C313.227 266.58 313.712 266.565 309.612 267.662C305.51 268.758 303.324 268.826 301.63 269.119C299.936 269.414 288.921 291.149 278.613 304.107C268.305 317.064 235.643 346.75 230.54 346.906C225.438 347.06 195.317 297.345 188.867 285.137" fill="white"/>
<g opacity="0.199997">
<path d="M315.598 264.563C316.298 263.568 316.512 262.589 316.725 261.61C316.938 260.631 316.725 261.61 317.674 260.851C318.625 260.094 318.735 255.712 318.735 255.712C318.735 255.712 319.942 255.433 322.07 253.423C324.199 251.412 324.617 249.211 322.858 247.319C321.099 245.427 309.082 242.142 305.718 243.461C304.839 243.805 303.807 245.026 302.595 246.855C304.382 249.799 306.443 251.57 304.525 256.688C301.597 264.496 294.765 274.256 288.909 282.552C283.053 290.848 234.253 336.72 228.397 335.744C223.615 334.947 209.728 318.212 204.791 312.097C215.364 329.067 227.474 346.998 230.542 346.905C235.644 346.751 268.306 317.065 278.614 304.107C288.922 291.148 299.937 269.414 301.631 269.12C303.325 268.825 305.511 268.759 309.612 267.663C313.713 266.565 313.228 266.579 313.95 266.315C314.671 266.049 314.898 265.556 315.598 264.563Z" fill="black"/>
</g>
<path d="M218.763 251.888L236.602 307.606C236.602 307.606 277.607 283.734 287.201 271.284C296.795 258.833 302.353 244.778 305.717 243.46C309.082 242.143 321.098 245.427 322.857 247.318C324.617 249.212 324.197 251.413 322.069 253.422C319.942 255.433 318.734 255.712 318.734 255.712C318.734 255.712 318.623 260.093 317.674 260.852C316.724 261.61 316.937 260.631 316.724 261.61C316.51 262.589 316.297 263.569 315.597 264.562C314.898 265.556 314.67 266.05 313.948 266.314C313.227 266.58 313.712 266.565 309.612 267.662C305.51 268.758 303.324 268.826 301.63 269.119C299.936 269.414 288.921 291.149 278.613 304.107C268.305 317.064 235.643 346.75 230.54 346.906C225.438 347.06 195.317 297.345 188.867 285.137" stroke="#1A2E35" stroke-width="1.33333" stroke-miterlimit="10" stroke-linecap="round" stroke-linejoin="round"/>
<path d="M236.603 307.606C236.603 307.606 231.933 307.803 227.967 320.27" stroke="#1A2E35" stroke-width="1.33333" stroke-miterlimit="10" stroke-linecap="round" stroke-linejoin="round"/>
<path d="M309.611 267.662C313.711 266.565 313.226 266.58 313.947 266.314C314.669 266.05 314.897 265.556 315.597 264.562C316.296 263.569 316.509 262.589 316.723 261.61C316.937 260.631 317.568 260.297 318.519 259.539C319.468 258.781 318.733 255.712 318.733 255.712C318.733 255.712 319.941 255.433 322.068 253.422C324.196 251.413 324.616 249.212 322.856 247.318C321.097 245.427 309.081 242.143 305.717 243.46C302.494 244.722 297.257 257.67 288.391 269.7L296.603 276.432C299.181 272.142 301.016 269.227 301.629 269.119C303.323 268.825 305.51 268.758 309.611 267.662Z" fill="white"/>
<g opacity="0.199997">
<path d="M315.598 264.563C316.298 263.568 316.512 262.589 316.725 261.61C316.938 260.631 316.725 261.61 317.674 260.851C318.625 260.094 318.735 255.712 318.735 255.712C318.735 255.712 319.942 255.433 322.07 253.423C324.199 251.412 324.617 249.211 322.858 247.319C321.099 245.427 309.082 242.142 305.718 243.461C304.839 243.805 303.807 245.026 302.595 246.855C304.382 249.799 306.443 251.57 304.525 256.688C301.597 264.496 294.765 274.256 288.909 282.552C283.053 290.848 234.253 336.72 228.397 335.744C223.615 334.947 209.728 318.212 204.791 312.097C215.364 329.067 227.474 346.998 230.542 346.905C235.644 346.751 268.306 317.065 278.614 304.107C288.922 291.148 299.937 269.414 301.631 269.12C303.325 268.825 305.511 268.759 309.612 267.663C313.713 266.565 313.228 266.579 313.95 266.315C314.671 266.049 314.898 265.556 315.598 264.563Z" fill="black"/>
</g>
<path d="M309.613 267.662C313.713 266.565 313.228 266.58 313.949 266.314C314.671 266.05 314.899 265.556 315.599 264.563C316.298 263.569 316.511 262.589 316.725 261.61C316.939 260.631 317.57 260.297 318.521 259.539C319.47 258.781 318.735 255.712 318.735 255.712C318.735 255.712 319.943 255.433 322.07 253.422C324.198 251.413 324.618 249.212 322.858 247.319C321.099 245.427 309.083 242.143 305.719 243.46C302.496 244.722 297.259 257.67 288.393 269.7L296.605 276.432C299.183 272.142 301.018 269.227 301.631 269.119C303.325 268.825 305.512 268.758 309.613 267.662Z" stroke="#1A2E35" stroke-width="1.33333" stroke-miterlimit="10" stroke-linecap="round" stroke-linejoin="round"/>
<path d="M298.991 221.797C296.306 221.797 294.131 225.66 294.131 230.426C294.131 235.192 296.306 239.055 298.991 239.055L358.547 257.044V203.079L298.991 221.797Z" fill="#4CD79D"/>
<path d="M298.991 221.797C296.306 221.797 294.131 225.66 294.131 230.426C294.131 235.192 296.306 239.055 298.991 239.055L358.547 257.044V203.079L298.991 221.797Z" stroke="#1A2E35" stroke-width="1.33333" stroke-miterlimit="10" stroke-linecap="round" stroke-linejoin="round"/>
<path d="M332.49 214.615L309.26 221.298" stroke="#1A2E35" stroke-width="1.33333" stroke-miterlimit="10" stroke-linecap="round" stroke-linejoin="round"/>
<path d="M340.253 212.382L335.393 213.781" stroke="#1A2E35" stroke-width="1.33333" stroke-miterlimit="10" stroke-linecap="round" stroke-linejoin="round"/>
<path d="M306.618 219.4L298.992 221.797C296.307 221.797 294.131 225.66 294.131 230.426C294.131 235.192 296.307 239.056 298.992 239.056L305.869 241.132C301.419 231.22 304.518 223.154 306.618 219.4Z" fill="#1A2E35"/>
<path d="M306.618 219.4L298.992 221.797C296.307 221.797 294.131 225.66 294.131 230.426C294.131 235.192 296.307 239.056 298.992 239.056L305.869 241.132C301.419 231.22 304.518 223.154 306.618 219.4Z" stroke="#1A2E35" stroke-width="1.33333" stroke-miterlimit="10" stroke-linecap="round" stroke-linejoin="round"/>
<path d="M384.067 230.426C384.067 250.439 374.927 266.663 363.651 266.663C352.376 266.663 343.236 250.439 343.236 230.426C343.236 210.412 352.376 194.188 363.651 194.188C374.927 194.188 384.067 210.412 384.067 230.426Z" fill="#D7D7D7"/>
<path d="M384.067 230.426C384.067 250.439 374.927 266.663 363.651 266.663C352.376 266.663 343.236 250.439 343.236 230.426C343.236 210.412 352.376 194.188 363.651 194.188C374.927 194.188 384.067 210.412 384.067 230.426Z" stroke="#1A2E35" stroke-width="1.33333" stroke-miterlimit="10" stroke-linecap="round" stroke-linejoin="round"/>
<path d="M363.652 222.386L344.205 217.178L342.504 231.033L344.691 245.133L363.652 238.466L364.381 222.769" fill="#D7D7D7"/>
<path d="M363.652 222.386L344.205 217.178L342.504 231.033L344.691 245.133L363.652 238.466L364.381 222.769" stroke="#1A2E35" stroke-width="1.33333" stroke-miterlimit="10" stroke-linecap="round" stroke-linejoin="round"/>
<path d="M364.202 264.318C353.961 264.318 345.659 249.144 345.659 230.426C345.659 211.708 353.961 196.534 364.202 196.534C374.444 196.534 382.746 211.708 382.746 230.426C382.746 249.144 374.444 264.318 364.202 264.318ZM363.652 190.926C351.361 190.926 341.398 208.61 341.398 230.426C341.398 252.242 351.361 269.927 363.652 269.927C375.942 269.927 385.906 252.242 385.906 230.426C385.906 208.61 375.942 190.926 363.652 190.926Z" fill="#1A2E35"/>
<path d="M364.202 264.318C353.961 264.318 345.659 249.144 345.659 230.426C345.659 211.708 353.961 196.534 364.202 196.534C374.444 196.534 382.746 211.708 382.746 230.426C382.746 249.144 374.444 264.318 364.202 264.318ZM363.652 190.926C351.361 190.926 341.398 208.61 341.398 230.426C341.398 252.242 351.361 269.927 363.652 269.927C375.942 269.927 385.906 252.242 385.906 230.426C385.906 208.61 375.942 190.926 363.652 190.926V190.926Z" stroke="#1A2E35" stroke-width="1.33333" stroke-miterlimit="10" stroke-linecap="round" stroke-linejoin="round"/>
<path d="M368.181 230.426C368.181 234.866 366.154 238.465 363.652 238.465C361.15 238.465 359.123 234.866 359.123 230.426C359.123 225.985 361.15 222.386 363.652 222.386C366.154 222.386 368.181 225.985 368.181 230.426Z" fill="#4CD79D"/>
<path d="M368.181 230.426C368.181 234.866 366.154 238.465 363.652 238.465C361.15 238.465 359.123 234.866 359.123 230.426C359.123 225.985 361.15 222.386 363.652 222.386C366.154 222.386 368.181 225.985 368.181 230.426Z" stroke="#1A2E35" stroke-width="1.33333" stroke-miterlimit="10" stroke-linecap="round" stroke-linejoin="round"/>
<path d="M421.037 189.449L425.555 188.05" stroke="#1A2E35" stroke-width="1.33333" stroke-miterlimit="10" stroke-linecap="round" stroke-linejoin="round"/>
<path d="M388.686 199.462L415.47 191.172" stroke="#1A2E35" stroke-width="1.33333" stroke-miterlimit="10" stroke-linecap="round" stroke-linejoin="round"/>
<path d="M392.197 228.432L416.777 229.309" stroke="#1A2E35" stroke-width="1.33333" stroke-miterlimit="10" stroke-linecap="round" stroke-linejoin="round"/>
<path d="M412.562 264.537L417.654 266.18" stroke="#1A2E35" stroke-width="1.33333" stroke-miterlimit="10" stroke-linecap="round" stroke-linejoin="round"/>
<path d="M390.441 257.401L408.52 263.234" stroke="#1A2E35" stroke-width="1.33333" stroke-miterlimit="10" stroke-linecap="round" stroke-linejoin="round"/>
<path d="M391.32 212.63L404.488 210.875" stroke="#1A2E35" stroke-width="1.33333" stroke-miterlimit="10" stroke-linecap="round" stroke-linejoin="round"/>
<path d="M385.174 267.057L394.831 274.959" stroke="#1A2E35" stroke-width="1.33333" stroke-miterlimit="10" stroke-linecap="round" stroke-linejoin="round"/>
</svg>
