<svg width="488" height="298" viewBox="0 0 488 298" fill="none" xmlns="http://www.w3.org/2000/svg">
<g clip-path="url(#clip0_525_584)">
<path d="M452.201 167.225C438.118 142.423 420.753 119.649 400.685 99.5565C379.031 77.8759 356.957 63.2197 328.48 53.7337C309.2 47.3121 289.089 43.6367 268.887 42.9537C231.322 41.6838 200.336 50.6288 169.476 73.1967C136.391 97.3917 105.525 124.772 73.2839 150.181C69.9192 152.833 66.5407 155.467 63.1445 158.073C6.91341 201.238 -20.3981 277.911 17.6241 296.653H455.151C455.151 296.653 494.949 294.55 485.14 251.784C478.275 221.85 467.067 193.408 452.201 167.225Z" fill="#28B3DD"/>
<g opacity="0.699997">
<path d="M452.201 167.225C438.118 142.423 420.753 119.649 400.685 99.5565C379.031 77.8759 356.957 63.2197 328.48 53.7337C309.2 47.3121 289.089 43.6367 268.887 42.9537C231.322 41.6838 200.336 50.6288 169.476 73.1967C136.391 97.3917 105.525 124.772 73.2839 150.181C69.9192 152.833 66.5407 155.467 63.1445 158.073C6.91341 201.238 -20.3981 277.911 17.6241 296.653H455.151C455.151 296.653 494.949 294.55 485.14 251.784C478.275 221.85 467.067 193.408 452.201 167.225Z" fill="white"/>
</g>
<path d="M474.904 296.653H487.657" stroke="black" stroke-width="1.33333" stroke-miterlimit="10" stroke-linecap="round" stroke-linejoin="round"/>
<path d="M2.44922 296.653H469.439" stroke="black" stroke-width="1.33333" stroke-miterlimit="10" stroke-linecap="round" stroke-linejoin="round"/>
<path d="M398.263 209.419C400.139 210.237 404.727 210.134 404.731 210.134C404.779 210.133 403.745 207.13 403.657 206.948C402.651 204.843 399.467 201.366 396.877 201.715C395.011 201.968 393.973 203.835 394.394 205.592C394.824 207.387 396.665 208.72 398.263 209.419Z" fill="#1A2E35"/>
<path d="M399.846 222.708C401.792 222.992 405.887 221.805 406.212 221.709C406.859 224.001 407.709 226.301 408.696 228.58C409.26 229.885 409.867 231.18 410.493 232.472C410.119 231.925 409.781 231.439 409.727 231.375C408.2 229.61 404.21 227.097 401.805 228.12C400.071 228.855 399.564 230.93 400.434 232.514C401.322 234.131 403.452 234.931 405.176 235.182C406.926 235.437 410.438 234.494 411.364 234.233C411.609 234.726 411.848 235.221 412.096 235.713C413.282 238.074 414.475 240.425 415.574 242.767C415.963 243.591 416.315 244.418 416.67 245.244C416.338 244.758 416.054 244.352 416.004 244.295C414.477 242.53 410.489 240.017 408.082 241.038C406.348 241.775 405.841 243.85 406.712 245.434C407.601 247.05 409.728 247.85 411.453 248.101C413.124 248.345 416.373 247.504 417.474 247.199C417.813 248.056 418.153 248.913 418.441 249.758C418.626 250.341 418.844 250.888 418.996 251.482C419.16 252.067 419.321 252.647 419.482 253.221C419.749 254.338 420.032 255.489 420.266 256.585C420.435 257.346 420.581 258.075 420.732 258.808C420.355 257.982 419.583 256.381 419.503 256.254C418.262 254.278 414.699 251.19 412.166 251.836C410.342 252.3 409.525 254.275 410.146 255.972C410.779 257.705 412.762 258.818 414.429 259.327C416.264 259.889 420.328 259.377 420.836 259.309C421.08 260.523 421.305 261.706 421.5 262.827C421.604 263.419 421.694 263.976 421.787 264.536H423.403C423.284 263.891 423.159 263.232 423.022 262.542C422.78 261.308 422.496 259.994 422.192 258.647C422.498 258.526 424.231 257.825 425.767 256.967C427.104 258.415 430.533 260.111 430.977 260.326C430.51 261.474 430.045 262.585 429.589 263.627C429.452 263.943 429.32 264.236 429.186 264.536H430.889C430.932 264.434 430.974 264.335 431.016 264.23C431.495 263.067 431.984 261.814 432.473 260.524C432.964 260.627 436.988 261.443 438.862 261.02C440.563 260.636 442.623 259.674 443.384 257.993C444.13 256.348 443.462 254.318 441.677 253.718C439.2 252.886 435.417 255.699 434.031 257.578C433.949 257.689 433.197 258.99 432.735 259.818C432.932 259.29 433.13 258.779 433.326 258.233C433.722 257.155 434.084 256.068 434.479 254.899C434.65 254.328 434.822 253.751 434.997 253.17C435.181 252.595 435.304 251.966 435.462 251.359C435.8 249.944 436.071 248.493 436.314 247.027C437.258 247.37 440.631 248.544 442.378 248.421C444.117 248.299 446.299 247.66 447.305 246.113C448.291 244.6 447.94 242.492 446.266 241.629C443.943 240.43 439.778 242.639 438.123 244.286C438.02 244.388 436.966 245.703 436.401 246.436C436.54 245.554 436.682 244.673 436.793 243.776C437.116 241.184 437.36 238.551 437.616 235.924C437.694 235.12 437.782 234.319 437.866 233.518C438.201 233.643 442.179 235.124 444.136 234.987C445.875 234.865 448.058 234.226 449.063 232.68C450.049 231.166 449.698 229.058 448.025 228.195C445.701 226.997 441.536 229.206 439.882 230.852C439.757 230.976 438.242 232.87 437.882 233.372C438.068 231.605 438.27 229.847 438.54 228.122C438.909 225.742 439.403 223.427 440.046 221.219C440.203 221.278 444.347 222.843 446.351 222.702C448.09 222.58 450.273 221.941 451.28 220.395C452.265 218.881 451.914 216.773 450.239 215.91C447.917 214.711 443.752 216.921 442.097 218.567C441.968 218.696 440.34 220.735 440.07 221.126C440.11 220.995 440.135 220.855 440.175 220.724C440.893 218.377 441.883 216.192 442.91 214.192C443.504 213.029 444.138 211.95 444.777 210.915C445.52 211.285 448.93 212.941 450.748 213.014C452.489 213.084 454.728 212.688 455.899 211.262C457.045 209.865 456.927 207.732 455.359 206.69C453.18 205.244 448.799 206.982 446.973 208.437C446.874 208.516 445.954 209.432 445.293 210.108C445.589 209.645 445.886 209.162 446.178 208.724C447.272 207.078 448.374 205.637 449.362 204.369C449.929 203.652 450.455 203.015 450.955 202.426C451.873 202.409 455.571 202.297 457.188 201.538C458.766 200.797 460.572 199.414 460.953 197.609C461.327 195.841 460.238 194.002 458.366 193.801C455.768 193.521 452.679 197.082 451.729 199.215C451.648 199.4 450.695 202.429 450.743 202.428C450.743 202.428 450.787 202.428 450.799 202.428C450.307 202.986 449.785 203.59 449.23 204.263C448.213 205.511 447.076 206.931 445.943 208.561C444.805 210.187 443.616 211.984 442.534 213.991C441.447 216.001 440.406 218.172 439.622 220.546C439.613 220.573 439.607 220.602 439.599 220.629C439.612 219.863 439.578 217.721 439.557 217.556C439.257 215.242 437.317 210.946 434.746 210.47C432.894 210.128 431.326 211.578 431.178 213.38C431.028 215.219 432.361 217.059 433.661 218.221C435.128 219.531 439.198 220.799 439.523 220.899C438.797 223.168 438.237 225.554 437.803 228C437.553 229.399 437.345 230.815 437.155 232.237C437.146 231.576 437.132 230.983 437.121 230.9C436.821 228.585 434.881 224.289 432.31 223.814C430.458 223.471 428.889 224.922 428.743 226.723C428.592 228.563 429.925 230.404 431.226 231.565C432.545 232.743 435.993 233.895 436.91 234.187C436.842 234.733 436.769 235.278 436.704 235.826C436.39 238.448 436.089 241.067 435.715 243.628C435.583 244.53 435.421 245.413 435.26 246.298C435.252 245.71 435.239 245.214 435.229 245.14C434.929 242.824 432.989 238.528 430.419 238.053C428.566 237.711 426.998 239.161 426.851 240.962C426.7 242.801 428.034 244.642 429.334 245.804C430.593 246.928 433.767 248.019 434.854 248.372C434.663 249.273 434.474 250.176 434.248 251.041C434.081 251.628 433.961 252.204 433.76 252.784C433.573 253.362 433.388 253.936 433.205 254.503C432.812 255.581 432.414 256.698 432.005 257.741C431.725 258.469 431.446 259.157 431.167 259.851C431.308 258.955 431.547 257.194 431.551 257.045C431.586 255.494 431.036 252.974 429.94 251.202C429.946 250.973 429.934 250.744 429.897 250.518C429.61 248.733 427.935 247.408 426.114 247.893C423.588 248.566 421.986 253 421.867 255.33C421.86 255.468 421.95 256.969 422.022 257.915C421.895 257.365 421.778 256.83 421.64 256.266C421.375 255.149 421.078 254.042 420.763 252.849C420.591 252.279 420.416 251.703 420.24 251.121C420.077 250.541 419.832 249.948 419.63 249.354C419.13 247.988 418.557 246.628 417.95 245.271C418.927 245.037 422.388 244.154 423.777 243.089C425.161 242.028 426.627 240.291 426.614 238.446C426.601 236.638 425.146 235.075 423.273 235.278C420.675 235.56 418.419 239.701 417.947 241.986C417.918 242.129 417.764 243.808 417.697 244.731C417.326 243.919 416.959 243.105 416.556 242.295C415.395 239.955 414.147 237.624 412.912 235.292C412.533 234.578 412.164 233.863 411.792 233.147C412.141 233.067 416.277 232.108 417.832 230.914C419.215 229.852 420.683 228.116 420.67 226.27C420.657 224.465 419.201 222.9 417.328 223.104C414.73 223.386 412.474 227.526 412.003 229.812C411.968 229.984 411.75 232.4 411.724 233.016C410.905 231.441 410.105 229.863 409.378 228.275C408.373 226.087 407.507 223.883 406.827 221.687C406.989 221.65 411.309 220.667 412.904 219.445C414.287 218.383 415.753 216.647 415.74 214.803C415.728 212.995 414.272 211.432 412.4 211.635C409.801 211.918 407.545 216.058 407.074 218.344C407.037 218.523 406.804 221.122 406.795 221.595C406.755 221.465 406.699 221.334 406.66 221.204C405.964 218.848 405.584 216.481 405.338 214.245C405.191 212.948 405.125 211.698 405.088 210.482C405.911 210.381 409.669 209.881 411.225 208.939C412.717 208.037 414.365 206.471 414.555 204.636C414.741 202.839 413.465 201.124 411.582 201.122C408.968 201.117 406.271 204.983 405.551 207.204C405.513 207.324 405.25 208.596 405.073 209.525C405.065 208.976 405.045 208.408 405.047 207.883C405.052 205.906 405.176 204.095 405.3 202.494C405.377 201.583 405.466 200.762 405.557 199.994C406.314 199.474 409.337 197.34 410.266 195.814C411.174 194.326 411.916 192.178 411.238 190.462C410.575 188.78 408.653 187.847 406.98 188.711C404.659 189.912 404.048 194.586 404.432 196.889C404.465 197.088 405.342 200.14 405.381 200.114C405.381 200.114 405.418 200.088 405.427 200.082C405.325 200.818 405.224 201.61 405.131 202.478C404.972 204.08 404.807 205.892 404.761 207.876C404.709 209.859 404.709 212.015 404.914 214.286C405.116 216.562 405.445 218.947 406.101 221.359C406.108 221.386 406.12 221.414 406.127 221.441C405.717 220.795 404.506 219.027 404.397 218.902C402.87 217.136 398.882 214.624 396.476 215.645C394.743 216.381 394.234 218.457 395.105 220.04C395.994 221.658 398.121 222.457 399.846 222.708Z" fill="#1A2E35"/>
<path d="M444.673 210.427C444.714 210.452 445.507 207.378 445.535 207.179C445.857 204.867 445.12 200.21 442.767 199.072C441.071 198.254 439.174 199.24 438.557 200.938C437.926 202.67 438.726 204.799 439.673 206.262C440.786 207.981 444.669 210.425 444.673 210.427Z" fill="#1A2E35"/>
<path d="M432.148 296.653H421.436C414.991 296.653 409.766 291.428 409.766 284.984V263.033H443.818V284.984C443.818 291.428 438.593 296.653 432.148 296.653Z" fill="white"/>
<path d="M432.148 296.653H421.436C414.991 296.653 409.766 291.428 409.766 284.984V263.033H443.818V284.984C443.818 291.428 438.593 296.653 432.148 296.653Z" stroke="#1A2E35" stroke-width="1.33333" stroke-miterlimit="10" stroke-linecap="round"/>
<path d="M443.817 280.152V276.017C441.111 278.144 437.594 277.673 435.021 276.048C430.348 273.099 424.902 275.407 424.671 275.507C423.762 275.902 423.346 276.96 423.741 277.87C424.137 278.779 425.194 279.195 426.104 278.8C426.141 278.782 430.068 277.167 433.103 279.085C435.189 280.401 437.429 281.045 439.592 281.045C441.06 281.045 442.49 280.735 443.817 280.152" fill="white"/>
<path d="M443.817 280.152V276.017C441.111 278.144 437.594 277.673 435.021 276.048C430.348 273.099 424.902 275.407 424.671 275.507C423.762 275.902 423.346 276.96 423.741 277.87C424.137 278.779 425.194 279.195 426.104 278.8C426.141 278.782 430.068 277.167 433.103 279.085C435.189 280.401 437.429 281.045 439.592 281.045C441.06 281.045 442.49 280.735 443.817 280.152V280.152Z" stroke="#1A2E35" stroke-width="1.33333" stroke-miterlimit="10" stroke-linecap="round"/>
<path d="M409.766 279.612C411.79 279.314 414.265 278.571 417.284 277.119C423.249 274.251 433.61 270.142 435.967 274.858C436.411 275.744 437.487 276.106 438.377 275.661C439.264 275.217 439.623 274.139 439.18 273.252C436.332 267.559 428.442 267.769 415.728 273.882C413.253 275.073 411.308 275.684 409.766 275.966V279.612Z" fill="white"/>
<path d="M409.766 279.612C411.79 279.314 414.265 278.571 417.284 277.119C423.249 274.251 433.61 270.142 435.967 274.858C436.411 275.744 437.487 276.106 438.377 275.661C439.264 275.217 439.623 274.139 439.18 273.252C436.332 267.559 428.442 267.769 415.728 273.882C413.253 275.073 411.308 275.684 409.766 275.966V279.612Z" stroke="#1A2E35" stroke-width="1.33333" stroke-miterlimit="10" stroke-linecap="round"/>
<path d="M415.5 271.262C415.5 271.961 414.934 272.528 414.235 272.528C413.537 272.528 412.971 271.961 412.971 271.262C412.971 270.564 413.537 269.997 414.235 269.997C414.934 269.997 415.5 270.564 415.5 271.262Z" fill="white"/>
<path d="M415.5 271.262C415.5 271.961 414.934 272.528 414.235 272.528C413.537 272.528 412.971 271.961 412.971 271.262C412.971 270.564 413.537 269.997 414.235 269.997C414.934 269.997 415.5 270.564 415.5 271.262Z" stroke="#1A2E35" stroke-width="1.33333" stroke-miterlimit="10" stroke-linecap="round"/>
<path d="M422.774 268.733C422.774 269.431 422.207 269.998 421.509 269.998C420.811 269.998 420.244 269.431 420.244 268.733C420.244 268.034 420.811 267.467 421.509 267.467C422.207 267.467 422.774 268.034 422.774 268.733Z" fill="white"/>
<path d="M422.774 268.733C422.774 269.431 422.207 269.998 421.509 269.998C420.811 269.998 420.244 269.431 420.244 268.733C420.244 268.034 420.811 267.467 421.509 267.467C422.207 267.467 422.774 268.034 422.774 268.733Z" stroke="#1A2E35" stroke-width="1.33333" stroke-miterlimit="10" stroke-linecap="round"/>
<path d="M431.311 266.835C431.311 267.533 430.745 268.1 430.046 268.1C429.348 268.1 428.781 267.533 428.781 266.835C428.781 266.136 429.348 265.57 430.046 265.57C430.745 265.57 431.311 266.136 431.311 266.835Z" fill="white"/>
<path d="M431.311 266.835C431.311 267.533 430.745 268.1 430.046 268.1C429.348 268.1 428.781 267.533 428.781 266.835C428.781 266.136 429.348 265.57 430.046 265.57C430.745 265.57 431.311 266.136 431.311 266.835Z" stroke="#1A2E35" stroke-width="1.33333" stroke-miterlimit="10" stroke-linecap="round"/>
<path d="M439.692 267.942C439.692 268.64 439.126 269.207 438.427 269.207C437.728 269.207 437.162 268.64 437.162 267.942C437.162 267.243 437.728 266.677 438.427 266.677C439.126 266.677 439.692 267.243 439.692 267.942Z" fill="white"/>
<path d="M439.692 267.942C439.692 268.64 439.126 269.207 438.427 269.207C437.728 269.207 437.162 268.64 437.162 267.942C437.162 267.243 437.728 266.677 438.427 266.677C439.126 266.677 439.692 267.243 439.692 267.942Z" stroke="#1A2E35" stroke-width="1.33333" stroke-miterlimit="10" stroke-linecap="round"/>
<path d="M429.256 281.224C429.256 281.923 428.69 282.489 427.991 282.489C427.292 282.489 426.727 281.923 426.727 281.224C426.727 280.525 427.292 279.959 427.991 279.959C428.69 279.959 429.256 280.525 429.256 281.224Z" fill="white"/>
<path d="M429.256 281.224C429.256 281.923 428.69 282.489 427.991 282.489C427.292 282.489 426.727 281.923 426.727 281.224C426.727 280.525 427.292 279.959 427.991 279.959C428.69 279.959 429.256 280.525 429.256 281.224Z" stroke="#1A2E35" stroke-width="1.33333" stroke-miterlimit="10" stroke-linecap="round"/>
<path d="M435.58 283.754C435.58 284.453 435.014 285.02 434.315 285.02C433.617 285.02 433.051 284.453 433.051 283.754C433.051 283.055 433.617 282.489 434.315 282.489C435.014 282.489 435.58 283.055 435.58 283.754Z" fill="white"/>
<path d="M435.58 283.754C435.58 284.453 435.014 285.02 434.315 285.02C433.617 285.02 433.051 284.453 433.051 283.754C433.051 283.055 433.617 282.489 434.315 282.489C435.014 282.489 435.58 283.055 435.58 283.754Z" stroke="#1A2E35" stroke-width="1.33333" stroke-miterlimit="10" stroke-linecap="round"/>
<path d="M441.907 283.754C441.907 284.453 441.341 285.02 440.641 285.02C439.943 285.02 439.377 284.453 439.377 283.754C439.377 283.055 439.943 282.489 440.641 282.489C441.341 282.489 441.907 283.055 441.907 283.754Z" fill="white"/>
<path d="M441.907 283.754C441.907 284.453 441.341 285.02 440.641 285.02C439.943 285.02 439.377 284.453 439.377 283.754C439.377 283.055 439.943 282.489 440.641 282.489C441.341 282.489 441.907 283.055 441.907 283.754Z" stroke="#1A2E35" stroke-width="1.33333" stroke-miterlimit="10" stroke-linecap="round"/>
<path d="M423.614 74.3853C425.372 74.3853 426.816 74.1199 427.945 73.5885C429.073 73.0578 429.969 72.394 430.633 71.5972C431.296 70.8004 431.761 69.9296 432.027 68.984C432.292 68.0377 432.426 67.1669 432.426 66.3701C432.426 65.1749 432.227 64.1628 431.828 63.3331C431.429 62.5041 430.923 61.8143 430.31 61.2671C429.695 60.7192 429.023 60.2804 428.293 59.9478C427.563 59.6166 426.866 59.3506 426.202 59.151L423.614 58.4043V74.3853ZM422.916 38.8892H422.768C421.971 38.8892 421.09 38.9975 420.129 39.2128C419.166 39.4288 418.269 39.7936 417.44 40.3079C416.61 40.8229 415.922 41.5195 415.374 42.3993C414.827 43.2784 414.553 44.3652 414.553 45.6598C414.553 46.7227 414.76 47.6264 415.175 48.3731C415.59 49.1199 416.138 49.7589 416.818 50.2897C417.498 50.8211 418.269 51.2531 419.133 51.5843C419.996 51.9162 420.858 52.1987 421.722 52.4304L422.916 52.7788V38.8892ZM422.916 75.0826C422.319 75.0826 421.788 75.0655 421.324 75.0326C420.858 74.999 420.419 74.9578 420.004 74.9078C419.589 74.8584 419.166 74.7837 418.735 74.6842C418.303 74.5848 417.839 74.4676 417.341 74.3352C416.677 74.1364 415.963 73.9046 415.2 73.6386C414.436 73.3732 413.773 73.2402 413.208 73.2402C412.711 73.2402 412.37 73.3396 412.188 73.5391C412.005 73.738 411.848 74.0205 411.715 74.3853H410.969V63.6815H411.516C412.047 66.2042 412.769 68.1797 413.682 69.6059C414.594 71.0336 415.581 72.095 416.644 72.7924C417.706 73.4891 418.784 73.9293 419.88 74.1117C420.975 74.2941 421.987 74.3853 422.916 74.3853V58.2054L420.029 57.3593C417.307 56.5625 415.266 55.4674 413.906 54.0734C412.544 52.6794 411.864 50.8547 411.864 48.5974C411.864 47.1032 412.13 45.7181 412.661 44.44C413.192 43.1625 413.939 42.0674 414.901 41.1547C415.863 40.2421 417.017 39.52 418.361 38.9886C419.706 38.4579 421.174 38.1918 422.768 38.1918H422.916V35.1555H423.614V38.1918C424.609 38.259 425.447 38.3914 426.128 38.5902C426.807 38.7898 427.405 39.0058 427.92 39.2375C428.434 39.4707 428.899 39.6777 429.314 39.8601C429.728 40.0432 430.151 40.1337 430.583 40.1337C431.015 40.1337 431.305 40.0761 431.455 39.9596C431.604 39.8437 431.811 39.5536 432.077 39.088H432.773V48.0495H432.176C431.977 46.9215 431.661 45.8264 431.231 44.7636C430.799 43.7014 430.235 42.7559 429.538 41.9262C428.841 41.0971 428.002 40.4073 427.024 39.8601C426.045 39.3123 424.908 38.9886 423.614 38.8892V52.9783L427.745 54.1728C428.21 54.3058 428.916 54.5458 429.861 54.8949C430.808 55.2432 431.753 55.7657 432.699 56.4631C433.645 57.1597 434.475 58.0649 435.188 59.1764C435.902 60.2886 436.259 61.6902 436.259 63.3832C436.259 64.9102 435.968 66.3783 435.387 67.7888C434.807 69.2 433.976 70.4445 432.898 71.5225C431.82 72.6018 430.5 73.4644 428.941 74.1117C427.38 74.7583 425.605 75.0826 423.614 75.0826V78.5674H422.916V75.0826Z" fill="#1A2E35"/>
<path d="M447.545 58.2054C447.545 44.6038 436.519 33.577 422.917 33.577C409.315 33.577 398.289 44.6038 398.289 58.2054C398.289 71.807 409.315 82.8337 422.917 82.8337C436.519 82.8337 447.545 71.807 447.545 58.2054Z" stroke="#1A2E35" stroke-width="1.33333" stroke-miterlimit="10"/>
<path d="M63.1467 242.946C64.2829 241.859 65.0509 240.795 65.452 239.754C65.8525 238.713 66.0205 237.731 65.9574 236.805C65.893 235.88 65.655 235.031 65.2415 234.255C64.8281 233.48 64.3755 232.835 63.8832 232.321C63.1447 231.549 62.3897 231.018 61.6197 230.728C60.8496 230.439 60.0967 230.306 59.3609 230.332C58.6259 230.359 57.9196 230.491 57.2435 230.727C56.566 230.964 55.9516 231.223 55.4003 231.505L53.2664 232.623L63.1467 242.946ZM40.7496 220.448L40.6536 220.54C40.1386 221.033 39.6374 221.647 39.1492 222.381C38.661 223.116 38.3071 223.905 38.0898 224.751C37.8717 225.596 37.858 226.472 38.0479 227.378C38.2379 228.285 38.733 229.157 39.5332 229.992C40.1901 230.678 40.8826 231.134 41.6129 231.361C42.3425 231.587 43.0913 231.661 43.8593 231.583C44.6273 231.505 45.3918 231.307 46.155 230.988C46.9175 230.669 47.6491 230.318 48.3506 229.933L49.338 229.42L40.7496 220.448ZM63.1275 243.827C62.7415 244.196 62.3876 244.515 62.0674 244.78C61.7465 245.047 61.4373 245.291 61.1383 245.515C60.8393 245.74 60.5198 245.954 60.1797 246.155C59.8396 246.358 59.4672 246.57 59.0634 246.792C58.5114 247.075 57.9073 247.366 57.2497 247.666C56.5928 247.966 56.0819 248.291 55.7171 248.64C55.3955 248.948 55.2371 249.222 55.2426 249.464C55.2474 249.705 55.3208 249.985 55.4607 250.303L54.9779 250.764L48.3609 243.85L48.7147 243.511C50.6169 244.814 52.3037 245.643 53.7759 246C55.2474 246.358 56.542 246.433 57.6597 246.226C58.776 246.02 59.7456 245.638 60.5657 245.078C61.3858 244.519 62.0962 243.952 62.6962 243.377L52.6925 232.925L50.3042 234.164C48.0537 235.332 46.0576 235.887 44.3173 235.827C42.5756 235.769 41.0088 235.011 39.6127 233.552C38.6898 232.587 38.004 231.529 37.5577 230.374C37.1099 229.221 36.9152 228.052 36.9728 226.867C37.0303 225.682 37.3293 224.503 37.869 223.329C38.4093 222.155 39.1937 221.075 40.2223 220.09L40.319 219.997L38.4415 218.036L38.8913 217.605L40.7695 219.567C41.4538 218.994 42.0764 218.561 42.6394 218.27C43.2017 217.979 43.7214 217.748 44.1973 217.579C44.6732 217.412 45.1018 217.259 45.4823 217.12C45.8629 216.982 46.1927 216.779 46.4718 216.512C46.7502 216.245 46.9024 216.028 46.9271 215.86C46.9518 215.694 46.9058 215.378 46.79 214.913L47.2405 214.482L52.7809 220.271L52.3949 220.64C51.5693 220.034 50.6882 219.523 49.7529 219.102C48.8176 218.683 47.8679 218.421 46.9045 218.316C45.9417 218.212 44.9742 218.284 44.0033 218.535C43.0323 218.788 42.0977 219.281 41.2001 220.017L49.9113 229.118L53.3185 227.335C53.7012 227.133 54.3053 226.852 55.1322 226.493C55.9585 226.133 56.8924 225.886 57.9347 225.752C58.9763 225.617 60.072 225.689 61.2199 225.965C62.3684 226.243 63.4662 226.928 64.5126 228.021C65.4568 229.007 66.1761 230.135 66.6733 231.406C67.1711 232.676 67.4036 233.993 67.3741 235.357C67.3446 236.721 67.0257 238.094 66.4182 239.475C65.81 240.858 64.8637 242.165 63.5773 243.396L65.7325 245.647L65.282 246.078L63.1275 243.827Z" fill="#1A2E35"/>
<path d="M68.6025 217.698C60.193 208.913 46.2527 208.607 37.4668 217.017C28.6802 225.426 28.375 239.367 36.7852 248.152C45.1946 256.939 59.1343 257.244 67.9209 248.834C76.7068 240.425 77.0119 226.484 68.6025 217.698Z" stroke="#1A2E35" stroke-width="1.33333" stroke-miterlimit="10"/>
<path d="M438.764 144.506C439.433 144.042 439.911 143.561 440.2 143.062C440.489 142.563 440.654 142.074 440.696 141.596C440.739 141.118 440.686 140.665 440.537 140.235C440.389 139.806 440.209 139.44 440 139.137C439.685 138.683 439.343 138.351 438.973 138.14C438.603 137.931 438.228 137.802 437.851 137.756C437.473 137.709 437.102 137.72 436.737 137.786C436.372 137.852 436.037 137.935 435.733 138.034L434.551 138.433L438.764 144.506ZM429.143 131.2L429.086 131.239C428.783 131.449 428.477 131.722 428.169 132.058C427.86 132.394 427.615 132.769 427.436 133.183C427.256 133.597 427.178 134.043 427.202 134.521C427.226 135.001 427.407 135.485 427.75 135.977C428.029 136.382 428.346 136.67 428.701 136.844C429.055 137.019 429.432 137.118 429.831 137.14C430.229 137.163 430.636 137.124 431.051 137.021C431.466 136.921 431.869 136.801 432.258 136.661L432.805 136.478L429.143 131.2ZM438.683 144.954C438.456 145.112 438.249 145.246 438.064 145.355C437.879 145.465 437.7 145.565 437.53 145.656C437.359 145.747 437.178 145.83 436.989 145.905C436.798 145.981 436.591 146.06 436.367 146.141C436.062 146.24 435.73 146.339 435.37 146.44C435.009 146.54 434.722 146.664 434.508 146.813C434.319 146.945 434.215 147.072 434.199 147.196C434.181 147.32 434.197 147.469 434.242 147.642L433.958 147.839L431.137 143.771L431.345 143.627C432.211 144.446 433.007 145.006 433.73 145.307C434.453 145.61 435.108 145.752 435.695 145.737C436.282 145.723 436.808 145.606 437.273 145.386C437.737 145.167 438.146 144.934 438.499 144.69L434.234 138.541L432.914 138.98C431.669 139.395 430.606 139.517 429.721 139.346C428.836 139.175 428.097 138.66 427.501 137.802C427.108 137.235 426.843 136.638 426.709 136.013C426.574 135.387 426.569 134.774 426.694 134.174C426.819 133.573 427.067 132.994 427.438 132.438C427.809 131.883 428.297 131.394 428.902 130.974L428.959 130.935L428.158 129.781L428.424 129.597L429.224 130.751C429.62 130.514 429.973 130.344 430.285 130.24C430.595 130.136 430.879 130.061 431.136 130.013C431.393 129.966 431.624 129.923 431.83 129.882C432.035 129.843 432.22 129.766 432.384 129.652C432.549 129.538 432.643 129.44 432.669 129.357C432.696 129.273 432.698 129.108 432.676 128.861L432.942 128.678L435.303 132.083L435.076 132.241C434.703 131.864 434.295 131.532 433.851 131.241C433.407 130.951 432.944 130.74 432.46 130.609C431.976 130.478 431.476 130.437 430.959 130.487C430.443 130.536 429.925 130.713 429.408 131.016L433.121 136.371L435.007 135.735C435.218 135.664 435.55 135.569 436.001 135.452C436.452 135.335 436.95 135.284 437.493 135.3C438.036 135.316 438.59 135.441 439.153 135.675C439.718 135.91 440.224 136.349 440.67 136.992C441.072 137.572 441.348 138.206 441.499 138.895C441.651 139.585 441.664 140.277 441.538 140.971C441.412 141.665 441.139 142.34 440.716 142.998C440.293 143.655 439.705 144.246 438.948 144.771L439.866 146.095L439.601 146.279L438.683 144.954Z" fill="#1A2E35"/>
<path d="M443.595 132.049C440.009 126.88 432.912 125.596 427.744 129.181C422.575 132.766 421.29 139.863 424.875 145.032C428.461 150.202 435.557 151.485 440.727 147.9C445.896 144.315 447.181 137.219 443.595 132.049Z" stroke="#1A2E35" stroke-width="1.33333" stroke-miterlimit="10"/>
<path d="M44.528 130.857C45.342 130.857 46.0092 130.735 46.531 130.489C47.0528 130.243 47.4677 129.936 47.7742 129.568C48.0814 129.199 48.2967 128.797 48.4194 128.359C48.5422 127.922 48.6032 127.519 48.6032 127.15C48.6032 126.598 48.512 126.129 48.3275 125.745C48.1431 125.362 47.9092 125.043 47.6247 124.79C47.3408 124.537 47.0302 124.334 46.6921 124.18C46.3548 124.027 46.0325 123.904 45.7253 123.812L44.528 123.466V130.857ZM44.2058 114.44H44.1365C43.7683 114.44 43.361 114.49 42.9166 114.59C42.4709 114.69 42.0568 114.859 41.6728 115.096C41.2888 115.335 40.9706 115.657 40.7176 116.064C40.4646 116.471 40.3377 116.973 40.3377 117.572C40.3377 118.063 40.433 118.481 40.6257 118.827C40.817 119.172 41.0707 119.468 41.3855 119.713C41.6995 119.959 42.0568 120.158 42.4559 120.312C42.8549 120.466 43.254 120.596 43.6531 120.703L44.2058 120.865V114.44ZM44.2058 131.18C43.9294 131.18 43.6839 131.171 43.4693 131.157C43.254 131.141 43.0504 131.122 42.859 131.099C42.6664 131.076 42.4709 131.042 42.2714 130.995C42.0719 130.949 41.8572 130.896 41.6268 130.834C41.3196 130.742 40.9898 130.635 40.6367 130.512C40.2835 130.389 39.977 130.328 39.7158 130.328C39.4854 130.328 39.3284 130.373 39.2433 130.466C39.159 130.558 39.0863 130.689 39.0253 130.857H38.6797V125.907H38.9334C39.1782 127.074 39.5121 127.987 39.9345 128.647C40.3569 129.307 40.8136 129.798 41.3046 130.12C41.7955 130.443 42.2947 130.646 42.8014 130.73C43.3075 130.815 43.7758 130.857 44.2058 130.857V123.374L42.8707 122.983C41.6118 122.615 40.6675 122.108 40.0381 121.463C39.4086 120.819 39.0945 119.975 39.0945 118.93C39.0945 118.24 39.2166 117.599 39.4628 117.008C39.7082 116.417 40.0532 115.91 40.4989 115.488C40.9439 115.066 41.4774 114.732 42.0993 114.486C42.7205 114.241 43.4001 114.118 44.1365 114.118H44.2058V112.714H44.528V114.118C44.9888 114.149 45.3763 114.211 45.691 114.302C46.0051 114.394 46.2821 114.494 46.52 114.601C46.7573 114.709 46.9726 114.805 47.1646 114.889C47.3566 114.974 47.552 115.016 47.7515 115.016C47.9511 115.016 48.0855 114.989 48.1547 114.935C48.2233 114.882 48.3193 114.747 48.442 114.533H48.7643V118.677H48.488C48.3968 118.155 48.25 117.649 48.0512 117.158C47.8516 116.666 47.5904 116.229 47.2681 115.845C46.9458 115.461 46.5577 115.143 46.1052 114.889C45.6526 114.636 45.1274 114.486 44.528 114.44V120.956L46.4391 121.509C46.6544 121.571 46.9808 121.682 47.4176 121.843C47.8558 122.004 48.2926 122.246 48.73 122.569C49.1675 122.891 49.5515 123.309 49.8813 123.823C50.2112 124.338 50.3764 124.986 50.3764 125.769C50.3764 126.475 50.242 127.155 49.9732 127.807C49.7051 128.459 49.3211 129.035 48.8219 129.533C48.3234 130.032 47.7131 130.432 46.9918 130.73C46.2704 131.029 45.4489 131.18 44.528 131.18V132.791H44.2058V131.18Z" fill="#1A2E35"/>
<path d="M55.5949 123.374C55.5949 117.084 50.4953 111.984 44.2047 111.984C37.914 111.984 32.8145 117.084 32.8145 123.374C32.8145 129.665 37.914 134.764 44.2047 134.764C50.4953 134.764 55.5949 129.665 55.5949 123.374Z" stroke="#1A2E35" stroke-width="1.33333" stroke-miterlimit="10"/>
<path d="M261.672 26.1908C262.678 26.7792 263.592 27.1104 264.416 27.1844C265.239 27.2585 265.974 27.1776 266.62 26.9444C267.266 26.7106 267.824 26.3677 268.292 25.9159C268.76 25.4633 269.128 25.0094 269.395 24.5541C269.794 23.8704 270.019 23.2245 270.069 22.617C270.118 22.0087 270.059 21.4451 269.891 20.9267C269.723 20.4076 269.486 19.9317 269.179 19.497C268.872 19.063 268.563 18.6776 268.25 18.3416L267.019 17.0484L261.672 26.1908ZM273.15 5.65061L273.064 5.60055C272.608 5.33381 272.069 5.10136 271.446 4.90319C270.823 4.70434 270.188 4.61314 269.542 4.63028C268.895 4.64674 268.267 4.81542 267.661 5.13496C267.053 5.45518 266.533 5.98523 266.099 6.72579C265.743 7.33401 265.56 7.9196 265.547 8.48599C265.535 9.05169 265.634 9.60094 265.846 10.1324C266.057 10.6638 266.354 11.1691 266.738 11.6478C267.12 12.1257 267.519 12.5762 267.936 12.9979L268.502 13.5965L273.15 5.65061ZM261.039 26.3568C260.698 26.1565 260.4 25.9687 260.145 25.7952C259.89 25.6196 259.652 25.4496 259.432 25.2823C259.211 25.115 258.993 24.9305 258.781 24.7296C258.567 24.528 258.341 24.3058 258.1 24.0631C257.786 23.7278 257.456 23.3561 257.108 22.9481C256.76 22.5415 256.425 22.2432 256.102 22.054C255.817 21.888 255.589 21.8311 255.418 21.8839C255.247 21.9367 255.062 22.0458 254.865 22.2096L254.438 21.96L258.019 15.836L258.332 16.0198C257.791 17.6401 257.543 19.0122 257.589 20.134C257.633 21.2551 257.843 22.1932 258.217 22.9475C258.591 23.7017 259.061 24.3148 259.628 24.7851C260.193 25.2562 260.741 25.6471 261.273 25.9577L266.686 16.7014L265.318 15.2511C264.027 13.8845 263.226 12.5748 262.914 11.3221C262.601 10.0693 262.823 8.79798 263.579 7.50612C264.078 6.65173 264.694 5.9482 265.425 5.39484C266.156 4.84148 266.95 4.46503 267.806 4.2648C268.662 4.06457 269.563 4.03715 270.51 4.1832C271.457 4.32994 272.386 4.66868 273.298 5.20216L273.383 5.25153L274.399 3.51464L274.798 3.74778L273.782 5.48535C274.329 5.85632 274.764 6.2122 275.086 6.55368C275.408 6.89516 275.679 7.21949 275.895 7.52395C276.112 7.82908 276.308 8.10336 276.484 8.34679C276.66 8.58953 276.872 8.7829 277.119 8.92758C277.366 9.07226 277.552 9.13603 277.676 9.11958C277.8 9.10312 278.015 9.00643 278.323 8.82952L278.722 9.06266L275.724 14.189L275.382 13.9894C275.646 13.277 275.831 12.5453 275.94 11.7931C276.049 11.0409 276.043 10.3113 275.921 9.60368C275.8 8.89604 275.551 8.22062 275.174 7.58017C274.797 6.93904 274.256 6.37402 273.548 5.88374L268.835 13.9442L270.798 16.0102C271.019 16.242 271.343 16.615 271.767 17.1313C272.192 17.647 272.558 18.2621 272.866 18.9772C273.174 19.6924 273.346 20.4878 273.382 21.3628C273.418 22.2378 273.154 23.1593 272.587 24.1276C272.077 25.0011 271.418 25.7438 270.615 26.3568C269.81 26.9698 268.919 27.4038 267.941 27.6596C266.963 27.9161 265.92 27.9682 264.811 27.8166C263.701 27.6644 262.577 27.2564 261.439 26.5899L260.272 28.5833L259.874 28.3501L261.039 26.3568Z" fill="#1A2E35"/>
<path d="M280.776 24.9416C285.327 17.1603 282.708 7.16273 274.927 2.61172C267.145 -1.93929 257.148 0.679407 252.596 8.46076C248.046 16.2421 250.664 26.2397 258.446 30.7907C266.228 35.3417 276.225 32.723 280.776 24.9416Z" stroke="#1A2E35" stroke-width="1.33333" stroke-miterlimit="10"/>
<path d="M383.628 92.5384V52.3171H261.273V92.5384L263.381 95.7269C264.732 97.7271 266.84 99.2404 269.326 100.051C272.947 101.239 276.892 100.321 280.027 98.2133C282.351 96.6464 285.106 95.7269 288.025 95.7269C296.564 95.7269 303.428 103.401 303.428 112.967C303.428 122.479 296.564 130.153 288.025 130.153C285.106 130.153 282.351 129.234 280.027 127.667C276.838 125.506 272.893 124.587 269.272 125.83C266.786 126.64 264.678 128.1 263.381 130.099L261.273 133.288V174.091H302.076L305.265 171.983C307.265 170.686 308.724 168.579 309.535 166.092C310.778 162.47 309.859 158.526 307.697 155.337C306.129 153.013 305.211 150.257 305.211 147.339C305.211 138.8 312.886 131.937 322.397 131.937C331.963 131.937 339.637 138.8 339.637 147.339C339.637 150.257 338.718 153.013 337.151 155.337C335.043 158.472 334.125 162.417 335.313 166.038C336.124 168.524 337.637 170.632 339.637 171.983L342.825 174.091H383.628V133.288L383.706 133.169L383.668 92.598L383.628 92.5384Z" fill="white"/>
<path d="M383.628 92.5384V52.3171H261.273V92.5384L263.381 95.7269C264.732 97.7271 266.84 99.2404 269.326 100.051C272.947 101.239 276.892 100.321 280.027 98.2133C282.351 96.6464 285.106 95.7269 288.025 95.7269C296.564 95.7269 303.428 103.401 303.428 112.967C303.428 122.479 296.564 130.153 288.025 130.153C285.106 130.153 282.351 129.234 280.027 127.667C276.838 125.506 272.893 124.587 269.272 125.83C266.786 126.64 264.678 128.1 263.381 130.099L261.273 133.288V174.091H302.076L305.265 171.983C307.265 170.686 308.724 168.579 309.535 166.092C310.778 162.47 309.859 158.526 307.697 155.337C306.129 153.013 305.211 150.257 305.211 147.339C305.211 138.8 312.886 131.937 322.397 131.937C331.963 131.937 339.637 138.8 339.637 147.339C339.637 150.257 338.718 153.013 337.151 155.337C335.043 158.472 334.125 162.417 335.313 166.038C336.124 168.524 337.637 170.632 339.637 171.983L342.825 174.091H383.628V133.288L383.706 133.169L383.668 92.598L383.628 92.5384Z" stroke="black" stroke-width="1.33333" stroke-miterlimit="10" stroke-linecap="round" stroke-linejoin="round"/>
<path d="M300.379 82.8137C299.578 83.4397 298.016 83.749 295.703 83.749C293.386 83.749 291.115 83.2601 288.89 82.2788C286.66 81.3024 284.168 80.1875 281.408 78.9395C278.644 77.6949 275.438 76.534 271.789 75.4657C268.844 74.6038 265.34 73.9798 261.297 73.58V77.3898C267.011 78.1475 272.115 79.7712 276.598 82.2788C281.851 85.2185 286.351 88.9171 290.092 93.368C290.93 94.365 291.726 95.3984 292.492 96.4571C292.498 96.4599 292.504 96.4626 292.51 96.4647C292.88 96.5895 293.244 96.7314 293.602 96.8864C293.64 96.9028 293.679 96.9193 293.716 96.9364C294.449 97.2601 295.152 97.6434 295.823 98.0836C295.839 98.0932 295.854 98.1021 295.869 98.1124C296.2 98.3311 296.523 98.5636 296.838 98.8084C296.866 98.831 296.894 98.8537 296.923 98.8763C297.531 99.3563 298.105 99.8843 298.643 100.455C298.699 100.514 298.755 100.573 298.81 100.634C299.046 100.892 299.276 101.159 299.497 101.434C299.573 101.529 299.646 101.627 299.721 101.725C299.87 101.919 300.015 102.117 300.156 102.319C300.296 102.517 300.429 102.719 300.562 102.924C300.662 103.082 300.762 103.239 300.858 103.401C300.973 103.594 301.085 103.79 301.194 103.989C301.214 104.025 301.232 104.063 301.251 104.099C302.642 106.687 303.45 109.714 303.45 112.967C303.45 114.979 303.138 116.908 302.569 118.701C303.239 121.182 303.805 123.691 304.253 126.234H307.46V78.1379H303.719C302.292 80.6338 301.181 82.1918 300.379 82.8137Z" fill="#1A2E35"/>
<path d="M261.273 174.091H302.076L305.265 171.983C305.708 171.695 306.122 171.362 306.511 170.998C301.617 167.457 296.724 164.776 291.829 162.974C286.753 161.104 282.966 159.813 280.473 159.099L261.297 153.555V174.091H261.273Z" fill="#1A2E35"/>
<path d="M342.944 174.12L339.755 172.012C337.756 170.714 336.297 168.607 335.485 166.121C334.243 162.5 335.161 158.555 337.323 155.366C338.891 153.042 339.81 150.286 339.81 147.368C339.81 138.829 332.134 131.912 322.623 131.912C313.058 131.912 305.384 138.829 305.384 147.368C305.384 150.286 306.302 152.988 307.869 155.366C309.977 158.501 310.896 162.446 309.707 166.067C308.897 168.553 307.383 170.661 305.384 172.012L302.195 174.12H261.392V214.922L259.284 218.111C257.932 220.111 255.825 221.57 253.34 222.435C249.718 223.623 245.773 222.704 242.639 220.597C240.315 218.976 237.559 218.111 234.64 218.111C226.101 218.111 219.238 225.786 219.238 235.297C219.238 244.809 226.101 252.537 234.64 252.537C237.559 252.537 240.315 251.618 242.639 250.051C245.828 247.889 249.773 246.917 253.393 248.16C255.879 249.024 257.987 250.484 259.284 252.483L261.392 255.672V296.468L261.361 296.499L383.747 296.474V255.672V214.922V174.12H342.944Z" fill="#28B3DD"/>
<path d="M342.944 174.12L339.755 172.012C337.756 170.714 336.297 168.607 335.485 166.121C334.243 162.5 335.161 158.555 337.323 155.366C338.891 153.042 339.81 150.286 339.81 147.368C339.81 138.829 332.134 131.912 322.623 131.912C313.058 131.912 305.384 138.829 305.384 147.368C305.384 150.286 306.302 152.988 307.869 155.366C309.977 158.501 310.896 162.446 309.707 166.067C308.897 168.553 307.383 170.661 305.384 172.012L302.195 174.12H261.392V214.922L259.284 218.111C257.932 220.111 255.825 221.57 253.34 222.435C249.718 223.623 245.773 222.704 242.639 220.597C240.315 218.976 237.559 218.111 234.64 218.111C226.101 218.111 219.238 225.786 219.238 235.297C219.238 244.809 226.101 252.537 234.64 252.537C237.559 252.537 240.315 251.618 242.639 250.051C245.828 247.889 249.773 246.917 253.393 248.16C255.879 249.024 257.987 250.484 259.284 252.483L261.392 255.672V296.468L261.361 296.499L383.747 296.474V255.672V214.922V174.12H342.944Z" stroke="black" stroke-width="1.33333" stroke-miterlimit="10" stroke-linecap="round" stroke-linejoin="round"/>
<path d="M258.298 219.329C257.276 220.413 256.001 221.288 254.557 221.942V248.628C256.008 249.278 257.288 250.15 258.298 251.234V219.329Z" fill="#1A2E35"/>
<path d="M247.341 222.651C245.997 222.345 244.693 221.819 243.484 221.121V249.521C244.699 248.807 246.002 248.264 247.341 247.943V222.651Z" fill="#1A2E35"/>
<path d="M308.13 252.219C313.917 246.433 318.372 239.752 321.49 232.178C324.605 224.609 326.166 216.727 326.166 208.531C326.166 199.446 324.25 191.923 320.421 185.952C316.589 179.987 312.138 175.131 307.061 171.39C306.902 171.272 306.742 171.164 306.582 171.048C306.204 171.399 305.808 171.725 305.384 172.011L302.195 174.12H261.393V182.704L272.192 185.819C275.753 186.888 279.494 188.316 283.414 190.094C287.33 191.878 290.937 194.236 294.236 197.176C297.53 200.115 300.248 203.814 302.385 208.264C304.523 212.719 305.592 218.15 305.592 224.564C305.592 228.838 304.878 233.515 303.454 238.592C302.027 243.668 299.534 248.344 295.973 252.62C292.407 256.894 287.597 260.46 281.544 263.308C276.162 265.841 269.443 267.244 261.393 267.526V271.268C270.832 270.962 279.331 269.247 286.888 266.113C295.259 262.639 302.339 258.009 308.13 252.219Z" fill="#1A2E35"/>
<path d="M234.609 218.081C237.528 218.081 240.284 219 242.608 220.567C245.742 222.728 249.687 223.647 253.363 222.458C255.795 221.594 257.902 220.135 259.253 218.135L261.361 214.947V174.143H220.558L217.369 172.036C215.37 170.739 213.911 168.631 213.046 166.145C211.803 162.524 212.776 158.579 214.938 155.39C216.505 153.066 217.424 150.31 217.424 147.392C217.424 138.853 209.696 131.99 200.183 131.99C190.671 131.99 182.997 138.853 182.997 147.392C182.997 150.31 183.862 153.066 185.483 155.39C187.591 158.525 188.51 162.47 187.321 166.091C186.456 168.577 184.997 170.684 182.997 172.036L179.809 174.143H139.006V214.947V255.695V296.499H179.809H220.558H261.361V255.695L259.253 252.507C257.902 250.507 255.795 248.994 253.308 248.183C249.634 246.994 245.742 247.913 242.553 250.02C240.23 251.588 237.528 252.507 234.609 252.507C226.071 252.507 219.153 244.833 219.153 235.322C219.153 225.755 226.071 218.081 234.609 218.081Z" fill="white"/>
<path d="M234.609 218.081C237.528 218.081 240.284 219 242.608 220.567C245.742 222.728 249.687 223.647 253.363 222.458C255.795 221.594 257.902 220.135 259.253 218.135L261.361 214.947V174.143H220.558L217.369 172.036C215.37 170.739 213.911 168.631 213.046 166.145C211.803 162.524 212.776 158.579 214.938 155.39C216.505 153.066 217.424 150.31 217.424 147.392C217.424 138.853 209.696 131.99 200.183 131.99C190.671 131.99 182.997 138.853 182.997 147.392C182.997 150.31 183.862 153.066 185.483 155.39C187.591 158.525 188.51 162.47 187.321 166.091C186.456 168.577 184.997 170.684 182.997 172.036L179.809 174.143H139.006V214.947V255.695V296.499H179.809H220.558H261.361V255.695L259.253 252.507C257.902 250.507 255.795 248.994 253.308 248.183C249.634 246.994 245.742 247.913 242.553 250.02C240.23 251.588 237.528 252.507 234.609 252.507C226.071 252.507 219.153 244.833 219.153 235.322C219.153 225.755 226.071 218.081 234.609 218.081Z" stroke="black" stroke-width="1.33333" stroke-miterlimit="10" stroke-linecap="round" stroke-linejoin="round"/>
<path d="M261.361 267.528C260.359 267.562 259.34 267.583 258.297 267.583V251.317C257.277 250.215 256.002 249.318 254.555 248.672V267.583C252.247 267.583 249.839 267.474 247.34 267.264V247.955C246.002 248.253 244.702 248.768 243.484 249.456V266.865C241.781 266.658 240.042 266.411 238.257 266.113C232.378 265.136 226.587 262.773 220.889 259.032C215.185 255.292 209.887 249.593 204.99 241.931C200.089 234.275 196.214 223.674 193.367 210.135H190.428V267.583H194.435C195.145 265.625 195.993 264.11 196.974 263.041C197.951 261.971 199.779 261.437 202.452 261.437C205.478 261.437 209.04 262.151 213.14 263.575C217.235 265.002 221.064 266.247 224.629 267.315C227.301 268.026 229.794 268.652 232.111 269.186C234.424 269.72 236.695 270.121 238.924 270.389C240.385 270.564 241.908 270.717 243.484 270.854V290.313H247.34V271.136C249.506 271.257 251.902 271.323 254.555 271.323V290.028H258.297V271.323C259.33 271.323 260.349 271.302 261.361 271.27V267.528Z" fill="#1A2E35"/>
<path d="M206.192 158.565C208.057 160.476 210.164 162.281 212.506 163.983C212.157 160.987 213.126 157.915 214.874 155.338C216.441 153.013 217.36 150.258 217.36 147.339C217.36 142.829 215.203 138.786 211.765 135.976C208.704 133.496 204.639 131.99 200.182 131.99C198.503 131.99 196.883 132.208 195.35 132.607C195.986 143.15 199.591 151.805 206.192 158.565Z" fill="#1A2E35"/>
<path d="M239.059 176.2L243.484 177.498V221.121C244.691 221.832 245.994 222.363 247.341 222.672V178.628L254.556 180.742V221.965C255.992 221.305 257.272 220.419 258.298 219.32V181.812L261.361 182.696V174.143H232.691C234.734 174.864 236.848 175.554 239.059 176.2Z" fill="#1A2E35"/>
<path d="M92.0552 122.927C90.3635 122.886 84.8848 125.669 84.8848 125.669L90.1708 142.499C90.1708 142.499 124.954 138.482 125.336 138.432C125.719 138.383 126.469 138.157 126.703 136.959C126.938 135.761 133.75 103.739 133.75 103.739L125.875 102.03L117.873 125.498C117.873 125.498 93.7468 122.968 92.0552 122.927Z" fill="#1A2E35"/>
<path d="M92.0552 122.927C90.3635 122.886 84.8848 125.669 84.8848 125.669L90.1708 142.499C90.1708 142.499 124.954 138.482 125.336 138.432C125.719 138.383 126.469 138.157 126.703 136.959C126.938 135.761 133.75 103.739 133.75 103.739L125.875 102.03L117.873 125.498C117.873 125.498 93.7468 122.968 92.0552 122.927Z" stroke="#1A2E35" stroke-width="1.33333" stroke-miterlimit="10"/>
<path d="M141.504 88.2268C141.185 88.268 138.794 88.5766 138.794 88.5766L135.12 89.6181L137.95 87.0646C137.95 87.0646 140.786 85.8077 141.233 85.5067C141.681 85.2056 141.408 84.3499 141.169 84.3807C140.93 84.4116 138.369 84.6605 137.603 85.0027C136.837 85.3448 132.801 87.9724 132.801 87.9724L135.598 84.5323C135.598 84.5323 138.678 82.0281 138.925 81.4288C139.171 80.8295 138.919 80.1328 138.143 80.3954C137.367 80.6574 134.633 82.7124 134.068 83.3522C133.502 83.9926 130.394 86.9055 130.394 86.9055L130.759 85.9675C130.759 85.9675 133.724 81.9383 134.04 81.2491C134.356 80.56 134.253 79.7632 133.913 79.6446C133.574 79.5266 132.839 80.1074 132.304 80.9865C131.769 81.8663 127.632 86.8568 127.445 87.2861C127.257 87.7153 126.952 98.5323 126.952 98.5323L125.875 102.03L133.032 103.582L133.616 99.9407C133.616 99.9407 134.359 98.7915 134.686 98.1826C135.012 97.573 135.922 93.323 135.922 93.323L138.982 90.659C138.982 90.659 141.231 89.8828 141.897 89.3912C142.563 88.9002 141.822 88.1857 141.504 88.2268Z" fill="#1A2E35"/>
<path d="M141.504 88.2268C141.185 88.268 138.794 88.5766 138.794 88.5766L135.12 89.6181L137.95 87.0646C137.95 87.0646 140.786 85.8077 141.233 85.5067C141.681 85.2056 141.408 84.3499 141.169 84.3807C140.93 84.4116 138.369 84.6605 137.603 85.0027C136.837 85.3448 132.801 87.9724 132.801 87.9724L135.598 84.5323C135.598 84.5323 138.678 82.0281 138.925 81.4288C139.171 80.8295 138.919 80.1328 138.143 80.3954C137.367 80.6574 134.633 82.7124 134.068 83.3522C133.502 83.9926 130.394 86.9055 130.394 86.9055L130.759 85.9675C130.759 85.9675 133.724 81.9383 134.04 81.2491C134.356 80.56 134.253 79.7632 133.913 79.6446C133.574 79.5266 132.839 80.1074 132.304 80.9865C131.769 81.8663 127.632 86.8568 127.445 87.2861C127.257 87.7153 126.952 98.5323 126.952 98.5323L125.875 102.03L133.032 103.582L133.616 99.9407C133.616 99.9407 134.359 98.7915 134.686 98.1826C135.012 97.573 135.922 93.323 135.922 93.323L138.982 90.659C138.982 90.659 141.231 89.8828 141.897 89.3912C142.563 88.9002 141.822 88.1857 141.504 88.2268Z" stroke="#1A2E35" stroke-width="1.33333" stroke-miterlimit="10"/>
<path d="M221.404 25.8913C218.955 27.4794 217.142 29.7497 216.045 32.3293C214.561 35.8024 211.751 38.7201 208.066 39.6917C205.54 40.3644 202.902 40.2704 200.726 39.2988L197.223 37.7697L175.341 4.02077L72.6777 70.5854L138.978 172.728L173.117 150.593L174.69 147.06C175.633 144.839 175.711 142.277 175.084 139.721C174.112 136.036 171.194 133.225 167.676 131.771C165.096 130.674 162.826 128.861 161.238 126.412C156.593 119.247 159.343 109.284 167.324 104.109C175.306 98.9344 185.524 100.49 190.169 107.654C191.757 110.103 192.485 112.915 192.434 115.718C192.355 119.569 193.686 123.409 196.699 125.771C198.776 127.386 201.147 128.361 203.485 128.391L207.353 128.395L241.59 106.197L219.391 71.9609L219.425 68.1388C219.426 65.7553 220.4 63.3841 222.045 61.3517C224.407 58.3394 228.218 56.9632 232.069 57.0427C234.871 57.0935 237.639 56.3941 240.133 54.7772C247.251 50.161 248.881 39.9585 243.706 31.9776C238.503 23.9514 228.523 21.2758 221.404 25.8913Z" fill="#28B3DD"/>
<path d="M221.404 25.8913C218.955 27.4794 217.142 29.7497 216.045 32.3293C214.561 35.8024 211.751 38.7201 208.066 39.6917C205.54 40.3644 202.902 40.2704 200.726 39.2988L197.223 37.7697L175.341 4.02077L72.6777 70.5854L138.978 172.728L173.117 150.593L174.69 147.06C175.633 144.839 175.711 142.277 175.084 139.721C174.112 136.036 171.194 133.225 167.676 131.771C165.096 130.674 162.826 128.861 161.238 126.412C156.593 119.247 159.343 109.284 167.324 104.109C175.306 98.9344 185.524 100.49 190.169 107.654C191.757 110.103 192.485 112.915 192.434 115.718C192.355 119.569 193.686 123.409 196.699 125.771C198.776 127.386 201.147 128.361 203.485 128.391L207.353 128.395L241.59 106.197L219.391 71.9609L219.425 68.1388C219.426 65.7553 220.4 63.3841 222.045 61.3517C224.407 58.3394 228.218 56.9632 232.069 57.0427C234.871 57.0935 237.639 56.3941 240.133 54.7772C247.251 50.161 248.881 39.9585 243.706 31.9776C238.503 23.9514 228.523 21.2758 221.404 25.8913Z" stroke="black" stroke-width="1.33333" stroke-miterlimit="10" stroke-linecap="round" stroke-linejoin="round"/>
<path d="M148.308 98.3856L143.359 102.09L139.875 111.577C139.875 111.577 130 145.653 128.838 147.396C127.677 149.139 124.579 150.494 124.579 150.494L119.545 143.137L139.294 99.9607L143.747 98.7991L148.308 98.3856Z" fill="#1A2E35"/>
<path d="M148.308 98.3856L143.359 102.09L139.875 111.577C139.875 111.577 130 145.653 128.838 147.396C127.677 149.139 124.579 150.494 124.579 150.494L119.545 143.137L139.294 99.9607L143.747 98.7991L148.308 98.3856Z" stroke="#1A2E35" stroke-width="1.33333" stroke-miterlimit="10"/>
<path d="M223.704 91.0092L217.306 92.9285C217.043 93.0135 216.774 93.091 216.509 93.1747L177.31 32.717C179.045 31.279 180.766 30.0009 182.475 28.8935L183.147 28.4574L223.704 91.0092ZM212.66 94.3267C209.561 95.2071 206.404 95.9957 203.176 96.6759C198.32 97.7044 193.585 98.013 188.972 97.6057C184.357 97.2046 180.024 95.9237 175.977 93.7712C171.925 91.6216 168.354 88.1547 165.252 83.3698C161.472 77.54 159.533 71.8466 159.43 66.2855C159.329 60.7286 160.394 55.5797 162.628 50.8373C164.861 46.0998 167.832 41.8402 171.537 38.0545C172.489 37.0842 173.436 36.1626 174.38 35.287L212.66 94.3267ZM230.415 88.9658L227.425 89.8703L186.286 26.4222C187.186 25.9326 188.083 25.4848 188.98 25.059L186.907 21.8623C186.039 22.31 185.158 22.7784 184.251 23.2831L175.384 9.60671L172.245 11.6419L181.113 25.3189L180.44 25.7543C178.609 26.9413 176.868 28.1845 175.211 29.4804L166.178 15.5476L162.942 17.6459L172.229 31.9695C168.674 35.0998 165.563 38.507 162.924 42.2064C158.422 48.5238 155.334 55.1435 153.665 62.0623C151.995 68.9865 151.83 76.0993 153.171 83.4007C154.509 90.7075 157.36 97.7216 161.721 104.448C162.344 105.408 162.988 106.322 163.643 107.212C164.704 106.06 165.932 105.011 167.322 104.109C175.304 98.9346 185.522 100.489 190.167 107.654C191.755 110.103 192.484 112.915 192.433 115.718C192.368 118.832 193.227 121.936 195.15 124.26C201.821 124.616 209.259 123.806 217.454 121.845L241.588 106.197L230.415 88.9658Z" fill="#1A2E35"/>
<path d="M225.527 24.0872C229.754 25.7254 233.826 27.9039 237.742 30.6371C240.668 32.6825 243.445 34.896 246.085 37.2678C245.586 35.4541 244.8 33.6658 243.705 31.9776C239.448 25.412 231.996 22.4292 225.527 24.0872Z" fill="#1A2E35"/>
<path d="M102.388 121.483L105.573 122.498L105.854 127.777L103.458 125.723V127.777C103.458 127.777 107.052 136.676 110.475 149.855C113.898 163.033 114.412 171.419 114.069 179.463C113.727 187.507 113.042 192.984 113.042 192.984L109.106 179.806L100.034 127.605L99.5215 123.498L102.388 121.483Z" fill="#C0C0C0"/>
<path d="M102.388 121.483L105.573 122.498L105.854 127.777L103.458 125.723V127.777C103.458 127.777 107.052 136.676 110.475 149.855C113.898 163.033 114.412 171.419 114.069 179.463C113.727 187.507 113.042 192.984 113.042 192.984L109.106 179.806L100.034 127.605L99.5215 123.498L102.388 121.483Z" stroke="#1A2E35" stroke-width="1.33333" stroke-miterlimit="10"/>
<path d="M110.816 178.779C110.816 178.779 113.726 194.011 114.411 200.514C115.095 207.019 121.339 228.143 120.495 237.583C120.13 241.674 119.532 279.202 119.532 279.202L121.98 280.983L121.276 286.861C121.276 286.861 130.621 291.756 132.623 292.423C134.626 293.091 133.736 291.088 134.626 293.091C135.516 295.093 131.956 296.205 126.839 296.65C121.721 297.096 117.494 296.428 117.494 296.428L115.269 295.093L114.617 296.402C114.617 296.402 111.505 296.298 110.572 296.298C109.638 296.298 108.808 296.194 108.808 296.194C108.808 296.194 107.978 292.045 107.771 290.282C107.563 288.519 107.459 286.651 107.459 286.651C107.459 286.651 105.8 284.68 105.8 283.643C105.8 282.606 107.045 278.561 107.045 278.561L105.579 254.423L104.941 239.123L100.073 218.25C100.073 218.25 96.0045 241.039 95.5259 242.076C95.0473 243.113 79.9598 282.356 79.9598 282.356L81.2043 283.392L79.8562 288.06L83.7977 292.52C83.7977 292.52 90.2282 295.632 90.2282 296.151C90.2282 296.67 89.3985 297.499 89.3985 297.499C89.3985 297.499 84.0047 297.706 80.3746 297.292C76.7445 296.877 74.7738 296.358 73.5286 296.047C72.284 295.736 70.5204 293.765 70.5204 293.765L69.2758 294.491L63.9863 291.483C63.9863 291.483 65.3344 284.534 65.957 282.874C66.579 281.215 67.8242 280.385 67.8242 280.385L70.5204 276.028L81.0404 235.899L81.4957 199.39L80.3787 192.688L82.5332 179.683L110.816 178.779Z" fill="#1A2E35"/>
<path d="M110.816 178.779C110.816 178.779 113.726 194.011 114.411 200.514C115.095 207.019 121.339 228.143 120.495 237.583C120.13 241.674 119.532 279.202 119.532 279.202L121.98 280.983L121.276 286.861C121.276 286.861 130.621 291.756 132.623 292.423C134.626 293.091 133.736 291.088 134.626 293.091C135.516 295.093 131.956 296.205 126.839 296.65C121.721 297.096 117.494 296.428 117.494 296.428L115.269 295.093L114.617 296.402C114.617 296.402 111.505 296.298 110.572 296.298C109.638 296.298 108.808 296.194 108.808 296.194C108.808 296.194 107.978 292.045 107.771 290.282C107.563 288.519 107.459 286.651 107.459 286.651C107.459 286.651 105.8 284.68 105.8 283.643C105.8 282.606 107.045 278.561 107.045 278.561L105.579 254.423L104.941 239.123L100.073 218.25C100.073 218.25 96.0045 241.039 95.5259 242.076C95.0473 243.113 79.9598 282.356 79.9598 282.356L81.2043 283.392L79.8562 288.06L83.7977 292.52C83.7977 292.52 90.2282 295.632 90.2282 296.151C90.2282 296.67 89.3985 297.499 89.3985 297.499C89.3985 297.499 84.0047 297.706 80.3746 297.292C76.7445 296.877 74.7738 296.358 73.5286 296.047C72.284 295.736 70.5204 293.765 70.5204 293.765L69.2758 294.491L63.9863 291.483C63.9863 291.483 65.3344 284.534 65.957 282.874C66.579 281.215 67.8242 280.385 67.8242 280.385L70.5204 276.028L81.0404 235.899L81.4957 199.39L80.3787 192.688L82.5332 179.683L110.816 178.779Z" stroke="#1A2E35" stroke-width="1.33333" stroke-miterlimit="10"/>
<path d="M101.647 90.3519C101.647 90.3519 104.768 93.6378 104.933 95.1162C105.097 96.5945 104.357 98.0729 104.768 98.7298C105.179 99.3874 109.039 103.166 108.876 103.659C108.711 104.152 106.74 105.548 106.74 105.548L100.497 121.401L85.8757 116.144L87.5187 111.215L80.9476 104.726C80.9476 104.726 80.5369 97.6622 85.5473 92.734C90.5584 87.8052 101.647 90.3519 101.647 90.3519Z" fill="white"/>
<path d="M101.647 90.3519C101.647 90.3519 104.768 93.6378 104.933 95.1162C105.097 96.5945 104.357 98.0729 104.768 98.7298C105.179 99.3874 109.039 103.166 108.876 103.659C108.711 104.152 106.74 105.548 106.74 105.548L100.497 121.401L85.8757 116.144L87.5187 111.215L80.9476 104.726C80.9476 104.726 80.5369 97.6622 85.5473 92.734C90.5584 87.8052 101.647 90.3519 101.647 90.3519Z" stroke="#1A2E35" stroke-width="1.33333" stroke-miterlimit="10"/>
<path d="M94.255 93.8016C94.255 93.8016 103.044 91.0087 103.455 87.9697C103.866 84.9307 96.7194 83.2054 90.4768 84.5199C84.2342 85.8337 77.0055 92.734 76.7593 98.4836C76.5125 104.233 84.8088 109.984 85.3018 110.23C85.7948 110.476 85.7125 111.708 86.6979 112.037C87.6839 112.366 88.0124 112.612 89.3269 111.544C90.6407 110.476 90.3122 107.437 90.3122 107.437C90.3122 107.437 86.6163 106.862 86.1233 104.315C85.6302 101.769 87.8485 100.455 89.3269 101.276C90.8052 102.098 92.0374 105.137 92.3659 106.041C92.6944 106.944 92.6944 112.94 94.8303 114.419C96.9656 115.898 104.194 117.13 106.412 117.048C108.629 116.965 108.876 116.144 108.383 114.337C107.89 112.53 107.069 108.997 106.986 108.176C106.905 107.355 107.644 105.876 106.74 105.548C105.837 105.219 103.701 107.108 101.484 108.916C99.2654 110.723 98.6908 111.051 98.6908 111.051C98.6908 111.051 98.6908 110.805 95.9802 106.369C93.2697 101.933 92.1197 99.8804 92.1197 99.6335C92.1197 99.3873 96.9656 98.8127 96.4726 96.7584C95.9802 94.7054 94.255 93.8016 94.255 93.8016Z" fill="#1A2E35"/>
<path d="M94.255 93.8016C94.255 93.8016 103.044 91.0087 103.455 87.9697C103.866 84.9307 96.7194 83.2054 90.4768 84.5199C84.2342 85.8337 77.0055 92.734 76.7593 98.4836C76.5125 104.233 84.8088 109.984 85.3018 110.23C85.7948 110.476 85.7125 111.708 86.6979 112.037C87.6839 112.366 88.0124 112.612 89.3269 111.544C90.6407 110.476 90.3122 107.437 90.3122 107.437C90.3122 107.437 86.6163 106.862 86.1233 104.315C85.6302 101.769 87.8485 100.455 89.3269 101.276C90.8052 102.098 92.0374 105.137 92.3659 106.041C92.6944 106.944 92.6944 112.94 94.8303 114.419C96.9656 115.898 104.194 117.13 106.412 117.048C108.629 116.965 108.876 116.144 108.383 114.337C107.89 112.53 107.069 108.997 106.986 108.176C106.905 107.355 107.644 105.876 106.74 105.548C105.837 105.219 103.701 107.108 101.484 108.916C99.2654 110.723 98.6908 111.051 98.6908 111.051C98.6908 111.051 98.6908 110.805 95.9802 106.369C93.2697 101.933 92.1197 99.8804 92.1197 99.6335C92.1197 99.3873 96.9656 98.8127 96.4726 96.7584C95.9802 94.7054 94.255 93.8016 94.255 93.8016Z" stroke="#1A2E35" stroke-width="1.33333" stroke-miterlimit="10"/>
<path d="M103.537 97.2514C103.537 97.2514 102.058 96.1015 100.908 98.4014" stroke="#1A2E35" stroke-width="1.33333" stroke-miterlimit="10"/>
<path d="M103.127 108.916C103.127 108.916 104.524 109.737 106.248 109.409" stroke="white" stroke-width="1.33333" stroke-miterlimit="10"/>
<path d="M103.444 100.718C103.596 101.405 103.503 102.009 103.237 102.068C102.972 102.127 102.633 101.618 102.482 100.931C102.329 100.244 102.422 99.6402 102.687 99.5813C102.953 99.523 103.292 100.032 103.444 100.718Z" fill="#1A2E35"/>
<path d="M85.7128 114.419L102.387 121.483L101.155 126.576L84.2344 117.705L85.7128 114.419Z" fill="white"/>
<path d="M85.7128 114.419L102.387 121.483L101.155 126.576L84.2344 117.705L85.7128 114.419Z" stroke="#1A2E35" stroke-width="1.33333" stroke-miterlimit="10"/>
<path d="M101.154 126.576C101.154 126.576 107.051 136.163 108.42 152.593C109.789 169.024 110.816 178.779 110.816 178.779L103.628 179.635L101.154 126.576Z" fill="white"/>
<path d="M101.154 126.576C101.154 126.576 107.051 136.163 108.42 152.593C109.789 169.024 110.816 178.779 110.816 178.779L103.628 179.635L101.154 126.576Z" stroke="#1A2E35" stroke-width="1.33333" stroke-miterlimit="10"/>
<path d="M84.2336 117.704L82.3445 121.893C82.3445 121.893 76.745 134.584 76.9014 137.394C77.0577 140.204 80.0234 168.618 80.0234 168.618L73.4688 199.088C73.4688 199.088 82.8334 205.388 91.7324 206.169C100.631 206.949 106.252 205.076 106.252 205.076C106.252 205.076 107.188 185.479 106.252 172.989C105.315 160.499 104.065 138.175 102.973 133.647C101.88 129.12 101.155 126.576 101.155 126.576L84.2336 117.704Z" fill="#C0C0C0"/>
<path d="M84.2336 117.704L82.3445 121.893C82.3445 121.893 76.745 134.584 76.9014 137.394C77.0577 140.204 80.0234 168.618 80.0234 168.618L73.4688 199.088C73.4688 199.088 82.8334 205.388 91.7324 206.169C100.631 206.949 106.252 205.076 106.252 205.076C106.252 205.076 107.188 185.479 106.252 172.989C105.315 160.499 104.065 138.175 102.973 133.647C101.88 129.12 101.155 126.576 101.155 126.576L84.2336 117.704Z" stroke="#1A2E35" stroke-width="1.33333" stroke-miterlimit="10"/>
<path d="M82.3457 121.894L96.3601 128.04L103.644 162.496" stroke="#1A2E35" stroke-width="1.33333" stroke-miterlimit="10"/>
<path d="M87.1211 127.067C87.1211 127.067 92.9105 125.008 94.5829 125.265C96.256 125.523 119.86 131.12 119.86 131.12L130.8 108.869L138.391 111.572C138.391 111.572 127.535 142.459 127.149 143.617C126.764 144.775 125.992 144.903 125.605 144.903C125.219 144.903 90.2088 144.435 90.2088 144.435" fill="#C0C0C0"/>
<path d="M87.1211 127.067C87.1211 127.067 92.9105 125.008 94.5829 125.265C96.256 125.523 119.86 131.12 119.86 131.12L130.8 108.869L138.391 111.572C138.391 111.572 127.535 142.459 127.149 143.617C126.764 144.775 125.992 144.903 125.605 144.903C125.219 144.903 90.2088 144.435 90.2088 144.435" stroke="#1A2E35" stroke-width="1.33333" stroke-miterlimit="10"/>
<path d="M130.801 108.87L132.316 105.538L138.745 107.788L137.701 111.324L130.801 108.87Z" fill="white"/>
<path d="M130.801 108.87L132.316 105.538L138.745 107.788L137.701 111.324L130.801 108.87Z" stroke="#1A2E35" stroke-width="1.33333" stroke-miterlimit="10"/>
<path d="M132.316 105.538C132.316 105.538 134.004 94.8498 134.245 94.448C134.486 94.0462 139.228 89.6261 139.871 88.8225C140.513 88.0188 141.317 87.5368 141.639 87.6972C141.959 87.8577 141.959 88.6613 141.558 89.3045C141.156 89.9477 137.701 93.5641 137.701 93.5641L137.218 94.448C137.218 94.448 140.674 91.9561 141.317 91.3939C141.959 90.8316 144.933 89.1434 145.737 88.9829C146.541 88.8225 146.702 89.5452 146.38 90.1082C146.059 90.6704 142.684 92.7605 142.684 92.7605L139.469 95.8139C139.469 95.8139 143.808 93.7246 144.612 93.4832C145.416 93.2425 147.987 93.3227 148.228 93.3227C148.47 93.3227 148.631 94.2066 148.148 94.448C147.666 94.6887 144.692 95.5725 144.692 95.5725L141.558 97.7428L145.335 97.1805H148.068C148.389 97.1805 149.032 97.9835 148.308 98.3853C147.586 98.7871 145.255 99.2698 145.255 99.2698L141.879 101.52C141.879 101.52 140.433 105.618 140.031 106.181C139.629 106.743 138.745 107.788 138.745 107.788L132.316 105.538Z" fill="white"/>
<path d="M132.316 105.538C132.316 105.538 134.004 94.8498 134.245 94.448C134.486 94.0462 139.228 89.6261 139.871 88.8225C140.513 88.0188 141.317 87.5368 141.639 87.6972C141.959 87.8577 141.959 88.6613 141.558 89.3045C141.156 89.9477 137.701 93.5641 137.701 93.5641L137.218 94.448C137.218 94.448 140.674 91.9561 141.317 91.3939C141.959 90.8316 144.933 89.1434 145.737 88.9829C146.541 88.8225 146.702 89.5452 146.38 90.1082C146.059 90.6704 142.684 92.7605 142.684 92.7605L139.469 95.8139C139.469 95.8139 143.808 93.7246 144.612 93.4832C145.416 93.2425 147.987 93.3227 148.228 93.3227C148.47 93.3227 148.631 94.2066 148.148 94.448C147.666 94.6887 144.692 95.5725 144.692 95.5725L141.558 97.7428L145.335 97.1805H148.068C148.389 97.1805 149.032 97.9835 148.308 98.3853C147.586 98.7871 145.255 99.2698 145.255 99.2698L141.879 101.52C141.879 101.52 140.433 105.618 140.031 106.181C139.629 106.743 138.745 107.788 138.745 107.788L132.316 105.538Z" stroke="#1A2E35" stroke-width="1.33333" stroke-miterlimit="10"/>
</g>
<defs>
<clipPath id="clip0_525_584">
<rect width="488" height="297.86" fill="white" transform="translate(0 0.0351562)"/>
</clipPath>
</defs>
</svg>
