<svg width="488" height="455" viewBox="0 0 488 455" fill="none" xmlns="http://www.w3.org/2000/svg">
<g clip-path="url(#clip0_525_170)">
<path d="M324.255 8.77003C324.255 8.77003 245.012 -19.4062 167.227 25.4529C89.4422 70.3131 50.1946 159.364 16.4895 230.699C-17.2145 302.033 2.18619 374.591 61.5644 407.677C120.943 440.761 161.319 391.989 244.618 389.615C327.918 387.241 350.32 399.149 419.441 352.093C488.563 305.037 501.056 193.904 446.531 111.674C392.004 29.4443 324.255 8.77003 324.255 8.77003Z" fill="#28B3DD"/>
<g opacity="0.699997">
<path d="M324.255 8.77003C324.255 8.77003 245.012 -19.4062 167.227 25.4529C89.4422 70.3131 50.1946 159.364 16.4895 230.699C-17.2145 302.033 2.18619 374.591 61.5644 407.677C120.943 440.761 161.319 391.989 244.618 389.615C327.918 387.241 350.32 399.149 419.441 352.093C488.563 305.037 501.056 193.904 446.531 111.674C392.004 29.4443 324.255 8.77003 324.255 8.77003Z" fill="white"/>
</g>
<path d="M463.197 198.537C463.197 198.537 463.197 192.654 454.962 184.419C446.726 176.184 441.431 171.478 441.431 171.478C441.431 171.478 437.313 185.007 444.961 193.243C452.609 201.479 463.197 209.125 463.197 209.125V198.537Z" fill="#28B3DD"/>
<path d="M451.244 235.274C451.244 235.274 451.244 229.392 443.009 221.156C434.773 212.921 429.478 208.215 429.478 208.215C429.478 208.215 425.36 221.745 433.008 229.98C440.655 238.216 451.244 245.863 451.244 245.863V235.274Z" fill="#28B3DD"/>
<path d="M462.679 208.556C462.679 208.556 463.301 202.707 472.361 195.387C481.42 188.068 487.182 183.948 487.182 183.948C487.182 183.948 489.847 197.836 481.373 205.218C472.898 212.6 461.561 219.086 461.561 219.086L462.679 208.556Z" fill="#28B3DD"/>
<path d="M448.24 251.943C448.24 251.943 449.472 246.191 459.251 239.864C469.029 233.536 475.192 230.044 475.192 230.044C475.192 230.044 476.383 244.137 467.181 250.586C457.978 257.037 446.021 262.296 446.021 262.296L448.24 251.943Z" fill="#28B3DD"/>
<path d="M450.955 299.246C450.955 299.246 450.955 293.364 459.19 285.129C467.426 276.893 472.721 272.186 472.721 272.186C472.721 272.186 476.838 285.717 469.19 293.952C461.544 302.188 450.955 309.834 450.955 309.834V299.246Z" fill="#28B3DD"/>
<path d="M450.817 310.792C450.817 310.792 451.653 304.969 444.671 295.647C437.69 286.325 433.118 280.915 433.118 280.915C433.118 280.915 427.119 293.722 433.518 302.959C439.918 312.199 449.312 321.273 449.312 321.273L450.817 310.792Z" fill="#28B3DD"/>
<path d="M442.695 345.01C442.695 345.01 442.695 339.128 450.93 330.893C459.167 322.657 464.46 317.951 464.46 317.951C464.46 317.951 468.578 331.481 460.931 339.716C453.284 347.952 442.695 355.599 442.695 355.599V345.01Z" fill="#28B3DD"/>
<path d="M448.196 376.035C448.196 376.035 446.706 370.344 452.586 360.292C458.468 350.239 462.399 344.345 462.399 344.345C462.399 344.345 469.809 356.391 464.496 366.294C459.183 376.198 450.878 386.278 450.878 386.278L448.196 376.035Z" fill="#28B3DD"/>
<path d="M463.943 197.029C463.461 203.316 462.746 209.822 461.688 215.295C458.432 232.115 450.293 242.965 447.038 258.158C443.782 273.35 453.128 292.923 450.625 312.434C448.123 331.948 440.528 342.801 442.698 355.821C444.867 368.843 456.262 404.111 456.262 404.111" stroke="#1A2E35" stroke-width="1.33333" stroke-miterlimit="10" stroke-linecap="round" stroke-linejoin="round"/>
<path d="M462.598 212.466L471.473 205.655" stroke="#1A2E35" stroke-width="1.33333" stroke-miterlimit="10" stroke-linecap="round" stroke-linejoin="round"/>
<path d="M463.011 204.623L459.295 198.018" stroke="#1A2E35" stroke-width="1.33333" stroke-miterlimit="10" stroke-linecap="round" stroke-linejoin="round"/>
<path d="M447.531 257.46C447.531 257.46 454.961 251.887 462.598 246.315" stroke="#1A2E35" stroke-width="1.33333" stroke-miterlimit="10" stroke-linecap="round" stroke-linejoin="round"/>
<path d="M451.245 245.863C451.245 245.863 445.054 233.725 438.037 225.676" stroke="#1A2E35" stroke-width="1.33333" stroke-miterlimit="10" stroke-linecap="round" stroke-linejoin="round"/>
<path d="M451.246 307.615C451.246 307.615 457.025 296.263 467.139 286.356" stroke="#1A2E35" stroke-width="1.33333" stroke-miterlimit="10" stroke-linecap="round" stroke-linejoin="round"/>
<path d="M449.801 315.87C449.801 315.87 446.087 306.995 441.752 300.597C437.418 294.199 436.799 293.374 436.799 293.374" stroke="#1A2E35" stroke-width="1.33333" stroke-miterlimit="10" stroke-linecap="round" stroke-linejoin="round"/>
<path d="M442.697 355.821C442.697 355.821 445.673 348.275 449.389 342.29C453.104 336.303 458.056 330.937 458.056 330.937" stroke="#1A2E35" stroke-width="1.33333" stroke-miterlimit="10" stroke-linecap="round" stroke-linejoin="round"/>
<path d="M450.878 386.278C450.878 386.278 450.008 379.233 453.104 373.249C456.2 367.263 459.709 359.42 461.154 356.324" stroke="#1A2E35" stroke-width="1.33333" stroke-miterlimit="10" stroke-linecap="round" stroke-linejoin="round"/>
<path d="M409.268 277.123C409.268 277.123 408.63 273.435 412.9 267.376C417.17 261.317 419.979 257.792 419.979 257.792C419.979 257.792 424.03 265.83 420.129 271.823C416.228 277.818 410.418 283.763 410.418 283.763L409.268 277.123Z" fill="#28B3DD"/>
<path d="M420.751 298.863C420.751 298.863 420.113 295.175 424.383 289.116C428.653 283.057 431.463 279.532 431.463 279.532C431.463 279.532 435.514 287.569 431.611 293.563C427.71 299.558 421.901 305.503 421.901 305.503L420.751 298.863Z" fill="#28B3DD"/>
<path d="M410.68 283.35C410.68 283.35 409.655 279.749 403.18 276.142C396.703 272.536 392.643 270.579 392.643 270.579C392.643 270.579 392.48 279.576 398.596 283.286C404.711 286.995 412.525 289.831 412.525 289.831L410.68 283.35Z" fill="#28B3DD"/>
<path d="M424.443 308.989C424.443 308.989 423.046 305.516 416.228 302.61C409.41 299.703 405.166 298.183 405.166 298.183C405.166 298.183 405.948 307.149 412.42 310.194C418.89 313.241 426.959 315.24 426.959 315.24L424.443 308.989Z" fill="#28B3DD"/>
<path d="M427.877 338.947C427.877 338.947 427.239 335.259 421.18 330.988C415.121 326.718 411.291 324.342 411.291 324.342C411.291 324.342 410.178 333.273 415.867 337.607C421.557 341.941 429.027 345.587 429.027 345.587L427.877 338.947Z" fill="#28B3DD"/>
<path d="M429.217 346.172C429.217 346.172 428.061 342.612 431.427 336.008C434.792 329.405 437.072 325.515 437.072 325.515C437.072 325.515 442.224 332.895 439.214 339.383C436.204 345.872 431.298 352.581 431.298 352.581L429.217 346.172Z" fill="#28B3DD"/>
<path d="M439.554 375.927C439.554 375.927 439.98 372.208 445.785 367.599C451.59 362.989 455.28 360.399 455.28 360.399C455.28 360.399 456.9 369.252 451.467 373.904C446.034 378.556 438.785 382.623 438.785 382.623L439.554 375.927Z" fill="#28B3DD"/>
<path d="M438.024 366.748C438.024 366.748 437.386 363.061 431.326 358.789C425.269 354.519 421.438 352.143 421.438 352.143C421.438 352.143 420.325 361.074 426.013 365.409C431.703 369.742 439.174 373.388 439.174 373.388L438.024 366.748Z" fill="#28B3DD"/>
<path d="M437.943 386.8C437.943 386.8 438.261 383.069 433.481 377.404C428.702 371.738 425.597 368.47 425.597 368.47C425.597 368.47 422.257 376.828 426.664 382.461C431.071 388.096 437.374 393.514 437.374 393.514L437.943 386.8Z" fill="#28B3DD"/>
<path d="M408.637 276.259C409.62 280.15 410.775 284.152 412.033 287.467C415.901 297.662 422.183 303.583 425.874 312.756C429.563 321.929 425.828 335.217 429.516 347.182C433.204 359.146 439.144 365.127 439.198 373.527C439.249 381.929 435.933 405.281 435.933 405.281" stroke="#1A2E35" stroke-width="1.33333" stroke-miterlimit="10" stroke-linecap="round" stroke-linejoin="round"/>
<path d="M411.156 285.792L404.85 282.485" stroke="#1A2E35" stroke-width="1.33333" stroke-miterlimit="10" stroke-linecap="round" stroke-linejoin="round"/>
<path d="M410.045 280.919L411.658 276.374" stroke="#1A2E35" stroke-width="1.33333" stroke-miterlimit="10" stroke-linecap="round" stroke-linejoin="round"/>
<path d="M425.489 312.372C425.489 312.372 420.225 309.685 414.83 307.018" stroke="#1A2E35" stroke-width="1.33333" stroke-miterlimit="10" stroke-linecap="round" stroke-linejoin="round"/>
<path d="M421.9 305.503C421.9 305.503 424.464 297.219 427.991 291.41" stroke="#1A2E35" stroke-width="1.33333" stroke-miterlimit="10" stroke-linecap="round" stroke-linejoin="round"/>
<path d="M428.603 344.226C428.603 344.226 423.746 337.736 416.328 332.62" stroke="#1A2E35" stroke-width="1.33333" stroke-miterlimit="10" stroke-linecap="round" stroke-linejoin="round"/>
<path d="M430.406 349.247C430.406 349.247 431.773 343.278 433.795 338.795C435.82 334.312 436.117 333.727 436.117 333.727" stroke="#1A2E35" stroke-width="1.33333" stroke-miterlimit="10" stroke-linecap="round" stroke-linejoin="round"/>
<path d="M438.912 379.9C438.912 379.9 443.09 374.778 445.691 372.861C448.292 370.945 450.094 369.033 450.094 369.033" stroke="#1A2E35" stroke-width="1.33333" stroke-miterlimit="10" stroke-linecap="round" stroke-linejoin="round"/>
<path d="M439.197 373.527C439.197 373.527 436.511 369.118 433.532 365.769C430.552 362.418 426.863 359.591 426.863 359.591" stroke="#1A2E35" stroke-width="1.33333" stroke-miterlimit="10" stroke-linecap="round" stroke-linejoin="round"/>
<path d="M437.373 393.515C437.373 393.515 437.154 389.003 434.562 385.586C431.972 382.168 428.92 377.631 427.678 375.846" stroke="#1A2E35" stroke-width="1.33333" stroke-miterlimit="10" stroke-linecap="round" stroke-linejoin="round"/>
<path d="M462.335 453.97H429.757C428.338 453.97 427.19 452.821 427.19 451.404L419.109 401.209H472.981L464.901 451.404C464.901 452.821 463.752 453.97 462.335 453.97Z" fill="#1A2E35"/>
<path d="M462.335 453.97H429.757C428.338 453.97 427.19 452.821 427.19 451.404L419.109 401.209H472.981L464.901 451.404C464.901 452.821 463.752 453.97 462.335 453.97Z" stroke="#1A2E35" stroke-width="1.33333" stroke-miterlimit="10" stroke-linecap="round" stroke-linejoin="round"/>
<path d="M472.512 408.236H419.109C416.781 408.236 414.893 406.348 414.893 404.02C414.893 401.691 416.781 399.804 419.109 399.804H472.512C474.842 399.804 476.729 401.691 476.729 404.02C476.729 406.348 474.842 408.236 472.512 408.236Z" fill="#1A2E35"/>
<path d="M472.512 408.236H419.109C416.781 408.236 414.893 406.348 414.893 404.02C414.893 401.691 416.781 399.804 419.109 399.804H472.512C474.842 399.804 476.729 401.691 476.729 404.02C476.729 406.348 474.842 408.236 472.512 408.236Z" stroke="#1A2E35" stroke-width="1.33333" stroke-miterlimit="10" stroke-linecap="round" stroke-linejoin="round"/>
<path d="M421.227 408.423H460.005" stroke="white" stroke-width="1.33333" stroke-miterlimit="10" stroke-linecap="round" stroke-linejoin="round"/>
<path d="M463.654 408.423H470.042" stroke="white" stroke-width="1.33333" stroke-miterlimit="10" stroke-linecap="round" stroke-linejoin="round"/>
<path d="M245.462 163.535C245.462 163.535 242.738 166.258 243.011 168.982C243.284 171.705 266.434 220.459 268.886 223.999C271.337 227.54 278.42 228.63 281.687 226.724C284.956 224.817 297.757 211.199 297.757 211.199L297.121 141.383C297.121 141.383 285.773 173.885 282.504 179.06C279.235 184.235 277.602 186.959 277.602 186.959C277.602 186.959 270.248 166.258 268.341 162.174C266.434 158.088 262.349 155.909 262.349 155.909L245.462 163.535Z" fill="#C0C0C0"/>
<path d="M245.462 163.535C245.462 163.535 242.738 166.258 243.011 168.982C243.284 171.705 266.434 220.459 268.886 223.999C271.337 227.54 278.42 228.63 281.687 226.724C284.956 224.817 297.757 211.199 297.757 211.199L297.121 141.383C297.121 141.383 285.773 173.885 282.504 179.06C279.235 184.235 277.602 186.959 277.602 186.959C277.602 186.959 270.248 166.258 268.341 162.174C266.434 158.088 262.349 155.909 262.349 155.909L245.462 163.535Z" stroke="#1A2E35" stroke-width="1.33333" stroke-miterlimit="10" stroke-linecap="round" stroke-linejoin="round"/>
<path d="M302.765 435.8C302.765 435.8 286.413 441.978 280.235 444.158C274.058 446.34 274.421 451.79 275.147 452.88L275.874 453.97H334.381C334.381 453.97 335.835 449.973 334.017 444.521C332.2 439.071 302.765 435.8 302.765 435.8Z" fill="white"/>
<path d="M302.765 435.8C302.765 435.8 286.413 441.978 280.235 444.158C274.058 446.34 274.421 451.79 275.147 452.88L275.874 453.97H334.381C334.381 453.97 335.835 449.973 334.017 444.521C332.2 439.071 302.765 435.8 302.765 435.8Z" stroke="#1A2E35" stroke-width="1.33333" stroke-miterlimit="10" stroke-linecap="round" stroke-linejoin="round"/>
<path d="M334.894 451.062H274.764C274.77 451.902 274.942 452.569 275.147 452.879L275.874 453.97H334.382C334.382 453.97 334.773 452.875 334.894 451.062" fill="white"/>
<path d="M334.894 451.062H274.764C274.77 451.902 274.942 452.569 275.147 452.879L275.874 453.97H334.382C334.382 453.97 334.773 452.875 334.894 451.062V451.062Z" stroke="#1A2E35" stroke-width="1.33333" stroke-miterlimit="10" stroke-linecap="round" stroke-linejoin="round"/>
<path d="M290.411 236.296C290.411 236.296 286.414 275.906 286.414 296.256C286.414 316.606 293.681 356.943 295.862 369.3C298.043 381.655 305.31 420.538 305.31 423.445C305.31 426.352 305.31 429.986 303.13 431.44C300.95 432.892 300.95 434.71 300.95 435.801V437.981C300.95 437.981 318.392 446.702 326.024 447.066C333.655 447.428 336.199 447.066 336.199 447.066C336.199 447.066 335.472 430.713 335.472 423.809C335.472 416.904 335.835 367.481 336.199 359.851C336.561 352.219 338.016 297.347 339.47 282.083C340.922 266.822 345.284 240.657 345.284 240.657L291.864 231.935L290.411 236.296Z" fill="#28B3DD"/>
<path d="M290.411 236.296C290.411 236.296 286.414 275.906 286.414 296.256C286.414 316.606 293.681 356.943 295.862 369.3C298.043 381.655 305.31 420.538 305.31 423.445C305.31 426.352 305.31 429.986 303.13 431.44C300.95 432.892 300.95 434.71 300.95 435.801V437.981C300.95 437.981 318.392 446.702 326.024 447.066C333.655 447.428 336.199 447.066 336.199 447.066C336.199 447.066 335.472 430.713 335.472 423.809C335.472 416.904 335.835 367.481 336.199 359.851C336.561 352.219 338.016 297.347 339.47 282.083C340.922 266.822 345.284 240.657 345.284 240.657L291.864 231.935L290.411 236.296Z" stroke="#1A2E35" stroke-width="1.33333" stroke-miterlimit="10" stroke-linecap="round" stroke-linejoin="round"/>
<path d="M341.649 435.8C341.649 435.8 325.296 441.978 319.118 444.158C312.94 446.34 313.304 451.79 314.031 452.88L314.756 453.97H373.264C373.264 453.97 374.717 449.973 372.901 444.521C371.083 439.071 341.649 435.8 341.649 435.8Z" fill="white"/>
<path d="M341.649 435.8C341.649 435.8 325.296 441.978 319.118 444.158C312.94 446.34 313.304 451.79 314.031 452.88L314.756 453.97H373.264C373.264 453.97 374.717 449.973 372.901 444.521C371.083 439.071 341.649 435.8 341.649 435.8Z" stroke="#1A2E35" stroke-width="1.33333" stroke-miterlimit="10" stroke-linecap="round" stroke-linejoin="round"/>
<path d="M373.779 451.062H313.648C313.655 451.902 313.825 452.569 314.032 452.879L314.758 453.97H373.265C373.265 453.97 373.658 452.875 373.779 451.062Z" fill="white"/>
<path d="M373.779 451.062H313.648C313.655 451.902 313.825 452.569 314.032 452.879L314.758 453.97H373.265C373.265 453.97 373.658 452.875 373.779 451.062Z" stroke="#1A2E35" stroke-width="1.33333" stroke-miterlimit="10" stroke-linecap="round" stroke-linejoin="round"/>
<path d="M321.662 241.02C321.662 241.02 322.026 296.619 321.662 312.972C321.299 329.324 331.11 370.752 334.017 380.564C336.925 390.375 342.013 428.532 342.375 430.348C342.74 432.167 336.925 433.983 336.925 437.981C336.925 441.978 352.914 441.978 352.914 441.978C352.914 441.978 367.813 446.339 369.267 446.339C370.721 446.339 373.627 447.428 373.627 447.428C373.627 447.428 375.808 440.524 376.171 431.802C376.536 423.081 373.627 413.997 373.627 413.997C373.627 413.997 375.446 382.017 373.991 363.12C372.537 344.225 368.541 321.331 368.541 314.426C368.541 307.521 372.537 294.803 374.355 280.63C376.171 266.457 376.898 245.744 376.898 241.384C376.898 237.023 322.389 235.933 322.389 235.933L321.662 241.02Z" fill="#28B3DD"/>
<path d="M321.662 241.02C321.662 241.02 322.026 296.619 321.662 312.972C321.299 329.324 331.11 370.752 334.017 380.564C336.925 390.375 342.013 428.532 342.375 430.348C342.74 432.167 336.925 433.983 336.925 437.981C336.925 441.978 352.914 441.978 352.914 441.978C352.914 441.978 367.813 446.339 369.267 446.339C370.721 446.339 373.627 447.428 373.627 447.428C373.627 447.428 375.808 440.524 376.171 431.802C376.536 423.081 373.627 413.997 373.627 413.997C373.627 413.997 375.446 382.017 373.991 363.12C372.537 344.225 368.541 321.331 368.541 314.426C368.541 307.521 372.537 294.803 374.355 280.63C376.171 266.457 376.898 245.744 376.898 241.384C376.898 237.023 322.389 235.933 322.389 235.933L321.662 241.02Z" stroke="#1A2E35" stroke-width="1.33333" stroke-miterlimit="10" stroke-linecap="round" stroke-linejoin="round"/>
<path d="M335.471 128.004C335.471 128.004 308.579 132.729 303.856 133.456C299.131 134.181 296.224 141.45 295.133 147.628C294.043 153.805 287.866 234.115 290.41 236.296C292.953 238.476 361.272 245.744 368.903 246.107C376.535 246.472 379.079 246.834 379.805 241.384C380.531 235.932 391.628 157.936 393.719 150.824C397.35 138.478 364.543 132.002 356.911 130.185C349.28 128.368 335.471 128.004 335.471 128.004Z" fill="#C0C0C0"/>
<path d="M335.471 128.004C335.471 128.004 308.579 132.729 303.856 133.456C299.131 134.181 296.224 141.45 295.133 147.628C294.043 153.805 287.866 234.115 290.41 236.296C292.953 238.476 361.272 245.744 368.903 246.107C376.535 246.472 379.079 246.834 379.805 241.384C380.531 235.932 391.628 157.936 393.719 150.824C397.35 138.478 364.543 132.002 356.911 130.185C349.28 128.368 335.471 128.004 335.471 128.004Z" stroke="#1A2E35" stroke-width="1.33333" stroke-miterlimit="10" stroke-linecap="round" stroke-linejoin="round"/>
<path d="M371.616 133.974C371.616 133.974 358.365 173.793 356.186 179.606C354.005 185.421 354.005 186.875 354.005 186.875L309.308 177.426C309.308 177.426 314.032 154.896 315.848 148.717C317.665 142.54 321.989 130.355 321.989 130.355L318.756 130.912C318.756 130.912 308.217 164.707 305.673 173.793C303.129 182.877 291.137 211.949 290.411 221.033C289.685 230.118 286.05 263.914 284.96 286.445C283.87 308.975 285.323 332.596 285.323 332.596C285.323 332.596 327.84 340.591 340.56 340.227C353.278 339.863 361.273 339.863 361.273 339.863C361.273 339.863 360.183 296.619 361.636 282.811C363.089 269.002 367.813 243.563 367.813 243.563L379.443 242.838L379.805 241.384L365.633 240.294C365.633 240.294 358.002 190.144 358.002 188.327V185.421L374.036 134.957L371.616 133.974Z" fill="#1A2E35"/>
<path d="M371.616 133.974C371.616 133.974 358.365 173.793 356.186 179.606C354.005 185.421 354.005 186.875 354.005 186.875L309.308 177.426C309.308 177.426 314.032 154.896 315.848 148.717C317.665 142.54 321.989 130.355 321.989 130.355L318.756 130.912C318.756 130.912 308.217 164.707 305.673 173.793C303.129 182.877 291.137 211.949 290.411 221.033C289.685 230.118 286.05 263.914 284.96 286.445C283.87 308.975 285.323 332.596 285.323 332.596C285.323 332.596 327.84 340.591 340.56 340.227C353.278 339.863 361.273 339.863 361.273 339.863C361.273 339.863 360.183 296.619 361.636 282.811C363.089 269.002 367.813 243.563 367.813 243.563L379.443 242.838L379.805 241.384L365.633 240.294C365.633 240.294 358.002 190.144 358.002 188.327V185.421L374.036 134.957L371.616 133.974Z" stroke="#1A2E35" stroke-width="1.33333" stroke-miterlimit="10" stroke-linecap="round" stroke-linejoin="round"/>
<path d="M388.58 273.775C388.58 273.775 380.248 285.772 379.581 287.771C378.915 289.77 380.915 298.103 380.915 300.768C380.915 303.434 384.247 303.434 384.247 303.434C384.247 303.434 382.581 307.767 384.581 309.434C386.58 311.1 395.245 310.766 396.911 307.767C398.578 304.768 405.243 294.437 405.243 289.437C405.243 284.44 403.576 277.107 403.576 277.107L388.58 273.775Z" fill="#838383"/>
<path d="M388.58 273.775C388.58 273.775 380.248 285.772 379.581 287.771C378.915 289.77 380.915 298.103 380.915 300.768C380.915 303.434 384.247 303.434 384.247 303.434C384.247 303.434 382.581 307.767 384.581 309.434C386.58 311.1 395.245 310.766 396.911 307.767C398.578 304.768 405.243 294.437 405.243 289.437C405.243 284.44 403.576 277.107 403.576 277.107L388.58 273.775Z" stroke="#1A2E35" stroke-width="1.33333" stroke-miterlimit="10" stroke-linecap="round" stroke-linejoin="round"/>
<path d="M384.248 303.434C384.248 303.434 386.915 301.102 386.915 298.102C386.915 295.104 389.581 290.104 389.581 290.104" stroke="#1A2E35" stroke-width="1.33333" stroke-miterlimit="10" stroke-linecap="round" stroke-linejoin="round"/>
<path d="M389.247 266.11C388.914 267.109 386.581 274.108 388.58 276.108C390.579 278.107 402.911 280.106 404.243 278.773C405.577 277.44 407.91 269.775 407.91 269.775L389.247 266.11Z" fill="#C0C0C0"/>
<path d="M389.247 266.11C388.914 267.109 386.581 274.108 388.58 276.108C390.579 278.107 402.911 280.106 404.243 278.773C405.577 277.44 407.91 269.775 407.91 269.775L389.247 266.11Z" stroke="#1A2E35" stroke-width="1.33333" stroke-miterlimit="10" stroke-linecap="round" stroke-linejoin="round"/>
<path d="M374.918 188.793L388.248 219.453C388.248 219.453 383.916 263.11 386.248 266.775C388.581 270.442 407.578 272.108 410.909 269.776C414.242 267.442 416.574 259.111 417.909 244.114C419.241 229.117 411.91 187.127 409.91 180.129C407.911 173.129 394.579 145.136 391.581 142.803C388.581 140.471 382.916 141.138 381.25 141.804" fill="#C0C0C0"/>
<path d="M374.918 188.793L388.248 219.453C388.248 219.453 383.916 263.11 386.248 266.775C388.581 270.442 407.578 272.108 410.909 269.776C414.242 267.442 416.574 259.111 417.909 244.114C419.241 229.117 411.91 187.127 409.91 180.129C407.911 173.129 394.579 145.136 391.581 142.803C388.581 140.471 382.916 141.138 381.25 141.804" stroke="#1A2E35" stroke-width="1.33333" stroke-miterlimit="10" stroke-linecap="round" stroke-linejoin="round"/>
<path d="M257.277 148.802C257.277 148.802 254.278 136.805 251.612 132.139C248.945 127.473 231.283 121.141 229.283 121.141C227.283 121.141 227.951 125.474 227.951 129.473C227.951 133.472 228.617 140.471 232.948 145.136C237.281 149.802 244.947 153.135 244.947 153.135L247.279 158.8L259.276 152.468L257.277 148.802Z" fill="#838383"/>
<path d="M257.277 148.802C257.277 148.802 254.278 136.805 251.612 132.139C248.945 127.473 231.283 121.141 229.283 121.141C227.283 121.141 227.951 125.474 227.951 129.473C227.951 133.472 228.617 140.471 232.948 145.136C237.281 149.802 244.947 153.135 244.947 153.135L247.279 158.8L259.276 152.468L257.277 148.802Z" stroke="#1A2E35" stroke-width="1.33333" stroke-miterlimit="10" stroke-linecap="round" stroke-linejoin="round"/>
<path d="M250.365 116.688L250.993 113.907C251.692 110.813 249.685 107.756 246.569 107.166C244.008 106.681 241.449 108.027 240.399 110.413L214.957 168.166" stroke="#1A2E35" stroke-width="1.33333" stroke-miterlimit="10" stroke-linecap="round" stroke-linejoin="round"/>
<path d="M188.559 164.08C188.776 171.335 194.712 177.153 202.021 177.153C209.328 177.153 215.264 171.335 215.482 164.08H188.559Z" fill="white"/>
<path d="M188.559 164.08C188.776 171.335 194.712 177.153 202.021 177.153C209.328 177.153 215.264 171.335 215.482 164.08H188.559Z" stroke="#1A2E35" stroke-width="1.33333" stroke-miterlimit="10" stroke-linecap="round" stroke-linejoin="round"/>
<path d="M192.922 146.806C193.022 145.896 193.267 144.897 193.684 143.722" stroke="#1A2E35" stroke-width="1.33333" stroke-miterlimit="10" stroke-linecap="round" stroke-linejoin="round"/>
<path d="M192.533 161.622C194.83 160.503 195.927 156.58 194.977 154.48C194.215 152.796 193.609 151.479 193.246 150.235" stroke="#1A2E35" stroke-width="1.33333" stroke-miterlimit="10" stroke-linecap="round" stroke-linejoin="round"/>
<path d="M200.748 161.622C203.045 160.503 204.141 156.58 203.191 154.48C202.028 151.907 201.228 150.191 201.102 148.282" stroke="#1A2E35" stroke-width="1.33333" stroke-miterlimit="10" stroke-linecap="round" stroke-linejoin="round"/>
<path d="M209.445 146.171C209.575 145.433 209.794 144.63 210.117 143.722" stroke="#1A2E35" stroke-width="1.33333" stroke-miterlimit="10" stroke-linecap="round" stroke-linejoin="round"/>
<path d="M208.965 161.622C211.262 160.503 212.358 156.58 211.408 154.48C210.71 152.935 210.142 151.699 209.772 150.544" stroke="#1A2E35" stroke-width="1.33333" stroke-miterlimit="10" stroke-linecap="round" stroke-linejoin="round"/>
<path d="M231.949 121.142C231.949 121.142 223.284 119.142 222.617 120.809C221.951 122.475 221.951 125.807 223.284 126.808C224.618 127.807 233.615 128.14 234.615 127.807C235.614 127.474 237.958 121.735 231.949 121.142Z" fill="#838383"/>
<path d="M231.949 121.142C231.949 121.142 223.284 119.142 222.617 120.809C221.951 122.475 221.951 125.807 223.284 126.808C224.618 127.807 233.615 128.14 234.615 127.807C235.614 127.474 237.958 121.735 231.949 121.142Z" stroke="#1A2E35" stroke-width="1.33333" stroke-miterlimit="10" stroke-linecap="round" stroke-linejoin="round"/>
<path d="M234.101 129.081C234.101 129.081 225.437 127.082 224.769 128.748C224.103 130.415 224.103 133.747 225.437 134.747C226.77 135.746 235.767 136.079 236.767 135.746C237.767 135.413 240.111 129.675 234.101 129.081Z" fill="#838383"/>
<path d="M234.101 129.081C234.101 129.081 225.437 127.082 224.769 128.748C224.103 130.415 224.103 133.747 225.437 134.747C226.77 135.746 235.767 136.079 236.767 135.746C237.767 135.413 240.111 129.675 234.101 129.081Z" stroke="#1A2E35" stroke-width="1.33333" stroke-miterlimit="10" stroke-linecap="round" stroke-linejoin="round"/>
<path d="M234.913 135.898C234.913 135.898 226.035 135.397 225.661 137.152C225.286 138.907 225.852 142.192 227.335 142.951C228.818 143.71 237.742 142.512 238.671 142.015C239.6 141.517 240.937 135.465 234.913 135.898Z" fill="#838383"/>
<path d="M234.913 135.898C234.913 135.898 226.035 135.397 225.661 137.152C225.286 138.907 225.852 142.192 227.335 142.951C228.818 143.71 237.742 142.512 238.671 142.015C239.6 141.517 240.937 135.465 234.913 135.898Z" stroke="#1A2E35" stroke-width="1.33333" stroke-miterlimit="10" stroke-linecap="round" stroke-linejoin="round"/>
<path d="M236.034 143.014C236.034 143.014 228.702 142.599 228.393 144.049C228.084 145.499 228.55 148.21 229.776 148.838C231 149.464 238.369 148.475 239.137 148.064C239.903 147.653 241.007 142.655 236.034 143.014Z" fill="#838383"/>
<path d="M236.034 143.014C236.034 143.014 228.702 142.599 228.393 144.049C228.084 145.499 228.55 148.21 229.776 148.838C231 149.464 238.369 148.475 239.137 148.064C239.903 147.653 241.007 142.655 236.034 143.014Z" stroke="#1A2E35" stroke-width="1.33333" stroke-miterlimit="10" stroke-linecap="round" stroke-linejoin="round"/>
<path d="M254.611 141.47C254.611 141.47 252.278 128.473 250.945 126.14C249.612 123.808 237.614 117.476 235.282 116.143C232.948 114.809 228.95 113.143 228.284 115.477C227.618 117.809 228.617 119.808 230.616 121.142C232.616 122.475 237.614 124.474 237.614 125.474C237.614 126.474 240.281 137.472 245.947 141.47" fill="#838383"/>
<path d="M254.611 141.47C254.611 141.47 252.278 128.473 250.945 126.14C249.612 123.808 237.614 117.476 235.282 116.143C232.948 114.809 228.95 113.143 228.284 115.477C227.618 117.809 228.617 119.808 230.616 121.142C232.616 122.475 237.614 124.474 237.614 125.474C237.614 126.474 240.281 137.472 245.947 141.47" stroke="#1A2E35" stroke-width="1.33333" stroke-miterlimit="10" stroke-linecap="round" stroke-linejoin="round"/>
<path d="M258.537 149.1C258.537 149.1 241.923 157.543 243.012 159.722C244.101 161.901 244.645 165.442 244.645 165.442C244.645 165.442 262.078 157.543 262.35 155.908C262.621 154.274 260.443 150.189 258.537 149.1Z" fill="#C0C0C0"/>
<path d="M258.537 149.1C258.537 149.1 241.923 157.543 243.012 159.722C244.101 161.901 244.645 165.442 244.645 165.442C244.645 165.442 262.078 157.543 262.35 155.908C262.621 154.274 260.443 150.189 258.537 149.1Z" stroke="#1A2E35" stroke-width="1.33333" stroke-miterlimit="10" stroke-linecap="round" stroke-linejoin="round"/>
<path d="M329.293 118.193C329.293 118.193 327.477 134.546 327.477 141.45C327.477 148.355 329.657 160.347 343.465 155.622C357.275 150.899 361.272 133.819 361.272 130.548C361.272 127.277 362.725 102.93 362.725 102.93C362.725 102.93 352.914 113.468 344.919 116.012C336.925 118.556 329.293 118.193 329.293 118.193Z" fill="white"/>
<path d="M329.293 118.193C329.293 118.193 327.477 134.546 327.477 141.45C327.477 148.355 329.657 160.347 343.465 155.622C357.275 150.899 361.272 133.819 361.272 130.548C361.272 127.277 362.725 102.93 362.725 102.93C362.725 102.93 352.914 113.468 344.919 116.012C336.925 118.556 329.293 118.193 329.293 118.193Z" stroke="#1A2E35" stroke-width="1.33333" stroke-miterlimit="10" stroke-linecap="round" stroke-linejoin="round"/>
<path d="M344.919 116.012C336.925 118.556 329.293 118.193 329.293 118.193C329.293 118.193 328.986 120.957 328.625 124.69C332.176 126.592 336.999 127.188 340.7 127.396C350.457 127.942 357.032 118.424 362.243 111.202C362.509 106.56 362.726 102.93 362.726 102.93C362.726 102.93 352.915 113.468 344.919 116.012Z" fill="#1A2E35"/>
<path d="M344.919 116.012C336.925 118.556 329.293 118.193 329.293 118.193C329.293 118.193 328.986 120.957 328.625 124.69C332.176 126.592 336.999 127.188 340.7 127.396C350.457 127.942 357.032 118.424 362.243 111.202C362.509 106.56 362.726 102.93 362.726 102.93C362.726 102.93 352.915 113.468 344.919 116.012Z" stroke="#1A2E35" stroke-width="1.33333" stroke-miterlimit="10" stroke-linecap="round" stroke-linejoin="round"/>
<path d="M325.625 66.4939C325.625 66.4939 329.868 53.4662 334.613 48.7207C339.359 43.9753 367.452 43.1877 371.335 46.6386C375.217 50.0896 378.668 57.4251 379.532 63.465C380.394 69.5049 373.491 83.3108 373.491 83.3108L325.625 66.4939Z" fill="#1A2E35"/>
<path d="M325.625 66.4939C325.625 66.4939 329.868 53.4662 334.613 48.7207C339.359 43.9753 367.452 43.1877 371.335 46.6386C375.217 50.0896 378.668 57.4251 379.532 63.465C380.394 69.5049 373.491 83.3108 373.491 83.3108L325.625 66.4939Z" stroke="#1A2E35" stroke-width="1.33333" stroke-miterlimit="10" stroke-linecap="round" stroke-linejoin="round"/>
<path d="M324.569 74.2219C324.569 74.2219 321.3 84.0333 321.663 90.9383C322.025 97.8423 323.48 104.747 323.48 109.108C323.48 113.468 322.753 117.103 326.752 120.374C330.292 123.269 336.301 124.042 340.699 124.288C350.992 124.864 357.745 114.24 363.089 106.928C363.089 106.928 373.265 105.838 373.991 100.023C374.718 94.208 373.059 91.508 373.059 91.508L373.491 83.3106C373.491 83.3106 339.47 66.59 324.569 74.2219Z" fill="white"/>
<path d="M324.569 74.2219C324.569 74.2219 321.3 84.0333 321.663 90.9383C322.025 97.8423 323.48 104.747 323.48 109.108C323.48 113.468 322.753 117.103 326.752 120.374C330.292 123.269 336.301 124.042 340.699 124.288C350.992 124.864 357.745 114.24 363.089 106.928C363.089 106.928 373.265 105.838 373.991 100.023C374.718 94.208 373.059 91.508 373.059 91.508L373.491 83.3106C373.491 83.3106 339.47 66.59 324.569 74.2219Z" stroke="#1A2E35" stroke-width="1.33333" stroke-miterlimit="10" stroke-linecap="round" stroke-linejoin="round"/>
<path d="M362.363 83.3069C362.363 83.3069 360.183 93.4817 361.636 94.2085C363.089 94.9353 370.721 92.028 371.084 88.7582C371.448 85.4874 367.45 82.9435 362.363 83.3069Z" fill="#1A2E35"/>
<path d="M362.363 83.3069C362.363 83.3069 360.183 93.4817 361.636 94.2085C363.089 94.9353 370.721 92.028 371.084 88.7582C371.448 85.4874 367.45 82.9435 362.363 83.3069Z" stroke="#1A2E35" stroke-width="1.33333" stroke-miterlimit="10" stroke-linecap="round" stroke-linejoin="round"/>
<path d="M323.014 75.5449C323.014 75.5449 339.84 78.1339 353.214 82.4479C366.588 86.7618 373.06 91.5083 373.06 91.5083C373.06 91.5083 377.375 84.1739 376.943 80.2904C376.512 76.4079 357.959 69.505 342.86 66.4845C327.76 63.4651 325.172 63.8955 323.876 65.6215C322.583 67.3475 320.856 73.8189 323.014 75.5449Z" fill="#1A2E35"/>
<path d="M323.014 75.5449C323.014 75.5449 339.84 78.1339 353.214 82.4479C366.588 86.7618 373.06 91.5083 373.06 91.5083C373.06 91.5083 377.375 84.1739 376.943 80.2904C376.512 76.4079 357.959 69.505 342.86 66.4845C327.76 63.4651 325.172 63.8955 323.876 65.6215C322.583 67.3475 320.856 73.8189 323.014 75.5449Z" stroke="#1A2E35" stroke-width="1.33333" stroke-miterlimit="10" stroke-linecap="round" stroke-linejoin="round"/>
<path d="M335.108 83.6699C335.108 83.6699 326.023 98.5692 328.203 100.75C330.383 102.93 335.472 104.384 336.925 103.657" stroke="#1A2E35" stroke-width="1.33333" stroke-miterlimit="10" stroke-linecap="round" stroke-linejoin="round"/>
<path d="M328.203 107.291C328.203 107.291 347.1 112.742 351.097 102.567" stroke="#1A2E35" stroke-width="1.33333" stroke-miterlimit="10" stroke-linecap="round" stroke-linejoin="round"/>
<path d="M348.189 101.113L353.641 103.294" stroke="#1A2E35" stroke-width="1.33333" stroke-miterlimit="10" stroke-linecap="round" stroke-linejoin="round"/>
<path d="M348.191 86.7592C348.191 88.2642 347.459 89.4844 346.555 89.4844C345.652 89.4844 344.92 88.2642 344.92 86.7592C344.92 85.2542 345.652 84.033 346.555 84.033C347.459 84.033 348.191 85.2542 348.191 86.7592Z" fill="#1A2E35"/>
<path d="M332.019 83.1249C332.019 84.6299 331.287 85.8511 330.383 85.8511C329.48 85.8511 328.748 84.6299 328.748 83.1249C328.748 81.6199 329.48 80.3997 330.383 80.3997C331.287 80.3997 332.019 81.6199 332.019 83.1249Z" fill="#1A2E35"/>
<path d="M344.92 78.219C344.92 78.219 354.005 78.5824 353.642 85.8508" stroke="#1A2E35" stroke-width="1.33333" stroke-miterlimit="10" stroke-linecap="round" stroke-linejoin="round"/>
<path d="M332.927 76.0389C332.927 76.0389 330.748 74.5852 326.023 79.6731" stroke="#1A2E35" stroke-width="1.33333" stroke-miterlimit="10" stroke-linecap="round" stroke-linejoin="round"/>
<path d="M202.166 453.97H191.881V306.029H202.166V453.97Z" fill="white" stroke="#1A2E35" stroke-width="1.33333" stroke-miterlimit="10" stroke-linecap="round" stroke-linejoin="round"/>
<path d="M209.285 453.97H199V306.029H209.285V453.97Z" fill="#1A2E35" stroke="#1A2E35" stroke-width="1.33333" stroke-miterlimit="10" stroke-linecap="round" stroke-linejoin="round"/>
<path d="M251.215 453.97H240.932V306.029H251.215V453.97Z" fill="white" stroke="#1A2E35" stroke-width="1.33333" stroke-miterlimit="10" stroke-linecap="round" stroke-linejoin="round"/>
<path d="M258.334 453.97H248.049V306.029H258.334V453.97Z" fill="#1A2E35" stroke="#1A2E35" stroke-width="1.33333" stroke-miterlimit="10" stroke-linecap="round" stroke-linejoin="round"/>
<path d="M360.389 453.97H350.105V306.029H360.389V453.97Z" fill="white" stroke="#1A2E35" stroke-width="1.33333" stroke-miterlimit="10" stroke-linecap="round" stroke-linejoin="round"/>
<path d="M367.511 453.97H357.227V306.029H367.511V453.97Z" fill="#1A2E35" stroke="#1A2E35" stroke-width="1.33333" stroke-miterlimit="10" stroke-linecap="round" stroke-linejoin="round"/>
<path d="M409.44 453.97H399.156V306.029H409.44V453.97Z" fill="white" stroke="#1A2E35" stroke-width="1.33333" stroke-miterlimit="10" stroke-linecap="round" stroke-linejoin="round"/>
<path d="M416.56 453.97H406.275V306.029H416.56V453.97Z" fill="#1A2E35" stroke="#1A2E35" stroke-width="1.33333" stroke-miterlimit="10" stroke-linecap="round" stroke-linejoin="round"/>
<path d="M426.844 313.15H185.551V300.492H426.844V313.15Z" fill="white" stroke="#1A2E35" stroke-width="1.33333" stroke-miterlimit="10" stroke-linecap="round" stroke-linejoin="round"/>
<path d="M426.845 313.15H361.182V300.492H426.845V313.15Z" fill="#1A2E35" stroke="#1A2E35" stroke-width="1.33333" stroke-miterlimit="10" stroke-linecap="round" stroke-linejoin="round"/>
<path d="M430.801 303.656H177.641V297.327H430.801V303.656Z" fill="white" stroke="#1A2E35" stroke-width="1.33333" stroke-miterlimit="10" stroke-linecap="round" stroke-linejoin="round"/>
<path d="M430.8 303.656H367.51V297.327H430.8V303.656Z" fill="#1A2E35" stroke="#1A2E35" stroke-width="1.33333" stroke-miterlimit="10" stroke-linecap="round" stroke-linejoin="round"/>
<path d="M270.846 238.736H287.709C289.222 238.736 290.45 237.51 290.45 235.995V235.774C290.45 234.261 289.222 233.033 287.709 233.033H270.846V238.736Z" fill="white"/>
<path d="M270.846 238.736H287.709C289.222 238.736 290.45 237.51 290.45 235.995V235.774C290.45 234.261 289.222 233.033 287.709 233.033H270.846V238.736Z" stroke="#1A2E35" stroke-width="1.33333" stroke-miterlimit="10" stroke-linecap="round" stroke-linejoin="round"/>
<path d="M272.323 297.177H209.485C204.868 297.177 201.125 293.434 201.125 288.816V221.703H280.684V288.816C280.684 293.434 276.941 297.177 272.323 297.177Z" fill="white"/>
<path d="M272.323 297.177H209.485C204.868 297.177 201.125 293.434 201.125 288.816V221.703H280.684V288.816C280.684 293.434 276.941 297.177 272.323 297.177Z" stroke="#1A2E35" stroke-width="1.33333" stroke-miterlimit="10" stroke-linecap="round" stroke-linejoin="round"/>
<path d="M271.202 221.702V288.479C271.202 293.283 267.308 297.177 262.504 297.177H268.92C273.723 297.177 277.618 293.283 277.618 288.479V221.702H271.202Z" fill="#1A2E35"/>
<path d="M271.202 221.702V288.479C271.202 293.283 267.308 297.177 262.504 297.177H268.92C273.723 297.177 277.618 293.283 277.618 288.479V221.702H271.202Z" stroke="#1A2E35" stroke-width="1.33333" stroke-miterlimit="10" stroke-linecap="round" stroke-linejoin="round"/>
<path d="M213.463 221.702V288.479C213.463 293.283 220.421 297.177 225.224 297.177H218.808C214.006 297.177 210.111 293.283 210.111 288.479V221.702H213.463Z" fill="#1A2E35"/>
<path d="M213.463 221.702V288.479C213.463 293.283 220.421 297.177 225.224 297.177H218.808C214.006 297.177 210.111 293.283 210.111 288.479V221.702H213.463Z" stroke="#1A2E35" stroke-width="1.33333" stroke-miterlimit="10" stroke-linecap="round" stroke-linejoin="round"/>
<path d="M280.161 225.857H201.649C199.811 225.857 198.32 224.367 198.32 222.529V222.261C198.32 220.423 199.811 218.933 201.649 218.933H280.161C281.999 218.933 283.489 220.423 283.489 222.261V222.529C283.489 224.367 281.999 225.857 280.161 225.857Z" fill="white"/>
<path d="M280.161 225.857H201.649C199.811 225.857 198.32 224.367 198.32 222.529V222.261C198.32 220.423 199.811 218.933 201.649 218.933H280.161C281.999 218.933 283.489 220.423 283.489 222.261V222.529C283.489 224.367 281.999 225.857 280.161 225.857Z" stroke="#1A2E35" stroke-width="1.33333" stroke-miterlimit="10" stroke-linecap="round" stroke-linejoin="round"/>
<path d="M208.116 238.736H191.255C189.741 238.736 188.514 237.51 188.514 235.995V235.774C188.514 234.261 189.741 233.033 191.255 233.033H208.116V238.736Z" fill="white"/>
<path d="M208.116 238.736H191.255C189.741 238.736 188.514 237.51 188.514 235.995V235.774C188.514 234.261 189.741 233.033 191.255 233.033H208.116V238.736Z" stroke="#1A2E35" stroke-width="1.33333" stroke-miterlimit="10" stroke-linecap="round" stroke-linejoin="round"/>
<path d="M217.917 238.736H201.055C199.542 238.736 198.314 237.51 198.314 235.995V235.774C198.314 234.261 199.542 233.033 201.055 233.033H217.917V238.736Z" fill="white"/>
<path d="M217.917 238.736H201.055C199.542 238.736 198.314 237.51 198.314 235.995V235.774C198.314 234.261 199.542 233.033 201.055 233.033H217.917V238.736Z" stroke="#1A2E35" stroke-width="1.33333" stroke-miterlimit="10" stroke-linecap="round" stroke-linejoin="round"/>
<path d="M280.468 224.48H201.344V223.41H280.468V224.48Z" fill="#1A2E35" stroke="#1A2E35" stroke-width="1.33333" stroke-miterlimit="10" stroke-linecap="round" stroke-linejoin="round"/>
<path d="M242.129 195.694C240.612 193.842 238.834 192.296 238.834 188.669C238.834 186.232 239.638 184.734 240.625 183.451" stroke="#1A2E35" stroke-width="1.33333" stroke-miterlimit="10" stroke-linecap="round" stroke-linejoin="round"/>
<path d="M238.834 213.941C238.834 207.626 244.236 207.626 244.236 201.309C244.236 200.461 244.139 199.726 243.97 199.075" stroke="#1A2E35" stroke-width="1.33333" stroke-miterlimit="10" stroke-linecap="round" stroke-linejoin="round"/>
<path d="M258.303 190.417C257.953 189.499 257.734 188.418 257.734 187.065" stroke="#1A2E35" stroke-width="1.33333" stroke-miterlimit="10" stroke-linecap="round" stroke-linejoin="round"/>
<path d="M257.734 213.941C257.734 207.224 263.136 207.224 263.136 200.507C263.136 196.759 261.457 195.101 259.97 193.201" stroke="#1A2E35" stroke-width="1.33333" stroke-miterlimit="10" stroke-linecap="round" stroke-linejoin="round"/>
<path d="M217.236 189.719C217.129 189.164 217.07 188.551 217.07 187.867C217.07 186.613 217.27 185.601 217.593 184.737" stroke="#1A2E35" stroke-width="1.33333" stroke-miterlimit="10" stroke-linecap="round" stroke-linejoin="round"/>
<path d="M217.07 213.941C217.07 207.425 222.472 207.425 222.472 200.908C222.472 197.692 221.158 196.062 219.826 194.454" stroke="#1A2E35" stroke-width="1.33333" stroke-miterlimit="10" stroke-linecap="round" stroke-linejoin="round"/>
<path d="M379.791 238.736H396.653C398.166 238.736 399.394 237.51 399.394 235.995V235.774C399.394 234.261 398.166 233.033 396.653 233.033H379.791V238.736Z" fill="white"/>
<path d="M379.791 238.736H396.653C398.166 238.736 399.394 237.51 399.394 235.995V235.774C399.394 234.261 398.166 233.033 396.653 233.033H379.791V238.736Z" stroke="#1A2E35" stroke-width="1.33333" stroke-miterlimit="10" stroke-linecap="round" stroke-linejoin="round"/>
<path d="M381.27 297.177H318.431C313.813 297.177 310.07 293.434 310.07 288.816V221.703H389.631V288.816C389.631 293.434 385.887 297.177 381.27 297.177Z" fill="white"/>
<path d="M381.27 297.177H318.431C313.813 297.177 310.07 293.434 310.07 288.816V221.703H389.631V288.816C389.631 293.434 385.887 297.177 381.27 297.177Z" stroke="#1A2E35" stroke-width="1.33333" stroke-miterlimit="10" stroke-linecap="round" stroke-linejoin="round"/>
<path d="M380.148 221.702V288.479C380.148 293.283 376.254 297.177 371.451 297.177H377.866C382.67 297.177 386.564 293.283 386.564 288.479V221.702H380.148Z" fill="#1A2E35"/>
<path d="M380.148 221.702V288.479C380.148 293.283 376.254 297.177 371.451 297.177H377.866C382.67 297.177 386.564 293.283 386.564 288.479V221.702H380.148Z" stroke="#1A2E35" stroke-width="1.33333" stroke-miterlimit="10" stroke-linecap="round" stroke-linejoin="round"/>
<path d="M322.408 221.702V288.479C322.408 293.283 329.367 297.177 334.17 297.177H327.754C322.952 297.177 319.057 293.283 319.057 288.479V221.702H322.408Z" fill="#1A2E35"/>
<path d="M322.408 221.702V288.479C322.408 293.283 329.367 297.177 334.17 297.177H327.754C322.952 297.177 319.057 293.283 319.057 288.479V221.702H322.408Z" stroke="#1A2E35" stroke-width="1.33333" stroke-miterlimit="10" stroke-linecap="round" stroke-linejoin="round"/>
<path d="M389.106 225.857H310.594C308.756 225.857 307.266 224.367 307.266 222.529V222.261C307.266 220.423 308.756 218.933 310.594 218.933H389.106C390.944 218.933 392.434 220.423 392.434 222.261V222.529C392.434 224.367 390.944 225.857 389.106 225.857Z" fill="white"/>
<path d="M389.106 225.857H310.594C308.756 225.857 307.266 224.367 307.266 222.529V222.261C307.266 220.423 308.756 218.933 310.594 218.933H389.106C390.944 218.933 392.434 220.423 392.434 222.261V222.529C392.434 224.367 390.944 225.857 389.106 225.857Z" stroke="#1A2E35" stroke-width="1.33333" stroke-miterlimit="10" stroke-linecap="round" stroke-linejoin="round"/>
<path d="M317.063 238.736H300.2C298.686 238.736 297.459 237.51 297.459 235.995V235.774C297.459 234.261 298.686 233.033 300.2 233.033H317.063V238.736Z" fill="white"/>
<path d="M317.063 238.736H300.2C298.686 238.736 297.459 237.51 297.459 235.995V235.774C297.459 234.261 298.686 233.033 300.2 233.033H317.063V238.736Z" stroke="#1A2E35" stroke-width="1.33333" stroke-miterlimit="10" stroke-linecap="round" stroke-linejoin="round"/>
<path d="M326.865 238.736H310.003C308.488 238.736 307.262 237.51 307.262 235.995V235.774C307.262 234.261 308.488 233.033 310.003 233.033H326.865V238.736Z" fill="white"/>
<path d="M326.865 238.736H310.003C308.488 238.736 307.262 237.51 307.262 235.995V235.774C307.262 234.261 308.488 233.033 310.003 233.033H326.865V238.736Z" stroke="#1A2E35" stroke-width="1.33333" stroke-miterlimit="10" stroke-linecap="round" stroke-linejoin="round"/>
<path d="M389.416 224.48H310.291V223.41H389.416V224.48Z" fill="#1A2E35" stroke="#1A2E35" stroke-width="1.33333" stroke-miterlimit="10" stroke-linecap="round" stroke-linejoin="round"/>
<path d="M350.052 205.437H349.916C348.981 205.437 348.223 206.196 348.223 207.131V211.963C348.223 212.9 348.981 213.658 349.916 213.658H350.052C350.988 213.658 351.746 212.9 351.746 211.963V207.131C351.746 206.196 350.988 205.437 350.052 205.437Z" fill="#5C5C5C"/>
<path d="M350.052 205.437H349.916C348.981 205.437 348.223 206.196 348.223 207.131V211.963C348.223 212.9 348.981 213.658 349.916 213.658H350.052C350.988 213.658 351.746 212.9 351.746 211.963V207.131C351.746 206.196 350.988 205.437 350.052 205.437Z" stroke="#1A2E35" stroke-width="1.33333" stroke-miterlimit="10" stroke-linecap="round" stroke-linejoin="round"/>
<path d="M310.729 218.933L314.115 216.562C318.125 213.754 322.901 212.248 327.795 212.248H372.413C378.591 212.248 384.526 214.644 388.972 218.933H310.729Z" fill="#5C5C5C"/>
<path d="M310.729 218.933L314.115 216.562C318.125 213.754 322.901 212.248 327.795 212.248H372.413C378.591 212.248 384.526 214.644 388.972 218.933H310.729Z" stroke="#1A2E35" stroke-width="1.33333" stroke-miterlimit="10" stroke-linecap="round" stroke-linejoin="round"/>
<path d="M107.313 159.788C107.313 159.788 111.655 167.231 113.516 171.572C115.376 175.913 117.857 181.494 115.376 180.254C112.896 179.013 110.415 177.463 108.243 177.463C106.073 177.463 105.453 179.944 104.522 178.083C103.592 176.223 107.313 159.788 107.313 159.788Z" fill="#28B3DD"/>
<path d="M107.313 159.788C107.313 159.788 111.655 167.231 113.516 171.572C115.376 175.913 117.857 181.494 115.376 180.254C112.896 179.013 110.415 177.463 108.243 177.463C106.073 177.463 105.453 179.944 104.522 178.083C103.592 176.223 107.313 159.788 107.313 159.788Z" stroke="#1A2E35" stroke-width="1.33333" stroke-miterlimit="10" stroke-linecap="round" stroke-linejoin="round"/>
<path d="M100.802 427.083C100.802 427.083 115.685 435.766 121.267 437.626C126.849 439.487 130.57 442.898 130.88 446.308L131.19 449.719L130.88 452.2H62.971C62.971 452.2 61.4199 448.79 61.4199 444.138C61.4199 439.487 63.901 438.557 65.1411 435.766C66.3822 432.974 96.1503 424.913 96.1503 424.913L100.802 427.083Z" fill="#28B3DD"/>
<path d="M100.802 427.083C100.802 427.083 115.685 435.766 121.267 437.626C126.849 439.487 130.57 442.898 130.88 446.308L131.19 449.719L130.88 452.2H62.971C62.971 452.2 61.4199 448.79 61.4199 444.138C61.4199 439.487 63.901 438.557 65.1411 435.766C66.3822 432.974 96.1503 424.913 96.1503 424.913L100.802 427.083Z" stroke="#1A2E35" stroke-width="1.33333" stroke-miterlimit="10" stroke-linecap="round" stroke-linejoin="round"/>
<path d="M62.0684 449.41C62.4936 451.144 62.9722 452.201 62.9722 452.201H130.882L131.192 449.72L130.882 446.308C130.571 442.897 126.85 439.486 121.269 437.626V449.41H62.0684Z" fill="white"/>
<path d="M62.0684 449.41C62.4936 451.144 62.9722 452.201 62.9722 452.201H130.882L131.192 449.72L130.882 446.308C130.571 442.897 126.85 439.486 121.269 437.626V449.41H62.0684Z" stroke="#1A2E35" stroke-width="1.33333" stroke-miterlimit="10" stroke-linecap="round" stroke-linejoin="round"/>
<path d="M117.546 279.172C117.546 279.172 119.717 282.893 117.856 284.443C115.996 285.994 115.065 286.613 115.065 286.613C115.065 286.613 117.236 290.645 115.996 294.986C114.755 299.328 109.174 317.622 109.174 326.305C109.174 334.987 109.794 356.384 106.383 368.477C102.971 380.57 96.1502 406.927 97.0802 412.819C98.0103 418.71 101.421 421.501 102.041 423.053C102.662 424.602 102.662 427.084 102.662 428.944C102.662 430.804 96.1502 439.176 85.2968 443.207C74.4444 447.24 65.452 447.858 63.2809 447.24C61.1108 446.618 58.9397 442.897 59.2497 439.796C59.5597 436.696 60.4898 436.075 60.4898 433.905C60.4898 431.735 55.5286 410.648 56.1486 398.866C56.7697 387.082 66.692 369.096 66.692 360.414C66.692 351.732 63.5909 336.537 61.1108 327.546C58.6297 318.553 58.0097 316.692 58.0097 315.762C58.0097 314.832 54.5986 307.7 52.4285 301.808C50.2574 295.916 47.1562 290.334 47.1562 284.133C47.1562 277.931 48.0873 271.731 48.0873 271.731L50.8774 264.597C50.8774 264.597 115.065 273.591 115.996 273.591C116.926 273.591 117.546 279.172 117.546 279.172Z" fill="#1A2E35"/>
<path d="M117.546 279.172C117.546 279.172 119.717 282.893 117.856 284.443C115.996 285.994 115.065 286.613 115.065 286.613C115.065 286.613 117.236 290.645 115.996 294.986C114.755 299.328 109.174 317.622 109.174 326.305C109.174 334.987 109.794 356.384 106.383 368.477C102.971 380.57 96.1502 406.927 97.0802 412.819C98.0103 418.71 101.421 421.501 102.041 423.053C102.662 424.602 102.662 427.084 102.662 428.944C102.662 430.804 96.1502 439.176 85.2968 443.207C74.4444 447.24 65.452 447.858 63.2809 447.24C61.1108 446.618 58.9397 442.897 59.2497 439.796C59.5597 436.696 60.4898 436.075 60.4898 433.905C60.4898 431.735 55.5286 410.648 56.1486 398.866C56.7697 387.082 66.692 369.096 66.692 360.414C66.692 351.732 63.5909 336.537 61.1108 327.546C58.6297 318.553 58.0097 316.692 58.0097 315.762C58.0097 314.832 54.5986 307.7 52.4285 301.808C50.2574 295.916 47.1562 290.334 47.1562 284.133C47.1562 277.931 48.0873 271.731 48.0873 271.731L50.8774 264.597C50.8774 264.597 115.065 273.591 115.996 273.591C116.926 273.591 117.546 279.172 117.546 279.172Z" stroke="#1A2E35" stroke-width="1.33333" stroke-miterlimit="10" stroke-linecap="round" stroke-linejoin="round"/>
<path d="M123.027 250.634C123.027 250.634 139.393 242.45 142.048 239.575C144.702 236.7 142.048 230.064 142.932 230.064C143.817 230.064 149.125 227.853 149.568 225.862C150.01 223.871 149.125 220.554 150.01 220.554C150.895 220.554 161.07 218.121 165.051 218.342C169.032 218.563 179.649 219.005 183.187 213.918C186.726 208.831 189.38 204.407 189.38 203.08C189.38 201.753 188.303 201.373 186.077 202.891C183.851 204.407 165.272 204.85 160.185 204.85C155.098 204.85 153.107 204.186 150.895 205.955C148.683 207.725 140.278 216.13 139.174 216.13C138.067 216.13 134.528 215.688 132.538 217.9C132.538 217.9 129.883 216.13 127.229 216.573C124.575 217.015 112.41 223.65 112.41 223.65L123.027 250.634Z" fill="#9F9F9F"/>
<path d="M123.027 250.634C123.027 250.634 139.393 242.45 142.048 239.575C144.702 236.7 142.048 230.064 142.932 230.064C143.817 230.064 149.125 227.853 149.568 225.862C150.01 223.871 149.125 220.554 150.01 220.554C150.895 220.554 161.07 218.121 165.051 218.342C169.032 218.563 179.649 219.005 183.187 213.918C186.726 208.831 189.38 204.407 189.38 203.08C189.38 201.753 188.303 201.373 186.077 202.891C183.851 204.407 165.272 204.85 160.185 204.85C155.098 204.85 153.107 204.186 150.895 205.955C148.683 207.725 140.278 216.13 139.174 216.13C138.067 216.13 134.528 215.688 132.538 217.9C132.538 217.9 129.883 216.13 127.229 216.573C124.575 217.015 112.41 223.65 112.41 223.65L123.027 250.634Z" stroke="#1A2E35" stroke-width="1.33333" stroke-miterlimit="10" stroke-linecap="round" stroke-linejoin="round"/>
<path d="M106.694 173.122C106.694 173.122 106.995 173.533 107.45 174.329C108.529 176.214 110.473 180.26 111.345 186.146C112.585 194.518 113.205 210.023 115.996 220.875C118.787 231.729 129.02 248.163 127.47 261.807C125.919 275.451 121.888 279.791 114.756 280.101C107.624 280.412 57.7 269.869 50.2577 267.698C42.8154 265.528 41.2653 266.769 41.8853 259.637C42.5054 252.503 50.2577 226.767 50.5677 217.464C50.8787 208.162 44.0564 187.696 53.6688 172.812C63.2812 157.928 73.8246 148.005 79.7158 149.245C85.6081 150.485 102.663 162.269 106.694 173.122Z" fill="white"/>
<path d="M106.694 173.122C106.694 173.122 106.995 173.533 107.45 174.329C108.529 176.214 110.473 180.26 111.345 186.146C112.585 194.518 113.205 210.023 115.996 220.875C118.787 231.729 129.02 248.163 127.47 261.807C125.919 275.451 121.888 279.791 114.756 280.101C107.624 280.412 57.7 269.869 50.2577 267.698C42.8154 265.528 41.2653 266.769 41.8853 259.637C42.5054 252.503 50.2577 226.767 50.5677 217.464C50.8787 208.162 44.0564 187.696 53.6688 172.812C63.2812 157.928 73.8246 148.005 79.7158 149.245C85.6081 150.485 102.663 162.269 106.694 173.122Z" stroke="#1A2E35" stroke-width="1.33333" stroke-miterlimit="10" stroke-linecap="round" stroke-linejoin="round"/>
<path d="M92.43 81.9567C92.43 81.9567 103.283 77.3055 111.966 78.5456C120.648 79.7856 129.331 86.6079 131.191 91.2591C133.052 95.9103 134.602 98.0814 134.602 101.181C134.602 104.283 134.602 105.214 134.292 106.144L133.982 107.074C133.982 107.074 137.083 114.515 137.393 116.996C137.703 119.477 137.393 120.717 135.222 120.717H133.052C133.052 120.717 130.261 139.322 127.779 141.493C125.299 143.663 117.857 143.974 117.857 143.974C117.857 143.974 110.725 147.074 109.175 156.998C107.625 166.92 105.764 178.394 105.764 178.394C105.764 178.394 89.9489 149.555 88.0889 143.354C86.2288 137.152 85.2977 132.811 85.2977 132.811C85.2977 132.811 88.0889 128.47 88.3989 123.197C88.7089 117.926 81.8876 106.764 83.7477 96.2203C85.6077 85.6779 92.43 81.9567 92.43 81.9567Z" fill="#9A9A9A"/>
<path d="M92.43 81.9567C92.43 81.9567 103.283 77.3055 111.966 78.5456C120.648 79.7856 129.331 86.6079 131.191 91.2591C133.052 95.9103 134.602 98.0814 134.602 101.181C134.602 104.283 134.602 105.214 134.292 106.144L133.982 107.074C133.982 107.074 137.083 114.515 137.393 116.996C137.703 119.477 137.393 120.717 135.222 120.717H133.052C133.052 120.717 130.261 139.322 127.779 141.493C125.299 143.663 117.857 143.974 117.857 143.974C117.857 143.974 110.725 147.074 109.175 156.998C107.625 166.92 105.764 178.394 105.764 178.394C105.764 178.394 89.9489 149.555 88.0889 143.354C86.2288 137.152 85.2977 132.811 85.2977 132.811C85.2977 132.811 88.0889 128.47 88.3989 123.197C88.7089 117.926 81.8876 106.764 83.7477 96.2203C85.6077 85.6779 92.43 81.9567 92.43 81.9567Z" stroke="#1A2E35" stroke-width="1.33333" stroke-miterlimit="10" stroke-linecap="round" stroke-linejoin="round"/>
<path d="M127.78 141.493C129.703 139.811 131.811 128.261 132.662 123.148C130.65 121.616 121.226 120.121 117.546 121.961C113.825 123.821 109.795 126.922 109.174 125.991C108.554 125.061 105.546 111.1 107.716 108.62C109.887 106.14 115.165 106.132 113.925 102.102C112.684 98.0712 107.314 100.255 107.004 96.8426C106.694 93.4315 110.105 90.3314 106.073 89.4014C102.043 88.4714 97.7015 90.0214 97.7015 90.0214C96.7705 90.0214 94.9104 88.7803 94.9104 85.6802C94.9104 83.8977 93.6787 82.5309 92.1036 82.157C90.7316 83.0462 85.3651 87.0522 83.748 96.2205C81.8869 106.763 88.7092 117.926 88.3981 123.198C88.1625 127.212 86.4909 130.68 85.7054 132.11C87.1895 132.704 88.8516 132.925 90.2592 132.503C93.3604 131.573 93.0493 128.782 93.9804 126.612C94.9104 124.441 98.0115 123.821 96.4604 119.79C94.9104 115.758 98.9416 111.417 100.802 111.727C102.663 112.037 104.523 115.138 103.593 116.998C102.663 118.86 100.492 127.852 100.492 132.503C100.492 137.154 101.732 141.185 104.523 142.737C107.171 144.207 111.199 145.675 113.991 146.882C116.009 144.784 117.857 143.974 117.857 143.974C117.857 143.974 125.299 143.663 127.78 141.493" fill="#1A2E35"/>
<path d="M127.78 141.493C129.703 139.811 131.811 128.261 132.662 123.148C130.65 121.616 121.226 120.121 117.546 121.961C113.825 123.821 109.795 126.922 109.174 125.991C108.554 125.061 105.546 111.1 107.716 108.62C109.887 106.14 115.165 106.132 113.925 102.102C112.684 98.0712 107.314 100.255 107.004 96.8426C106.694 93.4315 110.105 90.3314 106.073 89.4014C102.043 88.4714 97.7015 90.0214 97.7015 90.0214C96.7705 90.0214 94.9104 88.7803 94.9104 85.6802C94.9104 83.8977 93.6787 82.5309 92.1036 82.157C90.7316 83.0462 85.3651 87.0522 83.748 96.2205C81.8869 106.763 88.7092 117.926 88.3981 123.198C88.1625 127.212 86.4909 130.68 85.7054 132.11C87.1895 132.704 88.8516 132.925 90.2592 132.503C93.3604 131.573 93.0493 128.782 93.9804 126.612C94.9104 124.441 98.0115 123.821 96.4604 119.79C94.9104 115.758 98.9416 111.417 100.802 111.727C102.663 112.037 104.523 115.138 103.593 116.998C102.663 118.86 100.492 127.852 100.492 132.503C100.492 137.154 101.732 141.185 104.523 142.737C107.171 144.207 111.199 145.675 113.991 146.882C116.009 144.784 117.857 143.974 117.857 143.974C117.857 143.974 125.299 143.663 127.78 141.493V141.493Z" stroke="#1A2E35" stroke-width="1.33333" stroke-miterlimit="10" stroke-linecap="round" stroke-linejoin="round"/>
<path d="M128.71 108.314C128.71 109.513 128.294 110.485 127.78 110.485C127.265 110.485 126.85 109.513 126.85 108.314C126.85 107.115 127.265 106.144 127.78 106.144C128.294 106.144 128.71 107.115 128.71 108.314Z" fill="#1A2E35"/>
<path d="M123.13 102.732C123.13 102.732 126.541 100.872 128.091 100.561C129.641 100.251 132.122 101.491 131.812 99.0113C131.502 96.5302 128.401 97.4612 124.68 98.3913C120.958 99.3213 120.958 101.491 123.13 102.732Z" fill="white"/>
<path d="M123.13 102.732C123.13 102.732 126.541 100.872 128.091 100.561C129.641 100.251 132.122 101.491 131.812 99.0113C131.502 96.5302 128.401 97.4612 124.68 98.3913C120.958 99.3213 120.958 101.491 123.13 102.732Z" stroke="#1A2E35" stroke-width="1.33333" stroke-miterlimit="10" stroke-linecap="round" stroke-linejoin="round"/>
<path d="M119.098 107.694C119.098 107.694 120.648 108.624 122.199 108.934" stroke="#1A2E35" stroke-width="1.33333" stroke-miterlimit="10" stroke-linecap="round" stroke-linejoin="round"/>
<path d="M122.198 110.174C122.198 110.174 120.648 111.415 118.477 110.794" stroke="#1A2E35" stroke-width="1.33333" stroke-miterlimit="10" stroke-linecap="round" stroke-linejoin="round"/>
<path d="M117.867 96.2041C117.867 96.2041 122.675 92.3573 128.686 93.3187" stroke="#1A2E35" stroke-width="1.33333" stroke-miterlimit="10" stroke-linecap="round" stroke-linejoin="round"/>
<path d="M120.512 90.1931C120.512 90.1931 126.522 88.5111 129.167 90.1931" stroke="#1A2E35" stroke-width="1.33333" stroke-miterlimit="10" stroke-linecap="round" stroke-linejoin="round"/>
<path d="M98.0119 87.5381C97.0819 87.5381 95.2208 86.2981 95.2208 83.197C95.2208 80.0958 91.5007 78.2358 88.7095 80.7158C85.9184 83.197 86.5384 84.747 83.7483 85.367C80.9572 85.9881 75.066 84.127 74.136 90.0192C73.2049 95.9105 74.446 97.4615 73.2049 99.0116C71.9649 100.562 65.4536 103.353 65.7626 108.624C66.0726 113.896 69.7948 113.896 68.5537 116.996C67.3137 120.097 64.2126 124.129 68.8637 127.229C73.5149 130.33 81.2672 123.819 82.1973 126.299C83.1283 128.78 87.4695 130.951 90.5706 130.021C93.6707 129.09 93.3607 126.299 94.2907 124.129C95.2208 121.957 98.3219 121.337 96.7719 117.306C95.2208 113.275 99.253 108.934 101.113 109.244C102.973 109.554 104.834 112.655 103.903 114.515C102.973 116.376 100.803 125.369 100.803 130.021C100.803 134.671 102.043 138.703 104.834 140.253C107.625 141.803 111.966 143.353 114.757 144.594C117.548 145.834 126.23 149.556 129.021 147.074C131.811 144.594 133.362 138.703 133.362 133.121C133.362 127.54 134.912 122.267 133.052 120.717C131.191 119.167 121.579 117.616 117.858 119.477C114.137 121.337 110.105 124.439 109.485 123.509C108.865 122.579 106.695 112.655 108.865 110.174C111.036 107.694 116.308 104.593 115.067 100.562C113.827 96.5305 107.625 97.7716 107.314 94.3604C107.004 90.9493 110.415 87.8481 106.384 86.9181C102.354 85.9881 98.0119 87.5381 98.0119 87.5381Z" fill="white"/>
<path d="M98.0119 87.5381C97.0819 87.5381 95.2208 86.2981 95.2208 83.197C95.2208 80.0958 91.5007 78.2358 88.7095 80.7158C85.9184 83.197 86.5384 84.747 83.7483 85.367C80.9572 85.9881 75.066 84.127 74.136 90.0192C73.2049 95.9105 74.446 97.4615 73.2049 99.0116C71.9649 100.562 65.4536 103.353 65.7626 108.624C66.0726 113.896 69.7948 113.896 68.5537 116.996C67.3137 120.097 64.2126 124.129 68.8637 127.229C73.5149 130.33 81.2672 123.819 82.1973 126.299C83.1283 128.78 87.4695 130.951 90.5706 130.021C93.6707 129.09 93.3607 126.299 94.2907 124.129C95.2208 121.957 98.3219 121.337 96.7719 117.306C95.2208 113.275 99.253 108.934 101.113 109.244C102.973 109.554 104.834 112.655 103.903 114.515C102.973 116.376 100.803 125.369 100.803 130.021C100.803 134.671 102.043 138.703 104.834 140.253C107.625 141.803 111.966 143.353 114.757 144.594C117.548 145.834 126.23 149.556 129.021 147.074C131.811 144.594 133.362 138.703 133.362 133.121C133.362 127.54 134.912 122.267 133.052 120.717C131.191 119.167 121.579 117.616 117.858 119.477C114.137 121.337 110.105 124.439 109.485 123.509C108.865 122.579 106.695 112.655 108.865 110.174C111.036 107.694 116.308 104.593 115.067 100.562C113.827 96.5305 107.625 97.7716 107.314 94.3604C107.004 90.9493 110.415 87.8481 106.384 86.9181C102.354 85.9881 98.0119 87.5381 98.0119 87.5381Z" stroke="#1A2E35" stroke-width="1.33333" stroke-miterlimit="10" stroke-linecap="round" stroke-linejoin="round"/>
<path d="M120.338 123.818C120.338 123.818 123.129 128.469 129.021 127.229" stroke="#1A2E35" stroke-width="1.33333" stroke-miterlimit="10" stroke-linecap="round" stroke-linejoin="round"/>
<path d="M104.403 113.515C104.403 113.515 103.922 109.187 98.6331 108.466C93.3431 107.745 92.8624 116.4 95.0262 120.487C97.1899 124.574 100.075 122.411 100.075 122.411" fill="#9A9A9A"/>
<path d="M104.403 113.515C104.403 113.515 103.922 109.187 98.6331 108.466C93.3431 107.745 92.8624 116.4 95.0262 120.487C97.1899 124.574 100.075 122.411 100.075 122.411" stroke="#1A2E35" stroke-width="1.33333" stroke-miterlimit="10" stroke-linecap="round" stroke-linejoin="round"/>
<path d="M84.6779 129.71C84.6779 129.71 95.8413 155.758 98.9424 162.579C102.043 169.4 106.694 174.363 106.694 181.184C106.694 188.006 109.485 202.891 109.485 217.774C109.485 232.659 113.206 254.055 111.966 262.427C110.725 270.799 107.625 277.002 107.625 280.413C107.625 283.823 107.935 288.785 106.384 288.785C104.834 288.785 82.5067 287.234 66.0721 283.203C49.6374 279.172 40.0251 277.312 40.0251 274.83C40.0251 272.349 40.9551 267.698 40.9551 266.458C40.9551 265.218 37.235 262.737 39.095 254.364C40.9551 245.992 42.8162 219.945 43.4362 201.34C44.0562 182.735 51.4985 166.3 56.4597 158.858C61.4209 151.416 70.1032 146.144 70.1032 146.144C70.1032 146.144 65.1421 140.252 71.0343 136.532C76.9255 132.811 84.6779 129.71 84.6779 129.71Z" fill="#28B3DD"/>
<path d="M84.6779 129.71C84.6779 129.71 95.8413 155.758 98.9424 162.579C102.043 169.4 106.694 174.363 106.694 181.184C106.694 188.006 109.485 202.891 109.485 217.774C109.485 232.659 113.206 254.055 111.966 262.427C110.725 270.799 107.625 277.002 107.625 280.413C107.625 283.823 107.935 288.785 106.384 288.785C104.834 288.785 82.5067 287.234 66.0721 283.203C49.6374 279.172 40.0251 277.312 40.0251 274.83C40.0251 272.349 40.9551 267.698 40.9551 266.458C40.9551 265.218 37.235 262.737 39.095 254.364C40.9551 245.992 42.8162 219.945 43.4362 201.34C44.0562 182.735 51.4985 166.3 56.4597 158.858C61.4209 151.416 70.1032 146.144 70.1032 146.144C70.1032 146.144 65.1421 140.252 71.0343 136.532C76.9255 132.811 84.6779 129.71 84.6779 129.71Z" stroke="#1A2E35" stroke-width="1.33333" stroke-miterlimit="10" stroke-linecap="round" stroke-linejoin="round"/>
<path d="M44.3652 266.34C44.3652 266.34 70.5118 278.687 103.196 278.687" stroke="#1A2E35" stroke-width="1.33333" stroke-miterlimit="10" stroke-linecap="round" stroke-linejoin="round"/>
<path d="M51.4397 269.148L50.1641 277.658" stroke="#1A2E35" stroke-width="1.33333" stroke-miterlimit="10" stroke-linecap="round" stroke-linejoin="round"/>
<path d="M60.801 272.978L59.5254 279.785" stroke="#1A2E35" stroke-width="1.33333" stroke-miterlimit="10" stroke-linecap="round" stroke-linejoin="round"/>
<path d="M71.0106 275.531L70.1602 282.338" stroke="#1A2E35" stroke-width="1.33333" stroke-miterlimit="10" stroke-linecap="round" stroke-linejoin="round"/>
<path d="M80.3705 277.233L79.9453 283.189" stroke="#1A2E35" stroke-width="1.33333" stroke-miterlimit="10" stroke-linecap="round" stroke-linejoin="round"/>
<path d="M91.0078 278.509V284.891" stroke="#1A2E35" stroke-width="1.33333" stroke-miterlimit="10" stroke-linecap="round" stroke-linejoin="round"/>
<path d="M98.9418 162.579C95.8407 155.758 84.6772 129.71 84.6772 129.71C84.6772 129.71 76.9259 132.811 71.0337 136.532C65.1424 140.253 70.1036 146.144 70.1036 146.144C70.1036 146.144 80.646 161.649 84.0572 168.781C87.4683 175.912 86.5383 174.362 89.6394 179.324C92.7395 184.286 94.2906 188.316 95.2206 186.766C96.1507 185.216 103.903 177.774 105.764 178.394C105.977 178.465 106.215 178.531 106.465 178.594C105.499 173.032 101.637 168.508 98.9418 162.579Z" fill="#28B3DD"/>
<path d="M98.9418 162.579C95.8407 155.758 84.6772 129.71 84.6772 129.71C84.6772 129.71 76.9259 132.811 71.0337 136.532C65.1424 140.253 70.1036 146.144 70.1036 146.144C70.1036 146.144 80.646 161.649 84.0572 168.781C87.4683 175.912 86.5383 174.362 89.6394 179.324C92.7395 184.286 94.2906 188.316 95.2206 186.766C96.1507 185.216 103.903 177.774 105.764 178.394C105.977 178.465 106.215 178.531 106.465 178.594C105.499 173.032 101.637 168.508 98.9418 162.579Z" stroke="#1A2E35" stroke-width="1.33333" stroke-miterlimit="10" stroke-linecap="round" stroke-linejoin="round"/>
<path d="M141.424 194.518H200.03C200.03 194.518 195.069 201.03 190.418 203.821C185.767 206.612 179.564 206.922 179.564 206.922H164.06C164.06 206.922 151.657 206.612 141.424 194.518Z" fill="#28B3DD"/>
<path d="M141.424 194.518H200.03C200.03 194.518 195.069 201.03 190.418 203.821C185.767 206.612 179.564 206.922 179.564 206.922H164.06C164.06 206.922 151.657 206.612 141.424 194.518Z" stroke="#1A2E35" stroke-width="1.33333" stroke-miterlimit="10" stroke-linecap="round" stroke-linejoin="round"/>
<path d="M139.563 210.642C139.563 210.642 143.905 206.921 146.075 202.58C148.246 198.239 151.967 196.068 155.068 195.449C158.169 194.828 168.402 193.898 170.263 192.968C172.123 192.038 173.363 196.379 172.433 197.929C171.503 199.479 167.47 200.72 164.99 201.03C162.509 201.34 160.959 203.51 160.959 203.51C160.959 203.51 162.82 205.061 165.61 205.991C168.402 206.921 173.363 207.231 175.534 205.991C177.704 204.751 185.456 199.169 186.076 202.89C186.696 206.611 183.286 208.161 181.425 210.332C179.564 212.502 176.154 216.534 174.913 216.844C173.673 217.155 163.75 217.155 157.548 217.775C151.347 218.395 143.905 222.736 143.905 222.736L138.322 210.642H139.563Z" fill="#9A9A9A"/>
<path d="M139.563 210.642C139.563 210.642 143.905 206.921 146.075 202.58C148.246 198.239 151.967 196.068 155.068 195.449C158.169 194.828 168.402 193.898 170.263 192.968C172.123 192.038 173.363 196.379 172.433 197.929C171.503 199.479 167.47 200.72 164.99 201.03C162.509 201.34 160.959 203.51 160.959 203.51C160.959 203.51 162.82 205.061 165.61 205.991C168.402 206.921 173.363 207.231 175.534 205.991C177.704 204.751 185.456 199.169 186.076 202.89C186.696 206.611 183.286 208.161 181.425 210.332C179.564 212.502 176.154 216.534 174.913 216.844C173.673 217.155 163.75 217.155 157.548 217.775C151.347 218.395 143.905 222.736 143.905 222.736L138.322 210.642H139.563Z" stroke="#1A2E35" stroke-width="1.33333" stroke-miterlimit="10" stroke-linecap="round" stroke-linejoin="round"/>
<path d="M128.09 215.294C128.09 215.294 138.012 208.782 139.563 210.643C141.113 212.503 148.556 220.565 146.695 223.976C144.835 227.388 132.741 232.969 132.741 232.969L128.09 215.294Z" fill="#28B3DD"/>
<path d="M128.09 215.294C128.09 215.294 138.012 208.782 139.563 210.643C141.113 212.503 148.556 220.565 146.695 223.976C144.835 227.388 132.741 232.969 132.741 232.969L128.09 215.294Z" stroke="#1A2E35" stroke-width="1.33333" stroke-miterlimit="10" stroke-linecap="round" stroke-linejoin="round"/>
<path d="M81.2663 169.091C81.2663 169.091 88.3986 176.843 91.1897 183.975C93.9798 191.107 100.491 211.263 101.422 212.814C102.352 214.364 103.902 217.155 103.902 217.155C103.902 217.155 120.027 212.814 123.438 212.503C126.849 212.193 130.26 215.294 132.431 219.325C134.601 223.356 141.733 235.45 138.633 238.55C135.531 241.651 108.554 255.604 100.491 258.706C92.4297 261.807 84.3674 259.947 80.6463 253.434C76.9251 246.922 61.1105 210.953 58.0093 202.58C54.9082 194.208 55.2193 187.386 56.4593 184.906" fill="#28B3DD"/>
<path d="M81.2663 169.091C81.2663 169.091 88.3986 176.843 91.1897 183.975C93.9798 191.107 100.491 211.263 101.422 212.814C102.352 214.364 103.902 217.155 103.902 217.155C103.902 217.155 120.027 212.814 123.438 212.503C126.849 212.193 130.26 215.294 132.431 219.325C134.601 223.356 141.733 235.45 138.633 238.55C135.531 241.651 108.554 255.604 100.491 258.706C92.4297 261.807 84.3674 259.947 80.6463 253.434C76.9251 246.922 61.1105 210.953 58.0093 202.58C54.9082 194.208 55.2193 187.386 56.4593 184.906" stroke="#1A2E35" stroke-width="1.33333" stroke-miterlimit="10" stroke-linecap="round" stroke-linejoin="round"/>
<path d="M92.4307 237.62C93.9807 227.697 103.904 217.155 103.904 217.155C103.904 217.155 92.7407 222.736 89.0195 227.387" stroke="#1A2E35" stroke-width="1.33333" stroke-miterlimit="10" stroke-linecap="round" stroke-linejoin="round"/>
<path d="M9.20312 453.97H487.476" stroke="#1A2E35" stroke-width="1.33333" stroke-miterlimit="10" stroke-linecap="round" stroke-linejoin="round"/>
</g>
<defs>
<clipPath id="clip0_525_170">
<rect width="488" height="454.459" fill="white" transform="translate(0 0.0354004)"/>
</clipPath>
</defs>
</svg>
