<svg width="489" height="488" viewBox="0 0 489 488" fill="none" xmlns="http://www.w3.org/2000/svg">
<path d="M460.197 270.993C454.059 388.928 376.23 387.226 285.895 413.622C244.032 425.854 200.8 449.716 163.924 449.716C47.4736 449.716 19.2594 347.092 31.7005 231.307C44.5222 111.982 115.307 40.3911 237.613 52.5667C353.492 64.103 466.903 142.124 460.197 270.993Z" fill="#4CD79D"/>
<g opacity="0.75">
<path d="M460.197 270.993C454.059 388.928 376.23 387.226 285.895 413.622C244.032 425.854 200.8 449.716 163.924 449.716C47.4736 449.716 19.2594 347.092 31.7005 231.307C44.5222 111.982 115.307 40.3911 237.613 52.5667C353.492 64.103 466.903 142.124 460.197 270.993Z" fill="white"/>
</g>
<path d="M39.5391 430.869H449.459" stroke="#1A2E35" stroke-width="1.33333" stroke-linecap="round" stroke-linejoin="round"/>
<path d="M192.261 318.565H63.7483C58.3481 318.565 53.9707 314.188 53.9707 308.787V46.2521C53.9707 40.8519 58.3481 36.4736 63.7483 36.4736H192.261C197.661 36.4736 202.04 40.8519 202.04 46.2521V308.787C202.04 314.188 197.661 318.565 192.261 318.565Z" fill="#1A2E35"/>
<path d="M192.261 318.565H63.7483C58.3481 318.565 53.9707 314.188 53.9707 308.787V46.2521C53.9707 40.8519 58.3481 36.4736 63.7483 36.4736H192.261C197.661 36.4736 202.04 40.8519 202.04 46.2521V308.787C202.04 314.188 197.661 318.565 192.261 318.565Z" stroke="#1A2E35" stroke-width="1.33333" stroke-linecap="round" stroke-linejoin="round"/>
<path d="M130.454 47.7492C130.454 49.102 129.357 50.199 128.004 50.199C126.652 50.199 125.555 49.102 125.555 47.7492C125.555 46.3965 126.652 45.2995 128.004 45.2995C129.357 45.2995 130.454 46.3965 130.454 47.7492Z" fill="#4CD79D"/>
<path d="M130.454 47.7492C130.454 49.102 129.357 50.199 128.004 50.199C126.652 50.199 125.555 49.102 125.555 47.7492C125.555 46.3965 126.652 45.2995 128.004 45.2995C129.357 45.2995 130.454 46.3965 130.454 47.7492Z" stroke="#1A2E35" stroke-width="1.33333" stroke-linecap="round" stroke-linejoin="round"/>
<path d="M155.441 48.7704L153.922 52.2684C152.833 54.7748 150.361 56.3959 147.629 56.3959H108.379C105.646 56.3959 103.175 54.7748 102.086 52.2684L100.566 48.7704C99.4775 46.264 97.0053 44.6429 94.2735 44.6429H67.1319C64.3737 44.6429 62.1387 46.8789 62.1387 49.6361V305.402C62.1387 308.161 64.3737 310.396 67.1319 310.396H188.876C191.633 310.396 193.869 308.161 193.869 305.402V49.6361C193.869 46.8789 191.633 44.6429 188.876 44.6429H161.735C159.002 44.6429 156.531 46.264 155.441 48.7704Z" fill="#4CD79D"/>
<g opacity="0.5">
<path d="M155.443 48.7704L153.924 52.2684C152.835 54.7748 150.363 56.3959 147.631 56.3959H108.381C105.648 56.3959 103.177 54.7748 102.088 52.2684L100.568 48.7704C99.4795 46.264 97.0072 44.6429 94.2754 44.6429H67.1338C64.3757 44.6429 62.1406 46.8789 62.1406 49.6361V305.402C62.1406 308.161 64.3757 310.396 67.1338 310.396H188.878C191.635 310.396 193.871 308.161 193.871 305.402V49.6361C193.871 46.8789 191.635 44.6429 188.878 44.6429H161.737C159.004 44.6429 156.533 46.264 155.443 48.7704Z" fill="white"/>
<path d="M155.443 48.7704L153.924 52.2684C152.835 54.7748 150.363 56.3959 147.631 56.3959H108.381C105.648 56.3959 103.177 54.7748 102.088 52.2684L100.568 48.7704C99.4795 46.2641 97.0072 44.6429 94.2754 44.6429H67.1338C64.3757 44.6429 62.1406 46.8789 62.1406 49.6361V305.402C62.1406 308.161 64.3757 310.396 67.1338 310.396H188.878C191.635 310.396 193.871 308.161 193.871 305.402V49.6361C193.871 46.8789 191.635 44.6429 188.878 44.6429H161.737C159.004 44.6429 156.533 46.2641 155.443 48.7704Z" stroke="#1A2E35" stroke-width="1.33333" stroke-linecap="round" stroke-linejoin="round"/>
</g>
<path d="M155.443 48.7704L153.924 52.2684C152.835 54.7748 150.363 56.3959 147.631 56.3959H108.381C105.648 56.3959 103.177 54.7748 102.088 52.2684L100.568 48.7704C99.4795 46.2641 97.0072 44.6429 94.2754 44.6429H67.1338C64.3757 44.6429 62.1406 46.8789 62.1406 49.6361V305.402C62.1406 308.161 64.3757 310.396 67.1338 310.396H188.878C191.635 310.396 193.871 308.161 193.871 305.402V49.6361C193.871 46.8789 191.635 44.6429 188.878 44.6429H161.737C159.004 44.6429 156.533 46.2641 155.443 48.7704Z" stroke="#1A2E35" stroke-width="1.33333" stroke-linecap="round" stroke-linejoin="round"/>
<path d="M185.361 85.1699H70.6488C68.2049 85.1699 66.2246 83.1886 66.2246 80.7457V67.11C66.2246 64.667 68.2049 62.6857 70.6488 62.6857H185.361C187.804 62.6857 189.785 64.667 189.785 67.11V80.7457C189.785 83.1886 187.804 85.1699 185.361 85.1699Z" fill="white"/>
<path d="M185.361 85.1699H70.6488C68.2049 85.1699 66.2246 83.1886 66.2246 80.7457V67.11C66.2246 64.667 68.2049 62.6857 70.6488 62.6857H185.361C187.804 62.6857 189.785 64.667 189.785 67.11V80.7457C189.785 83.1886 187.804 85.1699 185.361 85.1699Z" stroke="#1A2E35" stroke-linecap="round" stroke-linejoin="round"/>
<path d="M127.745 74.1889C126.747 73.1914 126.747 71.5723 127.745 70.5738C128.743 69.5754 130.362 69.5754 131.36 70.5738C132.359 71.5723 132.359 73.1914 131.36 74.1889C130.362 75.1874 128.743 75.1874 127.745 74.1889ZM131.956 74.7843C133.282 73.4569 133.282 71.3058 131.956 69.9785C130.628 68.6521 128.477 68.6521 127.15 69.9785C125.965 71.1633 125.841 73.005 126.772 74.3304C126.694 74.3617 126.621 74.4095 126.557 74.4729L123.25 77.7796C123 78.0295 123 78.4345 123.25 78.6844C123.5 78.9342 123.905 78.9342 124.155 78.6844L127.461 75.3777C127.526 75.3142 127.573 75.2401 127.604 75.162C128.929 76.0931 130.771 75.9691 131.956 74.7843Z" fill="#1A2E35"/>
<path d="M86.1442 69.3823H72.9341C72.4627 69.3823 72.0801 68.9997 72.0801 68.5283C72.0801 68.0569 72.4627 67.6743 72.9341 67.6743H86.1442C86.6156 67.6743 86.9982 68.0569 86.9982 68.5283C86.9982 68.9997 86.6156 69.3823 86.1442 69.3823Z" fill="#1A2E35"/>
<path d="M86.1442 69.3823H72.9341C72.4627 69.3823 72.0801 68.9997 72.0801 68.5283C72.0801 68.0569 72.4627 67.6743 72.9341 67.6743H86.1442C86.6156 67.6743 86.9982 68.0569 86.9982 68.5283C86.9982 68.9997 86.6156 69.3823 86.1442 69.3823Z" stroke="#1A2E35" stroke-linecap="round" stroke-linejoin="round"/>
<path d="M84.4372 74.2756H72.936C72.4636 74.2756 72.082 73.893 72.082 73.4216C72.082 72.9502 72.4636 72.5676 72.936 72.5676H84.4372C84.9086 72.5676 85.2912 72.9502 85.2912 73.4216C85.2912 73.893 84.9086 74.2756 84.4372 74.2756Z" fill="#1A2E35"/>
<path d="M84.4372 74.2756H72.936C72.4636 74.2756 72.082 73.893 72.082 73.4216C72.082 72.9502 72.4636 72.5676 72.936 72.5676H84.4372C84.9086 72.5676 85.2912 72.9502 85.2912 73.4216C85.2912 73.893 84.9086 74.2756 84.4372 74.2756Z" stroke="#1A2E35" stroke-linecap="round" stroke-linejoin="round"/>
<path d="M82.7292 79.1689H72.936C72.4636 79.1689 72.082 78.7864 72.082 78.3149C72.082 77.8435 72.4636 77.4609 72.936 77.4609H82.7292C83.2006 77.4609 83.5832 77.8435 83.5832 78.3149C83.5832 78.7864 83.2006 79.1689 82.7292 79.1689Z" fill="#1A2E35"/>
<path d="M82.7292 79.1689H72.936C72.4636 79.1689 72.082 78.7864 72.082 78.3149C72.082 77.8435 72.4636 77.4609 72.936 77.4609H82.7292C83.2006 77.4609 83.5832 77.8435 83.5832 78.3149C83.5832 78.7864 83.2006 79.1689 82.7292 79.1689Z" stroke="#1A2E35" stroke-linecap="round" stroke-linejoin="round"/>
<path d="M185.361 161.562H70.6488C68.2049 161.562 66.2246 159.582 66.2246 157.138V96.2514C66.2246 93.8075 68.2049 91.8262 70.6488 91.8262H185.361C187.804 91.8262 189.785 93.8075 189.785 96.2514V157.138C189.785 159.582 187.804 161.562 185.361 161.562Z" fill="white"/>
<path d="M185.361 161.562H70.6488C68.2049 161.562 66.2246 159.582 66.2246 157.138V96.2514C66.2246 93.8075 68.2049 91.8262 70.6488 91.8262H185.361C187.804 91.8262 189.785 93.8075 189.785 96.2514V157.138C189.785 159.582 187.804 161.562 185.361 161.562Z" stroke="#1A2E35" stroke-linecap="round" stroke-linejoin="round"/>
<path d="M174.252 152.796H81.7578V100.593H174.252V152.796Z" fill="#4CD79D" stroke="#1A2E35" stroke-linecap="round" stroke-linejoin="round"/>
<path d="M146.086 132.224H89.377C88.5309 132.224 87.8457 131.538 87.8457 130.691C87.8457 129.845 88.5309 129.16 89.377 129.16H146.086C146.932 129.16 147.617 129.845 147.617 130.691C147.617 131.538 146.932 132.224 146.086 132.224Z" fill="#1A2E35"/>
<path d="M146.086 132.224H89.377C88.5309 132.224 87.8457 131.538 87.8457 130.691C87.8457 129.845 88.5309 129.16 89.377 129.16H146.086C146.932 129.16 147.617 129.845 147.617 130.691C147.617 131.538 146.932 132.224 146.086 132.224Z" stroke="#1A2E35" stroke-linecap="round" stroke-linejoin="round"/>
<path d="M141.618 138.655H89.378C88.5318 138.655 87.8457 137.969 87.8457 137.124C87.8457 136.278 88.5318 135.592 89.378 135.592H141.618C142.465 135.592 143.15 136.278 143.15 137.124C143.15 137.969 142.465 138.655 141.618 138.655Z" fill="#1A2E35"/>
<path d="M141.618 138.655H89.378C88.5318 138.655 87.8457 137.969 87.8457 137.124C87.8457 136.278 88.5318 135.592 89.378 135.592H141.618C142.465 135.592 143.15 136.278 143.15 137.124C143.15 137.969 142.465 138.655 141.618 138.655Z" stroke="#1A2E35" stroke-linecap="round" stroke-linejoin="round"/>
<path d="M117.732 147.266C117.732 147.998 117.138 148.593 116.405 148.593C115.673 148.593 115.078 147.998 115.078 147.266C115.078 146.533 115.673 145.939 116.405 145.939C117.138 145.939 117.732 146.533 117.732 147.266Z" fill="white"/>
<path d="M125.466 147.266C125.466 147.998 124.872 148.593 124.139 148.593C123.407 148.593 122.812 147.998 122.812 147.266C122.812 146.533 123.407 145.939 124.139 145.939C124.872 145.939 125.466 146.533 125.466 147.266Z" fill="white"/>
<path d="M133.201 147.266C133.201 147.998 132.606 148.593 131.874 148.593C131.141 148.593 130.547 147.998 130.547 147.266C130.547 146.533 131.141 145.939 131.874 145.939C132.606 145.939 133.201 146.533 133.201 147.266Z" fill="white"/>
<path d="M140.933 147.266C140.933 147.998 140.34 148.593 139.607 148.593C138.874 148.593 138.279 147.998 138.279 147.266C138.279 146.533 138.874 145.939 139.607 145.939C140.34 145.939 140.933 146.533 140.933 147.266Z" fill="white"/>
<path d="M179.358 133.131C179.132 133.131 178.905 133.056 178.715 132.903C178.278 132.547 178.211 131.904 178.566 131.466L182.439 126.694L178.566 121.923C178.211 121.484 178.278 120.841 178.715 120.486C179.154 120.131 179.798 120.199 180.151 120.635L184.546 126.051C184.85 126.426 184.85 126.963 184.546 127.338L180.151 132.753C179.95 133.002 179.656 133.131 179.358 133.131Z" fill="#4CD79D"/>
<path d="M76.6541 133.131C76.3574 133.131 76.0626 133.002 75.8616 132.753L71.4667 127.338C71.1622 126.963 71.1622 126.426 71.4667 126.051L75.8616 120.635C76.2159 120.199 76.86 120.131 77.2973 120.486C77.7355 120.841 77.8019 121.484 77.4466 121.923L73.5738 126.694L77.4466 131.466C77.8019 131.904 77.7355 132.547 77.2973 132.903C77.1079 133.056 76.8805 133.131 76.6541 133.131Z" fill="#4CD79D"/>
<path d="M87.1454 196.567H76.1439C71.7939 196.567 68.2676 193.041 68.2676 188.691V177.689C68.2676 173.339 71.7939 169.813 76.1439 169.813H87.1454C91.4954 169.813 95.0217 173.339 95.0217 177.689V188.691C95.0217 193.041 91.4954 196.567 87.1454 196.567Z" fill="#4CD79D"/>
<path d="M87.1454 196.567H76.1439C71.7939 196.567 68.2676 193.041 68.2676 188.691V177.689C68.2676 173.339 71.7939 169.813 76.1439 169.813H87.1454C91.4954 169.813 95.0217 173.339 95.0217 177.689V188.691C95.0217 193.041 91.4954 196.567 87.1454 196.567Z" stroke="#1A2E35" stroke-linecap="round" stroke-linejoin="round"/>
<g opacity="0.5">
<path d="M81.6447 191.431C77.0936 191.431 73.4043 187.742 73.4043 183.191C73.4043 178.639 77.0936 174.95 81.6447 174.95C86.1958 174.95 89.885 178.639 89.885 183.191C89.885 187.742 86.1958 191.431 81.6447 191.431Z" fill="white"/>
</g>
<path d="M93.4894 204.636H69.7989C68.9527 204.636 68.2676 203.95 68.2676 203.105C68.2676 202.258 68.9527 201.572 69.7989 201.572H93.4894C94.3356 201.572 95.0207 202.258 95.0207 203.105C95.0207 203.95 94.3356 204.636 93.4894 204.636Z" fill="#1A2E35"/>
<path d="M93.4894 204.636H69.7989C68.9527 204.636 68.2676 203.95 68.2676 203.105C68.2676 202.258 68.9527 201.572 69.7989 201.572H93.4894C94.3356 201.572 95.0207 202.258 95.0207 203.105C95.0207 203.95 94.3356 204.636 93.4894 204.636Z" stroke="#1A2E35" stroke-linecap="round" stroke-linejoin="round"/>
<path d="M185.361 253.645H70.6488C68.2049 253.645 66.2246 251.663 66.2246 249.22V219.332C66.2246 216.888 68.2049 214.908 70.6488 214.908H185.361C187.804 214.908 189.785 216.888 189.785 219.332V249.22C189.785 251.663 187.804 253.645 185.361 253.645Z" fill="white"/>
<path d="M185.361 253.645H70.6488C68.2049 253.645 66.2246 251.663 66.2246 249.22V219.332C66.2246 216.888 68.2049 214.908 70.6488 214.908H185.361C187.804 214.908 189.785 216.888 189.785 219.332V249.22C189.785 251.663 187.804 253.645 185.361 253.645Z" stroke="#1A2E35" stroke-linecap="round" stroke-linejoin="round"/>
<path d="M112.535 221.035H72.3535V247.517H112.535V221.035Z" fill="#4CD79D" stroke="#1A2E35" stroke-linecap="round" stroke-linejoin="round"/>
<path d="M175.435 224.181H118.727C117.881 224.181 117.195 223.495 117.195 222.649C117.195 221.803 117.881 221.117 118.727 221.117H175.435C176.281 221.117 176.967 221.803 176.967 222.649C176.967 223.495 176.281 224.181 175.435 224.181Z" fill="#1A2E35"/>
<path d="M175.435 224.181H118.727C117.881 224.181 117.195 223.495 117.195 222.649C117.195 221.803 117.881 221.117 118.727 221.117H175.435C176.281 221.117 176.967 221.803 176.967 222.649C176.967 223.495 176.281 224.181 175.435 224.181Z" stroke="#1A2E35" stroke-linecap="round" stroke-linejoin="round"/>
<path d="M170.968 230.613H118.728C117.881 230.613 117.195 229.927 117.195 229.082C117.195 228.235 117.881 227.549 118.728 227.549H170.968C171.814 227.549 172.499 228.235 172.499 229.082C172.499 229.927 171.814 230.613 170.968 230.613Z" fill="#1A2E35"/>
<path d="M170.968 230.613H118.728C117.881 230.613 117.195 229.927 117.195 229.082C117.195 228.235 117.881 227.549 118.728 227.549H170.968C171.814 227.549 172.499 228.235 172.499 229.082C172.499 229.927 171.814 230.613 170.968 230.613Z" stroke="#1A2E35" stroke-linecap="round" stroke-linejoin="round"/>
<path d="M173.904 237.045H118.728C117.881 237.045 117.195 236.359 117.195 235.514C117.195 234.668 117.881 233.981 118.728 233.981H173.904C174.75 233.981 175.435 234.668 175.435 235.514C175.435 236.359 174.75 237.045 173.904 237.045Z" fill="#1A2E35"/>
<path d="M173.904 237.045H118.728C117.881 237.045 117.195 236.359 117.195 235.514C117.195 234.668 117.881 233.981 118.728 233.981H173.904C174.75 233.981 175.435 234.668 175.435 235.514C175.435 236.359 174.75 237.045 173.904 237.045Z" stroke="#1A2E35" stroke-linecap="round" stroke-linejoin="round"/>
<path d="M164.203 243.477H118.728C117.882 243.477 117.195 242.791 117.195 241.946C117.195 241.1 117.882 240.414 118.728 240.414H164.203C165.05 240.414 165.735 241.1 165.735 241.946C165.735 242.791 165.05 243.477 164.203 243.477Z" fill="#1A2E35"/>
<path d="M164.203 243.477H118.728C117.882 243.477 117.195 242.791 117.195 241.946C117.195 241.1 117.882 240.414 118.728 240.414H164.203C165.05 240.414 165.735 241.1 165.735 241.946C165.735 242.791 165.05 243.477 164.203 243.477Z" stroke="#1A2E35" stroke-linecap="round" stroke-linejoin="round"/>
<path d="M185.361 298.397H70.6488C68.2049 298.397 66.2246 296.416 66.2246 293.973V264.086C66.2246 261.642 68.2049 259.661 70.6488 259.661H185.361C187.804 259.661 189.785 261.642 189.785 264.086V293.973C189.785 296.416 187.804 298.397 185.361 298.397Z" fill="white"/>
<path d="M185.361 298.397H70.6488C68.2049 298.397 66.2246 296.416 66.2246 293.973V264.086C66.2246 261.642 68.2049 259.661 70.6488 259.661H185.361C187.804 259.661 189.785 261.642 189.785 264.086V293.973C189.785 296.416 187.804 298.397 185.361 298.397Z" stroke="#1A2E35" stroke-linecap="round" stroke-linejoin="round"/>
<path d="M112.535 265.787H72.3535V292.27H112.535V265.787Z" fill="#4CD79D" stroke="#1A2E35" stroke-linecap="round" stroke-linejoin="round"/>
<path d="M175.435 268.934H118.727C117.881 268.934 117.195 268.248 117.195 267.402C117.195 266.555 117.881 265.87 118.727 265.87H175.435C176.281 265.87 176.967 266.555 176.967 267.402C176.967 268.248 176.281 268.934 175.435 268.934Z" fill="#1A2E35"/>
<path d="M175.435 268.934H118.727C117.881 268.934 117.195 268.248 117.195 267.402C117.195 266.555 117.881 265.87 118.727 265.87H175.435C176.281 265.87 176.967 266.555 176.967 267.402C176.967 268.248 176.281 268.934 175.435 268.934Z" stroke="#1A2E35" stroke-linecap="round" stroke-linejoin="round"/>
<path d="M179.137 275.365H118.727C117.881 275.365 117.195 274.68 117.195 273.834C117.195 272.988 117.881 272.302 118.727 272.302H179.137C179.983 272.302 180.668 272.988 180.668 273.834C180.668 274.68 179.983 275.365 179.137 275.365Z" fill="#1A2E35"/>
<path d="M179.137 275.365H118.727C117.881 275.365 117.195 274.68 117.195 273.834C117.195 272.988 117.881 272.302 118.727 272.302H179.137C179.983 272.302 180.668 272.988 180.668 273.834C180.668 274.68 179.983 275.365 179.137 275.365Z" stroke="#1A2E35" stroke-linecap="round" stroke-linejoin="round"/>
<path d="M167.777 288.23H118.728C117.881 288.23 117.195 287.545 117.195 286.698C117.195 285.851 117.881 285.166 118.728 285.166H167.777C168.624 285.166 169.309 285.851 169.309 286.698C169.309 287.545 168.624 288.23 167.777 288.23Z" fill="#1A2E35"/>
<path d="M167.777 288.23H118.728C117.881 288.23 117.195 287.545 117.195 286.698C117.195 285.851 117.881 285.166 118.728 285.166H167.777C168.624 285.166 169.309 285.851 169.309 286.698C169.309 287.545 168.624 288.23 167.777 288.23Z" stroke="#1A2E35" stroke-linecap="round" stroke-linejoin="round"/>
<path d="M174.414 281.892H118.727C117.881 281.892 117.195 281.207 117.195 280.361C117.195 279.515 117.881 278.829 118.727 278.829H174.414C175.26 278.829 175.946 279.515 175.946 280.361C175.946 281.207 175.26 281.892 174.414 281.892Z" fill="#1A2E35"/>
<path d="M174.414 281.892H118.727C117.881 281.892 117.195 281.207 117.195 280.361C117.195 279.515 117.881 278.829 118.727 278.829H174.414C175.26 278.829 175.946 279.515 175.946 280.361C175.946 281.207 175.26 281.892 174.414 281.892Z" stroke="#1A2E35" stroke-linecap="round" stroke-linejoin="round"/>
<path d="M148.927 196.567H137.925C133.575 196.567 130.049 193.041 130.049 188.691V177.689C130.049 173.339 133.575 169.813 137.925 169.813H148.927C153.277 169.813 156.803 173.339 156.803 177.689V188.691C156.803 193.041 153.277 196.567 148.927 196.567Z" fill="#4CD79D"/>
<path d="M148.927 196.567H137.925C133.575 196.567 130.049 193.041 130.049 188.691V177.689C130.049 173.339 133.575 169.813 137.925 169.813H148.927C153.277 169.813 156.803 173.339 156.803 177.689V188.691C156.803 193.041 153.277 196.567 148.927 196.567Z" stroke="#1A2E35" stroke-linecap="round" stroke-linejoin="round"/>
<g opacity="0.5">
<path d="M143.424 191.431C138.873 191.431 135.184 187.742 135.184 183.191C135.184 178.639 138.873 174.95 143.424 174.95C147.975 174.95 151.664 178.639 151.664 183.191C151.664 187.742 147.975 191.431 143.424 191.431Z" fill="white"/>
</g>
<path d="M155.271 204.636H131.581C130.735 204.636 130.049 203.95 130.049 203.105C130.049 202.258 130.735 201.572 131.581 201.572H155.271C156.117 201.572 156.803 202.258 156.803 203.105C156.803 203.95 156.117 204.636 155.271 204.636Z" fill="#1A2E35"/>
<path d="M155.271 204.636H131.581C130.735 204.636 130.049 203.95 130.049 203.105C130.049 202.258 130.735 201.572 131.581 201.572H155.271C156.117 201.572 156.803 202.258 156.803 203.105C156.803 203.95 156.117 204.636 155.271 204.636Z" stroke="#1A2E35" stroke-linecap="round" stroke-linejoin="round"/>
<path d="M179.815 196.567H168.814C164.464 196.567 160.938 193.041 160.938 188.691V177.689C160.938 173.339 164.464 169.813 168.814 169.813H179.815C184.165 169.813 187.691 173.339 187.691 177.689V188.691C187.691 193.041 184.165 196.567 179.815 196.567Z" fill="#4CD79D"/>
<path d="M179.815 196.567H168.814C164.464 196.567 160.938 193.041 160.938 188.691V177.689C160.938 173.339 164.464 169.813 168.814 169.813H179.815C184.165 169.813 187.691 173.339 187.691 177.689V188.691C187.691 193.041 184.165 196.567 179.815 196.567Z" stroke="#1A2E35" stroke-linecap="round" stroke-linejoin="round"/>
<g opacity="0.5">
<path d="M174.315 191.431C169.763 191.431 166.074 187.742 166.074 183.191C166.074 178.639 169.763 174.95 174.315 174.95C178.866 174.95 182.555 178.639 182.555 183.191C182.555 187.742 178.866 191.431 174.315 191.431Z" fill="white"/>
</g>
<path d="M186.159 204.636H162.47C161.623 204.636 160.938 203.95 160.938 203.105C160.938 202.258 161.623 201.572 162.47 201.572H186.159C187.005 201.572 187.691 202.258 187.691 203.105C187.691 203.95 187.005 204.636 186.159 204.636Z" fill="#1A2E35"/>
<path d="M186.159 204.636H162.47C161.623 204.636 160.938 203.95 160.938 203.105C160.938 202.258 161.623 201.572 162.47 201.572H186.159C187.005 201.572 187.691 202.258 187.691 203.105C187.691 203.95 187.005 204.636 186.159 204.636Z" stroke="#1A2E35" stroke-linecap="round" stroke-linejoin="round"/>
<path d="M118.036 196.567H107.035C102.684 196.567 99.1582 193.041 99.1582 188.691V177.689C99.1582 173.339 102.684 169.813 107.035 169.813H118.036C122.386 169.813 125.912 173.339 125.912 177.689V188.691C125.912 193.041 122.386 196.567 118.036 196.567Z" fill="#4CD79D"/>
<path d="M118.036 196.567H107.035C102.684 196.567 99.1582 193.041 99.1582 188.691V177.689C99.1582 173.339 102.684 169.813 107.035 169.813H118.036C122.386 169.813 125.912 173.339 125.912 177.689V188.691C125.912 193.041 122.386 196.567 118.036 196.567Z" stroke="#1A2E35" stroke-linecap="round" stroke-linejoin="round"/>
<path d="M124.38 204.636H100.69C99.8434 204.636 99.1582 203.95 99.1582 203.105C99.1582 202.258 99.8434 201.572 100.69 201.572H124.38C125.226 201.572 125.911 202.258 125.911 203.105C125.911 203.95 125.226 204.636 124.38 204.636Z" fill="#1A2E35"/>
<path d="M124.38 204.636H100.69C99.8434 204.636 99.1582 203.95 99.1582 203.105C99.1582 202.258 99.8434 201.572 100.69 201.572H124.38C125.226 201.572 125.911 202.258 125.911 203.105C125.911 203.95 125.226 204.636 124.38 204.636Z" stroke="#1A2E35" stroke-linecap="round" stroke-linejoin="round"/>
<g opacity="0.5">
<path d="M112.535 191.431C107.984 191.431 104.295 187.742 104.295 183.191C104.295 178.639 107.984 174.95 112.535 174.95C117.086 174.95 120.776 178.639 120.776 183.191C120.776 187.742 117.086 191.431 112.535 191.431Z" fill="white"/>
</g>
<path d="M155.862 421.827H143.335C137.339 421.827 132.344 417.234 131.842 411.26L129.365 386.24H169.831L167.353 411.26C166.852 417.234 161.857 421.827 155.862 421.827Z" fill="white"/>
<path d="M174.052 404.034H127.475V397.232H174.052V404.034Z" fill="#4CD79D"/>
<path d="M155.862 421.827H143.335C137.339 421.827 132.344 417.234 131.842 411.26L129.365 386.24H169.831L167.353 411.26C166.852 417.234 161.857 421.827 155.862 421.827Z" stroke="#1A2E35" stroke-width="1.33333" stroke-linecap="round" stroke-linejoin="round"/>
<path d="M155.86 421.827H143.333C141.2 421.827 139.199 421.238 137.476 420.219L137.141 424.209H162.052L161.717 420.219C159.995 421.238 157.994 421.827 155.86 421.827Z" fill="white"/>
<path d="M155.86 421.827H143.333C141.2 421.827 139.199 421.238 137.476 420.219L137.141 424.209H162.052L161.717 420.219C159.995 421.238 157.994 421.827 155.86 421.827Z" stroke="#1A2E35" stroke-width="1.33333" stroke-linecap="round" stroke-linejoin="round"/>
<path d="M174.254 389.867C172.491 389.443 170.818 390.186 169.299 391.605L168.8 396.651C170.19 394.36 171.838 392.774 173.56 393.188C177.23 394.072 178.531 398.757 177.361 403.62C176.19 408.482 172.265 411.709 168.594 410.826C168.162 410.721 167.775 410.634 167.424 410.552L167.353 411.26C167.293 411.99 167.162 412.699 166.973 413.382C167.131 413.419 167.279 413.453 167.444 413.493C173.165 414.87 179.076 410.698 180.647 404.173C182.218 397.651 179.975 391.244 174.254 389.867Z" fill="white"/>
<path d="M174.254 389.867C172.491 389.443 170.818 390.186 169.299 391.605L168.8 396.651C170.19 394.36 171.838 392.774 173.56 393.188C177.23 394.072 178.531 398.757 177.361 403.62C176.19 408.482 172.265 411.709 168.594 410.826C168.162 410.721 167.775 410.634 167.424 410.552L167.353 411.26C167.293 411.99 167.162 412.699 166.973 413.382C167.131 413.419 167.279 413.453 167.444 413.493C173.165 414.87 179.076 410.698 180.647 404.173C182.218 397.651 179.975 391.244 174.254 389.867Z" stroke="#1A2E35" stroke-width="1.33333" stroke-linecap="round" stroke-linejoin="round"/>
<path d="M149.675 418.623C145.604 419.242 141.099 422.59 141.587 425.802C142.075 429.014 147.373 430.875 151.444 430.256C154.727 429.756 155.339 426.994 157.124 425.262C162.347 420.193 182.479 420.284 189.967 420.504C191.438 420.547 192.585 419.244 192.364 417.788C192.173 416.532 191.024 415.652 189.763 415.796C183.558 416.509 166.19 418.605 158.063 420.66C155.651 421.269 152.96 418.123 149.675 418.623Z" fill="white"/>
<path d="M149.675 418.623C145.604 419.242 141.099 422.59 141.587 425.802C142.075 429.014 147.373 430.875 151.444 430.256C154.727 429.756 155.339 426.994 157.124 425.262C162.347 420.193 182.479 420.284 189.967 420.504C191.438 420.547 192.585 419.244 192.364 417.788C192.173 416.532 191.024 415.652 189.763 415.796C183.558 416.509 166.19 418.605 158.063 420.66C155.651 421.269 152.96 418.123 149.675 418.623Z" stroke="#1A2E35" stroke-width="1.33333" stroke-linecap="round" stroke-linejoin="round"/>
<path d="M163.166 431.296H134.333C129.946 431.296 125.599 430.458 121.525 428.829L112.166 425.085C111.101 424.659 111.406 423.078 112.552 423.078H184.947C186.093 423.078 186.398 424.659 185.334 425.085L175.975 428.829C171.901 430.458 167.554 431.296 163.166 431.296Z" fill="white"/>
<path d="M163.166 431.296H134.333C129.946 431.296 125.599 430.458 121.525 428.829L112.166 425.085C111.101 424.659 111.406 423.078 112.552 423.078H184.947C186.093 423.078 186.398 424.659 185.334 425.085L175.975 428.829C171.901 430.458 167.554 431.296 163.166 431.296Z" stroke="#1A2E35" stroke-width="1.33333" stroke-linecap="round" stroke-linejoin="round"/>
<path d="M150.303 335.349C148.793 332.867 146.914 331.794 146.914 331.794" stroke="#1A2E35" stroke-width="1.33333" stroke-linecap="round" stroke-linejoin="round"/>
<path d="M149.143 353.396C152.23 347.237 152.572 342.598 151.839 339.228" stroke="#1A2E35" stroke-width="1.33333" stroke-linecap="round" stroke-linejoin="round"/>
<path d="M144.172 371.747C143.402 367.567 144.006 362.311 147.698 356.042" stroke="#1A2E35" stroke-width="1.33333" stroke-linecap="round" stroke-linejoin="round"/>
<path d="M151.651 383.485C151.651 383.485 147.01 380.387 144.9 374.46" stroke="#1A2E35" stroke-width="1.33333" stroke-linecap="round" stroke-linejoin="round"/>
<path d="M160.972 346.314C159.752 343.941 157.98 342.929 157.98 342.929" stroke="#1A2E35" stroke-width="1.33333" stroke-linecap="round" stroke-linejoin="round"/>
<path d="M160.139 359.031C162.107 354.778 162.369 351.495 161.902 349.037" stroke="#1A2E35" stroke-width="1.33333" stroke-linecap="round" stroke-linejoin="round"/>
<path d="M161.698 383.485C161.698 383.485 150.366 375.923 158.596 361.954" stroke="#1A2E35" stroke-width="1.33333" stroke-linecap="round" stroke-linejoin="round"/>
<path d="M140.518 358.008C140.512 357.05 140.37 356.209 140.146 355.482" stroke="#1A2E35" stroke-width="1.33333" stroke-linecap="round" stroke-linejoin="round"/>
<path d="M137.76 366.527C139.07 364.303 139.831 362.364 140.211 360.69" stroke="#1A2E35" stroke-width="1.33333" stroke-linecap="round" stroke-linejoin="round"/>
<path d="M140.202 383.485C140.202 383.485 132.556 378.383 136.557 368.9" stroke="#1A2E35" stroke-width="1.33333" stroke-linecap="round" stroke-linejoin="round"/>
<path d="M213.152 308.871C213.152 308.871 198.38 349.551 203.073 366.936C207.766 384.321 232.199 378.99 238.174 368.328C244.149 357.664 255.813 318.954 255.813 318.954L243.762 295.774L217.062 301.8L214.54 305.509L213.152 308.871Z" fill="white"/>
<g opacity="0.199997">
<path d="M236.796 303.539C236.796 303.539 211.993 355.578 199.708 353.955C187.423 352.333 199.708 393.13 199.708 393.13H223.883L251.829 358.36L256.812 332.785L258.122 320.576L249.619 308.871L236.796 303.539Z" fill="black"/>
</g>
<path d="M213.152 308.871C213.152 308.871 198.38 349.551 203.073 366.936C207.766 384.321 232.199 378.99 238.174 368.328C244.149 357.664 255.813 318.954 255.813 318.954L243.762 295.774L217.062 301.8L214.54 305.509L213.152 308.871Z" stroke="#1A2E35" stroke-width="1.33333" stroke-miterlimit="10" stroke-linecap="round" stroke-linejoin="round"/>
<path d="M351.596 158.978C351.596 158.978 357.259 153.835 353.037 148.426C353.037 148.426 358.688 144.409 354.601 137.455C354.601 137.455 360.813 129.573 353.037 124.319C353.037 124.319 357.004 116.129 347.887 116.283C347.887 116.283 349.433 107.629 340.315 110.874C340.315 110.874 340.933 102.221 333.207 106.084C333.207 106.084 329.807 98.3571 325.789 106.393C325.789 106.393 321.926 96.1933 315.126 99.7479C315.126 99.7479 301.991 93.7211 300.136 101.448C300.136 101.448 291.636 99.2843 289.397 105.157C289.397 105.157 279.893 103.92 279.429 112.111C279.429 112.111 270.466 115.201 273.248 121.846C273.248 121.846 269.241 127.1 272.712 132.355C272.712 132.355 269.385 135.909 273.248 142.399C273.248 142.399 271.547 149.045 276.183 153.835L332.588 163.107L335.215 175.933L346.156 171.606L351.596 158.978Z" fill="#1A2E35"/>
<path d="M351.596 158.978C351.596 158.978 357.259 153.835 353.037 148.426C353.037 148.426 358.688 144.409 354.601 137.455C354.601 137.455 360.813 129.573 353.037 124.319C353.037 124.319 357.004 116.129 347.887 116.283C347.887 116.283 349.433 107.629 340.315 110.874C340.315 110.874 340.933 102.221 333.207 106.084C333.207 106.084 329.807 98.3571 325.789 106.393C325.789 106.393 321.926 96.1933 315.126 99.7479C315.126 99.7479 301.991 93.7211 300.136 101.448C300.136 101.448 291.636 99.2843 289.397 105.157C289.397 105.157 279.893 103.92 279.429 112.111C279.429 112.111 270.466 115.201 273.248 121.846C273.248 121.846 269.241 127.1 272.712 132.355C272.712 132.355 269.385 135.909 273.248 142.399C273.248 142.399 271.547 149.045 276.183 153.835L332.588 163.107L335.215 175.933L346.156 171.606L351.596 158.978Z" stroke="#1A2E35" stroke-width="1.33333" stroke-miterlimit="10" stroke-linecap="round" stroke-linejoin="round"/>
<path d="M316.017 104.77C313.964 102.106 310.183 99.7864 303.535 102.684" stroke="#808080" stroke-linecap="round" stroke-linejoin="round"/>
<path d="M318.216 109.329C318.216 109.329 317.992 108.312 317.373 107.003" stroke="#808080" stroke-linecap="round" stroke-linejoin="round"/>
<path d="M308.48 108.711C308.48 108.711 298.436 114.892 294.727 106.084" stroke="#808080" stroke-linecap="round" stroke-linejoin="round"/>
<path d="M324.586 116.348C324.586 116.348 313.365 119.979 311.844 110.543" stroke="#808080" stroke-linecap="round" stroke-linejoin="round"/>
<path d="M315.615 124.183C313.636 121.363 309.817 118.656 302.838 121.698" stroke="#808080" stroke-linecap="round" stroke-linejoin="round"/>
<path d="M317.519 128.343C317.519 128.343 317.296 127.327 316.678 126.021" stroke="#808080" stroke-linecap="round" stroke-linejoin="round"/>
<path d="M294.133 127.923C293.601 127.292 293.123 126.511 292.719 125.553" stroke="#808080" stroke-linecap="round" stroke-linejoin="round"/>
<path d="M306.472 128.18C306.472 128.18 299.841 132.26 295.365 129.066" stroke="#808080" stroke-linecap="round" stroke-linejoin="round"/>
<path d="M351.244 142.103C351.244 142.103 354.071 133.41 344.277 132.225" stroke="#808080" stroke-linecap="round" stroke-linejoin="round"/>
<path d="M333.647 138.378C333.647 138.378 330.004 144.866 337.632 147.375" stroke="#808080" stroke-linecap="round" stroke-linejoin="round"/>
<path d="M345.185 138.002C345.185 138.002 336.34 138.18 337.29 131.074" stroke="#808080" stroke-linecap="round" stroke-linejoin="round"/>
<path d="M344.279 151.503C344.279 151.503 337.978 145.292 343.73 141.013" stroke="#808080" stroke-linecap="round" stroke-linejoin="round"/>
<path d="M296.481 122.763C296.481 122.763 299.307 114.069 289.514 112.884" stroke="#808080" stroke-linecap="round" stroke-linejoin="round"/>
<path d="M278.883 119.037C278.883 119.037 275.24 125.526 282.868 128.035" stroke="#808080" stroke-linecap="round" stroke-linejoin="round"/>
<path d="M290.421 118.662C290.421 118.662 281.576 118.839 282.527 111.734" stroke="#808080" stroke-linecap="round" stroke-linejoin="round"/>
<path d="M289.515 132.162C289.515 132.162 283.215 125.952 288.966 121.673" stroke="#808080" stroke-linecap="round" stroke-linejoin="round"/>
<path d="M344.249 123.577C344.249 123.577 347.074 114.884 337.281 113.699" stroke="#808080" stroke-linecap="round" stroke-linejoin="round"/>
<path d="M326.651 119.852C326.651 119.852 323.008 126.34 330.636 128.849" stroke="#808080" stroke-linecap="round" stroke-linejoin="round"/>
<path d="M338.189 119.476C338.189 119.476 329.344 119.654 330.294 112.549" stroke="#808080" stroke-linecap="round" stroke-linejoin="round"/>
<path d="M406.302 250.065C406.302 250.065 390.711 332.077 388.348 430.869H247.877C247.877 430.869 263.801 347.001 245.951 237.592C245.951 237.592 318.377 186.043 406.302 250.065Z" fill="#4CD79D"/>
<g opacity="0.199997">
<path d="M400.745 257.989C400.745 257.989 382.83 286.887 379.739 314.318C376.648 341.747 376.648 359.982 376.648 359.982L296.912 339.005C296.912 339.005 344.506 380.69 370.776 396.762C397.047 412.832 390.799 435.704 390.799 435.704L409.718 364.618V316.867L406.301 267.262L400.745 257.989Z" fill="black"/>
</g>
<g opacity="0.199997">
<path d="M330.826 252.023L314.011 239.137L296.26 251.384L290.879 233.574L307.845 226.93L329.979 229.556L337.396 239.477L330.826 252.023Z" fill="black"/>
</g>
<path d="M406.302 250.065C406.302 250.065 390.711 332.077 388.348 430.869H247.877C247.877 430.869 263.801 347.001 245.951 237.592C245.951 237.592 318.377 186.043 406.302 250.065V250.065Z" stroke="#1A2E35" stroke-width="1.33333" stroke-miterlimit="10" stroke-linecap="round" stroke-linejoin="round"/>
<path d="M427.163 318.568C427.163 318.568 429.339 375.956 409.077 395.834C409.077 395.834 384.74 401.397 313.582 347.31C313.582 347.31 306.517 347.929 302.815 343.601C302.815 343.601 291.351 347.62 285.334 341.129C285.334 341.129 277.628 341.438 275.896 334.329C275.896 334.329 270.993 334.948 269.297 332.784C269.297 332.784 263.446 333.094 262.612 330.003C261.778 326.913 268.403 324.421 268.403 324.421C268.403 324.421 268.525 317.331 271.465 315.168C274.404 313.005 277.121 312.077 277.121 312.077C277.121 312.077 257.676 300.332 260.044 293.842C262.41 287.352 265.683 298.787 284.17 306.823C284.17 306.823 293.465 307.132 295.248 310.532L317.752 329.385C317.752 329.385 324.329 331.136 326.487 331.857C340.467 336.527 360.079 344.838 383.366 346.384L387.881 309.296C387.881 309.296 416.149 302.496 427.163 318.568Z" fill="white"/>
<g opacity="0.199997">
<path d="M397.422 308.871L390.799 346.658L383.366 346.384L380.201 341.129L382.365 313.932L390.066 301.414L395.81 302.651L397.422 308.871Z" fill="black"/>
</g>
<g opacity="0.199997">
<path d="M423.982 361.198C423.982 361.198 416.981 384.089 408.482 392.434C408.482 392.434 416.208 380.38 382.211 371.726C348.214 363.073 315.607 342.597 315.607 342.597C315.607 342.597 303.857 333.253 298.605 334.97C293.354 336.687 295.486 339.352 296.912 339.005C298.338 338.656 300.308 339.197 300.424 341.13C300.54 343.061 300.615 344.412 298.311 344.612C296.007 344.811 297.874 351.521 297.874 351.521L339.251 388.957L370.158 395.996L413.099 403.87L427.231 388.957L431.662 369.314L427.231 360.291L423.982 361.198Z" fill="black"/>
</g>
<g opacity="0.199997">
<path d="M294.081 344.801C294.081 344.801 291.964 343.37 292.196 341.129C292.429 338.888 287.684 342.167 285.074 338.674C285.074 338.674 279.531 338.309 275.896 331.471C275.896 331.471 269.879 332.521 268.984 329.852C268.984 329.852 268.553 321.62 267.857 321.967C267.162 322.315 265.424 323.472 265.424 323.472L267.162 334.329L277.121 342.482L288.698 347.118H294.081V344.801Z" fill="black"/>
</g>
<g opacity="0.199997">
<path d="M274.811 312.077C274.811 312.077 277.299 312.334 283.431 309.924C283.431 309.924 274.401 307.639 268.549 302.949C262.696 298.26 261.335 293.107 259.845 295.31C258.353 297.512 264.496 304.35 264.496 304.35L274.811 312.077Z" fill="black"/>
</g>
<path d="M427.163 318.568C427.163 318.568 429.339 375.956 409.077 395.834C409.077 395.834 384.74 401.397 313.582 347.31C313.582 347.31 306.517 347.929 302.815 343.601C302.815 343.601 291.351 347.62 285.334 341.129C285.334 341.129 277.628 341.438 275.896 334.329C275.896 334.329 270.993 334.948 269.297 332.784C269.297 332.784 263.446 333.094 262.612 330.003C261.778 326.913 268.403 324.421 268.403 324.421C268.403 324.421 268.525 317.331 271.465 315.168C274.404 313.005 277.121 312.077 277.121 312.077C277.121 312.077 257.676 300.332 260.044 293.842C262.41 287.352 265.683 298.787 284.17 306.823C284.17 306.823 293.465 307.132 295.248 310.532L317.752 329.385C317.752 329.385 324.329 331.136 326.487 331.857C340.467 336.527 360.079 344.838 383.366 346.384L387.881 309.296C387.881 309.296 416.149 302.496 427.163 318.568V318.568Z" stroke="#1A2E35" stroke-width="1.33333" stroke-miterlimit="10" stroke-linecap="round" stroke-linejoin="round"/>
<path d="M385.588 346.658C393.488 347.043 396.761 345.058 403.368 353.956" stroke="#1A2E35" stroke-width="1.33333" stroke-miterlimit="10" stroke-linecap="round" stroke-linejoin="round"/>
<path d="M288.699 316.867C288.699 316.867 277.333 321.735 276.724 324.632C276.115 327.53 275.896 334.33 275.896 334.33" stroke="#1A2E35" stroke-width="1.33333" stroke-miterlimit="10" stroke-linecap="round" stroke-linejoin="round"/>
<path d="M294.716 323.358C294.716 323.358 293.936 325.391 291.507 327.182C288.31 329.539 284.738 329.848 284.71 332.745C284.681 335.643 285.335 341.129 285.335 341.129" stroke="#1A2E35" stroke-width="1.33333" stroke-miterlimit="10" stroke-linecap="round" stroke-linejoin="round"/>
<path d="M268.402 324.421L269.296 332.784" stroke="#1A2E35" stroke-width="1.33333" stroke-miterlimit="10" stroke-linecap="round" stroke-linejoin="round"/>
<path d="M277.121 312.077L286.517 308.871" stroke="#1A2E35" stroke-width="1.33333" stroke-miterlimit="10" stroke-linecap="round" stroke-linejoin="round"/>
<path d="M299.744 333.944C299.744 333.944 296.632 336.956 294.08 338.038" stroke="#1A2E35" stroke-width="1.33333" stroke-miterlimit="10" stroke-linecap="round" stroke-linejoin="round"/>
<path d="M245.95 237.592C245.95 237.592 212.977 250.672 211.348 308.607C211.314 309.845 212.705 310.602 213.711 309.883C218.791 306.247 231.952 301.348 254.023 322.862C255.056 323.867 256.793 323.138 256.804 321.696V321.619C256.847 315.443 256.734 302.69 255.442 287.757C254.055 271.734 251.312 253.202 245.95 237.592Z" fill="#4CD79D"/>
<path d="M245.95 237.592C245.95 237.592 212.977 250.672 211.348 308.607C211.314 309.845 212.705 310.602 213.711 309.883C218.791 306.247 231.952 301.348 254.023 322.862C255.056 323.867 256.793 323.138 256.804 321.696V321.619C256.847 315.443 256.734 302.69 255.442 287.757C254.055 271.734 251.312 253.202 245.95 237.592Z" stroke="#1A2E35" stroke-width="1.33333" stroke-miterlimit="10" stroke-linecap="round" stroke-linejoin="round"/>
<path d="M219.924 298.95C227.638 297.526 241.531 298.095 255.489 314.318" stroke="#1A2E35" stroke-width="1.33333" stroke-miterlimit="10" stroke-linecap="round" stroke-linejoin="round"/>
<path d="M213.752 300.873C213.752 300.873 215.053 300.192 217.331 299.551" stroke="#1A2E35" stroke-width="1.33333" stroke-miterlimit="10" stroke-linecap="round" stroke-linejoin="round"/>
<path d="M350.357 224.38C350.357 224.38 339.463 207.458 342.477 178.251L297.922 181.188C297.922 181.188 297.531 219.818 283.264 221.866L294.896 236.748L305.155 237.508L322.888 237.592L348.735 229.247L350.357 224.38Z" fill="white"/>
<path d="M349.972 181.187C347.856 184.158 344.949 185.378 341.273 182.882C341.273 182.882 341.255 199.423 330.841 210.002C320.427 220.582 304.227 225.596 295.839 225.596C287.451 225.596 274.787 200.266 272.68 187.286C272.474 186.02 272.297 184.59 272.145 183.042L349.972 181.187Z" fill="#1A2E35"/>
<path d="M349.972 181.187C347.856 184.158 344.949 185.378 341.273 182.882C341.273 182.882 341.255 199.423 330.841 210.002C320.427 220.582 304.227 225.596 295.839 225.596C287.451 225.596 274.787 200.266 272.68 187.286C272.474 186.02 272.297 184.59 272.145 183.042L349.972 181.187Z" stroke="#1A2E35" stroke-width="1.33333" stroke-miterlimit="10" stroke-linecap="round" stroke-linejoin="round"/>
<path d="M350.357 224.379C350.357 224.379 339.463 207.458 342.477 178.251L297.922 181.188C297.922 181.188 297.531 219.818 283.264 221.866L294.896 236.748L305.155 237.508L322.888 237.592L348.735 229.247L350.357 224.379Z" stroke="#1A2E35" stroke-width="1.33333" stroke-miterlimit="10" stroke-linecap="round" stroke-linejoin="round"/>
<path d="M341.951 162.952C341.951 162.952 344.563 152.753 350.358 154.144C356.153 155.535 352.445 188.682 340.16 180.337C340.16 180.337 340.143 196.878 329.729 207.458C319.314 218.038 307.75 221.197 299.362 221.197C290.975 221.197 278.311 195.868 276.203 182.887C274.097 169.906 274.791 140.004 277.805 136.296C280.818 132.586 317.889 136.991 326.127 133.513C334.365 130.037 325.093 148.349 329.496 152.753C333.901 157.158 337.149 153.68 336.22 171.297L339.927 167.82L341.951 162.952Z" fill="white"/>
<path d="M341.951 162.952C341.951 162.952 344.563 152.753 350.358 154.144C356.153 155.535 352.445 188.682 340.16 180.337C340.16 180.337 340.143 196.878 329.729 207.458C319.314 218.038 307.75 221.197 299.362 221.197C290.975 221.197 278.311 195.868 276.203 182.887C274.097 169.906 274.791 140.004 277.805 136.296C280.818 132.586 317.889 136.991 326.127 133.513C334.365 130.037 325.093 148.349 329.496 152.753C333.901 157.158 337.149 153.68 336.22 171.297L339.927 167.82L341.951 162.952Z" stroke="#1A2E35" stroke-width="1.33333" stroke-miterlimit="10" stroke-linecap="round" stroke-linejoin="round"/>
<path d="M307.844 171.374C307.844 173.024 308.888 174.362 310.178 174.362C311.467 174.362 312.511 173.024 312.511 171.374C312.511 169.725 311.467 168.387 310.178 168.387C308.888 168.387 307.844 169.725 307.844 171.374Z" fill="#1A2E35"/>
<path d="M283.6 171.374C283.6 173.024 284.645 174.362 285.934 174.362C287.223 174.362 288.267 173.024 288.267 171.374C288.267 169.725 287.223 168.387 285.934 168.387C284.645 168.387 283.6 169.725 283.6 171.374Z" fill="#1A2E35"/>
<path d="M322.851 160.634C322.851 160.634 315.897 153.371 305.234 160.634" stroke="#1A2E35" stroke-width="5.33333" stroke-miterlimit="10" stroke-linecap="round" stroke-linejoin="round"/>
<path d="M290.244 161.407C290.244 161.407 281.59 152.307 277.881 159.021" stroke="#1A2E35" stroke-width="5.33333" stroke-miterlimit="10" stroke-linecap="round" stroke-linejoin="round"/>
<path d="M318.051 195.77C318.051 195.77 297.263 202.703 288.389 196.795C288.389 196.795 299.581 216.184 318.051 195.77Z" fill="white"/>
<path d="M318.051 195.77C318.051 195.77 297.263 202.703 288.389 196.795C288.389 196.795 299.581 216.184 318.051 195.77Z" stroke="#1A2E35" stroke-width="1.33333" stroke-miterlimit="10" stroke-linecap="round" stroke-linejoin="round"/>
<path d="M306.47 181.187C306.47 181.187 309.836 184.248 307.701 186.887C306.763 188.046 305.16 188.402 303.735 187.968C302.59 187.619 301.035 187.462 299.98 188.605C298.124 190.613 293.334 190.151 291.789 187.678C291.789 187.678 290.604 187.234 289.568 187.216C288.528 187.199 287.636 186.431 287.479 185.404C287.28 184.109 287.693 182.463 290.244 181.187" stroke="#1A2E35" stroke-width="1.33333" stroke-miterlimit="10" stroke-linecap="round" stroke-linejoin="round"/>
<path d="M293.645 166.375C293.645 166.375 295.399 172.069 294.753 177.942" stroke="#1A2E35" stroke-width="1.33333" stroke-miterlimit="10" stroke-linecap="round" stroke-linejoin="round"/>
<path d="M313.735 195.435C313.735 195.435 304.773 193.32 299.395 195.88C298.757 196.184 298.011 196.186 297.421 195.797C296.293 195.054 294.004 194.113 290.246 194.943" stroke="#1A2E35" stroke-miterlimit="10" stroke-linecap="round" stroke-linejoin="round"/>
<path d="M350.049 222.175C345.956 225.816 331.665 233.594 312.477 237.591L321.15 238.983L332.155 253.818C332.155 253.818 354.832 241.526 359.961 224.608L354.875 221.776C353.27 220.882 351.335 221.03 350.049 222.175Z" fill="#4CD79D"/>
<path d="M350.049 222.175C345.956 225.816 331.665 233.594 312.477 237.591L321.15 238.983L332.155 253.818C332.155 253.818 354.832 241.526 359.961 224.608L354.875 221.776C353.27 220.882 351.335 221.03 350.049 222.175Z" stroke="#1A2E35" stroke-width="1.33333" stroke-miterlimit="10" stroke-linecap="round" stroke-linejoin="round"/>
<path d="M285.704 221.204C289.128 225.561 294.125 233.774 312.978 237.592L304.5 238.982L294.642 253.819C294.642 253.819 278.014 242.691 276.529 222.753L280.789 220.182C282.362 219.231 284.492 219.663 285.704 221.204Z" fill="#4CD79D"/>
<path d="M285.704 221.204C289.128 225.561 294.125 233.774 312.978 237.592L304.5 238.982L294.642 253.819C294.642 253.819 278.014 242.691 276.529 222.753L280.789 220.182C282.362 219.231 284.492 219.663 285.704 221.204Z" stroke="#1A2E35" stroke-width="1.33333" stroke-miterlimit="10" stroke-linecap="round" stroke-linejoin="round"/>
<path d="M315.124 172.997C315.124 172.997 310.624 175.315 305.234 172.997" stroke="#1A2E35" stroke-miterlimit="10" stroke-linecap="round" stroke-linejoin="round"/>
<path d="M290.878 172.997C290.878 172.997 286.378 175.315 280.988 172.997" stroke="#1A2E35" stroke-miterlimit="10" stroke-linecap="round" stroke-linejoin="round"/>
<path d="M406.301 250.065C406.301 250.065 431.356 259.154 428.68 320.893C428.635 321.931 427.325 322.379 426.68 321.567C422.928 316.85 412.584 308.456 388.566 313.8C387.636 314.006 386.778 313.233 386.882 312.286C387.885 303.094 392.866 264.029 406.301 250.065Z" fill="#4CD79D"/>
<path d="M406.301 250.065C406.301 250.065 431.356 259.154 428.68 320.893C428.635 321.931 427.325 322.379 426.68 321.567C422.928 316.85 412.584 308.456 388.566 313.8C387.636 314.006 386.778 313.233 386.882 312.286C387.885 303.094 392.866 264.029 406.301 250.065Z" stroke="#1A2E35" stroke-width="1.33333" stroke-miterlimit="10" stroke-linecap="round" stroke-linejoin="round"/>
<path d="M390.798 305.389C390.315 305.498 389.826 305.615 389.332 305.741" stroke="#1A2E35" stroke-width="1.33333" stroke-miterlimit="10" stroke-linecap="round" stroke-linejoin="round"/>
<path d="M402.418 304.078C399.373 304.049 396.044 304.334 392.428 305.045" stroke="#1A2E35" stroke-width="1.33333" stroke-miterlimit="10" stroke-linecap="round" stroke-linejoin="round"/>
<path d="M421.747 309.416C417.898 307.03 412.161 304.582 404.449 304.145" stroke="#1A2E35" stroke-width="1.33333" stroke-miterlimit="10" stroke-linecap="round" stroke-linejoin="round"/>
<path d="M426.629 313.17C425.955 312.517 424.964 311.643 423.65 310.691" stroke="#1A2E35" stroke-width="1.33333" stroke-miterlimit="10" stroke-linecap="round" stroke-linejoin="round"/>
<path d="M268.548 302.95C268.288 303.315 267.846 303.539 267.269 303.539H244.687C243.479 303.539 242.151 302.56 241.719 301.351L224.017 251.717C223.801 251.113 223.851 250.566 224.105 250.171L225.876 248.257C226.136 247.897 226.576 247.675 227.149 247.675H249.73C250.939 247.675 252.267 248.654 252.698 249.862L270.401 299.498C270.617 300.101 270.566 300.648 270.312 301.044L268.548 302.95Z" fill="white"/>
<path d="M268.548 302.95C268.288 303.315 267.846 303.539 267.269 303.539H244.687C243.479 303.539 242.151 302.56 241.719 301.351L224.017 251.717C223.801 251.113 223.851 250.566 224.105 250.171L225.876 248.257C226.136 247.897 226.576 247.675 227.149 247.675H249.73C250.939 247.675 252.267 248.654 252.698 249.862L270.401 299.498C270.617 300.101 270.566 300.648 270.312 301.044L268.548 302.95Z" stroke="#1A2E35" stroke-width="1.33333" stroke-miterlimit="10" stroke-linecap="round" stroke-linejoin="round"/>
<path d="M244.687 303.539H267.27C268.477 303.539 269.108 302.56 268.676 301.352L250.973 251.716C250.542 250.509 249.214 249.529 248.006 249.529H225.424C224.216 249.529 223.585 250.509 224.017 251.716L241.719 301.352C242.151 302.56 243.479 303.539 244.687 303.539Z" fill="#1A2E35"/>
<path d="M244.687 303.539H267.27C268.477 303.539 269.108 302.56 268.676 301.352L250.973 251.716C250.542 250.509 249.214 249.529 248.006 249.529H225.424C224.216 249.529 223.585 250.509 224.017 251.716L241.719 301.352C242.151 302.56 243.479 303.539 244.687 303.539Z" stroke="#1A2E35" stroke-width="1.33333" stroke-miterlimit="10" stroke-linecap="round" stroke-linejoin="round"/>
<path d="M244.924 261.119H250.285C251.493 261.119 252.122 260.14 251.692 258.933L249.78 253.572C249.349 252.363 248.02 251.383 246.812 251.383H241.451C240.244 251.383 239.613 252.363 240.044 253.572L241.956 258.933C242.387 260.14 243.715 261.119 244.924 261.119Z" fill="white"/>
<path d="M244.924 261.119H250.285C251.493 261.119 252.122 260.14 251.692 258.933L249.78 253.572C249.349 252.363 248.02 251.383 246.812 251.383H241.451C240.244 251.383 239.613 252.363 240.044 253.572L241.956 258.933C242.387 260.14 243.715 261.119 244.924 261.119Z" stroke="#1A2E35" stroke-width="1.33333" stroke-miterlimit="10" stroke-linecap="round" stroke-linejoin="round"/>
<path d="M241.47 253.992C241.72 254.696 242.495 255.267 243.199 255.267C243.904 255.267 244.271 254.696 244.02 253.992C243.768 253.287 242.994 252.717 242.289 252.717C241.586 252.717 241.219 253.287 241.47 253.992Z" fill="black"/>
<path d="M246.989 256.251C247.24 256.956 248.015 257.527 248.719 257.527C249.423 257.527 249.791 256.956 249.539 256.251C249.288 255.548 248.514 254.977 247.809 254.977C247.106 254.977 246.738 255.548 246.989 256.251Z" fill="black"/>
<path d="M243.081 258.512C243.332 259.216 244.107 259.787 244.81 259.787C245.515 259.787 245.882 259.216 245.631 258.512C245.379 257.808 244.605 257.237 243.901 257.237C243.197 257.237 242.83 257.808 243.081 258.512Z" fill="black"/>
<path d="M224.741 308.871C224.741 308.871 202.385 350.478 203.072 366.936C203.759 383.394 214.116 388.957 214.116 388.957C214.116 388.957 242.066 387.566 242.53 354.42L246.304 322.199C246.304 322.199 256.039 318.877 259.968 312.077C259.968 312.077 269.702 308.754 272.79 303.191C275.879 297.628 277.694 290.442 274.599 289.283C271.505 288.124 269.38 298.267 266.707 300.178C264.913 301.46 262.053 303.11 260.366 304.056C259.644 304.461 258.688 304.102 258.34 303.3C258.08 302.701 258.243 302.036 258.742 301.674C260.077 300.703 262.728 298.595 264.855 295.774C267.824 291.834 276.07 280.475 271.95 277.926C267.832 275.375 261.058 287.892 258.422 289.979C256.789 291.271 254.546 292.742 253.076 293.674C252.187 294.236 250.992 294.1 250.159 293.346L249.995 293.197C249.162 292.444 248.904 291.262 249.368 290.315C250.153 288.715 251.334 286.387 251.944 285.58C253.727 283.221 256.093 280.96 259.78 276.735C263.599 272.359 266.984 269.267 264.406 267.262C259.34 263.322 246.237 278.157 244.512 280.011C243.433 281.173 242.41 283.152 241.796 284.47C241.456 285.198 240.566 285.462 239.816 285.06C239.333 284.803 239.009 284.322 238.966 283.791C238.811 281.952 238.51 277.659 238.906 276.071C239.479 273.771 241.122 272.125 243.499 267.911C245.584 264.214 248.005 260.311 246.267 258.686C242.546 255.209 235.172 265.871 235.172 265.871L229.817 275.375C229.817 275.375 232.026 270.507 229.315 268.189C226.603 265.871 226.753 271.203 224.393 273.984C222.033 276.766 224.292 282.562 223.657 286.733C223.022 290.906 223.017 294.152 223.017 294.152L224.741 308.871Z" fill="white"/>
<g opacity="0.199997">
<path d="M251.829 319.59C251.829 319.59 258.42 312.888 255.489 310.474C252.558 308.06 249.975 306.026 247.211 302.407C244.446 298.788 242.591 293.919 239.114 293.919C235.637 293.919 232.759 289.238 228.983 291.927C225.206 294.615 229.977 307.055 228.983 312.077C227.987 317.099 234.119 401.519 205.44 378.201C176.76 354.883 212.225 404.951 212.225 404.951L236.332 399.62L242.745 388.03L246.348 362.068L250.936 328.603L251.829 319.59Z" fill="black"/>
</g>
<g opacity="0.199997">
<path d="M263.4 293.244C262.795 292.76 262.038 292.076 261.402 291.254C260.871 290.57 259.827 290.597 259.318 291.299C258.093 292.99 255.999 295.523 253.717 296.701C253.717 296.701 255.803 301.337 257.889 300.41C259.383 299.745 262.124 296.765 263.562 295.125C264.052 294.566 263.981 293.71 263.4 293.244Z" fill="black"/>
</g>
<g opacity="0.199997">
<path d="M249.876 283.833C248.85 283.443 247.313 282.709 246.337 281.561C246 281.167 245.376 281.235 245.136 281.695L242.746 286.27C242.746 286.27 244.453 288.947 246.912 289.63C246.912 289.63 248.522 286.878 250.154 285.004C250.493 284.617 250.356 284.016 249.876 283.833Z" fill="black"/>
</g>
<g opacity="0.199997">
<path d="M237.839 274.912C237.839 274.912 235 278.621 232.275 277.577V284.184L237.839 283.836C237.839 283.836 236.795 280.475 237.839 274.912Z" fill="black"/>
</g>
<g opacity="0.199997">
<path d="M270.059 304.929C270.059 304.929 265.388 306.944 261.908 307.066C261.175 307.092 260.538 307.569 260.368 308.282L259.844 310.474C259.844 310.474 264.264 309.913 270.059 304.929Z" fill="black"/>
</g>
<g opacity="0.199997">
<path d="M230.352 273.797C230.352 273.797 228.684 277.345 226.713 278.737C224.743 280.127 226.945 281.095 226.713 284.32C226.713 284.32 229.702 276.275 230.352 273.797Z" fill="black"/>
</g>
<path d="M224.741 308.871C224.741 308.871 202.385 350.479 203.072 366.936C203.759 383.394 214.116 388.957 214.116 388.957C214.116 388.957 242.066 387.567 242.53 354.42L246.304 322.199C246.304 322.199 256.039 318.877 259.968 312.077C259.968 312.077 269.702 308.755 272.79 303.191C275.879 297.628 277.694 290.442 274.599 289.283C271.505 288.124 269.38 298.267 266.707 300.178C264.913 301.46 262.053 303.11 260.366 304.056C259.644 304.461 258.688 304.102 258.34 303.3C258.08 302.701 258.243 302.036 258.742 301.674C260.077 300.704 262.728 298.595 264.855 295.774C267.824 291.834 276.07 280.475 271.95 277.926C267.832 275.375 261.058 287.892 258.422 289.979C256.789 291.271 254.546 292.742 253.076 293.674C252.187 294.237 250.992 294.1 250.159 293.346L249.995 293.197C249.162 292.444 248.904 291.262 249.368 290.315C250.153 288.715 251.334 286.388 251.944 285.58C253.727 283.221 256.093 280.96 259.78 276.735C263.599 272.36 266.984 269.268 264.406 267.262C259.34 263.322 246.237 278.157 244.512 280.011C243.433 281.173 242.41 283.152 241.796 284.47C241.456 285.198 240.566 285.462 239.816 285.06C239.333 284.804 239.009 284.322 238.966 283.791C238.811 281.952 238.51 277.659 238.906 276.071C239.479 273.771 241.122 272.125 243.499 267.911C245.584 264.214 248.005 260.311 246.267 258.686C242.546 255.209 235.172 265.871 235.172 265.871L229.817 275.375C229.817 275.375 232.026 270.507 229.315 268.189C226.603 265.871 226.753 271.203 224.393 273.985C222.033 276.766 224.292 282.562 223.657 286.733C223.022 290.906 223.017 294.152 223.017 294.152L224.741 308.871Z" stroke="#1A2E35" stroke-width="1.33333" stroke-miterlimit="10" stroke-linecap="round" stroke-linejoin="round"/>
<path d="M229.55 276.534C229.55 276.534 226.847 285.806 225.252 286.271" stroke="#1A2E35" stroke-width="1.33333" stroke-miterlimit="10" stroke-linecap="round" stroke-linejoin="round"/>
<path d="M365.057 416.071C366.328 416.23 367.616 416.387 368.921 416.541" stroke="#1A2E35" stroke-width="1.33333" stroke-miterlimit="10" stroke-linecap="round" stroke-linejoin="round"/>
<path d="M308.637 405.551C321.422 409.065 338.199 412.526 360.182 415.445" stroke="#1A2E35" stroke-width="1.33333" stroke-miterlimit="10" stroke-linecap="round" stroke-linejoin="round"/>
<path d="M272.727 390.145C277.272 393.713 286.335 398.956 303.996 404.222" stroke="#1A2E35" stroke-width="1.33333" stroke-miterlimit="10" stroke-linecap="round" stroke-linejoin="round"/>
<path d="M268.402 385.634C268.402 385.634 268.834 386.565 270.42 388.131" stroke="#1A2E35" stroke-width="1.33333" stroke-miterlimit="10" stroke-linecap="round" stroke-linejoin="round"/>
<path d="M317.496 242.24L315.838 289.717C311.046 289.717 307.297 285.833 307.464 281.04L308.819 242.24" stroke="#1A2E35" stroke-miterlimit="10" stroke-linecap="round" stroke-linejoin="round"/>
<path d="M315.904 246.603C315.904 248.219 314.593 249.529 312.977 249.529C311.362 249.529 310.051 248.219 310.051 246.603C310.051 244.987 311.362 243.676 312.977 243.676C314.593 243.676 315.904 244.987 315.904 246.603Z" fill="#4CD79D"/>
<path d="M315.904 246.603C315.904 248.219 314.593 249.529 312.977 249.529C311.362 249.529 310.051 248.219 310.051 246.603C310.051 244.987 311.362 243.676 312.977 243.676C314.593 243.676 315.904 244.987 315.904 246.603Z" stroke="#1A2E35" stroke-miterlimit="10" stroke-linecap="round" stroke-linejoin="round"/>
<path d="M314.629 278.534C314.629 280.15 313.319 281.461 311.702 281.461C310.086 281.461 308.775 280.15 308.775 278.534C308.775 276.917 310.086 275.608 311.702 275.608C313.319 275.608 314.629 276.917 314.629 278.534Z" fill="#4CD79D"/>
<path d="M314.629 278.534C314.629 280.15 313.319 281.461 311.702 281.461C310.086 281.461 308.775 280.15 308.775 278.534C308.775 276.917 310.086 275.608 311.702 275.608C313.319 275.608 314.629 276.917 314.629 278.534Z" stroke="#1A2E35" stroke-miterlimit="10" stroke-linecap="round" stroke-linejoin="round"/>
<path d="M316.811 194.143C316.811 194.143 318.351 196.339 320.059 196.99L316.811 194.143Z" fill="white"/>
<path d="M316.811 194.143C316.811 194.143 318.351 196.339 320.059 196.99" stroke="#1A2E35" stroke-miterlimit="10" stroke-linecap="round" stroke-linejoin="round"/>
<path d="M291.5 200.62C291.5 200.62 292.894 202.316 296.554 202.438" stroke="#1A2E35" stroke-miterlimit="10" stroke-linecap="round" stroke-linejoin="round"/>
<path d="M318.051 195.771C318.051 195.771 314.568 198.611 310.582 200.444L318.051 195.771Z" fill="white"/>
<path d="M318.051 195.771C318.051 195.771 314.568 198.611 310.582 200.444" stroke="#1A2E35" stroke-miterlimit="10" stroke-linecap="round" stroke-linejoin="round"/>
<path d="M289.559 200.863C289.559 200.863 292.785 211.63 302.965 210.328C313.145 209.027 316.81 199.214 316.81 199.214" stroke="#1A2E35" stroke-miterlimit="10" stroke-linecap="round" stroke-linejoin="round"/>
<path d="M412.62 129.871H382.081C381.354 129.871 380.764 129.282 380.764 128.554C380.764 127.827 381.354 127.236 382.081 127.236H412.62C413.348 127.236 413.939 127.827 413.939 128.554C413.939 129.282 413.348 129.871 412.62 129.871Z" fill="#1A2E35"/>
<path d="M412.62 129.871H382.081C381.354 129.871 380.764 129.282 380.764 128.554C380.764 127.827 381.354 127.236 382.081 127.236H412.62C413.348 127.236 413.939 127.827 413.939 128.554C413.939 129.282 413.348 129.871 412.62 129.871Z" stroke="#1A2E35" stroke-linecap="round" stroke-linejoin="round"/>
<path d="M411.742 136.441H382.08C381.353 136.441 380.764 135.851 380.764 135.123C380.764 134.395 381.353 133.806 382.08 133.806H411.742C412.469 133.806 413.06 134.395 413.06 135.123C413.06 135.851 412.469 136.441 411.742 136.441Z" fill="#1A2E35"/>
<path d="M411.742 136.441H382.08C381.353 136.441 380.764 135.851 380.764 135.123C380.764 134.395 381.353 133.806 382.08 133.806H411.742C412.469 133.806 413.06 134.395 413.06 135.123C413.06 135.851 412.469 136.441 411.742 136.441Z" stroke="#1A2E35" stroke-linecap="round" stroke-linejoin="round"/>
<path d="M402.958 143.01H382.08C381.353 143.01 380.764 142.421 380.764 141.693C380.764 140.965 381.353 140.375 382.08 140.375H402.958C403.685 140.375 404.276 140.965 404.276 141.693C404.276 142.421 403.685 143.01 402.958 143.01Z" fill="#1A2E35"/>
<path d="M402.958 143.01H382.08C381.353 143.01 380.764 142.421 380.764 141.693C380.764 140.965 381.353 140.375 382.08 140.375H402.958C403.685 140.375 404.276 140.965 404.276 141.693C404.276 142.421 403.685 143.01 402.958 143.01Z" stroke="#1A2E35" stroke-linecap="round" stroke-linejoin="round"/>
<path d="M416.422 149.316C418.809 149.316 420.746 147.38 420.746 144.993V128.268" stroke="#1A2E35" stroke-linecap="round" stroke-linejoin="round"/>
<path d="M413.927 149.316H397.294L385.734 160.875V149.316H383.641" stroke="#1A2E35" stroke-linecap="round" stroke-linejoin="round"/>
<path d="M373.957 128.268V144.993C373.957 147.38 375.892 149.316 378.281 149.316H380.764" stroke="#1A2E35" stroke-linecap="round" stroke-linejoin="round"/>
<path d="M420.745 125.476C420.745 123.088 418.81 121.153 416.422 121.153H378.28C375.892 121.153 373.957 123.088 373.957 125.476" stroke="#1A2E35" stroke-linecap="round" stroke-linejoin="round"/>
<path d="M436.633 182.574C436.633 180.187 434.697 178.251 432.309 178.251H368.453" stroke="#1A2E35" stroke-linecap="round" stroke-linejoin="round"/>
<path d="M387.484 206.414H432.309C434.696 206.414 436.632 204.479 436.632 202.092V185.525" stroke="#1A2E35" stroke-linecap="round" stroke-linejoin="round"/>
<path d="M373.033 212.443V217.974L384.593 206.414" stroke="#1A2E35" stroke-linecap="round" stroke-linejoin="round"/>
<path d="M361.256 202.092C361.256 204.479 363.19 206.414 365.579 206.414H373.033V210.032" stroke="#1A2E35" stroke-linecap="round" stroke-linejoin="round"/>
<path d="M365.579 178.251C363.191 178.251 361.256 180.187 361.256 182.574V199.089" stroke="#1A2E35" stroke-linecap="round" stroke-linejoin="round"/>
<path d="M376.718 197.539L371.454 200.306L372.459 194.445L368.201 190.295L374.086 189.439L376.718 184.107L379.349 189.439L385.234 190.295L380.975 194.445L381.981 200.306L376.718 197.539Z" stroke="#1A2E35" stroke-linecap="round" stroke-linejoin="round"/>
<path d="M398.944 197.539L393.681 200.306L394.687 194.445L390.428 190.295L396.313 189.439L398.944 184.107L401.576 189.439L407.461 190.295L403.203 194.445L404.208 200.306L398.944 197.539Z" stroke="#1A2E35" stroke-linecap="round" stroke-linejoin="round"/>
<path d="M421.171 197.539L415.907 200.306L416.913 194.445L412.654 190.295L418.54 189.439L421.171 184.107L423.802 189.439L429.687 190.295L425.428 194.445L426.434 200.306L421.171 197.539Z" stroke="#1A2E35" stroke-linecap="round" stroke-linejoin="round"/>
<path d="M233.741 166.286V148.143H237.702V168.095C237.702 172.28 235.609 174.671 231.576 174.671C227.539 174.671 225.445 172.28 225.445 168.095V148.143H229.555V168.393C229.555 170.261 230.34 170.934 231.648 170.934C232.957 170.934 233.741 170.261 233.741 168.393" stroke="#1A2E35" stroke-linecap="round" stroke-linejoin="round"/>
<path d="M249.924 163.336L253.813 174.296H249.479L246.49 165.181H246.414L243.351 174.296H239.467L244.212 160.921L239.692 148.144H244.024L246.789 156.587H246.865L249.703 148.144H253.588L249.068 160.921" stroke="#1A2E35" stroke-linecap="round" stroke-linejoin="round"/>
<path d="M238.805 90.7341L244.521 88.2688V91.2573L236.64 94.5825L244.521 97.9077V100.896L233.09 95.9645V93.1995L236.726 91.6301" stroke="#1A2E35" stroke-linecap="round" stroke-linejoin="round"/>
<path d="M250.693 97.9956L257.193 81.506H260.744L250.431 107.659H246.885L249.55 100.896" stroke="#1A2E35" stroke-linecap="round" stroke-linejoin="round"/>
<path d="M265.074 100.047L263.105 100.896V97.9077L270.991 94.5825L263.105 91.2573V88.2688L274.537 93.1995V95.9645L267.968 98.7988" stroke="#1A2E35" stroke-linecap="round" stroke-linejoin="round"/>
</svg>
